<svg xmlns="http://www.w3.org/2000/svg" viewBox="0 0 78.88 78.88"><title>Asset 48</title><g id="Layer_2" data-name="Layer 2"><g id="Layer_2-2" data-name="Layer 2"><rect width="78.88" height="78.88" style="fill:#d6868d"/><path d="M56,32.29a9,9,0,0,0,0,6.91c.92,2.57,4.69,6.88,4.64,10.25s-1.82,6.06-2.07,7.85,2.49,3.15,1.36,6.21a4.33,4.33,0,0,1-2.27,2.28A3.94,3.94,0,0,0,60.78,63c.81-2.55-1.27-4.34-.31-6.34a14.49,14.49,0,0,0,1.65-5.25c.05-1.42,1-2.59-.17-5s.41-3.26-1.69-5.68a16.24,16.24,0,0,1-3.5-6,23.38,23.38,0,0,0-.8-2.48" style="fill:#b63326"/><path d="M55.06,38c.9,3.36,1.77,6.84,3,9.07s1.09,5.5,0,7A14.33,14.33,0,0,0,55.31,60c-.68,4.49,2.14,4.85,2.14,4.85a2.08,2.08,0,0,1-2.62-1.49c-2.25-5.78,1.5-9,1.5-11.72s-3.63-7.08-4-8.33S55.06,38,55.06,38" style="fill:#b63326"/><path d="M38.81,42.87s-.3-3.4-1.5-1.4c-.43.7-.74,1.18-1,1.67-.23-.33-.55-.37-1,.4l-.62,1c-.14-.46-.35-.85-.67-.75l0-.07s-.26-3-1.31-1.67c-.23-.45-.57-.59-1.1.27A18.93,18.93,0,0,0,29,48.23c-1.19,3.76.1,3.47.44,5.47s1.35,2.58,1.78,5.09a4.92,4.92,0,0,1-.25,2.75l.11-.17a7.15,7.15,0,0,0,1-2.93,3.09,3.09,0,0,1,.07.35,4.92,4.92,0,0,1-.25,2.75l.11-.17a5.29,5.29,0,0,0,.72-1.69,8.25,8.25,0,0,1,.3,1.19,5,5,0,0,1-.26,2.75l.11-.16c.87-1.26,1.06-3.25,1.21-5a3.84,3.84,0,0,0-.13-1.2A9.17,9.17,0,0,1,34.85,60a4.89,4.89,0,0,1-.26,2.75,1.11,1.11,0,0,0,.11-.16c.87-1.26,1.06-3.25,1.21-5s-1.4-3.69-1.69-6.5a4.41,4.41,0,0,1,0-.63c.17.85.68,1.24.88,2.4.33,2,1.35,2.58,1.78,5.09a4.81,4.81,0,0,1-.26,2.75l.11-.17c.87-1.25,1.06-3.25,1.21-5S36.54,51.8,36.25,49s1.79-4.14,2.56-6.13m-6,11.05a3.79,3.79,0,0,1,.24.72q-.13-.35-.24-.72" style="fill:#b63326"/><path d="M45.09,51.45c-.29,2.8-1.83,4.72-1.68,6.5s.33,3.76,1.2,5l.11.16a4.92,4.92,0,0,1-.25-2.75c.43-2.51,1.44-3.08,1.78-5.08.19-1.16.71-1.55.87-2.4a4.27,4.27,0,0,1,0,.62c-.29,2.81-1.83,4.73-1.68,6.51s.33,3.76,1.2,5l.11.16a4.92,4.92,0,0,1-.25-2.75,9.38,9.38,0,0,1,.93-2.76,3.52,3.52,0,0,0-.12,1.19c.14,1.77.33,3.77,1.2,5l.11.17a4.92,4.92,0,0,1-.25-2.75,9,9,0,0,1,.29-1.19,5.29,5.29,0,0,0,.72,1.69l.12.17a4.9,4.9,0,0,1-.26-2.75c0-.13,0-.24.08-.36a7.05,7.05,0,0,0,1,2.94c0,.07.08.11.11.17a4.9,4.9,0,0,1-.26-2.75c.43-2.51,1.45-3.09,1.78-5.09s1.64-1.71.43-5.47a18.55,18.55,0,0,0-2.65-5.91c-.51-.86-.86-.71-1.09-.27-1-1.36-1.3,1.68-1.3,1.68s0,0,0,.07c-.32-.1-.53.28-.68.74l-.61-1c-.46-.76-.79-.72-1-.39-.27-.49-.58-1-1-1.68-1.2-2-1.49,1.4-1.49,1.4.77,2,2.84,3.32,2.55,6.13m3.24,5.65a3.54,3.54,0,0,1,.25-.72c-.08.25-.16.49-.25.72" style="fill:#b63326"/><path d="M52.87,34.2c3.05-3.84,9.84,6.31,10.57,9.33s-.78,3.25-2.33,4.87S58,53.27,58.57,54.28c1,1.73,2.89,1.2,4,1a5,5,0,0,0,2-.88s-2.51,2-4.23,1.82S57,54.39,57.26,53s.47-1.36,1.59-3.73c.43-.89,3.24-4,2-6.12a16.14,16.14,0,0,0-3-4.07c-1.5-1.55-6.11-3.5-5-4.87" style="fill:#b63326"/><path d="M46,33.52a8.19,8.19,0,0,0,0,6.58c.92,2.45,4.7,6.56,4.65,9.77s-1.83,5.77-2.08,7.47,2.5,3,1.36,5.92a4.27,4.27,0,0,1-2.26,2.17,3.92,3.92,0,0,0,3.19-2.65c.81-2.43-1.27-4.13-.31-6a13.76,13.76,0,0,0,1.65-5c0-1.35,1-2.48-.17-4.75s.4-3.11-1.7-5.42a15.22,15.22,0,0,1-3.49-5.7,21.93,21.93,0,0,0-.8-2.36" style="fill:#b63326"/><path d="M51.94,35.55A8.2,8.2,0,0,0,51,42.06c.57,2.55,3.74,7.09,3.25,10.27s-2.61,5.48-3.1,7.15,2.06,3.29.53,6a4.38,4.38,0,0,1-2.54,1.88,4,4,0,0,0,3.52-2.23c1.14-2.31-.68-4.25.53-6a13.66,13.66,0,0,0,2.33-4.76c.24-1.32,1.3-2.32.5-4.72s.82-3-.94-5.58A15,15,0,0,1,52.41,38a18.7,18.7,0,0,0-.47-2.44" style="fill:#b63326"/><path d="M53.18,27.42C48.27,37.46,59,42.72,58,45.25s-3.2,4.87-2.51,7.19,1.53,2.15,2.1,4A2.83,2.83,0,0,1,57,59.39s1.75-1.49,1.91-2.48-1.14-2.39-1.63-3.86-.83-1.47,1.08-4.42,2.89-6.38,1-7.56c-2.68-1.68-6.22-13.65-6.22-13.65" style="fill:#a33c34"/><path d="M46.65,44c1.75,3.16,5.45,5.15,6.14,7.88s.79,4.2-1,5.91c-3.28,3.17-2.8,5.08-1.69,6s3.07.47,3.07.47S48.33,64.32,51,60c1.81-2.88,3.38-3.27,4.53-5s.7-4.94-1-8.44-2-4.69-1.72-5.73-6.13-2.75-6.55-2.15.37,5.27.37,5.27" style="fill:#a33c34"/><path d="M22.61,32.66c-.8,2.89-.64,3.73.91,5.08a10.43,10.43,0,0,1,3.21,5.46c.25,1.69-2.38,6.9-2.38,6.9s1.59-4.6-.11-7.86-4.39-3.73-3.49-6.55,1.86-3,1.86-3" style="fill:#a33c34"/><path d="M52.58,37.92A22.15,22.15,0,0,0,56.66,42c1.71,1.54,4.8,3.85,4.42,5.92s-4.35.89-5.59,1.9-1.76,2.06-1.13,2.8S52.05,51.79,54,50s3.8-1.56,3.74-2.94a5.39,5.39,0,0,0-1.78-3.26c-.79-.89-4.28-3.41-4.19-3.85a19.52,19.52,0,0,1,.83-2" style="fill:#b63326"/><path d="M34.49,32.07a9,9,0,0,1-1.25,6.79c-1.38,2.36-5.88,5.9-6.46,9.23s.68,6.28.6,8.09S24.17,58.86,24.9,62s1.8,2.67,1.8,2.67a4,4,0,0,1-2.62-3.33c-.33-2.65,2.05-4,1.47-6.17a14.85,14.85,0,0,1-.65-5.46c.21-1.41-.48-2.73,1.08-4.87s.21-3.28,2.72-5.27a16.13,16.13,0,0,0,4.54-5.24,22.25,22.25,0,0,1,1.25-2.29" style="fill:#b63326"/><path d="M33.47,32.91a9,9,0,0,1,0,6.9c-.91,2.58-4.69,6.89-4.64,10.26s1.82,6.06,2.08,7.85-2.5,3.15-1.36,6.2a4.33,4.33,0,0,0,2.26,2.29,4,4,0,0,1-3.19-2.78c-.81-2.55,1.27-4.34.31-6.34A15,15,0,0,1,27.3,52c-.05-1.42-1-2.6.17-5s-.4-3.27,1.7-5.69a15.94,15.94,0,0,0,3.49-6,22.07,22.07,0,0,1,.81-2.48" style="fill:#b63326"/><path d="M27,33.34a9,9,0,0,1,0,6.91c-.92,2.57-4.69,6.89-4.64,10.26s1.82,6.05,2.08,7.84-2.5,3.16-1.36,6.21a4.33,4.33,0,0,0,2.26,2.29,3.94,3.94,0,0,1-3.19-2.79c-.82-2.55,1.27-4.33.31-6.34a14.71,14.71,0,0,1-1.65-5.24c-.05-1.42-1-2.59.17-5s-.4-3.26,1.69-5.68a16.09,16.09,0,0,0,3.5-6,24.35,24.35,0,0,1,.8-2.48" style="fill:#b63326"/><path d="M27.54,35a9,9,0,0,1,.93,6.84c-.56,2.68-3.74,7.45-3.24,10.79s2.6,5.76,3.09,7.5-2.06,3.45-.53,6.33a4.38,4.38,0,0,0,2.54,2,4,4,0,0,1-3.52-2.34c-1.14-2.42.68-4.46-.53-6.32a14.8,14.8,0,0,1-2.33-5c-.24-1.4-1.3-2.44-.49-5s-.83-3.18.93-5.86a16,16,0,0,0,2.68-6.39A23.64,23.64,0,0,1,27.54,35" style="fill:#a33c34"/><path d="M58.59,33.28a1.54,1.54,0,0,0-2.28-.41,1.2,1.2,0,0,0-.38,1.36c.12.39.55.43.45,1a1.07,1.07,0,0,1-.64.87,1.22,1.22,0,0,0-.6,1.4c.12.49.86.1,1.36-.11a9.37,9.37,0,0,0,1.64-1.27,2.57,2.57,0,0,0,.45-2.87" style="fill:#c09980"/><path d="M23.66,21.28c4.9,10.55-5.82,16.07-4.78,18.73s3.19,5.11,2.5,7.54-1.52,2.26-2.09,4.24a3.05,3.05,0,0,0,.52,3.05s-1.75-1.56-1.91-2.59,1.14-2.51,1.63-4.06.83-1.54-1.08-4.64-2.89-6.69-1-7.93c2.68-1.77,6.22-14.34,6.22-14.34" style="fill:#b63326"/><path d="M26.3,26.5C31.21,37,20.08,40.84,21.52,45.22c.89,2.71,3.2,5.11,2.5,7.55S22.5,55,21.93,57a3,3,0,0,0,.52,3s-1.75-1.56-1.91-2.59,1.15-2.51,1.64-4.06.83-1.54-1.09-4.64-2.89-6.7-1-7.93C22.76,39.07,26.3,26.5,26.3,26.5" style="fill:#a33c34"/><path d="M61.29,77.89s-.1-6-.34-6.54c-.46-2.1.36-3.06-2.88-5.08,0,0-.74-.24-1.8-.59h0l-2.39-.8-1-.35c-.86-.31-1.72-.62-2.51-.92L48.8,63c-.38-.17-.7-.32-1-.46a2.62,2.62,0,0,1-.59-.38l-.07-.09-.08-.1a20.49,20.49,0,0,1-1.32-3.56h0a5.71,5.71,0,0,1-.13-1c0-.48,0-1,0-1.41s0-.86,0-1.2v-.28c0-.24,0-.44,0-.59a2,2,0,0,1,0-.24l.87-.75c.63-.57,1.54-1.4,2.33-2.18a9.18,9.18,0,0,0,1.75-2.09,1,1,0,0,0,0-.15l-.06,0c-.4.06-2.55.43-4.86.79-1.37.22-2.81.43-4,.58l-1.25.14h0c-.34,0-.62.05-.84.05s-.56,0-.95-.05h0l-1.31-.17c-1.08-.13-2.36-.32-3.61-.51l-3.16-.51c-.21,0-.4-.06-.57-.1l-1.39-.24a1.54,1.54,0,0,0,.4.74,0,0,0,0,0,0,0,11.3,11.3,0,0,0,.74.86c.29.3.6.62.92.93,1,1,2.06,1.91,2.59,2.36l.31.27s0,.09,0,.24,0,.35,0,.59v.28c0,.1,0,.2,0,.3,0,.65,0,1.46-.06,2.31a5.69,5.69,0,0,1-.12,1A21.73,21.73,0,0,1,31.92,62a.86.86,0,0,1-.07.1l-.08.09a2.11,2.11,0,0,1-.24.18,9.31,9.31,0,0,1-1,.52l-1.27.52c-1.11.44-2.44.91-3.7,1.34-.09,0-.18.06-.27.09l-2.55.86h0c-1.05.35-1.76.57-1.78.59-3.22,2-2.44,3-2.89,5h0v0a.61.61,0,0,0,0,.15h0c-.22,1.09-.3,6.38-.3,6.38,0,.32,0,.65,0,1H61.3C61.3,78.54,61.3,78.21,61.29,77.89Z" style="fill:#fbd2c5"/><path d="M45.78,58.41a4.81,4.81,0,0,1-.13-1c0-1.12-.06-2.19-.07-2.89a14.16,14.16,0,0,1-5.68,1.32,2.48,2.48,0,0,1-.39,0,2.36,2.36,0,0,1-.38,0,14.09,14.09,0,0,1-5.68-1.32c0,.7,0,1.77-.08,2.89a5.58,5.58,0,0,1-.12,1c1.81,1.51,4.26,3.07,5.88,3.07a1.87,1.87,0,0,0,.34,0h.08a1.9,1.9,0,0,0,.35,0C41.52,61.48,44,59.92,45.78,58.41Z" style="fill:#d29f97"/><path d="M55.59,36c.31-1.73.55-3,.63-3.31s.06-.25.1-.38.06-.28.09-.42.09-.43.14-.64l.06-.3c0-.23.08-.47.12-.71s0-.21,0-.31,0-.42.07-.64,0-.32,0-.47,0-.28,0-.41a15,15,0,0,0-2.67-9.59c-2.59-3.62-5.56-7.46-12-8H36.79c-6.46.53-9.43,4.37-12,8a14.83,14.83,0,0,0-2.67,9.59c0,.13,0,.27,0,.41a3.56,3.56,0,0,1,.05.47c0,.22,0,.43.08.64l0,.31c0,.24.09.48.13.71s0,.2,0,.3.09.43.15.64.06.27.09.42.06.25.1.38.31,1.57.62,3.28c-1.72-.84-4.11.37-3.82,3.54s4.2,5.13,5.54,5.45a10.24,10.24,0,0,0,.33,1.23c1.17,3,2.59,3.84,5.09,6.25,2.72,2.61,6.74,5.06,8.73,5.05h.43c2,0,6-2.44,8.72-5.05,2.5-2.41,3.92-3.3,5.1-6.25A11.1,11.1,0,0,0,53.87,45c1.3-.29,5.3-2.21,5.59-5.46S57.31,35.11,55.59,36Z" style="fill:#fbd2c5"/><path d="M58.2,37.77a1.89,1.89,0,0,0-2.87-.57,1.62,1.62,0,0,0-.47,1.8c.12.53.68.57.53,1.37a1.41,1.41,0,0,1-.8,1.15,1.73,1.73,0,0,0-.68.73,2,2,0,0,0-.1,1.11c.15.65,1.09.15,1.72-.13a12.81,12.81,0,0,0,2.07-1.65,3.58,3.58,0,0,0,.6-3.81" style="fill:#e9b7ac"/><path d="M20.86,37.77a1.89,1.89,0,0,1,2.87-.57,1.64,1.64,0,0,1,.48,1.8c-.13.53-.68.57-.54,1.37a1.42,1.42,0,0,0,.81,1.15,1.79,1.79,0,0,1,.68.73,2,2,0,0,1,.1,1.11c-.15.65-1.09.15-1.72-.13a12.88,12.88,0,0,1-2.08-1.65,3.6,3.6,0,0,1-.6-3.81" style="fill:#e9b7ac"/><path d="M25.65,30.27h0v0Z" style="fill:#46423e"/><path d="M61.84,74.06c0-1.28-.08-2.6-.13-2.71-.28-1.21-.12-2-.56-2.91a6,6,0,0,0-2.43-2.17S58,66,56.85,65.68h0l-2.48-.8c-.35-.11-.7-.24-1.07-.35L53,64.4c-.78-.26-1.55-.54-2.27-.8l-.74-.28a13.14,13.14,0,0,1,.14,1.89,8.08,8.08,0,0,1-.56,3.23c-1.42,3.27-5.35,3.14-10,3.14s-8.57.13-10-3.14A8.06,8.06,0,0,1,29,65.21a13.56,13.56,0,0,1,.15-1.92l-.26.1c-.81.31-1.72.63-2.64.94l-1.2.4-.27.09-2.65.86h0c-1.09.35-1.83.57-1.85.59a6,6,0,0,0-2.43,2.17c-.45.86-.3,1.69-.56,2.87h0v0a.3.3,0,0,0,0,.15h0c0,.19-.07,1.38-.11,2.55,0,.93,0,1.85-.06,2.24h6v2.58H56.3V76.3h5.62C61.9,75.85,61.87,75,61.84,74.06Z" style="fill:#751f39"/><circle cx="24.47" cy="45.15" r="1.42" style="fill:#fff"/><path d="M55.53,45.15a1.43,1.43,0,1,1-1.42-1.42A1.43,1.43,0,0,1,55.53,45.15Z" style="fill:#fff"/><path d="M63.67,37.92c-.78-.74-.54-2.59-.12-3.92s-.25-2.14-1.48-2.95-1.72-5.39-2-10.63-3.19-6.42-6.3-9.74S42,5.29,39.3,5.73c-1.52.25-.79,1.54.19,2.76-2-.32-3.55-.41-3.55-.11,0,.82-.81,6.31-.81,6.31.16,3.37,2.53,7.87,5,8.9a23.06,23.06,0,0,1,3.12,1.48L43,24.81a7.72,7.72,0,0,0,2.75,1.81c1.37.41,2.22.4,3,.62a9.94,9.94,0,0,1,1.31,4.85c.33,3.39,2.17,4,.33,5.76-4.19,4-1.07,6.48-1.07,6.48a3,3,0,0,1,0-2.95c.82-1.25,3.53-2.28,4.62-5.14.44-1.13-.69-3.33-.3-4.9,1.16,2.86,1.83,4.18,1.55,5.35a7.49,7.49,0,0,1-1.85,2.77,9.55,9.55,0,0,0,3.88-1.26c.95-.77,1.37-3,1.58-3.63.26.54,1.08,1.93,1.12,2a3.11,3.11,0,0,0,3,2.63,6.09,6.09,0,0,0,4.28-.89,4.08,4.08,0,0,1-3.55-.41" style="fill:#b63326"/><path d="M42,5.35l0-.06,0,.06c-.09,0-.2-.08-.31-.13h0a12.91,12.91,0,0,0-9.8.59c-5.74,2.72-11.49,9.08-12.91,13.06s.52,5.24,0,7.75-.61,2.44-2.33,4-3.19,2.21-2.7,3.91a9.66,9.66,0,0,0,1.23,2.73s-3.07,4.48-1.51,6.7c.22.31,3.55,4.24,1.46,6.21A5.89,5.89,0,0,0,13,54.36c.2,2.35,3.55,4.48,4.43,4.89-.53-.28-2.75-2.64-2.24-4.81.42-1.79,1.19-2.29,2-3.62s1.5-2.68.11-4.74A20.55,20.55,0,0,1,15.74,44a3.26,3.26,0,0,1-.41-2.14c.82-3.39,3.93-5.46,5.57-8.63a11.06,11.06,0,0,0,.87-5.24c.23-.21.46-.41.68-.63A13.39,13.39,0,0,0,23,29.2c.9,2.37,2.46,4.06,1.64,5.91s-3.36,2.73-5.13,4.5c-1,1-.44,3.28,0,4.71.19-1-.67-2.5,1.13-4,2.54-2.07,4.84-1.82,6.77-4.54,1-1.44,1.39-1.87,0-6.15s3.4-5.35,6.18-7.86,5.55-4.66,6.37-7.18A35.88,35.88,0,0,0,41.72,6l1-.15c0-.07-.28-.26-.77-.46M19.13,32.51c-.8.9-1.49,1.7-2.11,2.46-.5-1.3-.64-2.37,1.07-3.62A20,20,0,0,0,21,28.58a7.5,7.5,0,0,1-1.87,3.93" style="fill:#b63326"/><path d="M34.65,39.34l-5,.87a3,3,0,0,1-.94-2.57l3.37-2.53C34.35,35.27,35.7,37.18,34.65,39.34Z" style="fill:#3a2018;fill-rule:evenodd"/><path d="M33.42,36a1,1,0,1,0,.81,1.2A1,1,0,0,0,33.42,36Z" style="fill:#fff;fill-rule:evenodd"/><path d="M27.87,38.54a.34.34,0,0,1-.46-.09A.33.33,0,0,1,27.5,38l.65-.42c1.36-.88,3.38-2.18,4.05-3.73a.34.34,0,0,1,.44-.18.33.33,0,0,1,.17.44c-.74,1.74-2.87,3.11-4.29,4Z" style="fill:#3a2018;fill-rule:evenodd"/><path d="M35.33,38.9a.34.34,0,1,1,0,.67,19.27,19.27,0,0,0-3.15.35,20.57,20.57,0,0,0-3.11.83.33.33,0,0,1-.43-.2.35.35,0,0,1,.2-.43,20.71,20.71,0,0,1,3.21-.85A19,19,0,0,1,35.33,38.9Z" style="fill:#3a2018;fill-rule:evenodd"/><path d="M28.56,38.62c.66-.28,1.33-.16,1.5.25s-.23,1-.89,1.23-1.33.16-1.49-.25S27.9,38.89,28.56,38.62Z" style="fill:#a6d2f0;fill-rule:evenodd"/><path d="M28.47,38.38a2,2,0,0,1,1.07-.14.94.94,0,0,1,.76.53h0a1,1,0,0,1-.17.91,2,2,0,0,1-.86.65,2.08,2.08,0,0,1-1.07.15A.86.86,0,0,1,27.61,39a2,2,0,0,1,.86-.65Zm1,.35a1.47,1.47,0,0,0-.8.12,1.44,1.44,0,0,0-.65.48.45.45,0,0,0-.1.42.46.46,0,0,0,.37.23,1.57,1.57,0,0,0,.8-.11,1.6,1.6,0,0,0,.65-.48.51.51,0,0,0,.11-.42v0A.49.49,0,0,0,29.46,38.73Z" style="fill:#3a2018;fill-rule:evenodd"/><path d="M44.36,39.35l4.92,1.22a3,3,0,0,0,1.13-2.5l-3.19-2.76C45,35.31,43.47,37.11,44.36,39.35Z" style="fill:#3a2018;fill-rule:evenodd"/><path d="M45.83,36.14a1,1,0,1,1-.9,1.14A1,1,0,0,1,45.83,36.14Z" style="fill:#fff;fill-rule:evenodd"/><path d="M51.59,38.5a.35.35,0,0,1,.06.48.33.33,0,0,1-.47.05l-.62-.46c-1.35-1-3.38-2.54-4-4.33A.33.33,0,0,1,47.2,34c.55,1.6,2.48,3,3.77,4Z" style="fill:#3a2018;fill-rule:evenodd"/><path d="M43.66,39.53a.34.34,0,0,1-.31-.36.34.34,0,0,1,.36-.31,18.56,18.56,0,0,1,3.24.6,19.8,19.8,0,0,1,3.15,1.08.34.34,0,1,1-.28.61,19.8,19.8,0,0,0-3-1A17.81,17.81,0,0,0,43.66,39.53Z" style="fill:#3a2018;fill-rule:evenodd"/><path d="M50.48,39.06c-.64-.32-1.32-.26-1.51.14s.16,1,.79,1.29,1.32.26,1.52-.14S51.12,39.38,50.48,39.06Z" style="fill:#a6d2f0;fill-rule:evenodd"/><path d="M50.37,39.28a1.51,1.51,0,0,0-.79-.17.48.48,0,0,0-.39.2.45.45,0,0,0,.08.43,1.62,1.62,0,0,0,1.39.7.45.45,0,0,0,.39-.2.44.44,0,0,0-.07-.43,1.54,1.54,0,0,0-.61-.53Zm-.83-.67a2.15,2.15,0,0,1,1.87.93.93.93,0,0,1,.09.92.91.91,0,0,1-.79.48,2,2,0,0,1-1.06-.22,2,2,0,0,1-.81-.71.86.86,0,0,1,.7-1.4Z" style="fill:#3a2018;fill-rule:evenodd"/><path d="M32.47,45.9a.33.33,0,0,1-.42-.52,3.38,3.38,0,0,1,.87-.51,2.35,2.35,0,0,1,1.13-.18c2,.16,2.6-.29,3.14-.72a3.45,3.45,0,0,1,4.62.18c.59.56,1.15,1.08,3.4.29a1.85,1.85,0,0,1,1.16,0,4.72,4.72,0,0,1,1.31.65.33.33,0,0,1,.09.47.34.34,0,0,1-.46.09,4.14,4.14,0,0,0-1.13-.57,1.22,1.22,0,0,0-.75,0c-2.63.92-3.33.27-4.08-.43a2.78,2.78,0,0,0-3.74-.15c-.64.51-1.31,1-3.61.86a1.89,1.89,0,0,0-.83.14A2.69,2.69,0,0,0,32.47,45.9Z" style="fill:#3a2018;fill-rule:evenodd"/><path d="M31.53,44.88a.34.34,0,0,1,.38-.29.34.34,0,0,1,.28.38,1.27,1.27,0,0,0,.51,1.2.34.34,0,0,1,.1.46.33.33,0,0,1-.46.1A1.94,1.94,0,0,1,31.53,44.88Z" style="fill:#3a2018;fill-rule:evenodd"/><path d="M47.64,44.79A.34.34,0,0,1,48,44.5a.34.34,0,0,1,.29.38,3.83,3.83,0,0,1-.87,1.85.34.34,0,0,1-.48,0,.33.33,0,0,1,0-.47A3.07,3.07,0,0,0,47.64,44.79Z" style="fill:#3a2018;fill-rule:evenodd"/></g></g></svg>