<svg xmlns="http://www.w3.org/2000/svg" viewBox="0 0 78.88 78.88"><title>Asset 49</title><g id="Layer_2" data-name="Layer 2"><g id="Layer_2-2" data-name="Layer 2"><rect width="78.88" height="78.88" style="fill:#a86a72"/><path d="M60.52,77.89s-.1-6-.33-6.54c-.47-2.1.36-3.06-2.89-5.08,0,0-.73-.24-1.8-.59h0l-2.4-.8c-.33-.12-.67-.24-1-.35-.86-.31-1.72-.62-2.51-.92L48,63c-.38-.17-.71-.32-1-.46a2.4,2.4,0,0,1-.59-.38s0-.05-.08-.09a.86.86,0,0,1-.07-.1A21.11,21.11,0,0,1,45,58.42h0a5.69,5.69,0,0,1-.12-1c0-.48,0-1,0-1.41s0-.86,0-1.2v-.28c0-.24,0-.44,0-.59s0-.24,0-.24l.86-.75c.64-.57,1.55-1.4,2.34-2.18a9.06,9.06,0,0,0,1.74-2.09.49.49,0,0,0,0-.15l-.06,0c-.4.06-2.55.43-4.86.79-1.37.22-2.81.43-4,.58l-1.25.14h0c-.34,0-.63.05-.84.05s-.56,0-1-.05h0l-1.32-.17c-1.07-.13-2.36-.32-3.6-.51l-3.16-.51-.58-.1-1.38-.24a1.54,1.54,0,0,0,.4.74,0,0,0,0,0,0,0,11.3,11.3,0,0,0,.74.86c.28.3.6.62.92.93,1,1,2.06,1.91,2.58,2.36l.32.27a2,2,0,0,1,0,.24c0,.15,0,.35,0,.59v.28c0,.1,0,.2,0,.3,0,.65,0,1.46-.06,2.31a5.71,5.71,0,0,1-.13,1A21.07,21.07,0,0,1,31.16,62l-.08.1-.07.09-.24.18a9.63,9.63,0,0,1-1,.52c-.37.16-.8.34-1.27.52-1.11.44-2.43.91-3.7,1.34l-.26.09L22,65.68h0c-1,.35-1.76.57-1.79.59-3.22,2-2.43,3-2.88,5h0v0a.48.48,0,0,0,0,.15h0c-.21,1.09-.3,6.38-.3,6.38,0,.32,0,.65,0,1H60.54C60.53,78.54,60.53,78.21,60.52,77.89Z" style="fill:#fbd2c5"/><path d="M45,58.41a5.58,5.58,0,0,1-.12-1c0-1.12-.06-2.19-.08-2.89a14.09,14.09,0,0,1-5.68,1.32,3.62,3.62,0,0,1-.76,0,14.17,14.17,0,0,1-5.69-1.32c0,.7,0,1.77-.07,2.89a5.58,5.58,0,0,1-.12,1c1.81,1.51,4.25,3.07,5.88,3.07a1.79,1.79,0,0,0,.34,0h.08a1.79,1.79,0,0,0,.34,0C40.76,61.48,43.2,59.92,45,58.41Z" style="fill:#d29f97"/><path d="M54.82,36c.32-1.73.56-3,.63-3.31s.07-.25.1-.38.07-.28.09-.42.1-.43.15-.64,0-.2.05-.3.09-.47.13-.71l0-.31c0-.21,0-.42.08-.64a3.56,3.56,0,0,1,.05-.47c0-.14,0-.28,0-.41a14.83,14.83,0,0,0-2.67-9.59c-2.58-3.62-5.55-7.46-12-8H36c-6.46.53-9.43,4.37-12,8a14.9,14.9,0,0,0-2.68,9.59c0,.13,0,.27,0,.41s0,.31.05.47,0,.43.07.64,0,.21,0,.31.09.48.13.71,0,.2,0,.3.09.43.15.64.07.27.09.42.06.25.1.38.32,1.57.63,3.28c-1.72-.84-4.11.37-3.83,3.54s4.21,5.13,5.55,5.45a10.82,10.82,0,0,0,.32,1.23c1.18,3,2.6,3.84,5.1,6.25,2.72,2.61,6.74,5.06,8.73,5.05H39c2,0,6-2.44,8.73-5.05,2.5-2.41,3.92-3.3,5.09-6.25A10.49,10.49,0,0,0,53.11,45c1.29-.29,5.29-2.21,5.59-5.46S56.55,35.11,54.82,36Z" style="fill:#fbd2c5"/><path d="M57.44,37.77a1.89,1.89,0,0,0-2.87-.57,1.64,1.64,0,0,0-.48,1.8c.13.53.68.57.54,1.37a1.42,1.42,0,0,1-.81,1.15,1.79,1.79,0,0,0-.68.73,2,2,0,0,0-.09,1.11c.15.65,1.09.15,1.71-.13a12.88,12.88,0,0,0,2.08-1.65,3.6,3.6,0,0,0,.6-3.81" style="fill:#e9b7ac"/><path d="M20.1,37.77A1.89,1.89,0,0,1,23,37.2a1.64,1.64,0,0,1,.48,1.8c-.13.53-.68.57-.54,1.37a1.43,1.43,0,0,0,.8,1.15,1.75,1.75,0,0,1,.69.73,2,2,0,0,1,.09,1.11c-.15.65-1.09.15-1.72-.13a13.26,13.26,0,0,1-2.07-1.65,3.6,3.6,0,0,1-.6-3.81" style="fill:#e9b7ac"/><path d="M36.28,40l-.06.17.09-.16Z" style="fill:#0e151a;opacity:0.4"/><path d="M36.28,40l-.06.17.09-.16Z" style="fill:#e8e9e7;opacity:0.55"/><path d="M41.45,41.49c.09.13.19.24.28.36-.08-.12-.17-.24-.25-.37Z" style="fill:#0e151a;opacity:0.4"/><path d="M41.45,41.49c.09.13.19.24.28.36-.08-.12-.17-.24-.25-.37Z" style="fill:#e8e9e7;opacity:0.55"/><path d="M57.79,73h2a1.33,1.33,0,0,0,1.32-1.6.41.41,0,0,0,0-.1l0-.13c-.28-1.36,0-2.25-.87-3.3a7.92,7.92,0,0,0-2.11-1.66l-1.87-.59h0L54.28,65C37.46,80,26.49,68,24,64.77c-1,.33-2,.65-2.76.89h0l-1.87.59A7.43,7.43,0,0,0,17.2,68c-.72,1-.52,1.85-.79,3.14,0,0,0,.09,0,.13h0v0a.3.3,0,0,0,0,.15h0A1.3,1.3,0,0,0,17.64,73h5c-.64,2.28-4.09,3.4-4.27,5.84H59.07c-.18-2.44-3.64-3.55-4.28-5.85Z" style="fill:#b44e6b"/><path d="M56.66,16.19a6.38,6.38,0,0,0,4.9-2.58s-1.18,1.47-5.25.33-3.88-4.75-9.59-6.78c-2.93-1-4.68-.91-5.69-.53A6.61,6.61,0,0,1,44.16,6a10.35,10.35,0,0,0-6.62-.13,18.91,18.91,0,0,0-5.46,2.27l1.58-1.28a28.58,28.58,0,0,0-9.6,5.27,20.81,20.81,0,0,0-3,3.33,23.88,23.88,0,0,0-3.75,6.89c-2.85,7.72-.51,14,0,16.73C19.1,47.59,27.5,53,27.5,53a18.45,18.45,0,0,1-3.07-4.55,23.2,23.2,0,0,1-1.83-9.25c0-3.61,3.14-7.92,4.34-9.43l.11,0a19.14,19.14,0,0,0-2.3,6.7,10.1,10.1,0,0,0,1.87,6.76s-2.93-5,1.76-8.64a30.05,30.05,0,0,0,3.74-3.52h0c-1.18,2.92,1.19,5.37,1.19,5.37s-.05-3.74,2.4-5c6-3.1,6.91-4.38,7.75-6.88a5.36,5.36,0,0,0,.22-.95l5.45,7.21c.26.32.67.85,1.16,1.53,1.41,2,3.36,5.28,3.36,8.13a23.2,23.2,0,0,1-1.83,9.25,18.68,18.68,0,0,1-3.07,4.55s8.4-5.4,10.15-13.94c.55-2.69,2.89-9,0-16.72-.24-.66-.5-1.28-.76-1.88v-.25a7.62,7.62,0,0,0-1.63-4.13c-.25-.7-.45-1.17-.46-1.18Z" style="fill:#751f39"/><path d="M40.69,44.16c.59,5.63-4.08,5.37-3.37-.15l1.87.64Z" style="fill:#cb4f41;fill-rule:evenodd"/><path d="M35.4,43.42a.33.33,0,0,1-.14-.45.32.32,0,0,1,.45-.14c.9.46,1.46.75,1.95,1a10.48,10.48,0,0,0,1.53.52,9.75,9.75,0,0,0,1.61-.57,18,18,0,0,0,1.89-1,.33.33,0,1,1,.34.57,17.7,17.7,0,0,1-2,1,10.83,10.83,0,0,1-1.79.61.32.32,0,0,1-.17,0,12.64,12.64,0,0,1-1.71-.57C36.87,44.18,36.31,43.89,35.4,43.42Z" style="fill:#3a2018;fill-rule:evenodd"/><path d="M37.08,44a.24.24,0,0,1,.28-.22.25.25,0,0,1,.21.28c-.23,1.85.14,3.06.71,3.63A1.09,1.09,0,0,0,39,48a1,1,0,0,0,.71-.32c.55-.53.92-1.69.73-3.52a.25.25,0,0,1,.49,0c.22,2-.22,3.31-.87,3.93a1.44,1.44,0,0,1-1.07.46,1.57,1.57,0,0,1-1.07-.5C37.26,47.36,36.82,46,37.08,44Z" style="fill:#3a2018;fill-rule:evenodd"/><path d="M39.47,46.12a.25.25,0,1,1-.5,0c0-.17,0-.36,0-.57h0a4.09,4.09,0,0,0-.07-.6.25.25,0,0,1,.2-.3.26.26,0,0,1,.29.2,5.1,5.1,0,0,1,.08.67h0C39.47,45.72,39.47,45.93,39.47,46.12Z" style="fill:#3a2018;fill-rule:evenodd"/><path d="M34.78,40.59A.34.34,0,0,1,35,41a.33.33,0,0,1-.41.23,18.78,18.78,0,0,0-5.93-.78.34.34,0,0,1-.37-.3.33.33,0,0,1,.3-.37A20,20,0,0,1,34.78,40.59Z" style="fill:#3a2018;fill-rule:evenodd"/><path d="M34.86,40.21a.49.49,0,0,1,.17.69.5.5,0,0,1-.69.16,19.24,19.24,0,0,0-5.46-2.26.5.5,0,0,1-.42-.58.49.49,0,0,1,.57-.41A19.81,19.81,0,0,1,34.86,40.21Z" style="fill:#3a2018;fill-rule:evenodd"/><path d="M44.11,41.24A.33.33,0,0,1,43.7,41a.34.34,0,0,1,.22-.42,20,20,0,0,1,6.19-.8.33.33,0,0,1,.3.37.34.34,0,0,1-.37.3A18.78,18.78,0,0,0,44.11,41.24Z" style="fill:#3a2018;fill-rule:evenodd"/><path d="M44.36,41.06a.5.5,0,0,1-.69-.16.49.49,0,0,1,.17-.69,19.67,19.67,0,0,1,5.83-2.4.49.49,0,0,1,.57.41.5.5,0,0,1-.42.58A19.24,19.24,0,0,0,44.36,41.06Z" style="fill:#3a2018;fill-rule:evenodd"/><path d="M28.77,35.3a.51.51,0,0,1-.64-.31.5.5,0,0,1,.31-.64,13.85,13.85,0,0,1,5.36-.75.5.5,0,0,1-.11,1A12.9,12.9,0,0,0,28.77,35.3Z" style="fill:#3a2018;fill-rule:evenodd"/><path d="M50,34.34a.5.5,0,0,1,.35.62.51.51,0,0,1-.62.35L49,35.08a8.46,8.46,0,0,0-4.19-.49.5.5,0,0,1-.15-1,9.33,9.33,0,0,1,4.65.52Z" style="fill:#3a2018;fill-rule:evenodd"/><path d="M36.67,41.49a.25.25,0,0,1-.42-.28,3.07,3.07,0,0,1,.75-.75,4.29,4.29,0,0,1,1-.53.25.25,0,0,1,.16.48,3.77,3.77,0,0,0-.9.46A2.53,2.53,0,0,0,36.67,41.49Z" style="fill:#3a2018;fill-rule:evenodd"/><path d="M41.08,41.58a.25.25,0,0,1-.39-.32l0,0a3.63,3.63,0,0,1,1.37-1.12.25.25,0,0,1,.21.46,3.07,3.07,0,0,0-1.18,1Z" style="fill:#3a2018;fill-rule:evenodd"/><path d="M38.91,41.64a.26.26,0,0,1-.35.09.25.25,0,0,1-.09-.34,3.16,3.16,0,0,1,.69-.79,2.76,2.76,0,0,1,.86-.51.25.25,0,0,1,.32.15.26.26,0,0,1-.16.32,2.67,2.67,0,0,0-1.27,1.08Z" style="fill:#3a2018;fill-rule:evenodd"/></g></g></svg>