<svg xmlns="http://www.w3.org/2000/svg" viewBox="0 0 78.88 78.88"><title>Asset 47</title><g id="Layer_2" data-name="Layer 2"><g id="Layer_2-2" data-name="Layer 2"><rect width="78.88" height="78.88" style="fill:#00b5dd"/><path d="M55.28,51.74A11.26,11.26,0,0,0,57.83,53a3.37,3.37,0,0,1-1.77-2.5,8.23,8.23,0,0,1-.26-1.42h-.3a7.27,7.27,0,0,0,1.61-4.44,7.77,7.77,0,0,0-2.65-5.59,10.89,10.89,0,0,1,.09,1.41,11.16,11.16,0,0,1-2.17,6.61,3.79,3.79,0,0,1-4,1.12,3.11,3.11,0,0,0,1.73-1.13s.64-1-.31-.88c0,0-.23,1.06-2.3,1a2.59,2.59,0,0,1-1.35-.34,1.83,1.83,0,0,0-.13-.16,1.27,1.27,0,0,1-.1-.12.61.61,0,0,1-.08-.25A1.2,1.2,0,0,0,45,44.9a11.47,11.47,0,0,0-2.24-.41h-.11a23.6,23.6,0,0,0-4.62,0,10.23,10.23,0,0,0-2,.38,1.2,1.2,0,0,0-.87,1.44c-.08.91-1.66.87-1.66.87-2.07,0-2.31-1-2.31-1-.94-.12-.29.88-.29.88a3,3,0,0,0,1.61,1.1,4.18,4.18,0,0,1-3.9-.5A11.27,11.27,0,0,1,26,40.47a11.46,11.46,0,0,1,.11-1.56,7.89,7.89,0,0,0-2.81,5.74,7.23,7.23,0,0,0,1.62,4.44h-.16a10.91,10.91,0,0,1-.26,1.42A3.39,3.39,0,0,1,22.72,53a11.06,11.06,0,0,0,2.55-1.27l1.07-1.14h0a3.41,3.41,0,0,0,0,2.38,4,4,0,0,0,.3.75c.83,3.41,3.74,8.74,13.63,11.48,0,0,9.92-3.29,13-10.57A4.48,4.48,0,0,0,54.2,53a3.44,3.44,0,0,0,0-2.35s0,0,0,0Z" style="fill:#353839"/><path d="M40.5,70.44c2.89,0,6.12-1.8,9.33-7.33l-.27-.1c-.38-.17-.71-.32-1-.46l-.07,0a3.36,3.36,0,0,1-.64-.36l-.07-.09-.08-.1a20.49,20.49,0,0,1-1.32-3.56h0a4.9,4.9,0,0,1-.13-1c0-.48,0-1,0-1.41s0-.86,0-1.2v-.28c0-.24,0-.44,0-.59s0-.24,0-.24l.86-.75c.64-.57,1.55-1.4,2.34-2.18a9.46,9.46,0,0,0,1.75-2.09,1,1,0,0,0,0-.15l-.06,0c-.4.06-2.55.43-4.86.79-1.37.22-2.81.43-4,.58L41,50.05h0c-.34,0-.63.05-.84.05s-.56,0-.95-.05h0l-1.31-.17c-1.08-.13-2.36-.32-3.61-.51l-3.16-.51c-.21,0-.4-.06-.57-.1l-1.39-.24a1.54,1.54,0,0,0,.4.74,0,0,0,0,0,0,0,11.3,11.3,0,0,0,.74.86c.29.3.6.62.92.93,1,1,2.06,1.91,2.59,2.36l.31.27s0,.09,0,.24,0,.35,0,.59v.28c0,.1,0,.2,0,.3,0,.65,0,1.46-.06,2.31a4.9,4.9,0,0,1-.13,1A21.07,21.07,0,0,1,32.56,62a.86.86,0,0,1-.07.1l-.08.09a2.11,2.11,0,0,1-.24.18,6.6,6.6,0,0,1-.88.52l-.78.33C31.72,65.05,35.62,70.39,40.5,70.44Z" style="fill:#fbd2c5"/><path d="M46.42,58.41a4.81,4.81,0,0,1-.13-1c0-1.12-.06-2.19-.07-2.89a14.16,14.16,0,0,1-5.68,1.32,2.48,2.48,0,0,1-.39,0,2.3,2.3,0,0,1-.38,0,14.09,14.09,0,0,1-5.68-1.32c0,.7,0,1.77-.08,2.89a5.58,5.58,0,0,1-.12,1c1.81,1.51,4.26,3.07,5.88,3.07a1.79,1.79,0,0,0,.34,0h.08a1.9,1.9,0,0,0,.35,0C42.16,61.48,44.61,59.92,46.42,58.41Z" style="fill:#d29f97"/><path d="M56.22,36c.32-1.73.56-3,.64-3.31s.06-.25.1-.38S57,32,57,31.89s.1-.43.15-.64,0-.2.05-.3.09-.47.13-.71,0-.21,0-.31.05-.42.07-.64,0-.32.05-.47,0-.28,0-.41a14.9,14.9,0,0,0-2.68-9.59c-2.58-3.62-5.55-7.46-12-8H37.43c-6.46.53-9.43,4.37-12,8a14.83,14.83,0,0,0-2.67,9.59c0,.13,0,.27,0,.41a3.56,3.56,0,0,1,.05.47c0,.22,0,.43.08.64l0,.31c0,.24.09.48.13.71s0,.2.05.3.09.43.15.64.06.27.09.42.06.25.1.38.31,1.57.62,3.28c-1.72-.84-4.11.37-3.83,3.54s4.21,5.13,5.55,5.45a8.6,8.6,0,0,0,.33,1.23c1.17,3,2.59,3.84,5.09,6.25,2.72,2.61,6.74,5.06,8.73,5.05h.42c2,0,6-2.44,8.73-5.05,2.5-2.41,3.92-3.3,5.09-6.25A8.76,8.76,0,0,0,54.51,45c1.29-.29,5.29-2.21,5.59-5.46S58,35.11,56.22,36Z" style="fill:#fbd2c5"/><path d="M58.84,37.77A1.89,1.89,0,0,0,56,37.2a1.64,1.64,0,0,0-.48,1.8c.13.53.69.57.54,1.37a1.41,1.41,0,0,1-.8,1.15,1.73,1.73,0,0,0-.68.73,2,2,0,0,0-.1,1.11c.15.65,1.09.15,1.72-.13a12.81,12.81,0,0,0,2.07-1.65,3.58,3.58,0,0,0,.6-3.81" style="fill:#e9b7ac"/><path d="M21.5,37.77a1.89,1.89,0,0,1,2.87-.57,1.64,1.64,0,0,1,.48,1.8c-.13.53-.68.57-.54,1.37a1.42,1.42,0,0,0,.81,1.15,1.79,1.79,0,0,1,.68.73,2,2,0,0,1,.1,1.11c-.15.65-1.1.15-1.72-.13a12.88,12.88,0,0,1-2.08-1.65,3.6,3.6,0,0,1-.6-3.81" style="fill:#e9b7ac"/><path d="M27.26,64.37l-1.05.36c-.09,0-.18.06-.27.09l-2.56.86h0c-1.05.35-1.76.57-1.78.59-3.23,2-2.44,3-2.89,5h0v0a1.27,1.27,0,0,0,0,.15h0c-.21,1.09-.3,6.38-.3,6.38v1h4.43c.09-1,.23-2.53.37-3.34C23.73,72,26.93,71,27.26,64.37Z" style="fill:#fbd2c5"/><path d="M57.55,78.88h4.39c0-.34,0-.67,0-1,0,0-.1-6-.34-6.54-.46-2.1.36-3.06-2.88-5.08,0,0-.74-.24-1.8-.59h0l-2.39-.8-1-.35-.37-.14C53.42,71,56.61,72,57.18,75.54,57.32,76.35,57.46,77.85,57.55,78.88Z" style="fill:#fbd2c5"/><path d="M63.93,27.6s-3-1.05-5.17-7.61c-.36-1.47-.72-2.61-.73-2.61h.56c3.08,0,4.82-3.35,4.82-3.35s-1.16,1.91-5.17.42S54.43,8.28,48.8,5.64C45.92,4.29,44.21,4.47,43.21,5a5.11,5.11,0,0,1,3.08-.85S43.73,2.53,39.78,4A16.89,16.89,0,0,0,34.4,6.89L36,5.23a24.42,24.42,0,0,0-2.67,1.33,30.74,30.74,0,0,1,3-4.85c-5,2.09-9.16,9.63-9.16,9.63A34.08,34.08,0,0,1,28.44,5.9c-8.55,7.14-7.22,20-7.22,20,0,4.88,1.71,9.77,2.84,11.22s.76,3.56,1.1,3.56c0,0,.67,0,.7-3.65.08-1.25.43-3.24,1.87-2.64l.23.11,0,0h0c7.2,3.23,10.88-4.95,10.88-4.95s2.2-5.24,4.66-7.17A10.09,10.09,0,0,1,46.37,21c6.55-2.29,9.27,9.46,8.72,12.56-.84,4.77.33,7.52.78,7.39a7.75,7.75,0,0,1,.43-2.29c1.21-3.22,2.23-1,2.41-5.35.15-3.5.53-5.48.68-7.26A6.79,6.79,0,0,0,63.93,27.6Z" style="fill:#353839"/><path d="M35.21,68.38a21.24,21.24,0,0,1-4.7-5.18l-.49.19H29.9c-.52.21-1.11.42-1.7.64l-.94.34C26.93,71,23.73,72,23.16,75.54c-.14.81-.28,2.31-.37,3.34H40.17V70.42A9.24,9.24,0,0,1,35.21,68.38Z" style="fill:#f07068"/><path d="M57.18,75.54a9.52,9.52,0,0,0-1.73-3.79A13.12,13.12,0,0,1,53.24,66c-.07-.49-.12-1-.15-1.57l-.94-.33L51,63.63l0,0-1.24-.49c-3,5.22-6.08,7.15-8.84,7.32H40.5l-.33,0v8.46H57.55C57.46,77.85,57.32,76.35,57.18,75.54Z" style="fill:#cf4f4d"/><path d="M26,49.83h-.22s0,0,0-.08l.18-.1c.42-.31.61-.77.42-1s-.67-.21-1.1.11l-.13.13-.19-.1a.57.57,0,0,0,0-.13,1,1,0,0,0-.36-.89V44a.62.62,0,0,0-.17-1.22A.62.62,0,0,0,24.24,44v3.72a1,1,0,0,0-.44.89,1.1,1.1,0,0,0,0,.18,1,1,0,0,0-.17.1.81.81,0,0,0-.16-.16c-.42-.32-.92-.36-1.1-.11s0,.71.42,1a.64.64,0,0,0,.25.12s0,.08,0,.13h-.21c-.51.09-.9.41-.84.72s.51.49,1,.4a.88.88,0,0,0,.32-.12l.11.12a.87.87,0,0,0-.19.23c-.23.48-.18,1,.1,1.11s.7-.14.93-.61a.84.84,0,0,0,.08-.34h.11a1.05,1.05,0,0,0,.08.35c.23.47.65.74.93.61s.33-.63.1-1.11a1,1,0,0,0-.2-.26l.12-.14a.86.86,0,0,0,.28.11c.52.09,1-.1,1-.41S26.5,49.91,26,49.83Zm-1.57.88a.69.69,0,1,1,.68-.68A.68.68,0,0,1,24.41,50.71Z" style="fill:#f9f9f9"/><path d="M57,50a.5.5,0,0,0-.21,0s0-.06,0-.09a.51.51,0,0,0,.18-.09c.43-.32.62-.77.43-1s-.68-.2-1.1.11l-.14.13a1.51,1.51,0,0,0-.18-.09c0-.05,0-.09,0-.13a1.06,1.06,0,0,0-.36-.9V44.15a.61.61,0,0,0,.45-.59.63.63,0,0,0-1.25,0,.6.6,0,0,0,.45.59v3.72a1,1,0,0,0-.43.9.55.55,0,0,0,0,.18,1.51,1.51,0,0,0-.18.09.61.61,0,0,0-.16-.16c-.41-.31-.91-.36-1.1-.11s0,.71.43,1a1,1,0,0,0,.25.12A.5.5,0,0,0,54,50a.74.74,0,0,0-.21,0c-.52.08-.9.4-.85.72s.51.48,1,.4a1,1,0,0,0,.32-.13l.1.12a1.08,1.08,0,0,0-.18.24c-.23.47-.18,1,.1,1.11s.7-.14.93-.61a1.05,1.05,0,0,0,.08-.35h.11a.72.72,0,0,0,.08.35c.23.47.65.74.92.61s.34-.64.11-1.11a.75.75,0,0,0-.21-.26A.53.53,0,0,0,56.5,51a1,1,0,0,0,.28.11c.53.08,1-.1,1-.41S57.5,50.07,57,50Zm-1.57.88a.69.69,0,1,1,.69-.69A.69.69,0,0,1,55.4,50.87Z" style="fill:#f9f9f9"/><path d="M45.68,42.8c-2.15,5.27-8.9,4.93-10.33-.52C40.7,41.62,42.92,42.42,45.68,42.8Z" style="fill:#3a2018;fill-rule:evenodd"/><path d="M46.58,41.53a.34.34,0,0,1,.66-.13c.18.86-.26,1.28-1,1.44a12.12,12.12,0,0,1-3.83-.33,14,14,0,0,0-1.86-.27,14,14,0,0,0-1.59.14,11.16,11.16,0,0,1-4.11,0A1,1,0,0,1,34.1,41a.34.34,0,0,1,.43-.2.33.33,0,0,1,.2.42.43.43,0,0,0,.32.61,11.3,11.3,0,0,0,3.82-.08,14,14,0,0,1,1.68-.14,15,15,0,0,1,2,.28,11.92,11.92,0,0,0,3.57.33C46.45,42.1,46.66,41.91,46.58,41.53Z" style="fill:#3a2018;fill-rule:evenodd"/><path d="M35,42.36a.33.33,0,0,1,.23-.41.34.34,0,0,1,.41.24,5.52,5.52,0,0,0,1.95,3.06,4.67,4.67,0,0,0,2.6,1,4.83,4.83,0,0,0,2.72-.65,5.83,5.83,0,0,0,2.43-2.9.33.33,0,0,1,.62.25,6.4,6.4,0,0,1-2.72,3.23,5.51,5.51,0,0,1-3.09.74,5.39,5.39,0,0,1-3-1.1A6.18,6.18,0,0,1,35,42.36Z" style="fill:#3a2018;fill-rule:evenodd"/><path d="M37.16,44.92c-.36-1.18,6.44-.7,6.45-.06C43.64,46.69,37.78,47,37.16,44.92Z" style="fill:#cb4f41;fill-rule:evenodd"/><path d="M33.33,40.55a2.52,2.52,0,1,1-4.06-3,2.63,2.63,0,0,1,2.84-.69A2.25,2.25,0,0,1,33.33,40.55Z" style="fill:#3a2018;fill-rule:evenodd"/><path d="M47.34,40.27a2.52,2.52,0,0,0,4.63-2A2.61,2.61,0,0,0,49.36,37,2.26,2.26,0,0,0,47.34,40.27Z" style="fill:#3a2018;fill-rule:evenodd"/><path d="M28.54,36.08a.51.51,0,0,1-.71-.09.52.52,0,0,1,.1-.71s3.29-2.56,5.82-.91a.5.5,0,0,1-.55.84C31.27,34,28.55,36.08,28.54,36.08Z" style="fill:#3a2018;fill-rule:evenodd"/><path d="M52.6,35.28a.5.5,0,1,1-.61.8s-2.73-2.12-4.66-.87a.5.5,0,0,1-.54-.84C49.32,32.72,52.59,35.28,52.6,35.28Z" style="fill:#3a2018;fill-rule:evenodd"/><path d="M30.42,41.51c2.89.09,2.83,2-.06,1.92S27.54,41.42,30.42,41.51Z" style="fill:#dc98ab;fill-rule:evenodd"/><path d="M50.85,41.51c-2.88.09-2.82,2,.06,1.92S53.74,41.42,50.85,41.51Z" style="fill:#dc98ab;fill-rule:evenodd"/><path d="M29.45,39.3A2.21,2.21,0,0,0,31,36.9c.52,1,.66,2.12,2.33,2-1,.54-1.37.54-1.74,2.57A2.42,2.42,0,0,0,29.45,39.3Z" style="fill:#fff;fill-rule:evenodd"/><path d="M51.56,39.49c-.57-.34-1.73-.48-1.79-2.34-.44,1.32-.72,1.87-2.35,2.08,1,.55,1.65.44,2,2.47A3.14,3.14,0,0,1,51.56,39.49Z" style="fill:#fff;fill-rule:evenodd"/></g></g></svg>