<svg xmlns="http://www.w3.org/2000/svg" xmlns:xlink="http://www.w3.org/1999/xlink" viewBox="0 0 78.88 78.88"><defs><linearGradient id="Fading_Sky" x1="37.67" y1="67.02" x2="39.79" y2="67.02" gradientUnits="userSpaceOnUse"><stop offset="0" stop-color="#2483c5"/><stop offset="1" stop-color="#2483c5"/></linearGradient></defs><title>Asset 44</title><g id="Layer_2" data-name="Layer 2"><g id="Layer_2-2" data-name="Layer 2"><rect width="78.88" height="78.88" style="fill:#832320"/><path d="M61.59,77.89s-.1-6-.33-6.54c-.47-2.1.36-3.06-2.89-5.08,0,0-.74-.24-1.8-.59h0l-2.4-.8c-.34-.12-.67-.24-1-.35-.87-.31-1.72-.62-2.51-.92L49.11,63c-.38-.17-.71-.32-1-.46a2.21,2.21,0,0,1-.59-.38s0-.05-.08-.09a.86.86,0,0,1-.07-.1,20.23,20.23,0,0,1-1.33-3.56h0a5.69,5.69,0,0,1-.12-1c0-.48,0-1,0-1.41s0-.86,0-1.2v-.28c0-.24,0-.44,0-.59s0-.24,0-.24l.86-.75c.64-.57,1.55-1.4,2.33-2.18a9.18,9.18,0,0,0,1.75-2.09,1.31,1.31,0,0,0,0-.15l-.07,0c-.39.06-2.54.43-4.85.79-1.37.22-2.81.43-4,.58l-1.24.14h0c-.33,0-.62.05-.83.05s-.56,0-1-.05h0l-1.31-.17c-1.07-.13-2.36-.32-3.61-.51l-3.15-.51-.58-.1-1.39-.24a1.54,1.54,0,0,0,.4.74s0,0,0,0a9.12,9.12,0,0,0,.73.86c.29.3.6.62.93.93,1,1,2.06,1.91,2.58,2.36l.31.27s0,.09,0,.24,0,.35,0,.59v.28c0,.1,0,.2,0,.3,0,.65,0,1.46-.07,2.31a5.69,5.69,0,0,1-.12,1A21.64,21.64,0,0,1,32.23,62l-.08.1a.76.76,0,0,0-.07.09l-.25.18a9.31,9.31,0,0,1-1,.52c-.37.16-.8.34-1.27.52-1.11.44-2.44.91-3.7,1.34a2.67,2.67,0,0,0-.26.09l-2.56.86h0c-1.05.35-1.76.57-1.79.59-3.22,2-2.43,3-2.88,5h0v0a.3.3,0,0,0,0,.15h0c-.21,1.09-.3,6.38-.3,6.38,0,.32,0,.65,0,1H61.6C61.6,78.54,61.6,78.21,61.59,77.89Z" style="fill:#fbd2c5"/><path d="M30.64,39.12c.53,2.31,2.34,3.4,2.29,6.69,1.9.69,3.72,1.47,4.59,3.2v1.22H43V49.11c.92-1.78,2.82-2.59,4.81-3.3,0-4.29,2-5,2.3-8.36C51.39,23.91,27.23,24.43,30.64,39.12ZM42,45.06a2.15,2.15,0,0,1-3.31-.8l1.35-3.75S44.3,43.63,42,45.06Zm-5.66-3.72A2.4,2.4,0,1,1,39,39,2.48,2.48,0,0,1,36.38,41.34Zm7.89-.49a2.4,2.4,0,1,1,2.57-2.39A2.49,2.49,0,0,1,44.27,40.85Z" style="fill:#dcb4b0"/><path d="M46.08,58.41a5.58,5.58,0,0,1-.12-1c0-1.12-.07-2.19-.08-2.89a14.09,14.09,0,0,1-5.68,1.32,2.3,2.3,0,0,1-.38,0,2.48,2.48,0,0,1-.39,0,14.16,14.16,0,0,1-5.68-1.32c0,.7,0,1.77-.07,2.89a4.81,4.81,0,0,1-.13,1c1.81,1.51,4.26,3.07,5.88,3.07a1.9,1.9,0,0,0,.35,0h.08a1.87,1.87,0,0,0,.34,0C41.82,61.48,44.27,59.92,46.08,58.41Z" style="fill:#d29f97"/><path d="M55.89,36c.31-1.73.56-3,.63-3.31s.07-.25.1-.38.07-.28.09-.42.1-.43.15-.64,0-.2,0-.3.09-.47.12-.71,0-.21,0-.31,0-.42.08-.64a3.56,3.56,0,0,1,.05-.47c0-.14,0-.28,0-.41a14.89,14.89,0,0,0-2.67-9.59c-2.58-3.62-5.56-7.46-12-8H37.09c-6.45.53-9.42,4.37-12,8a15,15,0,0,0-2.67,9.59c0,.13,0,.27,0,.41s0,.31,0,.47,0,.43.07.64,0,.21,0,.31.09.48.12.71,0,.2.05.3.09.43.15.64.07.27.09.42.06.25.1.38.32,1.57.63,3.28c-1.72-.84-4.11.37-3.83,3.54s4.2,5.13,5.55,5.45a10.82,10.82,0,0,0,.32,1.23c1.18,3,2.6,3.84,5.1,6.25,2.72,2.61,6.74,5.06,8.72,5.05H40c2,0,6-2.44,8.73-5.05,2.49-2.41,3.92-3.3,5.09-6.25A11.1,11.1,0,0,0,54.17,45c1.3-.29,5.3-2.21,5.6-5.46S57.62,35.11,55.89,36Z" style="fill:#fbd2c5"/><path d="M58.51,37.77a1.89,1.89,0,0,0-2.87-.57,1.64,1.64,0,0,0-.48,1.8c.13.53.68.57.54,1.37a1.42,1.42,0,0,1-.81,1.15,1.79,1.79,0,0,0-.68.73,2,2,0,0,0-.1,1.11c.15.65,1.1.15,1.72-.13a12.88,12.88,0,0,0,2.08-1.65,3.6,3.6,0,0,0,.6-3.81" style="fill:#e9b7ac"/><path d="M21.17,37.77A1.89,1.89,0,0,1,24,37.2a1.64,1.64,0,0,1,.48,1.8c-.13.53-.68.57-.54,1.37a1.41,1.41,0,0,0,.8,1.15,1.73,1.73,0,0,1,.68.73,2,2,0,0,1,.1,1.11c-.15.65-1.09.15-1.72-.13a12.81,12.81,0,0,1-2.07-1.65,3.6,3.6,0,0,1-.6-3.81" style="fill:#e9b7ac"/><path d="M61.79,76.21c0-1.08-.12-4.76-.2-4.95-.47-2.1.36-3.06-2.92-5.08,0,0-.74-.24-1.82-.59h0l-2.42-.8-1-.35L53,64.31l-2.21-.8-.73-.28a13.14,13.14,0,0,1,.14,1.89c0,6.59-4.6,6.37-10.28,6.37s-10.29.22-10.29-6.37a13.56,13.56,0,0,1,.14-1.92l-.26.1c-.78.31-1.67.63-2.57.94l-1.17.4a2.67,2.67,0,0,0-.26.09L23,65.59h0c-1.07.35-1.78.57-1.81.59-3.26,2-2.46,3-2.92,5h0v0a.61.61,0,0,0,0,.15h0c-.07.34-.13,3.9-.17,4.79h5.89v2.58h32.4V76.21Z" style="fill:#3a2817"/><path d="M33.9,61.63a1.06,1.06,0,1,1-1.06-1A1,1,0,0,1,33.9,61.63Z" style="fill:#ec297b"/><path d="M34.92,63.37a1.06,1.06,0,1,1-1.05-1A1,1,0,0,1,34.92,63.37Z" style="fill:#f05a28"/><path d="M36.21,65a1.06,1.06,0,1,1-1.06-1A1,1,0,0,1,36.21,65Z" style="fill:#faaf40"/><path d="M37.82,66.27a1.06,1.06,0,1,1-1.06-1A1,1,0,0,1,37.82,66.27Z" style="fill:#36aeaf"/><path d="M39.79,67a1.06,1.06,0,1,1-1.06-1A1,1,0,0,1,39.79,67Z" style="fill:url(#Fading_Sky)"/><path d="M40.85,65.64a1,1,0,1,1-1.06,1A1,1,0,0,1,40.85,65.64Z" style="fill:#8bc53f"/><path d="M42.69,64.67a1,1,0,1,1-1,1A1,1,0,0,1,42.69,64.67Z" style="fill:#25a9e0"/><path d="M44.38,63.45a1,1,0,1,1-1.05,1A1,1,0,0,1,44.38,63.45Z" style="fill:#603813"/><path d="M45.75,61.93a1,1,0,1,1-1,1A1,1,0,0,1,45.75,61.93Z" style="fill:#f9ec31"/><path d="M46.54,60.05a1,1,0,1,1-1.06,1A1,1,0,0,1,46.54,60.05Z" style="fill:#ec1c24"/><path d="M55.94,14.43a9.68,9.68,0,0,0-3.69-2.1s-4.57-2.32-8-4S35,8,32.09,8.71s-6.48,4.91-7.59,7.19-3.85,7.24-4.74,10.83,2,7.11,3.84,7.86c1.18.5,1.24,3.29,1.24,3.29l1.3.58a10.18,10.18,0,0,1-.66-3.93c.08-1.31-.1-5.25-.1-5.25s5.6-1.08,9.73-2.17c-1.4,1.7-2.55,2.85-2.55,2.85a15,15,0,0,0,5.88-3.69A46.07,46.07,0,0,1,34,31.64a15.78,15.78,0,0,0,7.39-5.39,43.89,43.89,0,0,1-5.69,7.2c7.79-2.6,10.6-10.92,11-12.11l.07-.06a12.92,12.92,0,0,1,4.64,2.35c2,1.55,4.57,3.69,4.54,8.27,0,1.54-.72,6-.72,6l.69-.48a3.46,3.46,0,0,1,2-2.8c1.57-.85,2-3.79,2-5C59.85,21.48,57.57,16,55.94,14.43Z" style="fill:#faa830"/><path d="M31.68,35.44a3,3,0,1,1-3.05,3A3,3,0,0,1,31.68,35.44Z" style="fill:#3a2018;fill-rule:evenodd"/><path d="M48.09,35.44a3,3,0,1,1-3,3A3,3,0,0,1,48.09,35.44Z" style="fill:#3a2018;fill-rule:evenodd"/><path d="M31.46,36.13a.32.32,0,0,1,.32-.31.32.32,0,0,1,.32.32S32.05,40,32,40.61a.31.31,0,0,1-.35.28.31.31,0,0,1-.28-.35C31.41,40,31.46,36.14,31.46,36.13Z" style="fill:#ffec00;fill-rule:evenodd"/><path d="M33.09,37a.32.32,0,0,1-.44.46,1.09,1.09,0,0,0-.85-.24,1.78,1.78,0,0,0-.82.37c-.06.05-.1.1-.1.14s0,0,0,0a1.82,1.82,0,0,0,.91.4,2.65,2.65,0,0,1,1.31.62.58.58,0,0,1,.14.56.82.82,0,0,1-.31.41,2.46,2.46,0,0,1-1.25.39,1.92,1.92,0,0,1-1.57-.65.31.31,0,0,1,.49-.39,1.37,1.37,0,0,0,1.07.4,1.75,1.75,0,0,0,.88-.26l.06-.05a2.31,2.31,0,0,0-1-.41,2.34,2.34,0,0,1-1.24-.61.64.64,0,0,1-.15-.6.93.93,0,0,1,.3-.47,2.51,2.51,0,0,1,1.16-.52,1.76,1.76,0,0,1,1.37.41Zm-.45,2.18s0,0,0,0Z" style="fill:#ffec00;fill-rule:evenodd"/><path d="M47.7,36.41a.32.32,0,1,1,.64,0s.19,3.88.16,4.47a.32.32,0,1,1-.63,0C47.89,40.26,47.7,36.42,47.7,36.41Z" style="fill:#ffec00;fill-rule:evenodd"/><path d="M49.38,37.12a.33.33,0,0,1,0,.45.32.32,0,0,1-.45,0,1.09,1.09,0,0,0-.87-.18,1.72,1.72,0,0,0-.79.41.48.48,0,0,0-.1.15l0,0a1.92,1.92,0,0,0,.94.34,2.59,2.59,0,0,1,1.34.54.58.58,0,0,1,.18.55.79.79,0,0,1-.29.42,2.36,2.36,0,0,1-1.22.47,2,2,0,0,1-1.61-.54.32.32,0,1,1,.47-.43,1.34,1.34,0,0,0,1.09.34A1.78,1.78,0,0,0,49,39.4l.06,0a2.14,2.14,0,0,0-1-.35,2.41,2.41,0,0,1-1.28-.53.63.63,0,0,1-.19-.59.9.9,0,0,1,.27-.48A2.4,2.4,0,0,1,48,36.8a1.77,1.77,0,0,1,1.39.32Zm-.31,2.21Z" style="fill:#ffec00;fill-rule:evenodd"/><path d="M43.9,42.68a2,2,0,0,1-1.12,2c0,.7-.09,1.78-.52,1.83-.6.07-.64-.65-.67-1.25,0,0,0-.07,0-.11-2.37.59-5.66-.23-5.46-2.46A22.56,22.56,0,0,1,43.9,42.68Z" style="fill:#fff;fill-rule:evenodd"/><path d="M35.18,42.15a.32.32,0,0,1,.24-.38.32.32,0,0,1,.38.25s.07.36.61.27A22.89,22.89,0,0,1,40.09,42a21.42,21.42,0,0,1,3.61.28c.53.09.61-.27.61-.28a.31.31,0,0,1,.38-.23.32.32,0,0,1,.24.38,1.06,1.06,0,0,1-1.33.76,21.3,21.3,0,0,0-3.51-.27,22.63,22.63,0,0,0-3.58.27A1.07,1.07,0,0,1,35.18,42.15Z" style="fill:#3a2018;fill-rule:evenodd"/><path d="M35.89,42.66a.24.24,0,1,1,.47,0,1.75,1.75,0,0,0,0,.57,1.94,1.94,0,0,0,1,1.22h0a4.87,4.87,0,0,0,2,.56,6.26,6.26,0,0,0,2.08-.14.24.24,0,1,1,.11.47,6.9,6.9,0,0,1-2.23.15,5.4,5.4,0,0,1-2.16-.62h0a2.44,2.44,0,0,1-1.26-1.53,2.12,2.12,0,0,1,0-.72Zm7,2.21a.24.24,0,1,1-.24-.41,2.3,2.3,0,0,0,.8-.78,1.67,1.67,0,0,0,.2-1,.23.23,0,0,1,.21-.26.24.24,0,0,1,.26.22,2.08,2.08,0,0,1-.25,1.25A2.66,2.66,0,0,1,42.91,44.87Z" style="fill:#3a2018;fill-rule:evenodd"/><path d="M41.22,44.78a.22.22,0,0,1-.08-.32.23.23,0,0,1,.33-.08.63.63,0,0,1,.28.36,1.63,1.63,0,0,1,.08.5,3.18,3.18,0,0,0,.1.8.27.27,0,0,0,.3.22h0c.13,0,.21-.38.26-.76a5.74,5.74,0,0,0,0-1.23.87.87,0,0,0,0-.1.24.24,0,1,1,.47-.11.63.63,0,0,1,0,.16,5.54,5.54,0,0,1,0,1.34c-.07.56-.25,1.06-.61,1.16h-.07a.7.7,0,0,1-.81-.52,3.26,3.26,0,0,1-.13-1,1.4,1.4,0,0,0-.05-.36A.21.21,0,0,0,41.22,44.78Z" style="fill:#3a2018;fill-rule:evenodd"/><path d="M31.41,43.68c-3.56,0-3.53-2.2,0-2.22S35,43.66,31.41,43.68Z" style="fill:#dc98ab;fill-rule:evenodd"/><path d="M48.52,43.68c3.57,0,3.54-2.2,0-2.22S45,43.66,48.52,43.68Z" style="fill:#dc98ab;fill-rule:evenodd"/></g></g></svg>