<svg xmlns="http://www.w3.org/2000/svg" viewBox="0 0 78.88 78.88"><title>Asset 41</title><g id="Layer_2" data-name="Layer 2"><g id="Layer_2-2" data-name="Layer 2"><rect width="78.88" height="78.88" style="fill:#a86a72"/><path d="M60.52,77.89s-.1-6-.33-6.54c-.47-2.1.36-3.06-2.89-5.08,0,0-.73-.24-1.8-.59h0l-2.4-.8c-.33-.12-.67-.24-1-.35-.86-.31-1.72-.62-2.51-.92L48,63c-.38-.17-.71-.32-1-.46a2.4,2.4,0,0,1-.59-.38s0-.05-.08-.09a.86.86,0,0,1-.07-.1A21.11,21.11,0,0,1,45,58.42h0a5.69,5.69,0,0,1-.12-1c0-.48,0-1,0-1.41s0-.86,0-1.2v-.28c0-.24,0-.44,0-.59s0-.24,0-.24l.86-.75c.64-.57,1.55-1.4,2.34-2.18a9.06,9.06,0,0,0,1.74-2.09.49.49,0,0,0,0-.15l-.06,0c-.4.06-2.55.43-4.86.79-1.37.22-2.81.43-4,.58l-1.25.14h0c-.34,0-.63.05-.84.05s-.56,0-1-.05h0l-1.32-.17c-1.07-.13-2.36-.32-3.6-.51l-3.16-.51-.58-.1-1.38-.24a1.54,1.54,0,0,0,.4.74,0,0,0,0,0,0,0,11.3,11.3,0,0,0,.74.86c.28.3.6.62.92.93,1,1,2.06,1.91,2.58,2.36l.32.27a2,2,0,0,1,0,.24c0,.15,0,.35,0,.59v.28c0,.1,0,.2,0,.3,0,.65,0,1.46-.06,2.31a5.71,5.71,0,0,1-.13,1A20.72,20.72,0,0,1,31.16,62l-.08.1-.07.09-.24.18a9.63,9.63,0,0,1-1,.52c-.37.16-.8.34-1.27.52-1.11.44-2.43.91-3.7,1.34l-.26.09L22,65.68h0c-1,.35-1.76.57-1.79.59-3.22,2-2.43,3-2.88,5h0v0a.48.48,0,0,0,0,.15h0c-.21,1.09-.3,6.38-.3,6.38,0,.32,0,.65,0,1H60.54C60.53,78.54,60.53,78.21,60.52,77.89Z" style="fill:#fbd2c5"/><path d="M45,58.41a5.58,5.58,0,0,1-.12-1c0-1.12-.06-2.19-.08-2.89a14.09,14.09,0,0,1-5.68,1.32,3.62,3.62,0,0,1-.76,0,14.17,14.17,0,0,1-5.69-1.32c0,.7,0,1.77-.07,2.89a5.58,5.58,0,0,1-.12,1c1.81,1.51,4.25,3.07,5.88,3.07a1.79,1.79,0,0,0,.34,0h.08a1.79,1.79,0,0,0,.34,0C40.76,61.48,43.2,59.92,45,58.41Z" style="fill:#d29f97"/><path d="M54.82,36c.32-1.73.56-3,.63-3.31s.07-.25.1-.38.07-.28.09-.42.1-.43.15-.64,0-.2.05-.3.09-.47.13-.71l0-.31c0-.21,0-.42.08-.64a3.56,3.56,0,0,1,.05-.47c0-.14,0-.28,0-.41a14.83,14.83,0,0,0-2.67-9.59c-2.58-3.62-5.55-7.46-12-8H36c-6.46.53-9.43,4.37-12,8a14.9,14.9,0,0,0-2.68,9.59c0,.13,0,.27,0,.41s0,.31.05.47,0,.43.07.64,0,.21,0,.31.09.48.13.71,0,.2,0,.3.09.43.15.64.07.27.09.42.06.25.1.38.32,1.57.63,3.28c-1.72-.84-4.11.37-3.83,3.54s4.21,5.13,5.55,5.45a10.82,10.82,0,0,0,.32,1.23c1.18,3,2.6,3.84,5.1,6.25,2.72,2.61,6.74,5.06,8.73,5.05H39c2,0,6-2.44,8.73-5.05,2.5-2.41,3.92-3.3,5.09-6.25A10.49,10.49,0,0,0,53.11,45c1.29-.29,5.29-2.21,5.59-5.46S56.55,35.11,54.82,36Z" style="fill:#fbd2c5"/><path d="M57.44,37.77a1.89,1.89,0,0,0-2.87-.57,1.64,1.64,0,0,0-.48,1.8c.13.53.68.57.54,1.37a1.42,1.42,0,0,1-.81,1.15,1.79,1.79,0,0,0-.68.73,2,2,0,0,0-.09,1.11c.15.65,1.09.15,1.71-.13a12.88,12.88,0,0,0,2.08-1.65,3.6,3.6,0,0,0,.6-3.81" style="fill:#e9b7ac"/><path d="M20.1,37.77A1.89,1.89,0,0,1,23,37.2a1.64,1.64,0,0,1,.48,1.8c-.13.53-.68.57-.54,1.37a1.43,1.43,0,0,0,.8,1.15,1.75,1.75,0,0,1,.69.73,2,2,0,0,1,.09,1.11c-.15.65-1.09.15-1.72-.13a13.26,13.26,0,0,1-2.07-1.65,3.6,3.6,0,0,1-.6-3.81" style="fill:#e9b7ac"/><path d="M36.28,40l-.06.17.09-.16Z" style="fill:#0e151a;opacity:0.4"/><path d="M36.28,40l-.06.17.09-.16Z" style="fill:#e8e9e7;opacity:0.55"/><path d="M41.45,41.49c.09.13.19.24.28.36-.08-.12-.17-.24-.25-.37Z" style="fill:#0e151a;opacity:0.4"/><path d="M41.45,41.49c.09.13.19.24.28.36-.08-.12-.17-.24-.25-.37Z" style="fill:#e8e9e7;opacity:0.55"/><path d="M19.46,73l.13.07,0-.07Z" style="fill:#332e2b"/><path d="M19.61,73v0h0Z" style="fill:#332e2b"/><path d="M57.79,73h3.5a9.09,9.09,0,0,0-.19-1.7l0-.13c-.28-1.36,0-2.25-.87-3.3a7.92,7.92,0,0,0-2.11-1.66l-1.87-.59h0L54.28,65l-.59-.19c-.35-.11-.7-.24-1.07-.35L51.28,64C37,76.26,26.21,64,26.21,64c-.66.23-1.34.46-2,.67l-.17.06-.1,0-2.67.86h0l-1.87.59A7.43,7.43,0,0,0,17.2,68c-.72,1-.52,1.85-.79,3.14,0,0,0,.09,0,.13h0v0a.3.3,0,0,0,0,.15h0A12.87,12.87,0,0,0,16.2,73h3.41l0,.07a24.51,24.51,0,0,0-1.25,5.77H59.07A25,25,0,0,0,57.79,73Z" style="fill:#332e2b"/><path d="M39.55,24.21C42,24.21,44.07,21,46.23,20V10.45a18.14,18.14,0,0,0-6.85-1.27h-.11a17.34,17.34,0,0,0-8,1.79v8.74c2.62-.09,5.17,4.4,8,4.5Z" style="fill:#7b3944"/><path d="M35.23,37.61A3.44,3.44,0,0,1,31,39.83,3.17,3.17,0,0,1,28.54,36Z" style="fill:#3a2018;fill-rule:evenodd"/><path d="M27.8,33.47a.5.5,0,0,1,.62-.79c.31.24.59.48.9.74a16.55,16.55,0,0,0,4.62,3.07,1.7,1.7,0,0,0,.79.08,1.23,1.23,0,0,0,.63-.28.51.51,0,0,1,.71.08.5.5,0,0,1-.08.7,2.19,2.19,0,0,1-1.12.5,2.62,2.62,0,0,1-1.25-.13,16.81,16.81,0,0,1-4.94-3.25Z" style="fill:#3a2018;fill-rule:evenodd"/><path d="M47.91,40.76c-2.68.09-2.63,1.87.06,1.79S50.6,40.68,47.91,40.76Z" style="fill:#dc98ab;fill-rule:evenodd"/><path d="M30.08,40.76c2.68.09,2.63,1.87-.06,1.79S27.39,40.68,30.08,40.76Z" style="fill:#dc98ab;fill-rule:evenodd"/><path d="M42.63,37.61a3.44,3.44,0,0,0,4.19,2.22A3.16,3.16,0,0,0,49.32,36Z" style="fill:#3a2018;fill-rule:evenodd"/><path d="M49.44,32.68a.51.51,0,0,1,.71.09.5.5,0,0,1-.09.7c-.22.17-.53.44-.87.72a17,17,0,0,1-4.95,3.25,2.59,2.59,0,0,1-1.25.13,2.23,2.23,0,0,1-1.12-.5.49.49,0,0,1-.07-.7.51.51,0,0,1,.71-.08,1.2,1.2,0,0,0,.62.28,1.74,1.74,0,0,0,.8-.08,16.5,16.5,0,0,0,4.61-3.07Z" style="fill:#3a2018;fill-rule:evenodd"/><path d="M33.9,38.58a.48.48,0,0,0,.47-.48.47.47,0,0,0-.47-.47.48.48,0,0,0-.48.47A.49.49,0,0,0,33.9,38.58Z" style="fill:#fff;fill-rule:evenodd"/><path d="M48.41,37.78a.49.49,0,0,0,.48-.48.48.48,0,0,0-.48-.47.47.47,0,0,0-.47.47A.48.48,0,0,0,48.41,37.78Z" style="fill:#fff;fill-rule:evenodd"/><path d="M36.15,41c.57.67.37.68,1,.13s.51-.7,1,0,.36.69,1-.05.5-.72,1.09.08c.72,1,.55,1,1.17-.1.73-1.26.7-.73,1,.74l.71,3.54L34,45.53l1-3.73C35.3,40.57,35.22,39.94,36.15,41Z" style="fill:#cb4f41;fill-rule:evenodd"/><path d="M36.41,40.83a2.94,2.94,0,0,1,.22.27c.08.09,0,.12,0,.13s0,0,.08-.13l.21-.19a3.12,3.12,0,0,0,.3-.26h0c.2-.19.31-.29.52-.28s.37.16.62.53v0l.07.09h0l.14.2c.09.13-.08.21,0,.2s0,0,.05-.14.16-.2.29-.34l.17-.2c.28-.32.41-.47.67-.45s.36.18.58.48l.19.28.21.28c.14.2,0,.31.12.3s0-.1.09-.31l.19-.34h0c.45-.77.74-1,1.08-.83s.32.54.44,1.17c0,.12,0,.25.09.49l.71,3.54a.33.33,0,0,1-.26.4h-.09L34,45.86a.32.32,0,0,1-.34-.33.28.28,0,0,1,0-.09l1-3.72c.05-.19.09-.37.12-.52a1.81,1.81,0,0,1,.38-.94c.33-.27.67-.13,1.26.57Zm-.3.69-.21-.26c-.27-.32-.27-.52-.31-.49a2.73,2.73,0,0,0-.16.58c0,.16-.08.34-.14.54h0l-.86,3.3,8.36-.11-.63-3.15c0-.12-.06-.32-.09-.5-.08-.44-.1-.7-.12-.71s0,.23-.16.58h0c-.06.11-.13.23-.18.34-.24.41-.35.62-.63.65s-.43-.18-.72-.58l-.2-.28-.2-.28c-.1-.14,0-.2-.08-.2s0,.07-.12.22l-.18.2-.27.32c-.2.25-.31.38-.52.39s-.38-.15-.62-.49l-.13-.19-.07-.1v0a.28.28,0,0,1-.06-.23l-.06.08h0l-.33.29-.21.18c-.25.21-.37.31-.59.29S36.29,41.75,36.11,41.52Z" style="fill:#3a2018;fill-rule:evenodd"/></g></g></svg>