<svg xmlns="http://www.w3.org/2000/svg" viewBox="0 0 78.88 78.88"><title>Asset 42</title><g id="Layer_2" data-name="Layer 2"><g id="Layer_2-2" data-name="Layer 2"><rect width="78.88" height="78.88" style="fill:#c1636d"/><path d="M60.55,78s-.09-5.63-.32-6.13c-.43-2,.34-2.86-2.7-4.76l-1.68-.54,0,0c-.64-.21-1.42-.46-2.24-.75-.32-.1-.63-.22-1-.32-1.37-.48-2.75-1-3.76-1.42a5.8,5.8,0,0,1-1.47-.78.38.38,0,0,0-.07-.08.61.61,0,0,0-.07-.1A19.42,19.42,0,0,1,46,59.72h0a5,5,0,0,1-.11-.94c0-.45,0-.91,0-1.32s0-.81,0-1.12v-.27c0-.22,0-.41,0-.55s0-.22,0-.22l.81-.7c.6-.54,1.45-1.31,2.19-2.05a9.05,9.05,0,0,0,1.63-1.95.5.5,0,0,0,0-.14H50.4c-.38.06-2.39.41-4.55.75-1.29.19-2.63.39-3.73.53-.43.06-.83.1-1.17.13h0a6.38,6.38,0,0,1-.79.05c-.22,0-.52,0-.88-.05h0L38,51.72c-1-.13-2.21-.3-3.38-.48l-3-.48-.54-.09-1.3-.22a1.54,1.54,0,0,0,.37.69h0c.17.23.41.5.68.81s.57.57.87.86c.92.9,1.93,1.79,2.42,2.21.19.16.29.26.29.26s0,.08,0,.22,0,.33,0,.55v.27a2.62,2.62,0,0,1,0,.28c0,.61,0,1.37-.06,2.16a5,5,0,0,1-.12.94A18.78,18.78,0,0,1,33,63.05a.61.61,0,0,1-.07.1l-.07.08a5.21,5.21,0,0,1-1.15.65c-1.16.52-3,1.17-4.66,1.75l-.24.08-2.4.81h0l-1.68.54c-3,1.89-2.28,2.79-2.7,4.73h0v0A.78.78,0,0,0,20,72v0c-.2,1-.28,6-.28,6,0,.3,0,.61,0,.93H60.56C60.56,78.56,60.56,78.25,60.55,78Z" style="fill:#fbd2c5"/><path d="M46,59.71a6,6,0,0,1-.12-.94c0-1.05,0-2.05-.07-2.71a13.15,13.15,0,0,1-5.32,1.24,2.06,2.06,0,0,1-.36,0,1.94,1.94,0,0,1-.35,0,13.24,13.24,0,0,1-5.33-1.24c0,.66,0,1.66-.07,2.71a5,5,0,0,1-.11.94c1.69,1.41,4,2.88,5.51,2.88a3,3,0,0,0,.32,0h.07a3,3,0,0,0,.32,0C42,62.59,44.33,61.12,46,59.71Z" style="fill:#d29f97"/><path d="M55.21,38.72c.29-1.62.52-2.86.59-3.11a3.58,3.58,0,0,0,.09-.35l.09-.39c.05-.2.09-.4.14-.6s0-.19,0-.28.09-.45.12-.67a2.89,2.89,0,0,1,0-.29c0-.2,0-.4.07-.6s0-.3,0-.44,0-.26,0-.39a14,14,0,0,0-2.51-9c-2.42-3.39-5.2-7-11.25-7.48H37.6c-6,.5-8.83,4.09-11.25,7.48a14,14,0,0,0-2.5,9c0,.13,0,.26,0,.39a3.12,3.12,0,0,1,.05.44c0,.2,0,.4.07.6a2.89,2.89,0,0,0,0,.29c0,.22.08.45.11.67a2.74,2.74,0,0,1,.05.28c0,.2.08.4.14.6s.06.25.08.39.06.24.1.35.29,1.48.58,3.08c-1.61-.79-3.85.34-3.58,3.31s3.94,4.8,5.19,5.11A10.51,10.51,0,0,0,27,48.26c1.1,2.77,2.43,3.6,4.77,5.86,2.55,2.44,6.32,4.73,8.17,4.72h.4c1.86,0,5.63-2.28,8.18-4.72,2.34-2.26,3.67-3.09,4.77-5.86a11.57,11.57,0,0,0,.3-1.14c1.21-.27,5-2.07,5.24-5.12S56.83,37.88,55.21,38.72Z" style="fill:#fbd2c5"/><path d="M57.66,40.38A1.77,1.77,0,0,0,55,39.84a1.55,1.55,0,0,0-.45,1.69c.13.49.64.53.51,1.28a1.3,1.3,0,0,1-.76,1.07,1.7,1.7,0,0,0-.63.69,1.89,1.89,0,0,0-.1,1c.14.61,1,.14,1.61-.13a11.67,11.67,0,0,0,2-1.54,3.35,3.35,0,0,0,.56-3.56" style="fill:#e9b7ac"/><path d="M22.69,40.38a1.76,1.76,0,0,1,2.68-.54,1.52,1.52,0,0,1,.45,1.69c-.12.49-.64.53-.5,1.28a1.29,1.29,0,0,0,.75,1.07,1.72,1.72,0,0,1,.64.69,1.88,1.88,0,0,1,.09,1c-.14.61-1,.14-1.61-.13a11.21,11.21,0,0,1-1.94-1.54,3.35,3.35,0,0,1-.56-3.56" style="fill:#e9b7ac"/><path d="M24.12,26.33H24l.14.06Z" style="fill:#1b1b17"/><path d="M55.84,44.67h0a.69.69,0,1,0-.82.53.66.66,0,0,0,.48-.08,3.23,3.23,0,1,1-3.92,5.08l-.3.48a3.74,3.74,0,0,0,1.75.89,3.78,3.78,0,0,0,2.8-6.89Z" style="fill:#fff"/><path d="M24.5,44.67h0a.69.69,0,1,1,.81.53.64.64,0,0,1-.47-.08,3.23,3.23,0,1,0,3.92,5.08l.3.48a3.74,3.74,0,0,1-1.75.89,3.78,3.78,0,0,1-2.81-6.89Z" style="fill:#fff"/><path d="M56.29,75.85c-.55-3.34-3.72-4.12-3.87-10.65l-1.64-.6-7.49,9.31a3.61,3.61,0,0,1-5.61,0L30,64.47c-.55.21-1.12.41-1.71.62-.11,6.63-3.31,7.4-3.87,10.76-.13.74-.26,2.1-.34,3H56.64C56.55,78,56.42,76.59,56.29,75.85Z" style="fill:#7b3944"/><path d="M42.67,29.78s11.82-2.37,13.61,3.54a14.55,14.55,0,0,0-4.16-13.11l-.83-.67Z" style="fill:#e9b7ac"/><path d="M52.1,19.26A13.18,13.18,0,0,0,36.77,13.2C19.9,17.77,22.4,31.62,22.71,35.45c.65,8.08,6.37,15.86,7.49,17.18,0,0-3.14-8.55-1.85-11.59s3.6-4.39,9.74-8.4S46.72,27.92,49.62,24s2.48-4.73,2.48-4.73" style="fill:#353839"/><path d="M35.62,45.29l.86,5,7.48.07,1-5.1c-.28.21-1.68,1.49-2.06,1.49-.21,0-.95-.77-1.16-1a9.43,9.43,0,0,1-1.33,1.17c-.19,0-1.28-1.09-1.54-1.33-.19.19-1.1,1.18-1.27,1.18C37.17,46.79,35.87,45.48,35.62,45.29Z" style="fill:#3a2018;fill-rule:evenodd"/><path d="M36.89,49.82l6.67.06C44.06,47.33,36.46,47.41,36.89,49.82Z" style="fill:#cb4f41;fill-rule:evenodd"/><path d="M35.19,42.28a3.72,3.72,0,0,1-6.85-2.91Z" style="fill:#fff;fill-rule:evenodd"/><path d="M35.63,42.47a4.2,4.2,0,0,1-5.47,2.24l-.07,0a4.21,4.21,0,0,1-2.21-5.46.5.5,0,0,1,.46-.33.54.54,0,0,1,.22,0l6.82,2.9a.48.48,0,0,1,.25.63ZM33,43.83a3.18,3.18,0,0,0,1.55-1.31L28.63,40a3.24,3.24,0,0,0,1.87,3.8h0A3.19,3.19,0,0,0,33,43.83Z" style="fill:#3a2018;fill-rule:evenodd"/><path d="M35.16,42.3a.24.24,0,0,1,.27-.2.23.23,0,0,1,.2.27,3.92,3.92,0,0,1-2,2.45,7.31,7.31,0,0,1-3.67.89.24.24,0,0,1,0-.48,6.87,6.87,0,0,0,3.43-.82A3.43,3.43,0,0,0,35.16,42.3Z" style="fill:#3a2018;fill-rule:evenodd"/><path d="M26.61,41.85a.32.32,0,0,1,.58-.28,1.62,1.62,0,0,1,.08.2h0c.34.8,1.28,3,5.08,2.73a.32.32,0,0,1,.34.3.32.32,0,0,1-.3.34c-4.25.27-5.32-2.2-5.71-3.12h0Z" style="fill:#3a2018;fill-rule:evenodd"/><path d="M45.52,42.28a3.73,3.73,0,0,0,6.86-2.91Z" style="fill:#fff;fill-rule:evenodd"/><path d="M46.18,42.52a3.25,3.25,0,0,0,4,1.29h0A3.24,3.24,0,0,0,52.09,40l-5.91,2.51Zm1.2,2.2a4.16,4.16,0,0,1-2.3-2.25.49.49,0,0,1,.25-.63l6.83-2.9a.51.51,0,0,1,.22,0,.47.47,0,0,1,.45.33,4.21,4.21,0,0,1-2.21,5.46l-.06,0A4.17,4.17,0,0,1,47.38,44.72Z" style="fill:#3a2018;fill-rule:evenodd"/><path d="M45.08,42.37a.23.23,0,0,1,.2-.27.25.25,0,0,1,.28.2,3.4,3.4,0,0,0,1.77,2.11,6.83,6.83,0,0,0,3.42.82.24.24,0,0,1,0,.48,7.24,7.24,0,0,1-3.66-.89A3.91,3.91,0,0,1,45.08,42.37Z" style="fill:#3a2018;fill-rule:evenodd"/><path d="M53.53,41.57a.31.31,0,0,1,.42-.15.32.32,0,0,1,.15.43L54,42h0c-.4.92-1.47,3.39-5.72,3.12a.32.32,0,1,1,0-.64c3.8.24,4.74-1.93,5.09-2.73h0Z" style="fill:#3a2018;fill-rule:evenodd"/><path d="M43.83,35.66a.31.31,0,0,1,.39-.23.3.3,0,0,1,.22.38,2,2,0,0,1,0,.24h0a1.59,1.59,0,0,1-.8,1.29,1.46,1.46,0,0,1-1.26,0l-.23-.06a.32.32,0,0,1-.23-.39.31.31,0,0,1,.38-.23l.26.07a1,1,0,0,0,.79,0c.31-.16.39-.5.47-.86A2.27,2.27,0,0,1,43.83,35.66Z" style="fill:#c12b18;fill-rule:evenodd"/><path d="M44.8,35.9a.31.31,0,0,1,.39-.22.31.31,0,0,1,.23.38l-.07.25a1.14,1.14,0,0,0,0,1,1,1,0,0,0,.71.35l.26.06a.32.32,0,0,1,.23.39.33.33,0,0,1-.39.23l-.23-.06a1.51,1.51,0,0,1-1.11-.62,1.62,1.62,0,0,1-.08-1.51C44.76,36.06,44.78,36,44.8,35.9Z" style="fill:#c12b18;fill-rule:evenodd"/><path d="M43.37,40a.32.32,0,1,1-.62-.16c0-.09,0-.17.07-.25a1.16,1.16,0,0,0,0-1,1,1,0,0,0-.72-.36l-.25-.06A.32.32,0,1,1,42,37.6l.23,0a1.51,1.51,0,0,1,1.11.62,1.62,1.62,0,0,1,.07,1.51C43.41,39.87,43.38,40,43.37,40Z" style="fill:#c12b18;fill-rule:evenodd"/><path d="M44.34,40.27a.32.32,0,0,1-.39.23.33.33,0,0,1-.23-.39c0-.11,0-.18.06-.24a1.63,1.63,0,0,1,.79-1.29,1.56,1.56,0,0,1,1.27,0l.23.07a.32.32,0,1,1-.16.61l-.25-.07a1.06,1.06,0,0,0-.8,0c-.3.16-.38.5-.46.86C44.38,40.11,44.35,40.22,44.34,40.27Z" style="fill:#c12b18;fill-rule:evenodd"/></g></g></svg>