<svg xmlns="http://www.w3.org/2000/svg" viewBox="0 0 78.88 78.88"><title>Asset 46</title><g id="Layer_2" data-name="Layer 2"><g id="Layer_2-2" data-name="Layer 2"><rect width="78.88" height="78.88" style="fill:#f07068"/><path d="M61.68,77.89s-.1-6-.33-6.54c-.47-2.1.36-3.06-2.89-5.08,0,0-.73-.24-1.8-.59h0l-2.4-.8c-.34-.12-.67-.24-1-.35-1.46-.51-2.94-1.06-4-1.51a6.37,6.37,0,0,1-1.56-.84s0-.05-.08-.09a.86.86,0,0,1-.07-.1,21.11,21.11,0,0,1-1.33-3.56h0a5.69,5.69,0,0,1-.12-1c0-.48,0-1,0-1.41s0-.86,0-1.2v-.28c0-.24,0-.44,0-.59s0-.24,0-.24l.86-.75c.64-.57,1.55-1.39,2.33-2.18a9.18,9.18,0,0,0,1.75-2.09.49.49,0,0,0,0-.15l-.06,0c-.4.06-2.55.43-4.86.79-1.37.22-2.81.43-4,.58l-1.25.14h0c-.33,0-.62.05-.83.05s-.56,0-.95-.05h0l-1.31-.17c-1.07-.13-2.36-.32-3.6-.51l-3.16-.51-.58-.1-1.38-.24a1.54,1.54,0,0,0,.4.74,0,0,0,0,0,0,0c.19.25.44.54.73.86s.6.62.93.93C32,52,33,53,33.55,53.42l.32.27a2,2,0,0,1,0,.24c0,.15,0,.35,0,.59v.28c0,.1,0,.2,0,.3,0,.65,0,1.46-.06,2.31a5.71,5.71,0,0,1-.13,1A20.72,20.72,0,0,1,32.32,62l-.08.1a.76.76,0,0,0-.07.09,6,6,0,0,1-1.24.7c-1.23.55-3.17,1.25-5,1.86a2.67,2.67,0,0,0-.26.09l-2.56.86h0c-1.05.35-1.76.57-1.79.59-3.22,2-2.43,3-2.88,5h0v0a.3.3,0,0,0,0,.15h0c-.21,1.09-.3,6.38-.3,6.38,0,.32,0,.65,0,1H61.69C61.69,78.54,61.69,78.21,61.68,77.89Z" style="fill:#fbd2c5"/><path d="M46.17,58.41a5.58,5.58,0,0,1-.12-1c0-1.12-.06-2.19-.08-2.89a14.09,14.09,0,0,1-5.68,1.32,3.62,3.62,0,0,1-.76,0,14.17,14.17,0,0,1-5.69-1.32c0,.7,0,1.77-.07,2.89a4.81,4.81,0,0,1-.13,1c1.81,1.51,4.26,3.07,5.89,3.07a1.79,1.79,0,0,0,.34,0H40a1.79,1.79,0,0,0,.34,0C41.91,61.48,44.36,59.92,46.17,58.41Z" style="fill:#d29f97"/><path d="M25.07,64.16l-.08,0c0,.18,0,.33.05.5C25.05,64.51,25.05,64.33,25.07,64.16Z" style="fill:#661c34"/><path d="M53.77,63.89l-.13,0c0,.17,0,.34.07.52C53.72,64.21,53.75,64.06,53.77,63.89Z" style="fill:#661c34"/><path d="M56.35,76.56v0H62.8c-.07-.45-.24-1.36-.49-2.44-.59-2.63-1.57-6.3-2.26-7.12a11.83,11.83,0,0,0-4.21-3.11,15.71,15.71,0,0,0-4-1.19c-11.48,14.17-21.85,3-24.2.06a18.88,18.88,0,0,0-3.73,1.15A14.32,14.32,0,0,0,19.35,67c-.83.86-1.78,4.35-2.62,7.12-.28.94-.55,1.8-.79,2.44h7.13v0c.05,3-.08,1.09-.2,2.32H56.53C56.41,77.65,56.29,79.55,56.35,76.56Z" style="fill:#b44e6b"/><polygon points="33.66 73.13 32.52 72 31.24 73.28 29.95 72 28.82 73.13 30.1 74.42 28.82 75.7 29.95 76.84 31.24 75.55 32.52 76.84 33.66 75.7 32.38 74.42 33.66 73.13" style="fill:#fff;fill-rule:evenodd"/><polygon points="40.06 73.13 38.92 72 37.64 73.28 36.35 72 35.22 73.13 36.5 74.42 35.22 75.7 36.35 76.84 37.64 75.55 38.92 76.84 40.06 75.7 38.77 74.42 40.06 73.13" style="fill:#fff;fill-rule:evenodd"/><polygon points="46.46 73.13 45.32 72 44.04 73.28 42.75 72 41.62 73.13 42.9 74.42 41.62 75.7 42.75 76.84 44.04 75.55 45.32 76.84 46.46 75.7 45.17 74.42 46.46 73.13" style="fill:#fff;fill-rule:evenodd"/><polygon points="52.86 73.13 51.72 72 50.44 73.28 49.15 72 48.01 73.13 49.3 74.42 48.01 75.7 49.15 76.84 50.44 75.55 51.72 76.84 52.86 75.7 51.57 74.42 52.86 73.13" style="fill:#fff;fill-rule:evenodd"/><path d="M56,36c.31-1.73.56-3,.63-3.31s.07-.25.1-.38.07-.28.09-.42.1-.43.15-.64,0-.2,0-.3.09-.47.12-.71,0-.21,0-.31.05-.42.08-.64a3.56,3.56,0,0,1,0-.47c0-.14,0-.28,0-.41a14.89,14.89,0,0,0-2.67-9.59c-2.58-3.62-5.56-7.46-12-8H37.19c-6.46.53-9.43,4.37-12,8a15,15,0,0,0-2.67,9.59c0,.13,0,.27,0,.41s0,.31,0,.47,0,.43.07.64,0,.21,0,.31.09.48.12.71,0,.2.05.3.09.43.15.64.07.27.09.42.06.25.1.38.32,1.57.63,3.28c-1.72-.84-4.11.37-3.83,3.54s4.21,5.13,5.55,5.45a10.82,10.82,0,0,0,.32,1.23c1.18,3,2.6,3.84,5.1,6.25,2.72,2.61,6.74,5.06,8.72,5.05h.43c2,0,6-2.44,8.73-5.05,2.49-2.41,3.92-3.3,5.09-6.25.08-.21.19-.64.33-1.22,1.29-.29,5.29-2.21,5.59-5.46S57.71,35.11,56,36Z" style="fill:#fbd2c5"/><path d="M58.6,37.77a1.89,1.89,0,0,0-2.87-.57,1.64,1.64,0,0,0-.48,1.8c.13.53.68.57.54,1.37A1.42,1.42,0,0,1,55,41.52a1.79,1.79,0,0,0-.68.73,2,2,0,0,0-.1,1.11c.15.65,1.1.15,1.72-.13A12.88,12.88,0,0,0,58,41.58a3.6,3.6,0,0,0,.6-3.81" style="fill:#e9b7ac"/><path d="M54.86,15.35c-4.1-3.13-10.58-7.25-14.32-6.86-3.75-.39-11.23,3.73-15.33,6.86C18.5,20.46,22.06,35.6,22.06,35.6a2,2,0,0,1,1.7.39,6,6,0,0,1,1.59,3,2.47,2.47,0,0,0,1.2,1.56s-1.61-7.28,0-10.52c1-2,1.9-4.19,5-6.3,2-1.39,5.57-1.77,9-1.72s7,.33,9,1.72c3.07,2.11,4,4.3,5,6.3,1.65,3.24,0,10.52,0,10.52A2.47,2.47,0,0,0,55.72,39a6,6,0,0,1,1.59-3A2,2,0,0,1,59,35.6s2.56-15.14-4.15-20.25" style="fill:#3a2817"/><path d="M30.33,22.32a9.55,9.55,0,0,1,6.93-5.46c1.36-.32,5.65-.72,7.39,0a5.2,5.2,0,0,1,3.08,3c.52,1.31.29,5.43-6.41,6-2.55.22-6.88,1.47-7.63,2.85-1.24,2.27,1.89,4.14,1.89,4.14s-4.24-1.66-5.28-4.37a7.77,7.77,0,0,1,0-6.19" style="fill:#3f2c19"/><path d="M46.13,19.61a1.89,1.89,0,0,1,0,.22,2.52,2.52,0,0,1-.09.62,4.29,4.29,0,0,1-.34.93c-.11.16-.21.34-.33.52a6.75,6.75,0,0,1-.44.52,9.07,9.07,0,0,1-2.68,1.78,30.72,30.72,0,0,1-3.38,1.28,26.68,26.68,0,0,0-3.28,1.25,6.22,6.22,0,0,0-1.3.85,2.91,2.91,0,0,0-.76,1.1,3.83,3.83,0,0,0,0,2.09c.14.5.24.8.24.8s-.16-.26-.4-.75a3.78,3.78,0,0,1-.3-2.27,3.53,3.53,0,0,1,.78-1.39,5.63,5.63,0,0,1,1.38-1.06,19.94,19.94,0,0,1,3.36-1.39c2.32-.76,4.65-1.47,6-2.62a6,6,0,0,0,.83-.87,4,4,0,0,0,.45-.82,3.67,3.67,0,0,0,.2-.58l.06-.21" style="fill:#563b22"/><path d="M43.14,17.84l.14.17a2.13,2.13,0,0,1,.33.52,1.91,1.91,0,0,1,.18,1,2.13,2.13,0,0,1-.54,1.2,7.81,7.81,0,0,1-2.57,1.82c-.51.25-1,.48-1.59.71a13.08,13.08,0,0,0-1.54.78,12.59,12.59,0,0,0-2.68,2.05,5.75,5.75,0,0,0-1.54,2.44,3.4,3.4,0,0,0,0,2,4.34,4.34,0,0,0,.31.75,1.22,1.22,0,0,1-.13-.17,2.79,2.79,0,0,1-.33-.52,3.52,3.52,0,0,1-.3-2.2,6.06,6.06,0,0,1,1.45-2.82,11.52,11.52,0,0,1,2.8-2.27,25.25,25.25,0,0,1,3.24-1.46,8.43,8.43,0,0,0,2.53-1.46,2.15,2.15,0,0,0,.57-.94,1.58,1.58,0,0,0,0-.87,3.2,3.2,0,0,0-.32-.75" style="fill:#563b22"/><path d="M21.26,37.77a1.89,1.89,0,0,1,2.87-.57,1.64,1.64,0,0,1,.48,1.8c-.13.53-.68.57-.54,1.37a1.41,1.41,0,0,0,.8,1.15,1.73,1.73,0,0,1,.68.73,2,2,0,0,1,.1,1.11c-.15.65-1.09.15-1.72-.13a12.81,12.81,0,0,1-2.07-1.65,3.6,3.6,0,0,1-.6-3.81" style="fill:#e9b7ac"/><path d="M27.43,47l-1.54-2.44,0,0a.79.79,0,0,0-.66-.35.82.82,0,0,0-.66.34l0,.06L23.63,46,23,47,23,47l0,0h0v0a.74.74,0,0,0-.12.42.8.8,0,0,0,.8.8h3.16a.8.8,0,0,0,.8-.8A1,1,0,0,0,27.43,47Zm-.64.86H23.63a.37.37,0,0,1-.37-.37.39.39,0,0,1,0-.18l0,0,0,0,.05-.07.92-1.47h1.8l1,1.53a.59.59,0,0,1,.09.25A.37.37,0,0,1,26.79,47.87Z" style="fill:#fff"/><path d="M56.74,47l-1.53-2.44,0,0a.8.8,0,0,0-1.32,0l0,.06L53,46l-.61,1,0,.07,0,0h0v0a.74.74,0,0,0-.12.42.8.8,0,0,0,.8.8h3.16a.8.8,0,0,0,.8-.8A.92.92,0,0,0,56.74,47Zm-.63.86H53a.37.37,0,0,1-.37-.37.39.39,0,0,1,0-.18l0,0,0,0,0-.07.93-1.47h1.79l1,1.53a.55.55,0,0,1,.1.25A.38.38,0,0,1,56.11,47.87Z" style="fill:#fff"/><path d="M32.44,36.28a3.29,3.29,0,0,1,3.09,4.4l-6,.43A3.28,3.28,0,0,1,32.44,36.28Z" style="fill:#3a2018;fill-rule:evenodd"/><path d="M34,37.33a1,1,0,1,1-1.2.69A1,1,0,0,1,34,37.33Z" style="fill:#fff;fill-rule:evenodd"/><path d="M45,45.93a5.29,5.29,0,0,0-1.88-1.79,6.06,6.06,0,0,0-3-.68,6.44,6.44,0,0,0-3.31.9,5.21,5.21,0,0,0-1.72,1.74,20.24,20.24,0,0,1,5.32-.8,14.85,14.85,0,0,1,4.55.63Zm-1.57-2.35A6.32,6.32,0,0,1,46,46.37h0a.33.33,0,0,1,0,.26.32.32,0,0,1-.41.18,13.82,13.82,0,0,0-5.14-.87,19.87,19.87,0,0,0-5.85,1,.33.33,0,0,1-.22,0,.32.32,0,0,1-.17-.42,5.78,5.78,0,0,1,2.31-2.67,7,7,0,0,1,3.64-1A6.65,6.65,0,0,1,43.45,43.58Z" style="fill:#3a2018;fill-rule:evenodd"/><path d="M32.75,33.82a.48.48,0,1,1,.2.94,6.94,6.94,0,0,0-3.34,1.88.47.47,0,0,1-.67,0,.48.48,0,0,1-.05-.67A8.06,8.06,0,0,1,32.75,33.82Z" style="fill:#3a2018;fill-rule:evenodd"/><path d="M29.11,41.56a.33.33,0,0,1-.39-.24.31.31,0,0,1,.24-.38,21.43,21.43,0,0,1,3.1-.57,17.86,17.86,0,0,1,3.51,0,.31.31,0,0,1,.29.34.32.32,0,0,1-.35.29,18.24,18.24,0,0,0-3.39,0A20.7,20.7,0,0,0,29.11,41.56Z" style="fill:#3a2018;fill-rule:evenodd"/><path d="M36.06,44.44a.24.24,0,0,1,.16-.3.25.25,0,0,1,.3.17L37,46a.24.24,0,0,1-.16.3.25.25,0,0,1-.3-.17Z" style="fill:#3a2018;fill-rule:evenodd"/><path d="M38.53,43.31a.24.24,0,0,1,.22-.26.24.24,0,0,1,.26.21l.22,2.41a.24.24,0,0,1-.21.26.23.23,0,0,1-.26-.22Z" style="fill:#3a2018;fill-rule:evenodd"/><path d="M41.52,43.28a.24.24,0,0,1,.26-.22.24.24,0,0,1,.22.25l-.14,2.35a.25.25,0,0,1-.25.23.26.26,0,0,1-.23-.26Z" style="fill:#3a2018;fill-rule:evenodd"/><path d="M44.14,44.54a.24.24,0,0,1,.32-.12.23.23,0,0,1,.12.31L44,46a.25.25,0,0,1-.32.13.24.24,0,0,1-.12-.32Z" style="fill:#3a2018;fill-rule:evenodd"/><path d="M47.3,36.49a3.29,3.29,0,0,0-3.09,4.41l6,.43A3.3,3.3,0,0,0,47.3,36.49Z" style="fill:#3a2018;fill-rule:evenodd"/><path d="M45.78,37.55a1,1,0,1,0,1.19.69A1,1,0,0,0,45.78,37.55Z" style="fill:#fff;fill-rule:evenodd"/><path d="M46.79,35A.48.48,0,0,1,47,34a8,8,0,0,1,3.85,2.18.48.48,0,0,1,0,.68.48.48,0,0,1-.67,0A7,7,0,0,0,46.79,35Z" style="fill:#3a2018;fill-rule:evenodd"/><path d="M50.78,41.15a.32.32,0,1,1-.15.62,20.56,20.56,0,0,0-3-.55,17.41,17.41,0,0,0-3.39,0,.32.32,0,0,1-.34-.29.32.32,0,0,1,.29-.35,17.81,17.81,0,0,1,3.51,0A21.41,21.41,0,0,1,50.78,41.15Z" style="fill:#3a2018;fill-rule:evenodd"/><path d="M33,46.89a.15.15,0,0,1,.15-.17.16.16,0,0,1,.17.15,1.38,1.38,0,0,0,.07.43.77.77,0,0,0,.19.37.61.61,0,0,0,.38.16,2.16,2.16,0,0,0,.82-.09.15.15,0,0,1,.2.11.16.16,0,0,1-.11.19,2.45,2.45,0,0,1-.94.11.9.9,0,0,1-.58-.26,1.11,1.11,0,0,1-.27-.5A2.57,2.57,0,0,1,33,46.89Z" style="fill:#3a2018;fill-rule:evenodd"/><path d="M45,47.8a.15.15,0,0,1-.11-.19.16.16,0,0,1,.19-.12,1.43,1.43,0,0,0,1.17,0c.24-.17.35-.53.35-1.1a.16.16,0,0,1,.16-.16.16.16,0,0,1,.16.16,1.53,1.53,0,0,1-.48,1.35A1.69,1.69,0,0,1,45,47.8Z" style="fill:#3a2018;fill-rule:evenodd"/></g></g></svg>