<svg xmlns="http://www.w3.org/2000/svg" viewBox="0 0 78.88 78.88"><title>Asset 43</title><g id="Layer_2" data-name="Layer 2"><g id="Layer_2-2" data-name="Layer 2"><rect width="78.88" height="78.88" style="fill:#faa830"/><path d="M50.83,39.22a31.1,31.1,0,0,1-2.56,6.56C47,48.07,43.1,51,43,54.14c-.29,6.71,9.23,9.91,13.07,11s5.11,1.26,5.54,2.91a15.07,15.07,0,0,1,.08,4.42s3.23-1.77,4.14-3.12a3.67,3.67,0,0,0-.18-4.89s-.8.68.14,2.22.94,2.91.6,3.31-1.54,1.66-1.54,1.66S70.76,70,69.6,65.19c-.2-.83-.74-.22,0,0,1.65.49,1.34,3.22,1.34,3.22s4-5.21-4.12-8.16c-.78-.28-5-1.32-5.41-4.79-.24-1.93,1.17-2.09,1.42-4.45.34-3-4-2.4-5.7-5.27-.32-.54,1.26-.85,0-2.33-1.52-1.79-2.08-1.65-4.25-2.71S50.83,39.22,50.83,39.22Z" style="fill:#662a37"/><path d="M64,77.88s-.1-6.1-.34-6.63c-.47-2.13.37-3.1-2.92-5.15l-1.82-.59s0,0,0,0c-.69-.22-1.54-.5-2.43-.81l-1-.35c-.88-.31-1.75-.62-2.55-.93-.55-.21-1.08-.41-1.53-.6s-.71-.32-1-.46a2.81,2.81,0,0,1-.6-.39l-.07-.09-.08-.1a21.39,21.39,0,0,1-1.34-3.6h0a6.06,6.06,0,0,1-.13-1c0-.49,0-1,0-1.43s0-.87,0-1.21V54.2c0-.24,0-.44,0-.6s0-.24,0-.24.36-.3.88-.76,1.56-1.41,2.36-2.21A9.34,9.34,0,0,0,53,48.28a1.31,1.31,0,0,0,0-.15H53c-.4.06-2.58.44-4.92.81-1.39.21-2.84.43-4,.58l-1.27.14h0a7.27,7.27,0,0,1-.85,0c-.24,0-.57,0-1,0h0l-1.33-.16c-1.09-.14-2.39-.33-3.66-.52l-3.2-.52-.58-.1-1.4-.24a1.63,1.63,0,0,0,.4.74s0,0,0,0c.19.25.45.54.75.87s.61.62.94.94c1,1,2.08,1.93,2.61,2.39l.32.27s0,.09,0,.24,0,.36,0,.6v.29a1.51,1.51,0,0,1,0,.3c0,.66,0,1.48-.06,2.34a5.18,5.18,0,0,1-.13,1,20.73,20.73,0,0,1-1.34,3.61.86.86,0,0,1-.07.1l-.08.09a.9.9,0,0,1-.25.18,8.49,8.49,0,0,1-1,.53c-.37.17-.81.35-1.29.53-1.12.44-2.47.92-3.75,1.35a2,2,0,0,1-.26.09l-2.59.88h0l-1.81.59c-3.26,2-2.46,3-2.92,5.11h0v0a1.27,1.27,0,0,0,0,.15h0c-.21,1.1-.3,6.47-.3,6.47,0,.32,0,.66,0,1H64C64,78.54,64,78.2,64,77.88Z" style="fill:#fbd2c5"/><path d="M48.26,58.15a5,5,0,0,1-.13-1c0-1.13-.06-2.22-.07-2.93a14.19,14.19,0,0,1-5.76,1.34,2.42,2.42,0,0,1-.39,0,2.48,2.48,0,0,1-.39,0,14.15,14.15,0,0,1-5.75-1.34c0,.71,0,1.8-.08,2.93a5.8,5.8,0,0,1-.12,1c1.83,1.53,4.31,3.11,6,3.11a2,2,0,0,0,.35,0H42a1.94,1.94,0,0,0,.35,0C44,61.26,46.42,59.68,48.26,58.15Z" style="fill:#d29f97"/><path d="M58.2,35.44c.31-1.75.56-3.09.64-3.35s.06-.26.1-.38.06-.29.09-.43.1-.43.15-.65,0-.2,0-.3.09-.48.12-.72,0-.22,0-.32,0-.43.08-.64a3.54,3.54,0,0,1,.05-.48c0-.14,0-.28,0-.42A15.1,15.1,0,0,0,56.84,18c-2.62-3.66-5.63-7.55-12.17-8.09H39.15C32.61,10.48,29.61,14.37,27,18a15,15,0,0,0-2.71,9.72c0,.14,0,.28,0,.42s0,.31.06.48,0,.43.07.64,0,.22,0,.32.09.48.13.72,0,.2,0,.3.08.43.15.65.06.27.09.43.06.25.1.38.32,1.59.63,3.32c-1.74-.85-4.16.37-3.87,3.58s4.26,5.2,5.61,5.53c.14.59.25,1,.33,1.24,1.19,3,2.64,3.89,5.17,6.34,2.75,2.64,6.83,5.12,8.84,5.11h.43c2,0,6.08-2.47,8.84-5.11,2.53-2.45,4-3.34,5.16-6.34a12.67,12.67,0,0,0,.33-1.23c1.31-.3,5.36-2.24,5.66-5.54S59.94,34.54,58.2,35.44Z" style="fill:#fbd2c5"/><path d="M60.85,37.24a1.91,1.91,0,0,0-2.91-.58,1.65,1.65,0,0,0-.48,1.82c.13.53.69.58.54,1.39A1.44,1.44,0,0,1,57.19,41a1.78,1.78,0,0,0-.69.74,1.93,1.93,0,0,0-.1,1.13c.15.65,1.1.15,1.74-.14a12.62,12.62,0,0,0,2.1-1.67,3.66,3.66,0,0,0,.61-3.85" style="fill:#e9b7ac"/><path d="M23,37.24a1.91,1.91,0,0,1,2.91-.58,1.65,1.65,0,0,1,.48,1.82c-.13.53-.69.58-.54,1.39A1.4,1.4,0,0,0,26.68,41a1.78,1.78,0,0,1,.69.74,2,2,0,0,1,.1,1.13c-.15.65-1.1.15-1.74-.14a12.62,12.62,0,0,1-2.1-1.67A3.62,3.62,0,0,1,23,37.24" style="fill:#e9b7ac"/><path d="M28.1,44.73A1.09,1.09,0,1,1,27,43.64,1.09,1.09,0,0,1,28.1,44.73Z" style="fill:#353839"/><rect x="34.64" y="69.7" width="14.14" height="9.17" style="fill:#00b5dd"/><path d="M33.37,58.8c-1.15,3.35-5.59,5.36-6.27,5.64l-.16.06c-.09,0-.18.06-.27.09-1,.33-1.94.63-2.71.87h0l-1.89.6c-3.4,2-2.57,3-3,5.13h0v0a.71.71,0,0,0,0,.16h0A13.33,13.33,0,0,0,18.82,73H25.1a25.48,25.48,0,0,0-1.29,5.93H39.72V65.19A6.39,6.39,0,0,0,33.37,58.8Z" style="fill:#341215"/><path d="M50.44,58.8c1.16,3.35,5.6,5.36,6.27,5.64l.16.06.28.09c1,.33,1.94.63,2.7.87h0l1.88.6c3.41,2,2.58,3,3,5.13h0v0a.4.4,0,0,1,0,.16h0A13.33,13.33,0,0,1,65,73H58.72A26,26,0,0,1,60,78.88H44.1V65.19A6.38,6.38,0,0,1,50.44,58.8Z" style="fill:#341215"/><path d="M57.45,44.71a1.09,1.09,0,1,1-2.18,0,1.09,1.09,0,1,1,2.18,0Z" style="fill:#353839"/><path d="M59.3,35.24a4.14,4.14,0,0,0-1,1.52c-.55,1.46-.76,1.21-.76,1.21s.87-5.74.87-7.33-5-13.39-7.77-14.34-5.3,2.24-8.3,2.24h-.23c-2.94-.06-5.55-3.16-8.3-2.24S26,29.05,26,30.64s.87,7.33.87,7.33-.21.25-.76-1.21c-.32-.86-1-1.21-1.23-1.69C19.35,23.24,24.57,7.5,42.05,7.5h.1C64,7.21,60.07,25.3,59.3,35.24" style="fill:#662a37"/><path d="M36.36,40a3.12,3.12,0,1,1-5-3.69,3.24,3.24,0,0,1,3.52-.85C36.59,36.05,37.89,37.9,36.36,40Z" style="fill:#3a2018;fill-rule:evenodd"/><path d="M53.73,33.49a.34.34,0,0,1,.42.22.33.33,0,0,1-.22.42,5.81,5.81,0,0,1-2.86.15A5.2,5.2,0,0,1,48.62,33a.33.33,0,1,1,.45-.49,4.44,4.44,0,0,0,2.13,1.11A5.1,5.1,0,0,0,53.73,33.49Z" style="fill:#3a2018;fill-rule:evenodd"/><path d="M35.74,36.53a1,1,0,1,0,.58,1.33A1,1,0,0,0,35.74,36.53Z" style="fill:#fff;fill-rule:evenodd"/><path d="M31.87,33.8a.34.34,0,0,1-.42-.22.33.33,0,0,1,.21-.42,4.2,4.2,0,0,1,3.13,0,5.88,5.88,0,0,1,2.25,2,.33.33,0,0,1-.06.47.34.34,0,0,1-.47-.06,5.32,5.32,0,0,0-2-1.76A3.6,3.6,0,0,0,31.87,33.8Z" style="fill:#3a2018;fill-rule:evenodd"/><path d="M48.07,39.41A3.12,3.12,0,1,0,53.81,37a3.24,3.24,0,0,0-3.24-1.62C48.73,35.51,47.05,37,48.07,39.41Z" style="fill:#3a2018;fill-rule:evenodd"/><path d="M52.68,36.53a1,1,0,1,0,.58,1.33A1,1,0,0,0,52.68,36.53Z" style="fill:#fff;fill-rule:evenodd"/><path d="M45.86,41.7c-3.27-2.28-4.63,1.33-7,.75-1.52-.35-2.13,2.27-.59,3,1.86.89,3-.83,4.16-.46C46.6,46.33,48.37,43.47,45.86,41.7Z" style="fill:#3a2018;fill-rule:evenodd"/><path d="M38.61,45.08c1.42-2.66,5.51-2.49,7.37-.55a3.47,3.47,0,0,1-2.26.33,5.11,5.11,0,0,0-2.64-.22C40.48,44.84,39.22,45.62,38.61,45.08Z" style="fill:#cb4f41;fill-rule:evenodd"/></g></g></svg>