<svg xmlns="http://www.w3.org/2000/svg" viewBox="0 0 78.88 78.88"><title>Asset 52</title><g id="Layer_2" data-name="Layer 2"><g id="Layer_2-2" data-name="Layer 2"><rect width="78.88" height="78.88" style="fill:#6394a4"/><path d="M56.08,51.83a11.4,11.4,0,0,0,4.06.35.59.59,0,0,1,0-.13c-9-.87-2-12.86-8-16.1l-5.94,8c.3,2.07-.26,4.19-.34,6.17l-3.76-1.67-7.64,2.91c.22-2.33-.67-4.9-.31-7.41l-5.93-8c-5.88,3.19.74,14.89-7.65,16.06a1.09,1.09,0,0,1,0,.18,10.6,10.6,0,0,0,3.68-.36c-6.15,1.9-4.11,6.75-2.5,10.54-.57-2.9,1.55-4.21,4-5.45L40,63.29l13.67-6.84c2.81,1.41,5.59,2.66,4.94,5.92C60.19,58.58,62.23,53.73,56.08,51.83Z" style="fill:#b44e6b"/><path d="M40.5,70.44c2.89,0,6.12-1.8,9.33-7.33l-.27-.1c-.38-.17-.71-.32-1-.46l-.07,0a3.36,3.36,0,0,1-.64-.36l-.07-.09-.08-.1a20.49,20.49,0,0,1-1.32-3.56h0a4.9,4.9,0,0,1-.13-1c0-.48,0-1,0-1.41s0-.86,0-1.2v-.28c0-.24,0-.44,0-.59s0-.24,0-.24l.86-.75c.64-.57,1.55-1.4,2.34-2.18a9.46,9.46,0,0,0,1.75-2.09,1,1,0,0,0,0-.15l-.06,0c-.4.06-2.55.43-4.86.79-1.37.22-2.81.43-4,.58L41,50.05h0c-.34,0-.63.05-.84.05s-.56,0-.95-.05h0l-1.31-.17c-1.08-.13-2.36-.32-3.61-.51l-3.16-.51c-.21,0-.4-.06-.57-.1l-1.39-.24a1.54,1.54,0,0,0,.4.74,0,0,0,0,0,0,0,11.3,11.3,0,0,0,.74.86c.29.3.6.62.92.93,1,1,2.06,1.91,2.59,2.36l.31.27s0,.09,0,.24,0,.35,0,.59v.28c0,.1,0,.2,0,.3,0,.65,0,1.46-.06,2.31a4.9,4.9,0,0,1-.13,1A20.72,20.72,0,0,1,32.56,62a.86.86,0,0,1-.07.1l-.08.09a2.11,2.11,0,0,1-.24.18,6.6,6.6,0,0,1-.88.52l-.78.33C31.72,65.05,35.62,70.39,40.5,70.44Z" style="fill:#fbd2c5"/><path d="M46.42,58.41a4.81,4.81,0,0,1-.13-1c0-1.12-.06-2.19-.07-2.89a14.16,14.16,0,0,1-5.68,1.32,2.48,2.48,0,0,1-.39,0,2.3,2.3,0,0,1-.38,0,14.09,14.09,0,0,1-5.68-1.32c0,.7,0,1.77-.08,2.89a5.58,5.58,0,0,1-.12,1c1.81,1.51,4.26,3.07,5.88,3.07a1.79,1.79,0,0,0,.34,0h.08a1.9,1.9,0,0,0,.35,0C42.16,61.48,44.61,59.92,46.42,58.41Z" style="fill:#d29f97"/><path d="M56.22,36c.32-1.73.56-3,.64-3.31s.06-.25.1-.38S57,32,57,31.89s.1-.43.15-.64,0-.2.05-.3.09-.47.13-.71,0-.21,0-.31.05-.42.07-.64,0-.32.05-.47,0-.28,0-.41a14.9,14.9,0,0,0-2.68-9.59c-2.58-3.62-5.55-7.46-12-8H37.43c-6.46.53-9.43,4.37-12,8a14.83,14.83,0,0,0-2.67,9.59c0,.13,0,.27,0,.41a3.56,3.56,0,0,1,.05.47c0,.22,0,.43.08.64l0,.31c0,.24.09.48.13.71s0,.2.05.3.09.43.15.64.06.27.09.42.06.25.1.38.31,1.57.62,3.28c-1.72-.84-4.11.37-3.83,3.54s4.21,5.13,5.55,5.45a8.6,8.6,0,0,0,.33,1.23c1.17,3,2.59,3.84,5.09,6.25,2.72,2.61,6.74,5.06,8.73,5.05h.42c2,0,6-2.44,8.73-5.05,2.5-2.41,3.92-3.3,5.09-6.25A8.76,8.76,0,0,0,54.51,45c1.29-.29,5.29-2.21,5.59-5.46S58,35.11,56.22,36Z" style="fill:#fbd2c5"/><path d="M58.84,37.77A1.89,1.89,0,0,0,56,37.2a1.64,1.64,0,0,0-.48,1.8c.13.53.69.57.54,1.37a1.41,1.41,0,0,1-.8,1.15,1.73,1.73,0,0,0-.68.73,2,2,0,0,0-.1,1.11c.15.65,1.09.15,1.72-.13a12.81,12.81,0,0,0,2.07-1.65,3.58,3.58,0,0,0,.6-3.81" style="fill:#e9b7ac"/><path d="M21.5,37.77a1.89,1.89,0,0,1,2.87-.57,1.64,1.64,0,0,1,.48,1.8c-.13.53-.68.57-.54,1.37a1.42,1.42,0,0,0,.81,1.15,1.79,1.79,0,0,1,.68.73,2,2,0,0,1,.1,1.11c-.15.65-1.1.15-1.72-.13a12.88,12.88,0,0,1-2.08-1.65,3.6,3.6,0,0,1-.6-3.81" style="fill:#e9b7ac"/><path d="M27.26,64.37l-1.05.36c-.09,0-.18.06-.27.09l-2.56.86h0c-1.05.35-1.76.57-1.78.59-3.23,2-2.44,3-2.89,5h0v0a1.27,1.27,0,0,0,0,.15h0c-.21,1.09-.3,6.38-.3,6.38v1h4.43c.09-1,.23-2.53.37-3.34C23.73,72,26.93,71,27.26,64.37Z" style="fill:#fbd2c5"/><path d="M57.55,78.88h4.39c0-.34,0-.67,0-1,0,0-.1-6-.34-6.54-.46-2.1.36-3.06-2.88-5.08,0,0-.74-.24-1.8-.59h0l-2.39-.8-1-.35-.37-.14C53.42,71,56.61,72,57.18,75.54,57.32,76.35,57.46,77.85,57.55,78.88Z" style="fill:#fbd2c5"/><path d="M30.51,63.2l-.49.19H29.9c-.52.21-1.11.42-1.7.64l-.94.34C26.93,71,23.73,72,23.16,75.54c-.14.81-.28,2.31-.37,3.34h1.92l10.5-10.5A21.24,21.24,0,0,1,30.51,63.2Z" style="fill:#ec297b"/><path d="M40.5,70.44a9,9,0,0,1-5.29-2.06l-10.5,10.5h7.83L41,70.43Z" style="fill:#f05a28"/><path d="M57.18,75.54a9.52,9.52,0,0,0-1.73-3.79l-7.13,7.13h9.23C57.46,77.85,57.32,76.35,57.18,75.54Z" style="fill:#f07068"/><path d="M53.09,64.38l-.94-.33L51,63.63l0,0-1.24-.49c-3,5.22-6.08,7.15-8.84,7.32l-8.45,8.45h7.77L53.24,66C53.17,65.46,53.12,65,53.09,64.38Z" style="fill:#faaf40"/><path d="M53.24,66,40.31,78.88h8l7.13-7.13A13.12,13.12,0,0,1,53.24,66Z" style="fill:#994341"/><path d="M54.1,12.1a26.56,26.56,0,0,0-9.39-6.37l1.55,1.55a16.49,16.49,0,0,0-5.33-2.74,8.27,8.27,0,0,0-6.47.15,5.37,5.37,0,0,1,3.06.78c-1-.45-2.7-.61-5.55.64-5.58,2.45-5.48,6.85-9.36,8.2s-5.13-.39-5.13-.39S19.2,17,22.27,17c.49,0,.54,0,.54,0a31.84,31.84,0,0,0-1.37,5.82c-.22,2.54.48,4.28.7,9,.18,4.06,1.19,2,2.39,5A6.73,6.73,0,0,1,25,39c.44.12,1.61-2.43.77-6.87-.55-2.88,2.15-13.8,8.66-11.68a12,12,0,0,1,1.67.7c-6.21,6.6-2.36,16-2.36,16-.15-7.94,6.14-13.25,8.09-14.69.18-.12.37-.25.57-.41A11.63,11.63,0,0,1,46,20.08a11.44,11.44,0,0,1,1,6.65,13.39,13.39,0,0,0,1.61-6.82c1.58,1.79,4.39,5.74,3.6,10.59a13.21,13.21,0,0,0,1.59-7.2,15.35,15.35,0,0,1,1.15,8.12c-.6,7.35.52,7.3.52,7.3.33,0,0-2,1.09-3.31s2.82-5.9,2.82-10.44S57.89,16.4,54.1,12.1Z" style="fill:#b44e6b"/><path d="M35.9,47.71a2,2,0,1,1,.93-3.91,13.52,13.52,0,0,0,3.66.34,13.81,13.81,0,0,0,3.62-.65,2,2,0,0,1,1.59,3.68c-1.24.67.9,2.36-.6,2.66-2.1.44-.1-2.31-1.81-2a18.23,18.23,0,0,1-2.62.31A17.91,17.91,0,0,1,35.9,47.71Z" style="fill:#fff;fill-rule:evenodd"/><path d="M35.83,48A2.34,2.34,0,0,1,34.38,47a2.33,2.33,0,0,1,2.53-3.48h0a10.42,10.42,0,0,0,1.72.28,13.06,13.06,0,0,0,3.61-.15A12.33,12.33,0,0,0,44,43.18a2.37,2.37,0,0,1,1.78.14A2.35,2.35,0,0,1,47,44.68a2.34,2.34,0,0,1-1.1,2.77c-.37.2-.21.63-.06,1v0A4.48,4.48,0,0,1,46,49c.11.53,0,.95-.79,1.12-1,.19-1.3-.15-1.4-.68a2.7,2.7,0,0,1,0-.7,2,2,0,0,0,0-.5c0-.1-.1-.16-.37-.11q-.68.14-1.32.21c-.46.05-.91.09-1.35.1a17.66,17.66,0,0,1-2.46-.06A17,17,0,0,1,35.83,48Zm-.9-1.38a1.69,1.69,0,0,0,1,.76h0a15.83,15.83,0,0,0,2.3.38,20,20,0,0,0,2.38.06c.41,0,.84-.05,1.29-.11s.85-.11,1.28-.2c.76-.14,1,.15,1.12.62a2.78,2.78,0,0,1,0,.65,2.46,2.46,0,0,0,0,.55c0,.16.18.27.66.17.28-.06.32-.2.28-.37a2.51,2.51,0,0,0-.13-.43h0c-.23-.66-.48-1.36.36-1.82A1.69,1.69,0,0,0,46.3,46a1.65,1.65,0,0,0,0-1.14,1.69,1.69,0,0,0-.84-1,1.74,1.74,0,0,0-1.29-.1,15.31,15.31,0,0,1-1.83.46,13.8,13.8,0,0,1-3.78.16,12.52,12.52,0,0,1-1.81-.3h0a1.72,1.72,0,0,0-1.28.2,1.71,1.71,0,0,0-.55,2.33Z" style="fill:#3a2018;fill-rule:evenodd"/><path d="M32,42S29,41.16,28,39.3c-1.25-2.43,1.06-2.78,2.95-2,2.37-2.89,5.57-1.81,4.19,1A14.25,14.25,0,0,1,32,42Z" style="fill:#cb4f41;fill-rule:evenodd"/><path d="M49.23,41.76c.83-.65,2.9-1.73,3.4-2.85,1.12-2.47-1-3.11-3-1.93-2.7-2.58-5-.61-3.33,2A10.37,10.37,0,0,0,49.23,41.76Z" style="fill:#cb4f41;fill-rule:evenodd"/><path d="M31.87,42.34s-3.09-.91-4.11-2.89A2.78,2.78,0,0,1,27.37,38a1.31,1.31,0,0,1,.49-1,2,2,0,0,1,1-.38,4.54,4.54,0,0,1,2,.32,4.34,4.34,0,0,1,3-1.64,2.13,2.13,0,0,1,1.09.22,1.63,1.63,0,0,1,.73.76,2.53,2.53,0,0,1-.2,2.17,14.64,14.64,0,0,1-3.31,3.81.31.31,0,0,1-.29.06Zm-3.55-3.19c.77,1.49,3,2.32,3.57,2.52a13.36,13.36,0,0,0,3-3.48,1.89,1.89,0,0,0,.19-1.62,1,1,0,0,0-.44-.47,1.56,1.56,0,0,0-.77-.15,3.87,3.87,0,0,0-2.64,1.59h0a.32.32,0,0,1-.38.09,4.09,4.09,0,0,0-1.93-.35,1.27,1.27,0,0,0-.67.24A.63.63,0,0,0,28,38,2.24,2.24,0,0,0,28.32,39.15Z" style="fill:#3a2018;fill-rule:evenodd"/><path d="M49.22,41.37c.19-.14.43-.3.68-.46a7.23,7.23,0,0,0,2.44-2.13,2.31,2.31,0,0,0,.27-1.31.82.82,0,0,0-.31-.53,1.33,1.33,0,0,0-.67-.21,3.48,3.48,0,0,0-1.85.53.32.32,0,0,1-.38,0,3.23,3.23,0,0,0-2.32-1.11,1.2,1.2,0,0,0-.64.23,1.13,1.13,0,0,0-.35.54,2.41,2.41,0,0,0,.47,2,9.59,9.59,0,0,0,2.66,2.55Zm1,.07c-.31.21-.6.4-.81.56a.33.33,0,0,1-.38,0,10.49,10.49,0,0,1-3-2.87,3,3,0,0,1-.55-2.47,1.7,1.7,0,0,1,.57-.86,1.81,1.81,0,0,1,1-.37,3.69,3.69,0,0,1,2.63,1.13,3.93,3.93,0,0,1,2-.5,1.86,1.86,0,0,1,1,.35,1.4,1.4,0,0,1,.56.92A3,3,0,0,1,52.93,39,7.6,7.6,0,0,1,50.25,41.44Z" style="fill:#3a2018;fill-rule:evenodd"/><path d="M39.79,40.84a.16.16,0,0,1-.23,0,.16.16,0,0,1,0-.22,6.66,6.66,0,0,1,1.11-.79,13.34,13.34,0,0,1,1.19-.61.15.15,0,0,1,.21.07.17.17,0,0,1-.08.22c-.4.19-.79.37-1.16.59A6.81,6.81,0,0,0,39.79,40.84Z" style="fill:#dc98ab;fill-rule:evenodd"/><path d="M41.86,40.74a.17.17,0,0,1-.23,0,.16.16,0,0,1,0-.23,7.08,7.08,0,0,1,.93-.64,5.92,5.92,0,0,1,1-.45.18.18,0,0,1,.21.1.17.17,0,0,1-.1.21,5,5,0,0,0-.91.42A5.39,5.39,0,0,0,41.86,40.74Z" style="fill:#dc98ab;fill-rule:evenodd"/><path d="M37.65,40.8a.17.17,0,0,1-.22,0,.16.16,0,0,1,0-.23,7.08,7.08,0,0,1,.93-.64,5.92,5.92,0,0,1,1-.45.16.16,0,1,1,.11.31,5,5,0,0,0-.91.42A6,6,0,0,0,37.65,40.8Z" style="fill:#dc98ab;fill-rule:evenodd"/></g></g></svg>