<svg xmlns="http://www.w3.org/2000/svg" viewBox="0 0 78.88 78.88"><title>Asset 50</title><g id="Layer_2" data-name="Layer 2"><g id="Layer_2-2" data-name="Layer 2"><rect width="78.88" height="78.88" style="fill:#d6868d"/><path d="M25.54,39.38s2.58,7.4,0,14.47a4.87,4.87,0,0,0,4.54,6.57H48.65A4.78,4.78,0,0,0,53.13,54c-1.7-4.51-2.85-10.44.38-14.58Z" style="fill:#46423e"/><path d="M61.29,77.89s-.1-6-.34-6.54c-.46-2.1.36-3.06-2.88-5.08,0,0-.74-.24-1.8-.59h0l-2.39-.8-1-.35c-.86-.31-1.72-.62-2.51-.92L48.8,63c-.38-.17-.7-.32-1-.46a2.62,2.62,0,0,1-.59-.38l-.07-.09-.08-.1a20.49,20.49,0,0,1-1.32-3.56h0a5.71,5.71,0,0,1-.13-1c0-.48,0-1,0-1.41s0-.86,0-1.2v-.28c0-.24,0-.44,0-.59a2,2,0,0,1,0-.24l.87-.75c.63-.57,1.54-1.4,2.33-2.18a9.18,9.18,0,0,0,1.75-2.09,1,1,0,0,0,0-.15l-.06,0c-.4.06-2.55.43-4.86.79-1.37.22-2.81.43-4,.58l-1.25.14h0c-.34,0-.62.05-.84.05s-.56,0-.95-.05h0l-1.31-.17c-1.08-.13-2.36-.32-3.61-.51l-3.16-.51c-.21,0-.4-.06-.57-.1l-1.39-.24a1.54,1.54,0,0,0,.4.74,0,0,0,0,0,0,0,11.3,11.3,0,0,0,.74.86c.29.3.6.62.92.93,1,1,2.06,1.91,2.59,2.36l.31.27s0,.09,0,.24,0,.35,0,.59v.28c0,.1,0,.2,0,.3,0,.65,0,1.46-.06,2.31a5.69,5.69,0,0,1-.12,1A21.35,21.35,0,0,1,31.92,62a.86.86,0,0,1-.07.1l-.08.09a2.11,2.11,0,0,1-.24.18,9.31,9.31,0,0,1-1,.52l-1.27.52c-1.11.44-2.44.91-3.7,1.34-.09,0-.18.06-.27.09l-2.55.86h0c-1.05.35-1.76.57-1.78.59-3.22,2-2.44,3-2.89,5h0v0a.61.61,0,0,0,0,.15h0c-.22,1.09-.3,6.38-.3,6.38,0,.32,0,.65,0,1H61.3C61.3,78.54,61.3,78.21,61.29,77.89Z" style="fill:#fbd2c5"/><path d="M45.78,58.41a4.81,4.81,0,0,1-.13-1c0-1.12-.06-2.19-.07-2.89a14.16,14.16,0,0,1-5.68,1.32,2.48,2.48,0,0,1-.39,0,2.36,2.36,0,0,1-.38,0,14.09,14.09,0,0,1-5.68-1.32c0,.7,0,1.77-.08,2.89a5.58,5.58,0,0,1-.12,1c1.81,1.51,4.26,3.07,5.88,3.07a1.87,1.87,0,0,0,.34,0h.08a1.9,1.9,0,0,0,.35,0C41.52,61.48,44,59.92,45.78,58.41Z" style="fill:#d29f97"/><path d="M55.59,36c.31-1.73.55-3,.63-3.31s.06-.25.1-.38.06-.28.09-.42.09-.43.14-.64l.06-.3c0-.23.08-.47.12-.71s0-.21,0-.31,0-.42.07-.64,0-.32,0-.47,0-.28,0-.41a15,15,0,0,0-2.67-9.59c-2.59-3.62-5.56-7.46-12-8H36.79c-6.46.53-9.43,4.37-12,8a14.83,14.83,0,0,0-2.67,9.59c0,.13,0,.27,0,.41a3.56,3.56,0,0,1,.05.47c0,.22,0,.43.08.64l0,.31c0,.24.09.48.13.71s0,.2,0,.3.09.43.15.64.06.27.09.42.06.25.1.38.31,1.57.62,3.28c-1.72-.84-4.11.37-3.82,3.54s4.2,5.13,5.54,5.45a10.24,10.24,0,0,0,.33,1.23c1.17,3,2.59,3.84,5.09,6.25,2.72,2.61,6.74,5.06,8.73,5.05h.43c2,0,6-2.44,8.72-5.05,2.5-2.41,3.92-3.3,5.1-6.25A11.1,11.1,0,0,0,53.87,45c1.3-.29,5.3-2.21,5.59-5.46S57.31,35.11,55.59,36Z" style="fill:#fbd2c5"/><path d="M58.2,37.77a1.89,1.89,0,0,0-2.87-.57,1.62,1.62,0,0,0-.47,1.8c.12.53.68.57.53,1.37a1.41,1.41,0,0,1-.8,1.15,1.73,1.73,0,0,0-.68.73,2,2,0,0,0-.1,1.11c.15.65,1.09.15,1.72-.13a12.81,12.81,0,0,0,2.07-1.65,3.58,3.58,0,0,0,.6-3.81" style="fill:#e9b7ac"/><path d="M20.86,37.77a1.89,1.89,0,0,1,2.87-.57,1.64,1.64,0,0,1,.48,1.8c-.13.53-.68.57-.54,1.37a1.42,1.42,0,0,0,.81,1.15,1.79,1.79,0,0,1,.68.73,2,2,0,0,1,.1,1.11c-.15.65-1.09.15-1.72-.13a12.88,12.88,0,0,1-2.08-1.65,3.6,3.6,0,0,1-.6-3.81" style="fill:#e9b7ac"/><path d="M25.65,30.27h0v0Z" style="fill:#46423e"/><path d="M33.94,60.88a1.06,1.06,0,1,1-1.06-1A1,1,0,0,1,33.94,60.88Z" style="fill:#fff"/><path d="M35,62.62a1.06,1.06,0,1,1-1.06-1A1,1,0,0,1,35,62.62Z" style="fill:#36aeaf"/><path d="M36.24,64.23a1.06,1.06,0,1,1-1.06-1A1,1,0,0,1,36.24,64.23Z" style="fill:#fff"/><path d="M37.85,65.53a1.06,1.06,0,1,1-1.06-1A1,1,0,0,1,37.85,65.53Z" style="fill:#36aeaf"/><path d="M39.83,66.27a1.06,1.06,0,1,1-1.06-1A1,1,0,0,1,39.83,66.27Z" style="fill:#fff"/><path d="M40.89,64.89a1,1,0,1,1-1.06,1A1,1,0,0,1,40.89,64.89Z" style="fill:#36aeaf"/><path d="M42.73,63.92a1,1,0,1,1-1.06,1A1,1,0,0,1,42.73,63.92Z" style="fill:#fff"/><path d="M44.42,62.7a1,1,0,1,1-1.06,1A1,1,0,0,1,44.42,62.7Z" style="fill:#36aeaf"/><path d="M45.79,61.18a1,1,0,1,1-1.06,1A1,1,0,0,1,45.79,61.18Z" style="fill:#fff"/><path d="M46.58,59.3a1,1,0,1,1-1.06,1A1,1,0,0,1,46.58,59.3Z" style="fill:#36aeaf"/><path d="M55.39,15a9.79,9.79,0,0,0-3.71-2.08S47.09,10.59,43.6,9s-9.17-.33-12.12.44S25,14.34,23.93,16.64s-3.81,7.27-4.68,10.87,2.06,7.1,3.89,7.85c1.19.48,1.27,3.28,1.27,3.28l1.3.58A10.26,10.26,0,0,1,25,35.29C25.11,34,24.89,30,24.89,30s6.59-1.3,10.74-2.51a29.69,29.69,0,0,0,10.52-5.63,12.86,12.86,0,0,1,4.67,2.32c2.07,1.54,4.61,3.66,4.61,8.25,0,1.54-.69,6-.69,6l.69-.48a3.48,3.48,0,0,1,2-2.82c1.56-.86,2-3.81,2-5C59.35,22,57,16.49,55.39,15Z" style="fill:#46423e"/><path d="M37.48,39.81c0,.06,0,.12,0,.17a1.19,1.19,0,0,1,.09-.15Z" style="fill:#0e151a;opacity:0.4"/><path d="M37.48,39.81c0,.06,0,.12,0,.17a1.19,1.19,0,0,1,.09-.15Z" style="fill:#e8e9e7;opacity:0.55"/><path d="M42.66,41.32c.09.13.19.25.28.37-.09-.13-.18-.25-.26-.38Z" style="fill:#0e151a;opacity:0.4"/><path d="M42.66,41.32c.09.13.19.25.28.37-.09-.13-.18-.25-.26-.38Z" style="fill:#e8e9e7;opacity:0.55"/><path d="M61.38,71.11C60.91,69,61.74,68,58.5,65.9l0,0-1.83-.61h0l-2.43-.83c-.35-.11-.69-.24-1-.36L52.81,64c-.41-.14-.81-.29-1.2-.44l-1.6.63c0,.16,0,.33,0,.65,0,6.79-4.62,6.56-10.31,6.56s-10.32.23-10.32-6.56c0-.27,0-.55,0-.82L28,63.41l-1.29.47-1.17.41c-.09,0-.18.07-.27.09-.95.34-1.86.65-2.59.89h0l-1.81.61-.12.08c-3.11,2-2.35,3-2.8,5.12h0v0a.71.71,0,0,0,0,.16h0c-.07.36-.61,4-.65,4.86l6.39.08v2.66h32.5V76.22h5.5C61.54,75.11,61.47,71.31,61.38,71.11Z" style="fill:#36aeaf"/><path d="M34.24,41a3.14,3.14,0,1,1-5.07-3.71l3.54-.86C34.47,37,35.78,38.9,34.24,41Z" style="fill:#3a2018;fill-rule:evenodd"/><path d="M33.61,37.52a1,1,0,1,0,.59,1.33A1,1,0,0,0,33.61,37.52Z" style="fill:#fff;fill-rule:evenodd"/><path d="M33.18,34.91a.51.51,0,0,1,.74.69s-3,3.26-5.9,2a.49.49,0,0,1-.27-.65.5.5,0,0,1,.66-.27C30.68,37.65,33.17,34.92,33.18,34.91Z" style="fill:#3a2018;fill-rule:evenodd"/><path d="M30.3,42.22c3.07.09,3,2.13-.06,2S27.23,42.13,30.3,42.22Z" style="fill:#dc98ab;fill-rule:evenodd"/><path d="M49,42.22c-3.07.09-3,2.13.06,2S52.09,42.13,49,42.22Z" style="fill:#dc98ab;fill-rule:evenodd"/><path d="M44.63,41A3.14,3.14,0,1,0,49.7,37.3l-3.54-.86C44.4,37,43.09,38.9,44.63,41Z" style="fill:#3a2018;fill-rule:evenodd"/><path d="M45.26,37.52a1,1,0,1,1-.59,1.33A1,1,0,0,1,45.26,37.52Z" style="fill:#fff;fill-rule:evenodd"/><path d="M45,35.56a.5.5,0,0,1,.75-.67s2.46,2.77,4.75,1.82a.49.49,0,0,1,.65.27.5.5,0,0,1-.27.66C47.9,38.86,45,35.57,45,35.56Z" style="fill:#3a2018;fill-rule:evenodd"/><path d="M43,43.39c-.19-.31-5.64-1.4-6.93.15-1.15,1.39-.23,4.45,1.48,3.3a14,14,0,0,1,5-2A.8.8,0,0,0,43,43.39Z" style="fill:#3a2018;fill-rule:evenodd"/><path d="M39.92,47.1a.25.25,0,0,1-.39-.31A1.32,1.32,0,0,1,41,46.31a.24.24,0,0,1,.15.32.24.24,0,0,1-.32.15A.84.84,0,0,0,39.92,47.1Z" style="fill:#3a2018;fill-rule:evenodd"/><path d="M39.84,45.07c-1.11.23-2.81,1.66-3.15,1.4C35.52,45.56,37.22,43.68,39.84,45.07Z" style="fill:#cb4f41;fill-rule:evenodd"/></g></g></svg>