<svg xmlns="http://www.w3.org/2000/svg" viewBox="0 0 78.88 78.88"><title>Asset 54</title><g id="Layer_2" data-name="Layer 2"><g id="Layer_2-2" data-name="Layer 2"><rect width="78.88" height="78.88" style="fill:#6394a4"/><path d="M56.08,51.83a11.4,11.4,0,0,0,4.06.35.59.59,0,0,1,0-.13c-9-.87-2-12.86-8-16.1l-5.94,8c.3,2.07-.26,4.19-.34,6.17l-3.76-1.67-7.64,2.91c.22-2.33-.67-4.9-.31-7.41l-5.93-8c-5.88,3.19.74,14.89-7.65,16.06a1.09,1.09,0,0,1,0,.18,10.6,10.6,0,0,0,3.68-.36c-6.15,1.9-4.11,6.75-2.5,10.54-.57-2.9,1.55-4.21,4-5.45L40,63.29l13.67-6.84c2.81,1.41,5.59,2.66,4.94,5.92C60.19,58.58,62.23,53.73,56.08,51.83Z" style="fill:#652f8e"/><path d="M40.5,70.44c2.89,0,6.12-1.8,9.33-7.33l-.27-.1c-.38-.17-.71-.32-1-.46l-.07,0a3.36,3.36,0,0,1-.64-.36l-.07-.09-.08-.1a20.49,20.49,0,0,1-1.32-3.56h0a4.9,4.9,0,0,1-.13-1c0-.48,0-1,0-1.41s0-.86,0-1.2v-.28c0-.24,0-.44,0-.59s0-.24,0-.24l.86-.75c.64-.57,1.55-1.4,2.34-2.18a9.46,9.46,0,0,0,1.75-2.09,1,1,0,0,0,0-.15l-.06,0c-.4.06-2.55.43-4.86.79-1.37.22-2.81.43-4,.58L41,50.05h0c-.34,0-.63.05-.84.05s-.56,0-.95-.05h0l-1.31-.17c-1.08-.13-2.36-.32-3.61-.51l-3.16-.51c-.21,0-.4-.06-.57-.1l-1.39-.24a1.54,1.54,0,0,0,.4.74,0,0,0,0,0,0,0,11.3,11.3,0,0,0,.74.86c.29.3.6.62.92.93,1,1,2.06,1.91,2.59,2.36l.31.27s0,.09,0,.24,0,.35,0,.59v.28c0,.1,0,.2,0,.3,0,.65,0,1.46-.06,2.31a4.9,4.9,0,0,1-.13,1A20.72,20.72,0,0,1,32.56,62a.86.86,0,0,1-.07.1l-.08.09a2.11,2.11,0,0,1-.24.18,6.6,6.6,0,0,1-.88.52l-.78.33C31.72,65.05,35.62,70.39,40.5,70.44Z" style="fill:#fbd2c5"/><path d="M46.42,58.41a4.81,4.81,0,0,1-.13-1c0-1.12-.06-2.19-.07-2.89a14.16,14.16,0,0,1-5.68,1.32,2.48,2.48,0,0,1-.39,0,2.3,2.3,0,0,1-.38,0,14.09,14.09,0,0,1-5.68-1.32c0,.7,0,1.77-.08,2.89a5.58,5.58,0,0,1-.12,1c1.81,1.51,4.26,3.07,5.88,3.07a1.79,1.79,0,0,0,.34,0h.08a1.9,1.9,0,0,0,.35,0C42.16,61.48,44.61,59.92,46.42,58.41Z" style="fill:#d29f97"/><path d="M56.22,36c.32-1.73.56-3,.64-3.31s.06-.25.1-.38S57,32,57,31.89s.1-.43.15-.64,0-.2.05-.3.09-.47.13-.71,0-.21,0-.31.05-.42.07-.64,0-.32.05-.47,0-.28,0-.41a14.9,14.9,0,0,0-2.68-9.59c-2.58-3.62-5.55-7.46-12-8H37.43c-6.46.53-9.43,4.37-12,8a14.83,14.83,0,0,0-2.67,9.59c0,.13,0,.27,0,.41a3.56,3.56,0,0,1,.05.47c0,.22,0,.43.08.64l0,.31c0,.24.09.48.13.71s0,.2.05.3.09.43.15.64.06.27.09.42.06.25.1.38.31,1.57.62,3.28c-1.72-.84-4.11.37-3.83,3.54s4.21,5.13,5.55,5.45a8.6,8.6,0,0,0,.33,1.23c1.17,3,2.59,3.84,5.09,6.25,2.72,2.61,6.74,5.06,8.73,5.05h.42c2,0,6-2.44,8.73-5.05,2.5-2.41,3.92-3.3,5.09-6.25A8.76,8.76,0,0,0,54.51,45c1.29-.29,5.29-2.21,5.59-5.46S58,35.11,56.22,36Z" style="fill:#fbd2c5"/><path d="M58.84,37.77A1.89,1.89,0,0,0,56,37.2a1.64,1.64,0,0,0-.48,1.8c.13.53.69.57.54,1.37a1.41,1.41,0,0,1-.8,1.15,1.73,1.73,0,0,0-.68.73,2,2,0,0,0-.1,1.11c.15.65,1.09.15,1.72-.13a12.81,12.81,0,0,0,2.07-1.65,3.58,3.58,0,0,0,.6-3.81" style="fill:#e9b7ac"/><path d="M21.5,37.77a1.89,1.89,0,0,1,2.87-.57,1.64,1.64,0,0,1,.48,1.8c-.13.53-.68.57-.54,1.37a1.42,1.42,0,0,0,.81,1.15,1.79,1.79,0,0,1,.68.73,2,2,0,0,1,.1,1.11c-.15.65-1.1.15-1.72-.13a12.88,12.88,0,0,1-2.08-1.65,3.6,3.6,0,0,1-.6-3.81" style="fill:#e9b7ac"/><path d="M27.26,64.37l-1.05.36c-.09,0-.18.06-.27.09l-2.56.86h0c-1.05.35-1.76.57-1.78.59-3.23,2-2.44,3-2.89,5h0v0a1.27,1.27,0,0,0,0,.15h0c-.21,1.09-.3,6.38-.3,6.38v1h4.43c.09-1,.23-2.53.37-3.34C23.73,72,26.93,71,27.26,64.37Z" style="fill:#fbd2c5"/><path d="M57.55,78.88h4.39c0-.34,0-.67,0-1,0,0-.1-6-.34-6.54-.46-2.1.36-3.06-2.88-5.08,0,0-.74-.24-1.8-.59h0l-2.39-.8-1-.35-.37-.14C53.42,71,56.61,72,57.18,75.54,57.32,76.35,57.46,77.85,57.55,78.88Z" style="fill:#fbd2c5"/><path d="M30.51,63.2l-.49.19H29.9c-.52.21-1.11.42-1.7.64l-.94.34C26.93,71,23.73,72,23.16,75.54c-.14.81-.28,2.31-.37,3.34h1.92l10.5-10.5A21.24,21.24,0,0,1,30.51,63.2Z" style="fill:#46423e"/><path d="M40.5,70.44a9,9,0,0,1-5.29-2.06l-10.5,10.5h7.83L41,70.43Z" style="fill:#faa830"/><path d="M57.18,75.54a9.52,9.52,0,0,0-1.73-3.79l-7.13,7.13h9.23C57.46,77.85,57.32,76.35,57.18,75.54Z" style="fill:#46423e"/><path d="M53.09,64.38l-.94-.33L51,63.63l0,0-1.24-.49c-3,5.22-6.08,7.15-8.84,7.32l-8.45,8.45h7.77L53.24,66C53.17,65.46,53.12,65,53.09,64.38Z" style="fill:#46423e"/><path d="M53.24,66,40.31,78.88h8l7.13-7.13A13.12,13.12,0,0,1,53.24,66Z" style="fill:#faa830"/><path d="M55,40.05c.33,0,0-2,1.11-3.36s2.86-6,2.86-10.6S57.46,17.39,53.6,13a27,27,0,0,0-9.52-6.48l2.61,2.61S45.28,7,40.24,5.34a8.43,8.43,0,0,0-6.57.16s2.63-.1,3.43,1.15a4.41,4.41,0,0,0,.93.81s-1.22-3-6.89-.52-5.56,7-9.51,8.33-5.2-.4-5.2-.4S18.18,18,21.29,18c.6,0,.55,0,.55,0a31.55,31.55,0,0,0-1.39,5.91c-.22,2.58.49,4.34.71,9.16.19,4.13,1.21,2,2.43,5A7,7,0,0,1,24,40.31c.45.12,1.64-2.48.78-7-.55-2.93,2.19-14,8.8-11.86,4,1.33,5.06,4,8.08,1.63,2.61-2.06,6.25-3.25,9-1.62s4.25,5.3,3.78,11.15c-.61,7.47.53,7.42.53,7.42" style="fill:#652f8e"/><path d="M33.17,40.58a3.28,3.28,0,0,0,3.08-3H29.69A3.28,3.28,0,0,0,33.17,40.58Z" style="fill:#3a2018;fill-rule:evenodd"/><path d="M27.69,37.61a.32.32,0,0,1,0-.64h8.53a.32.32,0,0,1,0,.64Z" style="fill:#3a2018;fill-rule:evenodd"/><path d="M47.31,40.58a3.28,3.28,0,0,1-3.08-3h6.56A3.28,3.28,0,0,1,47.31,40.58Z" style="fill:#3a2018;fill-rule:evenodd"/><path d="M50.71,37a.32.32,0,0,1,0,.64H42.35a.32.32,0,0,1,0-.64Z" style="fill:#3a2018;fill-rule:evenodd"/><path d="M34.62,39.44A1,1,0,1,0,34,37.59a1,1,0,0,0,.62,1.85Z" style="fill:#fff;fill-rule:evenodd"/><path d="M48.62,39.44a1,1,0,1,1,.62-1.85,1,1,0,0,1-.62,1.85Z" style="fill:#fff;fill-rule:evenodd"/><path d="M38.55,44.39a.49.49,0,0,1-.35-.58.47.47,0,0,1,.58-.35s2.55.62,4.19-.66a.48.48,0,1,1,.59.75C41.55,45.12,38.56,44.39,38.55,44.39Z" style="fill:#3a2018;fill-rule:evenodd"/><path d="M29.09,33.64a.48.48,0,0,1-.6-.74,8,8,0,0,1,3.18-1.66,4.54,4.54,0,0,1,4.07,1,.47.47,0,0,1,.07.67.49.49,0,0,1-.68.06,3.64,3.64,0,0,0-3.25-.81A7.09,7.09,0,0,0,29.09,33.64Z" style="fill:#3a2018;fill-rule:evenodd"/><path d="M42.26,33.85a.47.47,0,0,1,0-.67.47.47,0,0,1,.67,0,1.25,1.25,0,0,0,1,.41,11.78,11.78,0,0,0,3-1.1,25.42,25.42,0,0,0,3.59-2.08.48.48,0,0,1,.67.12.47.47,0,0,1-.12.66,26.42,26.42,0,0,1-3.73,2.16A12.16,12.16,0,0,1,44,34.55a2.16,2.16,0,0,1-1-.14A2.4,2.4,0,0,1,42.26,33.85Z" style="fill:#3a2018;fill-rule:evenodd"/><path d="M30.28,43.44c-3.57,0-3.54-2.2,0-2.22S33.84,43.43,30.28,43.44Z" style="fill:#dc98ab;fill-rule:evenodd"/><path d="M50.27,43.44c3.56,0,3.53-2.2,0-2.22S46.71,43.43,50.27,43.44Z" style="fill:#dc98ab;fill-rule:evenodd"/></g></g></svg>