<svg xmlns="http://www.w3.org/2000/svg" viewBox="0 0 78.88 78.88"><title>Asset 53</title><g id="Layer_2" data-name="Layer 2"><g id="Layer_2-2" data-name="Layer 2"><rect width="78.88" height="78.88" style="fill:#a86a72"/><path d="M60.52,77.89s-.1-6-.33-6.54c-.47-2.1.36-3.06-2.89-5.08,0,0-.73-.24-1.8-.59h0l-2.4-.8c-.33-.12-.67-.24-1-.35-.86-.31-1.72-.62-2.51-.92L48,63c-.38-.17-.71-.32-1-.46a2.4,2.4,0,0,1-.59-.38s0-.05-.08-.09a.86.86,0,0,1-.07-.1A21.11,21.11,0,0,1,45,58.42h0a5.69,5.69,0,0,1-.12-1c0-.48,0-1,0-1.41s0-.86,0-1.2v-.28c0-.24,0-.44,0-.59s0-.24,0-.24l.86-.75c.64-.57,1.55-1.4,2.34-2.18a9.06,9.06,0,0,0,1.74-2.09.49.49,0,0,0,0-.15l-.06,0c-.4.06-2.55.43-4.86.79-1.37.22-2.81.43-4,.58l-1.25.14h0c-.34,0-.63.05-.84.05s-.56,0-1-.05h0l-1.32-.17c-1.07-.13-2.36-.32-3.6-.51l-3.16-.51-.58-.1-1.38-.24a1.54,1.54,0,0,0,.4.74,0,0,0,0,0,0,0,11.3,11.3,0,0,0,.74.86c.28.3.6.62.92.93,1,1,2.06,1.91,2.58,2.36l.32.27a2,2,0,0,1,0,.24c0,.15,0,.35,0,.59v.28c0,.1,0,.2,0,.3,0,.65,0,1.46-.06,2.31a5.71,5.71,0,0,1-.13,1A20.72,20.72,0,0,1,31.16,62l-.08.1-.07.09-.24.18a9.63,9.63,0,0,1-1,.52c-.37.16-.8.34-1.27.52-1.11.44-2.43.91-3.7,1.34l-.26.09L22,65.68h0c-1,.35-1.76.57-1.79.59-3.22,2-2.43,3-2.88,5h0v0a.48.48,0,0,0,0,.15h0c-.21,1.09-.3,6.38-.3,6.38,0,.32,0,.65,0,1H60.54C60.53,78.54,60.53,78.21,60.52,77.89Z" style="fill:#fbd2c5"/><path d="M45,58.41a5.58,5.58,0,0,1-.12-1c0-1.12-.06-2.19-.08-2.89a14.09,14.09,0,0,1-5.68,1.32,3.62,3.62,0,0,1-.76,0,14.17,14.17,0,0,1-5.69-1.32c0,.7,0,1.77-.07,2.89a5.58,5.58,0,0,1-.12,1c1.81,1.51,4.25,3.07,5.88,3.07a1.79,1.79,0,0,0,.34,0h.08a1.79,1.79,0,0,0,.34,0C40.76,61.48,43.2,59.92,45,58.41Z" style="fill:#d29f97"/><path d="M54.82,36c.32-1.73.56-3,.63-3.31s.07-.25.1-.38.07-.28.09-.42.1-.43.15-.64,0-.2.05-.3.09-.47.13-.71l0-.31c0-.21,0-.42.08-.64a3.56,3.56,0,0,1,.05-.47c0-.14,0-.28,0-.41a14.83,14.83,0,0,0-2.67-9.59c-2.58-3.62-5.55-7.46-12-8H36c-6.46.53-9.43,4.37-12,8a14.9,14.9,0,0,0-2.68,9.59c0,.13,0,.27,0,.41s0,.31.05.47,0,.43.07.64,0,.21,0,.31.09.48.13.71,0,.2,0,.3.09.43.15.64.07.27.09.42.06.25.1.38.32,1.57.63,3.28c-1.72-.84-4.11.37-3.83,3.54s4.21,5.13,5.55,5.45a10.82,10.82,0,0,0,.32,1.23c1.18,3,2.6,3.84,5.1,6.25,2.72,2.61,6.74,5.06,8.73,5.05H39c2,0,6-2.44,8.73-5.05,2.5-2.41,3.92-3.3,5.09-6.25A10.49,10.49,0,0,0,53.11,45c1.29-.29,5.29-2.21,5.59-5.46S56.55,35.11,54.82,36Z" style="fill:#fbd2c5"/><path d="M57.44,37.77a1.89,1.89,0,0,0-2.87-.57,1.64,1.64,0,0,0-.48,1.8c.13.53.68.57.54,1.37a1.42,1.42,0,0,1-.81,1.15,1.79,1.79,0,0,0-.68.73,2,2,0,0,0-.09,1.11c.15.65,1.09.15,1.71-.13a12.88,12.88,0,0,0,2.08-1.65,3.6,3.6,0,0,0,.6-3.81" style="fill:#e9b7ac"/><path d="M20.1,37.77A1.89,1.89,0,0,1,23,37.2a1.64,1.64,0,0,1,.48,1.8c-.13.53-.68.57-.54,1.37a1.43,1.43,0,0,0,.8,1.15,1.75,1.75,0,0,1,.69.73,2,2,0,0,1,.09,1.11c-.15.65-1.09.15-1.72-.13a13.26,13.26,0,0,1-2.07-1.65,3.6,3.6,0,0,1-.6-3.81" style="fill:#e9b7ac"/><path d="M19.46,73l.13.07,0-.07Z" style="fill:#332e2b"/><path d="M19.61,73v0h0Z" style="fill:#332e2b"/><path d="M57.79,73h3.5a9.09,9.09,0,0,0-.19-1.7l0-.13c-.28-1.36,0-2.25-.87-3.3a7.92,7.92,0,0,0-2.11-1.66l-1.87-.59h0L54.28,65l-.59-.19c-.35-.11-.7-.24-1.07-.35L51.28,64C37,76.26,26.21,64,26.21,64c-.66.23-1.34.46-2,.67l-.17.06-.1,0-2.67.86h0l-1.87.59A7.43,7.43,0,0,0,17.2,68c-.72,1-.52,1.85-.79,3.14,0,0,0,.09,0,.13h0v0a.3.3,0,0,0,0,.15h0A12.87,12.87,0,0,0,16.2,73h3.41l0,.07a24.51,24.51,0,0,0-1.25,5.77H59.07A25,25,0,0,0,57.79,73Z" style="fill:#332e2b"/><path d="M60.18,23.82a4.49,4.49,0,0,0,2.64-3.95,4.71,4.71,0,0,0-3.74-4.37A9.93,9.93,0,0,0,59.19,14c0-4-2.4-7.18-5.36-7.18a4.21,4.21,0,0,0-2.37.75,4,4,0,0,0-3.25-1.94,3.58,3.58,0,0,0-2.1.72c-.76-1.69-2.93-2.91-5.5-2.91S36,4.64,35.17,6.26a9.64,9.64,0,0,0-2.86-.42A9.91,9.91,0,0,0,30.47,6a9.53,9.53,0,0,0-1.79-.17c-4,0-7.17,2.31-7.17,5.16,0,.06,0,.12,0,.19A4.05,4.05,0,0,0,19.09,15a4.21,4.21,0,0,0,.75,2.42,3.92,3.92,0,0,0-3.17,3.92,4.06,4.06,0,0,0,.95,2.62,7.65,7.65,0,0,0-.26,2c0,2.25.89,4.15,2.13,4.82A12.83,12.83,0,0,0,21.88,36c1.13,1.16.77,2.84,1.11,2.84,0,0,1.14,0,.53-6.25-.48-4.93,1.06-8,3.78-9.4s6.35-.37,9,1.36c3,2,4-.25,8.07-1.37,6.6-1.82,9.34,7.52,8.79,10-.85,3.8.33,6,.78,5.88a5,5,0,0,1,.43-1.82c.89-1.87,1.67-1.43,2.11-2.4a4.63,4.63,0,0,0,.85.08c1.81,0,3.28-1,3.28-2.28A1.82,1.82,0,0,0,60,31.36a4.06,4.06,0,0,0,.16-7.54Z" style="fill:#3a2817"/><path d="M36.28,40l-.06.17.09-.16Z" style="fill:#0e151a;opacity:0.4"/><path d="M36.28,40l-.06.17.09-.16Z" style="fill:#e8e9e7;opacity:0.55"/><path d="M41.45,41.49c.09.13.19.24.28.36-.08-.12-.17-.24-.25-.37Z" style="fill:#0e151a;opacity:0.4"/><path d="M41.45,41.49c.09.13.19.24.28.36-.08-.12-.17-.24-.25-.37Z" style="fill:#e8e9e7;opacity:0.55"/><circle cx="30.4" cy="39.21" r="3.07" transform="translate(-13.01 15.19) rotate(-23.26)" style="fill:#3a2018"/><circle cx="46.94" cy="39.21" r="3.07" style="fill:#3a2018"/><path d="M30.14,44.44c-3.59,0-3.57-2.22,0-2.23S33.72,44.43,30.14,44.44Z" style="fill:#dc98ab;fill-rule:evenodd"/><path d="M47.38,44.44c3.59,0,3.56-2.22,0-2.23S43.79,44.43,47.38,44.44Z" style="fill:#dc98ab;fill-rule:evenodd"/><path d="M38.69,42.2c-2,0-2.78,3.65,0,3.65S40.65,42.2,38.69,42.2Z" style="fill:#3a2018;fill-rule:evenodd"/><path d="M40,44.49a1.53,1.53,0,0,0-1.28-.78,1.56,1.56,0,0,0-1.31.81C36.63,45.8,40.79,45.82,40,44.49Z" style="fill:#cb4f41;fill-rule:evenodd"/><path d="M27.09,36a.48.48,0,0,1-.67.08.49.49,0,0,1-.08-.68,9.72,9.72,0,0,1,2.08-2,7,7,0,0,1,3.52-1.18.49.49,0,0,1,.51.45.48.48,0,0,1-.45.51,6.11,6.11,0,0,0-3,1A8.74,8.74,0,0,0,27.09,36Z" style="fill:#3a2018;fill-rule:evenodd"/><path d="M44.52,34.48a.47.47,0,0,1-.66-.1.48.48,0,0,1,.1-.67,5.14,5.14,0,0,1,3.35-1,4.73,4.73,0,0,1,3,1.55.48.48,0,1,1-.69.66,3.79,3.79,0,0,0-2.41-1.26A4.13,4.13,0,0,0,44.52,34.48Z" style="fill:#3a2018;fill-rule:evenodd"/><path d="M31.39,36.93a1.47,1.47,0,1,1-1.47,1.46A1.46,1.46,0,0,1,31.39,36.93Z" style="fill:#fff;fill-rule:evenodd"/><path d="M29,41A1.06,1.06,0,1,1,30,39.9,1.07,1.07,0,0,1,29,41Z" style="fill:#fff;fill-rule:evenodd"/><path d="M30.94,41.71A.76.76,0,1,1,31.7,41,.76.76,0,0,1,30.94,41.71Z" style="fill:#fff;fill-rule:evenodd"/><path d="M47.89,36.93a1.47,1.47,0,1,1-1.46,1.46A1.46,1.46,0,0,1,47.89,36.93Z" style="fill:#fff;fill-rule:evenodd"/><path d="M45.48,41a1.06,1.06,0,1,1,1.06-1.06A1.06,1.06,0,0,1,45.48,41Z" style="fill:#fff;fill-rule:evenodd"/><path d="M47.44,41.71A.76.76,0,1,1,48.2,41,.76.76,0,0,1,47.44,41.71Z" style="fill:#fff;fill-rule:evenodd"/></g></g></svg>