<svg xmlns="http://www.w3.org/2000/svg" viewBox="0 0 78.88 78.88"><title>graphicsAndMultimedia8SophiaAoyamaSVG</title><g id="Layer_2" data-name="Layer 2"><g id="Layer_2-2" data-name="Layer 2"><rect width="78.88" height="78.88" style="fill:#6394a4"/><path d="M61,77.89s-.1-6-.33-6.54c-.47-2.1.36-3.06-2.89-5.08,0,0-.73-.24-1.8-.59h0l-2.4-.8c-.34-.12-.67-.24-1-.35-.87-.31-1.72-.62-2.51-.92L48.47,63c-.38-.17-.71-.32-1-.46a2.4,2.4,0,0,1-.59-.38s0-.05-.08-.09a.86.86,0,0,1-.07-.1,21.11,21.11,0,0,1-1.33-3.56h0a5.69,5.69,0,0,1-.12-1c0-.48,0-1,0-1.41s0-.86,0-1.2v-.28c0-.24,0-.44,0-.59s0-.24,0-.24l.86-.75c.64-.57,1.55-1.39,2.33-2.18a9.18,9.18,0,0,0,1.75-2.09.49.49,0,0,0,0-.15l-.06,0c-.4.06-2.55.43-4.86.79-1.37.22-2.81.43-4,.58L40,50.05h0c-.33,0-.62.05-.83.05s-.56,0-1-.05h0l-1.31-.17c-1.07-.13-2.36-.32-3.6-.51l-3.16-.51-.58-.1-1.38-.24a1.54,1.54,0,0,0,.4.74,0,0,0,0,0,0,0c.19.25.44.54.73.86s.6.62.93.93c1,1,2.06,1.91,2.58,2.36l.32.27a2,2,0,0,1,0,.24c0,.15,0,.35,0,.59v.28c0,.1,0,.2,0,.3,0,.65,0,1.46-.06,2.31a5.71,5.71,0,0,1-.13,1A20.72,20.72,0,0,1,31.59,62l-.08.1a.76.76,0,0,0-.07.09l-.25.18a9.31,9.31,0,0,1-1,.52c-.37.16-.8.34-1.27.52-1.11.44-2.43.91-3.7,1.34a2.67,2.67,0,0,0-.26.09l-2.56.86h0c-1,.35-1.76.57-1.79.59-3.22,2-2.43,3-2.88,5h0v0a.48.48,0,0,0,0,.15h0c-.21,1.09-.3,6.38-.3,6.38,0,.32,0,.65,0,1H61C61,78.54,61,78.21,61,77.89Z" style="fill:#fbd2c5"/><path d="M45.44,58.41a5.58,5.58,0,0,1-.12-1c0-1.12-.06-2.19-.08-2.89a14.09,14.09,0,0,1-5.68,1.32,3.62,3.62,0,0,1-.76,0,14.17,14.17,0,0,1-5.69-1.32c0,.7,0,1.77-.07,2.89a4.81,4.81,0,0,1-.13,1c1.81,1.51,4.26,3.07,5.89,3.07a1.79,1.79,0,0,0,.34,0h.08a1.79,1.79,0,0,0,.34,0C41.18,61.48,43.63,59.92,45.44,58.41Z" style="fill:#d29f97"/><path d="M55.25,36c.31-1.73.56-3,.63-3.31s.07-.25.1-.38.07-.28.09-.42.1-.43.15-.64,0-.2.05-.3.09-.47.12-.71,0-.21,0-.31,0-.42.08-.64a3.56,3.56,0,0,1,.05-.47c0-.14,0-.28,0-.41a14.89,14.89,0,0,0-2.67-9.59c-2.58-3.62-5.56-7.46-12-8H36.46c-6.46.53-9.43,4.37-12,8a15,15,0,0,0-2.67,9.59c0,.13,0,.27,0,.41s0,.31.05.47,0,.43.07.64,0,.21,0,.31.09.48.12.71,0,.2.05.3.09.43.15.64.07.27.09.42.06.25.1.38.32,1.57.63,3.28c-1.72-.84-4.11.37-3.83,3.54s4.21,5.13,5.55,5.45a10.82,10.82,0,0,0,.32,1.23c1.18,3,2.6,3.84,5.1,6.25C33,55.05,37,57.5,39,57.49h.43c2,0,6-2.44,8.73-5.05,2.49-2.41,3.92-3.3,5.09-6.25.08-.21.19-.64.33-1.22,1.29-.29,5.29-2.21,5.59-5.46S57,35.11,55.25,36Z" style="fill:#fbd2c5"/><path d="M57.87,37.77A1.89,1.89,0,0,0,55,37.2a1.64,1.64,0,0,0-.48,1.8c.13.53.68.57.54,1.37a1.42,1.42,0,0,1-.81,1.15,1.79,1.79,0,0,0-.68.73,2,2,0,0,0-.1,1.11c.15.65,1.1.15,1.72-.13a12.88,12.88,0,0,0,2.08-1.65,3.6,3.6,0,0,0,.6-3.81" style="fill:#e9b7ac"/><path d="M20.53,37.77a1.89,1.89,0,0,1,2.87-.57,1.64,1.64,0,0,1,.48,1.8c-.13.53-.68.57-.54,1.37a1.41,1.41,0,0,0,.8,1.15,1.73,1.73,0,0,1,.68.73,2,2,0,0,1,.1,1.11c-.15.65-1.09.15-1.72-.13a12.81,12.81,0,0,1-2.07-1.65,3.6,3.6,0,0,1-.6-3.81" style="fill:#e9b7ac"/><path d="M25.32,30.27h0v0Z" style="fill:#46423e"/><path d="M56,76.56v0h6.45c-.07-.45-.25-1.36-.49-2.44-.59-2.63-1.57-6.3-2.26-7.12a11.92,11.92,0,0,0-4.21-3.11,15.83,15.83,0,0,0-4-1.19c-11.48,14.17-21.85,3-24.2.06a18.49,18.49,0,0,0-3.73,1.15A14.22,14.22,0,0,0,19,67c-.83.86-1.79,4.35-2.62,7.12-.28.94-.55,1.8-.79,2.44h7.13v0c.05,3-.08,1.09-.2,2.32H56.14C56,77.65,55.89,79.55,56,76.56Z" style="fill:#b44e6b"/><path d="M61.61,25.69c-.28-4,.24-10.32-6.11-14.59C52.66,9.19,50.07,9,49.17,8.23,45,4.62,41,4.14,35.22,4.6S23,6.58,19.44,13.21c-6.42,12.1-1.32,27.41,0,30.92s5,6.89,5,6.89S17.58,37.9,30.88,32.24c5.87-2.5,8.28-3.07,13.66-5.14a9.13,9.13,0,0,0,3.87-2.55h0c.14,1.88,3.53,1.61,5.42,6.43,3.23,8.24-2.58,20.92-2.58,20.92s8.09-10,9.33-13.5S62,30.82,61.61,25.69Z" style="fill:#6d3c41"/><path d="M28.55,37a.7.7,0,0,1-.49-.86.71.71,0,0,1,.86-.49l7.32,2.07a.7.7,0,0,1-.08,1.36l-6.62,1.12a.69.69,0,1,1-.23-1.37l3.57-.61Z" style="fill:#3a2018;fill-rule:evenodd"/><path d="M49.79,35.67A.7.7,0,0,1,50.17,37l-4.33,1.22,3.57.61a.69.69,0,0,1-.23,1.37L42.56,39.1a.71.71,0,0,1-.57-.5.7.7,0,0,1,.49-.86Z" style="fill:#3a2018;fill-rule:evenodd"/><path d="M38.21,42.23a.35.35,0,0,1-.49,0,.34.34,0,0,1,.06-.49A2.82,2.82,0,0,1,40.13,41a1.2,1.2,0,0,1,.59.34,1,1,0,0,1,.23.64,1.67,1.67,0,0,1-.69,1.17,2.08,2.08,0,0,1,.61,1.6,1.12,1.12,0,0,1-.37.65,1.41,1.41,0,0,1-.65.31A2.49,2.49,0,0,1,37.69,45a.35.35,0,1,1,.48-.51A1.78,1.78,0,0,0,39.7,45a.68.68,0,0,0,.34-.16.37.37,0,0,0,.14-.24c0-.28-.13-.71-.67-1.27l-.06-.06a.36.36,0,0,1,.1-.49c.49-.33.7-.63.7-.85a.28.28,0,0,0,0-.16.6.6,0,0,0-.24-.13A2.21,2.21,0,0,0,38.21,42.23Z" style="fill:#3a2018;fill-rule:evenodd"/><path d="M29.35,34.07a.52.52,0,0,1-.53-.52.53.53,0,0,1,.53-.53,22.39,22.39,0,0,0,5.41-.7A4.24,4.24,0,0,0,37.26,31a.53.53,0,0,1,.94.48c-.44.83-1.66,1.44-3.16,1.85A23,23,0,0,1,29.35,34.07Z" style="fill:#3a2018;fill-rule:evenodd"/><path d="M49.67,33a.53.53,0,0,1,.53.53.52.52,0,0,1-.53.52A23,23,0,0,1,44,33.32c-1.49-.41-2.72-1-3.15-1.85a.51.51,0,0,1,.22-.7.52.52,0,0,1,.71.22,4.27,4.27,0,0,0,2.5,1.33A22.39,22.39,0,0,0,49.67,33Z" style="fill:#3a2018;fill-rule:evenodd"/><path d="M46.72,40.85c-4.11.13-4,2.86.08,2.73S50.83,40.73,46.72,40.85Z" style="fill:#dc98ab;fill-rule:evenodd"/><path d="M31.55,40.85c4.11.13,4,2.86-.09,2.73S27.44,40.73,31.55,40.85Z" style="fill:#dc98ab;fill-rule:evenodd"/></g></g></svg>