<svg xmlns="http://www.w3.org/2000/svg" viewBox="0 0 78.88 78.88"><title>graphicsAndMultimedia4EmmaMatsumotoSVG</title><g id="Layer_2" data-name="Layer 2"><g id="Layer_2-2" data-name="Layer 2"><rect width="78.88" height="78.88" style="fill:#6394a4"/><path d="M61,77.89s-.1-6-.33-6.54c-.47-2.1.36-3.06-2.89-5.08,0,0-.73-.24-1.8-.59h0l-2.4-.8c-.34-.12-.67-.24-1-.35-.87-.31-1.72-.62-2.51-.92L48.47,63c-.38-.17-.71-.32-1-.46a2.4,2.4,0,0,1-.59-.38s0-.05-.08-.09a.86.86,0,0,1-.07-.1,21.11,21.11,0,0,1-1.33-3.56h0a5.69,5.69,0,0,1-.12-1c0-.48,0-1,0-1.41s0-.86,0-1.2v-.28c0-.24,0-.44,0-.59s0-.24,0-.24l.86-.75c.64-.57,1.55-1.39,2.33-2.18a9.18,9.18,0,0,0,1.75-2.09.49.49,0,0,0,0-.15l-.06,0c-.4.06-2.55.43-4.86.79-1.37.22-2.81.43-4,.58L40,50.05h0c-.33,0-.62.05-.83.05s-.56,0-1-.05h0l-1.31-.17c-1.07-.13-2.36-.32-3.6-.51l-3.16-.51-.58-.1-1.38-.24a1.54,1.54,0,0,0,.4.74,0,0,0,0,0,0,0c.19.25.44.54.73.86s.6.62.93.93c1,1,2.06,1.91,2.58,2.36l.32.27a2,2,0,0,1,0,.24c0,.15,0,.35,0,.59v.28c0,.1,0,.2,0,.3,0,.65,0,1.46-.06,2.31a5.71,5.71,0,0,1-.13,1A20.72,20.72,0,0,1,31.59,62l-.08.1a.76.76,0,0,0-.07.09l-.25.18a9.31,9.31,0,0,1-1,.52c-.37.16-.8.34-1.27.52-1.11.44-2.43.91-3.7,1.34a2.67,2.67,0,0,0-.26.09l-2.56.86h0c-1,.35-1.76.57-1.79.59-3.22,2-2.43,3-2.88,5h0v0a.48.48,0,0,0,0,.15h0c-.21,1.09-.3,6.38-.3,6.38,0,.32,0,.65,0,1H61C61,78.54,61,78.21,61,77.89Z" style="fill:#fbd2c5"/><path d="M45.44,58.41a5.58,5.58,0,0,1-.12-1c0-1.12-.06-2.19-.08-2.89a14.09,14.09,0,0,1-5.68,1.32,3.62,3.62,0,0,1-.76,0,14.17,14.17,0,0,1-5.69-1.32c0,.7,0,1.77-.07,2.89a4.81,4.81,0,0,1-.13,1c1.81,1.51,4.26,3.07,5.89,3.07a1.79,1.79,0,0,0,.34,0h.08a1.79,1.79,0,0,0,.34,0C41.18,61.48,43.63,59.92,45.44,58.41Z" style="fill:#d29f97"/><path d="M55.25,36c.31-1.73.56-3,.63-3.31s.07-.25.1-.38.07-.28.09-.42.1-.43.15-.64,0-.2.05-.3.09-.47.12-.71,0-.21,0-.31,0-.42.08-.64a3.56,3.56,0,0,1,.05-.47c0-.14,0-.28,0-.41a14.89,14.89,0,0,0-2.67-9.59c-2.58-3.62-5.56-7.46-12-8H36.46c-6.46.53-9.43,4.37-12,8a15,15,0,0,0-2.67,9.59c0,.13,0,.27,0,.41s0,.31.05.47,0,.43.07.64,0,.21,0,.31.09.48.12.71,0,.2.05.3.09.43.15.64.07.27.09.42.06.25.1.38.32,1.57.63,3.28c-1.72-.84-4.11.37-3.83,3.54s4.21,5.13,5.55,5.45a10.82,10.82,0,0,0,.32,1.23c1.18,3,2.6,3.84,5.1,6.25C33,55.05,37,57.5,39,57.49h.43c2,0,6-2.44,8.73-5.05,2.49-2.41,3.92-3.3,5.09-6.25.08-.21.19-.64.33-1.22,1.29-.29,5.29-2.21,5.59-5.46S57,35.11,55.25,36Z" style="fill:#fbd2c5"/><path d="M57.87,37.77A1.89,1.89,0,0,0,55,37.2a1.64,1.64,0,0,0-.48,1.8c.13.53.68.57.54,1.37a1.42,1.42,0,0,1-.81,1.15,1.79,1.79,0,0,0-.68.73,2,2,0,0,0-.1,1.11c.15.65,1.1.15,1.72-.13a12.88,12.88,0,0,0,2.08-1.65,3.6,3.6,0,0,0,.6-3.81" style="fill:#e9b7ac"/><path d="M20.53,37.77a1.89,1.89,0,0,1,2.87-.57,1.64,1.64,0,0,1,.48,1.8c-.13.53-.68.57-.54,1.37a1.41,1.41,0,0,0,.8,1.15,1.73,1.73,0,0,1,.68.73,2,2,0,0,1,.1,1.11c-.15.65-1.09.15-1.72-.13a12.81,12.81,0,0,1-2.07-1.65,3.6,3.6,0,0,1-.6-3.81" style="fill:#e9b7ac"/><path d="M25.32,30.27h0v0Z" style="fill:#46423e"/><path d="M56,76.56v0h6.45c-.07-.45-.25-1.36-.49-2.44-.59-2.63-1.57-6.3-2.26-7.12a11.92,11.92,0,0,0-4.21-3.11,15.83,15.83,0,0,0-4-1.19c-11.48,14.17-21.85,3-24.2.06a18.49,18.49,0,0,0-3.73,1.15A14.22,14.22,0,0,0,19,67c-.83.86-1.79,4.35-2.62,7.12-.28.94-.55,1.8-.79,2.44h7.13v0c.05,3-.08,1.09-.2,2.32H56.14C56,77.65,55.89,79.55,56,76.56Z" style="fill:#faa830"/><path d="M58.4,20.88a15.12,15.12,0,0,0-4.69-9.55l0,0a8.79,8.79,0,0,0-1.21-.94h0a21.52,21.52,0,0,0-3-1.65c0-.06,0-.12,0-.17a7.52,7.52,0,0,0-.26-1.91h3a.82.82,0,0,0,.8.69.81.81,0,1,0,0-1.62.82.82,0,0,0-.8.68H49.18A8.78,8.78,0,0,0,40.62.44a8.8,8.8,0,0,0-8.56,5.95H24.52a.8.8,0,0,0-.8-.68.81.81,0,1,0,.8.93H32a7.93,7.93,0,0,0-.22,1.2,10.2,10.2,0,0,0-5.32,3.6,17.68,17.68,0,0,0-3.14,4.27c-1.11,2.34-3.87,7.4-4.76,11.06s2.1,7.22,4,8c1.21.49,1.29,3.34,1.29,3.34l1.32.59a17,17,0,0,1,1.89-8c6.51,2.7,11,1.11,13.9-1.49a11.44,11.44,0,0,0,2.66,1.79,7.18,7.18,0,0,1-1.87-2.56c.27-.27.51-.55.74-.83a5,5,0,0,0,2,1.55,10.71,10.71,0,0,0,4.31,1.17,5.27,5.27,0,0,1-3-3c-.2-.47-.42-1-.64-1.42a8.18,8.18,0,0,0,2.23,1.84c3.17,1.77,4.52,5.38,5.46,9.19a10.11,10.11,0,0,1-1.35,7.25A25.49,25.49,0,0,0,56,35.76a4.21,4.21,0,0,1,1.4-1.22c1.58-.88,2-3.87,2-5.11A37.31,37.31,0,0,0,58.4,20.88Z" style="fill:#3d3d3c"/><path d="M32.16,35a4.4,4.4,0,1,1-4.4,4.4A4.4,4.4,0,0,1,32.16,35Z" style="fill:#3a2018;fill-rule:evenodd"/><path d="M34.13,36.54A2,2,0,1,1,31.63,38,2,2,0,0,1,34.13,36.54Z" style="fill:#fff;fill-rule:evenodd"/><path d="M30.2,39.47a1.18,1.18,0,1,1-1.44.84A1.18,1.18,0,0,1,30.2,39.47Z" style="fill:#fff;fill-rule:evenodd"/><path d="M35.72,45.8a.36.36,0,0,1,0-.5.35.35,0,0,1,.5,0,5,5,0,0,0,1.2,1,4.57,4.57,0,0,0,1.35.53,4,4,0,0,0,1.37-.55,3.25,3.25,0,0,0,1-1,.35.35,0,0,1,.58.38,4,4,0,0,1-1.22,1.21,5,5,0,0,1-1.68.66h-.14a5.66,5.66,0,0,1-1.63-.62A6,6,0,0,1,35.72,45.8Z" style="fill:#3a2018;fill-rule:evenodd"/><path d="M45.61,35a4.4,4.4,0,1,1-4.4,4.4A4.4,4.4,0,0,1,45.61,35Z" style="fill:#3a2018;fill-rule:evenodd"/><path d="M47.58,36.54A2,2,0,1,1,45.08,38,2,2,0,0,1,47.58,36.54Z" style="fill:#fff;fill-rule:evenodd"/><path d="M43.65,39.47a1.18,1.18,0,1,1-1.44.84A1.18,1.18,0,0,1,43.65,39.47Z" style="fill:#fff;fill-rule:evenodd"/><path d="M30.57,44c3.8.12,3.73,2.64-.07,2.52S26.77,43.85,30.57,44Z" style="fill:#dc98ab;fill-rule:evenodd"/><path d="M47.38,44c-3.8.12-3.72,2.64.08,2.52S51.18,43.85,47.38,44Z" style="fill:#dc98ab;fill-rule:evenodd"/></g></g></svg>