<svg xmlns="http://www.w3.org/2000/svg" viewBox="0 0 78.88 78.88"><title>graphicsAndMultimedia5AvaNakanishiSVG</title><g id="Layer_2" data-name="Layer 2"><g id="Layer_2-2" data-name="Layer 2"><rect width="78.88" height="78.88" style="fill:#857095"/><path d="M30.56,35.26a3.45,3.45,0,0,0-2.41-1.35,13.47,13.47,0,0,0-1.49-3.67c-2-2.77-7.14-.6-7.14-.6,0,3.26,1.14,4.89,0,7.5s-.24,1.29-2.36,3.85-2.5,3.23-3,5.07c-1,3.49.41,7.72.65,8.59s-1-6,2.29-7.18a9.84,9.84,0,0,0,1.58-.72,9.73,9.73,0,0,1-.16,3.93,8.34,8.34,0,0,0,.39,5.48,4.44,4.44,0,0,0,2.49,2.32,3.7,3.7,0,0,1-1.18-4c.46-1.79,1.35-2.57,1.83-4.09a12.64,12.64,0,0,0,.45-1.89,3.65,3.65,0,0,0,.3,1.74c.57,1.09,2.35,2.91,2,5.13-1.11,6.22,1.19,7.93,1.51,8.69s-.9-2-.08-4.3a4,4,0,0,1,1.9-2.29,4.52,4.52,0,0,1,.58,2.92c-1.11,6.22,1.19,7.93,1.51,8.69s-.9-2-.08-4.31,2.28-2,3.52-3.69a9.82,9.82,0,0,0,1.33-8.89C34.78,51.69,32.6,38,30.56,35.26Z" style="fill:#fff"/><path d="M65.56,46c-.51-1.84-.9-2.5-3-5.06S61.33,39.64,60.19,37s0-4.24,0-7.5c0,0-5.1-2.17-7.13.6a13.75,13.75,0,0,0-1.5,3.67,3.45,3.45,0,0,0-2.41,1.35c-2,2.76-4.21,16.44-4.38,16.94A9.77,9.77,0,0,0,46.11,61c1.24,1.66,2.7,1.39,3.52,3.7s-.42,5.06-.09,4.3,2.62-2.46,1.51-8.69a4.52,4.52,0,0,1,.59-2.92,4,4,0,0,1,1.9,2.29,8.15,8.15,0,0,1-.09,4.3c.32-.76,2.62-2.46,1.52-8.68-.4-2.23,1.38-4,2-5.14a3.68,3.68,0,0,0,.31-1.74,12.88,12.88,0,0,0,.44,1.9c.49,1.51,1.37,2.29,1.83,4.09a3.72,3.72,0,0,1-1.18,4,4.46,4.46,0,0,0,2.49-2.32,8.37,8.37,0,0,0,.39-5.49A9.9,9.9,0,0,1,61,46.64a8.81,8.81,0,0,0,1.59.73c3.26,1.13,2,8,2.28,7.17S66.52,49.44,65.56,46Z" style="fill:#fff"/><path d="M61.52,77.89s-.1-6-.33-6.54c-.47-2.1.36-3.06-2.89-5.08,0,0-.73-.24-1.8-.59h0l-2.4-.8c-.34-.12-.67-.24-1-.35C51.6,64,50.12,63.46,49,63a6.37,6.37,0,0,1-1.56-.84s0-.05-.08-.09a.86.86,0,0,1-.07-.1A21.11,21.11,0,0,1,46,58.42h0a5.69,5.69,0,0,1-.12-1c0-.48,0-1,0-1.41s0-.86,0-1.2v-.28c0-.24,0-.44,0-.59s0-.24,0-.24l.86-.75c.64-.57,1.55-1.39,2.34-2.18a9.34,9.34,0,0,0,1.74-2.09.49.49,0,0,0,0-.15l-.06,0c-.4.06-2.55.43-4.86.79-1.37.22-2.81.43-4,.58l-1.25.14h0c-.34,0-.63.05-.84.05s-.56,0-1-.05h0l-1.31-.17c-1.07-.13-2.36-.32-3.6-.51l-3.16-.51-.58-.1-1.38-.24a1.54,1.54,0,0,0,.4.74,0,0,0,0,0,0,0c.19.25.44.54.73.86s.6.62.93.93c1,1,2.06,1.91,2.58,2.36l.32.27a2,2,0,0,1,0,.24c0,.15,0,.35,0,.59v.28c0,.1,0,.2,0,.3,0,.65,0,1.46-.06,2.31a5.71,5.71,0,0,1-.13,1A20.72,20.72,0,0,1,32.16,62l-.08.1-.07.09a6,6,0,0,1-1.24.7c-1.23.55-3.17,1.25-5,1.86a2.67,2.67,0,0,0-.26.09L23,65.68h0c-1,.35-1.76.57-1.79.59-3.22,2-2.43,3-2.88,5h0v0a.48.48,0,0,0,0,.15h0c-.21,1.09-.3,6.38-.3,6.38,0,.32,0,.65,0,1H61.53C61.53,78.54,61.53,78.21,61.52,77.89Z" style="fill:#fbd2c5"/><path d="M46,58.41a5.58,5.58,0,0,1-.12-1c0-1.12-.06-2.19-.08-2.89a14.09,14.09,0,0,1-5.68,1.32,3.62,3.62,0,0,1-.76,0,14.17,14.17,0,0,1-5.69-1.32c0,.7,0,1.77-.07,2.89a4.81,4.81,0,0,1-.13,1c1.81,1.51,4.26,3.07,5.89,3.07a1.79,1.79,0,0,0,.34,0h.08a1.79,1.79,0,0,0,.34,0C41.75,61.48,44.2,59.92,46,58.41Z" style="fill:#d29f97"/><path d="M55.82,36c.32-1.73.56-3,.63-3.31s.07-.25.1-.38.07-.28.09-.42.1-.43.15-.64,0-.2.05-.3.09-.47.13-.71l0-.31c0-.21,0-.42.08-.64a3.56,3.56,0,0,1,.05-.47c0-.14,0-.28,0-.41a14.89,14.89,0,0,0-2.67-9.59c-2.58-3.62-5.56-7.46-12-8H37c-6.46.53-9.43,4.37-12,8a15,15,0,0,0-2.67,9.59c0,.13,0,.27,0,.41s0,.31.05.47,0,.43.07.64,0,.21,0,.31.09.48.13.71,0,.2,0,.3.09.43.15.64.07.27.09.42.06.25.1.38.32,1.57.63,3.28c-1.72-.84-4.11.37-3.83,3.54s4.21,5.13,5.55,5.45a10.82,10.82,0,0,0,.32,1.23c1.18,3,2.6,3.84,5.1,6.25,2.72,2.61,6.74,5.06,8.73,5.05H40c2,0,6-2.44,8.73-5.05,2.49-2.41,3.92-3.3,5.09-6.25A10.49,10.49,0,0,0,54.11,45c1.29-.29,5.29-2.21,5.59-5.46S57.55,35.11,55.82,36Z" style="fill:#fbd2c5"/><path d="M58.44,37.77a1.89,1.89,0,0,0-2.87-.57,1.64,1.64,0,0,0-.48,1.8c.13.53.68.57.54,1.37a1.42,1.42,0,0,1-.81,1.15,1.79,1.79,0,0,0-.68.73,2,2,0,0,0-.1,1.11c.15.65,1.1.15,1.72-.13a12.88,12.88,0,0,0,2.08-1.65,3.6,3.6,0,0,0,.6-3.81" style="fill:#e9b7ac"/><path d="M21.1,37.77A1.89,1.89,0,0,1,24,37.2a1.64,1.64,0,0,1,.48,1.8c-.13.53-.68.57-.54,1.37a1.43,1.43,0,0,0,.8,1.15,1.73,1.73,0,0,1,.68.73,1.87,1.87,0,0,1,.1,1.11c-.15.65-1.09.15-1.72-.13a12.81,12.81,0,0,1-2.07-1.65,3.6,3.6,0,0,1-.6-3.81" style="fill:#e9b7ac"/><path d="M57,75.65c-.59-3.57-4-4.4-4.13-11.38-1-.36-2-.74-2.92-1.08-10,10.35-20-.08-20-.08-.83.33-1.81.7-2.82,1C27,71.24,23.54,72.06,23,75.65c-.14.79-.28,2.24-.37,3.23H57.35C57.26,77.89,57.12,76.44,57,75.65Z" style="fill:#652f8e"/><path d="M57.13,15.76a18.11,18.11,0,0,1,2.68,2.31c-1.83-4.14-6.64-7.29-6.64-7.29h0c-8.26-7.1-19.29-1.4-19.42-1.33C18.68,7,19.48,30.75,19.48,30.75l2.55-.7c3-9.29,11.68-11.78,17.84-12.86,6,1.09,14.21,3.66,17.14,12.69l3,1.17S60.25,22.15,57.13,15.76Z" style="fill:#fff"/><path d="M35.33,32.88a.51.51,0,0,1,.34.65.52.52,0,0,1-.66.34,5,5,0,0,0-2.51-.12,4.39,4.39,0,0,0-2.12,1.1.52.52,0,0,1-.74,0,.53.53,0,0,1,0-.74,5.48,5.48,0,0,1,2.62-1.36A6.05,6.05,0,0,1,35.33,32.88Z" style="fill:#3a2018;fill-rule:evenodd"/><path d="M30.71,37.49a2.34,2.34,0,0,0,4.64-.59A10.7,10.7,0,0,0,30.71,37.49Z" style="fill:#3a2018;fill-rule:evenodd"/><path d="M29,38.45a.37.37,0,0,1-.46-.19.36.36,0,0,1,.2-.46,23.37,23.37,0,0,1,2.79-.92A11.39,11.39,0,0,1,35,36.45a2.48,2.48,0,0,1,1.66.7.36.36,0,0,1,0,.49.35.35,0,0,1-.49,0,1.52,1.52,0,0,0-.53-.35,1.91,1.91,0,0,0-.67-.15,11.32,11.32,0,0,0-3.18.4A24.44,24.44,0,0,0,29,38.45Z" style="fill:#3a2018;fill-rule:evenodd"/><path d="M48.77,37.49a2.34,2.34,0,0,1-4.64-.59A10.7,10.7,0,0,1,48.77,37.49Z" style="fill:#3a2018;fill-rule:evenodd"/><path d="M50.72,37.8a.35.35,0,0,1-.26.65,24.44,24.44,0,0,0-2.71-.9,11.41,11.41,0,0,0-3.18-.4,1.82,1.82,0,0,0-.67.15,1.44,1.44,0,0,0-.53.35.35.35,0,0,1-.49,0,.34.34,0,0,1,0-.49,2.46,2.46,0,0,1,.75-.5,2.59,2.59,0,0,1,.9-.2,11.31,11.31,0,0,1,3.39.43A23,23,0,0,1,50.72,37.8Z" style="fill:#3a2018;fill-rule:evenodd"/><path d="M47.29,37.29A.54.54,0,1,1,47,38,.56.56,0,0,1,47.29,37.29Z" style="fill:#fff;fill-rule:evenodd"/><path d="M33.93,37.29a.54.54,0,1,1-.31.7A.54.54,0,0,1,33.93,37.29Z" style="fill:#fff;fill-rule:evenodd"/><path d="M37.77,42.09a1.33,1.33,0,0,0,2-.07c.51-.69-.84-1.56-1.43-1.42S37.07,41.5,37.77,42.09Z" style="fill:#cb4f41;fill-rule:evenodd"/><path d="M38,41.83l.1.08a1.12,1.12,0,0,0,.82.24.92.92,0,0,0,.55-.3l0,0a.22.22,0,0,0,0-.17.81.81,0,0,0-.11-.2,1,1,0,0,0-.23-.22,1.16,1.16,0,0,0-.77-.28,1,1,0,0,0-.48.3.52.52,0,0,0-.11.19.29.29,0,0,0,0,.16.53.53,0,0,0,.17.24Zm-.32.64-.14-.11a1.16,1.16,0,0,1-.39-.61,1.06,1.06,0,0,1,0-.53,1.29,1.29,0,0,1,.25-.44,1.69,1.69,0,0,1,.85-.52,1.81,1.81,0,0,1,1.34.4A1.76,1.76,0,0,1,40,41a1.24,1.24,0,0,1,.24.47.87.87,0,0,1-.16.75L40,42.3a1.58,1.58,0,0,1-1,.54A1.78,1.78,0,0,1,37.68,42.47Z" style="fill:#3a2018;fill-rule:evenodd"/><path d="M43.8,33.87a.52.52,0,1,1-.32-1,6.08,6.08,0,0,1,3.05-.16,5.5,5.5,0,0,1,2.61,1.36.52.52,0,1,1-.71.77,4.39,4.39,0,0,0-2.12-1.1A5,5,0,0,0,43.8,33.87Z" style="fill:#3a2018;fill-rule:evenodd"/></g></g></svg>