<svg xmlns="http://www.w3.org/2000/svg" viewBox="0 0 78.88 78.88"><title>graphicsAndMultimedia3HarperFujiwaraSVG</title><g id="Layer_2" data-name="Layer 2"><g id="Layer_2-2" data-name="Layer 2"><rect width="78.88" height="78.88" style="fill:#0d6d7d"/><rect x="22.79" width="12.83" style="fill:#327798"/><polygon points="35.63 0 35.63 0 40.13 0 40.21 0 57.55 0 57.55 0 35.63 0" style="fill:#1d4b5e"/><path d="M47.4,62.55a2.62,2.62,0,0,1-.59-.38.76.76,0,0,0-.07-.09l-.08-.1a20.49,20.49,0,0,1-1.32-3.56h0a5.71,5.71,0,0,1-.13-1c0-.48,0-1,0-1.41s0-.86,0-1.2v-.28c0-.24,0-.44,0-.59a2,2,0,0,1,0-.24l.87-.75c.63-.57,1.54-1.39,2.33-2.18a9.18,9.18,0,0,0,1.75-2.09,1,1,0,0,0,0-.15l-.06,0c-.4.06-2.55.43-4.86.79-1.37.22-2.8.43-4,.58l-1.25.14h0c-.34,0-.62.05-.84.05s-.56,0-.94-.05h0l-1.31-.17c-1.08-.13-2.36-.32-3.61-.51L30,48.86c-.21,0-.4-.06-.57-.1l-1.39-.24a1.54,1.54,0,0,0,.4.74,0,0,0,0,0,0,0,11.3,11.3,0,0,0,.74.86c.29.3.6.62.92.93,1,1,2.06,1.91,2.59,2.36l.31.27s0,.09,0,.24,0,.35,0,.59v.28a1.51,1.51,0,0,1,0,.3c0,.65,0,1.46-.06,2.31a5.69,5.69,0,0,1-.12,1A21.35,21.35,0,0,1,31.49,62a.86.86,0,0,1-.07.1s-.06.08-.08.09a2.11,2.11,0,0,1-.24.18C33.15,64.52,39.08,69.69,47.4,62.55Z" style="fill:#fbd2c5"/><path d="M45.35,58.41a5.59,5.59,0,0,1-.13-1c0-1.12-.06-2.19-.07-2.89a14.13,14.13,0,0,1-5.68,1.32,2.48,2.48,0,0,1-.39,0,2.36,2.36,0,0,1-.38,0A14.09,14.09,0,0,1,33,54.52c0,.7,0,1.77-.08,2.89a5.58,5.58,0,0,1-.12,1c1.81,1.51,4.26,3.07,5.88,3.07a1.87,1.87,0,0,0,.34,0h.09a1.87,1.87,0,0,0,.34,0C41.09,61.48,43.54,59.92,45.35,58.41Z" style="fill:#d29f97"/><path d="M55.16,36c.31-1.73.55-3,.63-3.31s.06-.25.1-.38S56,32,56,31.89s.1-.43.15-.64,0-.2,0-.3.08-.47.12-.71,0-.21,0-.31,0-.42.07-.64,0-.32.05-.47,0-.28,0-.41a15,15,0,0,0-2.67-9.59c-2.59-3.62-5.56-7.46-12-8H36.36c-6.45.53-9.42,4.37-12,8a15,15,0,0,0-2.67,9.59c0,.13,0,.27,0,.41a3.56,3.56,0,0,1,.05.47c0,.22,0,.43.08.64s0,.21,0,.31.08.48.12.71,0,.2.05.3.09.43.15.64l.09.42c0,.13.06.25.1.38s.31,1.57.63,3.28c-1.73-.84-4.12.37-3.83,3.54s4.2,5.13,5.54,5.45a10.24,10.24,0,0,0,.33,1.23c1.17,3,2.6,3.84,5.09,6.25,2.73,2.61,6.75,5.06,8.73,5.05h.43c2,0,6-2.44,8.72-5.05,2.5-2.41,3.92-3.3,5.1-6.25A11.1,11.1,0,0,0,53.44,45c1.3-.29,5.3-2.21,5.59-5.46S56.88,35.11,55.16,36Z" style="fill:#fbd2c5"/><path d="M57.78,37.77a1.89,1.89,0,0,0-2.87-.57,1.64,1.64,0,0,0-.48,1.8c.13.53.68.57.53,1.37a1.39,1.39,0,0,1-.8,1.15,1.73,1.73,0,0,0-.68.73,2,2,0,0,0-.1,1.11c.15.65,1.09.15,1.72-.13a12.88,12.88,0,0,0,2.08-1.65,3.63,3.63,0,0,0,.6-3.81" style="fill:#e9b7ac"/><path d="M20.43,37.77a1.89,1.89,0,0,1,2.87-.57,1.64,1.64,0,0,1,.48,1.8c-.13.53-.68.57-.53,1.37a1.39,1.39,0,0,0,.8,1.15,1.79,1.79,0,0,1,.68.73,2,2,0,0,1,.1,1.11c-.15.65-1.09.15-1.72-.13A12.88,12.88,0,0,1,21,41.58a3.63,3.63,0,0,1-.6-3.81" style="fill:#e9b7ac"/><polygon points="15.75 62.8 19.39 69.34 21.17 67.6 15.75 62.8" style="fill:#fff"/><polygon points="22.69 61.97 25.12 66.32 26.3 65.16 22.69 61.97" style="fill:#fff"/><polygon points="26.95 59.54 28.77 62.8 29.67 61.94 26.95 59.54" style="fill:#fff"/><polygon points="62.68 62.51 59.03 69.05 57.25 67.31 62.68 62.51" style="fill:#fff"/><polygon points="55.73 61.68 53.31 66.03 52.12 64.87 55.73 61.68" style="fill:#fff"/><polygon points="51.47 59.25 49.65 62.51 48.76 61.65 51.47 59.25" style="fill:#fff"/><path d="M58.63,24.2c-.23-.65-.48-1.26-.73-1.84a3.87,3.87,0,0,0-.16-.42c0-.29-.08-.65-.13-1.15-.24-2.82,0-3.2-1.48-5.27a13.26,13.26,0,0,0-1-1.13A8,8,0,0,0,52,8.57a8.08,8.08,0,0,0-6.26-1.19c-.34-.2-.71-.4-1.12-.6-2.51-1.26-5.33-.43-6.55,0A7.29,7.29,0,0,0,35.2,7a3.26,3.26,0,0,1,2.64.77,2.3,2.3,0,0,1,1.13,2c-1.09-1.23-4.22-3.62-9.55-2.28-3.85,1-2.66,1.34-1.25,1.34s1.91,0,5.2,1.45l.05,0-.62.07c-2.76-.59-10-2.09-13.46.63a4.87,4.87,0,0,0-1.87,2.55,5,5,0,0,1,5.9-.81,13.52,13.52,0,0,0-2.79,2.81c-1.51,2.07-1.25,2.45-1.49,5.27s-.49,1.58-.86,4.67-.75,1.61-.39,6.55c.06.7.14,1.35.25,2,.32,2.38.88,4.26,1.11,5.43,1.66,8.4,9.62,13.71,9.62,13.71s-1-2.31-1.91-4.55c-.7-1.73-2.73-4.64-2.73-9s4.54-9.82,4.54-9.82a19.72,19.72,0,0,0-2.51,7.16A10.15,10.15,0,0,0,28,43.51S25.21,38.64,29.65,35a28.82,28.82,0,0,0,3.56-3.46h0c-1.11,2.87,1.13,5.28,1.13,5.28s0-3.68,2.28-4.93c5.65-3,6.55-4.31,7.34-6.76a5.29,5.29,0,0,0,.21-.95l5.17,7.1c.24.31.63.83,1.09,1.5,1.34,2,3.2,5.2,3.2,8a23.56,23.56,0,0,1-1.74,9.1A18.29,18.29,0,0,1,49,54.37s8-5.32,9.62-13.71C59.11,38,61.33,31.79,58.63,24.2ZM49,9.93a5,5,0,0,1,.67,1.83l0,0c-.47-1.29-1-2.66-3.84-4.3C46.56,7.48,47.82,7.89,49,9.93ZM38.91,7c-.19,0-.37-.06-.55-.08a4.47,4.47,0,0,1,3.74,1,4,4,0,0,1,1.55,3.05l-.35,0C42.61,9.88,40.75,7.29,38.91,7Z" style="fill:#3d3d3c"/><path d="M36.84,64.73Z" style="fill:#b44e6b"/><path d="M60.86,77.89s0-1.22-.07-2.61c0-.7,0-1.43-.08-2.09s-.09-1.34-.14-1.65a.8.8,0,0,0,0-.19,12,12,0,0,1-.18-1.29A3.67,3.67,0,0,0,59.69,68a7.41,7.41,0,0,0-2-1.7s-.74-.24-1.8-.59h0l-2.39-.8-1-.35-2-.73c-10.11,11.48-19.23,3.28-22.25-.13-.95.35-2,.73-3,1.07a2,2,0,0,0-.26.09l-2.56.86h0c-1.05.35-1.76.57-1.78.59A7.41,7.41,0,0,0,18.47,68a3.61,3.61,0,0,0-.66,2.09,11.06,11.06,0,0,1-.18,1.25h0v0a.61.61,0,0,0,0,.15h0v0c-.05.31-.1.93-.14,1.65s-.07,1.39-.09,2.09c0,1.39-.06,2.61-.06,2.61,0,.32,0,.65,0,1H60.87C60.87,78.54,60.87,78.21,60.86,77.89Z" style="fill:#36aeaf"/><path d="M50.4,63.79l-.52-.19L48.37,63c-.37-.17-.7-.32-1-.46-8.62,7.24-16.3-.2-16.3-.2a9.31,9.31,0,0,1-1,.52c-.37.16-.8.34-1.27.52l-.69.27C31.17,67.07,40.29,75.27,50.4,63.79Z" style="fill:#1f7b79"/><path d="M30.55,58.94c-1.15,3.34-5.56,5.32-6.22,5.61l-.16,0-.28.09c-1,.33-1.92.63-2.68.87h0l-1.87.59c-3.38,2-2.55,3-3,5.09h0v0a.75.75,0,0,0,0,.15h0A13.34,13.34,0,0,0,16.11,73h6.23a25.25,25.25,0,0,0-1.28,5.89H36.85V65.29A6.35,6.35,0,0,0,30.55,58.94Z" style="fill:#46423e"/><path d="M47.5,58.94c1.14,3.34,5.55,5.32,6.22,5.61l.16,0c.09,0,.18.07.27.09l2.69.87h0l1.88.59c3.38,2,2.55,3,3,5.09h0v0a.34.34,0,0,1,0,.15h0A13.34,13.34,0,0,1,61.94,73H55.71A25.25,25.25,0,0,1,57,78.88H41.2V65.29A6.35,6.35,0,0,1,47.5,58.94Z" style="fill:#46423e"/><path d="M25.81,39.94c-1.23-3.19,9.54-4.14,9.17-.78a1.62,1.62,0,0,1-1.8,1.44C31,40.36,26.49,41.7,25.81,39.94Z" style="fill:#3a2018;fill-rule:evenodd"/><path d="M52.34,39.94c1.23-3.19-9.54-4.14-9.17-.78A1.63,1.63,0,0,0,45,40.6C47.15,40.36,51.66,41.7,52.34,39.94Z" style="fill:#3a2018;fill-rule:evenodd"/><path d="M34.9,46.28a1.64,1.64,0,1,1,0-3.27h8.17a1.64,1.64,0,1,1,0,3.27Z" style="fill:#fff;fill-rule:evenodd"/><path d="M35.66,42.66h6.1a4.59,4.59,0,0,1,3.14.87,1.09,1.09,0,0,1,.36.93,1.41,1.41,0,0,1-.58.91c-.84.69-2.75,1.26-5.88,1.26s-4.78-.57-5.53-1.25a1.42,1.42,0,0,1-.51-.91,1.19,1.19,0,0,1,.3-.9,3.39,3.39,0,0,1,2.6-.91Zm6.1.7h-6.1A2.77,2.77,0,0,0,33.6,44a.49.49,0,0,0-.14.39.73.73,0,0,0,.28.46c.64.58,2.21,1.07,5.06,1.07s4.71-.5,5.44-1.1a.8.8,0,0,0,.33-.46.45.45,0,0,0-.16-.35A4,4,0,0,0,41.76,43.36Z" style="fill:#3a2018;fill-rule:evenodd"/><path d="M32.58,37.64a1,1,0,1,1-1,1A1,1,0,0,1,32.58,37.64Z" style="fill:#fff;fill-rule:evenodd"/><path d="M49.72,37.64a1,1,0,1,1-1,1A1,1,0,0,1,49.72,37.64Z" style="fill:#fff;fill-rule:evenodd"/><path d="M36.33,40.45a.26.26,0,0,1-.36.08.28.28,0,0,1-.08-.37,3.21,3.21,0,0,1,.79-.78,4,4,0,0,1,1.08-.55.26.26,0,0,1,.33.16.26.26,0,0,1-.16.33,3.92,3.92,0,0,0-.94.48A2.68,2.68,0,0,0,36.33,40.45Z" style="fill:#3a2018;fill-rule:evenodd"/><path d="M41,40.54a.26.26,0,0,1-.41-.33l0,0A3.79,3.79,0,0,1,42,39a.27.27,0,0,1,.35.13.26.26,0,0,1-.13.35,3.32,3.32,0,0,0-1.24,1Z" style="fill:#3a2018;fill-rule:evenodd"/><path d="M38.68,40.6a.27.27,0,0,1-.36.1.26.26,0,0,1-.1-.36,3.22,3.22,0,0,1,.72-.82,2.82,2.82,0,0,1,.9-.53.26.26,0,0,1,.33.15.26.26,0,0,1-.16.34,2.54,2.54,0,0,0-.74.44A2.84,2.84,0,0,0,38.68,40.6Z" style="fill:#3a2018;fill-rule:evenodd"/></g></g></svg>