<svg xmlns="http://www.w3.org/2000/svg" viewBox="0 0 78.88 78.88"><title>graphicsAndMultimedia7ZoeWadaSVG</title><g id="Layer_2" data-name="Layer 2"><g id="Layer_2-2" data-name="Layer 2"><rect width="78.88" height="78.88" style="fill:#215a66"/><path d="M47.4,62.55a2.62,2.62,0,0,1-.59-.38.76.76,0,0,0-.07-.09l-.08-.1a20.49,20.49,0,0,1-1.32-3.56h0a5.71,5.71,0,0,1-.13-1c0-.48,0-1,0-1.41s0-.86,0-1.2v-.28c0-.24,0-.44,0-.59a2,2,0,0,1,0-.24l.87-.75c.63-.57,1.54-1.39,2.33-2.18a9.18,9.18,0,0,0,1.75-2.09,1,1,0,0,0,0-.15l-.06,0c-.4.06-2.55.43-4.86.79-1.37.22-2.8.43-4,.58l-1.25.14h0c-.34,0-.62.05-.84.05s-.56,0-.94-.05h0l-1.31-.17c-1.08-.13-2.36-.32-3.61-.51L30,48.86c-.21,0-.4-.06-.57-.1l-1.39-.24a1.54,1.54,0,0,0,.4.74,0,0,0,0,0,0,0,11.3,11.3,0,0,0,.74.86c.29.3.6.62.92.93,1,1,2.06,1.91,2.59,2.36l.31.27s0,.09,0,.24,0,.35,0,.59v.28a1.51,1.51,0,0,1,0,.3c0,.65,0,1.46-.06,2.31a5.69,5.69,0,0,1-.12,1A21.35,21.35,0,0,1,31.49,62a.86.86,0,0,1-.07.1s-.06.08-.08.09a2.11,2.11,0,0,1-.24.18A14.44,14.44,0,0,0,47.4,62.55Z" style="fill:#fbd2c5"/><path d="M45.35,58.41a5.59,5.59,0,0,1-.13-1c0-1.12-.06-2.19-.07-2.89a14.13,14.13,0,0,1-5.68,1.32,2.48,2.48,0,0,1-.39,0,2.36,2.36,0,0,1-.38,0A14.09,14.09,0,0,1,33,54.52c0,.7,0,1.77-.08,2.89a5.58,5.58,0,0,1-.12,1c1.81,1.51,4.26,3.07,5.88,3.07a1.87,1.87,0,0,0,.34,0h.09a1.87,1.87,0,0,0,.34,0C41.09,61.48,43.54,59.92,45.35,58.41Z" style="fill:#d29f97"/><path d="M55.16,36c.31-1.73.55-3,.63-3.31s.06-.25.1-.38S56,32,56,31.89s.1-.43.15-.64,0-.2,0-.3.08-.47.12-.71,0-.21,0-.31,0-.42.07-.64,0-.32.05-.47,0-.28,0-.41a15,15,0,0,0-2.67-9.59c-2.59-3.62-5.56-7.46-12-8H36.36c-6.45.53-9.42,4.37-12,8a15,15,0,0,0-2.67,9.59c0,.13,0,.27,0,.41a3.56,3.56,0,0,1,.05.47c0,.22,0,.43.08.64s0,.21,0,.31.08.48.12.71,0,.2.05.3.09.43.15.64l.09.42c0,.13.06.25.1.38s.31,1.57.63,3.28c-1.73-.84-4.12.37-3.83,3.54s4.2,5.13,5.54,5.45a10.24,10.24,0,0,0,.33,1.23c1.17,3,2.6,3.84,5.09,6.25,2.73,2.61,6.75,5.06,8.73,5.05h.43c2,0,6-2.44,8.72-5.05,2.5-2.41,3.92-3.3,5.1-6.25A11.1,11.1,0,0,0,53.44,45c1.3-.29,5.3-2.21,5.59-5.46S56.88,35.11,55.16,36Z" style="fill:#fbd2c5"/><path d="M57.78,37.77a1.89,1.89,0,0,0-2.87-.57,1.64,1.64,0,0,0-.48,1.8c.13.53.68.57.53,1.37a1.39,1.39,0,0,1-.8,1.15,1.73,1.73,0,0,0-.68.73,2,2,0,0,0-.1,1.11c.15.65,1.09.15,1.72-.13a12.88,12.88,0,0,0,2.08-1.65,3.63,3.63,0,0,0,.6-3.81" style="fill:#e9b7ac"/><path d="M20.43,37.77a1.89,1.89,0,0,1,2.87-.57,1.64,1.64,0,0,1,.48,1.8c-.13.53-.68.57-.53,1.37a1.39,1.39,0,0,0,.8,1.15,1.79,1.79,0,0,1,.68.73,2,2,0,0,1,.1,1.11c-.15.65-1.09.15-1.72-.13A12.88,12.88,0,0,1,21,41.58a3.63,3.63,0,0,1-.6-3.81" style="fill:#e9b7ac"/><path d="M17.63,71.31h0v0a.61.61,0,0,0,0,.15h0v0c-.05.31-.1.93-.14,1.65H60.71c0-.72-.09-1.34-.14-1.65a.8.8,0,0,0,0-.19,12,12,0,0,1-.18-1.29H17.81A11.06,11.06,0,0,1,17.63,71.31Z" style="fill:#80414a"/><path d="M60.86,77.89s0-1.22-.07-2.61c0-.7,0-1.43-.08-2.09H17.45c0,.65-.07,1.39-.09,2.09,0,1.39-.06,2.61-.06,2.61,0,.32,0,.65,0,1H60.87C60.87,78.54,60.87,78.21,60.86,77.89Z" style="fill:#fff"/><rect x="22.79" width="12.83" style="fill:#327798"/><polygon points="35.63 0 35.63 0 40.13 0 40.21 0 57.55 0 57.55 0 35.63 0" style="fill:#1d4b5e"/><path d="M57.84,18.11c-2-8.67-15.25-9.94-15.25-9.94a11.32,11.32,0,0,0-6.21-1.82,16.15,16.15,0,0,0-13.52,7C4.47,38,25.12,51.93,25.12,51.93l4.4,2.74S26.3,47.89,26.23,44c-.19-13,7.85-20.58,12.87-24h0A25.65,25.65,0,0,1,43,17.69s-.39,5.92,3.07,8.41S51.55,31,52.31,34a17.33,17.33,0,0,1,.57,8.85A77.65,77.65,0,0,1,49.6,54.25l3.79-2.83s5-4.46,6.86-17.66C61.12,27.73,59.42,25,57.84,18.11Z" style="fill:#faa830"/><path d="M48.47,63l-.1,0c-.37-.17-.7-.32-1-.46a14.44,14.44,0,0,1-16.3-.2,9.31,9.31,0,0,1-1,.52l-.18.07C31.58,64.36,38.86,69.66,48.47,63Z" style="fill:#80414a"/><path d="M59.69,68a7.41,7.41,0,0,0-2-1.7s-.74-.24-1.8-.59h0l-2.39-.8-1-.35c-.86-.31-1.72-.62-2.51-.92-.51-.19-1-.38-1.41-.56-9.61,6.62-16.89,1.32-18.54-.1-.33.15-.69.3-1.09.45-1.11.44-2.44.91-3.7,1.34a2,2,0,0,0-.26.09l-2.56.86h0c-1.05.35-1.76.57-1.78.59A7.41,7.41,0,0,0,18.47,68a3.61,3.61,0,0,0-.66,2.09H60.34A3.67,3.67,0,0,0,59.69,68Z" style="fill:#fff"/><path d="M48.34,37.21a2.9,2.9,0,0,1,0,3.16l-4.9,0a2.91,2.91,0,0,1,0-3.06Z" style="fill:#3a2018;fill-rule:evenodd"/><path d="M47.79,37.74a.7.7,0,1,1-1,.21A.7.7,0,0,1,47.79,37.74Z" style="fill:#fff;fill-rule:evenodd"/><path d="M41.09,36.37a.36.36,0,0,1,.13-.48.34.34,0,0,1,.47.12,1,1,0,0,0,1.24.34c.28-.12.77-.39,1.36-.71,1.62-.89,4-2.19,5.35-2.32a.36.36,0,0,1,.38.32.36.36,0,0,1-.32.38c-1.21.11-3.51,1.37-5.08,2.23-.59.33-1.08.6-1.4.74A1.66,1.66,0,0,1,41.09,36.37Z" style="fill:#3a2018;fill-rule:evenodd"/><path d="M35.37,44c.38-1.18.9-2.34,1.35-3.51h4.06L42.19,44C43,46.09,34.68,46.06,35.37,44Z" style="fill:#3a2018;fill-rule:evenodd"/><path d="M41.79,44.3c-.27,1.33-5.53,1.32-6,0Z" style="fill:#fff;fill-rule:evenodd"/><path d="M36.68,41.5l.34-.81h3.45l.35.81Z" style="fill:#fff;fill-rule:evenodd"/><path d="M29.76,37.21a2.9,2.9,0,0,0,0,3.16l4.9,0a2.91,2.91,0,0,0,0-3.06Z" style="fill:#3a2018;fill-rule:evenodd"/><path d="M33.37,37.74a.7.7,0,0,0-.22,1A.71.71,0,0,0,34.34,38,.7.7,0,0,0,33.37,37.74Z" style="fill:#fff;fill-rule:evenodd"/><path d="M36.41,36a.33.33,0,0,1,.47-.12.34.34,0,0,1,.12.48,1.64,1.64,0,0,1-2.12.62c-.32-.14-.81-.41-1.4-.74C31.9,35.39,29.6,34.13,28.4,34a.35.35,0,0,1-.32-.38.36.36,0,0,1,.38-.32c1.36.13,3.73,1.43,5.35,2.32.59.32,1.08.59,1.35.71A1,1,0,0,0,36.41,36Z" style="fill:#3a2018;fill-rule:evenodd"/><path d="M38.67,35.34a.18.18,0,0,1,.16-.19.19.19,0,0,1,.19.16l.33,4.37a.19.19,0,0,1-.16.19.18.18,0,0,1-.19-.16Z" style="fill:#3a2018;fill-rule:evenodd"/><path d="M37.57,35a.18.18,0,0,1,.17-.17.17.17,0,0,1,.18.17L38,39.84a.17.17,0,0,1-.17.17.18.18,0,0,1-.18-.17Z" style="fill:#3a2018;fill-rule:evenodd"/><path d="M36.43,35.47a.17.17,0,0,1,.17-.18.18.18,0,0,1,.18.17l.08,4.38a.18.18,0,0,1-.17.17.17.17,0,0,1-.18-.17Z" style="fill:#3a2018;fill-rule:evenodd"/><path d="M40,35.57a.17.17,0,0,1,.17-.17.17.17,0,0,1,.18.17l.08,4.27a.18.18,0,0,1-.17.17.17.17,0,0,1-.18-.17Z" style="fill:#3a2018;fill-rule:evenodd"/><path d="M41,35.28a.17.17,0,0,1,.18-.17.18.18,0,0,1,.17.17l-.09,4.56a.17.17,0,0,1-.17.17.18.18,0,0,1-.18-.17Z" style="fill:#3a2018;fill-rule:evenodd"/><path d="M34.89,40.06a.34.34,0,0,1,.34.36.34.34,0,0,1-.36.33,46.57,46.57,0,0,0-6.65.27.35.35,0,0,1-.09-.69A46.5,46.5,0,0,1,34.89,40.06Z" style="fill:#3a2018;fill-rule:evenodd"/><path d="M34.87,36.68a.34.34,0,0,1,.36.34.35.35,0,0,1-.34.36,48.13,48.13,0,0,1-6.76-.27.35.35,0,0,1,.09-.7A46.57,46.57,0,0,0,34.87,36.68Z" style="fill:#3a2018;fill-rule:evenodd"/><path d="M43.18,40.75a.35.35,0,0,1,0-.69,46.66,46.66,0,0,1,6.77.27.35.35,0,1,1-.1.69A46.55,46.55,0,0,0,43.18,40.75Z" style="fill:#3a2018;fill-rule:evenodd"/><path d="M43.16,37.38a.35.35,0,0,1-.33-.36.33.33,0,0,1,.35-.34,46.55,46.55,0,0,0,6.65-.27.35.35,0,0,1,.1.7A48.29,48.29,0,0,1,43.16,37.38Z" style="fill:#3a2018;fill-rule:evenodd"/></g></g></svg>