<svg xmlns="http://www.w3.org/2000/svg" xmlns:xlink="http://www.w3.org/1999/xlink" viewBox="0 0 78.88 78.88"><defs><linearGradient id="Fading_Sky" x1="20.06" y1="71.18" x2="65.34" y2="71.18" gradientUnits="userSpaceOnUse"><stop offset="0" stop-color="#2483c5"/><stop offset="1" stop-color="#2483c5"/></linearGradient></defs><title>graphicsAndMultimedia2LilyTaniguchiSVG</title><g id="Layer_2" data-name="Layer 2"><g id="Layer_2-2" data-name="Layer 2"><rect width="78.88" height="78.88" style="fill:#b44e6b"/><path d="M63.57,20.78C58,8.52,50.83,6.49,42.67,6.44h0c-8.16,0-15.33,2.09-20.91,14.35-4,8.72,2.84,28.82,2.84,28.82a19.61,19.61,0,0,0,7.58,3.31c2.2.5,3.7.76,4.69.88l.22,0c.5.06.85.09,1.08.1h.35l-.24-4.21v0h0l-.1,0a21.1,21.1,0,0,1-4.85-2.3A12.06,12.06,0,0,1,30.23,44c-.1-.21-.2-.41-.28-.62-1.8-4.54-.56-9.56-.07-14l3,.05,0-.22.32-3.22L34,29.08l.08.31,3.16.06-.44-3,1.48,2.88.06.12,2.43,0v0l.72-3.16.34,3.21H43.5l.34-3.21.72,3.16v0l2.43,0,.06-.12,1.48-2.88-.44,3,3.16-.06.08-.31.74-3.15.32,3.22,0,.22,3-.05c.46,4.27,1,9.45-.63,13.92a14.31,14.31,0,0,1-.65,1.51c-.12.24-.25.48-.38.72a13.24,13.24,0,0,1-3,2.62,20.55,20.55,0,0,1-3.65,1.58l-.1,0h0l-.23,4.23h.34c.23,0,.57,0,1.07-.09l.18,0a47.94,47.94,0,0,0,4.75-.88,19.89,19.89,0,0,0,7.58-3.31S67.54,29.51,63.57,20.78Z" style="fill:#3d3d3c"/><path d="M65.38,77.85S65.27,71.57,65,71c-.48-2.19.38-3.19-3-5.3l-1.88-.61h0c-.72-.24-1.59-.52-2.5-.84l-1.07-.36c-.9-.32-1.79-.64-2.62-1-.57-.21-1.11-.42-1.57-.62s-.74-.33-1-.47a3,3,0,0,1-.62-.4l-.08-.09s0-.06-.07-.1a21.72,21.72,0,0,1-1.38-3.71v0a5.28,5.28,0,0,1-.13-1c0-.51,0-1,0-1.47s0-.9,0-1.25v-.3c0-.24,0-.45,0-.61a2.09,2.09,0,0,1,0-.25s.37-.31.9-.78,1.61-1.45,2.43-2.27a9.66,9.66,0,0,0,1.83-2.18,1,1,0,0,0,0-.15h-.06c-.42.06-2.66.45-5.06.83-1.44.22-2.93.45-4.16.6-.48.07-.92.1-1.3.14h0a8.09,8.09,0,0,1-.87.06c-.25,0-.59,0-1-.06h0l-1.36-.17c-1.12-.14-2.46-.33-3.77-.53l-3.29-.53-.6-.11-1.44-.24a1.57,1.57,0,0,0,.41.76,0,0,0,0,0,0,0,11.46,11.46,0,0,0,.76.9c.3.31.63.63,1,1,1,1,2.15,2,2.69,2.46l.33.28a2.09,2.09,0,0,1,0,.25c0,.16,0,.37,0,.61v.3c0,.11,0,.21,0,.31,0,.68,0,1.53-.07,2.41a5.28,5.28,0,0,1-.13,1,21.82,21.82,0,0,1-1.38,3.73s0,.06-.07.1l-.08.09a1.6,1.6,0,0,1-.26.19,11.16,11.16,0,0,1-1,.54c-.38.17-.84.36-1.33.55-1.15.45-2.53.94-3.85,1.39-.09,0-.18.07-.27.09l-2.67.9h0l-1.86.61c-3.35,2.1-2.53,3.1-3,5.26h0v0a.34.34,0,0,0,0,.15v0c-.22,1.13-.31,6.65-.31,6.65,0,.33,0,.68,0,1H65.39C65.39,78.53,65.38,78.18,65.38,77.85Z" style="fill:#fbd2c5"/><path d="M49.21,57.55a5.38,5.38,0,0,1-.13-1c0-1.17-.07-2.29-.08-3a14.5,14.5,0,0,1-5.92,1.39,2.61,2.61,0,0,1-.4,0,2.49,2.49,0,0,1-.4,0,14.55,14.55,0,0,1-5.93-1.39c0,.73,0,1.85-.07,3a6.28,6.28,0,0,1-.13,1c1.88,1.57,4.43,3.2,6.13,3.2a1.94,1.94,0,0,0,.35,0h.09a2.11,2.11,0,0,0,.36,0C44.77,60.75,47.32,59.12,49.21,57.55Z" style="fill:#d29f97"/><path d="M59.43,34.18c.33-1.8.58-3.18.66-3.45s.07-.26.1-.39.07-.3.1-.44.1-.45.15-.67,0-.2.05-.31.1-.49.13-.74,0-.22,0-.33.05-.44.08-.66,0-.34,0-.49,0-.29,0-.43a15.52,15.52,0,0,0-2.79-10C55.34,12.5,52.24,8.5,45.51,7.94H39.84C33.11,8.5,30,12.5,27.32,16.27a15.52,15.52,0,0,0-2.79,10c0,.14,0,.28,0,.43s0,.32.05.49,0,.44.08.66,0,.22,0,.33.09.49.13.74,0,.21.05.31.09.45.16.67.06.28.09.44.06.26.1.39.33,1.64.66,3.43c-1.8-.88-4.29.37-4,3.68s4.38,5.34,5.78,5.68a9.07,9.07,0,0,0,.34,1.28c1.22,3.08,2.7,4,5.31,6.52,2.83,2.72,7,5.27,9.09,5.26h.45C45,56.59,49.16,54,52,51.32c2.61-2.51,4.09-3.44,5.31-6.52a9,9,0,0,0,.34-1.26c1.35-.31,5.52-2.31,5.83-5.7S61.23,33.26,59.43,34.18Z" style="fill:#fbd2c5"/><path d="M62.16,36a2,2,0,0,0-3-.59,1.68,1.68,0,0,0-.5,1.87c.13.55.71.6.56,1.43a1.44,1.44,0,0,1-.84,1.19,2,2,0,0,0-.71.76,2.07,2.07,0,0,0-.1,1.17c.16.67,1.14.15,1.79-.15A13.32,13.32,0,0,0,61.54,40a3.74,3.74,0,0,0,.62-4" style="fill:#e9b7ac"/><path d="M23.24,36a2,2,0,0,1,3-.59,1.7,1.7,0,0,1,.5,1.87c-.14.55-.71.6-.56,1.43A1.46,1.46,0,0,0,27,39.93a1.87,1.87,0,0,1,.71.76,2.17,2.17,0,0,1,.11,1.17c-.16.67-1.14.15-1.79-.15A12.52,12.52,0,0,1,23.86,40a3.72,3.72,0,0,1-.62-4" style="fill:#e9b7ac"/><path d="M61,23.84a31.64,31.64,0,0,0-.89-4.35,15.42,15.42,0,0,0-.8-2.21c-1.85-4-4.58-6.79-10.61-9.21a15.79,15.79,0,0,0-9.46-.86c-1.74,0-3.31,1.29-4.74,1.66C26.4,10.94,23.2,18.11,22.72,19.31l-.07.18a20,20,0,0,0-1,3.61c0,.25-.08.49-.11.74-.74,5.3,0,7.48.57,8.67a8.78,8.78,0,0,1,.64,1.25c.32,1.26,1.33-.13,2,1.2.41.37.29,2.66.62,3.52.59,1.5,2.11.63,2.11.63s-2.71-9.94.72-15.72c2.47-4.16,8.43-1.07,8.94-1.07.1,0,1.14.78,2.63,1.52a10.88,10.88,0,0,0,5.16,1.31,20.14,20.14,0,0,1,8.52,1.15,7.17,7.17,0,0,1,4.43,6.13,32.34,32.34,0,0,1-.35,6.86l.85.64S61,36.12,61,33.76a5.5,5.5,0,0,0,.27-1.25,24,24,0,0,0,.22-2.87A46.62,46.62,0,0,0,61,23.84Zm-.06,9.92c0-.27,0-.09,0,0Z" style="fill:#3d3d3c"/><path d="M61.75,72.5h3.59a9.76,9.76,0,0,0-.19-1.85l0-.14c-.29-1.49,0-2.45-.9-3.59a7.73,7.73,0,0,0-2.16-1.82s-.79-.26-1.93-.64c0,0,0,0,0,0-.58-.19-1.25-.41-2-.66-17.28,16.27-27.52,3.19-30-.3l-.1,0-2.74.94h0l-1.92.64A7.7,7.7,0,0,0,21.08,67c-.74,1.08-.54,2-.81,3.43,0,0,0,.09,0,.14h0v0a.4.4,0,0,0,0,.16v0a15.48,15.48,0,0,0-.15,1.67H23.4l.13.08a28.28,28.28,0,0,0-1.28,6.3H63.07a29.39,29.39,0,0,0-1.32-6.38Z" style="fill:url(#Fading_Sky)"/><path d="M41.21,38.11a.35.35,0,1,1-.62-.32,2.4,2.4,0,0,1,2.32-1.34,2.2,2.2,0,0,1,1.18.4,1.71,1.71,0,0,1,.7,1,2.57,2.57,0,0,1-.88,2.35,3.16,3.16,0,0,1,.88,2.91,1.76,1.76,0,0,1-.62.86,2.15,2.15,0,0,1-.94.41,2.36,2.36,0,0,1-2.34-.92A.35.35,0,0,1,41,43a.36.36,0,0,1,.49.08,1.64,1.64,0,0,0,1.64.64,1.45,1.45,0,0,0,.65-.27,1.13,1.13,0,0,0,.38-.53c.19-.56,0-1.4-1-2.48a.35.35,0,0,1,0-.49c.81-.77,1-1.43.91-1.9a1,1,0,0,0-.43-.6,1.57,1.57,0,0,0-.81-.28A1.75,1.75,0,0,0,41.21,38.11Z" style="fill:#3a2018;fill-rule:evenodd"/><path d="M32.1,37.35A12.77,12.77,0,0,1,38.61,37c2.57.77.76-4.48-4.44-3.86C27.34,34,29.7,38.46,32.1,37.35Z" style="fill:#fff;fill-rule:evenodd"/><path d="M32,37a9.28,9.28,0,0,1,3.17-.62,12.34,12.34,0,0,1,3.59.27c.33.09.53.08.63,0a.58.58,0,0,0,.06-.48,2.39,2.39,0,0,0-.47-1,5,5,0,0,0-4.72-1.71c-2.42.29-3.61,1-4,1.8a1.25,1.25,0,0,0-.14.87,1.28,1.28,0,0,0,.42.69A1.36,1.36,0,0,0,32,37Zm3.21.08a8.77,8.77,0,0,0-2.92.55,2,2,0,0,1-2.88-1.34A2,2,0,0,1,29.57,35c.51-.94,1.87-1.84,4.56-2.16a5.68,5.68,0,0,1,5.36,2,3.23,3.23,0,0,1,.6,1.27,1.18,1.18,0,0,1-.27,1.1,1.24,1.24,0,0,1-1.3.19A11.58,11.58,0,0,0,35.16,37.11Z" style="fill:#3a2018;fill-rule:evenodd"/><path d="M52.77,37.35A12.77,12.77,0,0,0,46.26,37c-2.57.77-.76-4.48,4.44-3.86C57.53,34,55.17,38.46,52.77,37.35Z" style="fill:#fff;fill-rule:evenodd"/><path d="M52.63,37.66a8.77,8.77,0,0,0-2.92-.55,11.48,11.48,0,0,0-3.35.24,1.26,1.26,0,0,1-1.31-.19,1.2,1.2,0,0,1-.27-1.1,3.38,3.38,0,0,1,.6-1.27,5.68,5.68,0,0,1,5.36-2c2.7.32,4,1.22,4.56,2.16a1.94,1.94,0,0,1,.21,1.35,2,2,0,0,1-.66,1.08,2,2,0,0,1-2.22.26Zm-2.88-1.25a9.23,9.23,0,0,1,3.17.62,1.36,1.36,0,0,0,1.48-.17,1.22,1.22,0,0,0,.42-.69,1.2,1.2,0,0,0-.14-.87c-.41-.76-1.59-1.51-4-1.8a5,5,0,0,0-4.72,1.71,2.39,2.39,0,0,0-.47,1,.54.54,0,0,0,.07.48c.09.1.3.11.62,0A12.34,12.34,0,0,1,49.75,36.41Z" style="fill:#3a2018;fill-rule:evenodd"/><path d="M34.93,34.68c1.46-2.82,2.58,1,0,2C32.12,36,33,31.93,34.93,34.68Z" style="fill:#cb4f41;fill-rule:evenodd"/><path d="M50.27,34.79c-1.45-2.82-2.58,1,0,2C53.08,36.09,52.2,32,50.27,34.79Z" style="fill:#cb4f41;fill-rule:evenodd"/><path d="M32.23,40.81a.26.26,0,0,1-.44-.29,3.4,3.4,0,0,1,.79-.79,4.63,4.63,0,0,1,1.07-.55.28.28,0,0,1,.34.17.27.27,0,0,1-.16.33,3.29,3.29,0,0,0-.94.48A2.68,2.68,0,0,0,32.23,40.81Z" style="fill:#dc98ab;fill-rule:evenodd"/><path d="M36.85,40.9a.26.26,0,0,1-.41-.33l0,0a3.94,3.94,0,0,1,1.44-1.18.27.27,0,0,1,.35.13.26.26,0,0,1-.13.34,3.32,3.32,0,0,0-1.24,1Z" style="fill:#dc98ab;fill-rule:evenodd"/><path d="M34.57,41a.25.25,0,0,1-.35.1.26.26,0,0,1-.1-.36,3.22,3.22,0,0,1,.72-.82,2.77,2.77,0,0,1,.89-.53.27.27,0,0,1,.34.15.26.26,0,0,1-.16.34,2.42,2.42,0,0,0-.74.44A3.17,3.17,0,0,0,34.57,41Z" style="fill:#dc98ab;fill-rule:evenodd"/><path d="M47.57,40.81a.26.26,0,0,1-.44-.29,3.4,3.4,0,0,1,.79-.79A4.84,4.84,0,0,1,49,39.18a.28.28,0,0,1,.34.17.26.26,0,0,1-.16.33,3.43,3.43,0,0,0-.94.48A2.68,2.68,0,0,0,47.57,40.81Z" style="fill:#dc98ab;fill-rule:evenodd"/><path d="M52.19,40.9a.26.26,0,0,1-.41-.33l0,0a3.94,3.94,0,0,1,1.44-1.18.27.27,0,0,1,.35.13.26.26,0,0,1-.13.34,3.32,3.32,0,0,0-1.24,1Z" style="fill:#dc98ab;fill-rule:evenodd"/><path d="M49.91,41a.25.25,0,0,1-.35.1.26.26,0,0,1-.1-.36,3.22,3.22,0,0,1,.72-.82,2.88,2.88,0,0,1,.89-.53.27.27,0,0,1,.34.15.26.26,0,0,1-.16.34,2.42,2.42,0,0,0-.74.44A3.17,3.17,0,0,0,49.91,41Z" style="fill:#dc98ab;fill-rule:evenodd"/></g></g></svg>