<svg xmlns="http://www.w3.org/2000/svg" viewBox="0 0 78.88 78.88"><title>graphicsAndMultimedia10LilyOkabeSVG</title><g id="Layer_2" data-name="Layer 2"><g id="Layer_2-2" data-name="Layer 2"><rect width="78.88" height="78.88" style="fill:#0d98ba"/><path d="M40.5,70.44c2.89,0,6.12-1.8,9.33-7.33l-.27-.1c-.38-.17-.71-.32-1-.46l-.07,0a3.36,3.36,0,0,1-.64-.36l-.07-.09-.08-.1a20.49,20.49,0,0,1-1.32-3.56h0a4.9,4.9,0,0,1-.13-1c0-.48,0-1,0-1.41s0-.86,0-1.2v-.28c0-.24,0-.44,0-.59s0-.24,0-.24l.86-.75c.64-.57,1.55-1.4,2.34-2.18a9.46,9.46,0,0,0,1.75-2.09,1,1,0,0,0,0-.15l-.06,0c-.4.06-2.55.43-4.86.79-1.37.22-2.81.43-4,.58L41,50.05h0c-.34,0-.63.05-.84.05s-.56,0-.95-.05h0l-1.31-.17c-1.08-.13-2.36-.32-3.61-.51l-3.16-.51c-.21,0-.4-.06-.57-.1l-1.39-.24a1.54,1.54,0,0,0,.4.74,0,0,0,0,0,0,0,11.3,11.3,0,0,0,.74.86c.29.3.6.62.92.93,1,1,2.06,1.91,2.59,2.36l.31.27s0,.09,0,.24,0,.35,0,.59v.28c0,.1,0,.2,0,.3,0,.65,0,1.46-.06,2.31a4.9,4.9,0,0,1-.13,1A20.72,20.72,0,0,1,32.56,62a.86.86,0,0,1-.07.1l-.08.09a2.11,2.11,0,0,1-.24.18,6.6,6.6,0,0,1-.88.52l-.78.33C31.72,65.05,35.62,70.39,40.5,70.44Z" style="fill:#fbd2c5"/><path d="M46.42,58.41a4.81,4.81,0,0,1-.13-1c0-1.12-.06-2.19-.07-2.89a14.16,14.16,0,0,1-5.68,1.32,2.48,2.48,0,0,1-.39,0,2.3,2.3,0,0,1-.38,0,14.09,14.09,0,0,1-5.68-1.32c0,.7,0,1.77-.08,2.89a5.58,5.58,0,0,1-.12,1c1.81,1.51,4.26,3.07,5.88,3.07a1.79,1.79,0,0,0,.34,0h.08a1.9,1.9,0,0,0,.35,0C42.16,61.48,44.61,59.92,46.42,58.41Z" style="fill:#d29f97"/><path d="M56.22,36c.32-1.73.56-3,.64-3.31s.06-.25.1-.38S57,32,57,31.89s.1-.43.15-.64,0-.2.05-.3.09-.47.13-.71,0-.21,0-.31.05-.42.07-.64,0-.32.05-.47,0-.28,0-.41a14.9,14.9,0,0,0-2.68-9.59c-2.58-3.62-5.55-7.46-12-8H37.43c-6.46.53-9.43,4.37-12,8a14.83,14.83,0,0,0-2.67,9.59c0,.13,0,.27,0,.41a3.56,3.56,0,0,1,.05.47c0,.22,0,.43.08.64l0,.31c0,.24.09.48.13.71s0,.2.05.3.09.43.15.64.06.27.09.42.06.25.1.38.31,1.57.62,3.28c-1.72-.84-4.11.37-3.83,3.54s4.21,5.13,5.55,5.45a8.6,8.6,0,0,0,.33,1.23c1.17,3,2.59,3.84,5.09,6.25,2.72,2.61,6.74,5.06,8.73,5.05h.42c2,0,6-2.44,8.73-5.05,2.5-2.41,3.92-3.3,5.09-6.25A8.76,8.76,0,0,0,54.51,45c1.29-.29,5.29-2.21,5.59-5.46S58,35.11,56.22,36Z" style="fill:#fbd2c5"/><path d="M58.84,37.77A1.89,1.89,0,0,0,56,37.2a1.64,1.64,0,0,0-.48,1.8c.13.53.69.57.54,1.37a1.41,1.41,0,0,1-.8,1.15,1.73,1.73,0,0,0-.68.73,2,2,0,0,0-.1,1.11c.15.65,1.09.15,1.72-.13a12.81,12.81,0,0,0,2.07-1.65,3.58,3.58,0,0,0,.6-3.81" style="fill:#e9b7ac"/><path d="M21.5,37.77a1.89,1.89,0,0,1,2.87-.57,1.64,1.64,0,0,1,.48,1.8c-.13.53-.68.57-.54,1.37a1.42,1.42,0,0,0,.81,1.15,1.79,1.79,0,0,1,.68.73,2,2,0,0,1,.1,1.11c-.15.65-1.1.15-1.72-.13a12.88,12.88,0,0,1-2.08-1.65,3.6,3.6,0,0,1-.6-3.81" style="fill:#e9b7ac"/><path d="M27.26,64.37l-1.05.36c-.09,0-.18.06-.27.09l-2.56.86h0c-1.05.35-1.76.57-1.78.59-3.23,2-2.44,3-2.89,5h0v0a1.27,1.27,0,0,0,0,.15h0c-.21,1.09-.3,6.38-.3,6.38v1h4.43c.09-1,.23-2.53.37-3.34C23.73,72,26.93,71,27.26,64.37Z" style="fill:#fbd2c5"/><path d="M57.55,78.88h4.39c0-.34,0-.67,0-1,0,0-.1-6-.34-6.54-.46-2.1.36-3.06-2.88-5.08,0,0-.74-.24-1.8-.59h0l-2.39-.8-1-.35-.37-.14C53.42,71,56.61,72,57.18,75.54,57.32,76.35,57.46,77.85,57.55,78.88Z" style="fill:#fbd2c5"/><path d="M57.18,75.54a9.52,9.52,0,0,0-1.73-3.79A13.12,13.12,0,0,1,53.24,66c-.07-.49-.12-1-.15-1.57l-.94-.33L51,63.63l0,0-1.24-.49c-3,5.22-6.08,7.15-8.84,7.32H40.5a9,9,0,0,1-5.29-2.06,21.24,21.24,0,0,1-4.7-5.18l-.49.19H29.9c-.52.21-1.11.42-1.7.64l-.94.34C26.93,71,23.73,72,23.16,75.54c-.14.81-.28,2.31-.37,3.34H57.55C57.46,77.85,57.32,76.35,57.18,75.54Z" style="fill:#f07068"/><circle cx="25.11" cy="44.72" r="1.42" style="fill:#3d3d3c"/><path d="M56.17,44.72a1.43,1.43,0,1,1-1.42-1.42A1.42,1.42,0,0,1,56.17,44.72Z" style="fill:#3d3d3c"/><path d="M57.49,17.08c-1.52-2.37-1.63-1.7-1.63-1.7s1.53-6.48-8-7.92a21.5,21.5,0,0,0-3.72-.11l1.29,1.33A26.24,26.24,0,0,0,33.89,8c-4.79.76-8.06,3.16-10.77,7.07a17.53,17.53,0,0,0-2.37,6.48l2.47-3.36a17,17,0,0,0-2.47,11.35c1.46,11.3,6.61,13.39,6.61,13.39s-3.54-10.29-1.2-14.68c3.93-7.37,24.91-5.28,29,1,1.49,2.31-.76,11.09-.76,11.09a10.69,10.69,0,0,0,2.72-1.53c2.43-3.08,2.06-10.11,2.06-13S58.64,18.89,57.49,17.08Z" style="fill:#3d3d3c"/><path d="M38.12,38.81a.85.85,0,0,1-.06.17l.1-.15Z" style="fill:#0e151a;opacity:0.4"/><path d="M38.12,38.81a.85.85,0,0,1-.06.17l.1-.15Z" style="fill:#e8e9e7;opacity:0.55"/><path d="M43.3,40.32c.09.13.18.25.28.37-.09-.13-.18-.25-.26-.38Z" style="fill:#0e151a;opacity:0.4"/><path d="M43.3,40.32c.09.13.18.25.28.37-.09-.13-.18-.25-.26-.38Z" style="fill:#e8e9e7;opacity:0.55"/><path d="M29.57,37.2l5.11,1.95a3.11,3.11,0,0,1-1,2.74l-4.38-.31A3.11,3.11,0,0,1,29.57,37.2Z" style="fill:#3a2018;fill-rule:evenodd"/><path d="M33.43,38.19A1.18,1.18,0,1,1,32,39,1.17,1.17,0,0,1,33.43,38.19Z" style="fill:#fff;fill-rule:evenodd"/><path d="M30,40.21a.56.56,0,1,1-.69.4A.57.57,0,0,1,30,40.21Z" style="fill:#fff;fill-rule:evenodd"/><path d="M33.7,41.54A.36.36,0,0,1,34,42a.35.35,0,0,1-.41.28A25.1,25.1,0,0,0,30.69,42a11.75,11.75,0,0,0-2.1.11.35.35,0,0,1-.13-.69,13.35,13.35,0,0,1,2.24-.12A26.79,26.79,0,0,1,33.7,41.54Z" style="fill:#3a2018;fill-rule:evenodd"/><path d="M27.89,36.85a.36.36,0,0,1-.2-.46.36.36,0,0,1,.46-.19l6.66,2.63a.35.35,0,0,1,.2.45.36.36,0,0,1-.46.2Z" style="fill:#3a2018;fill-rule:evenodd"/><path d="M37,36.29a.52.52,0,0,1,.39,1l-.44.19c-1.13.5-1.48.65-3.28-.49l-6.34-4a.53.53,0,0,1,.56-.89l6.34,4c1.33.85,1.56.75,2.3.42Z" style="fill:#3a2018;fill-rule:evenodd"/><path d="M50.76,37.2l-5.11,1.95a3.11,3.11,0,0,0,1,2.74l4.38-.31A3.11,3.11,0,0,0,50.76,37.2Z" style="fill:#3a2018;fill-rule:evenodd"/><path d="M46.9,38.19a1.17,1.17,0,1,0,1.43.83A1.17,1.17,0,0,0,46.9,38.19Z" style="fill:#fff;fill-rule:evenodd"/><path d="M50.29,40.21a.56.56,0,1,0,.69.4A.57.57,0,0,0,50.29,40.21Z" style="fill:#fff;fill-rule:evenodd"/><path d="M46.75,42.23a.34.34,0,0,1-.4-.28.35.35,0,0,1,.28-.41,26.79,26.79,0,0,1,3-.2,13.35,13.35,0,0,1,2.24.12.35.35,0,1,1-.13.69,11.75,11.75,0,0,0-2.1-.11A25.34,25.34,0,0,0,46.75,42.23Z" style="fill:#3a2018;fill-rule:evenodd"/><path d="M52.18,36.2a.35.35,0,0,1,.26.65l-6.66,2.63a.36.36,0,0,1-.46-.2.35.35,0,0,1,.2-.45Z" style="fill:#3a2018;fill-rule:evenodd"/><path d="M43,37.26a.52.52,0,1,1,.39-1l.47.2c.74.33,1,.43,2.29-.42l6.34-4a.53.53,0,0,1,.73.17.53.53,0,0,1-.16.72l-6.34,4c-1.8,1.14-2.15,1-3.28.49Z" style="fill:#3a2018;fill-rule:evenodd"/><path d="M36.66,41.09c.41.54.79.93,1.69,0,.73,1,.77,1,1.89,0,.73.91.83,1,1.69,0,1,.77,1.06.76,1.92-.07.31,1.11.63,2.22.93,3.34.37,1.42-.11,1.53-1.25,1.54l-6.19,0c-1.37,0-1.86-.22-1.49-1.63Z" style="fill:#3a2018;fill-rule:evenodd"/><path d="M43.53,45.47l-6.19,0c-.2,0-.94.09-.94-.18,0-3.07,7.83-3.08,7.83,0C44.23,45.56,43.71,45.47,43.53,45.47Z" style="fill:#cb4f41;fill-rule:evenodd"/><path d="M36.19,40.94a.26.26,0,0,1,0-.36.26.26,0,0,1,.37.05,3.94,3.94,0,0,0,.57.6.53.53,0,0,0,.27.16.79.79,0,0,0,.28-.1,3.14,3.14,0,0,0,.44-.38.26.26,0,0,1,.37,0l0,0c.31.42.47.64.58.64s.4-.21.91-.67a.26.26,0,0,1,.37,0l0,0c.31.39.49.6.6.61s.32-.18.69-.58a.27.27,0,0,1,.35,0c.23.17.41.31.55.39a.6.6,0,0,0,.27.11c.07,0,.19-.07.35-.19a7.53,7.53,0,0,0,.64-.56.26.26,0,1,1,.36.37,8.87,8.87,0,0,1-.68.61,1.21,1.21,0,0,1-.68.3,1.1,1.1,0,0,1-.53-.19,4.68,4.68,0,0,1-.42-.29c-.39.4-.64.59-.93.57s-.5-.22-.81-.6c-.49.43-.77.63-1.07.62s-.52-.22-.82-.62a2,2,0,0,1-.33.25,1.08,1.08,0,0,1-.52.18,1,1,0,0,1-.63-.27A4.12,4.12,0,0,1,36.19,40.94Z" style="fill:#3a2018;fill-rule:evenodd"/><path d="M31.23,43c-3.3.11-3.23,2.63.07,2.51S34.53,42.91,31.23,43Z" style="fill:#dc98ab;fill-rule:evenodd"/><path d="M49.73,43.14c3.29.11,3.23,2.63-.07,2.51S46.43,43,49.73,43.14Z" style="fill:#dc98ab;fill-rule:evenodd"/></g></g></svg>