<svg xmlns="http://www.w3.org/2000/svg" viewBox="0 0 78.88 78.88"><title>graphicsAndMultimedia6AbigailMoriSVG</title><g id="Layer_2" data-name="Layer 2"><g id="Layer_2-2" data-name="Layer 2"><rect width="78.88" height="78.88" style="fill:#b44e6b"/><path d="M60.22,22.79c-.25-.79-.51-1.53-.78-2.24v-.31c0-3-2.44-6.88-6.33-10.65s-6.33-3-9.55-2.89a.32.32,0,0,0,0,.06c-1.41-.33-9-2-13.53-.15-5,2-9.09,5.43-12,14.64s-.51,16.76,0,20c1.77,10.2,10.28,16.66,10.28,16.66a22.77,22.77,0,0,1-3.11-5.44,30.63,30.63,0,0,1-1.07-3.68c3.35,4,9.08,6.63,15.59,6.63a20.91,20.91,0,0,0,14.35-5.32A34.08,34.08,0,0,1,53,54a22.6,22.6,0,0,1-3.11,5.43S58.4,53,60.17,42.77C60.73,39.55,63.1,32,60.22,22.79Z" style="fill:#f9f9f9"/><path d="M61.68,77.89s-.1-6-.33-6.54c-.47-2.1.36-3.06-2.89-5.08,0,0-.73-.24-1.8-.59h0l-2.4-.8c-.34-.12-.67-.24-1-.35-.87-.31-1.72-.62-2.51-.92L49.2,63c-.38-.17-.71-.32-1-.46a2.4,2.4,0,0,1-.59-.38s0-.05-.08-.09a.86.86,0,0,1-.07-.1,21.11,21.11,0,0,1-1.33-3.56h0a5.69,5.69,0,0,1-.12-1c0-.48,0-1,0-1.41s0-.86,0-1.2v-.28c0-.24,0-.44,0-.59s0-.24,0-.24l.86-.75c.64-.57,1.55-1.39,2.33-2.18a9.18,9.18,0,0,0,1.75-2.09.49.49,0,0,0,0-.15l-.06,0c-.4.06-2.55.43-4.86.79-1.37.22-2.81.43-4,.58l-1.25.14h0c-.33,0-.62.05-.83.05s-.56,0-.95-.05h0l-1.31-.17c-1.07-.13-2.36-.32-3.6-.51l-3.16-.51-.58-.1-1.38-.24a1.54,1.54,0,0,0,.4.74,0,0,0,0,0,0,0c.19.25.44.54.73.86s.6.62.93.93C32,52,33,53,33.55,53.42l.32.27a2,2,0,0,1,0,.24c0,.15,0,.35,0,.59v.28c0,.1,0,.2,0,.3,0,.65,0,1.46-.06,2.31a5.71,5.71,0,0,1-.13,1A20.72,20.72,0,0,1,32.32,62l-.08.1a.76.76,0,0,0-.07.09l-.25.18a9.31,9.31,0,0,1-1,.52c-.37.16-.8.34-1.27.52-1.11.44-2.43.91-3.7,1.34a2.67,2.67,0,0,0-.26.09l-2.56.86h0c-1.05.35-1.76.57-1.79.59-3.22,2-2.43,3-2.88,5h0v0a.48.48,0,0,0,0,.15h0c-.21,1.09-.3,6.38-.3,6.38,0,.32,0,.65,0,1H61.69C61.69,78.54,61.69,78.21,61.68,77.89Z" style="fill:#fbd2c5"/><path d="M46.17,58.41a5.58,5.58,0,0,1-.12-1c0-1.12-.06-2.19-.08-2.89a14.09,14.09,0,0,1-5.68,1.32,3.62,3.62,0,0,1-.76,0,14.17,14.17,0,0,1-5.69-1.32c0,.7,0,1.77-.07,2.89a4.81,4.81,0,0,1-.13,1c1.81,1.51,4.26,3.07,5.89,3.07a1.79,1.79,0,0,0,.34,0H40a1.79,1.79,0,0,0,.34,0C41.91,61.48,44.36,59.92,46.17,58.41Z" style="fill:#d29f97"/><path d="M56,36c.31-1.73.56-3,.63-3.31s.07-.25.1-.38.07-.28.09-.42.1-.43.15-.64,0-.2,0-.3.09-.47.12-.71,0-.21,0-.31.05-.42.08-.64a3.56,3.56,0,0,1,0-.47c0-.14,0-.28,0-.41a14.89,14.89,0,0,0-2.67-9.59c-2.58-3.62-5.56-7.46-12-8H37.19c-6.46.53-9.43,4.37-12,8a15,15,0,0,0-2.67,9.59c0,.13,0,.27,0,.41s0,.31,0,.47,0,.43.07.64,0,.21,0,.31.09.48.12.71,0,.2.05.3.09.43.15.64.07.27.09.42.06.25.1.38.32,1.57.63,3.28c-1.72-.84-4.11.37-3.83,3.54s4.21,5.13,5.55,5.45a10.82,10.82,0,0,0,.32,1.23c1.18,3,2.6,3.84,5.1,6.25,2.72,2.61,6.74,5.06,8.72,5.05h.43c2,0,6-2.44,8.73-5.05,2.49-2.41,3.92-3.3,5.09-6.25.08-.21.19-.64.33-1.22,1.29-.29,5.29-2.21,5.59-5.46S57.71,35.11,56,36Z" style="fill:#fbd2c5"/><path d="M58.6,37.77a1.89,1.89,0,0,0-2.87-.57,1.64,1.64,0,0,0-.48,1.8c.13.53.68.57.54,1.37A1.42,1.42,0,0,1,55,41.52a1.79,1.79,0,0,0-.68.73,2,2,0,0,0-.1,1.11c.15.65,1.1.15,1.72-.13A12.88,12.88,0,0,0,58,41.58a3.6,3.6,0,0,0,.6-3.81" style="fill:#e9b7ac"/><path d="M21.26,37.77a1.89,1.89,0,0,1,2.87-.57,1.64,1.64,0,0,1,.48,1.8c-.13.53-.68.57-.54,1.37a1.41,1.41,0,0,0,.8,1.15,1.73,1.73,0,0,1,.68.73,2,2,0,0,1,.1,1.11c-.15.65-1.09.15-1.72-.13a12.81,12.81,0,0,1-2.07-1.65,3.6,3.6,0,0,1-.6-3.81" style="fill:#e9b7ac"/><path d="M27,45.6a1.49,1.49,0,1,1-1.49-1.49A1.48,1.48,0,0,1,27,45.6Z" style="fill:#332e2b"/><path d="M55.9,45.6a1.49,1.49,0,1,1-1.49-1.49A1.48,1.48,0,0,1,55.9,45.6Z" style="fill:#332e2b"/><path d="M31.71,59.07c-1.14,3.31-5.52,5.29-6.18,5.57l-.16,0c-.09,0-.18.07-.27.09-1,.33-1.92.63-2.67.87h0c-1.09.35-1.83.57-1.86.58-3.36,2-2.54,3-3,5.06h0v0a.3.3,0,0,0,0,.15h0A12.87,12.87,0,0,0,17.36,73h6.19a25.42,25.42,0,0,0-1.27,5.85H38V65.38A6.31,6.31,0,0,0,31.71,59.07Z" style="fill:#227780"/><path d="M48.55,59.07c1.14,3.31,5.52,5.29,6.18,5.57l.16,0c.09,0,.18.07.27.09,1,.33,1.92.63,2.67.87h0c1.09.35,1.83.57,1.86.58,3.35,2,2.54,3,3,5.06h0v0a.3.3,0,0,1,0,.15h0A12.87,12.87,0,0,1,62.9,73H56.71A25.42,25.42,0,0,1,58,78.88H42.29V65.38A6.31,6.31,0,0,1,48.55,59.07Z" style="fill:#227780"/><path d="M29.82,64.53A1.85,1.85,0,1,1,28,62.68,1.85,1.85,0,0,1,29.82,64.53Z" style="fill:#f9f9f9"/><path d="M31.61,67.75a1.85,1.85,0,1,1-1.85-1.85A1.85,1.85,0,0,1,31.61,67.75Z" style="fill:#be1e2d"/><path d="M33.84,70.7A1.85,1.85,0,1,1,32,68.85,1.85,1.85,0,0,1,33.84,70.7Z" style="fill:#f9f9f9"/><path d="M36.65,73.09a1.85,1.85,0,1,1-1.85-1.85A1.85,1.85,0,0,1,36.65,73.09Z" style="fill:#be1e2d"/><circle cx="38.25" cy="74.47" r="1.85" style="fill:#f9f9f9"/><path d="M42,71.92a1.85,1.85,0,1,1-1.85,1.84A1.84,1.84,0,0,1,42,71.92Z" style="fill:#be1e2d"/><path d="M45.17,70.13A1.85,1.85,0,1,1,43.32,72,1.85,1.85,0,0,1,45.17,70.13Z" style="fill:#f9f9f9"/><path d="M48.12,67.89a1.85,1.85,0,1,1-1.85,1.85A1.85,1.85,0,0,1,48.12,67.89Z" style="fill:#be1e2d"/><path d="M50.51,65.08a1.85,1.85,0,1,1-1.85,1.85A1.85,1.85,0,0,1,50.51,65.08Z" style="fill:#f9f9f9"/><path d="M51.89,61.63A1.85,1.85,0,1,1,50,63.48,1.85,1.85,0,0,1,51.89,61.63Z" style="fill:#be1e2d"/><path d="M53.87,14.68a26.67,26.67,0,0,0-9.32-6l1.54,1.45a17.36,17.36,0,0,0-5.3-2.56,8.69,8.69,0,0,0-6.42.14,5.56,5.56,0,0,1,3,.74c-1-.43-2.68-.58-5.51.59-5.55,2.3-5.45,6.41-9.31,7.67s-2.6,2-2.6,2-.78.58,2.27.58h.54a27.45,27.45,0,0,0-1.36,5.44c-.22,2.38.48,4,.69,8.44.19,3.8,1.19,1.85,2.38,4.65a6.08,6.08,0,0,1,.42,2c.44.11,1.6-2.28.77-6.43-.54-2.69,2.14-12.9,8.6-10.91A12,12,0,0,1,36,23.1c-6.17,6.18-2.34,15-2.34,15-.15-7.42,6.1-12.39,8-13.74.18-.11.37-.23.57-.38a11.93,11.93,0,0,1,3.57-1.82,10.1,10.1,0,0,1,1,6.22A12,12,0,0,0,48.39,22c1.57,1.67,4.36,5.37,3.58,9.9a11.83,11.83,0,0,0,1.57-6.74,13.57,13.57,0,0,1,1.14,7.6c-.59,6.88.52,6.83.52,6.83.33,0,0-1.83,1.09-3.1s2.8-5.51,2.8-9.76S57.64,18.69,53.87,14.68Z" style="fill:#f9f9f9"/><path d="M30.65,38.06A2.35,2.35,0,0,0,33,40.5a2.42,2.42,0,0,0,2.53-2.32A13.79,13.79,0,0,0,30.65,38.06Z" style="fill:#3a2018;fill-rule:evenodd"/><path d="M34.47,37.56a.79.79,0,0,0-1,.4.8.8,0,1,0,1.46.65A.79.79,0,0,0,34.47,37.56Z" style="fill:#fff;fill-rule:evenodd"/><path d="M35.56,37.77a.35.35,0,1,1-.19.67,12.09,12.09,0,0,0-5.32-.12.35.35,0,0,1-.42-.27.36.36,0,0,1,.28-.41A12.77,12.77,0,0,1,35.56,37.77Z" style="fill:#3a2018;fill-rule:evenodd"/><path d="M49.17,38.06a2.35,2.35,0,0,1-2.32,2.44,2.43,2.43,0,0,1-2.53-2.32A13.84,13.84,0,0,1,49.17,38.06Z" style="fill:#3a2018;fill-rule:evenodd"/><path d="M47.56,37.56a.8.8,0,0,1,1.06.4.8.8,0,1,1-1.46.65A.79.79,0,0,1,47.56,37.56Z" style="fill:#fff;fill-rule:evenodd"/><path d="M44.44,38.44a.35.35,0,0,1-.19-.67,12.82,12.82,0,0,1,5.66-.13.34.34,0,0,1,.27.41.35.35,0,0,1-.41.27A12.13,12.13,0,0,0,44.44,38.44Z" style="fill:#3a2018;fill-rule:evenodd"/><path d="M30,34.69a.54.54,0,0,1-.72-.2.53.53,0,0,1,.2-.72,8.21,8.21,0,0,1,3-1.08,6.19,6.19,0,0,1,4,.81.52.52,0,0,1-.51.91,5.2,5.2,0,0,0-3.31-.68A7.13,7.13,0,0,0,30,34.69Z" style="fill:#3a2018;fill-rule:evenodd"/><path d="M50.38,33.78a.52.52,0,0,1-.52.9,7.22,7.22,0,0,0-2.54-1,5,5,0,0,0-3.26.68.54.54,0,0,1-.72-.2.52.52,0,0,1,.2-.71,6.07,6.07,0,0,1,3.92-.81A7.94,7.94,0,0,1,50.38,33.78Z" style="fill:#3a2018;fill-rule:evenodd"/><path d="M39.71,44.13c-4.88,0-5.21-4.34-3.27-3.59a10.14,10.14,0,0,0,6.53,0C44.92,39.79,44.58,44.13,39.71,44.13Z" style="fill:#cb4f41;fill-rule:evenodd"/><path d="M39.71,44.48c-2.39,0-3.77-1-4.37-2A2.41,2.41,0,0,1,35,41.33a1.26,1.26,0,0,1,.34-1,1.13,1.13,0,0,1,1.24-.16,9.74,9.74,0,0,0,6.28,0,1.11,1.11,0,0,1,1.23.16,1.23,1.23,0,0,1,.35,1,2.44,2.44,0,0,1-.36,1.14c-.59,1-2,2-4.36,2Zm-3.77-2.36c.5.83,1.68,1.66,3.77,1.66S43,43,43.47,42.12a1.66,1.66,0,0,0,.26-.81.57.57,0,0,0-.13-.44c-.09-.08-.26-.1-.5,0a10.37,10.37,0,0,1-6.78,0c-.25-.09-.42-.07-.51,0a.61.61,0,0,0-.13.44A1.77,1.77,0,0,0,35.94,42.12Z" style="fill:#3a2018;fill-rule:evenodd"/><path d="M47.42,40.51c-3.47.11-3.4,2.41.07,2.31S50.88,40.41,47.42,40.51Z" style="fill:#dc98ab;fill-rule:evenodd"/><path d="M32,40.51c3.46.11,3.39,2.41-.07,2.31S28.5,40.41,32,40.51Z" style="fill:#dc98ab;fill-rule:evenodd"/><path d="M39,33.17s-1.58,2.46-.35,3.29S40.1,34.53,39,33.17Z" style="fill:#a6d2f0;fill-rule:evenodd"/><path d="M38.62,33.36a.26.26,0,0,1,.35-.11.27.27,0,0,1,.11.36A2.87,2.87,0,0,0,38.63,36a.54.54,0,0,0,.28.31.26.26,0,0,0,.25,0c.19-.13.32-.47.31-1a.26.26,0,0,1,.25-.26.25.25,0,0,1,.27.25,1.67,1.67,0,0,1-.52,1.46.78.78,0,0,1-.75.11,1.07,1.07,0,0,1-.57-.59A3.37,3.37,0,0,1,38.62,33.36Z" style="fill:#3a2018;fill-rule:evenodd"/></g></g></svg>