<svg xmlns="http://www.w3.org/2000/svg" viewBox="0 0 78.88 78.88"><title>graphicsAndMultimedia9ChloeSaitoSVG</title><g id="Layer_2" data-name="Layer 2"><g id="Layer_2-2" data-name="Layer 2"><rect width="78.88" height="78.88" style="fill:#a86a72"/><path d="M60.52,77.89s-.1-6-.33-6.54c-.47-2.1.36-3.06-2.89-5.08,0,0-.73-.24-1.8-.59h0l-2.4-.8c-.33-.12-.67-.24-1-.35-.86-.31-1.72-.62-2.51-.92L48,63c-.38-.17-.71-.32-1-.46a2.4,2.4,0,0,1-.59-.38s0-.05-.08-.09a.86.86,0,0,1-.07-.1A21.11,21.11,0,0,1,45,58.42h0a5.69,5.69,0,0,1-.12-1c0-.48,0-1,0-1.41s0-.86,0-1.2v-.28c0-.24,0-.44,0-.59s0-.24,0-.24l.86-.75c.64-.57,1.55-1.4,2.34-2.18a9.06,9.06,0,0,0,1.74-2.09.49.49,0,0,0,0-.15l-.06,0c-.4.06-2.55.43-4.86.79-1.37.22-2.81.43-4,.58l-1.25.14h0c-.34,0-.63.05-.84.05s-.56,0-1-.05h0l-1.32-.17c-1.07-.13-2.36-.32-3.6-.51l-3.16-.51-.58-.1-1.38-.24a1.54,1.54,0,0,0,.4.74,0,0,0,0,0,0,0,11.3,11.3,0,0,0,.74.86c.28.3.6.62.92.93,1,1,2.06,1.91,2.58,2.36l.32.27a2,2,0,0,1,0,.24c0,.15,0,.35,0,.59v.28c0,.1,0,.2,0,.3,0,.65,0,1.46-.06,2.31a5.71,5.71,0,0,1-.13,1A20.72,20.72,0,0,1,31.16,62l-.08.1-.07.09-.24.18a9.63,9.63,0,0,1-1,.52c-.37.16-.8.34-1.27.52-1.11.44-2.43.91-3.7,1.34l-.26.09L22,65.68h0c-1,.35-1.76.57-1.79.59-3.22,2-2.43,3-2.88,5h0v0a.48.48,0,0,0,0,.15h0c-.21,1.09-.3,6.38-.3,6.38,0,.32,0,.65,0,1H60.54C60.53,78.54,60.53,78.21,60.52,77.89Z" style="fill:#fbd2c5"/><path d="M45,58.41a5.58,5.58,0,0,1-.12-1c0-1.12-.06-2.19-.08-2.89a14.09,14.09,0,0,1-5.68,1.32,3.62,3.62,0,0,1-.76,0,14.17,14.17,0,0,1-5.69-1.32c0,.7,0,1.77-.07,2.89a5.58,5.58,0,0,1-.12,1c1.81,1.51,4.25,3.07,5.88,3.07a1.79,1.79,0,0,0,.34,0h.08a1.79,1.79,0,0,0,.34,0C40.76,61.48,43.2,59.92,45,58.41Z" style="fill:#d29f97"/><path d="M54.82,36c.32-1.73.56-3,.63-3.31s.07-.25.1-.38.07-.28.09-.42.1-.43.15-.64,0-.2.05-.3.09-.47.13-.71l0-.31c0-.21,0-.42.08-.64a3.56,3.56,0,0,1,.05-.47c0-.14,0-.28,0-.41a14.83,14.83,0,0,0-2.67-9.59c-2.58-3.62-5.55-7.46-12-8H36c-6.46.53-9.43,4.37-12,8a14.9,14.9,0,0,0-2.68,9.59c0,.13,0,.27,0,.41s0,.31.05.47,0,.43.07.64,0,.21,0,.31.09.48.13.71,0,.2,0,.3.09.43.15.64.07.27.09.42.06.25.1.38.32,1.57.63,3.28c-1.72-.84-4.11.37-3.83,3.54s4.21,5.13,5.55,5.45a10.82,10.82,0,0,0,.32,1.23c1.18,3,2.6,3.84,5.1,6.25,2.72,2.61,6.74,5.06,8.73,5.05H39c2,0,6-2.44,8.73-5.05,2.5-2.41,3.92-3.3,5.09-6.25A10.49,10.49,0,0,0,53.11,45c1.29-.29,5.29-2.21,5.59-5.46S56.55,35.11,54.82,36Z" style="fill:#fbd2c5"/><path d="M57.44,37.77a1.89,1.89,0,0,0-2.87-.57,1.64,1.64,0,0,0-.48,1.8c.13.53.68.57.54,1.37a1.42,1.42,0,0,1-.81,1.15,1.79,1.79,0,0,0-.68.73,2,2,0,0,0-.09,1.11c.15.65,1.09.15,1.71-.13a12.88,12.88,0,0,0,2.08-1.65,3.6,3.6,0,0,0,.6-3.81" style="fill:#e9b7ac"/><path d="M35.31,33.34a8.19,8.19,0,0,0-1.13-.89,9.15,9.15,0,0,0-1.3-.71,6,6,0,0,0-1.61-.5,7.67,7.67,0,0,0-1.71-.16l-.8.06a6.85,6.85,0,0,0-.72.11A9.67,9.67,0,0,0,27,31.5l-.42.09.37-.22a5.36,5.36,0,0,1,1-.53,8,8,0,0,1,1.58-.48,8.14,8.14,0,0,1,1.92-.05,7.47,7.47,0,0,1,1.87.51,7,7,0,0,1,1.45.86,5.45,5.45,0,0,1,1.16,1.18h0a.37.37,0,0,1-.11.52A.38.38,0,0,1,35.31,33.34Z" style="fill:#44413d"/><path d="M20.1,37.77A1.89,1.89,0,0,1,23,37.2a1.64,1.64,0,0,1,.48,1.8c-.13.53-.68.57-.54,1.37a1.43,1.43,0,0,0,.8,1.15,1.75,1.75,0,0,1,.69.73,2,2,0,0,1,.09,1.11c-.15.65-1.09.15-1.72-.13a13.26,13.26,0,0,1-2.07-1.65,3.6,3.6,0,0,1-.6-3.81" style="fill:#e9b7ac"/><path d="M57.79,73h3.5a9.09,9.09,0,0,0-.19-1.7l0-.13c-.28-1.36,0-2.25-.87-3.3a7.92,7.92,0,0,0-2.11-1.66l-1.87-.59h0L54.28,65C37.46,80,26.5,68,24,64.77l-.1,0-2.67.86h0l-1.87.59A7.43,7.43,0,0,0,17.2,68c-.72,1-.52,1.85-.79,3.14,0,0,0,.09,0,.13h0v0a.3.3,0,0,0,0,.15h0A12.87,12.87,0,0,0,16.2,73h3.26l.13.07a24.51,24.51,0,0,0-1.25,5.77H59.07A25,25,0,0,0,57.79,73Z" style="fill:#b44e6b"/><path d="M33,62.35a1.06,1.06,0,1,1-1.06-1A1,1,0,0,1,33,62.35Z" style="fill:#fff"/><path d="M34,64.1a1.06,1.06,0,1,1-1.06-1A1,1,0,0,1,34,64.1Z" style="fill:#36aeaf"/><path d="M35.28,65.71a1.06,1.06,0,1,1-1.05-1A1,1,0,0,1,35.28,65.71Z" style="fill:#fff"/><path d="M36.89,67a1.06,1.06,0,1,1-1.06-1A1,1,0,0,1,36.89,67Z" style="fill:#36aeaf"/><path d="M38.87,67.75a1.06,1.06,0,0,1-2.12,0,1.06,1.06,0,0,1,2.12,0Z" style="fill:#fff"/><path d="M39.93,66.36a1,1,0,1,1-1.06,1A1,1,0,0,1,39.93,66.36Z" style="fill:#36aeaf"/><path d="M41.77,65.39a1,1,0,1,1-1.06,1A1,1,0,0,1,41.77,65.39Z" style="fill:#fff"/><path d="M43.46,64.18a1,1,0,1,1-1.06,1A1,1,0,0,1,43.46,64.18Z" style="fill:#36aeaf"/><path d="M44.83,62.65a1,1,0,1,1-1.06,1A1,1,0,0,1,44.83,62.65Z" style="fill:#fff"/><path d="M45.62,60.78a1,1,0,1,1-1.06,1A1,1,0,0,1,45.62,60.78Z" style="fill:#36aeaf"/><path d="M54.72,15.23A9.72,9.72,0,0,0,51,13.11s-4.6-2.33-8.11-4-9.22-.33-12.18.45-6.48,5-7.58,7.37S19.3,24.34,18.42,28s2.07,7.23,3.91,8c1.2.5,1.27,3.35,1.27,3.35l1.31.58a17.24,17.24,0,0,1,1.86-8,15.65,15.65,0,0,0,7,1.38,7,7,0,0,1-2.5,1.34s2.62.76,6.19-2.23a8.86,8.86,0,0,0,.82-.4,7.87,7.87,0,0,1-3.61,4.79s5.34.32,8.84-10.13c0,0,1.64-9.5,9.25.42a9.09,9.09,0,0,1,2,6c0,1.56-.69,6.1-.69,6.1l.69-.49a3.55,3.55,0,0,1,2-2.87c1.56-.88,2-3.87,2-5.11C58.69,22.38,56.37,16.78,54.72,15.23Z" style="fill:#faa830"/><path d="M36.28,40l-.06.17.09-.16Z" style="fill:#0e151a;opacity:0.4"/><path d="M36.28,40l-.06.17.09-.16Z" style="fill:#e8e9e7;opacity:0.55"/><path d="M41.45,41.49c.09.13.19.24.28.36-.08-.12-.17-.24-.25-.37Z" style="fill:#0e151a;opacity:0.4"/><path d="M41.45,41.49c.09.13.19.24.28.36-.08-.12-.17-.24-.25-.37Z" style="fill:#e8e9e7;opacity:0.55"/><path d="M41.19,42.51c-.92.71-4.17.4-4.89-.11C35,41.47,34.09,44,36,45.1s4.55.32,4.55.32c-.17,1.18.43,1.84,1,1.68s.54-.88.25-1.73c-.13-.38.12-.27.31-.38C43.37,44.22,42.64,41.39,41.19,42.51Z" style="fill:#fff;fill-rule:evenodd"/><path d="M32,38.27c3.69.31,3.47-.2,1.09,2.63.84,3.6,1.26,3.24-2.17,1.85-3.17,1.91-2.69,2.2-2.42-1.49-2.8-2.42-2.93-1.88.66-2.77C30.63,35.08,30.07,35.12,32,38.27Z" style="fill:#ecbf12;fill-rule:evenodd"/><path d="M32.23,37.94l1.18.08c1.06.06,1.6.1,1.76.49s-.19.79-.9,1.59c-.21.24-.47.53-.77.89.11.47.2.84.28,1.14.27,1,.4,1.56.08,1.83s-.81.06-1.79-.36c-.29-.13-.63-.28-1.09-.46l-1,.62h0c-.9.58-1.35.86-1.71.64s-.31-.75-.21-1.82c0-.32.07-.7.11-1.17l-.91-.76c-.82-.68-1.24-1-1.14-1.43s.62-.53,1.67-.76l1.15-.26c.16-.39.31-.77.44-1.1.39-1,.59-1.49,1-1.53s.69.43,1.23,1.36l.61,1Zm1.13.77L32,38.62a.35.35,0,0,1-.27-.17c-.28-.45-.51-.84-.71-1.17-.39-.67-.56-1-.58-1s-.13.36-.41,1.09c-.13.33-.29.72-.51,1.25a.35.35,0,0,1-.25.22l-1.33.31c-.76.17-1.14.23-1.14.24l.91.73c.29.24.64.53,1,.87a.37.37,0,0,1,.14.3c0,.51-.09,1-.12,1.37-.08.78-.14,1.15-.13,1.16s.32-.22,1-.64h0c.34-.21.74-.47,1.16-.72a.34.34,0,0,1,.31,0l1.26.54c.72.31,1.06.48,1.07.47s-.11-.37-.3-1.12c-.1-.39-.22-.85-.33-1.33a.32.32,0,0,1,.07-.31c.33-.39.64-.74.9-1,.51-.59.78-.85.78-.87h0Z" style="fill:#3a2018;fill-rule:evenodd"/><path d="M45.72,38.25c-3.69.27-3.47-.24-1.12,2.62-.88,3.59-1.3,3.23,2.14,1.87,3.15,2,2.67,2.24,2.45-1.45,2.83-2.39,3-1.85-.63-2.78C47.16,35.08,47.72,35.13,45.72,38.25Z" style="fill:#ecbf12;fill-rule:evenodd"/><path d="M45.75,38.6l-1.37.08c-.78,0-1.16,0-1.16,0s.26.28.77.87c.24.28.53.62.88,1a.34.34,0,0,1,.07.3c-.13.54-.25,1-.34,1.33-.21.75-.33,1.11-.32,1.12s.35-.16,1.07-.46c.34-.15.74-.32,1.27-.52a.34.34,0,0,1,.31,0l1.15.73c.66.43,1,.66,1,.65s0-.38-.11-1.16c0-.36-.07-.8-.1-1.36A.34.34,0,0,1,49,41L50,40.15c.61-.49.92-.71.92-.72s-.38-.08-1.14-.25l-1.33-.33a.36.36,0,0,1-.24-.21h0l-.5-1.27c-.27-.73-.38-1.09-.4-1.1s-.19.34-.59,1L46,38.44a.35.35,0,0,1-.27.16ZM44.35,38l1.17-.07c.25-.39.45-.72.62-1,.56-.92.84-1.38,1.25-1.34s.62.54,1,1.54l.42,1.1L50,38.5c1,.24,1.56.36,1.66.78s-.33.74-1.16,1.41l-.91.75c0,.44.06.84.09,1.18.09,1.06.13,1.6-.23,1.81s-.81-.07-1.71-.66l-1-.64-1.09.45c-1,.42-1.48.62-1.8.34s-.18-.79.1-1.82q.13-.49.3-1.14c-.28-.35-.54-.65-.76-.9-.7-.81-1.05-1.22-.89-1.61S43.28,38,44.35,38Z" style="fill:#3a2018;fill-rule:evenodd"/><path d="M41.35,42.72a4.25,4.25,0,0,1-2.4.47,6.38,6.38,0,0,1-2.8-.58.53.53,0,0,0-.62-.08.67.67,0,0,0-.24.28,1.21,1.21,0,0,0-.12.48,1.71,1.71,0,0,0,.93,1.59c1.78,1,4.34.29,4.35.29a.25.25,0,0,1,.32.18.21.21,0,0,1,0,.11,1.9,1.9,0,0,0,0,.84,1,1,0,0,0,.22.41.54.54,0,0,0,.26.15.39.39,0,0,0,.15,0h0a.35.35,0,0,0,.22-.33,1.94,1.94,0,0,0-.1-.85l-.06-.2c-.14-.43,0-.56.23-.64l.1,0s.07,0,.09,0a1.37,1.37,0,0,0,.53-1.39,1.61,1.61,0,0,0-.16-.51.8.8,0,0,0-.27-.3c-.17-.09-.4-.06-.69.16ZM39,42.66A3.73,3.73,0,0,0,41,42.3a1.08,1.08,0,0,1,1.26-.19,1.22,1.22,0,0,1,.48.5,2.15,2.15,0,0,1,.22.69,1.88,1.88,0,0,1-.78,1.91,1,1,0,0,1-.19.08h0c0,.08,0,.15.07.22a2.69,2.69,0,0,1,.11,1.09.87.87,0,0,1-.57.74h0a.93.93,0,0,1-.37,0,1,1,0,0,1-.56-.3,1.53,1.53,0,0,1-.35-.63,2.82,2.82,0,0,1-.08-.68,6.65,6.65,0,0,1-4.39-.43,2.23,2.23,0,0,1-1.2-2.07,1.9,1.9,0,0,1,.18-.69,1.24,1.24,0,0,1,.44-.49,1,1,0,0,1,1.19.1,5.79,5.79,0,0,0,2.51.48Zm3,2.66,0,0Z" style="fill:#3a2018;fill-rule:evenodd"/><path d="M34.84,43.6a.18.18,0,0,1-.08-.23.17.17,0,0,1,.23-.09,10.32,10.32,0,0,0,7.69,0,.18.18,0,0,1,.23.1.16.16,0,0,1-.1.22A10.72,10.72,0,0,1,34.84,43.6Z" style="fill:#3a2018;fill-rule:evenodd"/></g></g></svg>