<svg xmlns="http://www.w3.org/2000/svg" viewBox="0 0 78.88 78.88"><title>graphicsAndMultimedia1MiaKurodaSVG</title><g id="Layer_2" data-name="Layer 2"><g id="Layer_2-2" data-name="Layer 2"><rect width="78.88" height="78.88" style="fill:#d6868d"/><path d="M61.29,77.89s-.1-6-.34-6.54c-.46-2.1.36-3.06-2.88-5.08,0,0-.74-.24-1.8-.59h0l-2.39-.8-1-.35c-.86-.31-1.72-.62-2.51-.92L48.8,63c-.38-.17-.7-.32-1-.46a2.62,2.62,0,0,1-.59-.38l-.07-.09-.08-.1a20.49,20.49,0,0,1-1.32-3.56h0a5.71,5.71,0,0,1-.13-1c0-.48,0-1,0-1.41s0-.86,0-1.2v-.28c0-.24,0-.44,0-.59a2,2,0,0,1,0-.24l.87-.75c.63-.57,1.54-1.4,2.33-2.18a9.18,9.18,0,0,0,1.75-2.09,1,1,0,0,0,0-.15l-.06,0c-.4.06-2.55.43-4.86.79-1.37.22-2.81.43-4,.58l-1.25.14h0c-.34,0-.62.05-.84.05s-.56,0-.95-.05h0l-1.31-.17c-1.08-.13-2.36-.32-3.61-.51l-3.16-.51c-.21,0-.4-.06-.57-.1l-1.39-.24a1.54,1.54,0,0,0,.4.74,0,0,0,0,0,0,0,11.3,11.3,0,0,0,.74.86c.29.3.6.62.92.93,1,1,2.06,1.91,2.59,2.36l.31.27s0,.09,0,.24,0,.35,0,.59v.28c0,.1,0,.2,0,.3,0,.65,0,1.46-.06,2.31a5.69,5.69,0,0,1-.12,1A21.35,21.35,0,0,1,31.92,62a.86.86,0,0,1-.07.1l-.08.09a2.11,2.11,0,0,1-.24.18,9.31,9.31,0,0,1-1,.52l-1.27.52c-1.11.44-2.44.91-3.7,1.34-.09,0-.18.06-.27.09l-2.55.86h0c-1.05.35-1.76.57-1.78.59-3.22,2-2.44,3-2.89,5h0v0a.61.61,0,0,0,0,.15h0c-.22,1.09-.3,6.38-.3,6.38,0,.32,0,.65,0,1H61.3C61.3,78.54,61.3,78.21,61.29,77.89Z" style="fill:#fbd2c5"/><path d="M45.78,58.41a4.81,4.81,0,0,1-.13-1c0-1.12-.06-2.19-.07-2.89a14.16,14.16,0,0,1-5.68,1.32,2.48,2.48,0,0,1-.39,0,2.36,2.36,0,0,1-.38,0,14.09,14.09,0,0,1-5.68-1.32c0,.7,0,1.77-.08,2.89a5.58,5.58,0,0,1-.12,1c1.81,1.51,4.26,3.07,5.88,3.07a1.87,1.87,0,0,0,.34,0h.08a1.9,1.9,0,0,0,.35,0C41.52,61.48,44,59.92,45.78,58.41Z" style="fill:#d29f97"/><path d="M55.59,36c.31-1.73.55-3,.63-3.31s.06-.25.1-.38.06-.28.09-.42.09-.43.14-.64l.06-.3c0-.23.08-.47.12-.71s0-.21,0-.31,0-.42.07-.64,0-.32,0-.47,0-.28,0-.41a15,15,0,0,0-2.67-9.59c-2.59-3.62-5.56-7.46-12-8H36.79c-6.46.53-9.43,4.37-12,8a14.83,14.83,0,0,0-2.67,9.59c0,.13,0,.27,0,.41a3.56,3.56,0,0,1,.05.47c0,.22,0,.43.08.64l0,.31c0,.24.09.48.13.71s0,.2,0,.3.09.43.15.64.06.27.09.42.06.25.1.38.31,1.57.62,3.28c-1.72-.84-4.11.37-3.82,3.54s4.2,5.13,5.54,5.45a10.24,10.24,0,0,0,.33,1.23c1.17,3,2.59,3.84,5.09,6.25,2.72,2.61,6.74,5.06,8.73,5.05h.43c2,0,6-2.44,8.72-5.05,2.5-2.41,3.92-3.3,5.1-6.25A11.1,11.1,0,0,0,53.87,45c1.3-.29,5.3-2.21,5.59-5.46S57.31,35.11,55.59,36Z" style="fill:#fbd2c5"/><path d="M58.2,37.77a1.89,1.89,0,0,0-2.87-.57,1.62,1.62,0,0,0-.47,1.8c.12.53.68.57.53,1.37a1.41,1.41,0,0,1-.8,1.15,1.73,1.73,0,0,0-.68.73,2,2,0,0,0-.1,1.11c.15.65,1.09.15,1.72-.13a12.81,12.81,0,0,0,2.07-1.65,3.58,3.58,0,0,0,.6-3.81" style="fill:#e9b7ac"/><path d="M20.86,37.77a1.89,1.89,0,0,1,2.87-.57,1.64,1.64,0,0,1,.48,1.8c-.13.53-.68.57-.54,1.37a1.42,1.42,0,0,0,.81,1.15,1.79,1.79,0,0,1,.68.73,2,2,0,0,1,.1,1.11c-.15.65-1.09.15-1.72-.13a12.88,12.88,0,0,1-2.08-1.65,3.6,3.6,0,0,1-.6-3.81" style="fill:#e9b7ac"/><path d="M25.65,30.27h0v0Z" style="fill:#46423e"/><path d="M29.36,65.21a13.56,13.56,0,0,1,.14-1.92l-.26.1c-.77.31-1.66.63-2.55.94l-1.16.4a2.67,2.67,0,0,0-.26.09l-2.57.86h0c-1.05.35-1.76.57-1.79.59a5.87,5.87,0,0,0-2.35,2.17H29.91A8.27,8.27,0,0,1,29.36,65.21Z" style="fill:#36aeaf"/><path d="M61.19,74.06c0-1.28-.08-2.6-.13-2.71-.27-1.21-.11-2-.54-2.91H49.25c-1.37,3.27-5.18,3.14-9.67,3.14s-8.3.13-9.67-3.14H18.54A12,12,0,0,0,18,71.31h0v0a.3.3,0,0,0,0,.15h0c0,.19-.07,1.38-.1,2.55,0,.93-.05,1.85-.07,2.24h5.85v2.58H55.82V76.3h5.44C61.24,75.85,61.22,75,61.19,74.06Z" style="fill:#1e8380"/><path d="M58.16,66.27s-.74-.24-1.8-.59h0c-.69-.23-1.53-.5-2.4-.8l-1-.35-.33-.12c-.75-.26-1.5-.54-2.19-.8l-.72-.28a14.75,14.75,0,0,1,.14,1.89,8.27,8.27,0,0,1-.55,3.23H60.52A5.92,5.92,0,0,0,58.16,66.27Z" style="fill:#36aeaf"/><path d="M57.75,23.25a25,25,0,0,0-1.6-6.4c-1.74-3.9-5.34-5.56-11-7.92-5.06-2.11-6.91-1-12.15.23a3.86,3.86,0,0,0-.49-1.05c-1.59-2.3-5.44-2.41-8.61-.23S19.44,13.7,21,16a3.83,3.83,0,0,0,1.36,1.2,20.53,20.53,0,0,0-1.64,5.33c0,.25-.07.48-.1.72-.69,5.17,0,7.3.54,8.46a8.27,8.27,0,0,1,.6,1.23,10.77,10.77,0,0,0,.73,2.92c.39.35,1.4.84,1.71,1.68.56,1.47.76,1.22.76,1.22s-.77-5.15-.85-7c0-.1,0-.2,0-.28,0-.92.41-5.53,3.42-8.18a5.63,5.63,0,0,1,.45-.38c2.53-1.92,6.84-1.11,7.31-1.11.1,0,1.08.77,2.49,1.49a9.82,9.82,0,0,0,4.85,1.28c10.77-.55,13,5.33,13.28,6.56,0,.2,0,.41-.05.62-.13,1.52-.28,3.29-.4,4.48-.2,1.41-.37,2.57-.37,2.57s.22.25.77-1.22c.26-.71,1.16-1.16,1.51-1.5a28.51,28.51,0,0,1,.39-3.1A5.55,5.55,0,0,0,58,31.71a24.69,24.69,0,0,0,.2-2.79A47.79,47.79,0,0,0,57.75,23.25Z" style="fill:#3d3d3c"/><path d="M33.79,61.25a1.06,1.06,0,1,0-1.06,1A1,1,0,0,0,33.79,61.25Z" style="fill:#f07068"/><path d="M34.81,63a1.06,1.06,0,1,0-1.06,1A1,1,0,0,0,34.81,63Z" style="fill:#f07068"/><path d="M36.09,64.6a1.06,1.06,0,1,0-1.06,1A1,1,0,0,0,36.09,64.6Z" style="fill:#f07068"/><path d="M36.64,64.89a1,1,0,1,0,1.06,1A1,1,0,0,0,36.64,64.89Z" style="fill:#f07068"/><path d="M38.62,65.64a1,1,0,1,0,1.06,1A1,1,0,0,0,38.62,65.64Z" style="fill:#f07068"/><path d="M40.73,65.26a1,1,0,1,0,1.06,1A1,1,0,0,0,40.73,65.26Z" style="fill:#f07068"/><path d="M42.58,64.29a1,1,0,1,0,1.06,1A1,1,0,0,0,42.58,64.29Z" style="fill:#f07068"/><path d="M44.27,63.07a1,1,0,1,0,1.06,1A1,1,0,0,0,44.27,63.07Z" style="fill:#f07068"/><path d="M45.64,61.55a1,1,0,1,0,1.06,1A1,1,0,0,0,45.64,61.55Z" style="fill:#f07068"/><path d="M46.43,59.68a1,1,0,1,0,1.06,1A1,1,0,0,0,46.43,59.68Z" style="fill:#f07068"/><path d="M37.46,39.29A.27.27,0,0,1,37,39a2.81,2.81,0,0,1,.72-.65,4,4,0,0,1,1-.44.26.26,0,0,1,.33.16.26.26,0,0,1-.17.33,3.58,3.58,0,0,0-.83.39A2.13,2.13,0,0,0,37.46,39.29Z" style="fill:#dc98ab;fill-rule:evenodd"/><path d="M41.56,39.36a.26.26,0,0,1-.4-.34l0,0a3.32,3.32,0,0,1,1.29-1,.26.26,0,0,1,.34.14.26.26,0,0,1-.14.34,2.88,2.88,0,0,0-1.09.82Z" style="fill:#dc98ab;fill-rule:evenodd"/><path d="M39.54,39.41a.26.26,0,1,1-.44-.28,2.8,2.8,0,0,1,.64-.68,2.62,2.62,0,0,1,.81-.43.26.26,0,0,1,.33.16.26.26,0,0,1-.17.33,2.3,2.3,0,0,0-.65.36A2.32,2.32,0,0,0,39.54,39.41Z" style="fill:#dc98ab;fill-rule:evenodd"/><path d="M39.91,46s3.11-1.32,3.35-3.1c.31-2.39-2-2.07-3.35-2.07s-3.67-.34-3.36,2.07C36.79,44.65,39.87,46,39.91,46Z" style="fill:#3a2018;fill-rule:evenodd"/><path d="M42.86,42.09a1,1,0,0,0-1-.92c-.82-.07-3.53-.1-3.86-.06a1.14,1.14,0,0,0-1.07,1Z" style="fill:#fff;fill-rule:evenodd"/><path d="M42.36,43.6c-.2-1.05-1.72-.75-2.5-.6-.77-.15-2.3-.45-2.49.6-.28,1.5.69,3.79,2.5,3.82S42.49,45.49,42.36,43.6Z" style="fill:#cb4f41;fill-rule:evenodd"/><path d="M42,43.64c-.07-.3-.36-.41-.71-.44a5.83,5.83,0,0,0-1.37.14h-.14a5.83,5.83,0,0,0-1.37-.14c-.35,0-.65.14-.71.46a3.13,3.13,0,0,0,0,.44A3.6,3.6,0,0,0,38.18,46,2.15,2.15,0,0,0,39.58,47l.3,0H40a1.84,1.84,0,0,0,1.43-.93A4.17,4.17,0,0,0,42,44c0-.13,0-.26,0-.4Zm-.66-1.14a1.28,1.28,0,0,1,1.34,1,.13.13,0,0,1,0,.06,3.7,3.7,0,0,1,0,.48,4.79,4.79,0,0,1-.67,2.45,2.53,2.53,0,0,1-2,1.26h-.21a1.93,1.93,0,0,1-.42,0,2.85,2.85,0,0,1-1.86-1.39A4.36,4.36,0,0,1,37,44.09a3.31,3.31,0,0,1,.06-.56,1.28,1.28,0,0,1,1.34-1,6.19,6.19,0,0,1,1.49.14A6.24,6.24,0,0,1,41.35,42.5Z" style="fill:#3a2018;fill-rule:evenodd"/><path d="M39.51,43a.35.35,0,0,1,.35-.35.35.35,0,0,1,.35.35v2.13a.35.35,0,0,1-.35.35.35.35,0,0,1-.35-.35Z" style="fill:#3a2018;fill-rule:evenodd"/><path d="M47.23,37.73a2.09,2.09,0,1,1-2.09,2.09A2.09,2.09,0,0,1,47.23,37.73Z" style="fill:#3a2018;fill-rule:evenodd"/><path d="M50.52,38a.54.54,0,0,1,.47.58.52.52,0,0,1-.58.46s-5.66-.63-6.73-2.73a.53.53,0,0,1,.23-.71.52.52,0,0,1,.7.23C45.42,37.47,50.51,38,50.52,38Z" style="fill:#3a2018;fill-rule:evenodd"/><path d="M32.63,37.73a2.09,2.09,0,1,0,2.09,2.09A2.09,2.09,0,0,0,32.63,37.73Z" style="fill:#3a2018;fill-rule:evenodd"/><path d="M32.7,38.4a.9.9,0,1,0,.89.9A.9.9,0,0,0,32.7,38.4Z" style="fill:#fff;fill-rule:evenodd"/><path d="M29.46,39.08a.51.51,0,0,1-.58-.46.52.52,0,0,1,.46-.58s5.1-.57,5.91-2.17a.52.52,0,1,1,.93.48C35.11,38.45,29.47,39.08,29.46,39.08Z" style="fill:#3a2018;fill-rule:evenodd"/><path d="M47.23,38.4a.9.9,0,1,0,.9.9A.89.89,0,0,0,47.23,38.4Z" style="fill:#fff;fill-rule:evenodd"/><path d="M28.84,40.56s-1.95,3-.43,4.08S30.17,42.25,28.84,40.56Z" style="fill:#a6d2f0;fill-rule:evenodd"/><path d="M49.89,32.76A5.43,5.43,0,0,0,49,35.4c.1,1.05,1.4,1.69,1.6.13A4,4,0,0,0,49.89,32.76Z" style="fill:#a6d2f0;fill-rule:evenodd"/><path d="M28.39,40.83a.26.26,0,1,1,.45.25,3.71,3.71,0,0,0-.56,3.06.77.77,0,0,0,.39.42A.36.36,0,0,0,29,44.5a1.57,1.57,0,0,0,.41-1.32.26.26,0,0,1,.25-.27.26.26,0,0,1,.27.26,2,2,0,0,1-.62,1.75.89.89,0,0,1-.87.13,1.28,1.28,0,0,1-.67-.7C27.49,43.66,27.51,42.44,28.39,40.83Z" style="fill:#3a2018;fill-rule:evenodd"/><path d="M48.76,35.43a.26.26,0,1,1,.52,0,1,1,0,0,0,.41.74.49.49,0,0,0,.22.08h0a.27.27,0,0,0,.17,0,.89.89,0,0,0,.28-.67,3.38,3.38,0,0,0,0-1.13,3.73,3.73,0,0,0-.39-1.09.26.26,0,0,1,.46-.25,4.45,4.45,0,0,1,.5,2.54,1.39,1.39,0,0,1-.52,1,.74.74,0,0,1-.5.12,1,1,0,0,1-.47-.17A1.58,1.58,0,0,1,48.76,35.43Z" style="fill:#3a2018;fill-rule:evenodd"/></g></g></svg>