<svg xmlns="http://www.w3.org/2000/svg" viewBox="0 0 78.88 78.88"><title>marketingSales14HarperMatsumotoSVG</title><g id="Layer_2" data-name="Layer 2"><g id="Layer_2-2" data-name="Layer 2"><rect width="78.88" height="78.88" style="fill:#d6868d"/><path d="M61.29,77.89s-.1-6-.34-6.54c-.46-2.1.36-3.06-2.88-5.08,0,0-.74-.24-1.8-.59h0l-2.39-.8-1-.35c-.86-.31-1.72-.62-2.51-.92L48.8,63c-.38-.17-.7-.32-1-.46a2.62,2.62,0,0,1-.59-.38l-.07-.09-.08-.1a20.49,20.49,0,0,1-1.32-3.56h0a5.71,5.71,0,0,1-.13-1c0-.48,0-1,0-1.41s0-.86,0-1.2v-.28c0-.24,0-.44,0-.59a2,2,0,0,1,0-.24l.87-.75c.63-.57,1.54-1.4,2.33-2.18a9.18,9.18,0,0,0,1.75-2.09,1,1,0,0,0,0-.15l-.06,0c-.4.06-2.55.43-4.86.79-1.37.22-2.81.43-4,.58l-1.25.14h0c-.34,0-.62.05-.84.05s-.56,0-.95-.05h0l-1.31-.17c-1.08-.13-2.36-.32-3.61-.51l-3.16-.51c-.21,0-.4-.06-.57-.1l-1.39-.24a1.54,1.54,0,0,0,.4.74,0,0,0,0,0,0,0,11.3,11.3,0,0,0,.74.86c.29.3.6.62.92.93,1,1,2.06,1.91,2.59,2.36l.31.27s0,.09,0,.24,0,.35,0,.59v.28c0,.1,0,.2,0,.3,0,.65,0,1.46-.06,2.31a5.69,5.69,0,0,1-.12,1A21.73,21.73,0,0,1,31.92,62a.86.86,0,0,1-.07.1l-.08.09a2.11,2.11,0,0,1-.24.18,9.31,9.31,0,0,1-1,.52l-1.27.52c-1.11.44-2.44.91-3.7,1.34-.09,0-.18.06-.27.09l-2.55.86h0c-1.05.35-1.76.57-1.78.59-3.22,2-2.44,3-2.89,5h0v0a.61.61,0,0,0,0,.15h0c-.22,1.09-.3,6.38-.3,6.38,0,.32,0,.65,0,1H61.3C61.3,78.54,61.3,78.21,61.29,77.89Z" style="fill:#fbd2c5"/><path d="M45.78,58.41a4.81,4.81,0,0,1-.13-1c0-1.12-.06-2.19-.07-2.89a14.16,14.16,0,0,1-5.68,1.32,2.48,2.48,0,0,1-.39,0,2.36,2.36,0,0,1-.38,0,14.09,14.09,0,0,1-5.68-1.32c0,.7,0,1.77-.08,2.89a5.58,5.58,0,0,1-.12,1c1.81,1.51,4.26,3.07,5.88,3.07a1.87,1.87,0,0,0,.34,0h.08a1.9,1.9,0,0,0,.35,0C41.52,61.48,44,59.92,45.78,58.41Z" style="fill:#d29f97"/><path d="M55.59,36c.31-1.73.55-3,.63-3.31s.06-.25.1-.38.06-.28.09-.42.09-.43.14-.64l.06-.3c0-.23.08-.47.12-.71s0-.21,0-.31,0-.42.07-.64,0-.32,0-.47,0-.28,0-.41a15,15,0,0,0-2.67-9.59c-2.59-3.62-5.56-7.46-12-8H36.79c-6.46.53-9.43,4.37-12,8a14.83,14.83,0,0,0-2.67,9.59c0,.13,0,.27,0,.41a3.56,3.56,0,0,1,.05.47c0,.22,0,.43.08.64l0,.31c0,.24.09.48.13.71s0,.2,0,.3.09.43.15.64.06.27.09.42.06.25.1.38.31,1.57.62,3.28c-1.72-.84-4.11.37-3.82,3.54s4.2,5.13,5.54,5.45a10.24,10.24,0,0,0,.33,1.23c1.17,3,2.59,3.84,5.09,6.25,2.72,2.61,6.74,5.06,8.73,5.05h.43c2,0,6-2.44,8.72-5.05,2.5-2.41,3.92-3.3,5.1-6.25A11.1,11.1,0,0,0,53.87,45c1.3-.29,5.3-2.21,5.59-5.46S57.31,35.11,55.59,36Z" style="fill:#fbd2c5"/><path d="M58.2,37.77a1.89,1.89,0,0,0-2.87-.57,1.62,1.62,0,0,0-.47,1.8c.12.53.68.57.53,1.37a1.41,1.41,0,0,1-.8,1.15,1.73,1.73,0,0,0-.68.73,2,2,0,0,0-.1,1.11c.15.65,1.09.15,1.72-.13a12.81,12.81,0,0,0,2.07-1.65,3.58,3.58,0,0,0,.6-3.81" style="fill:#e9b7ac"/><path d="M20.86,37.77a1.89,1.89,0,0,1,2.87-.57,1.64,1.64,0,0,1,.48,1.8c-.13.53-.68.57-.54,1.37a1.42,1.42,0,0,0,.81,1.15,1.79,1.79,0,0,1,.68.73,2,2,0,0,1,.1,1.11c-.15.65-1.09.15-1.72-.13a12.88,12.88,0,0,1-2.08-1.65,3.6,3.6,0,0,1-.6-3.81" style="fill:#e9b7ac"/><path d="M25.65,30.27h0v0Z" style="fill:#46423e"/><path d="M58.4,18.23A1.15,1.15,0,0,0,58.61,16c-.29-.07-.59-.15-.92-.25-4.06-1.25-4-5.31-9.8-7.58-3-1.17-4.78-1-5.81-.59a6.18,6.18,0,0,1,3.2-.73,9.23,9.23,0,0,0-5.56-.43,1.48,1.48,0,0,1-.42,0,9.25,9.25,0,0,0-5.57.43,6.23,6.23,0,0,1,3.21.73c-1-.43-2.82-.58-5.82.59-5.84,2.27-5.73,6.33-9.8,7.58-.32.1-.63.18-.92.25a1.15,1.15,0,0,0,.21,2.26l.35,0a2.22,2.22,0,0,0,.58,0,25.83,25.83,0,0,0-1.43,5.39c-.24,2.35.49,4,.72,8.35.2,3.76,1.25,1.83,2.51,4.6a5.7,5.7,0,0,1,.44,2c.47.11,1.69-2.25.81-6.36a4.39,4.39,0,0,1,.23-2.33,1.15,1.15,0,0,1,1.08-.75H37.77a1.15,1.15,0,0,0,1.12-.91l.14-.66a1.15,1.15,0,0,1,2.24,0l.15.69a1.16,1.16,0,0,0,1.12.9h0a1.15,1.15,0,0,0,1.08-.74L44.16,27a1.14,1.14,0,0,1,2.16.07l.4,1.27a1.16,1.16,0,0,0,1.1.81h.75a1.16,1.16,0,0,0,1.11-.84l1.15-4.17L51.06,28a1.16,1.16,0,0,0,1.15,1.08h.9a1.17,1.17,0,0,1,1.09.75,4.48,4.48,0,0,1,.22,2.33c-.88,4.11.34,6.47.81,6.36a5.7,5.7,0,0,1,.44-2c1.26-2.77,2.32-.84,2.51-4.6.23-4.39,1-6,.73-8.35a24.94,24.94,0,0,0-1.44-5.39,2.32,2.32,0,0,0,.58,0Z" style="fill:#46423e"/><path d="M37.48,38.81c0,.06,0,.12,0,.17a1.19,1.19,0,0,1,.09-.15Z" style="fill:#0e151a;opacity:0.4"/><path d="M37.48,38.81c0,.06,0,.12,0,.17a1.19,1.19,0,0,1,.09-.15Z" style="fill:#e8e9e7;opacity:0.55"/><path d="M42.66,40.32c.09.13.19.25.28.37-.09-.13-.18-.25-.26-.38Z" style="fill:#0e151a;opacity:0.4"/><path d="M42.66,40.32c.09.13.19.25.28.37-.09-.13-.18-.25-.26-.38Z" style="fill:#e8e9e7;opacity:0.55"/><path d="M61.26,76.3c0-1.08-.11-4.76-.2-5-.46-2.1.36-3.06-2.9-5.08,0,0-.74-.24-1.8-.59h0c-.69-.23-1.53-.5-2.4-.8l-1-.35-.33-.12c-.75-.26-1.5-.54-2.19-.8l-.72-.28a14.75,14.75,0,0,1,.14,1.89c0,6.59-4.58,6.37-10.22,6.37s-10.22.22-10.22-6.37a13.56,13.56,0,0,1,.14-1.92l-.26.1c-.77.31-1.66.63-2.55.94l-1.16.4-.26.09-2.57.86h0c-1.05.35-1.76.57-1.79.59-3.23,2-2.44,3-2.89,5h0v0a.3.3,0,0,0,0,.15h0c-.07.34-.12,3.9-.17,4.79h5.85v2.58H55.82V76.3Z" style="fill:#46423e"/><path d="M33.94,60.88a1.06,1.06,0,1,1-1.06-1A1,1,0,0,1,33.94,60.88Z" style="fill:#fff"/><path d="M35,62.62a1.06,1.06,0,1,1-1.06-1A1,1,0,0,1,35,62.62Z" style="fill:#36aeaf"/><path d="M36.24,64.23a1.06,1.06,0,1,1-1.06-1A1,1,0,0,1,36.24,64.23Z" style="fill:#fff"/><path d="M37.85,65.53a1.06,1.06,0,1,1-1.06-1A1,1,0,0,1,37.85,65.53Z" style="fill:#36aeaf"/><path d="M39.83,66.27a1.06,1.06,0,1,1-1.06-1A1,1,0,0,1,39.83,66.27Z" style="fill:#fff"/><path d="M40.89,64.89a1,1,0,1,1-1.06,1A1,1,0,0,1,40.89,64.89Z" style="fill:#36aeaf"/><path d="M42.73,63.92a1,1,0,1,1-1.06,1A1,1,0,0,1,42.73,63.92Z" style="fill:#fff"/><path d="M44.42,62.7a1,1,0,1,1-1.06,1A1,1,0,0,1,44.42,62.7Z" style="fill:#36aeaf"/><path d="M45.79,61.18a1,1,0,1,1-1.06,1A1,1,0,0,1,45.79,61.18Z" style="fill:#fff"/><path d="M46.58,59.3a1,1,0,1,1-1.06,1A1,1,0,0,1,46.58,59.3Z" style="fill:#36aeaf"/><path d="M39,40.92a.16.16,0,1,1-.2-.25,5.65,5.65,0,0,1,.92-.58,10.5,10.5,0,0,1,1-.42.16.16,0,1,1,.12.29,8.92,8.92,0,0,0-.94.42A5,5,0,0,0,39,40.92Z" style="fill:#dc98ab;fill-rule:evenodd"/><path d="M40.66,40.94a.16.16,0,0,1-.19-.25,4.89,4.89,0,0,1,.77-.47,4.31,4.31,0,0,1,.79-.31.17.17,0,0,1,.2.11.16.16,0,0,1-.12.2,4,4,0,0,0-.73.29A5.7,5.7,0,0,0,40.66,40.94Z" style="fill:#dc98ab;fill-rule:evenodd"/><path d="M37.33,40.79a.16.16,0,0,1-.22,0,.16.16,0,0,1,0-.22,5,5,0,0,1,.78-.46,4.22,4.22,0,0,1,.78-.31.15.15,0,0,1,.2.11.16.16,0,0,1-.11.19,4.43,4.43,0,0,0-.73.29A5.2,5.2,0,0,0,37.33,40.79Z" style="fill:#dc98ab;fill-rule:evenodd"/><path d="M42.62,43.38a.32.32,0,0,1,.25-.37.33.33,0,0,1,.38.25A2.35,2.35,0,0,1,43,45.09a1.6,1.6,0,0,1-.86.59,2.33,2.33,0,0,1-1,0,3.07,3.07,0,0,1-1.6-.82,3.07,3.07,0,0,1-1.6.82,2.37,2.37,0,0,1-1,0,1.54,1.54,0,0,1-.85-.59,2.35,2.35,0,0,1-.24-1.83.32.32,0,0,1,.37-.25.31.31,0,0,1,.25.37,1.75,1.75,0,0,0,.14,1.34.83.83,0,0,0,.5.34,1.7,1.7,0,0,0,.75,0,2.21,2.21,0,0,0,1.43-.86.27.27,0,0,1,.11-.1.31.31,0,0,1,.44.1,2.23,2.23,0,0,0,1.44.86,1.66,1.66,0,0,0,.74,0,.8.8,0,0,0,.5-.34A1.75,1.75,0,0,0,42.62,43.38Z" style="fill:#3a2018;fill-rule:evenodd"/><path d="M34,37.31a.64.64,0,0,1,1.25.28,5.63,5.63,0,0,1-2.44,3.76h0a3.43,3.43,0,0,1-1.8.48,3.19,3.19,0,0,1-1.73-.57,4.22,4.22,0,0,1-1.63-3,.64.64,0,1,1,1.27-.15A2.92,2.92,0,0,0,30,40.22a1.84,1.84,0,0,0,1,.34,2.13,2.13,0,0,0,1.13-.31h0A4.38,4.38,0,0,0,34,37.31Z" style="fill:#3a2018;fill-rule:evenodd"/><path d="M43.85,37.59a.64.64,0,0,1,1.24-.28,4.36,4.36,0,0,0,1.84,2.94h0a2.1,2.1,0,0,0,1.13.31,1.83,1.83,0,0,0,1-.34,2.88,2.88,0,0,0,1.09-2.12.64.64,0,1,1,1.27.15,4.15,4.15,0,0,1-1.63,3,3.18,3.18,0,0,1-1.72.57,3.44,3.44,0,0,1-1.81-.48h0A5.62,5.62,0,0,1,43.85,37.59Z" style="fill:#3a2018;fill-rule:evenodd"/><path d="M31.15,44.58a.93.93,0,1,0-.93-.93A.93.93,0,0,0,31.15,44.58Z" style="fill:#dc98ab;fill-rule:evenodd"/><path d="M48,44.58a.93.93,0,1,0-.93-.93A.93.93,0,0,0,48,44.58Z" style="fill:#dc98ab;fill-rule:evenodd"/></g></g></svg>