<svg xmlns="http://www.w3.org/2000/svg" viewBox="0 0 78.88 78.88"><title>marketingSales4MiaKannoSVG</title><g id="Layer_2" data-name="Layer 2"><g id="Layer_2-2" data-name="Layer 2"><rect width="78.88" height="78.88" style="fill:#6394a4"/><path d="M61,77.89s-.1-6-.33-6.54c-.47-2.1.36-3.06-2.89-5.08,0,0-.73-.24-1.8-.59h0l-2.4-.8c-.34-.12-.67-.24-1-.35-.87-.31-1.72-.62-2.51-.92L48.47,63c-.38-.17-.71-.32-1-.46a2.4,2.4,0,0,1-.59-.38s0-.05-.08-.09a.86.86,0,0,1-.07-.1,21.11,21.11,0,0,1-1.33-3.56h0a5.69,5.69,0,0,1-.12-1c0-.48,0-1,0-1.41s0-.86,0-1.2v-.28c0-.24,0-.44,0-.59s0-.24,0-.24l.86-.75c.64-.57,1.55-1.4,2.33-2.18a9.18,9.18,0,0,0,1.75-2.09.49.49,0,0,0,0-.15l-.06,0c-.4.06-2.55.43-4.86.79-1.37.22-2.81.43-4,.58L40,50.05h0c-.33,0-.62.05-.83.05s-.56,0-1-.05h0l-1.31-.17c-1.07-.13-2.36-.32-3.6-.51l-3.16-.51-.58-.1-1.38-.24a1.54,1.54,0,0,0,.4.74,0,0,0,0,0,0,0c.19.25.44.54.73.86s.6.62.93.93c1,1,2.06,1.91,2.58,2.36l.32.27a2,2,0,0,1,0,.24c0,.15,0,.35,0,.59v.28c0,.1,0,.2,0,.3,0,.65,0,1.46-.06,2.31a5.71,5.71,0,0,1-.13,1A20.72,20.72,0,0,1,31.59,62l-.08.1a.76.76,0,0,0-.07.09l-.25.18a9.31,9.31,0,0,1-1,.52c-.37.16-.8.34-1.27.52-1.11.44-2.43.91-3.7,1.34a2.67,2.67,0,0,0-.26.09l-2.56.86h0c-1,.35-1.76.57-1.79.59-3.22,2-2.43,3-2.88,5h0v0a.48.48,0,0,0,0,.15h0c-.21,1.09-.3,6.38-.3,6.38,0,.32,0,.65,0,1H61C61,78.54,61,78.21,61,77.89Z" style="fill:#fbd2c5"/><path d="M45.44,58.41a5.58,5.58,0,0,1-.12-1c0-1.12-.06-2.19-.08-2.89a14.09,14.09,0,0,1-5.68,1.32,3.62,3.62,0,0,1-.76,0,14.17,14.17,0,0,1-5.69-1.32c0,.7,0,1.77-.07,2.89a4.81,4.81,0,0,1-.13,1c1.81,1.51,4.26,3.07,5.89,3.07a1.79,1.79,0,0,0,.34,0h.08a1.79,1.79,0,0,0,.34,0C41.18,61.48,43.63,59.92,45.44,58.41Z" style="fill:#d29f97"/><path d="M55.25,36c.31-1.73.56-3,.63-3.31s.07-.25.1-.38.07-.28.09-.42.1-.43.15-.64,0-.2.05-.3.09-.47.12-.71,0-.21,0-.31,0-.42.08-.64a3.56,3.56,0,0,1,.05-.47c0-.14,0-.28,0-.41a14.89,14.89,0,0,0-2.67-9.59c-2.58-3.62-5.56-7.46-12-8H36.46c-6.46.53-9.43,4.37-12,8a15,15,0,0,0-2.67,9.59c0,.13,0,.27,0,.41s0,.31.05.47,0,.43.07.64,0,.21,0,.31.09.48.12.71,0,.2.05.3.09.43.15.64.07.27.09.42.06.25.1.38.32,1.57.63,3.28c-1.72-.84-4.11.37-3.83,3.54s4.21,5.13,5.55,5.45a10.82,10.82,0,0,0,.32,1.23c1.18,3,2.6,3.84,5.1,6.25C33,55.05,37,57.5,39,57.49h.43c2,0,6-2.44,8.73-5.05,2.49-2.41,3.92-3.3,5.09-6.25.08-.21.19-.64.33-1.22,1.29-.29,5.29-2.21,5.59-5.46S57,35.11,55.25,36Z" style="fill:#fbd2c5"/><path d="M57.87,37.77A1.89,1.89,0,0,0,55,37.2a1.64,1.64,0,0,0-.48,1.8c.13.53.68.57.54,1.37a1.42,1.42,0,0,1-.81,1.15,1.79,1.79,0,0,0-.68.73,2,2,0,0,0-.1,1.11c.15.65,1.1.15,1.72-.13a12.88,12.88,0,0,0,2.08-1.65,3.6,3.6,0,0,0,.6-3.81" style="fill:#e9b7ac"/><path d="M20.53,37.77a1.89,1.89,0,0,1,2.87-.57,1.64,1.64,0,0,1,.48,1.8c-.13.53-.68.57-.54,1.37a1.41,1.41,0,0,0,.8,1.15,1.73,1.73,0,0,1,.68.73,2,2,0,0,1,.1,1.11c-.15.65-1.09.15-1.72-.13a12.81,12.81,0,0,1-2.07-1.65,3.6,3.6,0,0,1-.6-3.81" style="fill:#e9b7ac"/><path d="M25.32,30.27h0v0Z" style="fill:#46423e"/><path d="M56,76.56v0h6.45c-.07-.45-.25-1.36-.49-2.44H16.34c-.28.94-.55,1.8-.79,2.44h7.13v0c.05,3-.08,1.09-.2,2.32H56.14C56,77.65,55.89,79.55,56,76.56Z" style="fill:#84324c"/><path d="M59.66,67a11.92,11.92,0,0,0-4.21-3.11,15.83,15.83,0,0,0-4-1.19c-11.48,14.17-21.85,3-24.2.06a18.49,18.49,0,0,0-3.73,1.15A14.22,14.22,0,0,0,19,67c-.83.86-1.79,4.35-2.62,7.12H61.92C61.33,71.45,60.35,67.78,59.66,67Z" style="fill:#b44e6b"/><path d="M44.56,6.43l2.23,1.19A21.41,21.41,0,0,0,35,7.83a5.76,5.76,0,0,0-1.27.41l.6,0A4.76,4.76,0,0,1,36.72,9c-1-.41-2.68-.56-5.52.57-.4.16-.77.33-1.11.5-1.21.54-3.63,1.61-8.28,3.64a15,15,0,0,0,3.36.81,6.78,6.78,0,0,1-3.29,2.42c-4,1.24-5.11-.35-5.11-.35a6.16,6.16,0,0,0,4.77,2.8h.54a25.42,25.42,0,0,0-1.36,5.22c-.22,2.28.48,3.84.69,8.11a4.72,4.72,0,0,0,.43,2.15c.43.76,1.15.5,2,2.31A5.66,5.66,0,0,1,24.22,39l.08,0c.26.09,1,0,1-3.78,0,0,0-.07,0-.2v0a6.22,6.22,0,0,1,4.79-7.44A33.94,33.94,0,0,1,34.61,27l-.06,0c12.71,0,17.7,3.63,19.45,5.56-.1,1.1-.14,2-.15,2.76,0,3.49.69,3.46.69,3.46.34,0,0-1.76,1.09-3a6.87,6.87,0,0,0,1-1.6,18.87,18.87,0,0,0,1.8-7.78C59.62,6.43,44.56,6.43,44.56,6.43Z" style="fill:#faa830"/><path d="M29.68,43c-1.82,2.23-3.36,1-1.16-1-4.58,1.23-3.15-1.21-.25-1.6-3.8-1-2.29-2.54.55-1.75C30.9,39.52,31.17,41.19,29.68,43Z" style="fill:#a6d2f0;fill-rule:evenodd"/><path d="M28.91,38.34a.33.33,0,0,1,.22.4.32.32,0,0,1-.39.22,3.5,3.5,0,0,0-2.25-.06.31.31,0,0,0-.17.13s0,.06,0,.11a3.78,3.78,0,0,0,2,1,.32.32,0,0,1-.05.63,4,4,0,0,0-2.28,1c-.08.1-.13.17-.13.22L26,42a5,5,0,0,0,2.47-.27.31.31,0,0,1,.39.22.33.33,0,0,1-.11.34c-.68.62-1,1.13-1,1.45a.17.17,0,0,0,0,.15.3.3,0,0,0,.24,0,3.4,3.4,0,0,0,1.79-1.59.32.32,0,0,1,.53.35,4,4,0,0,1-2.2,1.87.91.91,0,0,1-.74-.13.77.77,0,0,1-.3-.68,2.09,2.09,0,0,1,.48-1.14,3.73,3.73,0,0,1-1.86,0,.66.66,0,0,1-.49-.6,1,1,0,0,1,.3-.68,3.84,3.84,0,0,1,1.55-.92,2.81,2.81,0,0,1-1.26-.84.73.73,0,0,1-.12-.7.9.9,0,0,1,.49-.49A4.2,4.2,0,0,1,28.91,38.34Z" style="fill:#3a2018;fill-rule:evenodd"/><path d="M49.14,43c1.83,2.23,3.37,1,1.17-1,4.58,1.23,3.15-1.21.25-1.6,3.79-1,2.29-2.54-.55-1.75C47.92,39.52,47.66,41.19,49.14,43Z" style="fill:#a6d2f0;fill-rule:evenodd"/><path d="M30.4,39.24a.65.65,0,0,1-.83.37.64.64,0,0,1-.36-.83,3.23,3.23,0,0,1,1-1.44,2.29,2.29,0,0,1,1.57-.48,2.85,2.85,0,0,1,1.6.64,5.51,5.51,0,0,1,1.67,2.36.65.65,0,0,1-.35.83.66.66,0,0,1-.84-.35,4.26,4.26,0,0,0-1.26-1.83,1.63,1.63,0,0,0-.89-.38,1.1,1.1,0,0,0-.73.23A1.94,1.94,0,0,0,30.4,39.24Z" style="fill:#3a2018;fill-rule:evenodd"/><path d="M49.29,39.05a.64.64,0,1,1-1.21.39,2.22,2.22,0,0,0-.66-1.06,1,1,0,0,0-.7-.25h0a1.48,1.48,0,0,0-.86.33,4.14,4.14,0,0,0-1.34,1.88.64.64,0,0,1-.83.35.63.63,0,0,1-.35-.83,5.43,5.43,0,0,1,1.77-2.44,2.86,2.86,0,0,1,1.58-.57h0a2.31,2.31,0,0,1,1.53.54A3.31,3.31,0,0,1,49.29,39.05Z" style="fill:#3a2018;fill-rule:evenodd"/><path d="M29.06,35.66a.46.46,0,0,1-.35-.57.47.47,0,0,1,.57-.36,4.24,4.24,0,0,0,1.91.1,3.93,3.93,0,0,0,2.06-1.32.47.47,0,0,1,.67,0,.49.49,0,0,1,0,.68,4.89,4.89,0,0,1-2.57,1.61A5.05,5.05,0,0,1,29.06,35.66Z" style="fill:#3a2018;fill-rule:evenodd"/><path d="M39.31,40.75c1,0,2.95.13,3.42,1.17a11.21,11.21,0,0,1,.6,4c-.13,2-1.59.39-4.06.34-2.14,0-3.94,1.84-4-.31,0-.8,0-3.2.65-4.26C36.4,40.93,38.57,40.74,39.31,40.75Z" style="fill:#cb4f41;fill-rule:evenodd"/><path d="M43.33,45.29a5.89,5.89,0,0,1,0,.6c-.13,2-1.59.39-4.06.34-2.14,0-3.94,1.84-4-.31,0-.17,0-.4,0-.68,1-.05,2.75-.12,4-.12S42.21,45.22,43.33,45.29Z" style="fill:#fff;fill-rule:evenodd"/><path d="M39.31,40.75c1,0,2.95.13,3.42,1.17.06.15.12.32.18.49-.93-.12-2.19-.27-3.15-.29s-2.9.08-4,.16a2.75,2.75,0,0,1,.26-.62C36.4,40.93,38.57,40.74,39.31,40.75Z" style="fill:#fff;fill-rule:evenodd"/><path d="M39.32,40.43a8.79,8.79,0,0,1,2,.21A2.36,2.36,0,0,1,43,41.79a7.75,7.75,0,0,1,.48,1.83,12.63,12.63,0,0,1,.15,2.29c-.07,1.06-.45,1.34-1.13,1.3A5.27,5.27,0,0,1,41.47,47a7.82,7.82,0,0,0-2.21-.42,6,6,0,0,0-2.07.43,4.28,4.28,0,0,1-1.21.29c-.61,0-1-.32-1-1.35,0-.41,0-1.22.09-2.06a6.23,6.23,0,0,1,.6-2.36A2.17,2.17,0,0,1,37,40.72a9.24,9.24,0,0,1,2.31-.29Zm1.83.82a9.19,9.19,0,0,0-1.84-.19,9.67,9.67,0,0,0-2.13.27,1.81,1.81,0,0,0-.94.49,5.77,5.77,0,0,0-.51,2.1,18.44,18.44,0,0,0-.09,2c0,.54.13.71.34.71a3.83,3.83,0,0,0,1-.26,6.61,6.61,0,0,1,2.29-.46,8.53,8.53,0,0,1,2.37.45,4.42,4.42,0,0,0,.92.21c.26,0,.41-.14.44-.7a11.9,11.9,0,0,0-.14-2.15,7.8,7.8,0,0,0-.43-1.67A1.87,1.87,0,0,0,41.15,41.25Z" style="fill:#3a2018;fill-rule:evenodd"/><path d="M48.85,34.73a.48.48,0,0,1,.22.93,5.06,5.06,0,0,1-2.33.11,4.89,4.89,0,0,1-2.57-1.61.48.48,0,1,1,.71-.65,3.93,3.93,0,0,0,2.06,1.32A4.24,4.24,0,0,0,48.85,34.73Z" style="fill:#3a2018;fill-rule:evenodd"/><path d="M50.09,39a.32.32,0,0,1-.17-.62,4.2,4.2,0,0,1,2.7,0,1,1,0,0,1,.49.49.73.73,0,0,1-.12.7,2.86,2.86,0,0,1-1.27.84,3.82,3.82,0,0,1,1.56.92,1,1,0,0,1,.3.68.67.67,0,0,1-.49.6,3.73,3.73,0,0,1-1.86,0,2.17,2.17,0,0,1,.48,1.14.77.77,0,0,1-.3.68.92.92,0,0,1-.74.13,4,4,0,0,1-2.2-1.87.32.32,0,1,1,.53-.35,3.4,3.4,0,0,0,1.79,1.59.31.31,0,0,0,.24,0,.21.21,0,0,0,0-.15,2.52,2.52,0,0,0-1-1.45.31.31,0,0,1-.11-.34.31.31,0,0,1,.39-.22,5,5,0,0,0,2.47.27l.08,0c0-.05,0-.12-.14-.22a4,4,0,0,0-2.27-1,.31.31,0,0,1-.28-.24.31.31,0,0,1,.22-.39,3.78,3.78,0,0,0,2-1s.05-.09,0-.11a.35.35,0,0,0-.17-.13A3.51,3.51,0,0,0,50.09,39Z" style="fill:#3a2018;fill-rule:evenodd"/></g></g></svg>