<svg xmlns="http://www.w3.org/2000/svg" viewBox="0 0 78.88 78.88"><title>marketingSales6SophiaYamadaSVG</title><g id="Layer_2" data-name="Layer 2"><g id="Layer_2-2" data-name="Layer 2"><rect width="78.88" height="78.88" style="fill:#b44e6b"/><path d="M61.58,77.93s-.1-5.74-.32-6.25c-.44-2,.34-2.92-2.76-4.85l-1.72-.56h0c-.66-.22-1.46-.48-2.29-.77l-1-.33c-.82-.29-1.64-.59-2.4-.88-.52-.19-1-.39-1.44-.56s-.67-.31-.93-.44a2.72,2.72,0,0,1-.56-.36.76.76,0,0,0-.07-.09L48,62.74a19.83,19.83,0,0,1-1.27-3.4h0a6.46,6.46,0,0,1-.12-1c0-.46,0-.93,0-1.34s0-.83,0-1.15v-.27c0-.23,0-.42,0-.56s0-.23,0-.23l.82-.72c.61-.55,1.48-1.33,2.23-2.08a8.91,8.91,0,0,0,1.67-2,1.21,1.21,0,0,0,0-.14h-.06c-.38.06-2.44.42-4.64.77-1.32.2-2.69.4-3.81.54l-1.19.14h0c-.33,0-.6,0-.8,0s-.54,0-.91,0h0l-1.25-.16c-1-.13-2.26-.31-3.45-.49s-2.17-.34-3-.49l-.55-.09c-.81-.13-1.32-.23-1.32-.23a1.46,1.46,0,0,0,.38.7s0,0,0,0c.18.23.42.51.7.82s.58.58.89.88c.94.92,2,1.83,2.47,2.26l.3.26a2,2,0,0,1,0,.23c0,.14,0,.33,0,.56v.27a2.81,2.81,0,0,1,0,.29c0,.62,0,1.39-.06,2.2a5.36,5.36,0,0,1-.12,1,20.34,20.34,0,0,1-1.26,3.41l-.08.09-.07.09a1.24,1.24,0,0,1-.23.17,8.54,8.54,0,0,1-.95.5l-1.21.5c-1.06.41-2.33.86-3.53,1.27l-.26.09c-.89.31-1.75.59-2.44.82h0L23,66.83c-3.08,1.92-2.32,2.84-2.75,4.82h0v0a.39.39,0,0,0,0,.15h0c-.2,1-.29,6.09-.29,6.09v.95H61.59C61.59,78.56,61.59,78.24,61.58,77.93Z" style="fill:#fbd2c5"/><path d="M46.76,59.33a5.14,5.14,0,0,1-.12-1c0-1.07-.06-2.09-.07-2.76a13.39,13.39,0,0,1-5.43,1.26,2.06,2.06,0,0,1-.36,0,2.23,2.23,0,0,1-.37,0A13.39,13.39,0,0,1,35,55.61c0,.67,0,1.69-.07,2.76a4.43,4.43,0,0,1-.12,1c1.73,1.44,4.07,2.93,5.62,2.93a1.77,1.77,0,0,0,.33,0h.08a1.62,1.62,0,0,0,.32,0C42.69,62.26,45,60.77,46.76,59.33Z" style="fill:#d29f97"/><path d="M56.13,37.92c.3-1.65.53-2.92.61-3.17l.09-.35c0-.15.06-.28.08-.41s.1-.41.15-.61a2.74,2.74,0,0,1,0-.28c0-.23.08-.46.11-.68s0-.21,0-.3.05-.41.07-.61,0-.31.05-.45,0-.27,0-.4a14.21,14.21,0,0,0-2.55-9.16c-2.47-3.46-5.31-7.12-11.47-7.63h-5.2c-6.17.51-9,4.17-11.48,7.63a14.21,14.21,0,0,0-2.55,9.16c0,.13,0,.27,0,.4a3.26,3.26,0,0,1,0,.45c0,.2,0,.41.07.61a2.72,2.72,0,0,1,0,.3c0,.22.08.45.12.68a2.74,2.74,0,0,0,.05.28c0,.2.08.41.14.61s.06.26.08.41.06.24.1.35.3,1.5.6,3.14c-1.65-.8-3.93.35-3.66,3.38s4,4.9,5.3,5.21a8.68,8.68,0,0,0,.31,1.17c1.12,2.82,2.48,3.67,4.87,6,2.6,2.5,6.44,4.83,8.33,4.82H41c1.9,0,5.74-2.32,8.34-4.82,2.38-2.3,3.74-3.15,4.86-6a8.86,8.86,0,0,0,.31-1.16c1.24-.28,5.06-2.11,5.34-5.22S57.78,37.07,56.13,37.92Z" style="fill:#fbd2c5"/><path d="M58.63,39.61a1.8,1.8,0,0,0-2.74-.54,1.56,1.56,0,0,0-.46,1.72c.13.5.65.54.52,1.3a1.37,1.37,0,0,1-.77,1.1,1.68,1.68,0,0,0-.65.69,2,2,0,0,0-.1,1.07c.15.62,1,.14,1.65-.13a12.15,12.15,0,0,0,2-1.58,3.43,3.43,0,0,0,.57-3.63" style="fill:#e9b7ac"/><path d="M23,39.61a1.8,1.8,0,0,1,2.74-.54,1.54,1.54,0,0,1,.46,1.72c-.12.5-.65.54-.51,1.3a1.35,1.35,0,0,0,.77,1.1,1.81,1.81,0,0,1,.65.69A2,2,0,0,1,27.16,45c-.14.62-1,.14-1.64-.13a12.21,12.21,0,0,1-2-1.58A3.43,3.43,0,0,1,23,39.61" style="fill:#e9b7ac"/><path d="M33,60C31.86,63.12,27.67,65,27,65.28l-.15,0-.26.08-2.55.83h0l-1.78.56c-3.21,1.92-2.43,2.84-2.87,4.83h0v0a.29.29,0,0,0,0,.14h0a12.53,12.53,0,0,0-.14,1.47h5.91a24.32,24.32,0,0,0-1.21,5.59h15V66A6,6,0,0,0,33,60Z" style="fill:#46423e"/><path d="M49,60c1.09,3.16,5.27,5.05,5.91,5.32l.15,0,.26.08,2.55.83h0l1.78.56c3.21,1.92,2.43,2.84,2.87,4.83h0v0a.29.29,0,0,1,0,.14h0c0,.27.1.82.14,1.47H56.83A24.32,24.32,0,0,1,58,78.88h-15V66A6,6,0,0,1,49,60Z" style="fill:#46423e"/><path d="M57.76,16.39c-1.69-2.61-1.82-1.87-1.82-1.87a6.31,6.31,0,0,0-.28-3.29c-2.73-8.77-20.84-10-20.84-10A23.41,23.41,0,0,1,44,7C36.48,2.67,24.17,5.09,24.17,5.09a23.51,23.51,0,0,1,8.54,1.16c-.42,0-.83.1-1.26.17-5.34.82-9,3.45-12,7.74a19.25,19.25,0,0,0-2.65,7.1l2.77-3.69A18.39,18.39,0,0,0,16.79,30c1.64,12.39,7.38,14.68,7.38,14.68s-4-7.42-1.34-12.23A15.39,15.39,0,0,1,35,24.15s-5.47.65-7.48,8.5v0a6,6,0,0,1,3.7-3.49A38,38,0,0,1,36,27.88a13.71,13.71,0,0,0-2.76,6.42,16.44,16.44,0,0,1,7.92-5.83l1-.39a6.91,6.91,0,0,0-.53,6.45s-.2-3.24,6.87-5.27c4.06-1.17,4.72-3.47,4.72-3.47a12.64,12.64,0,0,0,.52,3.74c.63,1.69,2.43,2.79,2.56,4.32C56.6,36.69,55.07,42,55.07,42l2.28-1.79A68,68,0,0,0,59.65,26C59.65,22.75,59.05,18.36,57.76,16.39Z" style="fill:#f07068"/><polygon points="18.32 63.35 21.97 69.88 23.75 68.14 18.32 63.35" style="fill:#fff"/><polygon points="25.27 62.52 27.7 66.87 28.89 65.71 25.27 62.52" style="fill:#fff"/><polygon points="29.53 60.08 31.35 63.35 32.25 62.48 29.53 60.08" style="fill:#fff"/><polygon points="63 63.06 59.35 69.59 57.57 67.85 63 63.06" style="fill:#fff"/><polygon points="56.05 62.23 53.63 66.58 52.44 65.42 56.05 62.23" style="fill:#fff"/><polygon points="51.79 59.79 49.97 63.06 49.08 62.19 51.79 59.79" style="fill:#fff"/><path d="M35,43.23a.25.25,0,0,1,.2.29.26.26,0,0,1-.29.2,7.13,7.13,0,0,0-2.06,0,9.29,9.29,0,0,0-3.64,1.2.25.25,0,0,1-.34-.1.25.25,0,0,1,.09-.34,9.73,9.73,0,0,1,3.84-1.26A7.6,7.6,0,0,1,35,43.23Z" style="fill:#3a2018;fill-rule:evenodd"/><path d="M31.29,39.3a3.19,3.19,0,0,1,3.92,2.24,3.14,3.14,0,0,1-.1,2,10.64,10.64,0,0,0-5.49.84A3.28,3.28,0,0,1,29,43.22,3.19,3.19,0,0,1,31.29,39.3Z" style="fill:#3a2018;fill-rule:evenodd"/><path d="M32.73,40.13a1,1,0,0,1,1.2.69,1,1,0,1,1-1.89.51A1,1,0,0,1,32.73,40.13Z" style="fill:#fff;fill-rule:evenodd"/><path d="M46.12,43.72a.26.26,0,0,1-.29-.2.25.25,0,0,1,.2-.29,7.6,7.6,0,0,1,2.2-.06,9.73,9.73,0,0,1,3.84,1.26.25.25,0,0,1,.09.34.25.25,0,0,1-.34.1,9.29,9.29,0,0,0-3.64-1.2A7.13,7.13,0,0,0,46.12,43.72Z" style="fill:#3a2018;fill-rule:evenodd"/><path d="M49.71,39.3a3.19,3.19,0,0,0-3.92,2.24,3.14,3.14,0,0,0,.1,2,10.64,10.64,0,0,1,5.49.84A3.28,3.28,0,0,0,52,43.22,3.19,3.19,0,0,0,49.71,39.3Z" style="fill:#3a2018;fill-rule:evenodd"/><path d="M48.27,40.13a1,1,0,1,0,.69,1.2A1,1,0,0,0,48.27,40.13Z" style="fill:#fff;fill-rule:evenodd"/><path d="M28.4,39.57a.68.68,0,0,1-.87.38.66.66,0,0,1-.38-.86,5.92,5.92,0,0,1,2-2.42,7.32,7.32,0,0,1,3-1.29.67.67,0,1,1,.25,1.32,6,6,0,0,0-2.42,1A4.49,4.49,0,0,0,28.4,39.57Z" style="fill:#3a2018;fill-rule:evenodd"/><path d="M54,39.09a.67.67,0,0,1-.38.86.68.68,0,0,1-.87-.38,4.57,4.57,0,0,0-1.6-1.89,6,6,0,0,0-2.56-1,.68.68,0,0,1-.56-.77.67.67,0,0,1,.77-.55,7.34,7.34,0,0,1,3.13,1.25A6,6,0,0,1,54,39.09Z" style="fill:#3a2018;fill-rule:evenodd"/><path d="M34.59,48.34a.32.32,0,0,1,0-.47.33.33,0,0,1,.47,0c1.36,1.22,1.41,1.18,2.19.39l.06-.06.22-.22c.17-.17.3-.3.44-.42.76-.7,1-.56,2.06.59.36.4.54.59.65.57s.38-.3.84-.81a1.35,1.35,0,0,1,1.15-.56,2.26,2.26,0,0,1,1.28.77l0,0,.12.12c.78.79.83.83,2.19-.39a.33.33,0,1,1,.44.5c-1.83,1.65-1.9,1.57-3.11.36l-.12-.12h0a1.62,1.62,0,0,0-.88-.58c-.18,0-.37.1-.58.33-.56.63-.87,1-1.24,1s-.72-.2-1.25-.78-.8-.83-1.12-.55c-.1.1-.24.23-.4.4l-.22.22h0l-.06.06C36.5,49.91,36.43,50,34.59,48.34Z" style="fill:#3a2018;fill-rule:evenodd"/><path d="M37.51,43.7a.26.26,0,0,1-.35.08.25.25,0,0,1-.07-.35,3.34,3.34,0,0,1,.87-.87A4.8,4.8,0,0,1,39.14,42a.26.26,0,0,1,.32.16.25.25,0,0,1-.15.32,4.19,4.19,0,0,0-1.06.54A3,3,0,0,0,37.51,43.7Z" style="fill:#3a2018;fill-rule:evenodd"/><path d="M42.66,43.8a.25.25,0,0,1-.35,0,.26.26,0,0,1,0-.36l0,0a4.2,4.2,0,0,1,1.58-1.3.25.25,0,1,1,.22.45,3.85,3.85,0,0,0-1.41,1.16Z" style="fill:#3a2018;fill-rule:evenodd"/><path d="M40.12,43.88a.25.25,0,0,1-.34.09.25.25,0,0,1-.1-.34,3.68,3.68,0,0,1,.79-.91,3.42,3.42,0,0,1,1-.59.25.25,0,0,1,.32.15.24.24,0,0,1-.15.32,2.92,2.92,0,0,0-.83.5A3.07,3.07,0,0,0,40.12,43.88Z" style="fill:#3a2018;fill-rule:evenodd"/></g></g></svg>