<svg xmlns="http://www.w3.org/2000/svg" viewBox="0 0 78.88 78.88"><title>marketingSales8IsabellaMoriSVG</title><g id="Layer_2" data-name="Layer 2"><g id="Layer_2-2" data-name="Layer 2"><rect width="78.88" height="78.88" style="fill:#215a66"/><path d="M47.4,62.55a2.62,2.62,0,0,1-.59-.38.76.76,0,0,0-.07-.09l-.08-.1a20.49,20.49,0,0,1-1.32-3.56h0a5.71,5.71,0,0,1-.13-1c0-.48,0-1,0-1.41s0-.86,0-1.2v-.28c0-.24,0-.44,0-.59a2,2,0,0,1,0-.24l.87-.75c.63-.57,1.54-1.4,2.33-2.18a9.18,9.18,0,0,0,1.75-2.09,1,1,0,0,0,0-.15l-.06,0c-.4.06-2.55.43-4.86.79-1.37.22-2.8.43-4,.58l-1.25.14h0c-.34,0-.62.05-.84.05s-.56,0-.94-.05h0l-1.31-.17c-1.08-.13-2.36-.32-3.61-.51L30,48.86c-.21,0-.4-.06-.57-.1l-1.39-.24a1.54,1.54,0,0,0,.4.74,0,0,0,0,0,0,0,11.3,11.3,0,0,0,.74.86c.29.3.6.62.92.93,1,1,2.06,1.91,2.59,2.36l.31.27s0,.09,0,.24,0,.35,0,.59v.28a1.51,1.51,0,0,1,0,.3c0,.65,0,1.46-.06,2.31a5.69,5.69,0,0,1-.12,1A21.35,21.35,0,0,1,31.49,62a.86.86,0,0,1-.07.1s-.06.08-.08.09a2.11,2.11,0,0,1-.24.18A14.44,14.44,0,0,0,47.4,62.55Z" style="fill:#fbd2c5"/><path d="M45.35,58.41a5.59,5.59,0,0,1-.13-1c0-1.12-.06-2.19-.07-2.89a14.13,14.13,0,0,1-5.68,1.32,2.48,2.48,0,0,1-.39,0,2.36,2.36,0,0,1-.38,0A14.09,14.09,0,0,1,33,54.52c0,.7,0,1.77-.08,2.89a5.58,5.58,0,0,1-.12,1c1.81,1.51,4.26,3.07,5.88,3.07a1.87,1.87,0,0,0,.34,0h.09a1.87,1.87,0,0,0,.34,0C41.09,61.48,43.54,59.92,45.35,58.41Z" style="fill:#d29f97"/><path d="M55.16,36c.31-1.73.55-3,.63-3.31s.06-.25.1-.38S56,32,56,31.89s.1-.43.15-.64,0-.2,0-.3.08-.47.12-.71,0-.21,0-.31,0-.42.07-.64,0-.32.05-.47,0-.28,0-.41a15,15,0,0,0-2.67-9.59c-2.59-3.62-5.56-7.46-12-8H36.36c-6.45.53-9.42,4.37-12,8a15,15,0,0,0-2.67,9.59c0,.13,0,.27,0,.41a3.56,3.56,0,0,1,.05.47c0,.22,0,.43.08.64s0,.21,0,.31.08.48.12.71,0,.2.05.3.09.43.15.64l.09.42c0,.13.06.25.1.38s.31,1.57.63,3.28c-1.73-.84-4.12.37-3.83,3.54s4.2,5.13,5.54,5.45a10.24,10.24,0,0,0,.33,1.23c1.17,3,2.6,3.84,5.09,6.25,2.73,2.61,6.75,5.06,8.73,5.05h.43c2,0,6-2.44,8.72-5.05,2.5-2.41,3.92-3.3,5.1-6.25A11.1,11.1,0,0,0,53.44,45c1.3-.29,5.3-2.21,5.59-5.46S56.88,35.11,55.16,36Z" style="fill:#fbd2c5"/><path d="M57.78,37.77a1.89,1.89,0,0,0-2.87-.57,1.64,1.64,0,0,0-.48,1.8c.13.53.68.57.53,1.37a1.39,1.39,0,0,1-.8,1.15,1.73,1.73,0,0,0-.68.73,2,2,0,0,0-.1,1.11c.15.65,1.09.15,1.72-.13a12.88,12.88,0,0,0,2.08-1.65,3.63,3.63,0,0,0,.6-3.81" style="fill:#e9b7ac"/><path d="M20.43,37.77a1.89,1.89,0,0,1,2.87-.57,1.64,1.64,0,0,1,.48,1.8c-.13.53-.68.57-.53,1.37a1.39,1.39,0,0,0,.8,1.15,1.79,1.79,0,0,1,.68.73,2,2,0,0,1,.1,1.11c-.15.65-1.09.15-1.72-.13A12.88,12.88,0,0,1,21,41.58a3.63,3.63,0,0,1-.6-3.81" style="fill:#e9b7ac"/><path d="M60.32,17.65a8.27,8.27,0,0,1-3-.46,5.88,5.88,0,0,1-2.54-1.65.54.54,0,0,1,.28-.92c.34-.07.66-.14.94-.22a.55.55,0,0,0,.08-1c-3.7-1.65-5.73-2.57-6.79-3-.33-.17-.69-.34-1.08-.5-2.78-1.13-4.44-1-5.4-.57a4.58,4.58,0,0,1,2.39-.7h.58a5.55,5.55,0,0,0-1.24-.41,23.24,23.24,0,0,0-5.6-1,23.34,23.34,0,0,0-5.61,1,5.81,5.81,0,0,0-1.24.41h.59a4.58,4.58,0,0,1,2.39.7c-1-.41-2.62-.56-5.4.57-.39.16-.75.33-1.09.5-1.06.48-3.08,1.4-6.79,3a.55.55,0,0,0,.08,1c.29.08.61.15.95.22a.55.55,0,0,1,.28.92,6,6,0,0,1-2.55,1.65,8.22,8.22,0,0,1-2.94.46.54.54,0,0,0-.33,1,4.94,4.94,0,0,0,2.94,1h.53a26,26,0,0,0-1.33,5.22c-.21,2.28.47,3.84.68,8.11a5,5,0,0,0,.41,2.15c.43.75,1.13.5,1.92,2.31a5.76,5.76,0,0,1,.41,1.91.26.26,0,0,0,.08.05c.25.09,1,0,1-3.78a1.87,1.87,0,0,0,0-.2c-.34-1.57-2.52-12.31.11-16.33a.49.49,0,0,1,.36-.23,35,35,0,0,1,5.47-.43A.54.54,0,0,1,30,19.47l-.13,0a.55.55,0,0,0,.2,1.06,17.15,17.15,0,0,1,4.69.38.55.55,0,0,1,0,1.07,15.64,15.64,0,0,0-1.62.43.54.54,0,0,0,.2,1.06,18.06,18.06,0,0,1,5.63.6,18,18,0,0,1,5.63-.6.54.54,0,0,0,.2-1.06c-.49-.16-1-.3-1.62-.43a.55.55,0,0,1,0-1.07,17.22,17.22,0,0,1,4.69-.38.54.54,0,0,0,.2-1.06l-.12,0a.54.54,0,0,1,.15-1.06,35,35,0,0,1,5.47.43.51.51,0,0,1,.36.23c2.63,4,.44,14.76.1,16.33,0,.12,0,.2,0,.2,0,3.8.74,3.87,1,3.78a.26.26,0,0,0,.08-.05,5.62,5.62,0,0,1,.42-1.91c.78-1.81,1.48-1.56,1.91-2.31A4.91,4.91,0,0,0,57.83,33c.2-4.27.89-5.83.67-8.11a25.3,25.3,0,0,0-1.33-5.22h.53a5,5,0,0,0,2.95-1A.54.54,0,0,0,60.32,17.65Z" style="fill:#fff"/><path d="M57.64,66.27s-.74-.24-1.8-.59h0l-2.39-.8-1-.35c-.86-.31-1.72-.62-2.51-.92L48.37,63c-.37-.17-.7-.32-1-.46a14.44,14.44,0,0,1-16.3-.2,9.31,9.31,0,0,1-1,.52c-.37.16-.8.34-1.27.52-1.11.44-2.44.91-3.7,1.34a2,2,0,0,0-.26.09l-2.56.86h0c-1.05.35-1.76.57-1.78.59A7.41,7.41,0,0,0,18.47,68H59.69A7.41,7.41,0,0,0,57.64,66.27Z" style="fill:#b44e6b"/><path d="M17.63,71.31h0v0a.61.61,0,0,0,0,.15h0v0c-.05.31-.1.93-.14,1.65H60.71c0-.72-.09-1.34-.14-1.65a.8.8,0,0,0,0-.19,12,12,0,0,1-.18-1.29H17.81A11.06,11.06,0,0,1,17.63,71.31Z" style="fill:#b44e6b"/><path d="M17.3,77.89c0,.32,0,.65,0,1H60.87c0-.34,0-.67,0-1,0,0,0-1.22-.07-2.61H17.36C17.32,76.67,17.3,77.89,17.3,77.89Z" style="fill:#b44e6b"/><path d="M17.36,75.28H60.79c0-.7,0-1.44-.08-2.09H17.45C17.41,73.84,17.38,74.58,17.36,75.28Z" style="fill:#fff"/><path d="M18.47,68a3.61,3.61,0,0,0-.66,2.09H60.34A3.67,3.67,0,0,0,59.69,68Z" style="fill:#fff"/><rect x="22.79" width="12.83" style="fill:#327798"/><polygon points="35.63 0 35.63 0 40.13 0 40.21 0 57.55 0 57.55 0 35.63 0" style="fill:#1d4b5e"/><path d="M34.64,42.63c2.09,1.28,4.94.82,6.84-.13,6.47-3.24,9.37,5.85,3.13,6.1-2.53.1-3.39-2.3-6.58-2.11s-3,2-5.81,1.92C28.11,48.25,30.26,39.94,34.64,42.63Z" style="fill:#fff;fill-rule:evenodd"/><path d="M45.77,35.58a1.7,1.7,0,0,1,1.85,1.73,2,2,0,0,1-1.76,2.08A1.69,1.69,0,0,1,44,37.67,2,2,0,0,1,45.77,35.58Z" style="fill:#fff;fill-rule:evenodd"/><path d="M31.55,35.69A1.9,1.9,0,1,1,30.47,38,1.82,1.82,0,0,1,31.55,35.69Z" style="fill:#fff;fill-rule:evenodd"/><path d="M34.82,42.35a5.43,5.43,0,0,0,3,.73,8.4,8.4,0,0,0,3.53-.88c2.34-1.17,4.26-.81,5.51.18a4.29,4.29,0,0,1,1.4,2.08,3.56,3.56,0,0,1-.08,2.37,3.64,3.64,0,0,1-3.54,2.1,5.09,5.09,0,0,1-3-1,5.56,5.56,0,0,0-3.53-1.08,5.05,5.05,0,0,0-2.87,1,4.29,4.29,0,0,1-3,.91,2.43,2.43,0,0,1-2.38-1.86,4.46,4.46,0,0,1,.07-2.45,4.13,4.13,0,0,1,1.36-2.07,2.94,2.94,0,0,1,3.56,0Zm3,1.4a6.13,6.13,0,0,1-3.34-.83,2.32,2.32,0,0,0-2.8,0,3.48,3.48,0,0,0-1.13,1.73,3.67,3.67,0,0,0-.06,2.07,1.79,1.79,0,0,0,1.75,1.38,3.75,3.75,0,0,0,2.58-.79A5.52,5.52,0,0,1,38,46.16a6.11,6.11,0,0,1,3.92,1.18,4.55,4.55,0,0,0,2.66.92,3,3,0,0,0,2.95-1.68,3,3,0,0,0,.06-1.93,3.53,3.53,0,0,0-1.18-1.74c-1.06-.85-2.73-1.14-4.79-.11A9.09,9.09,0,0,1,37.81,43.75Z" style="fill:#3a2018;fill-rule:evenodd"/><path d="M31.46,45.38a.25.25,0,1,1-.07-.49s9.38-1.35,15.63.9a.25.25,0,0,1-.17.47C40.72,44.05,31.48,45.38,31.46,45.38Z" style="fill:#3a2018;fill-rule:evenodd"/><path d="M32.11,34.74a2.47,2.47,0,0,1,1.81.81,2.93,2.93,0,0,1,0,3.87,2.41,2.41,0,0,1-3.62,0,2.93,2.93,0,0,1,0-3.87,2.47,2.47,0,0,1,1.81-.81ZM33.42,36a1.75,1.75,0,0,0-2.62,0,2.24,2.24,0,0,0-.56,1.49A2.22,2.22,0,0,0,30.8,39a1.73,1.73,0,0,0,2.62,0A2.22,2.22,0,0,0,34,37.49,2.24,2.24,0,0,0,33.42,36Z" style="fill:#3a2018;fill-rule:evenodd"/><path d="M33.1,35.8a1.74,1.74,0,0,1,.8,1.13,2.06,2.06,0,0,1-.23,1.46,2.1,2.1,0,0,1-1.14.93,1.76,1.76,0,0,1-1.4-.14h0a1.72,1.72,0,0,1-.8-1.13,2.06,2.06,0,0,1,1.37-2.38,1.72,1.72,0,0,1,1.4.14Zm.47,1.2a1.39,1.39,0,0,0-.64-.91h0A1.4,1.4,0,0,0,31.79,36a1.74,1.74,0,0,0-1.15,2,1.41,1.41,0,0,0,.65.91h0a1.4,1.4,0,0,0,1.13.11,1.75,1.75,0,0,0,1-.78A1.72,1.72,0,0,0,33.57,37Z" style="fill:#3a2018;fill-rule:evenodd"/><path d="M29.91,40.66a.24.24,0,0,1-.32-.14.25.25,0,0,1,.14-.33,8.75,8.75,0,0,1,1.91-.35,24.16,24.16,0,0,1,2.66-.13.26.26,0,0,1,.25.26.25.25,0,0,1-.25.25,23.11,23.11,0,0,0-2.61.12A8.21,8.21,0,0,0,29.91,40.66Z" style="fill:#3a2018;fill-rule:evenodd"/><path d="M45.82,35.41a1.79,1.79,0,0,0-1.31.59A2.19,2.19,0,0,0,44,37.49,2.17,2.17,0,0,0,44.51,39a1.73,1.73,0,0,0,2.62,0,2.21,2.21,0,0,0,.55-1.48A2.24,2.24,0,0,0,47.13,36a1.8,1.8,0,0,0-1.31-.59ZM44,35.55a2.42,2.42,0,0,1,3.61,0,2.93,2.93,0,0,1,0,3.87,2.4,2.4,0,0,1-3.61,0,2.93,2.93,0,0,1,0-3.87Z" style="fill:#3a2018;fill-rule:evenodd"/><path d="M45.48,35.86l-.11,0a1.42,1.42,0,0,0-.89.57,1.58,1.58,0,0,0-.25,1.08.69.69,0,0,0,0,.13,1.91,1.91,0,0,0,.69,1.11,1.7,1.7,0,0,0,1.21.35l.11,0a1.41,1.41,0,0,0,.89-.58,1.55,1.55,0,0,0,.25-1.07.59.59,0,0,0,0-.13,1.85,1.85,0,0,0-.69-1.11,1.69,1.69,0,0,0-1.21-.35Zm-.17-.31.14,0a2,2,0,0,1,1.44.41,2.17,2.17,0,0,1,.82,1.31l0,.16a1.9,1.9,0,0,1-.32,1.3,1.69,1.69,0,0,1-1.09.72l-.14,0A2,2,0,0,1,44.74,39a2.14,2.14,0,0,1-.82-1.31.78.78,0,0,1,0-.16,1.87,1.87,0,0,1,.31-1.3A1.71,1.71,0,0,1,45.31,35.55Z" style="fill:#3a2018;fill-rule:evenodd"/><path d="M48.2,40.2a.26.26,0,0,1,.14.33.25.25,0,0,1-.33.14,8.22,8.22,0,0,0-1.77-.32,21.17,21.17,0,0,0-2.61-.12.25.25,0,0,1-.25-.25.25.25,0,0,1,.24-.26,24.22,24.22,0,0,1,2.67.13A8.87,8.87,0,0,1,48.2,40.2Z" style="fill:#3a2018;fill-rule:evenodd"/></g></g></svg>