<svg xmlns="http://www.w3.org/2000/svg" viewBox="0 0 78.88 78.88"><title>marketingSalesLilyShimizuSVG</title><g id="Layer_2" data-name="Layer 2"><g id="Layer_2-2" data-name="Layer 2"><rect width="78.88" height="78.88" style="fill:#6394a4"/><path d="M21.5,33.63S27.26,54.05,16,66.58H60.43s-11-21.14-3.52-32.95Z" style="fill:#46423e"/><path d="M61,77.89s-.1-6-.33-6.54c-.47-2.1.36-3.06-2.89-5.08,0,0-.73-.24-1.8-.59h0l-2.4-.8c-.34-.12-.67-.24-1-.35-.87-.31-1.72-.62-2.51-.92L48.47,63c-.38-.17-.71-.32-1-.46a2.4,2.4,0,0,1-.59-.38s0-.05-.08-.09a.86.86,0,0,1-.07-.1,21.11,21.11,0,0,1-1.33-3.56h0a5.69,5.69,0,0,1-.12-1c0-.48,0-1,0-1.41s0-.86,0-1.2v-.28c0-.24,0-.44,0-.59s0-.24,0-.24l.86-.75c.64-.57,1.55-1.4,2.33-2.18a9.18,9.18,0,0,0,1.75-2.09.49.49,0,0,0,0-.15l-.06,0c-.4.06-2.55.43-4.86.79-1.37.22-2.81.43-4,.58L40,50.05h0c-.33,0-.62.05-.83.05s-.56,0-1-.05h0l-1.31-.17c-1.07-.13-2.36-.32-3.6-.51l-3.16-.51-.58-.1-1.38-.24a1.54,1.54,0,0,0,.4.74,0,0,0,0,0,0,0c.19.25.44.54.73.86s.6.62.93.93c1,1,2.06,1.91,2.58,2.36l.32.27a2,2,0,0,1,0,.24c0,.15,0,.35,0,.59v.28c0,.1,0,.2,0,.3,0,.65,0,1.46-.06,2.31a5.71,5.71,0,0,1-.13,1A20.72,20.72,0,0,1,31.59,62l-.08.1a.76.76,0,0,0-.07.09l-.25.18a9.31,9.31,0,0,1-1,.52c-.37.16-.8.34-1.27.52-1.11.44-2.43.91-3.7,1.34a2.67,2.67,0,0,0-.26.09l-2.56.86h0c-1,.35-1.76.57-1.79.59-3.22,2-2.43,3-2.88,5h0v0a.48.48,0,0,0,0,.15h0c-.21,1.09-.3,6.38-.3,6.38,0,.32,0,.65,0,1H61C61,78.54,61,78.21,61,77.89Z" style="fill:#fbd2c5"/><path d="M45.44,58.41a5.58,5.58,0,0,1-.12-1c0-1.12-.06-2.19-.08-2.89a14.09,14.09,0,0,1-5.68,1.32,3.62,3.62,0,0,1-.76,0,14.17,14.17,0,0,1-5.69-1.32c0,.7,0,1.77-.07,2.89a4.81,4.81,0,0,1-.13,1c1.81,1.51,4.26,3.07,5.89,3.07a1.79,1.79,0,0,0,.34,0h.08a1.79,1.79,0,0,0,.34,0C41.18,61.48,43.63,59.92,45.44,58.41Z" style="fill:#d29f97"/><path d="M55.25,36c.31-1.73.56-3,.63-3.31s.07-.25.1-.38.07-.28.09-.42.1-.43.15-.64,0-.2.05-.3.09-.47.12-.71,0-.21,0-.31,0-.42.08-.64a3.56,3.56,0,0,1,.05-.47c0-.14,0-.28,0-.41a14.89,14.89,0,0,0-2.67-9.59c-2.58-3.62-5.56-7.46-12-8H36.46c-6.46.53-9.43,4.37-12,8a15,15,0,0,0-2.67,9.59c0,.13,0,.27,0,.41s0,.31.05.47,0,.43.07.64,0,.21,0,.31.09.48.12.71,0,.2.05.3.09.43.15.64.07.27.09.42.06.25.1.38.32,1.57.63,3.28c-1.72-.84-4.11.37-3.83,3.54s4.21,5.13,5.55,5.45a10.82,10.82,0,0,0,.32,1.23c1.18,3,2.6,3.84,5.1,6.25C33,55.05,37,57.5,39,57.49h.43c2,0,6-2.44,8.73-5.05,2.49-2.41,3.92-3.3,5.09-6.25.08-.21.19-.64.33-1.22,1.29-.29,5.29-2.21,5.59-5.46S57,35.11,55.25,36Z" style="fill:#fbd2c5"/><path d="M57.87,37.77A1.89,1.89,0,0,0,55,37.2a1.64,1.64,0,0,0-.48,1.8c.13.53.68.57.54,1.37a1.42,1.42,0,0,1-.81,1.15,1.79,1.79,0,0,0-.68.73,2,2,0,0,0-.1,1.11c.15.65,1.1.15,1.72-.13a12.88,12.88,0,0,0,2.08-1.65,3.6,3.6,0,0,0,.6-3.81" style="fill:#e9b7ac"/><path d="M20.53,37.77a1.89,1.89,0,0,1,2.87-.57,1.64,1.64,0,0,1,.48,1.8c-.13.53-.68.57-.54,1.37a1.41,1.41,0,0,0,.8,1.15,1.73,1.73,0,0,1,.68.73,2,2,0,0,1,.1,1.11c-.15.65-1.09.15-1.72-.13a12.81,12.81,0,0,1-2.07-1.65,3.6,3.6,0,0,1-.6-3.81" style="fill:#e9b7ac"/><path d="M25.32,30.27h0v0Z" style="fill:#46423e"/><path d="M44.56,6.43l2.23,1.19A21.41,21.41,0,0,0,35,7.83a5.76,5.76,0,0,0-1.27.41l.6,0A4.76,4.76,0,0,1,36.72,9c-1-.41-2.68-.56-5.52.57-.4.16-.77.33-1.11.5-1.21.54-3.63,1.61-8.28,3.64a15,15,0,0,0,3.36.81,6.78,6.78,0,0,1-3.29,2.42c-4,1.24-5.11-.35-5.11-.35a6.16,6.16,0,0,0,4.77,2.8h.54a25.42,25.42,0,0,0-1.36,5.22c-.22,2.28.48,3.84.69,8.11a4.72,4.72,0,0,0,.43,2.15c.43.76,1.15.5,2,2.31A5.66,5.66,0,0,1,24.22,39l.08,0c.26.09,1,0,1-3.78,0,0,0-.07,0-.2-.35-1.59-2.65-12.66.25-16.52A35.23,35.23,0,0,1,35.7,18.4c-6.32.53-8.44,3.1-8.44,3.1,3.3-1.89,7.66-1.43,11.76-.16-6.3.54-8.42,3.11-8.42,3.11,4.73-2.71,11.61-.61,16.8,1.79-7.88-.83-12.85.79-12.85.79,12.71,0,17.7,3.63,19.45,5.56-.1,1.1-.14,2-.15,2.76,0,3.49.69,3.46.69,3.46.34,0,0-1.76,1.09-3a6.87,6.87,0,0,0,1-1.6,18.87,18.87,0,0,0,1.8-7.78C59.62,6.43,44.56,6.43,44.56,6.43Z" style="fill:#46423e"/><path d="M22.68,76.56c.05,3-.08,1.09-.2,2.32H56.14c-.12-1.23-.25.67-.18-2.32Z" style="fill:#edeeed"/><path d="M56,76.52h6.45c-.07-.45-.25-1.36-.49-2.44H16.34c-.28.94-.55,1.8-.79,2.44h7.13v0H56Z" style="fill:#b44e6b"/><path d="M59.66,67a11.92,11.92,0,0,0-4.21-3.11C39.7,80.41,27,68,23.53,63.87A14.22,14.22,0,0,0,19,67c-.83.86-1.79,4.35-2.62,7.12H61.92C61.33,71.45,60.35,67.78,59.66,67Z" style="fill:#edeeed"/><path d="M55.45,63.85a15.83,15.83,0,0,0-4-1.19c-11.48,14.17-21.85,3-24.2.06a18.49,18.49,0,0,0-3.73,1.15C27,68,39.7,80.41,55.45,63.85Z" style="fill:#b44e6b"/><path d="M43.05,42.3l.71,6.32a20.19,20.19,0,0,1-9.63-.33l.76-6.42c1.49,1.25,2.79-.11,4-1.15C40.73,42.48,40.87,43.19,43.05,42.3Z" style="fill:#cb4f41;fill-rule:evenodd"/><path d="M43.61,41.22a.33.33,0,1,1,.42.52c-2.4,1.89-2.66,1.73-5.16-.58-1.31,1.05-2,1.57-2.7,1.62s-1.3-.43-2.31-1.39a.35.35,0,0,1,0-.48.34.34,0,0,1,.48,0c.86.82,1.32,1.25,1.79,1.21s1.21-.57,2.55-1.65a.33.33,0,0,1,.44,0l.06.06C41.43,42.61,41.61,42.79,43.61,41.22Z" style="fill:#3a2018;fill-rule:evenodd"/><path d="M42.67,42.18a.35.35,0,0,1,.25-.41.33.33,0,0,1,.4.25,29.08,29.08,0,0,1,.86,6.58.32.32,0,0,1-.23.31c-3.08,1-7.26.27-10-.19h-.06a.34.34,0,0,1-.28-.38l.94-6.51a.34.34,0,0,1,.38-.28.34.34,0,0,1,.29.38l-.9,6.19c2.61.43,6.39,1,9.2.23A29.79,29.79,0,0,0,42.67,42.18Z" style="fill:#3a2018;fill-rule:evenodd"/><path d="M28.76,39a.34.34,0,0,1-.36-.31.33.33,0,0,1,.3-.36l.44,0a9.12,9.12,0,0,1,5.14.5.33.33,0,0,1,.14.45.32.32,0,0,1-.44.15,8.57,8.57,0,0,0-4.76-.43Z" style="fill:#3a2018;fill-rule:evenodd"/><path d="M28.75,36.83a.49.49,0,0,1-.41-.57.51.51,0,0,1,.58-.42s3.76.63,5.48,2.24a.5.5,0,0,1-.69.73C32.22,37.41,28.76,36.84,28.75,36.83Z" style="fill:#3a2018;fill-rule:evenodd"/><path d="M49.76,38.29a.33.33,0,0,1,.3.36.34.34,0,0,1-.36.31l-.46-.05a8.57,8.57,0,0,0-4.76.43.33.33,0,0,1-.45-.15.35.35,0,0,1,.15-.45,9.08,9.08,0,0,1,5.13-.5Z" style="fill:#3a2018;fill-rule:evenodd"/><path d="M49.54,35.84a.51.51,0,0,1,.58.42.5.5,0,0,1-.42.57s-3.46.58-5,2a.5.5,0,1,1-.69-.73C45.77,36.47,49.53,35.84,49.54,35.84Z" style="fill:#3a2018;fill-rule:evenodd"/><path d="M47.89,40.27c-.1,2.28,2,2.68,1.39,0C49,39.05,47.94,39,47.89,40.27Z" style="fill:#a6d2f0;fill-rule:evenodd"/><path d="M47.64,40.11a.25.25,0,0,1,.27-.23.26.26,0,0,1,.24.26,2,2,0,0,0,.42,1.67.42.42,0,0,0,.29.12.3.3,0,0,0,.23-.11,1.1,1.1,0,0,0,.1-1,.25.25,0,1,1,.48-.13,1.59,1.59,0,0,1-.21,1.49.79.79,0,0,1-.58.27,1,1,0,0,1-.63-.23A2.48,2.48,0,0,1,47.64,40.11Z" style="fill:#3a2018;fill-rule:evenodd"/><path d="M31.16,40.51c.1,2.29-2.05,2.69-1.39.05C30.08,39.3,31.11,39.22,31.16,40.51Z" style="fill:#a6d2f0;fill-rule:evenodd"/><path d="M30.9,40.39a.26.26,0,0,1,.51,0,2.44,2.44,0,0,1-.62,2.09.91.91,0,0,1-.67.24.86.86,0,0,1-.62-.35,2.05,2.05,0,0,1-.11-1.85.24.24,0,0,1,.31-.17.25.25,0,0,1,.17.32,1.6,1.6,0,0,0,0,1.39.35.35,0,0,0,.26.16.51.51,0,0,0,.31-.12A2,2,0,0,0,30.9,40.39Z" style="fill:#3a2018;fill-rule:evenodd"/></g></g></svg>