<svg xmlns="http://www.w3.org/2000/svg" viewBox="0 0 78.88 78.88"><title>marketingSales10AvaKagawaSVG</title><g id="Layer_2" data-name="Layer 2"><g id="Layer_2-2" data-name="Layer 2"><rect width="78.88" height="78.88" style="fill:#c1636d"/><path d="M56.84,51.59a12,12,0,0,0,2.91,1.61,4.22,4.22,0,0,1-2-3.17,13.66,13.66,0,0,1-.3-1.81h-.33a10.26,10.26,0,0,0-.78-12.74c.07.59-.37,1.81-.37,2.42,0,6.18-3.54,10.81-8.82,13.4a6.68,6.68,0,0,0,.4-2.3,5.77,5.77,0,0,0-1.25-3.8c-1.24-1.85-3.74-.28-6.63-.28s-5.4-1.57-6.64.28A5.77,5.77,0,0,0,31.76,49a6.93,6.93,0,0,0,.39,2.3c-5.27-2.59-8.82-7.22-8.82-13.4,0-.61-.43-1.83-.36-2.42a10.26,10.26,0,0,0-.78,12.74h-.34a13.66,13.66,0,0,1-.3,1.81,4.22,4.22,0,0,1-2,3.17,12.24,12.24,0,0,0,2.92-1.61l1.23-1.46,0,0a4.8,4.8,0,0,0,0,3,7.71,7.71,0,0,0,2.9,3.94,5.6,5.6,0,0,1-1-3.92s-.08.82,2.19,3.11a32.71,32.71,0,0,0,6.48,4.86c0-.07-.07-2.62-.1-3.55a18.54,18.54,0,0,0,5.18.76H40a18.59,18.59,0,0,0,5.18-.76c0,.93-.07,4-.11,4.11a46.25,46.25,0,0,0,6.49-5.42C53.79,54,53.7,53.2,53.7,53.2a5.6,5.6,0,0,1-1,3.92,7.71,7.71,0,0,0,2.9-3.94,4.76,4.76,0,0,0,0-3v0C55.83,50.39,56.56,51.27,56.84,51.59Z" style="fill:#f7f8f9"/><path d="M62.72,29.09a5.43,5.43,0,0,0,0-.57,15.85,15.85,0,0,0-.91-5.14C60,17.75,55.63,12.9,53.89,10.9,51.63,8.34,45.64,5.81,45,5.56s-3,.71-5.34.16-7,.13-13.64,4.41c-3.09,2-5.13,5.72-6.45,9.44a38.18,38.18,0,0,0-1.46,5.49,29.46,29.46,0,0,0-.58,4.84c0,1.73,1.2,5.16,2.37,8.18h6.19a18.1,18.1,0,0,1-.56-5.83c.31-1.71,3.71-4.83,6.17-6.9.68-.58,1.29-1.08,1.74-1.44a17.76,17.76,0,0,0,3.21-3.54,55.15,55.15,0,0,0,3-4.9s-1.19,3.67-1.48,4.37a3.84,3.84,0,0,1-.3.61,11.49,11.49,0,0,1-2.41,3.19,37.23,37.23,0,0,0,4.41-3l.33-.29A21.28,21.28,0,0,0,43,16.77a5.62,5.62,0,0,0,.11,4.15A6.93,6.93,0,0,0,44,22.43a15.82,15.82,0,0,0,3.84,3A4.86,4.86,0,0,1,46.05,22c0-.2,0-.47-.08-.78-.1-.82-.25-1.88-.27-2.11.08.2.41,1.11.92,2.19a12.26,12.26,0,0,0,2,3.24c.78.82,1.57,1.76,2.24,2.6.84,1,1.53,1.9,1.94,2.28,2.25,2.15.86,7,.86,8.07v.58h6.45A22.39,22.39,0,0,0,62.72,29.09Z" style="fill:#f7f8f9"/><path d="M61.52,77.89s-.1-6-.33-6.54c-.47-2.1.36-3.06-2.89-5.08,0,0-.73-.24-1.8-.59h0l-2.4-.8c-.34-.12-.67-.24-1-.35C51.6,64,50.12,63.46,49,63a6.37,6.37,0,0,1-1.56-.84s0-.05-.08-.09a.86.86,0,0,1-.07-.1A21.11,21.11,0,0,1,46,58.42h0a5.69,5.69,0,0,1-.12-1c0-.48,0-1,0-1.41s0-.86,0-1.2v-.28c0-.24,0-.44,0-.59s0-.24,0-.24l.86-.75c.64-.57,1.55-1.39,2.34-2.18a9.34,9.34,0,0,0,1.74-2.09.49.49,0,0,0,0-.15l-.06,0c-.4.06-2.55.43-4.86.79-1.37.22-2.81.43-4,.58l-1.25.14h0c-.34,0-.63.05-.84.05s-.56,0-1-.05h0l-1.31-.17c-1.07-.13-2.36-.32-3.6-.51l-3.16-.51-.58-.1-1.38-.24a1.54,1.54,0,0,0,.4.74,0,0,0,0,0,0,0c.19.25.44.54.73.86s.6.62.93.93c1,1,2.06,1.91,2.58,2.36l.32.27a2,2,0,0,1,0,.24c0,.15,0,.35,0,.59v.28c0,.1,0,.2,0,.3,0,.65,0,1.46-.06,2.31a5.71,5.71,0,0,1-.13,1A21.07,21.07,0,0,1,32.16,62l-.08.1-.07.09a6,6,0,0,1-1.24.7c-1.23.55-3.17,1.25-5,1.86a2.67,2.67,0,0,0-.26.09L23,65.68h0c-1,.35-1.76.57-1.79.59-3.22,2-2.43,3-2.88,5h0v0a.48.48,0,0,0,0,.15h0c-.21,1.09-.3,6.38-.3,6.38,0,.32,0,.65,0,1H61.53C61.53,78.54,61.53,78.21,61.52,77.89Z" style="fill:#fbd2c5"/><path d="M46,58.41a5.58,5.58,0,0,1-.12-1c0-1.12-.06-2.19-.08-2.89a14.09,14.09,0,0,1-5.68,1.32,3.62,3.62,0,0,1-.76,0,14.17,14.17,0,0,1-5.69-1.32c0,.7,0,1.77-.07,2.89a4.81,4.81,0,0,1-.13,1c1.81,1.51,4.26,3.07,5.89,3.07a1.79,1.79,0,0,0,.34,0h.08a1.79,1.79,0,0,0,.34,0C41.75,61.48,44.2,59.92,46,58.41Z" style="fill:#d29f97"/><path d="M55.82,36c.32-1.73.56-3,.63-3.31s.07-.25.1-.38.07-.28.09-.42.1-.43.15-.64,0-.2.05-.3.09-.47.13-.71l0-.31c0-.21,0-.42.08-.64a3.56,3.56,0,0,1,.05-.47c0-.14,0-.28,0-.41a14.89,14.89,0,0,0-2.67-9.59c-2.58-3.62-5.56-7.46-12-8H37c-6.46.53-9.43,4.37-12,8a15,15,0,0,0-2.67,9.59c0,.13,0,.27,0,.41s0,.31.05.47,0,.43.07.64,0,.21,0,.31.09.48.13.71,0,.2,0,.3.09.43.15.64.07.27.09.42.06.25.1.38.32,1.57.63,3.28c-1.72-.84-4.11.37-3.83,3.54s4.21,5.13,5.55,5.45a10.82,10.82,0,0,0,.32,1.23c1.18,3,2.6,3.84,5.1,6.25,2.72,2.61,6.74,5.06,8.73,5.05H40c2,0,6-2.44,8.73-5.05,2.49-2.41,3.92-3.3,5.09-6.25A10.49,10.49,0,0,0,54.11,45c1.29-.29,5.29-2.21,5.59-5.46S57.55,35.11,55.82,36Z" style="fill:#fbd2c5"/><path d="M58.44,37.77a1.89,1.89,0,0,0-2.87-.57,1.64,1.64,0,0,0-.48,1.8c.13.53.68.57.54,1.37a1.42,1.42,0,0,1-.81,1.15,1.79,1.79,0,0,0-.68.73,2,2,0,0,0-.1,1.11c.15.65,1.1.15,1.72-.13a12.88,12.88,0,0,0,2.08-1.65,3.6,3.6,0,0,0,.6-3.81" style="fill:#e9b7ac"/><path d="M21.1,37.77A1.89,1.89,0,0,1,24,37.2a1.64,1.64,0,0,1,.48,1.8c-.13.53-.68.57-.54,1.37a1.43,1.43,0,0,0,.8,1.15,1.73,1.73,0,0,1,.68.73,1.87,1.87,0,0,1,.1,1.11c-.15.65-1.09.15-1.72-.13a12.81,12.81,0,0,1-2.07-1.65,3.6,3.6,0,0,1-.6-3.81" style="fill:#e9b7ac"/><path d="M21.81,27.44H38.13l2-4.55,2,4.55h5.76L48.55,24l1.16,3.42h8.06s.56-15.53-4.71-15.79-25-6.25-26.45,1S16.73,17.06,21.81,27.44Z" style="fill:#f7f8f9"/><path d="M52.32,64.08c-.84-.3-1.67-.61-2.39-.89-10,10.35-20-.08-20-.08-.57.23-1.22.48-1.9.72l-.92.33a12.92,12.92,0,0,1-2.43,7.9A8.84,8.84,0,0,0,23,75.65c-.14.78-.27,2.22-.36,3.21L52.85,64.27Z" style="fill:#562f35"/><path d="M55.28,72.06a12.81,12.81,0,0,1-2.07-4.61L29.4,78.88h28c-.09-1-.23-2.44-.37-3.23A8.84,8.84,0,0,0,55.28,72.06Z" style="fill:#80414a"/><path d="M52.85,64.27,22.59,78.86v0H29.4L53.21,67.45A17.15,17.15,0,0,1,52.85,64.27Z" style="fill:#f07068"/><path d="M45.53,36.44a3.42,3.42,0,0,1,3.95,5.22,1.1,1.1,0,0,1,0,2c-.58.21-1.59,0-1.71-.71a3.77,3.77,0,0,1-4.32-2.17A3.47,3.47,0,0,1,45.53,36.44Z" style="fill:#fff;fill-rule:evenodd"/><path d="M47.53,43.33a3.74,3.74,0,0,1-2.47-.28,3.8,3.8,0,0,1-1.91-2.11,3.77,3.77,0,1,1,7.3-.9,4.46,4.46,0,0,1-.4,1.42,1.6,1.6,0,0,1,.26.26,1.56,1.56,0,0,1,.3.89,1.76,1.76,0,0,1-.2.83,1.37,1.37,0,0,1-.39.49,1.8,1.8,0,0,1-.82.31,1.89,1.89,0,0,1-.78-.07,1.38,1.38,0,0,1-.69-.48,1.58,1.58,0,0,1-.2-.36Zm-2.16-.91a3.1,3.1,0,0,0,2.3.15l.08,0a.35.35,0,0,1,.38.31.9.9,0,0,0,.15.41.82.82,0,0,0,.36.24,1.11,1.11,0,0,0,.48,0,1.1,1.1,0,0,0,.48-.18.67.67,0,0,0,.19-.24,1,1,0,0,0,.12-.51.77.77,0,0,0-.16-.48,1,1,0,0,0-.3-.25h0a.35.35,0,0,1-.14-.47A4.08,4.08,0,0,0,49.76,40a3.15,3.15,0,0,0-.17-1.36A3.08,3.08,0,0,0,48,36.87a3.15,3.15,0,0,0-2.36-.11,3.07,3.07,0,0,0-.28,5.66Z" style="fill:#3a2018;fill-rule:evenodd"/><path d="M33.27,36.44a3.42,3.42,0,0,0-3.94,5.22,1.21,1.21,0,1,0,2,1.34,3.43,3.43,0,0,0,1.93-6.56Z" style="fill:#fff;fill-rule:evenodd"/><path d="M31.14,42.57A3.08,3.08,0,0,0,35,40.7a3,3,0,0,0-.11-2.35,3.07,3.07,0,0,0-1.74-1.59,3.08,3.08,0,0,0-3.94,1.85A3,3,0,0,0,29.05,40a3.89,3.89,0,0,0,.46,1.45.35.35,0,0,1-.15.47h0a.89.89,0,0,0-.31.25.84.84,0,0,0-.16.48h0a1.1,1.1,0,0,0,.12.51.67.67,0,0,0,.19.24,1.1,1.1,0,0,0,.48.18,1.14,1.14,0,0,0,.49,0,.79.79,0,0,0,.35-.24.8.8,0,0,0,.15-.41.36.36,0,0,1,.39-.31l.08,0Zm2.6.48a3.74,3.74,0,0,1-2.47.28,2,2,0,0,1-.19.36,1.45,1.45,0,0,1-.7.48,1.87,1.87,0,0,1-.78.07,1.8,1.8,0,0,1-.82-.31,1.48,1.48,0,0,1-.39-.49,1.64,1.64,0,0,1-.19-.83h0a1.43,1.43,0,0,1,.3-.89,1.52,1.52,0,0,1,.25-.26,4.74,4.74,0,0,1-.4-1.42,3.78,3.78,0,1,1,5.39,3Z" style="fill:#3a2018;fill-rule:evenodd"/><path d="M45.82,37.23a2.58,2.58,0,1,1-1.54,3.3A2.58,2.58,0,0,1,45.82,37.23Z" style="fill:#3a2018;fill-rule:evenodd"/><path d="M47.17,37.56A1.24,1.24,0,1,1,46,38.87,1.24,1.24,0,0,1,47.17,37.56Z" style="fill:#fff;fill-rule:evenodd"/><path d="M45.79,40a.81.81,0,1,1-.77.85A.8.8,0,0,1,45.79,40Z" style="fill:#fff;fill-rule:evenodd"/><path d="M33,37.23a2.58,2.58,0,1,0,1.55,3.3A2.58,2.58,0,0,0,33,37.23Z" style="fill:#3a2018;fill-rule:evenodd"/><path d="M32.48,37.56a1.24,1.24,0,1,1-1.16,1.31A1.24,1.24,0,0,1,32.48,37.56Z" style="fill:#fff;fill-rule:evenodd"/><path d="M31.09,40a.81.81,0,1,1-.76.85A.81.81,0,0,1,31.09,40Z" style="fill:#fff;fill-rule:evenodd"/><path d="M39.66,45.86c-2.95.14-5,.88-4.89-.44s1.51-3.07,2.48-2.84c1.56.39,2.44,1,4.59.08,1-.45,2.36,1.45,2.45,2.76S42.61,46,39.66,45.86Z" style="fill:#3a2018;fill-rule:evenodd"/><path d="M39.66,45.44c-2.06.09-3.66.48-4.42.27.68-2.79,7.88-2.76,8.52,0A38,38,0,0,1,39.66,45.44Z" style="fill:#cb4f41;fill-rule:evenodd"/><path d="M27.58,36.07a.52.52,0,0,1-.61-.42.53.53,0,0,1,.42-.61s6.19-1.12,6.51-2.19a.52.52,0,0,1,.64-.36.52.52,0,0,1,.36.65C34.4,34.84,27.6,36.07,27.58,36.07Z" style="fill:#3a2018;fill-rule:evenodd"/><path d="M51.28,35a.52.52,0,1,1-.19,1s-6.82-1.23-7.32-2.93a.53.53,0,1,1,1-.29C45.09,33.92,51.26,35,51.28,35Z" style="fill:#3a2018;fill-rule:evenodd"/></g></g></svg>