<svg xmlns="http://www.w3.org/2000/svg" viewBox="0 0 78.88 78.88"><title>marketingSales3GraceYoshidaSVG</title><g id="Layer_2" data-name="Layer 2"><g id="Layer_2-2" data-name="Layer 2"><rect width="78.88" height="78.88" style="fill:#b44e6b"/><path d="M61.58,77.93s-.1-5.74-.32-6.25c-.44-2,.34-2.92-2.76-4.85l-1.72-.56h0c-.66-.22-1.46-.48-2.29-.77l-1-.33c-.82-.29-1.64-.59-2.4-.88-.52-.19-1-.39-1.44-.56s-.67-.31-.93-.44a2.72,2.72,0,0,1-.56-.36.76.76,0,0,0-.07-.09L48,62.74a19.83,19.83,0,0,1-1.27-3.4h0a6.46,6.46,0,0,1-.12-1c0-.46,0-.93,0-1.34s0-.83,0-1.15v-.27c0-.23,0-.42,0-.56s0-.23,0-.23l.82-.72c.61-.55,1.48-1.33,2.23-2.08a8.91,8.91,0,0,0,1.67-2,1.21,1.21,0,0,0,0-.14h-.06c-.38.06-2.44.42-4.64.77-1.32.2-2.69.4-3.81.54l-1.19.14h0c-.33,0-.6,0-.8,0s-.54,0-.91,0h0l-1.25-.16c-1-.13-2.26-.31-3.45-.49s-2.17-.34-3-.49l-.55-.09c-.81-.13-1.32-.23-1.32-.23a1.46,1.46,0,0,0,.38.7s0,0,0,0c.18.23.42.51.7.82s.58.58.89.88c.94.92,2,1.83,2.47,2.26l.3.26a2,2,0,0,1,0,.23c0,.14,0,.33,0,.56v.27a2.81,2.81,0,0,1,0,.29c0,.62,0,1.39-.06,2.2a5.36,5.36,0,0,1-.12,1,20.34,20.34,0,0,1-1.26,3.41l-.08.09-.07.09a1.24,1.24,0,0,1-.23.17,8.54,8.54,0,0,1-.95.5l-1.21.5c-1.06.41-2.33.86-3.53,1.27l-.26.09c-.89.31-1.75.59-2.44.82h0L23,66.83c-3.08,1.92-2.32,2.84-2.75,4.82h0v0a.39.39,0,0,0,0,.15h0c-.2,1-.29,6.09-.29,6.09v.95H61.59C61.59,78.56,61.59,78.24,61.58,77.93Z" style="fill:#fbd2c5"/><path d="M46.76,59.33a5.14,5.14,0,0,1-.12-1c0-1.07-.06-2.09-.07-2.76a13.39,13.39,0,0,1-5.43,1.26,2.06,2.06,0,0,1-.36,0,2.23,2.23,0,0,1-.37,0A13.39,13.39,0,0,1,35,55.61c0,.67,0,1.69-.07,2.76a4.43,4.43,0,0,1-.12,1c1.73,1.44,4.07,2.93,5.62,2.93a1.77,1.77,0,0,0,.33,0h.08a1.62,1.62,0,0,0,.32,0C42.69,62.26,45,60.77,46.76,59.33Z" style="fill:#d29f97"/><path d="M56.13,37.92c.3-1.65.53-2.92.61-3.17l.09-.35c0-.15.06-.28.08-.41s.1-.41.15-.61a2.74,2.74,0,0,1,0-.28c0-.23.08-.46.11-.68s0-.21,0-.3.05-.41.07-.61,0-.31.05-.45,0-.27,0-.4a14.21,14.21,0,0,0-2.55-9.16c-2.47-3.46-5.31-7.12-11.47-7.63h-5.2c-6.17.51-9,4.17-11.48,7.63a14.21,14.21,0,0,0-2.55,9.16c0,.13,0,.27,0,.4a3.26,3.26,0,0,1,0,.45c0,.2,0,.41.07.61a2.72,2.72,0,0,1,0,.3c0,.22.08.45.12.68a2.74,2.74,0,0,0,.05.28c0,.2.08.41.14.61s.06.26.08.41.06.24.1.35.3,1.5.6,3.14c-1.65-.8-3.93.35-3.66,3.38s4,4.9,5.3,5.21a8.68,8.68,0,0,0,.31,1.17c1.12,2.82,2.48,3.67,4.87,6,2.6,2.5,6.44,4.83,8.33,4.82H41c1.9,0,5.74-2.32,8.34-4.82,2.38-2.3,3.74-3.15,4.86-6a8.86,8.86,0,0,0,.31-1.16c1.24-.28,5.06-2.11,5.34-5.22S57.78,37.07,56.13,37.92Z" style="fill:#fbd2c5"/><path d="M58.63,39.61a1.8,1.8,0,0,0-2.74-.54,1.56,1.56,0,0,0-.46,1.72c.13.5.65.54.52,1.3a1.37,1.37,0,0,1-.77,1.1,1.68,1.68,0,0,0-.65.69,2,2,0,0,0-.1,1.07c.15.62,1,.14,1.65-.13a12.15,12.15,0,0,0,2-1.58,3.43,3.43,0,0,0,.57-3.63" style="fill:#e9b7ac"/><path d="M37.49,34.49a7.84,7.84,0,0,0-1.08-.85A8.32,8.32,0,0,0,35.17,33a6.43,6.43,0,0,0-1.54-.48A7.55,7.55,0,0,0,32,32.33l-.77.06a4.6,4.6,0,0,0-.68.11,9.07,9.07,0,0,0-1,.23l-.4.09.35-.22a6,6,0,0,1,1-.5,7.39,7.39,0,0,1,1.5-.46,8,8,0,0,1,1.84,0,7.29,7.29,0,0,1,1.78.48,6.46,6.46,0,0,1,1.39.83A4.86,4.86,0,0,1,38.05,34h0a.37.37,0,0,1-.57.45Z" style="fill:#46423e"/><polygon points="35.55 36.44 31.2 36.08 31.2 35.68 35.55 35.68 35.55 36.44" style="fill:#1c3641"/><polygon points="35.55 36.46 31.2 36.1 31.2 36.08 35.55 36.44 35.55 36.46" style="fill:#1c3641"/><polygon points="35.55 36.48 31.2 36.12 31.2 36.1 35.55 36.46 35.55 36.48" style="fill:#1d3743"/><polygon points="35.55 36.5 31.2 36.14 31.2 36.12 35.55 36.48 35.55 36.5" style="fill:#1f3844"/><polygon points="35.55 36.52 31.2 36.16 31.2 36.14 35.55 36.5 35.55 36.52" style="fill:#203a46"/><polygon points="35.55 36.54 31.2 36.18 31.2 36.16 35.55 36.52 35.55 36.54" style="fill:#213b47"/><polygon points="35.55 36.56 31.2 36.2 31.2 36.18 35.55 36.54 35.55 36.56" style="fill:#223c49"/><polygon points="35.55 36.58 31.2 36.22 31.2 36.2 35.55 36.56 35.55 36.58" style="fill:#233e4a"/><polygon points="35.55 36.6 31.2 36.24 31.2 36.22 35.55 36.58 35.55 36.6" style="fill:#243e4b"/><polygon points="35.55 36.62 31.2 36.26 31.2 36.24 35.55 36.6 35.55 36.62" style="fill:#25404c"/><polygon points="35.55 36.64 31.2 36.28 31.2 36.26 35.55 36.62 35.55 36.64" style="fill:#26414e"/><polygon points="35.55 36.66 31.2 36.3 31.2 36.28 35.55 36.64 35.55 36.66" style="fill:#27424f"/><polygon points="35.55 36.68 31.2 36.32 31.2 36.3 35.55 36.66 35.55 36.68" style="fill:#284350"/><polygon points="35.55 36.7 31.2 36.34 31.2 36.32 35.55 36.68 35.55 36.7" style="fill:#294552"/><polygon points="35.55 36.72 31.2 36.36 31.2 36.34 35.55 36.7 35.55 36.72" style="fill:#2a4653"/><polygon points="35.55 36.74 31.2 36.38 31.2 36.36 35.55 36.72 35.55 36.74" style="fill:#2b4754"/><polygon points="35.55 36.76 31.2 36.4 31.2 36.38 35.55 36.74 35.55 36.76" style="fill:#2c4856"/><polygon points="35.55 36.78 31.2 36.42 31.2 36.4 35.55 36.76 35.55 36.78" style="fill:#2d4957"/><polygon points="35.55 36.8 31.2 36.44 31.2 36.42 35.55 36.78 35.55 36.8" style="fill:#2e4a58"/><polygon points="35.55 36.82 31.2 36.46 31.2 36.44 35.55 36.8 35.55 36.82" style="fill:#2e4b59"/><polygon points="35.55 36.84 31.2 36.48 31.2 36.46 35.55 36.82 35.55 36.84" style="fill:#2f4c5a"/><path d="M33,37.57a.46.46,0,1,1-.42-.41A.42.42,0,0,1,33,37.57Z" style="fill:#fff"/><path d="M23,39.61a1.8,1.8,0,0,1,2.74-.54,1.54,1.54,0,0,1,.46,1.72c-.12.5-.65.54-.51,1.3a1.35,1.35,0,0,0,.77,1.1,1.81,1.81,0,0,1,.65.69A2,2,0,0,1,27.16,45c-.14.62-1,.14-1.64-.13a12.21,12.21,0,0,1-2-1.58A3.43,3.43,0,0,1,23,39.61" style="fill:#e9b7ac"/><path d="M54.55,12h0A22.65,22.65,0,0,0,43.2,7.59c-6.35-.8-11.88,3.85-11.88,3.85a7.2,7.2,0,0,0-1.83-2,27.84,27.84,0,0,0-3.66-1.14,30.11,30.11,0,0,1,2.37,2.15,1.84,1.84,0,0,1,.32,1.63,11.26,11.26,0,0,0-2.75-.88c-1.54,0-3.27,2-3.27,2a5.45,5.45,0,0,1,2.82-1,7.74,7.74,0,0,1,1.7.63S24,12.39,20.48,17.9a33.29,33.29,0,0,0-3.22,8.45l5.53-7s-3.53,6.22-3.87,7.1c-2,5.11.73,10.23.73,10.23s.89.09,1.7,2.06a38.87,38.87,0,0,1,1.78,6h.1a38.94,38.94,0,0,0,4,14.69s-2.81-11-1-14.27,4.39-5.5,11.26-8.89c6.36-3.14,9.09-3.64,12.33-6.87,4.4,4,8.79,11.27,2.19,22.66,2.17-1.13,3.64-4.12,4.61-7.32,0,0,1-3.3,2.12-6,.81-2,1.7-2.06,1.7-2.06a14.85,14.85,0,0,0,1.4-5.12h0v0a10.39,10.39,0,0,0,0-1.13C62.26,17.64,54.55,12,54.55,12Z" style="fill:#46423e"/><path d="M43.05,78.88H38.56V65.56l.81,1.08a1.8,1.8,0,0,0,2.88,0l.8-1.08Z" style="fill:#fff"/><path d="M49,60a6,6,0,0,0-6,6v7l9-9.35A8.13,8.13,0,0,1,49,60Z" style="fill:#3b2314"/><path d="M62.74,73.29c0-.65-.09-1.2-.14-1.47h0a.29.29,0,0,0,0-.14v0h0c-.44-2,.34-2.91-2.87-4.83l-1.78-.56h0l-2.55-.83-.26-.08-.15,0a15.77,15.77,0,0,1-2.87-1.64l-9,9.35v5.89H58a24.32,24.32,0,0,0-1.21-5.59Z" style="fill:#46423e"/><path d="M38.56,66a6,6,0,0,0-6-6,8.37,8.37,0,0,1-3.27,3.84L38.56,73V66Z" style="fill:#3b2314"/><path d="M26.68,65.28l-.15,0-.26.08-2.55.83h0l-1.78.56c-3.21,1.92-2.43,2.84-2.87,4.83h0v0a.29.29,0,0,0,0,.14h0a12.53,12.53,0,0,0-.14,1.47h5.91a24.32,24.32,0,0,0-1.21,5.59h15V73L29.32,63.8A16.15,16.15,0,0,1,26.68,65.28Z" style="fill:#46423e"/><path d="M31.08,45.14c-1.82,2.24-3.36,1-1.16-1-4.59,1.23-3.16-1.2-.25-1.6-3.8-1-2.29-2.54.55-1.75C32.3,41.67,32.57,43.33,31.08,45.14Z" style="fill:#a6d2f0;fill-rule:evenodd"/><path d="M30.3,40.49a.32.32,0,1,1-.17.61A3.58,3.58,0,0,0,27.88,41c-.09.05-.15.09-.16.13s0,.06,0,.12a3.79,3.79,0,0,0,2,.94.33.33,0,0,1,.23.4.32.32,0,0,1-.28.23,4,4,0,0,0-2.28,1,.42.42,0,0,0-.13.23l.07,0a4.9,4.9,0,0,0,2.48-.27.33.33,0,0,1,.39.23.31.31,0,0,1-.12.33,2.52,2.52,0,0,0-1,1.45c0,.08,0,.13.05.15a.34.34,0,0,0,.24,0,3.48,3.48,0,0,0,1.79-1.6.32.32,0,0,1,.53.36,4,4,0,0,1-2.2,1.86,1,1,0,0,1-.74-.12.79.79,0,0,1-.3-.69A2,2,0,0,1,29,44.68a3.82,3.82,0,0,1-1.87,0,.68.68,0,0,1-.48-.61,1,1,0,0,1,.3-.68,4,4,0,0,1,1.55-.92,2.73,2.73,0,0,1-1.26-.84.73.73,0,0,1-.12-.7.86.86,0,0,1,.49-.48A4.1,4.1,0,0,1,30.3,40.49Z" style="fill:#3a2018;fill-rule:evenodd"/><path d="M50.54,45.14c1.83,2.24,3.36,1,1.16-1,4.59,1.23,3.16-1.2.25-1.6,3.8-1,2.3-2.54-.55-1.75C49.32,41.67,49.06,43.33,50.54,45.14Z" style="fill:#a6d2f0;fill-rule:evenodd"/><path d="M31.8,41.39a.64.64,0,0,1-.83.36.63.63,0,0,1-.36-.82,3.18,3.18,0,0,1,1-1.44A2.34,2.34,0,0,1,33.21,39a2.85,2.85,0,0,1,1.6.64A5.57,5.57,0,0,1,36.48,42a.64.64,0,0,1-1.19.48A4.32,4.32,0,0,0,34,40.65a1.71,1.71,0,0,0-.9-.38,1.14,1.14,0,0,0-.72.23A1.9,1.9,0,0,0,31.8,41.39Z" style="fill:#3a2018;fill-rule:evenodd"/><path d="M50.69,41.2a.63.63,0,1,1-1.21.38,2.22,2.22,0,0,0-.66-1.06,1.12,1.12,0,0,0-.71-.25h0a1.66,1.66,0,0,0-.87.33,4.21,4.21,0,0,0-1.33,1.88.64.64,0,0,1-.83.35.63.63,0,0,1-.35-.83,5.41,5.41,0,0,1,1.77-2.44A2.84,2.84,0,0,1,48.08,39h0a2.36,2.36,0,0,1,1.53.53A3.46,3.46,0,0,1,50.69,41.2Z" style="fill:#3a2018;fill-rule:evenodd"/><path d="M30.46,37.81a.48.48,0,0,1-.36-.58.48.48,0,0,1,.58-.35,4.09,4.09,0,0,0,1.91.09,4,4,0,0,0,2.06-1.31.47.47,0,1,1,.7.64,4.77,4.77,0,0,1-2.56,1.61A5.19,5.19,0,0,1,30.46,37.81Z" style="fill:#3a2018;fill-rule:evenodd"/><path d="M40.71,42.89c1,0,2.95.13,3.42,1.18a11.16,11.16,0,0,1,.6,4c-.13,2-1.59.39-4.06.34-2.15,0-3.94,1.85-4-.31,0-.79,0-3.2.65-4.26C37.8,43.08,40,42.88,40.71,42.89Z" style="fill:#cb4f41;fill-rule:evenodd"/><path d="M44.73,47.44a5.69,5.69,0,0,1,0,.59c-.13,2-1.59.39-4.06.34-2.15,0-3.94,1.85-4-.31,0-.16,0-.4,0-.68.94,0,2.75-.12,4-.12S43.61,47.36,44.73,47.44Z" style="fill:#fff;fill-rule:evenodd"/><path d="M40.71,42.89c1,0,2.95.13,3.42,1.18.06.15.12.31.18.49a27.31,27.31,0,0,0-3.15-.29c-1.1,0-2.91.08-4,.15a2.69,2.69,0,0,1,.26-.62C37.8,43.08,40,42.88,40.71,42.89Z" style="fill:#fff;fill-rule:evenodd"/><path d="M40.71,42.57a9.43,9.43,0,0,1,2,.21,2.36,2.36,0,0,1,1.72,1.16,7.67,7.67,0,0,1,.48,1.82,12.72,12.72,0,0,1,.15,2.29c-.07,1.06-.46,1.35-1.13,1.3a4.54,4.54,0,0,1-1.05-.24,8.19,8.19,0,0,0-2.21-.42,6.15,6.15,0,0,0-2.07.43,4,4,0,0,1-1.21.29c-.61,0-1-.32-1-1.35A19.54,19.54,0,0,1,36.49,46a6.33,6.33,0,0,1,.6-2.36,2.17,2.17,0,0,1,1.32-.78,10.15,10.15,0,0,1,2.3-.29Zm1.84.83a7.93,7.93,0,0,0-1.84-.19,8.54,8.54,0,0,0-2.13.27,1.61,1.61,0,0,0-.94.49,5.76,5.76,0,0,0-.52,2.09c-.08.82-.08,1.61-.08,2,0,.55.13.72.34.72a5,5,0,0,0,1-.26,6.6,6.6,0,0,1,2.28-.47,8.69,8.69,0,0,1,2.38.45,5.28,5.28,0,0,0,.91.22c.26,0,.42-.14.45-.71a11.28,11.28,0,0,0-.15-2.15,6.58,6.58,0,0,0-.43-1.66A1.76,1.76,0,0,0,42.55,43.4Z" style="fill:#3a2018;fill-rule:evenodd"/><path d="M50.25,36.88a.47.47,0,0,1,.57.35.48.48,0,0,1-.35.58,5.24,5.24,0,0,1-2.34.1,4.81,4.81,0,0,1-2.56-1.61.48.48,0,0,1,.71-.64A3.93,3.93,0,0,0,48.34,37,4.1,4.1,0,0,0,50.25,36.88Z" style="fill:#3a2018;fill-rule:evenodd"/><path d="M51.49,41.1a.32.32,0,0,1-.17-.61,4.13,4.13,0,0,1,2.7,0,.92.92,0,0,1,.49.48.76.76,0,0,1-.12.7,2.78,2.78,0,0,1-1.27.84,3.93,3.93,0,0,1,1.56.92,1,1,0,0,1,.29.68.67.67,0,0,1-.48.61,3.78,3.78,0,0,1-1.86,0,2.2,2.2,0,0,1,.48,1.14.78.78,0,0,1-.31.69.94.94,0,0,1-.74.12,4,4,0,0,1-2.19-1.86.32.32,0,0,1,.08-.44.33.33,0,0,1,.45.08A3.48,3.48,0,0,0,52.19,46a.35.35,0,0,0,.24,0s0-.07,0-.15a2.52,2.52,0,0,0-1-1.45.29.29,0,0,1-.11-.33.32.32,0,0,1,.39-.23,4.86,4.86,0,0,0,2.47.27l.08,0a.46.46,0,0,0-.14-.23,4,4,0,0,0-2.27-1,.31.31,0,0,1-.28-.23.32.32,0,0,1,.22-.4,3.75,3.75,0,0,0,2-.94.21.21,0,0,0,0-.12.43.43,0,0,0-.17-.13A3.58,3.58,0,0,0,51.49,41.1Z" style="fill:#3a2018;fill-rule:evenodd"/></g></g></svg>