<svg xmlns="http://www.w3.org/2000/svg" viewBox="0 0 78.88 78.88"><title>marketingSales5ChoeOshimaSVG</title><g id="Layer_2" data-name="Layer 2"><g id="Layer_2-2" data-name="Layer 2"><rect width="78.88" height="78.88" style="fill:#215a66"/><rect x="22.79" width="12.83" style="fill:#327798"/><polygon points="35.63 0 35.63 0 40.13 0 40.21 0 57.55 0 57.55 0 35.63 0" style="fill:#1d4b5e"/><path d="M39.41,78.88h0a3.79,3.79,0,0,1-3.78-3.78V66.44a3.79,3.79,0,0,1,3.78-3.78h0a3.79,3.79,0,0,1,3.78,3.78V75.1A3.79,3.79,0,0,1,39.41,78.88Z" style="fill:#fbd2c5"/><path d="M60.86,77.89s0-1.22-.07-2.61c0-.7,0-1.44-.08-2.09s-.09-1.34-.14-1.65a.8.8,0,0,0,0-.19,12,12,0,0,1-.18-1.29A3.67,3.67,0,0,0,59.69,68a7.41,7.41,0,0,0-2-1.7s-.74-.24-1.8-.59h0l-2.39-.8-1-.35c-.86-.31-1.72-.62-2.51-.92L48.37,63c-.37-.17-.7-.32-1-.46A15.83,15.83,0,0,1,42,64.73a2,2,0,0,1,0,.24V75.28a2.62,2.62,0,0,1-5.24,0V65c0-.08,0-.16,0-.24a15.76,15.76,0,0,1-5.74-2.38,9.31,9.31,0,0,1-1,.52c-.37.16-.8.34-1.27.52-1.11.44-2.44.91-3.7,1.34a2,2,0,0,0-.26.09l-2.56.86h0c-1.05.35-1.76.57-1.78.59A7.41,7.41,0,0,0,18.47,68a3.61,3.61,0,0,0-.66,2.09,11.06,11.06,0,0,1-.18,1.25h0v0a.61.61,0,0,0,0,.15h0v0c-.05.31-.1.93-.14,1.65s-.07,1.39-.09,2.09c0,1.39-.06,2.61-.06,2.61,0,.32,0,.65,0,1H60.87C60.87,78.54,60.87,78.21,60.86,77.89Z" style="fill:#36aeaf"/><path d="M47.4,62.55a2.62,2.62,0,0,1-.59-.38.76.76,0,0,0-.07-.09l-.08-.1a20.49,20.49,0,0,1-1.32-3.56h0a5.71,5.71,0,0,1-.13-1c0-.48,0-1,0-1.41s0-.86,0-1.2v-.28c0-.24,0-.44,0-.59a2,2,0,0,1,0-.24l.87-.75c.63-.57,1.54-1.4,2.33-2.18a9.18,9.18,0,0,0,1.75-2.09,1,1,0,0,0,0-.15l-.06,0c-.4.06-2.55.43-4.86.79-1.37.22-2.8.43-4,.58l-1.25.14h0c-.34,0-.62.05-.84.05s-.56,0-.94-.05h0l-1.31-.17c-1.08-.13-2.36-.32-3.61-.51L30,48.86c-.21,0-.4-.06-.57-.1l-1.39-.24a1.54,1.54,0,0,0,.4.74,0,0,0,0,0,0,0,11.3,11.3,0,0,0,.74.86c.29.3.6.62.92.93,1,1,2.06,1.91,2.59,2.36l.31.27s0,.09,0,.24,0,.35,0,.59v.28a1.51,1.51,0,0,1,0,.3c0,.65,0,1.46-.06,2.31a5.69,5.69,0,0,1-.12,1A21.35,21.35,0,0,1,31.49,62a.86.86,0,0,1-.07.1s-.06.08-.08.09a2.11,2.11,0,0,1-.24.18A14.44,14.44,0,0,0,47.4,62.55Z" style="fill:#fbd2c5"/><path d="M45.35,58.41a5.59,5.59,0,0,1-.13-1c0-1.12-.06-2.19-.07-2.89a14.13,14.13,0,0,1-5.68,1.32,2.48,2.48,0,0,1-.39,0,2.36,2.36,0,0,1-.38,0A14.09,14.09,0,0,1,33,54.52c0,.7,0,1.77-.08,2.89a5.58,5.58,0,0,1-.12,1c1.81,1.51,4.26,3.07,5.88,3.07a1.87,1.87,0,0,0,.34,0h.09a1.87,1.87,0,0,0,.34,0C41.09,61.48,43.54,59.92,45.35,58.41Z" style="fill:#d29f97"/><path d="M55.16,36c.31-1.73.55-3,.63-3.31s.06-.25.1-.38S56,32,56,31.89s.1-.43.15-.64,0-.2,0-.3.08-.47.12-.71,0-.21,0-.31,0-.42.07-.64,0-.32.05-.47,0-.28,0-.41a15,15,0,0,0-2.67-9.59c-2.59-3.62-5.56-7.46-12-8H36.36c-6.45.53-9.42,4.37-12,8a15,15,0,0,0-2.67,9.59c0,.13,0,.27,0,.41a3.56,3.56,0,0,1,.05.47c0,.22,0,.43.08.64s0,.21,0,.31.08.48.12.71,0,.2.05.3.09.43.15.64l.09.42c0,.13.06.25.1.38s.31,1.57.63,3.28c-1.73-.84-4.12.37-3.83,3.54s4.2,5.13,5.54,5.45a10.24,10.24,0,0,0,.33,1.23c1.17,3,2.6,3.84,5.09,6.25,2.73,2.61,6.75,5.06,8.73,5.05h.43c2,0,6-2.44,8.72-5.05,2.5-2.41,3.92-3.3,5.1-6.25A11.1,11.1,0,0,0,53.44,45c1.3-.29,5.3-2.21,5.59-5.46S56.88,35.11,55.16,36Z" style="fill:#fbd2c5"/><path d="M57.78,37.77a1.89,1.89,0,0,0-2.87-.57,1.64,1.64,0,0,0-.48,1.8c.13.53.68.57.53,1.37a1.39,1.39,0,0,1-.8,1.15,1.73,1.73,0,0,0-.68.73,2,2,0,0,0-.1,1.11c.15.65,1.09.15,1.72-.13a12.88,12.88,0,0,0,2.08-1.65,3.63,3.63,0,0,0,.6-3.81" style="fill:#e9b7ac"/><path d="M20.43,37.77a1.89,1.89,0,0,1,2.87-.57,1.64,1.64,0,0,1,.48,1.8c-.13.53-.68.57-.53,1.37a1.39,1.39,0,0,0,.8,1.15,1.79,1.79,0,0,1,.68.73,2,2,0,0,1,.1,1.11c-.15.65-1.09.15-1.72-.13A12.88,12.88,0,0,1,21,41.58a3.63,3.63,0,0,1-.6-3.81" style="fill:#e9b7ac"/><path d="M60.65,18.63a.54.54,0,0,0-.33-1,8.27,8.27,0,0,1-3-.46,5.88,5.88,0,0,1-2.54-1.65.54.54,0,0,1,.28-.92c.34-.07.66-.14.94-.22a.55.55,0,0,0,.08-1l-5-2.23c-1.94-1.71-4.9-2.69-7.42-3.25A23.5,23.5,0,0,0,39,7.18a15.57,15.57,0,0,0-5.62,1,5.57,5.57,0,0,0-1.23.41h0A50.9,50.9,0,0,0,24.87,12l-3,1.35a.55.55,0,0,0,.08,1c.29.08.61.15.95.22a.55.55,0,0,1,.28.92,6,6,0,0,1-2.55,1.65,8.22,8.22,0,0,1-2.94.46.54.54,0,0,0-.33,1,4.94,4.94,0,0,0,2.94,1h.53a26,26,0,0,0-1.33,5.22c-.21,2.28.47,3.84.68,8.11a5,5,0,0,0,.41,2.15c.43.75,1.13.5,1.92,2.31a5.76,5.76,0,0,1,.41,1.91.26.26,0,0,0,.08.05c.25.09,1,0,1-3.78a1.87,1.87,0,0,0,0-.2.43.43,0,0,1,0-.11c.14-12,12.27-11.46,14.67-11.23l.42.05a32.45,32.45,0,0,0,5.62-.6h0a.54.54,0,0,0,.38-.12c1.29-.47-.18-.94-.18-.94-.49-.16-1-.3-1.62-.43a.55.55,0,0,1,0-1.07,17.22,17.22,0,0,1,4.69-.38.54.54,0,0,0,.2-1.06l-.12,0a.54.54,0,0,1,.15-1.06,35,35,0,0,1,5.47.43.51.51,0,0,1,.36.23c2.63,4,.44,14.76.1,16.33,0,.12,0,.2,0,.2,0,3.8.74,3.87,1,3.78a.26.26,0,0,0,.08-.05,5.62,5.62,0,0,1,.42-1.91c.78-1.81,1.48-1.56,1.91-2.31A4.91,4.91,0,0,0,57.83,33c.2-4.27.89-5.83.67-8.11a25.3,25.3,0,0,0-1.33-5.22h.53A5,5,0,0,0,60.65,18.63Z" style="fill:#fff"/><path d="M36.69,43.4c2.48,1,2.66,1,5.31,0,4.54-1.68,6,6-2.7,6S32.22,41.65,36.69,43.4Z" style="fill:#3a2018;fill-rule:evenodd"/><path d="M43.82,47.52a6.59,6.59,0,0,1-4.52,1.33,6.5,6.5,0,0,1-4.46-1.33c.58-1,2.37-1.77,4.49-1.77S43.23,46.5,43.82,47.52Z" style="fill:#cb4f41;fill-rule:evenodd"/><path d="M35,39.71a.49.49,0,0,1-.43.52A.47.47,0,0,1,34,39.8a2.5,2.5,0,0,0-1.49-2.33,2.1,2.1,0,0,0-.9-.1,2.25,2.25,0,0,0-.86.29,2,2,0,0,0-1,2,.49.49,0,0,1-.42.54.48.48,0,0,1-.53-.42,2.92,2.92,0,0,1,1.44-3,3.24,3.24,0,0,1,1.24-.41,3.13,3.13,0,0,1,1.32.15A3.39,3.39,0,0,1,35,39.71Z" style="fill:#3a2018;fill-rule:evenodd"/><path d="M29.72,40.3c0,.88-2.12,1.14-2.38.31C26.89,39.15,29.74,38.78,29.72,40.3Z" style="fill:#a6d2f0;fill-rule:evenodd"/><path d="M30,40.3a.91.91,0,0,1-.54.79,2.16,2.16,0,0,1-.73.24,2.26,2.26,0,0,1-.78,0,1,1,0,0,1-.79-.63,1.09,1.09,0,0,1,.42-1.28,1.73,1.73,0,0,1,.77-.3,1.82,1.82,0,0,1,.84.07A1.13,1.13,0,0,1,30,40.3Zm-.77.37a.46.46,0,0,0,.29-.37.66.66,0,0,0-.49-.67,1.24,1.24,0,0,0-.61-.05,1.26,1.26,0,0,0-.56.21.65.65,0,0,0-.25.75.56.56,0,0,0,.44.3,1.78,1.78,0,0,0,.61,0A1.47,1.47,0,0,0,29.19,40.67Z" style="fill:#3a2018;fill-rule:evenodd"/><path d="M44.66,39.8a.48.48,0,0,1-.52.43.49.49,0,0,1-.43-.52,3.39,3.39,0,0,1,2.12-3.14,3.13,3.13,0,0,1,1.32-.15,3.24,3.24,0,0,1,1.24.41,2.92,2.92,0,0,1,1.44,3,.48.48,0,0,1-.53.42.49.49,0,0,1-.42-.54,2,2,0,0,0-1-2,2.24,2.24,0,0,0-.87-.29,2.08,2.08,0,0,0-.89.1A2.5,2.5,0,0,0,44.66,39.8Z" style="fill:#3a2018;fill-rule:evenodd"/><path d="M48.94,40.3c0,.88,2.12,1.14,2.38.31C51.77,39.15,48.92,38.78,48.94,40.3Z" style="fill:#a6d2f0;fill-rule:evenodd"/><path d="M49.18,40.3a.46.46,0,0,0,.29.37,1.47,1.47,0,0,0,.57.18,1.78,1.78,0,0,0,.61,0,.56.56,0,0,0,.44-.3.65.65,0,0,0-.25-.75,1.26,1.26,0,0,0-.56-.21,1.24,1.24,0,0,0-.61.05.66.66,0,0,0-.49.67Zm.06.79a.91.91,0,0,1-.54-.79,1.13,1.13,0,0,1,.81-1.13,1.79,1.79,0,0,1,.83-.07,1.72,1.72,0,0,1,.78.3,1.09,1.09,0,0,1,.42,1.28,1,1,0,0,1-.79.63,2.26,2.26,0,0,1-.78,0A2.16,2.16,0,0,1,49.24,41.09Z" style="fill:#3a2018;fill-rule:evenodd"/><path d="M31.17,43.9a.16.16,0,0,1,0,.22.15.15,0,0,1-.22,0,6.75,6.75,0,0,0-1.53-.89c-.46-.16,0,1,0,1a.16.16,0,0,1-.1.21.14.14,0,0,1-.14,0A4.51,4.51,0,0,0,28.4,44c-.27-.09-.53-.16-.81-.23a.16.16,0,0,1-.11-.19.16.16,0,0,1,.19-.12c.29.07.56.15.84.24A5,5,0,0,1,29,44c-.12-.5-.2-1.27.56-1A6.24,6.24,0,0,1,31.17,43.9Z" style="fill:#3a2018;fill-rule:evenodd"/><path d="M28.1,44.45a.18.18,0,0,1,.06.22.17.17,0,0,1-.22.06,4.24,4.24,0,0,0-.64-.29,3,3,0,0,0-.61-.15.16.16,0,0,1-.14-.17.15.15,0,0,1,.17-.14,2.91,2.91,0,0,1,.68.16A4.19,4.19,0,0,1,28.1,44.45Z" style="fill:#3a2018;fill-rule:evenodd"/><path d="M48.52,44.41a.14.14,0,0,1-.21,0,.15.15,0,0,1,0-.22,4.83,4.83,0,0,1,.83-.4c.28-.09.55-.17.84-.24a.16.16,0,1,1,.07.31c-.27.07-.53.14-.8.23A4.59,4.59,0,0,0,48.52,44.41Z" style="fill:#3a2018;fill-rule:evenodd"/><path d="M47.14,44.27a.16.16,0,0,1-.23,0,.16.16,0,0,1,0-.22,6.24,6.24,0,0,1,1.62-1,.16.16,0,0,1,.2.1.15.15,0,0,1-.1.2A6.33,6.33,0,0,0,47.14,44.27Z" style="fill:#3a2018;fill-rule:evenodd"/><path d="M49.76,44.73a.17.17,0,0,1-.22-.06.18.18,0,0,1,.06-.22,4.19,4.19,0,0,1,.7-.31A2.91,2.91,0,0,1,51,44a.15.15,0,0,1,.17.14.16.16,0,0,1-.14.17,3,3,0,0,0-.61.15A4.24,4.24,0,0,0,49.76,44.73Z" style="fill:#3a2018;fill-rule:evenodd"/></g></g></svg>