<svg xmlns="http://www.w3.org/2000/svg" viewBox="0 0 78.88 78.88"><title>marketingSales1EmmaAokiSVG</title><g id="Layer_2" data-name="Layer 2"><g id="Layer_2-2" data-name="Layer 2"><rect width="78.88" height="78.88" style="fill:#6394a4"/><path d="M31.53,38.14a3,3,0,0,0-2-1.15,11.7,11.7,0,0,0-1.26-3.14c-1.71-2.37-6-.52-6-.52,0,2.79,1,4.19,0,6.43s-.21,1.1-2,3.3-2.1,2.75-2.53,4.33c-.81,3,.34,6.61.54,7.36s-.83-5.18,1.93-6.15A7.56,7.56,0,0,0,21.51,48a8.39,8.39,0,0,1-.13,3.37A7.16,7.16,0,0,0,21.71,56a3.8,3.8,0,0,0,2.09,2,3.21,3.21,0,0,1-1-3.43c.39-1.53,1.13-2.2,1.54-3.5a10.83,10.83,0,0,0,.38-1.62A3.11,3.11,0,0,0,25,51c.48.94,2,2.49,1.65,4.39-.93,5.33,1,6.8,1.28,7.45a7.15,7.15,0,0,1-.08-3.69,3.42,3.42,0,0,1,1.61-2,4,4,0,0,1,.49,2.5c-.93,5.33,1,6.79,1.27,7.44a7.17,7.17,0,0,1-.07-3.68c.69-2,1.92-1.75,3-3.17a8.49,8.49,0,0,0,1.12-7.61C35.08,52.22,33.25,40.51,31.53,38.14Z" style="fill:#fff"/><path d="M61,47.3c-.42-1.58-.75-2.14-2.53-4.33s-1-1.07-2-3.31,0-3.63,0-6.42c0,0-4.3-1.86-6,.51a11.94,11.94,0,0,0-1.26,3.15,2.94,2.94,0,0,0-2,1.15c-1.72,2.37-3.55,14.08-3.69,14.5a8.46,8.46,0,0,0,1.13,7.61c1,1.42,2.27,1.19,3,3.16A7.22,7.22,0,0,1,47.52,67c.27-.65,2.21-2.11,1.27-7.44a3.91,3.91,0,0,1,.5-2.5,3.41,3.41,0,0,1,1.6,2,7.07,7.07,0,0,1-.08,3.68c.28-.65,2.21-2.11,1.28-7.44-.34-1.9,1.17-3.45,1.65-4.39A3.11,3.11,0,0,0,54,49.39,11.12,11.12,0,0,0,54.37,51c.41,1.3,1.15,2,1.54,3.5a3.21,3.21,0,0,1-1,3.43A3.77,3.77,0,0,0,57,56a7.23,7.23,0,0,0,.33-4.69,8.57,8.57,0,0,1-.13-3.37,7.56,7.56,0,0,0,1.33.62c2.76,1,1.72,6.89,1.93,6.14S61.82,50.28,61,47.3Z" style="fill:#fff"/><path d="M61,77.89s-.1-6-.33-6.54c-.47-2.1.36-3.06-2.89-5.08,0,0-.73-.24-1.8-.59h0l-2.4-.8c-.34-.12-.67-.24-1-.35-.87-.31-1.72-.62-2.51-.92L48.47,63c-.38-.17-.71-.32-1-.46a2.4,2.4,0,0,1-.59-.38s0-.05-.08-.09a.86.86,0,0,1-.07-.1,21.11,21.11,0,0,1-1.33-3.56h0a5.69,5.69,0,0,1-.12-1c0-.48,0-1,0-1.41s0-.86,0-1.2v-.28c0-.24,0-.44,0-.59s0-.24,0-.24l.86-.75c.64-.57,1.55-1.4,2.33-2.18a9.18,9.18,0,0,0,1.75-2.09.49.49,0,0,0,0-.15l-.06,0c-.4.06-2.55.43-4.86.79-1.37.22-2.81.43-4,.58L40,50.05h0c-.33,0-.62.05-.83.05s-.56,0-1-.05h0l-1.31-.17c-1.07-.13-2.36-.32-3.6-.51l-3.16-.51-.58-.1-1.38-.24a1.54,1.54,0,0,0,.4.74,0,0,0,0,0,0,0c.19.25.44.54.73.86s.6.62.93.93c1,1,2.06,1.91,2.58,2.36l.32.27a2,2,0,0,1,0,.24c0,.15,0,.35,0,.59v.28c0,.1,0,.2,0,.3,0,.65,0,1.46-.06,2.31a5.71,5.71,0,0,1-.13,1A20.72,20.72,0,0,1,31.59,62l-.08.1a.76.76,0,0,0-.07.09l-.25.18a9.31,9.31,0,0,1-1,.52c-.37.16-.8.34-1.27.52-1.11.44-2.43.91-3.7,1.34a2.67,2.67,0,0,0-.26.09l-2.56.86h0c-1,.35-1.76.57-1.79.59-3.22,2-2.43,3-2.88,5h0v0a.48.48,0,0,0,0,.15h0c-.21,1.09-.3,6.38-.3,6.38,0,.32,0,.65,0,1H61C61,78.54,61,78.21,61,77.89Z" style="fill:#fbd2c5"/><path d="M45.44,58.41a5.58,5.58,0,0,1-.12-1c0-1.12-.06-2.19-.08-2.89a14.09,14.09,0,0,1-5.68,1.32,3.62,3.62,0,0,1-.76,0,14.17,14.17,0,0,1-5.69-1.32c0,.7,0,1.77-.07,2.89a4.81,4.81,0,0,1-.13,1c1.81,1.51,4.26,3.07,5.89,3.07a1.79,1.79,0,0,0,.34,0h.08a1.79,1.79,0,0,0,.34,0C41.18,61.48,43.63,59.92,45.44,58.41Z" style="fill:#d29f97"/><path d="M55.25,36c.31-1.73.56-3,.63-3.31s.07-.25.1-.38.07-.28.09-.42.1-.43.15-.64,0-.2.05-.3.09-.47.12-.71,0-.21,0-.31,0-.42.08-.64a3.56,3.56,0,0,1,.05-.47c0-.14,0-.28,0-.41a14.89,14.89,0,0,0-2.67-9.59c-2.58-3.62-5.56-7.46-12-8H36.46c-6.46.53-9.43,4.37-12,8a15,15,0,0,0-2.67,9.59c0,.13,0,.27,0,.41s0,.31.05.47,0,.43.07.64,0,.21,0,.31.09.48.12.71,0,.2.05.3.09.43.15.64.07.27.09.42.06.25.1.38.32,1.57.63,3.28c-1.72-.84-4.11.37-3.83,3.54s4.21,5.13,5.55,5.45a10.82,10.82,0,0,0,.32,1.23c1.18,3,2.6,3.84,5.1,6.25C33,55.05,37,57.5,39,57.49h.43c2,0,6-2.44,8.73-5.05,2.49-2.41,3.92-3.3,5.09-6.25.08-.21.19-.64.33-1.22,1.29-.29,5.29-2.21,5.59-5.46S57,35.11,55.25,36Z" style="fill:#fbd2c5"/><path d="M57.87,37.77A1.89,1.89,0,0,0,55,37.2a1.64,1.64,0,0,0-.48,1.8c.13.53.68.57.54,1.37a1.42,1.42,0,0,1-.81,1.15,1.79,1.79,0,0,0-.68.73,2,2,0,0,0-.1,1.11c.15.65,1.1.15,1.72-.13a12.88,12.88,0,0,0,2.08-1.65,3.6,3.6,0,0,0,.6-3.81" style="fill:#e9b7ac"/><path d="M20.53,37.77a1.89,1.89,0,0,1,2.87-.57,1.64,1.64,0,0,1,.48,1.8c-.13.53-.68.57-.54,1.37a1.41,1.41,0,0,0,.8,1.15,1.73,1.73,0,0,1,.68.73,2,2,0,0,1,.1,1.11c-.15.65-1.09.15-1.72-.13a12.81,12.81,0,0,1-2.07-1.65,3.6,3.6,0,0,1-.6-3.81" style="fill:#e9b7ac"/><path d="M25.32,30.27h0v0Z" style="fill:#46423e"/><path d="M56,76.56v0h6.45c-.07-.45-.25-1.36-.49-2.44-.59-2.63-1.57-6.3-2.26-7.12a11.92,11.92,0,0,0-4.21-3.11,15.83,15.83,0,0,0-4-1.19c-11.48,14.17-21.85,3-24.2.06a18.49,18.49,0,0,0-3.73,1.15A14.22,14.22,0,0,0,19,67c-.83.86-1.79,4.35-2.62,7.12-.28.94-.55,1.8-.79,2.44h7.13v0c.05,3-.08,1.09-.2,2.32H56.14C56,77.65,55.89,79.55,56,76.56Z" style="fill:#00b5dd"/><path d="M44.56,6.43l2.23,1.19A21.41,21.41,0,0,0,35,7.83a5.76,5.76,0,0,0-1.27.41l.6,0A4.76,4.76,0,0,1,36.72,9c-1-.41-2.68-.56-5.52.57-.4.16-.77.33-1.11.5-1.21.54-3.63,1.61-8.28,3.64a15,15,0,0,0,3.36.81,6.78,6.78,0,0,1-3.29,2.42c-4,1.24-5.11-.35-5.11-.35a6.16,6.16,0,0,0,4.77,2.8h.54a25.42,25.42,0,0,0-1.36,5.22c-.22,2.28.48,3.84.69,8.11a4.72,4.72,0,0,0,.43,2.15c.43.76,1.15.5,2,2.31A5.66,5.66,0,0,1,24.22,39l.08,0c.26.09,1,0,1-3.78,0,0,0-.07,0-.2v0a6.22,6.22,0,0,1,4.79-7.44A33.94,33.94,0,0,1,34.61,27l-.06,0c12.71,0,17.7,3.63,19.45,5.56-.1,1.1-.14,2-.15,2.76,0,3.49.69,3.46.69,3.46.34,0,0-1.76,1.09-3a6.87,6.87,0,0,0,1-1.6,18.87,18.87,0,0,0,1.8-7.78C59.62,6.43,44.56,6.43,44.56,6.43Z" style="fill:#fff"/><path d="M25.24,45.15a1.46,1.46,0,1,1-1.46-1.46A1.47,1.47,0,0,1,25.24,45.15Z" style="fill:#fbd2c5"/><path d="M24.51,45.15a.73.73,0,0,1-1.46,0,.73.73,0,0,1,1.46,0Z" style="fill:#6394a4"/><path d="M55.32,45.34a1.46,1.46,0,1,1-1.46-1.46A1.46,1.46,0,0,1,55.32,45.34Z" style="fill:#fbd2c5"/><circle cx="53.86" cy="45.34" r="0.73" style="fill:#6394a4"/><path d="M43.2,41.52A.33.33,0,0,1,43,42a.32.32,0,0,1-.42-.16,4.72,4.72,0,0,0-.7-1.18c-.21-.23-.41-.35-.6-.28a1.34,1.34,0,0,1-1.38-.22.89.89,0,0,0-.5-.19h0a1.38,1.38,0,0,0-.6.25h0a1.14,1.14,0,0,1-1.31.13c-.21-.12-.43,0-.63.25a4.7,4.7,0,0,0-.69,1.28.32.32,0,0,1-.42.18.32.32,0,0,1-.18-.41,5.62,5.62,0,0,1,.81-1.47,1.08,1.08,0,0,1,1.42-.39c.24.13.45,0,.67-.12h0a1.94,1.94,0,0,1,.88-.34h0a1.31,1.31,0,0,1,.89.3.82.82,0,0,0,.81.15,1.15,1.15,0,0,1,1.29.45A5.82,5.82,0,0,1,43.2,41.52Z" style="fill:#3a2018;fill-rule:evenodd"/><path d="M29,37.89a.48.48,0,0,1-.49-.47.49.49,0,0,1,.47-.49l1.73,0a28.49,28.49,0,0,1,4.67,0,.49.49,0,0,1,.33.6.48.48,0,0,1-.6.32,33.16,33.16,0,0,0-4.38,0Z" style="fill:#3a2018;fill-rule:evenodd"/><path d="M28.09,34.69a.47.47,0,0,1-.55-.38.48.48,0,0,1,.39-.56s5.47-1,7.18-2.55a.48.48,0,0,1,.68,0,.48.48,0,0,1,0,.67C33.84,33.66,28.11,34.69,28.09,34.69Z" style="fill:#3a2018;fill-rule:evenodd"/><polygon points="29.9 37.39 28.57 44.06 34.58 44.66 34.25 37.3 29.9 37.39" style="fill:#a6d2f0;fill-rule:evenodd"/><path d="M34.87,44.39a.33.33,0,0,1-.31.33.32.32,0,0,1-.33-.31l-.29-6.78-3.78.07-1.31,6.16a.32.32,0,0,1-.38.25.32.32,0,0,1-.24-.38l1.36-6.41a.31.31,0,0,1,.3-.25L34.23,37a.31.31,0,0,1,.33.3Z" style="fill:#3a2018;fill-rule:evenodd"/><path d="M49.87,36.93a.48.48,0,0,1,.46.49.47.47,0,0,1-.49.47l-1.72,0a33.12,33.12,0,0,0-4.38,0,.48.48,0,0,1-.28-.92,28.63,28.63,0,0,1,4.68,0Z" style="fill:#3a2018;fill-rule:evenodd"/><path d="M51,33.75a.49.49,0,0,1,.39.56.48.48,0,0,1-.56.38s-5.74-1-7.66-2.79a.48.48,0,1,1,.65-.7C45.48,32.77,50.94,33.75,51,33.75Z" style="fill:#3a2018;fill-rule:evenodd"/><polygon points="48.98 37.39 50.38 44.03 44.37 44.64 44.63 37.3 48.98 37.39" style="fill:#a6d2f0;fill-rule:evenodd"/><path d="M44.65,44.41a.32.32,0,0,1-.64,0l.3-7.1a.32.32,0,0,1,.33-.3l4.34.08a.32.32,0,0,1,.31.25l1.36,6.41a.32.32,0,1,1-.62.13L48.72,37.7l-3.78-.07Z" style="fill:#3a2018;fill-rule:evenodd"/><path d="M38.33,38.68a.32.32,0,0,0,0-.63.32.32,0,1,0,0,.63Z" style="fill:#3a2018;fill-rule:evenodd"/><path d="M40.47,38.68a.32.32,0,1,0-.31-.31A.31.31,0,0,0,40.47,38.68Z" style="fill:#3a2018;fill-rule:evenodd"/></g></g></svg>