<svg xmlns="http://www.w3.org/2000/svg" viewBox="0 0 78.88 78.88"><title>marketingSales19OliviaUenoSVG</title><g id="Layer_2" data-name="Layer 2"><g id="Layer_2-2" data-name="Layer 2"><rect width="78.88" height="78.88" style="fill:#a86a72"/><path d="M60.52,77.89s-.1-6-.33-6.54c-.47-2.1.36-3.06-2.89-5.08,0,0-.73-.24-1.8-.59h0l-2.4-.8c-.33-.12-.67-.24-1-.35-.86-.31-1.72-.62-2.51-.92L48,63c-.38-.17-.71-.32-1-.46a2.4,2.4,0,0,1-.59-.38s0-.05-.08-.09a.86.86,0,0,1-.07-.1A21.11,21.11,0,0,1,45,58.42h0a5.69,5.69,0,0,1-.12-1c0-.48,0-1,0-1.41s0-.86,0-1.2v-.28c0-.24,0-.44,0-.59s0-.24,0-.24l.86-.75c.64-.57,1.55-1.4,2.34-2.18a9.06,9.06,0,0,0,1.74-2.09.49.49,0,0,0,0-.15l-.06,0c-.4.06-2.55.43-4.86.79-1.37.22-2.81.43-4,.58l-1.25.14h0c-.34,0-.63.05-.84.05s-.56,0-1-.05h0l-1.32-.17c-1.07-.13-2.36-.32-3.6-.51l-3.16-.51-.58-.1-1.38-.24a1.54,1.54,0,0,0,.4.74,0,0,0,0,0,0,0,11.3,11.3,0,0,0,.74.86c.28.3.6.62.92.93,1,1,2.06,1.91,2.58,2.36l.32.27a2,2,0,0,1,0,.24c0,.15,0,.35,0,.59v.28c0,.1,0,.2,0,.3,0,.65,0,1.46-.06,2.31a5.71,5.71,0,0,1-.13,1A20.72,20.72,0,0,1,31.16,62l-.08.1-.07.09-.24.18a9.63,9.63,0,0,1-1,.52c-.37.16-.8.34-1.27.52-1.11.44-2.43.91-3.7,1.34l-.26.09L22,65.68h0c-1,.35-1.76.57-1.79.59-3.22,2-2.43,3-2.88,5h0v0a.48.48,0,0,0,0,.15h0c-.21,1.09-.3,6.38-.3,6.38,0,.32,0,.65,0,1H60.54C60.53,78.54,60.53,78.21,60.52,77.89Z" style="fill:#fbd2c5"/><path d="M45,58.41a5.58,5.58,0,0,1-.12-1c0-1.12-.06-2.19-.08-2.89a14.09,14.09,0,0,1-5.68,1.32,3.62,3.62,0,0,1-.76,0,14.17,14.17,0,0,1-5.69-1.32c0,.7,0,1.77-.07,2.89a5.58,5.58,0,0,1-.12,1c1.81,1.51,4.25,3.07,5.88,3.07a1.79,1.79,0,0,0,.34,0h.08a1.79,1.79,0,0,0,.34,0C40.76,61.48,43.2,59.92,45,58.41Z" style="fill:#d29f97"/><path d="M54.82,36c.32-1.73.56-3,.63-3.31s.07-.25.1-.38.07-.28.09-.42.1-.43.15-.64,0-.2.05-.3.09-.47.13-.71l0-.31c0-.21,0-.42.08-.64a3.56,3.56,0,0,1,.05-.47c0-.14,0-.28,0-.41a14.83,14.83,0,0,0-2.67-9.59c-2.58-3.62-5.55-7.46-12-8H36c-6.46.53-9.43,4.37-12,8a14.9,14.9,0,0,0-2.68,9.59c0,.13,0,.27,0,.41s0,.31.05.47,0,.43.07.64,0,.21,0,.31.09.48.13.71,0,.2,0,.3.09.43.15.64.07.27.09.42.06.25.1.38.32,1.57.63,3.28c-1.72-.84-4.11.37-3.83,3.54s4.21,5.13,5.55,5.45a10.82,10.82,0,0,0,.32,1.23c1.18,3,2.6,3.84,5.1,6.25,2.72,2.61,6.74,5.06,8.73,5.05H39c2,0,6-2.44,8.73-5.05,2.5-2.41,3.92-3.3,5.09-6.25A10.49,10.49,0,0,0,53.11,45c1.29-.29,5.29-2.21,5.59-5.46S56.55,35.11,54.82,36Z" style="fill:#fbd2c5"/><path d="M57.44,37.77a1.89,1.89,0,0,0-2.87-.57,1.64,1.64,0,0,0-.48,1.8c.13.53.68.57.54,1.37a1.42,1.42,0,0,1-.81,1.15,1.79,1.79,0,0,0-.68.73,2,2,0,0,0-.09,1.11c.15.65,1.09.15,1.71-.13a12.88,12.88,0,0,0,2.08-1.65,3.6,3.6,0,0,0,.6-3.81" style="fill:#e9b7ac"/><path d="M20.1,37.77A1.89,1.89,0,0,1,23,37.2a1.64,1.64,0,0,1,.48,1.8c-.13.53-.68.57-.54,1.37a1.43,1.43,0,0,0,.8,1.15,1.75,1.75,0,0,1,.69.73,2,2,0,0,1,.09,1.11c-.15.65-1.09.15-1.72-.13a13.26,13.26,0,0,1-2.07-1.65,3.6,3.6,0,0,1-.6-3.81" style="fill:#e9b7ac"/><path d="M19.46,73l.13.07,0-.07Z" style="fill:#332e2b"/><path d="M19.61,73v0h0Z" style="fill:#332e2b"/><path d="M55.79,73h5.5a9.09,9.09,0,0,0-.19-1.7l0-.13c-.28-1.36,0-2.25-.87-3.3a7.92,7.92,0,0,0-2.11-1.66l-1.87-.59h0L54.28,65l-.59-.19c-.35-.11-.7-.24-1.07-.35L51.28,64C37,76.26,26.21,64,26.21,64c-.66.23-1.34.46-2,.67l-.17.06-.1,0-2.67.86h0l-1.87.59A7.43,7.43,0,0,0,17.2,68c-.72,1-.52,1.85-.79,3.14,0,0,0,.09,0,.13h0v0a.3.3,0,0,0,0,.15h0A12.87,12.87,0,0,0,16.2,73h3.41v0h0s2,0,2,.07c-.63,2.24-3.07,3.36-3.25,5.77H59.07c-.18-2.44-2.64-3.55-3.28-5.85Z" style="fill:#332e2b"/><path d="M59.58,14.43s-1.12,1.43-5,.31a5.75,5.75,0,0,1-1.46-.64,6.14,6.14,0,0,0-2.45-2.32,11.52,11.52,0,0,0-5.13-3.62c-2.76-1-4.4-.88-5.36-.51a6.05,6.05,0,0,1,3-.63,9.43,9.43,0,0,0-6.24-.12,17.49,17.49,0,0,0-5.15,2.2l1.5-1.25A26.87,26.87,0,0,0,24.22,13c-3.66,3.45-5.07,6.69-5.07,10.34a13.07,13.07,0,0,0,.17,2.08,14.3,14.3,0,0,0-.13,4.8c1.44,10.17,6.51,12.06,6.51,12.06s-3.49-6.1-1.19-10a13.75,13.75,0,0,1,10.75-6.83,9.68,9.68,0,0,0-8.2,7s0,0,0,0a5.13,5.13,0,0,1,3.26-2.87c1.53-.55,3.54-.53,5.83-1.09a10.93,10.93,0,0,0-2.44,5.28,14.34,14.34,0,0,1,7-4.79l.93-.32a5.35,5.35,0,0,0-.48,5.3S41,31.23,47.2,29.57c3.59-1,4.16-2.86,4.16-2.86a11.83,11.83,0,0,0,.24,2.34c-.8,3.55.32,5.59.75,5.49a4.7,4.7,0,0,1,.41-1.71,4.54,4.54,0,0,1,.59-.94,2.79,2.79,0,0,1,.73,1.45c.21,2.34-1.14,6.71-1.14,6.71l2-1.47a53,53,0,0,0,2-11.74c0-2.62-.53-6.23-1.66-7.86l-.3-.41c-.31-.94-.6-1.64-.6-1.65H55A6,6,0,0,0,59.58,14.43Z" style="fill:#181818"/><path d="M36.28,40l-.06.17.09-.16Z" style="fill:#0e151a;opacity:0.4"/><path d="M36.28,40l-.06.17.09-.16Z" style="fill:#e8e9e7;opacity:0.55"/><path d="M41.45,41.49c.09.13.19.24.28.36-.08-.12-.17-.24-.25-.37Z" style="fill:#0e151a;opacity:0.4"/><path d="M41.45,41.49c.09.13.19.24.28.36-.08-.12-.17-.24-.25-.37Z" style="fill:#e8e9e7;opacity:0.55"/><rect x="16.2" y="73.04" width="44.71" height="1.16" style="fill:#edeeed"/><path d="M53.85,46.52V44a.4.4,0,0,0,.29-.39.41.41,0,0,0-.42-.41.41.41,0,0,0-.41.41.4.4,0,0,0,.29.39v2.55a2,2,0,0,0-2.07,2.61c.13.53.54.78.53,1.53a1.76,1.76,0,0,1,1,.73v.28h1.24v-.25a1.85,1.85,0,0,1,1.1-.76c0-1,.45-1.14.53-1.91A2,2,0,0,0,53.85,46.52Zm-1,3.11a.55.55,0,1,1,.58-.55A.56.56,0,0,1,52.85,49.63Zm1.29.85a.5.5,0,0,1-.76-.18l.31-.86S54.66,50.15,54.14,50.48Zm.51-1a.55.55,0,1,1,0-1.1.55.55,0,1,1,0,1.1Z" style="fill:#edeeed"/><path d="M24,46.52V44a.4.4,0,0,0,.29-.39.41.41,0,0,0-.42-.41.41.41,0,0,0-.41.41.4.4,0,0,0,.29.39v2.55a2,2,0,0,0-2.07,2.61c.12.53.54.78.53,1.53a1.76,1.76,0,0,1,1.05.73v.28h1.24v-.25a1.85,1.85,0,0,1,1.1-.76c0-1,.45-1.14.53-1.91A2,2,0,0,0,24,46.52Zm-1,3.11a.55.55,0,1,1,.58-.55A.56.56,0,0,1,23,49.63Zm1.29.85a.49.49,0,0,1-.76-.18l.31-.86S24.8,50.15,24.28,50.48Zm.51-1a.55.55,0,1,1,0-1.1.55.55,0,1,1,0,1.1Z" style="fill:#edeeed"/><path d="M34.07,38.06a.7.7,0,1,1,1,1A5.31,5.31,0,0,1,32,40.23a7.73,7.73,0,0,1-3.52-.46.7.7,0,0,1,.5-1.3,6.4,6.4,0,0,0,2.89.37A3.85,3.85,0,0,0,34.07,38.06Z" style="fill:#3a2018;fill-rule:evenodd"/><path d="M35.24,43.2a.35.35,0,0,1,.34-.61,2.12,2.12,0,0,0,2.19.12,2.29,2.29,0,0,1,2.16,0,2.12,2.12,0,0,0,2.19-.12.35.35,0,0,1,.47.13.35.35,0,0,1-.13.48,2.71,2.71,0,0,1-2.78.16,2.33,2.33,0,0,0-.83-.22,2.28,2.28,0,0,0-.82.22A2.73,2.73,0,0,1,35.24,43.2Z" style="fill:#3a2018;fill-rule:evenodd"/><path d="M30.17,41.72c-3.82.13-3.74,3.05.08,2.92S34,41.59,30.17,41.72Z" style="fill:#dc98ab;fill-rule:evenodd"/><path d="M27.43,35.3a.36.36,0,0,1-.45-.22.35.35,0,0,1,.23-.44l.13,0c1.26-.43,4.37-1.46,6.54-1a5.41,5.41,0,0,1,.86.27,3.32,3.32,0,0,1,.75.45.35.35,0,0,1,0,.5.36.36,0,0,1-.49,0,2.24,2.24,0,0,0-.58-.35,3.79,3.79,0,0,0-.72-.22c-2-.43-5,.56-6.18,1Z" style="fill:#3a2018;fill-rule:evenodd"/><path d="M42.52,39a.7.7,0,0,1,0-1,.71.71,0,0,1,1,0,3.79,3.79,0,0,0,2.22.78,6.42,6.42,0,0,0,2.89-.37.7.7,0,1,1,.5,1.3,7.73,7.73,0,0,1-3.52.46A5.25,5.25,0,0,1,42.52,39Z" style="fill:#3a2018;fill-rule:evenodd"/><path d="M47.42,41.72c3.82.13,3.74,3.05-.08,2.92S43.6,41.59,47.42,41.72Z" style="fill:#dc98ab;fill-rule:evenodd"/><path d="M50.38,34.64a.35.35,0,0,1-.22.66l-.13,0c-1.21-.41-4.19-1.4-6.18-1a4.13,4.13,0,0,0-.73.22,2.42,2.42,0,0,0-.58.35.35.35,0,1,1-.44-.54,3.11,3.11,0,0,1,.75-.45,5.29,5.29,0,0,1,.85-.27c2.18-.46,5.28.57,6.55,1Z" style="fill:#3a2018;fill-rule:evenodd"/></g></g></svg>