<svg xmlns="http://www.w3.org/2000/svg" viewBox="0 0 78.88 78.88"><title>marketingSales21SophiaOkamotoSVG</title><g id="Layer_2" data-name="Layer 2"><g id="Layer_2-2" data-name="Layer 2"><rect width="78.88" height="78.88" style="fill:#d6868d"/><path d="M61.29,77.89s-.1-6-.34-6.54c-.46-2.1.36-3.06-2.88-5.08,0,0-.74-.24-1.8-.59h0l-2.39-.8-1-.35c-.86-.31-1.72-.62-2.51-.92L48.8,63c-.38-.17-.7-.32-1-.46a2.62,2.62,0,0,1-.59-.38l-.07-.09-.08-.1a20.49,20.49,0,0,1-1.32-3.56h0a5.71,5.71,0,0,1-.13-1c0-.48,0-1,0-1.41s0-.86,0-1.2v-.28c0-.24,0-.44,0-.59a2,2,0,0,1,0-.24l.87-.75c.63-.57,1.54-1.4,2.33-2.18a9.18,9.18,0,0,0,1.75-2.09,1,1,0,0,0,0-.15l-.06,0c-.4.06-2.55.43-4.86.79-1.37.22-2.81.43-4,.58l-1.25.14h0c-.34,0-.62.05-.84.05s-.56,0-.95-.05h0l-1.31-.17c-1.08-.13-2.36-.32-3.61-.51l-3.16-.51c-.21,0-.4-.06-.57-.1l-1.39-.24a1.54,1.54,0,0,0,.4.74,0,0,0,0,0,0,0,11.3,11.3,0,0,0,.74.86c.29.3.6.62.92.93,1,1,2.06,1.91,2.59,2.36l.31.27s0,.09,0,.24,0,.35,0,.59v.28c0,.1,0,.2,0,.3,0,.65,0,1.46-.06,2.31a5.69,5.69,0,0,1-.12,1A21.35,21.35,0,0,1,31.92,62a.86.86,0,0,1-.07.1l-.08.09a2.11,2.11,0,0,1-.24.18,9.31,9.31,0,0,1-1,.52l-1.27.52c-1.11.44-2.44.91-3.7,1.34-.09,0-.18.06-.27.09l-2.55.86h0c-1.05.35-1.76.57-1.78.59-3.22,2-2.44,3-2.89,5h0v0a.61.61,0,0,0,0,.15h0c-.22,1.09-.3,6.38-.3,6.38,0,.32,0,.65,0,1H61.3C61.3,78.54,61.3,78.21,61.29,77.89Z" style="fill:#fbd2c5"/><path d="M45.78,58.41a4.81,4.81,0,0,1-.13-1c0-1.12-.06-2.19-.07-2.89a14.16,14.16,0,0,1-5.68,1.32,2.48,2.48,0,0,1-.39,0,2.36,2.36,0,0,1-.38,0,14.09,14.09,0,0,1-5.68-1.32c0,.7,0,1.77-.08,2.89a5.58,5.58,0,0,1-.12,1c1.81,1.51,4.26,3.07,5.88,3.07a1.87,1.87,0,0,0,.34,0h.08a1.9,1.9,0,0,0,.35,0C41.52,61.48,44,59.92,45.78,58.41Z" style="fill:#d29f97"/><path d="M55.59,36c.31-1.73.55-3,.63-3.31s.06-.25.1-.38.06-.28.09-.42.09-.43.14-.64l.06-.3c0-.23.08-.47.12-.71s0-.21,0-.31,0-.42.07-.64,0-.32,0-.47,0-.28,0-.41a15,15,0,0,0-2.67-9.59c-2.59-3.62-5.56-7.46-12-8H36.79c-6.46.53-9.43,4.37-12,8a14.83,14.83,0,0,0-2.67,9.59c0,.13,0,.27,0,.41a3.56,3.56,0,0,1,.05.47c0,.22,0,.43.08.64l0,.31c0,.24.09.48.13.71s0,.2,0,.3.09.43.15.64.06.27.09.42.06.25.1.38.31,1.57.62,3.28c-1.72-.84-4.11.37-3.82,3.54s4.2,5.13,5.54,5.45a10.24,10.24,0,0,0,.33,1.23c1.17,3,2.59,3.84,5.09,6.25,2.72,2.61,6.74,5.06,8.73,5.05h.43c2,0,6-2.44,8.72-5.05,2.5-2.41,3.92-3.3,5.1-6.25A11.1,11.1,0,0,0,53.87,45c1.3-.29,5.3-2.21,5.59-5.46S57.31,35.11,55.59,36Z" style="fill:#fbd2c5"/><path d="M58.2,37.77a1.89,1.89,0,0,0-2.87-.57,1.62,1.62,0,0,0-.47,1.8c.12.53.68.57.53,1.37a1.41,1.41,0,0,1-.8,1.15,1.73,1.73,0,0,0-.68.73,2,2,0,0,0-.1,1.11c.15.65,1.09.15,1.72-.13a12.81,12.81,0,0,0,2.07-1.65,3.58,3.58,0,0,0,.6-3.81" style="fill:#e9b7ac"/><path d="M20.86,37.77a1.89,1.89,0,0,1,2.87-.57,1.64,1.64,0,0,1,.48,1.8c-.13.53-.68.57-.54,1.37a1.42,1.42,0,0,0,.81,1.15,1.79,1.79,0,0,1,.68.73,2,2,0,0,1,.1,1.11c-.15.65-1.09.15-1.72-.13a12.88,12.88,0,0,1-2.08-1.65,3.6,3.6,0,0,1-.6-3.81" style="fill:#e9b7ac"/><path d="M25.65,30.27h0v0Z" style="fill:#46423e"/><path d="M37.48,40.81c0,.06,0,.12,0,.17a1.19,1.19,0,0,1,.09-.15Z" style="fill:#0e151a;opacity:0.4"/><path d="M37.48,40.81c0,.06,0,.12,0,.17a1.19,1.19,0,0,1,.09-.15Z" style="fill:#e8e9e7;opacity:0.55"/><path d="M42.66,42.32c.09.13.19.25.28.37-.09-.13-.18-.25-.26-.38Z" style="fill:#0e151a;opacity:0.4"/><path d="M42.66,42.32c.09.13.19.25.28.37-.09-.13-.18-.25-.26-.38Z" style="fill:#e8e9e7;opacity:0.55"/><path d="M61.26,76.3c0-1.08-.11-4.76-.2-5-.46-2.1.36-3.06-2.9-5.08,0,0-.74-.24-1.8-.59h0c-.69-.23-1.53-.5-2.4-.8l-1-.35-.33-.12c-.75-.26-1.5-.54-2.19-.8l-.72-.28a14.75,14.75,0,0,1,.14,1.89c0,6.59-4.58,6.37-10.22,6.37s-10.22.22-10.22-6.37a13.56,13.56,0,0,1,.14-1.92l-.26.1c-.77.31-1.66.63-2.55.94l-1.16.4-.26.09-2.57.86h0c-1.05.35-1.76.57-1.79.59-3.23,2-2.44,3-2.89,5h0v0a.3.3,0,0,0,0,.15h0c-.07.34-.12,3.9-.17,4.79h5.85v2.58H55.82V76.3Z" style="fill:#80414a"/><path d="M62.51,30.49A53.18,53.18,0,0,0,61,21.67l-.09.11a20.79,20.79,0,0,0-3.53-7.39h0a27.17,27.17,0,0,0-4.45-5c-3.82-3.44-6.21-2.73-9.37-2.63l0,.06c-1.39-.3-8.84-1.79-13.27-.15-4.9,1.83-8.91,5-11.74,13.36a26.06,26.06,0,0,0-1,3.76,12.66,12.66,0,0,0-1.05,3.91h-.07S14,40.89,7,43.53c0,0,5.28,1.31,9.46-5.47a7.88,7.88,0,0,1,2.16,3.7,30,30,0,0,1,1.07,4.68c.08-.68.19-1.35.32-2,0-.17.07-.35.11-.52s.09-.38.14-.58a23,23,0,0,0,1.42,2.55,3,3,0,0,0,.1.32,29,29,0,0,0,1.16,3c.38.93.77,1.81,1.06,2.66a16.55,16.55,0,0,1,.64,2.4,9,9,0,0,1,.14,1.1,7,7,0,0,1,.06,1A16.6,16.6,0,0,1,24.8,58l-.18,1.46.17-.36c.1-.23.28-.57.45-1a12.13,12.13,0,0,0,.46-1.67,9.19,9.19,0,0,0,.23-2.26,13.24,13.24,0,0,0-.53-3.6,26.36,26.36,0,0,0,3.24,2.86,20.24,20.24,0,0,1-3.05-5,27.27,27.27,0,0,1-1.82-10.07c0-.23,0-.45,0-.68s.12-.53.2-.79c.49-1.76,1.11-3.4,1.65-4.85a31,31,0,0,1,2.88-4.55,22.79,22.79,0,0,0-2.63,7.92,11.72,11.72,0,0,0,1.87,7.36,21.7,21.7,0,0,1,1.15-8.85,7.16,7.16,0,0,1,4.32-4.4h0a6.23,6.23,0,0,0,1.18,5.85,13.13,13.13,0,0,1,.24-2,15.47,15.47,0,0,1,10.07-12l.23.33,5.18,7.53c.26.34.67.92,1.15,1.67,1.41,2.18,3.35,5.75,3.35,8.85a27.33,27.33,0,0,1-1.82,10.08,20.65,20.65,0,0,1-3.05,5,25.86,25.86,0,0,0,2.68-2.3,9.39,9.39,0,0,0-.12,1.64,9.73,9.73,0,0,0,.22,2.26A13.59,13.59,0,0,0,53,58.08c.17.45.35.79.45,1l.16.36L53.45,58a16.6,16.6,0,0,1-.05-1.66,8.69,8.69,0,0,1,.05-1,9,9,0,0,1,.15-1.1,16.45,16.45,0,0,1,.63-2.4c.27-.77.62-1.57,1-2.4a25.26,25.26,0,0,0,3.05-4.92,25.68,25.68,0,0,1,.5,4c.22-.78.44-1.53.67-2.25a61,61,0,0,1,2.89-7.43c4.09,5.87,8.94,4.67,8.94,4.67C66.33,41.67,63.65,34.53,62.51,30.49Z" style="fill:#353839"/><path d="M52.67,71.75s.89,4.76,1.85,5.44L53.45,77l-1.57-5.08Z" style="fill:#e42727"/><path d="M51.87,71.92c.42,1.38,1.21,4,1.56,5.07l-.69-.07h0l-1.51-4.87Z" style="fill:#fff"/><path d="M51.22,72.05c.31,1,1.05,3.46,1.49,4.89l-1,.4s-.16-4.18-1.54-5.07Z" style="fill:#62af56"/><path d="M51.88,71.92,53.45,77h0c-.35-1.08-1.14-3.69-1.56-5.07Z" style="fill:#e42727"/><path d="M51.23,72.05l1.51,4.87,0,0c-.44-1.43-1.18-3.87-1.49-4.89Z" style="fill:#62af56"/><path d="M48.83,71.46s-.89,4.75-1.85,5.43l1.07-.19,1.57-5.08Z" style="fill:#e42727"/><path d="M49.63,71.62c-.42,1.38-1.21,4-1.56,5.08l.69-.07h0l1.51-4.88Z" style="fill:#fff"/><path d="M50.28,71.75c-.31,1-1.05,3.47-1.5,4.9l1.08.93S50,72.86,51.34,72Z" style="fill:#43823d"/><path d="M49.62,71.62,48.05,76.7h0c.35-1.09,1.14-3.7,1.56-5.08Z" style="fill:#e42727"/><path d="M50.27,71.75l-1.51,4.88,0,0c.45-1.43,1.19-3.87,1.5-4.9Z" style="fill:#62af56"/><path d="M48,69.15a.56.56,0,0,1-.06-.59.72.72,0,0,1,.49-.35l-.6-.41a.86.86,0,0,0-.61.44.94.94,0,0,0,.14.86,1,1,0,0,0-.48.73h.79A.86.86,0,0,1,48,69.15Z" style="fill:#b32024"/><path d="M48.39,68.21a.71.71,0,0,1,.15-.59.78.78,0,0,1,.68-.13h0l-.39-.6h0a1,1,0,0,0-.86.17.85.85,0,0,0-.19.74h0l.6.41Z" style="fill:#d81f26"/><path d="M52.37,67.47a.73.73,0,0,1,.59.15.77.77,0,0,1,.14.69h0l.6-.38h0a.93.93,0,0,0-.17-.86.9.9,0,0,0-.73-.19.5.5,0,0,1,0-.13l-.41.63Z" style="fill:#b32024"/><path d="M47.83,71a.41.41,0,0,1,0-.47.85.85,0,0,1-.25-.65h-.79a.87.87,0,0,0,.39.66.88.88,0,0,0-.13.75.93.93,0,0,0,.7.5l.6-.38A.78.78,0,0,1,47.83,71Z" style="fill:#d81f26"/><path d="M51.33,67.1A.73.73,0,0,1,52,67a.61.61,0,0,1,.32.39l.41-.63a.85.85,0,0,0-.41-.49,1,1,0,0,0-.86.15,1,1,0,0,0-.73-.48v.79A.74.74,0,0,1,51.33,67.1Z" style="fill:#d81f26"/><path d="M49.63,66.92a.68.68,0,0,1,.6.1.67.67,0,0,1,.52-.31v-.79a1,1,0,0,0-.74.33.66.66,0,0,0-.67-.07.93.93,0,0,0-.5.7l.39.6A.71.71,0,0,1,49.63,66.92Z" style="fill:#b32024"/><path d="M53.11,71.46A.68.68,0,0,1,53,72a.77.77,0,0,1-.69.14h0l.39.6h0a1,1,0,0,0,.86-.17.88.88,0,0,0,.19-.74h0l-.6-.41Z" style="fill:#d81f26"/><path d="M53.48,70.48c.15.26.21.43.12.63a.68.68,0,0,1-.48.35l.6.41a.86.86,0,0,0,.61-.44,1.07,1.07,0,0,0-.11-1c.31-.22.45-.38.45-.65h-.8A.88.88,0,0,1,53.48,70.48Z" style="fill:#b32024"/><path d="M54.32,69.12a.74.74,0,0,0,.09-.69,1,1,0,0,0-.7-.5l-.6.38a.8.8,0,0,1,.56.4.49.49,0,0,1-.05.5.81.81,0,0,1,.25.62h.8A.9.9,0,0,0,54.32,69.12Z" style="fill:#d81f26"/><path d="M50.17,72.57a.73.73,0,0,1-.69.12.64.64,0,0,1-.32-.39l-.41.63a.85.85,0,0,0,.41.49,1,1,0,0,0,.86-.15.93.93,0,0,0,.73.48V73A.74.74,0,0,1,50.17,72.57Z" style="fill:#d81f26"/><path d="M51.87,72.75a.68.68,0,0,1-.6-.1.68.68,0,0,1-.52.31v.79a1,1,0,0,0,.72-.41c.27.16.47.24.68.15a.91.91,0,0,0,.51-.7l-.39-.6A.73.73,0,0,1,51.87,72.75Z" style="fill:#b32024"/><path d="M49.13,72.2a.7.7,0,0,1-.59-.16.74.74,0,0,1-.14-.68h0l-.6.38h0a.93.93,0,0,0,.17.86.89.89,0,0,0,.73.19.5.5,0,0,1,0,.13l.41-.63Z" style="fill:#b32024"/><path d="M48.67,69.39a.56.56,0,0,1-.08-.52.49.49,0,0,1,.36-.26l-.57-.4a.72.72,0,0,0-.49.35.56.56,0,0,0,.06.59.86.86,0,0,0-.33.68h.76A.58.58,0,0,1,48.67,69.39Z" style="fill:#fff"/><path d="M48.54,70.68a.54.54,0,0,1,.07-.45.54.54,0,0,1-.23-.4h-.76a.85.85,0,0,0,.25.65.41.41,0,0,0,0,.47.78.78,0,0,0,.56.41L49,71A.59.59,0,0,1,48.54,70.68Z" style="fill:#e5dcdb"/><path d="M49,68.6a.49.49,0,0,1,.12-.44.56.56,0,0,1,.51-.1h0l-.37-.57h0a.78.78,0,0,0-.68.13.71.71,0,0,0-.15.59h0l.57.4Z" style="fill:#e5dcdb"/><path d="M51.19,67.76a.58.58,0,0,1,.52-.09A.47.47,0,0,1,52,68l.39-.6A.61.61,0,0,0,52,67a.73.73,0,0,0-.69.12.74.74,0,0,0-.58-.39v.76A.56.56,0,0,1,51.19,67.76Z" style="fill:#e5dcdb"/><path d="M49.9,67.62a.51.51,0,0,1,.45.08.53.53,0,0,1,.4-.23v-.76a.67.67,0,0,0-.52.31.68.68,0,0,0-.6-.1.71.71,0,0,0-.4.56l.37.57A.56.56,0,0,1,49.9,67.62Z" style="fill:#fff"/><path d="M49.52,71.62a.52.52,0,0,1-.44-.11A.55.55,0,0,1,49,71h0l-.57.37h0a.74.74,0,0,0,.14.68.7.7,0,0,0,.59.16l0,.1.38-.6S49.53,71.65,49.52,71.62Z" style="fill:#fff"/><path d="M50.31,71.91a.58.58,0,0,1-.52.09.51.51,0,0,1-.25-.3l-.38.6a.64.64,0,0,0,.32.39.73.73,0,0,0,.69-.12.74.74,0,0,0,.58.39V72.2A.56.56,0,0,1,50.31,71.91Z" style="fill:#e5dcdb"/><path d="M51.6,72.05a.51.51,0,0,1-.45-.08.53.53,0,0,1-.4.23V73a.68.68,0,0,0,.52-.31.68.68,0,0,0,.6.1.73.73,0,0,0,.4-.56l-.37-.57A.56.56,0,0,1,51.6,72.05Z" style="fill:#fff"/><path d="M53,67.62a.73.73,0,0,0-.59-.15l0-.1L52,68l0,.08a.52.52,0,0,1,.44.11.55.55,0,0,1,.11.52h0l.58-.37h0A.77.77,0,0,0,53,67.62Z" style="fill:#fff"/><path d="M53,69a.52.52,0,0,1-.08.45.53.53,0,0,1,.24.39h.75a.81.81,0,0,0-.25-.62.49.49,0,0,0,.05-.5.8.8,0,0,0-.56-.4l-.58.37A.59.59,0,0,1,53,69Z" style="fill:#e5dcdb"/><path d="M52.82,70.28a.54.54,0,0,1,.09.52.49.49,0,0,1-.37.26l.58.4a.68.68,0,0,0,.48-.35c.09-.2,0-.37-.12-.63a.88.88,0,0,0,.39-.65h-.75A.58.58,0,0,1,52.82,70.28Z" style="fill:#fff"/><path d="M52.54,71.06a.54.54,0,0,1-.12.45.57.57,0,0,1-.52.1h0l.37.57h0A.77.77,0,0,0,53,72a.68.68,0,0,0,.15-.58h0l-.58-.4Z" style="fill:#e5dcdb"/><path d="M49.28,70.4a.37.37,0,0,1,0-.3.34.34,0,0,1-.15-.27h-.8a.54.54,0,0,0,.23.4.54.54,0,0,0-.07.45A.59.59,0,0,0,49,71l.6-.39A.39.39,0,0,1,49.28,70.4Z" style="fill:#43823d"/><path d="M50.46,71.21a.39.39,0,0,1-.35.06.3.3,0,0,1-.16-.2l-.41.63a.51.51,0,0,0,.25.3.58.58,0,0,0,.52-.09.56.56,0,0,0,.44.29v-.79A.38.38,0,0,1,50.46,71.21Z" style="fill:#43823d"/><path d="M49.37,69.54a.41.41,0,0,1-.06-.34.35.35,0,0,1,.25-.18L49,68.61a.49.49,0,0,0-.36.26.56.56,0,0,0,.08.52.58.58,0,0,0-.29.44h.8A.39.39,0,0,1,49.37,69.54Z" style="fill:#62af56"/><path d="M49.93,71a.35.35,0,0,1-.29-.07.37.37,0,0,1-.07-.35h0L49,71h0a.55.55,0,0,0,.11.52.52.52,0,0,0,.44.11s0,.06,0,.08l.41-.63S49.94,71,49.93,71Z" style="fill:#62af56"/><path d="M49.56,69a.36.36,0,0,1,.08-.3.37.37,0,0,1,.34-.06h0l-.38-.6h0a.56.56,0,0,0-.51.1.49.49,0,0,0-.12.44h0l.61.41Z" style="fill:#43823d"/><path d="M50.19,68.37a.31.31,0,0,1,.3,0,.36.36,0,0,1,.26-.16v-.79a.53.53,0,0,0-.4.23.51.51,0,0,0-.45-.08.56.56,0,0,0-.3.43l.38.6A.4.4,0,0,1,50.19,68.37Z" style="fill:#62af56"/><path d="M51.71,67.67a.58.58,0,0,0-.52.09.56.56,0,0,0-.44-.29v.79a.35.35,0,0,1,.29.2.39.39,0,0,1,.35-.06.33.33,0,0,1,.16.2L52,68A.47.47,0,0,0,51.71,67.67Z" style="fill:#43823d"/><path d="M51.31,71.3a.37.37,0,0,1-.3,0,.36.36,0,0,1-.26.16v.79a.53.53,0,0,0,.4-.23.51.51,0,0,0,.45.08.56.56,0,0,0,.3-.43l-.39-.6A.36.36,0,0,1,51.31,71.3Z" style="fill:#62af56"/><path d="M52.22,69.27a.45.45,0,0,0,.1.56h.8a.53.53,0,0,0-.24-.39A.52.52,0,0,0,53,69a.59.59,0,0,0-.43-.31l-.6.39A.39.39,0,0,1,52.22,69.27Z" style="fill:#43823d"/><path d="M51.57,68.65a.35.35,0,0,1,.29.07.4.4,0,0,1,.07.35h0l.6-.39h0a.55.55,0,0,0-.11-.52.52.52,0,0,0-.44-.11L52,68l-.4.63S51.56,68.63,51.57,68.65Z" style="fill:#62af56"/><path d="M51.94,70.65a.36.36,0,0,1-.08.3.38.38,0,0,1-.34.06h0l.39.6h0a.57.57,0,0,0,.52-.1.54.54,0,0,0,.12-.45h0l-.6-.41Z" style="fill:#43823d"/><path d="M52.13,70.13a.37.37,0,0,1,0,.34.31.31,0,0,1-.24.18l.6.41a.49.49,0,0,0,.37-.26.54.54,0,0,0-.09-.52.58.58,0,0,0,.3-.45h-.8A.39.39,0,0,1,52.13,70.13Z" style="fill:#62af56"/><path d="M31.82,37.24a3.27,3.27,0,1,1-3.27,3.27A3.27,3.27,0,0,1,31.82,37.24Z" style="fill:#fff;fill-rule:evenodd"/><path d="M31.82,36.89a3.62,3.62,0,0,1,3.62,3.62,3.58,3.58,0,0,1-1.06,2.56,3.62,3.62,0,1,1-2.56-6.18Zm2.07,1.56a2.93,2.93,0,0,0-5,2.06,2.88,2.88,0,0,0,.86,2.06,2.91,2.91,0,0,0,2.06.86,2.92,2.92,0,0,0,2.07-5Z" style="fill:#3a2018;fill-rule:evenodd"/><path d="M32.64,40.87a.26.26,0,1,1-.43-.29.42.42,0,0,0,0-.45.37.37,0,0,0-.38-.15c-.17.05-.35.23-.44.62a1,1,0,0,0,.13.86,1.07,1.07,0,0,0,.42.31,1.35,1.35,0,0,0,.56.09,1.08,1.08,0,0,0,.85-.47,1.67,1.67,0,0,0,.06-1.94,1.91,1.91,0,0,0-.53-.53,1.89,1.89,0,0,0-.71-.28,1.81,1.81,0,0,0-1.89.88A2.31,2.31,0,0,0,30,41.3a2.47,2.47,0,0,0,1,1.54h0a2.38,2.38,0,0,0,1.82.28A2.66,2.66,0,0,0,34.49,42l0,0a.27.27,0,0,1,.37,0,.26.26,0,0,1,0,.35,3.19,3.19,0,0,1-2,1.31,2.91,2.91,0,0,1-2.21-.34l0,0a3,3,0,0,1-1.24-1.87,2.78,2.78,0,0,1,.42-2.16,2.32,2.32,0,0,1,2.43-1.12,2.62,2.62,0,0,1,.9.36,2.71,2.71,0,0,1,.68.67,2.2,2.2,0,0,1-.07,2.53,1.6,1.6,0,0,1-1.25.7,1.71,1.71,0,0,1-.78-.13,1.51,1.51,0,0,1-.64-.47,1.45,1.45,0,0,1-.23-1.3,1.23,1.23,0,0,1,.82-1,.86.86,0,0,1,.55,0,.8.8,0,0,1,.4.35A.9.9,0,0,1,32.64,40.87Z" style="fill:#3a2018;fill-rule:evenodd"/><path d="M47.49,37.24a3.27,3.27,0,1,1-3.26,3.27A3.27,3.27,0,0,1,47.49,37.24Z" style="fill:#fff;fill-rule:evenodd"/><path d="M47.49,36.89a3.62,3.62,0,0,1,3.62,3.62,3.58,3.58,0,0,1-1.06,2.56,3.61,3.61,0,0,1-5.11,0,3.62,3.62,0,0,1,2.55-6.18Zm2.07,1.56a2.91,2.91,0,0,0-4.13,0,2.93,2.93,0,0,0,0,4.13,2.93,2.93,0,0,0,4.13,0,2.93,2.93,0,0,0,0-4.13Z" style="fill:#3a2018;fill-rule:evenodd"/><path d="M48.31,40.87a.26.26,0,1,1-.43-.29.4.4,0,0,0,0-.45.29.29,0,0,0-.16-.13.32.32,0,0,0-.22,0c-.17.05-.35.23-.44.62a1,1,0,0,0,.13.86,1.07,1.07,0,0,0,.42.31,1.35,1.35,0,0,0,.56.09,1.08,1.08,0,0,0,.85-.47,1.67,1.67,0,0,0,.06-1.94,1.87,1.87,0,0,0-1.23-.81,1.81,1.81,0,0,0-1.9.88,2.35,2.35,0,0,0-.34,1.78,2.41,2.41,0,0,0,1,1.53l0,0a2.37,2.37,0,0,0,1.8.27A2.66,2.66,0,0,0,50.16,42l0,0a.27.27,0,0,1,.37,0,.25.25,0,0,1,0,.35,3.16,3.16,0,0,1-2,1.31,2.89,2.89,0,0,1-2.22-.35h0a3,3,0,0,1-1.26-1.88,2.87,2.87,0,0,1,.42-2.16A2.33,2.33,0,0,1,48,38.12a2.62,2.62,0,0,1,.9.36,2.55,2.55,0,0,1,.68.67,2.18,2.18,0,0,1-.07,2.53,1.59,1.59,0,0,1-1.25.7,1.74,1.74,0,0,1-.78-.13,1.57,1.57,0,0,1-.64-.47,1.48,1.48,0,0,1-.23-1.3,1.23,1.23,0,0,1,.83-1,.83.83,0,0,1,.54,0,.87.87,0,0,1,.41.35A.92.92,0,0,1,48.31,40.87Z" style="fill:#3a2018;fill-rule:evenodd"/><path d="M37.46,42.39h4.47c.76,0,1,0,.78,1.37-.74,4.52-5.42,4.17-6.21-.08C36.25,42.37,36.65,42.39,37.46,42.39Z" style="fill:#3a2018;fill-rule:evenodd"/><path d="M41.83,45.24a2.52,2.52,0,0,1-4.32,0A2.51,2.51,0,0,1,41.83,45.24Z" style="fill:#cb4f41;fill-rule:evenodd"/><path d="M27,38.16a.35.35,0,1,1-.06-.7,16.07,16.07,0,0,0,7.89-3.15.35.35,0,1,1,.44.54A17,17,0,0,1,27,38.16Z" style="fill:#3a2018;fill-rule:evenodd"/><path d="M51.94,37.46a.36.36,0,0,1,.32.38.36.36,0,0,1-.38.32,16.93,16.93,0,0,1-8.27-3.31.35.35,0,0,1,.44-.54A16.07,16.07,0,0,0,51.94,37.46Z" style="fill:#3a2018;fill-rule:evenodd"/></g></g></svg>