<svg xmlns="http://www.w3.org/2000/svg" viewBox="0 0 78.88 78.88"><title>marketingSales20ZoeKobayashiSVG</title><g id="Layer_2" data-name="Layer 2"><g id="Layer_2-2" data-name="Layer 2"><rect width="78.88" height="78.88" style="fill:#857095"/><path d="M30.2,46.33c-.31-.25-7-4-7-4,.39,2.33,1.68,3.29,1.11,4.88a5.63,5.63,0,0,1-2,2.48,4.12,4.12,0,0,1-2,.87,6.2,6.2,0,0,1-.83-.07,6.18,6.18,0,0,0,3.16.42,3.34,3.34,0,0,0,1.94-.59,3.22,3.22,0,0,0-.4,2.91c1.71,3.74-.57,5-.57,5a6.31,6.31,0,0,0,3.17-1.31.31.31,0,0,1,0,.09,2.61,2.61,0,0,0,1.87,2.08s-.85-.15-.69-1.89c0-.46.49-.65,1.05-1,.21,1.68.92,3.39-.54,4.09,0,0,2.46-.53,2.91-2.1a5.21,5.21,0,0,0,.17-.82c0,.15.09.28.12.44a6,6,0,0,1-1.07,3.95s5.12-.59,5.16-2.77A11.13,11.13,0,0,1,36,56.83c.16-.5.47-3,.47-3S30.52,46.58,30.2,46.33Z" style="fill:#6d3c41"/><path d="M50.21,46.33c.31-.25,6-4,6-4-.39,2.33-.68,3.29-.12,4.88a5.7,5.7,0,0,0,2,2.48,4.11,4.11,0,0,0,2,.87,6,6,0,0,0,.82-.07,6.15,6.15,0,0,1-3.15.42,3.35,3.35,0,0,1-2-.59,3.22,3.22,0,0,1,.4,2.91c-1.71,3.74.57,5,.57,5a6.31,6.31,0,0,1-3.17-1.31.31.31,0,0,0,0,.09,2.61,2.61,0,0,1-1.87,2.08s.86-.15.69-1.89c0-.46-.49-.65-1-1-.21,1.68-.92,3.39.54,4.09,0,0-2.46-.53-2.91-2.1a5.21,5.21,0,0,1-.17-.82c0,.15-.09.28-.12.44a6,6,0,0,0,1.07,3.95s-5.12-.59-5.16-2.77a11.13,11.13,0,0,0-.22-2.16c-.15-.5-.46-3-.46-3S49.9,46.58,50.21,46.33Z" style="fill:#6d3c41"/><path d="M40.5,70.44c2.89,0,6.12-1.8,9.33-7.33l-.27-.1c-.38-.17-.71-.32-1-.46l-.07,0a3.36,3.36,0,0,1-.64-.36l-.07-.09-.08-.1a20.49,20.49,0,0,1-1.32-3.56h0a4.9,4.9,0,0,1-.13-1c0-.48,0-1,0-1.41s0-.86,0-1.2v-.28c0-.24,0-.44,0-.59s0-.24,0-.24l.86-.75c.64-.57,1.55-1.4,2.34-2.18a9.46,9.46,0,0,0,1.75-2.09,1,1,0,0,0,0-.15l-.06,0c-.4.06-2.55.43-4.86.79-1.37.22-2.81.43-4,.58L41,50.05h0c-.34,0-.63.05-.84.05s-.56,0-.95-.05h0l-1.31-.17c-1.08-.13-2.36-.32-3.61-.51l-3.16-.51c-.21,0-.4-.06-.57-.1l-1.39-.24a1.54,1.54,0,0,0,.4.74,0,0,0,0,0,0,0,11.3,11.3,0,0,0,.74.86c.29.3.6.62.92.93,1,1,2.06,1.91,2.59,2.36l.31.27s0,.09,0,.24,0,.35,0,.59v.28c0,.1,0,.2,0,.3,0,.65,0,1.46-.06,2.31a4.9,4.9,0,0,1-.13,1A20.72,20.72,0,0,1,32.56,62a.86.86,0,0,1-.07.1l-.08.09a2.11,2.11,0,0,1-.24.18,6.6,6.6,0,0,1-.88.52l-.78.33C31.72,65.05,35.62,70.39,40.5,70.44Z" style="fill:#fbd2c5"/><path d="M46.42,58.41a4.81,4.81,0,0,1-.13-1c0-1.12-.06-2.19-.07-2.89a14.16,14.16,0,0,1-5.68,1.32,2.48,2.48,0,0,1-.39,0,2.3,2.3,0,0,1-.38,0,14.09,14.09,0,0,1-5.68-1.32c0,.7,0,1.77-.08,2.89a5.58,5.58,0,0,1-.12,1c1.81,1.51,4.26,3.07,5.88,3.07a1.79,1.79,0,0,0,.34,0h.08a1.9,1.9,0,0,0,.35,0C42.16,61.48,44.61,59.92,46.42,58.41Z" style="fill:#d29f97"/><path d="M56.22,36c.32-1.73.56-3,.64-3.31s.06-.25.1-.38S57,32,57,31.89s.1-.43.15-.64,0-.2.05-.3.09-.47.13-.71,0-.21,0-.31.05-.42.07-.64,0-.32.05-.47,0-.28,0-.41a14.9,14.9,0,0,0-2.68-9.59c-2.58-3.62-5.55-7.46-12-8H37.43c-6.46.53-9.43,4.37-12,8a14.83,14.83,0,0,0-2.67,9.59c0,.13,0,.27,0,.41a3.56,3.56,0,0,1,.05.47c0,.22,0,.43.08.64l0,.31c0,.24.09.48.13.71s0,.2.05.3.09.43.15.64.06.27.09.42.06.25.1.38.31,1.57.62,3.28c-1.72-.84-4.11.37-3.83,3.54s4.21,5.13,5.55,5.45a8.6,8.6,0,0,0,.33,1.23c1.17,3,2.59,3.84,5.09,6.25,2.72,2.61,6.74,5.06,8.73,5.05h.42c2,0,6-2.44,8.73-5.05,2.5-2.41,3.92-3.3,5.09-6.25A8.76,8.76,0,0,0,54.51,45c1.29-.29,5.29-2.21,5.59-5.46S58,35.11,56.22,36Z" style="fill:#fbd2c5"/><path d="M58.84,37.77A1.89,1.89,0,0,0,56,37.2a1.64,1.64,0,0,0-.48,1.8c.13.53.69.57.54,1.37a1.41,1.41,0,0,1-.8,1.15,1.73,1.73,0,0,0-.68.73,2,2,0,0,0-.1,1.11c.15.65,1.09.15,1.72-.13a12.81,12.81,0,0,0,2.07-1.65,3.58,3.58,0,0,0,.6-3.81" style="fill:#e9b7ac"/><path d="M21.5,37.77a1.89,1.89,0,0,1,2.87-.57,1.64,1.64,0,0,1,.48,1.8c-.13.53-.68.57-.54,1.37a1.42,1.42,0,0,0,.81,1.15,1.79,1.79,0,0,1,.68.73,2,2,0,0,1,.1,1.11c-.15.65-1.1.15-1.72-.13a12.88,12.88,0,0,1-2.08-1.65,3.6,3.6,0,0,1-.6-3.81" style="fill:#e9b7ac"/><path d="M27.26,64.37l-1.05.36c-.09,0-.18.06-.27.09l-2.56.86h0c-1.05.35-1.76.57-1.78.59-3.23,2-2.44,3-2.89,5h0v0a1.27,1.27,0,0,0,0,.15h0c-.21,1.09-.3,6.38-.3,6.38v1h4.43c.09-1,.23-2.53.37-3.34C23.73,72,26.93,71,27.26,64.37Z" style="fill:#fbd2c5"/><path d="M57.55,78.88h4.39c0-.34,0-.67,0-1,0,0-.1-6-.34-6.54-.46-2.1.36-3.06-2.88-5.08,0,0-.74-.24-1.8-.59h0l-2.39-.8-1-.35-.37-.14C53.42,71,56.61,72,57.18,75.54,57.32,76.35,57.46,77.85,57.55,78.88Z" style="fill:#fbd2c5"/><path d="M30.51,63.2l-.49.19H29.9c-.52.21-1.11.42-1.7.64l-.94.34C26.93,71,23.73,72,23.16,75.54c-.14.81-.28,2.31-.37,3.34h1.92l10.5-10.5A21.24,21.24,0,0,1,30.51,63.2Z" style="fill:#faa830"/><path d="M57.18,75.54a9.52,9.52,0,0,0-1.73-3.79l-7.13,7.13h9.23C57.46,77.85,57.32,76.35,57.18,75.54Z" style="fill:#faa830"/><path d="M53.24,66c-.07-.49-.12-1-.15-1.57l-.94-.33L51,63.63l0,0-1.24-.49c-3,5.22-6.08,7.15-8.84,7.32H40.5a9,9,0,0,1-5.29-2.06l-10.5,10.5H48.32l7.13-7.13A13.12,13.12,0,0,1,53.24,66Z" style="fill:#332e2b"/><path d="M62.63,24.85c-1.38-6.78-6.08-13.32-10.55-16.12C49,6.81,43.7,6.37,39.85,6.47c-3.85-.1-9.15.34-12.22,2.26-4.47,2.8-9.16,9.34-10.55,16.12s-1.32,16.68,3.53,21.67,8.86,5.73,8.86,5.73-9.09-5.09-4.85-19.06c.72-2.39,3.76-5.55,6.83-8.22,2.53.32,5,2.69,7.74,2.74h.27c3.18,0,5.88-3.13,8.8-2.74,3.07,2.67,6.11,5.83,6.83,8.22,4.23,14-4.85,19.06-4.85,19.06s4-.76,8.86-5.73S64,31.63,62.63,24.85Z" style="fill:#6d3c41"/><path d="M35.4,43.51c-.4-1.8,1.28-3.52,2.54-2.67a4.77,4.77,0,0,0,5,0c1.26-.85,2.94.87,2.53,2.67-.36,1.58-3.26,2.37-5,2.37S35.76,45.09,35.4,43.51Z" style="fill:#3a2018;fill-rule:evenodd"/><path d="M40.43,45.53c1.46,0,2.65-.44,2.65-1s-1.19-1-2.65-1-2.65.44-2.65,1S39,45.53,40.43,45.53Z" style="fill:#cb4f41;fill-rule:evenodd"/><path d="M31.07,39.5a2.2,2.2,0,0,0,4-1.73,2.3,2.3,0,0,0-2.29-1.15A2,2,0,0,0,31.07,39.5Z" style="fill:#3a2018;fill-rule:evenodd"/><path d="M34.32,37.47a.73.73,0,1,0,.41.94A.74.74,0,0,0,34.32,37.47Z" style="fill:#fff;fill-rule:evenodd"/><path d="M38,39.65a.27.27,0,0,1-.37.06.28.28,0,0,1-.06-.37,3.1,3.1,0,0,1,.8-.72,4.56,4.56,0,0,1,1.06-.5.26.26,0,0,1,.33.17.26.26,0,0,1-.17.33,3.93,3.93,0,0,0-.94.44A2.61,2.61,0,0,0,38,39.65Z" style="fill:#dc98ab;fill-rule:evenodd"/><path d="M42.64,39.73a.26.26,0,0,1-.4-.34l0,0a3.83,3.83,0,0,1,1.44-1.08.28.28,0,0,1,.35.14.27.27,0,0,1-.14.34,3.36,3.36,0,0,0-1.25.94Z" style="fill:#dc98ab;fill-rule:evenodd"/><path d="M40.36,39.79a.26.26,0,1,1-.44-.28,3.31,3.31,0,0,1,.72-.76,2.88,2.88,0,0,1,.9-.48.26.26,0,0,1,.33.16.28.28,0,0,1-.17.34,2.21,2.21,0,0,0-.74.4A2.62,2.62,0,0,0,40.36,39.79Z" style="fill:#dc98ab;fill-rule:evenodd"/><path d="M45.79,39.5a2.21,2.21,0,0,0,4.06-1.73,2.3,2.3,0,0,0-2.29-1.15A2,2,0,0,0,45.79,39.5Z" style="fill:#3a2018;fill-rule:evenodd"/><path d="M49,37.47a.72.72,0,0,0-.52,1.35A.72.72,0,1,0,49,37.47Z" style="fill:#fff;fill-rule:evenodd"/><path d="M29.47,36.31a.34.34,0,0,1-.4-.28.35.35,0,0,1,.28-.41S35,34.68,35.28,34a.33.33,0,0,1,.45-.18.35.35,0,0,1,.19.46C35.48,35.31,29.49,36.31,29.47,36.31Z" style="fill:#3a2018;fill-rule:evenodd"/><path d="M50.8,35.62a.36.36,0,0,1,.29.41.34.34,0,0,1-.4.28s-6-1-6.45-2a.35.35,0,0,1,.19-.46.33.33,0,0,1,.45.18C45.17,34.68,50.79,35.62,50.8,35.62Z" style="fill:#3a2018;fill-rule:evenodd"/></g></g></svg>