<svg xmlns="http://www.w3.org/2000/svg" viewBox="0 0 78.88 78.88"><title>marketingSales13EmmaYamaguchiSVG</title><g id="Layer_2" data-name="Layer 2"><g id="Layer_2-2" data-name="Layer 2"><rect width="78.88" height="78.88" style="fill:#ce4b27"/><path d="M56.08,57.52a8.39,8.39,0,0,0,4.06.47.88.88,0,0,1,0-.16c-9-1.19-2-17.48-8-21.88L46.17,46.79c.3,2.81-.26,5.69-.34,8.39l-3.76-2.27-7.64,3.94c.22-3.16-.67-6.65-.31-10.06L28.19,36c-5.88,4.34.74,20.23-7.65,21.82a1.93,1.93,0,0,1,0,.24,7.79,7.79,0,0,0,3.68-.49c-6.15,2.58-4.11,9.17-2.5,14.32-.57-3.94,1.55-5.71,4-7.4L40,73.09,53.64,63.8c2.81,1.91,5.59,3.61,4.94,8C60.19,66.69,62.23,60.1,56.08,57.52Z" style="fill:#f7f8f9"/><path d="M40.5,70.44c2.89,0,6.12-1.8,9.33-7.33l-.27-.1c-.38-.17-.71-.32-1-.46l-.07,0a3.36,3.36,0,0,1-.64-.36l-.07-.09-.08-.1a20.49,20.49,0,0,1-1.32-3.56h0a4.9,4.9,0,0,1-.13-1c0-.48,0-1,0-1.41s0-.86,0-1.2v-.28c0-.24,0-.44,0-.59s0-.24,0-.24l.86-.75c.64-.57,1.55-1.4,2.34-2.18a9.46,9.46,0,0,0,1.75-2.09,1,1,0,0,0,0-.15l-.06,0c-.4.06-2.55.43-4.86.79-1.37.22-2.81.43-4,.58L41,50.05h0c-.34,0-.63.05-.84.05s-.56,0-.95-.05h0l-1.31-.17c-1.08-.13-2.36-.32-3.61-.51l-3.16-.51c-.21,0-.4-.06-.57-.1l-1.39-.24a1.54,1.54,0,0,0,.4.74,0,0,0,0,0,0,0,11.3,11.3,0,0,0,.74.86c.29.3.6.62.92.93,1,1,2.06,1.91,2.59,2.36l.31.27s0,.09,0,.24,0,.35,0,.59v.28c0,.1,0,.2,0,.3,0,.65,0,1.46-.06,2.31a4.9,4.9,0,0,1-.13,1A21.07,21.07,0,0,1,32.56,62a.86.86,0,0,1-.07.1l-.08.09a2.11,2.11,0,0,1-.24.18,6.6,6.6,0,0,1-.88.52l-.78.33C31.72,65.05,35.62,70.39,40.5,70.44Z" style="fill:#fbd2c5"/><path d="M46.42,58.41a4.81,4.81,0,0,1-.13-1c0-1.12-.06-2.19-.07-2.89a14.16,14.16,0,0,1-5.68,1.32,2.48,2.48,0,0,1-.39,0,2.3,2.3,0,0,1-.38,0,14.09,14.09,0,0,1-5.68-1.32c0,.7,0,1.77-.08,2.89a5.58,5.58,0,0,1-.12,1c1.81,1.51,4.26,3.07,5.88,3.07a1.79,1.79,0,0,0,.34,0h.08a1.9,1.9,0,0,0,.35,0C42.16,61.48,44.61,59.92,46.42,58.41Z" style="fill:#d29f97"/><path d="M56.22,36c.32-1.73.56-3,.64-3.31s.06-.25.1-.38S57,32,57,31.89s.1-.43.15-.64,0-.2.05-.3.09-.47.13-.71,0-.21,0-.31.05-.42.07-.64,0-.32.05-.47,0-.28,0-.41a14.9,14.9,0,0,0-2.68-9.59c-2.58-3.62-5.55-7.46-12-8H37.43c-6.46.53-9.43,4.37-12,8a14.83,14.83,0,0,0-2.67,9.59c0,.13,0,.27,0,.41a3.56,3.56,0,0,1,.05.47c0,.22,0,.43.08.64l0,.31c0,.24.09.48.13.71s0,.2.05.3.09.43.15.64.06.27.09.42.06.25.1.38.31,1.57.62,3.28c-1.72-.84-4.11.37-3.83,3.54s4.21,5.13,5.55,5.45a8.6,8.6,0,0,0,.33,1.23c1.17,3,2.59,3.84,5.09,6.25,2.72,2.61,6.74,5.06,8.73,5.05h.42c2,0,6-2.44,8.73-5.05,2.5-2.41,3.92-3.3,5.09-6.25A8.76,8.76,0,0,0,54.51,45c1.29-.29,5.29-2.21,5.59-5.46S58,35.11,56.22,36Z" style="fill:#fbd2c5"/><path d="M58.84,37.77A1.89,1.89,0,0,0,56,37.2a1.64,1.64,0,0,0-.48,1.8c.13.53.69.57.54,1.37a1.41,1.41,0,0,1-.8,1.15,1.73,1.73,0,0,0-.68.73,2,2,0,0,0-.1,1.11c.15.65,1.09.15,1.72-.13a12.81,12.81,0,0,0,2.07-1.65,3.58,3.58,0,0,0,.6-3.81" style="fill:#e9b7ac"/><path d="M21.5,37.77a1.89,1.89,0,0,1,2.87-.57,1.64,1.64,0,0,1,.48,1.8c-.13.53-.68.57-.54,1.37a1.42,1.42,0,0,0,.81,1.15,1.79,1.79,0,0,1,.68.73,2,2,0,0,1,.1,1.11c-.15.65-1.1.15-1.72-.13a12.88,12.88,0,0,1-2.08-1.65,3.6,3.6,0,0,1-.6-3.81" style="fill:#e9b7ac"/><path d="M27.26,64.37l-1.05.36c-.09,0-.18.06-.27.09l-2.56.86h0c-1.05.35-1.76.57-1.78.59-3.23,2-2.44,3-2.89,5h0v0a1.27,1.27,0,0,0,0,.15h0c-.21,1.09-.3,6.38-.3,6.38v1h4.43c.09-1,.23-2.53.37-3.34C23.73,72,26.93,71,27.26,64.37Z" style="fill:#fbd2c5"/><path d="M57.55,78.88h4.39c0-.34,0-.67,0-1,0,0-.1-6-.34-6.54-.46-2.1.36-3.06-2.88-5.08,0,0-.74-.24-1.8-.59h0l-2.39-.8-1-.35-.37-.14C53.42,71,56.61,72,57.18,75.54,57.32,76.35,57.46,77.85,57.55,78.88Z" style="fill:#fbd2c5"/><path d="M44.33,6.46l2.42,1.3A19.69,19.69,0,0,0,40.12,7a19.75,19.75,0,0,0-6.64.81l2.43-1.3s-16.35,0-15.07,21.75a20.39,20.39,0,0,0,2,8.44,7.57,7.57,0,0,0,1.08,1.74c1.21,1.31.82,3.22,1.19,3.22,0,0,.79,0,.75-3.76,0-.87-.07-2-.18-3.28l0-.13c-.14-.41-.89-3,1.85-3.68l.13-.05c2.85-1.67,7.49-5.38,12.53-5.38S49.8,29,52.64,30.71l.14.05c2.73.68,2,3.27,1.85,3.68a.28.28,0,0,0,0,.13c-.12,1.33-.17,2.41-.18,3.28,0,3.8.75,3.76.75,3.76.36,0,0-1.91,1.18-3.22a7.9,7.9,0,0,0,1.09-1.74,20.39,20.39,0,0,0,2-8.44C60.68,6.46,44.33,6.46,44.33,6.46Z" style="fill:#f7f8f9"/><path d="M30.51,63.2l-.49.19H29.9c-.52.21-1.11.42-1.7.64l-.94.34C26.93,71,23.73,72,23.16,75.54c-.14.81-.28,2.31-.37,3.34h1.92l10.5-10.5A21.24,21.24,0,0,1,30.51,63.2Z" style="fill:#215a66"/><path d="M40.5,70.44a9,9,0,0,1-5.29-2.06l-10.5,10.5h7.83L41,70.43Z" style="fill:#11383d"/><path d="M57.18,75.54a9.52,9.52,0,0,0-1.73-3.79l-7.13,7.13h9.23C57.46,77.85,57.32,76.35,57.18,75.54Z" style="fill:#215a66"/><path d="M53.09,64.38l-.94-.33L51,63.63l0,0-1.24-.49c-3,5.22-6.08,7.15-8.84,7.32l-8.45,8.45h7.77L53.24,66C53.17,65.46,53.12,65,53.09,64.38Z" style="fill:#215a66"/><path d="M53.24,66,40.31,78.88h8l7.13-7.13A13.12,13.12,0,0,1,53.24,66Z" style="fill:#11383d"/><path d="M48.11,41.48a3.16,3.16,0,0,1-1.39-5L52.29,38A3.16,3.16,0,0,1,48.11,41.48Z" style="fill:#3a2018;fill-rule:evenodd"/><path d="M53.08,37.61a.48.48,0,1,1-.1,1,17.19,17.19,0,0,1-4.49-1.08,12.24,12.24,0,0,1-3.58-2.15.49.49,0,0,1,0-.68.48.48,0,0,1,.68,0,11.24,11.24,0,0,0,3.3,2A16,16,0,0,0,53.08,37.61Z" style="fill:#3a2018;fill-rule:evenodd"/><path d="M49.73,37.59a1.2,1.2,0,1,1-1.32,1.08A1.19,1.19,0,0,1,49.73,37.59Z" style="fill:#fff;fill-rule:evenodd"/><path d="M48,39.9A.56.56,0,1,1,47.93,41a.55.55,0,0,1-.5-.61A.56.56,0,0,1,48,39.9Z" style="fill:#fff;fill-rule:evenodd"/><path d="M32.19,41.48a3.16,3.16,0,0,0,1.38-5L28,38A3.17,3.17,0,0,0,32.19,41.48Z" style="fill:#3a2018;fill-rule:evenodd"/><path d="M27.31,38.56a.48.48,0,1,1-.1-1,16,16,0,0,0,4.24-1,11.24,11.24,0,0,0,3.3-2,.48.48,0,0,1,.68,0,.49.49,0,0,1,0,.68,12.24,12.24,0,0,1-3.58,2.15A17.19,17.19,0,0,1,27.31,38.56Z" style="fill:#3a2018;fill-rule:evenodd"/><path d="M32.16,37.59a1.2,1.2,0,1,1-1.32,1.08A1.2,1.2,0,0,1,32.16,37.59Z" style="fill:#fff;fill-rule:evenodd"/><path d="M30.46,39.9A.56.56,0,1,1,30.35,41a.56.56,0,0,1-.5-.61A.57.57,0,0,1,30.46,39.9Z" style="fill:#fff;fill-rule:evenodd"/><path d="M34.41,42.8a.33.33,0,0,1,0-.45.32.32,0,0,1,.45,0s1,1.27,1.62,1.28c.19,0,.39-.26.58-.53.32-.43.64-.87,1.24-.84s.81.45,1.06.88.36.59.63.6.6-.38.85-.74.62-.85,1.08-.75.59.4.84.74.46.64.71.62A2.13,2.13,0,0,0,44.7,43l.49-.39a.32.32,0,0,1,.38.52,4.73,4.73,0,0,0-.45.36,2.69,2.69,0,0,1-1.57.81c-.6,0-.95-.44-1.27-.88-.17-.24-.34-.47-.46-.5s-.22.23-.42.5c-.35.49-.76,1-1.41,1s-.87-.48-1.13-.92c-.17-.27-.33-.55-.56-.56s-.47.28-.68.57-.58.8-1.11.79C35.6,44.3,34.41,42.8,34.41,42.8Z" style="fill:#3a2018;fill-rule:evenodd"/><path d="M30.17,43.58c3.56,0,3.52-2.22,0-2.22S26.61,43.58,30.17,43.58Z" style="fill:#dc98ab;fill-rule:evenodd"/><path d="M50.21,43.58c-3.56,0-3.52-2.22,0-2.22S53.78,43.58,50.21,43.58Z" style="fill:#dc98ab;fill-rule:evenodd"/></g></g></svg>