<svg xmlns="http://www.w3.org/2000/svg" viewBox="0 0 78.88 78.88"><title>marketingSales15AbigalNishikawaSVG</title><g id="Layer_2" data-name="Layer 2"><g id="Layer_2-2" data-name="Layer 2"><rect width="78.88" height="78.88" style="fill:#faa830"/><ellipse cx="40.49" cy="42.29" rx="18.34" ry="16.52" style="fill:#7b3944"/><path d="M61.59,77.89s-.1-6-.33-6.54c-.47-2.1.36-3.06-2.89-5.08,0,0-.74-.24-1.8-.59h0l-2.4-.8c-.34-.12-.67-.24-1-.35-.87-.31-1.72-.62-2.51-.92L49.11,63c-.38-.17-.71-.32-1-.46a2.21,2.21,0,0,1-.59-.38s0-.05-.08-.09a.86.86,0,0,1-.07-.1,20.23,20.23,0,0,1-1.33-3.56h0a5.69,5.69,0,0,1-.12-1c0-.48,0-1,0-1.41s0-.86,0-1.2v-.28c0-.24,0-.44,0-.59s0-.24,0-.24l.86-.75c.64-.57,1.55-1.4,2.33-2.18a9.18,9.18,0,0,0,1.75-2.09,1.31,1.31,0,0,0,0-.15l-.07,0c-.39.06-2.54.43-4.85.79-1.37.22-2.81.43-4,.58l-1.24.14h0c-.33,0-.62.05-.83.05s-.56,0-1-.05h0l-1.31-.17c-1.07-.13-2.36-.32-3.61-.51l-3.15-.51-.58-.1-1.39-.24a1.54,1.54,0,0,0,.4.74s0,0,0,0a9.12,9.12,0,0,0,.73.86c.29.3.6.62.93.93,1,1,2.06,1.91,2.58,2.36l.31.27s0,.09,0,.24,0,.35,0,.59v.28c0,.1,0,.2,0,.3,0,.65,0,1.46-.07,2.31a5.69,5.69,0,0,1-.12,1A22,22,0,0,1,32.23,62l-.08.1a.76.76,0,0,0-.07.09l-.25.18a9.31,9.31,0,0,1-1,.52c-.37.16-.8.34-1.27.52-1.11.44-2.44.91-3.7,1.34a2.67,2.67,0,0,0-.26.09l-2.56.86h0c-1.05.35-1.76.57-1.79.59-3.22,2-2.43,3-2.88,5h0v0a.3.3,0,0,0,0,.15h0c-.21,1.09-.3,6.38-.3,6.38,0,.32,0,.65,0,1H61.6C61.6,78.54,61.6,78.21,61.59,77.89Z" style="fill:#fbd2c5"/><path d="M35.64,64.44c.24,1,1,1.49,1,2.93a3.27,3.27,0,0,1,2,1.4v.54H41v-.49a3.45,3.45,0,0,1,2.11-1.45c0-1.88.86-2.2,1-3.66C44.73,57.77,34.15,58,35.64,64.44Zm5,2.6a.94.94,0,0,1-1.45-.35l.59-1.64S41.63,66.41,40.64,67Zm-2.48-1.63a1.05,1.05,0,1,1,1.12-1A1.09,1.09,0,0,1,38.16,65.41Zm3.45-.21a1.05,1.05,0,1,1,1.13-1A1.09,1.09,0,0,1,41.61,65.2Z" style="fill:#dcb4b0"/><path d="M46.08,58.41a5.58,5.58,0,0,1-.12-1c0-1.12-.07-2.19-.08-2.89a14.09,14.09,0,0,1-5.68,1.32,2.3,2.3,0,0,1-.38,0,2.48,2.48,0,0,1-.39,0,14.16,14.16,0,0,1-5.68-1.32c0,.7,0,1.77-.07,2.89a4.81,4.81,0,0,1-.13,1c1.81,1.51,4.26,3.07,5.88,3.07a1.9,1.9,0,0,0,.35,0h.08a1.87,1.87,0,0,0,.34,0C41.82,61.48,44.27,59.92,46.08,58.41Z" style="fill:#d29f97"/><path d="M55.89,36c.31-1.73.56-3,.63-3.31s.07-.25.1-.38.07-.28.09-.42.1-.43.15-.64,0-.2,0-.3.09-.47.12-.71,0-.21,0-.31,0-.42.08-.64a3.56,3.56,0,0,1,.05-.47c0-.14,0-.28,0-.41a14.89,14.89,0,0,0-2.67-9.59c-2.58-3.62-5.56-7.46-12-8H37.09c-6.45.53-9.42,4.37-12,8a15,15,0,0,0-2.67,9.59c0,.13,0,.27,0,.41s0,.31,0,.47,0,.43.07.64,0,.21,0,.31.09.48.12.71,0,.2.05.3.09.43.15.64.07.27.09.42.06.25.1.38.32,1.57.63,3.28c-1.72-.84-4.11.37-3.83,3.54s4.2,5.13,5.55,5.45a10.82,10.82,0,0,0,.32,1.23c1.18,3,2.6,3.84,5.1,6.25,2.72,2.61,6.74,5.06,8.72,5.05H40c2,0,6-2.44,8.73-5.05,2.49-2.41,3.92-3.3,5.09-6.25A11.1,11.1,0,0,0,54.17,45c1.3-.29,5.3-2.21,5.6-5.46S57.62,35.11,55.89,36Z" style="fill:#fbd2c5"/><path d="M58.51,37.77a1.89,1.89,0,0,0-2.87-.57,1.64,1.64,0,0,0-.48,1.8c.13.53.68.57.54,1.37a1.42,1.42,0,0,1-.81,1.15,1.79,1.79,0,0,0-.68.73,2,2,0,0,0-.1,1.11c.15.65,1.1.15,1.72-.13a12.88,12.88,0,0,0,2.08-1.65,3.6,3.6,0,0,0,.6-3.81" style="fill:#e9b7ac"/><path d="M21.17,37.77A1.89,1.89,0,0,1,24,37.2a1.64,1.64,0,0,1,.48,1.8c-.13.53-.68.57-.54,1.37a1.41,1.41,0,0,0,.8,1.15,1.73,1.73,0,0,1,.68.73,2,2,0,0,1,.1,1.11c-.15.65-1.09.15-1.72-.13a12.81,12.81,0,0,1-2.07-1.65,3.6,3.6,0,0,1-.6-3.81" style="fill:#e9b7ac"/><path d="M48.74,7.16a28.12,28.12,0,0,0-8-1.89H40.6a28.28,28.28,0,0,0-8,1.89c-16.89,6.18-11.16,27-6.83,37.17a25.26,25.26,0,0,1-.75-6.25c0-4.31,4.19-9.66,4.19-9.66a20.26,20.26,0,0,0-2.31,7,.45.45,0,0,0,0,.11,1.07,1.07,0,0,0,2.1.33,12,12,0,0,1,.56-1.76,6.33,6.33,0,0,1,3.79-3.91h0a5.59,5.59,0,0,0,1,5.2,12.17,12.17,0,0,1,.21-1.81,14,14,0,0,1,5.47-8.84,1,1,0,0,1,1.21,0,14,14,0,0,1,5.46,8.84A12.17,12.17,0,0,1,47,35.44a5.59,5.59,0,0,0,1-5.2h0a6.33,6.33,0,0,1,3.79,3.91,13.34,13.34,0,0,1,.56,1.76,1.07,1.07,0,0,0,2.1-.33.37.37,0,0,1,0-.11,20.26,20.26,0,0,0-2.31-7s4.18,5.35,4.18,9.66a25.81,25.81,0,0,1-.74,6.25C59.91,34.12,65.63,13.34,48.74,7.16Z" style="fill:#7b3944"/><path d="M60.7,69.18c0-3.07-5-5.71-12.32-7l-1-.15c1.21,1.71,4.12,6.65-1.45,8.07a30.93,30.93,0,0,1-6.27.56,31,31,0,0,1-6.28-.56c-5.78-1.47-2.42-6.74-1.32-8.25l-.64.08c-8.2,1.09-14,3.9-14,7.2,0,2.26,2.75,4.29,7.12,5.7,0,1.13,0,2.42,0,3.94H54.83c0-1.71,0-3.15,0-4.37C58.46,73.07,60.7,71.22,60.7,69.18Z" style="fill:#fff"/><path d="M36.13,45.66a.34.34,0,0,1-.05-.47.33.33,0,0,1,.47,0,7.49,7.49,0,0,0,1.68,1.07,11.19,11.19,0,0,0,1.83.62,8.75,8.75,0,0,0,1.6-.66,9.33,9.33,0,0,0,1.53-1,.33.33,0,0,1,.43.51A9.74,9.74,0,0,1,42,46.76a10.09,10.09,0,0,1-1.8.74.28.28,0,0,1-.18,0,12.2,12.2,0,0,1-2-.68A8.39,8.39,0,0,1,36.13,45.66Z" style="fill:#3a2018;fill-rule:evenodd"/><path d="M28.45,40.53a.67.67,0,0,1-.62-.72.66.66,0,0,1,.71-.62,23.92,23.92,0,0,0,6.6-.51A.67.67,0,1,1,35.48,40,25.43,25.43,0,0,1,28.45,40.53Z" style="fill:#3a2018;fill-rule:evenodd"/><path d="M51.15,39.76a.66.66,0,0,1,.65.68.67.67,0,0,1-.69.65,25.45,25.45,0,0,1-6.94-1.23.67.67,0,1,1,.46-1.25A24.23,24.23,0,0,0,51.15,39.76Z" style="fill:#3a2018;fill-rule:evenodd"/><path d="M35.85,35.09a.33.33,0,0,1,.08.47.32.32,0,0,1-.46.08,5.76,5.76,0,0,0-5.31-.38.34.34,0,0,1-.44-.18.35.35,0,0,1,.19-.44A6.44,6.44,0,0,1,35.85,35.09Z" style="fill:#3a2018;fill-rule:evenodd"/><path d="M43.54,35.67a.34.34,0,0,1-.45-.16.33.33,0,0,1,.16-.44l.1-.06a6.18,6.18,0,0,1,5.59,0,.33.33,0,0,1-.25.62,5.54,5.54,0,0,0-5,0Z" style="fill:#3a2018;fill-rule:evenodd"/><path d="M31,41.94c3.83.12,3.75,2.66-.08,2.54S27.17,41.83,31,41.94Z" style="fill:#dc98ab;fill-rule:evenodd"/><path d="M48.34,41.94c3.83.12,3.75,2.66-.08,2.54S44.52,41.83,48.34,41.94Z" style="fill:#dc98ab;fill-rule:evenodd"/></g></g></svg>