<svg xmlns="http://www.w3.org/2000/svg" viewBox="0 0 78.88 78.88"><title>marketingSales16GraceSugimotoSVG</title><g id="Layer_2" data-name="Layer 2"><g id="Layer_2-2" data-name="Layer 2"><rect width="78.88" height="78.88" style="fill:#7a404c"/><path d="M62.63,77.86s-.11-6.2-.35-6.74c-.48-2.16.37-3.15-3-5.24l-1.86-.6h0L55,64.44l-1.06-.36c-1.5-.52-3-1.09-4.14-1.55a6.89,6.89,0,0,1-1.6-.86.57.57,0,0,0-.08-.09L48,61.47a21.49,21.49,0,0,1-1.36-3.66v0a5.09,5.09,0,0,1-.13-1c0-.51,0-1,0-1.46s0-.89,0-1.23v-.3c0-.24,0-.45,0-.6s0-.25,0-.25l.88-.77c.66-.59,1.6-1.44,2.41-2.25a9.9,9.9,0,0,0,1.8-2.15,1,1,0,0,0,0-.15h-.06c-.41.06-2.62.45-5,.82-1.42.22-2.9.44-4.11.59-.47.07-.91.11-1.28.15h0a7.42,7.42,0,0,1-.86,0c-.24,0-.58,0-1,0h0c-.39-.06-.85-.11-1.35-.17-1.11-.14-2.43-.33-3.72-.53s-2.34-.37-3.25-.53l-.59-.1-1.43-.24a1.66,1.66,0,0,0,.41.76,0,0,0,0,0,0,0c.2.26.45.55.76.89l.95.95c1,1,2.13,2,2.67,2.43l.32.28a2.25,2.25,0,0,1,0,.25c0,.15,0,.36,0,.6v.3c0,.1,0,.2,0,.31,0,.66,0,1.5-.07,2.38a5.91,5.91,0,0,1-.12,1,21.31,21.31,0,0,1-1.37,3.68l-.07.11a.3.3,0,0,0-.08.09,5.89,5.89,0,0,1-1.28.72c-1.27.56-3.26,1.28-5.11,1.91-.09,0-.18.07-.27.09-1,.34-1.9.65-2.64.89h0l-1.84.6c-3.32,2.07-2.51,3.07-3,5.2h0v0a.39.39,0,0,0,0,.15v0c-.22,1.12-.31,6.57-.31,6.57,0,.33,0,.67,0,1h44.9C62.64,78.53,62.63,78.19,62.63,77.86Z" style="fill:#fbd2c5"/><path d="M46.65,57.8a5.28,5.28,0,0,1-.13-1c0-1.16-.07-2.27-.08-3a14.48,14.48,0,0,1-5.85,1.37,2.61,2.61,0,0,1-.4,0,2.42,2.42,0,0,1-.39,0A14.44,14.44,0,0,1,34,53.78c0,.72,0,1.83-.08,3a5.28,5.28,0,0,1-.13,1C35.6,59.35,38.13,61,39.8,61a1.94,1.94,0,0,0,.35,0h.09a2.06,2.06,0,0,0,.35,0C42.26,61,44.78,59.35,46.65,57.8Z" style="fill:#d29f97"/><path d="M56.75,34.71c.32-1.78.57-3.15.65-3.42,0-.12.07-.25.1-.38s.07-.3.09-.44.11-.44.16-.66,0-.2,0-.3c0-.25.09-.49.13-.74,0-.1,0-.22,0-.32s.05-.44.08-.65a3.69,3.69,0,0,1,.05-.49c0-.14,0-.29,0-.43A15.35,15.35,0,0,0,55.37,17C52.71,13.27,49.65,9.33,43,8.77H37.39C30.74,9.33,27.68,13.27,25,17a15.35,15.35,0,0,0-2.75,9.88c0,.14,0,.29,0,.43s0,.32.05.49,0,.43.08.65l0,.32c0,.25.09.49.13.74,0,.1,0,.2.05.3s.09.44.16.66.06.28.09.44.06.26.1.38c.08.27.33,1.62.65,3.39-1.78-.87-4.24.37-3.95,3.64S24,43.6,25.4,43.94a11.25,11.25,0,0,0,.33,1.26c1.21,3,2.68,4,5.25,6.44,2.81,2.69,7,5.21,9,5.2h.44c2.05,0,6.19-2.51,9-5.2,2.57-2.48,4-3.39,5.25-6.44A10.9,10.9,0,0,0,55,44c1.34-.3,5.46-2.28,5.76-5.63S58.53,33.79,56.75,34.71Z" style="fill:#fbd2c5"/><path d="M59.45,36.53a1.94,1.94,0,0,0-3-.58A1.67,1.67,0,0,0,56,37.8c.13.54.7.59.55,1.41a1.45,1.45,0,0,1-.83,1.18,1.89,1.89,0,0,0-.7.75,2.1,2.1,0,0,0-.1,1.15c.15.67,1.13.15,1.77-.14a12.58,12.58,0,0,0,2.14-1.7,3.7,3.7,0,0,0,.62-3.92" style="fill:#e9b7ac"/><path d="M21,36.53a1.94,1.94,0,0,1,3-.58,1.67,1.67,0,0,1,.49,1.85c-.13.54-.7.59-.55,1.41a1.47,1.47,0,0,0,.82,1.18,1.85,1.85,0,0,1,.71.75,2.19,2.19,0,0,1,.1,1.15c-.16.67-1.13.15-1.77-.14a12.2,12.2,0,0,1-2.14-1.7A3.7,3.7,0,0,1,21,36.53" style="fill:#e9b7ac"/><path d="M52.55,19.23c-1.57,2.78-1.13,5.91-6.47,8s-7.74,2.63-13.56,5.11c-13.2,5.62-6.42,18.64-6.42,18.64s-3.62-3.35-4.93-6.84-6.37-18.68,0-30.69c3.5-6.59,10-8.11,15.66-8.55s9.74,0,13.85,3.6c.89.78,3.46.95,6.28,2.85,6.3,4.24,5.79,10.49,6.06,14.48A28.82,28.82,0,0,1,61.39,38c-1.23,3.49-8.65,13.79-8.65,13.79S58.51,39.23,55.3,31c-1.88-4.78-5.23-4.51-5.38-6.37S52.55,19.23,52.55,19.23Z" style="fill:#fff"/><path d="M53.69,63.83c-1.06-.37-2.11-.76-3-1.11-10.27,10.66-20.64-.09-20.64-.09-.85.35-1.87.72-2.9,1.09a13.51,13.51,0,0,1-1.55,6.55H55.23A13.42,13.42,0,0,1,53.69,63.83Z" style="fill:#b44e6b"/><path d="M55.23,70.27H25.6c-1.07,2-2.36,3.17-2.71,5.28,0,0,0,.09,0,.14H58a.59.59,0,0,0,0-.14C57.59,73.44,56.3,72.25,55.23,70.27Z" style="fill:#5e2b38"/><path d="M33.47,35.48a3.45,3.45,0,1,1-4.3,3.34,3.4,3.4,0,0,1,.47-1.73Z" style="fill:#3a2018;fill-rule:evenodd"/><path d="M38.4,43.65a.34.34,0,0,1-.67,0,1,1,0,0,1,.15-.57,1,1,0,0,1,.77-.47,2.28,2.28,0,0,1,1,.1,4.66,4.66,0,0,1,1.9,1.17.33.33,0,1,1-.47.47,4.09,4.09,0,0,0-1.62-1,1.65,1.65,0,0,0-.7-.08.41.41,0,0,0-.29.15A.54.54,0,0,0,38.4,43.65Z" style="fill:#3a2018;fill-rule:evenodd"/><path d="M29.05,37.49a.34.34,0,0,1-.08-.67,10.63,10.63,0,0,0,5.32-2.4.34.34,0,1,1,.46.49A11.37,11.37,0,0,1,29.05,37.49Z" style="fill:#3a2018;fill-rule:evenodd"/><path d="M46.35,35.48a3.45,3.45,0,1,0,4.3,3.34,3.4,3.4,0,0,0-.47-1.73Z" style="fill:#3a2018;fill-rule:evenodd"/><path d="M48.56,37.26a1.24,1.24,0,0,0,.64,2.39,1.24,1.24,0,1,0-.64-2.39Z" style="fill:#fff;fill-rule:evenodd"/><path d="M50.89,36.87a.33.33,0,0,1,.32.35.35.35,0,0,1-.36.32,10.07,10.07,0,0,1-3.49-.87,8.39,8.39,0,0,1-2.75-2,.33.33,0,1,1,.49-.45,7.7,7.7,0,0,0,2.53,1.84A9.3,9.3,0,0,0,50.89,36.87Z" style="fill:#3a2018;fill-rule:evenodd"/><path d="M33.69,37.26a1.24,1.24,0,1,0,1.51.87A1.22,1.22,0,0,0,33.69,37.26Z" style="fill:#fff;fill-rule:evenodd"/><path d="M22.51,78.88H58.32c-.09-1-.22-2.35-.36-3.19H22.87C22.73,76.53,22.6,77.91,22.51,78.88Z" style="fill:#b44e6b"/></g></g></svg>