<svg xmlns="http://www.w3.org/2000/svg" viewBox="0 0 78.88 78.97"><title>marketingSales11ZoeHasegawaSVG</title><g id="Layer_2" data-name="Layer 2"><g id="Layer_2-2" data-name="Layer 2"><rect width="78.88" height="78.88" style="fill:#f07068"/><path d="M61.68,77.89s-.1-6-.33-6.54c-.47-2.1.36-3.06-2.89-5.08,0,0-.73-.24-1.8-.59h0l-2.4-.8c-.34-.12-.67-.24-1-.35-1.46-.51-2.94-1.06-4-1.51a6.37,6.37,0,0,1-1.56-.84s0-.05-.08-.09a.86.86,0,0,1-.07-.1,21.11,21.11,0,0,1-1.33-3.56h0a5.69,5.69,0,0,1-.12-1c0-.48,0-1,0-1.41s0-.86,0-1.2v-.28c0-.24,0-.44,0-.59s0-.24,0-.24l.86-.75c.64-.57,1.55-1.39,2.33-2.18a9.18,9.18,0,0,0,1.75-2.09.49.49,0,0,0,0-.15l-.06,0c-.4.06-2.55.43-4.86.79-1.37.22-2.81.43-4,.58l-1.25.14h0c-.33,0-.62.05-.83.05s-.56,0-.95-.05h0l-1.31-.17c-1.07-.13-2.36-.32-3.6-.51l-3.16-.51-.58-.1-1.38-.24a1.54,1.54,0,0,0,.4.74,0,0,0,0,0,0,0c.19.25.44.54.73.86s.6.62.93.93C32,52,33,53,33.55,53.42l.32.27a2,2,0,0,1,0,.24c0,.15,0,.35,0,.59v.28c0,.1,0,.2,0,.3,0,.65,0,1.46-.06,2.31a5.71,5.71,0,0,1-.13,1A21.07,21.07,0,0,1,32.32,62l-.08.1a.76.76,0,0,0-.07.09,6,6,0,0,1-1.24.7c-1.23.55-3.17,1.25-5,1.86a2.67,2.67,0,0,0-.26.09l-2.56.86h0c-1.05.35-1.76.57-1.79.59-3.22,2-2.43,3-2.88,5h0v0a.3.3,0,0,0,0,.15h0c-.21,1.09-.3,6.38-.3,6.38,0,.32,0,.65,0,1H61.69C61.69,78.54,61.69,78.21,61.68,77.89Z" style="fill:#fbd2c5"/><path d="M46.17,58.41a5.58,5.58,0,0,1-.12-1c0-1.12-.06-2.19-.08-2.89a14.09,14.09,0,0,1-5.68,1.32,3.62,3.62,0,0,1-.76,0,14.17,14.17,0,0,1-5.69-1.32c0,.7,0,1.77-.07,2.89a4.81,4.81,0,0,1-.13,1c1.81,1.51,4.26,3.07,5.89,3.07a1.79,1.79,0,0,0,.34,0H40a1.79,1.79,0,0,0,.34,0C41.91,61.48,44.36,59.92,46.17,58.41Z" style="fill:#d29f97"/><path d="M56,36c.31-1.73.56-3,.63-3.31s.07-.25.1-.38.07-.28.09-.42.1-.43.15-.64,0-.2,0-.3.09-.47.12-.71,0-.21,0-.31.05-.42.08-.64a3.56,3.56,0,0,1,0-.47c0-.14,0-.28,0-.41a14.89,14.89,0,0,0-2.67-9.59c-2.58-3.62-5.56-7.46-12-8H37.19c-6.46.53-9.43,4.37-12,8a15,15,0,0,0-2.67,9.59c0,.13,0,.27,0,.41s0,.31,0,.47,0,.43.07.64,0,.21,0,.31.09.48.12.71,0,.2.05.3.09.43.15.64.07.27.09.42.06.25.1.38.32,1.57.63,3.28c-1.72-.84-4.11.37-3.83,3.54s4.21,5.13,5.55,5.45a10.82,10.82,0,0,0,.32,1.23c1.18,3,2.6,3.84,5.1,6.25,2.72,2.61,6.74,5.06,8.72,5.05h.43c2,0,6-2.44,8.73-5.05,2.49-2.41,3.92-3.3,5.09-6.25.08-.21.19-.64.33-1.22,1.29-.29,5.29-2.21,5.59-5.46S57.71,35.11,56,36Z" style="fill:#fbd2c5"/><path d="M58.6,37.77a1.89,1.89,0,0,0-2.87-.57,1.64,1.64,0,0,0-.48,1.8c.13.53.68.57.54,1.37A1.42,1.42,0,0,1,55,41.52a1.79,1.79,0,0,0-.68.73,2,2,0,0,0-.1,1.11c.15.65,1.1.15,1.72-.13A12.88,12.88,0,0,0,58,41.58a3.6,3.6,0,0,0,.6-3.81" style="fill:#e9b7ac"/><path d="M21.26,37.77a1.89,1.89,0,0,1,2.87-.57,1.64,1.64,0,0,1,.48,1.8c-.13.53-.68.57-.54,1.37a1.41,1.41,0,0,0,.8,1.15,1.73,1.73,0,0,1,.68.73,2,2,0,0,1,.1,1.11c-.15.65-1.09.15-1.72-.13a12.81,12.81,0,0,1-2.07-1.65,3.6,3.6,0,0,1-.6-3.81" style="fill:#e9b7ac"/><path d="M61.88,78s0-1.26-.07-2.7c0-.72-.05-1.48-.09-2.15s-.08-1.39-.14-1.71a.64.64,0,0,0,0-.2,13,13,0,0,1-.18-1.33,3.77,3.77,0,0,0-.66-2.15,7.32,7.32,0,0,0-2.08-1.77l-1.82-.61h0l-2.43-.82-1-.37,0,0c-13.5,8.51-22.63,2.17-25.55-.47l-2,.71c-.09,0-.18.07-.27.09-.94.34-1.85.65-2.59.89h0L21,65.94A7.62,7.62,0,0,0,19,67.71a3.85,3.85,0,0,0-.66,2.15,12,12,0,0,1-.18,1.29h0v0l0,.15v0a16.5,16.5,0,0,0-.15,1.71c0,.67-.06,1.43-.08,2.15-.05,1.44-.07,2.7-.07,2.7,0,.33,0,.67,0,1H61.89C61.88,78.62,61.88,78.28,61.88,78Z" style="fill:#078092"/><path d="M50.76,63.19c-.5-.2-1-.38-1.39-.56l-.14-.06c-.38-.17-.71-.32-1-.47-.31.2-.61.36-.91.53a15.68,15.68,0,0,1-4.49,1.71,14.48,14.48,0,0,1-5.34,0,15.14,15.14,0,0,1-4.58-1.71c-.46-.26-.86-.51-1.18-.73a9.71,9.71,0,0,1-1,.53l-.45.2c-.27.11-.54.23-.84.34-.54.22-1.14.45-1.75.67,2.92,2.64,12.05,9,25.55.47C52.4,63.81,51.55,63.49,50.76,63.19Z" style="fill:#00b5dd"/><path d="M61.26,27c0-.1,0-.2,0-.31,0-3.9-1.65-7.37-6-11.06l-.49-.41c.22-1.19-.54-2.76-4.59-4.11a14,14,0,0,1,2.26,2.5,36.14,36.14,0,0,0-7.86-3.46l1.76,1.33A21.56,21.56,0,0,0,40.3,9.17a12.25,12.25,0,0,0-7.37.13,7.72,7.72,0,0,1,3.48.67c-1.13-.39-3.07-.52-6.31.55l-.59.21a21.63,21.63,0,0,1-3.7-.77A11.32,11.32,0,0,0,28,11.38a12.82,12.82,0,0,0-2.58,1.71,21.8,21.8,0,0,1-5.53-.55A13.6,13.6,0,0,0,24,14.45c-.37.39-.72.76-1.09,1.11A22,22,0,0,1,17.3,16a15.36,15.36,0,0,0,3.61,1,7.74,7.74,0,0,1-1.48.56c-4.53,1.19-5.84-.34-5.84-.34A7.17,7.17,0,0,0,19,19.91h.62a27.28,27.28,0,0,0-1.31,3.7,20.07,20.07,0,0,1-3.45.74,16,16,0,0,0,3.23.37,1.23,1.23,0,0,1,0,.19,8.06,8.06,0,0,0,0,1.7c-1.24,5.41.49,9.73.95,11.74C20.77,45.79,29,50.51,29,50.51a16.47,16.47,0,0,1-3-4,18.39,18.39,0,0,1-1.79-8.08c0-3.9,4.69-8.72,4.69-8.72a16.07,16.07,0,0,0-2.59,6.35A8.15,8.15,0,0,0,28.12,42a14.33,14.33,0,0,1,1.14-7.09,6.47,6.47,0,0,1,4.25-3.53h0c-1.15,2.55,1.16,4.69,1.16,4.69a8.43,8.43,0,0,1,.24-1.62c.59-2.55,2.67-7.43,9.91-9.6l.23.27,5.1,6c.25.28.66.74,1.13,1.34,1.39,1.74,3.3,4.6,3.3,7.09a18.32,18.32,0,0,1-1.8,8.08,16.39,16.39,0,0,1-3,4s6.16-3.55,8.92-9.34h0C61.93,36,62.11,30.88,61.26,27Z" style="fill:#7b3944"/><path d="M31.92,38.72a3.47,3.47,0,0,1,2.63,5l-6.34-.37A3.48,3.48,0,0,1,31.92,38.72Z" style="fill:#3a2018;fill-rule:evenodd"/><path d="M32.93,39.72a1.33,1.33,0,1,1-1.73.72A1.34,1.34,0,0,1,32.93,39.72Z" style="fill:#fff;fill-rule:evenodd"/><path d="M33.93,36.9a.48.48,0,0,1-.62.73,3.3,3.3,0,0,0-2.14-.52,3.4,3.4,0,0,0-2,.8.49.49,0,0,1-.68,0,.48.48,0,0,1,.05-.67,4.6,4.6,0,0,1,5.43-.29Z" style="fill:#3a2018;fill-rule:evenodd"/><path d="M27.7,43.78a.32.32,0,0,1-.07-.64A23,23,0,0,1,31,43a19,19,0,0,1,3.68.47.32.32,0,0,1,.24.38.31.31,0,0,1-.38.24,18.59,18.59,0,0,0-3.56-.46A21.92,21.92,0,0,0,27.7,43.78Z" style="fill:#3a2018;fill-rule:evenodd"/><path d="M47,38.72a3.48,3.48,0,0,0-2.64,5l6.34-.37A3.48,3.48,0,0,0,47,38.72Z" style="fill:#3a2018;fill-rule:evenodd"/><path d="M51.33,43.14a.32.32,0,0,1-.08.64A21.92,21.92,0,0,0,48,43.61a18.69,18.69,0,0,0-3.56.46.31.31,0,0,1-.38-.24.32.32,0,0,1,.24-.38A19.11,19.11,0,0,1,48,43,23.14,23.14,0,0,1,51.33,43.14Z" style="fill:#3a2018;fill-rule:evenodd"/><path d="M35.84,46.74a.24.24,0,0,1,.14-.31.25.25,0,0,1,.31.14,1,1,0,0,1,0,.14h0a1.31,1.31,0,0,1-.05.83,1.13,1.13,0,0,1-.67.63l-.15,0a.24.24,0,0,1-.29-.17.23.23,0,0,1,.17-.29l.1,0a.64.64,0,0,0,.4-.37.74.74,0,0,0,0-.51h0Z" style="fill:#3a2018;fill-rule:evenodd"/><path d="M36,47.72a.32.32,0,0,1,0-.45.33.33,0,0,1,.46,0,4.92,4.92,0,0,0,6.15,0,.32.32,0,0,1,.45.46,5.56,5.56,0,0,1-7.05,0Z" style="fill:#3a2018;fill-rule:evenodd"/><path d="M42.66,46.57a.25.25,0,0,1,.31-.14.24.24,0,0,1,.14.31l0,.1h0a.8.8,0,0,0,0,.51.7.7,0,0,0,.4.37l.11,0a.24.24,0,0,1,.17.29.25.25,0,0,1-.3.17l-.15,0a1.13,1.13,0,0,1-.67-.63,1.25,1.25,0,0,1,0-.83h0S42.65,46.62,42.66,46.57Z" style="fill:#3a2018;fill-rule:evenodd"/><path d="M31.27,46.91c3.56,0,3.53-2.22,0-2.22S27.71,46.91,31.27,46.91Z" style="fill:#dc98ab;fill-rule:evenodd"/><path d="M47.53,46.91c3.56,0,3.52-2.22,0-2.22S44,46.91,47.53,46.91Z" style="fill:#dc98ab;fill-rule:evenodd"/><path d="M30.41,41.63A.61.61,0,0,1,30,42.76a.61.61,0,1,1,.46-1.13Z" style="fill:#fff;fill-rule:evenodd"/><path d="M48.81,39.72a1.33,1.33,0,1,1-1.74.72A1.35,1.35,0,0,1,48.81,39.72Z" style="fill:#fff;fill-rule:evenodd"/><path d="M46.29,41.63a.6.6,0,0,1,.33.79A.61.61,0,1,1,45.49,42,.6.6,0,0,1,46.29,41.63Z" style="fill:#fff;fill-rule:evenodd"/><path d="M45.36,37.63a.48.48,0,0,1-.62-.73,4.6,4.6,0,0,1,5.43.29.48.48,0,0,1,0,.67.49.49,0,0,1-.68,0,3.4,3.4,0,0,0-2-.8A3.3,3.3,0,0,0,45.36,37.63Z" style="fill:#3a2018;fill-rule:evenodd"/><path d="M38.87,44.06a.17.17,0,0,1-.23,0,.16.16,0,0,1,0-.22,5,5,0,0,1,.92-.58c.31-.16.64-.29,1-.43a.17.17,0,0,1,.21.09.17.17,0,0,1-.09.21c-.33.13-.64.26-1,.41A6.22,6.22,0,0,0,38.87,44.06Z" style="fill:#3a2018;fill-rule:evenodd"/><path d="M40.51,44.08a.16.16,0,0,1-.22,0,.16.16,0,0,1,0-.23,4.89,4.89,0,0,1,.77-.46,4.31,4.31,0,0,1,.79-.31.18.18,0,0,1,.2.11.17.17,0,0,1-.12.2,3.89,3.89,0,0,0-.73.28A5,5,0,0,0,40.51,44.08Z" style="fill:#3a2018;fill-rule:evenodd"/><path d="M37.18,43.92a.15.15,0,0,1-.22,0,.16.16,0,0,1,0-.22,6.5,6.5,0,0,1,.77-.47,5.17,5.17,0,0,1,.79-.31.16.16,0,0,1,.2.12.16.16,0,0,1-.11.19,4.43,4.43,0,0,0-.73.29A5.22,5.22,0,0,0,37.18,43.92Z" style="fill:#3a2018;fill-rule:evenodd"/></g></g></svg>