<svg xmlns="http://www.w3.org/2000/svg" viewBox="0 0 78.88 78.89"><title>marketingSales17LilyYoshikawaSVG</title><g id="Layer_2" data-name="Layer 2"><g id="Layer_2-2" data-name="Layer 2"><rect width="78.88" height="78.88" style="fill:#f07068"/><ellipse cx="40.36" cy="39.44" rx="18.56" ry="22.75" style="fill:#3d3d3c"/><path d="M61.68,77.89s-.1-6-.33-6.54c-.47-2.1.36-3.06-2.89-5.08,0,0-.73-.24-1.8-.59h0l-2.4-.8c-.34-.12-.67-.24-1-.35-1.46-.51-2.94-1.06-4-1.51a6.37,6.37,0,0,1-1.56-.84s0-.05-.08-.09a.86.86,0,0,1-.07-.1,21.11,21.11,0,0,1-1.33-3.56h0a5.69,5.69,0,0,1-.12-1c0-.48,0-1,0-1.41s0-.86,0-1.2v-.28c0-.24,0-.44,0-.59s0-.24,0-.24l.86-.75c.64-.57,1.55-1.39,2.33-2.18a9.18,9.18,0,0,0,1.75-2.09.49.49,0,0,0,0-.15l-.06,0c-.4.06-2.55.43-4.86.79-1.37.22-2.81.43-4,.58l-1.25.14h0c-.33,0-.62.05-.83.05s-.56,0-.95-.05h0l-1.31-.17c-1.07-.13-2.36-.32-3.6-.51l-3.16-.51-.58-.1-1.38-.24a1.54,1.54,0,0,0,.4.74,0,0,0,0,0,0,0c.19.25.44.54.73.86s.6.62.93.93C32,52,33,53,33.55,53.42l.32.27a2,2,0,0,1,0,.24c0,.15,0,.35,0,.59v.28c0,.1,0,.2,0,.3,0,.65,0,1.46-.06,2.31a5.71,5.71,0,0,1-.13,1A20.72,20.72,0,0,1,32.32,62l-.08.1a.76.76,0,0,0-.07.09,6,6,0,0,1-1.24.7c-1.23.55-3.17,1.25-5,1.86a2.67,2.67,0,0,0-.26.09l-2.56.86h0c-1.05.35-1.76.57-1.79.59-3.22,2-2.43,3-2.88,5h0v0a.3.3,0,0,0,0,.15h0c-.21,1.09-.3,6.38-.3,6.38,0,.32,0,.65,0,1H61.69C61.69,78.54,61.69,78.21,61.68,77.89Z" style="fill:#fbd2c5"/><path d="M46.17,58.41a5.58,5.58,0,0,1-.12-1c0-1.12-.06-2.19-.08-2.89a14.09,14.09,0,0,1-5.68,1.32,3.62,3.62,0,0,1-.76,0,14.17,14.17,0,0,1-5.69-1.32c0,.7,0,1.77-.07,2.89a4.81,4.81,0,0,1-.13,1c1.81,1.51,4.26,3.07,5.89,3.07a1.79,1.79,0,0,0,.34,0H40a1.79,1.79,0,0,0,.34,0C41.91,61.48,44.36,59.92,46.17,58.41Z" style="fill:#d29f97"/><path d="M56,36c.31-1.73.56-3,.63-3.31s.07-.25.1-.38.07-.28.09-.42.1-.43.15-.64,0-.2,0-.3.09-.47.12-.71,0-.21,0-.31.05-.42.08-.64a3.56,3.56,0,0,1,0-.47c0-.14,0-.28,0-.41a14.89,14.89,0,0,0-2.67-9.59c-2.58-3.62-5.56-7.46-12-8H37.19c-6.46.53-9.43,4.37-12,8a15,15,0,0,0-2.67,9.59c0,.13,0,.27,0,.41s0,.31,0,.47,0,.43.07.64,0,.21,0,.31.09.48.12.71,0,.2.05.3.09.43.15.64.07.27.09.42.06.25.1.38.32,1.57.63,3.28c-1.72-.84-4.11.37-3.83,3.54s4.21,5.13,5.55,5.45a10.82,10.82,0,0,0,.32,1.23c1.18,3,2.6,3.84,5.1,6.25,2.72,2.61,6.74,5.06,8.72,5.05h.43c2,0,6-2.44,8.73-5.05,2.49-2.41,3.92-3.3,5.09-6.25.08-.21.19-.64.33-1.22,1.29-.29,5.29-2.21,5.59-5.46S57.71,35.11,56,36Z" style="fill:#fbd2c5"/><path d="M58.6,37.77a1.89,1.89,0,0,0-2.87-.57,1.64,1.64,0,0,0-.48,1.8c.13.53.68.57.54,1.37A1.42,1.42,0,0,1,55,41.52a1.79,1.79,0,0,0-.68.73,2,2,0,0,0-.1,1.11c.15.65,1.1.15,1.72-.13A12.88,12.88,0,0,0,58,41.58a3.6,3.6,0,0,0,.6-3.81" style="fill:#e9b7ac"/><path d="M21.26,37.77a1.89,1.89,0,0,1,2.87-.57,1.64,1.64,0,0,1,.48,1.8c-.13.53-.68.57-.54,1.37a1.41,1.41,0,0,0,.8,1.15,1.73,1.73,0,0,1,.68.73,2,2,0,0,1,.1,1.11c-.15.65-1.09.15-1.72-.13a12.81,12.81,0,0,1-2.07-1.65,3.6,3.6,0,0,1-.6-3.81" style="fill:#e9b7ac"/><path d="M54.19,14.49C49.91,11.23,44.2,2.4,40.31,2.82c-3.9-.42-9.61,8.41-13.9,11.67-7,5.32-5.36,21.1-5.36,21.1a2.07,2.07,0,0,1,1.78.4,6.29,6.29,0,0,1,1.65,3.12,2.58,2.58,0,0,0,1.25,1.63s-1.67-7.59.05-11c1.06-2.09,2-4.37,5.17-6.58,2.1-1.44,5.81,5.77,9.36,5.82s7.25-7.26,9.34-5.82c3.2,2.21,4.12,4.49,5.18,6.58,1.72,3.37.05,11,.05,11a2.54,2.54,0,0,0,1.24-1.63A6.39,6.39,0,0,1,57.78,36a2.06,2.06,0,0,1,1.78-.4s1.62-15.78-5.37-21.1" style="fill:#3d3d3c"/><path d="M61.5,70.06A3.55,3.55,0,0,0,60.83,68a7.34,7.34,0,0,0-2.08-1.7S58,66,56.92,65.68h0l-2.44-.8c-.34-.12-.68-.24-1-.35l-2.55-.92L49.34,63c-.38-.17-.72-.32-1-.46a16.31,16.31,0,0,1-5.46,2.18,2,2,0,0,1,0,.24v2H37.61V65c0-.08,0-.16,0-.24a16.08,16.08,0,0,1-5.83-2.38,9,9,0,0,1-1,.52c-.37.16-.81.34-1.29.52-1.12.44-2.47.91-3.75,1.34-.09,0-.18.06-.27.09l-2.6.86h0c-1.07.35-1.79.57-1.82.59A7.65,7.65,0,0,0,19,68a3.62,3.62,0,0,0-.67,2.09v0H61.5Z" style="fill:#ce4b27"/><path d="M61.73,71.54a.8.8,0,0,0,0-.19,11.24,11.24,0,0,1-.18-1.24H18.3c0,.36-.08.75-.17,1.2h0v0a.3.3,0,0,0,0,.15h0v0a16.19,16.19,0,0,0-.14,1.65c0,.6-.06,1.27-.09,1.92H62c0-.65-.05-1.32-.08-1.92S61.78,71.85,61.73,71.54Z" style="fill:#3d3d3c"/><path d="M35.19,37.85a3.45,3.45,0,1,1-6.9,0Z" style="fill:#3a2018;fill-rule:evenodd"/><path d="M32,37.67c-.59,2,2.92,2,2.38,0Z" style="fill:#fff;fill-rule:evenodd"/><path d="M36.12,37.52a.34.34,0,0,1,.28.38.35.35,0,0,1-.39.28,34.34,34.34,0,0,0-4.63-.25,26,26,0,0,0-4.08.28.33.33,0,0,1-.39-.28.33.33,0,0,1,.27-.38,27.5,27.5,0,0,1,4.2-.29A35.65,35.65,0,0,1,36.12,37.52Z" style="fill:#3a2018;fill-rule:evenodd"/><path d="M44.52,37.85a3.45,3.45,0,0,0,6.9,0Z" style="fill:#3a2018;fill-rule:evenodd"/><path d="M51,37.87c.22,2-2.93,1.69-2.42-.18Z" style="fill:#fff;fill-rule:evenodd"/><path d="M43.7,38.18a.35.35,0,0,1-.39-.28.34.34,0,0,1,.28-.38,35.65,35.65,0,0,1,4.74-.26,27.5,27.5,0,0,1,4.2.29.33.33,0,0,1,.27.38.33.33,0,0,1-.39.28,26,26,0,0,0-4.08-.28A34.34,34.34,0,0,0,43.7,38.18Z" style="fill:#3a2018;fill-rule:evenodd"/><path d="M27.5,35.76a.5.5,0,1,1,.12-1l1.18.18c2.55.42,6.46,1.06,7.27-1a.5.5,0,1,1,.94.36c-1.11,2.87-5.51,2.15-8.37,1.68Z" style="fill:#3a2018;fill-rule:evenodd"/><path d="M51.61,34.36a.5.5,0,1,1,.13,1l-1.14.17c-2.87.47-7.26,1.19-8.37-1.68a.5.5,0,0,1,.94-.36c.81,2.11,4.72,1.47,7.27,1Z" style="fill:#3a2018;fill-rule:evenodd"/><path d="M51.46,41.52c-2.69.08-2.63,1.86,0,1.78S54.14,41.43,51.46,41.52Z" style="fill:#dc98ab;fill-rule:evenodd"/><path d="M28.4,41.52c2.69.08,2.63,1.86,0,1.78S25.72,41.43,28.4,41.52Z" style="fill:#dc98ab;fill-rule:evenodd"/><path d="M36.33,45a.33.33,0,1,1-.25-.62,9.63,9.63,0,0,1,4-1,12.23,12.23,0,0,1,4,1.1.34.34,0,0,1,.18.44.33.33,0,0,1-.43.19,11.46,11.46,0,0,0-3.75-1.06A9,9,0,0,0,36.33,45Z" style="fill:#3a2018;fill-rule:evenodd"/><path d="M17.84,75.29c0,1.39-.06,2.61-.06,2.61,0,.32,0,.65,0,1H62c0-.34,0-.67,0-1,0,0,0-1.22-.07-2.61a.91.91,0,0,0,0-.17H17.85S17.84,75.23,17.84,75.29Z" style="fill:#ce4b27"/></g></g></svg>