<svg xmlns="http://www.w3.org/2000/svg" viewBox="0 0 78.88 78.88"><title>marketingSales12MiaNagataSVG</title><g id="Layer_2" data-name="Layer 2"><g id="Layer_2-2" data-name="Layer 2"><rect width="78.88" height="78.88" style="fill:#faa830"/><path d="M61.59,77.89s-.1-6-.33-6.54c-.47-2.1.36-3.06-2.89-5.08,0,0-.74-.24-1.8-.59h0l-2.4-.8c-.34-.12-.67-.24-1-.35-.87-.31-1.72-.62-2.51-.92L49.11,63c-.38-.17-.71-.32-1-.46a2.21,2.21,0,0,1-.59-.38s0-.05-.08-.09a.86.86,0,0,1-.07-.1,20.23,20.23,0,0,1-1.33-3.56h0a5.69,5.69,0,0,1-.12-1c0-.48,0-1,0-1.41s0-.86,0-1.2v-.28c0-.24,0-.44,0-.59s0-.24,0-.24l.86-.75c.64-.57,1.55-1.4,2.33-2.18a9.18,9.18,0,0,0,1.75-2.09,1.31,1.31,0,0,0,0-.15l-.07,0c-.39.06-2.54.43-4.85.79-1.37.22-2.81.43-4,.58l-1.24.14h0c-.33,0-.62.05-.83.05s-.56,0-1-.05h0l-1.31-.17c-1.07-.13-2.36-.32-3.61-.51l-3.15-.51-.58-.1-1.39-.24a1.54,1.54,0,0,0,.4.74s0,0,0,0a9.12,9.12,0,0,0,.73.86c.29.3.6.62.93.93,1,1,2.06,1.91,2.58,2.36l.31.27s0,.09,0,.24,0,.35,0,.59v.28c0,.1,0,.2,0,.3,0,.65,0,1.46-.07,2.31a5.69,5.69,0,0,1-.12,1A22,22,0,0,1,32.23,62l-.08.1a.76.76,0,0,0-.07.09l-.25.18a9.31,9.31,0,0,1-1,.52c-.37.16-.8.34-1.27.52-1.11.44-2.44.91-3.7,1.34a2.67,2.67,0,0,0-.26.09l-2.56.86h0c-1.05.35-1.76.57-1.79.59-3.22,2-2.43,3-2.88,5h0v0a.3.3,0,0,0,0,.15h0c-.21,1.09-.3,6.38-.3,6.38,0,.32,0,.65,0,1H61.6C61.6,78.54,61.6,78.21,61.59,77.89Z" style="fill:#fbd2c5"/><path d="M46.08,58.41a5.58,5.58,0,0,1-.12-1c0-1.12-.07-2.19-.08-2.89a14.09,14.09,0,0,1-5.68,1.32,2.3,2.3,0,0,1-.38,0,2.48,2.48,0,0,1-.39,0,14.16,14.16,0,0,1-5.68-1.32c0,.7,0,1.77-.07,2.89a4.81,4.81,0,0,1-.13,1c1.81,1.51,4.26,3.07,5.88,3.07a1.9,1.9,0,0,0,.35,0h.08a1.87,1.87,0,0,0,.34,0C41.82,61.48,44.27,59.92,46.08,58.41Z" style="fill:#d29f97"/><path d="M55.89,36c.31-1.73.56-3,.63-3.31s.07-.25.1-.38.07-.28.09-.42.1-.43.15-.64,0-.2,0-.3.09-.47.12-.71,0-.21,0-.31,0-.42.08-.64a3.56,3.56,0,0,1,.05-.47c0-.14,0-.28,0-.41a14.89,14.89,0,0,0-2.67-9.59c-2.58-3.62-5.56-7.46-12-8H37.09c-6.45.53-9.42,4.37-12,8a15,15,0,0,0-2.67,9.59c0,.13,0,.27,0,.41s0,.31,0,.47,0,.43.07.64,0,.21,0,.31.09.48.12.71,0,.2.05.3.09.43.15.64.07.27.09.42.06.25.1.38.32,1.57.63,3.28c-1.72-.84-4.11.37-3.83,3.54s4.2,5.13,5.55,5.45a10.82,10.82,0,0,0,.32,1.23c1.18,3,2.6,3.84,5.1,6.25,2.72,2.61,6.74,5.06,8.72,5.05H40c2,0,6-2.44,8.73-5.05,2.49-2.41,3.92-3.3,5.09-6.25A11.1,11.1,0,0,0,54.17,45c1.3-.29,5.3-2.21,5.6-5.46S57.62,35.11,55.89,36Z" style="fill:#fbd2c5"/><path d="M58.51,37.77a1.89,1.89,0,0,0-2.87-.57,1.64,1.64,0,0,0-.48,1.8c.13.53.68.57.54,1.37a1.42,1.42,0,0,1-.81,1.15,1.79,1.79,0,0,0-.68.73,2,2,0,0,0-.1,1.11c.15.65,1.1.15,1.72-.13a12.88,12.88,0,0,0,2.08-1.65,3.6,3.6,0,0,0,.6-3.81" style="fill:#e9b7ac"/><path d="M21.17,37.77A1.89,1.89,0,0,1,24,37.2a1.64,1.64,0,0,1,.48,1.8c-.13.53-.68.57-.54,1.37a1.41,1.41,0,0,0,.8,1.15,1.73,1.73,0,0,1,.68.73,2,2,0,0,1,.1,1.11c-.15.65-1.09.15-1.72-.13a12.81,12.81,0,0,1-2.07-1.65,3.6,3.6,0,0,1-.6-3.81" style="fill:#e9b7ac"/><path d="M60.7,69.18c0-3.07-5-5.71-12.32-7l-1-.15c1.21,1.71,4.12,6.65-1.45,8.07a30.93,30.93,0,0,1-6.27.56,31,31,0,0,1-6.28-.56c-5.78-1.47-2.42-6.74-1.32-8.25l-.64.08c-8.2,1.09-14,3.9-14,7.2,0,2.26,2.75,4.29,7.12,5.7,0,1.13,0,2.42,0,3.94H53.6c0-1.71,0-2.76,0-4C57.25,73.46,60.7,71.22,60.7,69.18Z" style="fill:#fff"/><path d="M17.64,68s-6.16,8.75,6.86,8.38l0-1.53S16.65,72.6,17.64,68Z" style="fill:#00b5dd"/><path d="M60.48,68s6.15,8.75-6.86,8.37l0-1.53S61.11,72.37,60.48,68Z" style="fill:#00b5dd"/><path d="M59.4,23c-.15-.44-.3-.85-.46-1.26l.22.17c1.1-5.25.82-8.78-.26-11.12a.57.57,0,0,0-.15-.48l-.19-.18a6.45,6.45,0,0,0-2.77-2.58l-.24-.23A.62.62,0,0,0,55,7.19C49.89,5.39,42.62,8.7,42.62,8.7c-2.43-.46-8.27-1.33-12,0C25.9,10.5,22,13.52,19.26,21.63a26.78,26.78,0,0,0-.7,14.18c.11.56.22,1.07.33,1.54.17.73.32,1.37.41,1.87,0,.15.07.31.1.46a15.22,15.22,0,0,0,.47,1.69c2.77,8.19,11.85,15.7,11.85,15.7s-4.68-5.59-5.59-8L26.07,49a26.35,26.35,0,0,1-1.71-9.59,9.45,9.45,0,0,1,.37-2.72,5.39,5.39,0,0,1,2.15-3.11,18.14,18.14,0,0,0-.45,3,11.21,11.21,0,0,0,1.81,7.11s-2.83-5.21,1.69-9.09a30.94,30.94,0,0,0,3.61-3.7h0C32.4,33.91,35,41.06,35,41.06V41c0-.29,0-1.12,0-2.19.67-13.36,14.4-5.86,14.4-5.86h0c2.4,2.89,4.57,9.15,1.44,22.54a32.35,32.35,0,0,0,3.72-8.72.47.47,0,0,0,.09-.06,22.91,22.91,0,0,0-.27-11.61s2.4.65,2.5,9.49a21.49,21.49,0,0,0,1.56-2.3c.3-.51.61-1.06.92-1.68l0-.06a14.32,14.32,0,0,0,1.14-3.66c.09-.43.16-.88.22-1.35A28.09,28.09,0,0,0,59.4,23Z" style="fill:#353839"/><path d="M33.74,62.63a1.06,1.06,0,1,1-1.06-1A1,1,0,0,1,33.74,62.63Z" style="fill:#fff"/><path d="M34.77,64.38a1.06,1.06,0,1,1-1.06-1A1,1,0,0,1,34.77,64.38Z" style="fill:#36aeaf"/><path d="M36.05,66A1.06,1.06,0,1,1,35,65,1,1,0,0,1,36.05,66Z" style="fill:#fff"/><path d="M37.66,67.28a1.06,1.06,0,1,1-1.06-1A1,1,0,0,1,37.66,67.28Z" style="fill:#36aeaf"/><path d="M39.63,68a1.06,1.06,0,1,1-1.06-1A1,1,0,0,1,39.63,68Z" style="fill:#fff"/><path d="M40.69,66.64a1,1,0,1,1-1.06,1A1,1,0,0,1,40.69,66.64Z" style="fill:#36aeaf"/><path d="M42.53,65.67a1,1,0,1,1-1.05,1A1,1,0,0,1,42.53,65.67Z" style="fill:#fff"/><path d="M44.23,64.46a1,1,0,1,1-1.06,1A1,1,0,0,1,44.23,64.46Z" style="fill:#36aeaf"/><path d="M45.6,62.93a1,1,0,1,1-1.06,1A1,1,0,0,1,45.6,62.93Z" style="fill:#fff"/><path d="M46.38,61.06a1,1,0,1,1-1.06,1A1,1,0,0,1,46.38,61.06Z" style="fill:#36aeaf"/><path d="M27.13,40.4c.29,1.15,1.59.77,1.59-.66C28.72,35.42,26.65,38.54,27.13,40.4Z" style="fill:#a6d2f0;fill-rule:evenodd"/><path d="M34.34,42.85a.32.32,0,0,1-.44-.11A.32.32,0,0,1,34,42.3s0-.08,0-.14a.76.76,0,0,0-.22-.34.55.55,0,0,0-.34-.14c-.15,0-.3.14-.43.47A1.3,1.3,0,0,0,33,43a.92.92,0,0,0,.45.56,1,1,0,0,0,.53.11,1.19,1.19,0,0,0,.57-.22,1.82,1.82,0,0,0,.66-.91,1.59,1.59,0,0,0,0-1,1.82,1.82,0,0,0-.74-.94,1.63,1.63,0,0,0-.72-.25,1.58,1.58,0,0,0-.77.1,2.1,2.1,0,0,0-1.08.9,3,3,0,0,0-.48,1.58,2.06,2.06,0,0,0,.44,1.32,2.65,2.65,0,0,0,.76.64,2.34,2.34,0,0,0,1.43.28,2.65,2.65,0,0,0,1.37-.61,3.1,3.1,0,0,0,.72-.87.31.31,0,0,1,.43-.12.32.32,0,0,1,.13.43A4,4,0,0,1,35.86,45a3.29,3.29,0,0,1-1.69.74,2.92,2.92,0,0,1-1.82-.35,3.3,3.3,0,0,1-.94-.79,2.65,2.65,0,0,1-.59-1.73A3.62,3.62,0,0,1,31.4,41a2.75,2.75,0,0,1,1.4-1.18,2.42,2.42,0,0,1,1.06-.12,2.21,2.21,0,0,1,1,.34,2.39,2.39,0,0,1,1,1.27,2.25,2.25,0,0,1,0,1.47,2.54,2.54,0,0,1-.9,1.23,1.79,1.79,0,0,1-.88.33,1.63,1.63,0,0,1-.89-.19,1.54,1.54,0,0,1-.75-.94,2,2,0,0,1,.07-1.27,1.16,1.16,0,0,1,1-.86,1.11,1.11,0,0,1,.79.29,1.34,1.34,0,0,1,.43.68A.7.7,0,0,1,34.34,42.85Z" style="fill:#3a2018;fill-rule:evenodd"/><path d="M46.86,43.07a.32.32,0,0,1-.43-.13.31.31,0,0,1,.13-.43.77.77,0,0,0,.23-.2.49.49,0,0,0,.07-.19.32.32,0,0,0,0-.14.18.18,0,0,0-.07-.08.47.47,0,0,0-.12-.07.71.71,0,0,0-.37-.08.51.51,0,0,0-.33.24.64.64,0,0,0-.08.14,1.13,1.13,0,0,0-.07.81,1,1,0,0,0,.46.59.9.9,0,0,0,.53.1,1.17,1.17,0,0,0,.58-.21,1.93,1.93,0,0,0,.68-.94,1.42,1.42,0,0,0,0-1,1.52,1.52,0,0,0-.6-.68,2.06,2.06,0,0,0-.95-.31,2.29,2.29,0,0,0-1,.16,1.69,1.69,0,0,0-.77.63,3.16,3.16,0,0,0-.48,1.57,2,2,0,0,0,.45,1.32,2.58,2.58,0,0,0,.61.55,2.17,2.17,0,0,0,1.49.35,3,3,0,0,0,1.48-.67,3.66,3.66,0,0,0,.71-.8.32.32,0,0,1,.44-.1.31.31,0,0,1,.09.44,4.06,4.06,0,0,1-.84,1,3.47,3.47,0,0,1-1.8.81A2.84,2.84,0,0,1,45,45.25a3.4,3.4,0,0,1-.75-.68,2.65,2.65,0,0,1-.59-1.73,3.62,3.62,0,0,1,.58-1.91,2.24,2.24,0,0,1,1-.88,2.78,2.78,0,0,1,1.31-.2,2.67,2.67,0,0,1,1.24.4,2.09,2.09,0,0,1,.84,1,2.07,2.07,0,0,1,0,1.47,2.56,2.56,0,0,1-.93,1.25,1.83,1.83,0,0,1-.88.33,1.46,1.46,0,0,1-.89-.19,1.55,1.55,0,0,1-.77-1,1.76,1.76,0,0,1,.1-1.26,1.38,1.38,0,0,1,.14-.24,1.16,1.16,0,0,1,.75-.5,1.25,1.25,0,0,1,.74.13l.22.13a.8.8,0,0,1,.26.29,1,1,0,0,1,.11.5,1.1,1.1,0,0,1-.19.5A1.27,1.27,0,0,1,46.86,43.07Z" style="fill:#3a2018;fill-rule:evenodd"/><path d="M36.68,47.41c-.6-2.32,7.59-2.09,6.87.19-.41,1.3-2.27.35-3.44.32S37,48.71,36.68,47.41Z" style="fill:#cb4f41;fill-rule:evenodd"/><path d="M36.37,47.49c-.24-.93.51-1.52,1.64-1.82a8.13,8.13,0,0,1,2.15-.21,7.87,7.87,0,0,1,2.14.33c1.12.35,1.84,1,1.55,1.91-.38,1.2-1.56.95-2.69.71a5.87,5.87,0,0,0-1.06-.18,7.49,7.49,0,0,0-1.06.11c-1.15.18-2.35.36-2.67-.85Zm1.8-1.2c-.78.2-1.31.55-1.18,1,.17.65,1.09.51,1.95.38a7.1,7.1,0,0,1,1.18-.11,6.54,6.54,0,0,1,1.17.18c.86.19,1.75.38,2-.28.16-.48-.36-.86-1.13-1.1a7.47,7.47,0,0,0-2-.3A7.21,7.21,0,0,0,38.17,46.29Z" style="fill:#3a2018;fill-rule:evenodd"/><path d="M30.52,38.74a.5.5,0,0,1-.67-.15.48.48,0,0,1,.15-.66,8.86,8.86,0,0,1,2.53-1.19,7.17,7.17,0,0,1,3.63,0,.49.49,0,0,1,.35.58.47.47,0,0,1-.58.35,6.2,6.2,0,0,0-3.15,0A7.63,7.63,0,0,0,30.52,38.74Z" style="fill:#3a2018;fill-rule:evenodd"/><path d="M50.17,37.93a.48.48,0,0,1-.51.81,7.82,7.82,0,0,0-2.27-1.07,6.2,6.2,0,0,0-3.15,0,.47.47,0,0,1-.58-.35.49.49,0,0,1,.35-.58,7.17,7.17,0,0,1,3.63,0A8.86,8.86,0,0,1,50.17,37.93Z" style="fill:#3a2018;fill-rule:evenodd"/><path d="M27.42,37.51a.32.32,0,0,1,.43-.15.31.31,0,0,1,.15.42c-.66,1.39-.71,2.25-.51,2.7a.44.44,0,0,0,.26.26.37.37,0,0,0,.3-.05,1,1,0,0,0,.35-.94.32.32,0,0,1,.64,0,1.64,1.64,0,0,1-.64,1.5,1,1,0,0,1-.83.14,1.08,1.08,0,0,1-.66-.62C26.64,40.15,26.67,39.09,27.42,37.51Z" style="fill:#3a2018;fill-rule:evenodd"/></g></g></svg>