<svg xmlns="http://www.w3.org/2000/svg" viewBox="0 0 78.88 78.88"><title>marketingSales18EllaNakamuraSVG</title><g id="Layer_2" data-name="Layer 2"><g id="Layer_2-2" data-name="Layer 2"><rect width="78.88" height="78.88" style="fill:#faa830"/><ellipse cx="41.04" cy="42.63" rx="16.1" ry="17.85" style="fill:#7b3944"/><path d="M63.39,77.89s-.1-6-.34-6.54c-.46-2.1.36-3.06-2.88-5.08,0,0-.74-.24-1.8-.59h0L56,64.87l-1-.35c-.86-.31-1.72-.62-2.51-.92L50.9,63c-.37-.17-.7-.32-1-.46a2.62,2.62,0,0,1-.59-.38.76.76,0,0,0-.07-.09l-.08-.1a20.49,20.49,0,0,1-1.32-3.56h0a5.71,5.71,0,0,1-.13-1c0-.48,0-1,0-1.41s0-.86,0-1.2v-.28c0-.24,0-.44,0-.59a2,2,0,0,1,0-.24l.87-.75c.63-.57,1.54-1.4,2.33-2.18a9.18,9.18,0,0,0,1.75-2.09,1,1,0,0,0,0-.15l-.06,0c-.4.06-2.55.43-4.86.79-1.37.22-2.8.43-4,.58l-1.25.14h0c-.34,0-.62.05-.84.05s-.56,0-.94-.05h0l-1.31-.17c-1.07-.13-2.36-.32-3.61-.51l-3.16-.51c-.21,0-.4-.06-.57-.1l-1.39-.24a1.54,1.54,0,0,0,.4.74,0,0,0,0,0,0,0,11.3,11.3,0,0,0,.74.86c.29.3.6.62.92.93,1,1,2.06,1.91,2.59,2.36l.31.27s0,.09,0,.24,0,.35,0,.59v.28a1.51,1.51,0,0,1,0,.3c0,.65,0,1.46-.06,2.31a5.69,5.69,0,0,1-.12,1A20.45,20.45,0,0,1,34,62a.86.86,0,0,1-.07.1s-.06.08-.08.09a2.11,2.11,0,0,1-.24.18,9.31,9.31,0,0,1-1,.52c-.37.16-.8.34-1.27.52-1.11.44-2.44.91-3.7,1.34a2,2,0,0,0-.26.09l-2.56.86h0c-1,.35-1.76.57-1.78.59-3.22,2-2.44,3-2.89,5h0v0a.61.61,0,0,0,0,.15h0c-.22,1.09-.3,6.38-.3,6.38,0,.32,0,.65,0,1H63.4C63.4,78.54,63.4,78.21,63.39,77.89Z" style="fill:#fbd2c5"/><path d="M47.88,58.41a5.59,5.59,0,0,1-.13-1c0-1.12-.06-2.19-.07-2.89A14.13,14.13,0,0,1,42,55.84a2.48,2.48,0,0,1-.39,0,2.36,2.36,0,0,1-.38,0,14.13,14.13,0,0,1-5.68-1.32c0,.7,0,1.77-.08,2.89a4.8,4.8,0,0,1-.12,1c1.81,1.51,4.26,3.07,5.88,3.07a1.87,1.87,0,0,0,.34,0h.09a1.87,1.87,0,0,0,.34,0C43.62,61.48,46.07,59.92,47.88,58.41Z" style="fill:#d29f97"/><path d="M57.69,36c.31-1.73.55-3,.63-3.31s.06-.25.1-.38.06-.28.09-.42.1-.43.15-.64,0-.2.05-.3.08-.47.12-.71,0-.21,0-.31.05-.42.07-.64,0-.32.05-.47,0-.28,0-.41a15,15,0,0,0-2.67-9.59c-2.59-3.62-5.56-7.46-12-8H38.89c-6.45.53-9.42,4.37-12,8a15,15,0,0,0-2.67,9.59c0,.13,0,.27,0,.41a3.56,3.56,0,0,1,.05.47c0,.22,0,.43.08.64s0,.21,0,.31.08.48.12.71,0,.2.05.3.09.43.15.64.06.27.09.42.06.25.1.38.31,1.57.63,3.28c-1.73-.84-4.12.37-3.83,3.54s4.2,5.13,5.54,5.45a10.24,10.24,0,0,0,.33,1.23c1.17,3,2.6,3.84,5.09,6.25,2.73,2.61,6.75,5.06,8.73,5.05h.43c2,0,6-2.44,8.72-5.05,2.5-2.41,3.92-3.3,5.1-6.25A11.1,11.1,0,0,0,56,45c1.3-.29,5.3-2.21,5.59-5.46S59.41,35.11,57.69,36Z" style="fill:#fbd2c5"/><path d="M60.31,37.77a1.89,1.89,0,0,0-2.87-.57A1.64,1.64,0,0,0,57,39c.13.53.68.57.53,1.37a1.39,1.39,0,0,1-.8,1.15,1.73,1.73,0,0,0-.68.73,2,2,0,0,0-.1,1.11c.15.65,1.09.15,1.72-.13a12.88,12.88,0,0,0,2.08-1.65,3.63,3.63,0,0,0,.6-3.81" style="fill:#e9b7ac"/><path d="M23,37.77a1.89,1.89,0,0,1,2.87-.57,1.64,1.64,0,0,1,.48,1.8c-.13.53-.68.57-.53,1.37a1.39,1.39,0,0,0,.8,1.15,1.79,1.79,0,0,1,.68.73,2,2,0,0,1,.1,1.11c-.15.65-1.09.15-1.72-.13a12.88,12.88,0,0,1-2.08-1.65,3.63,3.63,0,0,1-.6-3.81" style="fill:#e9b7ac"/><path d="M60.84,72.94h3.53a8.54,8.54,0,0,0-.19-1.72.5.5,0,0,1,0-.12c-.29-1.38,0-2.28-.89-3.33a7.79,7.79,0,0,0-2.12-1.68s-.78-.24-1.9-.6h0l-1.93-.61c-17,15-28.06,2.95-30.54-.28l-.1,0c-1,.33-1.94.63-2.7.87h0c-1.1.36-1.85.58-1.88.6a7.3,7.3,0,0,0-2.21,1.79c-.74,1-.53,1.87-.8,3.18l0,.13h0v0l0,.15v0c0,.28-.1.86-.14,1.55h3.28l.13.07A25.42,25.42,0,0,0,21,78.84H62.13a25.54,25.54,0,0,0-1.29-5.91Z" style="fill:#36aeaf"/><path d="M26.16,40.28c-.33,0,0-2.11-1.08-3.55S22.3,30.39,22.3,25.52s1.43-9.21,5.18-13.82a26.12,26.12,0,0,1,9.26-6.85L34.21,7.62s1.36-2.25,6.27-4c3.88-1.42,6.39.16,6.39.16S44.31,3.64,43.54,5a4.4,4.4,0,0,1-.91.85s1.18-3.18,6.7-.54,5.41,7.35,9.25,8.8,5.06-.42,5.06-.42S61.94,17,58.91,17c-.58,0-.54,0-.54,0a35.37,35.37,0,0,1,1.35,6.25c.22,2.73-.47,4.59-.68,9.69-.19,4.36-1.18,2.13-2.37,5.34a7.73,7.73,0,0,0-.41,2.29c-.45.13-1.6-2.62-.77-7.38.54-3.1-2.13-14.82-8.55-12.54C43,22,42,24.88,39.07,22.35c-2.53-2.18-6.07-3.43-8.72-1.71s-4.14,5.61-3.68,11.79C27.26,40.33,26.16,40.28,26.16,40.28Z" style="fill:#7b3944"/><path d="M39.51,38.84l-.06.19.1-.17Z" style="fill:#0e151a;opacity:0.4"/><path d="M39.51,38.84l-.06.19.1-.17Z" style="fill:#e8e9e7;opacity:0.55"/><path d="M45.08,40.47c.1.14.2.26.31.39a3.6,3.6,0,0,1-.28-.4Z" style="fill:#0e151a;opacity:0.4"/><path d="M45.08,40.47c.1.14.2.26.31.39a3.6,3.6,0,0,1-.28-.4Z" style="fill:#e8e9e7;opacity:0.55"/><path d="M38,37.57a3.2,3.2,0,1,1-6.4,0Z" style="fill:#3a2018;fill-rule:evenodd"/><path d="M35,37.4c-.55,1.9,2.72,1.9,2.21,0Z" style="fill:#fff;fill-rule:evenodd"/><path d="M37.84,37.24a.33.33,0,0,1,.27.38.34.34,0,0,1-.38.28,30.35,30.35,0,0,0-4.3-.23,23.83,23.83,0,0,0-3.79.25.33.33,0,0,1-.39-.27.35.35,0,0,1,.28-.39,26.42,26.42,0,0,1,3.9-.26A31.71,31.71,0,0,1,37.84,37.24Z" style="fill:#3a2018;fill-rule:evenodd"/><path d="M46.62,37.57a3.21,3.21,0,0,0,6.41,0Z" style="fill:#3a2018;fill-rule:evenodd"/><path d="M52.65,37.59c.2,1.81-2.72,1.57-2.26-.17Z" style="fill:#fff;fill-rule:evenodd"/><path d="M44.63,37.9a.35.35,0,0,1-.39-.28.34.34,0,0,1,.28-.38A31.61,31.61,0,0,1,48.93,37a26.42,26.42,0,0,1,3.9.26.34.34,0,0,1,.27.39.32.32,0,0,1-.38.27,23.91,23.91,0,0,0-3.79-.25A30.35,30.35,0,0,0,44.63,37.9Z" style="fill:#3a2018;fill-rule:evenodd"/><path d="M29,34.16a.52.52,0,0,1-.32-.64.51.51,0,0,1,.64-.32c2,.67,4.05,1.28,5.62,1.62a6.45,6.45,0,0,0,2.53.25,2.26,2.26,0,0,0,.57-.5l.22-.24a.5.5,0,0,1,.71.71l-.19.2a2.56,2.56,0,0,1-1,.77,6.66,6.66,0,0,1-3.08-.21C33.07,35.45,31,34.84,29,34.16Z" style="fill:#3a2018;fill-rule:evenodd"/><path d="M52.74,32.26a.5.5,0,1,1,.47.89c-1.93,1-3.84,2-5.37,2.56a6.55,6.55,0,0,1-3,.71,2.44,2.44,0,0,1-1.07-.59l-.22-.17a.5.5,0,0,1-.12-.7.51.51,0,0,1,.7-.12l.26.2a2,2,0,0,0,.64.4,6.33,6.33,0,0,0,2.46-.66C49,34.18,50.84,33.26,52.74,32.26Z" style="fill:#3a2018;fill-rule:evenodd"/><path d="M39.66,41.79a.34.34,0,0,1,.44.18.33.33,0,0,1-.17.44A5.9,5.9,0,0,0,38,43.72s.07-.1.11-.08a4.34,4.34,0,0,0,.78.34,40.56,40.56,0,0,0,4.27,1,.33.33,0,1,1-.12.65,37.68,37.68,0,0,1-4.36-1,4.56,4.56,0,0,1-.92-.4c-.34-.2-.49-.45-.39-.74a.55.55,0,0,1,.08-.15h0A7,7,0,0,1,39.66,41.79Z" style="fill:#3a2018;fill-rule:evenodd"/><path d="M42.42,36.06a.16.16,0,0,1-.06.23.17.17,0,0,1-.23-.06,5,5,0,0,1-.42-.91,2.18,2.18,0,0,1-.1-.77.17.17,0,0,1,.19-.15.18.18,0,0,1,.15.19,1.46,1.46,0,0,0,.08.63A4.23,4.23,0,0,0,42.42,36.06Z" style="fill:#3a2018;fill-rule:evenodd"/><path d="M40.17,35.92a.17.17,0,0,1-.23.06.18.18,0,0,1-.06-.23,3.58,3.58,0,0,0,.39-.85,1.48,1.48,0,0,0,.09-.63.17.17,0,1,1,.33,0,1.78,1.78,0,0,1-.1.77A4.18,4.18,0,0,1,40.17,35.92Z" style="fill:#3a2018;fill-rule:evenodd"/><path d="M29.7,43.27a.25.25,0,0,1-.42-.28,3,3,0,0,1,.76-.75,4,4,0,0,1,1-.53.25.25,0,0,1,.32.16.23.23,0,0,1-.15.31,3.43,3.43,0,0,0-.9.47A2.45,2.45,0,0,0,29.7,43.27Z" style="fill:#3a2018;fill-rule:evenodd"/><path d="M34.13,43.35a.25.25,0,0,1-.39-.31l0,0a3.69,3.69,0,0,1,1.38-1.13.25.25,0,0,1,.33.12.24.24,0,0,1-.12.33,3.31,3.31,0,0,0-1.19,1Z" style="fill:#3a2018;fill-rule:evenodd"/><path d="M32,43.42a.26.26,0,0,1-.35.09.25.25,0,0,1-.09-.34,3.16,3.16,0,0,1,.69-.79,2.76,2.76,0,0,1,.86-.51.25.25,0,0,1,.17.47,2.42,2.42,0,0,0-.71.42A2.49,2.49,0,0,0,32,43.42Z" style="fill:#3a2018;fill-rule:evenodd"/><path d="M47.35,43.27a.25.25,0,0,1-.42-.28,3,3,0,0,1,.76-.75,4,4,0,0,1,1-.53.25.25,0,0,1,.32.16.23.23,0,0,1-.15.31,3.59,3.59,0,0,0-.9.47A2.45,2.45,0,0,0,47.35,43.27Z" style="fill:#3a2018;fill-rule:evenodd"/><path d="M51.78,43.35a.25.25,0,0,1-.39-.31l0,0a3.69,3.69,0,0,1,1.38-1.13.25.25,0,0,1,.33.12.24.24,0,0,1-.12.33,3.31,3.31,0,0,0-1.19,1Z" style="fill:#3a2018;fill-rule:evenodd"/><path d="M49.6,43.42a.26.26,0,0,1-.35.09.25.25,0,0,1-.09-.34,3.16,3.16,0,0,1,.69-.79,2.76,2.76,0,0,1,.86-.51.25.25,0,1,1,.17.47,2.42,2.42,0,0,0-.71.42A2.69,2.69,0,0,0,49.6,43.42Z" style="fill:#3a2018;fill-rule:evenodd"/></g></g></svg>