<svg xmlns="http://www.w3.org/2000/svg" viewBox="0 0 78.88 78.88"><title>marketingSales2AvaOkadaSVG</title><g id="Layer_2" data-name="Layer 2"><g id="Layer_2-2" data-name="Layer 2"><rect width="78.88" height="78.86" style="fill:#215a66"/><rect x="22.82" width="12.83" style="fill:#327798"/><polygon points="35.66 0 35.66 0 40.17 0 40.24 0 57.59 0 57.59 0 35.66 0" style="fill:#1d4b5e"/><path d="M39.44,78.88h0a3.79,3.79,0,0,1-3.78-3.78V66.44a3.79,3.79,0,0,1,3.78-3.78h0a3.79,3.79,0,0,1,3.78,3.78V75.1A3.79,3.79,0,0,1,39.44,78.88Z" style="fill:#fbd2c5"/><path d="M47.44,62.55a2.21,2.21,0,0,1-.59-.38s0-.05-.08-.09a.86.86,0,0,1-.07-.1,20.23,20.23,0,0,1-1.33-3.56h0a5.69,5.69,0,0,1-.12-1c0-.48,0-1,0-1.41s0-.86,0-1.2v-.28c0-.24,0-.44,0-.59s0-.24,0-.24l.86-.75c.64-.57,1.55-1.4,2.33-2.18a9.18,9.18,0,0,0,1.75-2.09,1.31,1.31,0,0,0,0-.15l-.07,0c-.39.06-2.54.43-4.85.79-1.38.22-2.81.43-4,.58L40,50.05h0c-.33,0-.62.05-.83.05s-.57,0-.95-.05h0l-1.31-.17c-1.07-.13-2.36-.32-3.61-.51l-3.16-.51c-.21,0-.4-.06-.57-.1l-1.39-.24a1.54,1.54,0,0,0,.4.74s0,0,0,0a9.12,9.12,0,0,0,.73.86c.29.3.6.62.93.93,1,1,2.06,1.91,2.58,2.36l.31.27s0,.09,0,.24,0,.35,0,.59v.28c0,.1,0,.2,0,.3,0,.65,0,1.46-.07,2.31a5.69,5.69,0,0,1-.12,1A21.64,21.64,0,0,1,31.53,62l-.08.1a.76.76,0,0,0-.07.09l-.25.18A14.46,14.46,0,0,0,47.44,62.55Z" style="fill:#fbd2c5"/><path d="M45.38,58.41a5.58,5.58,0,0,1-.12-1c0-1.12-.07-2.19-.08-2.89a14.09,14.09,0,0,1-5.68,1.32,2.36,2.36,0,0,1-.38,0,2.48,2.48,0,0,1-.39,0,14.13,14.13,0,0,1-5.68-1.32c0,.7,0,1.77-.07,2.89a4.81,4.81,0,0,1-.13,1c1.81,1.51,4.26,3.07,5.88,3.07a1.9,1.9,0,0,0,.35,0h.08a1.87,1.87,0,0,0,.34,0C41.12,61.48,43.57,59.92,45.38,58.41Z" style="fill:#d29f97"/><path d="M55.19,36c.31-1.73.56-3,.63-3.31s.06-.25.1-.38l.09-.42c.06-.21.1-.43.15-.64s0-.2.05-.3.09-.47.12-.71,0-.21,0-.31.05-.42.08-.64a3.56,3.56,0,0,1,0-.47c0-.14,0-.28,0-.41a15,15,0,0,0-2.67-9.59c-2.59-3.62-5.56-7.46-12-8H36.39c-6.45.53-9.42,4.37-12,8a15,15,0,0,0-2.67,9.59c0,.13,0,.27,0,.41s0,.31.05.47,0,.43.07.64,0,.21,0,.31.09.48.12.71,0,.2.05.3.09.43.15.64.07.27.09.42.06.25.1.38.32,1.57.63,3.28c-1.72-.84-4.12.37-3.83,3.54s4.2,5.13,5.54,5.45a12.67,12.67,0,0,0,.33,1.23c1.18,3,2.6,3.84,5.1,6.25,2.72,2.61,6.74,5.06,8.72,5.05h.43c2,0,6-2.44,8.73-5.05,2.49-2.41,3.92-3.3,5.09-6.25A11.1,11.1,0,0,0,53.47,45c1.3-.29,5.3-2.21,5.6-5.46S56.92,35.11,55.19,36Z" style="fill:#fbd2c5"/><path d="M57.81,37.77a1.89,1.89,0,0,0-2.87-.57,1.64,1.64,0,0,0-.48,1.8c.13.53.68.57.54,1.37a1.42,1.42,0,0,1-.81,1.15,1.79,1.79,0,0,0-.68.73,2,2,0,0,0-.1,1.11c.15.65,1.1.15,1.72-.13a12.88,12.88,0,0,0,2.08-1.65,3.6,3.6,0,0,0,.6-3.81" style="fill:#e9b7ac"/><path d="M31,35.64a.44.44,0,0,1-.5.35.43.43,0,0,1-.43-.43.47.47,0,0,1,.93.08Z" style="fill:#fff"/><path d="M20.47,37.77a1.89,1.89,0,0,1,2.87-.57,1.64,1.64,0,0,1,.48,1.8c-.13.53-.69.57-.54,1.37a1.41,1.41,0,0,0,.8,1.15,1.73,1.73,0,0,1,.68.73,2,2,0,0,1,.1,1.11c-.15.65-1.09.15-1.72-.13a12.81,12.81,0,0,1-2.07-1.65,3.58,3.58,0,0,1-.6-3.81" style="fill:#e9b7ac"/><path d="M53.35,14.45,52.92,14c.19-1.28-.47-2.95-4-4.4a13.79,13.79,0,0,1,1.95,2.68,28.42,28.42,0,0,0-5.07-3c4.25-2.29,7.88,1.76,7.88,1.76-2-6.47-8.92-3.54-10.79-2.61l-.2-.09c5.06-6.07-3.29-7-3.29-7C45.5,3.15,41.5,6.8,40.58,7.56L40.4,7.5C40.42,1,33.09,0,33.09,0c6.15,2.37,3.27,6.42,2.74,7.09l-.32.06c-3.18-.51-2.13-4.6-2.13-4.6a5.19,5.19,0,0,0-1.82,6.38h0l-.5.22a15.87,15.87,0,0,1-3.2-.82,10.53,10.53,0,0,0,1.88,1.52,10.81,10.81,0,0,0-2.23,1.83,15.63,15.63,0,0,1-4.79-.59,11.14,11.14,0,0,0,3.56,2c-.33.42-.63.81-1,1.19a15.52,15.52,0,0,1-4.84.45,11.63,11.63,0,0,0,3.12,1.11,5.83,5.83,0,0,1-1.28.59c-3.91,1.27-5-.36-5-.36S19,19,22,19h.54a30.6,30.6,0,0,0-1.14,4,15.33,15.33,0,0,1-3,.78,11.68,11.68,0,0,0,2.8.4,1.49,1.49,0,0,1,0,.21c-.22,2.33.47,3.93.68,8.29C22,36.36,23,34.45,24.21,37.2a5.89,5.89,0,0,1,.42,2c.44.11,1.59-2.24.76-6.33a12.49,12.49,0,0,1,1.21-6.17,10.38,10.38,0,0,1,.54-1.13h0l.2-.34c.25,7.85,4.56,16,4.56,16C29,25.78,37.34,22.61,37.34,22.61v0a7.82,7.82,0,0,0,5.72,4.45l11.1,1.61a18.72,18.72,0,0,1,0,3.51c-.58,6.76.52,6.72.52,6.72.33,0,0-1.81,1.08-3s2.77-5.42,2.77-9.6S57.09,18.4,53.35,14.45ZM45.19,9.69l.06,0,.38.36Z" style="fill:#faa830"/><path d="M60.89,77.89s0-1.22-.06-2.61c0-.7,0-1.44-.09-2.09a16.19,16.19,0,0,0-.14-1.65.5.5,0,0,0-.05-.19,9.77,9.77,0,0,1-.17-1.29A3.61,3.61,0,0,0,59.72,68a7.41,7.41,0,0,0-2-1.7s-.74-.24-1.8-.59h0c-.69-.23-1.53-.5-2.4-.8-.34-.12-.67-.24-1-.35l-.06,0C39,72.73,30,66.6,27.14,64l-2,.69a2.67,2.67,0,0,0-.26.09l-2.56.86h0c-1.05.35-1.76.57-1.79.59A7.41,7.41,0,0,0,18.5,68a3.69,3.69,0,0,0-.66,2.09,9,9,0,0,1-.17,1.25h0v0a.3.3,0,0,0,0,.15h0v0c-.05.31-.1.93-.14,1.65s-.06,1.39-.09,2.09c0,1.39-.06,2.61-.06,2.61,0,.32,0,.65,0,1H60.9C60.9,78.54,60.9,78.21,60.89,77.89Z" style="fill:#0c4946"/><path d="M49.92,63.6l-1.38-.54L48.41,63c-.38-.17-.71-.32-1-.46-.31.19-.61.35-.91.51a15.63,15.63,0,0,1-4.43,1.66,14.65,14.65,0,0,1-5.28,0,15.53,15.53,0,0,1-4.52-1.66c-.45-.25-.84-.49-1.17-.71a9.31,9.31,0,0,1-1,.52l-.45.19-.82.33L27.14,64C30,66.6,39,72.73,52.37,64.5Z" style="fill:#157370"/><path d="M40.08,41.87a.32.32,0,0,1-.31.56,2.52,2.52,0,0,0-2.11-.36.62.62,0,0,0-.29.23.46.46,0,0,0-.06.29c0,.34.36.75,1.08,1.16a.32.32,0,0,1,.12.43.24.24,0,0,1-.08.09h0c-.61.5-.83.93-.79,1.25a.47.47,0,0,0,.2.35.87.87,0,0,0,.5.2,2.06,2.06,0,0,0,1.84-.93.32.32,0,0,1,.45-.06.33.33,0,0,1,.06.45,2.71,2.71,0,0,1-2.42,1.18,1.63,1.63,0,0,1-.84-.34,1.18,1.18,0,0,1-.43-.78,1.89,1.89,0,0,1,.7-1.52,2.15,2.15,0,0,1-1-1.41,1.09,1.09,0,0,1,.17-.71,1.25,1.25,0,0,1,.56-.47A3.16,3.16,0,0,1,40.08,41.87Z" style="fill:#3a2018;fill-rule:evenodd"/><path d="M34.17,37.74a.64.64,0,1,1,1.25.29c0,.15,0,.15,0,.14-.23,1-.92,4.1-4,4.28s-3.4-2.9-3.49-4.19l0-.21a.64.64,0,0,1,1.27-.11c0,.16,0,.19,0,.23.07.92.24,3.12,2.14,3,2.09-.12,2.62-2.49,2.79-3.28Z" style="fill:#3a2018;fill-rule:evenodd"/><path d="M26.27,38.5a.32.32,0,1,1,0-.63l2-.13a.33.33,0,0,1,.34.3.32.32,0,0,1-.3.34Z" style="fill:#3a2018;fill-rule:evenodd"/><path d="M26.62,40.68a.32.32,0,0,1-.4-.21.31.31,0,0,1,.21-.4l2.11-.67a.32.32,0,0,1,.19.61Z" style="fill:#3a2018;fill-rule:evenodd"/><path d="M27.66,42.61a.32.32,0,1,1-.36-.52l2-1.42a.33.33,0,0,1,.45.08.32.32,0,0,1-.08.45Z" style="fill:#3a2018;fill-rule:evenodd"/><path d="M43.32,38a.65.65,0,0,1,.48-.77.64.64,0,0,1,.77.48,1,1,0,0,1,0,.15c.18.79.7,3.16,2.79,3.28,1.91.12,2.07-2.08,2.14-3a1.45,1.45,0,0,0,0-.23.65.65,0,0,1,.7-.58.63.63,0,0,1,.57.69v.21c-.1,1.29-.33,4.38-3.49,4.19s-3.73-3.25-4-4.28Z" style="fill:#3a2018;fill-rule:evenodd"/><path d="M52.52,37.87a.31.31,0,0,1,.29.34.31.31,0,0,1-.33.29l-2-.12a.32.32,0,0,1-.3-.34.32.32,0,0,1,.34-.3Z" style="fill:#3a2018;fill-rule:evenodd"/><path d="M52.32,40.07a.32.32,0,0,1,.21.4.33.33,0,0,1-.41.21L50,40a.32.32,0,0,1-.21-.4.33.33,0,0,1,.4-.21Z" style="fill:#3a2018;fill-rule:evenodd"/><path d="M51.45,42.09a.32.32,0,0,1,.08.44.32.32,0,0,1-.45.08l-2-1.41a.33.33,0,0,1-.08-.45.33.33,0,0,1,.45-.08Z" style="fill:#3a2018;fill-rule:evenodd"/><path d="M31.33,43.82c-3.54.18-3.4,2.38.15,2.21S34.88,43.64,31.33,43.82Z" style="fill:#dc98ab;fill-rule:evenodd"/><path d="M46.77,43.82c3.55.18,3.41,2.38-.14,2.21S43.23,43.64,46.77,43.82Z" style="fill:#dc98ab;fill-rule:evenodd"/></g></g></svg>