<svg id="Layer_1" data-name="Layer 1" xmlns="http://www.w3.org/2000/svg" viewBox="0 0 78.88 78.88"><title>officeAndAdminEmmaSatoSVG</title><rect width="78.88" height="78.88" style="fill:#faa830"/><ellipse cx="41.91" cy="41.82" rx="17.06" ry="16.73" style="fill:#662a37"/><path d="M344.63,279.27s-.11-6.1-.35-6.63c-.46-2.13.37-3.1-2.92-5.15l-1.82-.59,0,0-2.42-.8c-.34-.12-.69-.25-1-.36-.87-.31-1.74-.62-2.54-.93-.56-.21-1.08-.41-1.53-.6s-.72-.32-1-.46a2.69,2.69,0,0,1-.59-.39s0,0-.08-.09l-.08-.1a21.39,21.39,0,0,1-1.34-3.6h0a5.91,5.91,0,0,1-.12-1c0-.49,0-1,0-1.42s0-.88,0-1.22v-.29c0-.24,0-.44,0-.59s0-.25,0-.25l.87-.75c.64-.59,1.57-1.42,2.36-2.22a9.34,9.34,0,0,0,1.77-2.11.49.49,0,0,0,0-.15h-.06c-.41.06-2.58.44-4.92.81-1.39.22-2.85.43-4,.58-.47.07-.9.1-1.26.14h0a7.23,7.23,0,0,1-.84.05c-.24,0-.57,0-1-.05h0l-1.33-.16c-1.09-.14-2.39-.33-3.65-.52l-3.2-.52-.59-.1-1.4-.24a1.58,1.58,0,0,0,.4.74,0,0,0,0,0,0,0c.19.25.44.54.74.87l.94.94c1,1,2.09,1.93,2.62,2.39l.31.27s0,.09,0,.25,0,.35,0,.59v.29c0,.1,0,.2,0,.3,0,.66,0,1.48-.07,2.34a5.91,5.91,0,0,1-.12,1,21.63,21.63,0,0,1-1.34,3.61l-.08.1s-.06.08-.08.09a1.33,1.33,0,0,1-.24.19c-.24.14-.58.32-1,.52s-.81.35-1.29.53c-1.12.44-2.46.92-3.74,1.36l-.27.08-2.59.88h0l-1.81.59c-3.27,2-2.47,3-2.92,5.11h0v0a.39.39,0,0,0,0,.15h0c-.22,1.11-.31,6.47-.31,6.47,0,.32,0,.66,0,1h44.16C344.64,279.93,344.63,279.59,344.63,279.27Z" transform="translate(-280.65 -201.39)" style="fill:#fbd2c5"/><path d="M328.91,259.54a5.8,5.8,0,0,1-.12-1c0-1.14-.07-2.23-.08-2.94a14.19,14.19,0,0,1-5.76,1.34,2.3,2.3,0,0,1-.38,0,2.42,2.42,0,0,1-.39,0,14.19,14.19,0,0,1-5.76-1.34c0,.71,0,1.8-.07,2.94a5.82,5.82,0,0,1-.13,1c1.83,1.53,4.31,3.11,6,3.11a1.88,1.88,0,0,0,.34,0h.09a1.83,1.83,0,0,0,.34,0C324.6,262.65,327.08,261.07,328.91,259.54Z" transform="translate(-280.65 -201.39)" style="fill:#d29f97"/><path d="M338.85,236.83c.32-1.75.56-3.09.64-3.35s.06-.26.1-.38l.09-.43c.06-.22.1-.43.15-.65s0-.2.05-.3.09-.48.13-.72,0-.22,0-.32.05-.43.07-.64,0-.33.05-.48,0-.28,0-.42a15.17,15.17,0,0,0-2.71-9.72c-2.62-3.66-5.63-7.55-12.17-8.09h-5.51c-6.54.54-9.55,4.43-12.17,8.09a15.17,15.17,0,0,0-2.71,9.72c0,.14,0,.28,0,.42s0,.31.05.48,0,.43.07.64,0,.22,0,.32.09.48.13.72,0,.2.05.3.09.43.15.65.07.28.09.43.06.25.1.38.32,1.59.64,3.33c-1.75-.86-4.17.36-3.88,3.58s4.26,5.19,5.62,5.52a8.85,8.85,0,0,0,.33,1.24c1.19,3,2.63,3.9,5.16,6.34,2.76,2.64,6.83,5.12,8.84,5.11h.43c2,0,6.08-2.47,8.84-5.11,2.53-2.44,4-3.34,5.16-6.34a10.24,10.24,0,0,0,.33-1.23c1.31-.3,5.36-2.24,5.67-5.53S340.6,235.93,338.85,236.83Z" transform="translate(-280.65 -201.39)" style="fill:#fbd2c5"/><path d="M341.5,238.63a1.91,1.91,0,0,0-2.91-.58,1.65,1.65,0,0,0-.48,1.82c.13.53.69.58.54,1.39a1.4,1.4,0,0,1-.81,1.16,1.78,1.78,0,0,0-.69.74,2,2,0,0,0-.1,1.13c.15.66,1.11.15,1.74-.14a12.62,12.62,0,0,0,2.1-1.67,3.62,3.62,0,0,0,.61-3.85" transform="translate(-280.65 -201.39)" style="fill:#e9b7ac"/><path d="M303.67,238.63a1.91,1.91,0,0,1,2.91-.58,1.65,1.65,0,0,1,.49,1.82c-.14.53-.69.58-.55,1.39a1.42,1.42,0,0,0,.82,1.16,1.82,1.82,0,0,1,.68.74,1.93,1.93,0,0,1,.1,1.13c-.15.66-1.1.15-1.74-.14a12.62,12.62,0,0,1-2.1-1.67,3.66,3.66,0,0,1-.61-3.85" transform="translate(-280.65 -201.39)" style="fill:#e9b7ac"/><path d="M345.62,218.15a1.3,1.3,0,0,1-.32.42,4.7,4.7,0,0,0,.32-.42c-.35.22-.68.42-1,.59-6.05,3.28-7.74-2.48-7.74-2.48.63-5.43,7.13-5.35,7.13-5.35s-5.52-2.72-7.65,2.6a11.16,11.16,0,0,1,1.24-5.64,5.32,5.32,0,0,0-3.93,4.29,5.13,5.13,0,0,1,.06-5.19l-8.46,3.42c1.1-.88,2.82-2.52,2.82-2.52a42.28,42.28,0,0,0-6.68,1.44,16.47,16.47,0,0,0-5.5,2.95l0-2.43a74.13,74.13,0,0,0-8.06,6.71c-3.91,3.8-5.42,7.38-5.42,11.4s1.76,8.05,2.91,9.25.78,2.93,1.13,2.93c0,0,.83,0,.7-3.93.46-4.5,2.5-6.3,3.63-7,2-1.08,5-1.27,9.54,1.06h0c2.79,1.66,3.91-.54,7.85-1.64,6.72-1.89,9.5,3.06,8.94,5.61-.87,3.94.34,6.2.8,6.09a5.35,5.35,0,0,1,.43-1.88c1.25-2.66,2.29-.81,2.48-4.41.22-4.21.95-5.75.71-8a19.9,19.9,0,0,0-.93-3.85A4.87,4.87,0,0,0,345.62,218.15Z" transform="translate(-280.65 -201.39)" style="fill:#662a37"/><path d="M308.76,246.13a1.1,1.1,0,1,1-1.09-1.09A1.09,1.09,0,0,1,308.76,246.13Z" transform="translate(-280.65 -201.39)" style="fill:#353839"/><rect x="34.64" y="69.7" width="14.14" height="9.17" style="fill:#36aeaf"/><path d="M314,260.19c-1.15,3.36-5.59,5.36-6.27,5.64l-.15.06a2.29,2.29,0,0,0-.28.09c-1,.33-1.94.63-2.71.87h0l-1.89.6c-3.4,2-2.57,3-3,5.13h0v0a.61.61,0,0,0,0,.15h0a13.33,13.33,0,0,0-.15,1.56h6.27a26.12,26.12,0,0,0-1.29,5.93h15.91V266.58A6.39,6.39,0,0,0,314,260.19Z" transform="translate(-280.65 -201.39)" style="fill:#46423e"/><path d="M331.1,260.19c1.15,3.36,5.59,5.36,6.27,5.64l.16.06.27.09c1,.33,1.94.63,2.71.87h0l1.89.6c3.4,2,2.57,3,3,5.13h0v0a1.27,1.27,0,0,1,0,.15h0c.05.29.1.86.14,1.56h-6.27a26.12,26.12,0,0,1,1.29,5.93H324.75V266.58A6.39,6.39,0,0,1,331.1,260.19Z" transform="translate(-280.65 -201.39)" style="fill:#46423e"/><path d="M338.1,246.1A1.09,1.09,0,1,1,337,245,1.09,1.09,0,0,1,338.1,246.1Z" transform="translate(-280.65 -201.39)" style="fill:#353839"/><path d="M313,241.17a.64.64,0,0,1-1.28,0,5.22,5.22,0,0,1,1.19-3.46,2.67,2.67,0,0,1,1.51-.82,2.8,2.8,0,0,1,1.7.28,5.65,5.65,0,0,1,2.49,3,.65.65,0,0,1-.36.84.64.64,0,0,1-.83-.36,4.36,4.36,0,0,0-1.87-2.36,1.5,1.5,0,0,0-.93-.16,1.38,1.38,0,0,0-.79.44A4,4,0,0,0,313,241.17Z" transform="translate(-280.65 -201.39)" style="fill:#3a2018;fill-rule:evenodd"/><path d="M332.78,241.13a.64.64,0,0,1-.62.66.64.64,0,0,1-.65-.62,4,4,0,0,0-.84-2.62,1.38,1.38,0,0,0-.79-.44,1.5,1.5,0,0,0-.93.16,4.4,4.4,0,0,0-1.87,2.36.64.64,0,0,1-.83.36.65.65,0,0,1-.35-.84,5.6,5.6,0,0,1,2.48-3,2.8,2.8,0,0,1,1.7-.28,2.67,2.67,0,0,1,1.51.82A5.17,5.17,0,0,1,332.78,241.13Z" transform="translate(-280.65 -201.39)" style="fill:#3a2018;fill-rule:evenodd"/><path d="M318.62,242.64c2.7.89,4.67.67,7.42.18-.3,1.36-1.65,4.12-4,4.12S318.81,244,318.62,242.64Z" transform="translate(-280.65 -201.39)" style="fill:#3a2018;fill-rule:evenodd"/><path d="M313.75,242.22c-3.34.4-3.06,2.48.29,2.08S317.1,241.82,313.75,242.22Z" transform="translate(-280.65 -201.39)" style="fill:#dc98ab;fill-rule:evenodd"/><path d="M331,242.22c3.34.4,3.06,2.48-.28,2.08S327.63,241.82,331,242.22Z" transform="translate(-280.65 -201.39)" style="fill:#dc98ab;fill-rule:evenodd"/><path d="M312.31,235.3a.49.49,0,0,1-.67-.1.48.48,0,0,1,.09-.67,5.67,5.67,0,0,1,2.35-1.14,5.35,5.35,0,0,1,3.34.51.48.48,0,0,1-.39.87,4.54,4.54,0,0,0-2.77-.44A4.72,4.72,0,0,0,312.31,235.3Z" transform="translate(-280.65 -201.39)" style="fill:#3a2018;fill-rule:evenodd"/><path d="M332.81,234.53a.48.48,0,0,1,.09.67.49.49,0,0,1-.67.1,4.6,4.6,0,0,0-2-1,4.54,4.54,0,0,0-2.77.44.48.48,0,0,1-.39-.87,5.35,5.35,0,0,1,3.34-.51A5.73,5.73,0,0,1,332.81,234.53Z" transform="translate(-280.65 -201.39)" style="fill:#3a2018;fill-rule:evenodd"/><path d="M322.16,243.88c4.35,0,1.35,2.69-.13,2.69C320.71,246.57,317.89,243.87,322.16,243.88Z" transform="translate(-280.65 -201.39)" style="fill:#cb4f41;fill-rule:evenodd"/></svg>