<svg id="Layer_1" data-name="Layer 1" xmlns="http://www.w3.org/2000/svg" viewBox="0 0 78.88 78.88"><title>officeAndAdmin4SophiaSuzukiSVG</title><rect width="78.88" height="78.88" style="fill:#c1636d"/><path d="M336.74,261.89a8.39,8.39,0,0,0,4.06.47.88.88,0,0,1,0-.16c-9-1.19-2-17.48-8-21.88l-5.93,10.84c.3,2.81-1.42,3.6-1.5,6.29l-2.6-.17-4.63.17c.22-3.16-3.68-2.88-3.33-6.29l-5.93-10.84c-5.88,4.34.75,20.23-7.64,21.82a1.93,1.93,0,0,1,0,.24,7.79,7.79,0,0,0,3.68-.49c-6.15,2.58-4.12,9.17-2.5,14.32-.57-3.94,1.55-5.71,4-7.4l14.26,8.65,13.67-9.29c2.81,1.91,5.58,3.61,4.94,8C340.85,271.06,342.89,264.47,336.74,261.89Z" transform="translate(-280.53 -201.39)" style="fill:#f7f8f9"/><path d="M341.08,279.34a61.14,61.14,0,0,0-.32-6.12c-.43-2,.34-2.87-2.7-4.76,0,0-.69-.23-1.68-.55,0,0,0,0,0,0-.65-.21-1.43-.46-2.25-.74-.32-.11-.63-.23-1-.33-1.37-.48-2.75-1-3.76-1.42a5.8,5.8,0,0,1-1.47-.78.38.38,0,0,0-.07-.08.61.61,0,0,0-.07-.1,20.35,20.35,0,0,1-1.24-3.33h0a5,5,0,0,1-.11-.94c0-.45,0-.91,0-1.32s0-.8,0-1.12v-.27c0-.22,0-.41,0-.55s0-.22,0-.22l.81-.7c.6-.54,1.45-1.31,2.19-2a8.59,8.59,0,0,0,1.63-2,.5.5,0,0,0,0-.14h-.06c-.37.06-2.39.41-4.55.75-1.29.2-2.63.4-3.73.54l-1.17.12h0a6.38,6.38,0,0,1-.79.05c-.22,0-.52,0-.88-.05h0l-1.23-.15c-1-.13-2.21-.3-3.37-.48l-3-.48-.54-.09-1.3-.22a1.54,1.54,0,0,0,.37.69h0c.17.23.41.5.69.81l.86.86c.93.9,1.93,1.79,2.42,2.21l.29.26s0,.08,0,.22,0,.33,0,.55v.27a2.62,2.62,0,0,1,0,.28c0,.61,0,1.37-.06,2.16a5,5,0,0,1-.12.94,18.78,18.78,0,0,1-1.24,3.34.61.61,0,0,1-.07.1s-.05.07-.07.08a5.12,5.12,0,0,1-1.15.66c-1.16.51-3,1.16-4.66,1.74l-.24.08-2.4.81h0c-1,.32-1.65.53-1.68.55-3,1.88-2.28,2.78-2.7,4.72h0v0a.61.61,0,0,0,0,.14h0c-.2,1-.28,6-.28,6,0,.3,0,.61,0,.93h40.82C341.09,280,341.09,279.64,341.08,279.34Z" transform="translate(-280.53 -201.39)" style="fill:#fbd2c5"/><path d="M326.55,261.1a5.92,5.92,0,0,1-.12-.93c0-1.06-.05-2.06-.07-2.72a13,13,0,0,1-5.32,1.24,2.06,2.06,0,0,1-.36,0,1.94,1.94,0,0,1-.35,0,13.07,13.07,0,0,1-5.33-1.24c0,.66,0,1.66-.07,2.72a4.92,4.92,0,0,1-.11.93c1.69,1.42,4,2.88,5.51,2.88a1.62,1.62,0,0,0,.32,0h.07a1.62,1.62,0,0,0,.32,0C322.56,264,324.86,262.52,326.55,261.1Z" transform="translate(-280.53 -201.39)" style="fill:#d29f97"/><path d="M335.74,240.11c.29-1.62.52-2.86.59-3.1s.06-.24.09-.35.06-.27.09-.4.09-.4.14-.6,0-.19,0-.28.09-.44.12-.67,0-.19,0-.29,0-.4.07-.59,0-.31,0-.45,0-.26,0-.38a14,14,0,0,0-2.51-9c-2.42-3.39-5.2-7-11.25-7.48h-5.1c-6,.5-8.82,4.09-11.25,7.48a14,14,0,0,0-2.5,9c0,.12,0,.25,0,.38a3.1,3.1,0,0,1,.05.45c0,.19,0,.39.07.59s0,.2,0,.29.08.45.11.67a2.74,2.74,0,0,1,.05.28c0,.2.08.4.14.6s.06.25.08.4.06.23.1.35.29,1.47.58,3.07c-1.61-.79-3.85.34-3.58,3.31s3.94,4.81,5.19,5.11a10.51,10.51,0,0,0,.31,1.15c1.1,2.77,2.43,3.6,4.77,5.86,2.55,2.44,6.32,4.73,8.17,4.72h.4c1.86,0,5.63-2.28,8.18-4.72,2.34-2.26,3.67-3.09,4.77-5.86a9.24,9.24,0,0,0,.3-1.14c1.22-.27,5-2.07,5.24-5.12S337.36,239.28,335.74,240.11Z" transform="translate(-280.53 -201.39)" style="fill:#fbd2c5"/><path d="M338.19,241.77a1.76,1.76,0,0,0-2.69-.53,1.51,1.51,0,0,0-.44,1.68c.12.49.63.53.5,1.28a1.31,1.31,0,0,1-.75,1.07,1.72,1.72,0,0,0-.64.69,1.82,1.82,0,0,0-.09,1c.14.6,1,.13,1.61-.13a11.78,11.78,0,0,0,1.94-1.55,3.35,3.35,0,0,0,.56-3.56" transform="translate(-280.53 -201.39)" style="fill:#e9b7ac"/><path d="M303.22,241.77a1.75,1.75,0,0,1,2.68-.53,1.5,1.5,0,0,1,.45,1.68c-.12.49-.63.53-.5,1.28a1.29,1.29,0,0,0,.75,1.07,1.72,1.72,0,0,1,.64.69,1.82,1.82,0,0,1,.09,1c-.14.6-1,.13-1.61-.13a11.78,11.78,0,0,1-1.94-1.55,3.35,3.35,0,0,1-.56-3.56" transform="translate(-280.53 -201.39)" style="fill:#e9b7ac"/><path d="M333.92,218.7a25,25,0,0,0-8.82-5.82l1.45,1.41a16.08,16.08,0,0,0-5-2.5l-.65-.19-.65.19a16.08,16.08,0,0,0-5,2.5l1.45-1.41a25,25,0,0,0-8.82,5.82c-3.57,3.93-4.94,7.61-4.94,11.76s1.6,8.3,2.65,9.53.71,3,1,3c0,0,1.06,0,.5-6.68a13.61,13.61,0,0,1,1.07-7.41,11.88,11.88,0,0,0,1.5,6.58c-.75-4.43,1.9-8,3.39-9.67a11.88,11.88,0,0,0,1.52,6.22,10.12,10.12,0,0,1,.94-6.07,11,11,0,0,1,3.39,1.77,4.71,4.71,0,0,0,.53.37c.36.26.87.65,1.46,1.17.59-.52,1.1-.91,1.46-1.17a4.71,4.71,0,0,0,.53-.37,11,11,0,0,1,3.39-1.77,10.2,10.2,0,0,1,1,6.07,12,12,0,0,0,1.52-6.22c1.49,1.63,4.13,5.24,3.38,9.67a11.88,11.88,0,0,0,1.5-6.58,13.69,13.69,0,0,1,1.08,7.41c-.57,6.73.49,6.68.49,6.68.31,0,0-1.79,1-3s2.65-5.38,2.65-9.53S337.5,222.63,333.92,218.7Z" transform="translate(-280.53 -201.39)" style="fill:#f7f8f9"/><path d="M336.82,277.24c-.55-3.34-3.72-4.12-3.87-10.65-1-.34-1.91-.69-2.72-1-9.34,9.69-18.77-.08-18.77-.08-.77.31-1.69.65-2.64,1-.11,6.63-3.31,7.4-3.87,10.76-.13.74-.26,2.1-.34,3h32.56C337.08,279.34,337,278,336.82,277.24Z" transform="translate(-280.53 -201.39)" style="fill:#1b1b17"/><path d="M304.66,227.72h-.15l.15.05Z" transform="translate(-280.53 -201.39)" style="fill:#1b1b17"/><path d="M312.68,228.57c-.62-.11-1.23-.23-1.81-.36.58.13,1.19.25,1.81.36a50.38,50.38,0,0,0,10.33.77A50.38,50.38,0,0,1,312.68,228.57Z" transform="translate(-280.53 -201.39)" style="fill:#1a1a1a"/><path d="M327.65,229c-1.58.21-3.13.33-4.64.38C324.52,229.29,326.07,229.17,327.65,229Z" transform="translate(-280.53 -201.39)" style="fill:#1a1a1a"/><path d="M309.17,227.82c-1.08-.26-2.09-.55-3-.83C307.08,227.27,308.09,227.56,309.17,227.82Z" transform="translate(-280.53 -201.39)" style="fill:#1a1a1a"/><path d="M302.79,225.81l-.8-.33h0Z" transform="translate(-280.53 -201.39)" style="fill:#1a1a1a"/><path d="M334.71,227.4a43.18,43.18,0,0,0,4.74-1.8l.41-.19h0l-.41.19A43.18,43.18,0,0,1,334.71,227.4Z" transform="translate(-280.53 -201.39)" style="fill:#1a1a1a"/><path d="M327.65,229q1.19-.17,2.4-.39a44.11,44.11,0,0,0,4.66-1.17,44.11,44.11,0,0,1-4.66,1.17Q328.84,228.8,327.65,229Z" transform="translate(-280.53 -201.39)" style="fill:#1a1a1a"/><path d="M339.86,225.41h0l-.41.19a43.18,43.18,0,0,1-4.74,1.8,44.11,44.11,0,0,1-4.66,1.17q-1.21.23-2.4.39c-1.58.21-3.13.33-4.64.38a50.38,50.38,0,0,1-10.33-.77c-.62-.11-1.23-.23-1.81-.36s-1.15-.25-1.7-.39c-1.08-.26-2.09-.55-3-.83-1.36-.42-2.5-.83-3.39-1.18l-.8-.33h0l-.17-.07c-1.09,0-7-.14-3.76,4.48,0,0,2.13,3.93,22.74,4.39,20.62-.46,22.75-4.39,22.75-4.39C346.7,225.38,341.13,225.36,339.86,225.41Z" transform="translate(-280.53 -201.39)" style="fill:#070606"/><path d="M337.48,223.6l.51-.2c-.49-2.29.34-12.28.34-12.28.71-5.37.06-6.43.06-6.43-.71-1.06-17.59-1-17.59-1s-16.88-.08-17.58,1c0,0-.65,1.06.06,6.43,0,0,.8,9.73.35,12.19l.41.15L302,226.34c1.52,2.69,27.36,3.87,27.36,3.87l10.51-2.9Z" transform="translate(-280.53 -201.39)" style="fill:#070606"/><path d="M302.79,225.81c.89.35,2,.76,3.39,1.18.9.28,1.91.57,3,.83.55.14,1.11.27,1.7.39s1.19.25,1.81.36a50.38,50.38,0,0,0,10.33.77c1.51-.05,3.06-.17,4.64-.38q1.19-.17,2.4-.39a44.11,44.11,0,0,0,4.66-1.17,43.18,43.18,0,0,0,4.74-1.8l.41-.19h-.24c-.58-2.57-1.62-2-1.62-2v-.06a40.92,40.92,0,0,1-6.39,2,47.92,47.92,0,0,1-20.61,0,52.65,52.65,0,0,1-7.36-2.11l0,.15s-1-.61-1.61,2v.06h0Z" transform="translate(-280.53 -201.39)" style="fill:#1a1a1a"/><path d="M326.37,248.37c.14,2.13-2.73,3.58-2.93.57a19.58,19.58,0,0,0-.25-2.73A5.75,5.75,0,0,1,326.37,248.37Z" transform="translate(-280.53 -201.39)" style="fill:#cb4f41;fill-rule:evenodd"/><path d="M315.24,248.47a.32.32,0,1,1-.46-.44,7.86,7.86,0,0,1,1-.86,8.52,8.52,0,0,1,5.55-1.66,8.36,8.36,0,0,1,5.37,2.29,8,8,0,0,1,.86,1,.32.32,0,0,1-.06.45.33.33,0,0,1-.45-.07,7.49,7.49,0,0,0-.79-.89,7.72,7.72,0,0,0-5-2.11,7.84,7.84,0,0,0-5.14,1.53A7.3,7.3,0,0,0,315.24,248.47Z" transform="translate(-280.53 -201.39)" style="fill:#3a2018;fill-rule:evenodd"/><path d="M322.88,246.27a.31.31,0,0,1,.25-.37.33.33,0,0,1,.38.25,13.44,13.44,0,0,1,.2,1.95c0,.23,0,.49.05.82a2.43,2.43,0,0,0,.09.58,1.22,1.22,0,0,0,.37.68.61.61,0,0,0,.46.15l.16,0a1.7,1.7,0,0,0,1-.8,2,2,0,0,0,.28-1.28.33.33,0,0,1,.28-.36.32.32,0,0,1,.36.28,2.61,2.61,0,0,1-.38,1.69,2.34,2.34,0,0,1-1.33,1.09l-.27,0a1.27,1.27,0,0,1-.92-.3,1.83,1.83,0,0,1-.58-1,4.12,4.12,0,0,1-.11-.7c0-.29,0-.57-.05-.83A12.1,12.1,0,0,0,322.88,246.27Z" transform="translate(-280.53 -201.39)" style="fill:#3a2018;fill-rule:evenodd"/><path d="M309.73,243a.64.64,0,0,1-.87-.26.63.63,0,0,1,.26-.86,6.83,6.83,0,0,1,3.65-.73,6.16,6.16,0,0,1,3.36,1.21.64.64,0,0,1-.79,1,4.93,4.93,0,0,0-2.66-.95A5.64,5.64,0,0,0,309.73,243Z" transform="translate(-280.53 -201.39)" style="fill:#3a2018;fill-rule:evenodd"/><path d="M319.16,248.25a.16.16,0,0,1-.23,0,.17.17,0,0,1,0-.23,3.15,3.15,0,0,1,2.25-.53.16.16,0,0,1,0,.32A2.76,2.76,0,0,0,319.16,248.25Z" transform="translate(-280.53 -201.39)" style="fill:#3a2018;fill-rule:evenodd"/><path d="M332.61,241.9A.64.64,0,0,1,332,243a5.68,5.68,0,0,0-3-.58,4.93,4.93,0,0,0-2.66.95.64.64,0,0,1-.79-1,6.17,6.17,0,0,1,3.37-1.21A6.81,6.81,0,0,1,332.61,241.9Z" transform="translate(-280.53 -201.39)" style="fill:#3a2018;fill-rule:evenodd"/><path d="M318,240a.32.32,0,0,1,.44.11.31.31,0,0,1-.11.43c-1.19.73-1.75.35-2.73-.31h0l-.11-.08c-.77-.51-1.71-1.22-2.67-1.95a30,30,0,0,0-4.49-3.05.32.32,0,0,1,.25-.59,30.12,30.12,0,0,1,4.62,3.13c1,.72,1.88,1.42,2.64,1.93l.12.08h0C316.76,240.26,317.2,240.55,318,240Z" transform="translate(-280.53 -201.39)" style="fill:#3a2018;fill-rule:evenodd"/><path d="M323.48,240.58a.3.3,0,0,1-.1-.43.31.31,0,0,1,.43-.11c.85.51,1.29.22,2-.3h0l.12-.08c.76-.51,1.69-1.21,2.64-1.93a30.62,30.62,0,0,1,4.63-3.13.32.32,0,0,1,.42.17.33.33,0,0,1-.18.42,30,30,0,0,0-4.48,3.05c-1,.73-1.9,1.44-2.67,1.95l-.12.08h0C325.24,240.93,324.67,241.31,323.48,240.58Z" transform="translate(-280.53 -201.39)" style="fill:#3a2018;fill-rule:evenodd"/></svg>