<svg id="Layer_1" data-name="Layer 1" xmlns="http://www.w3.org/2000/svg" viewBox="0 0 78.88 78.88"><title>officeAndAdminMikaTakahashiSVG</title><rect width="78.88" height="78.88" style="fill:#c1636d"/><path d="M344.93,236.44c.05-.85-2.73-.84-1.59-2.9,1-1.87.84-1.34-.76-3.55s.05-1.3.13-2.29-.12-1.45,0-2.6.72-.88.28-1.33a7,7,0,0,0-2.66-1.79c-.88-.17-.36-.46-.43-1.35s.07-1.06.87-1.86.11-1.56-.81-1.23-2,1.08-2.36.94-.24-1.85-.51-2.23-.65-.27-.94-.89.07-1.15.47-1.91,1.09-1.16.77-2.18-2.24.52-3.84,1.23a4.06,4.06,0,0,1-2.19.21c.17-.43.28-.9.44-1.23.35-.72.21-1,0-1.3s-1,.28-1.5.86c-.29.34-.82.41-1.53.56a1.17,1.17,0,0,1-.19-.2c-.63-1,.35-.52,1.62-2.26s-.47-1-2.17-.62-1.19,1.81-2.73,2.19a13.48,13.48,0,0,1-2.26.37c-1.16.18-1.24.11-1.63-.67s.32-1-.18-2.38c-.24-.66-1,0-2.28,2.11a2,2,0,0,1-.63.67,1.86,1.86,0,0,1-.28-.71c-.28-1.3-.43-1.45-.78-1.74s-.83,0-1,0-.43.73-.43.73c0,.67-.08,1.32,0,1.85l-.88-.11c-1.91-.15-1.21-1.7-2.06-2.44s-3.68,1.8-4.33,1.62-.89-1.23-2.61-.19.12,1.46-.15,2.06-1,.09-1.29-.46-2.18-.54-1.72.16-.08.9-.93,1.46.52,1.25,1.36,2.81-.75.53-1.37,1.5c-2.16,3.37-3.31,1.29-4,1.78s-.58,2.44.54,3.56.64.67.59,1.41c-.19,2.76-4.7,2.78-3.1,3.45,3.48,1.44,1.33,1.77,1.48,2.57s-1.78.71-1.4,1.4,2.26,3.38.35,3.06,1.24,3.55,1.48,3.69a3.36,3.36,0,0,1,.79,1.8c-.14.26.34.38.64,1.16s-2.07,1.16-1.81,2.76c.13.78,1.57.65,2.37,1.64s-.7,1.47.66,1.68.74.42,1,.8-.88.73-.78,1,1.28.29.93.82-2.09,1.4-.51,1.42.58.44.7.83,3.42.43,1.93,1.54.27.38,1.91.24.13.55.15.8.07.8,1.44,1.25.34.3.07.81.67,1.48,1.62.58,1.3-.44,1.37.37.19.4-.86,1,.78,1.19,1.11,1c1.61-.9,1.76-1.62,2.33-1.31.3.16.22.62-.11,1.09s-1.36.87-.7,1.16a2,2,0,0,0,1.82,0c.71-.29,1.41-.07,1.79-.94.15-.36.43.36.59.89s.53,1,1.23.58a36,36,0,0,1,7.31-1.47c.39,0,1.18,1.48,3,.75.78-.33,0-1.09-.1-1.4s.38-1,1.71-1.14.46.68,1.36,1.1c1.48.69,1.11-1.73.85-2s-.17-.36.06-.86a4.72,4.72,0,0,1,1.27.87c.21.29.63.65,1,0s.28-.44,0-1.16.77-1.4,1.64-1.48.18.69,2-.07c1.1-.46.76-.66.72-1.07s-.24-.38-.37-.89l.14,0a1.34,1.34,0,0,0,1.4-1.27,1.17,1.17,0,0,0-.11-.49h.14c.86-.08,2.25-.2,1.64-1.27a4.36,4.36,0,0,1-.45-1.26c.61,0,1.1-.34,1.1-.72a.58.58,0,0,0-.24-.42c.43-.15.73-.44.73-.78,0-.5-.43-1.45-.15-1.8s2.13-.14,2.14-.72c0-1.27-1.22-1.89-1.59-2.51a3.34,3.34,0,0,1,.37-2.81c.59-1.14,1.8-.72,1.88-1.94" transform="translate(-280.9 -201.39)" style="fill:#353839"/><path d="M341.45,279.34s-.1-5.63-.32-6.12c-.43-2,.34-2.87-2.7-4.76,0,0-.69-.23-1.68-.55l0,0-2.24-.74c-.32-.11-.63-.23-1-.33-1.37-.48-2.75-1-3.77-1.42a5.87,5.87,0,0,1-1.46-.78.38.38,0,0,0-.07-.08s-.05-.06-.07-.1a19.42,19.42,0,0,1-1.24-3.33h0a6,6,0,0,1-.12-.94c0-.45,0-.91,0-1.32s0-.8,0-1.12v-.27c0-.22,0-.41,0-.55s0-.22,0-.22l.81-.7c.59-.54,1.45-1.31,2.18-2a8.44,8.44,0,0,0,1.64-2,1.15,1.15,0,0,0,0-.14h-.05c-.38.06-2.39.41-4.55.75-1.29.2-2.63.4-3.73.54l-1.17.12h0a6.38,6.38,0,0,1-.79.05c-.22,0-.52,0-.89-.05h0l-1.23-.15c-1-.13-2.21-.3-3.38-.48l-3-.48-.53-.09-1.3-.22a1.54,1.54,0,0,0,.37.69h0q.27.35.69.81c.27.28.57.57.87.86.92.9,1.93,1.79,2.42,2.21l.29.26s0,.08,0,.22,0,.33,0,.55v.27a2.62,2.62,0,0,1,0,.28c0,.61,0,1.37-.06,2.16a5,5,0,0,1-.12.94,18.78,18.78,0,0,1-1.24,3.34.61.61,0,0,1-.07.1l-.07.08a5,5,0,0,1-1.16.66c-1.15.51-3,1.16-4.65,1.74l-.25.08-2.39.81h0c-1,.32-1.64.53-1.67.55-3,1.88-2.28,2.78-2.7,4.72h0v0a.61.61,0,0,0,0,.14h0c-.2,1-.29,6-.29,6v.93h40.82C341.46,280,341.45,279.64,341.45,279.34Z" transform="translate(-280.9 -201.39)" style="fill:#fbd2c5"/><path d="M326.92,261.1a4.94,4.94,0,0,1-.12-.93c0-1.06-.06-2.06-.07-2.72a13,13,0,0,1-5.32,1.24,2.06,2.06,0,0,1-.36,0,2.11,2.11,0,0,1-.36,0,13.06,13.06,0,0,1-5.32-1.24c0,.66,0,1.66-.07,2.72a4.92,4.92,0,0,1-.11.93c1.69,1.42,4,2.88,5.5,2.88a1.72,1.72,0,0,0,.32,0h.08a1.62,1.62,0,0,0,.32,0C322.93,264,325.22,262.52,326.92,261.1Z" transform="translate(-280.9 -201.39)" style="fill:#d29f97"/><path d="M336.11,240.11c.29-1.62.52-2.86.59-3.1l.09-.35c0-.15.06-.27.08-.4s.1-.4.14-.6a2.74,2.74,0,0,0,.05-.28l.12-.67,0-.29c0-.2.05-.4.07-.59s0-.31.05-.45,0-.26,0-.38a13.92,13.92,0,0,0-2.5-9c-2.42-3.39-5.2-7-11.25-7.48h-5.1c-6,.5-8.83,4.09-11.25,7.48a14,14,0,0,0-2.5,9c0,.12,0,.25,0,.38a3.1,3.1,0,0,1,.05.45c0,.19,0,.39.07.59l0,.29c0,.23.09.45.12.67s0,.19,0,.28.08.4.14.6.06.25.08.4a3.58,3.58,0,0,1,.09.35c.07.24.3,1.47.59,3.07-1.61-.79-3.85.34-3.58,3.31s3.93,4.81,5.19,5.11a8.59,8.59,0,0,0,.31,1.15c1.1,2.77,2.43,3.6,4.77,5.86,2.55,2.44,6.31,4.73,8.17,4.72h.4c1.86,0,5.63-2.28,8.17-4.72,2.34-2.26,3.68-3.09,4.78-5.86a11.57,11.57,0,0,0,.3-1.14c1.21-.27,5-2.07,5.24-5.12S337.72,239.28,336.11,240.11Z" transform="translate(-280.9 -201.39)" style="fill:#fbd2c5"/><path d="M338.56,241.77a1.76,1.76,0,0,0-2.69-.53,1.53,1.53,0,0,0-.45,1.68c.12.49.64.53.51,1.28a1.32,1.32,0,0,1-.76,1.07,1.7,1.7,0,0,0-.63.69,1.92,1.92,0,0,0-.1,1c.14.6,1,.13,1.61-.13a12.28,12.28,0,0,0,1.95-1.55,3.35,3.35,0,0,0,.56-3.56" transform="translate(-280.9 -201.39)" style="fill:#e9b7ac"/><path d="M303.58,241.77a1.76,1.76,0,0,1,2.69-.53,1.5,1.5,0,0,1,.45,1.68c-.12.49-.64.53-.5,1.28a1.29,1.29,0,0,0,.75,1.07,1.72,1.72,0,0,1,.64.69,1.91,1.91,0,0,1,.09,1c-.14.6-1,.13-1.61-.13a11.78,11.78,0,0,1-1.94-1.55,3.38,3.38,0,0,1-.57-3.56" transform="translate(-280.9 -201.39)" style="fill:#e9b7ac"/><path d="M334.29,218.7a25,25,0,0,0-8.82-5.82l1.45,1.41a16.08,16.08,0,0,0-5-2.5l-.65-.19-.65.19a16.28,16.28,0,0,0-5,2.5l1.46-1.41a25.12,25.12,0,0,0-8.83,5.82c-3.57,3.93-4.94,7.61-4.94,11.76s1.61,8.3,2.65,9.53.72,3,1,3c0,0,1.05,0,.49-6.68a13.69,13.69,0,0,1,1.08-7.41,11.92,11.92,0,0,0,1.49,6.58c-.74-4.43,1.9-8,3.39-9.67a12,12,0,0,0,1.52,6.22,10.2,10.2,0,0,1,.95-6.07,11,11,0,0,1,3.39,1.77,4,4,0,0,0,.53.37c.36.26.87.65,1.46,1.17.59-.52,1.1-.91,1.46-1.17a4.71,4.71,0,0,0,.53-.37,10.88,10.88,0,0,1,3.39-1.77,10.12,10.12,0,0,1,.94,6.07,11.88,11.88,0,0,0,1.52-6.22c1.49,1.63,4.14,5.24,3.39,9.67a11.88,11.88,0,0,0,1.5-6.58,13.61,13.61,0,0,1,1.07,7.41c-.56,6.73.49,6.68.49,6.68.32,0,0-1.79,1-3s2.65-5.38,2.65-9.53S337.86,222.63,334.29,218.7Z" transform="translate(-280.9 -201.39)" style="fill:#353839"/><path d="M305,227.72h-.14l.14.05Z" transform="translate(-280.9 -201.39)" style="fill:#1b1b17"/><path d="M336.74,246.06h0a.69.69,0,1,0-1.35-.28.68.68,0,0,0,.53.81.66.66,0,0,0,.48-.08,3.23,3.23,0,1,1-3.92,5.08c-.11.16-.21.33-.3.48a3.76,3.76,0,0,0,1.75.9,3.78,3.78,0,0,0,2.8-6.9Z" transform="translate(-280.9 -201.39)" style="fill:#fff"/><path d="M305.4,246.06h0a.69.69,0,1,1,.81.53.64.64,0,0,1-.47-.08,3.23,3.23,0,1,0,3.92,5.08l.3.48a3.76,3.76,0,0,1-1.75.9,3.79,3.79,0,0,1-2.81-6.9Z" transform="translate(-280.9 -201.39)" style="fill:#fff"/><path d="M337.19,277.24c-.55-3.34-3.72-4.12-3.87-10.65l-1.65-.6-7.49,9.31a3.6,3.6,0,0,1-5.6,0l-7.69-9.45c-.54.21-1.11.42-1.7.62-.11,6.63-3.32,7.4-3.87,10.76-.13.74-.26,2.1-.34,3h32.55C337.45,279.34,337.32,278,337.19,277.24Z" transform="translate(-280.9 -201.39)" style="fill:#7b3944"/><path d="M315.73,242.78c-.75,3.42-6,2.27-5.2-1.15S316.48,239.36,315.73,242.78Z" transform="translate(-280.9 -201.39)" style="fill:#fff;fill-rule:evenodd"/><path d="M331.43,242.78c-.75,3.42-5.95,2.27-5.2-1.15S332.19,239.36,331.43,242.78Z" transform="translate(-280.9 -201.39)" style="fill:#fff;fill-rule:evenodd"/><path d="M308.65,237.19a.48.48,0,0,1-.2-.64.47.47,0,0,1,.64-.2c.58.3,1.18.64,1.81,1,1.84,1.05,3.87,2.2,5.34,2.36a1.24,1.24,0,0,0,.6-.12,6.5,6.5,0,0,0,.81-.43.48.48,0,0,1,.66.17.48.48,0,0,1-.17.65,7.83,7.83,0,0,1-.94.5,2.16,2.16,0,0,1-1.06.18c-1.67-.18-3.79-1.39-5.72-2.48C309.79,237.82,309.19,237.47,308.65,237.19Z" transform="translate(-280.9 -201.39)" style="fill:#3a2018;fill-rule:evenodd"/><path d="M333.42,236.35a.48.48,0,1,1,.45.84c-.54.28-1.15.63-1.78,1-1.92,1.09-4,2.3-5.71,2.48a2.2,2.2,0,0,1-1.07-.18,7.73,7.73,0,0,1-.93-.5.48.48,0,1,1,.49-.82,6.5,6.5,0,0,0,.81.43,1.22,1.22,0,0,0,.6.12c1.47-.16,3.5-1.31,5.34-2.36C332.24,237,332.84,236.65,333.42,236.35Z" transform="translate(-280.9 -201.39)" style="fill:#3a2018;fill-rule:evenodd"/><path d="M316.26,244.23a56.15,56.15,0,0,1,9.26-.07l.63,5.65-10.4,0Z" transform="translate(-280.9 -201.39)" style="fill:#cb4f41;fill-rule:evenodd"/><path d="M316.26,244.23a56.15,56.15,0,0,1,9.26-.07l.18,1.65-9.59,0Z" transform="translate(-280.9 -201.39)" style="fill:#fff;fill-rule:evenodd"/><path d="M315.9,248.12A66.15,66.15,0,0,1,326,248l.2,1.77-10.4,0Z" transform="translate(-280.9 -201.39)" style="fill:#fff;fill-rule:evenodd"/><path d="M316,242.84a2.79,2.79,0,0,1-2.32,2.28,3.34,3.34,0,0,1-2.35-.52,2.76,2.76,0,0,1-1.15-3,2.79,2.79,0,0,1,2.31-2.28,3.18,3.18,0,0,1,1.23,0,3.33,3.33,0,0,1,1.13.48,2.76,2.76,0,0,1,1.15,3Zm-2.42,1.65a2.18,2.18,0,0,0,1.8-1.78,2.15,2.15,0,0,0-.89-2.37,2.49,2.49,0,0,0-.9-.39,2.76,2.76,0,0,0-1,0,2.33,2.33,0,0,0-.92,4.15,2.62,2.62,0,0,0,.91.39A2.76,2.76,0,0,0,313.62,244.49Z" transform="translate(-280.9 -201.39)" style="fill:#3a2018;fill-rule:evenodd"/><path d="M316.24,243.91c1.72-.15,3.19-.22,4.65-.22s2.94.05,4.65.15a.32.32,0,0,1,.29.29l.64,5.64a.31.31,0,0,1-.28.35h-.06l-10.38,0a.32.32,0,0,1-.32-.32v0l.51-5.6a.31.31,0,0,1,.3-.29Zm4.65.41c-1.37,0-2.75.07-4.34.2l-.45,5,9.69,0-.56-5C323.64,244.37,322.26,244.32,320.89,244.32Z" transform="translate(-280.9 -201.39)" style="fill:#3a2018;fill-rule:evenodd"/><path d="M310.5,245.22a.32.32,0,0,1-.34-.31.33.33,0,0,1,.31-.33,14.74,14.74,0,0,1,1.75,0,13.1,13.1,0,0,1,2,.33.32.32,0,0,1-.15.62,12.9,12.9,0,0,0-1.93-.32A11.72,11.72,0,0,0,310.5,245.22Z" transform="translate(-280.9 -201.39)" style="fill:#3a2018;fill-rule:evenodd"/><path d="M314.7,243.81a1.83,1.83,0,0,1-2,.74,2.08,2.08,0,0,1-.79-.45,2.63,2.63,0,0,1-.59-.73,2.45,2.45,0,0,1,.27-2.77,1.83,1.83,0,0,1,2-.74,2.08,2.08,0,0,1,.79.45,2.63,2.63,0,0,1,.59.73,2.47,2.47,0,0,1-.27,2.77Zm-1.94.43a1.52,1.52,0,0,0,1.69-.63,2.16,2.16,0,0,0,.24-2.42,2.32,2.32,0,0,0-.52-.64,1.73,1.73,0,0,0-.67-.38,1.54,1.54,0,0,0-1.69.63,2.18,2.18,0,0,0,.28,3.06A1.73,1.73,0,0,0,312.76,244.24Z" transform="translate(-280.9 -201.39)" style="fill:#3a2018;fill-rule:evenodd"/><path d="M331.7,242.84a2.79,2.79,0,0,1-2.31,2.28,3.39,3.39,0,0,1-1.23,0,3.33,3.33,0,0,1-1.13-.48,2.76,2.76,0,0,1-1.15-3,2.79,2.79,0,0,1,2.32-2.28,3.14,3.14,0,0,1,1.22,0,3.33,3.33,0,0,1,1.13.48,2.76,2.76,0,0,1,1.15,3Zm-2.42,1.65a2.18,2.18,0,0,0,1.8-1.78,2.15,2.15,0,0,0-.89-2.37,2.49,2.49,0,0,0-.9-.39,2.76,2.76,0,0,0-1,0,2.33,2.33,0,0,0-.91,4.15,2.49,2.49,0,0,0,.9.39A2.76,2.76,0,0,0,329.28,244.49Z" transform="translate(-280.9 -201.39)" style="fill:#3a2018;fill-rule:evenodd"/><path d="M331.45,244.58a.33.33,0,0,1,.31.33.32.32,0,0,1-.34.31,11.72,11.72,0,0,0-1.67,0,12.9,12.9,0,0,0-1.93.32.32.32,0,0,1-.15-.62,13.1,13.1,0,0,1,2-.33A14.74,14.74,0,0,1,331.45,244.58Z" transform="translate(-280.9 -201.39)" style="fill:#3a2018;fill-rule:evenodd"/><path d="M330.36,243.81a1.83,1.83,0,0,1-2,.74,2.08,2.08,0,0,1-.79-.45,2.63,2.63,0,0,1-.59-.73,2.47,2.47,0,0,1,.27-2.77,1.83,1.83,0,0,1,2-.74,2.08,2.08,0,0,1,.79.45,2.63,2.63,0,0,1,.59.73,2.45,2.45,0,0,1-.27,2.77Zm-1.94.43a1.52,1.52,0,0,0,1.69-.63,2.16,2.16,0,0,0,.24-2.42,2.32,2.32,0,0,0-.52-.64,1.73,1.73,0,0,0-.67-.38,1.54,1.54,0,0,0-1.69.63,2.18,2.18,0,0,0,.28,3.06A1.73,1.73,0,0,0,328.42,244.24Z" transform="translate(-280.9 -201.39)" style="fill:#3a2018;fill-rule:evenodd"/></svg>