<svg id="Layer_1" data-name="Layer 1" xmlns="http://www.w3.org/2000/svg" viewBox="0 0 78.88 78.88"><title>officeAndAdminLilyNakamuraSVG</title><rect width="78.88" height="78.88" style="fill:#f07068"/><path d="M306.29,241.06h-.09s-2.88,10.11-11,12.13a13.34,13.34,0,0,0,12-5.27c.32,3.14-.89,5.94-.89,7.31,0,5,5.74,9.19,4.85,14.25a13.3,13.3,0,0,1-2.93,5.92A18.54,18.54,0,0,0,312,271c1.1-2.14.73-6-1.1-9.07-1.54-2.57-1.27-5.53-.5-8l.12-.4c.12-.34.25-.68.38-1l.12-.3.34-.76a.43.43,0,0,0,.14-.16.91.91,0,0,0,.08-.29l.17-.34a6.51,6.51,0,0,0-.1,2v.11a4.27,4.27,0,0,0,.13.66l.12.44,0,.17.13.33a7.72,7.72,0,0,0,.4.92,19.42,19.42,0,0,0,1.35,2.27c.44.71.9,1.38,1.25,2a9.69,9.69,0,0,1,.74,1.84,5.44,5.44,0,0,1,.17.84,3.42,3.42,0,0,1,.06.77,8,8,0,0,1-.06,1.26c-.13.71-.2,1.12-.2,1.12l.19-.27c.12-.19.33-.44.52-.79A6.46,6.46,0,0,0,317,263a4.85,4.85,0,0,0,.27-1.72,7.14,7.14,0,0,0-.67-2.88c-.15-.36-.32-.72-.5-1.08l-.14-.27c-.32-.59-.6-1.18-.88-1.77-.08-.15-.15-.3-.22-.45a8.81,8.81,0,0,1-.42-1.1l-.15-.6c-.05-.16,0-.37-.08-.55a6.14,6.14,0,0,1,0-1.42,6,6,0,0,1,.14-.85,10.4,10.4,0,0,1,.7-2.22,40.82,40.82,0,0,1,2.05-3.93l.48-.85V232.92C308.75,234.49,306.69,238.57,306.29,241.06Z" transform="translate(-280.78 -200.39)" style="fill:#733039"/><path d="M336.44,241.06h.09s2.88,10.11,11,12.13a13.36,13.36,0,0,1-12-5.27c-.31,3.14.9,5.94.9,7.31,0,5-5.74,9.19-4.86,14.25a13.41,13.41,0,0,0,2.93,5.92,18.59,18.59,0,0,1-3.78-4.42c-1.1-2.14-.73-6,1.1-9.07a9.82,9.82,0,0,0,.5-8c0-.13-.08-.27-.13-.4-.12-.34-.24-.68-.37-1l-.13-.3c-.1-.25-.22-.5-.34-.76a.33.33,0,0,1-.13-.16.58.58,0,0,1-.08-.29c-.06-.11-.11-.22-.17-.34a7.23,7.23,0,0,1,.1,2,.41.41,0,0,0,0,.11,4.2,4.2,0,0,1-.12.66l-.12.44,0,.17c0,.11-.08.22-.13.33a7.7,7.7,0,0,1-.39.92,19.47,19.47,0,0,1-1.36,2.27c-.44.71-.9,1.38-1.24,2a9.77,9.77,0,0,0-.75,1.84,4.42,4.42,0,0,0-.16.84,3.45,3.45,0,0,0-.07.77,9.41,9.41,0,0,0,.06,1.26c.13.71.2,1.12.2,1.12a3.28,3.28,0,0,0-.19-.27c-.11-.19-.33-.44-.52-.79a7.11,7.11,0,0,1-.55-1.28,4.86,4.86,0,0,1-.26-1.72,7.12,7.12,0,0,1,.66-2.88q.23-.54.51-1.08l.13-.27c.32-.59.61-1.18.89-1.77l.21-.45a7.48,7.48,0,0,0,.42-1.1l.15-.6a4.54,4.54,0,0,0,.08-.55,5.63,5.63,0,0,0,0-1.42,7.91,7.91,0,0,0-.13-.85,11,11,0,0,0-.7-2.22,43.16,43.16,0,0,0-2.06-3.93l-.48-.85V232.92C334,234.49,336,238.57,336.44,241.06Z" transform="translate(-280.78 -200.39)" style="fill:#733039"/><path d="M342.46,278.28s-.1-6-.34-6.54c-.46-2.1.36-3.06-2.88-5.08,0,0-.74-.24-1.8-.59h0l-2.39-.8-1-.35c-1.46-.51-2.93-1.06-4-1.51a6.8,6.8,0,0,1-1.56-.84.76.76,0,0,0-.07-.09l-.08-.1a20.62,20.62,0,0,1-1.32-3.55v0a5.59,5.59,0,0,1-.13-1c0-.48,0-1,0-1.41s0-.86,0-1.19v-.29c0-.24,0-.44,0-.59a2,2,0,0,1,0-.24l.87-.75c.63-.57,1.54-1.39,2.33-2.18a9.18,9.18,0,0,0,1.75-2.09,1,1,0,0,0,0-.15l-.06,0c-.4.06-2.55.43-4.86.8-1.37.21-2.8.42-4,.57l-1.25.14h0a7.12,7.12,0,0,1-.84.05c-.23,0-.56,0-.94-.05h0l-1.31-.16c-1.08-.14-2.36-.33-3.61-.52l-3.16-.51c-.21,0-.4-.06-.57-.1l-1.39-.24a1.54,1.54,0,0,0,.4.74h0c.19.25.44.54.74.87l.92.92c1,1,2.06,1.91,2.59,2.36l.31.27s0,.09,0,.24,0,.35,0,.59v.29a1.46,1.46,0,0,1,0,.29c0,.65,0,1.47-.06,2.31a5.58,5.58,0,0,1-.12,1,21.35,21.35,0,0,1-1.33,3.57.86.86,0,0,1-.07.1l-.08.09a5.2,5.2,0,0,1-1.23.7c-1.24.55-3.17,1.25-5,1.86l-.26.09-2.56.86h0c-1,.35-1.76.57-1.78.59-3.22,2-2.44,3-2.89,5h0v0a.61.61,0,0,0,0,.15h0c-.22,1.09-.3,6.38-.3,6.38,0,.32,0,.65,0,1h43.58C342.47,278.93,342.47,278.6,342.46,278.28Z" transform="translate(-280.78 -200.39)" style="fill:#fbd2c5"/><path d="M327,258.8a5.6,5.6,0,0,1-.13-1c0-1.13-.06-2.2-.07-2.9a14,14,0,0,1-5.68,1.32,1.67,1.67,0,0,1-.39,0,1.58,1.58,0,0,1-.38,0,13.93,13.93,0,0,1-5.68-1.32c0,.7,0,1.77-.08,2.9a5.58,5.58,0,0,1-.12,1c1.81,1.52,4.26,3.08,5.88,3.08a1.88,1.88,0,0,0,.34,0h.09a1.88,1.88,0,0,0,.34,0C322.69,261.88,325.14,260.32,327,258.8Z" transform="translate(-280.78 -200.39)" style="fill:#d29f97"/><path d="M336.76,236.39c.31-1.73.55-3,.63-3.31s.06-.25.1-.37.06-.29.09-.43.1-.42.15-.64,0-.2,0-.3.08-.47.12-.71,0-.21,0-.31.05-.42.07-.64,0-.32.05-.47,0-.28,0-.41a15,15,0,0,0-2.67-9.59c-2.59-3.62-5.56-7.46-12-8H318c-6.45.53-9.43,4.37-12,8a14.89,14.89,0,0,0-2.67,9.59c0,.13,0,.27,0,.41a3.56,3.56,0,0,1,.05.47c0,.22,0,.43.08.64s0,.21,0,.31.08.48.12.71,0,.2.05.3.09.43.15.64.06.28.09.43.06.25.1.37.31,1.57.63,3.29c-1.73-.85-4.12.36-3.83,3.53s4.2,5.13,5.54,5.45a10.24,10.24,0,0,0,.33,1.23c1.17,3,2.6,3.84,5.09,6.25,2.73,2.61,6.75,5.06,8.73,5h.43c2,0,6-2.44,8.72-5,2.5-2.41,3.92-3.29,5.1-6.25a11.1,11.1,0,0,0,.32-1.22c1.3-.29,5.3-2.2,5.59-5.46S338.48,235.5,336.76,236.39Z" transform="translate(-280.78 -200.39)" style="fill:#fbd2c5"/><path d="M339.38,238.17a1.89,1.89,0,0,0-2.88-.57,1.64,1.64,0,0,0-.47,1.8c.12.52.68.56.53,1.36a1.41,1.41,0,0,1-.8,1.15,1.79,1.79,0,0,0-.68.73,2,2,0,0,0-.1,1.12c.15.64,1.09.14,1.72-.14a12.88,12.88,0,0,0,2.08-1.65,3.61,3.61,0,0,0,.6-3.8" transform="translate(-280.78 -200.39)" style="fill:#e9b7ac"/><path d="M302,238.17a1.88,1.88,0,0,1,2.87-.57,1.63,1.63,0,0,1,.48,1.8c-.13.52-.68.56-.54,1.36a1.42,1.42,0,0,0,.81,1.15,1.86,1.86,0,0,1,.68.73,2.07,2.07,0,0,1,.1,1.12c-.15.64-1.09.14-1.72-.14a12.88,12.88,0,0,1-2.08-1.65,3.61,3.61,0,0,1-.6-3.8" transform="translate(-280.78 -200.39)" style="fill:#e9b7ac"/><path d="M305.84,264.55l-.07,0c0,.18,0,.33,0,.5C305.82,264.9,305.82,264.72,305.84,264.55Z" transform="translate(-280.78 -200.39)" style="fill:#661c34"/><path d="M334.54,264.29l-.12,0,.06.52C334.5,264.6,334.53,264.45,334.54,264.29Z" transform="translate(-280.78 -200.39)" style="fill:#661c34"/><path d="M339.15,221.54c-.36-1.24-.73-2.19-.73-2.2H339a6.18,6.18,0,0,0,4.81-2.82s-1.16,1.6-5.15.35a5.56,5.56,0,0,1-1.39-.64c5-.79,6.5-7,6.5-7-3.32,6.71-8.19,4.43-10.22,3.07a11.5,11.5,0,0,0-4.3-2.89c-2.88-1.14-4.59-1-5.58-.57a5.78,5.78,0,0,1,3.07-.72,9.12,9.12,0,0,0-6.5-.13,17.51,17.51,0,0,0-5.36,2.48l1.56-1.41a23.86,23.86,0,0,0-2.66,1.13,25.3,25.3,0,0,1,3-4.09c-5,1.77-9.14,8.11-9.14,8.11a25.5,25.5,0,0,1,1.27-4.58,16.9,16.9,0,0,0-6.6,9.84c-.66-3.5.61-9.22.61-9.22-8.49,7.88,0,22.68,0,22.68h0a10.16,10.16,0,0,0,1.62,3c1.12,1.22.76,3,1.1,3,0,0,.67,0,.7-3.08a5.45,5.45,0,0,1,.22-1.2,12.45,12.45,0,0,1,14.32-12.44s8.84,3.79,7.65,10a17.77,17.77,0,0,0,3.52-5.1,32.71,32.71,0,0,1,3.16,8.09c-.1,2.6.71,4.05,1.07,4a5.47,5.47,0,0,1,.42-1.93c1.21-2.71,2.22-.82,2.41-4.5.15-2.95.53-4.62.68-6.12A7.46,7.46,0,0,0,344.3,228S341.28,227.07,339.15,221.54Z" transform="translate(-280.78 -200.39)" style="fill:#733039"/><path d="M337.12,276.75v0h6.45c-.07-.46-.25-1.36-.49-2.44-.59-2.63-1.57-6.31-2.26-7.12a12.17,12.17,0,0,0-4.21-3.12,15.82,15.82,0,0,0-4-1.18c-11.48,14.16-21.84,3-24.19.06a17.28,17.28,0,0,0-3.73,1.15,14.06,14.06,0,0,0-4.57,3.09c-.83.85-1.79,4.34-2.62,7.12-.29.93-.55,1.79-.8,2.44h7.13v0c.06,3-.07,1.09-.19,2.32h33.66C337.19,277.84,337.06,279.74,337.12,276.75Z" transform="translate(-280.78 -200.39)" style="fill:#b44e6b"/><polygon points="33.66 73.13 32.52 72 31.24 73.28 29.95 72 28.82 73.13 30.1 74.42 28.82 75.7 29.95 76.84 31.24 75.55 32.52 76.84 33.66 75.7 32.38 74.42 33.66 73.13" style="fill:#fff;fill-rule:evenodd"/><polygon points="40.06 73.13 38.92 72 37.64 73.28 36.35 72 35.22 73.13 36.5 74.42 35.22 75.7 36.35 76.84 37.64 75.55 38.92 76.84 40.06 75.7 38.77 74.42 40.06 73.13" style="fill:#fff;fill-rule:evenodd"/><polygon points="46.46 73.13 45.32 72 44.04 73.28 42.75 72 41.62 73.13 42.9 74.42 41.62 75.7 42.75 76.84 44.04 75.55 45.32 76.84 46.46 75.7 45.17 74.42 46.46 73.13" style="fill:#fff;fill-rule:evenodd"/><polygon points="52.86 73.13 51.72 72 50.44 73.28 49.15 72 48.01 73.13 49.3 74.42 48.01 75.7 49.15 76.84 50.44 75.55 51.72 76.84 52.86 75.7 51.57 74.42 52.86 73.13" style="fill:#fff;fill-rule:evenodd"/><path d="M308.2,247.4,306.67,245l0,0a.8.8,0,0,0-1.32,0l0,.06-.88,1.41-.61,1,0,.07,0,0h0v0a.68.68,0,0,0-.13.42.8.8,0,0,0,.81.8h3.16a.8.8,0,0,0,.8-.8A.92.92,0,0,0,308.2,247.4Zm-.63.86h-3.16a.37.37,0,0,1-.38-.37.33.33,0,0,1,.05-.18l0,0,0,0,0-.07.93-1.47h1.79l1,1.53a.55.55,0,0,1,.1.25A.37.37,0,0,1,307.57,248.26Z" transform="translate(-280.78 -200.39)" style="fill:#fff"/><path d="M337.52,247.4,336,245l0,0a.78.78,0,0,0-.66-.35.82.82,0,0,0-.66.34l0,.06-.88,1.41-.61,1,0,.07,0,0h0v0a.74.74,0,0,0-.12.42.8.8,0,0,0,.8.8h3.17a.79.79,0,0,0,.79-.8A1,1,0,0,0,337.52,247.4Zm-.63.86h-3.17a.37.37,0,0,1-.37-.37.33.33,0,0,1,0-.18l0,0,0,0,0-.07.93-1.47h1.79l1,1.53a.55.55,0,0,1,.1.25A.37.37,0,0,1,336.89,248.26Z" transform="translate(-280.78 -200.39)" style="fill:#fff"/><path d="M313.15,240.87a2.49,2.49,0,0,0,1.9-3.5l-4.21.06A2.45,2.45,0,0,0,313.15,240.87Z" transform="translate(-280.78 -200.39)" style="fill:#3a2018;fill-rule:evenodd"/><path d="M314.35,239.13a.73.73,0,0,0,.48-.9.68.68,0,0,0-.83-.52.75.75,0,0,0-.49.9A.68.68,0,0,0,314.35,239.13Z" transform="translate(-280.78 -200.39)" style="fill:#fff;fill-rule:evenodd"/><path d="M325,243.05a.47.47,0,0,1,.15.66.49.49,0,0,1-.67.14l-1.53-1c-1.12-.77-1.67-1.14-2.11-1.14s-1,.38-2,1.12c-.42.29-.93.65-1.65,1.12a.48.48,0,0,1-.52-.8c.59-.39,1.16-.78,1.63-1.11,1.22-.85,1.83-1.28,2.56-1.29s1.38.43,2.66,1.31C323.87,242.33,324.38,242.68,325,243.05Z" transform="translate(-280.78 -200.39)" style="fill:#3a2018;fill-rule:evenodd"/><path d="M308.17,233.31a.49.49,0,0,1-.19-.65.5.5,0,0,1,.66-.19c.55.31,1.16.69,1.79,1.07,1.83,1.12,3.84,2.35,5.29,2.52a1.14,1.14,0,0,0,.58-.12,5.94,5.94,0,0,0,.81-.47.48.48,0,0,1,.51.81,6.84,6.84,0,0,1-.93.53,2,2,0,0,1-1.08.2c-1.66-.19-3.77-1.48-5.68-2.65C309.32,234,308.73,233.62,308.17,233.31Z" transform="translate(-280.78 -200.39)" style="fill:#3a2018;fill-rule:evenodd"/><path d="M309.19,237.87a.33.33,0,0,1-.33-.32.32.32,0,0,1,.31-.32l1.94,0a30.41,30.41,0,0,1,5.15,0,.32.32,0,0,1-.18.61,33.66,33.66,0,0,0-5,0Z" transform="translate(-280.78 -200.39)" style="fill:#3a2018;fill-rule:evenodd"/><path d="M328.19,240.87a2.49,2.49,0,0,1-1.9-3.5l4.21.06A2.45,2.45,0,0,1,328.19,240.87Z" transform="translate(-280.78 -200.39)" style="fill:#3a2018;fill-rule:evenodd"/><path d="M329.35,239.13a.75.75,0,0,1-.49-.9.69.69,0,0,1,.84-.52.74.74,0,0,1,.48.9A.67.67,0,0,1,329.35,239.13Z" transform="translate(-280.78 -200.39)" style="fill:#fff;fill-rule:evenodd"/><path d="M332.17,237.23a.31.31,0,0,1,.31.32.32.32,0,0,1-.33.32l-1.93-.05a33.45,33.45,0,0,0-5,0,.32.32,0,0,1-.4-.22.31.31,0,0,1,.21-.39,30.55,30.55,0,0,1,5.16,0Z" transform="translate(-280.78 -200.39)" style="fill:#3a2018;fill-rule:evenodd"/><path d="M332.77,232.47a.49.49,0,0,1,.65.19.48.48,0,0,1-.18.65c-.56.31-1.15.68-1.76,1.05-1.92,1.17-4,2.46-5.68,2.65a2,2,0,0,1-1.08-.2,6.84,6.84,0,0,1-.93-.53.48.48,0,1,1,.51-.81,5.94,5.94,0,0,0,.81.47,1.12,1.12,0,0,0,.58.12c1.45-.17,3.46-1.4,5.29-2.52C331.61,233.16,332.22,232.78,332.77,232.47Z" transform="translate(-280.78 -200.39)" style="fill:#3a2018;fill-rule:evenodd"/></svg>