<svg id="Layer_1" data-name="Layer 1" xmlns="http://www.w3.org/2000/svg" viewBox="0 0 78.88 78.88"><title>officeAndAdmin5GraceFujitaSVG</title><rect width="78.88" height="78.88" style="fill:#f07068"/><path d="M342.09,279.28s-.1-6-.34-6.54c-.46-2.1.37-3.06-2.88-5.08,0,0-.74-.24-1.8-.59h0l-2.4-.8c-.34-.11-.67-.24-1-.35-1.46-.51-2.94-1.06-4-1.51a6.37,6.37,0,0,1-1.56-.84s0-.05-.08-.09a.86.86,0,0,1-.07-.1,20.35,20.35,0,0,1-1.33-3.55v0a5.58,5.58,0,0,1-.12-1c0-.48,0-1,0-1.41s0-.86,0-1.19v-.29c0-.24,0-.44,0-.59s0-.24,0-.24l.86-.75c.64-.57,1.55-1.39,2.33-2.18a9.18,9.18,0,0,0,1.75-2.09,1.31,1.31,0,0,0,0-.15l-.07,0c-.4.06-2.54.43-4.85.8-1.38.21-2.81.42-4,.57l-1.25.14h0a7,7,0,0,1-.83.05c-.24,0-.57,0-.95-.05h0l-1.31-.16c-1.07-.14-2.36-.33-3.61-.52l-3.16-.51c-.21,0-.4-.06-.57-.1l-1.39-.24a1.54,1.54,0,0,0,.4.74h0a10.53,10.53,0,0,0,.73.87c.29.3.6.61.93.92,1,1,2.06,1.91,2.58,2.36l.31.27s0,.09,0,.24,0,.35,0,.59v.29c0,.09,0,.19,0,.29,0,.65,0,1.47-.07,2.31a5.58,5.58,0,0,1-.12,1,21.64,21.64,0,0,1-1.32,3.57l-.08.1s-.06.08-.08.09a5.2,5.2,0,0,1-1.23.7c-1.24.55-3.17,1.25-5,1.86l-.26.09-2.56.86h0c-1.05.35-1.76.57-1.79.59-3.22,2-2.43,3-2.88,5h0v0a.3.3,0,0,0,0,.15h0c-.21,1.09-.3,6.38-.3,6.38,0,.32,0,.65,0,1H342.1C342.1,279.93,342.1,279.6,342.09,279.28Z" transform="translate(-280.41 -201.39)" style="fill:#fbd2c5"/><path d="M326.58,259.8a5.58,5.58,0,0,1-.12-1c0-1.13-.07-2.2-.08-2.9a14,14,0,0,1-5.68,1.32,1.58,1.58,0,0,1-.38,0,1.67,1.67,0,0,1-.39,0,14,14,0,0,1-5.68-1.32c0,.7,0,1.77-.07,2.9a5.6,5.6,0,0,1-.13,1c1.81,1.52,4.26,3.08,5.88,3.08a1.88,1.88,0,0,0,.34,0h.09a1.88,1.88,0,0,0,.34,0C322.32,262.88,324.77,261.32,326.58,259.8Z" transform="translate(-280.41 -201.39)" style="fill:#d29f97"/><path d="M336.39,237.39c.31-1.73.56-3,.63-3.31s.06-.25.1-.37l.09-.43c.06-.21.1-.42.15-.64s0-.2.05-.3.09-.47.12-.71,0-.21,0-.31.05-.42.08-.64a3.56,3.56,0,0,1,.05-.47c0-.14,0-.28,0-.41a15,15,0,0,0-2.67-9.59c-2.59-3.62-5.56-7.46-12-8h-5.45c-6.45.53-9.42,4.37-12,8a15,15,0,0,0-2.67,9.59c0,.13,0,.27,0,.41s0,.31.05.47,0,.43.07.64,0,.21,0,.31.09.48.12.71,0,.2,0,.3.09.43.15.64.07.28.09.43.06.25.1.37.32,1.57.63,3.29c-1.73-.85-4.12.36-3.83,3.53s4.2,5.13,5.54,5.45a12.67,12.67,0,0,0,.33,1.23c1.18,3,2.6,3.84,5.1,6.25,2.72,2.61,6.74,5.06,8.72,5h.43c2,0,6-2.44,8.72-5,2.5-2.41,3.93-3.29,5.1-6.25a11.1,11.1,0,0,0,.32-1.22c1.3-.29,5.3-2.2,5.59-5.46S338.12,236.5,336.39,237.39Z" transform="translate(-280.41 -201.39)" style="fill:#fbd2c5"/><path d="M339,239.17a1.88,1.88,0,0,0-2.87-.57,1.63,1.63,0,0,0-.48,1.8c.13.52.68.56.54,1.36a1.42,1.42,0,0,1-.81,1.15,1.86,1.86,0,0,0-.68.73,2.07,2.07,0,0,0-.1,1.12c.15.64,1.09.14,1.72-.14a12.88,12.88,0,0,0,2.08-1.65,3.59,3.59,0,0,0,.6-3.8" transform="translate(-280.41 -201.39)" style="fill:#e9b7ac"/><path d="M301.67,239.17a1.88,1.88,0,0,1,2.87-.57,1.63,1.63,0,0,1,.48,1.8c-.13.52-.69.56-.54,1.36a1.41,1.41,0,0,0,.8,1.15,1.79,1.79,0,0,1,.68.73,2,2,0,0,1,.1,1.12c-.15.64-1.09.14-1.72-.14a12.81,12.81,0,0,1-2.07-1.65,3.57,3.57,0,0,1-.6-3.8" transform="translate(-280.41 -201.39)" style="fill:#e9b7ac"/><path d="M305.47,265.55l-.07,0c0,.18,0,.33,0,.5C305.46,265.9,305.45,265.72,305.47,265.55Z" transform="translate(-280.41 -201.39)" style="fill:#661c34"/><path d="M334.17,265.29l-.12,0a4.35,4.35,0,0,1,.06.52C334.13,265.6,334.16,265.45,334.17,265.29Z" transform="translate(-280.41 -201.39)" style="fill:#661c34"/><path d="M342.88,272.38c-1.66-4.17-5.46-6.15-8.71-7.09,0,.16,0,.31-.06.48a8.43,8.43,0,0,1,.06,1v0a2.23,2.23,0,0,1-2.88,2.09,48.11,48.11,0,0,0-23,.06,2.29,2.29,0,0,1-2.93-2.14v0c0-.24,0-.47,0-.71s0-.32,0-.5c-3,1-6.29,3-7.79,6.81a11.23,11.23,0,0,0-.72,2.67c2.41.39,5.66,1.6,6.65,5.22H337c1-3.62,4.24-4.83,6.65-5.22A11.23,11.23,0,0,0,342.88,272.38Z" transform="translate(-280.41 -201.39)" style="fill:#fff"/><path d="M335.46,216.13a10.35,10.35,0,0,0-1.38-1.58h0a18.63,18.63,0,0,0-4.64-3c0-.06,0-.12,0-.19,0-1.24-1.57-2.33-4-3-.05-2-2.39-3.68-5.28-3.68s-5,1.52-5.25,3.45c-2.92.64-4.9,1.85-4.9,3.24a1.68,1.68,0,0,0,.13.58,16.57,16.57,0,0,0-3.85,2.58h0a10.29,10.29,0,0,0-1.37,1.58c-7.44,9.49-2.19,21.25-2.19,21.25.36.35,1.29.81,1.56,1.54.57,1.5.8,1.25.8,1.25s-.18-1.19-.39-2.64c0-.19,0-.42-.06-.64,2,6.78,8.46,9.83,8.46,9.83-9.5-7.42-4.41-19.44-4.37-19.53a13.93,13.93,0,0,1,4-1.3A19.44,19.44,0,0,0,311,231a11.32,11.32,0,0,1,6.27-5.44l.76,0h0c-3.85,5.58-1.59,10.14-1.59,10.14.58-4.43,2.11-5.8,3.76-8.1,1.65,2.3,3.18,3.67,3.76,8.1,0,0,2.26-4.56-1.59-10.14h0l.75,0a11.3,11.3,0,0,1,6.28,5.44,19.44,19.44,0,0,0-1.73-5.13A12.83,12.83,0,0,1,333,228c.78,4.16.83,11-5.4,15.88,0,0,6.38-3,8.43-9.75-.11,1.23-.23,2.49-.32,3.41-.2,1.45-.38,2.64-.38,2.64s.23.25.79-1.25c.27-.73,1.21-1.19,1.57-1.54C337.65,237.38,342.9,225.62,335.46,216.13Z" transform="translate(-280.41 -201.39)" style="fill:#46423e"/><path d="M317.82,233.37c-.49.8-1.17,3.45.31,3,1.66-.44.46-3.31-.13-3.18Z" transform="translate(-280.41 -201.39)" style="fill:#a6d2f0;fill-rule:evenodd"/><path d="M308.64,240.1a3.83,3.83,0,0,1,5.21-2.5c2.47,1.24,3.46,3.3,1.92,5.8-1.21,2-3,2-5,1.33A3.83,3.83,0,0,1,308.64,240.1Z" transform="translate(-280.41 -201.39)" style="fill:#fff;fill-rule:evenodd"/><path d="M308.34,240v0a4.49,4.49,0,0,1,2.19-2.57,4.29,4.29,0,0,1,3.35-.09l.07,0,0,0,.57.31a4.72,4.72,0,0,1,2.08,2.36,4,4,0,0,1-.33,3.14c-.08.16-.17.32-.26.47a3.65,3.65,0,0,1-2.42,1.82,5.52,5.52,0,0,1-3-.35h0a4.2,4.2,0,0,1-2.1-2,4.54,4.54,0,0,1-.24-3l0-.07Zm.64.19v0a3.88,3.88,0,0,0,.18,2.54,3.54,3.54,0,0,0,1.77,1.7,4.92,4.92,0,0,0,2.59.32,3.1,3.1,0,0,0,2-1.52c.09-.15.16-.29.23-.42a3.28,3.28,0,0,0,.29-2.62,4,4,0,0,0-1.79-2c-.17-.11-.34-.2-.51-.29h0a3.61,3.61,0,0,0-2.84.07A3.76,3.76,0,0,0,309,240.15Z" transform="translate(-280.41 -201.39)" style="fill:#3a2018;fill-rule:evenodd"/><path d="M314.77,242.6a2.78,2.78,0,0,1-4.94-2.44,2.66,2.66,0,0,1,3.8-1.38C315.28,239.57,315.47,241.05,314.77,242.6Z" transform="translate(-280.41 -201.39)" style="fill:#3a2018;fill-rule:evenodd"/><path d="M323.75,248.73c0,1.92-1.93,1.05-3.38,1.15-2.83.18-3.52.22-2.55-3C319.33,241.94,323.54,244.4,323.75,248.73Z" transform="translate(-280.41 -201.39)" style="fill:#3a2018;fill-rule:evenodd"/><path d="M321.9,249.54a15.55,15.55,0,0,0-2.55,0c-2.1.2-1.62-1.52-.67-2s4.11-.67,4.62.87C323.62,249.37,322.58,249.52,321.9,249.54Z" transform="translate(-280.41 -201.39)" style="fill:#cb4f41;fill-rule:evenodd"/><path d="M331.19,238a3.88,3.88,0,0,1,1.07,5.74c-2,2-4.12,2.28-6.13.12-1.4-1.51-1.26-2.82-.52-4.6C326.84,237.22,329.17,237.05,331.19,238Z" transform="translate(-280.41 -201.39)" style="fill:#fff;fill-rule:evenodd"/><path d="M331.37,237.74l.26.17a4.18,4.18,0,0,1,1.73,2.68,4.39,4.39,0,0,1-.65,3.09,3.23,3.23,0,0,1-.18.28l0,0-.25.24a4.85,4.85,0,0,1-3.05,1.47,4.14,4.14,0,0,1-3.1-1.4l-.2-.21a3.76,3.76,0,0,1-1.15-2.4,5.6,5.6,0,0,1,.56-2.55.05.05,0,0,0,0,0h0a3.9,3.9,0,0,1,2.54-1.89,5.42,5.42,0,0,1,3.47.5l0,0Zm-.13.72-.22-.15a4.74,4.74,0,0,0-3-.44,3.28,3.28,0,0,0-2.1,1.56,5.27,5.27,0,0,0-.51,2.23,3.25,3.25,0,0,0,1,2l.18.19a3.52,3.52,0,0,0,2.61,1.2,4.22,4.22,0,0,0,2.62-1.29l.21-.21a1.53,1.53,0,0,0,.14-.21,3.75,3.75,0,0,0,.56-2.62A3.51,3.51,0,0,0,331.24,238.46Z" transform="translate(-280.41 -201.39)" style="fill:#3a2018;fill-rule:evenodd"/><path d="M326.88,239.67a2.78,2.78,0,0,1,4.58,3.12c-1.89,3-6.61.26-4.76-2.81Z" transform="translate(-280.41 -201.39)" style="fill:#3a2018;fill-rule:evenodd"/><path d="M316.86,235.22a.34.34,0,1,1,.67,0c0,.46.08.73.23.84a.32.32,0,0,0,.23.05.52.52,0,0,0,.28-.17,1.58,1.58,0,0,0,.2-1.52l-.06-.22a.34.34,0,0,1,.24-.41.34.34,0,0,1,.41.24l.06.22a2.23,2.23,0,0,1-.36,2.15,1.19,1.19,0,0,1-.66.37,1,1,0,0,1-.72-.16A1.52,1.52,0,0,1,316.86,235.22Z" transform="translate(-280.41 -201.39)" style="fill:#3a2018;fill-rule:evenodd"/><path d="M321.39,239.08c-1.7-.25-.62-3.21,0-3.14C322.12,236.35,322.93,239.31,321.39,239.08Z" transform="translate(-280.41 -201.39)" style="fill:#a6d2f0;fill-rule:evenodd"/><path d="M321.85,237.86a.33.33,0,0,1,.27-.39.33.33,0,0,1,.39.27,1.53,1.53,0,0,1-.36,1.49,1,1,0,0,1-.7.23,1.16,1.16,0,0,1-.69-.29h0a2.24,2.24,0,0,1-.58-2.08l0-.22a.34.34,0,0,1,.38-.29.34.34,0,0,1,.28.38l0,.23a1.6,1.6,0,0,0,.36,1.47h0a.52.52,0,0,0,.3.13.25.25,0,0,0,.22-.07C321.86,238.6,321.93,238.31,321.85,237.86Z" transform="translate(-280.41 -201.39)" style="fill:#3a2018;fill-rule:evenodd"/></svg>