<svg id="Layer_1" data-name="Layer 1" xmlns="http://www.w3.org/2000/svg" viewBox="0 0 78.88 78.88"><title>officeAndAdmin6AvaYamamotoSVG</title><rect width="78.88" height="78.88" style="fill:#faa830"/><ellipse cx="41.22" cy="43.96" rx="17.51" ry="15.76" style="fill:#7b3944"/><path d="M341.65,279.33s-.09-5.75-.32-6.25c-.44-2,.34-2.92-2.75-4.85l-1.72-.56h0l-2.28-.76-1-.34-2.4-.87-1.44-.57c-.36-.16-.67-.3-.92-.44a2.46,2.46,0,0,1-.57-.36.38.38,0,0,0-.07-.08s-.05-.06-.07-.1a19.88,19.88,0,0,1-1.26-3.39v0a4.41,4.41,0,0,1-.12-1c0-.47,0-.93,0-1.35s0-.82,0-1.14V257c0-.23,0-.42,0-.56s0-.23,0-.23l.82-.72c.61-.54,1.48-1.33,2.23-2.08a8.92,8.92,0,0,0,1.67-2,1,1,0,0,0,0-.15l-.06,0c-.38.06-2.43.41-4.63.76-1.31.2-2.68.4-3.8.55-.44.06-.85.09-1.2.13h0c-.32,0-.59.05-.8.05s-.53,0-.9-.05h0l-1.26-.16c-1-.13-2.25-.31-3.44-.49l-3-.48c-.2,0-.38-.06-.54-.1-.81-.13-1.33-.23-1.33-.23a1.58,1.58,0,0,0,.38.71h0a10.07,10.07,0,0,0,.7.82c.27.29.57.59.88.88.94.92,2,1.83,2.47,2.26l.3.26a2,2,0,0,1,0,.23c0,.14,0,.33,0,.56v.27a2.62,2.62,0,0,1,0,.28c0,.63,0,1.4-.06,2.21a5.15,5.15,0,0,1-.12,1,20,20,0,0,1-1.26,3.41.61.61,0,0,0-.07.1.38.38,0,0,0-.07.08,1.91,1.91,0,0,1-.24.17,9.21,9.21,0,0,1-.94.5l-1.22.5c-1.05.41-2.32.86-3.53,1.27l-.25.09c-.89.31-1.75.59-2.44.82h0l-1.71.56c-3.07,1.92-2.32,2.84-2.75,4.82h0v0s0,.07,0,.14v0c-.2,1-.28,6.09-.28,6.09,0,.3,0,.62,0,.94h41.6C341.66,280,341.66,279.63,341.65,279.33Z" transform="translate(-280.29 -201.39)" style="fill:#fbd2c5"/><path d="M326.84,260.73a5.13,5.13,0,0,1-.11-1c0-1.07-.06-2.1-.08-2.76a13.47,13.47,0,0,1-5.42,1.26,2.17,2.17,0,0,1-.37,0,2.11,2.11,0,0,1-.36,0,13.47,13.47,0,0,1-5.42-1.26c0,.66,0,1.69-.08,2.76a5.13,5.13,0,0,1-.11,1c1.72,1.45,4.06,2.94,5.61,2.94a1.67,1.67,0,0,0,.33,0h.07a1.72,1.72,0,0,0,.33,0C322.78,263.67,325.12,262.18,326.84,260.73Z" transform="translate(-280.29 -201.39)" style="fill:#d29f97"/><path d="M336.21,239.34c.3-1.65.53-2.91.6-3.16s.06-.24.1-.36.06-.27.08-.4.09-.41.14-.61,0-.19.05-.29l.12-.68,0-.29c0-.21.05-.41.08-.61s0-.31,0-.45,0-.27,0-.4a14.23,14.23,0,0,0-2.55-9.15c-2.47-3.46-5.31-7.12-11.47-7.63h-5.19c-6.17.51-9,4.17-11.47,7.63a14.17,14.17,0,0,0-2.55,9.15c0,.13,0,.26,0,.4a3.1,3.1,0,0,1,.05.45c0,.2,0,.4.07.61a2.89,2.89,0,0,1,0,.29c0,.23.08.46.12.68a2.93,2.93,0,0,0,.05.29c0,.2.08.4.14.61s.06.26.08.4.06.24.1.36.3,1.5.6,3.14c-1.65-.81-3.93.34-3.66,3.37s4,4.89,5.3,5.21a8.86,8.86,0,0,0,.31,1.16c1.12,2.83,2.48,3.67,4.86,6,2.6,2.49,6.44,4.83,8.33,4.82h.41c1.89,0,5.73-2.33,8.33-4.82,2.38-2.3,3.74-3.14,4.86-6a9.88,9.88,0,0,0,.31-1.15c1.24-.28,5.05-2.11,5.34-5.22S337.85,238.49,336.21,239.34Z" transform="translate(-280.29 -201.39)" style="fill:#fbd2c5"/><path d="M338.71,241a1.8,1.8,0,0,0-2.74-.54,1.56,1.56,0,0,0-.46,1.72c.12.5.65.54.51,1.3a1.38,1.38,0,0,1-.76,1.1,1.62,1.62,0,0,0-.65.69,1.9,1.9,0,0,0-.1,1.07c.14.62,1,.14,1.64-.13a11.73,11.73,0,0,0,2-1.58,3.41,3.41,0,0,0,.58-3.63" transform="translate(-280.29 -201.39)" style="fill:#e9b7ac"/><path d="M303.06,241a1.8,1.8,0,0,1,2.74-.54,1.56,1.56,0,0,1,.46,1.72c-.12.5-.65.54-.51,1.3a1.36,1.36,0,0,0,.76,1.1,1.62,1.62,0,0,1,.65.69,1.9,1.9,0,0,1,.1,1.07c-.15.62-1,.14-1.64-.13a12.21,12.21,0,0,1-2-1.58,3.43,3.43,0,0,1-.57-3.63" transform="translate(-280.29 -201.39)" style="fill:#e9b7ac"/><path d="M339.1,261.67a7.51,7.51,0,0,0-6.36,3.52c-1.14-.31-2.39-.59-3.71-.81l-.94-.15c1.16,1.64,3.94,6.35-1.38,7.71a33.49,33.49,0,0,1-12,0c-5.51-1.41-2.31-6.44-1.26-7.88l-.62.08c-1.2.16-2.34.36-3.42.59a7.5,7.5,0,1,0-3.66,11.55l.49.17c0,1.08,0,2.31,0,3.77h29c0-1.64,0-3,0-4.18.17-.06.32-.14.48-.2a7.5,7.5,0,1,0,3.44-14.17Z" transform="translate(-280.29 -201.39)" style="fill:#fff"/><path d="M335.74,269.05c.21.94.95,1.38.93,2.72a3,3,0,0,1,1.87,1.3v.5h2.22v-.46a3.22,3.22,0,0,1,2-1.34c0-1.75.8-2,.93-3.41C344.19,262.85,334.35,263.06,335.74,269.05Zm4.64,2.41a.87.87,0,0,1-1.35-.32l.55-1.53S341.3,270.88,340.38,271.46Zm-2.3-1.51a1,1,0,1,1,1-1A1,1,0,0,1,338.08,270Zm3.21-.2a1,1,0,1,1,1-1A1,1,0,0,1,341.29,269.75Z" transform="translate(-280.29 -201.39)" style="fill:#46423e"/><path d="M299.29,269.05c.22.94,1,1.38.94,2.72a3.09,3.09,0,0,1,1.87,1.3v.5h2.21v-.46a3.25,3.25,0,0,1,2-1.34c0-1.75.81-2,.94-3.41C307.75,262.85,297.91,263.06,299.29,269.05Zm4.65,2.41a.87.87,0,0,1-1.35-.32l.55-1.53S304.86,270.88,303.94,271.46ZM301.63,270a1,1,0,1,1,1.05-1A1,1,0,0,1,301.63,270Zm3.22-.2a1,1,0,1,1,1-1A1,1,0,0,1,304.85,269.75Z" transform="translate(-280.29 -201.39)" style="fill:#46423e"/><path d="M347.56,226.66a18.72,18.72,0,0,0-3.88-5.66c-1.37-1.49-4.59-3.31-4.9-5.13-.39-2.22,1.16-4.1.18-6.56a6.89,6.89,0,0,0-3.77-3.92c-2.27-1-4.46-.74-6.83-.23-2.07.44-5.7,1.78-8.06,1.27.48,0-.37-.89-.89-1.32a6.71,6.71,0,0,0-2.63-1.27,9,9,0,0,0-6.43,1.47,14.91,14.91,0,0,0-5.12,5,22,22,0,0,0-1,5c-.32.24-3-.11-3.54,0a6.72,6.72,0,0,0-2.8.89,6.18,6.18,0,0,0-3,5.11c-.26,4.46,3,8.39,6.46,10.7a4.8,4.8,0,0,0,1.66.73,19.78,19.78,0,0,0,1.62,5.27,7.18,7.18,0,0,0,1,1.65c1.15,1.26.78,3.08,1.13,3.08,0,0,.75,0,.71-3.59,0-.83-.06-1.86-.17-3.13a.51.51,0,0,0,0-.13c-.13-.39-.85-2.86,1.76-3.51a.35.35,0,0,0,.13,0c2.71-1.59,7.14-5.13,11.95-5.13s9.25,3.54,12,5.13a.29.29,0,0,0,.13,0c2.61.65,1.89,3.12,1.76,3.51a.51.51,0,0,0,0,.13c-.11,1.27-.16,2.3-.17,3.13,0,3.62.71,3.59.71,3.59.35,0,0-1.82,1.13-3.08a7.18,7.18,0,0,0,1-1.65,19.53,19.53,0,0,0,.9-2.27,5,5,0,0,0,3.93,1.11C347.41,236.06,349.17,230.85,347.56,226.66Z" transform="translate(-280.29 -201.39)" style="fill:#7b3944"/><path d="M318.86,242.05l-.06.18a.83.83,0,0,0,.09-.16Z" transform="translate(-280.29 -201.39)" style="fill:#0e151a;opacity:0.4"/><path d="M318.86,242.05l-.06.18a.83.83,0,0,0,.09-.16Z" transform="translate(-280.29 -201.39)" style="fill:#e8e9e7;opacity:0.55"/><path d="M324.17,243.61l.29.37c-.09-.13-.18-.25-.26-.39Z" transform="translate(-280.29 -201.39)" style="fill:#0e151a;opacity:0.4"/><path d="M317.59,248.52a.33.33,0,0,1-.47,0,.34.34,0,0,1-.05-.47l.18-.18a5.58,5.58,0,0,1,3.58-1.2,6.53,6.53,0,0,1,4.34,1.36,5.11,5.11,0,0,1,.42.39.34.34,0,0,1,0,.48.33.33,0,0,1-.47,0l-.37-.34a5.82,5.82,0,0,0-3.89-1.21,4.91,4.91,0,0,0-3.14,1Z" transform="translate(-280.29 -201.39)" style="fill:#3a2018;fill-rule:evenodd"/><path d="M317.85,249.48a.34.34,0,0,1-.27.39.33.33,0,0,1-.39-.27,2.42,2.42,0,0,0-.37-.93,2.45,2.45,0,0,0-.73-.7.33.33,0,0,1-.11-.46.34.34,0,0,1,.46-.1,3.06,3.06,0,0,1,.94.88A3.13,3.13,0,0,1,317.85,249.48Z" transform="translate(-280.29 -201.39)" style="fill:#3a2018;fill-rule:evenodd"/><path d="M309.15,240.94a.34.34,0,0,1-.37-.3.34.34,0,0,1,.3-.37c1.23-.13,2.74-.25,4.21-.26a13.8,13.8,0,0,1,4,.44.34.34,0,0,1,.22.42.33.33,0,0,1-.42.22,13.09,13.09,0,0,0-3.77-.41C311.86,240.69,310.37,240.81,309.15,240.94Z" transform="translate(-280.29 -201.39)" style="fill:#3a2018;fill-rule:evenodd"/><path d="M317.45,240.56a2.24,2.24,0,1,1-4.28-.22Z" transform="translate(-280.29 -201.39)" style="fill:#3a2018;fill-rule:evenodd"/><path d="M325,241a.33.33,0,1,1-.08-.66,40.7,40.7,0,0,1,4.21-.28,13.55,13.55,0,0,1,4,.43.34.34,0,0,1,.22.42.36.36,0,0,1-.43.22,13.05,13.05,0,0,0-3.76-.4C327.72,240.69,326.23,240.82,325,241Z" transform="translate(-280.29 -201.39)" style="fill:#3a2018;fill-rule:evenodd"/><path d="M333.29,240.59a2.24,2.24,0,1,1-4.28-.21Z" transform="translate(-280.29 -201.39)" style="fill:#3a2018;fill-rule:evenodd"/><path d="M308.54,246.09c0-2.26,6.73-1.89,6.37.4C314.63,248.3,308.56,248,308.54,246.09Z" transform="translate(-280.29 -201.39)" style="fill:#dc98ab;fill-rule:evenodd"/><path d="M325.46,249.78a.32.32,0,0,1-.38.27.33.33,0,0,1-.28-.38,3,3,0,0,1,1.41-2.08.33.33,0,0,1,.46.11.34.34,0,0,1-.1.46,2.34,2.34,0,0,0-.74.69A2.42,2.42,0,0,0,325.46,249.78Z" transform="translate(-280.29 -201.39)" style="fill:#3a2018;fill-rule:evenodd"/><path d="M327.56,246.09c0-2.26,6.73-1.89,6.37.4C333.65,248.3,327.58,248,327.56,246.09Z" transform="translate(-280.29 -201.39)" style="fill:#dc98ab;fill-rule:evenodd"/></svg>