<svg id="Layer_1" data-name="Layer 1" xmlns="http://www.w3.org/2000/svg" viewBox="0 0 78.88 78.88"><title>officeAndAdmin7ChloeTanakaSVG</title><rect width="78.88" height="78.88" style="fill:#c1636d"/><path d="M342.69,279.28s-.1-6-.34-6.54c-.46-2.1.36-3.06-2.88-5.08,0,0-.74-.24-1.8-.59h0l-2.39-.8-1-.35c-1.46-.51-2.93-1.06-4-1.51a6.58,6.58,0,0,1-1.56-.84l-.07-.09-.08-.1a20.62,20.62,0,0,1-1.32-3.55v0a4.81,4.81,0,0,1-.13-1c0-.48,0-1,0-1.41s0-.86,0-1.19v-.29c0-.24,0-.44,0-.59s0-.24,0-.24l.86-.75c.64-.57,1.55-1.39,2.34-2.18a9.46,9.46,0,0,0,1.75-2.09,1,1,0,0,0,0-.15l-.06,0c-.4.06-2.55.43-4.86.8-1.37.21-2.81.42-4,.57l-1.25.14h0a7.23,7.23,0,0,1-.84.05c-.24,0-.56,0-1-.05h0l-1.31-.16c-1.08-.14-2.36-.33-3.61-.52l-3.16-.51c-.21,0-.4-.06-.57-.1l-1.39-.24a1.54,1.54,0,0,0,.4.74h0c.19.25.44.54.74.87s.6.61.92.92c1,1,2.06,1.91,2.59,2.36l.31.27s0,.09,0,.24,0,.35,0,.59v.29c0,.09,0,.19,0,.29,0,.65,0,1.47-.06,2.31a4.81,4.81,0,0,1-.13,1,20.72,20.72,0,0,1-1.32,3.57.86.86,0,0,1-.07.1l-.08.09a5.12,5.12,0,0,1-1.24.7c-1.23.55-3.17,1.25-5,1.86l-.27.09-2.56.86h0c-1.05.35-1.76.57-1.78.59-3.23,2-2.44,3-2.89,5h0v0a1.27,1.27,0,0,0,0,.15h0c-.21,1.09-.3,6.38-.3,6.38,0,.32,0,.65,0,1H342.7C342.7,279.93,342.69,279.6,342.69,279.28Z" transform="translate(-281.16 -201.39)" style="fill:#fbd2c5"/><path d="M327.18,259.8a4.8,4.8,0,0,1-.13-1c0-1.13-.06-2.2-.07-2.9a14,14,0,0,1-5.69,1.32,2.42,2.42,0,0,1-.76,0,13.93,13.93,0,0,1-5.68-1.32c0,.7,0,1.77-.08,2.9a5.58,5.58,0,0,1-.12,1c1.81,1.52,4.25,3.08,5.88,3.08a1.83,1.83,0,0,0,.34,0H321a1.83,1.83,0,0,0,.34,0C322.92,262.88,325.37,261.32,327.18,259.8Z" transform="translate(-281.16 -201.39)" style="fill:#d29f97"/><path d="M337,237.39c.32-1.73.56-3,.64-3.31s.06-.25.1-.37.06-.29.08-.43.1-.42.15-.64,0-.2.05-.3.09-.47.13-.71,0-.21,0-.31.05-.42.07-.64,0-.32.05-.47,0-.28,0-.41a14.9,14.9,0,0,0-2.68-9.59c-2.58-3.62-5.55-7.46-12-8h-5.44c-6.46.53-9.43,4.37-12,8a14.83,14.83,0,0,0-2.67,9.59c0,.13,0,.27,0,.41a3.56,3.56,0,0,1,.05.47c0,.22,0,.43.07.64s0,.21,0,.31.09.48.13.71,0,.2.05.3.09.43.15.64.06.28.08.43.07.25.1.37.32,1.57.63,3.29c-1.72-.85-4.11.36-3.83,3.53s4.21,5.13,5.55,5.45a8.6,8.6,0,0,0,.33,1.23c1.17,3,2.59,3.84,5.09,6.25,2.72,2.61,6.74,5.06,8.73,5h.42c2,0,6-2.44,8.73-5,2.5-2.41,3.92-3.29,5.09-6.25a8.76,8.76,0,0,0,.33-1.22c1.29-.29,5.29-2.2,5.59-5.46S338.71,236.5,337,237.39Z" transform="translate(-281.16 -201.39)" style="fill:#fbd2c5"/><path d="M339.6,239.17a1.88,1.88,0,0,0-2.87-.57,1.63,1.63,0,0,0-.48,1.8c.13.52.68.56.54,1.36a1.41,1.41,0,0,1-.8,1.15,1.79,1.79,0,0,0-.68.73,2,2,0,0,0-.1,1.12c.15.64,1.09.14,1.72-.14A12.81,12.81,0,0,0,339,243a3.57,3.57,0,0,0,.6-3.8" transform="translate(-281.16 -201.39)" style="fill:#e9b7ac"/><path d="M302.26,239.17a1.88,1.88,0,0,1,2.87-.57,1.63,1.63,0,0,1,.48,1.8c-.13.52-.68.56-.54,1.36a1.42,1.42,0,0,0,.81,1.15,1.86,1.86,0,0,1,.68.73,2.07,2.07,0,0,1,.1,1.12c-.15.64-1.1.14-1.72-.14a12.88,12.88,0,0,1-2.08-1.65,3.59,3.59,0,0,1-.6-3.8" transform="translate(-281.16 -201.39)" style="fill:#e9b7ac"/><path d="M335.05,214.54a26.79,26.79,0,0,0-9.43-6.22l1.56,1.51a17,17,0,0,0-5.36-2.67c-.23-.08-.46-.14-.69-.2s-.45.12-.69.2a17,17,0,0,0-5.36,2.67l1.56-1.51a26.7,26.7,0,0,0-9.42,6.22c-3.82,4.19-5.28,8.12-5.28,12.55s1.71,8.87,2.83,10.18.76,3.23,1.1,3.23c0,0,1.12.05.52-7.13a14.68,14.68,0,0,1,1.15-7.92,12.62,12.62,0,0,0,1.6,7c-.8-4.73,2-8.58,3.62-10.33a12.75,12.75,0,0,0,1.62,6.65,10.75,10.75,0,0,1,1-6.48,11.71,11.71,0,0,1,3.62,1.89,4.94,4.94,0,0,0,.57.4c.38.27.92.69,1.55,1.24.63-.55,1.18-1,1.56-1.24.18-.12.37-.24.57-.4a11.55,11.55,0,0,1,3.61-1.89,10.75,10.75,0,0,1,1,6.48,12.81,12.81,0,0,0,1.63-6.65c1.59,1.75,4.41,5.6,3.62,10.33a12.65,12.65,0,0,0,1.59-7,14.59,14.59,0,0,1,1.15,7.92c-.6,7.18.52,7.13.52,7.13.34,0,0-1.91,1.1-3.23s2.83-5.75,2.83-10.18S338.86,218.73,335.05,214.54Z" transform="translate(-281.16 -201.39)" style="fill:#f7f8f9"/><path d="M338.14,277c-.59-3.57-4-4.4-4.13-11.38-1-.36-2-.74-2.91-1.08-10,10.35-20-.08-20-.08-.82.33-1.81.7-2.81,1.05-.13,7.08-3.54,7.9-4.13,11.49-.14.79-.28,2.24-.37,3.23h34.76C338.42,279.28,338.28,277.83,338.14,277Z" transform="translate(-281.16 -201.39)" style="fill:#80414a"/><path d="M327.4,245.08s-4.77-.54-6.06-.54-6.45.88-6.45.88,1.46,2.89,6.36,3.05S327.4,245.08,327.4,245.08Z" transform="translate(-281.16 -201.39)" style="fill:#fff;fill-rule:evenodd"/><path d="M328.38,243.57a.33.33,0,0,1,.25-.4.32.32,0,0,1,.4.24,1.43,1.43,0,0,1-1.22,1.94,13.85,13.85,0,0,1-4.45-.23,16.27,16.27,0,0,0-2.26-.25,15.9,15.9,0,0,0-1.89.31,13.51,13.51,0,0,1-4.72.41,1.36,1.36,0,0,1-1.14-1.85.33.33,0,1,1,.65.15.77.77,0,0,0,.65,1.05,13.09,13.09,0,0,0,4.43-.42,16.2,16.2,0,0,1,2-.32,14.64,14.64,0,0,1,2.38.26,13.62,13.62,0,0,0,4.2.24A.84.84,0,0,0,328.38,243.57Z" transform="translate(-281.16 -201.39)" style="fill:#3a2018;fill-rule:evenodd"/><path d="M314.6,245.57a.33.33,0,0,1,.14-.45.33.33,0,0,1,.45.14,4.94,4.94,0,0,0,2.08,2,8.82,8.82,0,0,0,7.68,0,4.88,4.88,0,0,0,2.08-2,.34.34,0,0,1,.6.31,5.53,5.53,0,0,1-2.37,2.27,9.36,9.36,0,0,1-8.3,0A5.45,5.45,0,0,1,314.6,245.57Z" transform="translate(-281.16 -201.39)" style="fill:#3a2018;fill-rule:evenodd"/><path d="M309.24,240.14a.34.34,0,0,1-.39-.27.34.34,0,0,1,.27-.39,15.42,15.42,0,0,1,4-.17,14.72,14.72,0,0,1,3.74.76.33.33,0,1,1-.22.63A14.15,14.15,0,0,0,313,240,15.11,15.11,0,0,0,309.24,240.14Z" transform="translate(-281.16 -201.39)" style="fill:#3a2018;fill-rule:evenodd"/><path d="M326.68,245.84a.26.26,0,0,1,.32.16.25.25,0,0,1-.15.32,22.42,22.42,0,0,1-6,.68,18.41,18.41,0,0,1-5.4-.65.25.25,0,0,1,.15-.48,17.79,17.79,0,0,0,5.25.62A21.21,21.21,0,0,0,326.68,245.84Z" transform="translate(-281.16 -201.39)" style="fill:#3a2018;fill-rule:evenodd"/><path d="M316.89,239.73a.5.5,0,1,1-.74.68s-1.94-2.18-6.58-2.1a.5.5,0,0,1-.51-.49.51.51,0,0,1,.5-.51C314.65,237.22,316.88,239.72,316.89,239.73Z" transform="translate(-281.16 -201.39)" style="fill:#3a2018;fill-rule:evenodd"/><path d="M333.14,239.48a.34.34,0,0,1,.27.39.35.35,0,0,1-.4.27,15,15,0,0,0-3.79-.16,14.15,14.15,0,0,0-3.57.72.34.34,0,0,1-.23-.63,14.71,14.71,0,0,1,3.75-.76A15.45,15.45,0,0,1,333.14,239.48Z" transform="translate(-281.16 -201.39)" style="fill:#3a2018;fill-rule:evenodd"/><path d="M326.11,240.41a.5.5,0,0,1-.71,0,.5.5,0,0,1,0-.71s2.24-2.51,7.33-2.42a.5.5,0,0,1,.49.51.49.49,0,0,1-.51.49C328.05,238.23,326.11,240.4,326.11,240.41Z" transform="translate(-281.16 -201.39)" style="fill:#3a2018;fill-rule:evenodd"/></svg>