<svg xmlns="http://www.w3.org/2000/svg" viewBox="0 0 78.88 78.88"><title>Asset 40</title><g id="Layer_2" data-name="Layer 2"><g id="Layer_2-2" data-name="Layer 2"><rect width="78.88" height="78.88" style="fill:#f07068"/><path d="M61.68,77.89s-.1-6-.33-6.54c-.47-2.1.36-3.06-2.89-5.08,0,0-.73-.24-1.8-.59h0l-2.4-.8c-.34-.12-.67-.24-1-.35-1.46-.51-2.94-1.06-4-1.51a6.37,6.37,0,0,1-1.56-.84s0-.05-.08-.09a.86.86,0,0,1-.07-.1,21.11,21.11,0,0,1-1.33-3.56h0a5.69,5.69,0,0,1-.12-1c0-.48,0-1,0-1.41s0-.86,0-1.2v-.28c0-.24,0-.44,0-.59s0-.24,0-.24l.86-.75c.64-.57,1.55-1.39,2.33-2.18a9.18,9.18,0,0,0,1.75-2.09.49.49,0,0,0,0-.15l-.06,0c-.4.06-2.55.43-4.86.79-1.37.22-2.81.43-4,.58l-1.25.14h0c-.33,0-.62.05-.83.05s-.56,0-.95-.05h0l-1.31-.17c-1.07-.13-2.36-.32-3.6-.51l-3.16-.51-.58-.1-1.38-.24a1.54,1.54,0,0,0,.4.74,0,0,0,0,0,0,0c.19.25.44.54.73.86s.6.62.93.93C32,52,33,53,33.55,53.42l.32.27a2,2,0,0,1,0,.24c0,.15,0,.35,0,.59v.28c0,.1,0,.2,0,.3,0,.65,0,1.46-.06,2.31a5.71,5.71,0,0,1-.13,1A20.72,20.72,0,0,1,32.32,62l-.08.1a.76.76,0,0,0-.07.09,6,6,0,0,1-1.24.7c-1.23.55-3.17,1.25-5,1.86a2.67,2.67,0,0,0-.26.09l-2.56.86h0c-1.05.35-1.76.57-1.79.59-3.22,2-2.43,3-2.88,5h0v0a.3.3,0,0,0,0,.15h0c-.21,1.09-.3,6.38-.3,6.38,0,.32,0,.65,0,1H61.69C61.69,78.54,61.69,78.21,61.68,77.89Z" style="fill:#fbd2c5"/><path d="M46.17,58.41a5.58,5.58,0,0,1-.12-1c0-1.12-.06-2.19-.08-2.89a14.09,14.09,0,0,1-5.68,1.32,3.62,3.62,0,0,1-.76,0,14.17,14.17,0,0,1-5.69-1.32c0,.7,0,1.77-.07,2.89a4.81,4.81,0,0,1-.13,1c1.81,1.51,4.26,3.07,5.89,3.07a1.79,1.79,0,0,0,.34,0H40a1.79,1.79,0,0,0,.34,0C41.91,61.48,44.36,59.92,46.17,58.41Z" style="fill:#d29f97"/><path d="M56,36c.31-1.73.56-3,.63-3.31s.07-.25.1-.38.07-.28.09-.42.1-.43.15-.64,0-.2,0-.3.09-.47.12-.71,0-.21,0-.31.05-.42.08-.64a3.56,3.56,0,0,1,0-.47c0-.14,0-.28,0-.41a14.89,14.89,0,0,0-2.67-9.59c-2.58-3.62-5.56-7.46-12-8H37.19c-6.46.53-9.43,4.37-12,8a15,15,0,0,0-2.67,9.59c0,.13,0,.27,0,.41s0,.31,0,.47,0,.43.07.64,0,.21,0,.31.09.48.12.71,0,.2.05.3.09.43.15.64.07.27.09.42.06.25.1.38.32,1.57.63,3.28c-1.72-.84-4.11.37-3.83,3.54s4.21,5.13,5.55,5.45a10.82,10.82,0,0,0,.32,1.23c1.18,3,2.6,3.84,5.1,6.25,2.72,2.61,6.74,5.06,8.72,5.05h.43c2,0,6-2.44,8.73-5.05,2.49-2.41,3.92-3.3,5.09-6.25.08-.21.19-.64.33-1.22,1.29-.29,5.29-2.21,5.59-5.46S57.71,35.11,56,36Z" style="fill:#fbd2c5"/><path d="M58.6,37.77a1.89,1.89,0,0,0-2.87-.57,1.64,1.64,0,0,0-.48,1.8c.13.53.68.57.54,1.37A1.42,1.42,0,0,1,55,41.52a1.79,1.79,0,0,0-.68.73,2,2,0,0,0-.1,1.11c.15.65,1.1.15,1.72-.13A12.88,12.88,0,0,0,58,41.58a3.6,3.6,0,0,0,.6-3.81" style="fill:#e9b7ac"/><path d="M21.26,37.77a1.89,1.89,0,0,1,2.87-.57,1.64,1.64,0,0,1,.48,1.8c-.13.53-.68.57-.54,1.37a1.41,1.41,0,0,0,.8,1.15,1.73,1.73,0,0,1,.68.73,2,2,0,0,1,.1,1.11c-.15.65-1.09.15-1.72-.13a12.81,12.81,0,0,1-2.07-1.65,3.6,3.6,0,0,1-.6-3.81" style="fill:#e9b7ac"/><path d="M58.06,20.1c0-3.09-1.41-4.1-2.33-5.6a19.7,19.7,0,0,0-3.89-4.05c-.92-.74-1.91-1.68-1.91-1.68a11,11,0,0,0-3.68-1.53c-2.12-.43-2.76.08-4.74.78q-.37.13-.66.27a5.89,5.89,0,0,0-2.57-1.64,4,4,0,0,0-4,.45l1.48.21a7.54,7.54,0,0,0-4.38.92,9.33,9.33,0,0,0-2.67,2.22s2.85-.6,1,0a15.15,15.15,0,0,0-5,2.75A12.9,12.9,0,0,0,21,17.94c-.7,1.8.36-.93,1.77-1.94a10.46,10.46,0,0,1,2.55-1.36A17.94,17.94,0,0,0,21.7,20,18.68,18.68,0,0,0,20,29.91c.53,7.6,4.43,10.38,4.43,10.38a5.6,5.6,0,0,1-1.26-2.07A5.49,5.49,0,0,1,23,35.75c.08.36,3.92,5.6,3.92,5.6A12.35,12.35,0,0,1,25,32a8.12,8.12,0,0,1,2-3.64,6.42,6.42,0,0,0,.41-.54,12.23,12.23,0,0,0,5.4,3.13S30.53,28.68,30.25,27s-.16-5.08,1.82-7c.27-.26.58-.53.92-.8a6,6,0,0,0,0,5.48,5.75,5.75,0,0,0,2,2.11,13.83,13.83,0,0,0,8.48,2.6,16.1,16.1,0,0,0,4.61-.65h0l.7-.23c2.43-.72,10.1-2.24,6.44,8.74l0,.17h0a7.39,7.39,0,0,1-2.87,4,14.31,14.31,0,0,0,4.3-4.23c1.56-2.59,1.75-5,1.61-8.28a18,18,0,0,0-.17-1.81,3.62,3.62,0,0,0,.54.56,4,4,0,0,0,2.28,1S58,27.09,58.06,20.1" style="fill:#0b0e13"/><path d="M51.29,63.58c-.2-.07-.4-.14-.58-.22-.55-.21-1.07-.41-1.51-.6s-.71-.32-1-.46a14.27,14.27,0,0,1-16.31-.21,9.08,9.08,0,0,1-1,.53c-.37.17-.8.35-1.27.53l-1,.4C31.43,66,40.27,71.93,51.29,63.58Z" style="fill:#4c2c32"/><path d="M61.68,77.87s0-1.24-.06-2.64c0-.71,0-1.46-.09-2.12a14.36,14.36,0,0,0-.14-1.69,1.49,1.49,0,0,0,0-.19,8.74,8.74,0,0,1-.18-1.3,3.74,3.74,0,0,0-.65-2.12,7.32,7.32,0,0,0-2.06-1.74l-1.8-.59s0,0,0,0c-.69-.23-1.52-.5-2.4-.81-.34-.11-.67-.24-1-.35l-1.93-.72c-11,8.35-19.86,2.37-22.67,0-.85.33-1.77.65-2.66,1a2.67,2.67,0,0,1-.26.09l-2.56.88h0l-1.79.59a7.4,7.4,0,0,0-2.05,1.74,3.75,3.75,0,0,0-.66,2.12,9.38,9.38,0,0,1-.17,1.26v0a.75.75,0,0,0,0,.15v0a16.26,16.26,0,0,0-.15,1.69c0,.66-.06,1.41-.08,2.12-.05,1.4-.07,2.64-.07,2.64,0,.33,0,.67,0,1H61.69C61.69,78.54,61.69,78.2,61.68,77.87Z" style="fill:#994341"/><path d="M41.67,43.77c0,1,.09,4.87-2.28,4.74s-2.32-3.77-2.42-5a3.84,3.84,0,0,0,2.46-1A3.27,3.27,0,0,0,41.67,43.77Z" style="fill:#cb4f41;fill-rule:evenodd"/><path d="M34.82,42.25a.34.34,0,0,1,.67-.08.92.92,0,0,0,.48.69,2.25,2.25,0,0,0,1,.27A3.36,3.36,0,0,0,38.19,43a1.33,1.33,0,0,0,.91-.68.34.34,0,0,1,.64,0,1.33,1.33,0,0,0,.91.68,3.39,3.39,0,0,0,1.19.16,2.25,2.25,0,0,0,1-.27.93.93,0,0,0,.47-.69.34.34,0,0,1,.67.08,1.59,1.59,0,0,1-.8,1.19,3,3,0,0,1-1.36.36,4.11,4.11,0,0,1-1.41-.19,2.53,2.53,0,0,1-1-.6,2.56,2.56,0,0,1-1,.6A4.2,4.2,0,0,1,37,43.8a3,3,0,0,1-1.36-.36A1.59,1.59,0,0,1,34.82,42.25Z" style="fill:#3a2018;fill-rule:evenodd"/><path d="M36.64,43.55a.33.33,0,0,1,.31-.36.34.34,0,0,1,.36.31c0,.1,0,.25,0,.41.08,1.37.24,4.16,2.08,4.26,1.5.09,1.81-1.92,1.89-3.29,0-.32,0-.6,0-.82a2.54,2.54,0,0,1,0-.3.33.33,0,1,1,.66,0v.29c0,.24,0,.54,0,.85-.1,1.64-.51,4-2.6,3.92-2.44-.14-2.62-3.32-2.71-4.89C36.66,43.81,36.65,43.68,36.64,43.55Z" style="fill:#3a2018;fill-rule:evenodd"/><path d="M33.72,36.69c3.37-.07,4.68,4,1.41,3.19a8.44,8.44,0,0,0-3.47-.13C29.16,40.12,30.18,36.77,33.72,36.69Z" style="fill:#3a2018;fill-rule:evenodd"/><path d="M35.15,37.37a.73.73,0,0,1,.78.65.7.7,0,0,1-.69.71.73.73,0,0,1-.78-.65A.69.69,0,0,1,35.15,37.37Z" style="fill:#fff;fill-rule:evenodd"/><path d="M33.84,34.14a.33.33,0,0,1-.31-.36.33.33,0,0,1,.35-.31,4.43,4.43,0,0,1,2.07.77,4.9,4.9,0,0,1,1.52,1.65.32.32,0,0,1-.12.45.33.33,0,0,1-.46-.12,4.28,4.28,0,0,0-1.32-1.43A3.7,3.7,0,0,0,33.84,34.14Z" style="fill:#3a2018;fill-rule:evenodd"/><path d="M45.54,36.69c-3.38-.06-4.67,4-1.41,3.19a8.45,8.45,0,0,1,3.47-.13C50.1,40.11,49.07,36.76,45.54,36.69Z" style="fill:#3a2018;fill-rule:evenodd"/><path d="M47,37.33a.73.73,0,0,0-.77.66.69.69,0,0,0,.69.71.73.73,0,0,0,.77-.66A.69.69,0,0,0,47,37.33Z" style="fill:#fff;fill-rule:evenodd"/><path d="M44.66,33.63a.34.34,0,1,1,0,.67,3.21,3.21,0,0,0-1.5.58,3.46,3.46,0,0,0-1.1,1.22.33.33,0,0,1-.45.14.33.33,0,0,1-.14-.45,4.07,4.07,0,0,1,1.31-1.46A3.94,3.94,0,0,1,44.66,33.63Z" style="fill:#3a2018;fill-rule:evenodd"/></g></g></svg>