<svg xmlns="http://www.w3.org/2000/svg" viewBox="0 0 78.88 78.88"><title>Asset 38</title><g id="Layer_2" data-name="Layer 2"><g id="Layer_2-2" data-name="Layer 2"><rect width="78.88" height="78.88" style="fill:#857095"/><path d="M61.52,77.89s-.1-6-.33-6.54c-.47-2.1.36-3.06-2.89-5.08,0,0-.73-.24-1.8-.59h0l-2.4-.8c-.34-.12-.67-.24-1-.35C51.6,64,50.12,63.46,49,63a6.37,6.37,0,0,1-1.56-.84s0-.05-.08-.09a.86.86,0,0,1-.07-.1A21.11,21.11,0,0,1,46,58.42h0a5.69,5.69,0,0,1-.12-1c0-.48,0-1,0-1.41s0-.86,0-1.2v-.28c0-.24,0-.44,0-.59s0-.24,0-.24l.86-.75c.64-.57,1.55-1.39,2.34-2.18a9.34,9.34,0,0,0,1.74-2.09.49.49,0,0,0,0-.15l-.06,0c-.4.06-2.55.43-4.86.79-1.37.22-2.81.43-4,.58l-1.25.14h0c-.34,0-.63.05-.84.05s-.56,0-1-.05h0l-1.31-.17c-1.07-.13-2.36-.32-3.6-.51l-3.16-.51-.58-.1-1.38-.24a1.54,1.54,0,0,0,.4.74,0,0,0,0,0,0,0c.19.25.44.54.73.86s.6.62.93.93c1,1,2.06,1.91,2.58,2.36l.32.27a2,2,0,0,1,0,.24c0,.15,0,.35,0,.59v.28c0,.1,0,.2,0,.3,0,.65,0,1.46-.06,2.31a5.71,5.71,0,0,1-.13,1A21.07,21.07,0,0,1,32.16,62l-.08.1-.07.09a6,6,0,0,1-1.24.7c-1.23.55-3.17,1.25-5,1.86a2.67,2.67,0,0,0-.26.09L23,65.68h0c-1,.35-1.76.57-1.79.59-3.22,2-2.43,3-2.88,5h0v0a.48.48,0,0,0,0,.15h0c-.21,1.09-.3,6.38-.3,6.38,0,.32,0,.65,0,1H61.53C61.53,78.54,61.53,78.21,61.52,77.89Z" style="fill:#fbd2c5"/><path d="M46,58.41a5.58,5.58,0,0,1-.12-1c0-1.12-.06-2.19-.08-2.89a14.09,14.09,0,0,1-5.68,1.32,3.62,3.62,0,0,1-.76,0,14.17,14.17,0,0,1-5.69-1.32c0,.7,0,1.77-.07,2.89a4.81,4.81,0,0,1-.13,1c1.81,1.51,4.26,3.07,5.89,3.07a1.79,1.79,0,0,0,.34,0h.08a1.79,1.79,0,0,0,.34,0C41.75,61.48,44.2,59.92,46,58.41Z" style="fill:#d29f97"/><path d="M55.82,36c.32-1.73.56-3,.63-3.31s.07-.25.1-.38.07-.28.09-.42.1-.43.15-.64,0-.2.05-.3.09-.47.13-.71l0-.31c0-.21,0-.42.08-.64a3.56,3.56,0,0,1,.05-.47c0-.14,0-.28,0-.41a14.89,14.89,0,0,0-2.67-9.59c-2.58-3.62-5.56-7.46-12-8H37c-6.46.53-9.43,4.37-12,8a15,15,0,0,0-2.67,9.59c0,.13,0,.27,0,.41s0,.31.05.47,0,.43.07.64,0,.21,0,.31.09.48.13.71,0,.2,0,.3.09.43.15.64.07.27.09.42.06.25.1.38.32,1.57.63,3.28c-1.72-.84-4.11.37-3.83,3.54s4.21,5.13,5.55,5.45a10.82,10.82,0,0,0,.32,1.23c1.18,3,2.6,3.84,5.1,6.25,2.72,2.61,6.74,5.06,8.73,5.05H40c2,0,6-2.44,8.73-5.05,2.49-2.41,3.92-3.3,5.09-6.25A10.49,10.49,0,0,0,54.11,45c1.29-.29,5.29-2.21,5.59-5.46S57.55,35.11,55.82,36Z" style="fill:#fbd2c5"/><path d="M58.44,37.77a1.89,1.89,0,0,0-2.87-.57,1.64,1.64,0,0,0-.48,1.8c.13.53.68.57.54,1.37a1.42,1.42,0,0,1-.81,1.15,1.79,1.79,0,0,0-.68.73,2,2,0,0,0-.1,1.11c.15.65,1.1.15,1.72-.13a12.88,12.88,0,0,0,2.08-1.65,3.6,3.6,0,0,0,.6-3.81" style="fill:#e9b7ac"/><path d="M21.1,37.77A1.89,1.89,0,0,1,24,37.2a1.64,1.64,0,0,1,.48,1.8c-.13.53-.68.57-.54,1.37a1.43,1.43,0,0,0,.8,1.15,1.73,1.73,0,0,1,.68.73,1.87,1.87,0,0,1,.1,1.11c-.15.65-1.09.15-1.72-.13a12.81,12.81,0,0,1-2.07-1.65,3.6,3.6,0,0,1-.6-3.81" style="fill:#e9b7ac"/><path d="M56.44,13.58a10.45,10.45,0,0,0-4-2.24s-4.94-2.47-8.7-4.24-9.87-.35-13,.47-6.95,5.34-8.13,7.81-4.09,7.85-5,11.73,2.22,7.65,4.19,8.45c1.28.52,1.36,3.54,1.36,3.54l1.4.62a18.08,18.08,0,0,1,2-8.51A16.88,16.88,0,0,0,34,32.67a7.49,7.49,0,0,1-2.67,1.41s2.81.81,6.63-2.35a8.79,8.79,0,0,0,.87-.43A8.33,8.33,0,0,1,35,36.38s5.72.33,9.47-10.74c0,0,1.76-10.06,9.91.45a9.56,9.56,0,0,1,2.14,6.34c0,1.65-.74,6.47-.74,6.47l.74-.53a3.74,3.74,0,0,1,2.11-3c1.68-.94,2.11-4.11,2.11-5.42C60.7,21.16,58.21,15.22,56.44,13.58Z" style="fill:#0b0e13"/><path d="M26,69.73c-1.09,2.43-2.65,3.6-3,5.92-.14.79-.28,2.24-.37,3.23H57.35c-.09-1-.23-2.44-.37-3.23-.38-2.28-1.88-3.44-3-5.79A77.44,77.44,0,0,1,40.32,71,75.52,75.52,0,0,1,26,69.73Z" style="fill:#652f8e"/><path d="M49.93,63.19c-10,10.35-20-.08-20-.08-.83.33-1.81.7-2.82,1A13.7,13.7,0,0,1,26,69.73,75.52,75.52,0,0,0,40.32,71,77.44,77.44,0,0,0,54,69.86a13.6,13.6,0,0,1-1.16-5.59C51.82,63.91,50.81,63.53,49.93,63.19Z" style="fill:#857095"/><ellipse cx="39.77" cy="70.99" rx="8.03" ry="2.25" style="fill:#f07068"/><path d="M38.68,41.53h2.49c1.1,3.09,1.64-1.45,1.53.75-.08,1.62-.7,5.2-2.85,5.47-1.92.24-2.73-4.32-2.83-5.67C36.89,40.22,37.8,44.46,38.68,41.53Z" style="fill:#3a2018;fill-rule:evenodd"/><path d="M41.62,45.39c-.86,2.51-2.59,2.66-3.45-.06A2.15,2.15,0,0,1,41.62,45.39Z" style="fill:#cb4f41;fill-rule:evenodd"/><path d="M29.63,37.57l6.06,3.19C32.13,44.81,26.45,40.16,29.63,37.57Z" style="fill:#fff;fill-rule:evenodd"/><path d="M50,37.57,44,40.76C47.52,44.81,53.2,40.16,50,37.57Z" style="fill:#fff;fill-rule:evenodd"/><path d="M28.65,45.16a.26.26,0,0,1-.42-.3,3.24,3.24,0,0,1,.86-.79,4.91,4.91,0,0,1,1.17-.55.27.27,0,0,1,.33.17.26.26,0,0,1-.17.33,4.39,4.39,0,0,0-1,.49A2.9,2.9,0,0,0,28.65,45.16Z" style="fill:#3a2018;fill-rule:evenodd"/><path d="M33.73,45.25a.27.27,0,0,1-.37,0,.26.26,0,0,1,0-.37l0,0a4,4,0,0,1,1.57-1.18.26.26,0,0,1,.35.14.27.27,0,0,1-.14.34,3.66,3.66,0,0,0-1.38,1Z" style="fill:#3a2018;fill-rule:evenodd"/><path d="M31.23,45.32a.26.26,0,0,1-.36.08.26.26,0,0,1-.09-.36,4,4,0,0,1,.79-.83h0a3.25,3.25,0,0,1,1-.53.27.27,0,0,1,.33.17.26.26,0,0,1-.17.33,3,3,0,0,0-.81.44h0A2.59,2.59,0,0,0,31.23,45.32Z" style="fill:#3a2018;fill-rule:evenodd"/><path d="M44.35,45.16a.26.26,0,0,1-.37.06.27.27,0,0,1-.06-.36,3.31,3.31,0,0,1,.87-.79A4.73,4.73,0,0,1,46,43.52a.26.26,0,0,1,.16.5,4.48,4.48,0,0,0-1,.49A2.82,2.82,0,0,0,44.35,45.16Z" style="fill:#3a2018;fill-rule:evenodd"/><path d="M49.43,45.25a.26.26,0,1,1-.4-.34l0,0a3.94,3.94,0,0,1,1.57-1.18.25.25,0,0,1,.34.14.25.25,0,0,1-.14.34,3.6,3.6,0,0,0-1.37,1Z" style="fill:#3a2018;fill-rule:evenodd"/><path d="M46.92,45.32a.26.26,0,0,1-.36.08.26.26,0,0,1-.08-.36,3.49,3.49,0,0,1,.79-.83h0a3.52,3.52,0,0,1,1-.53.26.26,0,0,1,.33.17.25.25,0,0,1-.17.33,3,3,0,0,0-.81.44h0A3,3,0,0,0,46.92,45.32Z" style="fill:#3a2018;fill-rule:evenodd"/><path d="M29.79,37.26l6.07,3.19a.36.36,0,0,1,.14.48L36,41a4.49,4.49,0,0,1-6.53.56,3.46,3.46,0,0,1-.95-1.43,2.48,2.48,0,0,1,.93-2.83.33.33,0,0,1,.38,0Zm5.33,3.6L29.68,38a1.77,1.77,0,0,0-.54,1.91A2.67,2.67,0,0,0,29.9,41a3.77,3.77,0,0,0,5.22-.17Z" style="fill:#3a2018;fill-rule:evenodd"/><path d="M50,38l-5.44,2.87a3.77,3.77,0,0,0,5.22.17,2.67,2.67,0,0,0,.76-1.13A1.77,1.77,0,0,0,50,38Zm-6.18,2.46,6.07-3.19a.33.33,0,0,1,.38,0,2.5,2.5,0,0,1,.93,2.83,3.46,3.46,0,0,1-1,1.43A4.49,4.49,0,0,1,43.69,41l0-.06A.36.36,0,0,1,43.79,40.45Z" style="fill:#3a2018;fill-rule:evenodd"/></g></g></svg>