<svg xmlns="http://www.w3.org/2000/svg" viewBox="0 0 78.88 78.88"><title>Asset 39</title><g id="Layer_2" data-name="Layer 2"><g id="Layer_2-2" data-name="Layer 2"><rect width="78.88" height="78.88" style="fill:#832320"/><ellipse cx="40.49" cy="42.29" rx="18.34" ry="16.52" style="fill:#7b3944"/><path d="M61.59,77.89s-.1-6-.33-6.54c-.47-2.1.36-3.06-2.89-5.08,0,0-.74-.24-1.8-.59h0l-2.4-.8c-.34-.12-.67-.24-1-.35-.87-.31-1.72-.62-2.51-.92L49.11,63c-.38-.17-.71-.32-1-.46a2.21,2.21,0,0,1-.59-.38s0-.05-.08-.09a.86.86,0,0,1-.07-.1,20.23,20.23,0,0,1-1.33-3.56h0a5.69,5.69,0,0,1-.12-1c0-.48,0-1,0-1.41s0-.86,0-1.2v-.28c0-.24,0-.44,0-.59s0-.24,0-.24l.86-.75c.64-.57,1.55-1.4,2.33-2.18a9.18,9.18,0,0,0,1.75-2.09,1.31,1.31,0,0,0,0-.15l-.07,0c-.39.06-2.54.43-4.85.79-1.37.22-2.81.43-4,.58l-1.24.14h0c-.33,0-.62.05-.83.05s-.56,0-1-.05h0l-1.31-.17c-1.07-.13-2.36-.32-3.61-.51l-3.15-.51-.58-.1-1.39-.24a1.54,1.54,0,0,0,.4.74s0,0,0,0a9.12,9.12,0,0,0,.73.86c.29.3.6.62.93.93,1,1,2.06,1.91,2.58,2.36l.31.27s0,.09,0,.24,0,.35,0,.59v.28c0,.1,0,.2,0,.3,0,.65,0,1.46-.07,2.31a5.69,5.69,0,0,1-.12,1A21.64,21.64,0,0,1,32.23,62l-.08.1a.76.76,0,0,0-.07.09l-.25.18a9.31,9.31,0,0,1-1,.52c-.37.16-.8.34-1.27.52-1.11.44-2.44.91-3.7,1.34a2.67,2.67,0,0,0-.26.09l-2.56.86h0c-1.05.35-1.76.57-1.79.59-3.22,2-2.43,3-2.88,5h0v0a.3.3,0,0,0,0,.15h0c-.21,1.09-.3,6.38-.3,6.38,0,.32,0,.65,0,1H61.6C61.6,78.54,61.6,78.21,61.59,77.89Z" style="fill:#fbd2c5"/><path d="M30.64,39.12c.53,2.31,2.34,3.4,2.29,6.69,1.9.7,3.72,1.47,4.59,3.2v1.22H43V49.11c.92-1.78,2.82-2.59,4.81-3.3,0-4.29,2-5,2.3-8.36C51.39,23.91,27.23,24.43,30.64,39.12ZM42,45.06a2.15,2.15,0,0,1-3.31-.8l1.35-3.75S44.3,43.63,42,45.06Zm-5.66-3.72A2.4,2.4,0,1,1,39,39,2.48,2.48,0,0,1,36.38,41.34Zm7.89-.49a2.4,2.4,0,1,1,2.57-2.39A2.49,2.49,0,0,1,44.27,40.85Z" style="fill:#dcb4b0"/><path d="M46.08,58.41a5.58,5.58,0,0,1-.12-1c0-1.12-.07-2.19-.08-2.89a14.09,14.09,0,0,1-5.68,1.32,2.3,2.3,0,0,1-.38,0,2.48,2.48,0,0,1-.39,0,14.16,14.16,0,0,1-5.68-1.32c0,.7,0,1.77-.07,2.89a4.81,4.81,0,0,1-.13,1c1.81,1.51,4.26,3.07,5.88,3.07a1.9,1.9,0,0,0,.35,0h.08a1.87,1.87,0,0,0,.34,0C41.82,61.48,44.27,59.92,46.08,58.41Z" style="fill:#d29f97"/><path d="M55.89,36c.31-1.73.56-3,.63-3.31s.07-.25.1-.38.07-.28.09-.42.1-.43.15-.64,0-.2,0-.3.09-.47.12-.71,0-.21,0-.31,0-.42.08-.64a3.56,3.56,0,0,1,.05-.47c0-.14,0-.28,0-.41a14.89,14.89,0,0,0-2.67-9.59c-2.58-3.62-5.56-7.46-12-8H37.09c-6.45.53-9.42,4.37-12,8a15,15,0,0,0-2.67,9.59c0,.13,0,.27,0,.41s0,.31,0,.47,0,.43.07.64,0,.21,0,.31.09.48.12.71,0,.2.05.3.09.43.15.64.07.27.09.42.06.25.1.38.32,1.57.63,3.28c-1.72-.84-4.11.37-3.83,3.54s4.2,5.13,5.55,5.45a10.82,10.82,0,0,0,.32,1.23c1.18,3,2.6,3.84,5.1,6.25,2.72,2.61,6.74,5.06,8.72,5.05H40c2,0,6-2.44,8.73-5.05,2.49-2.41,3.92-3.3,5.09-6.25A11.1,11.1,0,0,0,54.17,45c1.3-.29,5.3-2.21,5.6-5.46S57.62,35.11,55.89,36Z" style="fill:#fbd2c5"/><path d="M58.51,37.77a1.89,1.89,0,0,0-2.87-.57,1.64,1.64,0,0,0-.48,1.8c.13.53.68.57.54,1.37a1.42,1.42,0,0,1-.81,1.15,1.79,1.79,0,0,0-.68.73,2,2,0,0,0-.1,1.11c.15.65,1.1.15,1.72-.13a12.88,12.88,0,0,0,2.08-1.65,3.6,3.6,0,0,0,.6-3.81" style="fill:#e9b7ac"/><path d="M21.17,37.77A1.89,1.89,0,0,1,24,37.2a1.64,1.64,0,0,1,.48,1.8c-.13.53-.68.57-.54,1.37a1.41,1.41,0,0,0,.8,1.15,1.73,1.73,0,0,1,.68.73,2,2,0,0,1,.1,1.11c-.15.65-1.09.15-1.72-.13a12.81,12.81,0,0,1-2.07-1.65,3.6,3.6,0,0,1-.6-3.81" style="fill:#e9b7ac"/><path d="M48.74,7.16c-1.71-1.54-4.93-1.71-8-1.89H40.6a28.28,28.28,0,0,0-8,1.89c-16.89,6.18-11.16,27-6.83,37.17a25.26,25.26,0,0,1-.75-6.25c0-4.31,4.19-9.66,4.19-9.66a20.26,20.26,0,0,0-2.31,7,.45.45,0,0,0,0,.11,1.07,1.07,0,0,0,2.1.33,12,12,0,0,1,.56-1.76,6.33,6.33,0,0,1,3.79-3.91h0a5.59,5.59,0,0,0,1,5.2,12.17,12.17,0,0,1,.21-1.81,14,14,0,0,1,5.47-8.84,1,1,0,0,1,1.21,0,14,14,0,0,1,5.46,8.84A12.17,12.17,0,0,1,47,35.44a5.59,5.59,0,0,0,1-5.2h0a6.33,6.33,0,0,1,3.79,3.91,13.34,13.34,0,0,1,.56,1.76,1.07,1.07,0,0,0,2.1-.33v-.11a20.26,20.26,0,0,0-2.31-7s4.18,5.35,4.18,9.66a25.81,25.81,0,0,1-.74,6.25C59.91,34.12,59.5,16.81,48.74,7.16Z" style="fill:#7b3944"/><path d="M52.29,3.9c-3.37-1.68-6-4.91-16.21-1.12-5.42,2-8,3.64-9.21,4.72a2.08,2.08,0,0,0-2.72,3.13l-.09.11A49.92,49.92,0,0,0,18,24c-1.55,5.89-2.67,7.71-2.25,8.84s.84,2.1.84,2.1S18.3,36.58,22,31.62,38,24.09,44,18.77s9.13-4.06,9.83-5S55,9.46,55.38,8.37,55.66,5.59,52.29,3.9Z" style="fill:#2e1f18"/><path d="M61.79,76.21c0-1.08-.12-4.76-.2-4.95-.47-2.1.36-3.06-2.92-5.08,0,0-.74-.24-1.82-.59h0l-2.42-.8-1-.35L53,64.31l-2.21-.8-.73-.28a13.14,13.14,0,0,1,.14,1.89c0,6.59-4.6,6.37-10.28,6.37s-10.29.22-10.29-6.37a13.56,13.56,0,0,1,.14-1.92l-.26.1c-.78.31-1.67.63-2.57.94l-1.17.4a2.67,2.67,0,0,0-.26.09L23,65.59h0c-1.07.35-1.78.57-1.81.59-3.26,2-2.46,3-2.92,5h0v0a.61.61,0,0,0,0,.15h0c-.07.34-.13,3.9-.17,4.79h5.89v2.58h32.4V76.21Z" style="fill:#46423e"/><path d="M34.39,61.29a1.06,1.06,0,1,1-1.06-1A1,1,0,0,1,34.39,61.29Z" style="fill:#fff"/><path d="M35.41,63a1.06,1.06,0,1,1-1.06-1A1,1,0,0,1,35.41,63Z" style="fill:#36aeaf"/><path d="M36.69,64.64a1.06,1.06,0,1,1-1-1A1,1,0,0,1,36.69,64.64Z" style="fill:#fff"/><path d="M38.3,65.94a1.06,1.06,0,1,1-1.06-1A1,1,0,0,1,38.3,65.94Z" style="fill:#36aeaf"/><path d="M40.28,66.68a1.06,1.06,0,1,1-1.06-1A1,1,0,0,1,40.28,66.68Z" style="fill:#fff"/><path d="M41.34,65.3a1,1,0,1,1-1.06,1A1,1,0,0,1,41.34,65.3Z" style="fill:#36aeaf"/><path d="M43.18,64.33a1,1,0,1,1-1.06,1A1,1,0,0,1,43.18,64.33Z" style="fill:#fff"/><path d="M44.87,63.11a1,1,0,1,1-1.06,1A1,1,0,0,1,44.87,63.11Z" style="fill:#36aeaf"/><path d="M46.24,61.59a1,1,0,1,1-1.06,1A1,1,0,0,1,46.24,61.59Z" style="fill:#fff"/><path d="M47,59.72a1,1,0,1,1-1.06,1A1,1,0,0,1,47,59.72Z" style="fill:#36aeaf"/><path d="M34.88,40.14a.33.33,0,0,1,.06.47.34.34,0,0,1-.47.06,6.12,6.12,0,0,0-2.92-1.08,6.53,6.53,0,0,0-3.13.39.33.33,0,0,1-.44-.19.34.34,0,0,1,.19-.43,7.18,7.18,0,0,1,3.46-.43A6.81,6.81,0,0,1,34.88,40.14Z" style="fill:#3a2018;fill-rule:evenodd"/><path d="M45.27,40.63a.67.67,0,0,1-1-.92,6.05,6.05,0,0,1,2.38-1.54,5.71,5.71,0,0,1,4,.18.67.67,0,0,1,.38.87.66.66,0,0,1-.87.38,4.44,4.44,0,0,0-3.12-.16A4.73,4.73,0,0,0,45.27,40.63Z" style="fill:#3a2018;fill-rule:evenodd"/><path d="M42,46.67a3.55,3.55,0,0,1-1.8-1.85c-.5-1.46,1.44-2.22,1.92-.45,1.23-2.07,3-.79,1.89.74A5.39,5.39,0,0,1,42,46.67Z" style="fill:#dc98ab;fill-rule:evenodd"/><path d="M38.93,43.5a.34.34,0,0,1-.2-.43.35.35,0,0,1,.43-.2,2.79,2.79,0,0,1,1.51,1c.2.39.07.77-.57,1.12.53.38.7.72.62,1.06s-.58.69-1.25,1a.35.35,0,0,1-.44-.18.34.34,0,0,1,.18-.44c.48-.21.82-.38.86-.52s-.21-.31-.85-.66h0a.34.34,0,0,1,.05-.61c.63-.23.85-.37.8-.46A2.52,2.52,0,0,0,38.93,43.5Z" style="fill:#3a2018;fill-rule:evenodd"/><path d="M31.18,41.07c3.82.12,3.75,2.66-.08,2.54S27.35,41,31.18,41.07Z" style="fill:#dc98ab;fill-rule:evenodd"/><path d="M49.42,41.07c3.82.12,3.74,2.66-.08,2.54S45.59,41,49.42,41.07Z" style="fill:#dc98ab;fill-rule:evenodd"/><path d="M32.19,35.29a3,3,0,0,1,2.4,4.86,10.79,10.79,0,0,0-5.49-.86A3,3,0,0,1,32.19,35.29Z" style="fill:#3a2018;fill-rule:evenodd"/><path d="M33.37,36.55a1,1,0,1,1-.69,1.21A1,1,0,0,1,33.37,36.55Z" style="fill:#fff;fill-rule:evenodd"/></g></g></svg>