<svg xmlns="http://www.w3.org/2000/svg" viewBox="0 0 78.88 78.88"><title>writing4MiaFujimotoSVG</title><g id="Layer_2" data-name="Layer 2"><g id="Layer_2-2" data-name="Layer 2"><rect width="78.88" height="78.88" style="fill:#a86a72"/><path d="M64.72,36.55a5.91,5.91,0,0,0,1-2.62,5.55,5.55,0,0,0-.68-3.65l-.94-1.22A5.73,5.73,0,0,0,63,28.18a10.94,10.94,0,0,0,.53-6.76,7.65,7.65,0,0,0-.79-2,6.16,6.16,0,0,0-1.36-1.73A7.47,7.47,0,0,0,58.29,16,11.13,11.13,0,0,0,57,15.71c0-.3-.09-.62-.16-.94,0-.15-.07-.28-.11-.43a10.73,10.73,0,0,0-.69-1.64,7,7,0,0,0-2.54-2.56,9.41,9.41,0,0,0-9,.33,15.07,15.07,0,0,0-1.9,1.24,9.93,9.93,0,0,0-.5-1c-.23-.43-.5-.85-.77-1.27a7.14,7.14,0,0,0-1.15-1.61,3.8,3.8,0,0,0-1.61-.85,7.68,7.68,0,0,0-1.34-.17c-.28,0-.56,0-.83,0a6.59,6.59,0,0,0-.77,0,3.52,3.52,0,0,0-1.92.61c-.32.24-.61.48-.91.73-.65.47-1.32.9-1.94,1.41a5.88,5.88,0,0,0-.71.7,6.92,6.92,0,0,0-.57.74,10.52,10.52,0,0,0-6-.8,5.71,5.71,0,0,0-4.12,4.09,7,7,0,0,0,.17,3.89,5.6,5.6,0,0,0-1.35.65A6.86,6.86,0,0,0,17,20c-.53.67-1,1.4-1.47,2.09a3.52,3.52,0,0,0-.36.5,5,5,0,0,0-.34.83,4.2,4.2,0,0,0-.15.93c0,.1,0,.21,0,.32v0l-.3.18a5.84,5.84,0,0,0-.56.42,4.3,4.3,0,0,0-.74.55,4.85,4.85,0,0,0-.69,1,5.08,5.08,0,0,0-.81,1.69,6.34,6.34,0,0,0,0,2.53A2.6,2.6,0,0,0,12,32a8.51,8.51,0,0,0,.87,1c.33.3.64.63,1,.91s.77.6,1.17.88l-.24.19-.51.38a5.14,5.14,0,0,0-1.74,2,6.1,6.1,0,0,0-.58,4.31,5.86,5.86,0,0,0,2.73,3.56,8.56,8.56,0,0,0,4.71.91c1-.08,2-.12,3-.15H23l.75.3a3.86,3.86,0,0,0,.58.17,9.82,9.82,0,0,0-.25,1.42c0,.12-.09.23-.13.35a9,9,0,0,0-.29,1.88,5.82,5.82,0,0,0,2.91,5,5.84,5.84,0,0,0,2.83.75,5.61,5.61,0,0,0,2.91-.77,3.89,3.89,0,0,0,.5-.25,5.74,5.74,0,0,0,5.43,1.41,5.78,5.78,0,0,0,4.12-4.09c0-.19.09-.38.12-.57.16.09.32.16.49.24a11.46,11.46,0,0,0,1.27,1.77,2.29,2.29,0,0,0,.21.23,8.1,8.1,0,0,0,1.32,1,7.19,7.19,0,0,0,3.11.84l1.48-.18a4.4,4.4,0,0,0,2-1.06,5.69,5.69,0,0,0,2.08-3A15.7,15.7,0,0,0,54.94,48c.78,0,1.57,0,2.37,0a9.81,9.81,0,0,0,2.7-.19,6.43,6.43,0,0,0,2.31-1.15,5.43,5.43,0,0,0,.77-.63,6.21,6.21,0,0,0,1.24-2,6.71,6.71,0,0,0-.71-6.19A6,6,0,0,0,64.72,36.55Z" style="fill:#faa830"/><path d="M60.52,77.89s-.1-6-.33-6.54c-.47-2.1.36-3.06-2.89-5.08,0,0-.73-.24-1.8-.59h0l-2.4-.8c-.33-.12-.67-.24-1-.35-.86-.31-1.72-.62-2.51-.92L48,63c-.38-.17-.71-.32-1-.46a2.4,2.4,0,0,1-.59-.38s0-.05-.08-.09a.86.86,0,0,1-.07-.1A21.11,21.11,0,0,1,45,58.42h0a5.69,5.69,0,0,1-.12-1c0-.48,0-1,0-1.41s0-.86,0-1.2v-.28c0-.24,0-.44,0-.59s0-.24,0-.24l.86-.75c.64-.57,1.55-1.4,2.34-2.18a9.06,9.06,0,0,0,1.74-2.09.49.49,0,0,0,0-.15l-.06,0c-.4.06-2.55.43-4.86.79-1.37.22-2.81.43-4,.58l-1.25.14h0c-.34,0-.63.05-.84.05s-.56,0-1-.05h0l-1.32-.17c-1.07-.13-2.36-.32-3.6-.51l-3.16-.51-.58-.1-1.38-.24a1.54,1.54,0,0,0,.4.74,0,0,0,0,0,0,0,11.3,11.3,0,0,0,.74.86c.28.3.6.62.92.93,1,1,2.06,1.91,2.58,2.36l.32.27a2,2,0,0,1,0,.24c0,.15,0,.35,0,.59v.28c0,.1,0,.2,0,.3,0,.65,0,1.46-.06,2.31a5.71,5.71,0,0,1-.13,1A21.07,21.07,0,0,1,31.16,62l-.08.1-.07.09-.24.18a9.63,9.63,0,0,1-1,.52c-.37.16-.8.34-1.27.52-1.11.44-2.43.91-3.7,1.34l-.26.09L22,65.68h0c-1,.35-1.76.57-1.79.59-3.22,2-2.43,3-2.88,5h0v0a.48.48,0,0,0,0,.15h0c-.21,1.09-.3,6.38-.3,6.38,0,.32,0,.65,0,1H60.54C60.53,78.54,60.53,78.21,60.52,77.89Z" style="fill:#fbd2c5"/><path d="M45,58.41a5.58,5.58,0,0,1-.12-1c0-1.12-.06-2.19-.08-2.89a14.09,14.09,0,0,1-5.68,1.32,3.62,3.62,0,0,1-.76,0,14.17,14.17,0,0,1-5.69-1.32c0,.7,0,1.77-.07,2.89a5.58,5.58,0,0,1-.12,1c1.81,1.51,4.25,3.07,5.88,3.07a1.79,1.79,0,0,0,.34,0h.08a1.79,1.79,0,0,0,.34,0C40.76,61.48,43.2,59.92,45,58.41Z" style="fill:#d29f97"/><path d="M54.82,36c.32-1.73.56-3,.63-3.31s.07-.25.1-.38.07-.28.09-.42.1-.43.15-.64,0-.2.05-.3.09-.47.13-.71l0-.31c0-.21,0-.42.08-.64a3.56,3.56,0,0,1,.05-.47c0-.14,0-.28,0-.41a14.83,14.83,0,0,0-2.67-9.59c-2.58-3.62-5.55-7.46-12-8H36c-6.46.53-9.43,4.37-12,8a14.9,14.9,0,0,0-2.68,9.59c0,.13,0,.27,0,.41s0,.31.05.47,0,.43.07.64,0,.21,0,.31.09.48.13.71,0,.2,0,.3.09.43.15.64.07.27.09.42.06.25.1.38.32,1.57.63,3.28c-1.72-.84-4.11.37-3.83,3.54s4.21,5.13,5.55,5.45a10.82,10.82,0,0,0,.32,1.23c1.18,3,2.6,3.84,5.1,6.25,2.72,2.61,6.74,5.06,8.73,5.05H39c2,0,6-2.44,8.73-5.05,2.5-2.41,3.92-3.3,5.09-6.25A10.49,10.49,0,0,0,53.11,45c1.29-.29,5.29-2.21,5.59-5.46S56.55,35.11,54.82,36Z" style="fill:#fbd2c5"/><path d="M57.44,37.77a1.89,1.89,0,0,0-2.87-.57,1.64,1.64,0,0,0-.48,1.8c.13.53.68.57.54,1.37a1.42,1.42,0,0,1-.81,1.15,1.79,1.79,0,0,0-.68.73,2,2,0,0,0-.09,1.11c.15.65,1.09.15,1.71-.13a12.88,12.88,0,0,0,2.08-1.65,3.6,3.6,0,0,0,.6-3.81" style="fill:#e9b7ac"/><path d="M20.1,37.77A1.89,1.89,0,0,1,23,37.2a1.64,1.64,0,0,1,.48,1.8c-.13.53-.68.57-.54,1.37a1.43,1.43,0,0,0,.8,1.15,1.75,1.75,0,0,1,.69.73,2,2,0,0,1,.09,1.11c-.15.65-1.09.15-1.72-.13a13.26,13.26,0,0,1-2.07-1.65,3.6,3.6,0,0,1-.6-3.81" style="fill:#e9b7ac"/><path d="M36.28,40l-.06.17.09-.16Z" style="fill:#0e151a;opacity:0.4"/><path d="M36.28,40l-.06.17.09-.16Z" style="fill:#e8e9e7;opacity:0.55"/><path d="M41.45,41.49c.09.13.19.24.28.36-.08-.12-.17-.24-.25-.37Z" style="fill:#0e151a;opacity:0.4"/><path d="M41.45,41.49c.09.13.19.24.28.36-.08-.12-.17-.24-.25-.37Z" style="fill:#e8e9e7;opacity:0.55"/><path d="M57.79,73h3.5a9.09,9.09,0,0,0-.19-1.7l0-.13c-.28-1.36,0-2.25-.87-3.3a7.92,7.92,0,0,0-2.11-1.66l-1.87-.59h0L54.28,65C37.46,80,26.5,68,24,64.77l-.1,0-2.67.86h0l-1.87.59A7.43,7.43,0,0,0,17.2,68c-.72,1-.52,1.85-.79,3.14,0,0,0,.09,0,.13h0v0a.3.3,0,0,0,0,.15h0A12.87,12.87,0,0,0,16.2,73h3.26l.13.07a24.51,24.51,0,0,0-1.25,5.77H59.07A25,25,0,0,0,57.79,73Z" style="fill:#b44e6b"/><path d="M58.36,22.83c-3.85-7.39-8.53-11-13.19-12.44C44.52,8,41.34,6.14,37.5,6.14c-4.06,0-7.39,2.05-7.76,4.67-4.27,1.69-8.5,5.24-12,12,0,0-8.51,20.24,12.14,32.62a17.33,17.33,0,0,1-3-4.27A20.62,20.62,0,0,1,25,42.51c0-2.67,1.93-5.74,3.33-7.61.48-.65.89-1.14,1.15-1.44L34.66,27l.23-.28h0a10.2,10.2,0,0,0,6.23,0h0l.23.28,5.17,6.48c.25.3.66.79,1.14,1.44,1.4,1.87,3.34,4.94,3.34,7.61a20.62,20.62,0,0,1-1.82,8.67,17.54,17.54,0,0,1-3,4.27C66.86,43.07,58.36,22.83,58.36,22.83Z" style="fill:#faa830"/><path d="M33,62.35a1.06,1.06,0,1,1-1.06-1A1,1,0,0,1,33,62.35Z" style="fill:#fff"/><path d="M34,64.1a1.06,1.06,0,1,1-1.06-1A1,1,0,0,1,34,64.1Z" style="fill:#36aeaf"/><path d="M35.28,65.71a1.06,1.06,0,1,1-1.05-1A1,1,0,0,1,35.28,65.71Z" style="fill:#fff"/><path d="M36.89,67a1.06,1.06,0,1,1-1.06-1A1,1,0,0,1,36.89,67Z" style="fill:#36aeaf"/><path d="M38.87,67.75a1.06,1.06,0,1,1-1.06-1A1,1,0,0,1,38.87,67.75Z" style="fill:#fff"/><path d="M39.93,66.36a1,1,0,1,1-1.06,1A1,1,0,0,1,39.93,66.36Z" style="fill:#36aeaf"/><path d="M41.77,65.39a1,1,0,1,1-1.06,1A1,1,0,0,1,41.77,65.39Z" style="fill:#fff"/><path d="M43.46,64.18a1,1,0,1,1-1.06,1A1,1,0,0,1,43.46,64.18Z" style="fill:#36aeaf"/><path d="M44.83,62.65a1,1,0,1,1-1.06,1A1,1,0,0,1,44.83,62.65Z" style="fill:#fff"/><path d="M45.62,60.78a1,1,0,1,1-1.06,1A1,1,0,0,1,45.62,60.78Z" style="fill:#36aeaf"/><path d="M34.92,43.35c1.13,0,2.15.85,3.27.85s2.25-.85,3.32-.85c4.26,0,3,6.76-.57,5.22a6.19,6.19,0,0,0-5.41-.07C32,50.23,30.63,43.35,34.92,43.35Z" style="fill:#cb4f41;fill-rule:evenodd"/><path d="M34.42,39.3a.7.7,0,1,1-1,.93,4.24,4.24,0,0,0-2.38-1,6.88,6.88,0,0,0-3.15.24A.7.7,0,0,1,27,39a.7.7,0,0,1,.45-.88,8.31,8.31,0,0,1,3.79-.29A5.59,5.59,0,0,1,34.42,39.3Z" style="fill:#3a2018;fill-rule:evenodd"/><path d="M42.3,40.36a.7.7,0,1,1-1-1,7,7,0,0,1,3.27-1.66,7.79,7.79,0,0,1,3.76.1.7.7,0,0,1,.5.85.71.71,0,0,1-.85.5,6.61,6.61,0,0,0-3.11-.09A5.62,5.62,0,0,0,42.3,40.36Z" style="fill:#3a2018;fill-rule:evenodd"/><path d="M34.92,43a4.82,4.82,0,0,1,1.76.45,4.3,4.3,0,0,0,1.51.4,4.69,4.69,0,0,0,1.54-.4A5.25,5.25,0,0,1,41.51,43a2.79,2.79,0,0,1,2.81,1.79,3.52,3.52,0,0,1,.14,1.93,3.3,3.3,0,0,1-.84,1.7,2.36,2.36,0,0,1-2.82.47,6.87,6.87,0,0,0-2.61-.63,5.32,5.32,0,0,0-2.5.55,2.34,2.34,0,0,1-2.8-.3A3.29,3.29,0,0,1,32,46.8a3.68,3.68,0,0,1,.14-2A2.79,2.79,0,0,1,34.92,43Zm1.51,1.1a4.24,4.24,0,0,0-1.51-.4,2.13,2.13,0,0,0-2.16,1.35,2.9,2.9,0,0,0-.1,1.6A2.52,2.52,0,0,0,33.37,48a1.68,1.68,0,0,0,2,.18,6.06,6.06,0,0,1,2.82-.62,7.87,7.87,0,0,1,2.88.69,1.72,1.72,0,0,0,2-.31,2.73,2.73,0,0,0,.66-1.35A2.81,2.81,0,0,0,43.66,45a2.12,2.12,0,0,0-2.15-1.34,4.69,4.69,0,0,0-1.54.4,5.25,5.25,0,0,1-1.78.45A4.92,4.92,0,0,1,36.43,44.1Z" style="fill:#3a2018;fill-rule:evenodd"/><path d="M25.76,43.52a.26.26,0,0,1-.42-.3,3,3,0,0,1,.79-.73A4.65,4.65,0,0,1,27.2,42a.27.27,0,0,1,.33.17.26.26,0,0,1-.17.33,3.75,3.75,0,0,0-.94.44A2.7,2.7,0,0,0,25.76,43.52Z" style="fill:#3a2018;fill-rule:evenodd"/><path d="M30.38,43.61a.28.28,0,0,1-.37,0,.26.26,0,0,1,0-.37l0,0a3.94,3.94,0,0,1,1.44-1.08.27.27,0,0,1,.34.14.26.26,0,0,1-.14.35,3.29,3.29,0,0,0-1.24.93Z" style="fill:#3a2018;fill-rule:evenodd"/><path d="M28.11,43.66a.27.27,0,0,1-.45-.28,3.37,3.37,0,0,1,1.62-1.24.25.25,0,0,1,.33.17.27.27,0,0,1-.17.33,2.52,2.52,0,0,0-.74.4A2.55,2.55,0,0,0,28.11,43.66Z" style="fill:#3a2018;fill-rule:evenodd"/><path d="M44.67,43.62a.27.27,0,0,1-.37.07.26.26,0,0,1-.07-.36,2.88,2.88,0,0,1,.77-.75,4,4,0,0,1,1-.54.25.25,0,0,1,.33.16.26.26,0,0,1-.15.33,4,4,0,0,0-.93.48h0A2.29,2.29,0,0,0,44.67,43.62Z" style="fill:#3a2018;fill-rule:evenodd"/><path d="M49.28,43.54a.26.26,0,0,1-.36,0,.27.27,0,0,1,0-.37l0,0a3.74,3.74,0,0,1,1.4-1.12.26.26,0,0,1,.35.12.27.27,0,0,1-.13.35,3.26,3.26,0,0,0-1.21,1Z" style="fill:#3a2018;fill-rule:evenodd"/><path d="M47,43.68a.26.26,0,0,1-.35.09.26.26,0,0,1-.1-.36,3.17,3.17,0,0,1,.7-.78,2.81,2.81,0,0,1,.87-.51.27.27,0,0,1,.34.15.26.26,0,0,1-.16.34,2.3,2.3,0,0,0-.72.43A2.69,2.69,0,0,0,47,43.68Z" style="fill:#3a2018;fill-rule:evenodd"/></g></g></svg>