<svg xmlns="http://www.w3.org/2000/svg" viewBox="0 0 78.88 78.88"><title>writing6LilyNishidaSVG</title><g id="Layer_2" data-name="Layer 2"><g id="Layer_2-2" data-name="Layer 2"><rect width="78.88" height="78.88" style="fill:#d6868d"/><path d="M61.29,77.89s-.1-6-.34-6.54c-.46-2.1.36-3.06-2.88-5.08,0,0-.74-.24-1.8-.59h0l-2.39-.8-1-.35c-.86-.31-1.72-.62-2.51-.92L48.8,63c-.38-.17-.7-.32-1-.46a2.62,2.62,0,0,1-.59-.38l-.07-.09-.08-.1a20.49,20.49,0,0,1-1.32-3.56h0a5.71,5.71,0,0,1-.13-1c0-.48,0-1,0-1.41s0-.86,0-1.2v-.28c0-.24,0-.44,0-.59a2,2,0,0,1,0-.24l.87-.75c.63-.57,1.54-1.4,2.33-2.18a9.18,9.18,0,0,0,1.75-2.09,1,1,0,0,0,0-.15l-.06,0c-.4.06-2.55.43-4.86.79-1.37.22-2.81.43-4,.58l-1.25.14h0c-.34,0-.62.05-.84.05s-.56,0-.95-.05h0l-1.31-.17c-1.08-.13-2.36-.32-3.61-.51l-3.16-.51c-.21,0-.4-.06-.57-.1l-1.39-.24a1.54,1.54,0,0,0,.4.74,0,0,0,0,0,0,0,11.3,11.3,0,0,0,.74.86c.29.3.6.62.92.93,1,1,2.06,1.91,2.59,2.36l.31.27s0,.09,0,.24,0,.35,0,.59v.28c0,.1,0,.2,0,.3,0,.65,0,1.46-.06,2.31a5.69,5.69,0,0,1-.12,1A21.73,21.73,0,0,1,31.92,62a.86.86,0,0,1-.07.1l-.08.09a2.11,2.11,0,0,1-.24.18,9.31,9.31,0,0,1-1,.52l-1.27.52c-1.11.44-2.44.91-3.7,1.34-.09,0-.18.06-.27.09l-2.55.86h0c-1.05.35-1.76.57-1.78.59-3.22,2-2.44,3-2.89,5h0v0a.61.61,0,0,0,0,.15h0c-.22,1.09-.3,6.38-.3,6.38,0,.32,0,.65,0,1H61.3C61.3,78.54,61.3,78.21,61.29,77.89Z" style="fill:#fbd2c5"/><path d="M45.78,58.41a4.81,4.81,0,0,1-.13-1c0-1.12-.06-2.19-.07-2.89a14.16,14.16,0,0,1-5.68,1.32,2.48,2.48,0,0,1-.39,0,2.36,2.36,0,0,1-.38,0,14.09,14.09,0,0,1-5.68-1.32c0,.7,0,1.77-.08,2.89a5.58,5.58,0,0,1-.12,1c1.81,1.51,4.26,3.07,5.88,3.07a1.87,1.87,0,0,0,.34,0h.08a1.9,1.9,0,0,0,.35,0C41.52,61.48,44,59.92,45.78,58.41Z" style="fill:#d29f97"/><path d="M55.59,36c.31-1.73.55-3,.63-3.31s.06-.25.1-.38.06-.28.09-.42.09-.43.14-.64l.06-.3c0-.23.08-.47.12-.71s0-.21,0-.31,0-.42.07-.64,0-.32,0-.47,0-.28,0-.41a15,15,0,0,0-2.67-9.59c-2.59-3.62-5.56-7.46-12-8H36.79c-6.46.53-9.43,4.37-12,8a14.83,14.83,0,0,0-2.67,9.59c0,.13,0,.27,0,.41a3.56,3.56,0,0,1,.05.47c0,.22,0,.43.08.64l0,.31c0,.24.09.48.13.71s0,.2,0,.3.09.43.15.64.06.27.09.42.06.25.1.38.31,1.57.62,3.28c-1.72-.84-4.11.37-3.82,3.54s4.2,5.13,5.54,5.45a10.24,10.24,0,0,0,.33,1.23c1.17,3,2.59,3.84,5.09,6.25,2.72,2.61,6.74,5.06,8.73,5.05h.43c2,0,6-2.44,8.72-5.05,2.5-2.41,3.92-3.3,5.1-6.25A11.1,11.1,0,0,0,53.87,45c1.3-.29,5.3-2.21,5.59-5.46S57.31,35.11,55.59,36Z" style="fill:#fbd2c5"/><path d="M58.2,37.77a1.89,1.89,0,0,0-2.87-.57,1.62,1.62,0,0,0-.47,1.8c.12.53.68.57.53,1.37a1.41,1.41,0,0,1-.8,1.15,1.73,1.73,0,0,0-.68.73,2,2,0,0,0-.1,1.11c.15.65,1.09.15,1.72-.13a12.81,12.81,0,0,0,2.07-1.65,3.58,3.58,0,0,0,.6-3.81" style="fill:#e9b7ac"/><path d="M20.86,37.77a1.89,1.89,0,0,1,2.87-.57,1.64,1.64,0,0,1,.48,1.8c-.13.53-.68.57-.54,1.37a1.42,1.42,0,0,0,.81,1.15,1.79,1.79,0,0,1,.68.73,2,2,0,0,1,.1,1.11c-.15.65-1.09.15-1.72-.13a12.88,12.88,0,0,1-2.08-1.65,3.6,3.6,0,0,1-.6-3.81" style="fill:#e9b7ac"/><path d="M25.65,30.27h0v0Z" style="fill:#46423e"/><path d="M60.74,25.1H59.36c0-.19,0-.39,0-.59a11.62,11.62,0,0,0-.2-1.23H60a1.2,1.2,0,0,0,0-2.39H58.5c-.32-1-.61-1.76-.61-1.77h.93A1.15,1.15,0,0,0,59,16.86c-.29-.07-.6-.15-.92-.25a6.51,6.51,0,0,1-2.93-1.9H57a1.19,1.19,0,1,0,0-2.38H53.12a12.94,12.94,0,0,0-1.82-1.67l1.93-1.93A1.2,1.2,0,1,0,51.54,7L49.18,9.4c-.28-.13-.56-.26-.87-.38h-.05l.45-.46a1.18,1.18,0,0,0,0-1.68,1.19,1.19,0,0,0-1.69,0L45.64,8.25c-.28,0-.54-.08-.79-.1l.44-.44h.41a2,2,0,0,0-.29-.12l1-1a1.19,1.19,0,0,0,0-1.69,1.21,1.21,0,0,0-1.69,0L42.55,7.07a10.34,10.34,0,0,0-1.43.07V6.59a1.2,1.2,0,1,0-2.39,0v.55a10.57,10.57,0,0,0-1.75,0L35.29,5.4a1.19,1.19,0,0,0-1.69,0,1.21,1.21,0,0,0,0,1.69l.6.59-.05,0h.07l.48.48-.57.09-1.41-1.4A1.19,1.19,0,0,0,31,8.55l.47.48-.78.34L28.4,7a1.19,1.19,0,0,0-1.68,1.69l1.88,1.89a10.74,10.74,0,0,0-1.07.89l-.74-.74a1.18,1.18,0,0,0-1.68,0h0A1.18,1.18,0,0,0,25,12.33H23a1.19,1.19,0,1,0,0,2.38h1.71a6.51,6.51,0,0,1-2.93,1.9c-.32.1-.63.18-.92.25A1.15,1.15,0,0,0,21,19.12H22s-.29.75-.61,1.77h-.89a1.2,1.2,0,1,0,0,2.39h.26a11.62,11.62,0,0,0-.2,1.23,17,17,0,0,0,.32,4.27l-.73.74a1.19,1.19,0,0,0,0,1.69,1.17,1.17,0,0,0,1.05.3q0,.63.09,1.35c.19,3.75,1.25,1.83,2.51,4.6a5.7,5.7,0,0,1,.44,2c.47.11,1.69-2.25.81-6.36a4.39,4.39,0,0,1,.23-2.33A1.14,1.14,0,0,1,26.32,30H38.18a1.16,1.16,0,0,0,1.13-.91l.14-.66a1.15,1.15,0,0,1,2.24,0l.15.69A1.15,1.15,0,0,0,43,30,1.14,1.14,0,0,0,44,29.25l.55-1.41a1.14,1.14,0,0,1,2.16.07l.4,1.27a1.14,1.14,0,0,0,1.1.8H49a1.15,1.15,0,0,0,1.11-.84L51.25,25l.23,3.93A1.15,1.15,0,0,0,52.63,30h.9a1.14,1.14,0,0,1,1.08.76,4.39,4.39,0,0,1,.23,2.33c-.88,4.11.34,6.47.81,6.36a5.7,5.7,0,0,1,.44-2c1.26-2.77,2.31-.85,2.51-4.6,0-.31,0-.61.06-.89a1.19,1.19,0,0,0,1.24-2L59,29.08c.08-.59.16-1.11.23-1.59h1.54a1.2,1.2,0,0,0,0-2.39Z" style="fill:#46423e"/><path d="M29.36,65.21a13.56,13.56,0,0,1,.14-1.92l-.26.1c-.77.31-1.66.63-2.55.94l-1.16.4-.26.09-2.57.86h0c-1.05.35-1.76.57-1.79.59a5.87,5.87,0,0,0-2.35,2.17H29.91A8.27,8.27,0,0,1,29.36,65.21Z" style="fill:#36aeaf"/><path d="M17.79,76.3h5.85v2.58H55.82V76.3h5.44c0-.45,0-1.33-.07-2.24H17.86C17.83,75,17.81,75.91,17.79,76.3Z" style="fill:#36aeaf"/><path d="M60.52,68.44H49.25c-1.37,3.27-5.18,3.14-9.67,3.14s-8.3.13-9.67-3.14H18.54A12,12,0,0,0,18,71.31h0v0a.3.3,0,0,0,0,.15h0c0,.19-.07,1.38-.1,2.55H61.19c0-1.28-.08-2.6-.13-2.71C60.79,70.14,61,69.31,60.52,68.44Z" style="fill:#46423e"/><path d="M58.16,66.27s-.74-.24-1.8-.59h0c-.69-.23-1.53-.5-2.4-.8l-1-.35-.33-.12c-.75-.26-1.5-.54-2.19-.8l-.72-.28a14.75,14.75,0,0,1,.14,1.89,8.27,8.27,0,0,1-.55,3.23H60.52A5.92,5.92,0,0,0,58.16,66.27Z" style="fill:#36aeaf"/><circle cx="24.47" cy="45.15" r="1.42" style="fill:#fff"/><path d="M55.53,45.15a1.43,1.43,0,1,1-1.42-1.42A1.43,1.43,0,0,1,55.53,45.15Z" style="fill:#fff"/><path d="M35.78,48.14c-1.47-.6-.54-5.63.79-6.86s3.51.64,3.51.64,2.18-1.88,3.51-.64,2.25,6.27.79,6.86A12.13,12.13,0,0,1,35.78,48.14Z" style="fill:#cb4f41;fill-rule:evenodd"/><path d="M35.27,38.82a.52.52,0,1,1-.56.88,13.56,13.56,0,0,0-6.94-1.77.52.52,0,0,1-.52-.52.51.51,0,0,1,.51-.52A14.53,14.53,0,0,1,35.27,38.82Z" style="fill:#3a2018;fill-rule:evenodd"/><path d="M27.36,39.23A.34.34,0,0,1,27,39a.34.34,0,0,1,.27-.41A13.12,13.12,0,0,1,31,38.38a10.29,10.29,0,0,1,3.35.86.35.35,0,1,1-.29.63,10,10,0,0,0-3.13-.8A12.44,12.44,0,0,0,27.36,39.23Z" style="fill:#3a2018;fill-rule:evenodd"/><path d="M45.27,39.7a.52.52,0,1,1-.56-.88,14.47,14.47,0,0,1,7.5-1.93.51.51,0,0,1,.52.52.52.52,0,0,1-.52.52A13.56,13.56,0,0,0,45.27,39.7Z" style="fill:#3a2018;fill-rule:evenodd"/><path d="M52.76,38.55A.34.34,0,0,1,53,39a.34.34,0,0,1-.41.27,12.44,12.44,0,0,0-3.54-.16,9.89,9.89,0,0,0-3.13.8.35.35,0,1,1-.29-.63A10.29,10.29,0,0,1,49,38.38,13.12,13.12,0,0,1,52.76,38.55Z" style="fill:#3a2018;fill-rule:evenodd"/><path d="M30.76,41.09c-4.11-.05-4.14,2.68,0,2.73S34.88,41.14,30.76,41.09Z" style="fill:#dc98ab;fill-rule:evenodd"/><path d="M35.65,48.47a1.33,1.33,0,0,1-.41-.29,3.63,3.63,0,0,1-.54-2.57,10.76,10.76,0,0,1,.72-3.12A4.27,4.27,0,0,1,36.34,41c1.28-1.18,3.11,0,3.74.46.64-.48,2.47-1.64,3.75-.46a4.2,4.2,0,0,1,.9,1.46,10.45,10.45,0,0,1,.72,3.12,3.62,3.62,0,0,1-.53,2.58,1.18,1.18,0,0,1-.41.29,12.52,12.52,0,0,1-8.86,0Zm.1-.77a.38.38,0,0,0,.17.12,11.79,11.79,0,0,0,8.33,0,.42.42,0,0,0,.16-.11,3.09,3.09,0,0,0,.35-2.06,10,10,0,0,0-.67-2.91,3.54,3.54,0,0,0-.74-1.21c-1.07-1-2.94.57-3,.65a.35.35,0,0,1-.45,0s-2-1.68-3-.66a3.56,3.56,0,0,0-.74,1.23,9.91,9.91,0,0,0-.67,2.89A3,3,0,0,0,35.75,47.7Z" style="fill:#3a2018;fill-rule:evenodd"/><path d="M49.69,41.09c-4.11-.05-4.14,2.68,0,2.73S53.8,41.14,49.69,41.09Z" style="fill:#dc98ab;fill-rule:evenodd"/></g></g></svg>