<svg xmlns="http://www.w3.org/2000/svg" viewBox="0 0 78.88 78.88"><title>writing3ZoeWatanabeSVG</title><g id="Layer_2" data-name="Layer 2"><g id="Layer_2-2" data-name="Layer 2"><rect width="78.88" height="78.88" style="fill:#d6868d"/><path d="M61.29,77.89s-.1-6-.34-6.54c-.46-2.1.36-3.06-2.88-5.08,0,0-.74-.24-1.8-.59h0l-2.39-.8-1-.35c-.86-.31-1.72-.62-2.51-.92L48.8,63c-.38-.17-.7-.32-1-.46a2.62,2.62,0,0,1-.59-.38l-.07-.09-.08-.1a20.49,20.49,0,0,1-1.32-3.56h0a5.71,5.71,0,0,1-.13-1c0-.48,0-1,0-1.41s0-.86,0-1.2v-.28c0-.24,0-.44,0-.59a2,2,0,0,1,0-.24l.87-.75c.63-.57,1.54-1.4,2.33-2.18a9.18,9.18,0,0,0,1.75-2.09,1,1,0,0,0,0-.15l-.06,0c-.4.06-2.55.43-4.86.79-1.37.22-2.81.43-4,.58l-1.25.14h0c-.34,0-.62.05-.84.05s-.56,0-.95-.05h0l-1.31-.17c-1.08-.13-2.36-.32-3.61-.51l-3.16-.51c-.21,0-.4-.06-.57-.1l-1.39-.24a1.54,1.54,0,0,0,.4.74,0,0,0,0,0,0,0,11.3,11.3,0,0,0,.74.86c.29.3.6.62.92.93,1,1,2.06,1.91,2.59,2.36l.31.27s0,.09,0,.24,0,.35,0,.59v.28c0,.1,0,.2,0,.3,0,.65,0,1.46-.06,2.31a5.69,5.69,0,0,1-.12,1A21.73,21.73,0,0,1,31.92,62a.86.86,0,0,1-.07.1l-.08.09a2.11,2.11,0,0,1-.24.18,9.31,9.31,0,0,1-1,.52l-1.27.52c-1.11.44-2.44.91-3.7,1.34-.09,0-.18.06-.27.09l-2.55.86h0c-1.05.35-1.76.57-1.78.59-3.22,2-2.44,3-2.89,5h0v0a.61.61,0,0,0,0,.15h0c-.22,1.09-.3,6.38-.3,6.38,0,.32,0,.65,0,1H61.3C61.3,78.54,61.3,78.21,61.29,77.89Z" style="fill:#fbd2c5"/><path d="M45.78,58.41a4.81,4.81,0,0,1-.13-1c0-1.12-.06-2.19-.07-2.89a14.16,14.16,0,0,1-5.68,1.32,2.48,2.48,0,0,1-.39,0,2.36,2.36,0,0,1-.38,0,14.09,14.09,0,0,1-5.68-1.32c0,.7,0,1.77-.08,2.89a5.58,5.58,0,0,1-.12,1c1.81,1.51,4.26,3.07,5.88,3.07a1.87,1.87,0,0,0,.34,0h.08a1.9,1.9,0,0,0,.35,0C41.52,61.48,44,59.92,45.78,58.41Z" style="fill:#d29f97"/><path d="M55.59,36c.31-1.73.55-3,.63-3.31s.06-.25.1-.38.06-.28.09-.42.09-.43.14-.64l.06-.3c0-.23.08-.47.12-.71s0-.21,0-.31,0-.42.07-.64,0-.32,0-.47,0-.28,0-.41a15,15,0,0,0-2.67-9.59c-2.59-3.62-5.56-7.46-12-8H36.79c-6.46.53-9.43,4.37-12,8a14.83,14.83,0,0,0-2.67,9.59c0,.13,0,.27,0,.41a3.56,3.56,0,0,1,.05.47c0,.22,0,.43.08.64l0,.31c0,.24.09.48.13.71s0,.2,0,.3.09.43.15.64.06.27.09.42.06.25.1.38.31,1.57.62,3.28c-1.72-.84-4.11.37-3.82,3.54s4.2,5.13,5.54,5.45a10.24,10.24,0,0,0,.33,1.23c1.17,3,2.59,3.84,5.09,6.25,2.72,2.61,6.74,5.06,8.73,5.05h.43c2,0,6-2.44,8.72-5.05,2.5-2.41,3.92-3.3,5.1-6.25A11.1,11.1,0,0,0,53.87,45c1.3-.29,5.3-2.21,5.59-5.46S57.31,35.11,55.59,36Z" style="fill:#fbd2c5"/><path d="M58.2,37.77a1.89,1.89,0,0,0-2.87-.57,1.62,1.62,0,0,0-.47,1.8c.12.53.68.57.53,1.37a1.41,1.41,0,0,1-.8,1.15,1.73,1.73,0,0,0-.68.73,2,2,0,0,0-.1,1.11c.15.65,1.09.15,1.72-.13a12.81,12.81,0,0,0,2.07-1.65,3.58,3.58,0,0,0,.6-3.81" style="fill:#e9b7ac"/><path d="M20.86,37.77a1.89,1.89,0,0,1,2.87-.57,1.64,1.64,0,0,1,.48,1.8c-.13.53-.68.57-.54,1.37a1.42,1.42,0,0,0,.81,1.15,1.79,1.79,0,0,1,.68.73,2,2,0,0,1,.1,1.11c-.15.65-1.09.15-1.72-.13a12.88,12.88,0,0,1-2.08-1.65,3.6,3.6,0,0,1-.6-3.81" style="fill:#e9b7ac"/><path d="M25.65,30.27h0v0Z" style="fill:#46423e"/><path d="M61.19,74.06c0-1.28-.08-2.6-.13-2.71-.27-1.21-.11-2-.54-2.91a5.92,5.92,0,0,0-2.36-2.17s-.74-.24-1.8-.59h0c-.69-.23-1.53-.5-2.4-.8l-1-.35-.33-.12c-.75-.26-1.5-.54-2.19-.8l-.72-.28a14.75,14.75,0,0,1,.14,1.89,8.27,8.27,0,0,1-.55,3.23c-1.37,3.27-5.18,3.14-9.67,3.14s-8.3.13-9.67-3.14a8.27,8.27,0,0,1-.55-3.23,13.56,13.56,0,0,1,.14-1.92l-.26.1c-.77.31-1.66.63-2.55.94l-1.16.4-.26.09-2.57.86h0c-1.05.35-1.76.57-1.79.59a5.87,5.87,0,0,0-2.35,2.17A12,12,0,0,0,18,71.31h0v0a.3.3,0,0,0,0,.15h0c0,.19-.07,1.38-.1,2.55,0,.93-.05,1.85-.07,2.24h5.85v2.58H55.82V76.3h5.44C61.24,75.85,61.22,75,61.19,74.06Z" style="fill:#cf4f4d"/><circle cx="24.47" cy="45.15" r="1.42" style="fill:#fff"/><path d="M55.53,45.15a1.43,1.43,0,1,1-1.42-1.42A1.43,1.43,0,0,1,55.53,45.15Z" style="fill:#fff"/><path d="M53.63,13.86a26.87,26.87,0,0,0-9.42-6L45.76,9.3A17.28,17.28,0,0,0,40.4,6.71a8.75,8.75,0,0,0-6.49.14A5.64,5.64,0,0,1,37,7.59c-1-.43-2.71-.58-5.57.6C25.79,10.52,25.89,14.68,22,16s-5.15-.37-5.15-.37,1.73,2.94,4.81,3h.55A27.83,27.83,0,0,0,20.83,24c-.23,2.4.47,4.05.69,8.54.19,3.84,1.2,1.87,2.41,4.7a6,6,0,0,1,.42,2c.45.11,1.62-2.31.78-6.51-.55-2.72,2.16-13.05,8.71-11a12.64,12.64,0,0,1,1.67.66c-6.24,6.25-2.37,15.13-2.37,15.13C33,30,39.31,25,41.27,23.63q.27-.16.57-.39a11.88,11.88,0,0,1,3.62-1.83,10.21,10.21,0,0,1,1,6.29,12.13,12.13,0,0,0,1.62-6.45c1.59,1.69,4.42,5.43,3.62,10a11.93,11.93,0,0,0,1.6-6.81,13.83,13.83,0,0,1,1.15,7.68c-.6,7,.52,6.91.52,6.91.34,0,0-1.85,1.1-3.13s2.83-5.58,2.83-9.87S57.45,17.93,53.63,13.86Z" style="fill:#353839"/><path d="M36.4,45c0,.25,5.44.26,5.49,0a52,52,0,0,0-2.77-4.54A40.42,40.42,0,0,0,36.4,45Z" style="fill:#cb4f41;fill-rule:evenodd"/><path d="M29.22,36.93a.71.71,0,0,1,0-1,.69.69,0,0,1,1,0l4.71,4.61a.71.71,0,0,1,0,1,.7.7,0,0,1-1,0Z" style="fill:#3a2018;fill-rule:evenodd"/><path d="M33.72,35.8a.7.7,0,0,1,1-.06.71.71,0,0,1,.06,1l-4.36,4.94a.69.69,0,0,1-1,.06.71.71,0,0,1-.07-1Z" style="fill:#3a2018;fill-rule:evenodd"/><path d="M27.69,34.12a.35.35,0,0,1-.07-.7c.89-.08,2.19-.2,3.57-.39a31,31,0,0,0,4-.74,1.5,1.5,0,0,0,.84-.67h0a.35.35,0,0,1,.58.39h0a2.16,2.16,0,0,1-1.24,1,34.76,34.76,0,0,1-4,.76C29.9,33.91,28.59,34,27.69,34.12Z" style="fill:#3a2018;fill-rule:evenodd"/><path d="M48.23,36.1a.7.7,0,0,1,1,.95l-4.47,4.84a.7.7,0,1,1-1-1Z" style="fill:#3a2018;fill-rule:evenodd"/><path d="M43.71,37.12a.7.7,0,0,1,1-1l4.6,4.72a.69.69,0,0,1,0,1,.71.71,0,0,1-1,0Z" style="fill:#3a2018;fill-rule:evenodd"/><path d="M51,33.13a.36.36,0,0,1,.32.38.35.35,0,0,1-.38.31c-.9-.08-2.22-.21-3.6-.39a32.27,32.27,0,0,1-4-.76,2.1,2.1,0,0,1-1.24-1h0a.35.35,0,1,1,.58-.39h0a1.44,1.44,0,0,0,.84.68,34.55,34.55,0,0,0,4,.74C48.76,32.92,50.06,33.05,51,33.13Z" style="fill:#3a2018;fill-rule:evenodd"/><path d="M36.33,45.35a.39.39,0,0,1-.28-.36s0,0,0-.06.67-1.3,1.34-2.44a16.52,16.52,0,0,1,1.38-2.08.35.35,0,0,1,.36-.28h.07a12.61,12.61,0,0,1,1.66,2.41c.52.85,1,1.74,1.25,2.2a.35.35,0,0,1,.12.32v0c-.07.28-1.51.42-3,.42-.64,0-1.28,0-1.79,0a5.69,5.69,0,0,1-1.15-.14Zm.57-.6.61,0c.51,0,1.14,0,1.76,0,1.09,0,2.1.15,2.26.12-.09-.17-.67-1.07-1.26-2s-1.06-1.82-1.2-2c-.13.2-.54,1.08-1.07,2S37.12,44.35,36.9,44.75Z" style="fill:#3a2018;fill-rule:evenodd"/></g></g></svg>