<svg xmlns="http://www.w3.org/2000/svg" viewBox="0 0 78.88 78.93"><title>writing5EllaKurodaSVG</title><g id="Layer_2" data-name="Layer 2"><g id="Layer_2-2" data-name="Layer 2"><rect y="0.05" width="78.88" height="78.88" style="fill:#36aeaf"/><path d="M40.5,70.5c2.89,0,6.12-1.81,9.33-7.33l-.27-.11c-.38-.16-.71-.32-1-.46h-.07a3.91,3.91,0,0,1-.64-.37l-.07-.08-.08-.1a20.85,20.85,0,0,1-1.32-3.56h0a5,5,0,0,1-.13-1c0-.49,0-1,0-1.41s0-.87,0-1.2v-.29c0-.24,0-.44,0-.59s0-.23,0-.23L47,53c.64-.58,1.55-1.4,2.34-2.19a9.71,9.71,0,0,0,1.75-2.08,1.25,1.25,0,0,0,0-.15h-.06c-.4.06-2.55.44-4.86.8-1.37.21-2.81.42-4,.57-.46.07-.89.1-1.25.14h0a7.23,7.23,0,0,1-.84,0c-.24,0-.56,0-.95,0h0l-1.31-.16c-1.08-.14-2.36-.33-3.61-.51l-3.16-.52c-.21,0-.4-.06-.57-.1-.85-.13-1.39-.23-1.39-.23a1.56,1.56,0,0,0,.4.73s0,0,0,0c.19.25.44.53.74.86s.6.61.92.92c1,1,2.06,1.91,2.59,2.36l.31.28s0,.08,0,.23,0,.35,0,.59v.29c0,.1,0,.2,0,.3,0,.65,0,1.46-.06,2.31a5,5,0,0,1-.13,1A21.07,21.07,0,0,1,32.56,62a.86.86,0,0,0-.07.1l-.08.08a1,1,0,0,1-.24.18,6.6,6.6,0,0,1-.88.52c-.23.11-.5.22-.78.33C31.72,65.11,35.62,70.44,40.5,70.5Z" style="fill:#fbd2c5"/><path d="M46.42,58.47a5,5,0,0,1-.13-1c0-1.13-.06-2.2-.07-2.9a14,14,0,0,1-5.68,1.33,2.48,2.48,0,0,1-.39,0,2.3,2.3,0,0,1-.38,0,13.94,13.94,0,0,1-5.68-1.33c0,.7,0,1.77-.08,2.9a5.8,5.8,0,0,1-.12,1c1.81,1.51,4.26,3.07,5.88,3.07a1.83,1.83,0,0,0,.34,0h.08a1.94,1.94,0,0,0,.35,0C42.16,61.54,44.61,60,46.42,58.47Z" style="fill:#d29f97"/><path d="M56.22,36.05c.32-1.72.56-3,.64-3.31s.06-.25.1-.37.06-.29.08-.43.1-.42.15-.63,0-.2.05-.3.09-.48.13-.71,0-.22,0-.32.05-.42.07-.63,0-.33.05-.48,0-.27,0-.41a14.9,14.9,0,0,0-2.68-9.59c-2.58-3.62-5.55-7.45-12-8H37.43c-6.46.54-9.43,4.37-12,8a14.83,14.83,0,0,0-2.67,9.59c0,.14,0,.27,0,.41a3.54,3.54,0,0,1,.05.48c0,.21,0,.42.08.63l0,.32c0,.23.09.47.13.71s0,.2.05.3.09.42.15.63.06.28.09.43.06.25.1.37.31,1.57.62,3.29c-1.72-.84-4.11.36-3.83,3.53s4.21,5.13,5.55,5.46a8.76,8.76,0,0,0,.33,1.22c1.17,3,2.59,3.84,5.09,6.25,2.72,2.61,6.74,5.06,8.73,5h.42c2,0,6-2.44,8.73-5,2.5-2.41,3.92-3.29,5.09-6.25A8.92,8.92,0,0,0,54.51,45c1.29-.3,5.29-2.21,5.59-5.47S58,35.17,56.22,36.05Z" style="fill:#fbd2c5"/><path d="M58.84,37.83A1.88,1.88,0,0,0,56,37.26a1.63,1.63,0,0,0-.48,1.8c.13.52.69.57.54,1.36a1.41,1.41,0,0,1-.8,1.15,1.79,1.79,0,0,0-.68.73,2,2,0,0,0-.1,1.12c.15.64,1.09.14,1.72-.14a12.81,12.81,0,0,0,2.07-1.65,3.57,3.57,0,0,0,.6-3.8" style="fill:#e9b7ac"/><path d="M21.5,37.83a1.88,1.88,0,0,1,2.87-.57,1.63,1.63,0,0,1,.48,1.8c-.13.52-.68.57-.54,1.36a1.42,1.42,0,0,0,.81,1.15,1.86,1.86,0,0,1,.68.73,2.08,2.08,0,0,1,.1,1.12c-.15.64-1.1.14-1.72-.14a12.88,12.88,0,0,1-2.08-1.65,3.59,3.59,0,0,1-.6-3.8" style="fill:#e9b7ac"/><path d="M27.26,64.42l-1.05.36-.27.09c-.93.33-1.83.62-2.56.86h0l-1.78.59c-3.23,2-2.44,3-2.89,5v0l0,.15h0c-.21,1.09-.3,6.38-.3,6.38v1h4.43c.09-1,.23-2.52.37-3.34C23.73,72,26.93,71.07,27.26,64.42Z" style="fill:#fbd2c5"/><path d="M57.55,78.93h4.39c0-.34,0-.67,0-1,0,0-.1-6-.34-6.54-.46-2.1.36-3.06-2.88-5.08l-1.8-.59h0l-2.39-.8-1-.35-.37-.13c.33,6.64,3.52,7.57,4.09,11.15C57.32,76.41,57.46,77.91,57.55,78.93Z" style="fill:#fbd2c5"/><path d="M40.5,70.5a9.18,9.18,0,0,1-5.29-2.06,21.43,21.43,0,0,1-4.7-5.19l-.49.2H29.9l-1.7.63-.94.34c-.33,6.65-3.53,7.58-4.1,11.17-.14.82-.28,2.32-.37,3.34h9.75L41,70.48Z" style="fill:#c1636d"/><path d="M57.18,75.59a9.52,9.52,0,0,0-1.73-3.79A13.07,13.07,0,0,1,53.24,66c-.07-.49-.12-1-.15-1.57l-.94-.34L51,63.68l0,0-1.24-.48c-3,5.21-6.08,7.14-8.84,7.31l-8.45,8.45h25C57.46,77.91,57.32,76.41,57.18,75.59Z" style="fill:#f07068"/><path d="M48.73,7.39a1.77,1.77,0,0,0-.35-.26,3.62,3.62,0,0,0,.18-2.25,2.66,2.66,0,0,0-.26-.68,2.32,2.32,0,0,0-.45-.58,2.65,2.65,0,0,0-1-.56L46.4,3c0-.1,0-.21-.06-.31l0-.15A4.38,4.38,0,0,0,46.08,2a2.24,2.24,0,0,0-.85-.85,3.13,3.13,0,0,0-3,.1,6.4,6.4,0,0,0-.64.42,2.21,2.21,0,0,0-.16-.35c-.08-.14-.17-.28-.26-.42a2.29,2.29,0,0,0-.38-.54,1.33,1.33,0,0,0-.54-.28A3.11,3.11,0,0,0,39.81,0h-.54a1.25,1.25,0,0,0-.64.21l-.3.24c-.21.16-.44.3-.64.47a1.75,1.75,0,0,0-.24.23,2.35,2.35,0,0,0-.19.25,3.5,3.5,0,0,0-2-.27A1.92,1.92,0,0,0,33.9,2.49,2.39,2.39,0,0,0,34,3.79a2.31,2.31,0,0,0-.45.21,2.38,2.38,0,0,0-.44.4c-.18.22-.33.46-.49.7a1,1,0,0,0-.12.16,1.62,1.62,0,0,0-.11.28,1.67,1.67,0,0,0-.05.31s0,.07,0,.1V6l-.1.06L32,6.17a1.05,1.05,0,0,0-.25.18,2.35,2.35,0,0,0-.23.32,1.62,1.62,0,0,0-.27.56,2,2,0,0,0,0,.27C26.51,9.27,20,14.25,20.84,28.27a20.47,20.47,0,0,0,2,8.44,7.46,7.46,0,0,0,1.08,1.73c1.21,1.32.82,3.23,1.19,3.23,0,0,.79,0,.75-3.76,0-.88-.07-2-.18-3.29l0-.13c-.14-.4-.89-3,1.85-3.67a.52.52,0,0,0,.13-.06c2.85-1.67,7.49-5.37,12.53-5.37s9.68,3.7,12.52,5.37a.59.59,0,0,0,.14.06c2.73.67,2,3.27,1.85,3.67a.31.31,0,0,0,0,.13c-.12,1.33-.17,2.41-.18,3.29,0,3.79.75,3.76.75,3.76.36,0,0-1.91,1.18-3.23a7.79,7.79,0,0,0,1.09-1.73,20.47,20.47,0,0,0,2-8.44C60.24,14,53.47,9.07,48.73,7.39Z" style="fill:#46423e"/><path d="M38.12,38.86a1.27,1.27,0,0,1-.06.18c0-.06.07-.1.1-.16Z" style="fill:#0e151a;opacity:0.4"/><path d="M38.12,38.86a1.27,1.27,0,0,1-.06.18c0-.06.07-.1.1-.16Z" style="fill:#e8e9e7;opacity:0.55"/><path d="M43.3,40.38c.09.13.18.24.28.36-.09-.12-.18-.25-.26-.38Z" style="fill:#0e151a;opacity:0.4"/><path d="M43.3,40.38c.09.13.18.24.28.36-.09-.12-.18-.25-.26-.38Z" style="fill:#e8e9e7;opacity:0.55"/><path d="M29,41.52a.53.53,0,0,1-.06-.74.52.52,0,0,1,.74-.06,1.14,1.14,0,0,0,.48.21,5.13,5.13,0,0,0,1.17.16,2.25,2.25,0,0,0,1.77-.51.47.47,0,0,0,.13-.25.35.35,0,0,0-.07-.23,2.52,2.52,0,0,0-1.85-.73,3.41,3.41,0,0,1-2.34-1,1.41,1.41,0,0,1-.3-.86,1.44,1.44,0,0,1,.32-.84,3,3,0,0,1,2.12-.92,4,4,0,0,1,1.68.2,2.18,2.18,0,0,1,1.2.93.53.53,0,1,1-.93.49,1.06,1.06,0,0,0-.63-.43,2.86,2.86,0,0,0-1.24-.14,1.9,1.9,0,0,0-1.38.53.32.32,0,0,0-.09.2.3.3,0,0,0,.08.2,2.43,2.43,0,0,0,1.63.62A3.48,3.48,0,0,1,34,39.51a1.42,1.42,0,0,1,.24.92,1.5,1.5,0,0,1-.38.84,3.27,3.27,0,0,1-2.6.86,6.56,6.56,0,0,1-1.4-.18A2.38,2.38,0,0,1,29,41.52Z" style="fill:#3a2018;fill-rule:evenodd"/><path d="M30.26,34.94a.35.35,0,0,1,.35-.35.34.34,0,0,1,.35.34l.15,7.92a.35.35,0,1,1-.69,0Z" style="fill:#3a2018;fill-rule:evenodd"/><path d="M31.88,34.93a.35.35,0,0,1,.36-.34.35.35,0,0,1,.34.35l-.15,7.92a.35.35,0,1,1-.7,0Z" style="fill:#3a2018;fill-rule:evenodd"/><path d="M36.2,45.38c0,.58,2.12,2.4,3.93,2.4s3.58-2.17,3.58-2.4S41.94,43,40.13,43,36.2,44.86,36.2,45.38Z" style="fill:#3a2018;fill-rule:evenodd"/><path d="M37,45.91a5.2,5.2,0,0,0,3.08,1.43A4.26,4.26,0,0,0,42.8,46a4.35,4.35,0,0,0-2.7-1.43A5.24,5.24,0,0,0,37,45.91Z" style="fill:#cb4f41;fill-rule:evenodd"/><path d="M27.25,45.48a.26.26,0,1,1-.42-.3,3.45,3.45,0,0,1,1-.87,5.17,5.17,0,0,1,1.29-.6.26.26,0,1,1,.16.49,5.33,5.33,0,0,0-1.17.55A3.19,3.19,0,0,0,27.25,45.48Z" style="fill:#dc98ab;fill-rule:evenodd"/><path d="M32.89,45.58a.25.25,0,0,1-.36,0,.25.25,0,0,1,0-.36l0-.05a4.68,4.68,0,0,1,1.74-1.3.26.26,0,1,1,.2.48,4,4,0,0,0-1.54,1.16Z" style="fill:#dc98ab;fill-rule:evenodd"/><path d="M30.11,45.66a.26.26,0,1,1-.44-.28,3.55,3.55,0,0,1,.86-.91,3.9,3.9,0,0,1,1.08-.59.26.26,0,0,1,.33.17.25.25,0,0,1-.17.33,3.19,3.19,0,0,0-.92.51h0A3.24,3.24,0,0,0,30.11,45.66Z" style="fill:#dc98ab;fill-rule:evenodd"/><path d="M45.38,45.48a.26.26,0,1,1-.42-.3,3.45,3.45,0,0,1,.95-.87,5.17,5.17,0,0,1,1.29-.6.26.26,0,1,1,.16.49,5.33,5.33,0,0,0-1.17.55A3.19,3.19,0,0,0,45.38,45.48Z" style="fill:#dc98ab;fill-rule:evenodd"/><path d="M51,45.58a.25.25,0,0,1-.36,0,.25.25,0,0,1,0-.36l0-.06a4.58,4.58,0,0,1,1.73-1.29.26.26,0,0,1,.2.48,4.15,4.15,0,0,0-1.53,1.14v0Z" style="fill:#dc98ab;fill-rule:evenodd"/><path d="M48.24,45.66a.26.26,0,1,1-.44-.28,3.55,3.55,0,0,1,.86-.91,3.9,3.9,0,0,1,1.08-.59.26.26,0,0,1,.33.17.25.25,0,0,1-.17.33,3.19,3.19,0,0,0-.92.51A3.24,3.24,0,0,0,48.24,45.66Z" style="fill:#dc98ab;fill-rule:evenodd"/><path d="M46.23,41.52a.52.52,0,1,1,.68-.8,1.14,1.14,0,0,0,.48.21,5,5,0,0,0,1.17.16,2.27,2.27,0,0,0,1.77-.51.55.55,0,0,0,.13-.25.41.41,0,0,0-.07-.23,2.54,2.54,0,0,0-1.85-.73,3.39,3.39,0,0,1-2.34-1,1.29,1.29,0,0,1-.3-.86,1.36,1.36,0,0,1,.31-.84,3,3,0,0,1,2.12-.92,4,4,0,0,1,1.68.2,2.17,2.17,0,0,1,1.21.93.53.53,0,0,1-.22.71.52.52,0,0,1-.71-.22,1.1,1.1,0,0,0-.63-.43,2.91,2.91,0,0,0-1.25-.14,1.92,1.92,0,0,0-1.38.53.5.5,0,0,0-.09.2.32.32,0,0,0,.09.2,2.4,2.4,0,0,0,1.62.62,3.52,3.52,0,0,1,2.61,1.18,1.42,1.42,0,0,1,.24.92,1.5,1.5,0,0,1-.38.84,3.27,3.27,0,0,1-2.6.86A6.58,6.58,0,0,1,47.11,42,2.33,2.33,0,0,1,46.23,41.52Z" style="fill:#3a2018;fill-rule:evenodd"/><path d="M47.49,34.94a.35.35,0,0,1,.34-.35.35.35,0,0,1,.36.34l.15,7.92a.35.35,0,0,1-.34.36.35.35,0,0,1-.36-.35Z" style="fill:#3a2018;fill-rule:evenodd"/><path d="M49.11,34.93a.34.34,0,0,1,.35-.34.35.35,0,0,1,.35.35l-.16,7.92a.35.35,0,1,1-.69,0Z" style="fill:#3a2018;fill-rule:evenodd"/></g></g></svg>