<svg xmlns="http://www.w3.org/2000/svg" viewBox="0 0 78.88 78.88"><title>writing7AbigailItoSVG</title><g id="Layer_2" data-name="Layer 2"><g id="Layer_2-2" data-name="Layer 2"><rect width="78.88" height="78.88" style="fill:#a86a72"/><path d="M60.52,77.89s-.1-6-.33-6.54c-.47-2.1.36-3.06-2.89-5.08,0,0-.73-.24-1.8-.59h0l-2.4-.8c-.33-.12-.67-.24-1-.35-.86-.31-1.72-.62-2.51-.92L48,63c-.38-.17-.71-.32-1-.46a2.4,2.4,0,0,1-.59-.38s0-.05-.08-.09a.86.86,0,0,1-.07-.1A21.11,21.11,0,0,1,45,58.42h0a5.69,5.69,0,0,1-.12-1c0-.48,0-1,0-1.41s0-.86,0-1.2v-.28c0-.24,0-.44,0-.59s0-.24,0-.24l.86-.75c.64-.57,1.55-1.4,2.34-2.18a9.06,9.06,0,0,0,1.74-2.09.49.49,0,0,0,0-.15l-.06,0c-.4.06-2.55.43-4.86.79-1.37.22-2.81.43-4,.58l-1.25.14h0c-.34,0-.63.05-.84.05s-.56,0-1-.05h0l-1.32-.17c-1.07-.13-2.36-.32-3.6-.51l-3.16-.51-.58-.1-1.38-.24a1.54,1.54,0,0,0,.4.74,0,0,0,0,0,0,0,11.3,11.3,0,0,0,.74.86c.28.3.6.62.92.93,1,1,2.06,1.91,2.58,2.36l.32.27a2,2,0,0,1,0,.24c0,.15,0,.35,0,.59v.28c0,.1,0,.2,0,.3,0,.65,0,1.46-.06,2.31a5.71,5.71,0,0,1-.13,1A21.07,21.07,0,0,1,31.16,62l-.08.1-.07.09-.24.18a9.63,9.63,0,0,1-1,.52c-.37.16-.8.34-1.27.52-1.11.44-2.43.91-3.7,1.34l-.26.09L22,65.68h0c-1,.35-1.76.57-1.79.59-3.22,2-2.43,3-2.88,5h0v0a.48.48,0,0,0,0,.15h0c-.21,1.09-.3,6.38-.3,6.38,0,.32,0,.65,0,1H60.54C60.53,78.54,60.53,78.21,60.52,77.89Z" style="fill:#fbd2c5"/><path d="M45,58.41a5.58,5.58,0,0,1-.12-1c0-1.12-.06-2.19-.08-2.89a14.09,14.09,0,0,1-5.68,1.32,3.62,3.62,0,0,1-.76,0,14.17,14.17,0,0,1-5.69-1.32c0,.7,0,1.77-.07,2.89a5.58,5.58,0,0,1-.12,1c1.81,1.51,4.25,3.07,5.88,3.07a1.79,1.79,0,0,0,.34,0h.08a1.79,1.79,0,0,0,.34,0C40.76,61.48,43.2,59.92,45,58.41Z" style="fill:#d29f97"/><path d="M54.82,36c.32-1.73.56-3,.63-3.31s.07-.25.1-.38.07-.28.09-.42.1-.43.15-.64,0-.2.05-.3.09-.47.13-.71l0-.31c0-.21,0-.42.08-.64a3.56,3.56,0,0,1,.05-.47c0-.14,0-.28,0-.41a14.83,14.83,0,0,0-2.67-9.59c-2.58-3.62-5.55-7.46-12-8H36c-6.46.53-9.43,4.37-12,8a14.9,14.9,0,0,0-2.68,9.59c0,.13,0,.27,0,.41s0,.31.05.47,0,.43.07.64,0,.21,0,.31.09.48.13.71,0,.2,0,.3.09.43.15.64.07.27.09.42.06.25.1.38.32,1.57.63,3.28c-1.72-.84-4.11.37-3.83,3.54s4.21,5.13,5.55,5.45a10.82,10.82,0,0,0,.32,1.23c1.18,3,2.6,3.84,5.1,6.25,2.72,2.61,6.74,5.06,8.73,5.05H39c2,0,6-2.44,8.73-5.05,2.5-2.41,3.92-3.3,5.09-6.25A10.49,10.49,0,0,0,53.11,45c1.29-.29,5.29-2.21,5.59-5.46S56.55,35.11,54.82,36Z" style="fill:#fbd2c5"/><path d="M57.44,37.77a1.89,1.89,0,0,0-2.87-.57,1.64,1.64,0,0,0-.48,1.8c.13.53.68.57.54,1.37a1.42,1.42,0,0,1-.81,1.15,1.79,1.79,0,0,0-.68.73,2,2,0,0,0-.09,1.11c.15.65,1.09.15,1.71-.13a12.88,12.88,0,0,0,2.08-1.65,3.6,3.6,0,0,0,.6-3.81" style="fill:#e9b7ac"/><path d="M20.1,37.77A1.89,1.89,0,0,1,23,37.2a1.64,1.64,0,0,1,.48,1.8c-.13.53-.68.57-.54,1.37a1.43,1.43,0,0,0,.8,1.15,1.75,1.75,0,0,1,.69.73,2,2,0,0,1,.09,1.11c-.15.65-1.09.15-1.72-.13a13.26,13.26,0,0,1-2.07-1.65,3.6,3.6,0,0,1-.6-3.81" style="fill:#e9b7ac"/><path d="M58.9,21.75C55.05,14.11,50.37,10.43,45.71,8.9,45.06,6.41,41.88,4.51,38,4.51c-4.06,0-7.39,2.12-7.76,4.82-4.27,1.75-8.5,5.42-12,12.42,0,0-8.51,20.9,12.15,33.69a17.79,17.79,0,0,1-3-4.41,21.83,21.83,0,0,1-1.82-9c0-2.76,1.93-5.93,3.33-7.87.48-.66.9-1.18,1.15-1.48L35.2,26l.23-.3a18,18,0,0,1,3.15,1.39,17.66,17.66,0,0,1,3.15-1.39L42,26l5.17,6.69c.25.3.66.82,1.14,1.48,1.4,1.94,3.34,5.11,3.34,7.87a21.83,21.83,0,0,1-1.82,9,18.08,18.08,0,0,1-3,4.41C67.4,42.65,58.9,21.75,58.9,21.75Z" style="fill:#46423e"/><path d="M36.28,40l-.06.17.09-.16Z" style="fill:#0e151a;opacity:0.4"/><path d="M36.28,40l-.06.17.09-.16Z" style="fill:#e8e9e7;opacity:0.55"/><path d="M41.45,41.49c.09.13.19.24.28.36-.08-.12-.17-.24-.25-.37Z" style="fill:#0e151a;opacity:0.4"/><path d="M41.45,41.49c.09.13.19.24.28.36-.08-.12-.17-.24-.25-.37Z" style="fill:#e8e9e7;opacity:0.55"/><path d="M54.28,65l-.59-.19c-.35-.11-.7-.24-1.07-.35L51.28,64C37,76.26,26.21,64,26.21,64c-.66.23-1.34.46-2,.67l-.17.06C26.5,68,37.46,80,54.28,65Z" style="fill:#332e2b"/><path d="M59.82,67.83l.38.08a7.92,7.92,0,0,0-2.11-1.66l-1.87-.59h0L54.28,65C37.46,80,26.5,68,24,64.77l-.1,0-2.67.86h0l-1.87.59A7.43,7.43,0,0,0,17.2,68C19.52,69.69,37.06,81.25,59.82,67.83Z" style="fill:#46423e"/><path d="M16.39,71.3h0v0a.3.3,0,0,0,0,.15h0A12.87,12.87,0,0,0,16.2,73h3.26c-1.15-.63-2.17-1.27-3.05-1.87C16.4,71.22,16.4,71.26,16.39,71.3Z" style="fill:#46423e"/><path d="M61.29,73a9.09,9.09,0,0,0-.19-1.7l0-.13c-19.16,10.17-33.48,6.24-41.48,1.9a24.51,24.51,0,0,0-1.25,5.77H59.07A25,25,0,0,0,57.79,73h3.5Z" style="fill:#46423e"/><path d="M19.46,73l.13.07,0-.07Z" style="fill:#332e2b"/><path d="M19.61,73v0h0Z" style="fill:#332e2b"/><path d="M61.07,71.21c-.28-1.36,0-2.25-.87-3.3l-.38-.08c-22.76,13.42-40.3,1.86-42.62.2-.72,1-.52,1.85-.79,3.14.88.6,1.9,1.24,3.05,1.87h.15v0h0l0,.07C27.59,77.45,41.91,81.38,61.07,71.21Z" style="fill:#332e2b"/><path d="M43.38,40.89l-1.4.88L40.39,41l-1.6,1-1.72-1-1.31.92-1.59-.92c-1.33,3.37-1.81,4.77-1.55,5.73.6,2.25,12.45,2.39,12-.22A33.51,33.51,0,0,0,43.38,40.89Z" style="fill:#3a2018;fill-rule:evenodd"/><path d="M44.11,46.14c-.77-3.55-10-3.6-11.08-.22C32.31,48.25,44.6,48.38,44.11,46.14Z" style="fill:#cb4f41;fill-rule:evenodd"/><path d="M25.5,36.59,33,39.22C29.92,43,25.29,41.77,25.5,36.59Z" style="fill:#fff;fill-rule:evenodd"/><path d="M25.62,36.27l7.51,2.62a.36.36,0,0,1,.22.45l-.06.11a6.3,6.3,0,0,1-3.15,2.16,3.94,3.94,0,0,1-2.36-.07h0A3.64,3.64,0,0,1,26,40.07a5.91,5.91,0,0,1-.81-3.49.35.35,0,0,1,.36-.33.2.2,0,0,1,.11,0Zm6.79,3.11-6.57-2.3a5.11,5.11,0,0,0,.7,2.61A2.89,2.89,0,0,0,28,40.88h0a3.27,3.27,0,0,0,1.94,0A5.32,5.32,0,0,0,32.41,39.38Z" style="fill:#3a2018;fill-rule:evenodd"/><path d="M26.87,39c-.63-2,1.15-3,.79-3.76a1.62,1.62,0,0,1,.59.74c.11.44-.38,1.14.35,1,1.24-.37-1.61-2,.93-3.48-.9,1.22.9,2.53.43,3.38-.17.31.91.24.72-.73a2.61,2.61,0,0,1,.26,3C29.94,41.23,27.54,41.08,26.87,39Z" style="fill:#cb4f41;fill-rule:evenodd"/><path d="M51.64,36.59l-7.52,2.63C47.22,43,51.85,41.77,51.64,36.59Z" style="fill:#fff;fill-rule:evenodd"/><path d="M51.3,37.08l-6.57,2.3a5.32,5.32,0,0,0,2.45,1.55,3.27,3.27,0,0,0,1.94,0h0a2.89,2.89,0,0,0,1.48-1.19,5,5,0,0,0,.7-2.61ZM44,38.89l7.51-2.62a.2.2,0,0,1,.11,0,.35.35,0,0,1,.36.33,5.84,5.84,0,0,1-.81,3.49,3.6,3.6,0,0,1-1.82,1.47h0a3.93,3.93,0,0,1-2.36.07,6.3,6.3,0,0,1-3.15-2.16l-.06-.11A.37.37,0,0,1,44,38.89Z" style="fill:#3a2018;fill-rule:evenodd"/><path d="M46.05,39.06c-.71-2,1-3.08.65-3.79a1.65,1.65,0,0,1,.62.72c.12.44-.34,1.16.39,1,1.22-.41-1.68-1.88.8-3.51-.86,1.25,1,2.49.55,3.37-.16.31.93.2.69-.76a2.59,2.59,0,0,1,.39,3C49.21,41.19,46.81,41.13,46.05,39.06Z" style="fill:#cb4f41;fill-rule:evenodd"/><path d="M43.77,39.34a.27.27,0,0,1,.5-.18,3.94,3.94,0,0,0,1,1.55,5.56,5.56,0,0,0,2.82,1.34.27.27,0,0,1-.11.52,6.09,6.09,0,0,1-3.07-1.48A4.65,4.65,0,0,1,43.77,39.34Z" style="fill:#3a2018;fill-rule:evenodd"/><path d="M47.08,41.62a.27.27,0,0,1-.18-.33.26.26,0,0,1,.32-.18,5.47,5.47,0,0,0,2.71,0,3.08,3.08,0,0,0,1.79-1.21.26.26,0,0,1,.37-.07.25.25,0,0,1,.06.36,3.57,3.57,0,0,1-2.08,1.42A6,6,0,0,1,47.08,41.62Z" style="fill:#3a2018;fill-rule:evenodd"/><path d="M32.89,39.16a.26.26,0,0,1,.49.18,4.48,4.48,0,0,1-1.1,1.75,6.09,6.09,0,0,1-3.07,1.48.25.25,0,0,1-.31-.21.26.26,0,0,1,.2-.31,5.56,5.56,0,0,0,2.82-1.34A3.94,3.94,0,0,0,32.89,39.16Z" style="fill:#3a2018;fill-rule:evenodd"/><path d="M29.94,41.11a.26.26,0,0,1,.32.18.27.27,0,0,1-.18.33,6,6,0,0,1-3,0A3.6,3.6,0,0,1,25,40.18a.26.26,0,0,1,.07-.36.25.25,0,0,1,.36.07,3.11,3.11,0,0,0,1.79,1.21A5.51,5.51,0,0,0,29.94,41.11Z" style="fill:#3a2018;fill-rule:evenodd"/></g></g></svg>