<svg id="Layer_1" data-name="Layer 1" xmlns="http://www.w3.org/2000/svg" viewBox="0 0 78.88 78.88"><title>writing1MadisonKobayashiSVG</title><rect width="78.88" height="78.88" style="fill:#a86a72"/><path d="M340.81,278.23s-.1-6-.34-6.54c-.46-2.1.36-3.06-2.88-5.08l-1.8-.59h0l-2.39-.8-1-.35c-.86-.3-1.72-.61-2.51-.92-.54-.2-1.06-.41-1.51-.59s-.7-.32-1-.45a3,3,0,0,1-.59-.39l-.07-.08-.08-.1a20.85,20.85,0,0,1-1.32-3.56h0a5.83,5.83,0,0,1-.13-1c0-.49,0-1,0-1.41s0-.87,0-1.2v-.29c0-.24,0-.44,0-.59a2,2,0,0,1,0-.23l.87-.75c.63-.58,1.54-1.4,2.33-2.19A9.41,9.41,0,0,0,330,249a1.25,1.25,0,0,0,0-.15H330c-.4.06-2.55.44-4.86.8-1.37.21-2.81.42-4,.57-.46.07-.89.1-1.25.14h0a7.12,7.12,0,0,1-.84.05c-.23,0-.56,0-.95-.05h0l-1.31-.16c-1.08-.14-2.36-.33-3.61-.51L310,249.2c-.21,0-.4-.06-.57-.1-.85-.13-1.39-.23-1.39-.23a1.56,1.56,0,0,0,.4.73s0,0,0,0c.19.25.44.53.74.86s.6.61.92.92c1,1,2.06,1.91,2.59,2.36l.31.28s0,.08,0,.23,0,.35,0,.59v.29c0,.1,0,.2,0,.3,0,.65,0,1.46-.06,2.31a5.8,5.8,0,0,1-.12,1,21.73,21.73,0,0,1-1.33,3.57.86.86,0,0,0-.07.1.57.57,0,0,0-.08.08,1,1,0,0,1-.24.18,9.31,9.31,0,0,1-1,.52c-.37.17-.81.34-1.27.53-1.11.43-2.44.9-3.7,1.33l-.27.09c-.93.33-1.83.63-2.55.86h0l-1.78.59c-3.22,2-2.44,3-2.89,5v0a1,1,0,0,0,0,.15h0c-.22,1.09-.3,6.38-.3,6.38,0,.32,0,.66,0,1h43.58C340.82,278.89,340.82,278.56,340.81,278.23Z" transform="translate(-280.28 -200.34)" style="fill:#fbd2c5"/><path d="M325.3,258.76a4.9,4.9,0,0,1-.13-1c0-1.13-.06-2.2-.07-2.9a14,14,0,0,1-5.68,1.33,2.48,2.48,0,0,1-.39,0,2.36,2.36,0,0,1-.38,0,13.94,13.94,0,0,1-5.68-1.33c0,.7,0,1.77-.08,2.9a5.69,5.69,0,0,1-.12,1c1.81,1.51,4.26,3.07,5.88,3.07a1.88,1.88,0,0,0,.34,0h.08a1.94,1.94,0,0,0,.35,0C321,261.83,323.49,260.27,325.3,258.76Z" transform="translate(-280.28 -200.34)" style="fill:#d29f97"/><path d="M335.11,236.34c.31-1.72.55-3.05.63-3.31s.06-.25.1-.37.06-.29.09-.43.09-.42.14-.63l.06-.3c0-.24.08-.48.12-.71s0-.22,0-.32,0-.42.07-.63,0-.33.05-.48,0-.27,0-.41a15,15,0,0,0-2.67-9.59c-2.59-3.62-5.56-7.45-12-8h-5.44c-6.46.54-9.43,4.37-12,8a14.83,14.83,0,0,0-2.67,9.59c0,.14,0,.28,0,.41a3.71,3.71,0,0,1,.05.48c0,.21,0,.42.08.63l0,.32c0,.23.09.47.13.71s0,.2.05.3.09.42.15.63.06.28.09.43.06.25.1.37.31,1.57.62,3.29c-1.72-.84-4.11.36-3.82,3.53s4.2,5.13,5.54,5.46a10.49,10.49,0,0,0,.33,1.22c1.17,3,2.59,3.84,5.09,6.26,2.72,2.6,6.74,5,8.73,5h.43c2,0,6-2.44,8.72-5,2.5-2.42,3.92-3.3,5.1-6.26a11.4,11.4,0,0,0,.32-1.21c1.3-.3,5.3-2.21,5.59-5.47S336.83,235.46,335.11,236.34Z" transform="translate(-280.28 -200.34)" style="fill:#fbd2c5"/><path d="M337.72,238.12a1.88,1.88,0,0,0-2.87-.57,1.61,1.61,0,0,0-.47,1.8c.12.52.68.57.53,1.36a1.41,1.41,0,0,1-.8,1.15,1.79,1.79,0,0,0-.68.73,2,2,0,0,0-.1,1.12c.15.64,1.09.14,1.72-.14a12.76,12.76,0,0,0,2.08-1.65,3.58,3.58,0,0,0,.59-3.8" transform="translate(-280.28 -200.34)" style="fill:#e9b7ac"/><path d="M300.38,238.12a1.88,1.88,0,0,1,2.87-.57,1.63,1.63,0,0,1,.48,1.8c-.13.52-.68.57-.54,1.36a1.42,1.42,0,0,0,.81,1.15,1.86,1.86,0,0,1,.68.73,2.09,2.09,0,0,1,.1,1.12c-.15.64-1.09.14-1.72-.14a12.35,12.35,0,0,1-2.08-1.65,3.59,3.59,0,0,1-.6-3.8" transform="translate(-280.28 -200.34)" style="fill:#e9b7ac"/><path d="M316.56,240.32l-.06.18a1.29,1.29,0,0,0,.09-.16Z" transform="translate(-280.28 -200.34)" style="fill:#0e151a;opacity:0.4"/><path d="M316.56,240.32l-.06.18a1.29,1.29,0,0,0,.09-.16Z" transform="translate(-280.28 -200.34)" style="fill:#e8e9e7;opacity:0.55"/><path d="M321.73,241.84l.29.36c-.09-.12-.18-.25-.26-.38Z" transform="translate(-280.28 -200.34)" style="fill:#0e151a;opacity:0.4"/><path d="M321.73,241.84l.29.36c-.09-.12-.18-.25-.26-.38Z" transform="translate(-280.28 -200.34)" style="fill:#e8e9e7;opacity:0.55"/><path d="M338.07,273.38h2a1.33,1.33,0,0,0,1.32-1.6l0-.1s0-.08,0-.12c-.29-1.37,0-2.25-.88-3.3a7.8,7.8,0,0,0-2.1-1.67L336.5,266l0,0-1.91-.6c-16.82,14.91-27.78,2.92-30.24-.28-1,.34-2,.65-2.77.9h0c-1.09.35-1.84.57-1.86.58a7.45,7.45,0,0,0-2.19,1.78c-.73,1-.53,1.85-.79,3.15l0,.12v0l0,.15h0a1.3,1.3,0,0,0,1.29,1.53h5c-.63,2.29-4.09,3.41-4.27,5.84h40.73c-.18-2.44-3.64-3.55-4.28-5.85Z" transform="translate(-280.28 -200.34)" style="fill:#b44e6b"/><path d="M336.94,216.54a6.39,6.39,0,0,0,4.9-2.58s-1.18,1.47-5.25.32-3.87-4.75-9.59-6.78c-2.93-1-4.67-.9-5.69-.52a6.56,6.56,0,0,1,3.14-.66,10.32,10.32,0,0,0-6.62-.12,19.23,19.23,0,0,0-5.47,2.26l1.59-1.28a28.7,28.7,0,0,0-9.61,5.28,20.87,20.87,0,0,0-3,3.33,23.74,23.74,0,0,0-3.74,6.89c-2.85,7.71-.51,14,0,16.72,1.75,8.54,10.14,13.94,10.14,13.94a18.47,18.47,0,0,1-3.06-4.55,23,23,0,0,1-1.84-9.25c0-3.62,3.15-7.92,4.34-9.43l.12,0a19.11,19.11,0,0,0-2.31,6.7,10,10,0,0,0,1.88,6.75s-2.94-5,1.75-8.64a30.15,30.15,0,0,0,3.75-3.52h0c-1.18,2.92,1.18,5.37,1.18,5.37s0-3.74,2.41-5c6-3.1,6.91-4.38,7.74-6.87a5.32,5.32,0,0,0,.23-1l5.45,7.22c.25.31.67.84,1.15,1.53,1.41,2,3.37,5.27,3.37,8.12a23,23,0,0,1-1.84,9.25,18.4,18.4,0,0,1-3.06,4.56s8.39-5.41,10.14-13.94c.56-2.7,2.89-9,.05-16.73-.25-.66-.51-1.28-.77-1.87v-.26a7.54,7.54,0,0,0-1.63-4.13c-.25-.7-.45-1.17-.45-1.17Z" transform="translate(-280.28 -200.34)" style="fill:#751f39"/><path d="M321,241.74s.73,4.92-2.39,4.92-2.38-4.92-2.38-4.92Z" transform="translate(-280.28 -200.34)" style="fill:#cb4f41;fill-rule:evenodd"/><path d="M315.87,241.69a.36.36,0,0,1,.4-.3.34.34,0,0,1,.29.39s-.66,4.53,2,4.53,2-4.51,2-4.53a.35.35,0,0,1,.3-.39.34.34,0,0,1,.39.3s.79,5.32-2.73,5.32S315.87,241.7,315.87,241.69Z" transform="translate(-280.28 -200.34)" style="fill:#3a2018;fill-rule:evenodd"/><path d="M319,244.52a.35.35,0,0,1-.35.35.35.35,0,0,1-.35-.35v-2.78a.35.35,0,0,1,.35-.35.34.34,0,0,1,.35.35Z" transform="translate(-280.28 -200.34)" style="fill:#3a2018;fill-rule:evenodd"/><path d="M314,242.06a.35.35,0,1,1,0-.7h9.21a.35.35,0,0,1,0,.7Z" transform="translate(-280.28 -200.34)" style="fill:#3a2018;fill-rule:evenodd"/><path d="M307.42,238.2a.71.71,0,0,1-.41-.9.68.68,0,0,1,.89-.41c3,1.1,4.63,1.81,4.87,2.74.29,1.1-1.06,1.89-4.07,3a.7.7,0,1,1-.48-1.31c2.2-.81,3.23-1.22,3.2-1.34C311.34,239.68,310,239.14,307.42,238.2Z" transform="translate(-280.28 -200.34)" style="fill:#3a2018;fill-rule:evenodd"/><path d="M329.85,236.89a.68.68,0,0,1,.89.41.7.7,0,0,1-.41.9c-2.55.94-3.92,1.48-4,1.78,0,.12,1,.53,3.2,1.34a.7.7,0,1,1-.48,1.31c-3-1.11-4.36-1.9-4.07-3C325.22,238.7,326.85,238,329.85,236.89Z" transform="translate(-280.28 -200.34)" style="fill:#3a2018;fill-rule:evenodd"/><path d="M306.73,232a.35.35,0,0,1,.48-.51s3.79,3.59,6.39,4.83c.39.19.95-.19,1.34-.46l.1-.07a.36.36,0,0,1,.49.1.34.34,0,0,1-.1.48l-.09.07c-.53.36-1.29.87-2,.51C310.6,235.66,306.74,232,306.73,232Z" transform="translate(-280.28 -200.34)" style="fill:#3a2018;fill-rule:evenodd"/><path d="M329.89,231.48a.35.35,0,0,1,.49,0,.36.36,0,0,1,0,.5s-3.87,3.67-6.57,4.95c-.75.36-1.51-.15-2-.51l-.1-.07a.34.34,0,0,1-.09-.48.35.35,0,0,1,.48-.1l.1.07c.4.27,1,.65,1.35.46C326.1,235.07,329.88,231.49,329.89,231.48Z" transform="translate(-280.28 -200.34)" style="fill:#3a2018;fill-rule:evenodd"/></svg>