<svg xmlns="http://www.w3.org/2000/svg" viewBox="0 0 80.45 47.93"><title>Asset 190</title><g id="Layer_2" data-name="Layer 2"><g id="Layer_3" data-name="Layer 3"><path d="M13.28,11.85c-17,3.78-21.37,33,9.22,36.08,2.19,0,3.46-1.87,3.92-4l2.34-10.71c.45-2.12-1.81-4-4-4H9.05c-12.32,0-7.32-12.84,3.1-15.34,18.5-4.53,18.13,34.43,36,33.53,16.61-.82,31.12-18.26,23.48-28.91l-10-9.81L52.18,18l-2.65,2.57V35a1.35,1.35,0,0,0,1.36,1.36c5.66.38,6-.53,6-10a4.64,4.64,0,0,1,4.68-4.62,4.58,4.58,0,0,1,4.61,4.62c0,7.23-1.89,20.52-12.54,15.24C40.17,34.88,30.12,8,13.28,11.85ZM17,16.68h0a8.47,8.47,0,0,1,5.83,2.42h0a8.16,8.16,0,0,1,2.4,5.8v3.41H21.06V24.9A4,4,0,0,0,19.86,22h0A3.87,3.87,0,0,0,17,20.82h0A3.82,3.82,0,0,0,14.19,22,4,4,0,0,0,13,24.9v3.41H8.83V24.9a8.1,8.1,0,0,1,2.42-5.8A8.23,8.23,0,0,1,17,16.68Zm-.07,20.38a2.34,2.34,0,0,0-2.27,2.34,2.13,2.13,0,0,0,1,1.81v4.85h2.65V41.21a2.1,2.1,0,0,0,1-1.81,2.36,2.36,0,0,0-2.34-2.34ZM75,12.07v-4a1.84,1.84,0,0,0-1.81-1.81,1.78,1.78,0,0,0-1.75,1.81v.46L63.81.9A3.18,3.18,0,0,0,61.62,0a3,3,0,0,0-2.19.9L43.5,16.83a2.62,2.62,0,0,0,3.69,3.71l2.58-2.64L61.62,6.11,74.07,18.56l1.89,2a2.73,2.73,0,0,0,3.71,0,2.58,2.58,0,0,0,0-3.71l-4.76-4.76Zm-13.37.6a2.73,2.73,0,1,0,2.72,2.73,2.7,2.7,0,0,0-2.72-2.73Z" style="fill:#5a9617;fill-rule:evenodd"/></g></g></svg>