<svg xmlns="http://www.w3.org/2000/svg" viewBox="0 0 42.38 55.59"><title>Asset 200</title><g id="Layer_2" data-name="Layer 2"><g id="Layer_3" data-name="Layer 3"><path d="M17.8,48.09c-5.08,3.53-4.31,10.6,2,6C49.59,32.73,44.21,11.22,35.62,1.69c-2-2.3-2.93-2.3-1.23.31,6.46,10,7.22,26.89-16.91,23.66-5.21-.46-4.91,3.84,0,4.3,9.07.46,26.73,2.15.32,18.13Z" style="fill:#3976cf;fill-rule:evenodd"/><path d="M23.17,20.59A8.36,8.36,0,0,1,19.79,9.22a8.36,8.36,0,0,1,14.6,8.14,8.33,8.33,0,0,1-11.22,3.23Z" style="fill:#3976cf;fill-rule:evenodd"/><path d="M4.89,50.55c-11.68-25.5,0-38.26,9.67-41.94,2.17-.77,2.92-.62.62.76C6.73,14.14-.2,26.12,18.57,33c4,1.68,2,4.75-1.7,3.07C10.28,33.19-3.89,28.43,7.64,48.4c2.93,5.07-.75,6.76-2.75,2.15Z" style="fill:#7aae25;fill-rule:evenodd"/><path d="M8.26,45.16A5.41,5.41,0,0,1,6.1,37.64a5.51,5.51,0,0,1,7.39-2.15A5.44,5.44,0,0,1,15.63,43a5.34,5.34,0,0,1-7.37,2.14Z" style="fill:#7aae25;fill-rule:evenodd"/></g></g></svg>