<svg xmlns="http://www.w3.org/2000/svg" viewBox="0 0 47.5 59.22"><title>Asset 203</title><g id="Layer_2" data-name="Layer 2"><g id="Layer_3" data-name="Layer 3"><path d="M39.58,48.71c0-1.82,2.37-3.4,2.88-4.18a1.84,1.84,0,0,0-1.11-2.32c-.79-.15,2.13.27,2.37-.34a13.23,13.23,0,0,0-.37-3.34c-.24-1.2-.94-1.67.84-2.1s4.15-1.47,3-3c-8.79-11.94-.61-8.74-1.91-15.67C39.07-14.23-11,1.07,2.19,31.33c2.7,6.13,10.51,14.41,4.56,25.79C3.86,62.65,21,55.73,21.17,53.49c1-10.54,18.23,10.24,18.41-4.78ZM6.79,20.48a10.1,10.1,0,0,1,5.83-2l0-1.58,3.71,3.53-3.53,3.72h0l-.05-2.09a10.25,10.25,0,0,0-4,1.44c-9,5.81,11.31,8.73,10.87-1.64-.31-8.08-16.32-14.35-13.7-1.4a7.25,7.25,0,0,1-1-3.15,7.31,7.31,0,0,1,6.47-8,7.54,7.54,0,0,1,2.18.1,7.32,7.32,0,0,1,9.77-6.51,8.41,8.41,0,0,1,3.58,2.75A10,10,0,0,1,29,11.39l1.53-.05-3.45,3.77L23.3,11.66h0l2.11-.09a9.55,9.55,0,0,0-1.55-4C17.12-2.38,14.06,20.72,27,18.22c7.49-1.45,12.32-16.1-.13-13.58A7.33,7.33,0,0,1,30,3.57c8.88-1,11.86,10.6.89,15.11-11.67,4.84-8.93,11.9-4.71,8.69a7.09,7.09,0,0,0,2-2.32l-1.39-.51h0l3.35-1.48,1.43,3.33-1-.41a7.1,7.1,0,0,1-2.74,3.39,7.22,7.22,0,0,1-3,1.08c-3.44,0-5.25-2.43-5.12-4.93-6.09,7.52-12.22,8.77-15,6.23-3.25-3-.93-8.88,2.13-11.27Z" style="fill:#2773bc;fill-rule:evenodd"/></g></g></svg>