<svg xmlns="http://www.w3.org/2000/svg" viewBox="0 0 53.5 31.88"><title>Asset 253</title><g id="Layer_2" data-name="Layer 2"><g id="Layer_3" data-name="Layer 3"><path d="M7,8.29c-.09-.24-.15-.45-.22-.7a7,7,0,0,1,.07-4.93A4.71,4.71,0,0,1,10.18.13c4.33-1,8.59,4.24,11.8,9.63.88-3.17,2.54-5.27,4.4-5.27,2.05,0,3.82,2.49,4.61,6.1C34.29,4.91,38.75-.94,43.27.13a4.65,4.65,0,0,1,3.35,2.53,6.87,6.87,0,0,1,.06,4.93c-.06.25-.13.46-.19.7l-2-.49c2.55-10.66-7.35-.12-13,6.92V15a16.43,16.43,0,0,1-.09,1.86C37.85,13,48,7.77,52,11.64a4.12,4.12,0,0,1,1.4,3.78,7.65,7.65,0,0,1-2.8,4.21c-.2.18-.39.34-.59.49l-1.44-1.38c9.24-8.59-9.34-2.71-17.55.44-.07.3-.14.6-.2.88,7.58-.19,20.74.06,21.94,5.63a4.14,4.14,0,0,1-1,3.87A8.55,8.55,0,0,1,47,31.75c-.27,0-.49.1-.75.13L45.79,30c13-2.77-6.91-6.95-15.48-8.21-.94,2.33-2.34,3.79-3.93,3.79s-2.93-1.43-3.85-3.68C13.63,23.25-5,27.28,7.69,30L7.3,31.88c-.27,0-.53-.1-.81-.13a8.31,8.31,0,0,1-4.77-2.19,4,4,0,0,1-1-3.87c1.15-5.42,13.55-5.79,21.22-5.63-.09-.38-.2-.77-.26-1.16-8.51-3.19-25.75-8.51-16.81-.16l-1.4,1.38a4.85,4.85,0,0,1-.61-.49A7.39,7.39,0,0,1,.06,15.42a4.13,4.13,0,0,1,1.36-3.78c3.84-3.74,13.46,1,19.93,4.83,0-.5-.07-1-.07-1.44a8.47,8.47,0,0,1,0-1.14C15.58,6.93,6.49-2.46,9,7.8Z" style="fill:#826648"/></g></g></svg>