<svg xmlns="http://www.w3.org/2000/svg" viewBox="0 0 43.88 19.05"><title>Asset 249</title><g id="Layer_2" data-name="Layer 2"><g id="Layer_3" data-name="Layer 3"><path d="M0,12.14C8.35,20.38,21.43,21.56,30.21,14c-8.58,2.8-18.6-.15-24.87-7.86,2.43,4.93,6.3,8.54,11.77,9.64A22.52,22.52,0,0,1,0,12.14Z" style="fill:#1d97db"/><path d="M43.88,6.9C35.52-1.33,22.45-2.51,13.67,5.06c8.58-2.77,18.59.15,24.89,7.87C36.11,8,32.24,4.4,26.78,3.29A22.6,22.6,0,0,1,43.88,6.9Z" style="fill:#1d97db"/><path d="M23.31,5.54a4.63,4.63,0,0,1,1.22.81,1.69,1.69,0,0,0-1.1,1,1.63,1.63,0,0,0,.81,2.16,1.54,1.54,0,0,0,1.63-.23,4.84,4.84,0,0,1-.35,2.16,4.37,4.37,0,1,1-2.21-5.86Z" style="fill-rule:evenodd"/></g></g></svg>