<svg xmlns="http://www.w3.org/2000/svg" viewBox="0 0 132.24 150.21"><title>Asset 215</title><g id="Layer_2" data-name="Layer 2"><g id="Layer_3" data-name="Layer 3"><path d="M0,0S52.79,19.93,51.67,48.77h0V97.55S-1.1,77.61,0,48.77H0Z" style="fill:#423148"/><path d="M98.7,86.13a72.33,72.33,0,0,1,33.54-12.36V58.5A68.82,68.82,0,0,0,98.7,86.13Z" style="fill:#423148"/><path d="M92.71,90.73A71.72,71.72,0,0,1,132.24,55.3v-44S57.06,39.69,58.65,80.76h0v69.45s3.35-1.27,8.62-3.64c0-2.23,0-4.47.24-6.72A72.15,72.15,0,0,1,92.71,90.73Z" style="fill:#423148"/><path d="M85.56,116.53a71.66,71.66,0,0,1,2.63-14.22,67.1,67.1,0,0,0-15.72,37.95c-.11,1.32-.17,2.64-.2,4,4.27-2.05,9.24-4.61,14.46-7.62A71.87,71.87,0,0,1,85.56,116.53Z" style="fill:#423148"/><path d="M88.55,116.78A68.7,68.7,0,0,0,89.48,135c20.54-12.29,43.63-31.28,42.73-54.23h0v-2A67.44,67.44,0,0,0,93.16,97.06,68.46,68.46,0,0,0,88.55,116.78Z" style="fill:#423148"/></g></g></svg>