<svg xmlns="http://www.w3.org/2000/svg" viewBox="0 0 34.28 31.47"><title>Asset 248</title><g id="Layer_2" data-name="Layer 2"><g id="Layer_3" data-name="Layer 3"><path d="M13.54.13a12,12,0,0,0-8.9,2.19A11.09,11.09,0,0,0,.09,10a11.46,11.46,0,0,0,.36,4.61,12,12,0,0,0,2.1,4,12.64,12.64,0,0,0,3.13,2.79,1.63,1.63,0,0,0-.58,1.07h0a1.83,1.83,0,0,0,1.57,2L8,24.64H8A9.51,9.51,0,0,1,14.18,28a10,10,0,0,0,6.56,3.34,12.11,12.11,0,0,0,8.89-2.2,11.16,11.16,0,0,0,4.55-7.65,11.09,11.09,0,0,0-.36-4.64,11.81,11.81,0,0,0-2.1-4,12,12,0,0,0-3.11-2.78,1.62,1.62,0,0,0,.55-1h0A1.8,1.8,0,0,0,27.6,7C23.26,6.43,21.54,5,20,3.55A10.49,10.49,0,0,0,13.54.13Zm.56,23.09c4-.65,5-3.72,10.45-3h0l1.35.18a1.73,1.73,0,0,0,2-1.47h0a1.8,1.8,0,0,0-1.57-2c-5.64-.79-7.69.15-9.21,1.16s-2.51,2.1-6.1,1.6a8.78,8.78,0,0,1-5.63-3.2,8.1,8.1,0,0,1-1.73-6.07A7.86,7.86,0,0,1,6.85,5.1a8.59,8.59,0,0,1,6.24-1.54c4.82.76,4.05,3.05,6.73,4.87-1.77.41-2.95,1.31-4.52,2a12.05,12.05,0,0,1-6.92.66,1.74,1.74,0,0,0-2,1.48h0a1.8,1.8,0,0,0,1.57,2c.45.06.89.11,1.32.18h0c5.18.73,7-.22,8.29-1.27s2.24-2.14,5.69-1.72a8.77,8.77,0,0,1,5.64,3.21A8.11,8.11,0,0,1,30.62,21a8,8,0,0,1-3.19,5.38,8.53,8.53,0,0,1-6.25,1.53c-4.8-.68-4.4-2.84-7.08-4.68Z" style="fill:#49a535"/></g></g></svg>