<svg xmlns="http://www.w3.org/2000/svg" viewBox="0 0 55.92 20.58"><title>Asset 268</title><g id="Layer_2" data-name="Layer 2"><g id="Layer_3" data-name="Layer 3"><path d="M0,.9A.61.61,0,0,1,.2.45.77.77,0,0,1,.66.29H15.35a.41.41,0,0,1,.22,0,4.6,4.6,0,0,0-3,4.32c0,.1,0,.22,0,.33h-2V20a.57.57,0,0,1-.16.42.48.48,0,0,1-.46.2H6a.5.5,0,0,1-.43-.2A.6.6,0,0,1,5.35,20V5H.66A.65.65,0,0,1,.2,4.84.87.87,0,0,1,0,4.28Z" style="fill:#4d4d4d;fill-rule:evenodd"/><path d="M28.85,1.37l0,.12L36.05,20a.41.41,0,0,1,0,.47c-.11.12-.26.15-.53.15H31.58a.69.69,0,0,1-.76-.51c-.12-.34-.28-.68-.43-1.08A4.47,4.47,0,0,0,32.74,15a4.57,4.57,0,0,0-4.58-4.58,3.26,3.26,0,0,0-.73.08l-.92-2.82Z" style="fill:#4d4d4d;fill-rule:evenodd"/><path d="M23.66.84a.29.29,0,0,1,.12-.2s.07-.12.15-.15a.57.57,0,0,1,.23-.16.45.45,0,0,1,.23,0h3.5a.56.56,0,0,1,.42.16s0,.07.08.07L26.16,6.69h0c-.12.22-.19.49-.31.76v0L21.08,20.55a1,1,0,0,1-.31,0h-4a.69.69,0,0,1-.42-.12c-.11-.11-.11-.23,0-.42Z" style="fill:#f4ad03;fill-rule:evenodd"/><path d="M36.7,20.07c.07-.15.14-.29.22-.43s.17-.29.27-.43L43.37,10,40.24,5.27c-1-1.53-2.07-3.11-3.12-4.69A1.73,1.73,0,0,1,37,.37a.47.47,0,0,1-.06-.21c0-.07.07-.1.16-.1A.65.65,0,0,0,37.35,0h4.78a.88.88,0,0,1,.8.52l3.36,5.05L49.7.52A.87.87,0,0,1,50.49,0h4.86a1.28,1.28,0,0,1,.23.06.12.12,0,0,1,.09.12.63.63,0,0,1-.15.36L49.21,10l6.44,9.62c.09.13.16.25.21.34a.51.51,0,0,1,.06.28c0,.13-.08.19-.25.19H50.76a.73.73,0,0,1-.43-.13.8.8,0,0,1-.3-.37l-3.74-5.54L42.6,19.91a.8.8,0,0,1-.3.37.73.73,0,0,1-.43.13H36.94a.33.33,0,0,1-.19-.06.2.2,0,0,1-.09-.18A.18.18,0,0,1,36.7,20.07Z" style="fill:#4d4d4d"/><path d="M28.16,18.84A3.82,3.82,0,1,0,24.35,15a3.78,3.78,0,0,0,3.81,3.8Z" style="fill:#f4ad03;fill-rule:evenodd"/><path d="M17.16,8.46a3.84,3.84,0,1,0-3.81-3.81,3.83,3.83,0,0,0,3.81,3.81Z" style="fill:#f4ad03;fill-rule:evenodd"/></g></g></svg>