<svg xmlns="http://www.w3.org/2000/svg" xmlns:xlink="http://www.w3.org/1999/xlink" viewBox="0 0 64.82 65.49"><defs><linearGradient id="linear-gradient" x1="27.93" y1="72.6" x2="28.36" y2="3.66" gradientUnits="userSpaceOnUse"><stop offset="0" stop-color="#77943c"/><stop offset="0.36" stop-color="#89ae3c"/><stop offset="0.75" stop-color="#98c33b"/><stop offset="1" stop-color="#9dcb3b"/></linearGradient><linearGradient id="linear-gradient-2" x1="33.9" y1="72.44" x2="34.33" y2="3.87" xlink:href="#linear-gradient"/><linearGradient id="linear-gradient-3" x1="38.92" y1="72.53" x2="39.35" y2="3.79" xlink:href="#linear-gradient"/><linearGradient id="linear-gradient-4" x1="42.18" y1="72.78" x2="42.62" y2="3.71" xlink:href="#linear-gradient"/><linearGradient id="linear-gradient-5" x1="34.87" y1="73.52" x2="35.32" y2="3.47" xlink:href="#linear-gradient"/><linearGradient id="linear-gradient-6" x1="38.9" y1="72.8" x2="39.34" y2="3.71" xlink:href="#linear-gradient"/><linearGradient id="linear-gradient-7" x1="46.68" y1="72.63" x2="47.11" y2="3.83" xlink:href="#linear-gradient"/><linearGradient id="linear-gradient-8" x1="49.75" y1="73.11" x2="50.19" y2="3.57" xlink:href="#linear-gradient"/><linearGradient id="linear-gradient-9" x1="37.45" y1="72.01" x2="37.88" y2="3.82" xlink:href="#linear-gradient"/><linearGradient id="linear-gradient-10" x1="44.46" y1="72.79" x2="44.9" y2="3.74" gradientTransform="translate(38.66 -30.94) rotate(62.52)" xlink:href="#linear-gradient"/><linearGradient id="linear-gradient-11" x1="53.44" y1="72.96" x2="53.88" y2="3.75" xlink:href="#linear-gradient"/><linearGradient id="linear-gradient-12" x1="55.5" y1="72.89" x2="55.94" y2="3.76" xlink:href="#linear-gradient"/><linearGradient id="linear-gradient-13" x1="39.98" y1="73.02" x2="40.41" y2="3.71" xlink:href="#linear-gradient"/><linearGradient id="linear-gradient-14" x1="46.44" y1="72.72" x2="46.87" y2="3.78" xlink:href="#linear-gradient"/><linearGradient id="linear-gradient-15" x1="52.06" y1="72.75" x2="52.49" y2="3.81" xlink:href="#linear-gradient"/><linearGradient id="linear-gradient-16" x1="57.61" y1="72.79" x2="58.05" y2="3.85" xlink:href="#linear-gradient"/><linearGradient id="linear-gradient-17" x1="42.54" y1="72.81" x2="42.98" y2="3.76" xlink:href="#linear-gradient"/><linearGradient id="linear-gradient-18" x1="61.29" y1="72.78" x2="61.72" y2="3.89" xlink:href="#linear-gradient"/></defs><title>Asset 192</title><g id="Layer_2" data-name="Layer 2"><g id="Layer_3" data-name="Layer 3"><path d="M43.8,37.36a1,1,0,0,1,0-2,15.07,15.07,0,0,1,0,30.14H15.1A15.06,15.06,0,0,1,1.93,43.06a15.31,15.31,0,0,1,5.34-5.5,1,1,0,1,1,1.06,1.69,13.55,13.55,0,0,0-4.62,4.81A12.77,12.77,0,0,0,2,50.43,13.06,13.06,0,0,0,15.1,63.49H43.8a13.07,13.07,0,0,0,0-26.13Z" style="fill:#8b8c8e"/><path d="M17.38,34.25l12-6.06a2.37,2.37,0,0,1,3.17,1l9.93,19.55c-.14,6.16-12.23,12-19.92,8.62A20.77,20.77,0,0,1,16,53.33,17.15,17.15,0,1,1,45.26,41.21a1,1,0,0,1-2,0A15.09,15.09,0,1,0,25.84,56.16L16.35,37.42a2.37,2.37,0,0,1,1-3.17ZM33.7,51.58a1.54,1.54,0,0,0-.66,2,1.5,1.5,0,0,0,2.67-1.36,1.52,1.52,0,0,0-2-.68Zm3.63-.6.44.83,3.2-1.6-.44-.85L37.33,51Zm-9,4.61.41.84,3.22-1.64L31.48,54l-3.2,1.62Zm-9.8-17.47,8.16,16,13.3-6.74-8.13-16L18.48,38.12Zm10.6-8.36a.72.72,0,0,0-.3,1,.69.69,0,0,0,.93.31.71.71,0,0,0,.34-.94.76.76,0,0,0-1-.34Z" style="fill-rule:evenodd;fill:url(#linear-gradient)"/><polygon points="33.77 35.03 34.63 34.9 34.51 34.03 33.64 34.16 33.77 35.03" style="fill-rule:evenodd;fill:url(#linear-gradient-2)"/><polygon points="39.54 25.92 40.27 24.53 38.91 23.82 38.18 25.2 39.54 25.92" style="fill-rule:evenodd;fill:url(#linear-gradient-3)"/><polygon points="43.17 28.36 42.71 27.43 41.76 27.9 42.24 28.83 43.17 28.36" style="fill-rule:evenodd;fill:url(#linear-gradient-4)"/><polygon points="34.9 17.82 34.88 18.5 35.51 18.53 35.57 17.86 34.9 17.82" style="fill-rule:evenodd;fill:url(#linear-gradient-5)"/><polygon points="36.84 20.54 39.97 22.18 41.63 19.03 38.51 17.4 36.84 20.54" style="fill-rule:evenodd;fill:url(#linear-gradient-6)"/><polygon points="46.67 26.96 49.57 24.69 47.3 21.81 44.4 24.06 46.67 26.96" style="fill-rule:evenodd;fill:url(#linear-gradient-7)"/><polygon points="49.51 30.19 49.69 31.04 50.52 30.83 50.32 29.99 49.51 30.19" style="fill-rule:evenodd;fill:url(#linear-gradient-8)"/><polygon points="38.11 13.39 38.2 12.73 37.54 12.63 37.44 13.27 38.11 13.39" style="fill-rule:evenodd;fill:url(#linear-gradient-9)"/><rect x="43.37" y="14.93" width="2.89" height="2.89" transform="translate(9.61 48.58) rotate(-62.52)" style="fill:url(#linear-gradient-10)"/><polygon points="47.33 19.23 49.69 21.69 52.16 19.27 49.76 16.86 47.33 19.23" style="fill:#8b8c8e;fill-rule:evenodd"/><polygon points="51.33 24.06 52.92 27.31 56.16 25.7 54.55 22.46 51.33 24.06" style="fill-rule:evenodd;fill:url(#linear-gradient-11)"/><polygon points="54.19 33.5 57.86 32.92 57.33 29.25 53.67 29.81 54.19 33.5" style="fill-rule:evenodd;fill:url(#linear-gradient-12)"/><polygon points="32.28 14.99 35.24 14.94 35.17 12.01 32.24 12.07 32.28 14.99" style="fill:#8b8c8e;fill-rule:evenodd"/><polygon points="41.76 7.1 39.54 6.59 39.01 8.83 41.24 9.33 41.76 7.1" style="fill-rule:evenodd;fill:url(#linear-gradient-13)"/><polygon points="44.2 11.16 47.66 12.96 49.46 9.53 45.99 7.73 44.2 11.16" style="fill-rule:evenodd;fill:url(#linear-gradient-14)"/><polygon points="49.46 14.42 52.59 17.23 55.39 14.13 52.29 11.3 49.46 14.42" style="fill-rule:evenodd;fill:url(#linear-gradient-15)"/><polygon points="55.29 18.63 56.67 22.56 60.61 21.2 59.25 17.27 55.29 18.63" style="fill-rule:evenodd;fill:url(#linear-gradient-16)"/><polygon points="63.18 25.33 59.86 25.6 60.12 28.91 63.46 28.65 63.18 25.33" style="fill:#8b8c8e;fill-rule:evenodd"/><polygon points="45.96 1.29 41.33 0 40 4.63 44.66 5.94 45.96 1.29" style="fill-rule:evenodd;fill:url(#linear-gradient-17)"/><polygon points="52.61 3.67 50.42 7.87 54.59 10.04 56.79 5.86 52.61 3.67" style="fill:#8b8c8e;fill-rule:evenodd"/><polygon points="58.52 11.96 61.32 15.5 64.82 12.73 62.05 9.21 58.52 11.96" style="fill-rule:evenodd;fill:url(#linear-gradient-18)"/></g></g></svg>