<svg xmlns="http://www.w3.org/2000/svg" viewBox="0 0 62.48 50.89"><title>Asset 178</title><g id="Layer_2" data-name="Layer 2"><g id="Layer_3" data-name="Layer 3"><path d="M10.77,25c8.17-6,13-5.11,22.82-3.1h0c5,.95,9.92,2.38,14.53,3.69h0l.48.11-.7-4.73c-.59-3.47-.83-3.23,1.53-.73l9.22,9.86c4.51,4.88,5.67,4.16,0,6.28L48.83,41.1c-3.89,2.38-1.52.25.13-4.4a29.26,29.26,0,0,0-3.78-1.29v-.12c-4.63-1.44-9.46-3-14.3-4.16v.12C-27.64,17.24,34.54,65,35,33.39c2.85.83,5.56,1.65,8.3,2.49-.13,5.47-.13,7.71-.37,9.62C41.76,56.08-25.61,52,10.77,25Zm24-4c-1.08-13.31-13.61-15.09-17-7.62-1.18,2.85.95,5.58-5.2,4.65-5.32-.72-7.69.69-3.08-8A18.11,18.11,0,0,1,33.94,2,17,17,0,0,1,42.7,12.61c.35,1.06.71,5.58.71,10.43-2.86-.81-5.69-1.53-8.63-2.11Z" style="fill:#ed1b23"/></g></g></svg>