<svg xmlns="http://www.w3.org/2000/svg" viewBox="0 0 55.13 54.68"><title>Asset 198</title><g id="Layer_2" data-name="Layer 2"><g id="Layer_3" data-name="Layer 3"><path d="M20.18,28.81c1.53,3.18-1,6.51-2.76,2.34-.67-1.5-1.24-3-1.8-4.42-3.61,3.32-6.23,7.63,8.45,6.65h0c3.59-.14,5.53,3.47,1.1,3.47-1.23,0-2.34-.15-3.46-.15.29,5,1.12,13.57,8.87,2.5,4.85-6.78,7.06-4.71,5.7-2.22,3.29,1.24,6.21,1.8,4.69-2.21a38,38,0,0,0-3.61-6.52h0c-1.79-3.17.28-6.64,2.5-2.76A26.34,26.34,0,0,1,41.53,29C44.43,26,45,23,32.25,22.85h0c-3.6-.27-5.28-4-.84-3.6,1.11.14,2.07.28,2.91.42C32,6,24.61,18,23.66,19.81h0C22,23,17.84,23,20.18,19.12a4.2,4.2,0,0,1,.69-1.37c-6.21-1.95-2.34,8.16-.69,11.06ZM34.87,39.06C22.54,54.7,10.63,51.53,5.23,46.54,4,45.43,4,44.88,5.51,45.84c5.67,3.88,15.36,4.43,13.86-9.42C3,34.36-.74,24,.11,17.31c.14-1.65.55-2.07.68-.27.28,6.51,5,14.11,14.15,7.06C11,9.57,18.53,2.36,24.75.29c1.68-.56,2.08-.28.56.55-5.4,2.63-9.95,9.14-2.77,14.4C32.52.84,43.73,2.79,49.42,6.79c1.37,1,1.54,1.52-.15.7-6.08-3-15.66-1.11-12.32,12.6h0C53.3,23.41,56.21,34.21,54.82,40.86c-.27,1.65-.69,1.94-.69.14.28-6-3.17-13.29-11.34-9.43C48,45.84,40.13,51.66,34,54.29c-1.51.7-1.92.41-.55-.56,5.13-3.18,9.31-10.11,1.39-14.67Z" style="fill:#d32a2a;fill-rule:evenodd"/></g></g></svg>