<svg xmlns="http://www.w3.org/2000/svg" viewBox="0 0 159.4 133.75"><title>Asset 217</title><g id="Layer_2" data-name="Layer 2"><g id="Layer_3" data-name="Layer 3"><path d="M62.54,133.21c.87.11,1.75.2,2.64.28a75.19,75.19,0,0,0,44.47-70.21L94.78,48.41A86.34,86.34,0,0,1,62.54,133.21Z" style="fill:#ffb200"/><path d="M57.23,132.52l.4.08A83.47,83.47,0,0,0,90.11,44.72L68.93,23.54A102.48,102.48,0,0,1,57.23,132.52Z" style="fill:#ffb200"/><path d="M129.06,80.74a77.31,77.31,0,0,1-24.92,41.76A78.55,78.55,0,0,1,92.3,131a69.74,69.74,0,0,0,45.35-41.68Z" style="fill:#ffb200"/><path d="M125.69,78.35,113.46,66.12a78.08,78.08,0,0,1-41.41,67.63h.06a69.48,69.48,0,0,0,8.21-.49A75.29,75.29,0,0,0,125.69,78.35Z" style="fill:#ffb200"/><path d="M59,14.61,44.41,0A69.44,69.44,0,0,0,0,64.57H0a69.44,69.44,0,0,0,52.61,67.15A99.16,99.16,0,0,0,59,14.61Z" style="fill:#ffb200"/><path d="M159.4,76.1A69.38,69.38,0,0,0,90.22,6.92h0a68.47,68.47,0,0,0-24.77,4.61l89.33,89.33A68.43,68.43,0,0,0,159.4,76.1Z" style="fill:#ffb200"/></g></g></svg>