<svg xmlns="http://www.w3.org/2000/svg" viewBox="0 0 79.3 32.99"><title>Asset 176</title><g id="Layer_2" data-name="Layer 2"><g id="Layer_3" data-name="Layer 3"><path d="M25.46,13c-4.17-4.06-5.25,0-5.25,0a.52.52,0,0,0,.43.68.68.68,0,0,0,.76-.49s.46-1.91,3.16.68c1.89,1.88,6.53.86,12.52-5.77,16.15-17.85-.5,9,9,14.65l.45.22a6.56,6.56,0,0,0-.9,1.51,6.18,6.18,0,0,0-.15,4.81,7.53,7.53,0,0,0,1.13,1.93,5.81,5.81,0,0,1-.63-1.55A5.52,5.52,0,0,1,50,23a5.52,5.52,0,0,1,5.79,8.62,6.21,6.21,0,0,0,1.36-2,6.11,6.11,0,0,0,.39-4,48.4,48.4,0,0,0,5.29.39,6.24,6.24,0,0,0-.1,3.38,5.88,5.88,0,0,0,1.46,2.77,6,6,0,0,1-.83-1.9,6.09,6.09,0,0,1,11.78-3.12c0-.23-.08-.51-.14-.77a6.85,6.85,0,0,0-1-2.14c5-2.25,7.34-6.85,3.28-15.2C73.4,1,45.78,15,53,13.65,62.48,11.9,67,11.8,69.45,12c9.47.71,4.9,5.57,2,7.55S63,23.66,54.54,22.59c-.18,0-4.62-.6-5-4.92C49.13,12,50.74,4.75,48.75,2.4,40-8.06,33.17,19.46,25.46,13ZM20,14a8.89,8.89,0,0,1,1.27,4,6.79,6.79,0,0,1-1.07,3.9,7.59,7.59,0,0,1-3.6.15,7,7,0,0,1-2.48-1,7.13,7.13,0,0,1-2-1.88c.67-.45,1.4-.9,2.06-1.34a.87.87,0,0,0-.2-.23,2.1,2.1,0,0,0,1.23.79h0A1.88,1.88,0,0,0,16.54,18a13.42,13.42,0,0,0,1.32-.85A2,2,0,0,0,18.69,16h0a2,2,0,0,0-.27-1.39c.07.08.09.16.15.23.49-.3.92-.61,1.4-.9Zm-8.26,4.61A7.11,7.11,0,0,1,10.77,16a7.18,7.18,0,0,1,.09-2.69,6.76,6.76,0,0,1,1.57-3.25,6.41,6.41,0,0,1,4,.59,8.92,8.92,0,0,1,3.21,2.77c-.5.31-.93.6-1.4.91a2,2,0,0,1,.14.23,1.9,1.9,0,0,0-1.16-.81,2,2,0,0,0-1.43.33c-.41.25-.85.55-1.32.84a1.86,1.86,0,0,0-.77,1.18,1.74,1.74,0,0,0,.21,1.39.57.57,0,0,0-.14-.23c-.68.45-1.35.88-2,1.31ZM18,15.85a1.15,1.15,0,0,0-.18-.89,1.09,1.09,0,0,0-.75-.53,1.35,1.35,0,0,0-1,.14c-.45.31-.89.62-1.31.87a1.22,1.22,0,0,0-.54.81,1.16,1.16,0,0,0,.15.89,1.29,1.29,0,0,0,.81.56v0a1.24,1.24,0,0,0,.94-.16c.41-.28.85-.56,1.32-.85a1.52,1.52,0,0,0,.52-.81Zm1.5,6.86a9,9,0,0,1-.83.8,17.53,17.53,0,0,0-6,2.46,16.46,16.46,0,0,0-3.66,3.21,8,8,0,0,1-4.36-.5,7.48,7.48,0,0,1-3.42-2.86h0A7.73,7.73,0,0,1,0,21.32,8,8,0,0,1,1.56,17,16.82,16.82,0,0,0,5.7,15,18.91,18.91,0,0,0,10,10.9a9.71,9.71,0,0,1,1.4-.61,7.83,7.83,0,0,0-1.21,2.9,7.6,7.6,0,0,0,0,3.08,8.19,8.19,0,0,0,1.16,2.94,8.07,8.07,0,0,0,2.22,2.25,8.5,8.5,0,0,0,2.86,1.22h0a9.39,9.39,0,0,0,3.13,0Zm30.68,1.55a4.28,4.28,0,1,1-3.12,5.18,4.27,4.27,0,0,1,3.12-5.18Zm18,.29a4.28,4.28,0,1,1-3.12,5.18,4.3,4.3,0,0,1,3.12-5.18Zm-7.76-4.47c7.6-1.67,15.85-5.91,11.71-5.26-8.61,1.35-12.73,1.36-15,1.17-8.35-.76-7.6,6.41,3.24,4.09Z" style="fill:#a36d3d;fill-rule:evenodd"/></g></g></svg>