<svg xmlns="http://www.w3.org/2000/svg" viewBox="0 0 34.12 38.41"><title>Asset 260</title><g id="Layer_2" data-name="Layer 2"><g id="Layer_3" data-name="Layer 3"><polygon points="1.31 8.99 1.31 8.49 16.76 1.33 16.81 1.32 16.81 6.96 5.44 12.22 5.44 24.13 1.31 24.13 1.31 24.12 0 24.13 1.31 23 1.31 8.99" style="fill:#cc1d1d;fill-rule:evenodd"/><polygon points="25.18 0 29.97 0.7 29.97 6.64 25.18 4.28 25.18 0" style="fill:#cc1d1d;fill-rule:evenodd"/><polygon points="17.64 1.31 17.64 1.31 17.77 1.33 32.3 8.49 32.3 8.99 32.3 22.97 34.12 24.11 32.3 24.11 32.3 24.13 28.17 24.13 28.17 12.22 17.64 6.92 17.64 6.93 17.64 1.31" style="fill:#a61515;fill-rule:evenodd"/><path d="M17.64,16.53l3.93.4V10.37l-3.93-2Zm0,7.9v-6l3.93.4v5.58Zm5.53,0h4.09v-5L23.17,19Zm4.09-6.92V13.22l-4.07-2,0,5.91Z" style="fill:#a61515;fill-rule:evenodd"/><path d="M16.68,32.11V25H8.07a8.56,8.56,0,0,0,.85,1c2.25,2.26,4.87,4.77,7.76,6.12Z" style="fill:#cc1d1d;fill-rule:evenodd"/><path d="M17.05,33.45a37,37,0,0,1-4.81-2.87A36.26,36.26,0,0,1,8,26.5,7,7,0,0,1,7,25H1l1.86,1.05a12.88,12.88,0,0,0,2.18,3.5,41.81,41.81,0,0,0,5.31,5,42.18,42.18,0,0,0,6.45,3.7l.22.12Z" style="fill:#cc1d1d;fill-rule:evenodd"/><path d="M31.63,25H27.17a7.78,7.78,0,0,1-1.05,1.5,37.73,37.73,0,0,1-4.22,4.08,35.83,35.83,0,0,1-4,2.86v5a38.1,38.1,0,0,0,5.86-3.84,40.51,40.51,0,0,0,5.31-5,12.41,12.41,0,0,0,2.18-3.5L34,25Z" style="fill:#a61515;fill-rule:evenodd"/><polygon points="25.18 0 29.97 0.7 29.97 6.64 25.18 4.28 25.18 0" style="fill:#a61515;fill-rule:evenodd"/></g></g></svg>