<svg xmlns="http://www.w3.org/2000/svg" viewBox="0 0 83.04 42.03"><title>Asset 195</title><g id="Layer_2" data-name="Layer 2"><g id="Layer_3" data-name="Layer 3"><path d="M60.68,13.15C45.52,8.06,36.37,8.69,23.86,12.09,10.19,15.7,37.75,9.64,34,18.78c-1.54,3.39-5.34,8.38-7.2,13.16-4.18,11.15,1.74-7.64,15.88-5,6.37,1.28,9.83,5.52,14,12.21-.91-3.29-5.65-12-8.09-16.35C40,6.88,68.92,16.55,60.68,13.15Z" style="fill:#ed5920;fill-rule:evenodd"/><path d="M41.45,8.38A14.34,14.34,0,0,0,46.56,8a4.27,4.27,0,0,0,2.09-1.38,2.83,2.83,0,0,0-.57-3.83C46.79,1.58,44.94.84,42,.31a12.74,12.74,0,0,0-5-.11A5.47,5.47,0,0,0,35.2.72c-1.85.75-2.53,2-1.85,3.73a2,2,0,0,0,.94,1.16C35.44,6.77,38,7.84,41.45,8.38Z" style="fill:#ed5920;fill-rule:evenodd"/><path d="M26.05,17.4c-6.59-3.61-11.93-5-16.08-5.21A24.49,24.49,0,0,0,1,13.57c-4.28,1.39,6.15-.85,5.69,5.52a23,23,0,0,1-.45,3.51,17.93,17.93,0,0,0-.48,3.71c.11,3.93-.13,2.87.57,1.49.7-1.6,2.43-3.93,6.84-1.49a22.75,22.75,0,0,1,6.26,5.1,96.17,96.17,0,0,1,6.59,8.82c-.11-1.18-2-4.15-3.93-7.33s-4.18-6.38-5.43-8.4c-8.12-13.8,22.34.64,9.36-7.1Z" style="fill:#7aae25;fill-rule:evenodd"/><path d="M16,11.13a10.36,10.36,0,0,0,3.35-2.65A2.22,2.22,0,0,0,20,6.34c-.12-1.58-1.16-2.43-2.89-2.74a9.35,9.35,0,0,0-5.45,1.48A9.25,9.25,0,0,0,9,7.31a2.6,2.6,0,0,0-.46,1.07,2.33,2.33,0,0,0,.82,3,3.32,3.32,0,0,0,1,.52c1.15.32,3,.11,5.56-.74Z" style="fill:#7aae25;fill-rule:evenodd"/><path d="M57.67,19.62C63.93,15.48,69,13.79,73.2,13.26a23,23,0,0,1,8.8.63c4.28,1.07-6.14-.32-5.1,5.84a22.3,22.3,0,0,0,.8,3.39,20.83,20.83,0,0,1,.84,3.73c.2,3.81.33,2.86-.48,1.49s-2.77-3.62-6.81-1a22.88,22.88,0,0,0-5.81,5.53c-1.86,2.55-3.58,5.52-5.69,9.13,0-1.17,1.52-4.25,3.25-7.54s3.6-6.48,4.51-8.61c6.82-14.22-21.88,2.35-9.84-6.26Z" style="fill:#1980df;fill-rule:evenodd"/><path d="M67.07,12.62a9.8,9.8,0,0,1-3.6-2.34,2.36,2.36,0,0,1-.8-2c0-1.61.91-2.54,2.65-2.87a8.82,8.82,0,0,1,5.43.94,7.63,7.63,0,0,1,2.79,2,6.78,6.78,0,0,1,.71.94,2.5,2.5,0,0,1-.71,3.08,1.76,1.76,0,0,1-.94.54c-1.14.42-3,.42-5.53-.32Z" style="fill:#1980df;fill-rule:evenodd"/></g></g></svg>