<svg xmlns="http://www.w3.org/2000/svg" viewBox="0 0 95.93 98.11"><title>Asset 228</title><g id="Layer_2" data-name="Layer 2"><g id="Layer_3" data-name="Layer 3"><path d="M92.37,60.17c9.4,25.14-17.22,39-28.08,31.47,1.21,4.47,4.22,5.18,5.45,5.33-26.27,5.55-30.83-11-30.83-11-1.51,5.1,0,8.5,0,8.5-10.43-6-11.45-15-11.54-17,1.69-1.71,3.84-3.55,6.19-5.54,8.23-7,18.47-15.73,18.84-28.05.29-9.67-4.57-15.11-8.88-19.92a39.67,39.67,0,0,1-4.64-5.86h0L38.82,18h0a7.84,7.84,0,0,1-2.09-5.35v0a12.14,12.14,0,0,1,.2-2.92C37.81,5,41.49.24,49.94,0a27.23,27.23,0,0,0-6.76,8.21c2.57-2.63,6.72-5,13.35-6.18,7.94-1.35,19,.79,24.54,4.88a34.35,34.35,0,0,1,8.82,9.66,38.31,38.31,0,0,1,5.57,16C97.05,48.27,94.23,56.1,92.37,60.17Z" style="fill:#d6bc89"/><path d="M52.4,43.87c-.37,12.32-10.61,21-18.84,28.05-2.35,2-4.5,3.83-6.19,5.54,0-.27,0-.41,0-.41a7.93,7.93,0,0,0-5.08,1.33,0,0,0,0,0,0,0c-2.09,1.34-3.42,3.18-5.74,3.07-7.26-.34-7.6-8.61-7.6-8.61a15.08,15.08,0,0,0-4-8.8c-.23-.24-.37-.36-.37-.36a16.2,16.2,0,0,1-2.08-1.85C.77,60.09-1,57.38.72,55.06c2.55-3.38,4.9-4.25,8.74-6.62.5-.3,1-.64,1.57-1a48.69,48.69,0,0,0,5.82-4.6l0,0a52.37,52.37,0,0,0,6.43-6.9C24.51,34.21,30,25.45,36.24,20.1a29.28,29.28,0,0,1,2.64-2A39.67,39.67,0,0,0,43.52,24C47.83,28.76,52.69,34.2,52.4,43.87Z" style="fill:#d6bc89"/><path d="M16.85,42.84C14,46.1,12.28,50.1,10.57,54,9,57.57,7.36,61.23,4.9,64.05c-.23-.24-.37-.36-.37-.36a16.2,16.2,0,0,1-2.08-1.85c2.08-2.37,3.53-5.65,5.09-9.2.63-1.39,1.25-2.81,1.92-4.2.5-.3,1-.64,1.57-1A48.69,48.69,0,0,0,16.85,42.84Z" style="fill:#353535"/><path d="M52.4,43.87c-.37,12.32-10.61,21-18.84,28.05-2.35,2-4.5,3.83-6.19,5.54,0-.27,0-.41,0-.41a7.93,7.93,0,0,0-5.08,1.33c1.92-2.84,5.27-5.7,9.13-9,7.73-6.59,17.36-14.78,17.69-25.63.25-8.35-4-13.06-8-17.61a45.46,45.46,0,0,1-4.82-6.06,29.28,29.28,0,0,1,2.64-2A39.67,39.67,0,0,0,43.52,24C47.83,28.76,52.69,34.2,52.4,43.87Z" style="fill:#353535"/></g></g></svg>