<svg xmlns="http://www.w3.org/2000/svg" viewBox="0 0 141.38 141.38"><title>Asset 213</title><g id="Layer_2" data-name="Layer 2"><g id="Layer_3" data-name="Layer 3"><path d="M82.39,21.57a55.35,55.35,0,0,1-2.52,96.57A55.35,55.35,0,1,0,53.32,13.8,55.05,55.05,0,0,1,82.39,21.57Z" style="fill:#ffb200"/><path d="M19.13,102.29A71.89,71.89,0,0,0,31.74,127,76.37,76.37,0,0,0,45,134.66a74.86,74.86,0,0,1-14.79-27.75,80.72,80.72,0,0,1-.81-41.69,75.7,75.7,0,0,1-4.17-20.88A76.68,76.68,0,0,0,19.13,102.29Z" style="fill:#ffb200"/><path d="M32.89,106.16a72.43,72.43,0,0,0,18,30.87,76.33,76.33,0,0,0,90.45-32A76.35,76.35,0,0,1,31.23,69.91,78.23,78.23,0,0,0,32.89,106.16Z" style="fill:#ffb200"/><path d="M25.13,39.05A75.93,75.93,0,0,1,36.39,0,76.3,76.3,0,0,0,24,120.59a74.12,74.12,0,0,1-7.55-17.54C10.06,80.48,13.59,57.47,25.13,39.05Z" style="fill:#ffb200"/><path d="M54.09,29.45S35.22,80.29,85.65,98C105,48.16,54.09,29.45,54.09,29.45Z" style="fill:#ffb200"/></g></g></svg>