<svg xmlns="http://www.w3.org/2000/svg" viewBox="0 0 56.19 55.31"><title>Asset 202</title><g id="Layer_2" data-name="Layer 2"><g id="Layer_3" data-name="Layer 3"><path d="M54.72,22a12.09,12.09,0,0,1-.28,12.05c0-.2-.14-.43-.21-.63h0a3.29,3.29,0,0,0-.37-.69c-.17-.18-.31-.37-.5-.56a3.85,3.85,0,0,0-1.27-.95,5,5,0,0,0-1.65-.37,3.81,3.81,0,0,0-1.62.32h0a3.86,3.86,0,0,0-1.34.9A4.44,4.44,0,0,1,46,33a5.49,5.49,0,0,1-1.94.29h0a4.17,4.17,0,0,1-1-.09,3.45,3.45,0,0,1-.92-.32h0a5.3,5.3,0,0,1-.91-.5,5.7,5.7,0,0,1-.79-.67,8.08,8.08,0,0,1-.66-.81h0a6.7,6.7,0,0,1-.49-.92,3.67,3.67,0,0,1-.28-1,3.92,3.92,0,0,1-.1-1A3.55,3.55,0,0,1,39,27a4.64,4.64,0,0,1,.84-1.83,4.87,4.87,0,0,1,.66-.78h0a8.12,8.12,0,0,1,.81-.64,5.44,5.44,0,0,1,.92-.51,6.57,6.57,0,0,1,1-.31,5.87,5.87,0,0,1,1.05-.09,5.14,5.14,0,0,1,1.86.37,4.87,4.87,0,0,1,1.54,1,3.73,3.73,0,0,0,3,1.22,4.72,4.72,0,0,0,1.58-.3,3.65,3.65,0,0,0,1.31-.8A3.75,3.75,0,0,0,54.4,23a2.62,2.62,0,0,0,.32-1ZM33.85,53.85a12.27,12.27,0,0,1-6,1.46,12,12,0,0,1-6.05-1.76,2.44,2.44,0,0,0,.62-.22l0,0a3.69,3.69,0,0,0,.66-.39,2.32,2.32,0,0,0,.55-.48,3.78,3.78,0,0,0,1-1.28A4.17,4.17,0,0,0,25,49.57a4.28,4.28,0,0,0-.29-1.66h0a3.91,3.91,0,0,0-.93-1.3,4.54,4.54,0,0,1-.86-1.53,6.2,6.2,0,0,1-.29-1.93v0a3,3,0,0,1,.1-1,3.87,3.87,0,0,1,.32-.92h0a3.11,3.11,0,0,1,.52-.9,4.91,4.91,0,0,1,.65-.81,6,6,0,0,1,.8-.63h0a5.08,5.08,0,0,1,.91-.5,4.55,4.55,0,0,1,1-.29A6.27,6.27,0,0,1,28,38a4.23,4.23,0,0,1,1,.11,4,4,0,0,1,1,.33c.31.17.59.32.87.5a6.23,6.23,0,0,1,.76.68h0a7.3,7.3,0,0,1,.68.81c.17.32.34.61.49.94a3.28,3.28,0,0,1,.3.95,3.82,3.82,0,0,1,.11,1.06,5.61,5.61,0,0,1-.36,1.88,5.37,5.37,0,0,1-1,1.52,3.78,3.78,0,0,0-1.24,2.94,5.63,5.63,0,0,0,.28,1.6,4.52,4.52,0,0,0,.81,1.32,4.64,4.64,0,0,0,1.23.93,6.53,6.53,0,0,0,1,.31Zm1-52.18a12.12,12.12,0,0,0-12-.14,5.53,5.53,0,0,1,.61.21h0a6.34,6.34,0,0,1,.67.42,3.39,3.39,0,0,1,.55.52,3.81,3.81,0,0,1,.9,1.3,4.16,4.16,0,0,1,.29,1.65,3.69,3.69,0,0,1-.35,1.61h0a3.41,3.41,0,0,1-1,1.29A5,5,0,0,0,23.55,10,6.25,6.25,0,0,0,23.21,12v0a4.34,4.34,0,0,0,.05,1,3.69,3.69,0,0,0,.3,1h0a3.8,3.8,0,0,0,.48.88,5.84,5.84,0,0,0,.63.83,5.6,5.6,0,0,0,.77.7l0,0a4.15,4.15,0,0,0,.88.52,5.49,5.49,0,0,0,1,.35,6.77,6.77,0,0,0,1,.11,5.34,5.34,0,0,0,1-.09A4.27,4.27,0,0,0,30.3,17a5.49,5.49,0,0,0,.9-.49,6.92,6.92,0,0,0,.8-.63h0a8.25,8.25,0,0,0,.68-.78,8.56,8.56,0,0,0,.53-.93,3.91,3.91,0,0,0,.34-.94,4,4,0,0,0,.14-1,5.38,5.38,0,0,0-.29-1.88,4.91,4.91,0,0,0-.93-1.58,3.73,3.73,0,0,1-1.09-3,4.26,4.26,0,0,1,.35-1.59,3.63,3.63,0,0,1,.83-1.29A4.38,4.38,0,0,1,33.82,2a4.19,4.19,0,0,1,1-.28Zm5.74,10.6v0l0,3.65,3.8-.06,0,0a11.9,11.9,0,0,1,4.64.94,12.1,12.1,0,0,1,3.83,2.71h0a2.61,2.61,0,0,1,.47.85h0a2.23,2.23,0,0,1,.09,1,2.46,2.46,0,0,1-.84,1.8,2.43,2.43,0,0,1-.87.53,3.36,3.36,0,0,1-1.14.2,2.35,2.35,0,0,1-1.87-.79l0,0a6.32,6.32,0,0,0-2-1.29,6.67,6.67,0,0,0-2.37-.46,6.81,6.81,0,0,0-1.33.13,6,6,0,0,0-1.27.39,6.94,6.94,0,0,0-1.13.63,5.57,5.57,0,0,0-1,.8h0a5.84,5.84,0,0,0-.83,1,6.17,6.17,0,0,0-.66,1.1,7.25,7.25,0,0,0-.43,1.21,9.47,9.47,0,0,0-.16,1.29,6.62,6.62,0,0,0,.12,1.32,6.33,6.33,0,0,0,.36,1.29,12.64,12.64,0,0,0,.61,1.15l0,0a6.18,6.18,0,0,0,.83,1,6.8,6.8,0,0,0,1,.82,9.49,9.49,0,0,0,1.09.65h0a5.47,5.47,0,0,0,1.26.41,6.08,6.08,0,0,0,1.31.12h0a6.62,6.62,0,0,0,2.39-.37,5.79,5.79,0,0,0,2-1.16l0,0a2.27,2.27,0,0,1,.85-.62h0a2.78,2.78,0,0,1,1.08-.19,3.12,3.12,0,0,1,1.07.23,2.1,2.1,0,0,1,.83.65l.05,0a1.69,1.69,0,0,1,.31.35A1.61,1.61,0,0,1,53,34h0a3.56,3.56,0,0,1,.15.46h0a3.75,3.75,0,0,1,0,.47,1.67,1.67,0,0,1,0,.51,1.19,1.19,0,0,1-.11.45h0l0,0,0,0h0l0,.09h0a1.59,1.59,0,0,0-.16.36h0a1.5,1.5,0,0,1-.25.37,17.28,17.28,0,0,1-1.88,1.53,13,13,0,0,1-2,1.07,10.9,10.9,0,0,1-2.24.63,14.62,14.62,0,0,1-2.45.18h0l-3.81,0L40,43.44v0A12.13,12.13,0,0,1,39,48.1a11.91,11.91,0,0,1-2.72,3.83h0a2.09,2.09,0,0,1-.83.48h0a2.52,2.52,0,0,1-1,.11,2.83,2.83,0,0,1-1-.26,2.6,2.6,0,0,1-.78-.59,2.43,2.43,0,0,1-.54-.87,4.53,4.53,0,0,1-.21-1.13,2.54,2.54,0,0,1,.78-1.9l0,0a6.1,6.1,0,0,0,1.28-2,6.53,6.53,0,0,0,.46-2.37A5.4,5.4,0,0,0,34.37,42,4.7,4.7,0,0,0,34,40.79a6.48,6.48,0,0,0-.61-1.17,9.46,9.46,0,0,0-.81-1h0a6.87,6.87,0,0,0-.94-.84,6.71,6.71,0,0,0-1.1-.64,5.84,5.84,0,0,0-1.24-.42A5.28,5.28,0,0,0,28,36.57a5.71,5.71,0,0,0-1.3.11,6.37,6.37,0,0,0-2.44,1h0a5,5,0,0,0-1,.79,6.92,6.92,0,0,0-.83,1,11.43,11.43,0,0,0-.66,1.1h0a5.38,5.38,0,0,0-.41,1.25,5.79,5.79,0,0,0-.12,1.32h0a7.15,7.15,0,0,0,.36,2.38,5.61,5.61,0,0,0,1.17,2l.05,0a2.27,2.27,0,0,1,.6.87h0a2.57,2.57,0,0,1,.21,1.08,2.75,2.75,0,0,1-.23,1.05,2.37,2.37,0,0,1-.65.86l0,.06a2.63,2.63,0,0,1-.38.3,2.86,2.86,0,0,1-.42.24h0a1.38,1.38,0,0,1-.49.14h0a2.18,2.18,0,0,1-.48.08,4.75,4.75,0,0,1-.51,0c-.14,0-.3-.06-.46-.12h0l0,0h0l-.08,0h0a1.42,1.42,0,0,1-.37-.18h0a1.64,1.64,0,0,1-.37-.28,11.65,11.65,0,0,1-1.5-1.86,12.1,12.1,0,0,1-1.08-2,10.8,10.8,0,0,1-.63-2.21A13.2,13.2,0,0,1,15.72,43l0-.06.1-3.22-4-.19h0a12.67,12.67,0,0,1-2.45-.27,10.4,10.4,0,0,1-2.21-.72,12.62,12.62,0,0,1-2-1.14,16.27,16.27,0,0,1-1.78-1.57,2.4,2.4,0,0,1-.27-.38h0a.83.83,0,0,1-.17-.37h0l0,0V35h0l0,0h0v0h0a2.18,2.18,0,0,1-.11-.44,4.44,4.44,0,0,1,0-.5c0-.17,0-.34.06-.5h0A2.11,2.11,0,0,1,3,33.08H3c.07-.15.16-.3.23-.43s.23-.23.35-.33l.06,0a2.32,2.32,0,0,1,.84-.61,2.45,2.45,0,0,1,1.1-.19,2.63,2.63,0,0,1,1.06.22h0a2.45,2.45,0,0,1,.84.64l.07,0a5.2,5.2,0,0,0,2,1.26,6.94,6.94,0,0,0,2.37.45h0A6.23,6.23,0,0,0,13.22,34a6.81,6.81,0,0,0,1.27-.35h0A7,7,0,0,0,15.62,33a6.74,6.74,0,0,0,1-.78,9.72,9.72,0,0,0,.85-1h0a5.65,5.65,0,0,0,.65-1.13,8.81,8.81,0,0,0,.43-1.25,6.16,6.16,0,0,0,.15-1.33,6.42,6.42,0,0,0-.09-1.31c-.09-.39-.24-.81-.38-1.23a8.61,8.61,0,0,0-.61-1.11,9.45,9.45,0,0,0-.82-1h0a6.17,6.17,0,0,0-1-.84,6.42,6.42,0,0,0-1.11-.67A6,6,0,0,0,13.48,21a6.88,6.88,0,0,0-1.32-.19,6.67,6.67,0,0,0-2.37.41,6.11,6.11,0,0,0-2,1.19l-.06,0a2.38,2.38,0,0,1-1.91.73,3.63,3.63,0,0,1-1.1-.24,3.33,3.33,0,0,1-.89-.58,2.8,2.8,0,0,1-.54-.81,2.71,2.71,0,0,1-.23-1,2.43,2.43,0,0,1,.16-1h0a2,2,0,0,1,.5-.84h0a12,12,0,0,1,3.94-2.55,12.06,12.06,0,0,1,4.65-.79h0l4,.2.06-3.65v0a13.6,13.6,0,0,1,.28-2.45,10.77,10.77,0,0,1,.71-2.21,13.1,13.1,0,0,1,1.16-2A12.71,12.71,0,0,1,20,3.37a2.21,2.21,0,0,1,.39-.26h0a2,2,0,0,1,.36-.17h0l0,0,.07,0h.05a2.36,2.36,0,0,1,.44-.11h.49a2.08,2.08,0,0,1,.5.07v0a1.86,1.86,0,0,1,.47.16h0a1.5,1.5,0,0,1,.4.25,1.39,1.39,0,0,1,.36.33l.06.07a2.08,2.08,0,0,1,.59.84,2.37,2.37,0,0,1,.21,1.08,2.24,2.24,0,0,1-.25,1.06h0a2.12,2.12,0,0,1-.63.84l0,.06a5.91,5.91,0,0,0-1.26,2,7.45,7.45,0,0,0-.44,2.37h0a5.17,5.17,0,0,0,.06,1.31,4.76,4.76,0,0,0,.37,1.25h0a5.16,5.16,0,0,0,.6,1.14,8.63,8.63,0,0,0,.81,1,9.86,9.86,0,0,0,1,.85h0a5.27,5.27,0,0,0,1.13.65,6.71,6.71,0,0,0,1.26.44,6.34,6.34,0,0,0,1.31.15,7,7,0,0,0,1.3-.11,6.23,6.23,0,0,0,1.23-.39A5.61,5.61,0,0,0,32,17.64a4.71,4.71,0,0,0,1-.82h0a5.75,5.75,0,0,0,.84-1,7.53,7.53,0,0,0,.66-1.09,5,5,0,0,0,.44-1.28,6.37,6.37,0,0,0,.19-1.32,7,7,0,0,0-.38-2.36,6.23,6.23,0,0,0-1.23-2.05l0,0a2.46,2.46,0,0,1-.71-1.93A3.17,3.17,0,0,1,33,4.67a2.91,2.91,0,0,1,.57-.87,2.87,2.87,0,0,1,.81-.56,3,3,0,0,1,1-.22,2.31,2.31,0,0,1,1,.15h0a2.3,2.3,0,0,1,.85.51h0a11.56,11.56,0,0,1,3.33,8.59ZM1.68,21.06A11.55,11.55,0,0,0,0,27,12.06,12.06,0,0,0,1.53,33.1a2.56,2.56,0,0,1,.22-.62h0a4.18,4.18,0,0,1,.4-.65,2.82,2.82,0,0,1,.54-.55A3.8,3.8,0,0,1,4,30.37a3.7,3.7,0,0,1,1.64-.29,3.54,3.54,0,0,1,1.62.35h0a3.61,3.61,0,0,1,1.3,1,4.74,4.74,0,0,0,1.5.92,5.78,5.78,0,0,0,1.9.35h0a3.86,3.86,0,0,0,1,0,3.73,3.73,0,0,0,.94-.28h0a5.47,5.47,0,0,0,.9-.48,8,8,0,0,0,.84-.64,6.9,6.9,0,0,0,.68-.78v0a5.37,5.37,0,0,0,.52-.88,5.09,5.09,0,0,0,.34-1,8.7,8.7,0,0,0,.12-1,6.56,6.56,0,0,0-.08-1,7,7,0,0,0-.3-1c-.16-.32-.32-.63-.48-.9s-.42-.54-.64-.81v0a5.07,5.07,0,0,0-.79-.69,6.92,6.92,0,0,0-.9-.54,4.68,4.68,0,0,0-1-.34,4.51,4.51,0,0,0-1-.13,5.43,5.43,0,0,0-1.87.27,4.91,4.91,0,0,0-1.57.93,3.69,3.69,0,0,1-3,1.11,4.93,4.93,0,0,1-1.56-.34,3.81,3.81,0,0,1-1.3-.85A4.07,4.07,0,0,1,2,22.06a3.71,3.71,0,0,1-.28-1Z" style="fill:#5c984b;fill-rule:evenodd"/></g></g></svg>