<svg xmlns="http://www.w3.org/2000/svg" viewBox="0 0 133.1 32.54"><title>Asset 185</title><g id="Layer_2" data-name="Layer 2"><g id="Layer_3" data-name="Layer 3"><path d="M133.1,9.4C117.19,13,94.27,13.73,80.28,11.57l1-2.67c1.21-3.37,1.45-3.13-1.2-1.2-7.23,5.56-12.54,9.41-12.3,9.41a96,96,0,0,0,15.43,12c2.65,1.94,2.65,2.42,1.21-1.19l-1.21-4.11c6.75.73,14.22,1.21,21.45.25-8.43,1.7-11.08,2.17-19,2.17L87,32.54c-8.92-4.58-40.52-1-40.52-1.19.26-1,4.11-8,3.14-8.22C23.86,21.2,8.43,21.46,0,23.13H0C15.68,19.52,38.58,18.8,52.8,21l-1,2.65c-1.2,3.63-1.44,3.38,1.2,1.2,7.47-5.78,12.06-9.4,12.06-9.64S60.28,10.35,49.66,3.61c-2.65-1.92-2.41-1.92-1.21,1l1.45,4.1c-7-.48-14.46-1-21.46,0C36.88,7,39.53,6.26,47.5,6.26L46,0c8.69,4.57,40.52,1,40.52,1.19-.25,1-4.1,8.21-3.38,8.21,25.79,1.92,41.47,1.92,49.92,0Z" style="fill:#2e86da;fill-rule:evenodd"/></g></g></svg>