<svg xmlns="http://www.w3.org/2000/svg" viewBox="0 0 43.23 47.65"><title>Asset 188</title><g id="Layer_2" data-name="Layer 2"><g id="Layer_3" data-name="Layer 3"><path d="M28.7,22.79l-5.3-1.45.82-4.42a6,6,0,0,0-.85-4.13v0A5.83,5.83,0,0,0,20,10.24a4.83,4.83,0,0,0-6.15,3.83l-.81,4.41L7.74,17l.83-4.42A9.86,9.86,0,0,1,13,5.9a10.08,10.08,0,0,1,8-1.08A12,12,0,0,1,27.82,10a11.72,11.72,0,0,1,1.68,8.37Z" style="fill:none"/><path d="M23.84,47.64c1.34.19,14.87-3.5,19.39-3.9C35.47,23,35.55.63,16.63,0,2.64-.44-7.88,14,7.84,18.34l20.1,5.55c2.78.77,5.23,3.93,4.13,6.59-.88,2.09-5.56,15.51-8.52,17C23.47,47.51,23.68,47.61,23.84,47.64ZM29.5,18.38l-.8,4.41-5.3-1.45.82-4.42a6,6,0,0,0-.85-4.13v0A5.83,5.83,0,0,0,20,10.24a4.83,4.83,0,0,0-6.15,3.83l-.81,4.41L7.74,17l.83-4.42A9.86,9.86,0,0,1,13,5.9a10.08,10.08,0,0,1,8-1.08A12,12,0,0,1,27.82,10,11.72,11.72,0,0,1,29.5,18.38Z" style="fill:#2e86da"/><path d="M12.54,33.49A2.75,2.75,0,0,1,16,31.31a3.42,3.42,0,0,1,2.39,3.83,2.76,2.76,0,0,1-1.65,2.08l-1.16,6.25-3.43-.92,1.16-6.3A3.24,3.24,0,0,1,12.54,33.49Z" style="fill:#2e86da"/></g></g></svg>