<svg xmlns="http://www.w3.org/2000/svg" xmlns:xlink="http://www.w3.org/1999/xlink" viewBox="0 0 72.97 76.81"><defs><linearGradient id="linear-gradient" x1="-1099.65" y1="-6121.31" x2="-1040.57" y2="-6121.31" gradientTransform="translate(-6103.88 1117.39) rotate(90)" gradientUnits="userSpaceOnUse"><stop offset="0" stop-color="#ff3f7f"/><stop offset="1" stop-color="#9c2da2"/></linearGradient><linearGradient id="linear-gradient-2" x1="-1117.39" y1="-6121.31" x2="-1042.53" y2="-6121.31" gradientTransform="translate(-6103.88 1117.39) rotate(90)" gradientUnits="userSpaceOnUse"><stop offset="0" stop-color="#9c2da2"/><stop offset="1" stop-color="#ff3f7f"/></linearGradient><linearGradient id="linear-gradient-3" x1="-6165.47" y1="1119.88" x2="-6106.4" y2="1119.88" gradientTransform="translate(-1064.33 -6106.4) rotate(-90)" xlink:href="#linear-gradient"/><linearGradient id="linear-gradient-4" x1="-6183.21" y1="1119.88" x2="-6108.35" y2="1119.88" gradientTransform="translate(-1064.33 -6106.4) rotate(-90)" xlink:href="#linear-gradient-2"/></defs><title>Asset 273</title><g style="isolation:isolate"><g id="Layer_2" data-name="Layer 2"><g id="Layer_3" data-name="Layer 3"><path d="M26.28,76.81h0a29.25,29.25,0,0,0,0-41.36L8.57,17.74h0a29.23,29.23,0,0,0,0,41.36Z" style="fill:url(#linear-gradient)"/><path d="M25.82,47.72A20,20,0,0,1,31.09,42h0l.08-.06a29.29,29.29,0,0,0-4.89-6.48L11.8,21A29.31,29.31,0,0,0,11,57L24.33,74.86A29.3,29.3,0,0,1,25.82,47.72Z" style="opacity:0.2;mix-blend-mode:multiply"/><path d="M21.9,47.79a19.91,19.91,0,0,1,4.38-6.43h0A29.25,29.25,0,0,0,26.28,0h0L8.57,17.72a29.26,29.26,0,0,0,0,41.38L24.33,74.86A29.28,29.28,0,0,1,21.9,47.79Z" style="fill:url(#linear-gradient-2)"/><path d="M46.69,0h0a29.25,29.25,0,0,0,0,41.36L64.41,59.08h0a29.25,29.25,0,0,0,0-41.36Z" style="fill:url(#linear-gradient-3)"/><path d="M47.15,29.09a19.87,19.87,0,0,1-5.27,5.73h0l-.07.06a29.24,29.24,0,0,0,4.88,6.48L61.17,55.84a29.27,29.27,0,0,0,.8-36L48.64,2A29.3,29.3,0,0,1,47.15,29.09Z" style="opacity:0.2;mix-blend-mode:multiply"/><path d="M51.08,29a19.94,19.94,0,0,1-4.39,6.43h0a29.25,29.25,0,0,0,0,41.36h0L64.41,59.1a29.28,29.28,0,0,0,0-41.38L48.64,2A29.31,29.31,0,0,1,51.08,29Z" style="fill:url(#linear-gradient-4)"/></g></g></g></svg>