<svg xmlns="http://www.w3.org/2000/svg" viewBox="0 0 87.77 41.93"><title>Asset 177</title><g id="Layer_2" data-name="Layer 2"><g id="Layer_3" data-name="Layer 3"><path d="M43.25,27.62l-.69-1.95c-1-2.51-1.2-2.28,1-.82l6.84,4.73c3.92,2.66,3.07,1.89-1.25,4.54l-8.86,5.52c-2.23,1.37-2.1,1.61-1-.77L40.54,36a92.51,92.51,0,0,1-18.09-.56c7.06,1.47,9.36,2,16,2.25l-1.39,4.24C133.3,2.09,68.46,7.18,38.37,15.21L39.49,17c1.32,2.25,1.53,2-.9,1L31,14.57c-4.32-1.94-3.34-1.31.42-4.72l7.82-7c2-1.75,1.75-2,1,.62l-.71,2.94a101.93,101.93,0,0,1,18-2.66c-7.18-.13-9.56-.28-16.14.69L41.92,0C-3.65,20.72-23.95,37.6,43.25,27.62Z" style="fill:#2773bc;fill-rule:evenodd"/></g></g></svg>