<svg xmlns="http://www.w3.org/2000/svg" viewBox="0 0 174.25 150.89"><title>Asset 211</title><g id="Layer_2" data-name="Layer 2"><g id="Layer_3" data-name="Layer 3"><polygon points="82.71 75.44 83.81 73.53 106.7 33.9 87.13 0 43.56 75.44 87.13 150.88 106.7 116.99 83.81 77.36 82.71 75.44" style="fill:#423148"/><polygon points="59.82 111.25 43.56 139.41 6.63 75.44 43.56 11.48 59.82 39.63 63.13 33.9 43.56 0 0 75.44 43.56 150.88 63.13 116.99 59.82 111.25" style="fill:#423148"/><polygon points="129.7 66.23 129.73 66.25 129.73 54.08 102.26 101.65 105.75 107.7 129.7 66.23" style="fill:#423148"/><polygon points="129.7 49.59 129.73 49.61 129.73 37.44 97.46 93.34 100.95 99.38 129.7 49.59" style="fill:#423148"/><polygon points="91.34 82.74 129.7 16.32 129.73 16.34 129.73 1.66 87.13 75.44 91.34 82.74" style="fill:#423148"/><polygon points="129.7 32.95 129.73 32.97 129.73 20.81 92.65 85.02 96.14 91.06 129.7 32.95" style="fill:#423148"/><polygon points="131.65 1.66 131.65 149.23 174.25 75.44 131.65 1.66" style="fill:#423148"/><polygon points="129.7 82.86 129.73 82.88 129.73 70.72 107.06 109.97 110.55 116.02 129.7 82.86" style="fill:#423148"/><polygon points="129.7 99.5 129.73 99.52 129.73 87.35 111.87 118.29 115.36 124.33 129.7 99.5" style="fill:#423148"/><polygon points="129.73 133.39 125.16 141.31 129.73 149.23 129.73 133.39" style="fill:#423148"/><polygon points="123.84 139.03 129.7 128.9 129.73 128.92 129.73 120.62 121.47 134.93 123.84 139.03 123.84 139.03" style="fill:#423148"/><polygon points="129.7 116.13 129.73 116.16 129.73 103.99 116.67 126.61 120.16 132.65 129.7 116.13" style="fill:#423148"/></g></g></svg>