<svg xmlns="http://www.w3.org/2000/svg" xmlns:xlink="http://www.w3.org/1999/xlink" viewBox="0 0 56.84 58.26"><defs><clipPath id="clip-path"><path d="M43.55,29.14A15.82,15.82,0,1,1,27.74,13.31,15.81,15.81,0,0,1,43.55,29.14Z" style="fill:none"/></clipPath></defs><title>Asset 252</title><g id="Layer_2" data-name="Layer 2"><g id="Layer_3" data-name="Layer 3"><path d="M43.55,29.14A15.82,15.82,0,1,1,27.74,13.31,15.81,15.81,0,0,1,43.55,29.14Z" style="fill:#fff"/><path d="M27.74,45.5A16.37,16.37,0,1,1,44.11,29.14,16.39,16.39,0,0,1,27.74,45.5Zm0-31.64A15.27,15.27,0,1,0,43,29.14,15.29,15.29,0,0,0,27.74,13.86Z" style="fill:#1d97db"/><g style="clip-path:url(#clip-path)"><path d="M31.62,35.14h-.1v.09h-.61l-.31.09c-3.15-1.2-6.6-2.42-10.06-3.64-3.76-1.4-7.73-2.88-11.8-4.38a1.09,1.09,0,0,1,.51-.37c4.27,1.59,8.24,3.08,12.1,4.48,1.62.65,3.25,1.2,4.88,1.86-.1-1.49-.31-3.26-.5-5.5-.11-1.39-.21-2.89-.41-4.66s-.41-4-.61-6.53a21.61,21.61,0,0,0,1.84-1.3c.18,3,.29,5.41.39,7.55.11,2,.11,3.64.21,5,.1,2.33.2,4.28.2,5.77l3.35,1.21c.32-1.5.72-3.35,1.22-5.68.42-1.67.72-3.64,1.23-6.06.5-2.61,1.11-5.78,1.92-9.69l2.85-1.77c-1.11,4.28-2,7.83-2.74,10.63C34.47,24.88,34,27,33.45,28.8c-.71,2.7-1.32,4.75-1.83,6.34ZM20.74,39.23l-4.06.09c-.92,0-1.94,0-3.16.11s-2.54,0-4.07.09a3.58,3.58,0,0,0-.61-.66c1.73,0,3.26,0,4.58-.08h7.82l1.44-1.32c-1.23-.08-2.55-.27-4.28-.46-1.22-.1-2.54-.28-4.06-.45-1.73-.11-3.66-.29-5.9-.57A6.25,6.25,0,0,0,7.63,35c2.53.28,4.58.56,6.3.85s3.15.37,4.37.55c1.93.28,3.46.46,4.78.65l-.11.1h0v.1h0v.09h0v.08h0v.1c-1.31,1.22-2.74,2.52-4,3.73l-4.39,4c0-.08-.09-.18-.09-.26,1.42-1.31,3-2.71,4.37-4Zm.71-1-.4.37a24,24,0,0,1-2.44-.09H15.36c-1.43,0-3.15,0-5.2-.09H2.44a12.48,12.48,0,0,0-1.22-.94c3.46.1,6.2.2,8.65.29,2.23.09,4.06.18,5.68.18,1.23.1,2.34.1,3.37.19s1.82.09,2.53.09Zm-.3-.65c-.21.1-.31.28-.51.37-.91-.09-2-.09-3.36-.18-1.52-.09-3.25-.19-5.38-.29a3.83,3.83,0,0,1-.41-.74c1.22.09,2.34.18,3.35.28s1.84.19,2.65.19c1.43.19,2.64.27,3.66.37Zm3.35-.94c0-.07.1-.18.1-.36-1,.93-1.92,1.86-2.94,2.79L18.5,41.94l-3.14,2.89c-1.12.92-2.23,2-3.26,3a.41.41,0,0,0,.21.09c1-.93,2.13-2,3.24-2.87l3.06-2.81c1-1,2-2,3.05-2.9s1.93-1.76,2.84-2.7Zm-.71,1.22a.5.5,0,0,0,.11-.38l-2.45,2.25c-.81.75-1.63,1.58-2.43,2.32l-2.55,2.33c-.81.75-1.73,1.58-2.64,2.43.1,0,.1.09.2.09l2.55-2.33L19,42.32c.8-.75,1.72-1.5,2.43-2.24s1.63-1.5,2.34-2.24Zm-1.32,1.77v-.29c-.92.94-1.93,1.77-2.95,2.71s-1.92,1.87-2.94,2.8c0,.09,0,.09.1.2.92-.94,1.93-1.79,2.94-2.71s1.93-1.77,2.85-2.71Zm13.21-6.43c1.23,0,2.76-.09,4.48-.09,1-.1,2.23-.1,3.55-.19s2.86-.09,4.69-.18a1.89,1.89,0,0,0,.4.74c-1.93.09-3.64.09-5.17.09s-2.76.09-3.87.09H35.07l-1.62,1.5c1.23.09,2.65.27,4.36.46,1.24.09,2.66.29,4.29.38s3.76.37,6.09.64a4.13,4.13,0,0,0,.51.94c-2.54-.27-4.57-.56-6.41-.84s-3.14-.37-4.37-.57L33,35.51v-.19h0v-.09h.11v-.09h0V35h0c1.53-1.4,3.15-2.8,5-4.37s4-3.46,6.1-5.33c.1.1.1.19.19.29-2.22,1.95-4.37,3.72-6.29,5.41-.82.74-1.63,1.48-2.45,2.14Zm-.91,1.11c.2-.08.3-.27.52-.37H47.18c2.44,0,5.29,0,8.74.1a9.39,9.39,0,0,1,.92,1c-3.76-.19-6.92-.28-9.56-.28-2.44-.09-4.47-.18-6.2-.28-1.32,0-2.55,0-3.56-.1s-1.94-.09-2.75-.09Zm.3.75.51-.46c1,.09,2.23.09,3.57.18,1.63.09,3.45.19,5.79.28.1.28.22.56.3.74-1.32-.09-2.54-.18-3.55-.18l-2.86-.28c-1.42-.09-2.63-.18-3.76-.28Zm-3.65,1.31h0l.2.09-.71.11c2.33.74,4.67,1.57,7.11,2.41s4.89,1.76,7.43,2.61c.2,0,.3-.11.5-.19l-7.31-2.52c-1.94-.74-3.87-1.4-5.8-2l.93-.09-2-.66,2.95-2.6c1.2-1.11,2.53-2.33,4-3.45,1.41-1.3,2.94-2.6,4.47-3.91,1.73-1.49,3.55-3.08,5.39-4.76a1.18,1.18,0,0,0-.21-.18L43,25.73c-1.52,1.39-3,2.69-4.36,3.91S36,32,34.77,33s-2.24,2-3.25,3c-1.53-.57-3.15-1.13-4.79-1.69-2.44-.94-5.07-1.85-7.81-2.88s-5.71-2.06-8.66-3.17C7.11,27,3.77,25.81.31,24.51.2,24.7.1,24.79,0,25c3.36,1.21,6.61,2.43,9.76,3.54,2.85,1.12,5.69,2.15,8.44,3.07s5.19,2,7.72,2.79l5.5,2Zm.81-1.59v.38A34.17,34.17,0,0,1,35,32.61c1-.93,2-1.86,3.16-2.79s2.24-2.05,3.56-3.15,2.64-2.35,4.06-3.56c-.1-.09-.1-.19-.2-.28-1.42,1.22-2.74,2.43-4,3.55s-2.34,2.14-3.45,3.07S36,31.41,35,32.24l-2.74,2.52Zm1.62-2v.37c1.12-1,2.35-2.14,3.67-3.27s2.74-2.41,4.17-3.82a.29.29,0,0,0-.11-.27l-4.06,3.72c-1.32,1.22-2.45,2.23-3.67,3.27ZM30.7,38.58c0,1.31.11,2.88.21,4.57.11,1,.11,2.14.2,3.36s.21,2.6.31,4.09c-.51.2-1,.48-1.52.66,0-1.69-.12-3.17-.12-4.47s-.1-2.62-.1-3.73c-.1-1.86-.1-3.45-.1-4.85l-3.25-1.12c-.3,1.4-.6,3-.91,4.94-.2,1.3-.4,2.71-.71,4.38S24.1,50,23.79,52.1c-.71.27-1.32.55-1.93.84.41-2.23.92-4.29,1.22-6.06s.71-3.16,1-4.56c.5-2.24.92-4,1.32-5.6h.5v-.1h.52c3.14,1.13,6.4,2.24,9.66,3.46s6.71,2.42,10.26,3.72l-.61.29c-3.55-1.32-7.11-2.63-10.46-3.83L30.7,38.58Zm-2.54-.46a3.77,3.77,0,0,1,.92.37c0,.83-.1,1.77-.1,2.8V57.14c-.61.37-1.23.74-1.93,1.12.2-3,.3-5.51.4-7.75s.21-4.1.3-5.68c.11-1.4.22-2.61.22-3.74s.09-2,.19-3Zm-1.61.66a3.1,3.1,0,0,0,1,.36c-.1,1.12-.2,2.43-.3,3.83-.2,1.58-.31,3.44-.52,5.59a11.36,11.36,0,0,0-1.51.64c.1-1.2.3-2.41.4-3.45s.2-2,.3-2.88c.21-1.49.41-2.89.63-4.09ZM24.1,35.14a2.81,2.81,0,0,0-.81.09c2.23.75,4.57,1.58,6.91,2.43s4.87,1.66,7.32,2.6S42.6,42,45.16,43s5.37,2,8.13,3c.18-.08.29-.19.49-.28-2.73-1-5.38-1.94-8-2.89s-5-1.85-7.42-2.69S33.45,38.31,31,37.46l-5.6-2,.61-.1c-2.34-.83-4.79-1.67-7.32-2.51s-5.39-1.95-8.24-3c-.21.09-.31.18-.5.28,2.74.93,5.48,1.86,8,2.79,2.13.75,4.16,1.49,6.1,2.15Zm2.95.37a2.55,2.55,0,0,0-.82.09c1.93.55,3.76,1.21,5.69,2s4,1.4,6,2L44,41.83c2.13.76,4.37,1.5,6.5,2.34a1.93,1.93,0,0,0,.52-.27l-6.42-2.24c-2-.74-4-1.49-6-2.14s-4-1.4-5.9-2.14L30,36.44c.21,0,.51-.09.71-.09-1.83-.66-3.76-1.31-5.68-2s-4.18-1.48-6.41-2.23-4.48-1.68-6.82-2.51-5.08-1.87-7.63-2.8a.74.74,0,0,0-.39.37c2.52.94,5.07,1.77,7.41,2.71s4.58,1.58,6.71,2.32,4.27,1.5,6.31,2.24Zm1.82-1.77a4.63,4.63,0,0,0-.9-.39V30.1c0-1.3,0-2.8-.11-4.57v-8.2C27.75,13.61,27.75,9,27.66,3c.91-.94,1.92-1.95,3-3-.41,7.08-.71,12.39-.92,16.58-.2,3.65-.29,6.63-.5,9-.1,1.88-.1,3.45-.2,4.75s-.21,2.44-.21,3.46ZM30.6,33a6.62,6.62,0,0,0-1.11-.38c.19-1.3.29-2.88.5-4.65.21-2.15.4-4.75.71-8.12.62-.36,1.32-.74,2-1.1-.3,2.05-.51,3.81-.82,5.31s-.4,2.79-.5,4c-.31,2-.61,3.55-.82,5Z" style="fill:#1d97db;fill-rule:evenodd"/></g><path d="M21.49,31.41c1.61.65,3.24,1.2,4.87,1.86-.1-1.49-.31-3.26-.5-5.5-.11-1.39-.22-2.89-.41-4.66s-.41-4-.61-6.53a20,20,0,0,0,1.83-1.3c.19,3,.3,5.41.4,7.55.11,2,.11,3.64.21,5,.1,2.33.19,4.28.19,5.77l3.36,1.21c.31-1.5.72-3.35,1.22-5.68.41-1.67.71-3.64,1.23-6.06.5-2.61,1.11-5.78,1.92-9.69l2.85-1.77q-1.68,6.42-2.74,10.63c-.71,2.6-1.22,4.75-1.74,6.52-.71,2.7-1.32,4.75-1.82,6.34h-.11v.09H31l-.31.09c-3.15-1.2-6.6-2.42-10.06-3.64M29,33.74a4.45,4.45,0,0,0-.91-.39V30.1c0-1.3,0-2.8-.1-4.57v-8.2C27.88,13.61,27.88,9,27.79,3c.91-.94,1.93-1.95,3-3-.4,7.08-.71,12.39-.91,16.58-.2,3.65-.3,6.63-.51,9-.11,1.88-.11,3.45-.2,4.75S29,32.72,29,33.74ZM30.73,33a6.94,6.94,0,0,0-1.11-.38c.19-1.3.3-2.88.5-4.65.21-2.15.4-4.75.71-8.12.61-.36,1.32-.74,2-1.1-.3,2.05-.51,3.81-.81,5.31s-.41,2.79-.5,4c-.31,2-.61,3.55-.82,5Z" style="fill:#1d97db;fill-rule:evenodd"/><polygon points="26.75 9.66 27.87 9.77 27.82 15.57 27.04 15.02 26.75 9.66" style="fill:#fff;fill-rule:evenodd"/><polygon points="34.57 11.52 35.68 11.44 34.39 16.87 33.93 16.28 34.57 11.52" style="fill:#fff;fill-rule:evenodd"/></g></g></svg>