<svg xmlns="http://www.w3.org/2000/svg" viewBox="0 0 28.23 29.72"><title>Asset 236</title><g id="Layer_2" data-name="Layer 2"><g id="Layer_3" data-name="Layer 3"><path d="M23.83,21.76C25,21.2,28,18.18,28.21,13.34,28.58,5.43,22.91-.38,14.87,0,4.68.62,18,13.75,16.06,8c-1.19-3.63,5.66-2.57,3.69.34l-.15.21c-.45,1.08,4.38.87,4.73.87,0,.3.68,5.43-.46,4.93-.13,0-.17-.12-.29-.14-3.25-2.08-4,3.34-.24,2.49,2.18-.56-.73,3.35.49,5.06Z" style="fill:#00a658;fill-rule:evenodd"/><path d="M6.73,1.72a11.44,11.44,0,0,0-5,6.81c-.25,1.17-.45,3.11.37,4.08s1.51,1.1-1.87,4.63c-.65.67.54,1.36,1.37,1.6s.5.51.32,1.08a3.48,3.48,0,0,0-.34,1.6c.05.29,1.54.24,1.13.27A.84.84,0,0,0,2,22.84c.19.4,1.3,1.27,1.2,2.14h0c-.65,7,8.16-.4,8.59,3.78.19,1.49,7.28,1.35,7-1.14a3.52,3.52,0,0,1,2-3.6c4.64-2.83-3.42-4.32-3.1-3.38,1.18,3.59-4.65,2.48-2.65-.42.06-.09.14-.14.16-.26.28-.65-1.67-.79-3.31-.79-2.53,0-2,.69-2.19-1.93-.1-1.52,0-3.33.67-3a.65.65,0,0,1,.22.17c2.34,1.47,3.1-1,1.83-2.06-2.39-3-7.71-7.67-2.82-12A12.42,12.42,0,0,0,6.73,1.72Z" style="fill:#818181;fill-rule:evenodd"/><path d="M10.36,14.83a3.31,3.31,0,0,0-.11.5,12.59,12.59,0,0,0,0,1.37c.11,2.62-.21,1.9,2.35,1.95a12.74,12.74,0,0,1,1.87.18c.5.08,1.17.28,1.33.82a.88.88,0,0,1,0,.48,1.45,1.45,0,0,1-.24.38,1.14,1.14,0,0,0-.13,1.41,2.23,2.23,0,0,0,.55.38A1.35,1.35,0,0,0,17,22.24c.48-.3.35-1,.19-1.46a1,1,0,0,1,.13-.92,1.66,1.66,0,0,1,1.55-.32,13.46,13.46,0,0,1,1.76.46c.48.18,1,.39,1.52.6l.39.15a15.93,15.93,0,0,0,.63-1.67,11.78,11.78,0,0,0,.34-1.29,2.25,2.25,0,0,0,0-.58h0a2.47,2.47,0,0,1-2.93-1,2.06,2.06,0,0,1,.34-2.43,2.34,2.34,0,0,1,3,0,0,0,0,0,1,0,0c0-.19.09-.44.09-.53a12.41,12.41,0,0,0,0-1.37c0-.64-.09-1.29-.15-2a1.88,1.88,0,0,1-.34,0c-.51,0-1,0-1.57,0a7.86,7.86,0,0,1-1.67-.2c-.48-.09-1.05-.3-1.18-.82a.87.87,0,0,1,0-.55h0V8.29a.27.27,0,0,0,.1-.12l0-.07,0-.07A1,1,0,0,0,19.49,7a1.73,1.73,0,0,0-1.29-.73,1.79,1.79,0,0,0-1.46.29,1.25,1.25,0,0,0-.14,1.29c.19.59.38,1.5-.24,1.92s-1.89-.24-2.5-.67a15,15,0,0,1-2.7-2.64C10.14,5.12,8.81,3,9.4,1.21c-2.92,3.65,1.93,8.21,4.07,10.88a2.14,2.14,0,0,1,.35.57c0,.13,0,.24.08.36a2.11,2.11,0,0,1-.57,1.85,2.38,2.38,0,0,1-3,0Z" style="fill:#0092ca;fill-rule:evenodd"/></g></g></svg>