<svg xmlns="http://www.w3.org/2000/svg" viewBox="0 0 65.9 32.73"><title>Asset 183</title><g id="Layer_2" data-name="Layer 2"><g id="Layer_3" data-name="Layer 3"><path d="M35.75,9.07h0l1.11.08ZM0,32.57c12.33-6.35,31-11.64,43.21-13l.23-.09-.28,2.48c-.24,3.26-.46,3.06,1.24.81l.15-.11.14-.24h0l.14-.09.08-.18h0L45,22l.16-.12h0l.06-.15.17-.11h0l.09-.16.07-.16.08,0,.07-.15.07-.15h0l.17-.12.08-.15h0l.16-.13.06-.16h0l.08-.15.12,0,0-.09.08-.15.11,0,0-.09.07-.15.05-.07h0l.15-.11.06-.17h0l.17-.11,0-.08,0-.08.09-.16.11,0h0l.07-.15,0-.07.13-.05.07-.13.06-.1h0l.14-.11,0-.1,0,0L48.1,18l.2-.19.05-.08,0-.09.11,0,0-.09.05-.08.09,0,.07-.08,0-.07.09-.15h0l.09-.06.09-.15,0-.06h0l.15-.12.06-.09h0l.07-.14,0-.09.09.05.07-.16h0l0-.09.16-.1h0l0-.1.07-.14h0l.11,0,0-.08.05-.07,0-.08,0-.07.09,0,0-.1.07-.15h0l0-.06.12,0h0l0-.08.52-.62,0-.07.05-.08h0l0-.08.11,0h0l0-.09,0-.08h0l0-.08,0-.08.09.05h0l.05-.09,0-.06h0l.06-.09,0-.09h0l.11,0,0-.07h0l0-.09h0l.06-.06,0-.08h0l.12,0h0l0-.08h0l0-.09h0l0-.07h0l.05-.07h0l.12-.05h0l0-.07h0l0-.08h0l.06-.07h0l0-.09h0l0-.07h0l.13-.05h0l0-.07h0l0-.08h0l0-.07-.07,0A91.12,91.12,0,0,0,37.12,5.71c-2.6-1.2-2.55-1.47-.76,1.15l2,3.13-.07,0h0l-.12,0h0l-.12,0h0L38,10l0,.08-.08,0h0l-.12,0h0l-.07,0,0,.07-.07,0h0l-.11,0h0l-.12,0h0l-.1,0h0l0,.1-.08-.05h0l-.11.05h0l-.11,0h0l-.09,0,0,.06-.09,0h0l-.11,0h0l-.12,0h0l-.08,0,0,.08-.08,0h0l-.12,0h0l-.08,0-.23.08h0l-.1,0h0l-.13,0h0l-.08,0h0l-.12,0h0a72.5,72.5,0,0,0-14.86,4c1-.45,1.95-1,2.87-1.46.23-1.06.42-2,.65-2.87A48.21,48.21,0,0,0,24.93.69l8.52,8.69a2.35,2.35,0,0,1,.63-.06L30,5,24.87,0l41,7.73-6.57,2.71-6,2.93-.69.81,13-5.79A41,41,0,0,0,63,17.49c-.68,3.71-1.66,11.14-1.5,13.73L52.88,20.3c-2.87-2.21-3.5-2.91-.54.89L60.65,31.7c-3.79-1.7-10.88-3.77-19.2-5.3l-.28,0-.32-.15C26.26,23.5,13.61,26,.1,32.73Z" style="fill:#e3000a;fill-rule:evenodd"/></g></g></svg>