<svg xmlns="http://www.w3.org/2000/svg" viewBox="0 0 54.02 49.02"><title>Asset 182</title><g id="Layer_2" data-name="Layer 2"><g id="Layer_3" data-name="Layer 3"><path d="M43.57,15.38a1.09,1.09,0,0,0-1.43-.7,1.38,1.38,0,0,0-.83,1.66s2.38,8.65-4.61,6.4c-11.38-3.8-9.59,4.73-9.59,4.73a1.14,1.14,0,0,0,1.41.83,1.39,1.39,0,0,0,.85-1.66s-.72-3.9,6.4-1.53c11.47,3.68,7.8-9.59,7.8-9.73ZM8.28,6.87S1.53,14,16.22,12.78c4.72-.34,10.05-.34,15.15-.59,12.07.12,17.06,2,19.78,12.32,1.28,5.09,1.65,6.76.71-1.18C49.71,5,32.55,10.41,16.22,10.41c29.94-5.21,34.45-6.27,37.54,12s-22.52,32.7-37.2,24.06A16.66,16.66,0,0,1,11.83,42a15,15,0,0,1-2.72-5.67A15,15,0,0,1,8.75,30C5.8,32.8,5.44,38.14,3.18,42.41c-2.13-12.09-8-27.5,5.1-35.54Zm19.3,22a19,19,0,0,1,6,6.27,13.32,13.32,0,0,1,1.54,8.06,14.3,14.3,0,0,1-6.5,3.55,16.6,16.6,0,0,1-5.46.49,17.57,17.57,0,0,1-5.32-1.66c.83-1.43,1.66-2.86,2.47-4.38a1.14,1.14,0,0,1-.46-.24,3.94,3.94,0,0,0,2.84.35h0a3.89,3.89,0,0,0,2.37-1.78,20.55,20.55,0,0,1,1.66-2.72,4.31,4.31,0,0,0,.36-3h0a4,4,0,0,0-1.79-2.37,3.47,3.47,0,0,1,.61.37,25.1,25.1,0,0,0,1.65-3Zm-10.89,16A16,16,0,0,1,12.64,41a16.6,16.6,0,0,1-2.24-5,14.26,14.26,0,0,1-.11-7.37,13.81,13.81,0,0,1,7.82-2.59,18.41,18.41,0,0,1,8.41,2.24c-.59.95-1.2,1.9-1.79,2.85.24.12.36.23.59.35a4,4,0,0,0-2.82-.35,3.31,3.31,0,0,0-2.37,1.78,31.75,31.75,0,0,0-1.67,2.73,3.83,3.83,0,0,0-.47,3,4.34,4.34,0,0,0,1.77,2.25,1.24,1.24,0,0,1-.48-.23c-.94,1.4-1.76,2.82-2.59,4.26ZM25.8,34.23a2.44,2.44,0,0,0-1.19-1.53,2.06,2.06,0,0,0-1.89-.25,2.45,2.45,0,0,0-1.54,1.07c-.47.94-1.05,1.9-1.55,2.85a2.75,2.75,0,0,0-.35,1.9,3.2,3.2,0,0,0,1.19,1.54,2.87,2.87,0,0,0,1.89.24h0a2.49,2.49,0,0,0,1.54-1.2c.61-.83,1.07-1.78,1.66-2.73a2.11,2.11,0,0,0,.24-1.89Z" style="fill:#368cb2;fill-rule:evenodd"/><path d="M10.17,10.29c2.72-1.77,15.76-6,23.93-7.22C42.63,1.77,47.71,5.32,45.34,5,34.57,3.3,20,7.33,10.17,10.29Z" style="fill:#368cb2;fill-rule:evenodd"/><path d="M7.81,8.28C10,6.26,20.34,1.89,27,.59,33-.61,36.58.34,34.8.69c-8.53,1.55-19.19,3.92-27,7.59Z" style="fill:#dd2a1b;fill-rule:evenodd"/></g></g></svg>