<svg xmlns="http://www.w3.org/2000/svg" viewBox="0 0 39.57 29.91"><title>Asset 262</title><g id="Layer_2" data-name="Layer 2"><g id="Layer_3" data-name="Layer 3"><path d="M9.71,6.57A1.41,1.41,0,1,1,8.33,8,1.41,1.41,0,0,1,9.71,6.57ZM36.45,24.43a13.22,13.22,0,0,1-1.31,1.14L35,29.91l-3-1C21.65,24.6-.75,31,3.47,10.58l1.09-1,5.15-5,4.91,4.75c2.17,2.17,1.31,5.55,1.31,8.81a.69.69,0,0,1-.68.73c-4.35,0-2.63-.33-2.63-5.2,0-1.32-1.54-2.4-2.91-2.4-4.69,0-3.55,9.84,5,11.44,5.31,1,12.63.86,17.66,3.2l.11-3.71c6.29-4.35-1-14.42-7.49-8.24A21.52,21.52,0,0,0,22.22,18c-1.49,2.41-3.2,4.52-7,3.15,3.48-4.92,4.91-12.87,13.09-13.33a11.22,11.22,0,0,1,7.71,2.4,9.35,9.35,0,0,1,3.49,6.75A8.67,8.67,0,0,1,38.85,21a10.36,10.36,0,0,1-2.4,3.44Z" style="fill:#368fda;fill-rule:evenodd"/><path d="M16.62,5.15v-1a.92.92,0,1,0-1.83,0c0,.45-.23,0-.51-.29L10.85.46A1.7,1.7,0,0,0,9.71,0,1.55,1.55,0,0,0,8.62.46L.39,8.69a1.34,1.34,0,0,0,0,1.89,1.42,1.42,0,0,0,1.94,0L3.65,9.27,9.71,3.15l6.45,6.46,1,1a1.34,1.34,0,0,0,1.89-1.89L17.82,7.44c-.86-.87-1.2-.69-1.2-2.29Z" style="fill:#368fda;fill-rule:evenodd"/><path d="M23.31,18l9.77-.57a.78.78,0,0,1,.86.68c.06.41-.28.74-.75.8l-9.77.57a.78.78,0,0,1-.86-.69.77.77,0,0,1,.75-.79Zm1.31,2.29,6.58-.4a.78.78,0,0,1,.86.68.86.86,0,0,1-.75.8l-6.57.4a.82.82,0,0,1-.86-.68.81.81,0,0,1,.74-.8Zm1-4.81,6.58-.4a.81.81,0,0,1,.85.69.86.86,0,0,1-.8.8l-6.57.4a.77.77,0,0,1-.8-.75.69.69,0,0,1,.74-.74Z" style="fill:#6b6968;fill-rule:evenodd"/></g></g></svg>