<svg xmlns="http://www.w3.org/2000/svg" viewBox="0 0 109.59 83.03"><title>Asset 224</title><g id="Layer_2" data-name="Layer 2"><g id="Layer_3" data-name="Layer 3"><path d="M29.11,40a24.67,24.67,0,0,0-14.4,8.22l-.08.09-.16.2A24.72,24.72,0,0,0,8.75,64.29q0,.55,0,1.11A27,27,0,0,1,23.49,18.73h0l.15,0a26.29,26.29,0,0,0,5.21-1.52l0,.1a29.86,29.86,0,0,0-2,10.42c0,.2,0,.39,0,.58A29.85,29.85,0,0,0,29.11,40Z" style="fill:#fac714"/><path d="M109.59,43A43,43,0,0,1,82.47,83a29.65,29.65,0,0,0,6.11-8.64A41.15,41.15,0,0,1,48.68,79,38.45,38.45,0,0,1,38.05,72.1l0,0a10.63,10.63,0,0,0,16.75-8.15,5,5,0,0,0,0-.55,5.06,5.06,0,0,0,0-.55,10.48,10.48,0,0,0-1.23-4.44,28.16,28.16,0,0,0,3.45.21A30.28,30.28,0,0,0,67.84,0,43.06,43.06,0,0,1,109.59,43Z" style="fill:#fac714"/><path d="M83.67,28.36A26.6,26.6,0,1,1,57.07,1.77,26.6,26.6,0,0,1,83.67,28.36Z" style="fill:#fac714"/><path d="M34.05,48c-.21-.25-.44-.51-.64-.77a28.59,28.59,0,0,1-2.56-3.73,20,20,0,0,0-5.26,1.36,21.13,21.13,0,0,0-8.07,5.79l-.11.13s7.4,5.63,18.05-1.25C35,49,34.5,48.51,34.05,48Z" style="fill:#fac714"/></g></g></svg>