<svg xmlns="http://www.w3.org/2000/svg" viewBox="0 0 73.81 68.87"><title>Asset 191</title><g id="Layer_2" data-name="Layer 2"><g id="Layer_3" data-name="Layer 3"><path d="M58.5,24.74c1.25,1.47,3.73,2.2,5,.51a4.52,4.52,0,0,0,.6-3.37,6.12,6.12,0,0,0-1.7-3.14c-3.58-3.88-9.51-2.27-13.75-.51-1.47.59-2.94,1.18-4.41,1.68a38.32,38.32,0,0,1,5.06-.66,8.21,8.21,0,0,1,6.81,3,6.43,6.43,0,0,1,1.48,4.17,5.12,5.12,0,0,1-1.71,3.88c-3.59,3.52-9.88-.88-6.94-4.69a2.83,2.83,0,0,1,2.85-1.1,2.34,2.34,0,0,1,1.82,2.65,1.68,1.68,0,0,1-.65,1c-.37.3-.51.09-.16-.15,1.48-1,.24-3.66-2-3.21a2,2,0,0,0-1.62,1.39,3.11,3.11,0,0,0,4.6,3.59c2.58-1.53,2.58-4.69.82-6.8-2.06-2.58-4.91-2.72-7.33-2.67-2.2.09-4.46.53-6.66.83a9.49,9.49,0,0,1-1.39.14.81.81,0,0,0,.43.08c.67.22,1.4.36,2.06.65a8.4,8.4,0,0,1,3.36,2.34c2.2,2.8,1.25,5.06-.8,6.89,4.47-9-11.79-4.83-18.16-10.17-5.56-4.62-8.13-7.7-11.85-9C10,10.61,7.25,11,4,12.59c7.1-5,17.28-1.11,20-7.26a4.53,4.53,0,0,0,.3-2.42,3.17,3.17,0,0,0-1.09-2C21.89.13,20.51,1.15,20,2.4h0a3.07,3.07,0,0,1,1.77-2A1.94,1.94,0,0,1,24,1.24c1.62,2,.67,4.81-1,6.43a9.88,9.88,0,0,1-4.47,2.43,19.86,19.86,0,0,1-2.62.43,1,1,0,0,0-.52.08,9.77,9.77,0,0,1,1.6.37c2.65.64,5.36,1.54,8,2,3,.43,6.52.73,9.37-2.06a6,6,0,0,0,1.76-6A4.71,4.71,0,0,0,32,1.59a4.09,4.09,0,0,0-2.36.74,3.67,3.67,0,0,0-1.38,3.81A2.26,2.26,0,0,0,30,8,2.77,2.77,0,0,0,33,7.38c1.17-1.33.29-3.8-1.53-3.22-.52.15-.67-.15-.07-.3A2,2,0,0,1,33.83,5.7a3,3,0,0,1-2.7,2.92c-3.89.3-5.93-5.78-1-8C36.62-2.36,41.72,6.52,36,12a10.19,10.19,0,0,1-8.79,2.56A32.14,32.14,0,0,1,21.31,13c1.68.88,3.37,1.76,5.05,2.72,4.9,2.85,11.86,5.64,16.84,1.54a7.13,7.13,0,0,0,2.49-3.67,5.33,5.33,0,0,0-.22-4.1C44.16,7.25,41,7.74,39.25,9.28h0a5.28,5.28,0,0,1,4.32-1.75,3.71,3.71,0,0,1,3,3.15c.66,3.14-1.1,6.08-3.59,7.91,5.64-2.12,11.57-5.28,17.07-2.63,3,1.47,5.69,5,4.53,8.41a3.22,3.22,0,0,1-2.78,2.28,4.45,4.45,0,0,1-3.3-1.91ZM63.11,45a3.07,3.07,0,0,0,.66-2.2c-.35-1.46-2.05-1.68-3.21-1.16h0a3.14,3.14,0,0,1,2.55-.23,2.16,2.16,0,0,1,1,2.21c-.23,2.41-2.86,3.8-5.14,3.8A10.53,10.53,0,0,1,54.18,46c-.74-.45-1.4-1-2.12-1.56-.07-.14-.22-.19-.36-.28.29.44.58.88.87,1.39,1.31,2.28,2.56,4.7,4.11,6.89,1.74,2.35,4,5,7.9,5.06,3.3.06,6.22-2.26,5.78-5.71a3.55,3.55,0,0,0-1-2.34,3.67,3.67,0,0,0-5.77.51,2.69,2.69,0,0,0-.07,2.58c1.18,2.47,4.69,1.66,4.46-.54,0-.51.31-.51.31.09a2.45,2.45,0,0,1-.51,1.38,2.74,2.74,0,0,1-3.82.21,3.42,3.42,0,0,1-1-3.58c1.47-5.56,10.17-2.78,9.51,3.22A6.76,6.76,0,0,1,70,57.79a8.12,8.12,0,0,1-5,1.61A10.14,10.14,0,0,1,57,55.08a34.38,34.38,0,0,1-3-5.21c.59,1.82,1.09,3.59,1.6,5.42C57,60.64,59.9,67.39,66.19,68a7.54,7.54,0,0,0,4.24-.72,5.28,5.28,0,0,0,2.71-3c.66-2.5-1.9-4.31-4.1-4.46H69c1.61.07,3.3.43,4.25,1.82a3.66,3.66,0,0,1-.15,4.19c-2.4,3.73-7.69,3.73-11.27,1.89-6.52-3.29-7.84-11.13-10-18.09.07,3.73-1.4,7.55-4.84,9.23a4.39,4.39,0,0,1-5.12-.59c-1.54-1.31-1.76-3.44-1.54-5.35h0c-.22,2.79,1.62,6.15,4.76,5.8a6.43,6.43,0,0,0,4-2.86,9.1,9.1,0,0,0,1.62-5.06,17.09,17.09,0,0,0-10.4-16.7c-2.11-.88-4.24-1.84-6.3-2.87a51.7,51.7,0,0,1,5.87,4.55A12.42,12.42,0,0,1,43.78,46c-1,9.38-13.25,11-15.15,2.79-1.46-6.37,5.78-8.86,8.34-5,.81,1.34.81,3.66-.8,4.69a2.32,2.32,0,0,1-3.52-1c-.28-.65,0-.73.3-.07.8,2.13,3.81,1.17,4.16-1a3.42,3.42,0,0,0-1.45-3.24,3.1,3.1,0,0,0-3.14-.3A4.37,4.37,0,0,0,30,47a4.63,4.63,0,0,0,1,2.78,5.55,5.55,0,0,0,6.14,1.54,6.83,6.83,0,0,0,4.41-6.09c.51-4.68-2.27-7.83-4.9-10.33-2.35-2.2-5.14-4.11-7.7-6.14-.52-.36-1.09-.83-1.61-1.25a1.75,1.75,0,0,1,.29.51,25,25,0,0,1,1.62,2.77c1.68,4.11-.08,9.53-4.7,9.47A2.51,2.51,0,0,1,22,38.66a3.61,3.61,0,0,1,.65-3.09h0c-.8,1.32-.8,3.46.89,4.12a3.79,3.79,0,0,0,2.78-.43,5.52,5.52,0,0,0,2-2.06c2.73-4.93-2-8.27-5.26-14.15a18.45,18.45,0,0,1-.3,8.21c-.43,1.91-.87,3.59-1.17,5.2-1.76,10,8.86,9.31,7.4,5.27A4.33,4.33,0,0,0,27.53,40c2,.81,3,2.85,1,4.26-2.12,1.61-5.2.51-6.81-1.27a10.07,10.07,0,0,1-2.34-4.83A16,16,0,0,1,19,35.3v-.5a15.12,15.12,0,0,0-.52,1.74,82,82,0,0,0-2.41,8.36c-.66,3.15-1,6.79,1.76,10,2.42,2.69,6.44,3.36,8.92.43a4.45,4.45,0,0,0,.38-5.13c-1.46-2.11-5.06-2.56-6.08.23a2.91,2.91,0,0,0,.58,3.07,2.27,2.27,0,0,0,3.16.07c1.23-1.38-.38-3.14-1.4-2.34a.82.82,0,0,0-.07,1.17c.59.58-1.1-.15-.37-1.24A1.4,1.4,0,0,1,24.75,51c1.53,1,.58,3.36-1.32,3.52a3.21,3.21,0,0,1-3-3c-.14-4.1,6.36-6,8.57-.73A6.23,6.23,0,0,1,27,58a7.09,7.09,0,0,1-5.36,1.39,9.52,9.52,0,0,1-5.05-2.86,10.73,10.73,0,0,1-2.34-9.39,39.53,39.53,0,0,1,1.83-6.29c-.94,1.83-2,3.57-3.07,5.27-3.15,5.14-6.45,12.31-2.28,17.81A8.47,8.47,0,0,0,14.5,66.8a5.66,5.66,0,0,0,4.39-.08c3.22-1.85.52-6.59.52-6.59,2.48,2.86,2.48,6.95-1.76,7.69-4.76.81-8.71-3.37-9.89-7.62-2.48-8.42,5.06-15.07,3.15-17.28C8.43,39.92.07,45,2.64,38.52c.58-1.54-1.31-1.69-1.69-3H1a1.36,1.36,0,0,1,1.32-1.45c.37,0-.37,0-.94-.29s-1.1-1-.29-1.56c1.09-.77,1.45-1.59.13-2.32S-.59,28.77,1,27.17c6.3-6.84-.28-4.69,2.49-10.7.23-.37.44-.73.67-1.09.07-.09.21-.09.57,0,12.16,3.07,14,13.33,9.76,23.94,3.21-5.42,5.63-10.91,2.61-16.63-.43-.52-.87-1.09-1.38-1.6a12.13,12.13,0,0,1,.81,12.45v.06c1.68-5.86.07-13.4-8.2-17.44a18.46,18.46,0,0,0-2.79-.87,3.91,3.91,0,0,1-1-.29c-3.37-3.87,7.31-5,14.05.44C35.66,29.51,28,26.06,44.37,31.5,53.44,34.57,56.82,48.63,63.11,45Z" style="fill:#bc275c;fill-rule:evenodd"/></g></g></svg>