<svg xmlns="http://www.w3.org/2000/svg" viewBox="0 0 60.09 61.52"><title>Asset 194</title><g id="Layer_2" data-name="Layer 2"><g id="Layer_3" data-name="Layer 3"><path d="M25.45,25.08A28,28,0,0,0,21,36.88c-1.62,9.54,1.64,18.74,7.39,24.34a11.4,11.4,0,0,1-2.21-10A29.18,29.18,0,0,0,38.64,49C48.81,45.2,55.78,36.71,56.43,27.66c-.73,4.57-3.19,8.18-8.15,9.72a29.56,29.56,0,0,0-8-9.62C32.5,21,22.09,19.51,14.22,22.45c3.64-1.16,7.76-.16,11.23,2.63Z" style="fill:#808384;fill-rule:evenodd"/><path d="M10.43,41c2.35,3.79,5.78,7.12,9.28,10.49-.79-3-2-6.43-2.06-9.47A39.21,39.21,0,0,1,18.9,25.25l-.4-.39C7.61,32.28,1,43,0,54.05A16.8,16.8,0,0,1,10.43,41Z" style="fill:#e89818;fill-rule:evenodd"/><path d="M30.11,57.68c10.35,4.76,21.34,4.94,30,1.39-4.87,1.23-9.84.18-14.85-3.17a26.48,26.48,0,0,0,4-8.82A27.68,27.68,0,0,1,44,51a33.38,33.38,0,0,1-13.89,6.66Z" style="fill:#7aae25;fill-rule:evenodd"/><path d="M50.87,30.47c-1-13.66-8-24.95-17.62-30.47,5.39,3.71,8.87,9.33,8.31,17a44.24,44.24,0,0,0-13.65,2.51c3.78.71,7.6,1.4,11.07,3.22a40.21,40.21,0,0,1,11.89,7.79Z" style="fill:#3976cf;fill-rule:evenodd"/></g></g></svg>