<svg xmlns="http://www.w3.org/2000/svg" viewBox="0 0 133.36 84.5"><title>Asset 225</title><g id="Layer_2" data-name="Layer 2"><g id="Layer_3" data-name="Layer 3"><path d="M41.5,30.64c0,.23-.29,2.2-.74,5A31.51,31.51,0,0,1,41.5,30.64Z" style="fill:#1690cf"/><path d="M18.2,39.27a7.08,7.08,0,0,1-.88.53" style="fill:#1690cf"/><path d="M12.7,25.91a3.73,3.73,0,0,0,.18-4.13,9.55,9.55,0,0,1,9.56,9.56v.09a9.56,9.56,0,0,1-4.21,7.83h0c-.3.17-.59.34-.88.53,0,0,0,0,0,0a12.07,12.07,0,0,0-3.43,3.4,54.67,54.67,0,0,1,.66-9.57,4.33,4.33,0,0,0,1.38-5.23,1.14,1.14,0,0,0-.1-.19A4.28,4.28,0,0,0,12.7,25.91Z" style="fill:#1690cf"/><path d="M58.83,70.81a41.6,41.6,0,0,0-6,3.09l-.67.43a30.27,30.27,0,0,1-3.93,2.11.09.09,0,0,0-.06,0,55.17,55.17,0,0,1-21.26,5.36,0,0,0,0,1,0,0l-.89,0H25A25.31,25.31,0,0,1,7.13,39a24.89,24.89,0,0,1,2.28-2.07c-.78,8.44-.08,20,8.59,23.87a12.3,12.3,0,0,0,16.47-4.18,22.22,22.22,0,0,0,3.19-7A36,36,0,0,0,58.83,70.81Z" style="fill:#1690cf"/><path d="M78.49,6a36.46,36.46,0,0,0-9.6,22c-.07,1-.17,2.12-.27,3.32-.71,8-1.77,20.16-.48,33.29a26.3,26.3,0,0,1,.14,3.64A31.25,31.25,0,0,1,40.15,39.05h0a45.28,45.28,0,0,1,1-8.58,30.2,30.2,0,0,1,4-9.12,31.8,31.8,0,0,1,27-15c.44,0,.89,0,1.35,0h.05A34.38,34.38,0,0,0,78.49,6Z" style="fill:#1690cf"/><path d="M73.31,84.5c-2.5,0-5.15-.56-5.15-.79a26.25,26.25,0,0,0,3.18-6.15,34,34,0,0,0,1.42-13.42,203.75,203.75,0,0,1,.47-32.41c.11-1.21.21-2.33.29-3.36A31.09,31.09,0,0,1,90.21,2.89,35.05,35.05,0,0,1,102.76,0a30.63,30.63,0,0,1,30.3,26.2.5.5,0,0,1,0,.11s0,.07,0,.12a.37.37,0,0,1,0,.11l0,.2c0,.1,0,.2,0,.31s0,.27,0,.43c0,.42.09.95.13,1.56C133.71,34.93,130.14,84.5,73.31,84.5Z" style="fill:#1690cf"/><path d="M26,81.87h0Z" style="fill:#1690cf"/><path d="M15.81,28.23s-.06.05-.08.08" style="fill:#1690cf"/><path d="M40.76,35.61c0,.26-.09.54-.14.82" style="fill:#1690cf"/><path d="M24.05,81.88c.31,0,.63,0,.93,0" style="fill:#1690cf"/></g></g></svg>