<svg xmlns="http://www.w3.org/2000/svg" xmlns:xlink="http://www.w3.org/1999/xlink" viewBox="0 0 82 88.41"><defs><linearGradient id="linear-gradient" x1="-1181.42" y1="-6290.06" x2="-1297.24" y2="-6290.06" gradientTransform="translate(-6249.06 1260.5) rotate(90)" gradientUnits="userSpaceOnUse"><stop offset="0" stop-color="#f0f"/><stop offset="1" stop-color="#00dcdf"/></linearGradient><linearGradient id="linear-gradient-2" x1="-1179.18" y1="-6290.06" x2="-1267.15" y2="-6290.06" xlink:href="#linear-gradient"/><linearGradient id="linear-gradient-3" x1="-8268.04" y1="-2804.91" x2="-8356.01" y2="-2804.91" gradientTransform="translate(-5759.07 -6531.5) rotate(-150)" xlink:href="#linear-gradient"/><linearGradient id="linear-gradient-4" x1="-1705.52" y1="1592.15" x2="-1793.49" y2="1592.15" gradientTransform="translate(743.79 -2211.83) rotate(-30)" xlink:href="#linear-gradient"/></defs><title>Asset 271</title><g style="isolation:isolate"><g id="Layer_2" data-name="Layer 2"><g id="Layer_3" data-name="Layer 3"><path d="M71.76,26.46l-41-23.68A20.48,20.48,0,0,0,0,20.52V67.89A20.48,20.48,0,0,0,30.73,85.63L71.76,62A20.5,20.5,0,0,0,71.76,26.46Z" style="fill:url(#linear-gradient)"/><path d="M30.73,85.63,71.76,62a20.5,20.5,0,0,0,0-35.49l-9-5.2a20.41,20.41,0,0,1-2.66,7L35.47,68.69A20.48,20.48,0,0,1,0,67.89,20.48,20.48,0,0,0,30.73,85.63Z" style="mix-blend-mode:multiply;fill:url(#linear-gradient-2)"/><path d="M0,20.52V67.89A20.48,20.48,0,0,0,30.73,85.63l9-5.2a20.62,20.62,0,0,1-4.68-5.78L12.3,33.1A20.48,20.48,0,0,1,30.73,2.78,20.48,20.48,0,0,0,0,20.52Z" style="mix-blend-mode:multiply;fill:url(#linear-gradient-3)"/><path d="M71.76,26.46l-41-23.68A20.48,20.48,0,0,0,0,20.52v10.4a20.54,20.54,0,0,1,7.35-1.16l47.36,1.06A20.49,20.49,0,0,1,71.76,62,20.5,20.5,0,0,0,71.76,26.46Z" style="mix-blend-mode:multiply;fill:url(#linear-gradient-4)"/></g></g></g></svg>