<svg xmlns="http://www.w3.org/2000/svg" xmlns:xlink="http://www.w3.org/1999/xlink" viewBox="0 0 80.19 80.17"><defs><linearGradient id="linear-gradient" x1="211.2" y1="-338.8" x2="291.34" y2="-338.8" gradientTransform="translate(-242.81 352.94) rotate(5.56)" gradientUnits="userSpaceOnUse"><stop offset="0" stop-color="#ff027c"/><stop offset="1" stop-color="#ff6a00"/></linearGradient><linearGradient id="linear-gradient-2" x1="211.2" y1="-338.44" x2="290.63" y2="-338.44" xlink:href="#linear-gradient"/><linearGradient id="linear-gradient-3" x1="211.2" y1="-338.8" x2="291.34" y2="-338.8" xlink:href="#linear-gradient"/><linearGradient id="linear-gradient-4" x1="-7533.15" y1="139.11" x2="-7453" y2="139.11" gradientTransform="translate(-3186.42 -6724.07) rotate(-114.44)" xlink:href="#linear-gradient"/><linearGradient id="linear-gradient-5" x1="-4074.99" y1="-6807.29" x2="-3994.84" y2="-6807.29" gradientTransform="matrix(-0.58, 0.81, -0.81, -0.58, -7844.33, -636.63)" xlink:href="#linear-gradient"/><radialGradient id="radial-gradient" cx="40.17" cy="38.21" r="10.51" gradientUnits="userSpaceOnUse"><stop offset="0" stop-color="#003980"/><stop offset="1" stop-color="#00295e"/></radialGradient></defs><title>Asset 274</title><g style="isolation:isolate"><g id="Layer_2" data-name="Layer 2"><g id="Layer_3" data-name="Layer 3"><circle cx="40.11" cy="40.08" r="40.07" style="fill:url(#linear-gradient)"/><circle cx="39.72" cy="40.4" r="39.72" style="fill:url(#linear-gradient-2)"/><path d="M44,.2A40.07,40.07,0,0,0,1.16,49.52,26.1,26.1,0,0,1,1.25,46,24.85,24.85,0,1,1,13,69.64,40.08,40.08,0,1,0,44,.2Z" style="opacity:0.6000000000000001;mix-blend-mode:screen;fill:url(#linear-gradient-3)"/><path d="M3.63,56.66A40.06,40.06,0,0,0,67.75,69.1a26.33,26.33,0,0,1-3.1,1.69,24.86,24.86,0,1,1,14.59-22A40.07,40.07,0,1,0,3.63,56.66Z" style="opacity:0.6000000000000001;mix-blend-mode:screen;fill:url(#linear-gradient-4)"/><path d="M72.71,63.39A40.06,40.06,0,0,0,51.42,1.64a23.56,23.56,0,0,1,3,1.84A24.87,24.87,0,1,1,28.05,1.87,40.07,40.07,0,1,0,72.71,63.39Z" style="opacity:0.6000000000000001;mix-blend-mode:screen;fill:url(#linear-gradient-5)"/><path d="M40,27.81A24.91,24.91,0,0,0,29.54,46.32a24.92,24.92,0,0,0,21.25-.2A24.94,24.94,0,0,0,40,27.81Z" style="fill:url(#radial-gradient)"/><path d="M44.06,25.48A24.88,24.88,0,0,0,29.73,51.65a24.88,24.88,0,0,1,49.51-2.9A24.9,24.9,0,0,0,44.06,25.48Z" style="opacity:0.2;mix-blend-mode:multiply"/><path d="M25.57,43.73a24.87,24.87,0,0,0,29.83-.67A24.87,24.87,0,0,1,21.13,10.29a24.68,24.68,0,0,1,7-8.65A24.62,24.62,0,0,0,19.8,9,24.88,24.88,0,0,0,25.57,43.73Z" style="opacity:0.2;mix-blend-mode:multiply"/><path d="M50.67,50.9A24.88,24.88,0,0,0,35.18,25.4,24.88,24.88,0,0,1,12.94,69.73,24.88,24.88,0,0,0,50.67,50.9Z" style="opacity:0.2;mix-blend-mode:multiply"/></g></g></g></svg>