<svg xmlns="http://www.w3.org/2000/svg" viewBox="0 0 102.15 107.47"><title>Asset 232</title><g id="Layer_2" data-name="Layer 2"><g id="Layer_3" data-name="Layer 3"><path d="M24.14,84.32c-9.32,2.89-13.69,6-16-1C8.07,83.13,8,83,8,82.83A93.67,93.67,0,0,0,24.14,84.32Z" style="fill:#ffc53b"/><path d="M42.84,20.05l0,0h0Z" style="fill:#fff"/><path d="M60.44,107.43h0" style="fill:none"/><path d="M102.15,67.55c0,.69,0,1.38-.05,2.06v0a39.91,39.91,0,0,1-39.86,37.84c-.6,0-1.21,0-1.8,0,3-2.58,4.83-7.49,5.89-11.15a.65.65,0,0,0,0-.13c0-.07,0-.13.06-.18s0-.15.06-.21q.26-.7.42-1.35c.56-.53,1.12-1.09,1.67-1.67a59.1,59.1,0,0,0,13.91-58c-.35-1.16-1.31-3.75-1.8-5v-.37l-.23-.25a60.68,60.68,0,0,0-2.81-5.79c.92.74,1.91,1.58,2.9,2.47l.73.66a0,0,0,0,0,0,0c2.88,2.63,5.65,5.45,6.66,6.49a60.61,60.61,0,0,1,9.84,16.48h0A39.7,39.7,0,0,1,102.15,67.55Z" style="fill:#ffc53b"/><path d="M66.49,95.76q.26-.7.42-1.35a1.06,1.06,0,0,0,0-.19C66.87,94.47,66.64,95.27,66.49,95.76Z" style="fill:none"/><path d="M42.82,20.06h0l0,0Zm0,0h0l0,0Z" style="fill:#fff"/><path d="M81.84,51.88A55.56,55.56,0,0,1,67.74,89c-.47.53-1,1-1.45,1.57A55.77,55.77,0,0,1,54.37,100c2.52-5.77,1.15-14.5,1.15-14.5C54.77,89.41,47.35,92,47.35,92c1.51-3.66,1-7.66-.57-11.83l1.51-.61v0c14.83-6.6,29.55-22.66,32.63-37.84A55.09,55.09,0,0,1,81.84,51.88Z" style="fill:#ffc53b"/><path d="M42.84,20.05l0,0h0Z" style="fill:#fff"/><path d="M33.61,80.49l.26,1.57-.36-1.55-1.18.17-1.54.17-1.06.1L28.45,81l-1.51.08h-.12l-1.5,0h-.19c-7,0-15.79-.76-19.91-2.38l-.5-.29h0C-.54,75.32-1,71.68,1.43,70.4h0c.35-.11.69-.23,1-.36A44.79,44.79,0,0,0,22.38,56.15s.25-.3.67-.84c.09-.13.22-.29.35-.45s.14-.17.2-.26.14-.18.21-.28c1.31-1.75,3.36-4.55,5.29-7.68,0,.15,0,.3,0,.45s0,.54,0,.82c0,.43.06.87.09,1.31v0c0,.25.05.5.09.76s.05.45.09.69,0,.29.06.44.05.3.07.44.08.48.13.71.05.2.06.29.09.43.14.63c0,0,0,0,0,0s0,.17.05.24l0,.11c.05.16.08.33.14.49a1.29,1.29,0,0,0,0,.19c.06.18.11.36.17.55s.2.65.31,1,.19.53.3.8.21.53.33.8.17.4.26.59.23.49.35.74.32.62.5.93.38.65.59,1,.41.64.62.94c.52.76,1,1.5,1.58,2.25L37,66.53c.32.45.63.91.93,1.35.63.91,1.24,1.81,1.83,2.71S41,72.4,41.5,73.3a2.68,2.68,0,0,1,.18.28l.62,1.06a.83.83,0,0,1,.09.16c.15.23.28.48.41.71l.53,1c.24.44.47.88.69,1.33a55.77,55.77,0,0,1-10.21,2.66h-.2Z" style="fill:#ffc53b"/><path d="M81.27,22.15c-1.13-1-2.22-1.85-3.19-2.54A79.71,79.71,0,0,0,68.3,13.9L68,13.76l-.25-.12c-.34-.18-.67-.33-1-.48l-.15-.06-.06,0c-.36-.15-.74-.29-1.11-.42s-.54-.2-.82-.28h0a4.56,4.56,0,0,0-.6-.18,16.31,16.31,0,0,0-1.67-.42c-.28-.06-.56-.12-.85-.16l-.3-.06-1-.13-.28,0c4-1.7,7.52-3.38,8.72-4.62l0,0h0A65,65,0,0,0,76.5,1c1.28-1.08,5.92-3,4.74,4.71C81.24,5.73,80,15.26,81.27,22.15Z" style="fill:#ffc53b"/><path d="M34,35.92a18.39,18.39,0,0,1-.87,2.82c.22-.9.43-1.56.55-2h0a.76.76,0,0,1,0-.11h0C33.85,36.41,33.94,36.17,34,35.92Z" style="fill:#fff"/><path d="M42.84,20.05l0,0h0Z" style="fill:#fff"/><path d="M81.27,26.4a0,0,0,0,0,0,0c2.88,2.63,5.65,5.45,6.66,6.49L87,31.82,87,31.73q-1.77-2.27-3.52-4.19h0a7.15,7.15,0,0,1-.75-1.13,5.81,5.81,0,0,1-.37-.75,16,16,0,0,1-1-3.5c-1.13-1-2.22-1.85-3.19-2.54A79.71,79.71,0,0,0,68.3,13.9L68,13.76l-.25-.12c-.34-.18-.67-.33-1-.48l-.15-.06-.06,0c-.36-.15-.74-.29-1.11-.42s-.54-.2-.82-.28h0a5.94,5.94,0,0,0-.6-.18,16.31,16.31,0,0,0-1.67-.42c-.28-.06-.56-.12-.85-.16l-.3-.06-1-.13-.28,0h0C54.48,13.7,48.39,16,46.78,17.26a16.33,16.33,0,0,1,1.76-.92,3.55,3.55,0,0,1,.42-.19,18.55,18.55,0,0,1,1.74-.67,2,2,0,0,1,.35-.11l.12,0,.24-.07.33-.09h0c.32-.09.65-.17,1-.23l.12,0h0c.18,0,.59-.08,1.21-.22h.12a7.29,7.29,0,0,1,1-.13l.61,0h.11l.79,0h.61c.35,0,.7,0,1,0a7.57,7.57,0,0,1,.95.06l1.12.13c.34.06.68.11,1,.19.62.12,1.24.28,1.85.46.17,0,.34.1.52.16l.5.17,1.06.41.31.16h0a11.26,11.26,0,0,1,1,.51,20.8,20.8,0,0,1,5.5,4.06l.36.38.14.22.15.23a56.81,56.81,0,0,1,4.68,8.89c.1.43.19.88.25,1.3h0a18.52,18.52,0,0,1,.44,3.51s0,0,0,0A30.18,30.18,0,0,1,75.1,48.93C71.32,57,64.59,64.9,57,70.65h0a52.31,52.31,0,0,1-10,6c-.09-.19-.19-.38-.29-.57-.16-.34-.33-.66-.51-1l-.55-1c-.32-.57-.65-1.15-1-1.73l-.71-1.18L43.84,71c-.18-.27-.34-.53-.51-.81s-.4-.6-.59-.91c-.3-.47-.6-.92-.91-1.37s-.61-.92-.93-1.37l-.83-1.23c-.35-.51-.71-1-1.06-1.51L37.74,62l-1.58-2.23C32.24,54.16,32,47.58,32.45,43.05a36.18,36.18,0,0,1,.72-4.31,47.37,47.37,0,0,1-4.07,7.89h0c0,.15,0,.3,0,.45s0,.54,0,.82c0,.43.06.87.09,1.31v0c0,.25.05.5.09.76s.05.45.09.69,0,.29.06.44.05.3.07.44.08.48.13.71.05.2.06.29.09.43.14.63c0,0,0,0,0,0s0,.17.05.24l0,.11c.05.16.08.33.14.49a1.29,1.29,0,0,0,0,.19c.06.18.11.36.17.55s.2.65.31,1,.19.53.3.8.21.53.33.8.17.4.26.59.23.49.35.74.32.62.5.93.38.65.59,1,.41.64.62.94c.52.76,1,1.5,1.58,2.25L37,66.53c.32.45.63.91.93,1.35.63.91,1.24,1.81,1.83,2.71S41,72.4,41.5,73.3a2.68,2.68,0,0,1,.18.28l.62,1.06a.83.83,0,0,1,.09.16c.15.23.28.48.41.71l.53,1c.24.44.47.88.69,1.33a55.77,55.77,0,0,1-10.21,2.66h-.2l-.1,0-1.18.17-1.54.17-1.06.1L28.45,81l-1.51.08h-.12l-1.5,0h-.19c-7,0-15.79-.76-19.91-2.38A22.14,22.14,0,0,0,7.75,80c-.76-.24-1.51-.49-2.24-.77A11.62,11.62,0,0,1,8,82.83a93.67,93.67,0,0,0,16.19,1.49l1.64-.5h0a60.23,60.23,0,0,1,8-1.74l.13,0H34a56.38,56.38,0,0,0,10.71-2.8c.49-.18,1-.37,1.48-.57.21.49.41,1,.59,1.46a0,0,0,0,0,0,0l1.51-.61v0c14.83-6.6,29.55-22.66,32.63-37.84a55.09,55.09,0,0,1,.93,10.21A55.56,55.56,0,0,1,67.74,89a15.18,15.18,0,0,1-.2,2.57A22.56,22.56,0,0,1,67,94.22a1.06,1.06,0,0,1,0,.19c.56-.53,1.12-1.09,1.67-1.67a59.1,59.1,0,0,0,13.91-58c-.35-1.16-1.31-3.75-1.8-5v-.37l-.23-.25a60.68,60.68,0,0,0-2.81-5.79c.92.74,1.91,1.58,2.9,2.47Z" style="fill:#272262"/><path d="M78.31,35.28s0,0,0,0A30.18,30.18,0,0,1,75.1,48.93C71.32,57,64.59,64.9,57,70.65h0a52.31,52.31,0,0,1-10,6c-.09-.19-.19-.38-.29-.57-.16-.34-.33-.66-.51-1l-.55-1c-.32-.57-.65-1.15-1-1.73l-.71-1.18L43.84,71l-.51-.81c-.19-.31-.4-.6-.59-.91-.3-.47-.6-.92-.91-1.37s-.61-.92-.93-1.37l-.83-1.23c-.35-.51-.71-1-1.06-1.51L37.74,62l-1.58-2.23C32.24,54.16,32,47.58,32.45,43.05a36.18,36.18,0,0,1,.72-4.31A18.39,18.39,0,0,0,34,35.92v0q.43-1.12.87-2.19A65.55,65.55,0,0,1,38.6,26l.33-.6s0,0,0,0c.25-.43.49-.84.77-1.27l.18-.3.18-.26.08-.12s0,0,0,0l.24-.34A21.61,21.61,0,0,1,44.28,19l.29-.22c.32-.25.66-.49,1.06-.77h0l.25-.17a.53.53,0,0,1,.1-.06c.26-.18.52-.34.78-.49a16.33,16.33,0,0,1,1.76-.92,3.55,3.55,0,0,1,.42-.19,18.55,18.55,0,0,1,1.74-.67,2,2,0,0,1,.35-.11l.12,0,.24-.07.33-.09h0c.32-.09.65-.17,1-.23l.12,0h0c.18,0,.59-.08,1.21-.22h.12a7.29,7.29,0,0,1,1-.13l.61,0h.11l.79,0h.61c.35,0,.7,0,1,0s.64,0,.95.06l1.12.13c.34.06.68.11,1,.19.62.12,1.24.28,1.85.46.17,0,.34.1.52.16l.5.17,1.06.41.31.16h0a11.26,11.26,0,0,1,1,.51,20.8,20.8,0,0,1,5.5,4.06l.36.38.14.22.15.23a56.81,56.81,0,0,1,4.68,8.89c.1.43.19.88.25,1.3h0A18.52,18.52,0,0,1,78.31,35.28Z" style="fill:#ffc53b"/><path d="M42.82,20.06h0l0,0Z" style="fill:none"/><path d="M33.76,36.66c.09-.25.18-.49.28-.74a18.39,18.39,0,0,1-.87,2.82c.22-.9.43-1.56.55-2h0a.76.76,0,0,1,0-.11Z" style="fill:#fff"/><path d="M42.82,20.06h0l0,0Z" style="fill:#fff"/></g></g></svg>