<svg xmlns="http://www.w3.org/2000/svg" xmlns:xlink="http://www.w3.org/1999/xlink" viewBox="0 0 36.05 34.81"><defs><linearGradient id="linear-gradient" x1="-4246.16" y1="-614.21" x2="-4234.42" y2="-614.21" gradientTransform="translate(-1965.57 -3778.25) rotate(-125.71)" gradientUnits="userSpaceOnUse"><stop offset="0" stop-color="#fa75e7"/><stop offset="1" stop-color="#e142bc"/></linearGradient><linearGradient id="linear-gradient-2" x1="-4256.66" y1="-612.96" x2="-4241.32" y2="-612.96" gradientTransform="translate(-1965.57 -3778.25) rotate(-125.71)" gradientUnits="userSpaceOnUse"><stop offset="0" stop-color="#7e7e7e"/><stop offset="1" stop-color="#383838"/></linearGradient><linearGradient id="linear-gradient-3" x1="-4257.45" y1="-604.83" x2="-4251.41" y2="-604.83" gradientTransform="translate(-1965.57 -3778.25) rotate(-125.71)" gradientUnits="userSpaceOnUse"><stop offset="0" stop-color="#9735c6"/><stop offset="1" stop-color="#55006f"/></linearGradient><linearGradient id="linear-gradient-4" x1="-4255.54" y1="-594.64" x2="-4241.35" y2="-594.64" gradientTransform="translate(-1965.57 -3778.25) rotate(-125.71)" gradientUnits="userSpaceOnUse"><stop offset="0" stop-color="#c63b35"/><stop offset="1" stop-color="#6f0e00"/></linearGradient><linearGradient id="linear-gradient-5" x1="-4248.54" y1="-593.16" x2="-4226.15" y2="-593.16" gradientTransform="translate(-1965.57 -3778.25) rotate(-125.71)" gradientUnits="userSpaceOnUse"><stop offset="0" stop-color="#6bc635"/><stop offset="1" stop-color="#206f00"/></linearGradient><linearGradient id="linear-gradient-6" x1="-4234.16" y1="-602.39" x2="-4220.29" y2="-602.39" gradientTransform="translate(-1965.57 -3778.25) rotate(-125.71)" gradientUnits="userSpaceOnUse"><stop offset="0" stop-color="#3588c6"/><stop offset="1" stop-color="#00366f"/></linearGradient></defs><title>Asset 244</title><g id="Layer_2" data-name="Layer 2"><g id="Layer_3" data-name="Layer 3"><path d="M10.63,30.7A10.75,10.75,0,0,1,10.91,16a11.17,11.17,0,0,0,2.84,12.31A8.12,8.12,0,0,1,9.53,22.3a11,11,0,0,0,1.1,8.4Z" style="fill:url(#linear-gradient)"/><path d="M23,34.72c-6.28.72-12.2-3.14-13.4-9.26a12.44,12.44,0,0,0,13.12,4.95,9,9,0,0,1-8.18.18A12.16,12.16,0,0,0,23,34.72Z" style="fill:url(#linear-gradient-2)"/><path d="M34.51,25.31c-3.06,6.3-10.18,9.51-16.61,7A13.81,13.81,0,0,0,30.35,23a10,10,0,0,1-4.73,7.72,13.18,13.18,0,0,0,8.89-5.4Z" style="fill:url(#linear-gradient-3)"/><path d="M34.37,9.16c3.5,7.12,1.43,15.72-5.28,19.76a15.64,15.64,0,0,0,.29-17.62A11.31,11.31,0,0,1,33,20.91,15.38,15.38,0,0,0,34.37,9.16Z" style="fill:url(#linear-gradient-4)"/><path d="M19.06,0c8.66,1.11,15.32,8.26,14.88,16.87a17.23,17.23,0,0,0-16-11c4-.81,7.9-.2,11,2.51A16.61,16.61,0,0,0,19.06,0Z" style="fill:url(#linear-gradient-5)"/><path d="M0,6.82c7-7,18.13-8.08,25.62-1.67A19.59,19.59,0,0,0,4.55,11.91c2-4.2,5.3-7.27,9.94-8.24A19.2,19.2,0,0,0,0,6.82Z" style="fill:url(#linear-gradient-6)"/></g></g></svg>