<svg xmlns="http://www.w3.org/2000/svg" viewBox="0 0 32.47 35.58"><title>Asset 261</title><g id="Layer_2" data-name="Layer 2"><g id="Layer_3" data-name="Layer 3"><path d="M9.86,3.32S15.14,5.7,11.49,9.1c-2.25,2.13-5.08,5.12-5.57,6.8-.81,2.54,5.21,1.11,7,.78h-.5c-2.49-.08-5.07.57-2.28-2.58C13.5,10.21,17,6.31,9.86,3.32ZM27.31,17.83l.49.16c9.7,3.93,2,8.16-2.75,9.76a19.49,19.49,0,0,0,1.52-1.81c2.82-1.22,4.87-3,1.76-5.53a3.21,3.21,0,0,0-1-2.58ZM1.17,0C13.87,6.56-1.12,11.89.07,18.69a50.81,50.81,0,0,0,2.46,8.89A6,6,0,0,1,.6,26.31a7.73,7.73,0,0,0,2.5,2.14,9.75,9.75,0,0,0,2.58,1c.33.08.62.12.82.16l.69.13c3.57.56,7.87.44,10.94,1.88l.12-2.79C23,25.54,17.48,18,12.6,22.62a14.76,14.76,0,0,0-2.09,3.07C9.41,27.5,8.14,29.06,5.27,28,7.89,24.34,9,18.36,15.14,18c4.92-.28,10.11,4.14,8,9.22a7.78,7.78,0,0,1-1.84,2.67c-.34.33-.95.69-1.32,1l.13,3.32-2.34-.82c-6.64-2.3-13.47,0-15.6-3.36A3.62,3.62,0,0,0,4.7,32.29c2.86,4.39,7.82,3.86,12.37,1.48,1.18.33,2.37.82,3.52,1.27l0-3.53a5.21,5.21,0,0,0,.9-.77,19.25,19.25,0,0,0,4.7-5.66c1.61-3.24,2.26-5.45.5-7.09s-13.72.17-17.28-.08S2.24,19,5.11,13.65C9.16,6,12.39,5.33,1.17,0ZM11.33,25.74l7.41-.45a.55.55,0,1,1,0,1.1l-7.37.46a.59.59,0,0,1-.61-.54.52.52,0,0,1,.53-.57Zm1,1.72,5-.29a.54.54,0,0,1,.62.5.62.62,0,0,1-.58.61l-4.91.28a.67.67,0,0,1-.66-.53.59.59,0,0,1,.57-.57Zm.74-3.65,5-.29a.62.62,0,0,1,.65.53.58.58,0,0,1-.57.58l-4.95.29a.53.53,0,0,1-.62-.49.57.57,0,0,1,.53-.62Z" style="fill:#824b30;fill-rule:evenodd"/></g></g></svg>