<svg xmlns="http://www.w3.org/2000/svg" viewBox="0 0 40.33 33.25"><title>Asset 254</title><g id="Layer_2" data-name="Layer 2"><g id="Layer_3" data-name="Layer 3"><path d="M25.37,15,20.1,6.51,15,14.6l3.12-3.53,2,3.93,2-3.93ZM25.61.32A11.84,11.84,0,0,1,39.94,9.13,10.71,10.71,0,0,1,38.48,18c-.2.19-.55.63-1.09,1.19l-1,.9c-11.1,10.64-9.11,9.13-9.11-4.32L20.14,4.05l-5.77,9.12-1.66,2.58c0,12.5-2,15.83-10.88,2.23C-3.73,9.29,4.19-2.06,14.74.32a13.54,13.54,0,0,1,5.32,3l0,0a12.94,12.94,0,0,1,5.6-3Zm-2.74,17.3a1.88,1.88,0,0,1,1.82-2,2,2,0,0,1,1.94,2c0,13.33-3.76,22.45-3.76,0Zm-4.67,0a1.92,1.92,0,1,1,3.84,0c0,1.58,1.47,16-1.94,15.62s-1.9-13.12-1.9-15.62Zm-4.62,0a1.91,1.91,0,1,1,3.81,0c0,18.44-3.81,16.65-3.81,0Z" style="fill:#ff4749;fill-rule:evenodd"/></g></g></svg>