<svg xmlns="http://www.w3.org/2000/svg" viewBox="0 0 35.4 30.17"><title>Asset 245</title><g id="Layer_2" data-name="Layer 2"><g id="Layer_3" data-name="Layer 3"><path d="M8.23,9.86A9.59,9.59,0,0,1,10.8,3a9.43,9.43,0,0,1,6.59-3,9.33,9.33,0,0,1,6.74,2.61,9.51,9.51,0,0,1,2.95,6.68,8.17,8.17,0,0,1-.38,3.13,4.32,4.32,0,0,0-1,.78,4.43,4.43,0,0,0-.92,1.5l-1.49-1.37a6.61,6.61,0,0,0,1-3.95,6.84,6.84,0,0,0-2.08-4.7A6.58,6.58,0,0,0,12.85,5a6.63,6.63,0,0,0-1.8,4.8,7,7,0,0,0,1,3.5L10.29,14a4.65,4.65,0,0,0-.82-1,4.44,4.44,0,0,0-.78-.59,9.4,9.4,0,0,1-.46-2.55Z" style="fill:#c50048"/><path d="M22.61,16.51a6.58,6.58,0,0,1,1.73-4.64,6.45,6.45,0,0,1,4.47-2,6.36,6.36,0,0,1,4.57,1.77,6.53,6.53,0,0,1,2,4.51c.14,3.57-2.11,3.69-2.44,6.43H31.06c.22-3.15,2.51-2.91,2.42-6.36A4.66,4.66,0,0,0,32.08,13a4.43,4.43,0,0,0-6.35.18,4.56,4.56,0,0,0-1.22,3.25c.16,3.46,2.62,3.32,2.83,6.1h-2c-.65-2.75-2.53-2.75-2.69-6Zm10.31,7c0,.68.1,1.83-1,1.83H26.48c-1.06,0-.94-1.14-1-1.83Zm-7.19,2.44h7.39a.9.9,0,0,1,.92.88h0a.91.91,0,0,1-.92.9H25.73a.91.91,0,0,1-.91-.9h0a.9.9,0,0,1,.91-.88Zm1.35,2.47h4.68a.9.9,0,0,1,.91.87h0a.91.91,0,0,1-.91.9H27.08a.9.9,0,0,1-.9-.9h0a.88.88,0,0,1,.9-.87Z" style="fill:#c50048"/><path d="M0,16.48a6.52,6.52,0,0,1,1.75-4.62,6.33,6.33,0,0,1,9-.27,6.48,6.48,0,0,1,2,4.52c.14,3.57-2.1,3.69-2.42,6.43H8.47c.22-3.16,2.5-2.92,2.41-6.37A4.56,4.56,0,0,0,9.47,13a4.43,4.43,0,0,0-6.33.18,4.62,4.62,0,0,0-1.23,3.26c.16,3.46,2.62,3.33,2.83,6.1h-2C2.05,19.77.16,19.77,0,16.48Zm10.33,7c0,.69.09,1.82-.95,1.82H3.88c-1.07,0-.94-1.13-1-1.82ZM3.13,25.9h7.4a.92.92,0,0,1,.91.89h0a.92.92,0,0,1-.91.91H3.13a.92.92,0,0,1-.92-.91h0a.92.92,0,0,1,.92-.89Zm1.35,2.49H9.16a.9.9,0,0,1,.91.88h0a.92.92,0,0,1-.91.9H4.48a.91.91,0,0,1-.9-.9h0a.89.89,0,0,1,.9-.88Z" style="fill:#c50048"/><path d="M4.26,14.24a1.5,1.5,0,1,1-1.49,1.5,1.5,1.5,0,0,1,1.49-1.5Zm0,.91a.59.59,0,1,1-.57.59.58.58,0,0,1,.57-.59Z" style="fill:#c50048;fill-rule:evenodd"/><path d="M8.32,14.24a1.5,1.5,0,0,1,0,3,1.5,1.5,0,0,1,0-3Zm0,.91a.59.59,0,0,1,0,1.17.59.59,0,1,1,0-1.17Z" style="fill:#c50048;fill-rule:evenodd"/><path d="M14.85,5.83A2.13,2.13,0,1,1,12.73,8a2.13,2.13,0,0,1,2.12-2.13Zm0,1.3A.83.83,0,1,1,14,8a.83.83,0,0,1,.83-.83Z" style="fill:#c50048;fill-rule:evenodd"/><path d="M20.59,5.83A2.13,2.13,0,1,1,18.47,8a2.12,2.12,0,0,1,2.12-2.13Zm0,1.3a.83.83,0,0,1,0,1.66.83.83,0,0,1,0-1.66Z" style="fill:#c50048;fill-rule:evenodd"/><path d="M15.8,12.07h4.13a.86.86,0,0,1,.88.86h0a.88.88,0,0,1-.88.87H15.8a.88.88,0,0,1-.88-.87h0a.86.86,0,0,1,.88-.86Z" style="fill:#c50048;fill-rule:evenodd"/><path d="M4.89,18.36H7.82a.62.62,0,0,1,.62.62h0a.62.62,0,0,1-.62.61H4.89A.64.64,0,0,1,4.26,19h0a.63.63,0,0,1,.63-.62Z" style="fill:#c50048;fill-rule:evenodd"/><path d="M27.07,14.1a1.5,1.5,0,1,1-1.5,1.5,1.5,1.5,0,0,1,1.5-1.5Zm0,.92a.59.59,0,0,1,0,1.17.59.59,0,0,1,0-1.17Z" style="fill:#c50048;fill-rule:evenodd"/><path d="M31.13,14.1a1.5,1.5,0,1,1-1.5,1.5,1.5,1.5,0,0,1,1.5-1.5Zm0,.92a.59.59,0,1,1-.59.58.59.59,0,0,1,.59-.58Z" style="fill:#c50048;fill-rule:evenodd"/><path d="M27.69,18.22h2.94a.64.64,0,0,1,.62.62h0a.64.64,0,0,1-.62.62H27.69a.62.62,0,0,1-.62-.62h0a.62.62,0,0,1,.62-.62Z" style="fill:#c50048;fill-rule:evenodd"/></g></g></svg>