<svg xmlns="http://www.w3.org/2000/svg" viewBox="0 0 31.31 57.88"><title>Asset 180</title><g id="Layer_2" data-name="Layer 2"><g id="Layer_3" data-name="Layer 3"><path d="M17.68,1.18A20.11,20.11,0,0,1,30.19,12.56c1,2.52,1.78,4.82.28,4.42.35,0,.35-.67.11-1.42a20.84,20.84,0,0,0-4.19-6.84c6.23,7,4.19,21.57,1,29.31s-4.26,11-4.43,12.63a1.74,1.74,0,0,0,1,2s-4.3.71.37-13.33C27.06,31,27,31,26.56,31.87c-2.56,5.7-7.11,11-11.45,15.93-8.81,9.85-7.82,10.39-1.38,7.85,0,0-12.72,8.42-2.41-7.46s15.74-31.68,5.47-40c2.27,2.08,4.4,8.23,4.25,14.41C19.14,13.28,3.93,6.31,4,1.86,5.17-1.41,15.33.49,17.68,1.18ZM21,22.59a36.79,36.79,0,0,1-6,17.07c4.59-13.22-11.94-.92-10.84-8a8.39,8.39,0,0,1,.32-1.55,1.76,1.76,0,0,0,0-1.06,5,5,0,0,0-1.6-1.35,2.34,2.34,0,0,1-.78-1,1.66,1.66,0,0,1,1.37-2c.48,0-.4,0-1.16-.22s-1.53-1.1-.66-1.89c1.29-1.16,1.69-2.21-.13-2.91C0,19.09-.73,18.53,1,16.36,2.54,14.24,3.61,13,4,12,3,10.53,2.38,8.44,3,5.4,5.79,11.58,18.39,14.5,21,22.59Zm3.89-9.16C22.64,6.77,17.33,2,5.65,1.46a27.37,27.37,0,0,1,19.28,12Z" style="fill:#e31900;fill-rule:evenodd"/></g></g></svg>