<svg xmlns="http://www.w3.org/2000/svg" viewBox="0 0 92.47 47.77"><title>Asset 175</title><g id="Layer_2" data-name="Layer 2"><g id="Layer_3" data-name="Layer 3"><path d="M41.68,11.45C-.41-26.73-17.31,43,22.82,40.78h.42l8.59.72A2.11,2.11,0,0,0,34,39.39h0a2.07,2.07,0,0,0-2-2l-5.05-.56c0,1,.49,2.53-1,2.09a1.9,1.9,0,0,1-1.3-1,3.7,3.7,0,0,1,.08-3.33,6.27,6.27,0,0,1,.81-1.05l-7.65,4.15A1.6,1.6,0,0,1,15.58,37h0a1.86,1.86,0,0,1,1.08-2.19L23.55,31h-.08l-.71.33c-.18.07-.25.07-.34.16l-8.55,4.06A1.39,1.39,0,0,1,12,34.84h0a1.54,1.54,0,0,1,.74-2l8.36-4a1.27,1.27,0,0,1,.32-.25l-7.72,3.1A1.48,1.48,0,0,1,11.78,31h0a1.6,1.6,0,0,1,.79-1.95l7.74-3a.75.75,0,0,1,.41-.34h0l-4.31,1.47a1.38,1.38,0,0,1-1.79-.66h0a1.39,1.39,0,0,1,.74-1.87l5.36-1.85c.07-.09.16-.09.23-.16,2.77-1.23,8.54-3.35,5.29-7.81-1.54-2.19-1.3,2.53-4.23,3.57-1.7.82-2.1.73-3.49,1.31-31,11.37,2-42.4,20.56-2.44C73.52,91.53,122.93,7.56,67.61,1.55h-.34L58.66.8a2.09,2.09,0,0,0-2.12,2.11h0a2,2,0,0,0,2,2l5,.58c.08-1-.4-2.44,1.07-2.12a2.14,2.14,0,0,1,1.21,1,3.51,3.51,0,0,1,0,3.33c-.32.41-.57.83-.82,1.15l7.65-4.24a1.67,1.67,0,0,1,2.27.65h0a1.82,1.82,0,0,1-1,2.19l-6.92,3.82h0l.82-.31c.07-.09.16-.09.33-.09l8.53-4.15a1.44,1.44,0,0,1,1.87.73h0a1.56,1.56,0,0,1-.74,2l-8.36,4c-.09.09-.24.16-.33.25l7.71-3.09a1.48,1.48,0,0,1,1.88.72h0a1.49,1.49,0,0,1-.73,2l-7.72,3a1.56,1.56,0,0,1-.4.32h0l4.29-1.46a1.43,1.43,0,0,1,1.8.66h0a1.4,1.4,0,0,1-.73,1.85L69.8,19.49c-.09.08-.17.08-.26.17C66.7,20.87,61,23,64.2,27.53c1.54,2.11,1.86-2.35,3.16-2.92C94.08,11.77,98.79,63.19,41.68,11.45Zm10.24,3.73c3.16-1.3,5.93-2.6,8.12-4.71L50,10.72A2.38,2.38,0,0,0,47.69,13h0a2,2,0,0,0,2.12,2.18Zm8.52-5.1a16,16,0,0,0,3-4.07.31.31,0,0,1,.08-.25L52.08,5.27a2.24,2.24,0,0,0-2.27,2.19h0A2.29,2.29,0,0,0,52,9.73ZM38.58,27.21a24,24,0,0,0-8.2,4.63l10.15-.25a2.4,2.4,0,0,0,2.29-2.27h0a2.2,2.2,0,0,0-2.19-2.19l-2.05.08Zm-8.61,5a14.8,14.8,0,0,0-2.91,4.06.26.26,0,0,0-.09.23L38.35,37a2.2,2.2,0,0,0,2.28-2.19h0a2.17,2.17,0,0,0-2.2-2.2Z" style="fill:#5a9617;fill-rule:evenodd"/></g></g></svg>