<svg xmlns="http://www.w3.org/2000/svg" viewBox="0 0 168.89 146.27"><title>Asset 221</title><g id="Layer_2" data-name="Layer 2"><g id="Layer_3" data-name="Layer 3"><path d="M126.67,0H42.22L0,73.13l42.22,73.14h84.45l42.22-73.14Zm-3.73,138.7-.32.55H46.27L8.1,73.13,46.27,7h.64l8.65,15L64.78,6H66l-9.83,17,4.64,8L75.27,6h1.62L61.62,32.49,66,40,85.56,6H88L67.17,42.1l3.92,6.8L95.84,6h3.24L72.71,51.71l3.58,6.19L106.23,6h4l-32,55.37,3.12,5.4L116.52,6h4.86L83.86,71l3,5.21,37.58-65.11,3.24,5.61L90.1,81.83Z" style="fill:#ffb200"/></g></g></svg>