<svg xmlns="http://www.w3.org/2000/svg" viewBox="0 0 106.81 103.14"><title>Asset 227</title><g id="Layer_2" data-name="Layer 2"><g id="Layer_3" data-name="Layer 3"><path d="M106.81,53.28s-1.9,39.64-31.15,47.64c-20.28,6.62-29.06-3.7-30-3.7,0,0,12.26-6.38,5.66-15.21a9.06,9.06,0,0,0-4.75-3.43c-.22-.07-.44-.12-.66-.17a10.74,10.74,0,0,0-2.39-.26c-.32,0-.64,0-1,0h0c-.29,0-.57,0-.86.09l-.24,0-.73.13a4.82,4.82,0,0,0-.52.11l-.08,0-.88.23-.1,0c-.18.06-.36.11-.53.18a3.58,3.58,0,0,0-.58.19c-.25.08-.49.18-.73.28s-.59.23-.86.36a20.73,20.73,0,0,0-3.06,1.69h0l-.36.26c-4.08,3-16.36,5.4-21.21.44a6.25,6.25,0,0,1-1.27-1.87,1.51,1.51,0,0,1-.09-.18,1.17,1.17,0,0,1-.05-.11c0-.06-.05-.12-.08-.19l0,0c-.11-.27-.22-.53-.35-.81s-.18-.37-.29-.55c0,0,0,0,0,0A9.53,9.53,0,0,0,5.13,74.6l-.43-.21C1.4,72.9-3.06,65.8,3,64.54a30,30,0,0,0,3.58-1.18,38.29,38.29,0,0,0,3.86-1.73h0a19.54,19.54,0,0,0,2.8-1.74,25.76,25.76,0,0,0,7.24-8.19,31.86,31.86,0,0,0,4-14v-.08c0-.33,0-.65.05-1v0c.35-3.42,3.47-7.71,4.06-8.49l.1-.12a84.11,84.11,0,0,1,12.64-12.1c.95-.73,1.93-1.45,2.95-2.15a15.32,15.32,0,0,1-.06-5.61,1.57,1.57,0,0,1,0-.16.09.09,0,0,1,0,0A9.23,9.23,0,0,1,50.82.39L51,.33c1.07-.32,6.74-1.6,14.25,4.6h0c1.37-.21,2.76-.37,4.17-.45h0c1.22-.1,2.46-.11,3.72-.09A27.65,27.65,0,0,1,83.87,6.84a2.52,2.52,0,0,1,.34.15,25.93,25.93,0,0,1,3.06,1.67C99.25,16.08,107,32.62,106.81,53.28Z" style="fill:#353535"/><path d="M24.51,36.66a.13.13,0,0,0,0,.06" style="fill:none"/><path d="M79.31,21.14c5,13.86,2,28.93-8.17,40.61-8,9.22-17.47,13.3-25,16.56h0l0,0-.17.08a10.74,10.74,0,0,0-2.39-.26c-.33,0-.64,0-1,0h0c-.29,0-.57,0-.86.09l-.24,0-.73.13a4.82,4.82,0,0,0-.52.11l-.08,0-.88.23-.1,0-.53.18a4.92,4.92,0,0,0-.58.19c-.25.08-.49.18-.73.28s-.59.23-.86.36a20.73,20.73,0,0,0-3.06,1.69A21.54,21.54,0,0,1,39,77.75h0c1.12-.57,2.34-1.12,3.6-1.66l2.1-.92C52,72.05,61,68.15,68.56,59.49c9-10.38,11.93-23.68,7.94-36A24.69,24.69,0,0,1,62,28.09a27.66,27.66,0,0,1-5-.45c-10.4-1.83-14.24-7.47-15.64-11.73.95-.73,1.93-1.45,2.95-2.15.82,3.42,3.66,8.82,13.28,10.5a21.91,21.91,0,0,0,17.69-4.12c-1.58-3.47-5.75-10.82-10-15.21,1.37-.21,2.76-.37,4.17-.45h0a73.33,73.33,0,0,1,8.44,13.23A27.56,27.56,0,0,0,84.21,7l3.06,1.67a31.19,31.19,0,0,1-7.4,12Z" style="fill:#fff"/><path d="M10.48,80.38a12.29,12.29,0,0,0,1.27,1.87A6.25,6.25,0,0,1,10.48,80.38Z" style="fill:#fff"/><path d="M13.23,59.88C10.52,62,8.74,65.93,8.44,70.48a18.88,18.88,0,0,0,1.15,8A9.53,9.53,0,0,0,5.13,74.6,23.29,23.29,0,0,1,5,70.25a21.79,21.79,0,0,1,1.56-6.89,38.29,38.29,0,0,0,3.86-1.73h0A19.54,19.54,0,0,0,13.23,59.88Z" style="fill:#fff"/><path d="M46.54,78.58c-.22-.07-.44-.12-.66-.17a10.74,10.74,0,0,0-2.39-.26c-.33,0-.64,0-1,0h0c-.29,0-.57,0-.86.09l-.24,0-.73.13a4.82,4.82,0,0,0-.52.11c-.41-.26-.79-.53-1.17-.81h0C25.06,68,21.21,59.17,20.47,51.69a31.86,31.86,0,0,0,4-14c0,1.52-.16,3.11-.33,4.77-.89,8.93-2,19.89,18.47,33.6q1.65,1.09,3.48,2.22h0Z" style="fill:#fff"/></g></g></svg>