<svg xmlns="http://www.w3.org/2000/svg" viewBox="0 0 63.87 37.03"><title>Asset 199</title><g id="Layer_2" data-name="Layer 2"><g id="Layer_3" data-name="Layer 3"><path d="M32.15,34.37c-8-.71,3.24-14.07,4.89-18.06,3.8-8.87-22.68-3.06-9.65-6.42,8.67-2.45,17.23,0,22.57-2.35a35.27,35.27,0,0,0,8.25-4.79c5.65-4.39,8.56-3.37,1.53,1.94-8.88,6.63-9.23,5.09-18.12,14l-.33.32c-2,2-3.78,4-5.36,5.71l-.2.31c-.23.3-.57.72-.78,1l-.23.31-.23.21-.22.3h0c-2.66,3.57-3.79,6.32-2.12,7.55Z" style="fill:#00a687;fill-rule:evenodd"/><path d="M43.4,7.44A14.14,14.14,0,0,0,47.86,7a3,3,0,0,0,1.76-1.22c.8-1.12.69-2.14-.44-3.27A9.57,9.57,0,0,0,44,.4,12.62,12.62,0,0,0,39.62.29a6.55,6.55,0,0,0-1.56.42C36.4,1.43,35.83,2.54,36.4,4a1.63,1.63,0,0,0,.77,1c1.12,1,3.24,1.94,6.23,2.45Z" style="fill:#0067d3;fill-rule:evenodd"/><path d="M48.63,13.56c-4.45,3.26-7.24,8.06-9.91,11.73a11.35,11.35,0,0,1,5.24-.1c5.45,1,8.45,4.7,12,10.41-.89-2.76-4.92-10.31-7-14.09a11.2,11.2,0,0,1-1.25-3.46,4.56,4.56,0,0,1,.35-3.67,3.27,3.27,0,0,1,.55-.82Z" style="fill:#0067d3;fill-rule:evenodd"/><path d="M24.36,36.1c6.24-.5-2.32-10.81-3.65-14-2.89-6.73,17.44-2.33,7.33-4.88-6.68-1.85-13.25,0-17.35-1.85a26.89,26.89,0,0,1-6.34-3.66C0,8.36-2.24,9.08,3.22,13.16c6.81,5.2,7.14,4.08,13.92,10.91l.22.2a49.11,49.11,0,0,1,4.12,4.38l.22.21c.23.3.44.51.68.82l.09.21.13.19.2.21h0c2,2.75,2.91,4.89,1.56,5.81Z" style="fill:#00a682;fill-rule:evenodd"/><path d="M15.69,15.3A8.12,8.12,0,0,1,12.35,15c-.66-.21-1.12-.41-1.33-.91a1.69,1.69,0,0,1,.21-2.46,8.4,8.4,0,0,1,4.12-1.73,12.59,12.59,0,0,1,3.36-.11,6.31,6.31,0,0,1,1.2.41c1.23.51,1.68,1.33,1.23,2.45a1.38,1.38,0,0,1-.56.82c-.88.81-2.43,1.42-4.89,1.84Z" style="fill:#006ed3;fill-rule:evenodd"/><path d="M11.79,20.09c3.33,2.45,5.57,6.22,7.57,9a8.74,8.74,0,0,0-4,0c-4.21.82-6.56,3.56-9.23,8,.57-2.16,3.77-7.87,5.35-10.82a8.13,8.13,0,0,0,1-2.75,3.77,3.77,0,0,0-.22-2.75,2.75,2.75,0,0,1-.46-.62Z" style="fill:#006ed3;fill-rule:evenodd"/></g></g></svg>