<svg xmlns="http://www.w3.org/2000/svg" viewBox="0 0 45.48 37.87"><title>Asset 264</title><g id="Layer_2" data-name="Layer 2"><g id="Layer_3" data-name="Layer 3"><path d="M28.72.44a13.53,13.53,0,0,1,16.35,10A12.42,12.42,0,0,1,43.4,20.51c-1.54-13.46-21.87-9.72-21.87-9.72-.4-.77.69-3.12,2.17-8a12.6,12.6,0,0,1,5-2.35Zm2.89,30.77c-3.48,2.95-6.73,5.52-8.13,6.43a2.24,2.24,0,0,1-2,0C-9.22,16.53,17.7,30,31.61,31.21ZM16.3.44a15.23,15.23,0,0,1,5.51,2.94,3.11,3.11,0,0,0-.63,1c-.82,1.44-1.63,2.84-2.4,4.28S17.2,11.52,16.39,13c-1.27.49-2.58.95-3.93,1.45-3.57,1.26-2.62,3.39.45,2.48,1.27-.36,2.58-.68,3.88-1,1,.86,2.13,1.67,3.21,2.53s2.13,1.72,3.21,2.58c1.62,1.36,1.08,1.13,3.34.4-3-3.93-4.74-5.51-4.56-6.46,15.22-6.37,22.5,8.18,9.49,9.54-43,4.24-35.64-28.66-15.18-24Z" style="fill:#1b6fa8;fill-rule:evenodd"/></g></g></svg>