<svg xmlns="http://www.w3.org/2000/svg" viewBox="0 0 72.43 52.74"><title>Asset 204</title><g id="Layer_2" data-name="Layer 2"><g id="Layer_3" data-name="Layer 3"><path d="M6.2,6.39l4,2.37.16,4.85L16,17l-.17-4.84,2.38,1.42.16,4.85L24,21.82,23.82,17l2.38,1.43.2,4.86L32,26.62l-.17-4.84,2.37,1.43.17,4.84,5.68,3.4L39.9,26.6l4.48,2.69-1.22,2.05.7.22c10.12,2.77,20.35,5,28.57,5.26v0c-16.78-.15-39.85-5-53.57-10.37L20.51,24c2-3.21,2.2-2.9-.91-1.5C10.89,26.43,4.74,28.84,5,29s3.35,5.83,12.79,15.72c2.1,2.69,1.87,3,1.44-.81l-.37-4.45a149.08,149.08,0,0,0,15.68,4.33,55.37,55.37,0,0,0,5.79.85c-1.91-.06-3.52-.12-5-.14l-4.16,6.94a2.67,2.67,0,0,1-3.66.92C-9.07,32.09-1.1,22.75,6.2,6.39Zm0,0L49.55,16.76l1-4.3a2.57,2.57,0,0,0-1.55-3l-4,3.84-6.36-1.55,4-3.88L40,7.27,35.9,11.12,29.5,9.55l4-3.82-2.68-.65L26.8,8.94,20.44,7.39l4-3.84-2.72-.68-4,3.88L11.29,5.21l4.06-3.86L10,.07a2.22,2.22,0,0,0-2.7,1.65L6.23,6.34Z" style="fill:#5a9617;fill-rule:evenodd"/></g></g></svg>