<svg xmlns="http://www.w3.org/2000/svg" viewBox="0 0 41.97 32.97"><title>Asset 263</title><g id="Layer_2" data-name="Layer 2"><g id="Layer_3" data-name="Layer 3"><path d="M25.19,18.21a1.1,1.1,0,0,1,1,1.28.88.88,0,0,1-.55.83l-.08,2.47-1.38-.08.18-2.39a1.14,1.14,0,0,1-.46-1,1.12,1.12,0,0,1,1.28-1.11Zm10.53,8L36.56,33,31.8,31.32C15.3,25.64-.26,34,0,18.4c7.42,6.69,21.71,3.67,32,8.43L32.24,21c9.08-6.41.29-20.26-9.14-15.3a7.91,7.91,0,0,1,4.84-.27c8.62,2.47,10.27,17.5-6,18.23a2.34,2.34,0,0,1-1.93-2.19l-.82-5.51c-.18-1.1,1-2,2.11-1.92l7.32.36c2.93.19,3.68-5.31-1.37-6.87-9.43-2.38-10.8,16-22.62,11.74C12.18,13.81,13,.79,26,.06c14.11-1.28,22.35,17.14,9.7,26.12ZM25.65,7.77h0a5,5,0,0,0-3,1.1,4.27,4.27,0,0,0-1.37,2.93l-.09,1.74,2.1.09.09-1.74a2.28,2.28,0,0,1,.75-1.47A1.67,1.67,0,0,1,25.57,10a1.76,1.76,0,0,1,1.36.64,1.84,1.84,0,0,1,.55,1.46l-.08,1.74,2.11.19.08-1.74a3.93,3.93,0,0,0-1-3,4.3,4.3,0,0,0-2.93-1.46Z" style="fill:#368fda;fill-rule:evenodd"/></g></g></svg>