<svg xmlns="http://www.w3.org/2000/svg" viewBox="0 0 61.26 27.95"><title>Asset 266</title><g id="Layer_2" data-name="Layer 2"><g id="Layer_3" data-name="Layer 3"><path d="M24.09,0c-6,10,22-1.6,15.31,11.42C48.18,7.26,61.55,1.1,61.26,3.78,61.14.24,38.05,16.55,36.6,17.45c-7.08,4.6-7-.85-5.31-2.37C49.67-2.08,14.93,11.23,24.09,0Z" style="fill:#676667;fill-rule:evenodd"/><path d="M35.26,28C43.42,19.6,13.47,24.37,23,13.31,13.53,15.26-.87,18.13,0,15.62-.7,19.05,25.55,8.61,27.19,8c7.94-2.75,6.6,2.5,4.59,3.66C9.93,24,46.78,19.17,35.26,28Z" style="fill:#75b345;fill-rule:evenodd"/></g></g></svg>