<svg xmlns="http://www.w3.org/2000/svg" viewBox="0 0 40.35 47.53"><title>Asset 189</title><g id="Layer_2" data-name="Layer 2"><g id="Layer_3" data-name="Layer 3"><path d="M12.83,28.54c-.51,6.76,2.71,14,10.82,18.09,2.86,1.35,3,1.35,1.51-1.19-5.92-10.64,13.19,2.89,10.66-8.1h0c-.35-1.53,1.7-2.88,2-3.56a1.44,1.44,0,0,0-1.2-1.69c-.68,0,1.69-.17,1.69-.67.18-.51-.34-1.7-.69-2.53-.31-1-1-1.18.35-1.86,1.36-.52,3.06-1.7,2-2.7-4.9-4.74-1.69-6.6-.83-9.3C40.71,10,37.35,3.69,32.42,1.84c-2.19-1-2.86-.85-.83.33,4.06,2.2,5.07,6.61,2.37,10a8.73,8.73,0,0,1-1.69,1.69,18.18,18.18,0,0,0-1.85-8.12A10.75,10.75,0,0,0,16.72.83c-2.2.67-2.72,1.34-.35.84,4.4-1,8.13,1.53,8.46,5.92V9.27A19.51,19.51,0,0,0,18.4,4.21,10.47,10.47,0,0,0,4.54,8.45c-1.34,2-1.34,2.69.18,1,3-3.54,7.43-3.89,10.31-.5a15.32,15.32,0,0,1,1.69,2.71,17.51,17.51,0,0,0-9,.33C1.85,13.84-.7,18.91.16,24.33.48,26.69,1,27.19,1,25c-.16-4.74,3-7.78,7.45-7.27a10.15,10.15,0,0,1,4.05,1.52A17.11,17.11,0,0,0,5.05,27C2.69,32.44,4.72,37.84,9.27,40.9c2,1.33,2.72,1.33,1-.18-3.55-3-3.74-7.44-.35-10.32a8.83,8.83,0,0,1,2.88-1.86Z" style="fill:#1980df;fill-rule:evenodd"/></g></g></svg>