<svg xmlns="http://www.w3.org/2000/svg" viewBox="0 0 68.91 38.77"><title>Asset 184</title><g id="Layer_2" data-name="Layer 2"><g id="Layer_3" data-name="Layer 3"><path d="M2.74,29.48A18.2,18.2,0,0,1,.62,15.12,18.2,18.2,0,0,1,9.28,3.41,18.28,18.28,0,0,1,23.67,1.32,18.22,18.22,0,0,1,35.33,10a4.6,4.6,0,0,1,.57,3.58,4.7,4.7,0,0,1-2.23,2.93,4.53,4.53,0,0,1-3.56.54,4.35,4.35,0,0,1-2.93-2.18,9.22,9.22,0,0,0-5.83-4.31,9.11,9.11,0,0,0-7.18,1.07,9,9,0,0,0-4.32,5.82,9,9,0,0,0,1,7.18A9.2,9.2,0,0,0,16.73,29a9.27,9.27,0,0,0,7.19-1.07l11-6.12a4.68,4.68,0,0,1,6.49,1.64A4.72,4.72,0,0,1,42,27a4.65,4.65,0,0,1-2.19,2.9l-11,6.1a18.46,18.46,0,0,1-14.37,2.16A18.34,18.34,0,0,1,2.74,29.48Z" style="fill:#5a9617"/><path d="M66.19,9.27a18.57,18.57,0,0,1,2.13,14.39,18.36,18.36,0,0,1-8.68,11.69,18.34,18.34,0,0,1-14.4,2.1A18.39,18.39,0,0,1,33.57,28.8,4.54,4.54,0,0,1,33,25.2a4.77,4.77,0,0,1,8.71-1.29,9.44,9.44,0,0,0,13,3.26,9.16,9.16,0,0,0,4.36-5.82A9.44,9.44,0,0,0,52.18,9.83,9.07,9.07,0,0,0,45,10.9L23,24a4.78,4.78,0,0,1-7.07-5.24,4.57,4.57,0,0,1,2.2-2.9l22-13.06A19,19,0,0,1,66.19,9.27Z" style="fill:#5a9617"/><path d="M57.37,19a7.44,7.44,0,1,1-7.44-7.44A7.43,7.43,0,0,1,57.37,19Z" style="fill:#5a9617"/></g></g></svg>