<svg xmlns="http://www.w3.org/2000/svg" viewBox="0 0 26.31 32.28"><title>Asset 238</title><g id="Layer_2" data-name="Layer 2"><g id="Layer_3" data-name="Layer 3"><path d="M1.45,13.54C1.67,15.6,4.33,14.6.18,19.12c-.61.66.48,1.31,1.27,1.55s.46.5.28,1.06a3.55,3.55,0,0,0-.3,1.58c0,.25,1.44.19,1.07.21a.83.83,0,0,0-.64,1c.18.37,1.2,1.23,1.12,2.1H3c-.61,6.8,7.87-.17,8,4.74.19,1.47,7.06,1.14,6.62-1.24-1.07-6,8.26-5,8.7-14.8a13,13,0,0,0-2.73-8.72c2.12-4,2.82-6,2-6.49-1.26-.71-3.82,1.27-5.94,3.21A13.05,13.05,0,0,0,13.16,2h.09C6.69,1.81.73,6.66,1.45,13.54ZM13.84,3.7a10.51,10.51,0,0,1,4.7,1.13c-.35.26-.72.59-1.07.8a9,9,0,0,0-3.63-.72A9.36,9.36,0,0,0,7.28,7.54a8.71,8.71,0,0,0-2.69,6.29,1.46,1.46,0,0,1,1.12.31A1.68,1.68,0,0,1,6,16.21c.11-.1.2-.18.31-.3s.19-.31.26-.44h0a1.14,1.14,0,0,1,.41.92,2,2,0,0,1,2.5-.5h0a2.53,2.53,0,0,0-.48.59,3.31,3.31,0,0,0-.29.56,2.35,2.35,0,0,1,3-.52h0l0,0a2.37,2.37,0,0,1,.7,2.93c.13-.16.29-.32.42-.5a3.89,3.89,0,0,0,.33-.68h0a2.11,2.11,0,0,1,.3,2.93,2.13,2.13,0,0,1-.76.76,2.3,2.3,0,0,0,.87-.5,5,5,0,0,0,.09.77.1.1,0,0,1,0-.07,1.2,1.2,0,0,1,1.53-.7h0a1.28,1.28,0,0,0-.26.38c0,.1-.09.21-.13.32a1.36,1.36,0,0,1,1.64-.49,1.61,1.61,0,0,1,.54.62,9.44,9.44,0,0,0,3.46-2.11A8.72,8.72,0,0,0,22.08,9.79l.61-1.31A9.88,9.88,0,0,1,21.2,21.05a10.4,10.4,0,0,1-7.34,3,10.52,10.52,0,0,1-7.39-3,9.94,9.94,0,0,1-3-7.15,10.05,10.05,0,0,1,3-7.2,10.6,10.6,0,0,1,7.37-3Zm1.4,11L13,16.37l-.29.15.5-.51Zm-1-3.19-2.08,4-.34.42.39-1.08Zm6.16-.83c7.11-12.37,6.1-11.94-3.93-3.19-.55-.37-1-.74-1.49-1s-.8-.57-1.18-.79c.22.45.46,1,.72,1.56s.55,1.29.88,2.07c1-.75,2-1.49,3.15-2.3-.88,1.32-1.77,2.72-2.63,4.08s-1.72,2.77-2.57,4.16l-.14.16.09-.08-.06.1.13-.16C14.56,14.12,15.76,13,17,11.9l3.57-3.35c-.59,1.24-1.16,2.4-1.69,3.51.84.15,1.58.28,2.23.42s1.18.25,1.71.39c-.33-.33-.66-.63-1-1s-.87-.78-1.38-1.21Zm.25-5.45a.88.88,0,0,0,.17.62A.89.89,0,0,0,22.06,6a.88.88,0,0,0,.15-1.22.16.16,0,0,0-.09-.09.79.79,0,0,1-1.35.81,1.22,1.22,0,0,1-.15-.27Zm1.52-.81a1.08,1.08,0,0,0-1.5.19,1,1,0,0,0,.15,1.47,1.08,1.08,0,0,0,1.51-.14,1.11,1.11,0,0,0-.16-1.52Zm-1.55,2a.78.78,0,0,0-1.05.11.7.7,0,0,0,.14,1,.68.68,0,0,0,1-.09.74.74,0,0,0-.09-1ZM19.33,7.93a.47.47,0,0,0-.66.09.46.46,0,0,0,.11.62.43.43,0,0,0,.61,0,.44.44,0,0,0-.06-.67ZM14.93,9.7c.92-.7,1.9-1.44,2.95-2.21-.83,1.31-1.68,2.58-2.53,3.89s-1.73,2.71-2.63,4.09c.9-1.87,1.73-3.6,2.52-5.28-.57.47-1.12.92-1.62,1.35,0-.94,0-1.8.09-2.61s0-1.46.06-2.12c.18.4.33.81.53,1.29s.41,1,.63,1.6Zm3.57,2.84c.48-1,1-2.12,1.55-3.28-1.1,1.06-2.21,2.17-3.37,3.22s-2.29,2.2-3.52,3.3c1.66-1.16,3.24-2.33,4.74-3.41-.34.61-.67,1.21-1,1.81l2.6-.6c.74-.19,1.46-.34,2.1-.49-.44-.09-.88-.18-1.38-.25s-1.07-.21-1.68-.3Zm-6,9.51,0,0Z" style="fill:#6d9956;fill-rule:evenodd"/></g></g></svg>