<svg xmlns="http://www.w3.org/2000/svg" viewBox="0 0 51.85 51.68"><title>Asset 210</title><g id="Layer_2" data-name="Layer 2"><g id="Layer_3" data-name="Layer 3"><path d="M44.6,8.83a11.63,11.63,0,0,1,.12,5.56A12.85,12.85,0,0,1,40.85,21l1.23,1.41L35.77,22l.39-6.3h0l1.74,1.91A11.83,11.83,0,0,0,40.53,13c3-9.92-14.85-6.2-10.07,7.94,3.79,11.12,28.48,4.17,15.16-7.3a8.79,8.79,0,0,1,3.45,2.13,9,9,0,0,1,.28,12.75,8.78,8.78,0,0,1-2.08,1.64,9,9,0,0,1-4.09,13.91,11,11,0,0,1-5.55.24A12.17,12.17,0,0,1,31,40.64L29.58,42l.28-6.35,6.3.25h0l-1.87,1.78a11.88,11.88,0,0,0,4.6,2.52c13.5,3.74.21-19.66-11.15-7.45-6.55,7-1.21,24.16,10.63,12.57a9.39,9.39,0,0,1-2,3.48,9.07,9.07,0,0,1-12.77.58,9.49,9.49,0,0,1-1.69-2.06,9.07,9.07,0,0,1-14-3.76A11.13,11.13,0,0,1,7.5,38a12.31,12.31,0,0,1,3.59-6.71L9.74,29.87l6.33.1L16,36.31h0l-1.82-1.87a12.39,12.39,0,0,0-2.43,4.67c-3.31,12.9,18.35,1,8.47-10.55C13.75,21-6.6,29.16,6.62,38.72a9.07,9.07,0,0,1-3.55-2A9,9,0,0,1,2.22,24a8.49,8.49,0,0,1,2-1.73A9,9,0,0,1,7.69,8.19a11,11,0,0,1,5.55-.5A12.14,12.14,0,0,1,20,11.13l1.37-1.37V16.1l-6.31,0h0l1.82-1.84a12.08,12.08,0,0,0-4.71-2.35c-14.43-3.33,2.05,20.12,11.75,7,5.57-7.54-2.3-24.83-11.47-12.15a8.53,8.53,0,0,1,1.91-3.57A9,9,0,0,1,27.1,2.1a8.78,8.78,0,0,1,2.48,3.4,9,9,0,0,1,15,3.33Z" style="fill:#2773bc"/></g></g></svg>