<svg xmlns="http://www.w3.org/2000/svg" viewBox="0 0 62.56 57.37"><title>Asset 196</title><g id="Layer_2" data-name="Layer 2"><g id="Layer_3" data-name="Layer 3"><path d="M7.6,26.61c-1.3-4-6.68-2.17-5.18,2.76C6.3,43.59,14.07,52.48,22.89,55.82c9.48,3.76,18.75.4,23.7-6.9,2.14-3.17,2.14-4.34-.23-1.59-5.17,5.54-12.69,6.12-17.89.79-4.72-4.73-6.66-13.61-3.2-25.86,1.07-4.54-2.16-3.56-3.46.79-2.14,8.89-8.2,30.61-14.21,3.56Z" style="fill:#00a658;fill-rule:evenodd"/><path d="M11.05,25a12.16,12.16,0,0,1,3-4.15,2.85,2.85,0,0,1,2.36-.78c1.71.39,2.78,1.57,3.24,3.73s0,4.35-1.09,7.13a13.45,13.45,0,0,1-2.37,4.13c-.44.2-.85.6-1.29.8-1.51.8-2.8.4-4.08-1.38a6,6,0,0,1-.66-1.58c-.42-1.78-.22-4.55.87-7.9Z" style="fill:#00a658;fill-rule:evenodd"/><path d="M41.19,11.2a10.27,10.27,0,0,0-4.51-2.37,2.81,2.81,0,0,0-2.58.41c-1.29,1-1.52,2.37-.86,4.54.62,2,2.16,3.74,4.3,5.92a15.41,15.41,0,0,0,4.1,2.36,5,5,0,0,0,1.73.2c1.5,0,2.58-.79,2.78-2.76a4.83,4.83,0,0,0-.2-1.58,19.87,19.87,0,0,0-4.76-6.72Z" style="fill:#00a3d3;fill-rule:evenodd"/><path d="M44.43,11.61c3.89,2,6.26-3,1.3-5.34C32.16-.65,19.88-1.43,11.26,1.93,2,5.68-1.66,14,.7,22.26c1.09,3.57,1.94,4.35,1.51.79-.87-7.11,3.88-12.44,11.4-12.24C20.31,11,28.7,15.56,36,26c2.81,3.94,4.11,1,1.52-2.77-5.38-7.31-18.33-25.87,6.89-11.64Z" style="fill:#00a3d3;fill-rule:evenodd"/><path d="M41.64,43.59c-3.24,2.56.85,6.13,4.72,3C58,37.67,63,27.79,62.53,19.3c-.44-8.89-7.32-14.8-16.38-15.6-3.66-.39-5,0-1.28,1,7.32,1.58,11,7.3,8.17,13.42-2.35,5.72-9.91,11.07-22.83,13.43-4.74,1-2.36,3.16,2.16,2.17,9.27-1.77,32.09-6.11,9.27,9.88Z" style="fill:#ad498c;fill-rule:evenodd"/><path d="M38.4,40.81a18.86,18.86,0,0,1-5.16-.57c-.87-.4-1.52-.81-1.73-1.58-.22-1.59.44-3,2.35-4.15C35.59,33.33,38,32.73,41,32.33a11.58,11.58,0,0,1,4.73.4,1.93,1.93,0,0,1,1.29.6c1.3.77,1.5,2,.43,3.55a3.39,3.39,0,0,1-1.3,1.18c-1.49,1.18-4.08,2.18-7.75,2.75Z" style="fill:#ad498c;fill-rule:evenodd"/></g></g></svg>