<svg xmlns="http://www.w3.org/2000/svg" viewBox="0 0 33.97 37.32"><title>Asset 240</title><g id="Layer_2" data-name="Layer 2"><g id="Layer_3" data-name="Layer 3"><path d="M8.79,32c1.46-2,4.91-2.82,6.47-.35a3.19,3.19,0,0,1,.46,2.2,2.6,2.6,0,0,1-2.5,2.24c-1.35,0-2.62-1.47-1.83-2.77a1.15,1.15,0,0,1,.89-.52c1.1-.07.51,1,.79,1.51.15.31.72,0,.92-.36a1.65,1.65,0,0,0-.77-2.16,2.61,2.61,0,0,0-2.51.43A2.84,2.84,0,0,0,10,34.92a3.43,3.43,0,0,0,3.34,2.4c1.95,0,3.15-1.68,3.87-3.23h.94a16.82,16.82,0,0,0,12.55-5.65,1.13,1.13,0,0,1,.15-.21,2.76,2.76,0,0,0,2.21-.9,1.64,1.64,0,0,0-.18-2.13,1.45,1.45,0,0,0-1.51-.32,1.13,1.13,0,0,0-.67,1.05.87.87,0,0,0,.67.83c.37,0,.57-.2.83-.37a.62.62,0,0,1-.46.73,1.26,1.26,0,0,1-.94,0,1.51,1.51,0,0,1-.32-2.31,2.29,2.29,0,0,1,2.6-.37c0-.11.06-.14.13-.25a9.49,9.49,0,0,0,.46-1.42A11,11,0,0,0,25.33,9.2c8.26,4.92,3.61,13.32-1.24,13.53a2,2,0,0,0-2.82-1.19,1.45,1.45,0,0,0-.7,1.56c.06.11.11.43.33.36a1.24,1.24,0,0,1,0-1,1.39,1.39,0,0,1,1.72-.68,1.61,1.61,0,0,1,.94,1.57,2,2,0,0,1-1.11,1.51,2.73,2.73,0,0,1-2.19-.2c-.15.05-.3.05-.46.09a11,11,0,0,1-6.1-1.1C4.39,18.2,7.21,4.66,16,0,2.45,7.06,2.82,25.93,19.32,29.83a10.79,10.79,0,0,1-3.08.8c-.15,0-.31.05-.35.16.72,1.51,1.09,3.55-.33,4.85a5,5,0,0,0,.68-2.49,3.92,3.92,0,0,0-4.37-3.41,2.21,2.21,0,0,1-.83.06C5.79,27.7,1.66,22,0,16.94v.15C.52,26,6.91,31.36,8.79,32Z" style="fill:#1e71b8;fill-rule:evenodd"/></g></g></svg>