<svg xmlns="http://www.w3.org/2000/svg" viewBox="0 0 38.23 38.87"><title>Asset 241</title><g id="Layer_2" data-name="Layer 2"><g id="Layer_3" data-name="Layer 3"><path d="M36.88,16l-2.35,6.39c-1.12,3.11-.52,3.54-2.73,1.39L27.85,20c-1.21-1.19-1.35-1.05.38-.77l1.33.22C26.77,3.51,18.17-2.43,13.93.89h0c4.29-2.3,9.67,1.28,13,17.28L25.69,18c-1.59-.24-1.47-.4-.35.71l6.41,6.71c1.86,1.78,2.32,1.8,3-.39,1.34-4.12,2.46-7.29,3.45-11.59l-2.85,1.66a52.37,52.37,0,0,0-3.55-9.91,68.82,68.82,0,0,1,2.64,11.71l1.74-1.36c1.38-1.05,1.25-1.11.67.5Z" style="fill:#00a3d3;fill-rule:evenodd"/><path d="M12,36.38,7.6,31.19c-2.15-2.47-2.82-2.17.13-3.05L13,26.56c1.64-.48,1.57-.67.47.71l-.85,1.05c15.27,5.41,24.7.84,23.88-4.51h0c-.07,4.9-5.87,7.82-21.43,2.83l.79-1c1-1.24,1.08-1.09-.45-.65l-9,2.29C3.9,28,3.65,28.46,5.22,30.15c2.94,3.19,5.14,5.72,8.41,8.72l-.06-3.33a50.31,50.31,0,0,0,10.36,1.79,68.93,68.93,0,0,1-11.48-3.46l.32,2.18c.24,1.74.37,1.62-.76.33Z" style="fill:#f10720;fill-rule:evenodd"/><path d="M7.42,3.8,14.2,3c3.25-.4,3.38-1.12,2.46,1.8l-1.6,5.24c-.51,1.64-.32,1.67-.84,0l-.41-1.29c-13,9.66-14.47,20-9.57,22.34v0c-4-2.78-3.21-9.22,9.62-19.35l.35,1.18c.47,1.54.3,1.51.78,0L18.1,4.2c.77-2.48.58-2.9-1.71-2.55-4.28.67-7.61,1.06-11.9,2.12L7.26,5.58A51.23,51.23,0,0,0,0,13.18a72.49,72.49,0,0,1,9.28-7.6l-2-1c-1.57-.75-1.56-.6.14-.82Z" style="fill:#0e8747;fill-rule:evenodd"/></g></g></svg>