<svg xmlns="http://www.w3.org/2000/svg" viewBox="0 0 64.31 56.35"><title>Asset 181</title><g id="Layer_2" data-name="Layer 2"><g id="Layer_3" data-name="Layer 3"><path d="M27,30.85,18.26,51.58a3.55,3.55,0,0,1-1.9,1.91v-.06a3.46,3.46,0,0,1-2.75,0l-.36-.14a4.12,4.12,0,0,1-2.14-2.15,4.05,4.05,0,0,1,0-3.06,1.26,1.26,0,0,0-.65-1.69,1.37,1.37,0,0,0-1.76.7,6.56,6.56,0,0,0,0,5,6.41,6.41,0,0,0,3.51,3.59l.4.16a5.84,5.84,0,0,0,4.69,0h0a6.08,6.08,0,0,0,3.35-3.28l8.85-20.9-.49-.2a9.38,9.38,0,0,0-2-.64ZM48.06,0a85.5,85.5,0,0,0-12.9,23.4v.08l-.06.07v0l1.5.21h.06c.25,0,.43,0,.64,0h.11l0,.05h.35V24H38v0h0v.07h0v.05h-.1v0H37.8l-.08.05h0l-.08.06h-.06l-.08.05h0l0,0h0l-.06.06h-.06l0,.05h0l-.36.15-.4.2-.19.09h0l-.16.11h0l-.2,0h0l-.19.12h0l-.16.1h-.05l-.15.1h0l-.15.09h-.05l-.15.07v0l-.15,0h0l-.1.11h-.06l-.15,0,0,.06-.11,0h0l-.1.11h-.05l-.1,0-.11.06-.09,0H33.8l-.09.06-.05,0-.1.07-.05,0H33.4l0,.05,0,.05-.11.05h0l-.11,0,0,.05-.11,0h0l-.1.06H32.7l0,.06,0,0-.12.07h0l-.12,0h0l-.09.05,0,.05-.11,0h0l-.1.06h0l-.1,0h0l-.1,0v.06l-.15.06h0l-.11,0h0l-.11.05h0l-.08.06h0l-.1,0h0l-.11,0h0l-.09.06h0L31,27.6h0l-.05,0h-.1v.06h-.1l-.06.06h0l0,0h-.1v.05h-.11v.05h-.1V28h-.09v0h-.11l0,0H29.9v.07h-.1V28h0v0h0v0h0v-.06h0v-.05H29.7v-.05h0v0h0l0-.06v-.06h0v0h0v-.06l0-.06v0h0v0h0l-.08-.11h0v-.1h0V27l0,0h0v-.1l0,0v-.16l-.07-.06v-.09l0,0v-.1h0l0-.09h0v-.16L29.2,26v-.1l0-.09v-.06l-.06-.09h0v-.14h0l0-.12v0l0-.1v-.16L29,25v-.15l-.05-.05v-.15l-.05-.16h0l-.07-.15v-.15l0-.09v-.21l0-.05V23.7h0l-.07-.22h0l0-.14v-.2l0-.05v-.25l-.07-.1v-.2l-.08-.36V22l-.07-.12v-.24l0-.1V21.4l-.08-.07V21.1a7.14,7.14,0,0,0-.15-1h0v-.06h0V20h0l0,0h0v-.12h0v-.05h0v0h0v-.11h0v0h0v-.06h0v-.1h0v0h0v0h0v-.11h0l-.05,0h0v-.07h0v0h0v0h0V19h0v0h0v0h0v0l-.05-.08h0V18.7h0v-.07h0v0h0v-.05h0v-.05h0l-.05,0v-.05h0v-.08h0c-.35-1.65-.55-1.65.75-.32l.59.6.5.45.5.5v-.1h0v0h.05v-.06h0v-.05h0l.06,0h0v-.07h0v0h0V19h0l0-.05v0h0v0h0l.06,0h0v-.08l.06,0h0v-.11l0,0h0v-.05l0-.05v0h0v-.05l.06,0h0v0h0A45.68,45.68,0,0,1,35,9.75l-2.29,3a14.94,14.94,0,0,0-5,.75,22.11,22.11,0,0,0-4.5,2c-.1-.2-.2-.39-.3-.55a21.69,21.69,0,0,1,4.65-2.14A13.76,13.76,0,0,1,33,12.1a30.93,30.93,0,0,0-12.61-.95L19.21,9.6a36.62,36.62,0,0,1,3.4,7h0l0,.08v.09h.07v.15h0V17l0,0h0v.05h0l.06,0v.05h0v.05l.05,0v.05h0v.06l.05.05v0h0v.08l.05,0h0v.05h0l0,.06v.11h0l0,0v0h0V18h0l.06,0v.1h0l0,.05h0v.1h0l.07.07h0v.08h0v.05h0v0l.05.05h0v.05h0v0l0,.07h0v.08h.06l1.48-1.33c1.26-1.26,1.07-1.26.7.29a44.32,44.32,0,0,1-2.1,9.06c0,.14-2.59-1.41-6.48-3.46-1.4-.68-1.45-.54.29-.76l1.4-.09,0,0v-.05h0v-.06A79.61,79.61,0,0,0,7.31.15h0c2.36,3.2,4.5,7.78,6.45,12.49A40.87,40.87,0,0,0,0,20.59a9,9,0,0,1,6.91.21,9.14,9.14,0,0,1,4.8,4.35,52.91,52.91,0,0,1,4.9-5.35l.25.69c-.61.56-1.2,1.15-1.8,1.8h0c-.75.8-1.57,1.69-2.31,2.6a10.26,10.26,0,0,1,5.46.65,9.25,9.25,0,0,1,4.4,3.7c1.79-3.3,3.5-6,5-8.33l.2.87c-1.5,2.27-3.09,4.95-4.8,8.18h0a8.93,8.93,0,0,1,6.49.34,9.39,9.39,0,0,1,4.56,3.94c1-3.39,1.74-6.4,2.28-9l.75-.4c-.53,2.75-1.37,6-2.48,9.74a9.34,9.34,0,0,1,6.14.45,9.14,9.14,0,0,1,4.44,3.76,45,45,0,0,0,.22-7l.6-.34a54.94,54.94,0,0,1-.14,7.84,10,10,0,0,1,10.55,4.05,40.92,40.92,0,0,0-4.26-15.14c4.19-2.09,8.49-4,12.15-4.84v-.06a79,79,0,0,0-22.19,9.09h-.07l0,.08h0l0,0,.89.94c1.21,1.2,1.25,1.06-.25.76-4.1-1-7-1.45-6.88-1.55a42.69,42.69,0,0,1,4.18-8c.66-1.33.56-1.44.7.22l.21,1.94h0l.06-.05h0v0h.11v-.07h0l0,0h.06l0-.06h.05v-.06h.1l.05,0,.1-.05h0l0,0,.06-.05h0l.2-.14h0l0-.07h.07l.13-.09h0l.06,0h0l0-.06.1,0h0a38.73,38.73,0,0,1,7.15-3.14l-.85.2A31.29,31.29,0,0,0,40,15.15h0a14.28,14.28,0,0,1,3.08,4.19h0A19.33,19.33,0,0,1,44.9,24a1.93,1.93,0,0,1-.64.21,21.4,21.4,0,0,0-1.7-4.5h0a15.22,15.22,0,0,0-2.91-3.94C42.12,10,45,3.94,48.06,0Zm-18,17.4-.25,1.14-.36-.34c.2-.24.4-.56.61-.8Zm7.25,6-.66,0A8.2,8.2,0,0,0,36.94,22l1-2.23c-.11,1.11-.31,2.31-.55,3.64ZM23.64,17.29h0l.12.59Z" style="fill:#2773bc;fill-rule:evenodd"/></g></g></svg>