<svg xmlns="http://www.w3.org/2000/svg" xmlns:xlink="http://www.w3.org/1999/xlink" viewBox="0 0 41.77 36.48"><defs><linearGradient id="linear-gradient" x1="-2389.85" y1="-968.11" x2="-2389.77" y2="-968.18" gradientTransform="matrix(-23.09, 154.28, 140.44, 21.01, 80817.31, 389079.33)" gradientUnits="userSpaceOnUse"><stop offset="0" stop-color="#676671"/><stop offset="1" stop-color="#f2001f"/></linearGradient><linearGradient id="linear-gradient-2" x1="-2390" y1="-964.98" x2="-2389.92" y2="-965.06" gradientTransform="matrix(-24.57, 164.17, 99.89, 14.95, 37699.37, 406816.63)" gradientUnits="userSpaceOnUse"><stop offset="0" stop-color="#cb0019"/><stop offset="1" stop-color="#e30016"/></linearGradient><linearGradient id="linear-gradient-3" x1="-2388.36" y1="-968" x2="-2388.29" y2="-968.08" gradientTransform="matrix(-11.25, 75.16, 137.47, 20.57, 106238.37, 199461.69)" gradientUnits="userSpaceOnUse"><stop offset="0" stop-color="#870012"/><stop offset="1" stop-color="#6c6c76"/></linearGradient><linearGradient id="linear-gradient-4" x1="-2388.35" y1="-964.99" x2="-2388.26" y2="-965.08" gradientTransform="matrix(-11.25, 75.16, 99.89, 14.95, 69549.38, 193971.66)" gradientUnits="userSpaceOnUse"><stop offset="0" stop-color="#634e58"/><stop offset="1" stop-color="#7e7d88"/></linearGradient><linearGradient id="linear-gradient-5" x1="-2379.99" y1="-975.36" x2="-2379.91" y2="-975.43" gradientTransform="matrix(128.18, 88.91, 80.93, -116.68, 384040.17, 97822.81)" xlink:href="#linear-gradient"/><linearGradient id="linear-gradient-6" x1="-2380.74" y1="-975.19" x2="-2380.65" y2="-975.27" gradientTransform="matrix(136.4, 94.61, 57.57, -82.99, 380888.56, 144338.42)" xlink:href="#linear-gradient-2"/><linearGradient id="linear-gradient-7" x1="-2368.13" y1="-975.4" x2="-2368.05" y2="-975.48" gradientTransform="matrix(62.45, 43.32, 79.23, -114.21, 225196.95, -8806.76)" xlink:href="#linear-gradient-3"/><linearGradient id="linear-gradient-8" x1="-2368.14" y1="-975.17" x2="-2368.05" y2="-975.25" gradientTransform="matrix(62.45, 43.32, 57.57, -82.99, 204053.14, 21674.38)" xlink:href="#linear-gradient-4"/><linearGradient id="linear-gradient-9" x1="-2398.86" y1="-967" x2="-2398.79" y2="-967.08" gradientTransform="matrix(-137.9, 72.94, 66.39, 125.52, -266571.81, 296353.97)" gradientUnits="userSpaceOnUse"><stop offset="0" stop-color="#6d7b5c"/><stop offset="1" stop-color="#009cf2"/></linearGradient><linearGradient id="linear-gradient-10" x1="-2398.46" y1="-963.42" x2="-2398.37" y2="-963.51" gradientTransform="matrix(-146.74, 77.61, 47.22, 89.28, -306428.84, 272163.87)" gradientUnits="userSpaceOnUse"><stop offset="0" stop-color="#0081cb"/><stop offset="1" stop-color="#008be3"/></linearGradient><linearGradient id="linear-gradient-11" x1="-2406.88" y1="-966.85" x2="-2406.8" y2="-966.92" gradientTransform="matrix(-67.18, 35.53, 64.99, 122.87, -98840.85, 204337.46)" gradientUnits="userSpaceOnUse"><stop offset="0" stop-color="#005887"/><stop offset="1" stop-color="#728161"/></linearGradient><linearGradient id="linear-gradient-12" x1="-2406.87" y1="-963.4" x2="-2406.79" y2="-963.48" gradientTransform="matrix(-67.18, 35.53, 47.22, 89.28, -116184.76, 171544.09)" gradientUnits="userSpaceOnUse"><stop offset="0" stop-color="#3d7475"/><stop offset="1" stop-color="#849273"/></linearGradient><linearGradient id="linear-gradient-13" x1="-2387.62" y1="-961.66" x2="-2387.54" y2="-961.73" gradientTransform="matrix(-23.88, 154.16, 140.33, 21.74, 77944.52, 388987.31)" xlink:href="#linear-gradient-9"/><linearGradient id="linear-gradient-14" x1="-2387.9" y1="-955.91" x2="-2387.82" y2="-955.99" gradientTransform="matrix(-25.41, 164.04, 99.81, 15.46, 34736.12, 406503.38)" xlink:href="#linear-gradient-10"/><linearGradient id="linear-gradient-15" x1="-2383.79" y1="-961.39" x2="-2383.71" y2="-961.46" gradientTransform="matrix(-11.63, 75.1, 137.36, 21.28, 104342.58, 199504.26)" xlink:href="#linear-gradient-11"/><linearGradient id="linear-gradient-16" x1="-2383.79" y1="-955.88" x2="-2383.7" y2="-955.96" gradientTransform="matrix(-11.63, 75.1, 99.81, 15.46, 67683.27, 193825.66)" xlink:href="#linear-gradient-12"/><linearGradient id="linear-gradient-17" x1="-2376.69" y1="-967.93" x2="-2376.62" y2="-968" gradientTransform="matrix(110.65, 109.96, 100.1, -100.72, 359879.89, 163872.19)" xlink:href="#linear-gradient-9"/><linearGradient id="linear-gradient-18" x1="-2377.62" y1="-964.73" x2="-2377.55" y2="-964.8" gradientTransform="matrix(117.74, 117.01, 71.19, -71.64, 348640.62, 209119.94)" xlink:href="#linear-gradient-10"/><linearGradient id="linear-gradient-19" x1="-2361.36" y1="-967.8" x2="-2361.28" y2="-967.88" gradientTransform="matrix(53.91, 53.57, 97.98, -98.59, 222137.13, 31102.43)" xlink:href="#linear-gradient-11"/><linearGradient id="linear-gradient-20" x1="-2361.36" y1="-964.7" x2="-2361.28" y2="-964.78" gradientTransform="matrix(53.91, 53.57, 71.19, -71.64, 195987.24, 57415.36)" xlink:href="#linear-gradient-12"/><linearGradient id="linear-gradient-21" x1="-2387.2" y1="-962.46" x2="-2387.13" y2="-962.53" gradientTransform="matrix(7.17, 155.84, 141.85, -6.53, 153678.56, 365728.69)" xlink:href="#linear-gradient-9"/><linearGradient id="linear-gradient-22" x1="-2387.48" y1="-957.02" x2="-2387.4" y2="-957.1" gradientTransform="matrix(7.63, 165.82, 100.89, -4.64, 114802.36, 391464.37)" xlink:href="#linear-gradient-10"/><linearGradient id="linear-gradient-23" x1="-2382.91" y1="-962.2" x2="-2382.83" y2="-962.27" gradientTransform="matrix(3.49, 75.92, 138.85, -6.39, 141969.89, 174772.39)" xlink:href="#linear-gradient-11"/><linearGradient id="linear-gradient-24" x1="-2382.89" y1="-957" x2="-2382.8" y2="-957.08" gradientTransform="matrix(3.49, 75.92, 100.89, -4.64, 104912.27, 176477.53)" xlink:href="#linear-gradient-12"/></defs><title>Asset 235</title><g id="Layer_2" data-name="Layer 2"><g id="Layer_3" data-name="Layer 3"><polygon id="triangle36" points="23.28 22.56 31.65 35.03 25.05 29.67 23.28 22.56" style="fill:url(#linear-gradient)"/><polygon id="triangle36-2" data-name="triangle36" points="20.83 20.62 13.44 32.92 22.6 27.75 20.83 20.62" style="fill:url(#linear-gradient-2)"/><polygon id="triangle36-3" data-name="triangle36" points="29.7 36.24 19.34 36.4 22.73 31.23 29.7 36.24" style="fill:url(#linear-gradient-3)"/><polygon id="triangle36-4" data-name="triangle36" points="10.8 36.32 16.57 36.33 19.96 31.16 10.8 36.32" style="fill:url(#linear-gradient-4)"/><polygon id="triangle36-5" data-name="triangle36" points="25.35 18.43 40.78 16.37 32.52 19.99 25.35 18.43" style="fill:url(#linear-gradient-5)"/><polygon id="triangle36-6" data-name="triangle36" points="22.95 19.51 30.69 31.57 30.12 21.08 22.95 19.51" style="fill:url(#linear-gradient-6)"/><polygon id="triangle36-7" data-name="triangle36" points="41.57 17.69 38.01 26.74 34.86 21.41 41.57 17.69" style="fill:url(#linear-gradient-7)"/><polygon id="triangle36-8" data-name="triangle36" points="32.57 32.2 35.12 27.02 32 21.7 32.57 32.2" style="fill:url(#linear-gradient-8)"/><polygon id="triangle36-9" data-name="triangle36" points="27.21 0.83 22.82 14.66 23.41 5.66 27.21 0.83" style="fill:url(#linear-gradient-9)"/><polygon id="triangle36-10" data-name="triangle36" points="25.84 0.22 10.8 0.5 22.27 4.61 25.84 0.22" style="fill:url(#linear-gradient-10)"/><polygon id="triangle36-11" data-name="triangle36" points="21.48 17.69 15.91 9.03 22.07 8.69 21.48 17.69" style="fill:url(#linear-gradient-11)"/><polygon id="triangle36-12" data-name="triangle36" points="12.37 2.65 15.8 7.3 21.97 6.96 12.37 2.65" style="fill:url(#linear-gradient-12)"/><polygon id="triangle36-13" data-name="triangle36" points="8.79 2.85 17.38 15.85 10.51 9.99 8.79 2.85" style="fill:url(#linear-gradient-13)"/><polygon id="triangle36-14" data-name="triangle36" points="7.06 3.25 0.24 16.55 8.79 10.37 7.06 3.25" style="fill:url(#linear-gradient-14)"/><polygon id="triangle36-15" data-name="triangle36" points="18.84 18.78 8.59 18.09 12 12.94 18.84 18.78" style="fill:url(#linear-gradient-15)"/><polygon id="triangle36-16" data-name="triangle36" points="1.57 17.4 8.2 17.62 10.75 12.28 1.57 17.4" style="fill:url(#linear-gradient-16)"/><polygon id="triangle36-17" data-name="triangle36" points="1.33 19.41 16.87 20.09 8.11 22.21 1.33 19.41" style="fill:url(#linear-gradient-17)"/><polygon id="triangle36-18" data-name="triangle36" points="1.07 21.55 9.68 33.63 6.4 22.93 1.07 21.55" style="fill:url(#linear-gradient-18)"/><polygon id="triangle36-19" data-name="triangle36" points="19.52 20.62 13.66 29.15 10.69 23.28 19.52 20.62" style="fill:url(#linear-gradient-19)"/><polygon id="triangle36-20" data-name="triangle36" points="10.58 32.45 11.74 29.13 8.83 23.45 10.58 32.45" style="fill:url(#linear-gradient-20)"/><polygon id="triangle36-21" data-name="triangle36" points="29.18 0.41 39.6 11.01 31.71 6.64 29.18 0.41" style="fill:url(#linear-gradient-21)"/><polygon id="triangle36-22" data-name="triangle36" points="28.44 3.07 23.56 16.55 31.54 9.72 28.44 3.07" style="fill:url(#linear-gradient-22)"/><polygon id="triangle36-23" data-name="triangle36" points="41.11 14.22 32.81 15.54 35.12 9.83 41.11 14.22" style="fill:url(#linear-gradient-23)"/><polygon id="triangle36-24" data-name="triangle36" points="25.59 17.32 31.25 16.22 33.57 10.5 25.59 17.32" style="fill:url(#linear-gradient-24)"/><path d="M32.06,35.49,25,29.73l0,0L23.08,22.1Zm-7-5.86,6.14,4.94L23.47,23Z" style="fill:#bdbdbd"/><path d="M13.2,33.16l.18-.29,7.49-12.45,1.82,7.37Zm7.59-12.31L13.68,32.69l8.81-5Z" style="fill:#bdbdbd"/><path d="M19.19,36.48l3.5-5.38.08.07L30,36.33Zm3.56-5.11L19.5,36.32l10-.16Z" style="fill:#bdbdbd"/><path d="M16.61,36.4H10.47l9.75-5.48Zm-5.49-.17h5.4l3.15-4.84Z" style="fill:#bdbdbd"/><path d="M32.52,20.09h0L24.85,18.4l16.52-2.19Zm-6.66-1.64L32.5,19.9l7.7-3.35Z" style="fill:#bdbdbd"/><path d="M30.8,31.89l-.18-.27L22.75,19.39,30.21,21v.07ZM23.12,19.64,30.6,31.26,30,21.16Z" style="fill:#bdbdbd"/><path d="M38,26.92l-3.26-5.54,7-3.87Zm-3-5.47,3,5.11,3.38-8.65Z" style="fill:#bdbdbd"/><path d="M32.5,32.51l-.61-11.17L35.21,27v0Zm-.39-10.46.52,9.8L35,27Z" style="fill:#bdbdbd"/><path d="M22.69,15.37l.63-9.73,0,0L27.43.41Zm.81-9.66L23,14,27,1.27Z" style="fill:#bdbdbd"/><path d="M22.32,4.72,10.34.43,26,.12ZM11.28.58l11,3.93L25.64.31Z" style="fill:#bdbdbd"/><path d="M21.55,18l-.13-.22L15.76,9h.15l6.25-.35v.1ZM16.06,9.11l5.36,8.31L22,8.79Z" style="fill:#bdbdbd"/><path d="M15.76,7.39l0,0-3.61-4.9.3.14L22.34,7ZM12.63,2.86l3.22,4.35L21.6,6.9Z" style="fill:#bdbdbd"/><path d="M17.79,16.29,10.45,10v0L8.59,2.39ZM10.6,10,17,15.38,9,3.31Z" style="fill:#bdbdbd"/><path d="M0,16.82,7.08,3,8.9,10.42ZM7,3.49.46,16.27,8.7,10.35Z" style="fill:#bdbdbd"/><path d="M19.1,18.88,8.44,18.15,8.52,18,12,12.81ZM8.72,18l9.88.67L12,13.07Z" style="fill:#bdbdbd"/><path d="M8.24,17.69H8.17l-6.9-.21L11,12.09Zm-6.36-.38,6.25.22,2.41-5Z" style="fill:#bdbdbd"/><path d="M8.11,22.28h0l-7.24-3L17.49,20Zm-6.3-2.77,6.3,2.6,8.15-2Z" style="fill:#bdbdbd"/><path d="M9.94,34.12.85,21.41l5.62,1.44,0,0ZM1.29,21.69,9.46,33.14,6.34,23Z" style="fill:#bdbdbd"/><path d="M13.64,29.32l-3.08-6.1,9.16-2.75-.14.21Zm-2.84-6L13.66,29l5.64-8.2Z" style="fill:#bdbdbd"/><path d="M10.56,32.79l-.05-.32L8.66,22.86l3.19,6.25ZM9.05,24l1.55,8.08,1.05-3Z" style="fill:#bdbdbd"/><path d="M40.11,11.38,31.65,6.71v0L28.89,0ZM31.8,6.58l7.32,4.05L29.48.82Z" style="fill:#bdbdbd"/><path d="M23.37,16.82l5.07-14,3.21,6.9,0,0ZM28.46,3.29l-4.7,13,7.69-6.58Z" style="fill:#bdbdbd"/><path d="M32.65,15.65l.07-.15,2.36-5.81.09.06,6.2,4.53ZM35.17,10l-2.23,5.48,7.89-1.26Z" style="fill:#bdbdbd"/><path d="M25.29,17.48l8.5-7.27-2.47,6.08,0,0Zm8.06-6.68L25.9,17.19l5.29-1.05Z" style="fill:#bdbdbd"/></g></g></svg>