<svg xmlns="http://www.w3.org/2000/svg" viewBox="0 0 52.76 24.06"><title>Asset 242</title><g id="Layer_2" data-name="Layer 2"><g id="Layer_3" data-name="Layer 3"><path d="M20.74,0c-5.16,8.63,19-1.38,13.2,9.82C41.48,6.26,53,.93,52.76,3.25c-.13-3-20,11-21.23,11.77-6.12,3.94-6.07-.74-4.59-2C42.77-1.78,12.87,9.67,20.74,0Z" style="fill:#676667;fill-rule:evenodd"/><path d="M30.35,24.06c7-7.19-18.75-3.09-10.55-12.61-8.14,1.7-20.57,4.17-19.76,2C-.6,16.4,22,7.41,23.42,6.87,30.24,4.51,29.09,9,27.36,10c-18.8,10.62,12.94,6.48,3,14Z" style="fill:#75b345;fill-rule:evenodd"/></g></g></svg>