<svg xmlns="http://www.w3.org/2000/svg" xmlns:xlink="http://www.w3.org/1999/xlink" viewBox="0 0 33.15 30.89"><defs><linearGradient id="linear-gradient" x1="22.2" y1="12.11" x2="9.66" y2="4.48" gradientUnits="userSpaceOnUse"><stop offset="0.22"/><stop offset="0.28" stop-color="#080808"/><stop offset="0.38" stop-color="#1f1f1f"/><stop offset="0.49" stop-color="#444"/><stop offset="0.63" stop-color="#777"/><stop offset="0.78" stop-color="#b8b8b8"/><stop offset="0.93" stop-color="#fff"/></linearGradient><linearGradient id="linear-gradient-2" x1="-4180.24" y1="-2064.69" x2="-4193.22" y2="-2072.59" gradientTransform="matrix(0, -1, 0.84, 0, 1744.52, -4161.08)" xlink:href="#linear-gradient"/><mask id="mask" x="11.39" y="4.51" width="15.42" height="11.41" maskUnits="userSpaceOnUse"><rect x="11.39" y="4.51" width="15.42" height="11.41" style="fill:url(#linear-gradient)"/></mask><mask id="mask-2" x="1.4" y="16.56" width="16.39" height="12.11" maskUnits="userSpaceOnUse"><rect x="4.27" y="14.9" width="10.66" height="15.43" transform="translate(-13.85 29.97) rotate(-84.41)" style="fill:url(#linear-gradient-2)"/></mask></defs><title>Asset 257</title><g id="Layer_2" data-name="Layer 2"><g id="Layer_3" data-name="Layer 3"><path d="M29.07,5.55C26.4-5.34,12.65,1.81,5.24,9.81c-6.5,7-8.84,15.55,4.25,16.57,5,.4,9.33-1.33,6.84-4.8s-7.77-4.22-9.06-8.13c-1.06-3.24,3.74-7.37,7.9-8.7,5.11-1.65,10.44-1.25,13.9.8Z" style="fill:#dd2a1b;fill-rule:evenodd"/><path d="M2.53,25.58c2.13,8.75,13.54,5.51,22-1.33,9.8-7.91,14.73-19.73-4.8-18.44-5.51.36-9.73,2.71-7.37,6,2.48,3.47,8.31,4.09,9.72,8.36,1.24,3.59-4.31,7.19-8.53,7.86-4.43.66-8.61-.45-11-2.4Z" style="fill:#245fb5;fill-rule:evenodd"/><g style="mask:url(#mask)"><path d="M24.27,6.69c-.18,0-6.47-.44-10.06,1.22s.27,5.68,3.62,6.69S24.27,6.69,24.27,6.69Z" style="fill:#f5f5f5;fill-rule:evenodd"/></g><g style="mask:url(#mask-2)"><path d="M4.12,25.4c.19,0,6.41,1.05,10.13-.16s.24-5.31-3-6.56S4.12,25.4,4.12,25.4Z" style="fill:#f5f5f5;fill-rule:evenodd"/></g></g></g></svg>