<svg xmlns="http://www.w3.org/2000/svg" viewBox="0 0 41.5 28.12"><title>Asset 255</title><g id="Layer_2" data-name="Layer 2"><g id="Layer_3" data-name="Layer 3"><path d="M6.38,8.17h.09c.67.58,4.15,4.46,7.81,7.94,11.28,10.81,20.61,9.42,18.11,9.2C27.31,24.82,21,22.68,6.16,1.87,5,.18,2.81,0,.9,0,.32,0,0,.09,0,.4S.26.85.75.85A8.09,8.09,0,0,1,2.32,1C4.37,1.65,4.11,5,4.06,7.32L3.83,20.93c0,2.82-.13,3.67-1,3.94A8.19,8.19,0,0,1,1.34,25c-.31,0-.53.14-.53.36s.26.31.75.31c1.7,0,3.26-.09,3.57-.09.63,0,2.15.09,4.28.09.49,0,.76-.09.76-.31S10,25,9.64,25a5.88,5.88,0,0,1-1.75-.22c-.67-.23-1.06-1-1.16-3.49Z" style="fill:#666"/><path d="M36.24.44c-.59,0-.91.1-.91.41s.27.44.77.44a8.07,8.07,0,0,1,1.56.14c1.39.4,1.74.85,1.82,2.28s.09,2.5.09,8.79v3.89c0,4.28-.13,7.89-2.49,10.18a7.77,7.77,0,0,1-2.42,1.55A7.8,7.8,0,0,0,39,26c2.37-2.28,2.51-5.89,2.51-10.18V12c0-6.34,0-7.55-.14-8.84C41.22.62,38.33.44,36.24.44Z" style="fill:#666"/><path d="M23.16,14.82c0,4.64,1.34,7,3,8.48,2.42,2.14,5.85,2.19,7.6,2.19a11.73,11.73,0,0,0,4.15-.62c-15.84,2.27-10.62-15-12.37-21.48C25,1.21,23,.8,20.57.8c-.49,0-.71,0-.71.27s.17.36.58.36a8.11,8.11,0,0,1,1.24.09c1.07.31,1.39.62,1.43,1.74s.05,2,.05,6.83Z" style="fill:#666"/><path d="M7.41,21.74c8.52,4.29,22.67,8.93,30.25,3.35.4-.31.45-.31,0-.05C34.13,27.14,25.84,29,7.41,18.7Z" style="fill:#68b81b"/><path d="M7.41,15.14C11.65,19,26,28.75,34.66,25.67c.45-.18.5-.18.05,0-3.93,1.07-12.49-.49-27.3-13.35Z" style="fill:#00a8e2"/></g></g></svg>