<svg xmlns="http://www.w3.org/2000/svg" viewBox="0 0 106.43 116.88"><title>Asset 229</title><g id="Layer_2" data-name="Layer 2"><g id="Layer_3" data-name="Layer 3"><path d="M49,28.25a.65.65,0,0,0,0,.13c-.19.63-.4,1.26-.6,1.91-3.56,11.28-8.19,25.92-.53,46.4A70.06,70.06,0,0,1,38.42,81h-.05c-8.78,2.36-18.51,7.4-22,10.13-5.12,4-7.28,2.17-9,.51,9.73-9.59,12.29-18.5,14.76-27.14a92.69,92.69,0,0,1,3.23-9.79.33.33,0,0,0,0-.06,39.5,39.5,0,0,0,2.32-6.41C30.85,36.52,39.38,30,48.19,28.38h0Z" style="fill:#66a300"/><path d="M25.4,54.72a89.68,89.68,0,0,0-3.22,9.79c-2.13,7.4-4.31,15-11,23.08C10,88.93,8.8,90.28,7.41,91.65c-.34-.34-.68-.68-1-1l0,0c-.21-.16-.46-.34-.75-.53L4.46,89.4c-.42-.26-.86-.55-1.3-.86-2.5-1.75-4.79-4.18-1.58-7.7a43.25,43.25,0,0,1,4.05-3.61c1.63-1.35,3.53-2.87,5.53-4.62,1.52-1.33,3.1-2.79,4.66-4.39.71-.73,1.43-1.5,2.13-2.3a53.26,53.26,0,0,0,4-5.18,0,0,0,0,1,0,0A43.12,43.12,0,0,0,25.4,54.72Z" style="fill:#66a300"/><path d="M106.43,91.1c-.9,11-4,21.24-9.79,25.78H86a63.53,63.53,0,0,1-9.36-5.53c-9.41-6.71-14.35-14.4-18-20.62-.79-1.37-1.51-2.65-2.2-3.85a39.94,39.94,0,0,0-3-4.57A6.51,6.51,0,0,0,49.41,80a3,3,0,0,0-.32-.06h0c-2.91-.52-6.69,0-10.66,1a70.06,70.06,0,0,0,9.37-4.31c1.05-.57,2.13-1.18,3.21-1.83-6.94-18.93-2.72-32.28.83-43.46.36-1.19.73-2.34,1.06-3.46h0c.4,0,.8,0,1.2,0s.66,0,1,.08a4.18,4.18,0,0,1,.51.07,2.73,2.73,0,0,1,.5.06h.1l.12,0h0l.21,0h.11l.1,0,.33.06.56.1.37.09h0l.06,0,.08,0,.18,0,.08,0,.32.09.11,0,.31.09.26.08.25.07h0s0,0,0,0l.07,0h0l.41.14,1,.4a9.73,9.73,0,0,1,1,.45c.21.09.4.19.6.3s.39.21.58.32l.09,0a0,0,0,0,0,0,0l.34.21L64,31l.13.08.27.17.14.1h0a17.72,17.72,0,0,1,4.64,4.5c.11.15.2.31.29.46a2.62,2.62,0,0,1,.24.34,38.6,38.6,0,0,0,6.76,8.14c7.94,7.2,16.87,8.91,21.41,9.58a7.56,7.56,0,0,1,3,2.64c2.9,4,4.84,11.51,5.53,20Z" style="fill:#66a300"/><path d="M58.65,90.73q-1.2-2-2.2-3.84C57.14,88.08,57.86,89.36,58.65,90.73Z" style="fill:#66a300"/><path d="M56.55,28.25l-.34-.05h-.09a2.05,2.05,0,0,0-.49-.06,4.63,4.63,0,0,0-.52-.07l-1-.08c-.4,0-.8,0-1.2,0h0a16.44,16.44,0,0,1,1.81.07l.54.05.57.08Z" style="fill:#66a300"/><path d="M57.65,28.46c-.38-.09-.74-.14-1.1-.21l.11,0,.1,0C57.06,28.34,57.36,28.39,57.65,28.46Z" style="fill:#66a300"/><path d="M58.47,28.65c-.27-.07-.54-.14-.82-.19l.74.16Z" style="fill:#66a300"/><path d="M76.72,11.3c0,.18-.11.35-.17.54h0A29.26,29.26,0,0,1,75.22,15l-.09.17,0,0c-.2.4-.42.8-.64,1.2l-.06.1a20.46,20.46,0,0,1-1.19,1.89c-.11.15-.22.32-.34.47a32.7,32.7,0,0,1-3.41,3.93c-.25.25-.49.5-.76.74a31.82,31.82,0,0,1-4,3.22c-.22.16-.47.32-.7.46a24.58,24.58,0,0,0-10.11-2.53C59.22,9.28,75,0,75,0a6.45,6.45,0,0,1,1.41,1.9C77.64,4.27,77.79,7.64,76.72,11.3Z" style="fill:#66a300"/><path d="M76.55,11.85A21.42,21.42,0,0,1,75.22,15,29.26,29.26,0,0,0,76.55,11.85Z" style="fill:#66a300"/><path d="M68.63,30.21c-.53-.4-1.06-.78-1.58-1.13.27-.19.55-.39.82-.6s.53-.39.79-.59c0,0,0,0,0,0,.26-.2.52-.4.76-.61A36.18,36.18,0,0,0,75,21.46c.18-.23.36-.47.53-.71s.41-.58.59-.86.39-.57.56-.86.34-.56.49-.83l.06-.1a34.77,34.77,0,0,0,2.2-4.79,27.61,27.61,0,0,0,1-3.34,14.53,14.53,0,0,1,2-.86S86.32,24.24,68.63,30.21Z" style="fill:#66a300"/><path d="M76.55,11.85A21.42,21.42,0,0,1,75.22,15,29.26,29.26,0,0,0,76.55,11.85Z" style="fill:#66a300"/><path d="M63.46,30.66A22.23,22.23,0,0,0,59.75,29l-.54-.17.51.15.13,0,.41.14,1,.4c.34.13.66.28,1,.45a6.36,6.36,0,0,1,.58.3C63.08,30.44,63.27,30.55,63.46,30.66Z" style="fill:#66a300"/><path d="M5.63,16.08v100.8h100.8V16.08Zm95.28,95.27H11.16V21.61h89.75Z" style="fill:#66a300"/></g></g></svg>