<svg xmlns="http://www.w3.org/2000/svg" viewBox="0 0 157.9 159.7"><title>Asset 222</title><g id="Layer_2" data-name="Layer 2"><g id="Layer_3" data-name="Layer 3"><rect x="30.75" y="48.76" width="30.35" height="30.35" rx="15.17" style="fill:#0064ad"/><path d="M157.9,43.91A44,44,0,0,0,114,0h0A44,44,0,0,0,70.08,43.91h0v64.17s87.81-9.78,87.82-64.16Z" style="fill:#0064ad"/><path d="M0,129.14H0A30.64,30.64,0,0,0,30.55,159.7h0A30.64,30.64,0,0,0,61.1,129.15h0V84.5S0,91.31,0,129.14Zm30.55,8a8,8,0,1,1,8-8A8,8,0,0,1,30.55,137.17Z" style="fill:#0064ad"/></g></g></svg>