<svg xmlns="http://www.w3.org/2000/svg" viewBox="0 0 40.26 33.12"><title>Asset 259</title><g id="Layer_2" data-name="Layer 2"><g id="Layer_3" data-name="Layer 3"><path d="M11.72,1.74c-.22-.75.06-.91.59-.35L18.8,8.14a4.16,4.16,0,0,1,1,2.43V29.88c0,.77-.15.8-.37.05Z" style="fill:#599cd0;fill-rule:evenodd"/><path d="M13.23,1c-.55-.56-.35-1,.43-1H27.54c.77,0,1,.46.44,1L21.69,7.65a1.37,1.37,0,0,1-2,0Z" style="fill:#599cd0;fill-rule:evenodd"/><path d="M28,4.05c.22-.74-.06-.92-.63-.39l-6,5.68a3.74,3.74,0,0,0-1,2.38l-.3,19.2c0,.77.13.8.35,0Z" style="fill:#2f72a7;fill-rule:evenodd"/><path d="M9.71,2.26c.37-.68.09-1-.61-.65L.53,5.54c-.7.32-.7.87,0,1.22L4.62,8.82a1.45,1.45,0,0,0,1.92-.61Z" style="fill:#599cd0;fill-rule:evenodd"/><path d="M10.19,3.34c.35-.68.83-.64,1,.11l7.93,28c.22.75.07.81-.33.14L7.22,11.7a2.85,2.85,0,0,1-.07-2.47Z" style="fill:#2f72a7;fill-rule:evenodd"/><path d="M5.31,11.36a7.16,7.16,0,0,1,1.91,2L18.8,32.58c.39.67.35.71-.13.1L.64,8.93C.18,8.31.31,8.15,1,8.57Z" style="fill:#599cd0;fill-rule:evenodd"/><path d="M30.58,1.61c-.39-.68-.11-1,.59-.65L39.74,4.9c.7.32.7.86,0,1.2l-4,2a1.51,1.51,0,0,1-2-.61Z" style="fill:#599cd0;fill-rule:evenodd"/><path d="M33.29,8.48A2.89,2.89,0,0,1,33.23,11L21.29,31.56c-.37.67-.52.61-.3-.14L29.16,2.7c.22-.74.68-.79,1.05-.1Z" style="fill:#599cd0;fill-rule:evenodd"/><path d="M39.22,8.64c.69-.36.87-.15.39.46L21.31,32.68c-.48.61-.54.57-.15-.09L33.38,12.5a6.1,6.1,0,0,1,2-1.86Z" style="fill:#2f72a7;fill-rule:evenodd"/></g></g></svg>