<svg xmlns="http://www.w3.org/2000/svg" viewBox="0 0 84.33 50.47"><title>Asset 209</title><g id="Layer_2" data-name="Layer 2"><g id="Layer_3" data-name="Layer 3"><path d="M68.88,47.37c16.87,6,18.81-17.65,11.19-26.25,1.33-3.77-.16-9.39-4.13-14.24C70.81.69,63.55-1.78,59.74,1.37h0c-3.87,3.17-2.81,10.77,2.26,17,3.81,4.62,8.82,7.15,12.71,6.87a15,15,0,0,1,4.58,4.05C91.53,45.35,72.58,47.29,40,25,2.14-.87-3.89,16.34,1.9,29.27c3.55,3.48.76,10,4.3,13.21,4.14,3.84,10,8.51,15.75,7.94C17.11,47.52,13,43.89,8.64,39.81a1,1,0,0,1-.37-.51,2.06,2.06,0,0,1-.22-.73v-.15a1.19,1.19,0,0,1,0-.65,1.11,1.11,0,0,1,.21-.66l3.89-7.36V29.7c0-.15.15-.27.2-.37s.28-.15.4-.23a1,1,0,0,1,.53.09,2.32,2.32,0,0,1,.63.4v.06L30.31,44.56h0a1.69,1.69,0,0,0,.73.37c.11-4.77-10.18-13.47-14.5-17.38L13.77,25h0c-3.25-2.64-6.06,2.86-9.67-.23-7.65-6,2.41-10.8,19.42-5.34,21.18,6.74,30.92,22.78,45.36,27.9Zm-56.57-11A1.71,1.71,0,0,0,11.07,36h0a2,2,0,0,0-1.24.58h0a1.86,1.86,0,0,0-.47,1.28h0A1.57,1.57,0,0,0,9.87,39C30,53.91,30.42,54.19,12.31,36.4ZM14.63,32a1.51,1.51,0,0,0-1.21-.46h0a1.6,1.6,0,0,0-1.2.6h0a1.84,1.84,0,0,0-.51,1.26,1.76,1.76,0,0,0,.54,1.19h0C35.45,53.93,33.05,51,14.63,32Z" style="fill:#a36d3d;fill-rule:evenodd"/></g></g></svg>