<svg xmlns="http://www.w3.org/2000/svg" xmlns:xlink="http://www.w3.org/1999/xlink" viewBox="0 0 86.21 98.29"><defs><linearGradient id="linear-gradient" x1="-26.09" y1="53.58" x2="64.82" y2="-2.74" gradientUnits="userSpaceOnUse"><stop offset="0" stop-color="#ffcf24"/><stop offset="0.16" stop-color="#ffcb24"/><stop offset="0.33" stop-color="#ffbe25"/><stop offset="0.5" stop-color="#ffaa27"/><stop offset="0.67" stop-color="#ff8c29"/><stop offset="0.84" stop-color="#ff672b"/><stop offset="1" stop-color="#ff3e2e"/></linearGradient><linearGradient id="linear-gradient-2" x1="-15.57" y1="70.58" x2="75.35" y2="14.25" xlink:href="#linear-gradient"/><linearGradient id="linear-gradient-3" x1="-1.13" y1="93.88" x2="89.78" y2="37.55" xlink:href="#linear-gradient"/></defs><title>Asset 226</title><g id="Layer_2" data-name="Layer 2"><g id="Layer_3" data-name="Layer 3"><path d="M44.63,10.68c.64-2.3,1.22-5.3.77-7.48C45.23,2.38,45-1,48.41.31c0,0,5.87,1.95,8.47,10.45A39.06,39.06,0,0,0,44.63,10.68Z" style="fill:url(#linear-gradient)"/><path d="M29.1,64.32l-.6.36-2.15,1.26c-1.33.79-2.62,1.57-3.81,2.34h0c-8.8,2.87-12.28,4.86-20.32-6-.77-1-3.64-3.5-1.33-5,0,0,12.24-3.39,17.47-11.25a13.72,13.72,0,0,0,2.11-5.07A39.07,39.07,0,0,1,24,30.49c3.73-7.36,10.11-14.27,19.5-16.43A36.11,36.11,0,0,1,57.27,14C62.64,44.3,43.5,55.93,29.1,64.32Z" style="fill:url(#linear-gradient-2)"/><path d="M85.58,58.5a64.43,64.43,0,0,1-3.21,12.6C76.12,88.18,61.75,103.62,36,96.51c0,0,7.19-3.15,1.08-10.42-4.9-5.85-4.12-10.1-4-11.25,0-.15,0-.3,0-.46,0-2.06-.53-5.47-3.5-6.64l.58-.34,1.07-.63c14.19-8.3,34.34-20.91,29.41-52C72.92,18,82,27.23,85.47,42.51A46.17,46.17,0,0,1,85.58,58.5Z" style="fill:url(#linear-gradient-3)"/></g></g></svg>