<svg xmlns="http://www.w3.org/2000/svg" viewBox="0 0 24.87 30.57"><title>Asset 237</title><g id="Layer_2" data-name="Layer 2"><g id="Layer_3" data-name="Layer 3"><path d="M20.76,25.1c0-1,1.23-1.78,1.5-2.2a1,1,0,0,0-.58-1.22c-.42-.05,1.1.16,1.25-.16a6.81,6.81,0,0,0-.2-1.73c-.14-.65-.5-.9.43-1.1s2.14-.78,1.57-1.55c-4.58-6.24-.31-4.55-1-8.18C19.91-6.86-6,0,1.28,16c1.39,3.21,5.47,7.53,2.37,13.44-1.5,2.92,7.41-.71,7.51-1.89.54-5.49,9.5,5.35,9.6-2.47ZM10.31,14.55l-.42.91c-.08.13-.31,0-.29-.14L8.16,10.5c.05-.22.05-.24.27-.28l4.31.89a.13.13,0,0,1,.08.24l-.59.6a1.93,1.93,0,0,0,1.93,1.37c.77,0-.12,3-.84,3.16-.56.12-2.2-1.1-3-1.93ZM4.89,5.73,3.46,5.16c-.22-.15,0-.52.19-.47L11,2c.33,0,.37.06.45.4l-1,6.74c0,.15-.2.31-.39.12l-1-.86a2.94,2.94,0,0,0-1.92,3.1c0,1.21-4.71.1-5-1C2,9.67,3.67,7.05,4.89,5.73ZM16.61,3.49l.18-1.18c.05-.16.37-.07.39.08l3.32,5c0,.27.06.3-.2.42l-5.21.53c-.1,0-.27-.08-.16-.26l.44-.92a2.26,2.26,0,0,0-2.67-.85c-.89.23-.95-3.5-.16-3.92.58-.32,2.88.48,4.07,1.13Zm2.58,9.45,1,.17c.16.05.07.33-.05.33l-4.49,3c-.23.05-.27,0-.37-.19l-.45-4.67c0-.12.08-.27.26-.15l.79.4a2,2,0,0,0,.79-2.4c-.18-.81,3.17-.82,3.52-.13s-.46,2.58-1,3.67Z" style="fill:#3080bf;fill-rule:evenodd"/></g></g></svg>