<svg xmlns="http://www.w3.org/2000/svg" viewBox="0 0 28.32 38.23"><title>Asset 239</title><g id="Layer_2" data-name="Layer 2"><g id="Layer_3" data-name="Layer 3"><path d="M15,30.34a4.06,4.06,0,0,0-4.5,3.6,3.89,3.89,0,0,0,3.65,4.27,4,4,0,0,0,4.54-3.47A4,4,0,0,0,15,30.34Z" style="fill:#7b7c7a;fill-rule:evenodd"/><path d="M6.44,3C3.31,5.3,1,8.25,1.5,12.29c.24,2,2.93,1.05-1.33,5.44-.59.65.52,1.27,1.33,1.53s.48.47.26,1-.44,1.2-.31,1.53S2.94,22,2.53,22a.86.86,0,0,0-.64,1c.2.39,1.25,1.23,1.16,2.08h0c-.59,6.62,7.72-.67,8.28,3.22.24,1.89,2.17.93,4.62.79.85-5.06-.16-7.37-5-11.82S6.74,8.75,10.18,5.52c-.73,1.41-1.71,4.77,1.48,5.61l12.09,3.19c1.75.43,2,2.36,1.35,3.95-.56,1.26-7,10.07-8.87,11,2.25.62,12.09-8.32,12.09-16.54C28.27.43,15.07-3.27,6.44,3Zm18.29,8-.5,2.69-3.34-.89.56-2.65a3.52,3.52,0,0,0-.56-2.51h0a3.58,3.58,0,0,0-2.15-1.54,2.89,2.89,0,0,0-2.42.31,3.27,3.27,0,0,0-1.42,2L14.42,11l-3.33-.85.53-2.65a5.79,5.79,0,0,1,2.77-4,6.63,6.63,0,0,1,5-.67,7.44,7.44,0,0,1,4.31,3.13,7.16,7.16,0,0,1,1,5.05Z" style="fill:#00b7ef;fill-rule:evenodd"/><path d="M14.53,16.68A2,2,0,0,1,17,15.14a2.37,2.37,0,0,1,1.7,2.67,1.89,1.89,0,0,1-1.18,1.45l-.85,4.36A11,11,0,0,0,14.79,20l.28-1.48a2,2,0,0,1-.54-1.88Z" style="fill:#7b7c7a;fill-rule:evenodd"/></g></g></svg>