<svg xmlns="http://www.w3.org/2000/svg" viewBox="0 0 47.7 76.9"><title>Asset 206</title><g id="Layer_2" data-name="Layer 2"><g id="Layer_3" data-name="Layer 3"><path d="M11.65,72.92c-.82-8.26-5-11-9.82-22.43C0,46,2.88,42.65,8.06,39.88c2.22-1.23-.31,2.73.87,5.49,2.09,4.93,3,5.92,1.66-2.1C9.17,34.89,4,21.54,9.42,16.12c10-10,9.4-11,19.55.49,5,5.62-.12,15.71-1,22,.17-1.25,2.28-1.42,3.63-1.29h0A4.83,4.83,0,0,1,36.12,42c.8-1.54,2.29-1.54,4.13-1.54h0c2.47,0,4.49,3.51,4.49,6a43.23,43.23,0,0,1-2.41,13.86c.88-.12,1.8-.19,2.67-.29s1.84-.14,2.7-.14c-.86.06-1.79.19-2.7.31-15.73,2.1-27.26,9.18-33.43,15.29C8.44,78.6,7.51,76,11,73.35Zm7.2-33.83L22.62,28.2c.54-2,1.48-3.82.48-5.73a4.53,4.53,0,0,0-4.18-2.65,4.71,4.71,0,0,0-4.32,2.89c-.67,1.67,0,3.09.49,4.81ZM32.36,6.14a1.81,1.81,0,0,0-1.8-1.8c-4.06,0,1.55,4.57-5.29-1.35C17.75-3.57,15.44.76.79,14.94a2.58,2.58,0,0,0,0,3.71,2.58,2.58,0,0,0,3.71,0L7.07,16c14.37-13.69,9.68-13.32,24.35.67l2,2a2.62,2.62,0,0,0,3.7-3.71c-5.05-5-4.74-2.71-4.74-8.8ZM18.79,12a2.73,2.73,0,0,0-2.71,2.72,2.74,2.74,0,0,0,5.48,0A2.74,2.74,0,0,0,18.79,12Z" style="fill:#5a9617;fill-rule:evenodd"/></g></g></svg>