<svg xmlns="http://www.w3.org/2000/svg" viewBox="0 0 64.06 34.98"><title>Asset 265</title><g id="Layer_2" data-name="Layer 2"><g id="Layer_3" data-name="Layer 3"><path d="M39.62,8.69,56.68,2.33a3.06,3.06,0,0,1,3.89,1.81L63.84,13a2.93,2.93,0,0,1,0,2,.14.14,0,0,1,0,.13.76.76,0,0,1-.16.36,2.82,2.82,0,0,1-1.6,1.35L45,23.23a3.08,3.08,0,0,1-2.33-.09c-2.86-1.31-1.87-.85-5.48,1.27-.41-.78-.9-1.6-1.39-2.43.78-.43,6.38-5,2.94-2.77-.65-.9-.89-1.64-1.63-2.54,4.87-3.23-1.68-.37-3.24.2-.53-1-1.1-2-1.67-3.06,3.19-1.29,4.46-.79,5.68-3.53a3,3,0,0,1,1.73-1.59Zm2,14.54c-.65.37-1.31.73-2,1.07,0,0-.09-.13-.17-.17.7-.38,1.39-.7,2-1.08,0,.05.08.14.12.18ZM34.33,8C36.75,7.54,39,7,41.17,6.31a9.15,9.15,0,0,0,.82,1c-2.13.62-4.34,1.24-6.72,1.72-.32-.32-.61-.65-.94-1ZM27.91,5.86c.29,1.23.54,2.46.74,3.69-2.3-.24-4.59-.5-6.92-.86,0,0,0,0,0-.08,0-.25,0-.46,0-.7h0c0,.24,0,.45,0,.7.12.85.24,1.71.32,2.58-2.28-.5-4.66-1.11-7-1.81-.17-1.14-.33-2.29-.53-3.45,2.41.8,4.74,1.4,7.07,2h0c-.2-1-.44-2-.73-3,2.37.41,4.74.7,7.12,1Zm-.12,7.83c-.45-1.28-.94-2.55-1.47-3.85,2.13-.22,4.3-.5,6.5-.75.49,1.28.94,2.5,1.39,3.73-2.16.29-4.29.62-6.42.87ZM9.45,0C12,1.44,14.61,2.66,17.06,3.73v1.6c-2.45-1.07-5-2.3-7.57-3.68,0-.54,0-1.07,0-1.65ZM19.6,11.39c2.25.2,4.46.29,6.72.33.28,1.27.57,2.48.82,3.73-2.17,0-4.34,0-6.56-.18-.28-1.25-.61-2.58-1-3.88Zm12.65,7c-2.05.4-4.09.81-6.14,1.17-.33-1.14-.73-2.29-1.19-3.47,2.09-.33,4.13-.74,6.22-1.11.41,1.15.78,2.25,1.11,3.41Zm-.57,4.29c-.41-1.06-.9-2.13-1.4-3.19q2.84-1.17,5.77-2.3c.54,1,1,2.09,1.48,3.16-2,.78-3.93,1.55-5.85,2.33ZM8.19,7.41c2.49,1.11,4.9,2.05,7.27,2.91,0,.41,0,.82.09,1.23-2.38-.82-4.75-1.71-7.25-2.82,0-.41-.08-.86-.11-1.32Zm12.19,9.83C18.21,17,16,16.58,13.71,16.1c-.16-1.11-.33-2.23-.54-3.36,2.29.53,4.59.95,6.84,1.31.13,1.07.29,2.13.37,3.19Zm4.83,4.13c-2.09.13-4.17.22-6.27.25-.24-1.3-.53-2.65-.85-4,2.17.05,4.3,0,6.38-.08.29,1.27.53,2.58.74,3.84Zm3.84-.85a36.65,36.65,0,0,1,.9,3.65q-3,.73-6,1.44c-.25-1.24-.57-2.51-.94-3.74,2-.4,4.05-.85,6.05-1.35Zm-.2,7.87a31.46,31.46,0,0,0-.94-3.2c1.92-.82,3.85-1.59,5.77-2.38a32.61,32.61,0,0,1,1,3.19c-2,.79-3.89,1.61-5.85,2.39Zm4.5.4c1.89-1.06,3.77-2.13,5.69-3.16.05.09.08.18.13.21-1.93,1-3.85,2.13-5.73,3.2a.58.58,0,0,1-.09-.25ZM11.5,19.29c2.21.38,4.42.62,6.55.82.12,1,.24,2.09.28,3.12-2.12-.18-4.25-.37-6.42-.7-.12-1.06-.25-2.13-.41-3.24Zm11.21,7.46c-2,.24-4.09.4-6.18.58-.08-1-.2-2.1-.37-3.12,2.09-.08,4.14-.25,6.18-.46.17,1,.29,2,.37,3ZM27,29.9c-2,.53-4,1.07-6,1.55-.12-1.23-.29-2.49-.5-3.72,2-.49,4-1,6-1.52A29.39,29.39,0,0,1,27,29.9Zm-2.13.9c2-.77,3.93-1.6,5.86-2.38a27.29,27.29,0,0,1,.61,3.4c-2,.82-4,1.64-6,2.43a25.38,25.38,0,0,0-.5-3.45Zm4.67,3.56c2-1.07,3.93-2.08,5.93-3.11,0,.2.09.36.12.57-2,1-4,2.1-6,3.11a2.8,2.8,0,0,0-.08-.57ZM7.28,19.62C5,18.76,2.62,17.78.2,16.67c0-1-.12-2.05-.2-3.08,2.49,1.25,4.91,2.25,7.24,3.17,0,1,0,1.92,0,2.86Zm4.34,4.31C9.45,23.47,7.24,23,5,22.32c0-.4-.08-.82-.08-1.22,2.25.64,4.5,1.19,6.67,1.63,0,.41,0,.78,0,1.2Zm4.06,4.25c-2-.06-4.14-.16-6.27-.33,0-.4,0-.82,0-1.23,2.13.22,4.21.32,6.31.41v1.15Zm30.81-13.1a.89.89,0,0,1,1.27-.24A.9.9,0,0,1,48,16.1L44.73,21l16.16-6-5.76-1.6a.88.88,0,0,1-.61-1.14.84.84,0,0,1,1.1-.62L62,13.39s0,0,0-.07L58.93,5l-5.24,8.11a4.86,4.86,0,0,1-2.25,1.73,4.4,4.4,0,0,1-2.82.06c-10.27-3.59-9.33-2.89-7.4,1.77,1.38,3.28,1.26,4.43,5.27-1.59Zm-5.73-4.87,8.43,2.94a2.16,2.16,0,0,0,1.6,0,2.73,2.73,0,0,0,1.35-1l5.24-8H57.3Z" style="fill:#ea2121;fill-rule:evenodd"/><path d="M9.5,1.65v0c2.58,1.39,5.12,2.62,7.58,3.69V3.76a.13.13,0,0,1-.08,0V5.3C14.57,4.24,12.06,3,9.5,1.65Z" style="fill:#f5f5f5"/><path d="M8.32,8.73v0c2.49,1.1,4.87,2,7.24,2.83,0-.41,0-.82-.08-1.23l-.07,0c0,.39,0,.79.08,1.17C13.14,10.71,10.78,9.82,8.32,8.73Z" style="fill:#f5f5f5"/><polygon points="57.26 4.12 57.32 4.03 57.24 4.03 40.7 10.18 40.83 10.22 57.26 4.12" style="fill:#f5f5f5"/><path d="M38.71,19.17l.06.08a6.71,6.71,0,0,1,1-.58C39.91,18.48,39.65,18.57,38.71,19.17Z" style="fill:#f5f5f5"/><path d="M55.14,13.44,60.76,15l.08,0-5.78-1.61a.75.75,0,0,1-.38-.23A.83.83,0,0,0,55.14,13.44Z" style="fill:#f5f5f5"/><path d="M31.11,15c.4,1.12.76,2.21,1.08,3.33-2,.41-4.06.81-6.09,1.18a.45.45,0,0,0,0,.08c2.05-.37,4.09-.79,6.14-1.19-.33-1.15-.7-2.24-1.11-3.4Z" style="fill:#f5f5f5"/><path d="M33.85,16.84a.25.25,0,0,1,0,.07c1.06-.38,4.41-1.82,4.94-1.7C38.84,14.75,35,16.39,33.85,16.84Z" style="fill:#f5f5f5"/><path d="M36.07,17.2s0,0,0,0c.51,1,1,2,1.43,3.08-2,.76-3.91,1.53-5.82,2.3l0,.08c1.92-.76,3.84-1.55,5.85-2.32C37.09,19.29,36.59,18.22,36.07,17.2Z" style="fill:#f5f5f5"/><path d="M47.86,15A.9.9,0,0,1,48,16.06L44.67,21l.16-.06L48,16.15A.92.92,0,0,0,47.86,15Z" style="fill:#f5f5f5"/><path d="M30.75,28.45a.05.05,0,0,1-.05,0,25.69,25.69,0,0,1,.59,3.32c-1.95.79-3.94,1.61-5.91,2.38v.1c2-.78,4-1.6,6-2.42A27.44,27.44,0,0,0,30.75,28.45Z" style="fill:#f5f5f5"/><path d="M15.62,28.15c-2,0-4.1-.17-6.2-.33v.06c2.13.18,4.22.3,6.27.33V27.08s0,0-.07,0Z" style="fill:#f5f5f5"/><path d="M35.44,31.32c0,.16.07.3.1.48-1.94,1-3.92,2.06-5.9,3.08V35c2-1,4-2.09,6-3.12,0-.19-.08-.37-.11-.57C35.48,31.29,35.46,31.32,35.44,31.32Z" style="fill:#f5f5f5"/><path d="M22.35,23.8H22.3c.15,1,.27,1.95.35,2.9-2,.26-4,.42-6.12.58a.19.19,0,0,0,0,.08c2.08-.16,4.13-.33,6.17-.57C22.64,25.8,22.52,24.81,22.35,23.8Z" style="fill:#f5f5f5"/><path d="M42.39,19.17a11.28,11.28,0,0,1-1.17-2.47C39.29,12,38.36,11.35,48.63,15a4.55,4.55,0,0,0,2.82-.08,4.9,4.9,0,0,0,2.26-1.72l5.21-8.06L58.87,5l-5.23,8.11a4.72,4.72,0,0,1-2.26,1.71,4.48,4.48,0,0,1-2.82.09c-10.27-3.6-9.33-2.91-7.41,1.75A9.13,9.13,0,0,0,42.39,19.17Z" style="fill:#f5f5f5"/><path d="M39,25.7a.31.31,0,0,0,.08.11c-1.92,1-3.83,2.12-5.7,3.18a.43.43,0,0,0,0,.07c1.88-1,3.8-2.16,5.72-3.18,0,0-.07-.12-.12-.2S39,25.7,39,25.7Z" style="fill:#f5f5f5"/><path d="M41.5,23.1a.61.61,0,0,0,.07.1c-.66.36-1.31.73-2,1.06,0,0,0,0,.06.06.69-.33,1.35-.69,2-1.05,0,0-.08-.13-.12-.17Z" style="fill:#f5f5f5"/><path d="M7.26,16.8s0,0-.08,0c0,1,0,1.9,0,2.82C5,18.73,2.6,17.76.21,16.67v0c2.42,1.11,4.79,2.09,7.08,3C7.29,18.72,7.29,17.78,7.26,16.8Z" style="fill:#f5f5f5"/><path d="M11.59,22.76h-.07a10.57,10.57,0,0,0,0,1.12C9.41,23.45,7.23,23,5,22.31v0c2.26.66,4.46,1.16,6.63,1.6A11.44,11.44,0,0,1,11.59,22.76Z" style="fill:#f5f5f5"/><path d="M39.46,24.17s0,0,0,0,0,0,0,0Z" style="fill:#f5f5f5"/><path d="M21.63,8.57c.12.86.24,1.72.33,2.58-2.27-.48-4.63-1.1-7-1.78,0,0,0,0,0,0,2.37.7,4.75,1.32,7,1.81-.09-.85-.21-1.71-.33-2.56h0C21.67,8.61,21.67,8.61,21.63,8.57Z" style="fill:#f5f5f5"/><path d="M21.72,8.66s0,0,0,.07c2.27.35,4.5.6,6.73.84l.18,0c-.2-1.21-.44-2.43-.73-3.64h-.05c.28,1.21.52,2.41.72,3.62C26.31,9.27,24,9,21.72,8.66Z" style="fill:#f5f5f5"/><path d="M11.91,22.51s0,0,0,.06c2.17.33,4.3.53,6.42.7,0-1-.16-2.1-.28-3.12H18c.12,1,.24,2.05.29,3.05C16.17,23,14.06,22.81,11.91,22.51Z" style="fill:#f5f5f5"/><path d="M13.71,16.08a.56.56,0,0,1,0,.07c2.3.48,4.5.84,6.67,1.13-.08-1.07-.24-2.12-.36-3.19a.08.08,0,0,1-.07,0c.12,1,.28,2.1.36,3.15C18.17,16.93,16,16.56,13.71,16.08Z" style="fill:#f5f5f5"/><path d="M24.48,17.57h-.05c.28,1.24.51,2.53.72,3.78-2.07.12-4.13.21-6.21.24,0,0,0,.05,0,.08,2-.05,3.95-.11,5.91-.23l.34-.07C25,20.11,24.77,18.81,24.48,17.57Z" style="fill:#f5f5f5"/><path d="M23.93,25.56s0,.05,0,.07c2-.44,4-.94,6-1.42-.25-1.24-.53-2.42-.9-3.65H29a35.47,35.47,0,0,1,.87,3.56Q26.92,24.88,23.93,25.56Z" style="fill:#f5f5f5"/><path d="M20.58,15.25a.25.25,0,0,0,0,.07c2.2.13,4.38.17,6.55.17-.25-1.24-.54-2.47-.82-3.74h-.06c.28,1.25.56,2.45.81,3.67C24.92,15.42,22.77,15.36,20.58,15.25Z" style="fill:#f5f5f5"/><path d="M63.86,13,60.58,4.18a2.94,2.94,0,0,0-.69-1.09,3,3,0,0,1,.62,1L63.78,13a2.9,2.9,0,0,1,0,2,.13.13,0,0,1,0,.11.75.75,0,0,1-.16.37A3,3,0,0,1,62,16.85L45,23.2a3.1,3.1,0,0,1-2.32-.09c-2.86-1.3-1.89-.86-5.46,1.26a.59.59,0,0,1,0,.08c3.6-2.14,2.62-2.58,5.48-1.26a3.11,3.11,0,0,0,2.34.08L62.1,16.91a2.88,2.88,0,0,0,1.59-1.35.7.7,0,0,0,.17-.37.14.14,0,0,0,0-.11A3,3,0,0,0,63.86,13Z" style="fill:#f5f5f5"/><path d="M26.53,26.24a.11.11,0,0,1-.06,0,27.75,27.75,0,0,1,.48,3.6c-2,.53-3.93,1-5.91,1.53v.09c1.88-.46,3.72-.95,5.59-1.45L27,29.9A28.66,28.66,0,0,0,26.53,26.24Z" style="fill:#f5f5f5"/><path d="M27.77,13.66s0,0,0,.06c2.13-.24,4.25-.57,6.42-.85-.45-1.24-.89-2.47-1.39-3.73h0c.48,1.24.92,2.45,1.37,3.64C32,13.08,29.88,13.4,27.77,13.66Z" style="fill:#f5f5f5"/><path d="M28.84,28.33a.37.37,0,0,1,0,.09c2-.78,3.89-1.6,5.85-2.37-.29-1.06-.61-2.12-1-3.19h0c.4,1,.71,2.06,1,3.11C32.7,26.75,30.78,27.56,28.84,28.33Z" style="fill:#f5f5f5"/><path d="M35.22,9a.46.46,0,0,0,.07.07C37.67,8.6,39.87,8,42,7.37a8.24,8.24,0,0,1-.82-1v0c.23.33.49.63.76.95C39.8,7.91,37.59,8.52,35.22,9Z" style="fill:#f5f5f5"/></g></g></svg>