<svg xmlns="http://www.w3.org/2000/svg" xmlns:xlink="http://www.w3.org/1999/xlink" viewBox="0 0 101.51 67.51"><defs><linearGradient id="linear-gradient" x1="105.24" y1="46.32" x2="-2.29" y2="46.32" gradientUnits="userSpaceOnUse"><stop offset="0" stop-color="#ff00d1"/><stop offset="1" stop-color="#30309d"/></linearGradient><linearGradient id="linear-gradient-2" x1="93.97" y1="33.75" x2="0.45" y2="33.75" xlink:href="#linear-gradient"/></defs><title>Asset 270</title><g style="isolation:isolate"><g id="Layer_2" data-name="Layer 2"><g id="Layer_3" data-name="Layer 3"><path d="M49.64,67.51H35.46a23.47,23.47,0,0,1-21-13L0,25.14H14.18a23.46,23.46,0,0,1,21,13Z" style="fill:url(#linear-gradient)"/><path d="M41.08,53.26a23.47,23.47,0,0,1-11,13.62A23.31,23.31,0,0,0,35.43,66L39,65l8.27-2.39L41.54,50.92l-.44,2.37Z" style="opacity:0.2;mix-blend-mode:multiply"/><path d="M87.33,0a23.46,23.46,0,0,0-21,13L44.45,56.88l0,0a23.49,23.49,0,0,1-14.31,10,23.71,23.71,0,0,0,5.34.63H53.32a23.46,23.46,0,0,0,21-13L101.51,0Z" style="fill:url(#linear-gradient-2)"/></g></g></g></svg>