<svg xmlns="http://www.w3.org/2000/svg" viewBox="0 0 27.51 21.35"><title>Asset 230</title><g id="Layer_2" data-name="Layer 2"><g id="Layer_3" data-name="Layer 3"><path d="M27.51,0a28.15,28.15,0,0,1-1,3.34,33.51,33.51,0,0,1-2.2,4.78l-.06.1c-.15.28-.32.56-.49.84s-.36.57-.55.85-.39.58-.6.86l-.53.72a36.93,36.93,0,0,1-5.54,5.77l-.76.62s0,0,0,0q-.39.32-.78.6l-.83.6c.53.34,1.06.72,1.58,1.12a38,38,0,0,1-4.05,1.12h0c-.2-.13-.36-.24-.55-.35L11,21l-.34-.2,0,0-.1-.05c-.19-.11-.38-.22-.58-.32s-.39-.21-.59-.3-.66-.31-1-.45-.68-.26-1-.39l-.41-.14L6.8,19l-.5-.14L6,18.79l-.11,0a2.33,2.33,0,0,0-.32-.1l-.08,0a19.93,19.93,0,0,0-2.54-.5l-.58-.07L1.81,18C1.17,18,.56,18,0,18a30.12,30.12,0,0,1,.94-3.19A24.38,24.38,0,0,1,11,17.3c.24-.15.48-.3.71-.46a31.71,31.71,0,0,0,4-3.22l.77-.74A35.19,35.19,0,0,0,20,9l.34-.48a20.38,20.38,0,0,0,1.19-1.88l.07-.1c.22-.41.43-.8.63-1.2l0,0a12,12,0,0,1,3.47-4.1A12.74,12.74,0,0,1,27.51,0Z" style="fill:#1d302a"/></g></g></svg>