<svg xmlns="http://www.w3.org/2000/svg" xmlns:xlink="http://www.w3.org/1999/xlink" viewBox="0 0 24.39 30.38"><defs><linearGradient id="linear-gradient" x1="-4202.2" y1="-2830.96" x2="-4215.63" y2="-2839.14" gradientTransform="matrix(-1, 0, 0, -0.84, -4193.23, -2355.8)" gradientUnits="userSpaceOnUse"><stop offset="0.22"/><stop offset="0.28" stop-color="#080808"/><stop offset="0.38" stop-color="#1f1f1f"/><stop offset="0.49" stop-color="#444"/><stop offset="0.63" stop-color="#777"/><stop offset="0.78" stop-color="#b8b8b8"/><stop offset="0.93" stop-color="#fff"/></linearGradient><mask id="mask" x="3.23" y="16.68" width="17.35" height="13.19" maskUnits="userSpaceOnUse"><rect x="3.92" y="17.76" width="15.96" height="11.03" transform="translate(-3.18 1.92) rotate(-8.15)" style="fill:url(#linear-gradient)"/></mask></defs><title>Asset 256</title><g id="Layer_2" data-name="Layer 2"><g id="Layer_3" data-name="Layer 3"><path d="M18.13,7.74a9.9,9.9,0,0,0-7.23.06,5.4,5.4,0,0,0-2.6,2.31,3.25,3.25,0,0,0,.11,3.21c1.48,2.06,8.24,2.88,10.84,3.56a7.36,7.36,0,0,1,3.36,1.85c4,4.07.75,8.81-4.56,10.52C-11.22,38.58-.4-13.56,18.86,3.43,22,6.11,23.66,10,18.13,7.74Zm.2-2.12c-15.74-17.16-26,29.69-.76,21.5C21.74,25.79,24,22.35,20,19.8c-4.17-2.62-9.28-.72-12.89-4.23a4.93,4.93,0,0,1-1.49-4.72,6.62,6.62,0,0,1,3-4.36c3-2,6.42-1.79,9.68-.87Z" style="fill:#141515"/><path d="M17.52,5.19C3.73-9.86-6.39,33.4,15.73,26.26c3.63-1.2,5.49-3.9,2.05-6.07-3.69-2.37-7.87-1.64-11-4.73-2.65-2.54-1.14-7,1.2-8.81a10.72,10.72,0,0,1,9.53-1.46Z" style="fill:#dd2a1b;fill-rule:evenodd"/><g style="mask:url(#mask)"><path d="M8.19,25.94c.2,0,5.59.95,9-1.16s-1-5.4-4.64-5.87S8.19,25.94,8.19,25.94Z" style="fill:#f5f5f5;fill-rule:evenodd"/></g></g></g></svg>