<svg xmlns="http://www.w3.org/2000/svg" viewBox="0 0 27.85 31.08"><title>Asset 246</title><g id="Layer_2" data-name="Layer 2"><g id="Layer_3" data-name="Layer 3"><path d="M11.4,16.8A2.45,2.45,0,1,1,9,19.24,2.41,2.41,0,0,1,11.4,16.8Zm0,1.48a1,1,0,1,1-.93,1,.95.95,0,0,1,.93-1Z" style="fill:#f60;fill-rule:evenodd"/><path d="M17.86,16.8a2.45,2.45,0,1,1-2.37,2.44,2.41,2.41,0,0,1,2.37-2.44Zm0,1.48a1,1,0,1,1-.93,1,.95.95,0,0,1,.93-1Z" style="fill:#f60;fill-rule:evenodd"/><path d="M12.47,24h4.64a1,1,0,0,1,1,1h0a1,1,0,0,1-1,1H12.47a1,1,0,0,1-1-1h0a1,1,0,0,1,1-1Z" style="fill:#f60;fill-rule:evenodd"/><path d="M27.16,4.64l-5,7.81a12,12,0,0,0-5.08-2.08,11,11,0,0,0-3.34,0,10.7,10.7,0,0,0-3.19,1,12.6,12.6,0,0,0-2.74,1.86,12.76,12.76,0,0,0-1.36,1.48L0,9.26a7.79,7.79,0,0,0,5.26,1.09c4.28-.66,7.26-4.85,7.1-9.68C13.63,5.33,17.74,8.45,22,7.79a7.88,7.88,0,0,0,5.15-3.15Z" style="fill:#f60;fill-rule:evenodd"/><path d="M12.27,0A.66.66,0,0,1,13,.58a.66.66,0,0,1-.56.75.65.65,0,0,1-.75-.57A.66.66,0,0,1,12.27,0Z" style="fill:#f60;fill-rule:evenodd"/><path d="M27.08,3.93a.67.67,0,0,1,.21,1.33.66.66,0,0,1-.77-.55.69.69,0,0,1,.56-.78Z" style="fill:#f60;fill-rule:evenodd"/><path d="M15.37,10.33A10.38,10.38,0,1,1,7.81,12.8a10.34,10.34,0,0,1,7.56-2.47Zm5,5.41a7.59,7.59,0,0,0-5.2-2.64,7.49,7.49,0,0,0-5.53,1.81,7.61,7.61,0,1,0,10.73.83Z" style="fill:#f60"/></g></g></svg>