<svg xmlns="http://www.w3.org/2000/svg" viewBox="0 0 94.58 29.65"><title>Asset 197</title><g id="Layer_2" data-name="Layer 2"><g id="Layer_3" data-name="Layer 3"><path d="M27.29,16.37c2.17.14,3.4-1.71,2.92-4.12-.44-2.56-2.47-4.86-4.63-5S22,9,22.46,11.38a6.24,6.24,0,0,0,4.83,5Z" style="fill:#7aae25;fill-rule:evenodd"/><path d="M86.88,18.22c5.61-2.7,11.51.84,4.52,4.13-36.64,17.07-43.95.7-61.19-13.53-9.29-7.81-9.15,1.86-8.52,6.83.3,3-2.49,3.71-2.78.43C18.28,1.15,7.1,3.27,1.21,8.26-.35,9.55-.35,9,.9,7.54c25.9-30,49.82,42.12,66,.72,2-4.42,5.75-2.28,3.72,2-3.72,7.55-10.39,22.91,16.3,8Z" style="fill:#3976cf;fill-rule:evenodd"/><path d="M55.55,19.22c4.18-.86,5.43-5.28,2.63-9.67-2.63-4.43-8.4-7.26-12.42-6.28-4.19.86-5.43,5.28-2.82,9.68,2.82,4.42,8.4,7.26,12.61,6.27Z" style="fill:#7aae25;fill-rule:evenodd"/></g></g></svg>