<svg xmlns="http://www.w3.org/2000/svg" xmlns:xlink="http://www.w3.org/1999/xlink" viewBox="0 0 109.32 63.79"><defs><linearGradient id="linear-gradient" x1="8.32" y1="27.58" x2="115.37" y2="35.19" gradientUnits="userSpaceOnUse"><stop offset="0" stop-color="#4de89e"/><stop offset="0.12" stop-color="#3edbbb"/><stop offset="0.29" stop-color="#2eceda"/><stop offset="0.43" stop-color="#25c5ed"/><stop offset="0.52" stop-color="#21c2f4"/><stop offset="0.98" stop-color="#2597d6"/></linearGradient></defs><title>Asset 208</title><g id="Layer_2" data-name="Layer 2"><g id="Layer_3" data-name="Layer 3"><path d="M10,27.27C7,29,2.48,28.81,1.19,25.19c-.7-1.93,0-4.15.89-5.88a11.46,11.46,0,0,1,4.6-4.4C15,10.5,23.94,16.49,30,21.93c2.08,1.83,4.21,3.61,6.44,5.3a52.14,52.14,0,0,0-8-3.91,14.69,14.69,0,0,0-13.15,1.14,12,12,0,0,0-4.9,6.08A9.49,9.49,0,0,0,11,38c4.05,8,17.12,4.2,14.34-3.82a5.35,5.35,0,0,0-4.16-3.56A4.15,4.15,0,0,0,16.62,34a3.06,3.06,0,0,0,.56,2.12c.48.7.83.45.39-.1-2-2.56,1.63-6.33,5-4.3a3.71,3.71,0,0,1,2,3.22c.2,3.61-3.27,6-6.63,5.29a5.68,5.68,0,0,1-3.22-1.93c-3.41-3.91-1.63-9.2,2.48-11.88,4.85-3,9.74-1.68,13.8-.14,3.66,1.38,7.17,3.35,10.74,5.09.69.35,1.42.69,2.17,1-.25,0-.5,0-.69,0a19.24,19.24,0,0,0-3.86-.21,15,15,0,0,0-7,2.08c-2.78,1.84-4.89,5.65-3.27,8.91a3.05,3.05,0,0,0,3,1.79,4.08,4.08,0,0,0,3-2.29h0c-1,1.59-3.31,2.67-4.9,1.19a4.29,4.29,0,0,1-1-3.16c1-3.32,5.06-3.22,11-1.79v-.83c.53-4.51,5.38-7,9.48-7C57.29,31,62.23,37.62,67.42,43c-1.77-3.37-2.22-7.53.15-10.75a4.76,4.76,0,0,1,5-1.93c2,.6,3.22,2.42,4,4.26h0c-1.1-2.62-4.31-4.91-7.07-3.07A6.61,6.61,0,0,0,67,36a9.15,9.15,0,0,0,.88,5.38,11.71,11.71,0,0,0,6.84,6.05,10.9,10.9,0,0,0-6.18,4.45c-4.61,7.13,2.9,15.2,9,10.55,4.6-3.57,1-9.46-3-8.17A3.1,3.1,0,0,0,72.48,58a2.1,2.1,0,0,0,3,1.29c.58-.3.38-.6-.16-.25C73.52,60,72,57.66,73,55.93a3,3,0,0,1,2.87-1.39,2.8,2.8,0,0,1,2.38,1.53,4,4,0,0,1-.6,4.37,4.09,4.09,0,0,1-2.27,1.33,5,5,0,0,1-5.15-2.42,6.22,6.22,0,0,1,.4-6.74c2.33-3.56,6-4.16,9.26-4.41a2.83,2.83,0,0,0,.58,0,48.69,48.69,0,0,0,5.54,0c.89.06,1.83.11,2.72.11.65,0,1.24,0,1.84,0-.16,0-.35.09-.5.15a26.86,26.86,0,0,0-2.68,1.09,11,11,0,0,0-4.09,3.61c-1.34,2.08-1.57,5.34.53,7a2.34,2.34,0,0,0,2.63.31,3.36,3.36,0,0,0,1.34-2.48s-.9,3.31-3,2.32a3.3,3.3,0,0,1-1.73-1.83C79.79,51,94.38,49.84,98.58,47.07a4.72,4.72,0,0,0,.89-.25,51.84,51.84,0,0,1-7.66.9,3.18,3.18,0,0,1-.63,0,34.2,34.2,0,0,1-4.06-.94A12.76,12.76,0,0,1,78.7,39.3a9,9,0,0,1,4.66-11.78,92.56,92.56,0,0,1-10.74-1C67.38,25.6,61.39,24,58.18,17.78c-1.54-3-2.38-7.34.49-11,2-2.61,5.54-4.25,8.81-3.12A7,7,0,0,1,71,6.19a6.42,6.42,0,0,1,.21,7.18,4.53,4.53,0,0,1-4.12,2.17,5,5,0,0,1-4.45-2.77c-1.29-3,1.59-6.58,4.36-4.6.84.59,1.18.2.3-.4A3.49,3.49,0,0,0,62.13,9.4c-1.19,2.58.69,5.51,2.78,6.39,6.38,2.72,13.24-6.28,6.28-12.86C62-5.69,48.38,6.29,54.81,18.66A18,18,0,0,0,68,28a61.58,61.58,0,0,0,10.88.84c-3.37.45-6.73,1-10,1.63-9.81,2-23,2.72-29.05-7.07a13.2,13.2,0,0,1-2.13-7.53c.11-2.38.8-5.15,2.68-6.78,3.61-3,8.56-.35,10.53,3.22h0s.05,0,.05,0c-1.33-2.48-3.31-4.91-6.28-5.4A6.68,6.68,0,0,0,37.9,10.5C35,15.4,36.32,21.24,39.43,25.74,31.12,19,23.05,10.4,12.37,11.73,6.49,12.33,0,16.73,0,23.21a5.43,5.43,0,0,0,3.32,5.31c2.27.88,4.7,0,6.63-1.19v-.06ZM40.82,39.06c2.41.59,5.14,1.43,8.11,2.31a7.53,7.53,0,0,1,1.82-1.22,10.3,10.3,0,0,1,9.26.24,40.46,40.46,0,0,1,5.24,3.36c-1.39-1.33-2.72-2.72-4-4.2-3.8-4.21-9.6-9.11-15.68-6.68A7.7,7.7,0,0,0,42,35.54a6,6,0,0,0-1.18,3.52Zm10.48,3c5,1.53,10.54,3.16,16.33,4.35-2-1.3-4-2.68-6-3.77-2.72-1.38-6-2.72-9.6-.93a3.74,3.74,0,0,0-.69.35Zm43.28,5c1.4-.35,2.77-.69,4.15-1.18a11.75,11.75,0,0,1-3.22-4.61c-1-2.67-.49-6.38,2.34-7.77a2.71,2.71,0,0,1,3,.3A3.74,3.74,0,0,1,101.7,37h0c.1-1.58-.94-3.5-2.77-3.31a3.78,3.78,0,0,0-2.32,1.62,5.42,5.42,0,0,0-.94,2.93c-.11,3.42,2,5.35,4.94,7a37.09,37.09,0,0,0,8.71-5c-6.53-17.82-29.47-12.67-30.56-25.83a7.46,7.46,0,0,1,.84-4.31,5.24,5.24,0,0,1,3.07-2.73c2.56-.58,4.34,2,4.45,4.31h0a5.09,5.09,0,0,0-1.79-4.31,3.73,3.73,0,0,0-4.26.06C77.32,9.9,77.16,15.25,79,18.91a18.12,18.12,0,0,0,6.12,6.58,32.93,32.93,0,0,0,4.16,2.18,7.41,7.41,0,0,0,.79.35L89.44,28a8.54,8.54,0,0,1,1.88,1.64c4.35,5.15-1.14,10.89-5.35,8.47-1.39-.8-2.47-3-1.42-4.66a2.4,2.4,0,0,1,3.65-.74c.6.49.35.74-.19.25-1.79-1.59-4.06.74-3.43,2.87a3.48,3.48,0,0,0,2.89,2.28,3.16,3.16,0,0,0,3.06-1.2,4.49,4.49,0,0,0,.39-5,5,5,0,0,0-2.23-2.08,5.75,5.75,0,0,0-6.38,1.48,7.06,7.06,0,0,0-1.18,7.62c1.73,4.61,5.78,6.19,9.34,7.23,1.34.39,2.73.69,4.11,1Z" style="fill-rule:evenodd;fill:url(#linear-gradient)"/></g></g></svg>