<svg xmlns="http://www.w3.org/2000/svg" viewBox="0 0 101.74 104.06"><title>Asset 233</title><g id="Layer_2" data-name="Layer 2"><g id="Layer_3" data-name="Layer 3"><path d="M98,63.82c10,26.66-18.26,41.31-29.78,33.38,1.28,4.74,4.47,5.49,5.77,5.65C46.1,108.74,41.26,91.2,41.26,91.2c-1.59,5.4,0,9,0,9-11-6.36-12.13-15.89-12.23-18,1.79-1.81,4.07-3.76,6.56-5.88,8.73-7.43,19.6-16.68,20-29.74.31-10.25-4.85-16-9.42-21.13a42.31,42.31,0,0,1-4.92-6.21l0,0a.73.73,0,0,0-.09-.08h0C39.94,18,39.1,15.87,39,13.4v0a13.12,13.12,0,0,1,.21-3.1C40.1,5.32,44,.25,53,0a28.8,28.8,0,0,0-7.18,8.71C48.53,5.92,52.93,3.37,60,2.15,68.38.72,80.07,3,86,7.32a36.7,36.7,0,0,1,9.36,10.26,40.48,40.48,0,0,1,5.91,17C102.93,51.2,99.94,59.5,98,63.82Z" style="fill:#5a3312"/><path d="M55.58,46.53c-.39,13.06-11.26,22.31-20,29.74-2.49,2.12-4.77,4.07-6.56,5.88,0-.28,0-.43,0-.43a8.39,8.39,0,0,0-5.39,1.41,0,0,0,0,0,0,0c-2.21,1.42-3.63,3.38-6.09,3.25-7.7-.35-8.06-9.13-8.06-9.13A16,16,0,0,0,5.2,67.93l-.39-.38a17.17,17.17,0,0,1-2.21-2C.82,63.74-1.1,60.86.76,58.4c2.71-3.58,5.2-4.51,9.28-7,.52-.31,1.07-.67,1.66-1.06a51.75,51.75,0,0,0,6.17-4.88l0,0a56.67,56.67,0,0,0,6.81-7.31C26,36.29,31.84,27,38.44,21.32a28,28,0,0,1,2.8-2.13,42.31,42.31,0,0,0,4.92,6.21C50.73,30.5,55.89,36.28,55.58,46.53Z" style="fill:#5a3312"/><path d="M17.87,45.43c-3,3.46-4.85,7.7-6.66,11.82C9.53,61.06,7.8,65,5.2,67.93l-.39-.38a17.17,17.17,0,0,1-2.21-2c2.21-2.52,3.74-6,5.4-9.76.66-1.48,1.33-3,2-4.46.52-.31,1.07-.67,1.66-1.06A51.75,51.75,0,0,0,17.87,45.43Z" style="fill:#fff"/><path d="M55.58,46.53c-.39,13.06-11.26,22.31-20,29.74-2.49,2.12-4.77,4.07-6.56,5.88,0-.28,0-.43,0-.43a8.39,8.39,0,0,0-5.39,1.41c2-3,5.6-6,9.69-9.52,8.2-7,18.41-15.68,18.75-27.19.28-8.85-4.19-13.85-8.52-18.68a48,48,0,0,1-5.11-6.42,28,28,0,0,1,2.8-2.13,42.31,42.31,0,0,0,4.92,6.21C50.73,30.5,55.89,36.28,55.58,46.53Z" style="fill:#fff"/></g></g></svg>