<svg xmlns="http://www.w3.org/2000/svg" viewBox="0 0 39.85 23.24"><title>Asset 251</title><g id="Layer_2" data-name="Layer 2"><g id="Layer_3" data-name="Layer 3"><path d="M36.59,17.47a11.54,11.54,0,0,1-1.38,1.23L35,23.24l-3.13-1.09c-6.42-2.23-13.9-.64-20.69-.24a11.28,11.28,0,0,1-7.66-2.43A9.35,9.35,0,0,1,0,12.8,9.18,9.18,0,0,1,1.36,7.53,9.72,9.72,0,0,1,3,5.47C6.23,7,7.14,7.23,5.64,9.69a4.84,4.84,0,0,0-.72,2.82,5,5,0,0,0,1.88,3.6l0,0c1.77,1.66,4.51,1.39,7.15,1.08,7.31-.85,12.49-.92,18.28,1.77l.15-3.89c3.78-2.62,2.86-7.22.12-9.43-2-1.64-5.1-2-8,.82a20.27,20.27,0,0,0-2.9,4.24c-1.55,2.54-3.32,4.71-7.3,3.28C18,8.84,19.5.51,28,0a11.72,11.72,0,0,1,8.09,2.55,9.81,9.81,0,0,1,3.71,7.08,9.68,9.68,0,0,1-.73,4.27,10.91,10.91,0,0,1-2.52,3.55Z" style="fill:#e51b13"/><path d="M25.24,8.12l6.89-.42a.82.82,0,0,1,.88.75h0a.79.79,0,0,1-.79.8l-6.89.42a.82.82,0,0,1-.89-.73h0a.81.81,0,0,1,.8-.82Zm-1.06,5.05,6.89-.4a.83.83,0,0,1,.89.73h0a.8.8,0,0,1-.8.8l-6.88.41a.82.82,0,0,1-.9-.71h0a.82.82,0,0,1,.8-.83Zm-1.4-2.4,10.28-.6a.83.83,0,0,1,.89.72h0a.8.8,0,0,1-.8.81l-10.28.62a.81.81,0,0,1-.88-.73h0a.81.81,0,0,1,.79-.82Z" style="fill:#6d6c6c;fill-rule:evenodd"/></g></g></svg>