<svg xmlns="http://www.w3.org/2000/svg" viewBox="0 0 51.36 70.86"><title>Asset 179</title><g id="Layer_2" data-name="Layer 2"><g id="Layer_3" data-name="Layer 3"><path d="M41,30V44.15a2,2,0,0,1-2,2H29.79c-.95,8.71-2.08,16.06-1.87,22.22.07,2.09.23,4.11-.11.45a147.67,147.67,0,0,1,.52-33.13l2.65.95c3.39,1.2,3.16,1.42,1.18-1.17-5.65-7.3-9.21-11.94-9.33-11.94s-4.67,4.71-11.48,15.11c-1.69,2.59-1.85,2.26,1.08,1.19l4-1.31c-.63,6.73-1.08,14-.06,20.87-1.26-6-1.93-9-2.21-13.24H8.59a2,2,0,0,1-2-2V30.24c0-5.6-.28-4.26,3.8-8.27C28.15,5.26,21.26,5.48,38,22.77c3.06,3.38,3,1.75,3,7.24ZM43.3,11.18a2.79,2.79,0,0,0-2.77-2.82,2.76,2.76,0,0,0-2.7,2.82c0,1.76-2.16-1.47-5.44-5.32-7-8.06-8.19-7.46-15.55-.33C4.91,17.12-2.09,23.11.56,27c3.38,4.8,18-28.38,29.23-16.45l14,14.64c17.37,18.1-.46-3.05-.46-14ZM23.91,14.07c-5.08,0-6.11,8.41-1,8.41,6.34-.27,7.45-8.75,1-8.41Z" style="fill:#8e9053;fill-rule:evenodd"/></g></g></svg>