<svg xmlns="http://www.w3.org/2000/svg" viewBox="0 0 65.58 45.11"><title>Asset 193</title><g id="Layer_2" data-name="Layer 2"><g id="Layer_3" data-name="Layer 3"><path d="M41,6.8A15.49,15.49,0,1,0,52.88,35.43a14.34,14.34,0,0,0,5.78-4.19,15,15,0,0,1-17.23,3.22A9.58,9.58,0,0,1,42.16,32a9.25,9.25,0,0,1,2.32-3.14,6.43,6.43,0,0,0,2.3-.27h0a6.38,6.38,0,0,0,2-1.13,9,9,0,0,1,3.77,1.14A13.08,13.08,0,0,1,56.19,32l1.2-.39a13.84,13.84,0,0,0-4.28-4,10.37,10.37,0,0,0-3.33-1.24l0,0a12.87,12.87,0,0,1,9.68,3.89c.12-.22.29-.43.42-.65a13,13,0,0,0-3.57-2.38,4.52,4.52,0,0,0,.93-.21h0a3.65,3.65,0,0,0,1.54-.87,6.37,6.37,0,0,1,2.54.72c.13-.33.24-.63.37-.94l-1-.41.07-.28,1.11.15a15.77,15.77,0,0,0-.61-10.18A15.5,15.5,0,0,0,41,6.8ZM39,33c.42.29.88.58,1.34.88a12.05,12.05,0,0,1,.77-2.38A10.55,10.55,0,0,1,43,28.6h-.06A12.83,12.83,0,0,0,39,33ZM54.19,17.89a4.24,4.24,0,0,0-2.73,5.43h0a4.32,4.32,0,0,0,5.41,2.78h0a4.31,4.31,0,0,0,2.73-5.43h0a4.28,4.28,0,0,0-5.41-2.78Zm-11.3-.8A5.5,5.5,0,0,0,39.39,24h0a5.49,5.49,0,0,0,6.89,3.48h0a5.47,5.47,0,0,0,3.47-6.87h0a5.5,5.5,0,0,0-6.86-3.48ZM16.47,25.27C8,30.84,3.71,33.34,0,34.49v0a73.17,73.17,0,0,0,22.9-12l-.84-1.74-.2-.3a2.68,2.68,0,0,0-1.51-1.55h0a2.87,2.87,0,0,0-2.21,0L15,20.27a.54.54,0,0,0-.24.1,6.5,6.5,0,0,0,.51,2.13Zm11.37,9.64a93,93,0,0,1-14,7.38c1.67-.52,7.29-2.76,8.36-3.18l.46,1.14a10.26,10.26,0,0,0,.72,1.3c.15-.07.29-.09.44-.17l3.15-1.31a2.86,2.86,0,0,0,1.53-1.58h0a2.49,2.49,0,0,0,0-2.15l-.62-1.43Zm6.7-7.1a4.56,4.56,0,0,1-.62-1.31A14.1,14.1,0,0,1,41.56,8.08h0A14.11,14.11,0,0,1,60.45,25.22a.64.64,0,0,1,.28,0l0,.29-1-.25v0h0a5.3,5.3,0,0,1,.69,0,13.09,13.09,0,0,0-.71-8c-4.14-10-14.59-11.27-21.39-5.77-3.53,2.89-5.15,8.14-4.22,13.12l.18-.06a4,4,0,0,1,5.57,2.78h0a4.33,4.33,0,0,1-1.8,5,11.2,11.2,0,0,1-3.45-4.48ZM17.34,8.15l6.28-2.62a1.28,1.28,0,0,1,1.69.69L26.05,8,17.39,11.6l-.8-1.78a1.28,1.28,0,0,1,.75-1.67Zm2.16,4L47.46.6A7.92,7.92,0,0,1,57.77,4.87l2.86,7A16.58,16.58,0,0,0,40.63,6h0A16.64,16.64,0,0,0,49,37.85L32.93,44.51A7.91,7.91,0,0,1,24.57,43l3.07-1.28a4.65,4.65,0,0,0,2.53-2.51v-.05a4.86,4.86,0,0,0,0-3.54L23.61,19.77A4.9,4.9,0,0,0,21,17.23h0a4.66,4.66,0,0,0-3.61,0l-2.67,1.14a7.91,7.91,0,0,1,4.74-6.19Zm43.71,6.68L65,23.1a8,8,0,0,1-4.27,10.33l-3.57,1.48a16.66,16.66,0,0,0,6.06-16Z" style="fill:#5c984b;fill-rule:evenodd"/></g></g></svg>