<svg xmlns="http://www.w3.org/2000/svg" viewBox="0 0 80.69 58.31"><title>Asset 207</title><g id="Layer_2" data-name="Layer 2"><g id="Layer_3" data-name="Layer 3"><path d="M52.53,18.64c.88,4.69-4.64,2.56,1.32,10.5.74,1-.89,1.7-2.08,2s-.68.56-.56,1.37a8.28,8.28,0,0,1,.26,2.25c-.13.39-2.08.13-1.57.25a1.15,1.15,0,0,1,.75,1.51c-.37.56-1.93,1.55-1.93,2.81h0C48.58,49,37.83,36.4,36.51,41.9c-.63,2.7-3.26,1.07-6.58.44C29.56,35,31.31,31.71,38.7,26,64,6.32,1.91-10,10.55,19.52,13.29,29,21.62,37.46,30.13,44.35a7.46,7.46,0,0,0-4.95,1.44,7.31,7.31,0,0,0-3.24,5.07,3.43,3.43,0,0,0-.08.87C11.68,43,1.54,32.28.22,23.39-3.86-3.76,49.15-8.51,52.53,18.64ZM40.77,52.23A213.75,213.75,0,0,0,57.66,38c22.46-23.83-1.07-38.35-14-34.1,17-13.94,75.65,11.51-2.82,48.42Z" style="fill:#ed1b23"/><path d="M31.13,45.9a6.26,6.26,0,0,1,2.45,11.27A6.1,6.1,0,0,1,29,58.23,6.39,6.39,0,0,1,23.87,51a6.37,6.37,0,0,1,2.57-4.07,6.3,6.3,0,0,1,4.69-1Z" style="fill:#ed1b23;fill-rule:evenodd"/></g></g></svg>