<svg xmlns="http://www.w3.org/2000/svg" viewBox="0 0 53.55 48.3"><title>Asset 201</title><g id="Layer_2" data-name="Layer 2"><g id="Layer_3" data-name="Layer 3"><path d="M38.85,10.79C35.52,7.53,37,2.37,41,6.58c19.22,19.74,12.49,34.76,4.87,40.79-1.67,1.31-2.34,1.31-.82-.44,6-6.53,8.81-18.79-9.42-19.59-3.85-.37-3.06-3.49.65-3.13,6.68.73,19.89,1.89,2.53-13.42Zm2.63,3.92a11.17,11.17,0,0,1,3.05,2.47,5.41,5.41,0,0,1,1,2.24c.29,1.67,0,2.83-.94,3.64-1,.65-2.32.65-4.13.06a9.09,9.09,0,0,1-3.19-2c-.31-.36-.67-.79-1-1.3a4.49,4.49,0,0,1-.52-4.5,1.89,1.89,0,0,1,.74-.87c1-.66,2.69-.66,5,.22Z" style="fill:#848181;fill-rule:evenodd"/><path d="M14,20.22c-2.33,4.07-7.61,4-4.57-1C23.4-4.45,39.72-1.83,47.49,4c1.74,1.31,1.83,2-.22.86C39.44.7,26.81,1.29,30.8,19.07c.58,3.84-2.6,3.84-3.19.21-1-6.68-3.34-19.81-13.65.94Zm3.12-3.48a10.53,10.53,0,0,1,1.59-3.63,5.22,5.22,0,0,1,1.9-1.52,3.51,3.51,0,0,1,3.76-.07c.88.79,1.23,2,1.18,4a9.7,9.7,0,0,1-1.09,3.56,9.65,9.65,0,0,1-1,1.3c-1.24,1.38-2.61,2-4.2,1.66a1.55,1.55,0,0,1-1-.5c-.87-.73-1.31-2.39-1.09-4.79Z" style="fill:#7aae25;fill-rule:evenodd"/><path d="M37,33.85c4.29-1.89,8.58,1.23,3.2,3.55C15,48.36,3.25,36.67.36,27.46c-.67-2.1-.37-2.69.64-.58C5,34.78,15.52,41.75,22.7,25c1.75-3.49,4.36-1.61,2.78,1.66-3.13,6-8.85,18,11.52,7.19Zm-4.49,1a9.12,9.12,0,0,1-3.5,2,4.53,4.53,0,0,1-2.39.21c-1.76-.3-2.68-1-3.05-2.18s.15-2.39,1.4-3.92a8.45,8.45,0,0,1,3-2.24,7.41,7.41,0,0,1,1.53-.52,4.48,4.48,0,0,1,4.42,1.17,1.22,1.22,0,0,1,.52,1c.31,1.09-.3,2.69-1.88,4.5Z" style="fill:#3976cf;fill-rule:evenodd"/></g></g></svg>