<svg xmlns="http://www.w3.org/2000/svg" viewBox="0 0 126.64 140.63"><title>Asset 216</title><g id="Layer_2" data-name="Layer 2"><g id="Layer_3" data-name="Layer 3"><path d="M74.49,104.3a52.1,52.1,0,0,1-26.13-7l10.1-17.41a32,32,0,1,0,0-55.43L48.36,7A52.15,52.15,0,1,1,74.49,104.3Z" style="fill:#0064ad"/><circle cx="53.41" cy="88.65" r="21.22" transform="translate(-45.14 120.26) rotate(-76.72)" style="fill:#0064ad"/><path d="M52.06,140.63A52.07,52.07,0,1,1,92.24,55.44L76.71,68.25a31.95,31.95,0,1,0-1.37,42.18L90,124.21A52.23,52.23,0,0,1,52.06,140.63Z" style="fill:#0064ad"/></g></g></svg>