<svg xmlns="http://www.w3.org/2000/svg" viewBox="0 0 43.3 30.27"><title>Asset 250</title><g id="Layer_2" data-name="Layer 2"><g id="Layer_3" data-name="Layer 3"><path d="M9.2,12.39a13,13,0,0,1,26,.83A13,13,0,0,1,9.2,12.39Z" style="fill:#fff"/><path d="M34.54,17.9A13,13,0,0,1,8.6,17.06a13,13,0,0,1,25.94.84Z" style="fill:#fff"/><path d="M31.05,3.41a15.36,15.36,0,0,0,7.73.44,2.25,2.25,0,0,1,2.55,1.89h0A2.25,2.25,0,0,1,39.45,8.3l-1.65.24h0c-1,.16-1.84.25-2.64.31a14.94,14.94,0,0,1,1.13,8.39,2.45,2.45,0,0,1,0,.39,31.8,31.8,0,0,1,4.46-.95,2.25,2.25,0,0,1,2.57,1.88h0a2.27,2.27,0,0,1-1.89,2.55l-1.66.24h0c-8.33,1.27-6.65,7.47-15.63,8.73A15,15,0,0,1,9.59,23.91a10.63,10.63,0,0,0-6-2.78h0l-1.65-.26A2.25,2.25,0,0,1,0,18.33H0a2.27,2.27,0,0,1,2.57-1.89A32.68,32.68,0,0,1,7,17.38,15.15,15.15,0,0,1,8.34,8.63c-.85,0-1.78-.15-2.84-.3h0L3.85,8.06A2.23,2.23,0,0,1,2,5.53H2a2.22,2.22,0,0,1,2.54-1.9c4.52.67,7,0,9.1-1C19.2-1,25.78-1,31.05,3.41ZM24,8.17a6.7,6.7,0,0,1,2.12,1.16A2.71,2.71,0,0,0,24.47,11a2.67,2.67,0,0,0,1.62,3.41,2.61,2.61,0,0,0,2.63-.59,7.4,7.4,0,0,1-.32,3.56,7.11,7.11,0,1,1-13.47-4.55A7.25,7.25,0,0,1,24,8.17ZM21.64,26A10.88,10.88,0,1,0,10.75,15.11,10.89,10.89,0,0,0,21.64,26Z" style="fill:#136ce5"/></g></g></svg>