<svg xmlns="http://www.w3.org/2000/svg" viewBox="0 0 47.68 36.23"><title>Asset 269</title><g id="Layer_2" data-name="Layer 2"><g id="Layer_3" data-name="Layer 3"><path d="M42.82,9.65,45,19.59c1,4.8,2.15,4.86-2.33,3.91l-8-1.61c-2.48-.54-2.53-.25-.13-1.27l1.85-.77C20.16,2,4.58,1.31,1.88,8.87h0C5.46,2.54,15.11,2.8,32,20.33l-1.73.7c-2.2.95-2.16.66.13,1.17l13.43,3.34c3.76.8,4.36.44,3.52-2.88-1.6-6.26-2.71-11.15-4.89-17.36L40.2,9.67C35.58,5.22,33.54,3.94,27.85,0c4.67,3.58,8.8,8.47,12.63,12.66l1.11-3.1c.91-2.42.69-2.4,1.23.09Z" style="fill:#00a3d3;fill-rule:evenodd"/><path d="M4.85,26.58,2.72,16.64C1.66,11.87.57,11.78,5.05,12.73l8,1.61c2.5.53,2.53.24.13,1.26l-1.85.78c16.2,17.89,31.8,18.57,34.5,11h0c-3.56,6.36-13.23,6.07-30.11-11.45l1.71-.7c2.21-.92,2.19-.66-.12-1.18L3.87,10.68C.08,9.89-.51,10.25.34,13.59,2,19.85,3,24.72,5.21,31l2.28-4.38c4.6,4.44,6.63,5.72,12.33,9.66C15.18,32.64,11,27.76,7.18,23.58l-1.1,3.09c-.91,2.44-.67,2.39-1.23-.09Z" style="fill:#f10720;fill-rule:evenodd"/></g></g></svg>