<svg xmlns="http://www.w3.org/2000/svg" xmlns:xlink="http://www.w3.org/1999/xlink" viewBox="0 0 148.25 207.55"><defs><linearGradient id="Degradado_sin_nombre_4" x1="-14.83" y1="192.72" x2="163.07" y2="14.83" gradientUnits="userSpaceOnUse"><stop offset="0" stop-color="#f1ff01"/><stop offset="1" stop-color="#08e1ff"/></linearGradient><linearGradient id="Degradado_sin_nombre_4-2" x1="-3.89" y1="72.02" x2="98.11" y2="-8.31" xlink:href="#Degradado_sin_nombre_4"/></defs><title>Asset 154</title><g id="Layer_2" data-name="Layer 2"><g id="Layer_3" data-name="Layer 3"><rect width="148.25" height="207.55" style="fill:url(#Degradado_sin_nombre_4)"/><rect width="81.12" height="74.04" style="fill:url(#Degradado_sin_nombre_4-2)"/><polyline points="81.12 0 81.12 74.03 0 74.03" style="fill:none;stroke:#fff;stroke-miterlimit:10"/><g style="opacity:0.45"><polygon points="134.75 97.77 134.75 41.33 117.98 41.33 117.98 34.66 81.74 34.66 81.74 41.33 34.84 41.33 34.84 52.38 23.42 52.38 23.42 41.33 13.7 41.33 13.7 162.38 23.42 162.38 23.42 167.06 41.8 167.06 41.8 162.38 114.42 162.38 114.42 148.15 126.17 148.15 126.17 162.38 134.75 162.38 134.75 138.18 139.34 138.18 139.34 97.77 134.75 97.77" style="fill:#2c2c30;opacity:0.2"/><path d="M47.91,34.5l1.41,1.4-1.41,1.4-1.4-1.4Zm2.69,1.4L52,37.3l1.41-1.4L52,34.5Zm4.09,0,1.4,1.4,1.4-1.4-1.4-1.4Zm4.09,0,1.4,1.4,1.4-1.4-1.4-1.4Zm4.09,0,1.4,1.4,1.4-1.4-1.4-1.4Zm5.49-1.4L67,35.9l1.4,1.4,1.4-1.4Z" style="fill:#9bf424"/><path d="M63.73,159.52h-1l11.38-11.38h3.19l-5,5.05H70.07ZM75,153.19h2.17l5-5.05H79L67.6,159.52h1Zm4.88,0H82l5-5.05H83.86L72.48,159.52h1Zm4.89,0h2.17l5-5.05H88.74L77.37,159.52h1Zm4.88,0h2.17l5-5.05H93.63L82.25,159.52h1Zm4.89,0h2.17l5-5.05H98.51L87.13,159.52h1Zm4.88,0h2.17l5-5.05H103.4L92,159.52h1Zm4.89,0h2.17l5-5.05h-3.19L96.9,159.52h1Z" style="fill:#9bf424"/><path d="M98.09,38.9h4.65L94.4,47.24H89.75Zm18.7,0h-4.66l-8.34,8.34h4.66Zm-7,0h-4.66l-8.34,8.34h4.66Zm35.11,0h-4.65l-8.34,8.34h4.65Zm-21.07,0h-4.65l-8.34,8.34h4.65Zm14.05,0H133.2l-8.34,8.34h4.66Zm-7,0h-4.66l-8.34,8.34h4.66Z" style="fill:#097f00"/><polygon points="10.21 103.03 6.2 103.03 4.54 103.03 4.54 104.69 4.54 108.7 6.2 108.7 6.2 104.69 10.21 104.69 10.21 103.03" style="fill:#097f00"/><rect x="8" y="106.28" width="2.21" height="22.28" style="fill:#097f00"/><rect x="137.86" y="65.94" width="1.48" height="22.42" style="fill:#097f00"/><rect x="137.86" y="128.56" width="2.85" height="2.85" style="fill:#097f00"/><rect x="43.71" y="38.9" width="32.81" height="4.17" style="fill:#097f00"/><rect x="46.06" y="165.72" width="17.71" height="1.34" style="fill:#9bf424"/><rect x="67.6" y="165.72" width="18.04" height="1.34" style="fill:#9bf424"/><rect x="90.76" y="166.39" width="13.43" height="0.67" style="fill:#9bf424"/><rect x="110.13" y="166.39" width="7.75" height="0.67" style="fill:#9bf424"/><rect x="21.01" y="79.64" width="4.43" height="4.43" style="fill:#9bf424"/><rect x="136.01" y="114.75" width="3.32" height="3.32" style="fill:#9bf424"/><rect x="128.26" y="137.81" width="3.1" height="3.1" style="fill:#9bf424"/><rect x="21.01" y="139.36" width="56.36" height="1.55" style="fill:#097f00"/><polyline points="124.48 52.24 124.48 112.67 124.76 112.67 124.76 52.24" style="fill:#9bf424"/><polyline points="127.46 52.24 127.46 112.67 127.74 112.67 127.74 52.24" style="fill:#9bf424"/><polyline points="130.44 52.24 130.44 112.67 130.72 112.67 130.72 52.24" style="fill:#9bf424"/><rect x="27.24" y="47.24" width="3.23" height="18.7" style="fill:#9bf424"/><rect x="130.44" y="153.83" width="1.45" height="14.89" style="fill:#097f00"/></g><path d="M92.92,33.11A1.92,1.92,0,1,0,90.8,35V45.94h-3v.44h3.4V35A1.91,1.91,0,0,0,92.92,33.11Z" style="fill:#060a0f"/><polygon points="85.67 48.26 88.41 47.39 88.41 44.86 78.25 44.86 78.25 48.26 85.67 48.26" style="fill:#060a0f"/><path d="M58.91,33.11A1.92,1.92,0,1,1,61,35V45.94h3v.44H60.6V35A1.91,1.91,0,0,1,58.91,33.11Z" style="fill:#060a0f"/><polygon points="66.16 48.26 63.41 47.39 63.41 44.86 73.58 44.86 73.58 48.26 66.16 48.26" style="fill:#060a0f"/><polygon points="68.08 51.19 65.56 48.77 66.85 43.42 69.86 42.16 68.08 51.19" style="fill:#38103b"/><polygon points="84.25 51.19 86.76 48.77 85.48 43.42 82.47 42.16 84.25 51.19" style="fill:#1f0827"/><path d="M68,124l-.29.45a3.6,3.6,0,0,1-1.45-2.19,4.51,4.51,0,0,1,1-3.47l.44.32a3.94,3.94,0,0,0-.91,3A3.06,3.06,0,0,0,68,124Z"/><path d="M68.18,126.72l-.49.61a11.27,11.27,0,0,1-2.77-3.65,8.71,8.71,0,0,1,1-9.12l.64.45a7.91,7.91,0,0,0-1,8.34A10.67,10.67,0,0,0,68.18,126.72Z"/><polygon points="75.88 158.27 75.88 166.23 75.31 166.23 73.46 161.13 72.25 161.13 72.25 151.14 74.42 151.14 76.39 153.11 76.39 155.91 75.88 158.27" style="fill:#38103b"/><polygon points="76.21 83.85 65.56 79.8 65.56 88.6 69.97 92.92 76.21 92.92 76.21 83.85" style="fill:#27052c"/><path d="M76.21,71.45h-7.7L67.36,70.3l-5,0v8.32a9.05,9.05,0,0,1,7,5.26h6.94Z" style="fill:#7b2e52"/><polygon points="76.21 58.21 69.35 58.21 62.31 60.24 62.31 70.34 67.15 73.48 76.21 71.49 76.21 58.21" style="fill:#451b46"/><rect x="60.53" y="62.03" width="1.78" height="13.17" style="fill:#24042a"/><polygon points="60.53 70.3 52.96 74.25 50.48 72.85 50.48 60.19 60.53 60.19 60.53 70.3" style="fill:#38103b"/><path d="M50.48,60.19v-.07A2.17,2.17,0,0,1,52.22,58a4.74,4.74,0,0,0,3-1.54,2.15,2.15,0,0,1,1.83-1h0a2.2,2.2,0,0,1,2,1.32l1.46,3.39Z" style="fill:#c66665"/><path d="M50.48,59.37s-9.23,4.7,0,13.48Z" style="fill:#24042a"/><polygon points="53.54 73.95 53.54 80.11 58.81 80.11 61.01 77.91 61.01 69.29 53.54 73.95" style="fill:#24042a"/><polygon points="52.9 80.11 60.27 80.11 60.27 85.9 58.11 90.1 58.11 97.1 53.54 97.1 53.54 83.54 51.88 83.54 52.9 80.11" style="fill:#24042a"/><polygon points="51.88 83.54 53.54 97.1 53.54 83.54 51.88 83.54" style="fill:#38103b"/><polygon points="60.75 158.27 60.75 166.23 61.32 166.23 63.17 161.13 64.38 161.13 64.38 151.14 62.21 151.14 60.24 153.11 60.24 155.91 60.75 158.27" style="fill:#38103b"/><rect x="69.98" y="92.92" width="6.23" height="6.11" style="fill:#38103b"/><polygon points="69.97 95.97 67.33 98.61 67.33 97.51 65.03 99.03 65.03 112.86 66.55 112.86 66.55 101.4 69.97 99.03 69.97 95.97" style="fill:#7b2e52"/><polygon points="76.21 99.03 69.97 99.03 66.55 101.4 66.55 112.86 76.21 117.35 76.21 99.03" style="fill:#90619c"/><polygon points="65.03 112.86 68.08 122.79 72.92 115.82 66.55 112.86 65.03 112.86" style="fill:#38103b"/><polygon points="68.08 122.79 66.13 124.57 66.13 128.56 68.08 128.56 73.6 123.04 73.6 116.14 72.92 115.82 68.08 122.79" style="fill:#7b2e52"/><polygon points="68.08 128.56 68.08 133.99 69.97 133.99 73.57 130.4 73.57 123.04 68.08 128.56" style="fill:#38103b"/><polygon points="68.08 133.99 67.2 134.87 67.2 142.81 69.44 142.81 73.56 138.7 73.56 130.4 69.97 133.98 68.08 133.99" style="fill:#7b2e52"/><polygon points="67.2 142.81 65.45 142.81 63.16 146.8 63.16 152.06 71.9 152.06 73.56 152.06 73.56 138.7 67.2 142.81" style="fill:#90619c"/><rect x="63.16" y="152.06" width="10.4" height="4.33" style="fill:#af7eb6"/><rect x="61.42" y="156.39" width="12.18" height="2.29" style="fill:#38103b"/><polygon points="76.21 71.49 67.15 73.48 76.21 77.03 76.21 71.49" style="fill:#5f2041"/><polygon points="76.21 99.03 69.97 99.03 66.55 101.4 76.21 107.29 76.21 99.03" style="fill:#5f2041"/><polygon points="76.21 117.35 73.6 116.14 73.57 123.04 76.21 117.82 76.21 117.35" style="fill:#38103b"/><polygon points="65.03 103.22 63.5 99.03 65.03 99.03 65.03 103.22" style="fill:#38103b"/><polygon points="63.5 99.03 69.97 92.92 69.97 95.97 67.33 98.61 67.33 97.51 65.03 99.03 63.5 99.03" style="fill:#90619c"/><polygon points="65.56 88.6 67.21 95.53 69.97 92.92 65.56 88.6" style="fill:#5f2041"/><polygon points="76.21 56.09 71.61 56.09 69.35 58.21 76.21 58.21 76.21 56.09" style="fill:#5f2041"/><polygon points="76.21 37.24 73.26 37.24 69.9 40.99 67.65 52.98 76.21 52.98 76.21 37.24" style="fill:#b05758"/><polygon points="76.21 52.98 67.65 52.98 66.51 59.03 73.65 56.99 76.21 56.22 76.21 52.98" style="fill:#38103b"/><path d="M56.82,101.69l.29.45A3.52,3.52,0,0,0,58.56,100a4.48,4.48,0,0,0-1-3.46l-.44.31a4,4,0,0,1,.91,3A3.06,3.06,0,0,1,56.82,101.69Z"/><path d="M56.68,104.4l.49.61a11.13,11.13,0,0,0,2.77-3.65,8.69,8.69,0,0,0-1-9.11l-.64.44a7.91,7.91,0,0,1,.95,8.34A10.37,10.37,0,0,1,56.68,104.4Z"/><path d="M53.87,101.47l-.29.45a3.55,3.55,0,0,1-1.45-2.19,4.47,4.47,0,0,1,1-3.46l.43.31a4,4,0,0,0-.91,3A3.05,3.05,0,0,0,53.87,101.47Z"/><path d="M54,104.18l-.49.61a11.13,11.13,0,0,1-2.77-3.65,8.71,8.71,0,0,1,1-9.12l.64.45a7.89,7.89,0,0,0-1,8.34A10.46,10.46,0,0,0,54,104.18Z"/><rect x="53.76" y="93.21" width="2.85" height="13.02" transform="translate(110.37 199.45) rotate(180)" style="fill:#24042a"/><path d="M56.45,100.78l-2.38.11a1,1,0,0,0-.9,1.08l1.3,9.87,2.43-.11.54-9.94A1,1,0,0,0,56.45,100.78Z" style="fill:#7b2e52"/><rect x="53.72" y="111.22" width="4.28" height="5.04" transform="translate(116.93 224.77) rotate(177.34)" style="fill:#90619c"/><path d="M56,116.25a3,3,0,0,0,0,.69,1.17,1.17,0,0,0,.59,1c.71.39,1.92,1.58,2.26,5.2a.33.33,0,0,0,.35.3h0a.63.63,0,0,0,.6-.66l-.23-4.86a1,1,0,0,0-.3-.66l-1.17-1.06Z" style="fill:#38103b"/><path d="M56.17,116.25a3.58,3.58,0,0,1,.07.68,1.15,1.15,0,0,1-.58,1c-.75.46-2,1.76-2,5.4a.35.35,0,0,1-.36.33h0a.68.68,0,0,1-.74-.6l-.22-4.86a.87.87,0,0,1,.28-.68l1.19-1.17Z" style="fill:#5f2041"/><path d="M52.59,95.26V97.1a1.31,1.31,0,0,0,1.31,1.31h2.49A1.64,1.64,0,0,0,58,96.76v-.27Z" style="fill:#38103b"/><path d="M51.59,89.89s-2.53,3.84,1,5.37l5.52,1.84s3.3-1.3.85-7.21Z" style="fill:#90619c"/><polygon points="52.42 117.81 53.6 111.32 54.29 116.16 52.42 117.81" style="fill:#7b2e52"/><polygon points="57.88 111.12 59.58 117.88 58.11 116.16 57.88 111.12" style="fill:#7b2e52"/><circle cx="53.6" cy="104" r="1.02" style="fill:#000b10"/><polygon points="53.6 111.32 53.28 102.81 57.39 102.81 57.88 111.12 53.6 111.32" style="fill:#5f2041"/><rect x="67.1" y="158.68" width="2.16" height="2.61" style="fill:#38103b"/><polygon points="67.11 161.29 67.87 166.23 68.76 166.23 69.27 161.29 67.11 161.29" style="fill:#38103b"/><rect x="66.15" y="158.68" width="3.84" height="1.3" style="fill:#38103b"/><path d="M84.29,124l.29.45A3.64,3.64,0,0,0,86,122.27a4.51,4.51,0,0,0-1-3.47l-.44.32a4,4,0,0,1,.91,3A3.06,3.06,0,0,1,84.29,124Z"/><path d="M84.15,126.72l.49.61a11.42,11.42,0,0,0,2.77-3.65,8.71,8.71,0,0,0-1-9.12l-.64.45a7.91,7.91,0,0,1,1,8.34A10.67,10.67,0,0,1,84.15,126.72Z"/><polygon points="76.45 158.27 76.45 166.23 77.02 166.23 78.87 161.13 80.08 161.13 80.08 151.14 77.91 151.14 75.94 153.11 75.94 155.91 76.45 158.27" style="fill:#27052c"/><polygon points="76.12 83.85 86.76 79.8 86.76 88.6 82.35 92.92 76.12 92.92 76.12 83.85" style="fill:#0a0017"/><path d="M76.12,71.45h7.7L85,70.3l5,0v8.32a9.05,9.05,0,0,0-7,5.26H76.12Z" style="fill:#661c43"/><polygon points="76.12 58.21 82.97 58.21 90.02 60.24 90.02 70.34 85.18 73.48 76.12 71.49 76.12 58.21" style="fill:#341038"/><rect x="90.02" y="62.03" width="1.78" height="13.17" transform="translate(181.82 137.24) rotate(180)" style="fill:#050013"/><polygon points="91.8 70.3 99.37 74.25 101.85 72.85 101.85 60.19 91.8 60.19 91.8 70.3" style="fill:#2b0732"/><path d="M101.85,60.19v-.07A2.17,2.17,0,0,0,100.11,58a4.74,4.74,0,0,1-3-1.54,2.15,2.15,0,0,0-1.83-1h0a2.2,2.2,0,0,0-2,1.32L91.8,60.19Z" style="fill:#b2595a"/><path d="M101.85,59.37s9.23,4.7,0,13.48Z" style="fill:#12011f"/><polygon points="98.79 73.95 98.79 80.11 93.52 80.11 91.32 77.91 91.32 69.29 98.79 73.95" style="fill:#24042a"/><polygon points="99.43 80.11 92.06 80.11 92.06 85.9 94.22 90.1 94.22 97.1 98.79 97.1 98.79 83.54 100.45 83.54 99.43 80.11" style="fill:#00000e"/><polygon points="100.45 83.54 98.79 97.1 98.79 83.54 100.45 83.54" style="fill:#29042f"/><polygon points="91.58 158.27 91.58 166.23 91.01 166.23 89.16 161.13 87.95 161.13 87.95 151.14 90.11 151.14 92.09 153.11 92.09 155.91 91.58 158.27" style="fill:#27052c"/><rect x="76.12" y="92.92" width="6.23" height="6.11" style="fill:#27052c"/><polygon points="82.35 95.97 85 98.61 85 97.51 87.3 99.03 87.3 112.86 85.78 112.86 85.78 101.4 82.35 99.03 82.35 95.97" style="fill:#632444"/><polygon points="76.12 99.03 82.35 99.03 85.78 101.4 85.78 112.86 76.12 117.35 76.12 99.03" style="fill:#80538b"/><polygon points="87.3 112.86 84.25 122.79 79.41 115.82 85.78 112.86 87.3 112.86" style="fill:#29042f"/><polygon points="84.25 122.79 86.2 124.57 86.2 128.56 84.25 128.56 78.73 123.04 78.73 116.14 79.41 115.82 84.25 122.79" style="fill:#6a2647"/><polygon points="84.25 128.56 84.25 133.99 82.35 133.99 78.76 130.4 78.76 123.04 84.25 128.56" style="fill:#2b0531"/><polygon points="84.25 133.99 85.13 134.87 85.13 142.81 82.89 142.81 78.77 138.7 78.77 130.4 82.36 133.98 84.25 133.99" style="fill:#6b2548"/><polygon points="85.13 142.81 86.88 142.81 89.17 146.8 89.17 152.06 80.43 152.06 78.77 152.06 78.77 138.7 85.13 142.81" style="fill:#7e5088"/><rect x="78.77" y="152.06" width="10.4" height="4.33" transform="translate(167.94 308.46) rotate(180)" style="fill:#a175a8"/><rect x="78.73" y="156.39" width="12.18" height="2.29" transform="translate(169.64 315.08) rotate(180)" style="fill:#27052c"/><polygon points="76.12 71.49 85.18 73.48 76.12 77.03 76.12 71.49" style="fill:#4d1938"/><polygon points="76.12 99.03 82.35 99.03 85.78 101.4 76.12 107.29 76.12 99.03" style="fill:#4d1b39"/><polygon points="76.12 117.35 78.73 116.14 78.76 123.04 76.12 117.82 76.12 117.35" style="fill:#1f0827"/><polygon points="87.3 103.22 88.83 99.03 87.3 99.03 87.3 103.22" style="fill:#38103b"/><polygon points="88.83 99.03 82.35 92.92 82.35 95.97 85 98.61 85 97.51 87.3 99.03 88.83 99.03" style="fill:#80528b"/><polygon points="86.76 88.6 85.12 95.53 82.35 92.92 86.76 88.6" style="fill:#53173b"/><polygon points="76.12 56.09 80.72 56.09 82.97 58.21 76.12 58.21 76.12 56.09" style="fill:#53173b"/><polygon points="76.12 37.24 79.07 37.24 82.43 40.99 84.68 52.98 76.12 52.98 76.12 37.24" style="fill:#984a4c"/><polygon points="76.12 52.98 84.68 52.98 85.82 59.03 78.67 56.99 76.12 56.22 76.12 52.98" style="fill:#27052c"/><path d="M95.51,101.69l-.29.45A3.52,3.52,0,0,1,93.77,100a4.48,4.48,0,0,1,1-3.46l.44.31a4,4,0,0,0-.92,3A3.1,3.1,0,0,0,95.51,101.69Z"/><path d="M95.65,104.4l-.49.61a11.13,11.13,0,0,1-2.77-3.65,8.69,8.69,0,0,1,1-9.11l.64.44a7.91,7.91,0,0,0-1,8.34A10.37,10.37,0,0,0,95.65,104.4Z"/><path d="M98.46,101.47l.29.45a3.55,3.55,0,0,0,1.45-2.19,4.47,4.47,0,0,0-1-3.46l-.44.31a4,4,0,0,1,.92,3A3.1,3.1,0,0,1,98.46,101.47Z"/><path d="M98.32,104.18l.49.61a11.13,11.13,0,0,0,2.77-3.65,8.71,8.71,0,0,0-1-9.12l-.64.45a7.91,7.91,0,0,1,1,8.34A10.35,10.35,0,0,1,98.32,104.18Z"/><rect x="95.72" y="93.21" width="2.85" height="13.02" style="fill:#24042a"/><path d="M95.88,100.78l2.38.11a1,1,0,0,1,.9,1.08l-1.3,9.87-2.43-.11-.54-9.94A.94.94,0,0,1,95.88,100.78Z" style="fill:#601f41"/><rect x="94.33" y="111.22" width="4.28" height="5.04" transform="translate(5.38 -4.35) rotate(2.66)" style="fill:#7a5083"/><path d="M96.32,116.25a3,3,0,0,1,0,.69,1.17,1.17,0,0,1-.59,1c-.71.39-1.92,1.58-2.26,5.2a.34.34,0,0,1-.35.3h0a.63.63,0,0,1-.6-.66l.23-4.86a1,1,0,0,1,.3-.66l1.17-1.06Z" style="fill:#26052c"/><path d="M96.16,116.25a3.58,3.58,0,0,0-.07.68,1.16,1.16,0,0,0,.57,1c.76.46,2,1.76,2,5.4a.35.35,0,0,0,.36.33h0a.68.68,0,0,0,.74-.6l.22-4.86a.91.91,0,0,0-.28-.68l-1.19-1.17Z" style="fill:#430b2f"/><path d="M99.74,95.26V97.1a1.31,1.31,0,0,1-1.31,1.31H95.94a1.65,1.65,0,0,1-1.65-1.65v-.27Z" style="fill:#27052c"/><path d="M100.74,89.89s2.53,3.84-1,5.37L94.22,97.1s-3.3-1.3-.85-7.21Z" style="fill:#704d79"/><polygon points="99.91 117.81 98.73 111.32 98.04 116.16 99.91 117.81" style="fill:#5f1b3f"/><polygon points="94.45 111.12 92.75 117.88 94.22 116.16 94.45 111.12" style="fill:#5f1b3f"/><circle cx="98.73" cy="104" r="1.02" style="fill:#000b10"/><polygon points="98.73 111.32 99.05 102.81 94.94 102.81 94.45 111.12 98.73 111.32" style="fill:#4a1d38"/><rect x="83.06" y="158.68" width="2.16" height="2.61" style="fill:#27052c"/><polygon points="85.22 161.29 84.46 166.23 83.57 166.23 83.06 161.29 85.22 161.29" style="fill:#27052c"/><rect x="82.34" y="158.68" width="3.84" height="1.3" transform="translate(168.51 318.67) rotate(180)" style="fill:#27052c"/><rect x="72.35" y="41.45" width="1.44" height="6.75" style="fill:#26052c"/><rect x="78.21" y="41.45" width="1.44" height="6.75" style="fill:#26052c"/><polygon points="70.36 64.02 76.12 66.82 76.12 64.02 70.36 64.02" style="fill:#c66665"/><polygon points="81.9 64.02 76.13 66.82 76.13 64.02 81.9 64.02" style="fill:#a95456"/><path d="M53.79,65.84l-1,1a.12.12,0,0,0,0,.19l1.2,1.2a.13.13,0,0,0,.18,0l1-1,1,1a.14.14,0,0,0,.19,0l1.2-1.2a.14.14,0,0,0,0-.19l-1-1,1-1a.14.14,0,0,0,0-.19l-1.2-1.2a.14.14,0,0,0-.19,0l-1,1-1-1a.13.13,0,0,0-.18,0l-1.2,1.2a.12.12,0,0,0,0,.19Z" style="fill:#451b46"/><path d="M95.44,65.42l-1,1a.13.13,0,0,0,0,.18l1.2,1.2a.14.14,0,0,0,.19,0l1-1,1.05,1a.14.14,0,0,0,.19,0l1.2-1.2a.13.13,0,0,0,0-.18l-1.05-1,1.05-1a.14.14,0,0,0,0-.19L98.06,63a.14.14,0,0,0-.19,0l-1.05,1-1-1a.14.14,0,0,0-.19,0l-1.2,1.2a.14.14,0,0,0,0,.19Z" style="fill:#24042a"/></g></g></svg>