<svg xmlns="http://www.w3.org/2000/svg" xmlns:xlink="http://www.w3.org/1999/xlink" viewBox="0 0 148.25 207.55"><defs><clipPath id="clip-path"><rect width="148.25" height="207.55" style="fill:none"/></clipPath><linearGradient id="Degradado_sin_nombre_5" x1="-14.83" y1="14.83" x2="163.07" y2="192.72" gradientUnits="userSpaceOnUse"><stop offset="0" stop-color="#fef201"/><stop offset="1" stop-color="#ff1443"/></linearGradient></defs><title>Asset 169</title><g style="isolation:isolate"><g id="Layer_2" data-name="Layer 2"><g id="Layer_3" data-name="Layer 3"><g style="clip-path:url(#clip-path)"><rect width="148.25" height="207.55" style="fill:url(#Degradado_sin_nombre_5)"/><g style="opacity:0.46;mix-blend-mode:soft-light"><circle cx="4.8" cy="8.78" r="1" style="fill:#fef201"/><circle cx="4.8" cy="21.82" r="1" style="fill:#fef201"/><circle cx="4.8" cy="34.87" r="1" style="fill:#fef201"/><circle cx="4.8" cy="47.91" r="1" style="fill:#fef201"/><circle cx="4.8" cy="60.95" r="1" style="fill:#fef201"/><circle cx="4.8" cy="74" r="1" style="fill:#fef201"/><circle cx="4.8" cy="87.04" r="1" style="fill:#fef201"/><circle cx="4.8" cy="100.09" r="1" style="fill:#fef201"/><circle cx="4.8" cy="113.13" r="1" style="fill:#fef201"/><circle cx="4.8" cy="126.18" r="1" style="fill:#fef201"/><circle cx="4.8" cy="139.22" r="1" style="fill:#fef201"/><circle cx="4.8" cy="152.26" r="1" style="fill:#fef201"/><circle cx="4.8" cy="165.31" r="1" style="fill:#fef201"/><circle cx="4.8" cy="178.35" r="1" style="fill:#fef201"/><circle cx="4.8" cy="191.4" r="1" style="fill:#fef201"/><circle cx="4.8" cy="204.44" r="1" style="fill:#fef201"/><path d="M12.15,4.11a1,1,0,1,0,0-2,1,1,0,0,0-1,1A1,1,0,0,0,12.15,4.11Z" style="fill:#fef201"/><path d="M12.18,15.15a1,1,0,1,0,1,1A1,1,0,0,0,12.18,15.15Z" style="fill:#fef201"/><path d="M12.23,28.2a1,1,0,1,0,1,1A1,1,0,0,0,12.23,28.2Z" style="fill:#fef201"/><path d="M12.27,41.24a1,1,0,1,0,0,2,1,1,0,0,0,0-2Z" style="fill:#fef201"/><path d="M12.31,54.28a1,1,0,0,0-1,1,1,1,0,0,0,1,1,1,1,0,1,0,0-2Z" style="fill:#fef201"/><path d="M12.36,67.33a1,1,0,1,0,1,1A1,1,0,0,0,12.36,67.33Z" style="fill:#fef201"/><path d="M12.4,80.37a1,1,0,0,0-1,1,1,1,0,0,0,2,0A1,1,0,0,0,12.4,80.37Z" style="fill:#fef201"/><path d="M12.44,93.42a1,1,0,1,0,0,2,1,1,0,0,0,0-2Z" style="fill:#fef201"/><path d="M12.48,106.46a1,1,0,0,0,0,2,1,1,0,1,0,0-2Z" style="fill:#fef201"/><path d="M12.53,119.51a1,1,0,1,0,0,2,1,1,0,0,0,1-1A1,1,0,0,0,12.53,119.51Z" style="fill:#fef201"/><path d="M12.57,132.55a1,1,0,1,0,1,1A1,1,0,0,0,12.57,132.55Z" style="fill:#fef201"/><path d="M12.61,145.6a1,1,0,0,0-1,1,1,1,0,0,0,1,1,1,1,0,0,0,1-1A1,1,0,0,0,12.61,145.6Z" style="fill:#fef201"/><path d="M12.65,158.64a1,1,0,1,0,1,1A1,1,0,0,0,12.65,158.64Z" style="fill:#fef201"/><path d="M12.7,171.68a1,1,0,0,0-1,1,1,1,0,0,0,2,0A1,1,0,0,0,12.7,171.68Z" style="fill:#fef201"/><path d="M12.74,184.73a1,1,0,1,0,1,1A1,1,0,0,0,12.74,184.73Z" style="fill:#fef201"/><path d="M12.78,197.77a1,1,0,1,0,0,2,1,1,0,0,0,1-1A1,1,0,0,0,12.78,197.77Z" style="fill:#fef201"/><circle cx="21.13" cy="8.78" r="1" style="fill:#fef201"/><circle cx="21.13" cy="21.82" r="1" style="fill:#fef201"/><circle cx="21.13" cy="34.87" r="1" style="fill:#fef201"/><circle cx="21.13" cy="47.91" r="1" style="fill:#fef201"/><circle cx="21.13" cy="60.95" r="1" style="fill:#fef201"/><circle cx="21.13" cy="74" r="1" style="fill:#fef201"/><circle cx="21.13" cy="87.04" r="1" style="fill:#fef201"/><circle cx="21.13" cy="100.09" r="1" style="fill:#fef201"/><circle cx="21.13" cy="113.13" r="1" style="fill:#fef201"/><circle cx="21.13" cy="126.18" r="1" style="fill:#fef201"/><circle cx="21.13" cy="139.22" r="1" style="fill:#fef201"/><circle cx="21.13" cy="152.26" r="1" style="fill:#fef201"/><circle cx="21.13" cy="165.31" r="1" style="fill:#fef201"/><circle cx="21.13" cy="178.35" r="1" style="fill:#fef201"/><circle cx="21.13" cy="191.4" r="1" style="fill:#fef201"/><circle cx="21.13" cy="204.44" r="1" style="fill:#fef201"/><path d="M28.48,4.11a1,1,0,0,0,1-1,1,1,0,1,0-1,1Z" style="fill:#fef201"/><path d="M28.52,15.15a1,1,0,0,0-1,1,1,1,0,1,0,1-1Z" style="fill:#fef201"/><path d="M28.56,28.2a1,1,0,0,0-1,1,1,1,0,0,0,1,1,1,1,0,0,0,0-2Z" style="fill:#fef201"/><path d="M28.6,41.24a1,1,0,0,0,0,2,1,1,0,1,0,0-2Z" style="fill:#fef201"/><path d="M28.65,54.28a1,1,0,0,0-1,1,1,1,0,0,0,1,1,1,1,0,1,0,0-2Z" style="fill:#fef201"/><path d="M28.69,67.33a1,1,0,1,0,1,1A1,1,0,0,0,28.69,67.33Z" style="fill:#fef201"/><path d="M28.73,80.37a1,1,0,1,0,0,2,1,1,0,0,0,1-1A1,1,0,0,0,28.73,80.37Z" style="fill:#fef201"/><path d="M28.77,93.42a1,1,0,0,0,0,2,1,1,0,1,0,0-2Z" style="fill:#fef201"/><path d="M28.82,106.46a1,1,0,1,0,1,1A1,1,0,0,0,28.82,106.46Z" style="fill:#fef201"/><path d="M28.86,119.51a1,1,0,1,0,1,1A1,1,0,0,0,28.86,119.51Z" style="fill:#fef201"/><path d="M28.9,132.55a1,1,0,1,0,1,1A1,1,0,0,0,28.9,132.55Z" style="fill:#fef201"/><path d="M28.94,145.6a1,1,0,0,0,0,2,1,1,0,0,0,1-1A1,1,0,0,0,28.94,145.6Z" style="fill:#fef201"/><path d="M29,158.64a1,1,0,1,0,1,1A1,1,0,0,0,29,158.64Z" style="fill:#fef201"/><path d="M29,171.68a1,1,0,0,0-1,1,1,1,0,0,0,2,0A1,1,0,0,0,29,171.68Z" style="fill:#fef201"/><path d="M29.07,184.73a1,1,0,0,0-1,1,1,1,0,1,0,1-1Z" style="fill:#fef201"/><path d="M29.11,197.77a1,1,0,1,0,1,1A1,1,0,0,0,29.11,197.77Z" style="fill:#fef201"/><circle cx="37.47" cy="8.78" r="1" style="fill:#fef201"/><circle cx="37.47" cy="21.82" r="1" style="fill:#fef201"/><circle cx="37.47" cy="34.87" r="1" style="fill:#fef201"/><circle cx="37.47" cy="47.91" r="1" style="fill:#fef201"/><circle cx="37.47" cy="60.95" r="1" style="fill:#fef201"/><circle cx="37.47" cy="74" r="1" style="fill:#fef201"/><circle cx="37.47" cy="87.04" r="1" style="fill:#fef201"/><circle cx="37.47" cy="100.09" r="1" style="fill:#fef201"/><circle cx="37.47" cy="113.13" r="1" style="fill:#fef201"/><circle cx="37.47" cy="126.18" r="1" style="fill:#fef201"/><circle cx="37.47" cy="139.22" r="1" style="fill:#fef201"/><circle cx="37.47" cy="152.26" r="1" style="fill:#fef201"/><circle cx="37.47" cy="165.31" r="1" style="fill:#fef201"/><circle cx="37.47" cy="178.35" r="1" style="fill:#fef201"/><circle cx="37.47" cy="191.4" r="1" style="fill:#fef201"/><circle cx="37.47" cy="204.44" r="1" style="fill:#fef201"/><path d="M44.82,4.11a1,1,0,1,0-1-1A1,1,0,0,0,44.82,4.11Z" style="fill:#fef201"/><path d="M44.85,15.15a1,1,0,1,0,0,2,1,1,0,0,0,1-1A1,1,0,0,0,44.85,15.15Z" style="fill:#fef201"/><path d="M44.89,28.2a1,1,0,0,0,0,2,1,1,0,0,0,1-1A1,1,0,0,0,44.89,28.2Z" style="fill:#fef201"/><path d="M44.94,41.24a1,1,0,1,0,1,1A1,1,0,0,0,44.94,41.24Z" style="fill:#fef201"/><path d="M45,54.28a1,1,0,0,0-1,1,1,1,0,0,0,2,0A1,1,0,0,0,45,54.28Z" style="fill:#fef201"/><path d="M45,67.33a1,1,0,0,0-1,1,1,1,0,1,0,1-1Z" style="fill:#fef201"/><path d="M45.06,80.37a1,1,0,0,0-1,1,1,1,0,0,0,1,1,1,1,0,1,0,0-2Z" style="fill:#fef201"/><path d="M45.11,93.42a1,1,0,1,0,1,1A1,1,0,0,0,45.11,93.42Z" style="fill:#fef201"/><path d="M45.15,106.46a1,1,0,1,0,0,2,1,1,0,0,0,0-2Z" style="fill:#fef201"/><path d="M45.19,119.51a1,1,0,0,0-1,1,1,1,0,1,0,1-1Z" style="fill:#fef201"/><path d="M45.24,132.55a1,1,0,1,0,1,1A1,1,0,0,0,45.24,132.55Z" style="fill:#fef201"/><path d="M45.28,145.6a1,1,0,1,0,1,1A1,1,0,0,0,45.28,145.6Z" style="fill:#fef201"/><path d="M45.32,158.64a1,1,0,1,0,0,2,1,1,0,0,0,0-2Z" style="fill:#fef201"/><path d="M45.36,171.68a1,1,0,0,0-1,1,1,1,0,0,0,1,1,1,1,0,1,0,0-2Z" style="fill:#fef201"/><path d="M45.41,184.73a1,1,0,1,0,1,1A1,1,0,0,0,45.41,184.73Z" style="fill:#fef201"/><path d="M45.45,197.77a1,1,0,0,0-1,1,1,1,0,1,0,1-1Z" style="fill:#fef201"/><circle cx="53.8" cy="8.78" r="1" style="fill:#fef201"/><circle cx="53.8" cy="21.82" r="1" style="fill:#fef201"/><circle cx="53.8" cy="34.87" r="1" style="fill:#fef201"/><circle cx="53.8" cy="47.91" r="1" style="fill:#fef201"/><circle cx="53.8" cy="60.95" r="1" style="fill:#fef201"/><circle cx="53.8" cy="74" r="1" style="fill:#fef201"/><circle cx="53.8" cy="87.04" r="1" style="fill:#fef201"/><circle cx="53.8" cy="100.09" r="1" style="fill:#fef201"/><circle cx="53.8" cy="113.13" r="1" style="fill:#fef201"/><circle cx="53.8" cy="126.18" r="1" style="fill:#fef201"/><circle cx="53.8" cy="139.22" r="1" style="fill:#fef201"/><circle cx="53.8" cy="152.26" r="1" style="fill:#fef201"/><circle cx="53.8" cy="165.31" r="1" style="fill:#fef201"/><circle cx="53.8" cy="178.35" r="1" style="fill:#fef201"/><circle cx="53.8" cy="191.4" r="1" style="fill:#fef201"/><circle cx="53.8" cy="204.44" r="1" style="fill:#fef201"/><path d="M61.15,4.11a1,1,0,1,0,0-2,1,1,0,0,0-1,1A1,1,0,0,0,61.15,4.11Z" style="fill:#fef201"/><path d="M61.18,15.15a1,1,0,1,0,1,1A1,1,0,0,0,61.18,15.15Z" style="fill:#fef201"/><path d="M61.23,28.2a1,1,0,1,0,1,1A1,1,0,0,0,61.23,28.2Z" style="fill:#fef201"/><path d="M61.27,41.24a1,1,0,1,0,0,2,1,1,0,0,0,0-2Z" style="fill:#fef201"/><path d="M61.31,54.28a1,1,0,0,0-1,1,1,1,0,0,0,1,1,1,1,0,1,0,0-2Z" style="fill:#fef201"/><path d="M61.36,67.33a1,1,0,1,0,1,1A1,1,0,0,0,61.36,67.33Z" style="fill:#fef201"/><path d="M61.4,80.37a1,1,0,0,0-1,1,1,1,0,0,0,2,0A1,1,0,0,0,61.4,80.37Z" style="fill:#fef201"/><path d="M61.44,93.42a1,1,0,1,0,0,2,1,1,0,0,0,0-2Z" style="fill:#fef201"/><path d="M61.48,106.46a1,1,0,0,0,0,2,1,1,0,1,0,0-2Z" style="fill:#fef201"/><path d="M61.53,119.51a1,1,0,0,0,0,2,1,1,0,0,0,1-1A1,1,0,0,0,61.53,119.51Z" style="fill:#fef201"/><path d="M61.57,132.55a1,1,0,1,0,1,1A1,1,0,0,0,61.57,132.55Z" style="fill:#fef201"/><path d="M61.61,145.6a1,1,0,0,0-1,1,1,1,0,0,0,1,1,1,1,0,0,0,1-1A1,1,0,0,0,61.61,145.6Z" style="fill:#fef201"/><path d="M61.65,158.64a1,1,0,1,0,1,1A1,1,0,0,0,61.65,158.64Z" style="fill:#fef201"/><path d="M61.7,171.68a1,1,0,0,0-1,1,1,1,0,0,0,2,0A1,1,0,0,0,61.7,171.68Z" style="fill:#fef201"/><path d="M61.74,184.73a1,1,0,1,0,1,1A1,1,0,0,0,61.74,184.73Z" style="fill:#fef201"/><path d="M61.78,197.77a1,1,0,1,0,0,2,1,1,0,0,0,1-1A1,1,0,0,0,61.78,197.77Z" style="fill:#fef201"/><circle cx="70.13" cy="8.78" r="1" style="fill:#fef201"/><circle cx="70.13" cy="21.82" r="1" style="fill:#fef201"/><circle cx="70.13" cy="34.87" r="1" style="fill:#fef201"/><circle cx="70.13" cy="47.91" r="1" style="fill:#fef201"/><circle cx="70.13" cy="60.95" r="1" style="fill:#fef201"/><circle cx="70.13" cy="74" r="1" style="fill:#fef201"/><circle cx="70.13" cy="87.04" r="1" style="fill:#fef201"/><circle cx="70.13" cy="100.09" r="1" style="fill:#fef201"/><circle cx="70.13" cy="113.13" r="1" style="fill:#fef201"/><circle cx="70.13" cy="126.18" r="1" style="fill:#fef201"/><circle cx="70.13" cy="139.22" r="1" style="fill:#fef201"/><circle cx="70.13" cy="152.26" r="1" style="fill:#fef201"/><circle cx="70.13" cy="165.31" r="1" style="fill:#fef201"/><circle cx="70.13" cy="178.35" r="1" style="fill:#fef201"/><circle cx="70.13" cy="191.4" r="1" style="fill:#fef201"/><circle cx="70.13" cy="204.44" r="1" style="fill:#fef201"/><path d="M77.48,4.11a1,1,0,0,0,1-1,1,1,0,1,0-1,1Z" style="fill:#fef201"/><path d="M77.52,15.15a1,1,0,0,0-1,1,1,1,0,1,0,1-1Z" style="fill:#fef201"/><path d="M77.56,28.2a1,1,0,0,0-1,1,1,1,0,0,0,1,1,1,1,0,0,0,0-2Z" style="fill:#fef201"/><path d="M77.6,41.24a1,1,0,0,0,0,2,1,1,0,1,0,0-2Z" style="fill:#fef201"/><path d="M77.65,54.28a1,1,0,0,0-1,1,1,1,0,0,0,1,1,1,1,0,0,0,0-2Z" style="fill:#fef201"/><path d="M77.69,67.33a1,1,0,1,0,1,1A1,1,0,0,0,77.69,67.33Z" style="fill:#fef201"/><path d="M77.73,80.37a1,1,0,1,0,0,2,1,1,0,0,0,1-1A1,1,0,0,0,77.73,80.37Z" style="fill:#fef201"/><path d="M77.77,93.42a1,1,0,0,0,0,2,1,1,0,1,0,0-2Z" style="fill:#fef201"/><path d="M77.82,106.46a1,1,0,1,0,1,1A1,1,0,0,0,77.82,106.46Z" style="fill:#fef201"/><path d="M77.86,119.51a1,1,0,1,0,1,1A1,1,0,0,0,77.86,119.51Z" style="fill:#fef201"/><path d="M77.9,132.55a1,1,0,1,0,1,1A1,1,0,0,0,77.9,132.55Z" style="fill:#fef201"/><path d="M77.94,145.6a1,1,0,0,0,0,2,1,1,0,0,0,1-1A1,1,0,0,0,77.94,145.6Z" style="fill:#fef201"/><path d="M78,158.64a1,1,0,1,0,1,1A1,1,0,0,0,78,158.64Z" style="fill:#fef201"/><path d="M78,171.68a1,1,0,0,0-1,1,1,1,0,0,0,2,0A1,1,0,0,0,78,171.68Z" style="fill:#fef201"/><path d="M78.07,184.73a1,1,0,0,0-1,1,1,1,0,1,0,1-1Z" style="fill:#fef201"/><path d="M78.11,197.77a1,1,0,1,0,1,1A1,1,0,0,0,78.11,197.77Z" style="fill:#fef201"/><circle cx="86.47" cy="8.78" r="1" style="fill:#fef201"/><circle cx="86.47" cy="21.82" r="1" style="fill:#fef201"/><circle cx="86.47" cy="34.87" r="1" style="fill:#fef201"/><circle cx="86.47" cy="47.91" r="1" style="fill:#fef201"/><circle cx="86.47" cy="60.95" r="1" style="fill:#fef201"/><circle cx="86.47" cy="74" r="1" style="fill:#fef201"/><circle cx="86.47" cy="87.04" r="1" style="fill:#fef201"/><circle cx="86.47" cy="100.09" r="1" style="fill:#fef201"/><circle cx="86.47" cy="113.13" r="1" style="fill:#fef201"/><circle cx="86.47" cy="126.18" r="1" style="fill:#fef201"/><circle cx="86.47" cy="139.22" r="1" style="fill:#fef201"/><circle cx="86.47" cy="152.26" r="1" style="fill:#fef201"/><circle cx="86.47" cy="165.31" r="1" style="fill:#fef201"/><circle cx="86.47" cy="178.35" r="1" style="fill:#fef201"/><circle cx="86.47" cy="191.4" r="1" style="fill:#fef201"/><circle cx="86.47" cy="204.44" r="1" style="fill:#fef201"/><path d="M93.82,4.11a1,1,0,1,0-1-1A1,1,0,0,0,93.82,4.11Z" style="fill:#fef201"/><path d="M93.85,15.15a1,1,0,1,0,0,2,1,1,0,0,0,1-1A1,1,0,0,0,93.85,15.15Z" style="fill:#fef201"/><path d="M93.89,28.2a1,1,0,0,0,0,2,1,1,0,0,0,1-1A1,1,0,0,0,93.89,28.2Z" style="fill:#fef201"/><path d="M93.94,41.24a1,1,0,1,0,1,1A1,1,0,0,0,93.94,41.24Z" style="fill:#fef201"/><path d="M94,54.28a1,1,0,0,0-1,1,1,1,0,0,0,2,0A1,1,0,0,0,94,54.28Z" style="fill:#fef201"/><path d="M94,67.33a1,1,0,0,0-1,1,1,1,0,1,0,1-1Z" style="fill:#fef201"/><path d="M94.06,80.37a1,1,0,0,0-1,1,1,1,0,0,0,1,1,1,1,0,1,0,0-2Z" style="fill:#fef201"/><path d="M94.11,93.42a1,1,0,1,0,1,1A1,1,0,0,0,94.11,93.42Z" style="fill:#fef201"/><path d="M94.15,106.46a1,1,0,1,0,0,2,1,1,0,0,0,0-2Z" style="fill:#fef201"/><path d="M94.19,119.51a1,1,0,0,0-1,1,1,1,0,1,0,1-1Z" style="fill:#fef201"/><path d="M94.24,132.55a1,1,0,1,0,1,1A1,1,0,0,0,94.24,132.55Z" style="fill:#fef201"/><path d="M94.28,145.6a1,1,0,1,0,1,1A1,1,0,0,0,94.28,145.6Z" style="fill:#fef201"/><path d="M94.32,158.64a1,1,0,1,0,0,2,1,1,0,0,0,0-2Z" style="fill:#fef201"/><path d="M94.36,171.68a1,1,0,0,0-1,1,1,1,0,0,0,1,1,1,1,0,1,0,0-2Z" style="fill:#fef201"/><path d="M94.41,184.73a1,1,0,1,0,1,1A1,1,0,0,0,94.41,184.73Z" style="fill:#fef201"/><path d="M94.45,197.77a1,1,0,0,0-1,1,1,1,0,1,0,1-1Z" style="fill:#fef201"/><circle cx="102.8" cy="8.78" r="1" style="fill:#fef201"/><circle cx="102.8" cy="21.82" r="1" style="fill:#fef201"/><circle cx="102.8" cy="34.87" r="1" style="fill:#fef201"/><circle cx="102.8" cy="47.91" r="1" style="fill:#fef201"/><circle cx="102.8" cy="60.95" r="1" style="fill:#fef201"/><circle cx="102.8" cy="74" r="1" style="fill:#fef201"/><circle cx="102.8" cy="87.04" r="1" style="fill:#fef201"/><circle cx="102.8" cy="100.09" r="1" style="fill:#fef201"/><circle cx="102.8" cy="113.13" r="1" style="fill:#fef201"/><circle cx="102.8" cy="126.18" r="1" style="fill:#fef201"/><circle cx="102.8" cy="139.22" r="1" style="fill:#fef201"/><circle cx="102.8" cy="152.26" r="1" style="fill:#fef201"/><circle cx="102.8" cy="165.31" r="1" style="fill:#fef201"/><circle cx="102.8" cy="178.35" r="1" style="fill:#fef201"/><circle cx="102.8" cy="191.4" r="1" style="fill:#fef201"/><circle cx="102.8" cy="204.44" r="1" style="fill:#fef201"/><path d="M110.15,4.11a1,1,0,1,0,0-2,1,1,0,0,0-1,1A1,1,0,0,0,110.15,4.11Z" style="fill:#fef201"/><path d="M110.18,15.15a1,1,0,1,0,1,1A1,1,0,0,0,110.18,15.15Z" style="fill:#fef201"/><path d="M110.23,28.2a1,1,0,1,0,1,1A1,1,0,0,0,110.23,28.2Z" style="fill:#fef201"/><path d="M110.27,41.24a1,1,0,1,0,0,2,1,1,0,0,0,0-2Z" style="fill:#fef201"/><path d="M110.31,54.28a1,1,0,0,0-1,1,1,1,0,0,0,1,1,1,1,0,1,0,0-2Z" style="fill:#fef201"/><path d="M110.36,67.33a1,1,0,1,0,1,1A1,1,0,0,0,110.36,67.33Z" style="fill:#fef201"/><path d="M110.4,80.37a1,1,0,0,0-1,1,1,1,0,0,0,2,0A1,1,0,0,0,110.4,80.37Z" style="fill:#fef201"/><path d="M110.44,93.42a1,1,0,1,0,0,2,1,1,0,0,0,0-2Z" style="fill:#fef201"/><path d="M110.48,106.46a1,1,0,0,0,0,2,1,1,0,1,0,0-2Z" style="fill:#fef201"/><path d="M110.53,119.51a1,1,0,0,0,0,2,1,1,0,0,0,1-1A1,1,0,0,0,110.53,119.51Z" style="fill:#fef201"/><path d="M110.57,132.55a1,1,0,1,0,1,1A1,1,0,0,0,110.57,132.55Z" style="fill:#fef201"/><path d="M110.61,145.6a1,1,0,0,0-1,1,1,1,0,0,0,1,1,1,1,0,0,0,1-1A1,1,0,0,0,110.61,145.6Z" style="fill:#fef201"/><path d="M110.65,158.64a1,1,0,1,0,1,1A1,1,0,0,0,110.65,158.64Z" style="fill:#fef201"/><path d="M110.7,171.68a1,1,0,0,0-1,1,1,1,0,0,0,2,0A1,1,0,0,0,110.7,171.68Z" style="fill:#fef201"/><path d="M110.74,184.73a1,1,0,1,0,1,1A1,1,0,0,0,110.74,184.73Z" style="fill:#fef201"/><path d="M110.78,197.77a1,1,0,1,0,0,2,1,1,0,0,0,1-1A1,1,0,0,0,110.78,197.77Z" style="fill:#fef201"/><circle cx="119.13" cy="8.78" r="1" style="fill:#fef201"/><circle cx="119.13" cy="21.82" r="1" style="fill:#fef201"/><circle cx="119.13" cy="34.87" r="1" style="fill:#fef201"/><circle cx="119.13" cy="47.91" r="1" style="fill:#fef201"/><circle cx="119.13" cy="60.95" r="1" style="fill:#fef201"/><circle cx="119.13" cy="74" r="1" style="fill:#fef201"/><circle cx="119.13" cy="87.04" r="1" style="fill:#fef201"/><circle cx="119.13" cy="100.09" r="1" style="fill:#fef201"/><circle cx="119.13" cy="113.13" r="1" style="fill:#fef201"/><circle cx="119.13" cy="126.18" r="1" style="fill:#fef201"/><circle cx="119.13" cy="139.22" r="1" style="fill:#fef201"/><circle cx="119.13" cy="152.26" r="1" style="fill:#fef201"/><circle cx="119.13" cy="165.31" r="1" style="fill:#fef201"/><circle cx="119.13" cy="178.35" r="1" style="fill:#fef201"/><circle cx="119.13" cy="191.4" r="1" style="fill:#fef201"/><circle cx="119.13" cy="204.44" r="1" style="fill:#fef201"/><path d="M126.48,4.11a1,1,0,0,0,1-1,1,1,0,1,0-1,1Z" style="fill:#fef201"/><path d="M126.52,15.15a1,1,0,0,0-1,1,1,1,0,1,0,1-1Z" style="fill:#fef201"/><path d="M126.56,28.2a1,1,0,0,0-1,1,1,1,0,0,0,1,1,1,1,0,0,0,0-2Z" style="fill:#fef201"/><path d="M126.6,41.24a1,1,0,0,0,0,2,1,1,0,1,0,0-2Z" style="fill:#fef201"/><path d="M126.65,54.28a1,1,0,0,0-1,1,1,1,0,0,0,1,1,1,1,0,0,0,0-2Z" style="fill:#fef201"/><path d="M126.69,67.33a1,1,0,1,0,1,1A1,1,0,0,0,126.69,67.33Z" style="fill:#fef201"/><path d="M126.73,80.37a1,1,0,1,0,0,2,1,1,0,0,0,1-1A1,1,0,0,0,126.73,80.37Z" style="fill:#fef201"/><path d="M126.77,93.42a1,1,0,0,0,0,2,1,1,0,1,0,0-2Z" style="fill:#fef201"/><path d="M126.82,106.46a1,1,0,1,0,1,1A1,1,0,0,0,126.82,106.46Z" style="fill:#fef201"/><path d="M126.86,119.51a1,1,0,1,0,1,1A1,1,0,0,0,126.86,119.51Z" style="fill:#fef201"/><path d="M126.9,132.55a1,1,0,1,0,1,1A1,1,0,0,0,126.9,132.55Z" style="fill:#fef201"/><path d="M126.94,145.6a1,1,0,0,0,0,2,1,1,0,0,0,1-1A1,1,0,0,0,126.94,145.6Z" style="fill:#fef201"/><path d="M127,158.64a1,1,0,1,0,1,1A1,1,0,0,0,127,158.64Z" style="fill:#fef201"/><path d="M127,171.68a1,1,0,0,0-1,1,1,1,0,0,0,2,0A1,1,0,0,0,127,171.68Z" style="fill:#fef201"/><path d="M127.07,184.73a1,1,0,0,0-1,1,1,1,0,1,0,1-1Z" style="fill:#fef201"/><path d="M127.11,197.77a1,1,0,1,0,1,1A1,1,0,0,0,127.11,197.77Z" style="fill:#fef201"/><circle cx="135.47" cy="8.78" r="1" style="fill:#fef201"/><circle cx="135.47" cy="21.82" r="1" style="fill:#fef201"/><circle cx="135.47" cy="34.87" r="1" style="fill:#fef201"/><circle cx="135.47" cy="47.91" r="1" style="fill:#fef201"/><circle cx="135.47" cy="60.95" r="1" style="fill:#fef201"/><circle cx="135.47" cy="74" r="1" style="fill:#fef201"/><circle cx="135.47" cy="87.04" r="1" style="fill:#fef201"/><circle cx="135.47" cy="100.09" r="1" style="fill:#fef201"/><circle cx="135.47" cy="113.13" r="1" style="fill:#fef201"/><circle cx="135.47" cy="126.18" r="1" style="fill:#fef201"/><circle cx="135.47" cy="139.22" r="1" style="fill:#fef201"/><circle cx="135.47" cy="152.26" r="1" style="fill:#fef201"/><circle cx="135.47" cy="165.31" r="1" style="fill:#fef201"/><circle cx="135.47" cy="178.35" r="1" style="fill:#fef201"/><circle cx="135.47" cy="191.4" r="1" style="fill:#fef201"/><circle cx="135.47" cy="204.44" r="1" style="fill:#fef201"/><path d="M142.82,4.11a1,1,0,1,0-1-1A1,1,0,0,0,142.82,4.11Z" style="fill:#fef201"/><path d="M142.85,15.15a1,1,0,1,0,0,2,1,1,0,0,0,1-1A1,1,0,0,0,142.85,15.15Z" style="fill:#fef201"/><path d="M142.89,28.2a1,1,0,0,0,0,2,1,1,0,0,0,1-1A1,1,0,0,0,142.89,28.2Z" style="fill:#fef201"/><path d="M142.94,41.24a1,1,0,1,0,1,1A1,1,0,0,0,142.94,41.24Z" style="fill:#fef201"/><path d="M143,54.28a1,1,0,0,0-1,1,1,1,0,0,0,2,0A1,1,0,0,0,143,54.28Z" style="fill:#fef201"/><path d="M143,67.33a1,1,0,0,0-1,1,1,1,0,1,0,1-1Z" style="fill:#fef201"/><path d="M143.06,80.37a1,1,0,0,0-1,1,1,1,0,0,0,1,1,1,1,0,1,0,0-2Z" style="fill:#fef201"/><path d="M143.11,93.42a1,1,0,1,0,1,1A1,1,0,0,0,143.11,93.42Z" style="fill:#fef201"/><path d="M143.15,106.46a1,1,0,1,0,0,2,1,1,0,0,0,0-2Z" style="fill:#fef201"/><path d="M143.19,119.51a1,1,0,0,0-1,1,1,1,0,1,0,1-1Z" style="fill:#fef201"/><path d="M143.24,132.55a1,1,0,1,0,1,1A1,1,0,0,0,143.24,132.55Z" style="fill:#fef201"/><path d="M143.28,145.6a1,1,0,1,0,1,1A1,1,0,0,0,143.28,145.6Z" style="fill:#fef201"/><path d="M143.32,158.64a1,1,0,1,0,0,2,1,1,0,0,0,0-2Z" style="fill:#fef201"/><path d="M143.36,171.68a1,1,0,0,0-1,1,1,1,0,0,0,1,1,1,1,0,1,0,0-2Z" style="fill:#fef201"/><path d="M143.41,184.73a1,1,0,1,0,1,1A1,1,0,0,0,143.41,184.73Z" style="fill:#fef201"/><path d="M143.45,197.77a1,1,0,0,0-1,1,1,1,0,1,0,1-1Z" style="fill:#fef201"/></g></g><g style="opacity:0.45"><path d="M134.5,59V53.19h5V59Zm5-11.63V41.56h-5v5.82Zm-10.8,17.45h5.82V59h-5.82ZM26.59,165.45h5.82v-4.93H26.59ZM20.78,154.7v5.82h5.81V154.7ZM134.5,64.83v5.82h-5.82V64.83h-5.82v5.82h-5.81V64.83h5.81V59h5.82V53.19h5.82V47.38h-5.82V41.56h-5.82v5.82h-5.81V41.56h5.81v-3.3H12.28V165.45h8.5v-4.93H15V154.7h5.82v-5.82H15v-5.81h5.82v5.81h5.81v5.82h5.82v5.82h5.82v4.93H44v-4.93h5.82v4.93h89.62V64.83Zm0-26.57h-5.82v3.3h5.82Z" style="fill:#00158e;opacity:0.2"/><rect x="48.67" y="167.14" width="5.82" height="5.82" style="fill:gold"/><rect x="36.25" y="168.47" width="5.82" height="5.82" style="fill:gold"/><rect x="3.53" y="169.1" width="5.82" height="5.82" style="fill:gold"/><rect x="30.16" y="162.12" width="5.82" height="5.82" style="fill:gold"/><rect x="16.53" y="171.74" width="5.82" height="5.82" style="fill:gold"/><rect x="12.34" y="162.58" width="5.82" height="5.82" style="fill:gold"/><rect x="7.14" y="146.83" width="5.82" height="5.82" style="fill:gold"/><rect x="8.7" y="156.09" width="5.82" height="5.82" style="fill:gold"/><polygon points="108.81 42.69 16.51 42.69 16.51 132.66 20.88 128.3 20.88 103.57 27.57 103.57 27.57 68.67 34.35 61.88 34.35 52 70.81 52 76.91 45.89 108.81 45.89 108.81 42.69" style="fill:#0751cf"/><rect x="138.67" y="84.38" width="1.94" height="29.47" style="fill:none"/><polygon points="58.64 170.71 143.28 170.71 143.28 99.16 142.69 99.16 142.69 170.13 58.64 170.13 58.64 170.71 58.64 170.71" style="fill:gold"/><rect x="17.29" y="36.58" width="3.39" height="2.71" style="fill:gold"/><rect x="24.66" y="36.58" width="3.39" height="2.71" style="fill:gold"/><rect x="32.03" y="36.58" width="3.39" height="2.71" style="fill:gold"/><rect x="39.39" y="36.58" width="3.39" height="2.71" style="fill:gold"/><rect x="46.76" y="36.58" width="3.39" height="2.71" style="fill:gold"/><rect x="54.13" y="36.58" width="3.39" height="2.71" style="fill:gold"/><rect x="61.5" y="36.58" width="3.39" height="2.71" style="fill:gold"/><rect x="135.42" y="75.75" width="1.45" height="9.31" style="fill:gold"/><rect x="135.42" y="100.03" width="1.45" height="61.37" style="fill:gold"/><polygon points="50.84 53.59 48.76 51.5 50.84 49.42 49.66 48.24 47.58 50.32 45.49 48.24 44.31 49.42 46.4 51.5 44.31 53.59 45.49 54.76 47.58 52.68 49.66 54.76 50.84 53.59" style="fill:gold"/><polygon points="59.56 53.59 57.48 51.5 59.56 49.42 58.38 48.24 56.3 50.32 54.22 48.24 53.04 49.42 55.12 51.5 53.04 53.59 54.22 54.76 56.3 52.68 58.38 54.76 59.56 53.59" style="fill:gold"/><polygon points="68.29 53.59 66.21 51.5 68.29 49.42 67.11 48.24 65.03 50.32 62.94 48.24 61.76 49.42 63.85 51.5 61.76 53.59 62.94 54.76 65.03 52.68 67.11 54.76 68.29 53.59" style="fill:gold"/><polygon points="77.02 53.59 74.93 51.5 77.02 49.42 75.84 48.24 73.75 50.32 71.67 48.24 70.49 49.42 72.57 51.5 70.49 53.59 71.67 54.76 73.75 52.68 75.84 54.76 77.02 53.59" style="fill:gold"/></g><path d="M92,36.08a2.09,2.09,0,1,0-2.31,2.08V50.09H86.48v.47h3.71V38.15A2.08,2.08,0,0,0,92,36.08Z" style="fill:#323432"/><polygon points="84.12 52.62 87.12 51.67 87.12 48.91 76.02 48.91 76.02 52.62 84.12 52.62" style="fill:#323432"/><path d="M61.69,50.09V38.16a2.12,2.12,0,1,0-.47,0V50.56h3.71v-.47Z" style="fill:#323432"/><polygon points="67.93 52.62 64.93 51.67 64.93 48.91 76.02 48.91 76.02 52.62 67.93 52.62" style="fill:#323432"/><path d="M49.72,102.72v1.06h-.66a3.89,3.89,0,0,1-3.89-3.89V95.72a3.89,3.89,0,0,1,3.89-3.89v1.06a2.83,2.83,0,0,0-2.83,2.83v4.17a2.83,2.83,0,0,0,2.83,2.83Z" style="fill:#41453e"/><path d="M50.75,105.6v1.06H46.38a3.9,3.9,0,0,1-3.89-3.89V93.05a3.89,3.89,0,0,1,3.89-3.89h.51v1.06h-.51a2.83,2.83,0,0,0-2.83,2.83v9.72a2.83,2.83,0,0,0,2.83,2.83Z" style="fill:#41453e"/><path d="M68.17,123H62.75A4.74,4.74,0,0,1,58,118.27v-9.2a4.74,4.74,0,0,1,4.74-4.73h2.5v1.78h-2.5a3,3,0,0,0-3,2.95v9.2a3,3,0,0,0,3,3h5.42Z" style="fill:#41453e"/><path d="M49,69.39h-.75v-.47a2.77,2.77,0,0,1,2.76-2.76h3a2.77,2.77,0,0,1,2.77,2.76H56a2,2,0,0,0-2-2h-3a2,2,0,0,0-2,2Z" style="fill:#41453e"/><path d="M47,70.12h-.75V67A2.77,2.77,0,0,1,49,64.26h6.9A2.77,2.77,0,0,1,58.68,67v.36h-.75V67a2,2,0,0,0-2-2H49a2,2,0,0,0-2,2Z" style="fill:#41453e"/><polygon points="53.37 72.02 53.37 68.36 54.12 68.36 54.12 69.39 63.6 64.23 61.53 68.92 53.37 72.02" style="fill:#41453e"/><polygon points="68.29 55.79 68.29 49.5 72.04 42.47 78.32 42.47 78.32 55.79 68.29 55.79" style="fill:#acb1ae"/><polygon points="69.88 68.92 58.28 68.92 53.37 72.02 53.37 85.81 64.03 102.51 69.88 102.51 69.88 68.92" style="fill:#c9cdc7"/><polygon points="68.29 55.79 68.29 60.48 74.29 64.23 78.32 64.23 78.32 55.79 68.29 55.79" style="fill:#c9cdc7"/><rect x="50.65" y="73.05" width="2.72" height="2.16" style="fill:#575a54"/><rect x="50.65" y="75.21" width="2.72" height="2.16" style="fill:#41453e"/><rect x="50.65" y="77.37" width="2.72" height="2.16" style="fill:#575a54"/><rect x="50.65" y="79.52" width="2.72" height="2.16" style="fill:#41453e"/><rect x="50.65" y="81.68" width="2.72" height="2.16" style="fill:#575a54"/><polygon points="50.65 75.44 40 75.44 45.33 69.39 50.65 69.39 50.65 75.44" style="fill:#575a54"/><path d="M40,75.44,43.17,87h7.48V75.44Z" style="fill:#acb1ae"/><polygon points="44.86 87.01 49.08 102.91 49.65 102.91 49.65 101.92 52.01 101.92 50.65 87.01 44.86 87.01" style="fill:#939c96"/><polygon points="49.65 101.92 52.01 101.92 52.01 116.21 47.47 116.21 46.2 108.75 45.33 108.75 45.33 102.51 48.98 102.51 49.65 101.92" style="fill:#d1d2cc"/><rect x="64.03" y="102.51" width="14.29" height="5.44" style="fill:#acb1ae"/><polygon points="64.03 107.95 68.13 111.33 78.32 111.33 78.32 107.95 64.03 107.95" style="fill:#41453e"/><rect x="65.71" y="111.33" width="4.17" height="29.74" style="fill:#939c96"/><rect x="65.71" y="141.06" width="2.49" height="9.85" style="fill:#767d79"/><rect x="68.19" y="141.06" width="5.72" height="9.85" style="fill:#939c96"/><polygon points="72.32 141.06 75.89 119.49 69.88 119.49 69.88 141.06 72.32 141.06" style="fill:#767d79"/><polygon points="75.89 119.49 76.92 119.49 78.32 114.69 78.32 111.33 69.88 111.33 69.88 119.49 75.89 119.49" style="fill:#5e6961"/><polygon points="64.03 175.77 64.03 171.97 68.4 168.67 72.88 168.67 72.88 175.77 64.03 175.77" style="fill:#58625b"/><polygon points="68.19 150.91 66.22 162.83 69.32 175.77 70.54 175.77 70.54 163.34 71.48 163.34 71.48 150.91 68.19 150.91" style="fill:#767d79"/><polygon points="77.41 175.77 77.41 171.97 73.87 168.67 70.23 168.67 70.23 175.77 77.41 175.77" style="fill:#58625b"/><rect x="71.48" y="150.91" width="2.44" height="24.86" style="fill:#939c96"/><polygon points="53.37 85.81 66.95 79.52 66.95 87.01 57.55 92.36 53.37 85.81" style="fill:#5e6961"/><rect x="68.61" y="64.23" width="9.71" height="38.28" style="fill:#acb1ae"/><rect x="66.96" y="68.92" width="11.37" height="18.09" style="fill:#b1b6b4"/><polygon points="60.27 70.07 63.6 64.23 68.61 64.23 68.61 85.06 66.93 85.06 66.93 70.07 60.27 70.07" style="fill:#47504a"/><path d="M102.76,102.72v1.06h.66a3.9,3.9,0,0,0,3.89-3.89V95.72a3.9,3.9,0,0,0-3.89-3.89v1.06a2.83,2.83,0,0,1,2.83,2.83v4.17a2.83,2.83,0,0,1-2.83,2.83Z" style="fill:#41453e"/><path d="M101.73,105.6v1.06h4.36a3.89,3.89,0,0,0,3.89-3.89V93.05a3.89,3.89,0,0,0-3.89-3.89h-.5v1.06h.5a2.83,2.83,0,0,1,2.83,2.83v9.72a2.83,2.83,0,0,1-2.83,2.83Z" style="fill:#41453e"/><path d="M84.3,123h5.42a4.74,4.74,0,0,0,4.74-4.73v-9.2a4.74,4.74,0,0,0-4.74-4.73H87.23v1.78h2.49a3,3,0,0,1,3,2.95v9.2a3,3,0,0,1-3,3H84.3Z" style="fill:#3a3d37"/><path d="M103.43,69.39h.75v-.47a2.77,2.77,0,0,0-2.76-2.76h-3a2.77,2.77,0,0,0-2.76,2.76h.75a2,2,0,0,1,2-2h3a2,2,0,0,1,2,2Z" style="fill:#41453e"/><path d="M105.48,70.12h.75V67a2.77,2.77,0,0,0-2.76-2.76H96.56A2.77,2.77,0,0,0,93.8,67v.36h.75V67a2,2,0,0,1,2-2h6.91a2,2,0,0,1,2,2Z" style="fill:#41453e"/><polygon points="99.1 72.02 99.1 68.36 98.35 68.36 98.35 69.39 88.88 64.23 90.94 68.92 99.1 72.02" style="fill:#41453e"/><polygon points="84.19 55.79 84.19 49.5 80.44 42.47 74.15 42.47 74.15 55.79 84.19 55.79" style="fill:#939c96"/><polygon points="82.59 68.92 94.19 68.92 99.1 72.02 99.1 85.81 88.44 102.51 82.59 102.51 82.59 68.92" style="fill:#c9cdc7"/><polygon points="84.19 55.79 84.19 60.48 78.18 64.23 74.15 64.23 74.15 55.79 84.19 55.79" style="fill:#c9cdc7"/><rect x="99.1" y="73.05" width="2.72" height="2.16" transform="translate(200.93 148.26) rotate(180)" style="fill:#575a54"/><rect x="99.1" y="75.21" width="2.72" height="2.16" transform="translate(200.93 152.57) rotate(180)" style="fill:#41453e"/><rect x="99.1" y="77.37" width="2.72" height="2.16" transform="translate(200.93 156.89) rotate(180)" style="fill:#575a54"/><rect x="99.1" y="79.52" width="2.72" height="2.16" transform="translate(200.93 161.2) rotate(180)" style="fill:#41453e"/><rect x="99.1" y="81.68" width="2.72" height="2.16" transform="translate(200.93 165.52) rotate(180)" style="fill:#575a54"/><polygon points="101.82 75.44 112.47 75.44 107.15 69.39 101.82 69.39 101.82 75.44" style="fill:#575a54"/><path d="M112.47,75.44,109.3,87h-7.48V75.44Z" style="fill:#acb1ae"/><polygon points="107.61 87.01 103.39 102.91 102.83 102.91 102.83 101.92 100.46 101.92 101.82 87.01 107.61 87.01" style="fill:#939c96"/><polygon points="102.83 101.92 100.46 101.92 100.46 116.21 105.01 116.21 106.27 108.75 107.15 108.75 107.15 102.51 103.5 102.51 102.83 101.92" style="fill:#d1d2cc"/><rect x="74.15" y="102.51" width="14.29" height="5.44" transform="translate(162.59 210.45) rotate(180)" style="fill:#acb1ae"/><polygon points="88.44 107.95 84.35 111.33 74.15 111.33 74.15 107.95 88.44 107.95" style="fill:#41453e"/><rect x="82.59" y="111.33" width="4.17" height="29.74" style="fill:#808981"/><rect x="84.28" y="141.06" width="2.49" height="9.85" transform="translate(171.05 291.98) rotate(180)" style="fill:#6a736c"/><rect x="78.56" y="141.06" width="5.72" height="9.85" transform="translate(162.84 291.98) rotate(180)" style="fill:#868d88"/><polygon points="80.15 141.06 76.59 119.49 82.59 119.49 82.59 141.06 80.15 141.06" style="fill:#677069"/><polygon points="76.59 119.49 75.56 119.49 74.15 114.69 74.15 111.33 82.59 111.33 82.59 119.49 76.59 119.49" style="fill:#535c56"/><polygon points="88.44 175.77 88.44 171.97 84.08 168.67 79.59 168.67 79.59 175.77 88.44 175.77" style="fill:#424d44"/><polygon points="84.28 150.91 86.25 162.83 83.16 175.77 81.94 175.77 81.94 163.34 81 163.34 81 150.91 84.28 150.91" style="fill:#616d64"/><polygon points="75.06 175.77 75.06 171.97 78.61 168.67 82.24 168.67 82.24 175.77 75.06 175.77" style="fill:#58625b"/><rect x="78.56" y="150.91" width="2.44" height="24.86" transform="translate(159.56 326.69) rotate(180)" style="fill:#7a837e"/><polygon points="99.1 85.81 85.52 79.52 85.52 87.01 94.92 92.36 99.1 85.81" style="fill:#5e6961"/><rect x="74.15" y="64.23" width="9.71" height="38.28" transform="translate(158.01 166.74) rotate(180)" style="fill:#959898"/><rect x="74.15" y="68.92" width="11.37" height="18.09" transform="translate(159.67 155.93) rotate(180)" style="fill:#838d89"/><polygon points="92.21 70.07 88.88 64.23 83.86 64.23 83.86 85.06 85.55 85.06 85.55 70.07 92.21 70.07" style="fill:#47504a"/><rect x="66.03" y="59.33" width="20.83" height="4.9" style="fill:#939c96"/><rect x="72.4" y="50.4" width="1.94" height="8.94" style="fill:#47504a"/><rect x="78.23" y="50.4" width="1.94" height="8.94" style="fill:#47504a"/><polygon points="66.03 59.33 68.26 57.1 68.26 59.33 66.03 59.33" style="fill:#47504a"/><polygon points="86.86 59.33 84.17 56.65 84.17 59.33 86.86 59.33" style="fill:#47504a"/><path d="M99.72,116.11a3.24,3.24,0,1,0,4.2-1.83A3.24,3.24,0,0,0,99.72,116.11Z" style="fill:#474c43"/><path d="M102.81,120.32s-1.55,9-3.67,11.06l-1.57-.61L102,119.65Z" style="fill:#33352e"/><path d="M100.88,119.56s-5,7.63-4.87,10.59l1.56.62L102,119.65Z" style="fill:#33352e"/><path d="M99.41,130.83s4.77,3.29-.12,10.23l-2.08-.82s3.34-6-.33-7.59l1-2.44Z" style="fill:#474c43"/><path d="M96.28,129.59s-5.74-.85-6.9,7.56l2.08.82s1.64-6.65,5.42-5.32l1-2.44Z" style="fill:#868d88"/><path d="M46.89,118.87a3.24,3.24,0,1,0,1.68-4.26A3.24,3.24,0,0,0,46.89,118.87Z" style="fill:#474c43"/><path d="M52.06,119.67s5.27,7.45,5.22,10.42l-1.54.67-4.76-11Z" style="fill:#33352e"/><path d="M50.15,120.49s1.85,9,4.05,10.94l1.54-.67-4.76-11Z" style="fill:#33352e"/><path d="M57.09,129.5s5.7-1.05,7.15,7.32l-2.06.89s-1.86-6.59-5.59-5.14l-1.05-2.4Z" style="fill:#868d88"/><path d="M54,130.84s-4.66,3.45.46,10.22l2-.89s-3.54-5.86.08-7.6l-1.05-2.4Z" style="fill:#acb1ae"/></g></g></g></svg>