<svg xmlns="http://www.w3.org/2000/svg" xmlns:xlink="http://www.w3.org/1999/xlink" viewBox="0 0 148.25 207.55"><defs><linearGradient id="Degradado_sin_nombre_6" x1="-14.83" y1="192.72" x2="163.07" y2="14.83" gradientUnits="userSpaceOnUse"><stop offset="0" stop-color="aqua"/><stop offset="1" stop-color="blue"/></linearGradient></defs><title>Asset 131</title><g id="Layer_2" data-name="Layer 2"><g id="Layer_3" data-name="Layer 3"><rect width="148.25" height="207.55" style="fill:url(#Degradado_sin_nombre_6)"/><g style="opacity:0.45"><path d="M135.67,57.3V51.48h5V57.3Zm5-11.64V39.85h-5v5.81ZM129.86,63.11h5.81V57.3h-5.81ZM27.77,163.74h5.81V158.8H27.77ZM22,153v5.81h5.82V153ZM135.67,63.11v5.82h-5.81V63.11H124v5.82h-5.82V63.11H124V57.3h5.82V51.48h5.81V45.66h-5.81V39.85H124v5.81h-5.82V39.85H124V36.54H13.45v127.2H22V158.8H16.13V153H22v-5.82H16.13v-5.82H22v5.82h5.82V153h5.81v5.81H39.4v4.94h5.82V158.8H51v4.94h89.62V63.11Zm0-26.57h-5.81v3.31h5.81Z" style="fill:#00158e;opacity:0.2"/><rect x="49.85" y="165.43" width="5.82" height="5.82" style="fill:gold"/><rect x="37.43" y="166.76" width="5.82" height="5.82" style="fill:gold"/><rect x="4.7" y="167.38" width="5.82" height="5.82" style="fill:gold"/><rect x="31.33" y="160.4" width="5.82" height="5.82" style="fill:gold"/><rect x="17.71" y="170.03" width="5.82" height="5.82" style="fill:gold"/><rect x="13.51" y="160.86" width="5.82" height="5.82" style="fill:gold"/><rect x="8.32" y="145.11" width="5.82" height="5.82" style="fill:gold"/><rect x="9.87" y="154.38" width="5.82" height="5.82" style="fill:gold"/><polygon points="109.98 40.97 17.69 40.97 17.69 130.94 22.05 126.58 22.05 101.86 28.74 101.86 28.74 66.96 35.53 60.17 35.53 50.28 71.98 50.28 78.09 44.17 109.98 44.17 109.98 40.97" style="fill:#0751cf"/><rect x="139.84" y="82.66" width="1.94" height="29.47" style="fill:none"/><polygon points="59.81 169 144.45 169 144.45 97.45 143.87 97.45 143.87 168.41 59.81 168.41 59.81 169 59.81 169" style="fill:gold"/><rect x="18.46" y="34.87" width="3.39" height="2.71" style="fill:gold"/><rect x="25.83" y="34.87" width="3.39" height="2.71" style="fill:gold"/><rect x="33.2" y="34.87" width="3.39" height="2.71" style="fill:gold"/><rect x="40.57" y="34.87" width="3.39" height="2.71" style="fill:gold"/><rect x="47.94" y="34.87" width="3.39" height="2.71" style="fill:gold"/><rect x="55.3" y="34.87" width="3.39" height="2.71" style="fill:gold"/><rect x="62.67" y="34.87" width="3.39" height="2.71" style="fill:gold"/><rect x="136.6" y="74.03" width="1.45" height="9.31" style="fill:gold"/><rect x="136.6" y="98.32" width="1.45" height="61.37" style="fill:gold"/><polygon points="52.01 51.87 49.93 49.79 52.01 47.7 50.83 46.52 48.75 48.61 46.67 46.52 45.49 47.7 47.57 49.79 45.49 51.87 46.67 53.05 48.75 50.97 50.83 53.05 52.01 51.87" style="fill:gold"/><polygon points="60.74 51.87 58.66 49.79 60.74 47.7 59.56 46.52 57.48 48.61 55.39 46.52 54.21 47.7 56.3 49.79 54.21 51.87 55.39 53.05 57.48 50.97 59.56 53.05 60.74 51.87" style="fill:gold"/><polygon points="69.46 51.87 67.38 49.79 69.46 47.7 68.28 46.52 66.2 48.61 64.12 46.52 62.94 47.7 65.02 49.79 62.94 51.87 64.12 53.05 66.2 50.97 68.28 53.05 69.46 51.87" style="fill:gold"/><polygon points="78.19 51.87 76.11 49.79 78.19 47.7 77.01 46.52 74.93 48.61 72.84 46.52 71.66 47.7 73.75 49.79 71.66 51.87 72.84 53.05 74.93 50.97 77.01 53.05 78.19 51.87" style="fill:gold"/></g><path d="M91.08,33.59a1.84,1.84,0,1,0-2,1.83V45.91H86.2v.42h3.26V35.41A1.84,1.84,0,0,0,91.08,33.59Z" style="fill:#060a0f"/><polygon points="84.12 48.14 86.76 47.3 86.76 44.87 77 44.87 77 48.14 84.12 48.14" style="fill:#060a0f"/><path d="M57.55,33.59a1.84,1.84,0,1,1,2,1.83V45.91h2.84v.42H59.17V35.41A1.84,1.84,0,0,1,57.55,33.59Z" style="fill:#060a0f"/><polygon points="64.51 48.14 61.87 47.3 61.87 44.87 71.63 44.87 71.63 48.14 64.51 48.14" style="fill:#060a0f"/><polygon points="68.42 40.81 62.42 49.27 86.62 49.27 81.61 41.49 68.42 40.81" style="fill:#1b0014"/><path d="M62.57,58.48h-10S46.92,62,55,74.79L53.23,79H60S63.94,63.05,62.57,58.48Z" style="fill:#dd819f"/><path d="M61.61,50.79s-12.81-4-6.76,6.56a2.81,2.81,0,0,0,2.32,1.41,12.85,12.85,0,0,1,2.86.41,5.25,5.25,0,0,1,3.82,5.35c-.17,3.07,0,9.6,4.82,10.27h6.22V55.63Z" style="fill:#af546f"/><path d="M68.16,49.27H60.85L65.66,59a2.45,2.45,0,0,0,2.2,1.36h7V50.22Z" style="fill:#fff"/><path d="M67.87,74.61V77.1A4.08,4.08,0,0,0,70.8,81l3.14.94h1V74.79Z" style="fill:#7e2949"/><polygon points="68.9 79.81 65.46 81.52 65.46 86.05 74.89 86.05 74.89 81.15 68.9 79.81" style="fill:#590d31"/><polygon points="65.46 86.05 63.19 86.05 61.51 100.68 59.97 101.92 59.97 104.26 70.87 104.26 73.21 90.37 74.89 90.37 74.89 86.05 65.46 86.05" style="fill:#440028"/><path d="M60,104.26V106l2,1.32,4.75,16.74h4.17v-11.7s2.92-6.07,0-8.12Z" style="fill:#2e001d"/><path d="M70.87,123.15s-8.1-1.07-7.52,7.12c0,0,4.07,12.87,2.72,20.09h4.8Z" style="fill:#590d31"/><polygon points="66.07 150.36 60.19 156.24 60.19 161.19 58.12 163.26 58.12 174.06 70.87 174.06 70.87 150.36 66.07 150.36" style="fill:#2e001d"/><path d="M50.63,98.87c-.24.3-2.29,5.39-2.29,5.39l3.22-.61,1.07-4.78Z" style="fill:#af546f"/><path d="M51.3,78.33c0-.07,4.88,0,7.9,0a1.66,1.66,0,0,1,1.55,2.21l-6.31,18a2.07,2.07,0,0,1-2.15,1.37l-2-.19a1.62,1.62,0,0,1-1.41-2C50.08,93.16,52.82,81.68,51.3,78.33Z" style="fill:#ba5d80"/><polygon points="46.19 104.19 52.63 102.68 51.95 114.17 46.19 111.69 46.19 104.19" style="fill:#3a3b3f"/><path d="M53.26,52.33c0-.11-2.43-2.4-7.62-1.23V49.27s10.65-1.05,16,1.52Z" style="fill:#440028"/><path d="M86.9,58.48H97s5.6,3.51-2.44,16.31L96.25,79H89.51S85.54,63.05,86.9,58.48Z" style="fill:#af6381"/><path d="M87.87,50.79s12.81-4,6.76,6.56a2.82,2.82,0,0,1-2.32,1.41,13,13,0,0,0-2.87.41,5.24,5.24,0,0,0-3.81,5.35c.17,3.07,0,9.6-4.83,10.27H74.59V55.63Z" style="fill:#924360"/><path d="M81.31,49.27h7.32L83.82,59a2.47,2.47,0,0,1-2.2,1.36h-7V50.22Z" style="fill:#d9c9cd"/><path d="M81.61,74.61V77.1A4.08,4.08,0,0,1,78.68,81L75.54,82h-1V74.79Z" style="fill:#661b3e"/><polygon points="80.58 79.81 84.02 81.52 84.02 86.05 74.59 86.05 74.59 81.15 80.58 79.81" style="fill:#46002a"/><polygon points="84.02 86.05 86.29 86.05 87.97 100.68 89.5 101.92 89.5 104.26 78.61 104.26 76.27 90.37 74.59 90.37 74.59 86.05 84.02 86.05" style="fill:#2e001e"/><path d="M89.51,104.26V106l-2,1.32-4.75,16.74H78.61v-11.7s-2.93-6.07,0-8.12Z" style="fill:#15000e"/><path d="M78.61,123.15s8.1-1.07,7.51,7.12c0,0-4.06,12.87-2.71,20.09h-4.8Z" style="fill:#430027"/><polygon points="83.41 150.36 89.28 156.24 89.28 161.19 91.36 163.26 91.36 174.06 78.61 174.06 78.61 150.36 83.41 150.36" style="fill:#1b0014"/><path d="M98.85,98.87c.24.3,2.29,5.39,2.29,5.39l-3.22-.61-1.07-4.78Z" style="fill:#af546f"/><path d="M98.17,78.33c0-.07-4.87,0-7.89,0a1.67,1.67,0,0,0-1.56,2.21L95,98.5a2.06,2.06,0,0,0,2.15,1.37l2-.19a1.62,1.62,0,0,0,1.41-2C99.39,93.16,96.66,81.68,98.17,78.33Z" style="fill:#943e66"/><polygon points="103.28 104.19 96.85 102.68 97.53 114.17 103.28 111.69 103.28 104.19" style="fill:#3a3b3f"/><path d="M96.22,52.33c0-.11,2.43-2.4,7.62-1.23V49.27s-10.65-1.05-16,1.52Z" style="fill:#440028"/><path d="M66.84,51.45a1.63,1.63,0,0,0,.37.84l4.54,5.53h0a.65.65,0,0,0,.65.66h2.19v-7Z" style="fill:#1b0014"/><path d="M74.59,40.05H71.3a5.56,5.56,0,0,0-1,.1l-.9.19a2.26,2.26,0,0,0-1.75,1.77l-.29,1.53L67.94,46A12.45,12.45,0,0,1,67,50.47a1.6,1.6,0,0,0-.16,1h7.75Z" style="fill:#a9aba7"/><path d="M82.64,51.45a1.76,1.76,0,0,0-.16-1A12.45,12.45,0,0,1,81.54,46l.58-2.34-.3-1.53a2.23,2.23,0,0,0-1.75-1.77l-.9-.19a5.45,5.45,0,0,0-1-.1H74.89v11.4Z" style="fill:#818485"/><path d="M74.89,51.45v7h2.18a.65.65,0,0,0,.66-.66h0l4.54-5.53a1.72,1.72,0,0,0,.37-.84Z" style="fill:#1b0014"/><rect x="74.59" y="51.45" width="0.3" height="7.04" style="fill:#1b0014"/><rect x="74.59" y="40.05" width="0.3" height="11.39" style="fill:#818485"/><rect x="72.17" y="42.83" width="0.88" height="5.75" style="fill:#1b0014"/><rect x="75.92" y="42.83" width="0.88" height="5.75" style="fill:#1b0014"/><rect x="70.87" y="123.15" width="1.3" height="14.07" style="fill:#1b0014"/><rect x="77.31" y="123.15" width="1.3" height="14.07" style="fill:#1b0014"/><path d="M72.73,125.21c0,.61-.25,1.12-.56,1.12s-.56-.51-.56-1.12.25-1.13.56-1.13S72.73,124.59,72.73,125.21Z" style="fill:#1b0014"/><path d="M77.87,125.21c0,.61-.25,1.12-.56,1.12s-.56-.51-.56-1.12.25-1.13.56-1.13S77.87,124.59,77.87,125.21Z" style="fill:#1b0014"/><path d="M72.73,134.77c0,.62-.25,1.13-.56,1.13s-.56-.51-.56-1.13.25-1.12.56-1.12S72.73,134.16,72.73,134.77Z" style="fill:#1b0014"/><path d="M77.87,134.77c0,.62-.25,1.13-.56,1.13s-.56-.51-.56-1.13.25-1.12.56-1.12S77.87,134.16,77.87,134.77Z" style="fill:#1b0014"/></g></g></svg>