<svg xmlns="http://www.w3.org/2000/svg" xmlns:xlink="http://www.w3.org/1999/xlink" viewBox="0 0 148.25 207.55"><defs><linearGradient id="Degradado_sin_nombre_2" x1="139.68" y1="-0.46" x2="6.35" y2="211.54" gradientUnits="userSpaceOnUse"><stop offset="0" stop-color="#0fc"/><stop offset="1" stop-color="#ffee02"/></linearGradient><linearGradient id="Degradado_sin_nombre_2-2" x1="28.36" y1="196.65" x2="159.15" y2="65.86" xlink:href="#Degradado_sin_nombre_2"/><linearGradient id="Degradado_sin_nombre_2-3" x1="151.62" y1="81.54" x2="79.62" y2="213.54" xlink:href="#Degradado_sin_nombre_2"/></defs><title>Asset 148</title><g id="Layer_2" data-name="Layer 2"><g id="Layer_3" data-name="Layer 3"><rect width="148.25" height="207.55" style="fill:url(#Degradado_sin_nombre_2)"/><rect x="39.26" y="54.96" width="108.99" height="152.59" style="fill:url(#Degradado_sin_nombre_2-2)"/><rect x="74.13" y="103.77" width="74.13" height="103.78" style="fill:url(#Degradado_sin_nombre_2-3)"/><g style="opacity:0.45"><path d="M46.69,155.81,50.53,152v8.88H11.23V156.6h2.15v-.79ZM137.92,102V75.34h-2.68V51.84L120.52,37.12h-4.17V33.25h-9.07v-2.5H89v1.36h11.11V33H83.83l-1.64,1.64H72.57v-2H56.11v1.78H53.24V32.31h-21v1.88H18.43L15,30.75H11.23V56.5h6.46v2H11.23v2.87h6.46v2H11.23v2.87h6.46v2H11.23v2.88h6.46v2H11.23v2.88h6.46v2H11.23V80.8h6.46v2H11.23v70.55h2.15v.87H40.16l4.45-4.45h33v2.79H88.34v-2.79h2.48v2H92v-2H93.2v2h1.19v-2h1.19v2h1.19v-2H98v2h1.19v-2h1.19v2h1.19v-2h1.19v2h1.19v-2h1.19v2h1.19v-2h1.19v2h1.19v-2h1.19v2h1.19v-2h1.19v2h1.19v-2h1.19v2h1.19v-2H117v2h1.19v-2h1.5l3.68,3.68h17.95V105.37Zm-9.57,57H112.88v-5.05H92.21v1.34H77v3.71H75.52v1.92h65.8v-6.23h-8.66Z" style="fill:#2c2c30;opacity:0.2"/><rect x="115.07" y="155.73" width="1.19" height="1.19" transform="translate(144.41 -36.01) rotate(45)" style="fill:#097f00"/><rect x="117.53" y="155.73" width="1.19" height="1.19" transform="translate(145.13 -37.74) rotate(45)" style="fill:#097f00"/><rect x="119.98" y="155.73" width="1.19" height="1.19" transform="translate(145.85 -39.48) rotate(45)" style="fill:#097f00"/><rect x="122.44" y="155.73" width="1.19" height="1.19" transform="translate(146.57 -41.21) rotate(45)" style="fill:#097f00"/><rect x="124.89" y="155.73" width="1.19" height="1.19" transform="translate(147.29 -42.95) rotate(45)" style="fill:#097f00"/><rect x="127.35" y="155.73" width="1.19" height="1.19" transform="translate(148.01 -44.68) rotate(45)" style="fill:#097f00"/><rect x="137.72" y="112.03" width="5.16" height="35.3" style="fill:#097f00"/><rect x="55.02" y="30.13" width="19.04" height="1.19" style="fill:#097f00"/><rect x="48.08" y="30.13" width="3.37" height="1.19" transform="translate(99.53 61.45) rotate(180)" style="fill:#097f00"/><rect x="21.61" y="30.13" width="22.91" height="1.19" style="fill:#097f00"/><polygon points="14.18 150.22 40.5 150.22 35.74 145.46 18.94 145.46 18.94 128.66 14.18 123.9 14.18 150.22" style="fill:#097f00"/><rect x="136.13" y="58.54" width="1.34" height="5.35" style="fill:#097f00"/><rect x="136.13" y="65.68" width="1.34" height="5.35" style="fill:#097f00"/><path d="M84.27,36v6.74H91V36Zm5.56,5.55H85.46V37.17h4.37Z" style="fill:#097f00"/><path d="M94,36v6.74h6.74V36Zm5.55,5.55H95.18V37.17h4.36Z" style="fill:#097f00"/><path d="M103.71,36v6.74h6.74V36Zm5.55,5.55H104.9V37.17h4.36Z" style="fill:#097f00"/><polygon points="137.63 50.38 137.63 49.18 136.44 49.18 136.44 47.98 135.24 47.98 135.24 46.79 134.04 46.79 134.04 45.59 132.85 45.59 132.85 44.39 131.65 44.39 131.65 43.2 130.46 43.2 130.46 42 129.26 42 129.26 40.8 128.06 40.8 128.06 39.61 126.87 39.61 126.87 38.41 125.67 38.41 125.67 37.22 124.47 37.22 124.47 36.02 123.28 36.02 123.28 34.82 122.08 34.82 122.08 33.63 120.89 33.63 120.89 32.43 119.42 32.43 119.42 33.9 120.61 33.9 120.61 35.09 121.81 35.09 121.81 36.29 123.01 36.29 123.01 37.49 124.2 37.49 124.2 38.68 125.4 38.68 125.4 39.88 126.6 39.88 126.6 41.08 127.79 41.08 127.79 42.27 128.99 42.27 128.99 43.47 130.19 43.47 130.19 44.66 131.38 44.66 131.38 45.86 132.58 45.86 132.58 47.06 133.78 47.06 133.78 48.25 134.97 48.25 134.97 49.45 136.17 49.45 136.17 50.65 137.36 50.65 137.36 51.84 138.83 51.84 138.83 50.38 137.63 50.38" style="fill:#9bf424"/><path d="M29.14,99.14V95.67H25.37v3.77h3.77ZM26,96.27h2.58v2.57H26Zm76.75,48h21.61v-2.78H102.72Zm.59-2.18h20.43v1.58H103.31Zm26.77-54.34h3.38V84.37h-3.38Zm.6-2.78h2.18v2.18h-2.18Zm-9.92-15V67.11h-3.17v3.18h3.17Zm-2.57-2.28h2v2h-2ZM9.11,53.23h4V35.78h-4Zm.6-16.86h2.77V52.64H9.71ZM60.87,152.79h5v-5h-5Zm.6-4.37h3.76v3.77H61.47ZM20.22,163.5H41.44v-3H20.22Zm.59-2.38h20v1.78h-20Zm68.82,4.16H92.8v-3.17H89.63Zm.59-2.58h2v2h-2Zm50-69.21v3.17h3.17V93.49Zm.59.59h2v2h-2Zm-28-64.35V26.46h-3.57V30h3.57Zm-3-2.68h2.38v2.38h-2.38ZM5.94,91.71H9.11V88.53H5.94Zm.59-2.58h2v2h-2Z" style="fill:#9bf424"/></g><path d="M118.44,51.73a1.53,1.53,0,1,0-1.7,1.63v9.37h-2.36v.37h2.71V53.36A1.6,1.6,0,0,0,118.44,51.73Z"/><polygon points="112.65 64.71 114.84 63.97 114.84 61.8 106.73 61.8 106.73 64.71 112.65 64.71"/><path d="M32.42,51.73a1.53,1.53,0,1,1,1.69,1.63v9.37h2.37v.37H33.76V53.36A1.6,1.6,0,0,1,32.42,51.73Z"/><polygon points="38.21 64.71 36.01 63.97 36.01 61.8 44.12 61.8 44.12 64.71 38.21 64.71"/><rect x="64.76" y="45.81" width="20.52" height="2.03" style="fill:#121718"/><path d="M47.72,46.21v7.84h1V46.21a1.77,1.77,0,0,1,1.7-1.83H63.75a1.77,1.77,0,0,1,1.7,1.83h1a2.81,2.81,0,0,0-2.69-2.9H50.42A2.81,2.81,0,0,0,47.72,46.21Z" style="fill:#121718"/><path d="M43.86,99h7.31V97.9H43.86a1.77,1.77,0,0,1-1.7-1.83V81.77a1.77,1.77,0,0,1,1.7-1.83V78.88a2.8,2.8,0,0,0-2.69,2.89v14.3A2.8,2.8,0,0,0,43.86,99Z" style="fill:#121718"/><path d="M39.59,88.92H46.9V87.86H39.59A1.77,1.77,0,0,1,37.89,86V71.73a1.77,1.77,0,0,1,1.7-1.83V68.84a2.79,2.79,0,0,0-2.69,2.89V86A2.8,2.8,0,0,0,39.59,88.92Z" style="fill:#121718"/><path d="M58.7,108H51.39V107H58.7a1.77,1.77,0,0,0,1.7-1.83V90.84A1.77,1.77,0,0,0,58.7,89V87.94a2.81,2.81,0,0,1,2.69,2.9v14.29A2.81,2.81,0,0,1,58.7,108Z" style="fill:#121718"/><rect x="50.04" y="101.83" width="2.7" height="9.01" style="fill:#cdd0d0"/><polygon points="74.76 50.55 72.82 49.62 62.11 49.62 60.6 51.24 43.7 51.24 38.27 57.07 38.27 58.99 40.53 58.99 40.53 57.71 45.29 52.69 59.49 52.69 59.49 70.9 64.76 83.75 74.76 83.75 74.76 50.55" style="fill:#85a2b5"/><path d="M56.59,47.33h-1V43.81a4.38,4.38,0,0,1,4.22-4.52h6.28v1H59.86a3.4,3.4,0,0,0-3.27,3.5Z" style="fill:#121718"/><path d="M54.64,48.14h-1V43.59a6.22,6.22,0,0,1,6-6.42h6.68v1H59.68a5.23,5.23,0,0,0-5,5.4Z" style="fill:#121718"/><polygon points="39.34 58.99 39.34 72.39 54.29 72.39 54.29 52.69 45.29 52.69 40.53 57.71 40.53 58.99 39.34 58.99" style="fill:#6b7b8a"/><polygon points="39.34 72.39 39.34 75.5 47.59 84.18 58.93 84.18 62.73 78.8 59.49 70.9 59.49 52.69 54.29 52.69 54.29 72.39 39.34 72.39" style="fill:#67587d"/><rect x="52.63" y="44.44" width="5.13" height="6.8" style="fill:#6b7b8a"/><polygon points="64.19 33.91 64.19 43.16 67.47 46.68 67.47 33.91 64.19 33.91" style="fill:#6b7b8a"/><polygon points="74.72 42.66 74.72 50.53 72.82 49.62 67.23 49.62 67.23 42.66 74.72 42.66" style="fill:#53616a"/><polygon points="74.76 32.37 74.76 50.55 74.74 50.54 74.72 50.53 74.72 42.66 67.23 42.66 67.23 32.37 74.76 32.37" style="fill:#5e6f7b"/><rect x="63.3" y="35.63" width="0.89" height="6.51" style="fill:#121718"/><rect x="53.26" y="42.66" width="3.95" height="1.78" style="fill:#121718"/><polygon points="74.76 72.39 74.76 50.55 72.82 49.62 65.81 49.62 65.81 58.99 73.02 66.72 73.02 72.39 74.76 72.39" style="fill:#586c7a"/><polygon points="74.76 87.5 66.3 87.5 65.83 90.31 74.76 90.31 74.76 87.5" style="fill:#586c7a"/><path d="M47.59,84.18a11.06,11.06,0,0,0,1,12.34h5.87l2.73-4.08H58.7V84.18Z" style="fill:#586c7a"/><rect x="65.84" y="90.31" width="8.92" height="2.21" style="fill:#3f505a"/><rect x="65.84" y="92.52" width="8.92" height="3.01" style="fill:#23353d"/><rect x="64.29" y="95.53" width="10.47" height="3.01" style="fill:#1b3037"/><polygon points="74.76 83.75 64.76 83.75 66.3 87.5 74.76 87.5 74.76 83.75" style="fill:#87aac0"/><polygon points="46.82 96.52 55.84 96.52 56.61 99.33 56.61 101.63 46.17 101.63 46.17 99.07 46.82 96.52" style="fill:#85a2b5"/><polygon points="46.17 101.63 48.86 105.37 53.94 105.37 56.61 101.63 46.17 101.63" style="fill:#586c7a"/><polygon points="40.53 58.99 54.29 66.14 54.29 52.69 45.29 52.69 40.53 57.71 40.53 58.99" style="fill:#475760"/><path d="M51.39,111v-3.2s-6.14-.88-4.28,10.18h1.56C48.19,115.44,47.85,111,51.39,111Z" style="fill:#d4d5d1"/><path d="M54.11,118h1.56c1.86-11.06-4.28-10.18-4.28-10.18V111C54.93,111,54.59,115.44,54.11,118Z" style="fill:#aeb1ae"/><polygon points="72.46 98.53 60.49 98.53 72.46 113.38 72.46 98.53" style="fill:#252827"/><path d="M60.49,98.54h-.06v15h12v-.16Z" style="fill:#121718"/><polyline points="72.46 113.54 72.46 122.49 64.49 122.49 60.43 113.54" style="fill:#252827"/><polygon points="74.76 98.53 74.76 105.25 72.46 113.38 72.46 98.53 74.76 98.53" style="fill:#121718"/><rect x="61.39" y="120.2" width="11.07" height="20.6" style="fill:#121718"/><rect x="62.73" y="140.79" width="8.23" height="20.51" style="fill:#121718"/><polygon points="59.77 135.77 65.83 135.77 72.46 161.31 59.77 161.31 59.77 135.77" style="fill:#252827"/><polygon points="54.06 72.39 58.7 84.18 62.73 78.8 59.49 70.9 59.49 52.69 54.06 52.69 54.06 72.39" style="fill:#252827"/><polygon points="57.76 51.24 61.25 47.49 74.76 47.49 74.76 50.55 72.82 49.62 62.11 49.62 60.6 51.24 57.76 51.24" style="fill:#252827"/><path d="M59.72,163.48H67v-1.07H59.72a1.77,1.77,0,0,1-1.7-1.83v-14.3a1.77,1.77,0,0,1,1.7-1.83v-1.06A2.8,2.8,0,0,0,57,146.28v14.3A2.81,2.81,0,0,0,59.72,163.48Z" style="fill:#121718"/><rect x="59.77" y="161.3" width="12.69" height="4.15" style="fill:#586c7a"/><polygon points="73.02 66.72 59.49 70.9 64.76 83.75 74.76 83.75 74.76 72.39 73.02 72.39 73.02 66.72" style="fill:#9cbacc"/><polygon points="61.39 120.2 62.8 118.69 72.46 120.2 72.46 124.79 67.3 124.79 61.39 120.2" style="fill:#9cbacc"/><polygon points="67.3 124.79 70.95 140.79 72.46 140.79 72.46 124.79 67.3 124.79" style="fill:#586c7a"/><path d="M101.75,46.21v7.84h-1V46.21a1.77,1.77,0,0,0-1.7-1.83H85.73A1.77,1.77,0,0,0,84,46.21H83a2.8,2.8,0,0,1,2.69-2.9H99.06A2.81,2.81,0,0,1,101.75,46.21Z" style="fill:#121718"/><path d="M105.61,99h-7.3V97.9h7.3a1.78,1.78,0,0,0,1.71-1.83V81.77a1.78,1.78,0,0,0-1.71-1.83V78.88a2.8,2.8,0,0,1,2.7,2.89v14.3A2.8,2.8,0,0,1,105.61,99Z" style="fill:#121718"/><path d="M109.89,88.92h-7.31V87.86h7.31a1.77,1.77,0,0,0,1.7-1.83V71.73a1.77,1.77,0,0,0-1.7-1.83V68.84a2.8,2.8,0,0,1,2.69,2.89V86A2.8,2.8,0,0,1,109.89,88.92Z" style="fill:#121718"/><path d="M90.78,108h7.31V107H90.78a1.77,1.77,0,0,1-1.7-1.83V90.84A1.77,1.77,0,0,1,90.78,89V87.94a2.8,2.8,0,0,0-2.69,2.9v14.29A2.8,2.8,0,0,0,90.78,108Z" style="fill:#121718"/><rect x="96.74" y="101.83" width="2.7" height="9.01" transform="translate(196.17 212.67) rotate(180)" style="fill:#7b8081"/><polygon points="74.72 50.55 76.66 49.62 87.37 49.62 88.88 51.24 105.77 51.24 111.21 57.07 111.21 58.99 108.95 58.99 108.95 57.71 104.19 52.69 89.99 52.69 89.99 70.9 84.72 83.75 74.72 83.75 74.72 50.55" style="fill:#7690a1"/><path d="M92.89,47.33h1V43.81a4.38,4.38,0,0,0-4.22-4.52H83.34v1h6.28a3.4,3.4,0,0,1,3.27,3.5Z" style="fill:#121718"/><path d="M94.84,48.14h1V43.59a6.23,6.23,0,0,0-6-6.42H83.11v1H89.8a5.23,5.23,0,0,1,5,5.4Z" style="fill:#121718"/><polygon points="110.14 58.99 110.14 72.39 95.18 72.39 95.18 52.69 104.19 52.69 108.95 57.71 108.95 58.99 110.14 58.99" style="fill:#5a6974"/><polygon points="110.14 72.39 110.14 75.5 101.89 84.18 90.54 84.18 86.75 78.8 89.99 70.9 89.99 52.69 95.18 52.69 95.18 72.39 110.14 72.39" style="fill:#4d3f62"/><rect x="91.72" y="44.44" width="5.13" height="6.8" transform="translate(188.57 95.68) rotate(180)" style="fill:#6b7b8a"/><polygon points="85.28 33.91 85.28 43.16 82 46.68 82 33.91 85.28 33.91" style="fill:#6b7b8a"/><polygon points="82.25 42.66 82.25 49.62 76.66 49.62 74.76 50.53 74.76 42.66 82.25 42.66" style="fill:#38454c"/><polygon points="82.25 32.37 82.25 42.66 74.76 42.66 74.76 50.53 74.74 50.54 74.72 50.55 74.72 32.37 82.25 32.37" style="fill:#435158"/><rect x="85.29" y="35.63" width="0.89" height="6.51" transform="translate(171.46 77.77) rotate(180)" style="fill:#121718"/><rect x="92.26" y="42.66" width="3.95" height="1.78" transform="translate(188.48 87.09) rotate(180)" style="fill:#121718"/><polygon points="74.72 72.39 74.72 50.55 76.66 49.62 83.67 49.62 83.67 58.99 76.45 66.72 76.45 72.39 74.72 72.39" style="fill:#475760"/><polygon points="74.72 87.5 83.18 87.5 83.64 90.31 74.72 90.31 74.72 87.5" style="fill:#495863"/><path d="M101.89,84.18a11.09,11.09,0,0,1-1,12.34H95l-2.73-4.08H90.78V84.18Z" style="fill:#415462"/><rect x="74.72" y="90.31" width="8.92" height="2.21" style="fill:#2e3d44"/><rect x="74.72" y="92.52" width="8.92" height="3.01" style="fill:#15272e"/><rect x="74.72" y="95.53" width="10.47" height="3.01" style="fill:#05181f"/><polygon points="74.72 83.75 84.72 83.75 83.18 87.5 74.72 87.5 74.72 83.75" style="fill:#769cb1"/><polygon points="102.66 96.52 93.64 96.52 92.86 99.33 92.86 101.63 103.31 101.63 103.31 99.07 102.66 96.52" style="fill:#6b889e"/><polygon points="103.31 101.63 100.62 105.37 95.54 105.37 92.86 101.63 103.31 101.63" style="fill:#495a65"/><polygon points="108.95 58.99 95.18 66.14 95.18 52.69 104.19 52.69 108.95 57.71 108.95 58.99" style="fill:#34424a"/><path d="M98.09,111v-3.2s6.14-.88,4.27,10.18h-1.55C101.29,115.44,101.63,111,98.09,111Z" style="fill:#7b8081"/><path d="M95.37,118H93.81c-1.86-11.06,4.28-10.18,4.28-10.18V111C94.55,111,94.88,115.44,95.37,118Z" style="fill:#b1b2b1"/><polygon points="77.02 98.53 88.98 98.53 77.02 113.38 77.02 98.53" style="fill:#060a0c"/><path d="M89,98.54h.07v15H77v-.16Z" style="fill:#121718"/><polyline points="77.02 113.54 77.02 122.49 84.99 122.49 89.05 113.54"/><polygon points="74.72 98.53 74.72 105.25 77.02 113.38 77.02 98.53 74.72 98.53"/><rect x="77.02" y="120.2" width="11.07" height="20.6" transform="translate(165.1 260.99) rotate(180)"/><rect x="78.52" y="140.79" width="8.23" height="20.51" transform="translate(165.28 302.1) rotate(180)" style="fill:#121718"/><polygon points="89.71 135.77 83.64 135.77 77.02 161.31 89.71 161.31 89.71 135.77" style="fill:#131717"/><polygon points="95.42 72.39 90.78 84.18 86.75 78.8 89.99 70.9 89.99 52.69 95.42 52.69 95.42 72.39" style="fill:#252827"/><polygon points="91.72 51.24 88.11 47.33 74.72 47.33 74.72 50.72 76.66 49.62 87.37 49.62 88.88 51.24 91.72 51.24" style="fill:#252827"/><path d="M89.76,163.48H82.45v-1.07h7.31a1.77,1.77,0,0,0,1.7-1.83v-14.3a1.77,1.77,0,0,0-1.7-1.83v-1.06a2.8,2.8,0,0,1,2.69,2.89v14.3A2.81,2.81,0,0,1,89.76,163.48Z" style="fill:#121718"/><rect x="77.02" y="161.3" width="12.69" height="4.15" transform="translate(166.73 326.76) rotate(180)" style="fill:#415561"/><polygon points="76.45 66.72 89.99 70.9 84.72 83.75 74.72 83.75 74.72 72.39 76.45 72.39 76.45 66.72" style="fill:#88a7b9"/><polygon points="88.08 120.2 86.68 118.69 77.02 120.2 77.02 124.79 82.17 124.79 88.08 120.2" style="fill:#6c8897"/><polygon points="82.17 124.79 78.53 140.79 77.02 140.79 77.02 124.79 82.17 124.79" style="fill:#374a54"/><polygon points="57.22 92.44 53.96 84.18 58.83 84.18 58.83 92.44 57.22 92.44" style="fill:#475760"/><polygon points="92.26 92.44 95.65 84.18 90.78 84.18 90.78 92.44 92.26 92.44" style="fill:#2e3d44"/><polygon points="55.84 96.52 58.83 92.44 57.22 92.44 54.49 96.52 55.84 96.52" style="fill:#252827"/><polygon points="90.78 92.44 93.64 96.52 94.99 96.52 92.26 92.44 90.78 92.44" style="fill:#252827"/><rect x="71.7" y="35.39" width="1.13" height="5.85"/><rect x="75.79" y="35.39" width="1.13" height="5.85"/><line x1="74.76" y1="42.66" x2="74.72" y2="42.66" style="fill:none"/><line x1="83.93" y1="42.66" x2="82.25" y2="42.66" style="fill:none"/><line x1="67.23" y1="42.66" x2="66.14" y2="42.66" style="fill:none"/></g></g></svg>