<svg xmlns="http://www.w3.org/2000/svg" xmlns:xlink="http://www.w3.org/1999/xlink" viewBox="0 0 148.25 207.55"><defs><linearGradient id="Degradado_sin_nombre_6" x1="-14.83" y1="192.72" x2="163.07" y2="14.83" gradientUnits="userSpaceOnUse"><stop offset="0" stop-color="aqua"/><stop offset="1" stop-color="blue"/></linearGradient></defs><title>Asset 138</title><g id="Layer_2" data-name="Layer 2"><g id="Layer_3" data-name="Layer 3"><rect width="148.25" height="207.55" style="fill:url(#Degradado_sin_nombre_6)"/><g style="opacity:0.45"><path d="M135.67,57.3V51.48h5V57.3Zm5-11.64V39.85h-5v5.81ZM129.86,63.11h5.81V57.3h-5.81ZM27.77,163.74h5.81V158.8H27.77ZM22,153v5.81h5.82V153ZM135.67,63.11v5.82h-5.81V63.11H124v5.82h-5.82V63.11H124V57.3h5.82V51.48h5.81V45.66h-5.81V39.85H124v5.81h-5.82V39.85H124V36.54H13.45v127.2H22V158.8H16.13V153H22v-5.82H16.13v-5.82H22v5.82h5.82V153h5.81v5.81H39.4v4.94h5.82V158.8H51v4.94h89.62V63.11Zm0-26.57h-5.81v3.31h5.81Z" style="fill:#00158e;opacity:0.2"/><rect x="49.85" y="165.43" width="5.82" height="5.82" style="fill:gold"/><rect x="37.43" y="166.76" width="5.82" height="5.82" style="fill:gold"/><rect x="4.7" y="167.38" width="5.82" height="5.82" style="fill:gold"/><rect x="31.33" y="160.4" width="5.82" height="5.82" style="fill:gold"/><rect x="17.71" y="170.03" width="5.82" height="5.82" style="fill:gold"/><rect x="13.51" y="160.86" width="5.82" height="5.82" style="fill:gold"/><rect x="8.32" y="145.11" width="5.82" height="5.82" style="fill:gold"/><rect x="9.87" y="154.38" width="5.82" height="5.82" style="fill:gold"/><polygon points="109.98 40.97 17.69 40.97 17.69 130.94 22.05 126.58 22.05 101.86 28.74 101.86 28.74 66.96 35.53 60.17 35.53 50.28 71.98 50.28 78.09 44.17 109.98 44.17 109.98 40.97" style="fill:#0751cf"/><rect x="139.84" y="82.66" width="1.94" height="29.47" style="fill:none"/><polygon points="59.81 169 144.45 169 144.45 97.45 143.87 97.45 143.87 168.41 59.81 168.41 59.81 169 59.81 169" style="fill:gold"/><rect x="18.46" y="34.87" width="3.39" height="2.71" style="fill:gold"/><rect x="25.83" y="34.87" width="3.39" height="2.71" style="fill:gold"/><rect x="33.2" y="34.87" width="3.39" height="2.71" style="fill:gold"/><rect x="40.57" y="34.87" width="3.39" height="2.71" style="fill:gold"/><rect x="47.94" y="34.87" width="3.39" height="2.71" style="fill:gold"/><rect x="55.3" y="34.87" width="3.39" height="2.71" style="fill:gold"/><rect x="62.67" y="34.87" width="3.39" height="2.71" style="fill:gold"/><rect x="136.6" y="74.03" width="1.45" height="9.31" style="fill:gold"/><rect x="136.6" y="98.32" width="1.45" height="61.37" style="fill:gold"/><polygon points="52.01 51.87 49.93 49.79 52.01 47.7 50.83 46.52 48.75 48.61 46.67 46.52 45.49 47.7 47.57 49.79 45.49 51.87 46.67 53.05 48.75 50.97 50.83 53.05 52.01 51.87" style="fill:gold"/><polygon points="60.74 51.87 58.66 49.79 60.74 47.7 59.56 46.52 57.48 48.61 55.39 46.52 54.21 47.7 56.3 49.79 54.21 51.87 55.39 53.05 57.48 50.97 59.56 53.05 60.74 51.87" style="fill:gold"/><polygon points="69.46 51.87 67.38 49.79 69.46 47.7 68.28 46.52 66.2 48.61 64.12 46.52 62.94 47.7 65.02 49.79 62.94 51.87 64.12 53.05 66.2 50.97 68.28 53.05 69.46 51.87" style="fill:gold"/><polygon points="78.19 51.87 76.11 49.79 78.19 47.7 77.01 46.52 74.93 48.61 72.84 46.52 71.66 47.7 73.75 49.79 71.66 51.87 72.84 53.05 74.93 50.97 77.01 53.05 78.19 51.87" style="fill:gold"/></g><path d="M90.11,49.63a2,2,0,1,0-2.17,1.95V62.74h-3v.44h3.47V51.58A2,2,0,0,0,90.11,49.63Z" style="fill:#060a0f"/><polygon points="82.7 65.1 85.51 64.22 85.51 61.63 75.14 61.63 75.14 65.1 82.7 65.1" style="fill:#060a0f"/><path d="M54.46,49.63a2,2,0,1,1,2.16,1.95V62.74h3v.44H56.18V51.58A2,2,0,0,1,54.46,49.63Z" style="fill:#060a0f"/><polygon points="61.86 65.1 59.06 64.22 59.06 61.63 69.43 61.63 69.43 65.1 61.86 65.1" style="fill:#060a0f"/><path d="M44,85.48h.92V81.86a6.09,6.09,0,0,1,6-6.16h1.47v-1H50.94A7,7,0,0,0,44,81.86Z"/><path d="M100.35,85.48h-.92V81.86a6.09,6.09,0,0,0-6-6.16H92v-1h1.47a7,7,0,0,1,6.92,7.11Z"/><path d="M67.16,114.61H65.72A4.53,4.53,0,0,1,61.26,110v-6.41h1.18V110a3.33,3.33,0,0,0,3.28,3.37h1.44Z"/><rect x="44.88" y="87.21" width="7.93" height="1.48" style="fill:#e86d24"/><polygon points="67.62 108.14 69.06 112.92 72.27 112.92 72.27 106.93 67.62 108.14" style="fill:#4c3727"/><path d="M51.5,82.92c0-.14-2.94-5.88-2.94-5.88l6.91-3.9,2.71,3.55Z" style="fill:#5f4632"/><polygon points="64.69 73.14 62.1 73.95 59.83 76.01 53.4 78.66 52.48 94.34 64.69 97.84 66.77 78.12 64.69 73.14" style="fill:#7f674f"/><polygon points="62.96 69 61.02 68.56 58.84 72.33 58.84 76.24 65.37 74.77 62.96 69" style="fill:#70523c"/><polygon points="64.08 69.23 67.23 78.12 69.46 78.12 67.1 69.23 64.08 69.23" style="fill:#e1c9bc"/><polygon points="67.1 69.23 69.85 68.16 69.85 78.12 69.46 78.12 67.1 69.23" style="fill:#e0cfc4"/><rect x="69.85" y="68.16" width="2.42" height="9.96" style="fill:#c1ab9f"/><polygon points="56.61 79.47 54.58 87.14 55.03 92.53 63.23 94.95 64.93 79.8 56.61 79.47" style="fill:#c1ab9f"/><polygon points="53.98 94.78 61.02 104.11 63.43 102.69 59.76 96.43 53.98 94.78" style="fill:#c1ab9f"/><polygon points="52.48 94.34 59.1 103.77 61.02 104.11 53.98 94.78 52.48 94.34" style="fill:#e1c9bc"/><path d="M61,104.11s3.46,5.18,5,2.82l-2.62-4.24Z" style="fill:#a0897f"/><polygon points="72.27 78.12 72.27 97.84 64.69 97.84 66.77 78.12 72.27 78.12" style="fill:#5f4632"/><polygon points="66.05 106.93 72.27 106.93 72.27 97.84 64.69 97.84 59.76 96.43 66.05 106.93" style="fill:#70523c"/><polygon points="53.33 79.87 51.49 79.87 51.49 88.69 52.81 88.69 53.33 79.87" style="fill:#5f4632"/><rect x="46.71" y="83.98" width="4.79" height="1.14" style="fill:#5f4632"/><path d="M36.24,84.55v4.14S37.6,93.07,44,90.57a32.91,32.91,0,0,1,.46,20.07h-5.9s-6.36-3.17-5.7-17.51c0,0,.46-9.22-1.64-10.43h0a1.14,1.14,0,0,1,1.11-1.15H37Z" style="fill:#5f4632"/><path d="M64.69,107.55s4.37,1.67,7.58-.62H66.05Z" style="fill:#5f4632"/><path d="M44,90.57l-5.41,18,6.09,1S47.79,102.18,44,90.57Z" style="fill:#4c3727"/><rect x="38.66" y="108.28" width="6.15" height="4.71" rx="1.55" style="fill:#23130d"/><rect x="40.01" y="112.99" width="3.45" height="13.73" style="fill:#2c1c12"/><polygon points="41.21 127.66 38.98 131.96 38.98 137.15 36.16 134.25 36.16 126.73 39.16 124.44 41.21 124.44 41.21 127.66" style="fill:#e86d24"/><polygon points="42.25 127.66 44.48 131.96 44.48 137.15 47.31 134.25 47.31 126.73 44.3 124.44 42.25 124.44 42.25 127.66" style="fill:#b25926"/><polygon points="36.71 126.31 36.71 122.29 37.96 122.29 37.96 125.36 36.71 126.31" style="fill:#2c1c12"/><polygon points="46.76 126.31 46.76 122.29 45.51 122.29 45.51 125.36 46.76 126.31" style="fill:#2c1c12"/><path d="M37.51,122.29h-.35V120.5a1.81,1.81,0,0,1,1.78-1.83H40V119H38.94a1.45,1.45,0,0,0-1.43,1.47Z" style="fill:#e86d24"/><path d="M46,122.29h.35V120.5a1.81,1.81,0,0,0-1.79-1.83H43.45V119h1.07A1.46,1.46,0,0,1,46,120.5Z" style="fill:#e86d24"/><path d="M42.5,86.75H39.63s-3.56-.86-3.86-3.52a2.47,2.47,0,0,1,2.43-2.75H40a2.42,2.42,0,0,1,1.61.62l2,1.8Z" style="fill:#7f674f"/><rect x="45.4" y="85.63" width="7.08" height="0.71" style="fill:#23130d"/><polygon points="41.21 86.75 43.45 92.46 44.59 92.46 46.83 86.33 41.21 86.75" style="fill:#e86d24"/><path d="M47.4,84.55a2.92,2.92,0,1,1-2.92-3A3,3,0,0,1,47.4,84.55Z" style="fill:#23130d"/><polygon points="36.24 84.55 32.88 88.98 32.17 88.98 32.17 97.84 40.68 101.68 43.45 92.46 41.21 86.75 36.24 84.55" style="fill:#23130d"/><polygon points="72.27 112.92 72.27 116.9 67.16 116.9 67.16 111.78 68.72 111.78 72.27 112.92" style="fill:#5f4632"/><polygon points="67.16 116.9 65.13 116.9 67.16 121.87 64.69 125.98 72.27 125.98 72.27 116.9 67.16 116.9" style="fill:#2c1c12"/><rect x="61.39" y="125.98" width="21.77" height="7.08" style="fill:#140f0e"/><rect x="64.5" y="130.71" width="15.6" height="19.99" style="fill:#2c2822"/><rect x="65.03" y="130.71" width="14.91" height="2.11" style="fill:#252827"/><rect x="72.24" y="129.6" width="8.61" height="1.11" transform="translate(153.08 260.32) rotate(180)" style="fill:#ef6f33"/><rect x="79.45" y="130.63" width="1.4" height="18.54" transform="translate(160.29 279.79) rotate(180)" style="fill:#ef6f33"/><rect x="80.15" y="149.03" width="2.27" height="3.2" transform="translate(162.56 301.26) rotate(180)" style="fill:#ef6f33"/><rect x="77.54" y="150.26" width="3.74" height="0.74" transform="translate(158.82 301.26) rotate(180)" style="fill:#1d1e22"/><rect x="77.09" y="147.21" width="1.23" height="6.84" transform="translate(155.42 301.26) rotate(180)" style="fill:#ef6f33"/><path d="M81.47,150h1v1.37h-1a.66.66,0,0,1-.62-.69A.65.65,0,0,1,81.47,150Z" style="fill:#1d1e22"/><rect x="82.42" y="149.46" width="0.3" height="2.44" transform="translate(165.13 301.37) rotate(180)" style="fill:#1d1e22"/><rect x="79.97" y="149.17" width="0.27" height="3.06" transform="translate(160.21 301.4) rotate(180)" style="fill:#1d1e22"/><rect x="63.62" y="129.6" width="8.61" height="1.11" style="fill:#f38d30"/><rect x="63.62" y="130.63" width="1.4" height="18.54" style="fill:#f38d30"/><rect x="62.06" y="149.03" width="2.27" height="3.2" style="fill:#ef6f33"/><rect x="63.19" y="150.26" width="3.74" height="0.74" style="fill:#1d1e22"/><rect x="66.15" y="147.21" width="1.23" height="6.84" style="fill:#f38d30"/><path d="M63,150h-.94v1.37H63a.66.66,0,0,0,.62-.69A.65.65,0,0,0,63,150Z" style="fill:#1d1e22"/><rect x="61.76" y="149.46" width="0.3" height="2.44" style="fill:#1d1e22"/><rect x="64.23" y="149.17" width="0.27" height="3.06" style="fill:#1d1e22"/><polygon points="72.24 146.94 67.38 142.12 67.38 145.47 72.24 150.29 72.24 146.94" style="fill:#313832"/><path d="M72.24,143.59l-4.52-4.47a1.67,1.67,0,0,0-.34,1v2l4.86,4.82Z" style="fill:#111b16"/><polygon points="72.24 156.99 67.38 152.17 67.38 155.52 72.24 160.33 72.24 156.99" style="fill:#111b16"/><polygon points="72.24 153.64 67.38 148.82 67.38 152.17 72.24 156.99 72.24 153.64" style="fill:#313832"/><polygon points="72.24 150.29 67.38 145.47 67.38 148.82 72.24 153.64 72.24 150.29" style="fill:#111b16"/><polygon points="72.24 160.33 67.38 155.52 67.38 158.87 71.21 162.67 72.24 162.67 72.24 160.33" style="fill:#313832"/><path d="M67.38,161a1.69,1.69,0,0,0,1.69,1.68h2.14l-3.83-3.8Z" style="fill:#111b16"/><path d="M72.24,140.24l-1.81-1.79H69.07a1.69,1.69,0,0,0-1.35.67l4.52,4.47Z" style="fill:#313832"/><polygon points="72.24 138.45 70.43 138.45 72.24 140.24 72.24 138.45" style="fill:#111b16"/><path d="M75.4,162.67A1.69,1.69,0,0,0,77.09,161v-2.05l-3.76,3.73Z" style="fill:#313832"/><polygon points="72.27 140.28 74.11 138.45 72.24 138.45 72.24 140.24 72.27 140.28" style="fill:#313832"/><path d="M75.4,138.45H74.12l-1.85,1.83,0,0v3.35l0,0,4.51-4.47A1.7,1.7,0,0,0,75.4,138.45Z" style="fill:#111b16"/><polygon points="72.24 146.94 72.24 150.29 72.27 150.32 77.09 145.54 77.09 142.19 72.27 146.97 72.24 146.94" style="fill:#111b16"/><path d="M72.24,143.59v3.35l0,0,4.82-4.78v-2.07a1.6,1.6,0,0,0-.31-1l-4.51,4.47Z" style="fill:#313832"/><polygon points="72.24 150.29 72.24 153.64 72.27 153.67 77.09 148.89 77.09 145.54 72.27 150.32 72.24 150.29" style="fill:#313832"/><polygon points="72.24 160.33 72.24 162.67 73.33 162.67 77.09 158.94 77.09 155.59 72.27 160.37 72.24 160.33" style="fill:#111b16"/><polygon points="72.24 153.64 72.24 156.99 72.27 157.02 77.09 152.24 77.09 148.89 72.27 153.67 72.24 153.64" style="fill:#111b16"/><polygon points="72.24 156.99 72.24 160.33 72.27 160.37 77.09 155.59 77.09 152.24 72.27 157.02 72.24 156.99" style="fill:#313832"/><polygon points="61.39 133.07 63.62 149.16 63.62 133.07 61.39 133.07" style="fill:#252827"/><polygon points="83.16 133.07 80.85 149.16 80.85 133.07 83.16 133.07" style="fill:#252827"/><path d="M73.36,130.16a1.13,1.13,0,1,1-1.12-1.24A1.18,1.18,0,0,1,73.36,130.16Z" style="fill:#2c2822"/><path d="M77.38,114.61h1.44A4.53,4.53,0,0,0,83.28,110v-6.41H82.1V110a3.33,3.33,0,0,1-3.28,3.37H77.38Z"/><rect x="91.74" y="87.21" width="7.93" height="1.48" transform="translate(191.4 175.9) rotate(180)" style="fill:#e86d24"/><polygon points="76.92 108.14 75.48 112.92 72.27 112.92 72.27 106.93 76.92 108.14" style="fill:#38291f"/><path d="M93.05,82.92C93.05,82.78,96,77,96,77l-6.9-3.9-2.71,3.55Z" style="fill:#5f4632"/><polygon points="79.85 73.14 82.44 73.95 84.71 76.01 91.15 78.66 92.07 94.34 79.85 97.84 77.78 78.12 79.85 73.14" style="fill:#634e3c"/><polygon points="81.58 69 83.53 68.56 85.71 72.33 85.26 76.24 79.17 74.77 81.58 69" style="fill:#5e432f"/><polygon points="80.46 69.23 77.32 78.12 75.09 78.12 77.45 69.23 80.46 69.23" style="fill:#c0a699"/><polygon points="77.45 69.23 74.69 68.16 74.69 78.12 75.09 78.12 77.45 69.23" style="fill:#b5a79e"/><rect x="72.27" y="68.16" width="2.42" height="9.96" style="fill:#a2928b"/><polygon points="87.94 79.47 89.97 87.14 89.51 92.53 81.31 94.95 79.61 79.8 87.94 79.47" style="fill:#c1ab9f"/><polygon points="90.57 94.78 83.53 104.11 81.12 102.69 84.79 96.43 90.57 94.78" style="fill:#a89388"/><polygon points="92.07 94.34 85.44 103.77 83.53 104.11 90.57 94.78 92.07 94.34" style="fill:#b9a499"/><path d="M83.53,104.11s-3.46,5.18-5,2.82l2.62-4.24Z" style="fill:#8a756c"/><polygon points="72.27 78.12 72.27 97.84 79.85 97.84 77.78 78.12 72.27 78.12" style="fill:#513c2d"/><polygon points="78.5 106.93 72.27 106.93 72.27 97.84 79.85 97.84 84.79 96.43 78.5 106.93" style="fill:#5d412d"/><polygon points="91.22 79.87 93.05 79.87 93.05 88.69 91.74 88.69 91.22 79.87" style="fill:#5f4632"/><rect x="93.05" y="83.98" width="4.79" height="1.14" style="fill:#5f4632"/><path d="M108.3,84.55v4.14s-1.35,4.38-7.78,1.88a32.91,32.91,0,0,0-.46,20.07H106s6.36-3.17,5.71-17.51c0,0-.46-9.22,1.64-10.43h0a1.14,1.14,0,0,0-1.12-1.15h-4.65Z" style="fill:#5f4632"/><path d="M79.85,107.55s-4.36,1.67-7.58-.62H78.5Z" style="fill:#5f4632"/><path d="M100.52,90.57l5.42,18-6.09,1S96.76,102.18,100.52,90.57Z" style="fill:#4c3727"/><rect x="99.74" y="108.28" width="6.15" height="4.71" rx="1.55" transform="translate(205.63 221.27) rotate(180)" style="fill:#23130d"/><rect x="101.09" y="112.99" width="3.45" height="13.73" transform="translate(205.63 239.72) rotate(180)" style="fill:#2c1c12"/><polygon points="103.33 127.66 105.57 131.96 105.57 137.15 108.39 134.25 108.39 126.73 105.38 124.44 103.33 124.44 103.33 127.66" style="fill:#e86d24"/><polygon points="102.3 127.66 100.06 131.96 100.06 137.15 97.24 134.25 97.24 126.73 100.24 124.44 102.3 124.44 102.3 127.66" style="fill:#b25926"/><polygon points="107.84 126.31 107.84 122.29 106.59 122.29 106.59 125.36 107.84 126.31" style="fill:#2c1c12"/><polygon points="97.79 126.31 97.79 122.29 99.04 122.29 99.04 125.36 97.79 126.31" style="fill:#2c1c12"/><path d="M107,122.29h.35V120.5a1.81,1.81,0,0,0-1.79-1.83h-1.06V119h1.06A1.45,1.45,0,0,1,107,120.5Z" style="fill:#e86d24"/><path d="M98.59,122.29h-.35V120.5a1.81,1.81,0,0,1,1.78-1.83h1.07V119H100a1.45,1.45,0,0,0-1.43,1.47Z" style="fill:#e86d24"/><path d="M102,86.75h2.88s3.56-.86,3.85-3.52a2.46,2.46,0,0,0-2.43-2.75h-1.75a2.4,2.4,0,0,0-1.61.62l-2,1.8Z" style="fill:#7f674f"/><rect x="92.07" y="85.63" width="7.08" height="0.71" transform="translate(191.21 171.96) rotate(180)" style="fill:#23130d"/><polygon points="103.33 86.75 101.09 92.46 99.96 92.46 97.72 86.33 103.33 86.75" style="fill:#e86d24"/><path d="M97.15,84.55a2.92,2.92,0,1,0,2.91-3A3,3,0,0,0,97.15,84.55Z" style="fill:#23130d"/><polygon points="108.3 84.55 111.67 88.98 112.37 88.98 112.37 97.84 103.86 101.68 101.09 92.46 103.33 86.75 108.3 84.55" style="fill:#23130d"/><polygon points="72.27 112.92 72.27 116.9 77.38 116.9 77.38 111.78 75.83 111.78 72.27 112.92" style="fill:#4b3728"/><polygon points="77.38 116.9 79.41 116.9 77.38 121.87 79.85 125.98 72.27 125.98 72.27 116.9 77.38 116.9" style="fill:#1e110c"/><polygon points="61.39 125.98 67.16 121.87 64.69 125.98 61.39 125.98" style="fill:#5f4632"/><polygon points="77.38 121.87 83.16 125.98 79.85 125.98 77.38 121.87" style="fill:#5f4632"/><polygon points="65.13 116.9 65.13 123.32 67.16 121.87 65.13 116.9" style="fill:#493426"/><polygon points="79.41 116.9 79.41 123.32 77.38 121.87 79.41 116.9" style="fill:#493426"/><path d="M64.53,57.16l-2.31,4.93.35,3.19,1.08,2.88h8.68V54.33Z" style="fill:#e86d24"/><path d="M82.09,65.28l.35-3.19-2.32-4.93-7.79-2.83V68.16H81Z" style="fill:#c46128"/><polygon points="63.65 68.16 64.08 69.23 67.1 69.23 69.85 68.16 63.65 68.16" style="fill:#513c2d"/><polygon points="81.01 68.16 80.46 69.23 77.45 69.23 74.69 68.16 81.01 68.16" style="fill:#513c2d"/><rect x="69.03" y="58.95" width="1.84" height="7.72" style="fill:#513c2d"/><rect x="73.68" y="58.95" width="1.84" height="7.72" style="fill:#513c2d"/><path d="M75.37,83.57h-3v4.12h.29l3.08-3.27A.5.5,0,0,0,75.37,83.57Z" style="fill:#be6027"/><path d="M69.24,83.57a.5.5,0,0,0-.34.86l3.28,3.26h.17V83.57Z" style="fill:#e86d24"/><path d="M69.26,54.33h3v4.12H72l-3.09-3.26A.51.51,0,0,1,69.26,54.33Z" style="fill:#be6027"/><path d="M75.39,54.33a.51.51,0,0,1,.35.87l-3.28,3.25h-.18V54.33Z" style="fill:#e86d24"/></g></g></svg>