<svg xmlns="http://www.w3.org/2000/svg" xmlns:xlink="http://www.w3.org/1999/xlink" viewBox="0 0 148.25 207.55"><defs><clipPath id="clip-path"><rect width="148.25" height="207.55" style="fill:none"/></clipPath><linearGradient id="Degradado_sin_nombre_5" x1="-14.83" y1="14.83" x2="163.07" y2="192.72" gradientUnits="userSpaceOnUse"><stop offset="0" stop-color="#fef201"/><stop offset="1" stop-color="#ff1443"/></linearGradient></defs><title>Asset 119</title><g style="isolation:isolate"><g id="Layer_2" data-name="Layer 2"><g id="Layer_3" data-name="Layer 3"><g style="clip-path:url(#clip-path)"><rect width="148.25" height="207.55" style="fill:url(#Degradado_sin_nombre_5)"/><g style="opacity:0.46;mix-blend-mode:soft-light"><circle cx="4.8" cy="8.78" r="1" style="fill:#fef201"/><circle cx="4.8" cy="21.82" r="1" style="fill:#fef201"/><circle cx="4.8" cy="34.86" r="1" style="fill:#fef201"/><circle cx="4.8" cy="47.91" r="1" style="fill:#fef201"/><circle cx="4.8" cy="60.95" r="1" style="fill:#fef201"/><circle cx="4.8" cy="74" r="1" style="fill:#fef201"/><circle cx="4.8" cy="87.04" r="1" style="fill:#fef201"/><circle cx="4.8" cy="100.09" r="1" style="fill:#fef201"/><circle cx="4.8" cy="113.13" r="1" style="fill:#fef201"/><circle cx="4.8" cy="126.18" r="1" style="fill:#fef201"/><circle cx="4.8" cy="139.22" r="1" style="fill:#fef201"/><circle cx="4.8" cy="152.27" r="1" style="fill:#fef201"/><circle cx="4.8" cy="165.31" r="1" style="fill:#fef201"/><circle cx="4.8" cy="178.35" r="1" style="fill:#fef201"/><circle cx="4.8" cy="191.4" r="1" style="fill:#fef201"/><circle cx="4.8" cy="204.44" r="1" style="fill:#fef201"/><path d="M12.15,4.11a1,1,0,1,0,0-2,1,1,0,0,0-1,1A1,1,0,0,0,12.15,4.11Z" style="fill:#fef201"/><path d="M12.18,15.15a1,1,0,1,0,1,1A1,1,0,0,0,12.18,15.15Z" style="fill:#fef201"/><path d="M12.23,28.2a1,1,0,1,0,1,1A1,1,0,0,0,12.23,28.2Z" style="fill:#fef201"/><path d="M12.27,41.24a1,1,0,1,0,0,2,1,1,0,0,0,0-2Z" style="fill:#fef201"/><path d="M12.31,54.28a1,1,0,0,0-1,1,1,1,0,0,0,1,1,1,1,0,1,0,0-2Z" style="fill:#fef201"/><path d="M12.36,67.33a1,1,0,1,0,1,1A1,1,0,0,0,12.36,67.33Z" style="fill:#fef201"/><path d="M12.4,80.37a1,1,0,0,0-1,1,1,1,0,0,0,2,0A1,1,0,0,0,12.4,80.37Z" style="fill:#fef201"/><path d="M12.44,93.42a1,1,0,1,0,0,2,1,1,0,0,0,0-2Z" style="fill:#fef201"/><path d="M12.48,106.46a1,1,0,0,0,0,2,1,1,0,1,0,0-2Z" style="fill:#fef201"/><path d="M12.53,119.51a1,1,0,1,0,0,2,1,1,0,0,0,1-1A1,1,0,0,0,12.53,119.51Z" style="fill:#fef201"/><path d="M12.57,132.55a1,1,0,1,0,1,1A1,1,0,0,0,12.57,132.55Z" style="fill:#fef201"/><path d="M12.61,145.6a1,1,0,0,0-1,1,1,1,0,0,0,1,1,1,1,0,0,0,1-1A1,1,0,0,0,12.61,145.6Z" style="fill:#fef201"/><path d="M12.65,158.64a1,1,0,1,0,1,1A1,1,0,0,0,12.65,158.64Z" style="fill:#fef201"/><path d="M12.7,171.68a1,1,0,0,0-1,1,1,1,0,0,0,2,0A1,1,0,0,0,12.7,171.68Z" style="fill:#fef201"/><path d="M12.74,184.73a1,1,0,1,0,1,1A1,1,0,0,0,12.74,184.73Z" style="fill:#fef201"/><path d="M12.78,197.77a1,1,0,1,0,0,2,1,1,0,0,0,1-1A1,1,0,0,0,12.78,197.77Z" style="fill:#fef201"/><circle cx="21.13" cy="8.78" r="1" style="fill:#fef201"/><circle cx="21.13" cy="21.82" r="1" style="fill:#fef201"/><circle cx="21.13" cy="34.86" r="1" style="fill:#fef201"/><circle cx="21.13" cy="47.91" r="1" style="fill:#fef201"/><circle cx="21.13" cy="60.95" r="1" style="fill:#fef201"/><circle cx="21.13" cy="74" r="1" style="fill:#fef201"/><circle cx="21.13" cy="87.04" r="1" style="fill:#fef201"/><circle cx="21.13" cy="100.09" r="1" style="fill:#fef201"/><circle cx="21.13" cy="113.13" r="1" style="fill:#fef201"/><circle cx="21.13" cy="126.18" r="1" style="fill:#fef201"/><circle cx="21.13" cy="139.22" r="1" style="fill:#fef201"/><circle cx="21.13" cy="152.27" r="1" style="fill:#fef201"/><circle cx="21.13" cy="165.31" r="1" style="fill:#fef201"/><circle cx="21.13" cy="178.35" r="1" style="fill:#fef201"/><circle cx="21.13" cy="191.4" r="1" style="fill:#fef201"/><circle cx="21.13" cy="204.44" r="1" style="fill:#fef201"/><path d="M28.48,4.11a1,1,0,0,0,1-1,1,1,0,1,0-1,1Z" style="fill:#fef201"/><path d="M28.52,15.15a1,1,0,0,0-1,1,1,1,0,1,0,1-1Z" style="fill:#fef201"/><path d="M28.56,28.2a1,1,0,0,0-1,1,1,1,0,0,0,1,1,1,1,0,0,0,0-2Z" style="fill:#fef201"/><path d="M28.6,41.24a1,1,0,0,0,0,2,1,1,0,1,0,0-2Z" style="fill:#fef201"/><path d="M28.65,54.28a1,1,0,0,0-1,1,1,1,0,0,0,1,1,1,1,0,1,0,0-2Z" style="fill:#fef201"/><path d="M28.69,67.33a1,1,0,1,0,1,1A1,1,0,0,0,28.69,67.33Z" style="fill:#fef201"/><path d="M28.73,80.37a1,1,0,1,0,0,2,1,1,0,0,0,1-1A1,1,0,0,0,28.73,80.37Z" style="fill:#fef201"/><path d="M28.77,93.42a1,1,0,0,0,0,2,1,1,0,1,0,0-2Z" style="fill:#fef201"/><path d="M28.82,106.46a1,1,0,1,0,1,1A1,1,0,0,0,28.82,106.46Z" style="fill:#fef201"/><path d="M28.86,119.51a1,1,0,1,0,1,1A1,1,0,0,0,28.86,119.51Z" style="fill:#fef201"/><path d="M28.9,132.55a1,1,0,1,0,1,1A1,1,0,0,0,28.9,132.55Z" style="fill:#fef201"/><path d="M28.94,145.6a1,1,0,0,0,0,2,1,1,0,0,0,1-1A1,1,0,0,0,28.94,145.6Z" style="fill:#fef201"/><path d="M29,158.64a1,1,0,1,0,1,1A1,1,0,0,0,29,158.64Z" style="fill:#fef201"/><path d="M29,171.68a1,1,0,0,0-1,1,1,1,0,0,0,2,0A1,1,0,0,0,29,171.68Z" style="fill:#fef201"/><path d="M29.07,184.73a1,1,0,0,0-1,1,1,1,0,1,0,1-1Z" style="fill:#fef201"/><path d="M29.11,197.77a1,1,0,1,0,1,1A1,1,0,0,0,29.11,197.77Z" style="fill:#fef201"/><circle cx="37.47" cy="8.78" r="1" style="fill:#fef201"/><circle cx="37.47" cy="21.82" r="1" style="fill:#fef201"/><circle cx="37.47" cy="34.86" r="1" style="fill:#fef201"/><circle cx="37.47" cy="47.91" r="1" style="fill:#fef201"/><circle cx="37.47" cy="60.95" r="1" style="fill:#fef201"/><circle cx="37.47" cy="74" r="1" style="fill:#fef201"/><circle cx="37.47" cy="87.04" r="1" style="fill:#fef201"/><circle cx="37.47" cy="100.09" r="1" style="fill:#fef201"/><circle cx="37.47" cy="113.13" r="1" style="fill:#fef201"/><circle cx="37.47" cy="126.18" r="1" style="fill:#fef201"/><circle cx="37.47" cy="139.22" r="1" style="fill:#fef201"/><circle cx="37.47" cy="152.27" r="1" style="fill:#fef201"/><circle cx="37.47" cy="165.31" r="1" style="fill:#fef201"/><circle cx="37.47" cy="178.35" r="1" style="fill:#fef201"/><circle cx="37.47" cy="191.4" r="1" style="fill:#fef201"/><circle cx="37.47" cy="204.44" r="1" style="fill:#fef201"/><path d="M44.82,4.11a1,1,0,1,0-1-1A1,1,0,0,0,44.82,4.11Z" style="fill:#fef201"/><path d="M44.85,15.15a1,1,0,1,0,0,2,1,1,0,0,0,1-1A1,1,0,0,0,44.85,15.15Z" style="fill:#fef201"/><path d="M44.89,28.2a1,1,0,0,0,0,2,1,1,0,0,0,1-1A1,1,0,0,0,44.89,28.2Z" style="fill:#fef201"/><path d="M44.94,41.24a1,1,0,1,0,1,1A1,1,0,0,0,44.94,41.24Z" style="fill:#fef201"/><path d="M45,54.28a1,1,0,0,0-1,1,1,1,0,0,0,2,0A1,1,0,0,0,45,54.28Z" style="fill:#fef201"/><path d="M45,67.33a1,1,0,0,0-1,1,1,1,0,1,0,1-1Z" style="fill:#fef201"/><path d="M45.06,80.37a1,1,0,0,0-1,1,1,1,0,0,0,1,1,1,1,0,1,0,0-2Z" style="fill:#fef201"/><path d="M45.11,93.42a1,1,0,1,0,1,1A1,1,0,0,0,45.11,93.42Z" style="fill:#fef201"/><path d="M45.15,106.46a1,1,0,1,0,0,2,1,1,0,0,0,0-2Z" style="fill:#fef201"/><path d="M45.19,119.51a1,1,0,0,0-1,1,1,1,0,1,0,1-1Z" style="fill:#fef201"/><path d="M45.24,132.55a1,1,0,1,0,1,1A1,1,0,0,0,45.24,132.55Z" style="fill:#fef201"/><path d="M45.28,145.6a1,1,0,1,0,1,1A1,1,0,0,0,45.28,145.6Z" style="fill:#fef201"/><path d="M45.32,158.64a1,1,0,1,0,0,2,1,1,0,0,0,0-2Z" style="fill:#fef201"/><path d="M45.36,171.68a1,1,0,0,0-1,1,1,1,0,0,0,1,1,1,1,0,1,0,0-2Z" style="fill:#fef201"/><path d="M45.41,184.73a1,1,0,1,0,1,1A1,1,0,0,0,45.41,184.73Z" style="fill:#fef201"/><path d="M45.45,197.77a1,1,0,0,0-1,1,1,1,0,1,0,1-1Z" style="fill:#fef201"/><circle cx="53.8" cy="8.78" r="1" style="fill:#fef201"/><circle cx="53.8" cy="21.82" r="1" style="fill:#fef201"/><circle cx="53.8" cy="34.86" r="1" style="fill:#fef201"/><circle cx="53.8" cy="47.91" r="1" style="fill:#fef201"/><circle cx="53.8" cy="60.95" r="1" style="fill:#fef201"/><circle cx="53.8" cy="74" r="1" style="fill:#fef201"/><circle cx="53.8" cy="87.04" r="1" style="fill:#fef201"/><circle cx="53.8" cy="100.09" r="1" style="fill:#fef201"/><circle cx="53.8" cy="113.13" r="1" style="fill:#fef201"/><circle cx="53.8" cy="126.18" r="1" style="fill:#fef201"/><circle cx="53.8" cy="139.22" r="1" style="fill:#fef201"/><circle cx="53.8" cy="152.27" r="1" style="fill:#fef201"/><circle cx="53.8" cy="165.31" r="1" style="fill:#fef201"/><circle cx="53.8" cy="178.35" r="1" style="fill:#fef201"/><circle cx="53.8" cy="191.4" r="1" style="fill:#fef201"/><circle cx="53.8" cy="204.44" r="1" style="fill:#fef201"/><path d="M61.15,4.11a1,1,0,1,0,0-2,1,1,0,0,0-1,1A1,1,0,0,0,61.15,4.11Z" style="fill:#fef201"/><path d="M61.18,15.15a1,1,0,1,0,1,1A1,1,0,0,0,61.18,15.15Z" style="fill:#fef201"/><path d="M61.23,28.2a1,1,0,1,0,1,1A1,1,0,0,0,61.23,28.2Z" style="fill:#fef201"/><path d="M61.27,41.24a1,1,0,1,0,0,2,1,1,0,0,0,0-2Z" style="fill:#fef201"/><path d="M61.31,54.28a1,1,0,0,0-1,1,1,1,0,0,0,1,1,1,1,0,1,0,0-2Z" style="fill:#fef201"/><path d="M61.36,67.33a1,1,0,1,0,1,1A1,1,0,0,0,61.36,67.33Z" style="fill:#fef201"/><path d="M61.4,80.37a1,1,0,0,0-1,1,1,1,0,0,0,2,0A1,1,0,0,0,61.4,80.37Z" style="fill:#fef201"/><path d="M61.44,93.42a1,1,0,1,0,0,2,1,1,0,0,0,0-2Z" style="fill:#fef201"/><path d="M61.48,106.46a1,1,0,0,0,0,2,1,1,0,1,0,0-2Z" style="fill:#fef201"/><path d="M61.53,119.51a1,1,0,0,0,0,2,1,1,0,0,0,1-1A1,1,0,0,0,61.53,119.51Z" style="fill:#fef201"/><path d="M61.57,132.55a1,1,0,1,0,1,1A1,1,0,0,0,61.57,132.55Z" style="fill:#fef201"/><path d="M61.61,145.6a1,1,0,0,0-1,1,1,1,0,0,0,1,1,1,1,0,0,0,1-1A1,1,0,0,0,61.61,145.6Z" style="fill:#fef201"/><path d="M61.65,158.64a1,1,0,1,0,1,1A1,1,0,0,0,61.65,158.64Z" style="fill:#fef201"/><path d="M61.7,171.68a1,1,0,0,0-1,1,1,1,0,0,0,2,0A1,1,0,0,0,61.7,171.68Z" style="fill:#fef201"/><path d="M61.74,184.73a1,1,0,1,0,1,1A1,1,0,0,0,61.74,184.73Z" style="fill:#fef201"/><path d="M61.78,197.77a1,1,0,1,0,0,2,1,1,0,0,0,1-1A1,1,0,0,0,61.78,197.77Z" style="fill:#fef201"/><circle cx="70.13" cy="8.78" r="1" style="fill:#fef201"/><circle cx="70.13" cy="21.82" r="1" style="fill:#fef201"/><circle cx="70.13" cy="34.86" r="1" style="fill:#fef201"/><circle cx="70.13" cy="47.91" r="1" style="fill:#fef201"/><circle cx="70.13" cy="60.95" r="1" style="fill:#fef201"/><circle cx="70.13" cy="74" r="1" style="fill:#fef201"/><circle cx="70.13" cy="87.04" r="1" style="fill:#fef201"/><circle cx="70.13" cy="100.09" r="1" style="fill:#fef201"/><circle cx="70.13" cy="113.13" r="1" style="fill:#fef201"/><circle cx="70.13" cy="126.18" r="1" style="fill:#fef201"/><circle cx="70.13" cy="139.22" r="1" style="fill:#fef201"/><circle cx="70.13" cy="152.27" r="1" style="fill:#fef201"/><circle cx="70.13" cy="165.31" r="1" style="fill:#fef201"/><circle cx="70.13" cy="178.35" r="1" style="fill:#fef201"/><circle cx="70.13" cy="191.4" r="1" style="fill:#fef201"/><circle cx="70.13" cy="204.44" r="1" style="fill:#fef201"/><path d="M77.48,4.11a1,1,0,0,0,1-1,1,1,0,1,0-1,1Z" style="fill:#fef201"/><path d="M77.52,15.15a1,1,0,0,0-1,1,1,1,0,1,0,1-1Z" style="fill:#fef201"/><path d="M77.56,28.2a1,1,0,0,0-1,1,1,1,0,0,0,1,1,1,1,0,0,0,0-2Z" style="fill:#fef201"/><path d="M77.6,41.24a1,1,0,0,0,0,2,1,1,0,1,0,0-2Z" style="fill:#fef201"/><path d="M77.65,54.28a1,1,0,0,0-1,1,1,1,0,0,0,1,1,1,1,0,0,0,0-2Z" style="fill:#fef201"/><path d="M77.69,67.33a1,1,0,1,0,1,1A1,1,0,0,0,77.69,67.33Z" style="fill:#fef201"/><path d="M77.73,80.37a1,1,0,1,0,0,2,1,1,0,0,0,1-1A1,1,0,0,0,77.73,80.37Z" style="fill:#fef201"/><path d="M77.77,93.42a1,1,0,0,0,0,2,1,1,0,1,0,0-2Z" style="fill:#fef201"/><path d="M77.82,106.46a1,1,0,1,0,1,1A1,1,0,0,0,77.82,106.46Z" style="fill:#fef201"/><path d="M77.86,119.51a1,1,0,1,0,1,1A1,1,0,0,0,77.86,119.51Z" style="fill:#fef201"/><path d="M77.9,132.55a1,1,0,1,0,1,1A1,1,0,0,0,77.9,132.55Z" style="fill:#fef201"/><path d="M77.94,145.6a1,1,0,0,0,0,2,1,1,0,0,0,1-1A1,1,0,0,0,77.94,145.6Z" style="fill:#fef201"/><path d="M78,158.64a1,1,0,1,0,1,1A1,1,0,0,0,78,158.64Z" style="fill:#fef201"/><path d="M78,171.68a1,1,0,0,0-1,1,1,1,0,0,0,2,0A1,1,0,0,0,78,171.68Z" style="fill:#fef201"/><path d="M78.07,184.73a1,1,0,0,0-1,1,1,1,0,1,0,1-1Z" style="fill:#fef201"/><path d="M78.11,197.77a1,1,0,1,0,1,1A1,1,0,0,0,78.11,197.77Z" style="fill:#fef201"/><circle cx="86.47" cy="8.78" r="1" style="fill:#fef201"/><circle cx="86.47" cy="21.82" r="1" style="fill:#fef201"/><circle cx="86.47" cy="34.86" r="1" style="fill:#fef201"/><circle cx="86.47" cy="47.91" r="1" style="fill:#fef201"/><circle cx="86.47" cy="60.95" r="1" style="fill:#fef201"/><circle cx="86.47" cy="74" r="1" style="fill:#fef201"/><circle cx="86.47" cy="87.04" r="1" style="fill:#fef201"/><circle cx="86.47" cy="100.09" r="1" style="fill:#fef201"/><circle cx="86.47" cy="113.13" r="1" style="fill:#fef201"/><circle cx="86.47" cy="126.18" r="1" style="fill:#fef201"/><circle cx="86.47" cy="139.22" r="1" style="fill:#fef201"/><circle cx="86.47" cy="152.27" r="1" style="fill:#fef201"/><circle cx="86.47" cy="165.31" r="1" style="fill:#fef201"/><circle cx="86.47" cy="178.35" r="1" style="fill:#fef201"/><circle cx="86.47" cy="191.4" r="1" style="fill:#fef201"/><circle cx="86.47" cy="204.44" r="1" style="fill:#fef201"/><path d="M93.82,4.11a1,1,0,1,0-1-1A1,1,0,0,0,93.82,4.11Z" style="fill:#fef201"/><path d="M93.85,15.15a1,1,0,1,0,0,2,1,1,0,0,0,1-1A1,1,0,0,0,93.85,15.15Z" style="fill:#fef201"/><path d="M93.89,28.2a1,1,0,0,0,0,2,1,1,0,0,0,1-1A1,1,0,0,0,93.89,28.2Z" style="fill:#fef201"/><path d="M93.94,41.24a1,1,0,1,0,1,1A1,1,0,0,0,93.94,41.24Z" style="fill:#fef201"/><path d="M94,54.28a1,1,0,0,0-1,1,1,1,0,0,0,2,0A1,1,0,0,0,94,54.28Z" style="fill:#fef201"/><path d="M94,67.33a1,1,0,0,0-1,1,1,1,0,1,0,1-1Z" style="fill:#fef201"/><path d="M94.06,80.37a1,1,0,0,0-1,1,1,1,0,0,0,1,1,1,1,0,1,0,0-2Z" style="fill:#fef201"/><path d="M94.11,93.42a1,1,0,1,0,1,1A1,1,0,0,0,94.11,93.42Z" style="fill:#fef201"/><path d="M94.15,106.46a1,1,0,1,0,0,2,1,1,0,0,0,0-2Z" style="fill:#fef201"/><path d="M94.19,119.51a1,1,0,0,0-1,1,1,1,0,1,0,1-1Z" style="fill:#fef201"/><path d="M94.24,132.55a1,1,0,1,0,1,1A1,1,0,0,0,94.24,132.55Z" style="fill:#fef201"/><path d="M94.28,145.6a1,1,0,1,0,1,1A1,1,0,0,0,94.28,145.6Z" style="fill:#fef201"/><path d="M94.32,158.64a1,1,0,1,0,0,2,1,1,0,0,0,0-2Z" style="fill:#fef201"/><path d="M94.36,171.68a1,1,0,0,0-1,1,1,1,0,0,0,1,1,1,1,0,1,0,0-2Z" style="fill:#fef201"/><path d="M94.41,184.73a1,1,0,1,0,1,1A1,1,0,0,0,94.41,184.73Z" style="fill:#fef201"/><path d="M94.45,197.77a1,1,0,0,0-1,1,1,1,0,1,0,1-1Z" style="fill:#fef201"/><circle cx="102.8" cy="8.78" r="1" style="fill:#fef201"/><circle cx="102.8" cy="21.82" r="1" style="fill:#fef201"/><circle cx="102.8" cy="34.86" r="1" style="fill:#fef201"/><circle cx="102.8" cy="47.91" r="1" style="fill:#fef201"/><circle cx="102.8" cy="60.95" r="1" style="fill:#fef201"/><circle cx="102.8" cy="74" r="1" style="fill:#fef201"/><circle cx="102.8" cy="87.04" r="1" style="fill:#fef201"/><circle cx="102.8" cy="100.09" r="1" style="fill:#fef201"/><circle cx="102.8" cy="113.13" r="1" style="fill:#fef201"/><circle cx="102.8" cy="126.18" r="1" style="fill:#fef201"/><circle cx="102.8" cy="139.22" r="1" style="fill:#fef201"/><circle cx="102.8" cy="152.27" r="1" style="fill:#fef201"/><circle cx="102.8" cy="165.31" r="1" style="fill:#fef201"/><circle cx="102.8" cy="178.35" r="1" style="fill:#fef201"/><circle cx="102.8" cy="191.4" r="1" style="fill:#fef201"/><circle cx="102.8" cy="204.44" r="1" style="fill:#fef201"/><path d="M110.15,4.11a1,1,0,1,0,0-2,1,1,0,0,0-1,1A1,1,0,0,0,110.15,4.11Z" style="fill:#fef201"/><path d="M110.18,15.15a1,1,0,1,0,1,1A1,1,0,0,0,110.18,15.15Z" style="fill:#fef201"/><path d="M110.23,28.2a1,1,0,1,0,1,1A1,1,0,0,0,110.23,28.2Z" style="fill:#fef201"/><path d="M110.27,41.24a1,1,0,1,0,0,2,1,1,0,0,0,0-2Z" style="fill:#fef201"/><path d="M110.31,54.28a1,1,0,0,0-1,1,1,1,0,0,0,1,1,1,1,0,1,0,0-2Z" style="fill:#fef201"/><path d="M110.36,67.33a1,1,0,1,0,1,1A1,1,0,0,0,110.36,67.33Z" style="fill:#fef201"/><path d="M110.4,80.37a1,1,0,0,0-1,1,1,1,0,0,0,2,0A1,1,0,0,0,110.4,80.37Z" style="fill:#fef201"/><path d="M110.44,93.42a1,1,0,1,0,0,2,1,1,0,0,0,0-2Z" style="fill:#fef201"/><path d="M110.48,106.46a1,1,0,0,0,0,2,1,1,0,1,0,0-2Z" style="fill:#fef201"/><path d="M110.53,119.51a1,1,0,0,0,0,2,1,1,0,0,0,1-1A1,1,0,0,0,110.53,119.51Z" style="fill:#fef201"/><path d="M110.57,132.55a1,1,0,1,0,1,1A1,1,0,0,0,110.57,132.55Z" style="fill:#fef201"/><path d="M110.61,145.6a1,1,0,0,0-1,1,1,1,0,0,0,1,1,1,1,0,0,0,1-1A1,1,0,0,0,110.61,145.6Z" style="fill:#fef201"/><path d="M110.65,158.64a1,1,0,1,0,1,1A1,1,0,0,0,110.65,158.64Z" style="fill:#fef201"/><path d="M110.7,171.68a1,1,0,0,0-1,1,1,1,0,0,0,2,0A1,1,0,0,0,110.7,171.68Z" style="fill:#fef201"/><path d="M110.74,184.73a1,1,0,1,0,1,1A1,1,0,0,0,110.74,184.73Z" style="fill:#fef201"/><path d="M110.78,197.77a1,1,0,1,0,0,2,1,1,0,0,0,1-1A1,1,0,0,0,110.78,197.77Z" style="fill:#fef201"/><circle cx="119.13" cy="8.78" r="1" style="fill:#fef201"/><circle cx="119.13" cy="21.82" r="1" style="fill:#fef201"/><circle cx="119.13" cy="34.86" r="1" style="fill:#fef201"/><circle cx="119.13" cy="47.91" r="1" style="fill:#fef201"/><circle cx="119.13" cy="60.95" r="1" style="fill:#fef201"/><circle cx="119.13" cy="74" r="1" style="fill:#fef201"/><circle cx="119.13" cy="87.04" r="1" style="fill:#fef201"/><circle cx="119.13" cy="100.09" r="1" style="fill:#fef201"/><circle cx="119.13" cy="113.13" r="1" style="fill:#fef201"/><circle cx="119.13" cy="126.18" r="1" style="fill:#fef201"/><circle cx="119.13" cy="139.22" r="1" style="fill:#fef201"/><circle cx="119.13" cy="152.27" r="1" style="fill:#fef201"/><circle cx="119.13" cy="165.31" r="1" style="fill:#fef201"/><circle cx="119.13" cy="178.35" r="1" style="fill:#fef201"/><circle cx="119.13" cy="191.4" r="1" style="fill:#fef201"/><circle cx="119.13" cy="204.44" r="1" style="fill:#fef201"/><path d="M126.48,4.11a1,1,0,0,0,1-1,1,1,0,1,0-1,1Z" style="fill:#fef201"/><path d="M126.52,15.15a1,1,0,0,0-1,1,1,1,0,1,0,1-1Z" style="fill:#fef201"/><path d="M126.56,28.2a1,1,0,0,0-1,1,1,1,0,0,0,1,1,1,1,0,0,0,0-2Z" style="fill:#fef201"/><path d="M126.6,41.24a1,1,0,0,0,0,2,1,1,0,1,0,0-2Z" style="fill:#fef201"/><path d="M126.65,54.28a1,1,0,0,0-1,1,1,1,0,0,0,1,1,1,1,0,0,0,0-2Z" style="fill:#fef201"/><path d="M126.69,67.33a1,1,0,1,0,1,1A1,1,0,0,0,126.69,67.33Z" style="fill:#fef201"/><path d="M126.73,80.37a1,1,0,1,0,0,2,1,1,0,0,0,1-1A1,1,0,0,0,126.73,80.37Z" style="fill:#fef201"/><path d="M126.77,93.42a1,1,0,0,0,0,2,1,1,0,1,0,0-2Z" style="fill:#fef201"/><path d="M126.82,106.46a1,1,0,1,0,1,1A1,1,0,0,0,126.82,106.46Z" style="fill:#fef201"/><path d="M126.86,119.51a1,1,0,1,0,1,1A1,1,0,0,0,126.86,119.51Z" style="fill:#fef201"/><path d="M126.9,132.55a1,1,0,1,0,1,1A1,1,0,0,0,126.9,132.55Z" style="fill:#fef201"/><path d="M126.94,145.6a1,1,0,0,0,0,2,1,1,0,0,0,1-1A1,1,0,0,0,126.94,145.6Z" style="fill:#fef201"/><path d="M127,158.64a1,1,0,1,0,1,1A1,1,0,0,0,127,158.64Z" style="fill:#fef201"/><path d="M127,171.68a1,1,0,0,0-1,1,1,1,0,0,0,2,0A1,1,0,0,0,127,171.68Z" style="fill:#fef201"/><path d="M127.07,184.73a1,1,0,0,0-1,1,1,1,0,1,0,1-1Z" style="fill:#fef201"/><path d="M127.11,197.77a1,1,0,1,0,1,1A1,1,0,0,0,127.11,197.77Z" style="fill:#fef201"/><circle cx="135.47" cy="8.78" r="1" style="fill:#fef201"/><circle cx="135.47" cy="21.82" r="1" style="fill:#fef201"/><circle cx="135.47" cy="34.86" r="1" style="fill:#fef201"/><circle cx="135.47" cy="47.91" r="1" style="fill:#fef201"/><circle cx="135.47" cy="60.95" r="1" style="fill:#fef201"/><circle cx="135.47" cy="74" r="1" style="fill:#fef201"/><circle cx="135.47" cy="87.04" r="1" style="fill:#fef201"/><circle cx="135.47" cy="100.09" r="1" style="fill:#fef201"/><circle cx="135.47" cy="113.13" r="1" style="fill:#fef201"/><circle cx="135.47" cy="126.18" r="1" style="fill:#fef201"/><circle cx="135.47" cy="139.22" r="1" style="fill:#fef201"/><circle cx="135.47" cy="152.27" r="1" style="fill:#fef201"/><circle cx="135.47" cy="165.31" r="1" style="fill:#fef201"/><circle cx="135.47" cy="178.35" r="1" style="fill:#fef201"/><circle cx="135.47" cy="191.4" r="1" style="fill:#fef201"/><circle cx="135.47" cy="204.44" r="1" style="fill:#fef201"/><path d="M142.82,4.11a1,1,0,1,0-1-1A1,1,0,0,0,142.82,4.11Z" style="fill:#fef201"/><path d="M142.85,15.15a1,1,0,1,0,0,2,1,1,0,0,0,1-1A1,1,0,0,0,142.85,15.15Z" style="fill:#fef201"/><path d="M142.89,28.2a1,1,0,0,0,0,2,1,1,0,0,0,1-1A1,1,0,0,0,142.89,28.2Z" style="fill:#fef201"/><path d="M142.94,41.24a1,1,0,1,0,1,1A1,1,0,0,0,142.94,41.24Z" style="fill:#fef201"/><path d="M143,54.28a1,1,0,0,0-1,1,1,1,0,0,0,2,0A1,1,0,0,0,143,54.28Z" style="fill:#fef201"/><path d="M143,67.33a1,1,0,0,0-1,1,1,1,0,1,0,1-1Z" style="fill:#fef201"/><path d="M143.06,80.37a1,1,0,0,0-1,1,1,1,0,0,0,1,1,1,1,0,1,0,0-2Z" style="fill:#fef201"/><path d="M143.11,93.42a1,1,0,1,0,1,1A1,1,0,0,0,143.11,93.42Z" style="fill:#fef201"/><path d="M143.15,106.46a1,1,0,1,0,0,2,1,1,0,0,0,0-2Z" style="fill:#fef201"/><path d="M143.19,119.51a1,1,0,0,0-1,1,1,1,0,1,0,1-1Z" style="fill:#fef201"/><path d="M143.24,132.55a1,1,0,1,0,1,1A1,1,0,0,0,143.24,132.55Z" style="fill:#fef201"/><path d="M143.28,145.6a1,1,0,1,0,1,1A1,1,0,0,0,143.28,145.6Z" style="fill:#fef201"/><path d="M143.32,158.64a1,1,0,1,0,0,2,1,1,0,0,0,0-2Z" style="fill:#fef201"/><path d="M143.36,171.68a1,1,0,0,0-1,1,1,1,0,0,0,1,1,1,1,0,1,0,0-2Z" style="fill:#fef201"/><path d="M143.41,184.73a1,1,0,1,0,1,1A1,1,0,0,0,143.41,184.73Z" style="fill:#fef201"/><path d="M143.45,197.77a1,1,0,0,0-1,1,1,1,0,1,0,1-1Z" style="fill:#fef201"/></g></g><g style="opacity:0.45"><polygon points="80.36 40.2 73.51 40.2 8.1 105.61 8.1 112.45 80.36 40.2" style="fill:#00158e;opacity:0.2"/><polygon points="99.61 40.2 92.76 40.2 8.1 124.85 8.1 131.7 99.61 40.2" style="fill:#00158e;opacity:0.2"/><polygon points="61.11 40.2 54.27 40.2 8.1 86.36 8.1 93.21 61.11 40.2" style="fill:#00158e;opacity:0.2"/><polygon points="41.86 40.2 35.02 40.2 8.1 67.11 8.1 73.96 41.86 40.2" style="fill:#00158e;opacity:0.2"/><polygon points="22.62 40.2 15.77 40.2 8.1 47.86 8.1 54.71 22.62 40.2" style="fill:#00158e;opacity:0.2"/><path d="M108.1,40.2v3.91L11.81,140.4H8.1v30.51H138.82V40.2Zm0,100.2H95.65L108.1,128Zm0-19.3L88.8,140.4H76.4l31.7-31.7Zm0-19.25L69.56,140.4H57.15L108.1,89.45Zm0-19.25L50.31,140.4H37.91L108.1,70.2Zm0-19.24-77,77H18.66L108.1,51Z" style="fill:#00158e;opacity:0.2"/><polygon points="135.94 168.5 135.94 142.05 131.16 146.84 131.16 163.71 114.28 163.71 109.5 168.5 135.94 168.5" style="fill:#0751cf"/><rect x="137.39" y="71.65" width="2.99" height="35.67" style="fill:gold"/><rect x="137.39" y="114.49" width="2.99" height="4.98" style="fill:gold"/><rect x="26.4" y="170.08" width="48.42" height="2.39" style="fill:gold"/><polygon points="23.9 160.58 27.76 160.58 31.88 156.46 25.44 156.46 16.15 165.74 18.74 165.74 23.9 160.58" style="fill:gold"/><polygon points="32.27 160.58 36.13 160.58 40.26 156.46 33.81 156.46 24.53 165.74 27.11 165.74 32.27 160.58" style="fill:gold"/><polygon points="40.65 160.58 44.51 160.58 48.63 156.46 42.19 156.46 32.9 165.74 35.48 165.74 40.65 160.58" style="fill:gold"/><polygon points="49.02 160.58 52.88 160.58 57.01 156.46 50.56 156.46 41.28 165.74 43.86 165.74 49.02 160.58" style="fill:gold"/><polygon points="57.4 160.58 61.26 160.58 65.38 156.46 58.94 156.46 49.65 165.74 52.23 165.74 57.4 160.58" style="fill:gold"/><polygon points="65.77 160.58 69.63 160.58 73.75 156.46 67.31 156.46 58.03 165.74 60.61 165.74 65.77 160.58" style="fill:gold"/><polygon points="74.15 160.58 78.01 160.58 82.13 156.46 75.69 156.46 66.4 165.74 68.98 165.74 74.15 160.58" style="fill:gold"/><polygon points="82.52 160.58 86.38 160.58 90.5 156.46 84.06 156.46 74.77 165.74 77.36 165.74 82.52 160.58" style="fill:gold"/><path d="M125.13,35.49H110.19V31.9h14.94Zm-14.34-.6h13.75V32.5H110.79Z" style="fill:#0751cf"/><path d="M142.87,143.28h-2.59V131.93h2.59Zm-2-.59h1.39V132.52h-1.39Z" style="fill:#0751cf"/><path d="M101.82,179H84.49v-3.79h17.33Zm-16.74-.6h16.14v-2.59H85.08Z" style="fill:#0751cf"/><path d="M16.14,178.15H9.57v-2.39h6.57Zm-6-.59h5.38v-1.2H10.16Z" style="fill:gold"/><path d="M5.78,166.6H3.39V146.67H5.78ZM4,166H5.18V147.27H4Z" style="fill:gold"/><polygon points="94.75 34.58 94.75 34.43 26.95 34.43 26.95 33.06 94.6 33.06 94.6 34.58 94.75 34.58 94.75 34.43 94.75 34.58 94.9 34.58 94.9 32.76 26.65 32.76 26.65 34.73 94.9 34.73 94.9 34.58 94.75 34.58" style="fill:gold"/></g><polygon points="59.49 52.34 56.84 51.5 56.84 49.06 66.65 49.06 66.65 52.34 59.49 52.34" style="fill:#060a0f"/><path d="M54,50.11V39.55a1.85,1.85,0,0,0-.2-3.69,1.85,1.85,0,0,0-.22,3.68v11h3.28v-.42Z" style="fill:#060a0f"/><polygon points="86.36 52.34 89.01 51.5 89.01 49.06 79.2 49.06 79.2 52.34 86.36 52.34" style="fill:#060a0f"/><path d="M91.88,50.11V39.55a1.88,1.88,0,1,1,.42,0v11H89v-.42Z" style="fill:#060a0f"/><path d="M40.75,88h-3.2a5.22,5.22,0,0,1-5.22-5.22v-2a4,4,0,0,1,4-4v1.65A2.33,2.33,0,0,0,34,80.82v2a3.57,3.57,0,0,0,3.57,3.57h3.2Z" style="fill:#003839"/><path d="M105.13,88h3.2a5.22,5.22,0,0,0,5.21-5.22v-2a4,4,0,0,0-4-4v1.65a2.32,2.32,0,0,1,2.32,2.33v2a3.56,3.56,0,0,1-3.56,3.57h-3.2Z" style="fill:#003839"/><rect x="63.04" y="136.83" width="20.19" height="28.08" style="fill:#111b16"/><polygon points="58.95 106.19 58.95 112.27 56.57 112.27 56.57 128.59 60.52 132.55 60.52 135.45 70.61 125.54 69.39 106.19 58.95 106.19" style="fill:#116564"/><rect x="38.71" y="82.14" width="4.07" height="12.16" style="fill:#002425"/><rect x="39.13" y="100.8" width="2.1" height="8.05" style="fill:#323534"/><rect x="41.72" y="100.8" width="0.75" height="8.05" style="fill:#323534"/><polygon points="36.06 106.19 40.77 106.19 40.77 112.14 38.17 112.14 38.17 121.56 37.44 121.56 33.14 111.22 36.06 106.19" style="fill:#0bb3af"/><polygon points="45.46 106.19 40.75 106.19 40.75 112.14 43.36 112.14 43.36 121.56 44.09 121.56 48.39 111.22 45.46 106.19" style="fill:#5cc6d3"/><polygon points="36.48 94.31 44.98 94.31 43.43 102.63 37.3 102.63 36.48 94.31" style="fill:#34bdc9"/><path d="M45.78,64.22,44,61.54a5.21,5.21,0,0,1,1.51-7.22l1.64-1.07a4,4,0,0,1,5.5,1.15l-1.38.9a2.32,2.32,0,0,0-3.22-.67L46.44,55.7a3.58,3.58,0,0,0-1,4.94l1.76,2.68Z" style="fill:#003839"/><polygon points="50.53 58.37 46.51 58.37 46.51 60.65 39.1 72.91 44.82 75.47 50.53 68.88 50.53 58.37" style="fill:#23849b"/><path d="M50.53,56.57V73.18l4.26,4.26h1.78V62.3l1-1v-7.5H53.31A2.79,2.79,0,0,0,50.53,56.57Z" style="fill:#1a7682"/><polygon points="54.65 53.79 61.32 50.59 63.52 57.27 57.57 61.29 54.65 53.79" style="fill:#23849b"/><polygon points="63.52 57.27 72.94 57.27 72.94 61.57 65.99 62.57 56.57 72.72 56.57 61.29 63.52 57.27" style="fill:#10636a"/><circle cx="41.43" cy="77.67" r="5.72" transform="translate(-43.47 54.42) rotate(-46.61)" style="fill:#2e949c"/><path d="M72.94,31.66V45.87H61.32v-6a6,6,0,0,1,4.09-5.7Z" style="fill:#19a8a5"/><polygon points="72.94 45.87 72.94 57.27 82.36 57.27 84.55 50.59 84.55 45.87 72.94 45.87" style="fill:#0c6261"/><polygon points="56.57 77.44 56.57 79.67 72.94 79.67 72.94 61.57 65.99 62.57 56.57 72.72 56.57 77.44" style="fill:#035255"/><polygon points="56.57 79.67 56.57 96.04 61.32 93.76 61.32 79.67 56.57 79.67" style="fill:#1a7682"/><polygon points="61.32 93.76 67.13 90.01 72.3 90.01 72.94 90.01 72.94 79.67 61.32 79.67 61.32 93.76" style="fill:#003839"/><polygon points="56.57 96.04 55.43 96.04 55.43 106.19 63.04 106.19 66.27 96.04 72.94 96.04 72.94 90.01 67.13 90.01 56.57 96.04" style="fill:#065355"/><path d="M63,106.19l3.74,10.39a20.79,20.79,0,0,1,1.19,7v3.13l2.6-3.4V96H65.5Z" style="fill:#002425"/><polygon points="60.52 135.45 60.52 141.63 70.57 130.08 70.57 123.28 60.52 135.45" style="fill:#1a7682"/><polygon points="60.52 141.63 60.52 145.47 63.8 145.47 63.8 137.76 60.52 141.63" style="fill:#065355"/><polygon points="68.24 149.25 63.37 155.39 63.37 130.45 68.24 130.45 68.24 149.25" style="fill:#065355"/><path d="M68.24,132.76l2.61-3a1,1,0,0,1,1.77.66v6.42H68.24Z" style="fill:#34bdc9"/><polygon points="86.93 106.19 86.93 112.27 89.31 112.27 89.31 128.59 85.35 132.55 85.35 135.45 75.26 125.54 76.48 106.19 86.93 106.19" style="fill:#004646"/><rect x="102.67" y="82.14" width="4.07" height="12.16" transform="translate(209.4 176.45) rotate(180)" style="fill:#002425"/><rect x="104.31" y="100.8" width="2.1" height="8.05" transform="translate(210.71 209.64) rotate(180)" style="fill:#323534"/><rect x="103.06" y="100.8" width="0.75" height="8.05" transform="translate(206.87 209.64) rotate(180)" style="fill:#323534"/><polygon points="109.47 106.19 104.76 106.19 104.76 112.14 107.37 112.14 107.37 121.56 108.1 121.56 112.4 111.22 109.47 106.19" style="fill:#117b77"/><polygon points="100.08 106.19 104.78 106.19 104.78 112.14 102.18 112.14 102.18 121.56 101.45 121.56 97.15 111.22 100.08 106.19" style="fill:#5cc6d3"/><polygon points="109.06 94.31 100.56 94.31 102.11 102.63 108.24 102.63 109.06 94.31" style="fill:#298e91"/><path d="M100.1,64.22l1.75-2.68a5.23,5.23,0,0,0-1.51-7.22l-1.65-1.07a4,4,0,0,0-5.5,1.15l1.38.9a2.32,2.32,0,0,1,3.22-.67l1.65,1.07a3.58,3.58,0,0,1,1,4.94l-1.75,2.68Z" style="fill:#002a2b"/><polygon points="95.34 58.37 99.37 58.37 99.37 60.65 106.77 72.91 101.06 75.47 95.34 68.88 95.34 58.37" style="fill:#0d5f66"/><path d="M95.34,56.57V73.18l-4.25,4.26H89.31V62.3l-1-1v-7.5h4.26A2.78,2.78,0,0,1,95.34,56.57Z" style="fill:#176b72"/><polygon points="91.23 53.79 84.55 50.59 82.36 57.27 88.3 61.29 91.23 53.79" style="fill:#167a87"/><polygon points="82.36 57.27 72.94 57.27 72.94 61.57 79.89 62.57 89.31 72.72 89.31 61.29 82.36 57.27" style="fill:#045153"/><circle cx="104.44" cy="77.67" r="5.72" transform="translate(-14.76 25.42) rotate(-12.97)" style="fill:#167a87"/><path d="M84.55,39.91v6H72.94V31.66l7.53,2.55A6,6,0,0,1,84.55,39.91Z" style="fill:#5cc6d3"/><polygon points="61.32 45.87 61.32 50.59 63.52 57.27 72.94 57.27 72.94 45.87 61.32 45.87" style="fill:#004343"/><polygon points="89.31 77.44 89.31 79.67 72.94 79.67 72.94 61.57 79.89 62.57 89.31 72.72 89.31 77.44" style="fill:#004646"/><polygon points="89.31 79.67 89.31 96.04 84.55 93.76 84.55 79.67 89.31 79.67" style="fill:#1a7682"/><polygon points="84.55 93.76 78.74 90.01 73.58 90.01 72.94 90.01 72.94 79.67 84.55 79.67 84.55 93.76" style="fill:#003131"/><polygon points="89.31 96.04 90.44 96.04 90.44 106.19 82.83 106.19 79.61 96.04 72.94 96.04 72.94 90.01 78.74 90.01 89.31 96.04" style="fill:#003839"/><path d="M82.83,106.19l-4.09,10.39a19.05,19.05,0,0,0-1.31,7v3.13l-2.85-3.4V96h5.55Z" style="fill:#001114"/><polygon points="85.35 135.45 85.35 141.63 74.58 129.24 74.58 123.28 85.35 135.45" style="fill:#1a7682"/><polygon points="85.35 141.63 85.35 145.47 82.08 145.47 82.08 137.76 85.35 141.63" style="fill:#065355"/><polygon points="77.64 149.25 82.5 155.39 82.5 130.45 77.64 130.45 77.64 149.25" style="fill:#065355"/><path d="M77.64,132.76l-2.62-3a1,1,0,0,0-1.77.66v6.42h4.39Z" style="fill:#34bdc9"/><polygon points="77.64 154.58 77.64 145.47 80.71 149.01 80.71 154.58 77.64 154.58" style="fill:#1a7682"/><polygon points="68.34 154.58 68.34 145.47 65.27 149.01 65.27 154.58 68.34 154.58" style="fill:#1a7682"/><rect x="82" y="142.49" width="1.72" height="20.71" transform="translate(165.72 305.68) rotate(180)" style="fill:#209a94"/><rect x="82.86" y="163.04" width="2.79" height="3.58" transform="translate(168.5 329.66) rotate(180)" style="fill:#065355"/><rect x="79.66" y="164.42" width="4.59" height="0.83" transform="translate(163.91 329.66) rotate(180)" style="fill:#1d1e22"/><rect x="79.11" y="161.01" width="1.51" height="7.64" transform="translate(159.73 329.66) rotate(180)" style="fill:#065355"/><path d="M84.49,164.08h1.16v1.54H84.49a.77.77,0,0,1,0-1.54Z" style="fill:#1d1e22"/><rect x="85.65" y="163.53" width="0.37" height="2.73" transform="translate(171.66 329.79) rotate(180)" style="fill:#1d1e22"/><rect x="82.64" y="163.2" width="0.34" height="3.42" transform="translate(165.61 329.82) rotate(180)" style="fill:#1d1e22"/><rect x="62.57" y="142.49" width="1.72" height="20.71" style="fill:#209a94"/><rect x="60.65" y="163.04" width="2.79" height="3.58" style="fill:#065355"/><rect x="62.04" y="164.42" width="4.59" height="0.83" style="fill:#1d1e22"/><rect x="65.67" y="161.01" width="1.51" height="7.64" style="fill:#065355"/><path d="M61.81,164.08H60.65v1.54h1.16a.77.77,0,0,0,0-1.54Z" style="fill:#1d1e22"/><rect x="60.28" y="163.53" width="0.37" height="2.73" style="fill:#1d1e22"/><rect x="63.32" y="163.2" width="0.34" height="3.42" style="fill:#1d1e22"/><polygon points="73.15 160.71 67.18 155.33 67.18 159.07 73.15 164.45 73.15 160.71" style="fill:#313832"/><path d="M73.15,157l-5.54-5a1.7,1.7,0,0,0-.43,1.12v2.24l6,5.38Z" style="fill:#111b16"/><polygon points="73.15 171.93 67.18 166.55 67.18 170.29 73.15 175.67 73.15 171.93" style="fill:#111b16"/><polygon points="73.15 168.19 67.18 162.81 67.18 166.55 73.15 171.93 73.15 168.19" style="fill:#313832"/><polygon points="73.15 164.45 67.18 159.07 67.18 162.81 73.15 168.19 73.15 164.45" style="fill:#111b16"/><polygon points="73.15 175.67 67.18 170.29 67.18 174.03 71.89 178.28 73.15 178.28 73.15 175.67" style="fill:#313832"/><path d="M67.18,176.41a2,2,0,0,0,2.08,1.87h2.63L67.18,174Z" style="fill:#111b16"/><path d="M73.15,153.23l-2.22-2H69.26a2.15,2.15,0,0,0-1.65.75l5.54,5Z" style="fill:#313832"/><polygon points="73.15 151.22 70.93 151.22 73.15 153.23 73.15 151.22" style="fill:#111b16"/><path d="M77,178.28a2,2,0,0,0,2.08-1.87v-2.3l-4.62,4.17Z" style="fill:#313832"/><polygon points="73.19 153.26 75.45 151.22 73.15 151.22 73.15 153.23 73.19 153.26" style="fill:#313832"/><path d="M77,151.22H75.45l-2.26,2,0,0V157l0,0,5.53-5A2.15,2.15,0,0,0,77,151.22Z" style="fill:#111b16"/><polygon points="73.15 160.71 73.15 164.45 73.19 164.49 79.11 159.15 79.11 155.41 73.19 160.75 73.15 160.71" style="fill:#111b16"/><path d="M73.15,157v3.74l0,0,5.92-5.34v-2.32a1.76,1.76,0,0,0-.39-1.08l-5.53,5Z" style="fill:#313832"/><polygon points="73.15 164.45 73.15 168.19 73.19 168.23 79.11 162.89 79.11 159.15 73.19 164.49 73.15 164.45" style="fill:#313832"/><polygon points="73.15 175.67 73.15 178.28 74.49 178.28 79.11 174.11 79.11 170.37 73.19 175.71 73.15 175.67" style="fill:#111b16"/><polygon points="73.15 168.19 73.15 171.93 73.19 171.97 79.11 166.63 79.11 162.89 73.19 168.23 73.15 168.19" style="fill:#111b16"/><polygon points="73.15 171.93 73.15 175.67 73.19 175.71 79.11 170.37 79.11 166.63 73.19 171.97 73.15 171.93" style="fill:#313832"/><rect x="64.74" y="136.83" width="2.13" height="7.64" style="fill:#0bb3af"/><rect x="79" y="136.83" width="2.13" height="7.43" style="fill:#209a94"/><rect x="59.46" y="145.47" width="0.82" height="19.77" style="fill:#111b16"/><rect x="59.05" y="164.33" width="1.23" height="1.08" style="fill:#111b16"/><rect x="59.46" y="145.47" width="3.11" height="1.99" style="fill:#111b16"/><rect x="86.01" y="145.47" width="0.82" height="19.77" style="fill:#111b16"/><rect x="86.01" y="164.33" width="1.23" height="1.08" style="fill:#111b16"/><rect x="83.71" y="145.47" width="3.11" height="1.99" style="fill:#111b16"/><path d="M102.06,77.85a2.38,2.38,0,1,0,2.38-2.38A2.38,2.38,0,0,0,102.06,77.85Z" style="fill:#002a2b"/><path d="M39.05,77.67a2.38,2.38,0,1,0,2.38-2.38A2.39,2.39,0,0,0,39.05,77.67Z" style="fill:#002a2b"/><polygon points="61.32 79.67 72.94 85.42 84.55 79.67 61.32 79.67" style="fill:#002a2b"/><path d="M61.32,50.59l6.44,3.7a10.41,10.41,0,0,0,10.36,0l6.43-3.7-2.19,6.68H63.52Z" style="fill:#002a2b"/><rect x="68.61" y="37.14" width="1.43" height="6.61" style="fill:#002a2b"/><rect x="75.47" y="37.14" width="1.43" height="6.61" style="fill:#002a2b"/><rect x="62.57" y="142.28" width="21.14" height="3.96" style="fill:#0bb3af"/><polygon points="68.39 65.12 72.94 69.08 72.94 65.12 68.39 65.12" style="fill:#0bb3af"/><polygon points="77.49 65.12 72.94 69.08 72.94 65.12 77.49 65.12" style="fill:#168f8a"/><polygon points="65.5 96.04 70.57 102.63 72.93 102.63 72.93 96.04 65.5 96.04" style="fill:#34bdc9"/><polygon points="80.13 96.04 72.93 96.04 72.93 102.63 74.58 102.63 80.13 96.04" style="fill:#2cacae"/></g></g></g></svg>