<svg xmlns="http://www.w3.org/2000/svg" xmlns:xlink="http://www.w3.org/1999/xlink" viewBox="0 0 148.25 207.55"><defs><linearGradient id="Degradado_sin_nombre_2" x1="139.68" y1="-0.46" x2="6.35" y2="211.54" gradientUnits="userSpaceOnUse"><stop offset="0" stop-color="#0fc"/><stop offset="1" stop-color="#ffee02"/></linearGradient><linearGradient id="Degradado_sin_nombre_2-2" x1="28.36" y1="196.65" x2="159.15" y2="65.86" xlink:href="#Degradado_sin_nombre_2"/><linearGradient id="Degradado_sin_nombre_2-3" x1="151.62" y1="81.54" x2="79.62" y2="213.54" xlink:href="#Degradado_sin_nombre_2"/></defs><title>Asset 157</title><g id="Layer_2" data-name="Layer 2"><g id="Layer_3" data-name="Layer 3"><rect width="148.25" height="207.55" style="fill:url(#Degradado_sin_nombre_2)"/><rect x="39.26" y="54.96" width="108.99" height="152.59" style="fill:url(#Degradado_sin_nombre_2-2)"/><rect x="74.13" y="103.77" width="74.13" height="103.78" style="fill:url(#Degradado_sin_nombre_2-3)"/><g style="opacity:0.45"><polygon points="8.29 29.81 8.29 69.47 16 77.19 16 122.11 20.18 126.3 20.18 144.42 12.28 144.42 12.28 157.13 8.29 157.13 8.29 165.32 143.8 165.32 143.8 72.95 100.65 29.81 8.29 29.81" style="fill:#2c2c30;opacity:0.2"/><polygon points="106.78 29.81 143.8 66.82 143.8 29.81 106.78 29.81" style="fill:#2c2c30"/><path d="M138.82,77.07,97.09,35.34l-.22-.09H18.79l-.22.09-.09.22v6.2l.09.22.22.09H87.32a1.39,1.39,0,0,0,1.34,1.09,1.4,1.4,0,1,0,0-2.8,1.39,1.39,0,0,0-1.34,1.09H19.1V35.87H96.74l41.55,41.55v80.64H64.34l-.22.09L53.78,168.49H14.29A1.37,1.37,0,0,0,13,167.4a1.4,1.4,0,1,0,0,2.8,1.37,1.37,0,0,0,1.33-1.09H53.91l.22-.09,10.34-10.34H138.6l.22-.09.09-.22V77.29Z" style="fill:#097f00"/><rect x="7.01" y="41.76" width="2.27" height="14.87" style="fill:#097f00"/><rect x="14.24" y="93.4" width="2.48" height="14.05" style="fill:#097f00"/><circle cx="88.43" cy="153.25" r="1.78" style="fill:#9bf424"/><circle cx="97.26" cy="153.25" r="1.78" style="fill:#9bf424"/><circle cx="106.09" cy="153.25" r="1.78" style="fill:#9bf424"/><circle cx="114.92" cy="153.25" r="1.78" style="fill:#9bf424"/><circle cx="123.75" cy="153.25" r="1.78" style="fill:#9bf424"/><circle cx="132.58" cy="153.25" r="1.78" style="fill:#9bf424"/><polygon points="144.8 110.13 144.8 109.82 142.63 109.82 142.63 83.38 144.49 83.38 144.49 110.13 144.8 110.13 144.8 109.82 144.8 110.13 145.11 110.13 145.11 82.76 142.01 82.76 142.01 110.44 145.11 110.44 145.11 110.13 144.8 110.13" style="fill:#9bf424"/><polygon points="32.63 157.64 32.63 157.33 30.87 157.33 30.87 155.89 32.32 155.89 32.32 157.64 32.63 157.64 32.63 157.33 32.63 157.64 32.94 157.64 32.94 155.27 30.25 155.27 30.25 157.95 32.94 157.95 32.94 157.64 32.63 157.64" style="fill:#9bf424"/><polygon points="30.15 125.42 30.15 125.11 25.92 125.11 25.92 121.18 29.84 121.18 29.84 125.42 30.15 125.42 30.15 125.11 30.15 125.42 30.46 125.42 30.46 120.56 25.3 120.56 25.3 125.73 30.46 125.73 30.46 125.42 30.15 125.42" style="fill:#9bf424"/><polygon points="20.23 67.79 20.23 67.48 16.21 67.48 16.21 63.76 19.93 63.76 19.93 67.79 20.23 67.79 20.23 67.48 20.23 67.79 20.55 67.79 20.55 63.14 15.59 63.14 15.59 68.1 20.55 68.1 20.55 67.79 20.23 67.79" style="fill:#9bf424"/><polygon points="135.5 39.49 135.5 39.18 131.27 39.18 131.27 35.25 135.19 35.25 135.19 39.49 135.5 39.49 135.5 39.18 135.5 39.49 135.81 39.49 135.81 34.63 130.65 34.63 130.65 39.8 135.81 39.8 135.81 39.49 135.5 39.49" style="fill:#9bf424"/><path d="M33.25,50.64h-.31a2.59,2.59,0,1,1-2.58-2.58,2.58,2.58,0,0,1,2.58,2.58h.62a3.2,3.2,0,1,0-3.2,3.2,3.2,3.2,0,0,0,3.2-3.2Z" style="fill:#097f00"/><path d="M133.23,123.66h-.31a2.48,2.48,0,1,1-2.48-2.48,2.48,2.48,0,0,1,2.48,2.48h.62a3.1,3.1,0,1,0-3.1,3.1,3.1,3.1,0,0,0,3.1-3.1Z" style="fill:#097f00"/><path d="M144.18,54h-.31a1.55,1.55,0,0,1-3.1,0,1.55,1.55,0,0,1,3.1,0h.62a2.17,2.17,0,1,0-2.17,2.17A2.17,2.17,0,0,0,144.49,54Z" style="fill:#097f00"/><path d="M11.56,143.7h-.31a1.45,1.45,0,1,1-1.45-1.45,1.46,1.46,0,0,1,1.45,1.45h.62a2.07,2.07,0,1,0-2.07,2.07,2.07,2.07,0,0,0,2.07-2.07Z" style="fill:#097f00"/><polygon points="144.01 163.72 140.87 163.72 140.87 160.58 139.09 160.58 139.09 163.72 135.96 163.72 135.96 165.49 139.09 165.49 139.09 168.63 140.87 168.63 140.87 165.49 144.01 165.49 144.01 163.72" style="fill:#097f00"/><polygon points="12.01 28.85 8.87 28.85 8.87 25.71 7.1 25.71 7.1 28.85 3.96 28.85 3.96 30.63 7.1 30.63 7.1 33.77 8.87 33.77 8.87 30.63 12.01 30.63 12.01 28.85" style="fill:#097f00"/><rect x="126.31" y="80.59" width="5.89" height="26.65" style="fill:#097f00"/><rect x="122.59" y="99.18" width="5.89" height="8.06" style="fill:#9bf424"/><rect x="21.89" y="63.14" width="28.3" height="4.96" style="fill:#9bf424"/><path d="M51.85,24.31h4.46l-8,8H43.86Zm17.92,0H65.31l-8,8h4.46Zm-6.73,0H58.58l-8,8h4.46Zm33.65,0H92.23l-8,8H88.7Zm-20.19,0H72l-8,8h4.46Zm13.46,0H85.5l-8,8H82Zm-6.73,0H78.77l-8,8h4.46Z" style="fill:#9bf424"/></g><path d="M59.09,37.23a1.35,1.35,0,1,1,1.49,1.34v7.69h2.09v.31h-2.4v-8A1.35,1.35,0,0,1,59.09,37.23Z" style="fill:#060a0f"/><polygon points="64.19 47.89 62.26 47.28 62.26 45.5 69.41 45.5 69.41 47.89 64.19 47.89" style="fill:#060a0f"/><path d="M87.72,37.23a1.35,1.35,0,1,0-1.49,1.34v7.69H84.14v.31h2.4v-8A1.34,1.34,0,0,0,87.72,37.23Z" style="fill:#060a0f"/><polygon points="82.62 47.89 84.55 47.28 84.55 45.5 77.41 45.5 77.41 47.89 82.62 47.89" style="fill:#060a0f"/><path d="M59.49,64.4l-1-.43,2.3-5.59a6.6,6.6,0,0,1,6.12-4.09h.26v1.12h-.26a5.47,5.47,0,0,0-5.07,3.4Z" style="fill:#022"/><path d="M88.58,64.4l1-.43-2.31-5.59a6.6,6.6,0,0,0-6.12-4.09h-.26v1.12h.26a5.49,5.49,0,0,1,5.08,3.4Z" style="fill:#022"/><path d="M62.75,161.71l-2.08,3.91a2,2,0,0,0,1.79,3h8.59V157Z" style="fill:#054d50"/><polygon points="62.48 122.64 61.21 122.64 63.45 131.56 68.18 131.56 68.18 122.64 62.48 122.64" style="fill:#176268"/><polygon points="62.28 89.22 63.57 94.47 73.78 94.47 73.78 83.14 62.28 89.22" style="fill:#451b46"/><path d="M63.57,94.47,73.78,91v5L71,107H67.05l-1.87-5.11a1.72,1.72,0,0,0-1.61-1.12h0Z" style="fill:#af546f"/><polygon points="71.57 122.87 71.57 147.28 69.2 147.28 69.2 123.38 70.6 121.98 71.57 122.87" style="fill:#1d717f"/><polygon points="63.45 125.17 67.29 147.28 69.2 147.28 69.2 122.3 63.45 125.17" style="fill:#054d50"/><rect x="65.79" y="57.46" width="8" height="9.91" style="fill:#003737"/><polygon points="63.57 60.9 65.94 58.01 73.78 58.01 73.78 66.68 63.57 60.9" style="fill:#003a3b"/><polygon points="60.08 63.53 63.57 60.9 67.26 60.9 70.98 63.44 70.98 64.8 69.1 66.68 62.1 66.68 60.08 63.53" style="fill:#1b7480"/><path d="M55.74,74.79l-5.37-8.9a28.49,28.49,0,0,1,9.88-1.56,2.54,2.54,0,0,1,2.57,2.54v3.32Z" style="fill:#116066"/><path d="M57,64.5s2.14-2.85,4-.08C61,64.42,58.6,66.42,57,64.5Z" style="fill:#004d50"/><polygon points="51.34 67.51 50.14 68.45 55.74 79.18 56.99 78.49 55.74 74.79 51.34 67.51" style="fill:#003737"/><path d="M50.14,68.45s-2.7-1.2-5.55,2.36c0,0-3.61,3.89,1.07,9.49H55.74V79.18S52.16,68.28,50.14,68.45Z" style="fill:#408f83"/><polygon points="46.11 80.31 50.99 90.32 53.28 90.32 55.74 80.31 46.11 80.31" style="fill:#022"/><polygon points="67.26 60.9 69.39 60.02 67.33 58.59 65.46 58.59 63.57 60.9 67.26 60.9" style="fill:#003a3b"/><polygon points="70.98 63.44 72.71 62.34 73.78 62.34 73.78 66.43 72.66 64.79 70.98 64.8 70.98 63.44" style="fill:#003a3b"/><path d="M65.16,105.15h4.32l1.29-2h1.74s-.2,14.76-1.94,17.53h-6.3v-8a8.05,8.05,0,0,0-.16-1.54l-.8-3.72A1.89,1.89,0,0,1,65.16,105.15Z" style="fill:#2e0430"/><path d="M69.48,105.15l2.19,11.2s1-9.49.84-13.2H70.77Z" style="fill:#451b46"/><path d="M63.29,119.66l.74-.83a3.26,3.26,0,0,1,1.84-1c1.73-.32,5-.79,5.7,0,0,0,1.19,3.36,0,5.07a4.12,4.12,0,0,0-3.78,2,2.74,2.74,0,0,1-2.56,1.3c-1.19-.12-2.49-1-2.74-4.11A3.24,3.24,0,0,1,63.29,119.66Z" style="fill:#23849b"/><path d="M67.8,122.91a2.26,2.26,0,1,1-2.25-2.25A2.26,2.26,0,0,1,67.8,122.91Z" style="fill:#451b46"/><rect x="66.32" y="141.73" width="5.24" height="7.93" style="fill:#23849b"/><polygon points="71.57 141.73 62.87 137.11 62.87 140.08 71.57 149.67 71.57 141.73" style="fill:#451b46"/><polygon points="66.33 147.28 70.34 151.3 70.34 157.89 66.33 157.89 66.33 147.28" style="fill:#003d3e"/><polygon points="70.73 155.25 65.38 158.38 65.38 160.22 70.34 160.22 70.34 157.74 71.05 157.03 71.05 155.25 70.73 155.25" style="fill:#1e737f"/><polygon points="68.71 149.67 70.34 151.3 70.34 155.48 71.05 155.48 71.57 149.67 68.71 149.67" style="fill:#176268"/><path d="M50.28,100.13l-.3.48a3.81,3.81,0,0,1-1.53-2.31,4.77,4.77,0,0,1,1-3.65L50,95a4.25,4.25,0,0,0-1,3.21A3.24,3.24,0,0,0,50.28,100.13Z" style="fill:#252827"/><path d="M50.43,103l-.51.65A11.72,11.72,0,0,1,47,99.79a9.14,9.14,0,0,1,1.07-9.6l.67.47c-2,2.91-2.37,5.86-1,8.78A11.08,11.08,0,0,0,50.43,103Z" style="fill:#252827"/><rect x="50.17" y="91.44" width="3" height="13.71" transform="translate(103.33 196.59) rotate(180)" style="fill:#252827"/><path d="M53,99.41l-2.51.11a1,1,0,0,0-.94,1.14l1.37,10.39,2.55-.12.58-10.46A1,1,0,0,0,53,99.41Z" style="fill:#408f83"/><rect x="50.12" y="110.39" width="4.51" height="5.31" transform="translate(109.94 223.55) rotate(177.34)" style="fill:#0b181b"/><path d="M52.54,115.7a3.21,3.21,0,0,0,0,.71,1.21,1.21,0,0,0,.62,1c.75.41,2,1.67,2.38,5.48a.34.34,0,0,0,.36.32h0a.68.68,0,0,0,.64-.7l-.24-5.12a1,1,0,0,0-.32-.69l-1.23-1.12Z" style="fill:#000b10"/><path d="M52.7,115.69a3.05,3.05,0,0,1,.08.71,1.22,1.22,0,0,1-.61,1.07c-.79.48-2.08,1.85-2.11,5.68a.38.38,0,0,1-.38.36h0a.72.72,0,0,1-.77-.64l-.24-5.11A.94.94,0,0,1,49,117l1.26-1.24Z" style="fill:#323e3f"/><path d="M48.94,93.6v1.93a1.37,1.37,0,0,0,1.37,1.38h2.63a1.74,1.74,0,0,0,1.73-1.74v-.28Z" style="fill:#4fc3cb"/><path d="M47.89,88s-2.66,4,1,5.65l5.81,1.93s3.47-1.37.89-7.58Z" style="fill:#166766"/><polygon points="70.34 157.74 70.34 168.61 71.05 168.61 71.05 157.03 70.34 157.74" style="fill:#003d3e"/><polygon points="62.75 161.71 70.34 165.17 70.34 160.22 65.38 160.22 62.75 161.71" style="fill:#003d3e"/><path d="M49.79,74.91l-.64-.63.64-.63a.26.26,0,0,0,0-.35l-.54-.54a.26.26,0,0,0-.35,0l-.63.63-.63-.63a.26.26,0,0,0-.35,0l-.54.54a.26.26,0,0,0,0,.35l.63.63-.63.63a.26.26,0,0,0,0,.35l.54.54a.26.26,0,0,0,.35,0l.63-.64.63.64a.26.26,0,0,0,.35,0l.54-.54A.26.26,0,0,0,49.79,74.91Z" style="fill:#054d50"/><polygon points="65.71 54.97 66.5 59.02 69.2 59.02 73.08 61.72 73.85 61.72 73.85 54.97 65.71 54.97" style="fill:#004d50"/><polygon points="73.85 43.29 67.91 42.58 64.61 44.38 64.96 46.23 64.61 49.33 65.71 54.97 73.85 54.97 73.85 43.29" style="fill:#0a6464"/><path d="M84.82,161.71l2.08,3.91a2,2,0,0,1-1.79,3H76.52V157Z" style="fill:#003132"/><polygon points="85.09 122.64 86.36 122.64 84.12 131.56 79.39 131.56 79.39 122.64 85.09 122.64" style="fill:#176268"/><polygon points="85.28 89.22 84 94.47 73.78 94.47 73.78 83.14 85.28 89.22" style="fill:#39123d"/><path d="M84,94.47,73.78,91v5L76.59,107h3.93l1.87-5.11A1.72,1.72,0,0,1,84,100.77h0Z" style="fill:#954862"/><polygon points="76 122.87 76 147.28 78.37 147.28 78.37 123.38 76.97 121.98 76 122.87" style="fill:#136369"/><polygon points="84.12 125.17 80.28 147.28 78.37 147.28 78.37 122.3 84.12 125.17" style="fill:#003839"/><rect x="73.78" y="57.46" width="8" height="9.91" transform="translate(155.56 124.83) rotate(180)" style="fill:#003737"/><polygon points="84 60.9 81.63 58.01 73.78 58.01 73.78 66.68 84 60.9" style="fill:#002b2a"/><polygon points="87.48 63.53 84 60.9 80.31 60.9 76.59 63.44 76.59 64.8 78.47 66.68 85.47 66.68 87.48 63.53" style="fill:#19686e"/><path d="M91.82,74.79l5.38-8.9a28.49,28.49,0,0,0-9.88-1.56,2.54,2.54,0,0,0-2.57,2.54v3.32Z" style="fill:#054d50"/><path d="M90.58,64.5s-2.14-2.85-4-.08C86.62,64.42,89,66.42,90.58,64.5Z" style="fill:#003a3b"/><polygon points="96.22 67.51 97.43 68.45 91.83 79.18 90.58 78.49 91.83 74.79 96.22 67.51" style="fill:#003737"/><path d="M97.43,68.45s2.69-1.2,5.55,2.36c0,0,3.61,3.89-1.08,9.49H91.82V79.18S95.41,68.28,97.43,68.45Z" style="fill:#2f7a6d"/><polygon points="101.46 80.31 96.57 90.32 94.28 90.32 91.83 80.31 101.46 80.31" style="fill:#022"/><polygon points="80.31 60.9 78.18 60.02 80.24 58.59 82.11 58.59 84 60.9 80.31 60.9" style="fill:#002b2a"/><polygon points="76.59 63.44 74.86 62.34 73.78 62.34 73.78 66.43 74.91 64.79 76.59 64.8 76.59 63.44" style="fill:#002b2a"/><path d="M100.46,61.42l5,7-3.83,2.15a1.64,1.64,0,0,1-2.42-1.71Z" style="fill:#00191a"/><path d="M82.41,105.15H78.09l-1.29-2H75.06s.2,14.76,1.94,17.53h6.3v-8a7.32,7.32,0,0,1,.16-1.54l.8-3.72A1.89,1.89,0,0,0,82.41,105.15Z" style="fill:#1c0625"/><path d="M78.09,105.15l-2.19,11.2s-1-9.49-.84-13.2H76.8Z" style="fill:#370d3b"/><path d="M84.27,119.66l-.73-.83a3.26,3.26,0,0,0-1.84-1c-1.73-.32-5-.79-5.7,0,0,0-1.19,3.36,0,5.07a4.12,4.12,0,0,1,3.78,2,2.74,2.74,0,0,0,2.56,1.3c1.19-.12,2.49-1,2.74-4.11A3.2,3.2,0,0,0,84.27,119.66Z" style="fill:#1a7682"/><path d="M79.76,122.91A2.26,2.26,0,1,0,82,120.66,2.26,2.26,0,0,0,79.76,122.91Z" style="fill:#310a34"/><rect x="76" y="141.73" width="5.24" height="7.93" transform="translate(157.24 291.4) rotate(180)" style="fill:#1b7480"/><polygon points="76 141.73 84.7 137.11 84.7 140.08 76 149.67 76 141.73" style="fill:#2c0430"/><polygon points="81.24 147.28 77.23 151.3 77.23 157.89 81.24 157.89 81.24 147.28" style="fill:#002828"/><polygon points="76.83 155.25 82.19 158.38 82.19 160.22 77.23 160.22 77.23 157.74 76.52 157.03 76.52 155.25 76.83 155.25" style="fill:#185f65"/><polygon points="78.86 149.67 77.23 151.3 77.23 155.48 76.52 155.48 76 149.67 78.86 149.67" style="fill:#044b4e"/><path d="M97.29,100.13l.3.48a3.81,3.81,0,0,0,1.53-2.31,4.74,4.74,0,0,0-1.06-3.65L97.6,95a4.17,4.17,0,0,1,1,3.21A3.2,3.2,0,0,1,97.29,100.13Z" style="fill:#252827"/><path d="M97.14,103l.51.65a11.72,11.72,0,0,0,2.92-3.84,9.17,9.17,0,0,0-1.07-9.6l-.68.47a8.33,8.33,0,0,1,1,8.78A11.08,11.08,0,0,1,97.14,103Z" style="fill:#252827"/><rect x="94.4" y="91.44" width="3" height="13.71" style="fill:#252827"/><path d="M94.57,99.41l2.5.11a1,1,0,0,1,1,1.14l-1.37,10.39-2.55-.12-.58-10.46A1,1,0,0,1,94.57,99.41Z" style="fill:#287367"/><rect x="92.94" y="110.39" width="4.51" height="5.31" transform="translate(5.34 -4.29) rotate(2.66)" style="fill:#0b181b"/><path d="M95,115.7a3.21,3.21,0,0,1,0,.71,1.22,1.22,0,0,1-.63,1c-.74.41-2,1.67-2.37,5.48a.35.35,0,0,1-.36.32h0a.67.67,0,0,1-.64-.7l.24-5.12a1,1,0,0,1,.32-.69l1.23-1.12Z" style="fill:#000b10"/><path d="M94.87,115.69a3.05,3.05,0,0,0-.08.71,1.23,1.23,0,0,0,.6,1.07c.79.48,2.09,1.85,2.12,5.68a.37.37,0,0,0,.37.36h0a.73.73,0,0,0,.78-.64l.24-5.11a.94.94,0,0,0-.3-.72l-1.26-1.24Z" style="fill:#323e3f"/><path d="M98.63,93.6v1.93a1.38,1.38,0,0,1-1.37,1.38H94.63a1.73,1.73,0,0,1-1.73-1.74v-.28Z" style="fill:#07b1aa"/><path d="M99.68,88s2.66,4-1.05,5.65l-5.81,1.93s-3.47-1.37-.89-7.58Z" style="fill:#024c49"/><polygon points="82.19 160.22 77.23 160.22 77.23 157.74 76.52 157.03 76.52 168.61 77.23 168.61 77.23 165.17 84.82 161.71 82.19 160.22" style="fill:#002b2a"/><path d="M97.78,74.91l.63-.63-.63-.63a.26.26,0,0,1,0-.35l.54-.54a.26.26,0,0,1,.35,0l.63.63.63-.63a.26.26,0,0,1,.35,0l.53.54a.24.24,0,0,1,0,.35l-.63.63.63.63a.24.24,0,0,1,0,.35l-.53.54a.26.26,0,0,1-.35,0l-.63-.64-.63.64a.26.26,0,0,1-.35,0l-.54-.54A.26.26,0,0,1,97.78,74.91Z" style="fill:#00393b"/><polygon points="67.13 93.25 72.81 99.77 74.75 99.77 79.68 92.99 73.78 90.97 67.13 93.25" style="fill:#2e0430"/><polygon points="81.86 54.97 81.07 59.02 78.36 59.02 74.49 61.72 73.72 61.72 73.72 54.97 81.86 54.97" style="fill:#003b3c"/><polygon points="73.72 43.29 79.66 42.58 82.96 44.38 82.61 46.23 82.96 49.33 81.86 54.97 73.72 54.97 73.72 43.29" style="fill:#024e4c"/><polygon points="67.91 42.58 70 40.49 78.34 40.49 79.66 42.58 73.72 43.29 67.91 42.58" style="fill:#004d50"/><path d="M59.23,86.73a3.92,3.92,0,0,0,4.61,2.36l4.86-1.34a5.81,5.81,0,0,0,3.76-3.18l.09-.2L73,84,58,82.71Z" style="fill:#0e6e7c"/><path d="M70.52,64.82C66,65.06,56.06,66.6,55.74,75.66l2.22,7L73,84l.8-.81V66.43h0A3.71,3.71,0,0,0,70.52,64.82Z" style="fill:#23849b"/><path d="M88.34,86.73a3.92,3.92,0,0,1-4.61,2.36l-4.87-1.34a5.81,5.81,0,0,1-3.75-3.18l-.1-.2L74.59,84l15-1.24Z" style="fill:#10636a"/><path d="M77.05,64.82c4.48.24,14.46,1.78,14.77,10.84l-2.21,7L74.59,84l-.81-.81V66.43h0A3.74,3.74,0,0,1,77.05,64.82Z" style="fill:#1b757d"/><path d="M72.91,86.57h0V61.77h1.62v24.8h.14a1.57,1.57,0,0,1,1.57,1.57V92l-2.46-.79-2.41,1,0-4A1.57,1.57,0,0,1,72.91,86.57Z" style="fill:#2e0430"/><path d="M46.44,61.42l-5,7,3.83,2.15a1.64,1.64,0,0,0,2.42-1.71Z" style="fill:#022"/><rect x="70.14" y="45.5" width="1.19" height="6.92" style="fill:#022"/><rect x="75.65" y="45.5" width="1.19" height="6.92" style="fill:#022"/></g></g></svg>