<svg xmlns="http://www.w3.org/2000/svg" xmlns:xlink="http://www.w3.org/1999/xlink" viewBox="0 0 148.25 207.55"><defs><linearGradient id="Degradado_sin_nombre_6" x1="-14.83" y1="192.72" x2="163.07" y2="14.83" gradientUnits="userSpaceOnUse"><stop offset="0" stop-color="aqua"/><stop offset="1" stop-color="blue"/></linearGradient></defs><title>Asset 123</title><g id="Layer_2" data-name="Layer 2"><g id="Layer_3" data-name="Layer 3"><rect width="148.25" height="207.55" style="fill:url(#Degradado_sin_nombre_6)"/><g style="opacity:0.45"><polygon points="81.46 42.48 74.61 42.48 9.2 107.89 9.2 114.74 81.46 42.48" style="fill:#00158e;opacity:0.2"/><polygon points="100.7 42.48 93.86 42.48 9.2 127.14 9.2 133.99 100.7 42.48" style="fill:#00158e;opacity:0.2"/><polygon points="62.21 42.48 55.36 42.48 9.2 88.64 9.2 95.49 62.21 42.48" style="fill:#00158e;opacity:0.2"/><polygon points="42.96 42.48 36.11 42.48 9.2 69.39 9.2 76.24 42.96 42.48" style="fill:#00158e;opacity:0.2"/><polygon points="23.71 42.48 16.86 42.48 9.2 50.15 9.2 56.99 23.71 42.48" style="fill:#00158e;opacity:0.2"/><path d="M109.19,42.48v3.91L12.91,142.68H9.2v30.51H139.91V42.48Zm0,100.2H96.75l12.44-12.45Zm0-19.3L89.9,142.68H77.5L109.19,111Zm0-19.24L70.65,142.68H58.25l50.94-50.94Zm0-19.25L51.4,142.68H39l70.19-70.19Zm0-19.25-77,77H19.75l89.44-89.44Z" style="fill:#00158e;opacity:0.2"/><polygon points="137.04 170.78 137.04 144.34 132.26 149.12 132.26 166 115.38 166 110.6 170.78 137.04 170.78" style="fill:#0751cf"/><rect x="138.48" y="73.94" width="2.99" height="35.67" style="fill:gold"/><rect x="138.48" y="116.78" width="2.99" height="4.98" style="fill:gold"/><rect x="27.5" y="172.37" width="48.42" height="2.39" style="fill:gold"/><polygon points="25 162.87 28.86 162.87 32.98 158.74 26.54 158.74 17.25 168.03 19.83 168.03 25 162.87" style="fill:gold"/><polygon points="33.37 162.87 37.23 162.87 41.35 158.74 34.91 158.74 25.63 168.03 28.21 168.03 33.37 162.87" style="fill:gold"/><polygon points="41.74 162.87 45.61 162.87 49.73 158.74 43.28 158.74 34 168.03 36.58 168.03 41.74 162.87" style="fill:gold"/><polygon points="50.12 162.87 53.98 162.87 58.1 158.74 51.66 158.74 42.37 168.03 44.95 168.03 50.12 162.87" style="fill:gold"/><polygon points="58.49 162.87 62.35 162.87 66.48 158.74 60.03 158.74 50.75 168.03 53.33 168.03 58.49 162.87" style="fill:gold"/><polygon points="66.87 162.87 70.73 162.87 74.85 158.74 68.41 158.74 59.12 168.03 61.7 168.03 66.87 162.87" style="fill:gold"/><polygon points="75.24 162.87 79.1 162.87 83.22 158.74 76.78 158.74 67.5 168.03 70.08 168.03 75.24 162.87" style="fill:gold"/><polygon points="83.62 162.87 87.48 162.87 91.6 158.74 85.16 158.74 75.87 168.03 78.45 168.03 83.62 162.87" style="fill:gold"/><path d="M126.23,37.77H111.29V34.19h14.94Zm-14.35-.6h13.75V34.78H111.88Z" style="fill:#0751cf"/><path d="M144,145.57h-2.59V134.21H144Zm-2-.6h1.4V134.81H142Z" style="fill:#0751cf"/><path d="M102.92,181.24H85.58v-3.79h17.34Zm-16.74-.6h16.14v-2.59H86.18Z" style="fill:#0751cf"/><path d="M17.24,180.44H10.66v-2.39h6.58Zm-6-.6h5.38v-1.2H11.26Z" style="fill:gold"/><path d="M6.88,168.88H4.49V149H6.88Zm-1.8-.6h1.2V149.55H5.08Z" style="fill:gold"/><polygon points="95.84 36.87 95.84 36.72 28.05 36.72 28.05 35.34 95.69 35.34 95.69 36.87 95.84 36.87 95.84 36.72 95.84 36.87 95.99 36.87 95.99 35.04 27.75 35.04 27.75 37.01 95.99 37.01 95.99 36.87 95.84 36.87" style="fill:gold"/></g><path d="M87.76,46.6V36.86a1.7,1.7,0,1,1,.39,0V47h-3V46.6Z" style="fill:#060a0f"/><polygon points="82.67 48.66 85.12 47.89 85.12 45.63 76.07 45.63 76.07 48.66 82.67 48.66" style="fill:#060a0f"/><path d="M76,111.87l-.72.44a3.84,3.84,0,0,1-3.89,0l-.84-.49a3.83,3.83,0,0,1-1.9-3.3h0a3.82,3.82,0,0,1,3.82-3.82H74a3.82,3.82,0,0,1,3.82,3.82v0A3.82,3.82,0,0,1,76,111.87Z" style="fill:#1f2320"/><polygon points="52.35 82.25 52.35 86.67 53.98 88.31 53.98 96.94 58.65 96.94 58.65 78.98 52.35 82.25" style="fill:#d2d4cf"/><polygon points="62.03 78.98 62.03 86.44 64.52 90.84 73.28 90.84 73.28 83.9 65.04 75.66 62.03 78.98" style="fill:#373a36"/><polygon points="59.54 71.09 61.05 78.98 62.5 78.98 65.14 83.9 73.28 83.9 73.28 63.82 59.18 63.82 59.54 71.09" style="fill:#555a53"/><path d="M50.17,60l-5.83,3.5V80.13a2.16,2.16,0,0,0,.8,1.67l1.08.86a1.63,1.63,0,0,0,2.06,0l10.37-8.7-.59-1.36Z" style="fill:#d2d4cf"/><circle cx="54.14" cy="78.98" r="4.51" style="fill:#a3b448"/><polygon points="51.73 60.02 50.17 60.02 50.17 60.56 58.06 72.57 60.51 70.12 60.69 69.8 51.74 59.99 51.73 60.02" style="fill:#fff"/><polygon points="63.78 64.06 58.41 60.56 57.71 60.95 56.81 60.42 63.5 64.56 63.78 64.06" style="fill:#bfc2b4"/><polygon points="56.81 60.42 52.43 57.84 51.74 59.99 60.69 69.8 63.5 64.56 56.81 60.42" style="fill:#d6d6ce"/><polygon points="63.78 59.13 60.29 61.79 63.41 63.82 73.28 63.82 73.28 59.13 63.78 59.13" style="fill:#75796d"/><polygon points="73.37 90.84 64.52 90.84 62.29 93.07 63.98 94.75 63.97 94.78 73.37 90.89 73.37 90.84" style="fill:#1f2320"/><path d="M64,94.77,61.29,105.4v7.24H59.44s.16,3.59,3.73,2.87V118h4.49v-6.64l5.71-5.71V90.88Z" style="fill:#a3b448"/><polygon points="67.66 111.36 67.66 137.28 70.62 137.28 70.62 108.4 67.66 111.36" style="fill:#111514"/><polygon points="63.17 118 60.28 118 60.28 124.68 61.29 126.32 61.29 136.34 67.66 137.28 67.66 118 63.17 118" style="fill:#1f2320"/><path d="M64.13,139.18s-5.48,2.45-4.32,9.76h6.92v-11.8S64,137,64.13,139.18Z" style="fill:#d4de39"/><polyline points="61.29 136.34 64.13 139.18 66.73 137.14 61.68 136.34" style="fill:#a3b448"/><polygon points="61.29 148.94 61.29 152.2 63.97 154.69 60.82 157.49 60.82 161.53 60.82 175.44 65.72 175.44 65.72 148.94 61.29 148.94" style="fill:#a3b448"/><path d="M66.73,149a38.81,38.81,0,0,1,3.89,0c-.12.12,0-11.7,0-11.7H66.73Z" style="fill:#353836"/><rect x="65.72" y="147.85" width="4.9" height="6.76" style="fill:#111514"/><polygon points="60.82 162.54 54.53 169.53 56.39 175.44 60.82 175.44 60.82 162.54" style="fill:#111514"/><rect x="65.72" y="154.61" width="4.9" height="20.83" style="fill:#111514"/><polygon points="67.47 162.19 73.77 169.18 71.9 175.09 67.47 175.09 67.47 162.19" style="fill:#111514"/><rect x="54.35" y="173.54" width="19.41" height="2.45" style="fill:#111514"/><polygon points="94.19 82.25 94.19 86.67 92.55 88.31 92.55 96.94 87.89 96.94 87.89 78.98 94.19 82.25" style="fill:#aeb1ab"/><polygon points="84.5 78.98 84.5 86.44 82.01 90.84 73.25 90.84 73.25 83.9 81.5 75.66 84.5 78.98" style="fill:#262825"/><polygon points="87 71.09 85.48 78.98 84.03 78.98 81.39 83.9 73.25 83.9 73.25 63.82 87.35 63.82 87 71.09" style="fill:#3e423c"/><path d="M96.36,60l5.83,3.5V80.13a2.13,2.13,0,0,1-.8,1.67l-1.08.86a1.61,1.61,0,0,1-2,0l-10.37-8.7.58-1.36Z" style="fill:#aeb0ac"/><circle cx="92.4" cy="78.98" r="4.51" style="fill:#73772e"/><polygon points="94.81 60.02 96.36 60.02 96.36 60.56 88.47 72.57 86.02 70.12 85.85 69.8 94.8 59.99 94.81 60.02" style="fill:#d2d4cf"/><polygon points="82.76 64.06 88.12 60.56 88.82 60.95 89.72 60.42 83.03 64.56 82.76 64.06" style="fill:#969990"/><polygon points="89.72 60.42 94.11 57.84 94.8 59.99 85.85 69.8 83.03 64.56 89.72 60.42" style="fill:#b0b4a8"/><polygon points="82.76 59.13 86.24 61.79 83.13 63.82 73.25 63.82 73.25 59.13 82.76 59.13" style="fill:#585c4d"/><polygon points="73.16 90.84 82.01 90.84 84.24 93.07 82.56 94.75 82.56 94.78 73.16 90.89 73.16 90.84" style="fill:#0c1012"/><path d="M82.56,94.77l2.69,10.63v7.24h1.84s-.15,3.59-3.73,2.87V118H78.88v-6.64l-5.72-5.71V90.88Z" style="fill:#858933"/><polygon points="78.88 111.36 78.88 137.28 75.92 137.28 75.92 108.4 78.88 111.36" style="fill:#111514"/><polygon points="83.36 118 86.26 118 86.26 124.68 85.25 126.32 85.25 136.34 78.88 137.28 78.88 118 83.36 118" style="fill:#131615"/><path d="M82.41,139.18s5.48,2.45,4.31,9.76H79.81v-11.8S82.57,137,82.41,139.18Z" style="fill:#d4de39"/><polyline points="85.25 136.34 82.41 139.18 79.81 137.14 84.86 136.34" style="fill:#a3b448"/><polygon points="85.25 148.94 85.25 152.2 82.57 154.69 85.71 157.49 85.71 161.53 85.71 175.44 80.82 175.44 80.82 148.94 85.25 148.94" style="fill:#939c3b"/><path d="M79.81,149a38.8,38.8,0,0,0-3.89,0c.12.12,0-11.7,0-11.7h3.89Z" style="fill:#353836"/><rect x="75.92" y="147.85" width="4.9" height="6.76" transform="translate(156.73 302.46) rotate(180)" style="fill:#111514"/><polygon points="85.71 162.54 92.01 169.53 90.14 175.44 85.71 175.44 85.71 162.54" style="fill:#111514"/><rect x="75.92" y="154.61" width="4.9" height="20.83" style="fill:#111514"/><polygon points="79.06 162.19 72.77 169.18 74.63 175.09 79.06 175.09 79.06 162.19" style="fill:#111514"/><rect x="72.77" y="173.54" width="19.41" height="2.45" transform="translate(164.95 349.52) rotate(180)" style="fill:#111514"/><path d="M58.42,46.6V36.86a1.7,1.7,0,1,0-.38,0V47h3V46.6Z" style="fill:#060a0f"/><polygon points="63.51 48.66 61.06 47.89 61.06 45.63 70.11 45.63 70.11 48.66 63.51 48.66" style="fill:#060a0f"/><polygon points="45.66 65.02 44.85 58.32 49.96 62.37 45.66 65.02" style="fill:#111514"/><polygon points="100.45 65.39 101.26 58.69 96.15 62.74 100.45 65.39" style="fill:#111514"/><path d="M54.81,108.57l3.12-.16a1.25,1.25,0,0,1,1.31,1.28l-.44,13-3.17.16-2-12.88A1.23,1.23,0,0,1,54.81,108.57Z" style="fill:#1f2320"/><rect x="54.43" y="122.07" width="5.61" height="6.6" transform="translate(-6.34 3.1) rotate(-2.94)" style="fill:#a3b448"/><path d="M57.36,128.66a4.56,4.56,0,0,1,.09.89,1.54,1.54,0,0,1-.65,1.33c-.88.6-2.3,2.3-2.28,7.06a.44.44,0,0,1-.41.44h0a.83.83,0,0,1-.87-.79l-.33-6.36a1.25,1.25,0,0,1,.32-.89l1.38-1.54Z" style="fill:#b0b4a8"/><path d="M57.16,128.67a3.55,3.55,0,0,0,0,.9,1.5,1.5,0,0,0,.88,1.24c1,.5,2.8,2.05,3.3,6.78a.47.47,0,0,0,.51.39h0a.88.88,0,0,0,.88-.87l-.33-6.37a1.13,1.13,0,0,0-.45-.85l-1.7-1.37Z" style="fill:#d2d4cf"/><path d="M89,128.37a4.33,4.33,0,0,0-.09.88,1.54,1.54,0,0,0,.65,1.33c.87.6,2.3,2.3,2.28,7.06a.44.44,0,0,0,.41.44h0a.83.83,0,0,0,.87-.79l.33-6.36a1.25,1.25,0,0,0-.32-.89l-1.38-1.53Z" style="fill:#b0b4a8"/><path d="M89.22,128.38a3.45,3.45,0,0,1,0,.89,1.52,1.52,0,0,1-.88,1.25c-1,.5-2.8,2-3.3,6.77a.46.46,0,0,1-.51.39h0a.87.87,0,0,1-.88-.87l.32-6.36a1.18,1.18,0,0,1,.46-.86l1.7-1.37Z" style="fill:#d2d4cf"/><path d="M91.57,108.27l-3.12-.16a1.25,1.25,0,0,0-1.31,1.29l.44,13,3.17.16,2-12.88A1.23,1.23,0,0,0,91.57,108.27Z" style="fill:#1f2320"/><rect x="86.34" y="121.77" width="5.61" height="6.6" transform="translate(171.76 254.54) rotate(-177.06)" style="fill:#a3b448"/><path d="M54,91.18H48.31l5.83,21.46h7.15V96.47S54.53,95.54,54,91.18Z" style="fill:#c0c1bc"/><path d="M92.55,91.18h5.68L92.4,112.64H85.25V96.47S92,95.54,92.55,91.18Z" style="fill:#9c9f98"/><rect x="64.06" y="44.81" width="18.06" height="5.27" style="fill:#111514"/><polygon points="81.79 51.22 81.94 51.88 84.03 49.84 83.32 46.76 80.96 47.62 81.79 51.22" style="fill:#111514"/><polygon points="80.13 44.03 79.97 43.36 82.61 43.68 83.32 46.76 80.96 47.62 80.13 44.03" style="fill:#3e423c"/><path d="M64.22,56.54h9.06v4.25H68.94a3.7,3.7,0,0,1-3-1.75Z" style="fill:#a3b448"/><path d="M64.22,56.54,67,44.07a1.9,1.9,0,0,1,1.73-1.65h4.56V56.54Z" style="fill:#c4d047"/><path d="M82.34,56.54H73.28v4.25h4.34a3.7,3.7,0,0,0,3-1.75Z" style="fill:#858933"/><path d="M82.34,56.54,79.57,44.07a1.9,1.9,0,0,0-1.73-1.65H73.28V56.54Z" style="fill:#a0a436"/><rect x="70.02" y="46.77" width="1.19" height="5.8" style="fill:#111514"/><rect x="75.48" y="46.77" width="1.19" height="5.8" style="fill:#111514"/><polygon points="64.77 51.22 64.62 51.88 62.53 49.84 63.24 46.76 65.6 47.62 64.77 51.22" style="fill:#111514"/><polygon points="66.43 44.03 66.58 43.36 63.95 43.68 63.24 46.76 65.6 47.62 66.43 44.03" style="fill:#3e423c"/><rect x="67.46" y="65.84" width="11.82" height="1.64" style="fill:#111514"/></g></g></svg>