<svg xmlns="http://www.w3.org/2000/svg" xmlns:xlink="http://www.w3.org/1999/xlink" viewBox="0 0 148.25 207.55"><defs><linearGradient id="Degradado_sin_nombre_6" x1="-14.83" y1="192.72" x2="163.07" y2="14.83" gradientUnits="userSpaceOnUse"><stop offset="0" stop-color="aqua"/><stop offset="1" stop-color="blue"/></linearGradient></defs><title>Asset 125</title><g id="Layer_2" data-name="Layer 2"><g id="Layer_3" data-name="Layer 3"><rect width="148.25" height="207.55" style="fill:url(#Degradado_sin_nombre_6)"/><g style="opacity:0.45"><polygon points="54.43 42.85 21.09 46.95 17.61 79.66 54.43 42.85" style="fill:#00158e"/><polygon points="140.05 131.08 120.65 34.7 59.37 42.24 17.1 84.51 8.84 162.22 114.89 156.24 140.05 131.08" style="fill:#00158e;opacity:0.2"/><polygon points="119.48 155.98 144.78 154.56 140.78 134.68 119.48 155.98" style="fill:#00158e"/><path d="M132.05,52.21H116.54V48.58h15.51Zm-14.94-.57h14.36V49.15H117.11Z" style="fill:#0751cf"/><path d="M21,146.8H4v-2.49H21Zm-16.46-.57H20.42v-1.34H4.53Z" style="fill:#0751cf"/><path d="M46.27,163.65h-6.7V153.5h6.7Zm-6.13-.57h5.55v-9H40.14Z" style="fill:#0751cf"/><path d="M136.64,92h-8.23V83.81h8.23ZM129,91.47h7.09V84.38H129Z" style="fill:gold"/><path d="M24.92,58.72H12.57v-2H24.92Zm-11.78-.57h11.2v-.86H13.14Z" style="fill:gold"/><rect x="36.41" y="156.28" width="0.96" height="6.32" style="fill:gold"/><rect x="136.16" y="105.35" width="1.34" height="22.02" style="fill:gold"/><rect x="96.15" y="33.74" width="1.53" height="8.81" style="fill:gold"/><rect x="10.17" y="141.54" width="8.81" height="0.96" style="fill:gold"/><rect x="136.16" y="149.96" width="2.49" height="9.57" style="fill:gold"/><rect x="9.91" y="96.29" width="3.69" height="3.7" transform="translate(72.82 20.41) rotate(44.98)" style="fill:gold"/><rect x="17.53" y="96.28" width="3.69" height="3.7" transform="translate(75.04 15.02) rotate(44.98)" style="fill:gold"/><rect x="25.16" y="96.27" width="3.69" height="3.7" transform="translate(77.27 9.63) rotate(44.98)" style="fill:gold"/><rect x="32.78" y="96.26" width="3.69" height="3.7" transform="translate(79.49 4.24) rotate(44.98)" style="fill:gold"/><rect x="40.4" y="96.25" width="3.69" height="3.7" transform="translate(81.71 -1.15) rotate(44.98)" style="fill:gold"/><rect x="48.03" y="96.24" width="3.69" height="3.7" transform="translate(83.94 -6.55) rotate(44.98)" style="fill:gold"/><rect x="63.6" y="36.99" width="17.81" height="6.13" style="fill:gold"/><rect x="88.49" y="153.02" width="5.74" height="9.19" style="fill:gold"/><rect x="128.12" y="61.5" width="3.26" height="17.04" style="fill:gold"/><polygon points="126.59 139.72 126.59 129.04 124.66 130.97 124.66 137.79 117.85 137.79 115.92 139.72 126.59 139.72" style="fill:#0751cf"/><polygon points="114.1 127.11 114.1 137.79 116.03 135.85 116.03 129.04 122.85 129.04 124.78 127.11 114.1 127.11" style="fill:#0751cf"/></g><path d="M86.15,35.8a1.43,1.43,0,1,0-2.85,0,1.5,1.5,0,0,0,1.28,1.53v8.79H82.37v.35H84.9V37.33A1.5,1.5,0,0,0,86.15,35.8Z" style="fill:#060a0f"/><polygon points="80.75 47.98 82.8 47.28 82.8 45.25 75.23 45.25 75.23 47.98 80.75 47.98" style="fill:#060a0f"/><path d="M60.15,35.8a1.43,1.43,0,1,1,1.58,1.53v8.79h2.21v.35H61.41V37.33A1.5,1.5,0,0,1,60.15,35.8Z" style="fill:#060a0f"/><polygon points="65.55 47.98 63.51 47.28 63.51 45.25 71.07 45.25 71.07 47.98 65.55 47.98" style="fill:#060a0f"/><path d="M57.3,67.6c0-.18.45-4.42,3.46-6.1,1.88-1,4.31-.83,7.23.62l-.35.7c-2.67-1.33-4.86-1.55-6.5-.63-2.66,1.47-3,5.44-3.06,5.48Z"/><path d="M60.08,68.78c-.4-2.45,0-4.12,1.07-5,1.79-1.37,4.79,0,4.92,0l-.32.71.16-.36-.16.36s-2.71-1.22-4.13-.13c-.86.66-1.12,2.08-.77,4.22Z"/><path d="M89,68.15c0-.18-.44-4.42-3.45-6.09-1.88-1.05-4.32-.84-7.24.62l.35.7c2.68-1.34,4.87-1.55,6.51-.64,2.65,1.48,3,5.44,3,5.48Z"/><path d="M86.24,69.33c.41-2.44.05-4.12-1.07-5-1.79-1.37-4.79,0-4.92,0l.33.71-.17-.35.17.35s2.7-1.21,4.12-.13c.87.67,1.12,2.09.77,4.22Z"/><path d="M83.59,113.38c.13-.12,3.19-3.08,2.64-6.48-.35-2.13-2-3.91-5-5.3l-.34.71c2.71,1.27,4.24,2.86,4.54,4.71.48,3-2.38,5.77-2.41,5.8Z"/><path d="M80.94,111.93c2.17-1.19,3.26-2.51,3.24-3.92,0-2.25-3-3.77-3.09-3.83l-.35.69.17-.34-.17.34s2.63,1.37,2.65,3.16c0,1.09-.93,2.17-2.83,3.22Z"/><path d="M62.61,112.94c-.13-.12-3.19-3.08-2.64-6.48.35-2.13,2-3.91,5-5.3l.34.71c-2.71,1.27-4.24,2.86-4.54,4.71-.48,3,2.38,5.77,2.41,5.8Z"/><path d="M65.26,111.5C63.09,110.3,62,109,62,107.58c0-2.26,3-3.78,3.09-3.84l.35.7-.18-.35.18.35s-2.63,1.36-2.66,3.15c0,1.09.94,2.17,2.84,3.22Z"/><rect x="70.25" y="99.66" width="5.7" height="16.61" style="fill:#792d49"/><path d="M58.85,88.55S58.16,95,73.32,100.27V75.21L58.85,73.39Z" style="fill:#ed6555"/><path d="M65.93,80.5l-1.42,1.42s3.83,7.89,8.77,9V82Z" style="fill:#4b052a"/><polygon points="67.73 57.86 65.05 65.92 66.39 65.37 73.32 66.93 73.32 61.05 68.87 56.59 67.73 57.86" style="fill:#4b052a"/><path d="M60.53,67.85,65,65.92l1.34-.55,6.92,1.56V82S66.12,82,63,78.42C63,78.42,59.6,72.72,60.53,67.85Z" style="fill:#792d49"/><polygon points="51.82 90.92 54.03 104.88 58.9 97.5 58.9 87.52 55.36 86.78 51.82 90.92" style="fill:#2f001d"/><path d="M60.53,67.85l-2.09-1.93a12.9,12.9,0,0,0-9.65,6.43s3.12,7.54,4.68,11.12h5.89l2.75-14.32Z" style="fill:#af546f"/><path d="M52.53,81.28s-4.2,2.93-.71,9.64l4.32-3.41H58.9l.46-4Z" style="fill:#4b052a"/><path d="M62.33,94.45h0a1.25,1.25,0,0,0-.14,1.81c1.23,1.35,3.08,4.35,2.32,9.8,0,0-.49,5.86,7.16,4.34V97.93Z" style="fill:#451b46"/><polygon points="61.08 148.53 62.47 128.23 67.44 149.91 61.08 150.92 61.08 148.53" style="fill:#4b052a"/><path d="M71.67,110.4H65.42l-1.14,1.14H63.22l-2.14,2.14s1.75,25.66,5.29,34.49l3,.91V120.23l2.3-4S71.26,110,71.67,110.4Z" style="fill:#ed6555"/><path d="M66.37,148.17s-1.55,1.65-5.29.36l-2.23,13.79h3v1.84h7.59V149.08Z" style="fill:#a3302c"/><path d="M87.75,88.55s.69,6.41-14.47,11.72V75.21l14.47-1.82Z" style="fill:#c34b40"/><path d="M80.67,80.5l1.42,1.42s-3.85,7.89-8.81,9V82Z" style="fill:#33001e"/><polygon points="78.87 57.86 81.55 65.92 80.21 65.37 73.28 66.93 73.28 61.05 77.73 56.59 78.87 57.86" style="fill:#390224"/><path d="M86.07,67.85l-4.52-1.93-1.34-.55-6.93,1.56V82s7.19,0,10.35-3.58C83.63,78.42,87,72.72,86.07,67.85Z" style="fill:#642240"/><polygon points="94.78 90.92 92.58 104.88 88.26 97.87 87.7 87.52 91.24 86.78 94.78 90.92" style="fill:#2f001d"/><path d="M86.07,67.85l2.09-1.93a12.88,12.88,0,0,1,9.65,6.43s-3.12,7.54-4.68,11.12H87.25L84.49,69.15Z" style="fill:#af546f"/><path d="M94.07,81.28s4.2,2.93.71,9.64l-4.32-3.41H87.71l-.46-4Z" style="fill:#4b052a"/><path d="M84.27,94.45h0a1.25,1.25,0,0,1,.14,1.81c-1.23,1.35-3.08,4.35-2.32,9.8,0,0,.49,5.86-7.16,4.34V97.93Z" style="fill:#2c0630"/><polygon points="85.52 148.53 84.13 128.23 79.16 149.91 85.52 150.92 85.52 148.53" style="fill:#330020"/><path d="M74.93,110.4h6.25l1.14,1.14h1.07l2.13,2.14s-1.75,25.66-5.29,34.49l-3,.91V120.23l-2.3-4S75.34,110,74.93,110.4Z" style="fill:#bd483e"/><path d="M80.23,148.17s1.55,1.65,5.29.36l2.23,13.79h-3v1.84H77.14V149.08Z" style="fill:#7e171e"/><ellipse cx="73.3" cy="74.12" rx="4.38" ry="3.24" style="fill:#99bb59"/><path d="M63.67,50.9c-2.27,5.09,1.75,6.29,1.75,6.29C72,58.66,72,61.88,72,61.88h1.33v-11Z" style="fill:#1d6332"/><path d="M73.28,39.3h-2.9l-.39.12a5.22,5.22,0,0,0-3.75,4.42,17.55,17.55,0,0,1-2,6,10.41,10.41,0,0,0-.56,1.1h9.61Z" style="fill:#829b42"/><path d="M82.89,50.9c-.16-.35-.34-.72-.56-1.1a17.31,17.31,0,0,1-2-6,5.23,5.23,0,0,0-3.76-4.42l-.39-.12H73.28V50.9Z" style="fill:#99bb59"/><path d="M73.28,50.9v11h1.33s-.09-3.22,6.52-4.69c0,0,4-1.2,1.76-6.29Z" style="fill:#1d6332"/><path d="M52.67,106.45l-.35.54a4.25,4.25,0,0,1-1.75-2.64,5.4,5.4,0,0,1,1.21-4.18l.52.38a4.85,4.85,0,0,0-1.1,3.68A3.69,3.69,0,0,0,52.67,106.45Z"/><path d="M52.84,109.72l-.59.74a13.49,13.49,0,0,1-3.35-4.4c-1.18-2.53-1.93-6.49,1.23-11l.78.54c-2.34,3.34-2.72,6.72-1.15,10.06A12.56,12.56,0,0,0,52.84,109.72Z"/><rect x="52.54" y="96.49" width="3.44" height="15.72" transform="translate(108.51 208.69) rotate(180)" style="fill:#252827"/><path d="M55.79,105.62l-2.88.13a1.15,1.15,0,0,0-1.08,1.3L53.4,119l2.92-.14.66-12A1.14,1.14,0,0,0,55.79,105.62Z" style="fill:#660815"/><rect x="52.49" y="118.22" width="5.17" height="6.09" transform="translate(115.7 239.83) rotate(177.34)" style="fill:#0b181b"/><path d="M55.25,124.3a4.28,4.28,0,0,0,0,.82,1.44,1.44,0,0,0,.72,1.16c.86.47,2.31,1.9,2.72,6.27a.41.41,0,0,0,.42.37h0a.77.77,0,0,0,.73-.8l-.27-5.87a1.18,1.18,0,0,0-.37-.79l-1.41-1.28Z" style="fill:#000b10"/><path d="M55.44,124.29a3.17,3.17,0,0,1,.09.82,1.39,1.39,0,0,1-.69,1.22c-.91.55-2.4,2.13-2.42,6.51a.44.44,0,0,1-.44.41h0a.81.81,0,0,1-.89-.72l-.27-5.87a1.12,1.12,0,0,1,.34-.83l1.44-1.41Z" style="fill:#323e3f"/><path d="M51.13,99v2.22a1.57,1.57,0,0,0,1.57,1.57h3a2,2,0,0,0,2-2v-.33Z" style="fill:#ed6555"/><path d="M49.92,92.48S46.87,97.11,51.13,99l6.66,2.22s4-1.57,1-8.7Z" style="fill:#a3302c"/><path d="M94,106.45l.34.54a4.29,4.29,0,0,0,1.76-2.64,5.44,5.44,0,0,0-1.21-4.18l-.53.38a4.77,4.77,0,0,1,1.1,3.68A3.7,3.7,0,0,1,94,106.45Z"/><path d="M93.86,109.72l.6.74a13.69,13.69,0,0,0,3.34-4.4c1.19-2.53,1.93-6.49-1.23-11l-.77.54c2.33,3.34,2.72,6.72,1.15,10.06A12.51,12.51,0,0,1,93.86,109.72Z"/><rect x="90.73" y="96.49" width="3.44" height="15.72" style="fill:#252827"/><path d="M90.92,105.62l2.87.13a1.14,1.14,0,0,1,1.08,1.3L93.31,119l-2.93-.14-.66-12A1.15,1.15,0,0,1,90.92,105.62Z" style="fill:#3d0210"/><rect x="89.05" y="118.22" width="5.17" height="6.09" transform="translate(5.72 -4.12) rotate(2.66)" style="fill:#0b181b"/><path d="M91.45,124.3a4.28,4.28,0,0,1,0,.82,1.44,1.44,0,0,1-.72,1.16c-.85.47-2.31,1.9-2.72,6.27a.4.4,0,0,1-.42.37h0a.77.77,0,0,1-.73-.8l.28-5.87a1.1,1.1,0,0,1,.37-.79l1.4-1.28Z" style="fill:#000b10"/><path d="M91.26,124.29a3.3,3.3,0,0,0-.08.82,1.37,1.37,0,0,0,.69,1.22c.9.55,2.39,2.13,2.42,6.51a.43.43,0,0,0,.43.41h0a.81.81,0,0,0,.89-.72l.27-5.87a1.08,1.08,0,0,0-.33-.83l-1.45-1.41Z" style="fill:#323e3f"/><path d="M95.58,99v2.22A1.57,1.57,0,0,1,94,102.75H91a2,2,0,0,1-2-2v-.33Z" style="fill:#d14d42"/><path d="M96.78,92.48s3,4.63-1.2,6.48l-6.67,2.22s-4-1.57-1-8.7Z" style="fill:#892021"/><rect x="69.7" y="43.74" width="1.19" height="7.16" style="fill:#1e070f"/><rect x="75.76" y="43.74" width="1.19" height="7.16" style="fill:#1e070f"/><polygon points="69.57 166.61 65.03 162.61 65.03 146.53 69.57 146.53 69.57 166.61" style="fill:#451b46"/><path d="M58.42,162.85v-2.6a3.54,3.54,0,0,1,3.37-3.68h7.78v.8H61.79a2.77,2.77,0,0,0-2.65,2.88v2.6Z" style="fill:#90619c"/><path d="M62,162.85a3.64,3.64,0,0,1,3.58-3.68h4v.8h-4a2.85,2.85,0,0,0-2.81,2.88Z" style="fill:#90619c"/><polygon points="71.7 165.12 65.03 162.61 57.95 162.61 56.23 170.71 56.25 170.74 71.7 170.74 71.7 165.12" style="fill:#451b46"/><polygon points="56.25 170.74 59.16 174.9 69.57 174.9 70.58 173.23 71.7 173.23 71.7 170.74 56.25 170.74" style="fill:#310b34"/><rect x="54.79" y="170.74" width="18.73" height="1.4" style="fill:#310b34"/><polygon points="77.03 166.61 81.58 162.61 81.58 146.53 77.03 146.53 77.03 166.61" style="fill:#451b46"/><path d="M88.18,162.85v-2.6a3.54,3.54,0,0,0-3.37-3.68H77v.8h7.78a2.77,2.77,0,0,1,2.65,2.88v2.6Z" style="fill:#90619c"/><path d="M84.6,162.85A3.63,3.63,0,0,0,81,159.17H77v.8h4a2.85,2.85,0,0,1,2.81,2.88Z" style="fill:#90619c"/><polygon points="74.9 165.12 81.58 162.61 88.65 162.61 90.37 170.71 90.35 170.74 74.9 170.74 74.9 165.12" style="fill:#451b46"/><polygon points="90.35 170.74 87.44 174.9 77.03 174.9 76.02 173.23 74.9 173.23 74.9 170.74 90.35 170.74" style="fill:#310b34"/><rect x="73.08" y="170.74" width="18.73" height="1.4" transform="translate(164.89 342.88) rotate(180)" style="fill:#310b34"/><rect x="71.28" y="61.88" width="4" height="0.98" style="fill:#99bb59"/><rect x="62.65" y="50.9" width="21.34" height="3.04" style="fill:#205027"/><path d="M90.73,68.91h0c-2.31,0-4.65,1.52-3.93,4.7.18.77.7,1.21.86,2.09a1.26,1.26,0,0,0,.69.9c.55.26,1.13.56,1.26,1.17a2.46,2.46,0,0,1,0,.39h2.24a2.46,2.46,0,0,1,0-.39c.12-.61.7-.91,1.26-1.17a1.23,1.23,0,0,0,.68-.9c.17-.88.69-1.32.87-2.09C95.37,70.43,93,68.86,90.73,68.91Zm-1.62,5.61a1,1,0,1,1,0-2,1,1,0,1,1,0,2Zm1.62,1.94h0a1.13,1.13,0,0,1-.68-.74c0-.32.33-1.24.59-1.1l.09,0h0l.09,0c.26-.14.6.78.59,1.1A1.13,1.13,0,0,1,90.73,76.46Zm1.62-1.94a1,1,0,1,1,1-1A1,1,0,0,1,92.35,74.52Z" style="fill:#4b052a"/><path d="M56,68.91h0c-2.3,0-4.64,1.52-3.92,4.7.17.77.69,1.21.86,2.09a1.24,1.24,0,0,0,.69.9c.54.26,1.13.56,1.25,1.17a2.46,2.46,0,0,1,0,.39h2.24s0-.3,0-.39c.12-.61.71-.91,1.26-1.17a1.2,1.2,0,0,0,.68-.9c.18-.88.69-1.32.87-2.09C60.61,70.43,58.28,68.86,56,68.91Zm-1.61,5.61a1,1,0,1,1,1-1A1,1,0,0,1,54.36,74.52ZM56,76.46h0a1.13,1.13,0,0,1-.68-.74c0-.32.33-1.24.6-1.1l.08,0h0l.09,0c.27-.14.61.78.6,1.1A1.12,1.12,0,0,1,56,76.46Zm1.62-1.94a1,1,0,1,1,1-1A1,1,0,0,1,57.59,74.52Z" style="fill:#4b052a"/></g></g></svg>