<svg xmlns="http://www.w3.org/2000/svg" xmlns:xlink="http://www.w3.org/1999/xlink" viewBox="0 0 148.25 207.55"><defs><linearGradient id="Degradado_sin_nombre_6" x1="-14.83" y1="192.72" x2="163.07" y2="14.83" gradientUnits="userSpaceOnUse"><stop offset="0" stop-color="aqua"/><stop offset="1" stop-color="blue"/></linearGradient></defs><title>Asset 147</title><g id="Layer_2" data-name="Layer 2"><g id="Layer_3" data-name="Layer 3"><rect width="148.25" height="207.55" style="fill:url(#Degradado_sin_nombre_6)"/><g style="opacity:0.45"><polygon points="135.39 156.18 135.39 112.55 132.72 109.88 132.72 53.79 124.71 53.79 124.71 46.44 97.18 46.44 94.44 49.19 60.75 49.19 54.99 43.43 8.69 43.43 8.69 133.36 12.97 137.63 12.97 157.37 15.71 160.11 15.71 166.87 48.43 166.87 48.43 170.72 75.74 170.72 75.74 173.22 138.49 173.22 138.49 159.28 135.39 156.18" style="fill:#00158e;opacity:0.2"/><path d="M139.7,141.66V118.88a1.53,1.53,0,0,0,1.26-1.5,1.56,1.56,0,1,0-3.12,0,1.53,1.53,0,0,0,1.26,1.5v23l4.6,4.6v33.12H64.76v-5H5.4V41H24.59a1.56,1.56,0,1,0,0-.59H4.8V175.18H64.16v5H144.3v-34Z" style="fill:gold"/><polygon points="84.78 166.79 87.76 166.79 90.94 163.62 85.97 163.62 78.82 170.77 80.81 170.77 84.78 166.79" style="fill:gold"/><polygon points="91.24 166.79 94.21 166.79 97.39 163.62 92.42 163.62 85.27 170.77 87.26 170.77 91.24 166.79" style="fill:gold"/><polygon points="97.69 166.79 100.66 166.79 103.84 163.62 98.87 163.62 91.72 170.77 93.71 170.77 97.69 166.79" style="fill:gold"/><polygon points="104.14 166.79 107.11 166.79 110.29 163.62 105.33 163.62 98.17 170.77 100.16 170.77 104.14 166.79" style="fill:gold"/><polygon points="110.59 166.79 113.56 166.79 116.74 163.62 111.78 163.62 104.62 170.77 106.61 170.77 110.59 166.79" style="fill:gold"/><polygon points="117.04 166.79 120.02 166.79 123.19 163.62 118.23 163.62 111.08 170.77 113.06 170.77 117.04 166.79" style="fill:gold"/><polygon points="123.49 166.79 126.47 166.79 129.64 163.62 124.68 163.62 117.53 170.77 119.52 170.77 123.49 166.79" style="fill:gold"/><polygon points="129.94 166.79 132.92 166.79 136.09 163.62 131.13 163.62 123.98 170.77 125.97 170.77 129.94 166.79" style="fill:gold"/><polygon points="15.91 45.6 13.18 45.6 11.24 48.97 13.18 52.34 15.91 52.34 13.97 48.97 15.91 45.6" style="fill:#0751cf"/><polygon points="22.9 45.6 20.16 45.6 18.22 48.97 20.16 52.34 22.9 52.34 20.95 48.97 22.9 45.6" style="fill:#0751cf"/><polygon points="29.88 45.6 27.14 45.6 25.2 48.97 27.14 52.34 29.88 52.34 27.93 48.97 29.88 45.6" style="fill:#0751cf"/><polygon points="36.86 45.6 34.13 45.6 32.18 48.97 34.13 52.34 36.86 52.34 34.91 48.97 36.86 45.6" style="fill:#0751cf"/><polygon points="43.84 45.6 41.11 45.6 39.16 48.97 41.11 52.34 43.84 52.34 41.9 48.97 43.84 45.6" style="fill:#0751cf"/><polygon points="50.82 45.6 48.09 45.6 46.15 48.97 48.09 52.34 50.82 52.34 48.88 48.97 50.82 45.6" style="fill:#0751cf"/><path d="M66.13,45.94H69l-5.17,5.17H61Zm11.59,0H74.83l-5.16,5.17h2.88Zm-4.35,0H70.48l-5.16,5.17H68.2Zm21.75,0H92.24l-5.17,5.17H90Zm-13.05,0H79.19L74,51.11H76.9Zm8.7,0H87.89l-5.17,5.17h2.89Zm-4.35,0H83.54l-5.17,5.17h2.88Z" style="fill:gold"/><rect x="121.74" y="100.38" width="19.89" height="2.67" style="fill:gold"/><rect x="129.61" y="96.38" width="9.2" height="1.78" style="fill:gold"/><rect x="12.22" y="160.93" width="17.81" height="2.37" style="fill:gold"/><path d="M108.88,53.59H113V49.43h-4.16Zm.59-3.56h3v3h-3Z" style="fill:gold"/><path d="M129.46,85.15V81.69H125.7v3.75h3.76Zm-3.17-2.87h2.57v2.57h-2.57Z" style="fill:gold"/><path d="M125.7,136.3h4.15v-4.16H125.7Zm.59-3.57h3v3h-3Z" style="fill:#0751cf"/><path d="M15.69,150.54h5.14V145.4H15.69Zm.59-4.55h4v4h-4Z" style="fill:gold"/><path d="M11.93,126h3.16v-3.17H11.93Zm.59-2.58h2v2h-2Z" style="fill:#0751cf"/><path d="M32.51,169.54H43.78V165H32.51Zm.59-4H43.19v3.36H33.1Z" style="fill:gold"/><path d="M131.24,59.72V81.09h3.36V59.72Zm.59.6H134V80.5h-2.18Z" style="fill:gold"/><path d="M132.62,51.31V46.07h-5.54v5.54h5.54Zm-4.94-4.65H132V51h-4.35Z" style="fill:gold"/><path d="M38.05,40.83V37.17h-4v3.95h4Zm-3.37-3.07h2.77v2.77H34.68Z" style="fill:gold"/><path d="M52.88,39.94h4.95V35H52.88Zm.6-4.36h3.76v3.76H53.48Z" style="fill:#0751cf"/><polygon points="21.38 79.57 18.51 79.57 18.51 76.7 16.89 76.7 16.89 79.57 14.03 79.57 14.03 81.19 16.89 81.19 16.89 84.06 18.51 84.06 18.51 81.19 21.38 81.19 21.38 79.57" style="fill:gold"/><polygon points="33.8 79.57 30.94 79.57 30.94 76.7 29.32 76.7 29.32 79.57 26.45 79.57 26.45 81.19 29.32 81.19 29.32 84.06 30.94 84.06 30.94 81.19 33.8 81.19 33.8 79.57" style="fill:gold"/><polygon points="46.23 79.57 43.37 79.57 43.37 76.7 41.74 76.7 41.74 79.57 38.88 79.57 38.88 81.19 41.74 81.19 41.74 84.06 43.37 84.06 43.37 81.19 46.23 81.19 46.23 79.57" style="fill:gold"/><polygon points="58.66 79.57 55.79 79.57 55.79 76.7 54.17 76.7 54.17 79.57 51.31 79.57 51.31 81.19 54.17 81.19 54.17 84.06 55.79 84.06 55.79 81.19 58.66 81.19 58.66 79.57" style="fill:gold"/></g><path d="M89.59,49.42V41.85a1.33,1.33,0,0,1,.14-2.65,1.33,1.33,0,0,1,.16,2.65v7.87H87.54v-.3Z" style="fill:#060a0f"/><polygon points="85.64 51.02 87.54 50.42 87.54 48.67 80.5 48.67 80.5 51.02 85.64 51.02" style="fill:#060a0f"/><path d="M66.79,49.42V41.85a1.32,1.32,0,1,0-.3,0v7.87h2.35v-.3Z" style="fill:#060a0f"/><polygon points="70.74 51.02 68.84 50.42 68.84 48.67 75.87 48.67 75.87 51.02 70.74 51.02" style="fill:#060a0f"/><polygon points="104.57 119.19 101.28 119.19 101.28 109.17 104.57 109.55 104.57 119.19" style="fill:#53524b"/><path d="M65.08,143.75v3.87l.86.86a2.78,2.78,0,0,1-.06,4.16l-1.32,1.26v21.33H70V143.75Z" style="fill:#a3b448"/><path d="M64.56,159.9l-5.42,6.44a4.31,4.31,0,0,0-.93,4l1.43,4.85h4.92Z" style="fill:#111514"/><rect x="69.99" y="150.48" width="5.43" height="24.74" style="fill:#111514"/><path d="M91.53,143.75v3.87l-.87.86a2.78,2.78,0,0,0,.06,4.16L92,153.9v21.33H86.61V143.75Z" style="fill:#939c3b"/><path d="M92,159.9l5.42,6.44a4.31,4.31,0,0,1,.93,4L97,175.23H92Z" style="fill:#111514"/><rect x="81.29" y="150.48" width="5.32" height="24.74" style="fill:#111514"/><rect x="66.75" y="121.64" width="7.49" height="26.43" style="fill:#403b2e"/><polygon points="45.25 82.26 48.83 91.52 52.15 91.52 52.95 90.71 57.07 90.71 57.07 83.62 45.25 82.26" style="fill:#a3b448"/><polygon points="39.25 68.56 40.32 77.77 46.31 80.55 49.1 80.55 56.05 82.26 58.3 82.26 59.26 76.69 59.26 64.07 39.25 68.56" style="fill:#000002"/><polygon points="43.21 60.32 42.25 62.46 45.03 72.84 46.96 74.77 52.31 73.91 56.59 65.03 59.26 64.07 59.26 55.4 52.52 54.33 43.21 60.32" style="fill:#6f695b"/><polygon points="42.25 62.46 40.64 64.55 39.25 68.56 42.25 69.95 43.77 68.13 42.25 62.46" style="fill:#83796a"/><polygon points="46.31 80.55 48.24 84.99 51.51 84.99 56.05 82.26 49.26 80.55 46.31 80.55" style="fill:#6f695b"/><polygon points="40.32 77.77 48.24 84.99 46.31 80.55 40.32 77.77" style="fill:#353026"/><polygon points="51.51 84.99 55.79 84.99 58.14 83.97 58.3 82.26 56.05 82.26 51.51 84.99" style="fill:#353026"/><polygon points="49.1 80.55 52.31 73.91 46.96 74.77 46.31 80.55 49.1 80.55" style="fill:#403b2e"/><polygon points="40.32 77.77 45.03 72.84 46.96 74.77 46.31 80.55 40.32 77.77" style="fill:#4d473a"/><polygon points="40.32 77.77 42.25 69.95 43.77 68.13 45.03 72.84 40.32 77.77" style="fill:#353026"/><polygon points="52.31 73.91 59.26 67.74 59.26 64.07 56.59 65.03 52.31 73.91" style="fill:#353026"/><polygon points="52.31 73.91 59.26 76.25 58.3 82.26 56.05 82.26 49.1 80.55 52.31 73.91" style="fill:#1f1c17"/><polygon points="45.03 72.84 59.26 55.4 59.26 64.07 56.59 65.03 52.31 73.91 46.96 74.77 45.03 72.84" style="fill:#716856"/><polygon points="45.03 72.84 43.77 68.13 59.26 55.4 45.03 72.84" style="fill:#a3b448"/><polygon points="42.25 62.46 59.26 55.4 43.77 68.13 42.25 62.46" style="fill:#352e23"/><polygon points="42.25 62.46 43.21 60.32 52.52 54.33 59.26 55.4 42.25 62.46" style="fill:#262118"/><circle cx="53.06" cy="94.42" r="4.16" transform="translate(-48.57 131.87) rotate(-80.9)" style="fill:#1f1c17"/><path d="M45.75,58.69s-.26-4.36-.26-4.36l4.09,1.9Z" style="fill:#a3b448"/><rect x="59.26" y="56.82" width="2.39" height="19.18" style="fill:#1f1c17"/><polygon points="78.23 55.22 63.26 55.22 61.65 56.82 61.65 68.13 66.31 77.23 78.23 77.23 78.23 55.22" style="fill:#4d473a"/><polygon points="74.25 104.27 74.25 122.31 66.79 129.78 63.82 129.78 63.82 97.83 74.25 104.27" style="fill:#010105"/><polygon points="78.23 98.58 74.81 98.58 62.13 91.52 67.43 112.6 78.23 99.4 78.23 98.58" style="fill:#403b2e"/><polygon points="67.43 112.6 74.25 110.19 74.25 104.27 67.43 112.6" style="fill:#1f1c17"/><polygon points="78.23 77.23 66.31 77.23 62.13 91.52 74.81 98.58 78.23 98.58 78.23 77.23" style="fill:#2d291f"/><polygon points="78.23 77.23 66.31 77.23 65.81 78.93 78.23 88.74 78.23 77.23" style="fill:#191610"/><polygon points="74.25 155.38 64.78 155.38 64.78 144.3 74.25 147.56 74.25 155.38" style="fill:#1f1c15"/><polygon points="63.82 129.78 66.75 144.3 66.79 129.78 63.82 129.78" style="fill:#2e2b20"/><rect x="61.65" y="155.38" width="12.6" height="5" style="fill:#1f1c15"/><polygon points="47.25 93.76 47.25 100.24 52.61 103.17 52.61 95.01 51.68 95.01 47.25 93.76" style="fill:#484640"/><polygon points="56.74 95.01 56.74 99.32 52.61 103.17 52.61 95.01 56.74 95.01" style="fill:#393934"/><polygon points="47.25 100.24 46.33 100.24 46.33 102.25 51.79 109.55 52.61 109.55 52.61 103.17 47.25 100.24" style="fill:#292926"/><path d="M52.61,103.17l5.51-5.29,1.66,2.36s-1.38,1.78-1.43,8.62l-5.74.69Z" style="fill:#302e29"/><polygon points="48.18 104.73 48.99 114.77 51.79 116.06 54.34 116.06 58.35 108.86 51.79 109.55 48.18 104.73" style="fill:#1d1c1b"/><path d="M53.65,114.64H56a3.77,3.77,0,0,0,3.76-3.76v-1.42a2.88,2.88,0,0,0-2.87-2.87v1.19a1.68,1.68,0,0,1,1.68,1.68v1.42A2.57,2.57,0,0,1,56,113.45H53.65Z" style="fill:#a3b448"/><polygon points="51.79 119.19 55.08 119.19 55.08 109.17 51.79 109.55 51.79 119.19" style="fill:#53524b"/><rect x="53.32" y="123.88" width="1.52" height="5.81" transform="translate(108.16 253.56) rotate(180)" style="fill:#323534"/><rect x="52.42" y="123.88" width="0.54" height="5.81" transform="translate(105.39 253.56) rotate(180)" style="fill:#323534"/><polygon points="57.05 127.77 53.65 127.77 53.65 132.06 55.53 132.06 55.53 138.85 56.06 138.85 59.16 131.4 57.05 127.77" style="fill:#010105"/><polygon points="50.27 127.77 53.67 127.77 53.67 132.06 51.79 132.06 51.79 138.85 51.26 138.85 48.16 131.4 50.27 127.77" style="fill:#403b2e"/><polygon points="56.75 119.19 50.62 119.19 51.74 125.19 56.16 125.19 56.75 119.19" style="fill:#a3b448"/><polygon points="63.2 55.22 72.78 50.78 72.78 55.22 63.2 55.22" style="fill:#a3b448"/><path d="M78.23,38.48h-2.5a4.06,4.06,0,0,0-4.06,4.06V55.29h6.56Z" style="fill:#2d291f"/><polygon points="64.44 83.62 78.23 90.26 78.23 88.74 65.81 78.93 64.44 83.62" style="fill:#716856"/><polygon points="62.13 91.52 63.38 96.47 74.25 101.3 76.68 101.3 78.23 99.4 78.23 98.58 74.81 98.58 62.13 91.52" style="fill:#716856"/><polygon points="67.43 112.6 67.43 114.64 74.25 112.97 74.25 110.19 67.43 112.6" style="fill:#a3b448"/><polygon points="66.79 129.78 66.79 133.94 74.25 126.13 74.25 122.31 66.79 129.78" style="fill:#a3b448"/><polygon points="64.78 144.3 66.79 142.07 74.25 144.3 74.25 147.56 64.78 144.3" style="fill:#a3b448"/><polygon points="67.43 114.64 63.82 112.42 63.82 99.09 67.43 112.6 67.43 114.64" style="fill:#767c30"/><polygon points="61.65 61.76 77.11 77.22 78.23 77.22 78.23 73.16 61.77 56.7 61.65 61.76" style="fill:#a3b448"/><polygon points="67.99 55.22 67.99 58.69 78.26 68.96 78.26 55.29 67.99 55.22" style="fill:#716856"/><rect x="82.11" y="121.64" width="7.49" height="26.43" transform="translate(171.72 269.71) rotate(180)" style="fill:#2c271f"/><polygon points="111.11 82.26 107.53 91.52 104.21 91.52 103.41 90.71 99.29 90.71 99.29 83.62 111.11 82.26" style="fill:#8b9237"/><polygon points="117.11 68.56 116.04 77.77 110.05 80.55 107.26 80.55 100.31 82.26 98.06 82.26 97.1 76.69 97.1 64.07 117.11 68.56" style="fill:#000001"/><polygon points="113.15 60.32 114.11 62.46 111.33 72.84 109.4 74.77 104.05 73.91 99.77 65.03 97.1 64.07 97.1 55.4 103.84 54.33 113.15 60.32" style="fill:#6f695b"/><polygon points="114.11 62.46 115.72 64.55 117.11 68.56 114.11 69.95 112.59 68.13 114.11 62.46" style="fill:#83796a"/><polygon points="110.05 80.55 108.12 84.99 104.86 84.99 100.31 82.26 107.1 80.55 110.05 80.55" style="fill:#5d594d"/><polygon points="116.04 77.77 108.12 84.99 110.05 80.55 116.04 77.77" style="fill:#26211b"/><polygon points="104.86 84.99 100.58 84.99 98.22 83.97 98.06 82.26 100.31 82.26 104.86 84.99" style="fill:#25211c"/><polygon points="107.26 80.55 104.05 73.91 109.4 74.77 110.05 80.55 107.26 80.55" style="fill:#252117"/><polygon points="116.04 77.77 111.33 72.84 109.4 74.77 110.05 80.55 116.04 77.77" style="fill:#403b31"/><polygon points="116.04 77.77 114.11 69.95 112.59 68.13 111.33 72.84 116.04 77.77" style="fill:#1e1b16"/><polygon points="104.05 73.91 97.1 67.74 97.1 64.07 99.77 65.03 104.05 73.91" style="fill:#23201a"/><polygon points="104.05 73.91 97.1 76.25 98.06 82.26 100.31 82.26 107.26 80.55 104.05 73.91" style="fill:#030409"/><polygon points="111.33 72.84 97.1 55.4 97.1 64.07 99.77 65.03 104.05 73.91 109.4 74.77 111.33 72.84" style="fill:#716856"/><polygon points="111.33 72.84 112.59 68.13 97.1 55.4 111.33 72.84" style="fill:#a3b448"/><polygon points="114.11 62.46 97.1 55.4 112.59 68.13 114.11 62.46" style="fill:#1d1814"/><polygon points="114.11 62.46 113.15 60.32 103.84 54.33 97.1 55.4 114.11 62.46" style="fill:#262118"/><circle cx="103.75" cy="94.42" r="4.16" transform="translate(-18.64 25.87) rotate(-13.05)" style="fill:#13110f"/><path d="M110.61,58.69s.26-4.36.26-4.36l-4.09,1.9Z" style="fill:#8c943d"/><rect x="94.71" y="56.82" width="2.39" height="19.18" transform="translate(191.81 132.83) rotate(180)" style="fill:#050408"/><polygon points="78.13 55.22 93.11 55.22 94.71 56.82 94.71 68.13 90.06 77.23 78.13 77.23 78.13 55.22" style="fill:#3e372d"/><polygon points="82.11 104.27 82.11 122.31 89.58 129.78 92.54 129.78 92.54 97.83 82.11 104.27"/><polygon points="78.13 98.58 81.55 98.58 94.23 91.52 88.93 112.6 78.13 99.4 78.13 98.58" style="fill:#2c271e"/><polygon points="88.93 112.6 82.11 110.19 82.11 104.27 88.93 112.6" style="fill:#1f1c17"/><polygon points="78.13 77.23 90.06 77.23 94.23 91.52 81.55 98.58 78.13 98.58 78.13 77.23" style="fill:#191612"/><polygon points="78.13 77.23 90.06 77.23 90.55 78.93 78.13 88.74 78.13 77.23" style="fill:#010105"/><polygon points="82.11 155.38 91.58 155.38 91.58 144.3 82.11 147.56 82.11 155.38" style="fill:#1f1c15"/><polygon points="92.54 129.78 89.61 144.3 89.58 129.78 92.54 129.78" style="fill:#1e1b13"/><rect x="82.11" y="155.38" width="12.6" height="5" transform="translate(176.82 315.75) rotate(180)" style="fill:#1f1c15"/><polygon points="109.11 93.76 109.11 100.24 103.75 103.17 103.75 95.01 104.68 95.01 109.11 93.76" style="fill:#545147"/><polygon points="99.62 95.01 99.62 99.32 103.75 103.17 103.75 95.01 99.62 95.01" style="fill:#2c2c29"/><polygon points="109.11 100.24 110.03 100.24 110.03 102.25 104.57 109.55 103.75 109.55 103.75 103.17 109.11 100.24" style="fill:#292926"/><path d="M103.75,103.17l-5.51-5.29-1.66,2.36S98,102,98,108.86l5.74.69Z" style="fill:#1d1b19"/><polygon points="108.18 104.73 107.37 114.77 104.57 116.06 102.02 116.06 98.02 108.86 104.57 109.55 108.18 104.73" style="fill:#1d1c1b"/><path d="M102.71,114.64H100.4a3.77,3.77,0,0,1-3.76-3.76v-1.42a2.88,2.88,0,0,1,2.87-2.87v1.19a1.68,1.68,0,0,0-1.68,1.68v1.42a2.58,2.58,0,0,0,2.57,2.57h2.31Z" style="fill:#a3b448"/><rect x="101.52" y="123.88" width="1.52" height="5.81" style="fill:#323534"/><rect x="103.39" y="123.88" width="0.54" height="5.81" style="fill:#323534"/><polygon points="99.31 127.77 102.71 127.77 102.71 132.06 100.83 132.06 100.83 138.85 100.3 138.85 97.2 131.4 99.31 127.77" style="fill:#010105"/><polygon points="106.09 127.77 102.69 127.77 102.69 132.06 104.57 132.06 104.57 138.85 105.1 138.85 108.2 131.4 106.09 127.77" style="fill:#403b2e"/><polygon points="99.61 119.19 105.74 119.19 104.62 125.19 100.2 125.19 99.61 119.19" style="fill:#a1a734"/><polygon points="93.16 55.22 83.58 50.78 83.58 55.22 93.16 55.22" style="fill:#a3b448"/><path d="M78.13,38.48h2.5a4.06,4.06,0,0,1,4.06,4.06V55.29H78.13Z" style="fill:#191610"/><polygon points="91.92 83.62 78.13 90.26 78.13 88.74 90.55 78.93 91.92 83.62" style="fill:#544c40"/><polygon points="94.23 91.52 92.98 96.47 82.11 101.3 79.68 101.3 78.13 99.4 78.13 98.58 81.55 98.58 94.23 91.52" style="fill:#544c3f"/><polygon points="88.93 112.6 88.93 114.64 82.11 112.97 82.11 110.19 88.93 112.6" style="fill:#97a046"/><polygon points="89.58 129.78 89.58 133.94 82.11 126.13 82.11 122.31 89.58 129.78" style="fill:#97a046"/><polygon points="91.58 144.3 89.58 142.07 82.11 144.3 82.11 147.56 91.58 144.3" style="fill:#90973d"/><polygon points="88.93 114.64 92.54 112.42 92.54 99.09 88.93 112.6 88.93 114.64" style="fill:#616428"/><polygon points="94.71 61.76 79.25 77.22 78.13 77.22 78.13 73.16 94.59 56.7 94.71 61.76" style="fill:#97a03e"/><polygon points="88.37 55.22 88.37 58.69 78.1 68.96 78.1 55.29 88.37 55.22" style="fill:#5a5043"/><polygon points="78.11 66.88 74.72 61.68 75.72 57.3 78.11 57.3 78.11 66.88" style="fill:#111514"/><polygon points="78.1 66.88 81.49 61.68 80.48 57.3 78.1 57.3 78.1 66.88"/><rect x="75.35" y="42.42" width="1.26" height="4.76" style="fill:#716856"/><rect x="79.51" y="42.42" width="1.26" height="4.76" style="fill:#716856"/><rect x="78.18" y="49.95" width="6.51" height="2.49" style="fill:#97a03e"/><rect x="71.67" y="49.95" width="6.51" height="2.49" style="fill:#a3b448"/></g></g></svg>