<svg xmlns="http://www.w3.org/2000/svg" xmlns:xlink="http://www.w3.org/1999/xlink" viewBox="0 0 148.25 207.55"><defs><clipPath id="clip-path"><rect width="148.25" height="207.55" style="fill:none"/></clipPath><linearGradient id="Degradado_sin_nombre_5" x1="-14.83" y1="14.83" x2="163.07" y2="192.72" gradientUnits="userSpaceOnUse"><stop offset="0" stop-color="#fef201"/><stop offset="1" stop-color="#ff1443"/></linearGradient></defs><title>Asset 168</title><g style="isolation:isolate"><g id="Layer_2" data-name="Layer 2"><g id="Layer_3" data-name="Layer 3"><g style="clip-path:url(#clip-path)"><rect width="148.25" height="207.55" style="fill:url(#Degradado_sin_nombre_5)"/><g style="opacity:0.46;mix-blend-mode:soft-light"><circle cx="4.8" cy="8.78" r="1" style="fill:#fef201"/><circle cx="4.8" cy="21.82" r="1" style="fill:#fef201"/><circle cx="4.8" cy="34.87" r="1" style="fill:#fef201"/><circle cx="4.8" cy="47.91" r="1" style="fill:#fef201"/><circle cx="4.8" cy="60.95" r="1" style="fill:#fef201"/><circle cx="4.8" cy="74" r="1" style="fill:#fef201"/><circle cx="4.8" cy="87.04" r="1" style="fill:#fef201"/><circle cx="4.8" cy="100.09" r="1" style="fill:#fef201"/><circle cx="4.8" cy="113.13" r="1" style="fill:#fef201"/><circle cx="4.8" cy="126.18" r="1" style="fill:#fef201"/><circle cx="4.8" cy="139.22" r="1" style="fill:#fef201"/><circle cx="4.8" cy="152.26" r="1" style="fill:#fef201"/><circle cx="4.8" cy="165.31" r="1" style="fill:#fef201"/><circle cx="4.8" cy="178.35" r="1" style="fill:#fef201"/><circle cx="4.8" cy="191.4" r="1" style="fill:#fef201"/><circle cx="4.8" cy="204.44" r="1" style="fill:#fef201"/><path d="M12.15,4.11a1,1,0,1,0,0-2,1,1,0,0,0-1,1A1,1,0,0,0,12.15,4.11Z" style="fill:#fef201"/><path d="M12.18,15.15a1,1,0,1,0,1,1A1,1,0,0,0,12.18,15.15Z" style="fill:#fef201"/><path d="M12.23,28.2a1,1,0,1,0,1,1A1,1,0,0,0,12.23,28.2Z" style="fill:#fef201"/><path d="M12.27,41.24a1,1,0,1,0,0,2,1,1,0,0,0,0-2Z" style="fill:#fef201"/><path d="M12.31,54.28a1,1,0,0,0-1,1,1,1,0,0,0,1,1,1,1,0,1,0,0-2Z" style="fill:#fef201"/><path d="M12.36,67.33a1,1,0,1,0,1,1A1,1,0,0,0,12.36,67.33Z" style="fill:#fef201"/><path d="M12.4,80.37a1,1,0,0,0-1,1,1,1,0,0,0,2,0A1,1,0,0,0,12.4,80.37Z" style="fill:#fef201"/><path d="M12.44,93.42a1,1,0,1,0,0,2,1,1,0,0,0,0-2Z" style="fill:#fef201"/><path d="M12.48,106.46a1,1,0,0,0,0,2,1,1,0,1,0,0-2Z" style="fill:#fef201"/><path d="M12.53,119.51a1,1,0,1,0,0,2,1,1,0,0,0,1-1A1,1,0,0,0,12.53,119.51Z" style="fill:#fef201"/><path d="M12.57,132.55a1,1,0,1,0,1,1A1,1,0,0,0,12.57,132.55Z" style="fill:#fef201"/><path d="M12.61,145.6a1,1,0,0,0-1,1,1,1,0,0,0,1,1,1,1,0,0,0,1-1A1,1,0,0,0,12.61,145.6Z" style="fill:#fef201"/><path d="M12.65,158.64a1,1,0,1,0,1,1A1,1,0,0,0,12.65,158.64Z" style="fill:#fef201"/><path d="M12.7,171.68a1,1,0,0,0-1,1,1,1,0,0,0,2,0A1,1,0,0,0,12.7,171.68Z" style="fill:#fef201"/><path d="M12.74,184.73a1,1,0,1,0,1,1A1,1,0,0,0,12.74,184.73Z" style="fill:#fef201"/><path d="M12.78,197.77a1,1,0,1,0,0,2,1,1,0,0,0,1-1A1,1,0,0,0,12.78,197.77Z" style="fill:#fef201"/><circle cx="21.13" cy="8.78" r="1" style="fill:#fef201"/><circle cx="21.13" cy="21.82" r="1" style="fill:#fef201"/><circle cx="21.13" cy="34.87" r="1" style="fill:#fef201"/><circle cx="21.13" cy="47.91" r="1" style="fill:#fef201"/><circle cx="21.13" cy="60.95" r="1" style="fill:#fef201"/><circle cx="21.13" cy="74" r="1" style="fill:#fef201"/><circle cx="21.13" cy="87.04" r="1" style="fill:#fef201"/><circle cx="21.13" cy="100.09" r="1" style="fill:#fef201"/><circle cx="21.13" cy="113.13" r="1" style="fill:#fef201"/><circle cx="21.13" cy="126.18" r="1" style="fill:#fef201"/><circle cx="21.13" cy="139.22" r="1" style="fill:#fef201"/><circle cx="21.13" cy="152.26" r="1" style="fill:#fef201"/><circle cx="21.13" cy="165.31" r="1" style="fill:#fef201"/><circle cx="21.13" cy="178.35" r="1" style="fill:#fef201"/><circle cx="21.13" cy="191.4" r="1" style="fill:#fef201"/><circle cx="21.13" cy="204.44" r="1" style="fill:#fef201"/><path d="M28.48,4.11a1,1,0,0,0,1-1,1,1,0,1,0-1,1Z" style="fill:#fef201"/><path d="M28.52,15.15a1,1,0,0,0-1,1,1,1,0,1,0,1-1Z" style="fill:#fef201"/><path d="M28.56,28.2a1,1,0,0,0-1,1,1,1,0,0,0,1,1,1,1,0,0,0,0-2Z" style="fill:#fef201"/><path d="M28.6,41.24a1,1,0,0,0,0,2,1,1,0,1,0,0-2Z" style="fill:#fef201"/><path d="M28.65,54.28a1,1,0,0,0-1,1,1,1,0,0,0,1,1,1,1,0,1,0,0-2Z" style="fill:#fef201"/><path d="M28.69,67.33a1,1,0,1,0,1,1A1,1,0,0,0,28.69,67.33Z" style="fill:#fef201"/><path d="M28.73,80.37a1,1,0,1,0,0,2,1,1,0,0,0,1-1A1,1,0,0,0,28.73,80.37Z" style="fill:#fef201"/><path d="M28.77,93.42a1,1,0,0,0,0,2,1,1,0,1,0,0-2Z" style="fill:#fef201"/><path d="M28.82,106.46a1,1,0,1,0,1,1A1,1,0,0,0,28.82,106.46Z" style="fill:#fef201"/><path d="M28.86,119.51a1,1,0,1,0,1,1A1,1,0,0,0,28.86,119.51Z" style="fill:#fef201"/><path d="M28.9,132.55a1,1,0,1,0,1,1A1,1,0,0,0,28.9,132.55Z" style="fill:#fef201"/><path d="M28.94,145.6a1,1,0,0,0,0,2,1,1,0,0,0,1-1A1,1,0,0,0,28.94,145.6Z" style="fill:#fef201"/><path d="M29,158.64a1,1,0,1,0,1,1A1,1,0,0,0,29,158.64Z" style="fill:#fef201"/><path d="M29,171.68a1,1,0,0,0-1,1,1,1,0,0,0,2,0A1,1,0,0,0,29,171.68Z" style="fill:#fef201"/><path d="M29.07,184.73a1,1,0,0,0-1,1,1,1,0,1,0,1-1Z" style="fill:#fef201"/><path d="M29.11,197.77a1,1,0,1,0,1,1A1,1,0,0,0,29.11,197.77Z" style="fill:#fef201"/><circle cx="37.47" cy="8.78" r="1" style="fill:#fef201"/><circle cx="37.47" cy="21.82" r="1" style="fill:#fef201"/><circle cx="37.47" cy="34.87" r="1" style="fill:#fef201"/><circle cx="37.47" cy="47.91" r="1" style="fill:#fef201"/><circle cx="37.47" cy="60.95" r="1" style="fill:#fef201"/><circle cx="37.47" cy="74" r="1" style="fill:#fef201"/><circle cx="37.47" cy="87.04" r="1" style="fill:#fef201"/><circle cx="37.47" cy="100.09" r="1" style="fill:#fef201"/><circle cx="37.47" cy="113.13" r="1" style="fill:#fef201"/><circle cx="37.47" cy="126.18" r="1" style="fill:#fef201"/><circle cx="37.47" cy="139.22" r="1" style="fill:#fef201"/><circle cx="37.47" cy="152.26" r="1" style="fill:#fef201"/><circle cx="37.47" cy="165.31" r="1" style="fill:#fef201"/><circle cx="37.47" cy="178.35" r="1" style="fill:#fef201"/><circle cx="37.47" cy="191.4" r="1" style="fill:#fef201"/><circle cx="37.47" cy="204.44" r="1" style="fill:#fef201"/><path d="M44.82,4.11a1,1,0,1,0-1-1A1,1,0,0,0,44.82,4.11Z" style="fill:#fef201"/><path d="M44.85,15.15a1,1,0,1,0,0,2,1,1,0,0,0,1-1A1,1,0,0,0,44.85,15.15Z" style="fill:#fef201"/><path d="M44.89,28.2a1,1,0,0,0,0,2,1,1,0,0,0,1-1A1,1,0,0,0,44.89,28.2Z" style="fill:#fef201"/><path d="M44.94,41.24a1,1,0,1,0,1,1A1,1,0,0,0,44.94,41.24Z" style="fill:#fef201"/><path d="M45,54.28a1,1,0,0,0-1,1,1,1,0,0,0,2,0A1,1,0,0,0,45,54.28Z" style="fill:#fef201"/><path d="M45,67.33a1,1,0,0,0-1,1,1,1,0,1,0,1-1Z" style="fill:#fef201"/><path d="M45.06,80.37a1,1,0,0,0-1,1,1,1,0,0,0,1,1,1,1,0,1,0,0-2Z" style="fill:#fef201"/><path d="M45.11,93.42a1,1,0,1,0,1,1A1,1,0,0,0,45.11,93.42Z" style="fill:#fef201"/><path d="M45.15,106.46a1,1,0,1,0,0,2,1,1,0,0,0,0-2Z" style="fill:#fef201"/><path d="M45.19,119.51a1,1,0,0,0-1,1,1,1,0,1,0,1-1Z" style="fill:#fef201"/><path d="M45.24,132.55a1,1,0,1,0,1,1A1,1,0,0,0,45.24,132.55Z" style="fill:#fef201"/><path d="M45.28,145.6a1,1,0,1,0,1,1A1,1,0,0,0,45.28,145.6Z" style="fill:#fef201"/><path d="M45.32,158.64a1,1,0,1,0,0,2,1,1,0,0,0,0-2Z" style="fill:#fef201"/><path d="M45.36,171.68a1,1,0,0,0-1,1,1,1,0,0,0,1,1,1,1,0,1,0,0-2Z" style="fill:#fef201"/><path d="M45.41,184.73a1,1,0,1,0,1,1A1,1,0,0,0,45.41,184.73Z" style="fill:#fef201"/><path d="M45.45,197.77a1,1,0,0,0-1,1,1,1,0,1,0,1-1Z" style="fill:#fef201"/><circle cx="53.8" cy="8.78" r="1" style="fill:#fef201"/><circle cx="53.8" cy="21.82" r="1" style="fill:#fef201"/><circle cx="53.8" cy="34.87" r="1" style="fill:#fef201"/><circle cx="53.8" cy="47.91" r="1" style="fill:#fef201"/><circle cx="53.8" cy="60.95" r="1" style="fill:#fef201"/><circle cx="53.8" cy="74" r="1" style="fill:#fef201"/><circle cx="53.8" cy="87.04" r="1" style="fill:#fef201"/><circle cx="53.8" cy="100.09" r="1" style="fill:#fef201"/><circle cx="53.8" cy="113.13" r="1" style="fill:#fef201"/><circle cx="53.8" cy="126.18" r="1" style="fill:#fef201"/><circle cx="53.8" cy="139.22" r="1" style="fill:#fef201"/><circle cx="53.8" cy="152.26" r="1" style="fill:#fef201"/><circle cx="53.8" cy="165.31" r="1" style="fill:#fef201"/><circle cx="53.8" cy="178.35" r="1" style="fill:#fef201"/><circle cx="53.8" cy="191.4" r="1" style="fill:#fef201"/><circle cx="53.8" cy="204.44" r="1" style="fill:#fef201"/><path d="M61.15,4.11a1,1,0,1,0,0-2,1,1,0,0,0-1,1A1,1,0,0,0,61.15,4.11Z" style="fill:#fef201"/><path d="M61.18,15.15a1,1,0,1,0,1,1A1,1,0,0,0,61.18,15.15Z" style="fill:#fef201"/><path d="M61.23,28.2a1,1,0,1,0,1,1A1,1,0,0,0,61.23,28.2Z" style="fill:#fef201"/><path d="M61.27,41.24a1,1,0,1,0,0,2,1,1,0,0,0,0-2Z" style="fill:#fef201"/><path d="M61.31,54.28a1,1,0,0,0-1,1,1,1,0,0,0,1,1,1,1,0,1,0,0-2Z" style="fill:#fef201"/><path d="M61.36,67.33a1,1,0,1,0,1,1A1,1,0,0,0,61.36,67.33Z" style="fill:#fef201"/><path d="M61.4,80.37a1,1,0,0,0-1,1,1,1,0,0,0,2,0A1,1,0,0,0,61.4,80.37Z" style="fill:#fef201"/><path d="M61.44,93.42a1,1,0,1,0,0,2,1,1,0,0,0,0-2Z" style="fill:#fef201"/><path d="M61.48,106.46a1,1,0,0,0,0,2,1,1,0,1,0,0-2Z" style="fill:#fef201"/><path d="M61.53,119.51a1,1,0,0,0,0,2,1,1,0,0,0,1-1A1,1,0,0,0,61.53,119.51Z" style="fill:#fef201"/><path d="M61.57,132.55a1,1,0,1,0,1,1A1,1,0,0,0,61.57,132.55Z" style="fill:#fef201"/><path d="M61.61,145.6a1,1,0,0,0-1,1,1,1,0,0,0,1,1,1,1,0,0,0,1-1A1,1,0,0,0,61.61,145.6Z" style="fill:#fef201"/><path d="M61.65,158.64a1,1,0,1,0,1,1A1,1,0,0,0,61.65,158.64Z" style="fill:#fef201"/><path d="M61.7,171.68a1,1,0,0,0-1,1,1,1,0,0,0,2,0A1,1,0,0,0,61.7,171.68Z" style="fill:#fef201"/><path d="M61.74,184.73a1,1,0,1,0,1,1A1,1,0,0,0,61.74,184.73Z" style="fill:#fef201"/><path d="M61.78,197.77a1,1,0,1,0,0,2,1,1,0,0,0,1-1A1,1,0,0,0,61.78,197.77Z" style="fill:#fef201"/><circle cx="70.13" cy="8.78" r="1" style="fill:#fef201"/><circle cx="70.13" cy="21.82" r="1" style="fill:#fef201"/><circle cx="70.13" cy="34.87" r="1" style="fill:#fef201"/><circle cx="70.13" cy="47.91" r="1" style="fill:#fef201"/><circle cx="70.13" cy="60.95" r="1" style="fill:#fef201"/><circle cx="70.13" cy="74" r="1" style="fill:#fef201"/><circle cx="70.13" cy="87.04" r="1" style="fill:#fef201"/><circle cx="70.13" cy="100.09" r="1" style="fill:#fef201"/><circle cx="70.13" cy="113.13" r="1" style="fill:#fef201"/><circle cx="70.13" cy="126.18" r="1" style="fill:#fef201"/><circle cx="70.13" cy="139.22" r="1" style="fill:#fef201"/><circle cx="70.13" cy="152.26" r="1" style="fill:#fef201"/><circle cx="70.13" cy="165.31" r="1" style="fill:#fef201"/><circle cx="70.13" cy="178.35" r="1" style="fill:#fef201"/><circle cx="70.13" cy="191.4" r="1" style="fill:#fef201"/><circle cx="70.13" cy="204.44" r="1" style="fill:#fef201"/><path d="M77.48,4.11a1,1,0,0,0,1-1,1,1,0,1,0-1,1Z" style="fill:#fef201"/><path d="M77.52,15.15a1,1,0,0,0-1,1,1,1,0,1,0,1-1Z" style="fill:#fef201"/><path d="M77.56,28.2a1,1,0,0,0-1,1,1,1,0,0,0,1,1,1,1,0,0,0,0-2Z" style="fill:#fef201"/><path d="M77.6,41.24a1,1,0,0,0,0,2,1,1,0,1,0,0-2Z" style="fill:#fef201"/><path d="M77.65,54.28a1,1,0,0,0-1,1,1,1,0,0,0,1,1,1,1,0,0,0,0-2Z" style="fill:#fef201"/><path d="M77.69,67.33a1,1,0,1,0,1,1A1,1,0,0,0,77.69,67.33Z" style="fill:#fef201"/><path d="M77.73,80.37a1,1,0,1,0,0,2,1,1,0,0,0,1-1A1,1,0,0,0,77.73,80.37Z" style="fill:#fef201"/><path d="M77.77,93.42a1,1,0,0,0,0,2,1,1,0,1,0,0-2Z" style="fill:#fef201"/><path d="M77.82,106.46a1,1,0,1,0,1,1A1,1,0,0,0,77.82,106.46Z" style="fill:#fef201"/><path d="M77.86,119.51a1,1,0,1,0,1,1A1,1,0,0,0,77.86,119.51Z" style="fill:#fef201"/><path d="M77.9,132.55a1,1,0,1,0,1,1A1,1,0,0,0,77.9,132.55Z" style="fill:#fef201"/><path d="M77.94,145.6a1,1,0,0,0,0,2,1,1,0,0,0,1-1A1,1,0,0,0,77.94,145.6Z" style="fill:#fef201"/><path d="M78,158.64a1,1,0,1,0,1,1A1,1,0,0,0,78,158.64Z" style="fill:#fef201"/><path d="M78,171.68a1,1,0,0,0-1,1,1,1,0,0,0,2,0A1,1,0,0,0,78,171.68Z" style="fill:#fef201"/><path d="M78.07,184.73a1,1,0,0,0-1,1,1,1,0,1,0,1-1Z" style="fill:#fef201"/><path d="M78.11,197.77a1,1,0,1,0,1,1A1,1,0,0,0,78.11,197.77Z" style="fill:#fef201"/><circle cx="86.47" cy="8.78" r="1" style="fill:#fef201"/><circle cx="86.47" cy="21.82" r="1" style="fill:#fef201"/><circle cx="86.47" cy="34.87" r="1" style="fill:#fef201"/><circle cx="86.47" cy="47.91" r="1" style="fill:#fef201"/><circle cx="86.47" cy="60.95" r="1" style="fill:#fef201"/><circle cx="86.47" cy="74" r="1" style="fill:#fef201"/><circle cx="86.47" cy="87.04" r="1" style="fill:#fef201"/><circle cx="86.47" cy="100.09" r="1" style="fill:#fef201"/><circle cx="86.47" cy="113.13" r="1" style="fill:#fef201"/><circle cx="86.47" cy="126.18" r="1" style="fill:#fef201"/><circle cx="86.47" cy="139.22" r="1" style="fill:#fef201"/><circle cx="86.47" cy="152.26" r="1" style="fill:#fef201"/><circle cx="86.47" cy="165.31" r="1" style="fill:#fef201"/><circle cx="86.47" cy="178.35" r="1" style="fill:#fef201"/><circle cx="86.47" cy="191.4" r="1" style="fill:#fef201"/><circle cx="86.47" cy="204.44" r="1" style="fill:#fef201"/><path d="M93.82,4.11a1,1,0,1,0-1-1A1,1,0,0,0,93.82,4.11Z" style="fill:#fef201"/><path d="M93.85,15.15a1,1,0,1,0,0,2,1,1,0,0,0,1-1A1,1,0,0,0,93.85,15.15Z" style="fill:#fef201"/><path d="M93.89,28.2a1,1,0,0,0,0,2,1,1,0,0,0,1-1A1,1,0,0,0,93.89,28.2Z" style="fill:#fef201"/><path d="M93.94,41.24a1,1,0,1,0,1,1A1,1,0,0,0,93.94,41.24Z" style="fill:#fef201"/><path d="M94,54.28a1,1,0,0,0-1,1,1,1,0,0,0,2,0A1,1,0,0,0,94,54.28Z" style="fill:#fef201"/><path d="M94,67.33a1,1,0,0,0-1,1,1,1,0,1,0,1-1Z" style="fill:#fef201"/><path d="M94.06,80.37a1,1,0,0,0-1,1,1,1,0,0,0,1,1,1,1,0,1,0,0-2Z" style="fill:#fef201"/><path d="M94.11,93.42a1,1,0,1,0,1,1A1,1,0,0,0,94.11,93.42Z" style="fill:#fef201"/><path d="M94.15,106.46a1,1,0,1,0,0,2,1,1,0,0,0,0-2Z" style="fill:#fef201"/><path d="M94.19,119.51a1,1,0,0,0-1,1,1,1,0,1,0,1-1Z" style="fill:#fef201"/><path d="M94.24,132.55a1,1,0,1,0,1,1A1,1,0,0,0,94.24,132.55Z" style="fill:#fef201"/><path d="M94.28,145.6a1,1,0,1,0,1,1A1,1,0,0,0,94.28,145.6Z" style="fill:#fef201"/><path d="M94.32,158.64a1,1,0,1,0,0,2,1,1,0,0,0,0-2Z" style="fill:#fef201"/><path d="M94.36,171.68a1,1,0,0,0-1,1,1,1,0,0,0,1,1,1,1,0,1,0,0-2Z" style="fill:#fef201"/><path d="M94.41,184.73a1,1,0,1,0,1,1A1,1,0,0,0,94.41,184.73Z" style="fill:#fef201"/><path d="M94.45,197.77a1,1,0,0,0-1,1,1,1,0,1,0,1-1Z" style="fill:#fef201"/><circle cx="102.8" cy="8.78" r="1" style="fill:#fef201"/><circle cx="102.8" cy="21.82" r="1" style="fill:#fef201"/><circle cx="102.8" cy="34.87" r="1" style="fill:#fef201"/><circle cx="102.8" cy="47.91" r="1" style="fill:#fef201"/><circle cx="102.8" cy="60.95" r="1" style="fill:#fef201"/><circle cx="102.8" cy="74" r="1" style="fill:#fef201"/><circle cx="102.8" cy="87.04" r="1" style="fill:#fef201"/><circle cx="102.8" cy="100.09" r="1" style="fill:#fef201"/><circle cx="102.8" cy="113.13" r="1" style="fill:#fef201"/><circle cx="102.8" cy="126.18" r="1" style="fill:#fef201"/><circle cx="102.8" cy="139.22" r="1" style="fill:#fef201"/><circle cx="102.8" cy="152.26" r="1" style="fill:#fef201"/><circle cx="102.8" cy="165.31" r="1" style="fill:#fef201"/><circle cx="102.8" cy="178.35" r="1" style="fill:#fef201"/><circle cx="102.8" cy="191.4" r="1" style="fill:#fef201"/><circle cx="102.8" cy="204.44" r="1" style="fill:#fef201"/><path d="M110.15,4.11a1,1,0,1,0,0-2,1,1,0,0,0-1,1A1,1,0,0,0,110.15,4.11Z" style="fill:#fef201"/><path d="M110.18,15.15a1,1,0,1,0,1,1A1,1,0,0,0,110.18,15.15Z" style="fill:#fef201"/><path d="M110.23,28.2a1,1,0,1,0,1,1A1,1,0,0,0,110.23,28.2Z" style="fill:#fef201"/><path d="M110.27,41.24a1,1,0,1,0,0,2,1,1,0,0,0,0-2Z" style="fill:#fef201"/><path d="M110.31,54.28a1,1,0,0,0-1,1,1,1,0,0,0,1,1,1,1,0,1,0,0-2Z" style="fill:#fef201"/><path d="M110.36,67.33a1,1,0,1,0,1,1A1,1,0,0,0,110.36,67.33Z" style="fill:#fef201"/><path d="M110.4,80.37a1,1,0,0,0-1,1,1,1,0,0,0,2,0A1,1,0,0,0,110.4,80.37Z" style="fill:#fef201"/><path d="M110.44,93.42a1,1,0,1,0,0,2,1,1,0,0,0,0-2Z" style="fill:#fef201"/><path d="M110.48,106.46a1,1,0,0,0,0,2,1,1,0,1,0,0-2Z" style="fill:#fef201"/><path d="M110.53,119.51a1,1,0,0,0,0,2,1,1,0,0,0,1-1A1,1,0,0,0,110.53,119.51Z" style="fill:#fef201"/><path d="M110.57,132.55a1,1,0,1,0,1,1A1,1,0,0,0,110.57,132.55Z" style="fill:#fef201"/><path d="M110.61,145.6a1,1,0,0,0-1,1,1,1,0,0,0,1,1,1,1,0,0,0,1-1A1,1,0,0,0,110.61,145.6Z" style="fill:#fef201"/><path d="M110.65,158.64a1,1,0,1,0,1,1A1,1,0,0,0,110.65,158.64Z" style="fill:#fef201"/><path d="M110.7,171.68a1,1,0,0,0-1,1,1,1,0,0,0,2,0A1,1,0,0,0,110.7,171.68Z" style="fill:#fef201"/><path d="M110.74,184.73a1,1,0,1,0,1,1A1,1,0,0,0,110.74,184.73Z" style="fill:#fef201"/><path d="M110.78,197.77a1,1,0,1,0,0,2,1,1,0,0,0,1-1A1,1,0,0,0,110.78,197.77Z" style="fill:#fef201"/><circle cx="119.13" cy="8.78" r="1" style="fill:#fef201"/><circle cx="119.13" cy="21.82" r="1" style="fill:#fef201"/><circle cx="119.13" cy="34.87" r="1" style="fill:#fef201"/><circle cx="119.13" cy="47.91" r="1" style="fill:#fef201"/><circle cx="119.13" cy="60.95" r="1" style="fill:#fef201"/><circle cx="119.13" cy="74" r="1" style="fill:#fef201"/><circle cx="119.13" cy="87.04" r="1" style="fill:#fef201"/><circle cx="119.13" cy="100.09" r="1" style="fill:#fef201"/><circle cx="119.13" cy="113.13" r="1" style="fill:#fef201"/><circle cx="119.13" cy="126.18" r="1" style="fill:#fef201"/><circle cx="119.13" cy="139.22" r="1" style="fill:#fef201"/><circle cx="119.13" cy="152.26" r="1" style="fill:#fef201"/><circle cx="119.13" cy="165.31" r="1" style="fill:#fef201"/><circle cx="119.13" cy="178.35" r="1" style="fill:#fef201"/><circle cx="119.13" cy="191.4" r="1" style="fill:#fef201"/><circle cx="119.13" cy="204.44" r="1" style="fill:#fef201"/><path d="M126.48,4.11a1,1,0,0,0,1-1,1,1,0,1,0-1,1Z" style="fill:#fef201"/><path d="M126.52,15.15a1,1,0,0,0-1,1,1,1,0,1,0,1-1Z" style="fill:#fef201"/><path d="M126.56,28.2a1,1,0,0,0-1,1,1,1,0,0,0,1,1,1,1,0,0,0,0-2Z" style="fill:#fef201"/><path d="M126.6,41.24a1,1,0,0,0,0,2,1,1,0,1,0,0-2Z" style="fill:#fef201"/><path d="M126.65,54.28a1,1,0,0,0-1,1,1,1,0,0,0,1,1,1,1,0,0,0,0-2Z" style="fill:#fef201"/><path d="M126.69,67.33a1,1,0,1,0,1,1A1,1,0,0,0,126.69,67.33Z" style="fill:#fef201"/><path d="M126.73,80.37a1,1,0,1,0,0,2,1,1,0,0,0,1-1A1,1,0,0,0,126.73,80.37Z" style="fill:#fef201"/><path d="M126.77,93.42a1,1,0,0,0,0,2,1,1,0,1,0,0-2Z" style="fill:#fef201"/><path d="M126.82,106.46a1,1,0,1,0,1,1A1,1,0,0,0,126.82,106.46Z" style="fill:#fef201"/><path d="M126.86,119.51a1,1,0,1,0,1,1A1,1,0,0,0,126.86,119.51Z" style="fill:#fef201"/><path d="M126.9,132.55a1,1,0,1,0,1,1A1,1,0,0,0,126.9,132.55Z" style="fill:#fef201"/><path d="M126.94,145.6a1,1,0,0,0,0,2,1,1,0,0,0,1-1A1,1,0,0,0,126.94,145.6Z" style="fill:#fef201"/><path d="M127,158.64a1,1,0,1,0,1,1A1,1,0,0,0,127,158.64Z" style="fill:#fef201"/><path d="M127,171.68a1,1,0,0,0-1,1,1,1,0,0,0,2,0A1,1,0,0,0,127,171.68Z" style="fill:#fef201"/><path d="M127.07,184.73a1,1,0,0,0-1,1,1,1,0,1,0,1-1Z" style="fill:#fef201"/><path d="M127.11,197.77a1,1,0,1,0,1,1A1,1,0,0,0,127.11,197.77Z" style="fill:#fef201"/><circle cx="135.47" cy="8.78" r="1" style="fill:#fef201"/><circle cx="135.47" cy="21.82" r="1" style="fill:#fef201"/><circle cx="135.47" cy="34.87" r="1" style="fill:#fef201"/><circle cx="135.47" cy="47.91" r="1" style="fill:#fef201"/><circle cx="135.47" cy="60.95" r="1" style="fill:#fef201"/><circle cx="135.47" cy="74" r="1" style="fill:#fef201"/><circle cx="135.47" cy="87.04" r="1" style="fill:#fef201"/><circle cx="135.47" cy="100.09" r="1" style="fill:#fef201"/><circle cx="135.47" cy="113.13" r="1" style="fill:#fef201"/><circle cx="135.47" cy="126.18" r="1" style="fill:#fef201"/><circle cx="135.47" cy="139.22" r="1" style="fill:#fef201"/><circle cx="135.47" cy="152.26" r="1" style="fill:#fef201"/><circle cx="135.47" cy="165.31" r="1" style="fill:#fef201"/><circle cx="135.47" cy="178.35" r="1" style="fill:#fef201"/><circle cx="135.47" cy="191.4" r="1" style="fill:#fef201"/><circle cx="135.47" cy="204.44" r="1" style="fill:#fef201"/><path d="M142.82,4.11a1,1,0,1,0-1-1A1,1,0,0,0,142.82,4.11Z" style="fill:#fef201"/><path d="M142.85,15.15a1,1,0,1,0,0,2,1,1,0,0,0,1-1A1,1,0,0,0,142.85,15.15Z" style="fill:#fef201"/><path d="M142.89,28.2a1,1,0,0,0,0,2,1,1,0,0,0,1-1A1,1,0,0,0,142.89,28.2Z" style="fill:#fef201"/><path d="M142.94,41.24a1,1,0,1,0,1,1A1,1,0,0,0,142.94,41.24Z" style="fill:#fef201"/><path d="M143,54.28a1,1,0,0,0-1,1,1,1,0,0,0,2,0A1,1,0,0,0,143,54.28Z" style="fill:#fef201"/><path d="M143,67.33a1,1,0,0,0-1,1,1,1,0,1,0,1-1Z" style="fill:#fef201"/><path d="M143.06,80.37a1,1,0,0,0-1,1,1,1,0,0,0,1,1,1,1,0,1,0,0-2Z" style="fill:#fef201"/><path d="M143.11,93.42a1,1,0,1,0,1,1A1,1,0,0,0,143.11,93.42Z" style="fill:#fef201"/><path d="M143.15,106.46a1,1,0,1,0,0,2,1,1,0,0,0,0-2Z" style="fill:#fef201"/><path d="M143.19,119.51a1,1,0,0,0-1,1,1,1,0,1,0,1-1Z" style="fill:#fef201"/><path d="M143.24,132.55a1,1,0,1,0,1,1A1,1,0,0,0,143.24,132.55Z" style="fill:#fef201"/><path d="M143.28,145.6a1,1,0,1,0,1,1A1,1,0,0,0,143.28,145.6Z" style="fill:#fef201"/><path d="M143.32,158.64a1,1,0,1,0,0,2,1,1,0,0,0,0-2Z" style="fill:#fef201"/><path d="M143.36,171.68a1,1,0,0,0-1,1,1,1,0,0,0,1,1,1,1,0,1,0,0-2Z" style="fill:#fef201"/><path d="M143.41,184.73a1,1,0,1,0,1,1A1,1,0,0,0,143.41,184.73Z" style="fill:#fef201"/><path d="M143.45,197.77a1,1,0,0,0-1,1,1,1,0,1,0,1-1Z" style="fill:#fef201"/></g></g><g style="opacity:0.45"><polygon points="80.36 40.2 73.51 40.2 8.1 105.61 8.1 112.45 80.36 40.2" style="fill:#00158e;opacity:0.2"/><polygon points="99.61 40.2 92.76 40.2 8.1 124.85 8.1 131.7 99.61 40.2" style="fill:#00158e;opacity:0.2"/><polygon points="61.11 40.2 54.27 40.2 8.1 86.36 8.1 93.21 61.11 40.2" style="fill:#00158e;opacity:0.2"/><polygon points="41.86 40.2 35.02 40.2 8.1 67.11 8.1 73.96 41.86 40.2" style="fill:#00158e;opacity:0.2"/><polygon points="22.62 40.2 15.77 40.2 8.1 47.86 8.1 54.71 22.62 40.2" style="fill:#00158e;opacity:0.2"/><path d="M108.1,40.2v3.91L11.81,140.4H8.1v30.51H138.82V40.2Zm0,100.2H95.65L108.1,128Zm0-19.3L88.8,140.4H76.4l31.7-31.7Zm0-19.25L69.56,140.4H57.15L108.1,89.45Zm0-19.25L50.31,140.4H37.91L108.1,70.2Zm0-19.24-77,77H18.66L108.1,51Z" style="fill:#00158e;opacity:0.2"/><polygon points="135.94 168.5 135.94 142.05 131.16 146.84 131.16 163.71 114.28 163.71 109.5 168.5 135.94 168.5" style="fill:#0751cf"/><rect x="137.39" y="71.65" width="2.99" height="35.67" style="fill:gold"/><rect x="137.39" y="114.49" width="2.99" height="4.98" style="fill:gold"/><rect x="26.4" y="170.08" width="48.42" height="2.39" style="fill:gold"/><polygon points="23.9 160.58 27.76 160.58 31.88 156.46 25.44 156.46 16.15 165.74 18.74 165.74 23.9 160.58" style="fill:gold"/><polygon points="32.27 160.58 36.13 160.58 40.26 156.46 33.81 156.46 24.53 165.74 27.11 165.74 32.27 160.58" style="fill:gold"/><polygon points="40.65 160.58 44.51 160.58 48.63 156.46 42.19 156.46 32.9 165.74 35.48 165.74 40.65 160.58" style="fill:gold"/><polygon points="49.02 160.58 52.88 160.58 57.01 156.46 50.56 156.46 41.28 165.74 43.86 165.74 49.02 160.58" style="fill:gold"/><polygon points="57.4 160.58 61.26 160.58 65.38 156.46 58.94 156.46 49.65 165.74 52.23 165.74 57.4 160.58" style="fill:gold"/><polygon points="65.77 160.58 69.63 160.58 73.75 156.46 67.31 156.46 58.03 165.74 60.61 165.74 65.77 160.58" style="fill:gold"/><polygon points="74.15 160.58 78.01 160.58 82.13 156.46 75.69 156.46 66.4 165.74 68.98 165.74 74.15 160.58" style="fill:gold"/><polygon points="82.52 160.58 86.38 160.58 90.5 156.46 84.06 156.46 74.77 165.74 77.36 165.74 82.52 160.58" style="fill:gold"/><path d="M125.13,35.49H110.19V31.9h14.94Zm-14.34-.6h13.75V32.5H110.79Z" style="fill:#0751cf"/><path d="M142.87,143.28h-2.59V131.93h2.59Zm-2-.59h1.39V132.52h-1.39Z" style="fill:#0751cf"/><path d="M101.82,179H84.49v-3.79h17.33Zm-16.74-.6h16.14v-2.59H85.08Z" style="fill:#0751cf"/><path d="M16.14,178.15H9.57v-2.39h6.57Zm-6-.59h5.38v-1.2H10.16Z" style="fill:gold"/><path d="M5.78,166.6H3.39V146.67H5.78ZM4,166H5.18V147.27H4Z" style="fill:gold"/><polygon points="94.75 34.58 94.75 34.43 26.95 34.43 26.95 33.06 94.6 33.06 94.6 34.58 94.75 34.58 94.75 34.43 94.75 34.58 94.9 34.58 94.9 32.76 26.65 32.76 26.65 34.73 94.9 34.73 94.9 34.58 94.75 34.58" style="fill:gold"/></g><path d="M66.59,70.27l.74-.74-5.11-5.11a3,3,0,0,1-.87-2.1v-.9a3,3,0,0,1,3-3V57.39a4,4,0,0,0-4,4v.9a4,4,0,0,0,1.18,2.84Z" style="fill:#41453e"/><path d="M84,70.34l-.74-.74,5.11-5.11a3,3,0,0,0,.87-2.1v-.9a3,3,0,0,0-3-3V57.46a4,4,0,0,1,4,4v.9a4,4,0,0,1-1.18,2.84Z" style="fill:#41453e"/><path d="M50.07,86.86v-.78h-.49A2.87,2.87,0,0,0,46.71,89V92a2.88,2.88,0,0,0,2.87,2.87v-.78A2.1,2.1,0,0,1,47.49,92V89a2.09,2.09,0,0,1,2.09-2.09Z" style="fill:#41453e"/><path d="M50.83,84.73V84H47.61a2.87,2.87,0,0,0-2.87,2.87V94a2.87,2.87,0,0,0,2.87,2.87H48v-.78h-.37A2.09,2.09,0,0,1,45.52,94V86.82a2.09,2.09,0,0,1,2.09-2.09Z" style="fill:#41453e"/><path d="M100.07,88.43v-.78h.48a2.87,2.87,0,0,1,2.87,2.87V93.6a2.87,2.87,0,0,1-2.87,2.87v-.78a2.09,2.09,0,0,0,2.09-2.09V90.52a2.09,2.09,0,0,0-2.09-2.09Z" style="fill:#41453e"/><path d="M99.3,86.3v-.78h3.23a2.88,2.88,0,0,1,2.87,2.87v7.18a2.88,2.88,0,0,1-2.87,2.87h-.37v-.78h.37a2.1,2.1,0,0,0,2.09-2.09V88.39a2.1,2.1,0,0,0-2.09-2.09Z" style="fill:#41453e"/><path d="M59,50.31V37.85a2.21,2.21,0,1,0-.5,0v13h3.88v-.49Z" style="fill:#33352e"/><path d="M93.5,35.67a2.19,2.19,0,1,0-2.42,2.18V50.31H87.7v.49h3.88v-13A2.18,2.18,0,0,0,93.5,35.67Z" style="fill:#20231f"/><polygon points="60.32 102.14 64 100.08 64 96.23 61.92 94.15 61.92 89.94 74.36 89.94 74.36 104.63 60.32 104.63 60.32 102.14" style="fill:#3a3f37"/><path d="M51.23,99.39l-3,0a3.59,3.59,0,0,1-.46,0h0l1,9.26,4.37.05.11-10.16A2.66,2.66,0,0,1,51.23,99.39Z" style="fill:#585c52"/><path d="M49.53,107.85l2.79,0a1.11,1.11,0,0,1,1.09,1.22L52.3,120.7l-2.84,0-1.05-11.6A1.11,1.11,0,0,1,49.53,107.85Z" style="fill:#3b7b3b"/><rect x="48.25" y="120.03" width="5.01" height="5.9" transform="translate(1.35 -0.55) rotate(0.63)" style="fill:#70be46"/><path d="M50.69,125.93a5.29,5.29,0,0,1,0,.8,1.4,1.4,0,0,1-.66,1.15c-.81.48-2.18,1.93-2.42,6.17a.4.4,0,0,1-.4.37h0a.73.73,0,0,1-.73-.75l.06-5.69a1.07,1.07,0,0,1,.33-.78l1.32-1.29Z" style="fill:#aeb1b0"/><path d="M50.5,125.93a3.72,3.72,0,0,0,0,.8,1.33,1.33,0,0,0,.71,1.16c.9.5,2.39,2,2.57,6.23a.42.42,0,0,0,.43.38h0a.79.79,0,0,0,.84-.73l.06-5.7a1,1,0,0,0-.35-.79L53.26,126Z" style="fill:#9a9f9a"/><rect x="61.67" y="46.94" width="4.4" height="8.03" style="fill:#3a3f37"/><rect x="70.24" y="150.64" width="1.64" height="8.72" style="fill:#565959"/><rect x="72.4" y="153.11" width="0.41" height="6.19" style="fill:#565959"/><rect x="65.82" y="169.53" width="10.53" height="2.32" style="fill:#3b7b3b"/><path d="M75.26,167.65h0A1.33,1.33,0,0,1,74,166.28v-6.69a.29.29,0,0,0-.28-.29h-5.2a.28.28,0,0,0-.28.29v6.69a1.33,1.33,0,0,1-1.3,1.37h0a.3.3,0,0,0-.28.3v1.28a.29.29,0,0,0,.28.3h8.35a.28.28,0,0,0,.28-.3V168A.29.29,0,0,0,75.26,167.65Z" style="fill:#55b648"/><rect x="69.43" y="160.28" width="3.32" height="5.26" rx="1.08" style="fill:#3b7b3b"/><rect x="66.58" y="171.85" width="8.96" height="1.68" style="fill:#68ba46"/><circle cx="71.09" cy="151.69" r="2.5" style="fill:#3d4241"/><path d="M67,81.36c0-2.59,3.3-4.7,7.38-4.7h0V72H60.31l-2.56,1.36L56.82,77l1,2.69C60.32,86.7,62,90.33,62,90.33L74.4,93V86.05h0C70.29,86.05,67,84,67,81.36Z" style="fill:#4ea547"/><path d="M74.37,75.18c-4.58,0-8.29,3.31-8.29,7.38s3.71,7.38,8.29,7.38h0V75.18Z" style="fill:#55b648"/><polygon points="64.85 68.43 67.31 65.58 68.8 65.58 68.8 60.92 71.71 63.83 74.4 63.83 74.4 71.98 65.14 71.98 64.85 68.43" style="fill:#242823"/><polygon points="65.3 127.2 65.3 131.01 67.34 134.11 74.37 134.11 74.37 128.33 69.31 122.83 65.3 127.2" style="fill:#70be46"/><path d="M53.73,91.12a.79.79,0,1,1-1.58,0,.79.79,0,1,1,1.58,0Z" style="fill:#70be46"/><path d="M55.3,84.12h2.36V74.78S57.6,72,55.79,71.54C55.79,71.54,53.84,82.84,55.3,84.12Z" style="fill:#3a3f37"/><path d="M47,79.89V77.56H46.2S45.1,69.27,51.84,69c0,0,6.79-1,3.95,10.88Z" style="fill:#439544"/><path d="M51.77,91.16A6.77,6.77,0,0,1,47,85.07V79.89s3.14-3,8.84,0l-1.3,11.27" style="fill:#70be46"/><path d="M52.11,90c-1,.89-3.11,3.14-4,4.06a1.4,1.4,0,0,0-.39,1v16.3a1.41,1.41,0,0,0,.41,1l2.46,2.46a1.41,1.41,0,0,0,1,.41h1.47a1.4,1.4,0,0,0,1.4-1.41V91.05a1.4,1.4,0,0,0-1.4-1.41h0A1.4,1.4,0,0,0,52.11,90Z" style="fill:#55b648"/><path d="M52.92,113.62a.79.79,0,1,1-.79-.79A.78.78,0,0,1,52.92,113.62Z" style="fill:#70be46"/><rect x="60.32" y="104.63" width="14.05" height="2.33" style="fill:#70be46"/><polygon points="60.32 107.17 63.04 122.79 62.52 124.17 62.52 127.2 65.3 127.2 65.86 126.6 68.35 128.33 74.37 128.33 74.37 104.63 65.89 104.63 60.32 107.17" style="fill:#55b648"/><polygon points="65.3 131.01 65.3 127.2 62.52 127.2 63.91 132.84 67.34 134.11 65.3 131.01" style="fill:#5bb647"/><polygon points="67.34 134.11 69.1 142.53 67.72 142.53 65.05 139.63 63.91 132.84 67.34 134.11" style="fill:#49a046"/><polygon points="67.34 134.11 74.37 134.11 74.37 152.22 67.8 152.22 67.8 142.53 69.1 142.53 67.34 134.11" style="fill:#68ba46"/><polygon points="65.05 139.63 67.8 152.22 67.8 142.53 65.05 139.63" style="fill:#448b41"/><polygon points="65.86 126.6 74.4 117.29 74.4 122.33 68.35 128.33 65.86 126.6" style="fill:#4ea547"/><polygon points="65.86 126.6 62.52 126.6 62.52 127.2 65.3 127.2 65.86 126.6" style="fill:#60ba48"/><polygon points="62.52 124.17 65.86 126.6 67.16 125.18 63.04 122.79 62.52 124.17" style="fill:#3b7b3b"/><rect x="72.34" y="104.63" width="2.07" height="17.71" style="fill:#4ea547"/><polygon points="57.75 74.12 59.47 69.92 70.74 69.92 74.4 71.98 57.75 74.12" style="fill:#3a3f37"/><polygon points="59.47 69.92 60.84 68.43 67.7 68.43 69.84 67.39 70.81 67.39 70.81 69.92 59.47 69.92" style="fill:#242823"/><rect x="46.95" y="78.54" width="9.53" height="2.35" style="fill:#3a3f37"/><rect x="48.5" y="97.83" width="5.19" height="1.3" style="fill:#3a3f37"/><rect x="48.5" y="100.46" width="5.19" height="1.29" style="fill:#3a3f37"/><rect x="48.5" y="103.09" width="5.19" height="1.3" style="fill:#3a3f37"/><rect x="48.5" y="105.72" width="5.19" height="1.29" style="fill:#3a3f37"/><rect x="48.5" y="108.35" width="5.19" height="1.3" style="fill:#3a3f37"/><rect x="48.5" y="95.2" width="5.19" height="1.29" style="fill:#3a3f37"/><polygon points="46.2 77.56 53.73 69.29 55.79 69.29 55.79 71.54 48.64 78.68 46.95 78.68 46.95 77.56 46.2 77.56" style="fill:#3a3f37"/><rect x="60.32" y="102.14" width="14.08" height="2.81" style="fill:#3b7b3b"/><rect x="68.94" y="144.57" width="1.77" height="6.78" rx="0.58" style="fill:#7cbf49"/><rect x="71.3" y="144.57" width="1.77" height="6.78" rx="0.58" style="fill:#7cbf49"/><polygon points="57.8 73.98 57.66 74.78 57.66 76.96 64 76.96 74.4 74.44 74.4 71.98 57.8 73.98" style="fill:#3a3f37"/><polygon points="64 76.96 74.3 87.25 74.3 85.37 65.61 76.26 64 76.96" style="fill:#3a3f37"/><polygon points="68.12 75.97 74.45 82.3 74.45 80.89 69.98 75.52 68.12 75.97" style="fill:#3a3f37"/><path d="M72.34,59.67l2.06,2.07V42.5H73.15l-.83-.83-5,.9-3.5,3.5V57h2A9.29,9.29,0,0,1,72.34,59.67Z" style="fill:#4ea547"/><path d="M72.34,59.67A9.29,9.29,0,0,0,65.79,57h-2v1a2,2,0,0,0,2,2h.44A3.87,3.87,0,0,1,69,61.15l2.68,2.68H74.4V61.74Z" style="fill:#439544"/><rect x="63.81" y="49.8" width="4.43" height="1.51" style="fill:#70be46"/><path d="M63.58,95.13a.72.72,0,1,0,0,1.43H74.37V95.13Z" style="fill:#58b648"/><path d="M63.58,96.23a.72.72,0,1,0,0,1.44H74.37V96.23Z" style="fill:#4ea547"/><path d="M63.58,97.4a.72.72,0,1,0,0,1.44H74.37V97.4Z" style="fill:#458c41"/><path d="M63.58,98.84a.72.72,0,1,0,0,1.44H74.37V98.84Z" style="fill:#316c35"/><polygon points="74.4 71.98 75.72 73.3 75.72 152.22 74.37 152.22 74.4 71.98" style="fill:#55b648"/><polygon points="75.72 73.3 75.72 42.5 74.4 42.5 74.4 72.06 75.72 73.3" style="fill:#4ea547"/><polygon points="89.81 102.14 86.11 100.08 86.11 96.23 88.2 94.15 88.2 89.94 75.72 89.94 75.72 104.63 89.81 104.63 89.81 102.14"/><path d="M98.9,99.39l3,0a3.44,3.44,0,0,0,.45,0h0l-1,9.26-4.38.05-.11-10.16A2.66,2.66,0,0,0,98.9,99.39Z" style="fill:#585c52"/><path d="M100.6,107.85l-2.79,0a1.11,1.11,0,0,0-1.1,1.22l1.11,11.6,2.85,0,1-11.6A1.11,1.11,0,0,0,100.6,107.85Z" style="fill:#3b7b3b"/><rect x="96.86" y="120.03" width="5.01" height="5.9" transform="translate(200.08 244.87) rotate(179.37)" style="fill:#52b148"/><path d="M99.44,125.93a4.21,4.21,0,0,0,0,.8,1.38,1.38,0,0,0,.66,1.15c.81.48,2.17,1.93,2.42,6.17a.39.39,0,0,0,.4.37h0a.74.74,0,0,0,.73-.75l-.06-5.69a1.12,1.12,0,0,0-.34-.78l-1.32-1.29Z" style="fill:#aeb1b0"/><path d="M99.63,125.93a3.72,3.72,0,0,1,.05.8,1.35,1.35,0,0,1-.71,1.16c-.9.5-2.39,2-2.57,6.23a.42.42,0,0,1-.44.38h0a.79.79,0,0,1-.83-.73l-.07-5.7a1.08,1.08,0,0,1,.36-.79L96.87,126Z" style="fill:#9a9f9a"/><rect x="84.05" y="46.94" width="4.4" height="8.03" transform="translate(172.5 101.92) rotate(180)" style="fill:#3a3f37"/><rect x="78.24" y="150.64" width="1.64" height="8.72" transform="translate(158.13 309.99) rotate(180)" style="fill:#565959"/><rect x="77.32" y="153.11" width="0.41" height="6.19" transform="translate(155.05 312.4) rotate(180)" style="fill:#565959"/><rect x="73.78" y="169.53" width="10.53" height="2.32" transform="translate(158.08 341.38) rotate(180)" style="fill:#275c2d"/><path d="M74.86,167.65h0a1.33,1.33,0,0,0,1.3-1.37v-6.69a.29.29,0,0,1,.28-.29h5.2a.28.28,0,0,1,.28.29v6.69a1.33,1.33,0,0,0,1.3,1.37h0a.3.3,0,0,1,.28.3v1.28a.29.29,0,0,1-.28.3H74.86a.29.29,0,0,1-.28-.3V168A.3.3,0,0,1,74.86,167.65Z" style="fill:#449745"/><rect x="77.38" y="160.28" width="3.32" height="5.26" rx="1.08" transform="translate(158.08 325.83) rotate(180)" style="fill:#3b7b3b"/><rect x="74.58" y="171.85" width="8.96" height="1.68" transform="translate(158.13 345.38) rotate(180)" style="fill:#53af48"/><path d="M76.54,151.69a2.5,2.5,0,1,0,2.5-2.5A2.5,2.5,0,0,0,76.54,151.69Z" style="fill:#3d4241"/><path d="M83.14,81.36c0-2.59-3.31-4.7-7.38-4.7h0V72H89.81l2.57,1.36L93.31,77l-1,2.69c-2.49,7-4.15,10.62-4.15,10.62L75.73,93V86.05h0C79.83,86.05,83.14,84,83.14,81.36Z" style="fill:#3f803e"/><path d="M75.76,75.18c4.58,0,8.29,3.31,8.29,7.38s-3.71,7.38-8.29,7.38h0V75.18Z" style="fill:#469745"/><polygon points="85.28 68.43 82.82 65.58 81.33 65.58 81.33 60.92 78.41 63.83 75.72 63.83 75.72 71.98 84.99 71.98 85.28 68.43"/><polygon points="84.82 127.2 84.82 131.01 82.78 134.11 75.76 134.11 75.76 128.33 80.81 122.83 84.82 127.2" style="fill:#64bb47"/><path d="M96.4,91.12a.79.79,0,1,0,1.57,0,.79.79,0,1,0-1.57,0Z" style="fill:#70be46"/><path d="M94.83,84.12H92.46V74.78s.07-2.79,1.88-3.24C94.34,71.54,96.28,82.84,94.83,84.12Z" style="fill:#1f241e"/><path d="M103.17,79.89V77.56h.75S105,69.27,98.29,69c0,0-6.8-1-4,10.88Z" style="fill:#397f3d"/><path d="M98.35,91.16a6.75,6.75,0,0,0,4.82-6.09V79.89s-3.13-3-8.83,0l1.3,11.27" style="fill:#5ab947"/><path d="M98,90c1,.89,3.11,3.14,4,4.06a1.4,1.4,0,0,1,.39,1v16.3a1.41,1.41,0,0,1-.41,1l-2.46,2.46a1.43,1.43,0,0,1-1,.41H97.07a1.41,1.41,0,0,1-1.41-1.41V91.05a1.41,1.41,0,0,1,1.41-1.41h0A1.4,1.4,0,0,1,98,90Z" style="fill:#3f9244"/><path d="M97.21,113.62a.79.79,0,1,0,.78-.79A.78.78,0,0,0,97.21,113.62Z" style="fill:#70be46"/><rect x="75.76" y="104.63" width="14.05" height="2.33" transform="translate(165.57 211.58) rotate(180)" style="fill:#60ba48"/><polygon points="89.81 107.17 87.09 122.79 87.61 124.17 87.61 127.2 84.82 127.2 84.27 126.6 81.78 128.33 75.76 128.33 75.76 104.63 84.24 104.63 89.81 107.17" style="fill:#449544"/><polygon points="84.82 131.01 84.82 127.2 87.61 127.2 86.22 132.84 82.78 134.11 84.82 131.01" style="fill:#5bb647"/><polygon points="82.78 134.11 81.03 142.53 82.41 142.53 85.08 139.63 86.22 132.84 82.78 134.11" style="fill:#49a046"/><polygon points="82.78 134.11 75.76 134.11 75.76 152.22 82.32 152.22 82.32 142.53 81.03 142.53 82.78 134.11" style="fill:#51ab47"/><polygon points="85.08 139.63 82.32 152.22 82.32 142.53 85.08 139.63" style="fill:#2a6230"/><rect x="75.76" y="142.53" width="6.57" height="1.32" transform="translate(158.08 286.38) rotate(180)" style="fill:#3b7b3b"/><polygon points="84.27 126.6 75.72 117.29 75.72 122.33 81.78 128.33 84.27 126.6" style="fill:#38793b"/><polygon points="84.27 126.6 87.61 126.6 87.61 127.2 84.82 127.2 84.27 126.6" style="fill:#60ba48"/><polygon points="87.61 124.17 84.27 126.6 82.97 125.18 87.09 122.79 87.61 124.17" style="fill:#316c35"/><rect x="75.73" y="104.63" width="2.07" height="17.71" transform="translate(153.52 226.96) rotate(180)" style="fill:#38793b"/><polygon points="92.38 74.12 90.66 69.92 79.38 69.92 75.72 71.98 92.38 74.12" style="fill:#292d27"/><polygon points="90.66 69.92 89.29 68.43 82.43 68.43 80.29 67.39 79.32 67.39 79.32 69.92 90.66 69.92"/><rect x="93.64" y="78.54" width="9.53" height="2.35" transform="translate(196.82 159.43) rotate(180)" style="fill:#1f241e"/><rect x="96.43" y="97.83" width="5.19" height="1.3" transform="translate(198.06 196.95) rotate(180)" style="fill:#3a3f37"/><rect x="96.43" y="100.46" width="5.19" height="1.29" transform="translate(198.06 202.21) rotate(180)" style="fill:#3a3f37"/><rect x="96.43" y="103.09" width="5.19" height="1.3" transform="translate(198.06 207.47) rotate(180)" style="fill:#3a3f37"/><rect x="96.43" y="105.72" width="5.19" height="1.29" transform="translate(198.06 212.73) rotate(180)" style="fill:#3a3f37"/><rect x="96.43" y="108.35" width="5.19" height="1.3" transform="translate(198.06 217.99) rotate(180)" style="fill:#3a3f37"/><rect x="96.43" y="95.2" width="5.19" height="1.29" transform="translate(198.06 191.69) rotate(180)" style="fill:#3a3f37"/><polygon points="103.92 77.56 96.4 69.29 94.34 69.29 94.34 71.54 101.48 78.68 103.17 78.68 103.17 77.56 103.92 77.56" style="fill:#1f241e"/><rect x="75.73" y="102.14" width="14.08" height="2.81" transform="translate(165.53 207.09) rotate(180)" style="fill:#2d6230"/><rect x="75.77" y="143.85" width="0.41" height="19.43" transform="translate(151.95 307.14) rotate(180)" style="fill:#565959"/><path d="M75.33,163.26a.63.63,0,0,0,.63.63.64.64,0,0,0,.64-.63.64.64,0,0,0-.64-.64A.64.64,0,0,0,75.33,163.26Z" style="fill:#565959"/><rect x="79.41" y="144.57" width="1.77" height="6.78" rx="0.58" transform="translate(160.6 295.92) rotate(180)" style="fill:#65b947"/><rect x="77.05" y="144.57" width="1.77" height="6.78" rx="0.58" transform="translate(155.88 295.92) rotate(180)" style="fill:#65b947"/><polygon points="92.32 73.98 92.46 74.78 92.46 76.96 86.12 76.96 75.72 74.44 75.72 71.98 92.32 73.98" style="fill:#292d27"/><polygon points="86.12 76.96 75.83 87.25 75.83 85.37 84.52 76.26 86.12 76.96" style="fill:#292d27"/><polygon points="82.01 75.97 75.68 82.3 75.68 80.89 80.15 75.52 82.01 75.97" style="fill:#292d27"/><path d="M77.79,59.67l-2.06,2.07V42.5H77l.83-.83,5,.9,3.49,3.5V57h-2A9.29,9.29,0,0,0,77.79,59.67Z" style="fill:#3f833f"/><path d="M77.79,59.67A9.29,9.29,0,0,1,84.34,57h2v1a2,2,0,0,1-2,2h-.45a3.89,3.89,0,0,0-2.75,1.14l-2.68,2.68H75.73V61.74Z" style="fill:#397c3c"/><rect x="81.88" y="49.8" width="4.43" height="1.51" transform="translate(168.19 101.1) rotate(180)" style="fill:#70be46"/><path d="M86.54,95.13a.72.72,0,1,1,0,1.43H75.73V95.13Z" style="fill:#489e46"/><path d="M86.54,96.23a.72.72,0,1,1,0,1.44H75.73V96.23Z" style="fill:#449243"/><path d="M86.54,97.4a.72.72,0,1,1,0,1.44H75.73V97.4Z" style="fill:#397639"/><path d="M86.54,98.84a.72.72,0,1,1,0,1.44H75.73V98.84Z" style="fill:#234f27"/><rect x="70" y="46.35" width="1.88" height="8.82" style="fill:#242823"/><rect x="78.67" y="46.35" width="1.88" height="8.82" style="fill:#242823"/></g></g></g></svg>