<svg xmlns="http://www.w3.org/2000/svg" xmlns:xlink="http://www.w3.org/1999/xlink" viewBox="0 0 148.25 207.55"><defs><clipPath id="clip-path"><rect width="148.25" height="207.55" style="fill:none"/></clipPath><linearGradient id="Degradado_sin_nombre_5" x1="-14.83" y1="14.83" x2="163.07" y2="192.72" gradientUnits="userSpaceOnUse"><stop offset="0" stop-color="#fef201"/><stop offset="1" stop-color="#ff1443"/></linearGradient></defs><title>Asset 116</title><g style="isolation:isolate"><g id="Layer_2" data-name="Layer 2"><g id="Layer_3" data-name="Layer 3"><g style="clip-path:url(#clip-path)"><rect width="148.25" height="207.55" style="fill:url(#Degradado_sin_nombre_5)"/><g style="opacity:0.46;mix-blend-mode:soft-light"><circle cx="4.8" cy="8.78" r="1" style="fill:#fef201"/><circle cx="4.8" cy="21.82" r="1" style="fill:#fef201"/><circle cx="4.8" cy="34.87" r="1" style="fill:#fef201"/><circle cx="4.8" cy="47.91" r="1" style="fill:#fef201"/><circle cx="4.8" cy="60.95" r="1" style="fill:#fef201"/><circle cx="4.8" cy="74" r="1" style="fill:#fef201"/><circle cx="4.8" cy="87.04" r="1" style="fill:#fef201"/><circle cx="4.8" cy="100.09" r="1" style="fill:#fef201"/><circle cx="4.8" cy="113.13" r="1" style="fill:#fef201"/><circle cx="4.8" cy="126.18" r="1" style="fill:#fef201"/><circle cx="4.8" cy="139.22" r="1" style="fill:#fef201"/><circle cx="4.8" cy="152.26" r="1" style="fill:#fef201"/><circle cx="4.8" cy="165.31" r="1" style="fill:#fef201"/><circle cx="4.8" cy="178.35" r="1" style="fill:#fef201"/><circle cx="4.8" cy="191.4" r="1" style="fill:#fef201"/><circle cx="4.8" cy="204.44" r="1" style="fill:#fef201"/><path d="M12.15,4.11a1,1,0,1,0,0-2,1,1,0,0,0-1,1A1,1,0,0,0,12.15,4.11Z" style="fill:#fef201"/><path d="M12.18,15.15a1,1,0,1,0,1,1A1,1,0,0,0,12.18,15.15Z" style="fill:#fef201"/><path d="M12.23,28.2a1,1,0,1,0,1,1A1,1,0,0,0,12.23,28.2Z" style="fill:#fef201"/><path d="M12.27,41.24a1,1,0,1,0,0,2,1,1,0,0,0,0-2Z" style="fill:#fef201"/><path d="M12.31,54.28a1,1,0,0,0-1,1,1,1,0,0,0,1,1,1,1,0,1,0,0-2Z" style="fill:#fef201"/><path d="M12.36,67.33a1,1,0,1,0,1,1A1,1,0,0,0,12.36,67.33Z" style="fill:#fef201"/><path d="M12.4,80.37a1,1,0,0,0-1,1,1,1,0,0,0,2,0A1,1,0,0,0,12.4,80.37Z" style="fill:#fef201"/><path d="M12.44,93.42a1,1,0,1,0,0,2,1,1,0,0,0,0-2Z" style="fill:#fef201"/><path d="M12.48,106.46a1,1,0,0,0,0,2,1,1,0,1,0,0-2Z" style="fill:#fef201"/><path d="M12.53,119.51a1,1,0,1,0,0,2,1,1,0,0,0,1-1A1,1,0,0,0,12.53,119.51Z" style="fill:#fef201"/><path d="M12.57,132.55a1,1,0,1,0,1,1A1,1,0,0,0,12.57,132.55Z" style="fill:#fef201"/><path d="M12.61,145.6a1,1,0,0,0-1,1,1,1,0,0,0,1,1,1,1,0,0,0,1-1A1,1,0,0,0,12.61,145.6Z" style="fill:#fef201"/><path d="M12.65,158.64a1,1,0,1,0,1,1A1,1,0,0,0,12.65,158.64Z" style="fill:#fef201"/><path d="M12.7,171.68a1,1,0,0,0-1,1,1,1,0,0,0,2,0A1,1,0,0,0,12.7,171.68Z" style="fill:#fef201"/><path d="M12.74,184.73a1,1,0,1,0,1,1A1,1,0,0,0,12.74,184.73Z" style="fill:#fef201"/><path d="M12.78,197.77a1,1,0,1,0,0,2,1,1,0,0,0,1-1A1,1,0,0,0,12.78,197.77Z" style="fill:#fef201"/><circle cx="21.13" cy="8.78" r="1" style="fill:#fef201"/><circle cx="21.13" cy="21.82" r="1" style="fill:#fef201"/><circle cx="21.13" cy="34.87" r="1" style="fill:#fef201"/><circle cx="21.13" cy="47.91" r="1" style="fill:#fef201"/><circle cx="21.13" cy="60.95" r="1" style="fill:#fef201"/><circle cx="21.13" cy="74" r="1" style="fill:#fef201"/><circle cx="21.13" cy="87.04" r="1" style="fill:#fef201"/><circle cx="21.13" cy="100.09" r="1" style="fill:#fef201"/><circle cx="21.13" cy="113.13" r="1" style="fill:#fef201"/><circle cx="21.13" cy="126.18" r="1" style="fill:#fef201"/><circle cx="21.13" cy="139.22" r="1" style="fill:#fef201"/><circle cx="21.13" cy="152.26" r="1" style="fill:#fef201"/><circle cx="21.13" cy="165.31" r="1" style="fill:#fef201"/><circle cx="21.13" cy="178.35" r="1" style="fill:#fef201"/><circle cx="21.13" cy="191.4" r="1" style="fill:#fef201"/><circle cx="21.13" cy="204.44" r="1" style="fill:#fef201"/><path d="M28.48,4.11a1,1,0,0,0,1-1,1,1,0,1,0-1,1Z" style="fill:#fef201"/><path d="M28.52,15.15a1,1,0,0,0-1,1,1,1,0,1,0,1-1Z" style="fill:#fef201"/><path d="M28.56,28.2a1,1,0,0,0-1,1,1,1,0,0,0,1,1,1,1,0,0,0,0-2Z" style="fill:#fef201"/><path d="M28.6,41.24a1,1,0,0,0,0,2,1,1,0,1,0,0-2Z" style="fill:#fef201"/><path d="M28.65,54.28a1,1,0,0,0-1,1,1,1,0,0,0,1,1,1,1,0,1,0,0-2Z" style="fill:#fef201"/><path d="M28.69,67.33a1,1,0,1,0,1,1A1,1,0,0,0,28.69,67.33Z" style="fill:#fef201"/><path d="M28.73,80.37a1,1,0,1,0,0,2,1,1,0,0,0,1-1A1,1,0,0,0,28.73,80.37Z" style="fill:#fef201"/><path d="M28.77,93.42a1,1,0,0,0,0,2,1,1,0,1,0,0-2Z" style="fill:#fef201"/><path d="M28.82,106.46a1,1,0,1,0,1,1A1,1,0,0,0,28.82,106.46Z" style="fill:#fef201"/><path d="M28.86,119.51a1,1,0,1,0,1,1A1,1,0,0,0,28.86,119.51Z" style="fill:#fef201"/><path d="M28.9,132.55a1,1,0,1,0,1,1A1,1,0,0,0,28.9,132.55Z" style="fill:#fef201"/><path d="M28.94,145.6a1,1,0,0,0,0,2,1,1,0,0,0,1-1A1,1,0,0,0,28.94,145.6Z" style="fill:#fef201"/><path d="M29,158.64a1,1,0,1,0,1,1A1,1,0,0,0,29,158.64Z" style="fill:#fef201"/><path d="M29,171.68a1,1,0,0,0-1,1,1,1,0,0,0,2,0A1,1,0,0,0,29,171.68Z" style="fill:#fef201"/><path d="M29.07,184.73a1,1,0,0,0-1,1,1,1,0,1,0,1-1Z" style="fill:#fef201"/><path d="M29.11,197.77a1,1,0,1,0,1,1A1,1,0,0,0,29.11,197.77Z" style="fill:#fef201"/><circle cx="37.47" cy="8.78" r="1" style="fill:#fef201"/><circle cx="37.47" cy="21.82" r="1" style="fill:#fef201"/><circle cx="37.47" cy="34.87" r="1" style="fill:#fef201"/><circle cx="37.47" cy="47.91" r="1" style="fill:#fef201"/><circle cx="37.47" cy="60.95" r="1" style="fill:#fef201"/><circle cx="37.47" cy="74" r="1" style="fill:#fef201"/><circle cx="37.47" cy="87.04" r="1" style="fill:#fef201"/><circle cx="37.47" cy="100.09" r="1" style="fill:#fef201"/><circle cx="37.47" cy="113.13" r="1" style="fill:#fef201"/><circle cx="37.47" cy="126.18" r="1" style="fill:#fef201"/><circle cx="37.47" cy="139.22" r="1" style="fill:#fef201"/><circle cx="37.47" cy="152.26" r="1" style="fill:#fef201"/><circle cx="37.47" cy="165.31" r="1" style="fill:#fef201"/><circle cx="37.47" cy="178.35" r="1" style="fill:#fef201"/><circle cx="37.47" cy="191.4" r="1" style="fill:#fef201"/><circle cx="37.47" cy="204.44" r="1" style="fill:#fef201"/><path d="M44.82,4.11a1,1,0,1,0-1-1A1,1,0,0,0,44.82,4.11Z" style="fill:#fef201"/><path d="M44.85,15.15a1,1,0,1,0,0,2,1,1,0,0,0,1-1A1,1,0,0,0,44.85,15.15Z" style="fill:#fef201"/><path d="M44.89,28.2a1,1,0,0,0,0,2,1,1,0,0,0,1-1A1,1,0,0,0,44.89,28.2Z" style="fill:#fef201"/><path d="M44.94,41.24a1,1,0,1,0,1,1A1,1,0,0,0,44.94,41.24Z" style="fill:#fef201"/><path d="M45,54.28a1,1,0,0,0-1,1,1,1,0,0,0,2,0A1,1,0,0,0,45,54.28Z" style="fill:#fef201"/><path d="M45,67.33a1,1,0,0,0-1,1,1,1,0,1,0,1-1Z" style="fill:#fef201"/><path d="M45.06,80.37a1,1,0,0,0-1,1,1,1,0,0,0,1,1,1,1,0,1,0,0-2Z" style="fill:#fef201"/><path d="M45.11,93.42a1,1,0,1,0,1,1A1,1,0,0,0,45.11,93.42Z" style="fill:#fef201"/><path d="M45.15,106.46a1,1,0,1,0,0,2,1,1,0,0,0,0-2Z" style="fill:#fef201"/><path d="M45.19,119.51a1,1,0,0,0-1,1,1,1,0,1,0,1-1Z" style="fill:#fef201"/><path d="M45.24,132.55a1,1,0,1,0,1,1A1,1,0,0,0,45.24,132.55Z" style="fill:#fef201"/><path d="M45.28,145.6a1,1,0,1,0,1,1A1,1,0,0,0,45.28,145.6Z" style="fill:#fef201"/><path d="M45.32,158.64a1,1,0,1,0,0,2,1,1,0,0,0,0-2Z" style="fill:#fef201"/><path d="M45.36,171.68a1,1,0,0,0-1,1,1,1,0,0,0,1,1,1,1,0,1,0,0-2Z" style="fill:#fef201"/><path d="M45.41,184.73a1,1,0,1,0,1,1A1,1,0,0,0,45.41,184.73Z" style="fill:#fef201"/><path d="M45.45,197.77a1,1,0,0,0-1,1,1,1,0,1,0,1-1Z" style="fill:#fef201"/><circle cx="53.8" cy="8.78" r="1" style="fill:#fef201"/><circle cx="53.8" cy="21.82" r="1" style="fill:#fef201"/><circle cx="53.8" cy="34.87" r="1" style="fill:#fef201"/><circle cx="53.8" cy="47.91" r="1" style="fill:#fef201"/><circle cx="53.8" cy="60.95" r="1" style="fill:#fef201"/><circle cx="53.8" cy="74" r="1" style="fill:#fef201"/><circle cx="53.8" cy="87.04" r="1" style="fill:#fef201"/><circle cx="53.8" cy="100.09" r="1" style="fill:#fef201"/><circle cx="53.8" cy="113.13" r="1" style="fill:#fef201"/><circle cx="53.8" cy="126.18" r="1" style="fill:#fef201"/><circle cx="53.8" cy="139.22" r="1" style="fill:#fef201"/><circle cx="53.8" cy="152.26" r="1" style="fill:#fef201"/><circle cx="53.8" cy="165.31" r="1" style="fill:#fef201"/><circle cx="53.8" cy="178.35" r="1" style="fill:#fef201"/><circle cx="53.8" cy="191.4" r="1" style="fill:#fef201"/><circle cx="53.8" cy="204.44" r="1" style="fill:#fef201"/><path d="M61.15,4.11a1,1,0,1,0,0-2,1,1,0,0,0-1,1A1,1,0,0,0,61.15,4.11Z" style="fill:#fef201"/><path d="M61.18,15.15a1,1,0,1,0,1,1A1,1,0,0,0,61.18,15.15Z" style="fill:#fef201"/><path d="M61.23,28.2a1,1,0,1,0,1,1A1,1,0,0,0,61.23,28.2Z" style="fill:#fef201"/><path d="M61.27,41.24a1,1,0,1,0,0,2,1,1,0,0,0,0-2Z" style="fill:#fef201"/><path d="M61.31,54.28a1,1,0,0,0-1,1,1,1,0,0,0,1,1,1,1,0,1,0,0-2Z" style="fill:#fef201"/><path d="M61.36,67.33a1,1,0,1,0,1,1A1,1,0,0,0,61.36,67.33Z" style="fill:#fef201"/><path d="M61.4,80.37a1,1,0,0,0-1,1,1,1,0,0,0,2,0A1,1,0,0,0,61.4,80.37Z" style="fill:#fef201"/><path d="M61.44,93.42a1,1,0,1,0,0,2,1,1,0,0,0,0-2Z" style="fill:#fef201"/><path d="M61.48,106.46a1,1,0,0,0,0,2,1,1,0,1,0,0-2Z" style="fill:#fef201"/><path d="M61.53,119.51a1,1,0,0,0,0,2,1,1,0,0,0,1-1A1,1,0,0,0,61.53,119.51Z" style="fill:#fef201"/><path d="M61.57,132.55a1,1,0,1,0,1,1A1,1,0,0,0,61.57,132.55Z" style="fill:#fef201"/><path d="M61.61,145.6a1,1,0,0,0-1,1,1,1,0,0,0,1,1,1,1,0,0,0,1-1A1,1,0,0,0,61.61,145.6Z" style="fill:#fef201"/><path d="M61.65,158.64a1,1,0,1,0,1,1A1,1,0,0,0,61.65,158.64Z" style="fill:#fef201"/><path d="M61.7,171.68a1,1,0,0,0-1,1,1,1,0,0,0,2,0A1,1,0,0,0,61.7,171.68Z" style="fill:#fef201"/><path d="M61.74,184.73a1,1,0,1,0,1,1A1,1,0,0,0,61.74,184.73Z" style="fill:#fef201"/><path d="M61.78,197.77a1,1,0,1,0,0,2,1,1,0,0,0,1-1A1,1,0,0,0,61.78,197.77Z" style="fill:#fef201"/><circle cx="70.13" cy="8.78" r="1" style="fill:#fef201"/><circle cx="70.13" cy="21.82" r="1" style="fill:#fef201"/><circle cx="70.13" cy="34.87" r="1" style="fill:#fef201"/><circle cx="70.13" cy="47.91" r="1" style="fill:#fef201"/><circle cx="70.13" cy="60.95" r="1" style="fill:#fef201"/><circle cx="70.13" cy="74" r="1" style="fill:#fef201"/><circle cx="70.13" cy="87.04" r="1" style="fill:#fef201"/><circle cx="70.13" cy="100.09" r="1" style="fill:#fef201"/><circle cx="70.13" cy="113.13" r="1" style="fill:#fef201"/><circle cx="70.13" cy="126.18" r="1" style="fill:#fef201"/><circle cx="70.13" cy="139.22" r="1" style="fill:#fef201"/><circle cx="70.13" cy="152.26" r="1" style="fill:#fef201"/><circle cx="70.13" cy="165.31" r="1" style="fill:#fef201"/><circle cx="70.13" cy="178.35" r="1" style="fill:#fef201"/><circle cx="70.13" cy="191.4" r="1" style="fill:#fef201"/><circle cx="70.13" cy="204.44" r="1" style="fill:#fef201"/><path d="M77.48,4.11a1,1,0,0,0,1-1,1,1,0,1,0-1,1Z" style="fill:#fef201"/><path d="M77.52,15.15a1,1,0,0,0-1,1,1,1,0,1,0,1-1Z" style="fill:#fef201"/><path d="M77.56,28.2a1,1,0,0,0-1,1,1,1,0,0,0,1,1,1,1,0,0,0,0-2Z" style="fill:#fef201"/><path d="M77.6,41.24a1,1,0,0,0,0,2,1,1,0,1,0,0-2Z" style="fill:#fef201"/><path d="M77.65,54.28a1,1,0,0,0-1,1,1,1,0,0,0,1,1,1,1,0,0,0,0-2Z" style="fill:#fef201"/><path d="M77.69,67.33a1,1,0,1,0,1,1A1,1,0,0,0,77.69,67.33Z" style="fill:#fef201"/><path d="M77.73,80.37a1,1,0,1,0,0,2,1,1,0,0,0,1-1A1,1,0,0,0,77.73,80.37Z" style="fill:#fef201"/><path d="M77.77,93.42a1,1,0,0,0,0,2,1,1,0,1,0,0-2Z" style="fill:#fef201"/><path d="M77.82,106.46a1,1,0,1,0,1,1A1,1,0,0,0,77.82,106.46Z" style="fill:#fef201"/><path d="M77.86,119.51a1,1,0,1,0,1,1A1,1,0,0,0,77.86,119.51Z" style="fill:#fef201"/><path d="M77.9,132.55a1,1,0,1,0,1,1A1,1,0,0,0,77.9,132.55Z" style="fill:#fef201"/><path d="M77.94,145.6a1,1,0,0,0,0,2,1,1,0,0,0,1-1A1,1,0,0,0,77.94,145.6Z" style="fill:#fef201"/><path d="M78,158.64a1,1,0,1,0,1,1A1,1,0,0,0,78,158.64Z" style="fill:#fef201"/><path d="M78,171.68a1,1,0,0,0-1,1,1,1,0,0,0,2,0A1,1,0,0,0,78,171.68Z" style="fill:#fef201"/><path d="M78.07,184.73a1,1,0,0,0-1,1,1,1,0,1,0,1-1Z" style="fill:#fef201"/><path d="M78.11,197.77a1,1,0,1,0,1,1A1,1,0,0,0,78.11,197.77Z" style="fill:#fef201"/><circle cx="86.47" cy="8.78" r="1" style="fill:#fef201"/><circle cx="86.47" cy="21.82" r="1" style="fill:#fef201"/><circle cx="86.47" cy="34.87" r="1" style="fill:#fef201"/><circle cx="86.47" cy="47.91" r="1" style="fill:#fef201"/><circle cx="86.47" cy="60.95" r="1" style="fill:#fef201"/><circle cx="86.47" cy="74" r="1" style="fill:#fef201"/><circle cx="86.47" cy="87.04" r="1" style="fill:#fef201"/><circle cx="86.47" cy="100.09" r="1" style="fill:#fef201"/><circle cx="86.47" cy="113.13" r="1" style="fill:#fef201"/><circle cx="86.47" cy="126.18" r="1" style="fill:#fef201"/><circle cx="86.47" cy="139.22" r="1" style="fill:#fef201"/><circle cx="86.47" cy="152.26" r="1" style="fill:#fef201"/><circle cx="86.47" cy="165.31" r="1" style="fill:#fef201"/><circle cx="86.47" cy="178.35" r="1" style="fill:#fef201"/><circle cx="86.47" cy="191.4" r="1" style="fill:#fef201"/><circle cx="86.47" cy="204.44" r="1" style="fill:#fef201"/><path d="M93.82,4.11a1,1,0,1,0-1-1A1,1,0,0,0,93.82,4.11Z" style="fill:#fef201"/><path d="M93.85,15.15a1,1,0,1,0,0,2,1,1,0,0,0,1-1A1,1,0,0,0,93.85,15.15Z" style="fill:#fef201"/><path d="M93.89,28.2a1,1,0,0,0,0,2,1,1,0,0,0,1-1A1,1,0,0,0,93.89,28.2Z" style="fill:#fef201"/><path d="M93.94,41.24a1,1,0,1,0,1,1A1,1,0,0,0,93.94,41.24Z" style="fill:#fef201"/><path d="M94,54.28a1,1,0,0,0-1,1,1,1,0,0,0,2,0A1,1,0,0,0,94,54.28Z" style="fill:#fef201"/><path d="M94,67.33a1,1,0,0,0-1,1,1,1,0,1,0,1-1Z" style="fill:#fef201"/><path d="M94.06,80.37a1,1,0,0,0-1,1,1,1,0,0,0,1,1,1,1,0,1,0,0-2Z" style="fill:#fef201"/><path d="M94.11,93.42a1,1,0,1,0,1,1A1,1,0,0,0,94.11,93.42Z" style="fill:#fef201"/><path d="M94.15,106.46a1,1,0,1,0,0,2,1,1,0,0,0,0-2Z" style="fill:#fef201"/><path d="M94.19,119.51a1,1,0,0,0-1,1,1,1,0,1,0,1-1Z" style="fill:#fef201"/><path d="M94.24,132.55a1,1,0,1,0,1,1A1,1,0,0,0,94.24,132.55Z" style="fill:#fef201"/><path d="M94.28,145.6a1,1,0,1,0,1,1A1,1,0,0,0,94.28,145.6Z" style="fill:#fef201"/><path d="M94.32,158.64a1,1,0,1,0,0,2,1,1,0,0,0,0-2Z" style="fill:#fef201"/><path d="M94.36,171.68a1,1,0,0,0-1,1,1,1,0,0,0,1,1,1,1,0,1,0,0-2Z" style="fill:#fef201"/><path d="M94.41,184.73a1,1,0,1,0,1,1A1,1,0,0,0,94.41,184.73Z" style="fill:#fef201"/><path d="M94.45,197.77a1,1,0,0,0-1,1,1,1,0,1,0,1-1Z" style="fill:#fef201"/><circle cx="102.8" cy="8.78" r="1" style="fill:#fef201"/><circle cx="102.8" cy="21.82" r="1" style="fill:#fef201"/><circle cx="102.8" cy="34.87" r="1" style="fill:#fef201"/><circle cx="102.8" cy="47.91" r="1" style="fill:#fef201"/><circle cx="102.8" cy="60.95" r="1" style="fill:#fef201"/><circle cx="102.8" cy="74" r="1" style="fill:#fef201"/><circle cx="102.8" cy="87.04" r="1" style="fill:#fef201"/><circle cx="102.8" cy="100.09" r="1" style="fill:#fef201"/><circle cx="102.8" cy="113.13" r="1" style="fill:#fef201"/><circle cx="102.8" cy="126.18" r="1" style="fill:#fef201"/><circle cx="102.8" cy="139.22" r="1" style="fill:#fef201"/><circle cx="102.8" cy="152.26" r="1" style="fill:#fef201"/><circle cx="102.8" cy="165.31" r="1" style="fill:#fef201"/><circle cx="102.8" cy="178.35" r="1" style="fill:#fef201"/><circle cx="102.8" cy="191.4" r="1" style="fill:#fef201"/><circle cx="102.8" cy="204.44" r="1" style="fill:#fef201"/><path d="M110.15,4.11a1,1,0,1,0,0-2,1,1,0,0,0-1,1A1,1,0,0,0,110.15,4.11Z" style="fill:#fef201"/><path d="M110.18,15.15a1,1,0,1,0,1,1A1,1,0,0,0,110.18,15.15Z" style="fill:#fef201"/><path d="M110.23,28.2a1,1,0,1,0,1,1A1,1,0,0,0,110.23,28.2Z" style="fill:#fef201"/><path d="M110.27,41.24a1,1,0,1,0,0,2,1,1,0,0,0,0-2Z" style="fill:#fef201"/><path d="M110.31,54.28a1,1,0,0,0-1,1,1,1,0,0,0,1,1,1,1,0,1,0,0-2Z" style="fill:#fef201"/><path d="M110.36,67.33a1,1,0,1,0,1,1A1,1,0,0,0,110.36,67.33Z" style="fill:#fef201"/><path d="M110.4,80.37a1,1,0,0,0-1,1,1,1,0,0,0,2,0A1,1,0,0,0,110.4,80.37Z" style="fill:#fef201"/><path d="M110.44,93.42a1,1,0,1,0,0,2,1,1,0,0,0,0-2Z" style="fill:#fef201"/><path d="M110.48,106.46a1,1,0,0,0,0,2,1,1,0,1,0,0-2Z" style="fill:#fef201"/><path d="M110.53,119.51a1,1,0,0,0,0,2,1,1,0,0,0,1-1A1,1,0,0,0,110.53,119.51Z" style="fill:#fef201"/><path d="M110.57,132.55a1,1,0,1,0,1,1A1,1,0,0,0,110.57,132.55Z" style="fill:#fef201"/><path d="M110.61,145.6a1,1,0,0,0-1,1,1,1,0,0,0,1,1,1,1,0,0,0,1-1A1,1,0,0,0,110.61,145.6Z" style="fill:#fef201"/><path d="M110.65,158.64a1,1,0,1,0,1,1A1,1,0,0,0,110.65,158.64Z" style="fill:#fef201"/><path d="M110.7,171.68a1,1,0,0,0-1,1,1,1,0,0,0,2,0A1,1,0,0,0,110.7,171.68Z" style="fill:#fef201"/><path d="M110.74,184.73a1,1,0,1,0,1,1A1,1,0,0,0,110.74,184.73Z" style="fill:#fef201"/><path d="M110.78,197.77a1,1,0,1,0,0,2,1,1,0,0,0,1-1A1,1,0,0,0,110.78,197.77Z" style="fill:#fef201"/><circle cx="119.13" cy="8.78" r="1" style="fill:#fef201"/><circle cx="119.13" cy="21.82" r="1" style="fill:#fef201"/><circle cx="119.13" cy="34.87" r="1" style="fill:#fef201"/><circle cx="119.13" cy="47.91" r="1" style="fill:#fef201"/><circle cx="119.13" cy="60.95" r="1" style="fill:#fef201"/><circle cx="119.13" cy="74" r="1" style="fill:#fef201"/><circle cx="119.13" cy="87.04" r="1" style="fill:#fef201"/><circle cx="119.13" cy="100.09" r="1" style="fill:#fef201"/><circle cx="119.13" cy="113.13" r="1" style="fill:#fef201"/><circle cx="119.13" cy="126.18" r="1" style="fill:#fef201"/><circle cx="119.13" cy="139.22" r="1" style="fill:#fef201"/><circle cx="119.13" cy="152.26" r="1" style="fill:#fef201"/><circle cx="119.13" cy="165.31" r="1" style="fill:#fef201"/><circle cx="119.13" cy="178.35" r="1" style="fill:#fef201"/><circle cx="119.13" cy="191.4" r="1" style="fill:#fef201"/><circle cx="119.13" cy="204.44" r="1" style="fill:#fef201"/><path d="M126.48,4.11a1,1,0,0,0,1-1,1,1,0,1,0-1,1Z" style="fill:#fef201"/><path d="M126.52,15.15a1,1,0,0,0-1,1,1,1,0,1,0,1-1Z" style="fill:#fef201"/><path d="M126.56,28.2a1,1,0,0,0-1,1,1,1,0,0,0,1,1,1,1,0,0,0,0-2Z" style="fill:#fef201"/><path d="M126.6,41.24a1,1,0,0,0,0,2,1,1,0,1,0,0-2Z" style="fill:#fef201"/><path d="M126.65,54.28a1,1,0,0,0-1,1,1,1,0,0,0,1,1,1,1,0,0,0,0-2Z" style="fill:#fef201"/><path d="M126.69,67.33a1,1,0,1,0,1,1A1,1,0,0,0,126.69,67.33Z" style="fill:#fef201"/><path d="M126.73,80.37a1,1,0,1,0,0,2,1,1,0,0,0,1-1A1,1,0,0,0,126.73,80.37Z" style="fill:#fef201"/><path d="M126.77,93.42a1,1,0,0,0,0,2,1,1,0,1,0,0-2Z" style="fill:#fef201"/><path d="M126.82,106.46a1,1,0,1,0,1,1A1,1,0,0,0,126.82,106.46Z" style="fill:#fef201"/><path d="M126.86,119.51a1,1,0,1,0,1,1A1,1,0,0,0,126.86,119.51Z" style="fill:#fef201"/><path d="M126.9,132.55a1,1,0,1,0,1,1A1,1,0,0,0,126.9,132.55Z" style="fill:#fef201"/><path d="M126.94,145.6a1,1,0,0,0,0,2,1,1,0,0,0,1-1A1,1,0,0,0,126.94,145.6Z" style="fill:#fef201"/><path d="M127,158.64a1,1,0,1,0,1,1A1,1,0,0,0,127,158.64Z" style="fill:#fef201"/><path d="M127,171.68a1,1,0,0,0-1,1,1,1,0,0,0,2,0A1,1,0,0,0,127,171.68Z" style="fill:#fef201"/><path d="M127.07,184.73a1,1,0,0,0-1,1,1,1,0,1,0,1-1Z" style="fill:#fef201"/><path d="M127.11,197.77a1,1,0,1,0,1,1A1,1,0,0,0,127.11,197.77Z" style="fill:#fef201"/><circle cx="135.47" cy="8.78" r="1" style="fill:#fef201"/><circle cx="135.47" cy="21.82" r="1" style="fill:#fef201"/><circle cx="135.47" cy="34.87" r="1" style="fill:#fef201"/><circle cx="135.47" cy="47.91" r="1" style="fill:#fef201"/><circle cx="135.47" cy="60.95" r="1" style="fill:#fef201"/><circle cx="135.47" cy="74" r="1" style="fill:#fef201"/><circle cx="135.47" cy="87.04" r="1" style="fill:#fef201"/><circle cx="135.47" cy="100.09" r="1" style="fill:#fef201"/><circle cx="135.47" cy="113.13" r="1" style="fill:#fef201"/><circle cx="135.47" cy="126.18" r="1" style="fill:#fef201"/><circle cx="135.47" cy="139.22" r="1" style="fill:#fef201"/><circle cx="135.47" cy="152.26" r="1" style="fill:#fef201"/><circle cx="135.47" cy="165.31" r="1" style="fill:#fef201"/><circle cx="135.47" cy="178.35" r="1" style="fill:#fef201"/><circle cx="135.47" cy="191.4" r="1" style="fill:#fef201"/><circle cx="135.47" cy="204.44" r="1" style="fill:#fef201"/><path d="M142.82,4.11a1,1,0,1,0-1-1A1,1,0,0,0,142.82,4.11Z" style="fill:#fef201"/><path d="M142.85,15.15a1,1,0,1,0,0,2,1,1,0,0,0,1-1A1,1,0,0,0,142.85,15.15Z" style="fill:#fef201"/><path d="M142.89,28.2a1,1,0,0,0,0,2,1,1,0,0,0,1-1A1,1,0,0,0,142.89,28.2Z" style="fill:#fef201"/><path d="M142.94,41.24a1,1,0,1,0,1,1A1,1,0,0,0,142.94,41.24Z" style="fill:#fef201"/><path d="M143,54.28a1,1,0,0,0-1,1,1,1,0,0,0,2,0A1,1,0,0,0,143,54.28Z" style="fill:#fef201"/><path d="M143,67.33a1,1,0,0,0-1,1,1,1,0,1,0,1-1Z" style="fill:#fef201"/><path d="M143.06,80.37a1,1,0,0,0-1,1,1,1,0,0,0,1,1,1,1,0,1,0,0-2Z" style="fill:#fef201"/><path d="M143.11,93.42a1,1,0,1,0,1,1A1,1,0,0,0,143.11,93.42Z" style="fill:#fef201"/><path d="M143.15,106.46a1,1,0,1,0,0,2,1,1,0,0,0,0-2Z" style="fill:#fef201"/><path d="M143.19,119.51a1,1,0,0,0-1,1,1,1,0,1,0,1-1Z" style="fill:#fef201"/><path d="M143.24,132.55a1,1,0,1,0,1,1A1,1,0,0,0,143.24,132.55Z" style="fill:#fef201"/><path d="M143.28,145.6a1,1,0,1,0,1,1A1,1,0,0,0,143.28,145.6Z" style="fill:#fef201"/><path d="M143.32,158.64a1,1,0,1,0,0,2,1,1,0,0,0,0-2Z" style="fill:#fef201"/><path d="M143.36,171.68a1,1,0,0,0-1,1,1,1,0,0,0,1,1,1,1,0,1,0,0-2Z" style="fill:#fef201"/><path d="M143.41,184.73a1,1,0,1,0,1,1A1,1,0,0,0,143.41,184.73Z" style="fill:#fef201"/><path d="M143.45,197.77a1,1,0,0,0-1,1,1,1,0,1,0,1-1Z" style="fill:#fef201"/></g></g><g style="opacity:0.45"><polygon points="80.36 40.2 73.51 40.2 8.1 105.61 8.1 112.45 80.36 40.2" style="fill:#00158e;opacity:0.2"/><polygon points="99.61 40.2 92.76 40.2 8.1 124.85 8.1 131.7 99.61 40.2" style="fill:#00158e;opacity:0.2"/><polygon points="61.11 40.2 54.27 40.2 8.1 86.36 8.1 93.21 61.11 40.2" style="fill:#00158e;opacity:0.2"/><polygon points="41.86 40.2 35.02 40.2 8.1 67.11 8.1 73.96 41.86 40.2" style="fill:#00158e;opacity:0.2"/><polygon points="22.62 40.2 15.77 40.2 8.1 47.86 8.1 54.71 22.62 40.2" style="fill:#00158e;opacity:0.2"/><path d="M108.1,40.2v3.91L11.81,140.4H8.1v30.51H138.82V40.2Zm0,100.2H95.65L108.1,128Zm0-19.3L88.8,140.4H76.4l31.7-31.7Zm0-19.25L69.56,140.4H57.15L108.1,89.45Zm0-19.25L50.31,140.4H37.91L108.1,70.2Zm0-19.24-77,77H18.66L108.1,51Z" style="fill:#00158e;opacity:0.2"/><polygon points="135.94 168.5 135.94 142.05 131.16 146.84 131.16 163.71 114.28 163.71 109.5 168.5 135.94 168.5" style="fill:#0751cf"/><rect x="137.39" y="71.65" width="2.99" height="35.67" style="fill:gold"/><rect x="137.39" y="114.49" width="2.99" height="4.98" style="fill:gold"/><rect x="26.4" y="170.08" width="48.42" height="2.39" style="fill:gold"/><polygon points="23.9 160.58 27.76 160.58 31.88 156.46 25.44 156.46 16.15 165.74 18.74 165.74 23.9 160.58" style="fill:gold"/><polygon points="32.27 160.58 36.13 160.58 40.26 156.46 33.81 156.46 24.53 165.74 27.11 165.74 32.27 160.58" style="fill:gold"/><polygon points="40.65 160.58 44.51 160.58 48.63 156.46 42.19 156.46 32.9 165.74 35.48 165.74 40.65 160.58" style="fill:gold"/><polygon points="49.02 160.58 52.88 160.58 57.01 156.46 50.56 156.46 41.28 165.74 43.86 165.74 49.02 160.58" style="fill:gold"/><polygon points="57.4 160.58 61.26 160.58 65.38 156.46 58.94 156.46 49.65 165.74 52.23 165.74 57.4 160.58" style="fill:gold"/><polygon points="65.77 160.58 69.63 160.58 73.75 156.46 67.31 156.46 58.03 165.74 60.61 165.74 65.77 160.58" style="fill:gold"/><polygon points="74.15 160.58 78.01 160.58 82.13 156.46 75.69 156.46 66.4 165.74 68.98 165.74 74.15 160.58" style="fill:gold"/><polygon points="82.52 160.58 86.38 160.58 90.5 156.46 84.06 156.46 74.77 165.74 77.36 165.74 82.52 160.58" style="fill:gold"/><path d="M125.13,35.49H110.19V31.9h14.94Zm-14.34-.6h13.75V32.5H110.79Z" style="fill:#0751cf"/><path d="M142.87,143.28h-2.59V131.93h2.59Zm-2-.59h1.39V132.52h-1.39Z" style="fill:#0751cf"/><path d="M101.82,179H84.49v-3.79h17.33Zm-16.74-.6h16.14v-2.59H85.08Z" style="fill:#0751cf"/><path d="M16.14,178.15H9.57v-2.39h6.57Zm-6-.59h5.38v-1.2H10.16Z" style="fill:gold"/><path d="M5.78,166.6H3.39V146.67H5.78ZM4,166H5.18V147.27H4Z" style="fill:gold"/><polygon points="94.75 34.58 94.75 34.43 26.95 34.43 26.95 33.06 94.6 33.06 94.6 34.58 94.75 34.58 94.75 34.43 94.75 34.58 94.9 34.58 94.9 32.76 26.65 32.76 26.65 34.73 94.9 34.73 94.9 34.58 94.75 34.58" style="fill:gold"/></g><polygon points="66.61 46.16 64.82 45.57 64.82 43.83 71.46 43.83 71.46 46.16 66.61 46.16" style="fill:#060a0f"/><path d="M62.88,44.58v-7.5a1.3,1.3,0,1,0-.28,0v7.8h2.22v-.29Z" style="fill:#060a0f"/><polygon points="85.83 46.16 87.63 45.57 87.63 43.83 80.98 43.83 80.98 46.16 85.83 46.16" style="fill:#060a0f"/><path d="M89.57,44.58v-7.5a1.29,1.29,0,1,1,.28,0v7.8H87.63v-.29Z" style="fill:#060a0f"/><path d="M68.41,53.56h-3a5.53,5.53,0,0,0-5.53,5.54v1.21l2.28,2.29,6.22-3.39Z" style="fill:#373f3c"/><path d="M84.17,53.56h3a5.54,5.54,0,0,1,5.54,5.54v1.21L90.39,62.6l-6.22-3.39Z" style="fill:#2a3330"/><polygon points="76.29 38.47 76.29 51.35 67.64 51.35 67.64 35.98 71.13 35.98 71.13 38.47 76.29 38.47" style="fill:#373f3c"/><polygon points="84.94 35.98 84.94 51.35 76.29 51.35 76.29 38.47 81.45 38.47 81.45 35.98 84.94 35.98" style="fill:#28312e"/><rect x="79.03" y="41.83" width="1.62" height="7.8" style="fill:#626d67"/><polygon points="74.49 128.63 74.49 103.46 67.35 110.6 71.81 125.95 74.49 128.63" style="fill:#7b8584"/><rect x="63.68" y="106.98" width="8.14" height="29" style="fill:#6f7b74"/><rect x="60.41" y="161.91" width="14.49" height="2.48" style="fill:#1f2c26"/><polygon points="62.31 129.39 62.31 135.98 71.81 135.98 71.81 125.95 62.31 129.39" style="fill:#c5d1ce"/><rect x="56.04" y="91.89" width="3.86" height="16.09" style="fill:#29302f"/><path d="M76.29,51.35V63.69H72.12l-4.48-4.48V51.35Z" style="fill:#6f7b74"/><polygon points="45.91 59.32 50.17 58.82 53.1 61.75 59.91 60.31 62.19 62.6 67.64 75.41 61.59 78.49 45.91 65.48 45.91 59.32" style="fill:#939695"/><polygon points="63.14 77.7 61.59 78.49 69.32 89.71 76.29 89.71 76.29 63.69 67.64 57.53 61.3 61.7 63.14 77.7" style="fill:#c5d1ce"/><rect x="69.5" y="89.71" width="6.86" height="2.58" style="fill:#6f7b74"/><polygon points="48.09 87.42 48.09 90.5 52.56 90.5 58.02 99.74 59.91 99.74 57.52 96.06 59.91 92.98 49.38 73.62 46.13 75.81 48.09 87.42" style="fill:#515d56"/><path d="M48.09,77.49l4-3.87V65.38H46.41a5,5,0,0,0-4.13,2.23c-1.6,2.44-3.35,6.45-.74,9.88L44,87.92h4.07Z" style="fill:#6f7b74"/><polygon points="50.25 75.39 59.91 92.98 59.91 76.65 52.06 70.58 50.25 75.39" style="fill:#7c8381"/><path d="M48.09,90.5H42.53l-3.68,10.23,7,8.74s2.59-2.58,10.13,0V96.38L52.56,90.5Z" style="fill:#6f7b74"/><rect x="58.02" y="99.74" width="1.88" height="8.24" style="fill:#647168"/><polygon points="52.06 65.38 62.98 76.3 63.14 77.7 61.59 78.49 52.06 70.58 52.06 65.38" style="fill:#647168"/><polygon points="50.17 58.82 52.06 65.38 45.91 65.48 45.91 59.32 50.17 58.82" style="fill:#647168"/><polygon points="52.06 65.38 53.1 61.75 59.91 60.31 61.3 61.7 62.98 76.3 52.06 65.38" style="fill:#373f3c"/><rect x="68.41" y="92.29" width="7.95" height="3.28" style="fill:#515d56"/><rect x="69.5" y="95.57" width="6.86" height="2.58" style="fill:#6f7b74"/><rect x="69.5" y="98.15" width="6.86" height="2.58" style="fill:#515d56"/><path d="M76.29,100.73l-5.76,8.74H63.68V104.6a3.87,3.87,0,0,1,3.87-3.87Z" style="fill:#6f7b74"/><rect x="62.23" y="107.35" width="9.59" height="1.82" style="fill:#29302f"/><polygon points="64.16 135.98 64.16 148.46 66.55 148.46 69.35 143.15 71.81 143.15 71.81 135.98 64.16 135.98" style="fill:#303a37"/><polygon points="71.81 143.15 74.91 143.15 74.91 156.76 70.17 156.76 65.81 153.82 64.16 148.46 66.55 148.46 69.35 143.15 71.81 143.15" style="fill:#647168"/><polygon points="74.91 143.15 74.91 139.69 71.81 135.98 71.81 143.15 74.91 143.15" style="fill:#1f2c26"/><polygon points="59.5 160.13 74.91 160.13 74.91 156.76 70.17 156.76 65.81 153.82 59.5 160.13" style="fill:#1f2c26"/><polygon points="65.81 153.82 59.5 160.13 59.5 164.39 63.2 164.39 70.17 156.76 65.81 153.82" style="fill:#303a37"/><rect x="70.79" y="156.76" width="4.12" height="7.62" style="fill:#303a37"/><polygon points="74.91 168.03 57.47 168.03 59.5 164.39 74.91 164.39 74.91 168.03" style="fill:#647168"/><polygon points="57.47 168.03 54.13 168.03 54.59 164.21 59.5 160.13 59.5 164.39 57.47 168.03" style="fill:#1f2c26"/><polygon points="62.31 135.98 64.16 148.46 64.16 135.98 62.31 135.98" style="fill:#1f2c26"/><rect x="62.23" y="110.92" width="9.59" height="1.82" style="fill:#29302f"/><rect x="62.23" y="114.5" width="9.59" height="1.82" style="fill:#29302f"/><rect x="62.23" y="118.07" width="9.59" height="1.82" style="fill:#29302f"/><rect x="62.23" y="121.65" width="9.59" height="1.82" style="fill:#29302f"/><polygon points="71.81 125.95 74.49 128.63 74.91 139.69 71.81 135.98 71.81 125.95" style="fill:#97a3a1"/><polygon points="78.09 128.63 78.09 103.46 85.23 110.6 80.77 125.95 78.09 128.63" style="fill:#64726e"/><rect x="80.76" y="106.98" width="8.14" height="29" transform="translate(169.66 242.96) rotate(180)" style="fill:#5e6563"/><rect x="77.68" y="161.91" width="14.49" height="2.48" transform="translate(169.85 326.3) rotate(180)" style="fill:#263f2d"/><polygon points="90.27 129.39 90.27 135.98 80.77 135.98 80.77 125.95 90.27 129.39" style="fill:#a9b0af"/><rect x="92.68" y="91.89" width="3.86" height="16.09" transform="translate(189.21 199.87) rotate(180)" style="fill:#202726"/><path d="M84.94,51.35v7.86l-4.48,4.48H76.29V51.35Z" style="fill:#626d67"/><polygon points="106.68 59.32 102.41 58.82 99.48 61.75 92.68 60.31 90.39 62.6 84.94 75.41 90.99 78.49 106.68 65.48 106.68 59.32" style="fill:#67736d"/><polygon points="89.44 77.7 90.99 78.49 83.26 89.71 76.29 89.71 76.29 63.69 84.94 57.53 91.28 61.7 89.44 77.7" style="fill:#98a09e"/><rect x="76.22" y="89.71" width="6.86" height="2.58" transform="translate(159.31 182) rotate(180)" style="fill:#545d5a"/><polygon points="104.49 87.42 104.49 90.5 100.02 90.5 94.56 99.74 92.68 99.74 95.06 96.06 92.68 92.98 103.2 73.62 106.45 75.81 104.49 87.42" style="fill:#3b4841"/><path d="M104.49,77.49l-4-3.87V65.38h5.65a5,5,0,0,1,4.13,2.23c1.6,2.44,3.36,6.45.75,9.88l-2.49,10.43h-4.07Z" style="fill:#525d59"/><polygon points="102.33 75.39 92.68 92.98 92.68 76.65 100.52 70.58 102.33 75.39" style="fill:#656e6a"/><path d="M104.49,90.5h5.56l3.68,10.23-7,8.74s-2.58-2.58-10.13,0V96.38L100,90.5Z" style="fill:#5d6a62"/><rect x="92.68" y="99.74" width="1.88" height="8.24" transform="translate(187.23 207.72) rotate(180)" style="fill:#546259"/><polygon points="100.52 65.38 89.6 76.3 89.44 77.7 90.99 78.49 100.52 70.58 100.52 65.38" style="fill:#47524d"/><polygon points="102.41 58.82 100.52 65.38 106.68 65.48 106.68 59.32 102.41 58.82" style="fill:#5b675f"/><polygon points="100.52 65.38 99.48 61.75 92.68 60.31 91.28 61.7 89.6 76.3 100.52 65.38" style="fill:#2e3534"/><rect x="76.22" y="92.29" width="7.95" height="3.28" transform="translate(160.4 187.86) rotate(180)" style="fill:#3d4843"/><rect x="76.22" y="95.57" width="6.86" height="2.58" transform="translate(159.31 193.71) rotate(180)" style="fill:#536059"/><rect x="76.22" y="98.15" width="6.86" height="2.58" transform="translate(159.31 198.88) rotate(180)" style="fill:#353d3a"/><path d="M76.29,100.73l5.76,8.74H88.9V104.6A3.87,3.87,0,0,0,85,100.73Z" style="fill:#5e6563"/><rect x="80.76" y="107.35" width="9.59" height="1.82" transform="translate(171.12 216.52) rotate(180)" style="fill:#1a2322"/><polygon points="88.42 135.98 88.42 148.46 86.03 148.46 83.23 143.15 80.77 143.15 80.77 135.98 88.42 135.98" style="fill:#202926"/><polygon points="80.77 143.15 77.68 143.15 77.68 156.76 82.41 156.76 86.77 153.82 88.42 148.46 86.03 148.46 83.23 143.15 80.77 143.15" style="fill:#4e5c53"/><polygon points="77.68 143.15 77.68 139.69 80.77 135.98 80.77 143.15 77.68 143.15" style="fill:#313f37"/><polygon points="93.08 160.13 77.68 160.13 77.68 156.76 82.41 156.76 86.77 153.82 93.08 160.13" style="fill:#263f2d"/><polygon points="86.77 153.82 93.08 160.13 93.08 164.39 89.39 164.39 82.41 156.76 86.77 153.82" style="fill:#202926"/><rect x="77.68" y="156.76" width="4.12" height="7.62" transform="translate(159.47 321.15) rotate(180)" style="fill:#202926"/><polygon points="77.68 168.03 95.11 168.03 93.08 164.39 77.68 164.39 77.68 168.03" style="fill:#4c5750"/><polygon points="95.11 168.03 98.45 168.03 97.99 164.21 93.08 160.13 93.08 164.39 95.11 168.03" style="fill:#000001"/><polygon points="90.27 135.98 88.42 148.46 88.42 135.98 90.27 135.98" style="fill:#313f37"/><rect x="80.76" y="110.92" width="9.59" height="1.82" transform="translate(171.12 223.67) rotate(180)" style="fill:#1a2322"/><rect x="80.76" y="114.5" width="9.59" height="1.82" transform="translate(171.12 230.82) rotate(180)" style="fill:#1a2322"/><rect x="80.76" y="118.07" width="9.59" height="1.82" transform="translate(171.12 237.97) rotate(180)" style="fill:#1a2322"/><rect x="80.76" y="121.65" width="9.59" height="1.82" transform="translate(171.12 245.12) rotate(180)" style="fill:#1a2322"/><polygon points="80.77 125.95 78.09 128.63 77.68 139.69 80.77 135.98 80.77 125.95" style="fill:#6c7775"/><polygon points="48.52 102.55 50.87 117.44 56.06 109.57 56.06 98.93 52.29 98.15 48.52 102.55" style="fill:#2f001d"/><path d="M49.42,119.1l-.37.58a4.57,4.57,0,0,1-1.87-2.81,5.8,5.8,0,0,1,1.29-4.45l.56.4a5.14,5.14,0,0,0-1.17,3.92A3.94,3.94,0,0,0,49.42,119.1Z"/><path d="M49.61,122.59l-.64.78a14.38,14.38,0,0,1-3.56-4.69c-1.26-2.68-2.06-6.9,1.31-11.72l.82.58c-2.48,3.55-2.89,7.16-1.22,10.72A13.53,13.53,0,0,0,49.61,122.59Z"/><rect x="49.28" y="108.49" width="3.66" height="16.75" transform="translate(102.23 233.73) rotate(180)" style="fill:#252827"/><path d="M52.74,118.22l-3.06.14a1.22,1.22,0,0,0-1.15,1.39l.62,8.74,3.12-.15L54,119.52A1.23,1.23,0,0,0,52.74,118.22Z" style="fill:#2f001d"/><rect x="48.18" y="127.69" width="5.51" height="6.48" transform="translate(107.89 259.36) rotate(177.34)" style="fill:#0b181b"/><path d="M51.13,134.17a4,4,0,0,0,0,.87,1.52,1.52,0,0,0,.77,1.24c.91.5,2.46,2,2.9,6.68a.42.42,0,0,0,.44.39h0a.82.82,0,0,0,.78-.85l-.29-6.25a1.22,1.22,0,0,0-.4-.84L53.83,134Z" style="fill:#000b10"/><path d="M51.33,134.16a3.59,3.59,0,0,1,.09.87,1.46,1.46,0,0,1-.73,1.3c-1,.59-2.55,2.27-2.58,6.94a.46.46,0,0,1-.46.43h0a.86.86,0,0,1-.95-.77l-.29-6.25a1.13,1.13,0,0,1,.36-.88l1.54-1.5Z" style="fill:#323e3f"/><path d="M47.78,111.12v2.37a1.68,1.68,0,0,0,1.68,1.68h3.2a2.12,2.12,0,0,0,2.12-2.12v-.35Z" style="fill:#303a37"/><path d="M46.5,104.22s-3.25,4.93,1.28,6.9l7.1,2.37s4.24-1.68,1.09-9.27Z" style="fill:#0d1716"/><polygon points="103.8 104.06 101.45 118.94 96.26 111.07 96.26 100.44 100.03 99.65 103.8 104.06" style="fill:#1b0013"/><path d="M102.89,120.61l.37.58a4.56,4.56,0,0,0,1.87-2.82,5.76,5.76,0,0,0-1.29-4.45l-.56.4a5.11,5.11,0,0,1,1.17,3.92A3.85,3.85,0,0,1,102.89,120.61Z"/><path d="M102.71,124.09l.63.79a14.5,14.5,0,0,0,3.56-4.69c1.27-2.69,2.06-6.91-1.31-11.73l-.82.58c2.48,3.55,2.9,7.16,1.22,10.72A13.28,13.28,0,0,1,102.71,124.09Z"/><rect x="99.37" y="109.99" width="3.66" height="16.75" style="fill:#0c1012"/><path d="M99.57,119.72l3.06.15a1.22,1.22,0,0,1,1.16,1.38l-.63,8.74-3.12-.14L98.3,121A1.22,1.22,0,0,1,99.57,119.72Z" style="fill:#1a0012"/><rect x="98.62" y="129.19" width="5.51" height="6.48" transform="matrix(1, 0.05, -0.05, 1, 6.25, -4.56)" style="fill:#000001"/><path d="M101.18,135.67a4.62,4.62,0,0,1,0,.88,1.54,1.54,0,0,1-.77,1.23c-.91.5-2.47,2-2.9,6.69a.44.44,0,0,1-.45.39h0a.82.82,0,0,1-.77-.85l.29-6.26a1.19,1.19,0,0,1,.39-.84l1.5-1.37Z" style="fill:#000b10"/><path d="M101,135.66a3.66,3.66,0,0,0-.09.87,1.51,1.51,0,0,0,.74,1.31c1,.58,2.55,2.26,2.58,6.94a.45.45,0,0,0,.46.43h0a.87.87,0,0,0,1-.77l.29-6.25a1.18,1.18,0,0,0-.36-.88L104,135.8Z" style="fill:#323e3f"/><path d="M104.53,112.63V115a1.68,1.68,0,0,1-1.67,1.68H99.65a2.12,2.12,0,0,1-2.12-2.12v-.35Z" style="fill:#22302a"/><path d="M105.82,105.72s3.25,4.94-1.29,6.91L97.43,115s-4.24-1.67-1.08-9.27Z"/><polygon points="52.29 98.15 42.53 90.5 52.56 90.5 56.03 96.38 56.06 98.93 52.29 98.15" style="fill:#29302f"/><polygon points="100.03 99.65 110.05 90.5 100.02 90.5 96.55 96.38 96.26 100.44 100.03 99.65" style="fill:#202726"/><polygon points="67.55 100.73 74.55 107.73 78.09 107.73 85.06 100.76 67.55 100.73" style="fill:#353d3a"/><rect x="71.61" y="41.83" width="1.62" height="7.8" style="fill:#6f7b74"/><polygon points="70.06 67.77 76.21 68.5 76.21 74.94 71.43 74.94 68.1 67.49 70.06 67.77 70.06 67.77" style="fill:#f28c30"/><polygon points="82.32 67.77 76.17 68.5 76.17 74.94 80.94 74.94 84.28 67.49 82.32 67.77 82.32 67.77" style="fill:#df7b28"/></g></g></g></svg>