<svg xmlns="http://www.w3.org/2000/svg" xmlns:xlink="http://www.w3.org/1999/xlink" viewBox="0 0 148.25 207.55"><defs><clipPath id="clip-path"><rect width="148.25" height="207.55" style="fill:none"/></clipPath><linearGradient id="Degradado_sin_nombre_5" x1="-14.83" y1="14.83" x2="163.07" y2="192.72" gradientUnits="userSpaceOnUse"><stop offset="0" stop-color="#fef201"/><stop offset="1" stop-color="#ff1443"/></linearGradient></defs><title>Asset 135</title><g style="isolation:isolate"><g id="Layer_2" data-name="Layer 2"><g id="Layer_3" data-name="Layer 3"><g style="clip-path:url(#clip-path)"><rect width="148.25" height="207.55" style="fill:url(#Degradado_sin_nombre_5)"/><g style="opacity:0.46;mix-blend-mode:soft-light"><circle cx="4.8" cy="8.78" r="1" style="fill:#fef201"/><circle cx="4.8" cy="21.82" r="1" style="fill:#fef201"/><circle cx="4.8" cy="34.87" r="1" style="fill:#fef201"/><circle cx="4.8" cy="47.91" r="1" style="fill:#fef201"/><circle cx="4.8" cy="60.95" r="1" style="fill:#fef201"/><circle cx="4.8" cy="74" r="1" style="fill:#fef201"/><circle cx="4.8" cy="87.04" r="1" style="fill:#fef201"/><circle cx="4.8" cy="100.09" r="1" style="fill:#fef201"/><circle cx="4.8" cy="113.13" r="1" style="fill:#fef201"/><circle cx="4.8" cy="126.18" r="1" style="fill:#fef201"/><circle cx="4.8" cy="139.22" r="1" style="fill:#fef201"/><circle cx="4.8" cy="152.26" r="1" style="fill:#fef201"/><circle cx="4.8" cy="165.31" r="1" style="fill:#fef201"/><circle cx="4.8" cy="178.35" r="1" style="fill:#fef201"/><circle cx="4.8" cy="191.4" r="1" style="fill:#fef201"/><circle cx="4.8" cy="204.44" r="1" style="fill:#fef201"/><path d="M12.15,4.11a1,1,0,1,0,0-2,1,1,0,0,0-1,1A1,1,0,0,0,12.15,4.11Z" style="fill:#fef201"/><path d="M12.18,15.15a1,1,0,1,0,1,1A1,1,0,0,0,12.18,15.15Z" style="fill:#fef201"/><path d="M12.23,28.2a1,1,0,1,0,1,1A1,1,0,0,0,12.23,28.2Z" style="fill:#fef201"/><path d="M12.27,41.24a1,1,0,1,0,0,2,1,1,0,0,0,0-2Z" style="fill:#fef201"/><path d="M12.31,54.28a1,1,0,0,0-1,1,1,1,0,0,0,1,1,1,1,0,1,0,0-2Z" style="fill:#fef201"/><path d="M12.36,67.33a1,1,0,1,0,1,1A1,1,0,0,0,12.36,67.33Z" style="fill:#fef201"/><path d="M12.4,80.37a1,1,0,0,0-1,1,1,1,0,0,0,2,0A1,1,0,0,0,12.4,80.37Z" style="fill:#fef201"/><path d="M12.44,93.42a1,1,0,1,0,0,2,1,1,0,0,0,0-2Z" style="fill:#fef201"/><path d="M12.48,106.46a1,1,0,0,0,0,2,1,1,0,1,0,0-2Z" style="fill:#fef201"/><path d="M12.53,119.51a1,1,0,1,0,0,2,1,1,0,0,0,1-1A1,1,0,0,0,12.53,119.51Z" style="fill:#fef201"/><path d="M12.57,132.55a1,1,0,1,0,1,1A1,1,0,0,0,12.57,132.55Z" style="fill:#fef201"/><path d="M12.61,145.6a1,1,0,0,0-1,1,1,1,0,0,0,1,1,1,1,0,0,0,1-1A1,1,0,0,0,12.61,145.6Z" style="fill:#fef201"/><path d="M12.65,158.64a1,1,0,1,0,1,1A1,1,0,0,0,12.65,158.64Z" style="fill:#fef201"/><path d="M12.7,171.68a1,1,0,0,0-1,1,1,1,0,0,0,2,0A1,1,0,0,0,12.7,171.68Z" style="fill:#fef201"/><path d="M12.74,184.73a1,1,0,1,0,1,1A1,1,0,0,0,12.74,184.73Z" style="fill:#fef201"/><path d="M12.78,197.77a1,1,0,1,0,0,2,1,1,0,0,0,1-1A1,1,0,0,0,12.78,197.77Z" style="fill:#fef201"/><circle cx="21.13" cy="8.78" r="1" style="fill:#fef201"/><circle cx="21.13" cy="21.82" r="1" style="fill:#fef201"/><circle cx="21.13" cy="34.87" r="1" style="fill:#fef201"/><circle cx="21.13" cy="47.91" r="1" style="fill:#fef201"/><circle cx="21.13" cy="60.95" r="1" style="fill:#fef201"/><circle cx="21.13" cy="74" r="1" style="fill:#fef201"/><circle cx="21.13" cy="87.04" r="1" style="fill:#fef201"/><circle cx="21.13" cy="100.09" r="1" style="fill:#fef201"/><circle cx="21.13" cy="113.13" r="1" style="fill:#fef201"/><circle cx="21.13" cy="126.18" r="1" style="fill:#fef201"/><circle cx="21.13" cy="139.22" r="1" style="fill:#fef201"/><circle cx="21.13" cy="152.26" r="1" style="fill:#fef201"/><circle cx="21.13" cy="165.31" r="1" style="fill:#fef201"/><circle cx="21.13" cy="178.35" r="1" style="fill:#fef201"/><circle cx="21.13" cy="191.4" r="1" style="fill:#fef201"/><circle cx="21.13" cy="204.44" r="1" style="fill:#fef201"/><path d="M28.48,4.11a1,1,0,0,0,1-1,1,1,0,1,0-1,1Z" style="fill:#fef201"/><path d="M28.52,15.15a1,1,0,0,0-1,1,1,1,0,1,0,1-1Z" style="fill:#fef201"/><path d="M28.56,28.2a1,1,0,0,0-1,1,1,1,0,0,0,1,1,1,1,0,0,0,0-2Z" style="fill:#fef201"/><path d="M28.6,41.24a1,1,0,0,0,0,2,1,1,0,1,0,0-2Z" style="fill:#fef201"/><path d="M28.65,54.28a1,1,0,0,0-1,1,1,1,0,0,0,1,1,1,1,0,1,0,0-2Z" style="fill:#fef201"/><path d="M28.69,67.33a1,1,0,1,0,1,1A1,1,0,0,0,28.69,67.33Z" style="fill:#fef201"/><path d="M28.73,80.37a1,1,0,1,0,0,2,1,1,0,0,0,1-1A1,1,0,0,0,28.73,80.37Z" style="fill:#fef201"/><path d="M28.77,93.42a1,1,0,0,0,0,2,1,1,0,1,0,0-2Z" style="fill:#fef201"/><path d="M28.82,106.46a1,1,0,1,0,1,1A1,1,0,0,0,28.82,106.46Z" style="fill:#fef201"/><path d="M28.86,119.51a1,1,0,1,0,1,1A1,1,0,0,0,28.86,119.51Z" style="fill:#fef201"/><path d="M28.9,132.55a1,1,0,1,0,1,1A1,1,0,0,0,28.9,132.55Z" style="fill:#fef201"/><path d="M28.94,145.6a1,1,0,0,0,0,2,1,1,0,0,0,1-1A1,1,0,0,0,28.94,145.6Z" style="fill:#fef201"/><path d="M29,158.64a1,1,0,1,0,1,1A1,1,0,0,0,29,158.64Z" style="fill:#fef201"/><path d="M29,171.68a1,1,0,0,0-1,1,1,1,0,0,0,2,0A1,1,0,0,0,29,171.68Z" style="fill:#fef201"/><path d="M29.07,184.73a1,1,0,0,0-1,1,1,1,0,1,0,1-1Z" style="fill:#fef201"/><path d="M29.11,197.77a1,1,0,1,0,1,1A1,1,0,0,0,29.11,197.77Z" style="fill:#fef201"/><circle cx="37.47" cy="8.78" r="1" style="fill:#fef201"/><circle cx="37.47" cy="21.82" r="1" style="fill:#fef201"/><circle cx="37.47" cy="34.87" r="1" style="fill:#fef201"/><circle cx="37.47" cy="47.91" r="1" style="fill:#fef201"/><circle cx="37.47" cy="60.95" r="1" style="fill:#fef201"/><circle cx="37.47" cy="74" r="1" style="fill:#fef201"/><circle cx="37.47" cy="87.04" r="1" style="fill:#fef201"/><circle cx="37.47" cy="100.09" r="1" style="fill:#fef201"/><circle cx="37.47" cy="113.13" r="1" style="fill:#fef201"/><circle cx="37.47" cy="126.18" r="1" style="fill:#fef201"/><circle cx="37.47" cy="139.22" r="1" style="fill:#fef201"/><circle cx="37.47" cy="152.26" r="1" style="fill:#fef201"/><circle cx="37.47" cy="165.31" r="1" style="fill:#fef201"/><circle cx="37.47" cy="178.35" r="1" style="fill:#fef201"/><circle cx="37.47" cy="191.4" r="1" style="fill:#fef201"/><circle cx="37.47" cy="204.44" r="1" style="fill:#fef201"/><path d="M44.82,4.11a1,1,0,1,0-1-1A1,1,0,0,0,44.82,4.11Z" style="fill:#fef201"/><path d="M44.85,15.15a1,1,0,1,0,0,2,1,1,0,0,0,1-1A1,1,0,0,0,44.85,15.15Z" style="fill:#fef201"/><path d="M44.89,28.2a1,1,0,0,0,0,2,1,1,0,0,0,1-1A1,1,0,0,0,44.89,28.2Z" style="fill:#fef201"/><path d="M44.94,41.24a1,1,0,1,0,1,1A1,1,0,0,0,44.94,41.24Z" style="fill:#fef201"/><path d="M45,54.28a1,1,0,0,0-1,1,1,1,0,0,0,2,0A1,1,0,0,0,45,54.28Z" style="fill:#fef201"/><path d="M45,67.33a1,1,0,0,0-1,1,1,1,0,1,0,1-1Z" style="fill:#fef201"/><path d="M45.06,80.37a1,1,0,0,0-1,1,1,1,0,0,0,1,1,1,1,0,1,0,0-2Z" style="fill:#fef201"/><path d="M45.11,93.42a1,1,0,1,0,1,1A1,1,0,0,0,45.11,93.42Z" style="fill:#fef201"/><path d="M45.15,106.46a1,1,0,1,0,0,2,1,1,0,0,0,0-2Z" style="fill:#fef201"/><path d="M45.19,119.51a1,1,0,0,0-1,1,1,1,0,1,0,1-1Z" style="fill:#fef201"/><path d="M45.24,132.55a1,1,0,1,0,1,1A1,1,0,0,0,45.24,132.55Z" style="fill:#fef201"/><path d="M45.28,145.6a1,1,0,1,0,1,1A1,1,0,0,0,45.28,145.6Z" style="fill:#fef201"/><path d="M45.32,158.64a1,1,0,1,0,0,2,1,1,0,0,0,0-2Z" style="fill:#fef201"/><path d="M45.36,171.68a1,1,0,0,0-1,1,1,1,0,0,0,1,1,1,1,0,1,0,0-2Z" style="fill:#fef201"/><path d="M45.41,184.73a1,1,0,1,0,1,1A1,1,0,0,0,45.41,184.73Z" style="fill:#fef201"/><path d="M45.45,197.77a1,1,0,0,0-1,1,1,1,0,1,0,1-1Z" style="fill:#fef201"/><circle cx="53.8" cy="8.78" r="1" style="fill:#fef201"/><circle cx="53.8" cy="21.82" r="1" style="fill:#fef201"/><circle cx="53.8" cy="34.87" r="1" style="fill:#fef201"/><circle cx="53.8" cy="47.91" r="1" style="fill:#fef201"/><circle cx="53.8" cy="60.95" r="1" style="fill:#fef201"/><circle cx="53.8" cy="74" r="1" style="fill:#fef201"/><circle cx="53.8" cy="87.04" r="1" style="fill:#fef201"/><circle cx="53.8" cy="100.09" r="1" style="fill:#fef201"/><circle cx="53.8" cy="113.13" r="1" style="fill:#fef201"/><circle cx="53.8" cy="126.18" r="1" style="fill:#fef201"/><circle cx="53.8" cy="139.22" r="1" style="fill:#fef201"/><circle cx="53.8" cy="152.26" r="1" style="fill:#fef201"/><circle cx="53.8" cy="165.31" r="1" style="fill:#fef201"/><circle cx="53.8" cy="178.35" r="1" style="fill:#fef201"/><circle cx="53.8" cy="191.4" r="1" style="fill:#fef201"/><circle cx="53.8" cy="204.44" r="1" style="fill:#fef201"/><path d="M61.15,4.11a1,1,0,1,0,0-2,1,1,0,0,0-1,1A1,1,0,0,0,61.15,4.11Z" style="fill:#fef201"/><path d="M61.18,15.15a1,1,0,1,0,1,1A1,1,0,0,0,61.18,15.15Z" style="fill:#fef201"/><path d="M61.23,28.2a1,1,0,1,0,1,1A1,1,0,0,0,61.23,28.2Z" style="fill:#fef201"/><path d="M61.27,41.24a1,1,0,1,0,0,2,1,1,0,0,0,0-2Z" style="fill:#fef201"/><path d="M61.31,54.28a1,1,0,0,0-1,1,1,1,0,0,0,1,1,1,1,0,1,0,0-2Z" style="fill:#fef201"/><path d="M61.36,67.33a1,1,0,1,0,1,1A1,1,0,0,0,61.36,67.33Z" style="fill:#fef201"/><path d="M61.4,80.37a1,1,0,0,0-1,1,1,1,0,0,0,2,0A1,1,0,0,0,61.4,80.37Z" style="fill:#fef201"/><path d="M61.44,93.42a1,1,0,1,0,0,2,1,1,0,0,0,0-2Z" style="fill:#fef201"/><path d="M61.48,106.46a1,1,0,0,0,0,2,1,1,0,1,0,0-2Z" style="fill:#fef201"/><path d="M61.53,119.51a1,1,0,0,0,0,2,1,1,0,0,0,1-1A1,1,0,0,0,61.53,119.51Z" style="fill:#fef201"/><path d="M61.57,132.55a1,1,0,1,0,1,1A1,1,0,0,0,61.57,132.55Z" style="fill:#fef201"/><path d="M61.61,145.6a1,1,0,0,0-1,1,1,1,0,0,0,1,1,1,1,0,0,0,1-1A1,1,0,0,0,61.61,145.6Z" style="fill:#fef201"/><path d="M61.65,158.64a1,1,0,1,0,1,1A1,1,0,0,0,61.65,158.64Z" style="fill:#fef201"/><path d="M61.7,171.68a1,1,0,0,0-1,1,1,1,0,0,0,2,0A1,1,0,0,0,61.7,171.68Z" style="fill:#fef201"/><path d="M61.74,184.73a1,1,0,1,0,1,1A1,1,0,0,0,61.74,184.73Z" style="fill:#fef201"/><path d="M61.78,197.77a1,1,0,1,0,0,2,1,1,0,0,0,1-1A1,1,0,0,0,61.78,197.77Z" style="fill:#fef201"/><circle cx="70.13" cy="8.78" r="1" style="fill:#fef201"/><circle cx="70.13" cy="21.82" r="1" style="fill:#fef201"/><circle cx="70.13" cy="34.87" r="1" style="fill:#fef201"/><circle cx="70.13" cy="47.91" r="1" style="fill:#fef201"/><circle cx="70.13" cy="60.95" r="1" style="fill:#fef201"/><circle cx="70.13" cy="74" r="1" style="fill:#fef201"/><circle cx="70.13" cy="87.04" r="1" style="fill:#fef201"/><circle cx="70.13" cy="100.09" r="1" style="fill:#fef201"/><circle cx="70.13" cy="113.13" r="1" style="fill:#fef201"/><circle cx="70.13" cy="126.18" r="1" style="fill:#fef201"/><circle cx="70.13" cy="139.22" r="1" style="fill:#fef201"/><circle cx="70.13" cy="152.26" r="1" style="fill:#fef201"/><circle cx="70.13" cy="165.31" r="1" style="fill:#fef201"/><circle cx="70.13" cy="178.35" r="1" style="fill:#fef201"/><circle cx="70.13" cy="191.4" r="1" style="fill:#fef201"/><circle cx="70.13" cy="204.44" r="1" style="fill:#fef201"/><path d="M77.48,4.11a1,1,0,0,0,1-1,1,1,0,1,0-1,1Z" style="fill:#fef201"/><path d="M77.52,15.15a1,1,0,0,0-1,1,1,1,0,1,0,1-1Z" style="fill:#fef201"/><path d="M77.56,28.2a1,1,0,0,0-1,1,1,1,0,0,0,1,1,1,1,0,0,0,0-2Z" style="fill:#fef201"/><path d="M77.6,41.24a1,1,0,0,0,0,2,1,1,0,1,0,0-2Z" style="fill:#fef201"/><path d="M77.65,54.28a1,1,0,0,0-1,1,1,1,0,0,0,1,1,1,1,0,0,0,0-2Z" style="fill:#fef201"/><path d="M77.69,67.33a1,1,0,1,0,1,1A1,1,0,0,0,77.69,67.33Z" style="fill:#fef201"/><path d="M77.73,80.37a1,1,0,1,0,0,2,1,1,0,0,0,1-1A1,1,0,0,0,77.73,80.37Z" style="fill:#fef201"/><path d="M77.77,93.42a1,1,0,0,0,0,2,1,1,0,1,0,0-2Z" style="fill:#fef201"/><path d="M77.82,106.46a1,1,0,1,0,1,1A1,1,0,0,0,77.82,106.46Z" style="fill:#fef201"/><path d="M77.86,119.51a1,1,0,1,0,1,1A1,1,0,0,0,77.86,119.51Z" style="fill:#fef201"/><path d="M77.9,132.55a1,1,0,1,0,1,1A1,1,0,0,0,77.9,132.55Z" style="fill:#fef201"/><path d="M77.94,145.6a1,1,0,0,0,0,2,1,1,0,0,0,1-1A1,1,0,0,0,77.94,145.6Z" style="fill:#fef201"/><path d="M78,158.64a1,1,0,1,0,1,1A1,1,0,0,0,78,158.64Z" style="fill:#fef201"/><path d="M78,171.68a1,1,0,0,0-1,1,1,1,0,0,0,2,0A1,1,0,0,0,78,171.68Z" style="fill:#fef201"/><path d="M78.07,184.73a1,1,0,0,0-1,1,1,1,0,1,0,1-1Z" style="fill:#fef201"/><path d="M78.11,197.77a1,1,0,1,0,1,1A1,1,0,0,0,78.11,197.77Z" style="fill:#fef201"/><circle cx="86.47" cy="8.78" r="1" style="fill:#fef201"/><circle cx="86.47" cy="21.82" r="1" style="fill:#fef201"/><circle cx="86.47" cy="34.87" r="1" style="fill:#fef201"/><circle cx="86.47" cy="47.91" r="1" style="fill:#fef201"/><circle cx="86.47" cy="60.95" r="1" style="fill:#fef201"/><circle cx="86.47" cy="74" r="1" style="fill:#fef201"/><circle cx="86.47" cy="87.04" r="1" style="fill:#fef201"/><circle cx="86.47" cy="100.09" r="1" style="fill:#fef201"/><circle cx="86.47" cy="113.13" r="1" style="fill:#fef201"/><circle cx="86.47" cy="126.18" r="1" style="fill:#fef201"/><circle cx="86.47" cy="139.22" r="1" style="fill:#fef201"/><circle cx="86.47" cy="152.26" r="1" style="fill:#fef201"/><circle cx="86.47" cy="165.31" r="1" style="fill:#fef201"/><circle cx="86.47" cy="178.35" r="1" style="fill:#fef201"/><circle cx="86.47" cy="191.4" r="1" style="fill:#fef201"/><circle cx="86.47" cy="204.44" r="1" style="fill:#fef201"/><path d="M93.82,4.11a1,1,0,1,0-1-1A1,1,0,0,0,93.82,4.11Z" style="fill:#fef201"/><path d="M93.85,15.15a1,1,0,1,0,0,2,1,1,0,0,0,1-1A1,1,0,0,0,93.85,15.15Z" style="fill:#fef201"/><path d="M93.89,28.2a1,1,0,0,0,0,2,1,1,0,0,0,1-1A1,1,0,0,0,93.89,28.2Z" style="fill:#fef201"/><path d="M93.94,41.24a1,1,0,1,0,1,1A1,1,0,0,0,93.94,41.24Z" style="fill:#fef201"/><path d="M94,54.28a1,1,0,0,0-1,1,1,1,0,0,0,2,0A1,1,0,0,0,94,54.28Z" style="fill:#fef201"/><path d="M94,67.33a1,1,0,0,0-1,1,1,1,0,1,0,1-1Z" style="fill:#fef201"/><path d="M94.06,80.37a1,1,0,0,0-1,1,1,1,0,0,0,1,1,1,1,0,1,0,0-2Z" style="fill:#fef201"/><path d="M94.11,93.42a1,1,0,1,0,1,1A1,1,0,0,0,94.11,93.42Z" style="fill:#fef201"/><path d="M94.15,106.46a1,1,0,1,0,0,2,1,1,0,0,0,0-2Z" style="fill:#fef201"/><path d="M94.19,119.51a1,1,0,0,0-1,1,1,1,0,1,0,1-1Z" style="fill:#fef201"/><path d="M94.24,132.55a1,1,0,1,0,1,1A1,1,0,0,0,94.24,132.55Z" style="fill:#fef201"/><path d="M94.28,145.6a1,1,0,1,0,1,1A1,1,0,0,0,94.28,145.6Z" style="fill:#fef201"/><path d="M94.32,158.64a1,1,0,1,0,0,2,1,1,0,0,0,0-2Z" style="fill:#fef201"/><path d="M94.36,171.68a1,1,0,0,0-1,1,1,1,0,0,0,1,1,1,1,0,1,0,0-2Z" style="fill:#fef201"/><path d="M94.41,184.73a1,1,0,1,0,1,1A1,1,0,0,0,94.41,184.73Z" style="fill:#fef201"/><path d="M94.45,197.77a1,1,0,0,0-1,1,1,1,0,1,0,1-1Z" style="fill:#fef201"/><circle cx="102.8" cy="8.78" r="1" style="fill:#fef201"/><circle cx="102.8" cy="21.82" r="1" style="fill:#fef201"/><circle cx="102.8" cy="34.87" r="1" style="fill:#fef201"/><circle cx="102.8" cy="47.91" r="1" style="fill:#fef201"/><circle cx="102.8" cy="60.95" r="1" style="fill:#fef201"/><circle cx="102.8" cy="74" r="1" style="fill:#fef201"/><circle cx="102.8" cy="87.04" r="1" style="fill:#fef201"/><circle cx="102.8" cy="100.09" r="1" style="fill:#fef201"/><circle cx="102.8" cy="113.13" r="1" style="fill:#fef201"/><circle cx="102.8" cy="126.18" r="1" style="fill:#fef201"/><circle cx="102.8" cy="139.22" r="1" style="fill:#fef201"/><circle cx="102.8" cy="152.26" r="1" style="fill:#fef201"/><circle cx="102.8" cy="165.31" r="1" style="fill:#fef201"/><circle cx="102.8" cy="178.35" r="1" style="fill:#fef201"/><circle cx="102.8" cy="191.4" r="1" style="fill:#fef201"/><circle cx="102.8" cy="204.44" r="1" style="fill:#fef201"/><path d="M110.15,4.11a1,1,0,1,0,0-2,1,1,0,0,0-1,1A1,1,0,0,0,110.15,4.11Z" style="fill:#fef201"/><path d="M110.18,15.15a1,1,0,1,0,1,1A1,1,0,0,0,110.18,15.15Z" style="fill:#fef201"/><path d="M110.23,28.2a1,1,0,1,0,1,1A1,1,0,0,0,110.23,28.2Z" style="fill:#fef201"/><path d="M110.27,41.24a1,1,0,1,0,0,2,1,1,0,0,0,0-2Z" style="fill:#fef201"/><path d="M110.31,54.28a1,1,0,0,0-1,1,1,1,0,0,0,1,1,1,1,0,1,0,0-2Z" style="fill:#fef201"/><path d="M110.36,67.33a1,1,0,1,0,1,1A1,1,0,0,0,110.36,67.33Z" style="fill:#fef201"/><path d="M110.4,80.37a1,1,0,0,0-1,1,1,1,0,0,0,2,0A1,1,0,0,0,110.4,80.37Z" style="fill:#fef201"/><path d="M110.44,93.42a1,1,0,1,0,0,2,1,1,0,0,0,0-2Z" style="fill:#fef201"/><path d="M110.48,106.46a1,1,0,0,0,0,2,1,1,0,1,0,0-2Z" style="fill:#fef201"/><path d="M110.53,119.51a1,1,0,0,0,0,2,1,1,0,0,0,1-1A1,1,0,0,0,110.53,119.51Z" style="fill:#fef201"/><path d="M110.57,132.55a1,1,0,1,0,1,1A1,1,0,0,0,110.57,132.55Z" style="fill:#fef201"/><path d="M110.61,145.6a1,1,0,0,0-1,1,1,1,0,0,0,1,1,1,1,0,0,0,1-1A1,1,0,0,0,110.61,145.6Z" style="fill:#fef201"/><path d="M110.65,158.64a1,1,0,1,0,1,1A1,1,0,0,0,110.65,158.64Z" style="fill:#fef201"/><path d="M110.7,171.68a1,1,0,0,0-1,1,1,1,0,0,0,2,0A1,1,0,0,0,110.7,171.68Z" style="fill:#fef201"/><path d="M110.74,184.73a1,1,0,1,0,1,1A1,1,0,0,0,110.74,184.73Z" style="fill:#fef201"/><path d="M110.78,197.77a1,1,0,1,0,0,2,1,1,0,0,0,1-1A1,1,0,0,0,110.78,197.77Z" style="fill:#fef201"/><circle cx="119.13" cy="8.78" r="1" style="fill:#fef201"/><circle cx="119.13" cy="21.82" r="1" style="fill:#fef201"/><circle cx="119.13" cy="34.87" r="1" style="fill:#fef201"/><circle cx="119.13" cy="47.91" r="1" style="fill:#fef201"/><circle cx="119.13" cy="60.95" r="1" style="fill:#fef201"/><circle cx="119.13" cy="74" r="1" style="fill:#fef201"/><circle cx="119.13" cy="87.04" r="1" style="fill:#fef201"/><circle cx="119.13" cy="100.09" r="1" style="fill:#fef201"/><circle cx="119.13" cy="113.13" r="1" style="fill:#fef201"/><circle cx="119.13" cy="126.18" r="1" style="fill:#fef201"/><circle cx="119.13" cy="139.22" r="1" style="fill:#fef201"/><circle cx="119.13" cy="152.26" r="1" style="fill:#fef201"/><circle cx="119.13" cy="165.31" r="1" style="fill:#fef201"/><circle cx="119.13" cy="178.35" r="1" style="fill:#fef201"/><circle cx="119.13" cy="191.4" r="1" style="fill:#fef201"/><circle cx="119.13" cy="204.44" r="1" style="fill:#fef201"/><path d="M126.48,4.11a1,1,0,0,0,1-1,1,1,0,1,0-1,1Z" style="fill:#fef201"/><path d="M126.52,15.15a1,1,0,0,0-1,1,1,1,0,1,0,1-1Z" style="fill:#fef201"/><path d="M126.56,28.2a1,1,0,0,0-1,1,1,1,0,0,0,1,1,1,1,0,0,0,0-2Z" style="fill:#fef201"/><path d="M126.6,41.24a1,1,0,0,0,0,2,1,1,0,1,0,0-2Z" style="fill:#fef201"/><path d="M126.65,54.28a1,1,0,0,0-1,1,1,1,0,0,0,1,1,1,1,0,0,0,0-2Z" style="fill:#fef201"/><path d="M126.69,67.33a1,1,0,1,0,1,1A1,1,0,0,0,126.69,67.33Z" style="fill:#fef201"/><path d="M126.73,80.37a1,1,0,1,0,0,2,1,1,0,0,0,1-1A1,1,0,0,0,126.73,80.37Z" style="fill:#fef201"/><path d="M126.77,93.42a1,1,0,0,0,0,2,1,1,0,1,0,0-2Z" style="fill:#fef201"/><path d="M126.82,106.46a1,1,0,1,0,1,1A1,1,0,0,0,126.82,106.46Z" style="fill:#fef201"/><path d="M126.86,119.51a1,1,0,1,0,1,1A1,1,0,0,0,126.86,119.51Z" style="fill:#fef201"/><path d="M126.9,132.55a1,1,0,1,0,1,1A1,1,0,0,0,126.9,132.55Z" style="fill:#fef201"/><path d="M126.94,145.6a1,1,0,0,0,0,2,1,1,0,0,0,1-1A1,1,0,0,0,126.94,145.6Z" style="fill:#fef201"/><path d="M127,158.64a1,1,0,1,0,1,1A1,1,0,0,0,127,158.64Z" style="fill:#fef201"/><path d="M127,171.68a1,1,0,0,0-1,1,1,1,0,0,0,2,0A1,1,0,0,0,127,171.68Z" style="fill:#fef201"/><path d="M127.07,184.73a1,1,0,0,0-1,1,1,1,0,1,0,1-1Z" style="fill:#fef201"/><path d="M127.11,197.77a1,1,0,1,0,1,1A1,1,0,0,0,127.11,197.77Z" style="fill:#fef201"/><circle cx="135.47" cy="8.78" r="1" style="fill:#fef201"/><circle cx="135.47" cy="21.82" r="1" style="fill:#fef201"/><circle cx="135.47" cy="34.87" r="1" style="fill:#fef201"/><circle cx="135.47" cy="47.91" r="1" style="fill:#fef201"/><circle cx="135.47" cy="60.95" r="1" style="fill:#fef201"/><circle cx="135.47" cy="74" r="1" style="fill:#fef201"/><circle cx="135.47" cy="87.04" r="1" style="fill:#fef201"/><circle cx="135.47" cy="100.09" r="1" style="fill:#fef201"/><circle cx="135.47" cy="113.13" r="1" style="fill:#fef201"/><circle cx="135.47" cy="126.18" r="1" style="fill:#fef201"/><circle cx="135.47" cy="139.22" r="1" style="fill:#fef201"/><circle cx="135.47" cy="152.26" r="1" style="fill:#fef201"/><circle cx="135.47" cy="165.31" r="1" style="fill:#fef201"/><circle cx="135.47" cy="178.35" r="1" style="fill:#fef201"/><circle cx="135.47" cy="191.4" r="1" style="fill:#fef201"/><circle cx="135.47" cy="204.44" r="1" style="fill:#fef201"/><path d="M142.82,4.11a1,1,0,1,0-1-1A1,1,0,0,0,142.82,4.11Z" style="fill:#fef201"/><path d="M142.85,15.15a1,1,0,1,0,0,2,1,1,0,0,0,1-1A1,1,0,0,0,142.85,15.15Z" style="fill:#fef201"/><path d="M142.89,28.2a1,1,0,0,0,0,2,1,1,0,0,0,1-1A1,1,0,0,0,142.89,28.2Z" style="fill:#fef201"/><path d="M142.94,41.24a1,1,0,1,0,1,1A1,1,0,0,0,142.94,41.24Z" style="fill:#fef201"/><path d="M143,54.28a1,1,0,0,0-1,1,1,1,0,0,0,2,0A1,1,0,0,0,143,54.28Z" style="fill:#fef201"/><path d="M143,67.33a1,1,0,0,0-1,1,1,1,0,1,0,1-1Z" style="fill:#fef201"/><path d="M143.06,80.37a1,1,0,0,0-1,1,1,1,0,0,0,1,1,1,1,0,1,0,0-2Z" style="fill:#fef201"/><path d="M143.11,93.42a1,1,0,1,0,1,1A1,1,0,0,0,143.11,93.42Z" style="fill:#fef201"/><path d="M143.15,106.46a1,1,0,1,0,0,2,1,1,0,0,0,0-2Z" style="fill:#fef201"/><path d="M143.19,119.51a1,1,0,0,0-1,1,1,1,0,1,0,1-1Z" style="fill:#fef201"/><path d="M143.24,132.55a1,1,0,1,0,1,1A1,1,0,0,0,143.24,132.55Z" style="fill:#fef201"/><path d="M143.28,145.6a1,1,0,1,0,1,1A1,1,0,0,0,143.28,145.6Z" style="fill:#fef201"/><path d="M143.32,158.64a1,1,0,1,0,0,2,1,1,0,0,0,0-2Z" style="fill:#fef201"/><path d="M143.36,171.68a1,1,0,0,0-1,1,1,1,0,0,0,1,1,1,1,0,1,0,0-2Z" style="fill:#fef201"/><path d="M143.41,184.73a1,1,0,1,0,1,1A1,1,0,0,0,143.41,184.73Z" style="fill:#fef201"/><path d="M143.45,197.77a1,1,0,0,0-1,1,1,1,0,1,0,1-1Z" style="fill:#fef201"/></g></g><g style="opacity:0.45"><path d="M134.5,59V53.19h5V59Zm5-11.63V41.56h-5v5.82Zm-10.8,17.45h5.82V59h-5.82ZM26.59,165.45h5.82v-4.93H26.59ZM20.78,154.7v5.82h5.81V154.7ZM134.5,64.83v5.82h-5.82V64.83h-5.82v5.82h-5.81V64.83h5.81V59h5.82V53.19h5.82V47.38h-5.82V41.56h-5.82v5.82h-5.81V41.56h5.81v-3.3H12.28V165.45h8.5v-4.93H15V154.7h5.82v-5.82H15v-5.81h5.82v5.81h5.81v5.82h5.82v5.82h5.82v4.93H44v-4.93h5.82v4.93h89.62V64.83Zm0-26.57h-5.82v3.3h5.82Z" style="fill:#00158e;opacity:0.2"/><rect x="48.67" y="167.14" width="5.82" height="5.82" style="fill:gold"/><rect x="36.25" y="168.47" width="5.82" height="5.82" style="fill:gold"/><rect x="3.53" y="169.1" width="5.82" height="5.82" style="fill:gold"/><rect x="30.16" y="162.12" width="5.82" height="5.82" style="fill:gold"/><rect x="16.53" y="171.74" width="5.82" height="5.82" style="fill:gold"/><rect x="12.34" y="162.58" width="5.82" height="5.82" style="fill:gold"/><rect x="7.14" y="146.83" width="5.82" height="5.82" style="fill:gold"/><rect x="8.7" y="156.09" width="5.82" height="5.82" style="fill:gold"/><polygon points="108.81 42.69 16.51 42.69 16.51 132.66 20.88 128.3 20.88 103.57 27.57 103.57 27.57 68.67 34.35 61.88 34.35 52 70.81 52 76.91 45.89 108.81 45.89 108.81 42.69" style="fill:#0751cf"/><rect x="138.67" y="84.38" width="1.94" height="29.47" style="fill:none"/><polygon points="58.64 170.71 143.28 170.71 143.28 99.16 142.69 99.16 142.69 170.13 58.64 170.13 58.64 170.71 58.64 170.71" style="fill:gold"/><rect x="17.29" y="36.58" width="3.39" height="2.71" style="fill:gold"/><rect x="24.66" y="36.58" width="3.39" height="2.71" style="fill:gold"/><rect x="32.03" y="36.58" width="3.39" height="2.71" style="fill:gold"/><rect x="39.39" y="36.58" width="3.39" height="2.71" style="fill:gold"/><rect x="46.76" y="36.58" width="3.39" height="2.71" style="fill:gold"/><rect x="54.13" y="36.58" width="3.39" height="2.71" style="fill:gold"/><rect x="61.5" y="36.58" width="3.39" height="2.71" style="fill:gold"/><rect x="135.42" y="75.75" width="1.45" height="9.31" style="fill:gold"/><rect x="135.42" y="100.03" width="1.45" height="61.37" style="fill:gold"/><polygon points="50.84 53.59 48.76 51.5 50.84 49.42 49.66 48.24 47.58 50.32 45.49 48.24 44.31 49.42 46.4 51.5 44.31 53.59 45.49 54.76 47.58 52.68 49.66 54.76 50.84 53.59" style="fill:gold"/><polygon points="59.56 53.59 57.48 51.5 59.56 49.42 58.38 48.24 56.3 50.32 54.22 48.24 53.04 49.42 55.12 51.5 53.04 53.59 54.22 54.76 56.3 52.68 58.38 54.76 59.56 53.59" style="fill:gold"/><polygon points="68.29 53.59 66.21 51.5 68.29 49.42 67.11 48.24 65.03 50.32 62.94 48.24 61.76 49.42 63.85 51.5 61.76 53.59 62.94 54.76 65.03 52.68 67.11 54.76 68.29 53.59" style="fill:gold"/><polygon points="77.02 53.59 74.93 51.5 77.02 49.42 75.84 48.24 73.75 50.32 71.67 48.24 70.49 49.42 72.57 51.5 70.49 53.59 71.67 54.76 73.75 52.68 75.84 54.76 77.02 53.59" style="fill:gold"/></g><path d="M66.42,148h-1.9a5.67,5.67,0,0,1-5.67-5.66V119.69a5.42,5.42,0,0,1,5.41-5.41v1.21a4.21,4.21,0,0,0-4.2,4.2v22.67a4.46,4.46,0,0,0,4.46,4.45h1.9Z" style="fill:#121718"/><polygon points="66.85 150.92 63.35 156.65 63.35 157.84 74.32 157.84 74.32 149.94 66.85 150.92" style="fill:#f2766d"/><path d="M50.75,96.86H49.37a8.07,8.07,0,0,1-8.06-8.07v-7h1.16v7a6.91,6.91,0,0,0,6.9,6.9h1.38Z" style="fill:#7b2e52"/><path d="M69.25,103.47H67.87a8.07,8.07,0,0,1-8.06-8.06v-7H61v7a6.91,6.91,0,0,0,6.9,6.89h1.38Z" style="fill:#d97428"/><path d="M74.25,47.08H65s-2.08,4.87.07,12h9.16Z" style="fill:#9dd6df"/><path d="M74.25,59.1H65.09a25.27,25.27,0,0,0,1.13,3l2.34,2.8,5.69,1.69Z" style="fill:#50aeab"/><polygon points="74.25 101.18 68.75 107.25 71.05 111.73 71.05 116.96 72.82 116.96 74.25 107.79 74.25 101.18" style="fill:#83272d"/><polygon points="74.25 66.45 66.22 62.1 61.98 64.62 61.98 66.77 74.25 66.77 74.25 66.45" style="fill:#408f83"/><polygon points="54.68 52.18 56.01 57.36 55.34 59.43 55.34 62.44 58.87 62.44 58.87 51.41 54.68 51.41 54.68 52.18" style="fill:#2e0532"/><polygon points="63.07 52.18 61.74 57.36 62.41 59.43 62.41 62.44 58.87 62.44 58.87 51.41 63.07 51.41 63.07 52.18" style="fill:#451b46"/><path d="M56,54.81a2.87,2.87,0,0,0,4.22,2.53l-3.89-3.88A2.9,2.9,0,0,0,56,54.81Z" style="fill:#23849b"/><path d="M61.74,54.81a2.87,2.87,0,0,0-2.87-2.87,3,3,0,0,0-1.35.34l3.88,3.88A2.79,2.79,0,0,0,61.74,54.81Z" style="fill:#23849b"/><path d="M61.4,56.16l-3.88-3.88a2.91,2.91,0,0,0-1.18,1.18l3.89,3.88A2.83,2.83,0,0,0,61.4,56.16Z" style="fill:#166d7c"/><path d="M57.05,60.05a1.82,1.82,0,0,0,2.69,1.61l-2.48-2.47A1.88,1.88,0,0,0,57.05,60.05Z" style="fill:#23849b"/><path d="M60.7,60.05a1.83,1.83,0,0,0-1.83-1.83,1.8,1.8,0,0,0-.86.22l2.48,2.47A1.92,1.92,0,0,0,60.7,60.05Z" style="fill:#23849b"/><path d="M60.49,60.91,58,58.44a1.81,1.81,0,0,0-.75.75l2.48,2.47A1.87,1.87,0,0,0,60.49,60.91Z" style="fill:#166d7c"/><rect x="57.52" y="62.44" width="2.7" height="3.18" style="fill:#2e0532"/><polygon points="61.98 64.62 56.01 64.62 50.76 68.64 56.01 83.37 64.29 83.05 67.2 75.28 67.2 66.77 61.98 66.77 61.98 64.62" style="fill:#166d7c"/><polygon points="56.01 83.37 59.36 87.25 64.29 87.25 64.29 83.05 56.01 83.37" style="fill:#00575e"/><polygon points="51.25 68.26 46 68.26 44.25 69.47 42.85 74.44 40.82 74.44 40.82 79.14 42.5 83.37 48.8 87.25 53.14 87.25 53.14 85.99 55.31 81.41 51.25 68.26" style="fill:#7b2e52"/><rect x="67.2" y="66.76" width="2.03" height="16.28" style="fill:#003132"/><rect x="69.23" y="66.76" width="5.02" height="16.28" style="fill:#00575e"/><polygon points="69.23 83.05 64.29 87.25 64.29 83.05 67.2 75.28 69.23 83.05" style="fill:#004346"/><polygon points="56.01 83.37 58.87 90.39 61.98 90.39 64.29 87.25 59.36 87.25 56.01 83.37" style="fill:#004346"/><polygon points="74.25 83.05 69.23 83.05 64.29 87.25 62.88 89.16 65.17 91.77 70.08 91.77 74.25 91.12 74.25 83.05" style="fill:#003436"/><path d="M47.3,87.25v1.19h5.82V87.25Z" style="fill:#166d7c"/><path d="M47.3,88.44l2.15,1.74h0a1.07,1.07,0,0,0-1.08,1.07v1.82h4.75V88.44Z" style="fill:#d97428"/><polygon points="48.37 93.07 50.21 105.16 53.12 105.16 53.12 93.07 48.37 93.07" style="fill:#004346"/><rect x="54.68" y="50.24" width="8.4" height="1.17" style="fill:#340e37"/><path d="M74.25,91.07l-9.08.7v1.07a1.91,1.91,0,0,0,1.91,1.91h7.17Z" style="fill:#340e37"/><rect x="68.21" y="94.75" width="6.03" height="3.83" style="fill:#24042a"/><path d="M74.25,98.58h-10l-2.31,5L71,117h1.78V106.09a2,2,0,0,1,1.43-1.92Z" style="fill:#24042a"/><rect x="65.35" y="108.33" width="2.43" height="20.39" style="fill:#ec8a3a"/><rect x="67.78" y="111.73" width="3.27" height="25.1" style="fill:#f2766d"/><rect x="66.43" y="135.62" width="5.97" height="8.77" rx="1.79" style="fill:#f2766d"/><polygon points="74.25 98.21 65.35 108.33 67.78 108.33 74.25 101.18 74.25 98.21" style="fill:#d97428"/><polygon points="71.05 111.73 64.29 98.58 61.98 103.62 67.78 111.73 71.05 111.73" style="fill:#c8514d"/><polygon points="64.29 98.58 68.22 98.58 72.77 99.88 67.78 105.56 64.29 98.58" style="fill:#a5383c"/><polygon points="74.25 95.09 68.22 98.58 72.77 99.88 74.25 98.21 74.25 95.09" style="fill:#83272d"/><rect x="71.04" y="116.96" width="1.77" height="27.43" style="fill:#24042a"/><polygon points="65.35 128.71 64.29 128.71 65.35 135.9 67.78 135.9 67.78 128.71 65.35 128.71" style="fill:#24042a"/><rect x="66.03" y="129.92" width="6.13" height="1.4" style="fill:#24042a"/><polygon points="64.29 128.71 64.29 106.85 65.35 108.33 65.35 128.71 64.29 128.71" style="fill:#24042a"/><polygon points="71.05 118.52 62.09 109.57 62.09 119.43 67.84 125.18 71.05 125.18 71.05 118.52" style="fill:#24042a"/><polygon points="40.82 74.44 45.06 70.21 47.05 71.35 42.85 74.44 40.82 74.44" style="fill:#7b2e52"/><polygon points="42.85 74.44 51.25 68.26 46 68.26 44.25 69.47 42.85 74.44" style="fill:#003436"/><polygon points="40.96 79.48 53.02 73.99 55.31 81.41 42.5 83.37 40.96 79.48" style="fill:#dd819f"/><polygon points="48.44 101.66 53.72 101.66 55.03 108.33 48.44 108.33 48.44 101.66" style="fill:#7b2e52"/><polygon points="51.25 108.33 51.25 114.44 49.77 114.44 48.44 108.33 51.25 108.33" style="fill:#23849b"/><polygon points="55.03 108.33 52.67 114.44 51.25 114.44 51.25 108.33 55.03 108.33" style="fill:#1a7b86"/><polygon points="49.29 114.31 46.21 117.25 46.21 127.47 47.95 127.47 49.1 120.89 51.25 119.32 51.25 114.31 49.29 114.31" style="fill:#7b2e52"/><polygon points="53.2 114.31 56.28 117.25 56.28 127.47 54.54 127.47 53.39 120.89 51.25 119.32 51.25 114.31 53.2 114.31" style="fill:#5f1b3f"/><rect x="65.35" y="138.81" width="8.5" height="12.1" style="fill:#408f83"/><rect x="63.84" y="142.8" width="3.01" height="9.24" rx="0.9" style="fill:#24042a"/><rect x="71.31" y="142.8" width="3.01" height="9.24" rx="0.9" style="fill:#24042a"/><rect x="63.84" y="146.37" width="10.48" height="2.03" style="fill:#f2766d"/><rect x="65.35" y="138.81" width="8.5" height="1.89" style="fill:#ec8a3a"/><rect x="63.35" y="157.84" width="10.97" height="2.1" style="fill:#24042a"/><rect x="59.88" y="134.65" width="7.9" height="1.24" style="fill:#121718"/><path d="M82,148h1.9a5.67,5.67,0,0,0,5.67-5.66V119.69a5.42,5.42,0,0,0-5.41-5.41v1.21a4.21,4.21,0,0,1,4.2,4.2v22.67a4.46,4.46,0,0,1-4.46,4.45H82Z" style="fill:#121718"/><polygon points="81.61 150.92 85.11 156.65 85.11 157.84 74.14 157.84 74.14 149.94 81.61 150.92" style="fill:#c85d5b"/><path d="M97.71,96.86h1.38a8.07,8.07,0,0,0,8.06-8.07v-7H106v7a6.9,6.9,0,0,1-6.9,6.9H97.71Z" style="fill:#7b2e52"/><path d="M79.21,103.47h1.38a8.07,8.07,0,0,0,8.06-8.06v-7H87.49v7a6.9,6.9,0,0,1-6.9,6.89H79.21Z" style="fill:#d97428"/><path d="M74.21,47.08h9.23s2.08,4.87-.07,12H74.21Z" style="fill:#83c5ca"/><path d="M74.21,59.1h9.16a23.64,23.64,0,0,1-1.13,3l-2.33,2.8-5.7,1.69Z" style="fill:#4a9699"/><polygon points="74.21 101.18 79.71 107.25 77.42 111.73 77.42 116.96 75.64 116.96 74.21 107.79 74.21 101.18" style="fill:#83272d"/><polygon points="74.21 66.45 82.24 62.1 86.48 64.62 86.48 66.77 74.21 66.77 74.21 66.45" style="fill:#33786c"/><polygon points="93.78 52.18 92.45 57.36 93.12 59.43 93.12 62.44 89.59 62.44 89.59 51.41 93.78 51.41 93.78 52.18" style="fill:#150220"/><polygon points="85.39 52.18 86.72 57.36 86.05 59.43 86.05 62.44 89.59 62.44 89.59 51.41 85.39 51.41 85.39 52.18" style="fill:#451b46"/><path d="M92.45,54.81a2.87,2.87,0,0,1-4.22,2.53l3.89-3.88A2.9,2.9,0,0,1,92.45,54.81Z" style="fill:#23849b"/><path d="M86.72,54.81a2.87,2.87,0,0,1,2.87-2.87,2.9,2.9,0,0,1,1.35.34l-3.88,3.88A2.79,2.79,0,0,1,86.72,54.81Z" style="fill:#23849b"/><path d="M87.06,56.16l3.88-3.88a2.91,2.91,0,0,1,1.18,1.18l-3.89,3.88A2.83,2.83,0,0,1,87.06,56.16Z" style="fill:#166d7c"/><path d="M91.41,60.05a1.82,1.82,0,0,1-1.82,1.83,1.74,1.74,0,0,1-.86-.22l2.47-2.47A1.77,1.77,0,0,1,91.41,60.05Z" style="fill:#23849b"/><path d="M87.76,60.05a1.83,1.83,0,0,1,1.83-1.83,1.8,1.8,0,0,1,.86.22L88,60.91A1.92,1.92,0,0,1,87.76,60.05Z" style="fill:#23849b"/><path d="M88,60.91l2.48-2.47a1.81,1.81,0,0,1,.75.75l-2.47,2.47A1.83,1.83,0,0,1,88,60.91Z" style="fill:#166d7c"/><rect x="88.23" y="62.44" width="2.7" height="3.18" transform="translate(179.17 128.05) rotate(180)" style="fill:#2e0532"/><polygon points="86.48 64.62 92.45 64.62 97.7 68.64 92.45 83.37 84.17 83.05 81.26 75.28 81.26 66.77 86.48 66.77 86.48 64.62" style="fill:#065355"/><polygon points="92.45 83.37 89.1 87.25 84.17 87.25 84.17 83.05 92.45 83.37" style="fill:#00575e"/><polygon points="97.21 68.26 102.46 68.26 104.21 69.47 105.61 74.44 107.64 74.44 107.64 79.14 105.96 83.37 99.66 87.25 95.32 87.25 95.32 85.99 93.15 81.41 97.21 68.26" style="fill:#5f173d"/><rect x="79.23" y="66.76" width="2.03" height="16.28" transform="translate(160.49 149.81) rotate(180)" style="fill:#003132"/><rect x="74.21" y="66.76" width="5.02" height="16.28" style="fill:#004346"/><polygon points="79.23 83.05 84.17 87.25 84.17 83.05 81.26 75.28 79.23 83.05" style="fill:#003839"/><polygon points="92.45 83.37 89.59 90.39 86.48 90.39 84.17 87.25 89.1 87.25 92.45 83.37" style="fill:#004346"/><polygon points="74.21 83.05 79.23 83.05 84.17 87.25 85.58 89.16 83.29 91.77 78.38 91.77 74.21 91.12 74.21 83.05" style="fill:#002122"/><path d="M101.16,87.25v1.19H95.34V87.25Z" style="fill:#05585f"/><path d="M101.16,88.44,99,90.18h0a1.07,1.07,0,0,1,1.08,1.07v1.82H95.34V88.44Z" style="fill:#b66027"/><polygon points="100.09 93.07 98.25 105.16 95.34 105.16 95.34 93.07 100.09 93.07" style="fill:#003436"/><rect x="85.39" y="50.24" width="8.4" height="1.17" transform="translate(179.17 101.65) rotate(180)" style="fill:#340e37"/><path d="M74.21,91.07l9.08.7v1.07a1.91,1.91,0,0,1-1.91,1.91H74.21Z" style="fill:#24062a"/><rect x="74.21" y="94.75" width="6.03" height="3.83" style="fill:#0d001a"/><path d="M74.21,98.58h10l2.31,5L77.42,117H75.64V106.09a2,2,0,0,0-1.43-1.92Z" style="fill:#24042a"/><rect x="80.68" y="108.33" width="2.43" height="20.39" transform="translate(163.79 237.04) rotate(180)" style="fill:#c6712e"/><rect x="77.42" y="111.73" width="3.27" height="25.1" transform="translate(158.1 248.55) rotate(180)" style="fill:#b25858"/><rect x="76.06" y="135.62" width="5.97" height="8.77" rx="1.79" transform="translate(158.1 280) rotate(180)" style="fill:#d66460"/><polygon points="74.21 98.21 83.11 108.33 80.68 108.33 74.21 101.18 74.21 98.21" style="fill:#be6427"/><polygon points="77.42 111.73 84.17 98.58 86.48 103.62 80.68 111.73 77.42 111.73" style="fill:#ad3d40"/><polygon points="84.17 98.58 80.25 98.58 75.69 99.88 80.68 105.56 84.17 98.58" style="fill:#892026"/><polygon points="74.21 95.09 80.25 98.58 75.69 99.88 74.21 98.21 74.21 95.09" style="fill:#670e1a"/><rect x="75.64" y="116.96" width="1.77" height="27.43" transform="translate(153.06 261.34) rotate(180)" style="fill:#24042a"/><polygon points="83.11 128.71 84.17 128.71 83.11 135.9 80.68 135.9 80.68 128.71 83.11 128.71" style="fill:#24042a"/><rect x="76.3" y="129.92" width="6.13" height="1.4" transform="translate(158.72 261.25) rotate(180)" style="fill:#24042a"/><polygon points="84.17 128.71 84.17 106.85 83.11 108.33 83.11 128.71 84.17 128.71" style="fill:#24042a"/><polygon points="77.42 118.52 86.37 109.57 86.37 119.43 80.62 125.18 77.42 125.18 77.42 118.52" style="fill:#00000b"/><polygon points="107.64 74.44 103.41 70.21 101.41 71.35 105.61 74.44 107.64 74.44" style="fill:#7b2e52"/><polygon points="105.61 74.44 97.21 68.26 102.46 68.26 104.21 69.47 105.61 74.44" style="fill:#022"/><polygon points="107.5 79.48 95.44 73.99 93.15 81.41 105.96 83.37 107.5 79.48" style="fill:#bf6686"/><polygon points="100.02 101.66 94.74 101.66 93.43 108.33 100.02 108.33 100.02 101.66" style="fill:#58193c"/><polygon points="97.21 108.33 97.21 114.44 98.69 114.44 100.02 108.33 97.21 108.33" style="fill:#197986"/><polygon points="93.43 108.33 95.8 114.44 97.21 114.44 97.21 108.33 93.43 108.33" style="fill:#11656c"/><polygon points="99.17 114.31 102.25 117.25 102.25 127.47 100.51 127.47 99.36 120.89 97.21 119.32 97.21 114.31 99.17 114.31" style="fill:#5f1e40"/><polygon points="95.25 114.31 92.18 117.25 92.18 127.47 93.92 127.47 95.07 120.89 97.21 119.32 97.21 114.31 95.25 114.31" style="fill:#4a1234"/><rect x="74.61" y="138.81" width="8.5" height="12.1" transform="translate(157.73 289.73) rotate(180)" style="fill:#2f776c"/><rect x="81.61" y="142.8" width="3.01" height="9.24" rx="0.9" transform="translate(166.23 294.84) rotate(180)" style="fill:#24042a"/><rect x="74.14" y="142.8" width="3.01" height="9.24" rx="0.9" transform="translate(151.29 294.84) rotate(180)" style="fill:#24042a"/><rect x="74.14" y="146.37" width="10.48" height="2.03" transform="translate(158.76 294.77) rotate(180)" style="fill:#c15654"/><rect x="74.61" y="138.81" width="8.5" height="1.89" transform="translate(157.73 279.51) rotate(180)" style="fill:#c67434"/><rect x="74.14" y="157.84" width="10.97" height="2.1" transform="translate(159.25 317.79) rotate(180)" style="fill:#24042a"/><rect x="80.68" y="134.65" width="7.9" height="1.24" transform="translate(169.26 270.55) rotate(180)" style="fill:#121718"/><path d="M88.57,37.59A1.45,1.45,0,1,0,87,39v8.28H84.72v.33h2.57V39A1.45,1.45,0,0,0,88.57,37.59Z" style="fill:#060a0f"/><polygon points="83.07 49.08 85.16 48.42 85.16 46.5 77.45 46.5 77.45 49.08 83.07 49.08" style="fill:#060a0f"/><path d="M59.56,37.59A1.45,1.45,0,1,1,61.17,39v8.28h2.24v.33H60.84V39A1.45,1.45,0,0,1,59.56,37.59Z" style="fill:#060a0f"/><polygon points="65.06 49.08 62.97 48.42 62.97 46.5 70.67 46.5 70.67 49.08 65.06 49.08" style="fill:#060a0f"/><rect x="70.56" y="51.48" width="1.16" height="7.02"/><rect x="76.64" y="51.64" width="1.16" height="7.02"/><polygon points="70.31 81.42 74.21 85.32 74.21 81.42 70.31 81.42" style="fill:#ec8a3a"/><polygon points="74.21 81.42 74.21 85.32 78.11 81.42 74.21 81.42" style="fill:#d17935"/></g></g></g></svg>