<svg xmlns="http://www.w3.org/2000/svg" xmlns:xlink="http://www.w3.org/1999/xlink" viewBox="0 0 148.25 207.55"><defs><linearGradient id="Degradado_sin_nombre_6" x1="-14.83" y1="192.72" x2="163.07" y2="14.83" gradientUnits="userSpaceOnUse"><stop offset="0" stop-color="aqua"/><stop offset="1" stop-color="blue"/></linearGradient></defs><title>Asset 167</title><g id="Layer_2" data-name="Layer 2"><g id="Layer_3" data-name="Layer 3"><rect width="148.25" height="207.55" style="fill:url(#Degradado_sin_nombre_6)"/><g style="opacity:0.45"><path d="M135.67,57.3V51.48h5V57.3Zm5-11.64V39.85h-5v5.81ZM129.86,63.11h5.81V57.3h-5.81ZM27.77,163.74h5.81V158.8H27.77ZM22,153v5.81h5.82V153ZM135.67,63.11v5.82h-5.81V63.11H124v5.82h-5.82V63.11H124V57.3h5.82V51.48h5.81V45.66h-5.81V39.85H124v5.81h-5.82V39.85H124V36.54H13.45v127.2H22V158.8H16.13V153H22v-5.82H16.13v-5.82H22v5.82h5.82V153h5.81v5.81H39.4v4.94h5.82V158.8H51v4.94h89.62V63.11Zm0-26.57h-5.81v3.31h5.81Z" style="fill:#00158e;opacity:0.2"/><rect x="49.85" y="165.43" width="5.82" height="5.82" style="fill:gold"/><rect x="37.43" y="166.76" width="5.82" height="5.82" style="fill:gold"/><rect x="4.7" y="167.38" width="5.82" height="5.82" style="fill:gold"/><rect x="31.33" y="160.4" width="5.82" height="5.82" style="fill:gold"/><rect x="17.71" y="170.03" width="5.82" height="5.82" style="fill:gold"/><rect x="13.51" y="160.86" width="5.82" height="5.82" style="fill:gold"/><rect x="8.32" y="145.11" width="5.82" height="5.82" style="fill:gold"/><rect x="9.87" y="154.38" width="5.82" height="5.82" style="fill:gold"/><polygon points="109.98 40.97 17.69 40.97 17.69 130.94 22.05 126.58 22.05 101.86 28.74 101.86 28.74 66.96 35.53 60.17 35.53 50.28 71.98 50.28 78.09 44.17 109.98 44.17 109.98 40.97" style="fill:#0751cf"/><rect x="139.84" y="82.66" width="1.94" height="29.47" style="fill:none"/><polygon points="59.81 169 144.45 169 144.45 97.45 143.87 97.45 143.87 168.41 59.81 168.41 59.81 169 59.81 169" style="fill:gold"/><rect x="18.46" y="34.87" width="3.39" height="2.71" style="fill:gold"/><rect x="25.83" y="34.87" width="3.39" height="2.71" style="fill:gold"/><rect x="33.2" y="34.87" width="3.39" height="2.71" style="fill:gold"/><rect x="40.57" y="34.87" width="3.39" height="2.71" style="fill:gold"/><rect x="47.94" y="34.87" width="3.39" height="2.71" style="fill:gold"/><rect x="55.3" y="34.87" width="3.39" height="2.71" style="fill:gold"/><rect x="62.67" y="34.87" width="3.39" height="2.71" style="fill:gold"/><rect x="136.6" y="74.03" width="1.45" height="9.31" style="fill:gold"/><rect x="136.6" y="98.32" width="1.45" height="61.37" style="fill:gold"/><polygon points="52.01 51.87 49.93 49.79 52.01 47.7 50.83 46.52 48.75 48.61 46.67 46.52 45.49 47.7 47.57 49.79 45.49 51.87 46.67 53.05 48.75 50.97 50.83 53.05 52.01 51.87" style="fill:gold"/><polygon points="60.74 51.87 58.66 49.79 60.74 47.7 59.56 46.52 57.48 48.61 55.39 46.52 54.21 47.7 56.3 49.79 54.21 51.87 55.39 53.05 57.48 50.97 59.56 53.05 60.74 51.87" style="fill:gold"/><polygon points="69.46 51.87 67.38 49.79 69.46 47.7 68.28 46.52 66.2 48.61 64.12 46.52 62.94 47.7 65.02 49.79 62.94 51.87 64.12 53.05 66.2 50.97 68.28 53.05 69.46 51.87" style="fill:gold"/><polygon points="78.19 51.87 76.11 49.79 78.19 47.7 77.01 46.52 74.93 48.61 72.84 46.52 71.66 47.7 73.75 49.79 71.66 51.87 72.84 53.05 74.93 50.97 77.01 53.05 78.19 51.87" style="fill:gold"/></g><path d="M87.6,29.83a2,2,0,1,0-2.16,1.94V42.88h-3v.44h3.45V31.77A2,2,0,0,0,87.6,29.83Z" style="fill:#323432"/><polygon points="80.23 45.23 83.02 44.35 83.02 41.78 72.69 41.78 72.69 45.23 80.23 45.23" style="fill:#323432"/><path d="M59.35,42.88V31.77a1.94,1.94,0,1,0-.44,0V43.32h3.45v-.44Z" style="fill:#323432"/><polygon points="65.16 45.23 62.36 44.35 62.36 41.78 72.69 41.78 72.69 45.23 65.16 45.23" style="fill:#323432"/><path d="M67.67,70.08H78a2.08,2.08,0,0,1,2.08,2.08v1.1a0,0,0,0,1,0,0H65.59a0,0,0,0,1,0,0v-1.1A2.08,2.08,0,0,1,67.67,70.08Z" style="fill:#323432"/><path d="M60.7,110.8l-.49.15L59,107.06a5.6,5.6,0,0,1,3.71-7l3.16-1,.14.49-3.16,1a5.09,5.09,0,0,0-3.37,6.35Z" style="fill:#451b46"/><path d="M62,72.87h-.5V68.81A5.6,5.6,0,0,1,67,63.21h3.31v.51H67A5.1,5.1,0,0,0,62,68.81Z" style="fill:#573537"/><path d="M58.58,70.08h-.5V66a5.6,5.6,0,0,1,5.59-5.6H67v.51H63.67A5.1,5.1,0,0,0,58.58,66Z" style="fill:#573537"/><path d="M61.9,63.08h0a14.3,14.3,0,0,1,9,8.52h1.91V60.92H64.06A2.16,2.16,0,0,0,61.9,63.08Z" style="fill:#cf7743"/><rect x="65.59" y="42.36" width="7.25" height="18.56" style="fill:#f9cc78"/><path d="M72.84,42.36V40.2s-6.23-1-7.25-3.82H63.05v6Z" style="fill:#901c27"/><rect x="70.91" y="71.6" width="1.93" height="5.09" style="fill:#9f7d5c"/><rect x="63.05" y="76.69" width="9.79" height="6.48" style="fill:#8c7458"/><rect x="63.05" y="73.25" width="7.86" height="4.2" style="fill:#f9cc78"/><path d="M60.5,70h.88A1.66,1.66,0,0,1,63,71.61V80.5a0,0,0,0,1,0,0H60.5a0,0,0,0,1,0,0V70A0,0,0,0,1,60.5,70Z" style="fill:#573537"/><polygon points="60.5 74.34 60.5 82.28 57.71 89.78 51.98 89.78 51.98 70.71 54.65 68.04 60.5 68.04 60.5 74.34" style="fill:#9f8068"/><path d="M64.06,83.17H61.77V91a1.3,1.3,0,0,0,2.1,1.16,6.93,6.93,0,0,1,3.71-1.83h5.26V83.17Z" style="fill:#9f8068"/><rect x="66.67" y="90.29" width="6.17" height="2.12" style="fill:#451b46"/><rect x="64.95" y="92.42" width="7.88" height="5.38" style="fill:#70655f"/><rect x="63.91" y="97.8" width="8.93" height="1.5" style="fill:#451b46"/><rect x="63.91" y="99.29" width="8.93" height="2.19" style="fill:#776b73"/><rect x="63.05" y="101.49" width="9.79" height="5.15" style="fill:#451b46"/><polygon points="59.74 116.25 61.9 131.14 66.67 131.14 69.75 123.28 72.84 120.08 72.84 106.64 68.89 106.64 59.74 116.25" style="fill:#451b46"/><path d="M63.05,131.14v15.45h3.24S70,131,67.13,130Z" style="fill:#7b2e52"/><path d="M61.8,146.59c.35-.26,6,0,6,0v11.16h-6S60.29,147.74,61.8,146.59Z" style="fill:#451b46"/><polygon points="63.05 124.05 67.13 129.97 67.94 127.9 65.49 122.74 63.05 124.05" style="fill:#776b73"/><polygon points="69.75 123.28 67.31 119.58 67.94 116.7 72.84 120.08 69.75 123.28" style="fill:#776b73"/><path d="M62.7,106.64h8.21S68.83,119,65.24,123c0,0-1.16,1.72-2.49.86a1.78,1.78,0,0,1-.8-1.44,7.12,7.12,0,0,0-2.1-4.81,3.19,3.19,0,0,1-1-2.14C58.75,112.89,59,107.5,62.7,106.64Z" style="fill:#541d5a"/><polygon points="62.7 106.64 70.07 110.72 72.84 110.72 72.84 106.64 62.7 106.64" style="fill:#521e52"/><rect x="67.1" y="124.14" width="1.01" height="33.61" style="fill:#451b46"/><rect x="63.05" y="134.7" width="4.56" height="1.43" style="fill:#451b46"/><rect x="63.05" y="138.28" width="4.56" height="1.43" style="fill:#451b46"/><path d="M63.91,157.75v10.49h2.38v-3.6A1.65,1.65,0,0,1,67.94,163v-5.24Z" style="fill:#7b2e52"/><polygon points="61.72 157.75 59.33 157.75 59.33 159.18 60.38 159.18 60.38 164.23 56.38 168.24 63.91 168.24 63.91 157.75 61.72 157.75" style="fill:#70655f"/><polygon points="58.94 112.57 69.62 112.57 70.07 110.72 62.7 106.64 59.74 107.69 58.94 112.57" style="fill:#2c0230"/><polygon points="50.6 90.07 57.68 90.07 57.68 82.11 52.02 78.75 48.82 83.81 50.6 90.07" style="fill:#4a3979"/><path d="M55.51,92.92V90.07H53.4v2.85H52.14v3.84l1.14.93v8.48h2.44V98.6A1.69,1.69,0,0,0,56.86,97V92.92Z" style="fill:#323432"/><path d="M55.33,99.85l-2,.1a.81.81,0,0,0-.77.92l1.11,8.45,2.08-.09.47-8.51A.82.82,0,0,0,55.33,99.85Z" style="fill:#c66665"/><rect x="52.98" y="108.79" width="3.67" height="4.32" transform="translate(114.72 219.24) rotate(177.34)" style="fill:#451b46"/><path d="M55,113.1a2.22,2.22,0,0,0,0,.59,1,1,0,0,0,.51.82c.6.33,1.64,1.35,1.93,4.45a.28.28,0,0,0,.3.26h0a.54.54,0,0,0,.51-.57L58,114.49a.84.84,0,0,0-.26-.56l-1-.91Z" style="fill:#876d58"/><path d="M55.08,113.1a2.23,2.23,0,0,1,.06.58,1,1,0,0,1-.49.87c-.64.39-1.7,1.5-1.71,4.62a.32.32,0,0,1-.31.29h0a.58.58,0,0,1-.63-.52l-.2-4.16a.78.78,0,0,1,.24-.59l1-1Z" style="fill:#9f8068"/><polygon points="57.68 82.11 60.5 76.69 60.5 82.28 57.71 89.78 57.68 82.11" style="fill:#876d58"/><polygon points="52.02 78.75 60.5 68.04 60.5 76.69 57.68 82.11 52.02 78.75" style="fill:#9f8068"/><polygon points="52.02 78.75 51.98 70.71 54.65 68.04 58.08 68.04 60.5 68.04 52.02 78.75" style="fill:#c29d85"/><rect x="56.38" y="168.24" width="11.56" height="4.09" style="fill:#323432"/><path d="M85,110.8l.49.15,1.19-3.89a5.59,5.59,0,0,0-3.7-7l-3.16-1-.15.49,3.16,1a5.09,5.09,0,0,1,3.37,6.35Z" style="fill:#451b46"/><path d="M83.72,72.87h.51V68.81a5.6,5.6,0,0,0-5.6-5.6h-3.3v.51h3.3a5.09,5.09,0,0,1,5.09,5.09Z" style="fill:#573537"/><path d="M87.09,70.08h.51V66a5.6,5.6,0,0,0-5.6-5.6H78.7v.51H82A5.09,5.09,0,0,1,87.09,66Z" style="fill:#573537"/><path d="M83.77,63.08h0a14.3,14.3,0,0,0-9,8.52h-1.9V60.92h8.77A2.16,2.16,0,0,1,83.77,63.08Z" style="fill:#bb693c"/><rect x="72.84" y="42.36" width="7.25" height="18.56" transform="translate(152.92 103.28) rotate(180)" style="fill:#e0b468"/><path d="M72.84,42.36V40.2s6.23-1,7.24-3.82h2.55v6Z" style="fill:#771020"/><rect x="72.84" y="71.6" width="1.93" height="5.09" transform="translate(147.6 148.29) rotate(180)" style="fill:#8f7156"/><rect x="72.84" y="76.69" width="9.79" height="6.48" transform="translate(155.46 159.86) rotate(180)" style="fill:#7f6347"/><rect x="74.77" y="73.25" width="7.86" height="4.2" transform="translate(157.39 150.7) rotate(180)" style="fill:#dab064"/><path d="M82.63,70h2.54a0,0,0,0,1,0,0v8.89a1.66,1.66,0,0,1-1.66,1.66h-.88a0,0,0,0,1,0,0V70A0,0,0,0,1,82.63,70Z" transform="translate(167.8 150.45) rotate(-180)" style="fill:#573537"/><polygon points="85.17 74.34 85.17 82.28 87.97 89.78 93.69 89.78 93.69 70.71 91.02 68.04 85.17 68.04 85.17 74.34" style="fill:#9f8068"/><path d="M81.62,83.17H83.9V91a1.3,1.3,0,0,1-2.1,1.16,6.86,6.86,0,0,0-3.71-1.83H72.84V83.17Z" style="fill:#8f7059"/><rect x="72.84" y="90.29" width="6.17" height="2.12" transform="translate(151.84 182.71) rotate(180)" style="fill:#330936"/><rect x="72.84" y="92.42" width="7.88" height="5.38" transform="translate(153.56 190.21) rotate(180)" style="fill:#554b47"/><rect x="72.84" y="97.8" width="8.93" height="1.5" style="fill:#370d3a"/><rect x="72.84" y="99.29" width="8.93" height="2.19" transform="translate(154.6 200.78) rotate(180)" style="fill:#6a5c64"/><rect x="72.84" y="101.49" width="9.79" height="5.15" transform="translate(155.46 208.13) rotate(180)" style="fill:#3d1440"/><polygon points="85.93 116.25 83.77 131.14 79 131.14 75.92 123.28 72.84 120.08 72.84 106.64 76.78 106.64 85.93 116.25" style="fill:#3d113f"/><path d="M82.63,131.14v15.45H79.38S75.7,131,78.54,130Z" style="fill:#6a2647"/><path d="M83.87,146.59c-.35-.26-6,0-6,0v11.16h6S85.39,147.74,83.87,146.59Z" style="fill:#330936"/><polygon points="82.63 124.05 78.54 129.97 77.73 127.9 80.18 122.74 82.63 124.05" style="fill:#695d66"/><polygon points="75.92 123.28 78.37 119.58 77.73 116.7 72.84 120.08 75.92 123.28" style="fill:#695d66"/><path d="M83,106.64h-8.2S76.84,119,80.43,123c0,0,1.17,1.72,2.49.86a1.78,1.78,0,0,0,.8-1.44,7.12,7.12,0,0,1,2.1-4.81,3.15,3.15,0,0,0,1-2.14C86.92,112.89,86.71,107.5,83,106.64Z" style="fill:#461850"/><polygon points="82.97 106.64 75.6 110.72 72.84 110.72 72.84 106.64 82.97 106.64" style="fill:#310835"/><rect x="77.56" y="124.14" width="1.01" height="33.61" transform="translate(156.14 281.89) rotate(180)" style="fill:#370d3b"/><rect x="78.07" y="134.7" width="4.56" height="1.43" transform="translate(160.7 270.83) rotate(180)" style="fill:#451b46"/><rect x="78.07" y="138.28" width="4.56" height="1.43" transform="translate(160.7 277.99) rotate(180)" style="fill:#451b46"/><path d="M81.76,157.75v10.49H79.38v-3.6A1.65,1.65,0,0,0,77.73,163v-5.24Z" style="fill:#6a2347"/><polygon points="83.95 157.75 86.34 157.75 86.34 159.18 85.29 159.18 85.29 164.23 89.3 168.24 81.76 168.24 81.76 157.75 83.95 157.75" style="fill:#5f524f"/><polygon points="86.73 112.57 76.05 112.57 75.6 110.72 82.97 106.64 85.93 107.69 86.73 112.57" style="fill:#25002c"/><polygon points="95.07 90.07 87.99 90.07 87.99 82.11 93.65 78.75 96.85 83.81 95.07 90.07" style="fill:#4a3979"/><path d="M90.16,92.92V90.07h2.11v2.85h1.26v3.84l-1.14.93v8.48H90V98.6A1.7,1.7,0,0,1,88.81,97V92.92Z" style="fill:#323432"/><path d="M90.35,99.85l2,.1a.81.81,0,0,1,.76.92L92,109.32,90,109.23l-.46-8.51A.81.81,0,0,1,90.35,99.85Z" style="fill:#c66665"/><rect x="89.02" y="108.79" width="3.67" height="4.32" transform="translate(5.24 -4.09) rotate(2.66)" style="fill:#451b46"/><path d="M90.72,113.1a2.59,2.59,0,0,1,0,.59,1,1,0,0,1-.52.82c-.6.33-1.64,1.35-1.93,4.45a.28.28,0,0,1-.29.26h0a.55.55,0,0,1-.52-.57l.19-4.16a.81.81,0,0,1,.27-.56l1-.91Z" style="fill:#876d58"/><path d="M90.59,113.1a2.81,2.81,0,0,0-.06.58,1,1,0,0,0,.49.87c.64.39,1.7,1.5,1.72,4.62a.31.31,0,0,0,.3.29h0a.59.59,0,0,0,.64-.52l.19-4.16a.78.78,0,0,0-.24-.59l-1-1Z" style="fill:#9f8068"/><polygon points="87.99 82.11 85.17 76.69 85.17 82.28 87.97 89.78 87.99 82.11" style="fill:#876d58"/><polygon points="93.65 78.75 85.17 68.04 85.17 76.69 87.99 82.11 93.65 78.75" style="fill:#9f8068"/><polygon points="93.65 78.75 93.69 70.71 91.02 68.04 87.6 68.04 85.17 68.04 93.65 78.75" style="fill:#c29d85"/><rect x="77.73" y="168.24" width="11.56" height="4.09" transform="translate(167.03 340.57) rotate(180)" style="fill:#1f2320"/><rect x="75.33" y="46.42" width="1.45" height="5.46" style="fill:#1f2320"/><rect x="69.62" y="46.42" width="1.45" height="5.46" style="fill:#1f2320"/><rect x="64.7" y="58.76" width="16.08" height="2.17" style="fill:#ba934b"/></g></g></svg>