<svg xmlns="http://www.w3.org/2000/svg" xmlns:xlink="http://www.w3.org/1999/xlink" viewBox="0 0 148.25 207.55"><defs><clipPath id="clip-path"><rect width="148.25" height="207.55" style="fill:none"/></clipPath><linearGradient id="Degradado_sin_nombre_5" x1="-14.83" y1="14.83" x2="163.07" y2="192.72" gradientUnits="userSpaceOnUse"><stop offset="0" stop-color="#fef201"/><stop offset="1" stop-color="#ff1443"/></linearGradient></defs><title>Asset 133</title><g style="isolation:isolate"><g id="Layer_2" data-name="Layer 2"><g id="Layer_3" data-name="Layer 3"><g style="clip-path:url(#clip-path)"><rect width="148.25" height="207.55" style="fill:url(#Degradado_sin_nombre_5)"/><g style="opacity:0.46;mix-blend-mode:soft-light"><circle cx="4.8" cy="8.78" r="1" style="fill:#fef201"/><circle cx="4.8" cy="21.82" r="1" style="fill:#fef201"/><circle cx="4.8" cy="34.87" r="1" style="fill:#fef201"/><circle cx="4.8" cy="47.91" r="1" style="fill:#fef201"/><circle cx="4.8" cy="60.95" r="1" style="fill:#fef201"/><circle cx="4.8" cy="74" r="1" style="fill:#fef201"/><circle cx="4.8" cy="87.04" r="1" style="fill:#fef201"/><circle cx="4.8" cy="100.09" r="1" style="fill:#fef201"/><circle cx="4.8" cy="113.13" r="1" style="fill:#fef201"/><circle cx="4.8" cy="126.18" r="1" style="fill:#fef201"/><circle cx="4.8" cy="139.22" r="1" style="fill:#fef201"/><circle cx="4.8" cy="152.26" r="1" style="fill:#fef201"/><circle cx="4.8" cy="165.31" r="1" style="fill:#fef201"/><circle cx="4.8" cy="178.35" r="1" style="fill:#fef201"/><circle cx="4.8" cy="191.4" r="1" style="fill:#fef201"/><circle cx="4.8" cy="204.44" r="1" style="fill:#fef201"/><path d="M12.15,4.11a1,1,0,1,0,0-2,1,1,0,0,0-1,1A1,1,0,0,0,12.15,4.11Z" style="fill:#fef201"/><path d="M12.18,15.15a1,1,0,1,0,1,1A1,1,0,0,0,12.18,15.15Z" style="fill:#fef201"/><path d="M12.23,28.2a1,1,0,1,0,1,1A1,1,0,0,0,12.23,28.2Z" style="fill:#fef201"/><path d="M12.27,41.24a1,1,0,1,0,0,2,1,1,0,0,0,0-2Z" style="fill:#fef201"/><path d="M12.31,54.28a1,1,0,0,0-1,1,1,1,0,0,0,1,1,1,1,0,1,0,0-2Z" style="fill:#fef201"/><path d="M12.36,67.33a1,1,0,1,0,1,1A1,1,0,0,0,12.36,67.33Z" style="fill:#fef201"/><path d="M12.4,80.37a1,1,0,0,0-1,1,1,1,0,0,0,2,0A1,1,0,0,0,12.4,80.37Z" style="fill:#fef201"/><path d="M12.44,93.42a1,1,0,1,0,0,2,1,1,0,0,0,0-2Z" style="fill:#fef201"/><path d="M12.48,106.46a1,1,0,0,0,0,2,1,1,0,1,0,0-2Z" style="fill:#fef201"/><path d="M12.53,119.51a1,1,0,1,0,0,2,1,1,0,0,0,1-1A1,1,0,0,0,12.53,119.51Z" style="fill:#fef201"/><path d="M12.57,132.55a1,1,0,1,0,1,1A1,1,0,0,0,12.57,132.55Z" style="fill:#fef201"/><path d="M12.61,145.6a1,1,0,0,0-1,1,1,1,0,0,0,1,1,1,1,0,0,0,1-1A1,1,0,0,0,12.61,145.6Z" style="fill:#fef201"/><path d="M12.65,158.64a1,1,0,1,0,1,1A1,1,0,0,0,12.65,158.64Z" style="fill:#fef201"/><path d="M12.7,171.68a1,1,0,0,0-1,1,1,1,0,0,0,2,0A1,1,0,0,0,12.7,171.68Z" style="fill:#fef201"/><path d="M12.74,184.73a1,1,0,1,0,1,1A1,1,0,0,0,12.74,184.73Z" style="fill:#fef201"/><path d="M12.78,197.77a1,1,0,1,0,0,2,1,1,0,0,0,1-1A1,1,0,0,0,12.78,197.77Z" style="fill:#fef201"/><circle cx="21.13" cy="8.78" r="1" style="fill:#fef201"/><circle cx="21.13" cy="21.82" r="1" style="fill:#fef201"/><circle cx="21.13" cy="34.87" r="1" style="fill:#fef201"/><circle cx="21.13" cy="47.91" r="1" style="fill:#fef201"/><circle cx="21.13" cy="60.95" r="1" style="fill:#fef201"/><circle cx="21.13" cy="74" r="1" style="fill:#fef201"/><circle cx="21.13" cy="87.04" r="1" style="fill:#fef201"/><circle cx="21.13" cy="100.09" r="1" style="fill:#fef201"/><circle cx="21.13" cy="113.13" r="1" style="fill:#fef201"/><circle cx="21.13" cy="126.18" r="1" style="fill:#fef201"/><circle cx="21.13" cy="139.22" r="1" style="fill:#fef201"/><circle cx="21.13" cy="152.26" r="1" style="fill:#fef201"/><circle cx="21.13" cy="165.31" r="1" style="fill:#fef201"/><circle cx="21.13" cy="178.35" r="1" style="fill:#fef201"/><circle cx="21.13" cy="191.4" r="1" style="fill:#fef201"/><circle cx="21.13" cy="204.44" r="1" style="fill:#fef201"/><path d="M28.48,4.11a1,1,0,0,0,1-1,1,1,0,1,0-1,1Z" style="fill:#fef201"/><path d="M28.52,15.15a1,1,0,0,0-1,1,1,1,0,1,0,1-1Z" style="fill:#fef201"/><path d="M28.56,28.2a1,1,0,0,0-1,1,1,1,0,0,0,1,1,1,1,0,0,0,0-2Z" style="fill:#fef201"/><path d="M28.6,41.24a1,1,0,0,0,0,2,1,1,0,1,0,0-2Z" style="fill:#fef201"/><path d="M28.65,54.28a1,1,0,0,0-1,1,1,1,0,0,0,1,1,1,1,0,1,0,0-2Z" style="fill:#fef201"/><path d="M28.69,67.33a1,1,0,1,0,1,1A1,1,0,0,0,28.69,67.33Z" style="fill:#fef201"/><path d="M28.73,80.37a1,1,0,1,0,0,2,1,1,0,0,0,1-1A1,1,0,0,0,28.73,80.37Z" style="fill:#fef201"/><path d="M28.77,93.42a1,1,0,0,0,0,2,1,1,0,1,0,0-2Z" style="fill:#fef201"/><path d="M28.82,106.46a1,1,0,1,0,1,1A1,1,0,0,0,28.82,106.46Z" style="fill:#fef201"/><path d="M28.86,119.51a1,1,0,1,0,1,1A1,1,0,0,0,28.86,119.51Z" style="fill:#fef201"/><path d="M28.9,132.55a1,1,0,1,0,1,1A1,1,0,0,0,28.9,132.55Z" style="fill:#fef201"/><path d="M28.94,145.6a1,1,0,0,0,0,2,1,1,0,0,0,1-1A1,1,0,0,0,28.94,145.6Z" style="fill:#fef201"/><path d="M29,158.64a1,1,0,1,0,1,1A1,1,0,0,0,29,158.64Z" style="fill:#fef201"/><path d="M29,171.68a1,1,0,0,0-1,1,1,1,0,0,0,2,0A1,1,0,0,0,29,171.68Z" style="fill:#fef201"/><path d="M29.07,184.73a1,1,0,0,0-1,1,1,1,0,1,0,1-1Z" style="fill:#fef201"/><path d="M29.11,197.77a1,1,0,1,0,1,1A1,1,0,0,0,29.11,197.77Z" style="fill:#fef201"/><circle cx="37.47" cy="8.78" r="1" style="fill:#fef201"/><circle cx="37.47" cy="21.82" r="1" style="fill:#fef201"/><circle cx="37.47" cy="34.87" r="1" style="fill:#fef201"/><circle cx="37.47" cy="47.91" r="1" style="fill:#fef201"/><circle cx="37.47" cy="60.95" r="1" style="fill:#fef201"/><circle cx="37.47" cy="74" r="1" style="fill:#fef201"/><circle cx="37.47" cy="87.04" r="1" style="fill:#fef201"/><circle cx="37.47" cy="100.09" r="1" style="fill:#fef201"/><circle cx="37.47" cy="113.13" r="1" style="fill:#fef201"/><circle cx="37.47" cy="126.18" r="1" style="fill:#fef201"/><circle cx="37.47" cy="139.22" r="1" style="fill:#fef201"/><circle cx="37.47" cy="152.26" r="1" style="fill:#fef201"/><circle cx="37.47" cy="165.31" r="1" style="fill:#fef201"/><circle cx="37.47" cy="178.35" r="1" style="fill:#fef201"/><circle cx="37.47" cy="191.4" r="1" style="fill:#fef201"/><circle cx="37.47" cy="204.44" r="1" style="fill:#fef201"/><path d="M44.82,4.11a1,1,0,1,0-1-1A1,1,0,0,0,44.82,4.11Z" style="fill:#fef201"/><path d="M44.85,15.15a1,1,0,1,0,0,2,1,1,0,0,0,1-1A1,1,0,0,0,44.85,15.15Z" style="fill:#fef201"/><path d="M44.89,28.2a1,1,0,0,0,0,2,1,1,0,0,0,1-1A1,1,0,0,0,44.89,28.2Z" style="fill:#fef201"/><path d="M44.94,41.24a1,1,0,1,0,1,1A1,1,0,0,0,44.94,41.24Z" style="fill:#fef201"/><path d="M45,54.28a1,1,0,0,0-1,1,1,1,0,0,0,2,0A1,1,0,0,0,45,54.28Z" style="fill:#fef201"/><path d="M45,67.33a1,1,0,0,0-1,1,1,1,0,1,0,1-1Z" style="fill:#fef201"/><path d="M45.06,80.37a1,1,0,0,0-1,1,1,1,0,0,0,1,1,1,1,0,1,0,0-2Z" style="fill:#fef201"/><path d="M45.11,93.42a1,1,0,1,0,1,1A1,1,0,0,0,45.11,93.42Z" style="fill:#fef201"/><path d="M45.15,106.46a1,1,0,1,0,0,2,1,1,0,0,0,0-2Z" style="fill:#fef201"/><path d="M45.19,119.51a1,1,0,0,0-1,1,1,1,0,1,0,1-1Z" style="fill:#fef201"/><path d="M45.24,132.55a1,1,0,1,0,1,1A1,1,0,0,0,45.24,132.55Z" style="fill:#fef201"/><path d="M45.28,145.6a1,1,0,1,0,1,1A1,1,0,0,0,45.28,145.6Z" style="fill:#fef201"/><path d="M45.32,158.64a1,1,0,1,0,0,2,1,1,0,0,0,0-2Z" style="fill:#fef201"/><path d="M45.36,171.68a1,1,0,0,0-1,1,1,1,0,0,0,1,1,1,1,0,1,0,0-2Z" style="fill:#fef201"/><path d="M45.41,184.73a1,1,0,1,0,1,1A1,1,0,0,0,45.41,184.73Z" style="fill:#fef201"/><path d="M45.45,197.77a1,1,0,0,0-1,1,1,1,0,1,0,1-1Z" style="fill:#fef201"/><circle cx="53.8" cy="8.78" r="1" style="fill:#fef201"/><circle cx="53.8" cy="21.82" r="1" style="fill:#fef201"/><circle cx="53.8" cy="34.87" r="1" style="fill:#fef201"/><circle cx="53.8" cy="47.91" r="1" style="fill:#fef201"/><circle cx="53.8" cy="60.95" r="1" style="fill:#fef201"/><circle cx="53.8" cy="74" r="1" style="fill:#fef201"/><circle cx="53.8" cy="87.04" r="1" style="fill:#fef201"/><circle cx="53.8" cy="100.09" r="1" style="fill:#fef201"/><circle cx="53.8" cy="113.13" r="1" style="fill:#fef201"/><circle cx="53.8" cy="126.18" r="1" style="fill:#fef201"/><circle cx="53.8" cy="139.22" r="1" style="fill:#fef201"/><circle cx="53.8" cy="152.26" r="1" style="fill:#fef201"/><circle cx="53.8" cy="165.31" r="1" style="fill:#fef201"/><circle cx="53.8" cy="178.35" r="1" style="fill:#fef201"/><circle cx="53.8" cy="191.4" r="1" style="fill:#fef201"/><circle cx="53.8" cy="204.44" r="1" style="fill:#fef201"/><path d="M61.15,4.11a1,1,0,1,0,0-2,1,1,0,0,0-1,1A1,1,0,0,0,61.15,4.11Z" style="fill:#fef201"/><path d="M61.18,15.15a1,1,0,1,0,1,1A1,1,0,0,0,61.18,15.15Z" style="fill:#fef201"/><path d="M61.23,28.2a1,1,0,1,0,1,1A1,1,0,0,0,61.23,28.2Z" style="fill:#fef201"/><path d="M61.27,41.24a1,1,0,1,0,0,2,1,1,0,0,0,0-2Z" style="fill:#fef201"/><path d="M61.31,54.28a1,1,0,0,0-1,1,1,1,0,0,0,1,1,1,1,0,1,0,0-2Z" style="fill:#fef201"/><path d="M61.36,67.33a1,1,0,1,0,1,1A1,1,0,0,0,61.36,67.33Z" style="fill:#fef201"/><path d="M61.4,80.37a1,1,0,0,0-1,1,1,1,0,0,0,2,0A1,1,0,0,0,61.4,80.37Z" style="fill:#fef201"/><path d="M61.44,93.42a1,1,0,1,0,0,2,1,1,0,0,0,0-2Z" style="fill:#fef201"/><path d="M61.48,106.46a1,1,0,0,0,0,2,1,1,0,1,0,0-2Z" style="fill:#fef201"/><path d="M61.53,119.51a1,1,0,0,0,0,2,1,1,0,0,0,1-1A1,1,0,0,0,61.53,119.51Z" style="fill:#fef201"/><path d="M61.57,132.55a1,1,0,1,0,1,1A1,1,0,0,0,61.57,132.55Z" style="fill:#fef201"/><path d="M61.61,145.6a1,1,0,0,0-1,1,1,1,0,0,0,1,1,1,1,0,0,0,1-1A1,1,0,0,0,61.61,145.6Z" style="fill:#fef201"/><path d="M61.65,158.64a1,1,0,1,0,1,1A1,1,0,0,0,61.65,158.64Z" style="fill:#fef201"/><path d="M61.7,171.68a1,1,0,0,0-1,1,1,1,0,0,0,2,0A1,1,0,0,0,61.7,171.68Z" style="fill:#fef201"/><path d="M61.74,184.73a1,1,0,1,0,1,1A1,1,0,0,0,61.74,184.73Z" style="fill:#fef201"/><path d="M61.78,197.77a1,1,0,1,0,0,2,1,1,0,0,0,1-1A1,1,0,0,0,61.78,197.77Z" style="fill:#fef201"/><circle cx="70.13" cy="8.78" r="1" style="fill:#fef201"/><circle cx="70.13" cy="21.82" r="1" style="fill:#fef201"/><circle cx="70.13" cy="34.87" r="1" style="fill:#fef201"/><circle cx="70.13" cy="47.91" r="1" style="fill:#fef201"/><circle cx="70.13" cy="60.95" r="1" style="fill:#fef201"/><circle cx="70.13" cy="74" r="1" style="fill:#fef201"/><circle cx="70.13" cy="87.04" r="1" style="fill:#fef201"/><circle cx="70.13" cy="100.09" r="1" style="fill:#fef201"/><circle cx="70.13" cy="113.13" r="1" style="fill:#fef201"/><circle cx="70.13" cy="126.18" r="1" style="fill:#fef201"/><circle cx="70.13" cy="139.22" r="1" style="fill:#fef201"/><circle cx="70.13" cy="152.26" r="1" style="fill:#fef201"/><circle cx="70.13" cy="165.31" r="1" style="fill:#fef201"/><circle cx="70.13" cy="178.35" r="1" style="fill:#fef201"/><circle cx="70.13" cy="191.4" r="1" style="fill:#fef201"/><circle cx="70.13" cy="204.44" r="1" style="fill:#fef201"/><path d="M77.48,4.11a1,1,0,0,0,1-1,1,1,0,1,0-1,1Z" style="fill:#fef201"/><path d="M77.52,15.15a1,1,0,0,0-1,1,1,1,0,1,0,1-1Z" style="fill:#fef201"/><path d="M77.56,28.2a1,1,0,0,0-1,1,1,1,0,0,0,1,1,1,1,0,0,0,0-2Z" style="fill:#fef201"/><path d="M77.6,41.24a1,1,0,0,0,0,2,1,1,0,1,0,0-2Z" style="fill:#fef201"/><path d="M77.65,54.28a1,1,0,0,0-1,1,1,1,0,0,0,1,1,1,1,0,0,0,0-2Z" style="fill:#fef201"/><path d="M77.69,67.33a1,1,0,1,0,1,1A1,1,0,0,0,77.69,67.33Z" style="fill:#fef201"/><path d="M77.73,80.37a1,1,0,1,0,0,2,1,1,0,0,0,1-1A1,1,0,0,0,77.73,80.37Z" style="fill:#fef201"/><path d="M77.77,93.42a1,1,0,0,0,0,2,1,1,0,1,0,0-2Z" style="fill:#fef201"/><path d="M77.82,106.46a1,1,0,1,0,1,1A1,1,0,0,0,77.82,106.46Z" style="fill:#fef201"/><path d="M77.86,119.51a1,1,0,1,0,1,1A1,1,0,0,0,77.86,119.51Z" style="fill:#fef201"/><path d="M77.9,132.55a1,1,0,1,0,1,1A1,1,0,0,0,77.9,132.55Z" style="fill:#fef201"/><path d="M77.94,145.6a1,1,0,0,0,0,2,1,1,0,0,0,1-1A1,1,0,0,0,77.94,145.6Z" style="fill:#fef201"/><path d="M78,158.64a1,1,0,1,0,1,1A1,1,0,0,0,78,158.64Z" style="fill:#fef201"/><path d="M78,171.68a1,1,0,0,0-1,1,1,1,0,0,0,2,0A1,1,0,0,0,78,171.68Z" style="fill:#fef201"/><path d="M78.07,184.73a1,1,0,0,0-1,1,1,1,0,1,0,1-1Z" style="fill:#fef201"/><path d="M78.11,197.77a1,1,0,1,0,1,1A1,1,0,0,0,78.11,197.77Z" style="fill:#fef201"/><circle cx="86.47" cy="8.78" r="1" style="fill:#fef201"/><circle cx="86.47" cy="21.82" r="1" style="fill:#fef201"/><circle cx="86.47" cy="34.87" r="1" style="fill:#fef201"/><circle cx="86.47" cy="47.91" r="1" style="fill:#fef201"/><circle cx="86.47" cy="60.95" r="1" style="fill:#fef201"/><circle cx="86.47" cy="74" r="1" style="fill:#fef201"/><circle cx="86.47" cy="87.04" r="1" style="fill:#fef201"/><circle cx="86.47" cy="100.09" r="1" style="fill:#fef201"/><circle cx="86.47" cy="113.13" r="1" style="fill:#fef201"/><circle cx="86.47" cy="126.18" r="1" style="fill:#fef201"/><circle cx="86.47" cy="139.22" r="1" style="fill:#fef201"/><circle cx="86.47" cy="152.26" r="1" style="fill:#fef201"/><circle cx="86.47" cy="165.31" r="1" style="fill:#fef201"/><circle cx="86.47" cy="178.35" r="1" style="fill:#fef201"/><circle cx="86.47" cy="191.4" r="1" style="fill:#fef201"/><circle cx="86.47" cy="204.44" r="1" style="fill:#fef201"/><path d="M93.82,4.11a1,1,0,1,0-1-1A1,1,0,0,0,93.82,4.11Z" style="fill:#fef201"/><path d="M93.85,15.15a1,1,0,1,0,0,2,1,1,0,0,0,1-1A1,1,0,0,0,93.85,15.15Z" style="fill:#fef201"/><path d="M93.89,28.2a1,1,0,0,0,0,2,1,1,0,0,0,1-1A1,1,0,0,0,93.89,28.2Z" style="fill:#fef201"/><path d="M93.94,41.24a1,1,0,1,0,1,1A1,1,0,0,0,93.94,41.24Z" style="fill:#fef201"/><path d="M94,54.28a1,1,0,0,0-1,1,1,1,0,0,0,2,0A1,1,0,0,0,94,54.28Z" style="fill:#fef201"/><path d="M94,67.33a1,1,0,0,0-1,1,1,1,0,1,0,1-1Z" style="fill:#fef201"/><path d="M94.06,80.37a1,1,0,0,0-1,1,1,1,0,0,0,1,1,1,1,0,1,0,0-2Z" style="fill:#fef201"/><path d="M94.11,93.42a1,1,0,1,0,1,1A1,1,0,0,0,94.11,93.42Z" style="fill:#fef201"/><path d="M94.15,106.46a1,1,0,1,0,0,2,1,1,0,0,0,0-2Z" style="fill:#fef201"/><path d="M94.19,119.51a1,1,0,0,0-1,1,1,1,0,1,0,1-1Z" style="fill:#fef201"/><path d="M94.24,132.55a1,1,0,1,0,1,1A1,1,0,0,0,94.24,132.55Z" style="fill:#fef201"/><path d="M94.28,145.6a1,1,0,1,0,1,1A1,1,0,0,0,94.28,145.6Z" style="fill:#fef201"/><path d="M94.32,158.64a1,1,0,1,0,0,2,1,1,0,0,0,0-2Z" style="fill:#fef201"/><path d="M94.36,171.68a1,1,0,0,0-1,1,1,1,0,0,0,1,1,1,1,0,1,0,0-2Z" style="fill:#fef201"/><path d="M94.41,184.73a1,1,0,1,0,1,1A1,1,0,0,0,94.41,184.73Z" style="fill:#fef201"/><path d="M94.45,197.77a1,1,0,0,0-1,1,1,1,0,1,0,1-1Z" style="fill:#fef201"/><circle cx="102.8" cy="8.78" r="1" style="fill:#fef201"/><circle cx="102.8" cy="21.82" r="1" style="fill:#fef201"/><circle cx="102.8" cy="34.87" r="1" style="fill:#fef201"/><circle cx="102.8" cy="47.91" r="1" style="fill:#fef201"/><circle cx="102.8" cy="60.95" r="1" style="fill:#fef201"/><circle cx="102.8" cy="74" r="1" style="fill:#fef201"/><circle cx="102.8" cy="87.04" r="1" style="fill:#fef201"/><circle cx="102.8" cy="100.09" r="1" style="fill:#fef201"/><circle cx="102.8" cy="113.13" r="1" style="fill:#fef201"/><circle cx="102.8" cy="126.18" r="1" style="fill:#fef201"/><circle cx="102.8" cy="139.22" r="1" style="fill:#fef201"/><circle cx="102.8" cy="152.26" r="1" style="fill:#fef201"/><circle cx="102.8" cy="165.31" r="1" style="fill:#fef201"/><circle cx="102.8" cy="178.35" r="1" style="fill:#fef201"/><circle cx="102.8" cy="191.4" r="1" style="fill:#fef201"/><circle cx="102.8" cy="204.44" r="1" style="fill:#fef201"/><path d="M110.15,4.11a1,1,0,1,0,0-2,1,1,0,0,0-1,1A1,1,0,0,0,110.15,4.11Z" style="fill:#fef201"/><path d="M110.18,15.15a1,1,0,1,0,1,1A1,1,0,0,0,110.18,15.15Z" style="fill:#fef201"/><path d="M110.23,28.2a1,1,0,1,0,1,1A1,1,0,0,0,110.23,28.2Z" style="fill:#fef201"/><path d="M110.27,41.24a1,1,0,1,0,0,2,1,1,0,0,0,0-2Z" style="fill:#fef201"/><path d="M110.31,54.28a1,1,0,0,0-1,1,1,1,0,0,0,1,1,1,1,0,1,0,0-2Z" style="fill:#fef201"/><path d="M110.36,67.33a1,1,0,1,0,1,1A1,1,0,0,0,110.36,67.33Z" style="fill:#fef201"/><path d="M110.4,80.37a1,1,0,0,0-1,1,1,1,0,0,0,2,0A1,1,0,0,0,110.4,80.37Z" style="fill:#fef201"/><path d="M110.44,93.42a1,1,0,1,0,0,2,1,1,0,0,0,0-2Z" style="fill:#fef201"/><path d="M110.48,106.46a1,1,0,0,0,0,2,1,1,0,1,0,0-2Z" style="fill:#fef201"/><path d="M110.53,119.51a1,1,0,0,0,0,2,1,1,0,0,0,1-1A1,1,0,0,0,110.53,119.51Z" style="fill:#fef201"/><path d="M110.57,132.55a1,1,0,1,0,1,1A1,1,0,0,0,110.57,132.55Z" style="fill:#fef201"/><path d="M110.61,145.6a1,1,0,0,0-1,1,1,1,0,0,0,1,1,1,1,0,0,0,1-1A1,1,0,0,0,110.61,145.6Z" style="fill:#fef201"/><path d="M110.65,158.64a1,1,0,1,0,1,1A1,1,0,0,0,110.65,158.64Z" style="fill:#fef201"/><path d="M110.7,171.68a1,1,0,0,0-1,1,1,1,0,0,0,2,0A1,1,0,0,0,110.7,171.68Z" style="fill:#fef201"/><path d="M110.74,184.73a1,1,0,1,0,1,1A1,1,0,0,0,110.74,184.73Z" style="fill:#fef201"/><path d="M110.78,197.77a1,1,0,1,0,0,2,1,1,0,0,0,1-1A1,1,0,0,0,110.78,197.77Z" style="fill:#fef201"/><circle cx="119.13" cy="8.78" r="1" style="fill:#fef201"/><circle cx="119.13" cy="21.82" r="1" style="fill:#fef201"/><circle cx="119.13" cy="34.87" r="1" style="fill:#fef201"/><circle cx="119.13" cy="47.91" r="1" style="fill:#fef201"/><circle cx="119.13" cy="60.95" r="1" style="fill:#fef201"/><circle cx="119.13" cy="74" r="1" style="fill:#fef201"/><circle cx="119.13" cy="87.04" r="1" style="fill:#fef201"/><circle cx="119.13" cy="100.09" r="1" style="fill:#fef201"/><circle cx="119.13" cy="113.13" r="1" style="fill:#fef201"/><circle cx="119.13" cy="126.18" r="1" style="fill:#fef201"/><circle cx="119.13" cy="139.22" r="1" style="fill:#fef201"/><circle cx="119.13" cy="152.26" r="1" style="fill:#fef201"/><circle cx="119.13" cy="165.31" r="1" style="fill:#fef201"/><circle cx="119.13" cy="178.35" r="1" style="fill:#fef201"/><circle cx="119.13" cy="191.4" r="1" style="fill:#fef201"/><circle cx="119.13" cy="204.44" r="1" style="fill:#fef201"/><path d="M126.48,4.11a1,1,0,0,0,1-1,1,1,0,1,0-1,1Z" style="fill:#fef201"/><path d="M126.52,15.15a1,1,0,0,0-1,1,1,1,0,1,0,1-1Z" style="fill:#fef201"/><path d="M126.56,28.2a1,1,0,0,0-1,1,1,1,0,0,0,1,1,1,1,0,0,0,0-2Z" style="fill:#fef201"/><path d="M126.6,41.24a1,1,0,0,0,0,2,1,1,0,1,0,0-2Z" style="fill:#fef201"/><path d="M126.65,54.28a1,1,0,0,0-1,1,1,1,0,0,0,1,1,1,1,0,0,0,0-2Z" style="fill:#fef201"/><path d="M126.69,67.33a1,1,0,1,0,1,1A1,1,0,0,0,126.69,67.33Z" style="fill:#fef201"/><path d="M126.73,80.37a1,1,0,1,0,0,2,1,1,0,0,0,1-1A1,1,0,0,0,126.73,80.37Z" style="fill:#fef201"/><path d="M126.77,93.42a1,1,0,0,0,0,2,1,1,0,1,0,0-2Z" style="fill:#fef201"/><path d="M126.82,106.46a1,1,0,1,0,1,1A1,1,0,0,0,126.82,106.46Z" style="fill:#fef201"/><path d="M126.86,119.51a1,1,0,1,0,1,1A1,1,0,0,0,126.86,119.51Z" style="fill:#fef201"/><path d="M126.9,132.55a1,1,0,1,0,1,1A1,1,0,0,0,126.9,132.55Z" style="fill:#fef201"/><path d="M126.94,145.6a1,1,0,0,0,0,2,1,1,0,0,0,1-1A1,1,0,0,0,126.94,145.6Z" style="fill:#fef201"/><path d="M127,158.64a1,1,0,1,0,1,1A1,1,0,0,0,127,158.64Z" style="fill:#fef201"/><path d="M127,171.68a1,1,0,0,0-1,1,1,1,0,0,0,2,0A1,1,0,0,0,127,171.68Z" style="fill:#fef201"/><path d="M127.07,184.73a1,1,0,0,0-1,1,1,1,0,1,0,1-1Z" style="fill:#fef201"/><path d="M127.11,197.77a1,1,0,1,0,1,1A1,1,0,0,0,127.11,197.77Z" style="fill:#fef201"/><circle cx="135.47" cy="8.78" r="1" style="fill:#fef201"/><circle cx="135.47" cy="21.82" r="1" style="fill:#fef201"/><circle cx="135.47" cy="34.87" r="1" style="fill:#fef201"/><circle cx="135.47" cy="47.91" r="1" style="fill:#fef201"/><circle cx="135.47" cy="60.95" r="1" style="fill:#fef201"/><circle cx="135.47" cy="74" r="1" style="fill:#fef201"/><circle cx="135.47" cy="87.04" r="1" style="fill:#fef201"/><circle cx="135.47" cy="100.09" r="1" style="fill:#fef201"/><circle cx="135.47" cy="113.13" r="1" style="fill:#fef201"/><circle cx="135.47" cy="126.18" r="1" style="fill:#fef201"/><circle cx="135.47" cy="139.22" r="1" style="fill:#fef201"/><circle cx="135.47" cy="152.26" r="1" style="fill:#fef201"/><circle cx="135.47" cy="165.31" r="1" style="fill:#fef201"/><circle cx="135.47" cy="178.35" r="1" style="fill:#fef201"/><circle cx="135.47" cy="191.4" r="1" style="fill:#fef201"/><circle cx="135.47" cy="204.44" r="1" style="fill:#fef201"/><path d="M142.82,4.11a1,1,0,1,0-1-1A1,1,0,0,0,142.82,4.11Z" style="fill:#fef201"/><path d="M142.85,15.15a1,1,0,1,0,0,2,1,1,0,0,0,1-1A1,1,0,0,0,142.85,15.15Z" style="fill:#fef201"/><path d="M142.89,28.2a1,1,0,0,0,0,2,1,1,0,0,0,1-1A1,1,0,0,0,142.89,28.2Z" style="fill:#fef201"/><path d="M142.94,41.24a1,1,0,1,0,1,1A1,1,0,0,0,142.94,41.24Z" style="fill:#fef201"/><path d="M143,54.28a1,1,0,0,0-1,1,1,1,0,0,0,2,0A1,1,0,0,0,143,54.28Z" style="fill:#fef201"/><path d="M143,67.33a1,1,0,0,0-1,1,1,1,0,1,0,1-1Z" style="fill:#fef201"/><path d="M143.06,80.37a1,1,0,0,0-1,1,1,1,0,0,0,1,1,1,1,0,1,0,0-2Z" style="fill:#fef201"/><path d="M143.11,93.42a1,1,0,1,0,1,1A1,1,0,0,0,143.11,93.42Z" style="fill:#fef201"/><path d="M143.15,106.46a1,1,0,1,0,0,2,1,1,0,0,0,0-2Z" style="fill:#fef201"/><path d="M143.19,119.51a1,1,0,0,0-1,1,1,1,0,1,0,1-1Z" style="fill:#fef201"/><path d="M143.24,132.55a1,1,0,1,0,1,1A1,1,0,0,0,143.24,132.55Z" style="fill:#fef201"/><path d="M143.28,145.6a1,1,0,1,0,1,1A1,1,0,0,0,143.28,145.6Z" style="fill:#fef201"/><path d="M143.32,158.64a1,1,0,1,0,0,2,1,1,0,0,0,0-2Z" style="fill:#fef201"/><path d="M143.36,171.68a1,1,0,0,0-1,1,1,1,0,0,0,1,1,1,1,0,1,0,0-2Z" style="fill:#fef201"/><path d="M143.41,184.73a1,1,0,1,0,1,1A1,1,0,0,0,143.41,184.73Z" style="fill:#fef201"/><path d="M143.45,197.77a1,1,0,0,0-1,1,1,1,0,1,0,1-1Z" style="fill:#fef201"/></g></g><g style="opacity:0.45"><polygon points="80.36 40.2 73.51 40.2 8.1 105.61 8.1 112.45 80.36 40.2" style="fill:#00158e;opacity:0.2"/><polygon points="99.61 40.2 92.76 40.2 8.1 124.85 8.1 131.7 99.61 40.2" style="fill:#00158e;opacity:0.2"/><polygon points="61.11 40.2 54.27 40.2 8.1 86.36 8.1 93.21 61.11 40.2" style="fill:#00158e;opacity:0.2"/><polygon points="41.86 40.2 35.02 40.2 8.1 67.11 8.1 73.96 41.86 40.2" style="fill:#00158e;opacity:0.2"/><polygon points="22.62 40.2 15.77 40.2 8.1 47.86 8.1 54.71 22.62 40.2" style="fill:#00158e;opacity:0.2"/><path d="M108.1,40.2v3.91L11.81,140.4H8.1v30.51H138.82V40.2Zm0,100.2H95.65L108.1,128Zm0-19.3L88.8,140.4H76.4l31.7-31.7Zm0-19.25L69.56,140.4H57.15L108.1,89.45Zm0-19.25L50.31,140.4H37.91L108.1,70.2Zm0-19.24-77,77H18.66L108.1,51Z" style="fill:#00158e;opacity:0.2"/><polygon points="135.94 168.5 135.94 142.05 131.16 146.84 131.16 163.71 114.28 163.71 109.5 168.5 135.94 168.5" style="fill:#0751cf"/><rect x="137.39" y="71.65" width="2.99" height="35.67" style="fill:gold"/><rect x="137.39" y="114.49" width="2.99" height="4.98" style="fill:gold"/><rect x="26.4" y="170.08" width="48.42" height="2.39" style="fill:gold"/><polygon points="23.9 160.58 27.76 160.58 31.88 156.46 25.44 156.46 16.15 165.74 18.74 165.74 23.9 160.58" style="fill:gold"/><polygon points="32.27 160.58 36.13 160.58 40.26 156.46 33.81 156.46 24.53 165.74 27.11 165.74 32.27 160.58" style="fill:gold"/><polygon points="40.65 160.58 44.51 160.58 48.63 156.46 42.19 156.46 32.9 165.74 35.48 165.74 40.65 160.58" style="fill:gold"/><polygon points="49.02 160.58 52.88 160.58 57.01 156.46 50.56 156.46 41.28 165.74 43.86 165.74 49.02 160.58" style="fill:gold"/><polygon points="57.4 160.58 61.26 160.58 65.38 156.46 58.94 156.46 49.65 165.74 52.23 165.74 57.4 160.58" style="fill:gold"/><polygon points="65.77 160.58 69.63 160.58 73.75 156.46 67.31 156.46 58.03 165.74 60.61 165.74 65.77 160.58" style="fill:gold"/><polygon points="74.15 160.58 78.01 160.58 82.13 156.46 75.69 156.46 66.4 165.74 68.98 165.74 74.15 160.58" style="fill:gold"/><polygon points="82.52 160.58 86.38 160.58 90.5 156.46 84.06 156.46 74.77 165.74 77.36 165.74 82.52 160.58" style="fill:gold"/><path d="M125.13,35.49H110.19V31.9h14.94Zm-14.34-.6h13.75V32.5H110.79Z" style="fill:#0751cf"/><path d="M142.87,143.28h-2.59V131.93h2.59Zm-2-.59h1.39V132.52h-1.39Z" style="fill:#0751cf"/><path d="M101.82,179H84.49v-3.79h17.33Zm-16.74-.6h16.14v-2.59H85.08Z" style="fill:#0751cf"/><path d="M16.14,178.15H9.57v-2.39h6.57Zm-6-.59h5.38v-1.2H10.16Z" style="fill:gold"/><path d="M5.78,166.6H3.39V146.67H5.78ZM4,166H5.18V147.27H4Z" style="fill:gold"/><polygon points="94.75 34.58 94.75 34.43 26.95 34.43 26.95 33.06 94.6 33.06 94.6 34.58 94.75 34.58 94.75 34.43 94.75 34.58 94.9 34.58 94.9 32.76 26.65 32.76 26.65 34.73 94.9 34.73 94.9 34.58 94.75 34.58" style="fill:gold"/></g><path d="M90.6,36.46a1.73,1.73,0,1,0-1.91,1.71V48H86v.39h3V38.16A1.72,1.72,0,0,0,90.6,36.46Z"/><polygon points="84.08 50.07 86.55 49.29 86.55 47.01 77.42 47.01 77.42 50.07 84.08 50.07"/><path d="M54.05,36.46A1.72,1.72,0,1,1,56,38.17V48h2.67v.39H55.56V38.16A1.71,1.71,0,0,1,54.05,36.46Z"/><polygon points="60.56 50.07 58.09 49.29 58.09 47.01 67.22 47.01 67.22 50.07 60.56 50.07"/><polygon points="62.43 61.84 62.43 48.85 82.99 48.85 82.99 62.55 63.2 62.55 62.43 61.84" style="fill:#4e0017"/><polygon points="51.26 56.89 51.9 63.83 49.44 64.61 47.15 58.89 49.66 56.35 51.26 56.89" style="fill:#901c27"/><polygon points="45.29 81.84 53.88 81.84 53.88 88.58 51.36 93.47 51.36 101.61 46.04 101.61 46.04 85.84 44.11 85.84 45.29 81.84" style="fill:#24042a"/><polygon points="44.11 85.84 46.04 101.61 46.04 85.84 44.11 85.84" style="fill:#38103b"/><path d="M49.86,107l.33.52a4.07,4.07,0,0,0,1.69-2.54,5.2,5.2,0,0,0-1.16-4l-.51.36a4.64,4.64,0,0,1,1.06,3.55A3.55,3.55,0,0,1,49.86,107Z"/><path d="M49.69,110.1l.57.71a13,13,0,0,0,3.23-4.24c1.14-2.43,1.86-6.25-1.19-10.61l-.74.53c2.24,3.21,2.62,6.47,1.11,9.69A12,12,0,0,1,49.69,110.1Z"/><path d="M46.42,106.69l-.33.53a4.15,4.15,0,0,1-1.69-2.55,5.25,5.25,0,0,1,1.16-4l.51.36A4.64,4.64,0,0,0,45,104.55,3.55,3.55,0,0,0,46.42,106.69Z"/><path d="M46.59,109.84l-.57.71a13,13,0,0,1-3.23-4.24c-1.14-2.43-1.86-6.25,1.19-10.6l.74.52c-2.24,3.21-2.62,6.47-1.1,9.69A11.93,11.93,0,0,0,46.59,109.84Z"/><rect x="46.3" y="97.09" width="3.31" height="15.15" transform="translate(95.91 209.33) rotate(180)" style="fill:#24042a"/><path d="M49.43,105.89l-2.77.13a1.11,1.11,0,0,0-1,1.25l1.52,11.49,2.82-.14.63-11.56A1.11,1.11,0,0,0,49.43,105.89Z" style="fill:#23849b"/><rect x="46.25" y="118.03" width="4.98" height="5.86" transform="translate(103.03 239.54) rotate(177.34)" style="fill:#00545a"/><path d="M48.92,123.89a3.76,3.76,0,0,0,0,.79,1.36,1.36,0,0,0,.7,1.12c.82.45,2.23,1.84,2.62,6a.38.38,0,0,0,.4.35h0a.75.75,0,0,0,.71-.77l-.27-5.65a1.08,1.08,0,0,0-.36-.77l-1.35-1.23Z" style="fill:#38103b"/><path d="M49.1,123.88a3.79,3.79,0,0,1,.08.79,1.33,1.33,0,0,1-.67,1.18c-.87.53-2.3,2.05-2.33,6.28a.41.41,0,0,1-.42.39h0a.77.77,0,0,1-.85-.7l-.27-5.65a1.07,1.07,0,0,1,.33-.8L46.36,124Z" style="fill:#5f2041"/><path d="M44.94,99.47v2.14a1.52,1.52,0,0,0,1.52,1.52h2.9a1.92,1.92,0,0,0,1.91-1.92v-.31Z" style="fill:#38103b"/><polygon points="44.74 125.69 46.11 118.15 46.91 123.78 44.74 125.69" style="fill:#5d7292"/><polygon points="51.09 117.92 53.07 125.78 51.36 123.78 51.09 117.92" style="fill:#5d7292"/><path d="M47.3,109.63a1.19,1.19,0,1,1-1.19-1.18A1.18,1.18,0,0,1,47.3,109.63Z" style="fill:#000b10"/><polygon points="46.11 118.15 45.74 108.25 50.52 108.25 51.09 117.92 46.11 118.15" style="fill:#167380"/><polygon points="36.36 64.15 49.09 62.98 50.53 67.5 40.03 71.69 35.37 67.09 36.36 64.15" style="fill:#ec8a3a"/><polygon points="72.8 100.33 55.77 79.44 54.92 83.44 64.5 101.94 72.8 101.94 72.8 100.33" style="fill:#4e0017"/><path d="M72.8,101.93V65.79H51.62l-1.09.77,5.24,12.88S67.45,93.2,67,101.93Z" style="fill:#86152a"/><rect x="62.84" y="101.93" width="8.65" height="6.99" style="fill:#a3b448"/><polygon points="65.72 108.92 62.32 119.08 66.39 129.56 71.49 129.56 71.49 108.92 65.72 108.92" style="fill:#451b46"/><polygon points="72.8 61.26 68.49 61.26 63.96 65.8 72.8 65.8 72.8 61.26" style="fill:#7b2e52"/><path d="M48.6,87.59c-.15-.28-4.51-5.37-4.51-5.37l2.2-13.85,7.37-3.76Z" style="fill:#23849b"/><path d="M72.8,69.62H69.91a8.13,8.13,0,0,0-8.13,8.13v.72a8.15,8.15,0,0,0,2.9,6.23c2.38,2,5.75,5.84,8.12,12.67Z" style="fill:#901c27"/><path d="M72.8,67.9c-3.3,5.31-11.69,18.81-11.65,18.87L64,91.56,72.8,77Z" style="fill:#710e1b"/><polygon points="72.8 65.8 58.95 65.8 58.34 68.97 68.92 74.15 72.8 67.9 72.8 65.8" style="fill:#901c27"/><polygon points="58.95 65.8 64.5 59.3 66.47 61.26 68.49 61.26 63.96 65.8 58.95 65.8" style="fill:#451b46"/><polygon points="54.92 83.44 61.15 86.77 68.92 74.15 58.34 68.97 54.92 83.44" style="fill:#ad202f"/><polygon points="64.02 108.92 62.32 119.08 65.72 108.92 64.02 108.92" style="fill:#5d7292"/><polygon points="66.13 138.7 68.38 143.24 68.38 138.7 66.13 138.7" style="fill:#451b46"/><polygon points="72.8 101.94 71.49 101.94 71.49 129.56 72.8 115.72 72.8 101.94" style="fill:#5d7292"/><path d="M43.78,93.23s-2.94,4.46,1.16,6.24l6.42,2.14s3.84-1.51,1-8.38Z" style="fill:#23849b"/><polygon points="42.03 56.83 49.34 62.91 47.72 66.04 40 62.73 39.97 57.86 42.03 56.83" style="fill:#c16b2b"/><circle cx="49.34" cy="67.34" r="4.61" transform="translate(-24.96 105.38) rotate(-80.88)" style="fill:#451b46"/><path d="M48.6,87.59l6.32-4.15,4.14-17.5-2.18-3a1.63,1.63,0,0,0-2.78.23L51.45,72Z" style="fill:#167380"/><path d="M65.6,134.75l-.32.46a3.74,3.74,0,0,1-1.6-2.27,4.49,4.49,0,0,1,1.11-3.58l.48.32a4,4,0,0,0-1,3.16A3.24,3.24,0,0,0,65.6,134.75Z"/><path d="M65.76,137.55l-.54.63a11.57,11.57,0,0,1-3-3.77c-1.08-2.17-1.76-5.56,1.12-9.44l.7.46c-2.12,2.86-2.47,5.77-1.05,8.63A10.93,10.93,0,0,0,65.76,137.55Z"/><polygon points="62.28 123.2 65.64 133.48 70.96 126.27 63.96 123.2 62.28 123.2" style="fill:#38103b"/><polygon points="65.64 133.48 63.5 135.33 63.5 139.46 65.64 139.46 71.71 133.75 71.71 126.6 70.96 126.27 65.64 133.48" style="fill:#7b2e52"/><polygon points="65.64 139.46 65.64 145.08 67.73 145.08 71.68 141.36 71.68 133.75 65.64 139.46" style="fill:#38103b"/><polygon points="65.64 145.08 64.67 146 64.67 154.22 67.14 154.22 71.66 149.96 71.66 141.36 67.72 145.08 65.64 145.08" style="fill:#7b2e52"/><polygon points="66.7 152.66 65.32 152.66 63.52 155.22 63.52 158.58 70.4 158.58 71.71 158.58 71.71 150.03 66.7 152.66" style="fill:#90619c"/><rect x="63.52" y="158.58" width="8.19" height="2.77" style="fill:#af7eb6"/><polygon points="63.8 162.31 58.4 162.31 58.4 162.73 61.85 164.1 61.85 165 68.64 165 68.64 163.4 67.3 161.93 65.4 161.93 63.8 162.31" style="fill:#38103b"/><rect x="62.15" y="161.35" width="9.59" height="1.47" style="fill:#38103b"/><rect x="66.63" y="162.81" width="1.7" height="1.67" style="fill:#38103b"/><polygon points="66.63 164.48 67.23 167.63 67.93 167.63 68.33 164.48 66.63 164.48" style="fill:#38103b"/><rect x="65.87" y="162.81" width="3.03" height="0.83" style="fill:#38103b"/><polygon points="71.7 160.44 71.7 155.35 71.22 155.35 69.66 158.61 68.64 158.61 68.64 165 70.46 165 72.12 163.74 72.12 161.95 71.7 160.44" style="fill:#38103b"/><rect x="71.49" y="101.93" width="1.32" height="6.99" style="fill:#7e8432"/><polygon points="94.34 56.89 93.7 63.83 96.17 64.61 98.45 58.89 95.94 56.35 94.34 56.89" style="fill:#750f23"/><polygon points="100.31 81.84 91.73 81.84 91.73 88.58 94.24 93.47 94.24 101.61 99.56 101.61 99.56 85.84 101.5 85.84 100.31 81.84"/><polygon points="101.5 85.84 99.56 101.61 99.56 85.84 101.5 85.84" style="fill:#38103b"/><path d="M95.75,107l-.34.52a4.11,4.11,0,0,1-1.69-2.54,5.21,5.21,0,0,1,1.17-4l.51.36a4.6,4.6,0,0,0-1.06,3.55A3.51,3.51,0,0,0,95.75,107Z"/><path d="M95.91,110.1l-.57.71a12.87,12.87,0,0,1-3.22-4.24C91,104.14,90.26,100.32,93.3,96l.75.53c-2.25,3.21-2.62,6.47-1.11,9.69A12.08,12.08,0,0,0,95.91,110.1Z"/><path d="M99.18,106.69l.34.53a4.19,4.19,0,0,0,1.69-2.55,5.22,5.22,0,0,0-1.17-4l-.51.36a4.6,4.6,0,0,1,1.06,3.55A3.55,3.55,0,0,1,99.18,106.69Z"/><path d="M99,109.84l.57.71a12.87,12.87,0,0,0,3.22-4.24c1.14-2.43,1.86-6.25-1.18-10.6l-.75.52c2.25,3.21,2.62,6.47,1.11,9.69A12.08,12.08,0,0,1,99,109.84Z"/><rect x="96" y="97.09" width="3.31" height="15.15" style="fill:#24042a"/><path d="M96.18,105.89,99,106a1.1,1.1,0,0,1,1,1.25l-1.51,11.49-2.82-.14L95,107.06A1.11,1.11,0,0,1,96.18,105.89Z" style="fill:#167380"/><rect x="94.38" y="118.03" width="4.98" height="5.86" transform="translate(5.71 -4.36) rotate(2.66)" style="fill:#003f43"/><path d="M96.69,123.89a4,4,0,0,1,0,.79A1.35,1.35,0,0,1,96,125.8c-.82.45-2.23,1.84-2.62,6a.39.39,0,0,1-.41.35h0a.74.74,0,0,1-.7-.77l.26-5.65a1.16,1.16,0,0,1,.36-.77l1.36-1.23Z" style="fill:#150220"/><path d="M96.51,123.88a3.2,3.2,0,0,0-.08.79,1.32,1.32,0,0,0,.66,1.18c.88.53,2.31,2.05,2.33,6.28a.42.42,0,0,0,.42.39h0a.78.78,0,0,0,.86-.7l.26-5.65a1,1,0,0,0-.32-.8L99.25,124Z" style="fill:#3a0628"/><path d="M100.67,99.47v2.14a1.52,1.52,0,0,1-1.52,1.52h-2.9a1.92,1.92,0,0,1-1.92-1.92v-.31Z" style="fill:#1e0627"/><polygon points="100.87 125.69 99.49 118.15 98.69 123.78 100.87 125.69" style="fill:#485e7a"/><polygon points="94.51 117.92 92.53 125.78 94.25 123.78 94.51 117.92" style="fill:#485e7a"/><circle cx="99.49" cy="109.63" r="1.18" style="fill:#000b10"/><polygon points="99.49 118.15 99.86 108.25 95.09 108.25 94.51 117.92 99.49 118.15" style="fill:#167380"/><polygon points="109.25 64.15 96.51 62.98 95.08 67.5 105.57 71.69 110.24 67.09 109.25 64.15" style="fill:#ca7431"/><polygon points="72.8 100.33 89.84 79.44 90.68 83.44 81.1 101.94 72.8 101.94 72.8 100.33" style="fill:#3a0216"/><path d="M72.8,101.93V65.79H94l1.1.77L89.84,79.44S78.15,93.2,78.59,101.93Z" style="fill:#6b0926"/><rect x="74.12" y="101.93" width="8.65" height="6.99" transform="translate(156.88 210.86) rotate(180)" style="fill:#929b40"/><polygon points="79.89 108.92 83.28 119.08 79.21 129.56 74.12 129.56 74.12 108.92 79.89 108.92" style="fill:#2c0430"/><polygon points="72.8 61.26 77.12 61.26 81.65 65.8 72.8 65.8 72.8 61.26" style="fill:#661f44"/><path d="M97,87.59c.16-.28,4.52-5.37,4.52-5.37l-2.2-13.85L92,64.61Z" style="fill:#1f7b86"/><path d="M72.8,69.62h2.89a8.13,8.13,0,0,1,8.14,8.13v.72a8.15,8.15,0,0,1-2.9,6.23c-2.39,2-5.76,5.84-8.13,12.67Z" style="fill:#7c1225"/><path d="M72.8,67.9c3.3,5.31,11.7,18.81,11.66,18.87l-2.81,4.79L72.8,77Z" style="fill:#620619"/><polygon points="72.8 65.8 86.65 65.8 87.27 68.97 76.69 74.15 72.8 67.9 72.8 65.8" style="fill:#761024"/><polygon points="86.65 65.8 81.1 59.3 79.14 61.26 77.12 61.26 81.65 65.8 86.65 65.8" style="fill:#2c0430"/><polygon points="90.68 83.44 84.46 86.77 76.69 74.15 87.27 68.97 90.68 83.44" style="fill:#961933"/><polygon points="81.59 108.92 83.28 119.08 79.89 108.92 81.59 108.92" style="fill:#4a5f79"/><polygon points="79.48 138.7 77.22 143.24 77.22 138.7 79.48 138.7" style="fill:#451b46"/><polygon points="72.8 101.94 74.12 101.94 74.12 129.56 72.8 115.72 72.8 101.94" style="fill:#475e7b"/><path d="M101.83,93.23s2.94,4.46-1.16,6.24l-6.42,2.14s-3.84-1.51-1-8.38Z" style="fill:#197680"/><polygon points="103.57 56.83 96.27 62.91 97.89 66.04 105.61 62.73 105.64 57.86 103.57 56.83" style="fill:#a95b25"/><circle cx="96.27" cy="67.34" r="4.61" transform="translate(-12.74 23.53) rotate(-13.08)" style="fill:#2e0532"/><path d="M97,87.59l-6.32-4.15-4.13-17.5,2.17-3a1.63,1.63,0,0,1,2.78.23L94.16,72Z" style="fill:#17656b"/><path d="M80,134.75l.31.46a3.66,3.66,0,0,0,1.6-2.27,4.44,4.44,0,0,0-1.1-3.58l-.48.32a4,4,0,0,1,1,3.16A3.21,3.21,0,0,1,80,134.75Z"/><path d="M79.85,137.55l.54.63a11.57,11.57,0,0,0,3-3.77c1.08-2.17,1.76-5.56-1.12-9.44l-.71.46c2.13,2.86,2.48,5.77,1,8.63A11,11,0,0,1,79.85,137.55Z"/><polygon points="83.32 123.2 79.96 133.48 74.64 126.27 81.64 123.2 83.32 123.2" style="fill:#24042a"/><polygon points="79.96 133.48 82.11 135.33 82.11 139.46 79.96 139.46 73.89 133.75 73.89 126.6 74.64 126.27 79.96 133.48" style="fill:#611a3f"/><polygon points="79.96 139.46 79.96 145.08 77.88 145.08 73.93 141.36 73.93 133.75 79.96 139.46" style="fill:#1e0627"/><polygon points="79.96 145.08 80.94 146 80.94 154.22 78.47 154.22 73.94 149.96 73.94 141.36 77.89 145.08 79.96 145.08" style="fill:#661b42"/><polygon points="78.91 152.66 80.28 152.66 82.09 155.22 82.09 158.58 75.2 158.58 73.9 158.58 73.9 150.03 78.91 152.66" style="fill:#72467d"/><rect x="73.9" y="158.58" width="8.19" height="2.77" transform="translate(155.99 319.93) rotate(180)" style="fill:#93669b"/><polygon points="81.81 162.31 87.21 162.31 87.21 162.73 83.75 164.1 83.75 165 76.97 165 76.97 163.4 78.31 161.93 80.21 161.93 81.81 162.31" style="fill:#38103b"/><rect x="73.87" y="161.35" width="9.59" height="1.47" transform="translate(157.32 324.16) rotate(180)" style="fill:#38103b"/><rect x="77.28" y="162.81" width="1.7" height="1.67" style="fill:#38103b"/><polygon points="78.98 164.48 78.38 167.63 77.68 167.63 77.28 164.48 78.98 164.48" style="fill:#38103b"/><rect x="76.7" y="162.81" width="3.03" height="0.83" transform="translate(156.44 326.46) rotate(180)" style="fill:#38103b"/><polygon points="73.91 160.44 73.91 155.35 74.39 155.35 75.95 158.61 76.97 158.61 76.97 165 75.14 165 73.48 163.74 73.48 161.95 73.91 160.44" style="fill:#38103b"/><rect x="72.8" y="101.93" width="1.32" height="6.99" style="fill:#63692a"/><polygon points="72.71 40.81 66.59 40.81 64.14 43.82 72.71 43.82 72.71 40.81" style="fill:#901c27"/><rect x="64.14" y="43.82" width="8.57" height="10.07" style="fill:#901c27"/><path d="M72.71,53.89H64.14v3.33l4.32,5.33h4.25Z" style="fill:#ad202f"/><polygon points="72.71 40.81 78.83 40.81 81.28 43.82 72.71 43.82 72.71 40.81" style="fill:#901c27"/><rect x="72.71" y="43.82" width="8.57" height="10.07" style="fill:#761326"/><path d="M72.71,53.89h8.57v3.33L77,62.55H72.71Z" style="fill:#951931"/><polygon points="62.84 101.94 63.83 100.64 64.5 101.94 62.84 101.94" style="fill:#4e0017"/><polygon points="81.87 100.44 82.77 101.94 81.1 101.94 81.87 100.44" style="fill:#4e0017"/><polygon points="62.84 108.92 63.84 110.01 64.02 108.92 62.84 108.92" style="fill:#4e0017"/><polygon points="82.77 108.92 81.86 110.55 81.59 108.92 82.77 108.92" style="fill:#4e0017"/><rect x="69.17" y="46" width="1.33" height="6.38" style="fill:#3a0216"/><rect x="73.95" y="46" width="1.33" height="6.38" style="fill:#3a0216"/><path d="M72.57,74.69h0c-2.69,0-5.43,1.78-4.59,5.51.2.89.82,1.4,1,2.43a1.48,1.48,0,0,0,.8,1.06c.64.3,1.32.65,1.47,1.36a3.42,3.42,0,0,1,0,.46h2.62a3.42,3.42,0,0,1,0-.46c.14-.71.83-1.06,1.47-1.36a1.43,1.43,0,0,0,.8-1.06c.2-1,.8-1.54,1-2.43C78,76.47,75.27,74.65,72.57,74.69Zm-1.89,6.57a1.16,1.16,0,1,1,1.2-1.16A1.18,1.18,0,0,1,70.68,81.26Zm1.89,2.27h0a1.31,1.31,0,0,1-.79-.88c0-.37.38-1.44.69-1.27l.1,0h0l.11,0c.31-.17.7.9.69,1.27A1.31,1.31,0,0,1,72.57,83.53Zm1.9-2.27a1.16,1.16,0,1,1,1.21-1.16A1.19,1.19,0,0,1,74.47,81.26Z" style="fill:#fff"/></g></g></g></svg>