<svg xmlns="http://www.w3.org/2000/svg" xmlns:xlink="http://www.w3.org/1999/xlink" viewBox="0 0 148.25 207.55"><defs><linearGradient id="Degradado_sin_nombre_6" x1="-14.83" y1="192.72" x2="163.07" y2="14.83" gradientUnits="userSpaceOnUse"><stop offset="0" stop-color="aqua"/><stop offset="1" stop-color="blue"/></linearGradient></defs><title>Asset 158</title><g id="Layer_2" data-name="Layer 2"><g id="Layer_3" data-name="Layer 3"><rect width="148.25" height="207.55" style="fill:url(#Degradado_sin_nombre_6)"/><g style="opacity:0.45"><polygon points="54.43 42.85 21.09 46.95 17.61 79.66 54.43 42.85" style="fill:#00158e"/><polygon points="140.05 131.08 120.65 34.7 59.37 42.24 17.1 84.51 8.84 162.22 114.89 156.24 140.05 131.08" style="fill:#00158e;opacity:0.2"/><polygon points="119.48 155.98 144.78 154.56 140.78 134.68 119.48 155.98" style="fill:#00158e"/><path d="M132.05,52.21H116.54V48.58h15.51Zm-14.94-.57h14.36V49.15H117.11Z" style="fill:#0751cf"/><path d="M21,146.8H4v-2.49H21Zm-16.46-.57H20.42v-1.34H4.53Z" style="fill:#0751cf"/><path d="M46.27,163.65h-6.7V153.5h6.7Zm-6.13-.57h5.55v-9H40.14Z" style="fill:#0751cf"/><path d="M136.64,92h-8.23V83.81h8.23ZM129,91.47h7.09V84.38H129Z" style="fill:gold"/><path d="M24.92,58.72H12.57v-2H24.92Zm-11.78-.57h11.2v-.86H13.14Z" style="fill:gold"/><rect x="36.41" y="156.28" width="0.96" height="6.32" style="fill:gold"/><rect x="136.16" y="105.35" width="1.34" height="22.02" style="fill:gold"/><rect x="96.15" y="33.74" width="1.53" height="8.81" style="fill:gold"/><rect x="10.17" y="141.54" width="8.81" height="0.96" style="fill:gold"/><rect x="136.16" y="149.96" width="2.49" height="9.57" style="fill:gold"/><rect x="9.91" y="96.29" width="3.69" height="3.7" transform="translate(72.82 20.41) rotate(44.98)" style="fill:gold"/><rect x="17.53" y="96.28" width="3.69" height="3.7" transform="translate(75.04 15.02) rotate(44.98)" style="fill:gold"/><rect x="25.16" y="96.27" width="3.69" height="3.7" transform="translate(77.27 9.63) rotate(44.98)" style="fill:gold"/><rect x="32.78" y="96.26" width="3.69" height="3.7" transform="translate(79.49 4.24) rotate(44.98)" style="fill:gold"/><rect x="40.4" y="96.25" width="3.69" height="3.7" transform="translate(81.71 -1.15) rotate(44.98)" style="fill:gold"/><rect x="48.03" y="96.24" width="3.69" height="3.7" transform="translate(83.94 -6.55) rotate(44.98)" style="fill:gold"/><rect x="63.6" y="36.99" width="17.81" height="6.13" style="fill:gold"/><rect x="88.49" y="153.02" width="5.74" height="9.19" style="fill:gold"/><rect x="128.12" y="61.5" width="3.26" height="17.04" style="fill:gold"/><polygon points="126.59 139.72 126.59 129.04 124.66 130.97 124.66 137.79 117.85 137.79 115.92 139.72 126.59 139.72" style="fill:#0751cf"/><polygon points="114.1 127.11 114.1 137.79 116.03 135.85 116.03 129.04 122.85 129.04 124.78 127.11 114.1 127.11" style="fill:#0751cf"/></g><path d="M93.58,43.31a2.25,2.25,0,1,0-2.48,2.23v12.8H87.62v.51h4V45.53A2.24,2.24,0,0,0,93.58,43.31Z" style="fill:#060a0f"/><polygon points="85.08 61.05 88.3 60.04 88.3 57.07 76.4 57.07 76.4 61.05 85.08 61.05" style="fill:#060a0f"/><path d="M53.74,43.31a2.25,2.25,0,1,1,2.48,2.23v12.8H59.7v.51h-4V45.53A2.24,2.24,0,0,1,53.74,43.31Z" style="fill:#060a0f"/><polygon points="62.24 61.05 59.02 60.04 59.02 57.07 70.92 57.07 70.92 61.05 62.24 61.05" style="fill:#060a0f"/><path d="M66.73,65.08H63.65a2,2,0,0,0-2,2v5.46h.44V67.06a1.54,1.54,0,0,1,1.54-1.54h3.08Z" style="fill:#000005"/><path d="M81.14,65.15h3.09a2,2,0,0,1,2,2v5.46h-.45V67.13a1.54,1.54,0,0,0-1.53-1.54H81.14Z" style="fill:#000005"/><path d="M65.11,66.94H61.37A2.41,2.41,0,0,0,59,69.34V76h.54V69.34a1.87,1.87,0,0,1,1.87-1.87h3.74Z" style="fill:#000005"/><path d="M82.61,67h3.74a2.4,2.4,0,0,1,2.4,2.4v6.64h-.53V69.43a1.87,1.87,0,0,0-1.87-1.87H82.61Z" style="fill:#000005"/><path d="M86.75,98.2h5a3.2,3.2,0,0,0,3.2-3.2V86.16h-.71V95a2.49,2.49,0,0,1-2.49,2.48h-5Z" style="fill:#000005"/><path d="M60.65,98.08h-5a3.21,3.21,0,0,1-3.21-3.2V86h.72v8.84a2.48,2.48,0,0,0,2.49,2.48h5Z" style="fill:#000005"/><path d="M87.21,120.07h1.21v-7.16a5.17,5.17,0,0,1,1.52-3.68l.23-.22A6.4,6.4,0,0,0,92,104.48V90.28H90.83v14.2a5.15,5.15,0,0,1-1.52,3.67l-.22.23a6.37,6.37,0,0,0-1.88,4.53Z" style="fill:#340a36"/><path d="M60.38,118.47H59.17V111.3a5.17,5.17,0,0,0-1.52-3.67l-.23-.23a6.34,6.34,0,0,1-1.87-4.52V88.68h1.2v14.2a5.14,5.14,0,0,0,1.53,3.67l.22.22a6.37,6.37,0,0,1,1.88,4.53Z" style="fill:#451b46"/><rect x="61.22" y="55.18" width="24.97" height="6.43" rx="1.95" style="fill:#2d0731"/><path d="M59.59,74.56s-3.17-2.41-6.73,2.29l3.83,1.68,2.5,13.29h-.82v1.47h2.08l2.15-5.43V79.47h0a3,3,0,0,1-3-3Z" style="fill:#6c2f6d"/><polygon points="58.37 91.82 54.31 89.15 57.85 84.7 59.19 91.82 58.37 91.82" style="fill:#986aa2"/><polyline points="54.31 89.15 52.64 86.29 55.06 83.62 56.17 78.3 56.69 78.53 57.85 84.7 54.4 89.04" style="fill:#571d59"/><polygon points="52.64 86.29 50.52 84.17 52.86 81.7 53.78 77.25 56.17 78.3 55.06 83.62 52.64 86.29" style="fill:#4c1b53"/><polygon points="62.6 87.86 73.92 99.19 73.92 79.52 62.6 79.52 62.6 87.86" style="fill:#4c1b53"/><path d="M65.8,67.9l-6.21,6.66v2a3,3,0,0,0,3,3H73.91V69.1Z" style="fill:#986aa2"/><polygon points="73.91 45.61 73.91 58.55 70.68 58.55 63.26 47.98 73.91 45.61" style="fill:#6c2f6d"/><rect x="63.26" y="58.55" width="10.65" height="7.51" style="fill:#6c2f6d"/><polygon points="63.26 66.06 67.47 69.1 73.91 69.1 73.91 66.06 63.26 66.06" style="fill:#af7eb6"/><polygon points="50.52 84.17 48.26 81.57 51.48 75.97 53.78 77.25 52.86 81.7 50.52 84.17" style="fill:#441348"/><polygon points="48.26 81.57 46.56 79.9 48.55 74.47 51.48 75.97 48.26 81.57" style="fill:#4c1b53"/><polygon points="46.56 79.9 45.72 81.1 44.23 79.61 46.56 72.5 49.02 73.05 48.55 74.47 46.56 79.9" style="fill:#4c1b53"/><polygon points="44.23 79.61 37.13 63.47 41.42 62.66 46.56 72.5 44.23 79.61" style="fill:#4c1b53"/><polygon points="58.37 93.29 58.37 99.71 60.45 93.29 58.37 93.29" style="fill:#986aa2"/><polygon points="58.54 99.19 65.59 106.24 65.59 96.5 60.45 93.29 58.54 99.19" style="fill:#794d80"/><polygon points="65.59 96.5 71.24 96.5 73.92 99.19 73.92 100.91 65.59 100.91 65.59 96.5" style="fill:#663f70"/><rect x="65.59" y="100.9" width="8.33" height="2.63" style="fill:#492654"/><rect x="65.59" y="103.53" width="8.33" height="2.71" style="fill:#ef6f33"/><path d="M37.69,58.67l1.74-.79a3.11,3.11,0,0,1,4.1,1.54L44,60.49a2.37,2.37,0,0,1-1.18,3.13l-.4-.89a1.4,1.4,0,0,0,.69-1.84l-.49-1.06a2.12,2.12,0,0,0-2.81-1.06l-1.73.79Z" style="fill:#000005"/><rect x="36.43" y="54.93" width="2.42" height="7.24" transform="matrix(-0.91, 0.41, -0.41, -0.91, 96.12, 96.28)" style="fill:#002425"/><rect x="33.24" y="47.02" width="1.25" height="4.79" transform="translate(85.13 80.4) rotate(155.56)" style="fill:#323534"/><rect x="32.6" y="47.5" width="0.45" height="4.79" transform="translate(83.34 81.74) rotate(155.57)" style="fill:#323534"/><polygon points="35.75 47.66 33.2 48.82 31.74 45.6 33.15 44.96 30.83 39.86 31.23 39.68 36.1 44.22 35.75 47.66" style="fill:#a85254"/><polygon points="30.66 49.97 33.21 48.81 31.75 45.6 30.34 46.24 28.02 41.14 27.63 41.32 27.84 47.97 30.66 49.97" style="fill:#c66665"/><polygon points="38.45 54.2 33.85 56.29 32.64 51.41 35.96 49.9 38.45 54.2" style="fill:#f38d30"/><circle cx="39.86" cy="64.43" r="3.4" transform="translate(-34.66 78.09) rotate(-68.64)" style="fill:#f69443"/><circle cx="39.86" cy="64.43" r="1.42" style="fill:#002a2b"/><rect x="65.59" y="106.24" width="8.33" height="6.48" style="fill:#b78fbb"/><polygon points="73.92 112.72 69.17 125.58 65.59 125.58 65.59 112.72 73.92 112.72" style="fill:#806bac"/><rect x="62.06" y="111.08" width="3.53" height="14.5" style="fill:#5d7292"/><polygon points="62.06 113.96 57.73 119.31 58.37 125.58 62.06 125.58 62.06 113.96" style="fill:#451b46"/><polygon points="59.19 125.58 62.06 130.05 62.06 125.58 59.19 125.58" style="fill:#4c1b53"/><polygon points="65.59 143.92 62.06 141.82 62.06 125.58 65.59 125.58 65.59 143.92" style="fill:#4c1b53"/><rect x="65.59" y="125.58" width="4.83" height="18.35" style="fill:#794d80"/><polygon points="62.06 141.82 62.63 145.35 66.48 153.59 66.48 143.92 65.59 143.92 62.06 141.82" style="fill:#7f5989"/><rect x="66.48" y="143.92" width="3.94" height="14.32" style="fill:#a976b0"/><polygon points="66.48 153.59 65.23 160.84 67.38 160.84 67.38 167.55 69.76 167.55 69.76 160.93 72.93 160.93 72.93 151.35 68.45 151.35 66.48 153.59" style="fill:#9b6aa7"/><rect x="62.72" y="160.84" width="4.65" height="6.71" style="fill:#4c1b53"/><rect x="69.76" y="160.84" width="3.17" height="6.71" style="fill:#4c1b53"/><polygon points="62.73 162.45 59.91 167.28 62.73 167.28 62.73 162.45" style="fill:#a976b0"/><polygon points="62.73 160.84 66.48 153.59 65.23 160.84 62.73 160.84" style="fill:#794d80"/><polygon points="72.93 151.35 70.42 138.33 70.42 151.35 72.93 151.35" style="fill:#4c1b53"/><path d="M88.26,74.56s3.17-2.41,6.73,2.29l-3.83,1.68-2.5,13.29h.82v1.47H87.4l-2.15-5.43V79.47h0a3,3,0,0,0,3-3Z" style="fill:#531a55"/><polygon points="89.48 91.82 93.54 89.15 90 84.7 88.66 91.82 89.48 91.82" style="fill:#7d5386"/><polyline points="93.54 89.15 95.21 86.29 92.79 83.62 91.68 78.3 91.16 78.53 90 84.7 93.45 89.04" style="fill:#45164c"/><polygon points="95.21 86.29 97.33 84.17 94.99 81.7 94.07 77.25 91.68 78.3 92.79 83.62 95.21 86.29" style="fill:#300839"/><polygon points="85.25 87.86 73.92 99.19 73.92 79.52 85.25 79.52 85.25 87.86" style="fill:#2a0233"/><path d="M82.05,67.9l6.21,6.66v2a3,3,0,0,1-3,3H73.94V69.1Z" style="fill:#7f5088"/><polygon points="84.59 47.98 77.17 58.55 73.94 58.55 73.94 45.66 84.59 47.98" style="fill:#5e2662"/><rect x="73.94" y="58.55" width="10.65" height="7.51" style="fill:#5e2662"/><polygon points="84.59 66.06 80.38 69.1 73.94 69.1 73.94 66.06 84.59 66.06" style="fill:#94639b"/><polygon points="97.33 84.17 99.59 81.57 96.37 75.97 94.07 77.25 94.99 81.7 97.33 84.17" style="fill:#180325"/><polygon points="99.59 81.57 101.29 79.9 99.3 74.47 96.37 75.97 99.59 81.57" style="fill:#300839"/><polygon points="101.29 79.9 102.13 81.1 103.62 79.61 101.29 72.5 98.83 73.05 99.3 74.47 101.29 79.9" style="fill:#3e1144"/><polygon points="103.62 79.61 110.72 63.47 106.42 62.66 101.29 72.5 103.62 79.61" style="fill:#4c1b53"/><polygon points="89.48 93.29 89.48 99.71 87.4 93.29 89.48 93.29" style="fill:#845f8d"/><polygon points="89.31 99.19 82.26 106.24 82.26 96.5 87.4 93.29 89.31 99.19" style="fill:#66436f"/><polygon points="82.26 96.5 76.61 96.5 73.92 99.19 73.92 100.91 82.26 100.91 82.26 96.5" style="fill:#52355c"/><rect x="73.93" y="100.9" width="8.33" height="2.63" transform="translate(156.18 204.43) rotate(180)" style="fill:#42214c"/><rect x="73.93" y="103.53" width="8.33" height="2.71" transform="translate(156.18 209.77) rotate(180)" style="fill:#e16430"/><path d="M110.16,58.67l-1.74-.79a3.11,3.11,0,0,0-4.1,1.54l-.49,1.07A2.37,2.37,0,0,0,105,63.62l.4-.89a1.4,1.4,0,0,1-.69-1.84l.49-1.06A2.12,2.12,0,0,1,108,58.77l1.73.79Z" style="fill:#000005"/><rect x="109" y="54.93" width="2.42" height="7.24" transform="translate(34.09 -40.35) rotate(24.44)" style="fill:#001e1e"/><rect x="113.36" y="47.02" width="1.25" height="4.79" transform="translate(30.65 -42.73) rotate(24.44)" style="fill:#323534"/><rect x="114.8" y="47.5" width="0.45" height="4.79" transform="translate(30.94 -43.11) rotate(24.43)" style="fill:#323534"/><polygon points="112.1 47.66 114.65 48.82 116.11 45.6 114.7 44.96 117.02 39.86 116.62 39.68 111.75 44.22 112.1 47.66" style="fill:#a85254"/><polygon points="117.19 49.97 114.64 48.81 116.1 45.6 117.51 46.24 119.83 41.14 120.22 41.32 120.01 47.97 117.19 49.97" style="fill:#c66665"/><polygon points="109.39 54.2 114 56.29 115.21 51.41 111.89 49.9 109.39 54.2" style="fill:#f38d30"/><circle cx="107.99" cy="64.43" r="3.4" transform="translate(-6.87 115.62) rotate(-54.85)" style="fill:#f38d30"/><path d="M106.7,63.85a1.41,1.41,0,1,1,.7,1.87A1.42,1.42,0,0,1,106.7,63.85Z" style="fill:#001a1a"/><rect x="73.93" y="106.24" width="8.33" height="6.48" transform="translate(156.18 218.97) rotate(180)" style="fill:#95709d"/><polygon points="73.92 112.72 78.68 125.58 82.26 125.58 82.26 112.72 73.92 112.72" style="fill:#65538e"/><rect x="82.26" y="111.08" width="3.53" height="14.5" transform="translate(168.04 236.65) rotate(180)" style="fill:#4b607c"/><polygon points="85.78 113.96 90.12 119.31 89.48 125.58 85.78 125.58 85.78 113.96" style="fill:#340a36"/><polygon points="88.66 125.58 85.78 130.05 85.78 125.58 88.66 125.58" style="fill:#4c1b53"/><polygon points="82.26 143.92 85.78 141.82 85.78 125.58 82.26 125.58 82.26 143.92" style="fill:#3b1043"/><rect x="77.43" y="125.58" width="4.83" height="18.35" transform="translate(159.69 269.5) rotate(180)" style="fill:#80578b"/><polygon points="85.78 141.82 85.22 145.35 81.37 153.59 81.37 143.92 82.26 143.92 85.78 141.82" style="fill:#684671"/><rect x="77.43" y="143.92" width="3.94" height="14.32" transform="translate(158.8 302.16) rotate(180)" style="fill:#9b68a6"/><polygon points="81.37 153.59 82.62 160.84 80.47 160.84 80.47 167.55 78.09 167.55 78.09 160.93 74.92 160.93 74.92 151.35 79.4 151.35 81.37 153.59" style="fill:#865f93"/><rect x="80.47" y="160.84" width="4.65" height="6.71" transform="translate(165.6 328.39) rotate(180)" style="fill:#380e41"/><rect x="74.92" y="160.84" width="3.17" height="6.71" transform="translate(153.01 328.39) rotate(180)" style="fill:#4c1b53"/><polygon points="85.13 162.45 87.94 167.28 85.13 167.28 85.13 162.45" style="fill:#90669c"/><polygon points="85.13 160.84 81.37 153.59 82.62 160.84 85.13 160.84" style="fill:#64406c"/><polygon points="74.92 151.35 77.43 138.33 77.43 151.35 74.92 151.35" style="fill:#320839"/><polygon points="70.68 58.55 63.26 58.55 63.26 47.98 70.68 58.55" style="fill:#c6a8c9"/><rect x="63.26" y="58.55" width="7.42" height="7.51" style="fill:#451b46"/><polygon points="84.59 47.98 84.59 58.55 77.17 58.55 84.59 47.98" style="fill:#c6a8c9"/><rect x="77.17" y="58.55" width="7.42" height="7.51" style="fill:#2d0731"/><polygon points="60.45 93.29 62.6 87.86 71.24 96.5 65.59 96.5 60.45 93.29" style="fill:#300635"/><polygon points="76.61 96.5 85.25 87.86 87.4 93.29 82.26 96.5 76.61 96.5" style="fill:#300635"/><polygon points="58.37 99.71 65.59 112.72 65.59 106.24 58.54 99.19 58.37 99.71" style="fill:#300635"/><polygon points="82.26 112.72 89.48 99.71 89.31 99.19 82.26 106.24 82.26 112.72" style="fill:#1a0525"/><line x1="73.94" y1="58.55" x2="73.91" y2="58.55" style="fill:none"/><rect x="69.54" y="48.77" width="1.14" height="7.11" style="fill:#2d0731"/><rect x="77.17" y="48.77" width="1.14" height="7.11" style="fill:#2d0731"/><polygon points="68.6 79.49 73.92 83.16 73.92 79.49 68.6 79.49" style="fill:#ef6f33"/><polygon points="79.25 79.49 73.92 83.16 73.92 79.49 79.25 79.49" style="fill:#ce582b"/><rect x="61.22" y="58.55" width="9.46" height="0.77" style="fill:#af7eb6"/><rect x="77.17" y="58.55" width="9.02" height="0.77" style="fill:#af7eb6"/></g></g></svg>