<svg xmlns="http://www.w3.org/2000/svg" xmlns:xlink="http://www.w3.org/1999/xlink" viewBox="0 0 148.25 207.55"><defs><linearGradient id="Degradado_sin_nombre_6" x1="-14.83" y1="192.72" x2="163.07" y2="14.83" gradientUnits="userSpaceOnUse"><stop offset="0" stop-color="aqua"/><stop offset="1" stop-color="blue"/></linearGradient></defs><title>Asset 173</title><g id="Layer_2" data-name="Layer 2"><g id="Layer_3" data-name="Layer 3"><rect width="148.25" height="207.55" style="fill:url(#Degradado_sin_nombre_6)"/><g style="opacity:0.45"><polygon points="81.46 42.48 74.61 42.48 9.2 107.89 9.2 114.74 81.46 42.48" style="fill:#00158e;opacity:0.2"/><polygon points="100.7 42.48 93.86 42.48 9.2 127.14 9.2 133.99 100.7 42.48" style="fill:#00158e;opacity:0.2"/><polygon points="62.21 42.48 55.36 42.48 9.2 88.64 9.2 95.49 62.21 42.48" style="fill:#00158e;opacity:0.2"/><polygon points="42.96 42.48 36.11 42.48 9.2 69.39 9.2 76.24 42.96 42.48" style="fill:#00158e;opacity:0.2"/><polygon points="23.71 42.48 16.86 42.48 9.2 50.15 9.2 56.99 23.71 42.48" style="fill:#00158e;opacity:0.2"/><path d="M109.19,42.48v3.91L12.91,142.68H9.2v30.51H139.91V42.48Zm0,100.2H96.75l12.44-12.45Zm0-19.3L89.9,142.68H77.5L109.19,111Zm0-19.24L70.65,142.68H58.25l50.94-50.94Zm0-19.25L51.4,142.68H39l70.19-70.19Zm0-19.25-77,77H19.75l89.44-89.44Z" style="fill:#00158e;opacity:0.2"/><polygon points="137.04 170.78 137.04 144.34 132.26 149.12 132.26 166 115.38 166 110.6 170.78 137.04 170.78" style="fill:#0751cf"/><rect x="138.48" y="73.94" width="2.99" height="35.67" style="fill:gold"/><rect x="138.48" y="116.78" width="2.99" height="4.98" style="fill:gold"/><rect x="27.5" y="172.37" width="48.42" height="2.39" style="fill:gold"/><polygon points="25 162.87 28.86 162.87 32.98 158.74 26.54 158.74 17.25 168.03 19.83 168.03 25 162.87" style="fill:gold"/><polygon points="33.37 162.87 37.23 162.87 41.35 158.74 34.91 158.74 25.63 168.03 28.21 168.03 33.37 162.87" style="fill:gold"/><polygon points="41.74 162.87 45.61 162.87 49.73 158.74 43.28 158.74 34 168.03 36.58 168.03 41.74 162.87" style="fill:gold"/><polygon points="50.12 162.87 53.98 162.87 58.1 158.74 51.66 158.74 42.37 168.03 44.95 168.03 50.12 162.87" style="fill:gold"/><polygon points="58.49 162.87 62.35 162.87 66.48 158.74 60.03 158.74 50.75 168.03 53.33 168.03 58.49 162.87" style="fill:gold"/><polygon points="66.87 162.87 70.73 162.87 74.85 158.74 68.41 158.74 59.12 168.03 61.7 168.03 66.87 162.87" style="fill:gold"/><polygon points="75.24 162.87 79.1 162.87 83.22 158.74 76.78 158.74 67.5 168.03 70.08 168.03 75.24 162.87" style="fill:gold"/><polygon points="83.62 162.87 87.48 162.87 91.6 158.74 85.16 158.74 75.87 168.03 78.45 168.03 83.62 162.87" style="fill:gold"/><path d="M126.23,37.77H111.29V34.19h14.94Zm-14.35-.6h13.75V34.78H111.88Z" style="fill:#0751cf"/><path d="M144,145.57h-2.59V134.21H144Zm-2-.6h1.4V134.81H142Z" style="fill:#0751cf"/><path d="M102.92,181.24H85.58v-3.79h17.34Zm-16.74-.6h16.14v-2.59H86.18Z" style="fill:#0751cf"/><path d="M17.24,180.44H10.66v-2.39h6.58Zm-6-.6h5.38v-1.2H11.26Z" style="fill:gold"/><path d="M6.88,168.88H4.49V149H6.88Zm-1.8-.6h1.2V149.55H5.08Z" style="fill:gold"/><polygon points="95.84 36.87 95.84 36.72 28.05 36.72 28.05 35.34 95.69 35.34 95.69 36.87 95.84 36.87 95.84 36.72 95.84 36.87 95.99 36.87 95.99 35.04 27.75 35.04 27.75 37.01 95.99 37.01 95.99 36.87 95.84 36.87" style="fill:gold"/></g><rect x="70.15" y="66.85" width="9.13" height="5.69" rx="1.86" style="fill:#6e7269"/><polygon points="74.72 72.05 74.72 77.54 70.18 77.54 65.19 79.13 69.46 71.35 74.72 71.35 74.72 72.05" style="fill:#474c43"/><polygon points="74.72 72.05 74.72 77.54 79.25 77.54 84.24 79.13 79.97 71.35 74.72 71.35 74.72 72.05" style="fill:#33352e"/><path d="M59.6,84.63S61.07,97.37,66,101.1h8.7V90.3l-9.49-8.53Z" style="fill:#474c43"/><path d="M57.28,76.77l2.32,7.86h4.86V88.9a4,4,0,0,0,4,4h6.25V75.24l-13.51,1.9V75.87H57.28Z" style="fill:#6e7269"/><path d="M50,88.18a3.9,3.9,0,0,1,.7,4.3,8,8,0,0,0-.7,3.3v3h3.66l4-11.31Z" style="fill:#6e7269"/><rect x="47.69" y="75.24" width="11.83" height="13.06" rx="3.87" style="fill:#474c43"/><circle cx="52.18" cy="101.1" r="3.14" style="fill:#474c43"/><path d="M51,103.8s-1.81,8.68-.62,11.3H52V103.5Z" style="fill:#33352e"/><path d="M53.05,103.8s1.81,8.68.62,11.3H52V103.5Z" style="fill:#33352e"/><path d="M50.36,114.5s-5.49,1.28-3.54,9.29H49s-.89-6.59,3-6.74V114.5Z" style="fill:#33352e"/><path d="M53.62,114.5s5.49,1.28,3.54,9.29H55s.89-6.59-3-6.74V114.5Z" style="fill:#232723"/><rect x="65.98" y="101.1" width="8.7" height="6.43" style="fill:#33352e"/><rect x="63.16" y="107.54" width="11.52" height="3.64" style="fill:#444842"/><rect x="63.16" y="111.18" width="11.52" height="3.64" style="fill:#33352e"/><polygon points="74.68 114.82 74.68 120.72 74.68 125.28 70.9 132.55 70.9 114.82 74.68 114.82" style="fill:#444842"/><path d="M65.66,114.82v27.23s5.24.45,5.24,0V114.82Z" style="fill:#232620"/><rect x="64.96" y="142" width="6.69" height="20.14" style="fill:#444842"/><path d="M89.77,84.63S88.3,97.37,83.39,101.1H74.68V90.3l9.49-8.53Z" style="fill:#5c6157"/><path d="M92.09,76.77l-2.32,7.86H84.9V88.9a4,4,0,0,1-4,4H74.68V75.24l13.52,1.9V75.87h3.89Z" style="fill:#7b807a"/><path d="M99.41,88.18a3.9,3.9,0,0,0-.7,4.3,8,8,0,0,1,.7,3.3v3H95.76L91.71,87.47Z" style="fill:#6e7269"/><rect x="89.84" y="75.24" width="11.83" height="13.06" rx="3.87" transform="translate(191.52 163.54) rotate(180)" style="fill:#474c43"/><circle cx="97.18" cy="101.1" r="3.14" style="fill:#474c43"/><path d="M98.33,103.8s1.81,8.68.63,11.3H97.33V103.5Z" style="fill:#33352e"/><path d="M96.32,103.8s-1.81,8.68-.63,11.3h1.64V103.5Z" style="fill:#33352e"/><path d="M99,114.5s5.48,1.28,3.54,9.29h-2.18s.89-6.59-3-6.74V114.5Z" style="fill:#232620"/><path d="M95.74,114.5s-5.48,1.28-3.54,9.29h2.18s-.89-6.59,3-6.74V114.5Z" style="fill:#33352e"/><rect x="74.68" y="101.1" width="8.7" height="6.43" style="fill:#3e423b"/><rect x="74.68" y="107.54" width="11.52" height="3.64" transform="translate(160.89 218.71) rotate(180)" style="fill:#353833"/><rect x="74.68" y="111.18" width="11.52" height="3.64" transform="translate(160.89 226) rotate(180)" style="fill:#181b17"/><polygon points="74.68 114.82 74.68 120.72 74.68 125.28 78.46 132.55 78.46 114.82 74.68 114.82" style="fill:#323431"/><path d="M83.7,114.82v27.23s-5.24.45-5.24,0V114.82Z" style="fill:#121612"/><rect x="77.72" y="142" width="6.69" height="20.14" transform="translate(162.13 304.15) rotate(180)" style="fill:#353833"/><polygon points="86.2 114.82 86.2 122.46 83.7 138.83 83.7 114.82 86.2 114.82" style="fill:#121612"/><polygon points="63.16 114.82 63.16 122.46 65.66 138.83 65.66 114.82 63.16 114.82" style="fill:#232620"/><rect x="66.52" y="141.11" width="1.14" height="20.14" style="fill:#232620"/><rect x="81.7" y="141.11" width="1.14" height="20.14" style="fill:#121612"/><path d="M61.26,168.33v-3.66a4.82,4.82,0,0,1,4.05-4.76,9.31,9.31,0,0,1,3,0v8.38Z" style="fill:#0d100c"/><path d="M74.68,168.33v-3.66a4.81,4.81,0,0,0-4-4.76,9.38,9.38,0,0,0-3,0v8.38Z" style="fill:#25281a"/><path d="M88.1,168.33v-3.66a4.81,4.81,0,0,0-4-4.76,9.38,9.38,0,0,0-3,0v8.38Z" style="fill:#25281a"/><path d="M74.68,168.33v-3.66a4.82,4.82,0,0,1,4-4.76,9.31,9.31,0,0,1,3,0v8.38Z" style="fill:#0d100c"/><path d="M61.09,48.69V37.38a2,2,0,1,0-2.19-2,2,2,0,0,0,1.74,2V49.14h3.52v-.45Z" style="fill:#33352e"/><path d="M89.86,35.4a2,2,0,1,0-2.19,2V48.69H84.6v.45h3.52V37.37A2,2,0,0,0,89.86,35.4Z" style="fill:#20231f"/><polygon points="67.01 62.77 64.16 64.04 64.16 68.38 67.01 68.38 67.01 62.77" style="fill:#b7bbb6"/><rect x="67.01" y="62.77" width="15.35" height="5.62" style="fill:#9fa598"/><polygon points="82.36 62.77 85.2 64.04 85.2 68.38 82.36 68.38 82.36 62.77" style="fill:#b7bbb6"/><rect x="67.01" y="51.09" width="15.35" height="11.68" style="fill:#b7bbb6"/><polygon points="67.01 51.09 64.16 50.19 64.16 47.57 74.68 47.57 74.68 51.09 67.01 51.09" style="fill:#9fa598"/><polygon points="82.36 51.09 85.2 50.19 85.2 47.57 74.68 47.57 74.68 51.09 82.36 51.09" style="fill:#9fa598"/><rect x="70.15" y="49.78" width="1.7" height="8.19" rx="0.56" style="fill:#6e7269"/><rect x="77.59" y="49.78" width="1.7" height="8.19" rx="0.56" style="fill:#6e7269"/><circle cx="74.72" cy="84.05" r="6.49" transform="translate(-24.6 136.81) rotate(-76.34)" style="fill:#696d66"/></g></g></svg>