<svg xmlns="http://www.w3.org/2000/svg" xmlns:xlink="http://www.w3.org/1999/xlink" viewBox="0 0 148.25 207.55"><defs><linearGradient id="Degradado_sin_nombre_4" x1="-14.83" y1="192.72" x2="163.07" y2="14.83" gradientUnits="userSpaceOnUse"><stop offset="0" stop-color="#f1ff01"/><stop offset="1" stop-color="#08e1ff"/></linearGradient><linearGradient id="Degradado_sin_nombre_4-2" x1="-3.89" y1="72.02" x2="98.11" y2="-8.31" xlink:href="#Degradado_sin_nombre_4"/></defs><title>Asset 160</title><g id="Layer_2" data-name="Layer 2"><g id="Layer_3" data-name="Layer 3"><rect width="148.25" height="207.55" style="fill:url(#Degradado_sin_nombre_4)"/><rect width="81.12" height="74.04" style="fill:url(#Degradado_sin_nombre_4-2)"/><polyline points="81.12 0 81.12 74.03 0 74.03" style="fill:none;stroke:#fff;stroke-miterlimit:10"/><g style="opacity:0.45"><path d="M138.66,161.44h-6.43l8.56-8.57V46.54h-3.48v7h-3.48V57H123.38V53.51h7v-7h7v-7h3.48V38.05H8.06V170.77H29v-3.16h3.48v3.16H140.79V159.31ZM16.24,168.35H12.75v-3.48h3.49ZM25.07,165H21.59v-3.48h3.48Zm4.79-.13H26.38v-3.48h3.48Zm5.55,2H31.92v-3.48h3.49Zm0-9.13H32v-3.48h3.48Zm2.55-5H34.5v-3.49H38Zm36,8.69L85.49,149.9h6.44L80.4,161.44Zm9.71,0L95.2,149.9h6.44L90.11,161.44Zm9.71,0,11.53-11.54h6.44L99.82,161.44Zm9.71,0,11.53-11.54h6.44l-11.53,11.54Zm9.71,0,11.54-11.54h6.43l-11.53,11.54Zm9.71,0,11.54-11.54h6.44L129,161.44Z" style="fill:#2c2c30;opacity:0.2"/><path d="M13.8,53h-1L24,41.83h3.14l-5,5H20Zm11-6.23H27l5-5H28.78L17.6,53h1Zm4.8,0h2.13l5-5H33.59L22.4,53h1Zm4.8,0h2.13l5-5H38.39L27.2,53h1Zm4.8,0h2.13l5-5H43.19L32,53h1Zm4.8,0h2.13l5-5H48L36.8,53h1Zm4.8,0H51l5-5H52.79L41.61,53h1Zm4.81,0h2.13l5-5H57.59L46.41,53h1Z" style="fill:#9bf424"/><polygon points="138.51 175.65 134.07 171.21 138.51 166.77 135.99 164.25 131.55 168.69 127.11 164.25 124.59 166.77 129.03 171.21 124.59 175.65 127.11 178.17 131.55 173.72 135.99 178.17 138.51 175.65" style="fill:#9bf424"/><polygon points="23.05 67.27 19.86 64.08 23.05 60.88 21.24 59.08 18.05 62.27 14.86 59.08 13.05 60.89 16.24 64.08 13.05 67.27 14.86 69.08 18.05 65.89 21.24 69.08 23.05 67.27" style="fill:#097f00"/><path d="M99,52.84A1.14,1.14,0,0,1,97.88,54a1.13,1.13,0,0,1-1.08-.84H76.17L67.31,62H36.82L16.5,82.32v71.29H13.09a1.13,1.13,0,0,1-1.08.84,1.14,1.14,0,1,1,0-2.28,1.13,1.13,0,0,1,1.08.83h2.8V82.07L36.57,61.39H67.06l8.86-8.86H96.8a1.12,1.12,0,0,1,1.08-.83A1.14,1.14,0,0,1,99,52.84Z" style="fill:#097f00"/><rect x="137.4" y="55.35" width="3.48" height="3.48" style="fill:#9bf424"/><rect x="137.37" y="64.47" width="3.48" height="3.48" style="fill:#9bf424"/><rect x="134.43" y="68.64" width="3.48" height="3.48" style="fill:#9bf424"/><rect x="119.18" y="73.64" width="3.48" height="3.48" style="fill:#9bf424"/><rect x="139.94" y="50.3" width="3.48" height="3.48" style="fill:#9bf424"/><rect x="131.83" y="62.42" width="3.48" height="3.48" style="fill:#9bf424"/><rect x="127.03" y="62.55" width="3.48" height="3.48" style="fill:#9bf424"/><rect x="118.2" y="65.9" width="3.48" height="3.48" style="fill:#9bf424"/><rect x="133.55" y="76.29" width="3.48" height="3.48" style="fill:#9bf424"/><rect x="14.5" y="36.6" width="21.74" height="2.83" style="fill:#097f00"/><rect x="137.91" y="110.86" width="5.51" height="32.98" style="fill:#097f00"/><rect x="108.18" y="168.35" width="2.83" height="6.04" style="fill:#097f00"/><rect x="71.36" y="33.97" width="3.07" height="12.14" style="fill:#9bf424"/><rect x="5.81" y="104.41" width="4.45" height="31.33" style="fill:#9bf424"/><rect x="139.14" y="102.16" width="2.54" height="2.54" style="fill:#9bf424"/><rect x="143.42" y="82.53" width="1.38" height="13.76" style="fill:#9bf424"/><rect x="80.46" y="36" width="18.41" height="0.61" style="fill:#9bf424"/><rect x="5" y="89.21" width="0.4" height="8.09" style="fill:#9bf424"/><rect x="4.39" y="67.56" width="1.01" height="13.96" style="fill:#9bf424"/><rect x="3.78" y="51.17" width="1.62" height="9.51" style="fill:#9bf424"/></g><path d="M63,35.72a1.17,1.17,0,1,1,2.33,0,1.23,1.23,0,0,1-1,1.26v7.19h1.81v.29H64.05V37A1.22,1.22,0,0,1,63,35.72Z" style="fill:#060a0f"/><polygon points="67.44 46.4 65.76 45.12 65.76 43.46 71.96 43.46 71.96 46.4 67.44 46.4" style="fill:#060a0f"/><path d="M90.79,35.72a1.17,1.17,0,1,0-2.34,0,1.24,1.24,0,0,0,1,1.26v7.19H87.69v.29h2.07V37A1.22,1.22,0,0,0,90.79,35.72Z" style="fill:#060a0f"/><polygon points="86.37 46.4 88.04 45.12 88.04 43.46 81.85 43.46 81.85 46.4 86.37 46.4" style="fill:#060a0f"/><path d="M56.32,95.89l-.38.59A4.67,4.67,0,0,1,54,93.61a5.9,5.9,0,0,1,1.32-4.55l.57.41a5.25,5.25,0,0,0-1.2,4A4,4,0,0,0,56.32,95.89Z"/><path d="M56.5,99.45l-.64.8a14.72,14.72,0,0,1-3.64-4.79c-1.29-2.74-2.1-7,1.34-12l.84.59c-2.54,3.63-3,7.31-1.25,11A13.84,13.84,0,0,0,56.5,99.45Z"/><path d="M98.42,96.06l.38.59a4.68,4.68,0,0,0,1.9-2.88,5.88,5.88,0,0,0-1.31-4.54l-.57.41a5.19,5.19,0,0,1,1.19,4A4,4,0,0,1,98.42,96.06Z"/><path d="M98.23,99.62l.65.8a14.85,14.85,0,0,0,3.64-4.79c1.28-2.75,2.1-7-1.34-12l-.84.59c2.53,3.62,3,7.31,1.25,10.94A13.92,13.92,0,0,1,98.23,99.62Z"/><path d="M68.56,165.54s.26-20.26-3.7-25.73v-6.15H75.45s-2,24.59,0,31.88Z" style="fill:#600710"/><path d="M66.06,170.11H76s1.26-7-4.95-7.28C71,162.83,64.14,162.72,66.06,170.11Z" style="fill:#6d726d"/><rect x="64.79" y="170.11" width="11.85" height="2.11" style="fill:#c0c2be"/><path d="M86.11,165.53s-.26-20.26,3.7-25.73v-6.16H79.21s2.06,24.6,0,31.89Z" style="fill:#a52122"/><path d="M78.93,170.11h9.91s1.25-7-5-7.28C83.89,162.83,77,162.72,78.93,170.11Z" style="fill:#4d524d"/><rect x="78.19" y="170.11" width="11.49" height="2.11" style="fill:#a1a49a"/><path d="M90.24,54.75l.7-.06a4.75,4.75,0,0,0-1.65-3,5.89,5.89,0,0,0-4.63-1l.09.7a5.22,5.22,0,0,1,4.1.81A4,4,0,0,1,90.24,54.75Z"/><path d="M93.79,54.33l.69-.14a9.85,9.85,0,0,0-1.74-3.74,7.84,7.84,0,0,0-7.69-3l.08.7a7.15,7.15,0,0,1,7.05,2.76A9.39,9.39,0,0,1,93.79,54.33Z"/><path d="M64,54.75l-.7-.06a4.7,4.7,0,0,1,1.65-3,5.89,5.89,0,0,1,4.63-1l-.09.7a5.22,5.22,0,0,0-4.1.81A4,4,0,0,0,64,54.75Z"/><path d="M60.42,54.33l-.69-.14a9.92,9.92,0,0,1,1.73-3.74,7.87,7.87,0,0,1,7.7-3l-.09.7a7.14,7.14,0,0,0-7,2.76A9.39,9.39,0,0,0,60.42,54.33Z"/><rect x="94.7" y="91.12" width="3.74" height="6.08" transform="translate(193.14 188.33) rotate(180)" style="fill:#0b181b"/><path d="M98.23,94.06l-3.12.15a1.24,1.24,0,0,0-1.18,1.41l1.71,13,3.18-.15.72-13.05A1.25,1.25,0,0,0,98.23,94.06Z" style="fill:#065451"/><rect x="94.64" y="107.76" width="5.62" height="6.62" transform="translate(199.96 217.51) rotate(177.34)" style="fill:#0b181b"/><path d="M97.66,114.38a4,4,0,0,0,0,.89,1.56,1.56,0,0,0,.79,1.26c.92.51,2.51,2.08,3,6.83a.44.44,0,0,0,.45.4h0a.83.83,0,0,0,.79-.87l-.29-6.39a1.23,1.23,0,0,0-.41-.86l-1.53-1.39Z" style="fill:#000b10"/><path d="M97.86,114.37a3.8,3.8,0,0,1,.09.89,1.51,1.51,0,0,1-.75,1.33c-1,.6-2.6,2.31-2.63,7.09a.48.48,0,0,1-.47.44h0a.89.89,0,0,1-1-.79l-.3-6.38a1.2,1.2,0,0,1,.37-.9l1.57-1.54Z" style="fill:#323e3f"/><rect x="56.18" y="85.05" width="3.74" height="17.1" transform="translate(116.09 187.2) rotate(180)" style="fill:#252827"/><path d="M59.71,95l-3.13.14a1.25,1.25,0,0,0-1.17,1.42l1.7,13,3.18-.15.72-13A1.24,1.24,0,0,0,59.71,95Z" style="fill:#0d5754"/><rect x="56.12" y="108.69" width="5.62" height="6.62" transform="translate(122.99 221.15) rotate(177.34)" style="fill:#0b181b"/><path d="M59.13,115.3a4.3,4.3,0,0,0,0,.9,1.55,1.55,0,0,0,.78,1.26c.93.51,2.52,2.07,3,6.83a.43.43,0,0,0,.46.39h0a.83.83,0,0,0,.79-.87l-.3-6.38a1.22,1.22,0,0,0-.4-.86l-1.53-1.39Z" style="fill:#000b10"/><path d="M59.34,115.29a4.59,4.59,0,0,1,.09.9,1.53,1.53,0,0,1-.75,1.33c-1,.6-2.61,2.31-2.64,7.08a.46.46,0,0,1-.47.44h0a.89.89,0,0,1-1-.78l-.29-6.39a1.14,1.14,0,0,1,.37-.89l1.57-1.54Z" style="fill:#323e3f"/><polygon points="68.27 133.8 71.01 146.18 76.79 146.18 76.79 133.19 68.27 133.8" style="fill:#166766"/><polygon points="69.57 119.08 64.71 119.08 64.71 121.87 66.47 133.8 71.69 133.8 74.32 138.48 75.11 138.48 75.99 112.78 76.51 107.68 76.51 107.68 69.57 119.08" style="fill:#313b3c"/><polygon points="67.27 56.71 71.01 53.65 77.12 53.65 77.12 57.47 69.64 57.47 67.27 56.71"/><polygon points="50.01 64.39 53.42 58.39 54.38 63.12 50.01 64.39" style="fill:#0b181b"/><path d="M53.33,62.37l-3.32,2,3.32,9.36s-5.23,3.12,0,7H63V78.58L58,65.69Z" style="fill:#263032"/><path d="M54.64,87.74v2.42a1.72,1.72,0,0,0,1.72,1.71h3.27a2.16,2.16,0,0,0,2.16-2.16v-.36Z" style="fill:#4fc3cb"/><path d="M53.33,80.7s-3.32,5,1.31,7l7.25,2.42S66.22,88.45,63,80.7Z" style="fill:#166766"/><path d="M60.18,71.36,71,57.47h6.11v3S70,58,69.27,68c0,0-1.51,6.72,7.85,8.45v12h-7.5a4.37,4.37,0,0,1-4.07-2.79L63,79v-.41Z" style="fill:#3e2225"/><polygon points="69.57 99.22 66.25 105.79 66.25 119.08 69.57 119.08 76.44 108.63 77.12 99.22 69.57 99.22" style="fill:#7a7d7a"/><polygon points="57.96 65.69 65.9 56.43 71.01 57.47 60.18 71.36 57.96 65.69" style="fill:#166766"/><polygon points="53.33 62.37 57.96 65.69 65.9 56.43 65.21 54.72 53.33 62.37" style="fill:#af7eb6"/><path d="M65.14,54.86l.07-.14L59.2,53a4.32,4.32,0,0,0-5.43,3.23,22.77,22.77,0,0,0-.44,6.15h1.75a5.77,5.77,0,0,0,4.5-2.14,12.82,12.82,0,0,1,3.4-3A5.69,5.69,0,0,0,65.14,54.86Z" style="fill:#451b46"/><path d="M72.19,40.78a2.74,2.74,0,0,1-2.7-2.1A10.68,10.68,0,0,0,68.64,36c-.49-1-.74-2.36.8-2.79l3.23,1.73Z" style="fill:#39030e"/><polygon points="77.12 59.16 77.12 78.53 69.59 75.26 67.8 66.55 73.1 59.16 77.12 59.16" style="fill:#261016"/><polygon points="85.98 133.8 83.24 146.18 77.45 146.18 77.45 133.19 85.98 133.8" style="fill:#32181d"/><polygon points="84.67 119.08 89.53 119.08 89.53 121.87 87.77 133.8 82.56 133.8 79.92 138.48 79.21 138.48 78.25 112.15 77.73 107.68 77.73 107.68 84.67 119.08" style="fill:#573537"/><polygon points="86.98 56.71 83.24 53.65 77.12 53.65 77.12 57.47 84.6 57.47 86.98 56.71" style="fill:#2a0008"/><polygon points="104.23 64.39 100.83 58.39 99.86 63.12 104.23 64.39" style="fill:#0b181b"/><path d="M100.91,62.37l3.32,2-3.32,9.36s5.23,3.12,0,7H91.25V78.58l5-12.89Z" style="fill:#323e3f"/><path d="M99.6,87.74v2.42a1.72,1.72,0,0,1-1.71,1.71H94.62a2.17,2.17,0,0,1-2.17-2.16v-.36Z" style="fill:#59c4c9"/><path d="M100.91,80.7s3.32,5-1.31,7l-7.25,2.42S88,88.45,91.25,80.7Z" style="fill:#157974"/><path d="M94.06,71.36,83.24,57.47H77.12v3S84.22,58,85,68c0,0,1.51,6.72-7.85,8.45v12h7.51a4.36,4.36,0,0,0,4.06-2.79L91.25,79v-.41Z" style="fill:#573537"/><polygon points="84.67 99.22 87.99 105.79 87.99 119.08 84.67 119.08 77.8 108.63 77.12 99.22 84.67 99.22" style="fill:#c66665"/><polygon points="96.28 65.69 88.34 56.43 83.24 57.47 94.06 71.36 96.28 65.69" style="fill:#20817f"/><polygon points="100.91 62.37 96.28 65.69 88.34 56.43 89.03 54.72 100.91 62.37" style="fill:#af7eb6"/><path d="M89.1,54.86,89,54.72,95,53a4.33,4.33,0,0,1,5.44,3.23,22.82,22.82,0,0,1,.43,6.15H99.16a5.75,5.75,0,0,1-4.49-2.14,13,13,0,0,0-3.41-3A5.76,5.76,0,0,1,89.1,54.86Z" style="fill:#451b46"/><path d="M82.05,40.78a2.74,2.74,0,0,0,2.7-2.1A11.09,11.09,0,0,1,85.6,36c.49-1,.74-2.36-.79-2.79l-3.24,1.73Z" style="fill:#f37a2b"/><polygon points="77.12 59.16 77.12 78.53 84.65 75.26 86.45 66.55 81.14 59.16 77.12 59.16" style="fill:#412528"/><path d="M68.32,92.81A5.81,5.81,0,0,0,68.44,94l1.13,5.24h7.55V92.81Z" style="fill:#70655f"/><path d="M77.12,88.43H70L69.09,90a5.44,5.44,0,0,0-.77,2.8h8.8Z" style="fill:#e9b063"/><path d="M85.93,92.81a5.64,5.64,0,0,0-.77-2.8l-.94-1.58h-7.1v4.38Z" style="fill:#c79554"/><path d="M77.12,92.81v6.41h7.55L85.8,94a5.18,5.18,0,0,0,.13-1.17Z" style="fill:#451b46"/><polygon points="69.57 99.22 76.57 106.22 77.63 106.22 84.67 99.22 69.57 99.22" style="fill:#412528"/><rect x="68.6" y="88.32" width="16.99" height="1.05" style="fill:#263032"/><polygon points="68.65 47.73 68.65 52.1 71.21 54.66 77.12 54.66 77.12 47.73 68.65 47.73" style="fill:#4e0310"/><path d="M77.12,33.18H73.87l-1.68,2.41v4.65a1.39,1.39,0,0,1-1.39,1.39h0L68.65,43.8v3.93h8.47Z" style="fill:#600710"/><polygon points="77.12 47.73 77.12 54.66 83.03 54.66 85.59 52.1 85.59 47.73 77.12 47.73" style="fill:#8d191c"/><path d="M85.59,47.73V43.8l-2.15-2.17h0a1.39,1.39,0,0,1-1.39-1.39V35.59l-1.68-2.41H77.12V47.73Z" style="fill:#a52122"/><rect x="74.07" y="36.8" width="1.28" height="6.02"/><rect x="78.5" y="36.8" width="1.28" height="6.02"/><rect x="68.65" y="47.73" width="16.94" height="1.28"/><polygon points="71.54 66.02 71.54 67.45 77.12 73.03 77.12 67.45 77.12 66.02 71.54 66.02" style="fill:#f38d30"/><polygon points="82.71 66.02 82.71 67.45 77.12 73.03 77.12 67.45 77.12 66.02 82.71 66.02" style="fill:#d17727"/></g></g></svg>