<svg xmlns="http://www.w3.org/2000/svg" xmlns:xlink="http://www.w3.org/1999/xlink" viewBox="0 0 148.25 207.55"><defs><clipPath id="clip-path"><rect width="148.25" height="207.55" style="fill:none"/></clipPath><linearGradient id="Degradado_sin_nombre_5" x1="-14.83" y1="14.83" x2="163.07" y2="192.72" gradientUnits="userSpaceOnUse"><stop offset="0" stop-color="#fef201"/><stop offset="1" stop-color="#ff1443"/></linearGradient></defs><title>Asset 129</title><g style="isolation:isolate"><g id="Layer_2" data-name="Layer 2"><g id="Layer_3" data-name="Layer 3"><g style="clip-path:url(#clip-path)"><rect width="148.25" height="207.55" style="fill:url(#Degradado_sin_nombre_5)"/><g style="opacity:0.46;mix-blend-mode:soft-light"><circle cx="4.8" cy="8.78" r="1" style="fill:#fef201"/><circle cx="4.8" cy="21.82" r="1" style="fill:#fef201"/><circle cx="4.8" cy="34.86" r="1" style="fill:#fef201"/><circle cx="4.8" cy="47.91" r="1" style="fill:#fef201"/><circle cx="4.8" cy="60.95" r="1" style="fill:#fef201"/><circle cx="4.8" cy="74" r="1" style="fill:#fef201"/><circle cx="4.8" cy="87.04" r="1" style="fill:#fef201"/><circle cx="4.8" cy="100.09" r="1" style="fill:#fef201"/><circle cx="4.8" cy="113.13" r="1" style="fill:#fef201"/><circle cx="4.8" cy="126.18" r="1" style="fill:#fef201"/><circle cx="4.8" cy="139.22" r="1" style="fill:#fef201"/><circle cx="4.8" cy="152.27" r="1" style="fill:#fef201"/><circle cx="4.8" cy="165.31" r="1" style="fill:#fef201"/><circle cx="4.8" cy="178.35" r="1" style="fill:#fef201"/><circle cx="4.8" cy="191.4" r="1" style="fill:#fef201"/><circle cx="4.8" cy="204.44" r="1" style="fill:#fef201"/><path d="M12.15,4.11a1,1,0,1,0,0-2,1,1,0,0,0-1,1A1,1,0,0,0,12.15,4.11Z" style="fill:#fef201"/><path d="M12.18,15.15a1,1,0,1,0,1,1A1,1,0,0,0,12.18,15.15Z" style="fill:#fef201"/><path d="M12.23,28.2a1,1,0,1,0,1,1A1,1,0,0,0,12.23,28.2Z" style="fill:#fef201"/><path d="M12.27,41.24a1,1,0,1,0,0,2,1,1,0,0,0,0-2Z" style="fill:#fef201"/><path d="M12.31,54.28a1,1,0,0,0-1,1,1,1,0,0,0,1,1,1,1,0,1,0,0-2Z" style="fill:#fef201"/><path d="M12.36,67.33a1,1,0,1,0,1,1A1,1,0,0,0,12.36,67.33Z" style="fill:#fef201"/><path d="M12.4,80.37a1,1,0,0,0-1,1,1,1,0,0,0,2,0A1,1,0,0,0,12.4,80.37Z" style="fill:#fef201"/><path d="M12.44,93.42a1,1,0,1,0,0,2,1,1,0,0,0,0-2Z" style="fill:#fef201"/><path d="M12.48,106.46a1,1,0,0,0,0,2,1,1,0,1,0,0-2Z" style="fill:#fef201"/><path d="M12.53,119.51a1,1,0,1,0,0,2,1,1,0,0,0,1-1A1,1,0,0,0,12.53,119.51Z" style="fill:#fef201"/><path d="M12.57,132.55a1,1,0,1,0,1,1A1,1,0,0,0,12.57,132.55Z" style="fill:#fef201"/><path d="M12.61,145.6a1,1,0,0,0-1,1,1,1,0,0,0,1,1,1,1,0,0,0,1-1A1,1,0,0,0,12.61,145.6Z" style="fill:#fef201"/><path d="M12.65,158.64a1,1,0,1,0,1,1A1,1,0,0,0,12.65,158.64Z" style="fill:#fef201"/><path d="M12.7,171.68a1,1,0,0,0-1,1,1,1,0,0,0,2,0A1,1,0,0,0,12.7,171.68Z" style="fill:#fef201"/><path d="M12.74,184.73a1,1,0,1,0,1,1A1,1,0,0,0,12.74,184.73Z" style="fill:#fef201"/><path d="M12.78,197.77a1,1,0,1,0,0,2,1,1,0,0,0,1-1A1,1,0,0,0,12.78,197.77Z" style="fill:#fef201"/><circle cx="21.13" cy="8.78" r="1" style="fill:#fef201"/><circle cx="21.13" cy="21.82" r="1" style="fill:#fef201"/><circle cx="21.13" cy="34.86" r="1" style="fill:#fef201"/><circle cx="21.13" cy="47.91" r="1" style="fill:#fef201"/><circle cx="21.13" cy="60.95" r="1" style="fill:#fef201"/><circle cx="21.13" cy="74" r="1" style="fill:#fef201"/><circle cx="21.13" cy="87.04" r="1" style="fill:#fef201"/><circle cx="21.13" cy="100.09" r="1" style="fill:#fef201"/><circle cx="21.13" cy="113.13" r="1" style="fill:#fef201"/><circle cx="21.13" cy="126.18" r="1" style="fill:#fef201"/><circle cx="21.13" cy="139.22" r="1" style="fill:#fef201"/><circle cx="21.13" cy="152.27" r="1" style="fill:#fef201"/><circle cx="21.13" cy="165.31" r="1" style="fill:#fef201"/><circle cx="21.13" cy="178.35" r="1" style="fill:#fef201"/><circle cx="21.13" cy="191.4" r="1" style="fill:#fef201"/><circle cx="21.13" cy="204.44" r="1" style="fill:#fef201"/><path d="M28.48,4.11a1,1,0,0,0,1-1,1,1,0,1,0-1,1Z" style="fill:#fef201"/><path d="M28.52,15.15a1,1,0,0,0-1,1,1,1,0,1,0,1-1Z" style="fill:#fef201"/><path d="M28.56,28.2a1,1,0,0,0-1,1,1,1,0,0,0,1,1,1,1,0,0,0,0-2Z" style="fill:#fef201"/><path d="M28.6,41.24a1,1,0,0,0,0,2,1,1,0,1,0,0-2Z" style="fill:#fef201"/><path d="M28.65,54.28a1,1,0,0,0-1,1,1,1,0,0,0,1,1,1,1,0,1,0,0-2Z" style="fill:#fef201"/><path d="M28.69,67.33a1,1,0,1,0,1,1A1,1,0,0,0,28.69,67.33Z" style="fill:#fef201"/><path d="M28.73,80.37a1,1,0,1,0,0,2,1,1,0,0,0,1-1A1,1,0,0,0,28.73,80.37Z" style="fill:#fef201"/><path d="M28.77,93.42a1,1,0,0,0,0,2,1,1,0,1,0,0-2Z" style="fill:#fef201"/><path d="M28.82,106.46a1,1,0,1,0,1,1A1,1,0,0,0,28.82,106.46Z" style="fill:#fef201"/><path d="M28.86,119.51a1,1,0,1,0,1,1A1,1,0,0,0,28.86,119.51Z" style="fill:#fef201"/><path d="M28.9,132.55a1,1,0,1,0,1,1A1,1,0,0,0,28.9,132.55Z" style="fill:#fef201"/><path d="M28.94,145.6a1,1,0,0,0,0,2,1,1,0,0,0,1-1A1,1,0,0,0,28.94,145.6Z" style="fill:#fef201"/><path d="M29,158.64a1,1,0,1,0,1,1A1,1,0,0,0,29,158.64Z" style="fill:#fef201"/><path d="M29,171.68a1,1,0,0,0-1,1,1,1,0,0,0,2,0A1,1,0,0,0,29,171.68Z" style="fill:#fef201"/><path d="M29.07,184.73a1,1,0,0,0-1,1,1,1,0,1,0,1-1Z" style="fill:#fef201"/><path d="M29.11,197.77a1,1,0,1,0,1,1A1,1,0,0,0,29.11,197.77Z" style="fill:#fef201"/><circle cx="37.47" cy="8.78" r="1" style="fill:#fef201"/><circle cx="37.47" cy="21.82" r="1" style="fill:#fef201"/><circle cx="37.47" cy="34.86" r="1" style="fill:#fef201"/><circle cx="37.47" cy="47.91" r="1" style="fill:#fef201"/><circle cx="37.47" cy="60.95" r="1" style="fill:#fef201"/><circle cx="37.47" cy="74" r="1" style="fill:#fef201"/><circle cx="37.47" cy="87.04" r="1" style="fill:#fef201"/><circle cx="37.47" cy="100.09" r="1" style="fill:#fef201"/><circle cx="37.47" cy="113.13" r="1" style="fill:#fef201"/><circle cx="37.47" cy="126.18" r="1" style="fill:#fef201"/><circle cx="37.47" cy="139.22" r="1" style="fill:#fef201"/><circle cx="37.47" cy="152.27" r="1" style="fill:#fef201"/><circle cx="37.47" cy="165.31" r="1" style="fill:#fef201"/><circle cx="37.47" cy="178.35" r="1" style="fill:#fef201"/><circle cx="37.47" cy="191.4" r="1" style="fill:#fef201"/><circle cx="37.47" cy="204.44" r="1" style="fill:#fef201"/><path d="M44.82,4.11a1,1,0,1,0-1-1A1,1,0,0,0,44.82,4.11Z" style="fill:#fef201"/><path d="M44.85,15.15a1,1,0,1,0,0,2,1,1,0,0,0,1-1A1,1,0,0,0,44.85,15.15Z" style="fill:#fef201"/><path d="M44.89,28.2a1,1,0,0,0,0,2,1,1,0,0,0,1-1A1,1,0,0,0,44.89,28.2Z" style="fill:#fef201"/><path d="M44.94,41.24a1,1,0,1,0,1,1A1,1,0,0,0,44.94,41.24Z" style="fill:#fef201"/><path d="M45,54.28a1,1,0,0,0-1,1,1,1,0,0,0,2,0A1,1,0,0,0,45,54.28Z" style="fill:#fef201"/><path d="M45,67.33a1,1,0,0,0-1,1,1,1,0,1,0,1-1Z" style="fill:#fef201"/><path d="M45.06,80.37a1,1,0,0,0-1,1,1,1,0,0,0,1,1,1,1,0,1,0,0-2Z" style="fill:#fef201"/><path d="M45.11,93.42a1,1,0,1,0,1,1A1,1,0,0,0,45.11,93.42Z" style="fill:#fef201"/><path d="M45.15,106.46a1,1,0,1,0,0,2,1,1,0,0,0,0-2Z" style="fill:#fef201"/><path d="M45.19,119.51a1,1,0,0,0-1,1,1,1,0,1,0,1-1Z" style="fill:#fef201"/><path d="M45.24,132.55a1,1,0,1,0,1,1A1,1,0,0,0,45.24,132.55Z" style="fill:#fef201"/><path d="M45.28,145.6a1,1,0,1,0,1,1A1,1,0,0,0,45.28,145.6Z" style="fill:#fef201"/><path d="M45.32,158.64a1,1,0,1,0,0,2,1,1,0,0,0,0-2Z" style="fill:#fef201"/><path d="M45.36,171.68a1,1,0,0,0-1,1,1,1,0,0,0,1,1,1,1,0,1,0,0-2Z" style="fill:#fef201"/><path d="M45.41,184.73a1,1,0,1,0,1,1A1,1,0,0,0,45.41,184.73Z" style="fill:#fef201"/><path d="M45.45,197.77a1,1,0,0,0-1,1,1,1,0,1,0,1-1Z" style="fill:#fef201"/><circle cx="53.8" cy="8.78" r="1" style="fill:#fef201"/><circle cx="53.8" cy="21.82" r="1" style="fill:#fef201"/><circle cx="53.8" cy="34.86" r="1" style="fill:#fef201"/><circle cx="53.8" cy="47.91" r="1" style="fill:#fef201"/><circle cx="53.8" cy="60.95" r="1" style="fill:#fef201"/><circle cx="53.8" cy="74" r="1" style="fill:#fef201"/><circle cx="53.8" cy="87.04" r="1" style="fill:#fef201"/><circle cx="53.8" cy="100.09" r="1" style="fill:#fef201"/><circle cx="53.8" cy="113.13" r="1" style="fill:#fef201"/><circle cx="53.8" cy="126.18" r="1" style="fill:#fef201"/><circle cx="53.8" cy="139.22" r="1" style="fill:#fef201"/><circle cx="53.8" cy="152.27" r="1" style="fill:#fef201"/><circle cx="53.8" cy="165.31" r="1" style="fill:#fef201"/><circle cx="53.8" cy="178.35" r="1" style="fill:#fef201"/><circle cx="53.8" cy="191.4" r="1" style="fill:#fef201"/><circle cx="53.8" cy="204.44" r="1" style="fill:#fef201"/><path d="M61.15,4.11a1,1,0,1,0,0-2,1,1,0,0,0-1,1A1,1,0,0,0,61.15,4.11Z" style="fill:#fef201"/><path d="M61.18,15.15a1,1,0,1,0,1,1A1,1,0,0,0,61.18,15.15Z" style="fill:#fef201"/><path d="M61.23,28.2a1,1,0,1,0,1,1A1,1,0,0,0,61.23,28.2Z" style="fill:#fef201"/><path d="M61.27,41.24a1,1,0,1,0,0,2,1,1,0,0,0,0-2Z" style="fill:#fef201"/><path d="M61.31,54.28a1,1,0,0,0-1,1,1,1,0,0,0,1,1,1,1,0,1,0,0-2Z" style="fill:#fef201"/><path d="M61.36,67.33a1,1,0,1,0,1,1A1,1,0,0,0,61.36,67.33Z" style="fill:#fef201"/><path d="M61.4,80.37a1,1,0,0,0-1,1,1,1,0,0,0,2,0A1,1,0,0,0,61.4,80.37Z" style="fill:#fef201"/><path d="M61.44,93.42a1,1,0,1,0,0,2,1,1,0,0,0,0-2Z" style="fill:#fef201"/><path d="M61.48,106.46a1,1,0,0,0,0,2,1,1,0,1,0,0-2Z" style="fill:#fef201"/><path d="M61.53,119.51a1,1,0,0,0,0,2,1,1,0,0,0,1-1A1,1,0,0,0,61.53,119.51Z" style="fill:#fef201"/><path d="M61.57,132.55a1,1,0,1,0,1,1A1,1,0,0,0,61.57,132.55Z" style="fill:#fef201"/><path d="M61.61,145.6a1,1,0,0,0-1,1,1,1,0,0,0,1,1,1,1,0,0,0,1-1A1,1,0,0,0,61.61,145.6Z" style="fill:#fef201"/><path d="M61.65,158.64a1,1,0,1,0,1,1A1,1,0,0,0,61.65,158.64Z" style="fill:#fef201"/><path d="M61.7,171.68a1,1,0,0,0-1,1,1,1,0,0,0,2,0A1,1,0,0,0,61.7,171.68Z" style="fill:#fef201"/><path d="M61.74,184.73a1,1,0,1,0,1,1A1,1,0,0,0,61.74,184.73Z" style="fill:#fef201"/><path d="M61.78,197.77a1,1,0,1,0,0,2,1,1,0,0,0,1-1A1,1,0,0,0,61.78,197.77Z" style="fill:#fef201"/><circle cx="70.13" cy="8.78" r="1" style="fill:#fef201"/><circle cx="70.13" cy="21.82" r="1" style="fill:#fef201"/><circle cx="70.13" cy="34.86" r="1" style="fill:#fef201"/><circle cx="70.13" cy="47.91" r="1" style="fill:#fef201"/><circle cx="70.13" cy="60.95" r="1" style="fill:#fef201"/><circle cx="70.13" cy="74" r="1" style="fill:#fef201"/><circle cx="70.13" cy="87.04" r="1" style="fill:#fef201"/><circle cx="70.13" cy="100.09" r="1" style="fill:#fef201"/><circle cx="70.13" cy="113.13" r="1" style="fill:#fef201"/><circle cx="70.13" cy="126.18" r="1" style="fill:#fef201"/><circle cx="70.13" cy="139.22" r="1" style="fill:#fef201"/><circle cx="70.13" cy="152.27" r="1" style="fill:#fef201"/><circle cx="70.13" cy="165.31" r="1" style="fill:#fef201"/><circle cx="70.13" cy="178.35" r="1" style="fill:#fef201"/><circle cx="70.13" cy="191.4" r="1" style="fill:#fef201"/><circle cx="70.13" cy="204.44" r="1" style="fill:#fef201"/><path d="M77.48,4.11a1,1,0,0,0,1-1,1,1,0,1,0-1,1Z" style="fill:#fef201"/><path d="M77.52,15.15a1,1,0,0,0-1,1,1,1,0,1,0,1-1Z" style="fill:#fef201"/><path d="M77.56,28.2a1,1,0,0,0-1,1,1,1,0,0,0,1,1,1,1,0,0,0,0-2Z" style="fill:#fef201"/><path d="M77.6,41.24a1,1,0,0,0,0,2,1,1,0,1,0,0-2Z" style="fill:#fef201"/><path d="M77.65,54.28a1,1,0,0,0-1,1,1,1,0,0,0,1,1,1,1,0,0,0,0-2Z" style="fill:#fef201"/><path d="M77.69,67.33a1,1,0,1,0,1,1A1,1,0,0,0,77.69,67.33Z" style="fill:#fef201"/><path d="M77.73,80.37a1,1,0,1,0,0,2,1,1,0,0,0,1-1A1,1,0,0,0,77.73,80.37Z" style="fill:#fef201"/><path d="M77.77,93.42a1,1,0,0,0,0,2,1,1,0,1,0,0-2Z" style="fill:#fef201"/><path d="M77.82,106.46a1,1,0,1,0,1,1A1,1,0,0,0,77.82,106.46Z" style="fill:#fef201"/><path d="M77.86,119.51a1,1,0,1,0,1,1A1,1,0,0,0,77.86,119.51Z" style="fill:#fef201"/><path d="M77.9,132.55a1,1,0,1,0,1,1A1,1,0,0,0,77.9,132.55Z" style="fill:#fef201"/><path d="M77.94,145.6a1,1,0,0,0,0,2,1,1,0,0,0,1-1A1,1,0,0,0,77.94,145.6Z" style="fill:#fef201"/><path d="M78,158.64a1,1,0,1,0,1,1A1,1,0,0,0,78,158.64Z" style="fill:#fef201"/><path d="M78,171.68a1,1,0,0,0-1,1,1,1,0,0,0,2,0A1,1,0,0,0,78,171.68Z" style="fill:#fef201"/><path d="M78.07,184.73a1,1,0,0,0-1,1,1,1,0,1,0,1-1Z" style="fill:#fef201"/><path d="M78.11,197.77a1,1,0,1,0,1,1A1,1,0,0,0,78.11,197.77Z" style="fill:#fef201"/><circle cx="86.47" cy="8.78" r="1" style="fill:#fef201"/><circle cx="86.47" cy="21.82" r="1" style="fill:#fef201"/><circle cx="86.47" cy="34.86" r="1" style="fill:#fef201"/><circle cx="86.47" cy="47.91" r="1" style="fill:#fef201"/><circle cx="86.47" cy="60.95" r="1" style="fill:#fef201"/><circle cx="86.47" cy="74" r="1" style="fill:#fef201"/><circle cx="86.47" cy="87.04" r="1" style="fill:#fef201"/><circle cx="86.47" cy="100.09" r="1" style="fill:#fef201"/><circle cx="86.47" cy="113.13" r="1" style="fill:#fef201"/><circle cx="86.47" cy="126.18" r="1" style="fill:#fef201"/><circle cx="86.47" cy="139.22" r="1" style="fill:#fef201"/><circle cx="86.47" cy="152.27" r="1" style="fill:#fef201"/><circle cx="86.47" cy="165.31" r="1" style="fill:#fef201"/><circle cx="86.47" cy="178.35" r="1" style="fill:#fef201"/><circle cx="86.47" cy="191.4" r="1" style="fill:#fef201"/><circle cx="86.47" cy="204.44" r="1" style="fill:#fef201"/><path d="M93.82,4.11a1,1,0,1,0-1-1A1,1,0,0,0,93.82,4.11Z" style="fill:#fef201"/><path d="M93.85,15.15a1,1,0,1,0,0,2,1,1,0,0,0,1-1A1,1,0,0,0,93.85,15.15Z" style="fill:#fef201"/><path d="M93.89,28.2a1,1,0,0,0,0,2,1,1,0,0,0,1-1A1,1,0,0,0,93.89,28.2Z" style="fill:#fef201"/><path d="M93.94,41.24a1,1,0,1,0,1,1A1,1,0,0,0,93.94,41.24Z" style="fill:#fef201"/><path d="M94,54.28a1,1,0,0,0-1,1,1,1,0,0,0,2,0A1,1,0,0,0,94,54.28Z" style="fill:#fef201"/><path d="M94,67.33a1,1,0,0,0-1,1,1,1,0,1,0,1-1Z" style="fill:#fef201"/><path d="M94.06,80.37a1,1,0,0,0-1,1,1,1,0,0,0,1,1,1,1,0,1,0,0-2Z" style="fill:#fef201"/><path d="M94.11,93.42a1,1,0,1,0,1,1A1,1,0,0,0,94.11,93.42Z" style="fill:#fef201"/><path d="M94.15,106.46a1,1,0,1,0,0,2,1,1,0,0,0,0-2Z" style="fill:#fef201"/><path d="M94.19,119.51a1,1,0,0,0-1,1,1,1,0,1,0,1-1Z" style="fill:#fef201"/><path d="M94.24,132.55a1,1,0,1,0,1,1A1,1,0,0,0,94.24,132.55Z" style="fill:#fef201"/><path d="M94.28,145.6a1,1,0,1,0,1,1A1,1,0,0,0,94.28,145.6Z" style="fill:#fef201"/><path d="M94.32,158.64a1,1,0,1,0,0,2,1,1,0,0,0,0-2Z" style="fill:#fef201"/><path d="M94.36,171.68a1,1,0,0,0-1,1,1,1,0,0,0,1,1,1,1,0,1,0,0-2Z" style="fill:#fef201"/><path d="M94.41,184.73a1,1,0,1,0,1,1A1,1,0,0,0,94.41,184.73Z" style="fill:#fef201"/><path d="M94.45,197.77a1,1,0,0,0-1,1,1,1,0,1,0,1-1Z" style="fill:#fef201"/><circle cx="102.8" cy="8.78" r="1" style="fill:#fef201"/><circle cx="102.8" cy="21.82" r="1" style="fill:#fef201"/><circle cx="102.8" cy="34.86" r="1" style="fill:#fef201"/><circle cx="102.8" cy="47.91" r="1" style="fill:#fef201"/><circle cx="102.8" cy="60.95" r="1" style="fill:#fef201"/><circle cx="102.8" cy="74" r="1" style="fill:#fef201"/><circle cx="102.8" cy="87.04" r="1" style="fill:#fef201"/><circle cx="102.8" cy="100.09" r="1" style="fill:#fef201"/><circle cx="102.8" cy="113.13" r="1" style="fill:#fef201"/><circle cx="102.8" cy="126.18" r="1" style="fill:#fef201"/><circle cx="102.8" cy="139.22" r="1" style="fill:#fef201"/><circle cx="102.8" cy="152.27" r="1" style="fill:#fef201"/><circle cx="102.8" cy="165.31" r="1" style="fill:#fef201"/><circle cx="102.8" cy="178.35" r="1" style="fill:#fef201"/><circle cx="102.8" cy="191.4" r="1" style="fill:#fef201"/><circle cx="102.8" cy="204.44" r="1" style="fill:#fef201"/><path d="M110.15,4.11a1,1,0,1,0,0-2,1,1,0,0,0-1,1A1,1,0,0,0,110.15,4.11Z" style="fill:#fef201"/><path d="M110.18,15.15a1,1,0,1,0,1,1A1,1,0,0,0,110.18,15.15Z" style="fill:#fef201"/><path d="M110.23,28.2a1,1,0,1,0,1,1A1,1,0,0,0,110.23,28.2Z" style="fill:#fef201"/><path d="M110.27,41.24a1,1,0,1,0,0,2,1,1,0,0,0,0-2Z" style="fill:#fef201"/><path d="M110.31,54.28a1,1,0,0,0-1,1,1,1,0,0,0,1,1,1,1,0,1,0,0-2Z" style="fill:#fef201"/><path d="M110.36,67.33a1,1,0,1,0,1,1A1,1,0,0,0,110.36,67.33Z" style="fill:#fef201"/><path d="M110.4,80.37a1,1,0,0,0-1,1,1,1,0,0,0,2,0A1,1,0,0,0,110.4,80.37Z" style="fill:#fef201"/><path d="M110.44,93.42a1,1,0,1,0,0,2,1,1,0,0,0,0-2Z" style="fill:#fef201"/><path d="M110.48,106.46a1,1,0,0,0,0,2,1,1,0,1,0,0-2Z" style="fill:#fef201"/><path d="M110.53,119.51a1,1,0,0,0,0,2,1,1,0,0,0,1-1A1,1,0,0,0,110.53,119.51Z" style="fill:#fef201"/><path d="M110.57,132.55a1,1,0,1,0,1,1A1,1,0,0,0,110.57,132.55Z" style="fill:#fef201"/><path d="M110.61,145.6a1,1,0,0,0-1,1,1,1,0,0,0,1,1,1,1,0,0,0,1-1A1,1,0,0,0,110.61,145.6Z" style="fill:#fef201"/><path d="M110.65,158.64a1,1,0,1,0,1,1A1,1,0,0,0,110.65,158.64Z" style="fill:#fef201"/><path d="M110.7,171.68a1,1,0,0,0-1,1,1,1,0,0,0,2,0A1,1,0,0,0,110.7,171.68Z" style="fill:#fef201"/><path d="M110.74,184.73a1,1,0,1,0,1,1A1,1,0,0,0,110.74,184.73Z" style="fill:#fef201"/><path d="M110.78,197.77a1,1,0,1,0,0,2,1,1,0,0,0,1-1A1,1,0,0,0,110.78,197.77Z" style="fill:#fef201"/><circle cx="119.13" cy="8.78" r="1" style="fill:#fef201"/><circle cx="119.13" cy="21.82" r="1" style="fill:#fef201"/><circle cx="119.13" cy="34.86" r="1" style="fill:#fef201"/><circle cx="119.13" cy="47.91" r="1" style="fill:#fef201"/><circle cx="119.13" cy="60.95" r="1" style="fill:#fef201"/><circle cx="119.13" cy="74" r="1" style="fill:#fef201"/><circle cx="119.13" cy="87.04" r="1" style="fill:#fef201"/><circle cx="119.13" cy="100.09" r="1" style="fill:#fef201"/><circle cx="119.13" cy="113.13" r="1" style="fill:#fef201"/><circle cx="119.13" cy="126.18" r="1" style="fill:#fef201"/><circle cx="119.13" cy="139.22" r="1" style="fill:#fef201"/><circle cx="119.13" cy="152.27" r="1" style="fill:#fef201"/><circle cx="119.13" cy="165.31" r="1" style="fill:#fef201"/><circle cx="119.13" cy="178.35" r="1" style="fill:#fef201"/><circle cx="119.13" cy="191.4" r="1" style="fill:#fef201"/><circle cx="119.13" cy="204.44" r="1" style="fill:#fef201"/><path d="M126.48,4.11a1,1,0,0,0,1-1,1,1,0,1,0-1,1Z" style="fill:#fef201"/><path d="M126.52,15.15a1,1,0,0,0-1,1,1,1,0,1,0,1-1Z" style="fill:#fef201"/><path d="M126.56,28.2a1,1,0,0,0-1,1,1,1,0,0,0,1,1,1,1,0,0,0,0-2Z" style="fill:#fef201"/><path d="M126.6,41.24a1,1,0,0,0,0,2,1,1,0,1,0,0-2Z" style="fill:#fef201"/><path d="M126.65,54.28a1,1,0,0,0-1,1,1,1,0,0,0,1,1,1,1,0,0,0,0-2Z" style="fill:#fef201"/><path d="M126.69,67.33a1,1,0,1,0,1,1A1,1,0,0,0,126.69,67.33Z" style="fill:#fef201"/><path d="M126.73,80.37a1,1,0,1,0,0,2,1,1,0,0,0,1-1A1,1,0,0,0,126.73,80.37Z" style="fill:#fef201"/><path d="M126.77,93.42a1,1,0,0,0,0,2,1,1,0,1,0,0-2Z" style="fill:#fef201"/><path d="M126.82,106.46a1,1,0,1,0,1,1A1,1,0,0,0,126.82,106.46Z" style="fill:#fef201"/><path d="M126.86,119.51a1,1,0,1,0,1,1A1,1,0,0,0,126.86,119.51Z" style="fill:#fef201"/><path d="M126.9,132.55a1,1,0,1,0,1,1A1,1,0,0,0,126.9,132.55Z" style="fill:#fef201"/><path d="M126.94,145.6a1,1,0,0,0,0,2,1,1,0,0,0,1-1A1,1,0,0,0,126.94,145.6Z" style="fill:#fef201"/><path d="M127,158.64a1,1,0,1,0,1,1A1,1,0,0,0,127,158.64Z" style="fill:#fef201"/><path d="M127,171.68a1,1,0,0,0-1,1,1,1,0,0,0,2,0A1,1,0,0,0,127,171.68Z" style="fill:#fef201"/><path d="M127.07,184.73a1,1,0,0,0-1,1,1,1,0,1,0,1-1Z" style="fill:#fef201"/><path d="M127.11,197.77a1,1,0,1,0,1,1A1,1,0,0,0,127.11,197.77Z" style="fill:#fef201"/><circle cx="135.47" cy="8.78" r="1" style="fill:#fef201"/><circle cx="135.47" cy="21.82" r="1" style="fill:#fef201"/><circle cx="135.47" cy="34.86" r="1" style="fill:#fef201"/><circle cx="135.47" cy="47.91" r="1" style="fill:#fef201"/><circle cx="135.47" cy="60.95" r="1" style="fill:#fef201"/><circle cx="135.47" cy="74" r="1" style="fill:#fef201"/><circle cx="135.47" cy="87.04" r="1" style="fill:#fef201"/><circle cx="135.47" cy="100.09" r="1" style="fill:#fef201"/><circle cx="135.47" cy="113.13" r="1" style="fill:#fef201"/><circle cx="135.47" cy="126.18" r="1" style="fill:#fef201"/><circle cx="135.47" cy="139.22" r="1" style="fill:#fef201"/><circle cx="135.47" cy="152.27" r="1" style="fill:#fef201"/><circle cx="135.47" cy="165.31" r="1" style="fill:#fef201"/><circle cx="135.47" cy="178.35" r="1" style="fill:#fef201"/><circle cx="135.47" cy="191.4" r="1" style="fill:#fef201"/><circle cx="135.47" cy="204.44" r="1" style="fill:#fef201"/><path d="M142.82,4.11a1,1,0,1,0-1-1A1,1,0,0,0,142.82,4.11Z" style="fill:#fef201"/><path d="M142.85,15.15a1,1,0,1,0,0,2,1,1,0,0,0,1-1A1,1,0,0,0,142.85,15.15Z" style="fill:#fef201"/><path d="M142.89,28.2a1,1,0,0,0,0,2,1,1,0,0,0,1-1A1,1,0,0,0,142.89,28.2Z" style="fill:#fef201"/><path d="M142.94,41.24a1,1,0,1,0,1,1A1,1,0,0,0,142.94,41.24Z" style="fill:#fef201"/><path d="M143,54.28a1,1,0,0,0-1,1,1,1,0,0,0,2,0A1,1,0,0,0,143,54.28Z" style="fill:#fef201"/><path d="M143,67.33a1,1,0,0,0-1,1,1,1,0,1,0,1-1Z" style="fill:#fef201"/><path d="M143.06,80.37a1,1,0,0,0-1,1,1,1,0,0,0,1,1,1,1,0,1,0,0-2Z" style="fill:#fef201"/><path d="M143.11,93.42a1,1,0,1,0,1,1A1,1,0,0,0,143.11,93.42Z" style="fill:#fef201"/><path d="M143.15,106.46a1,1,0,1,0,0,2,1,1,0,0,0,0-2Z" style="fill:#fef201"/><path d="M143.19,119.51a1,1,0,0,0-1,1,1,1,0,1,0,1-1Z" style="fill:#fef201"/><path d="M143.24,132.55a1,1,0,1,0,1,1A1,1,0,0,0,143.24,132.55Z" style="fill:#fef201"/><path d="M143.28,145.6a1,1,0,1,0,1,1A1,1,0,0,0,143.28,145.6Z" style="fill:#fef201"/><path d="M143.32,158.64a1,1,0,1,0,0,2,1,1,0,0,0,0-2Z" style="fill:#fef201"/><path d="M143.36,171.68a1,1,0,0,0-1,1,1,1,0,0,0,1,1,1,1,0,1,0,0-2Z" style="fill:#fef201"/><path d="M143.41,184.73a1,1,0,1,0,1,1A1,1,0,0,0,143.41,184.73Z" style="fill:#fef201"/><path d="M143.45,197.77a1,1,0,0,0-1,1,1,1,0,1,0,1-1Z" style="fill:#fef201"/></g></g><g style="opacity:0.45"><polygon points="80.36 40.2 73.51 40.2 8.1 105.61 8.1 112.45 80.36 40.2" style="fill:#00158e;opacity:0.2"/><polygon points="99.61 40.2 92.76 40.2 8.1 124.85 8.1 131.7 99.61 40.2" style="fill:#00158e;opacity:0.2"/><polygon points="61.11 40.2 54.27 40.2 8.1 86.36 8.1 93.21 61.11 40.2" style="fill:#00158e;opacity:0.2"/><polygon points="41.86 40.2 35.02 40.2 8.1 67.11 8.1 73.96 41.86 40.2" style="fill:#00158e;opacity:0.2"/><polygon points="22.62 40.2 15.77 40.2 8.1 47.86 8.1 54.71 22.62 40.2" style="fill:#00158e;opacity:0.2"/><path d="M108.1,40.2v3.91L11.81,140.4H8.1v30.51H138.82V40.2Zm0,100.2H95.65L108.1,128Zm0-19.3L88.8,140.4H76.4l31.7-31.7Zm0-19.25L69.56,140.4H57.15L108.1,89.45Zm0-19.25L50.31,140.4H37.91L108.1,70.2Zm0-19.24-77,77H18.66L108.1,51Z" style="fill:#00158e;opacity:0.2"/><polygon points="135.94 168.5 135.94 142.05 131.16 146.84 131.16 163.71 114.28 163.71 109.5 168.5 135.94 168.5" style="fill:#0751cf"/><rect x="137.39" y="71.65" width="2.99" height="35.67" style="fill:gold"/><rect x="137.39" y="114.49" width="2.99" height="4.98" style="fill:gold"/><rect x="26.4" y="170.08" width="48.42" height="2.39" style="fill:gold"/><polygon points="23.9 160.58 27.76 160.58 31.88 156.46 25.44 156.46 16.15 165.74 18.74 165.74 23.9 160.58" style="fill:gold"/><polygon points="32.27 160.58 36.13 160.58 40.26 156.46 33.81 156.46 24.53 165.74 27.11 165.74 32.27 160.58" style="fill:gold"/><polygon points="40.65 160.58 44.51 160.58 48.63 156.46 42.19 156.46 32.9 165.74 35.48 165.74 40.65 160.58" style="fill:gold"/><polygon points="49.02 160.58 52.88 160.58 57.01 156.46 50.56 156.46 41.28 165.74 43.86 165.74 49.02 160.58" style="fill:gold"/><polygon points="57.4 160.58 61.26 160.58 65.38 156.46 58.94 156.46 49.65 165.74 52.23 165.74 57.4 160.58" style="fill:gold"/><polygon points="65.77 160.58 69.63 160.58 73.75 156.46 67.31 156.46 58.03 165.74 60.61 165.74 65.77 160.58" style="fill:gold"/><polygon points="74.15 160.58 78.01 160.58 82.13 156.46 75.69 156.46 66.4 165.74 68.98 165.74 74.15 160.58" style="fill:gold"/><polygon points="82.52 160.58 86.38 160.58 90.5 156.46 84.06 156.46 74.77 165.74 77.36 165.74 82.52 160.58" style="fill:gold"/><path d="M125.13,35.49H110.19V31.9h14.94Zm-14.34-.6h13.75V32.5H110.79Z" style="fill:#0751cf"/><path d="M142.87,143.28h-2.59V131.93h2.59Zm-2-.59h1.39V132.52h-1.39Z" style="fill:#0751cf"/><path d="M101.82,179H84.49v-3.79h17.33Zm-16.74-.6h16.14v-2.59H85.08Z" style="fill:#0751cf"/><path d="M16.14,178.15H9.57v-2.39h6.57Zm-6-.59h5.38v-1.2H10.16Z" style="fill:gold"/><path d="M5.78,166.6H3.39V146.67H5.78ZM4,166H5.18V147.27H4Z" style="fill:gold"/><polygon points="94.75 34.58 94.75 34.43 26.95 34.43 26.95 33.06 94.6 33.06 94.6 34.58 94.75 34.58 94.75 34.43 94.75 34.58 94.9 34.58 94.9 32.76 26.65 32.76 26.65 34.73 94.9 34.73 94.9 34.58 94.75 34.58" style="fill:gold"/></g><path d="M88.87,32.91A1.68,1.68,0,1,0,87,34.58v9.57h-2.6v.38h3v-10A1.68,1.68,0,0,0,88.87,32.91Z" style="fill:#060a0f"/><polygon points="82.52 46.18 84.92 45.42 84.92 43.2 76.02 43.2 76.02 46.18 82.52 46.18" style="fill:#060a0f"/><path d="M58.28,32.91a1.68,1.68,0,1,1,1.85,1.67v9.57h2.6v.38h-3v-10A1.67,1.67,0,0,1,58.28,32.91Z" style="fill:#060a0f"/><polygon points="64.63 46.18 62.22 45.42 62.22 43.2 71.12 43.2 71.12 46.18 64.63 46.18" style="fill:#060a0f"/><path d="M56.29,62.36c0-3.07,2.05-5.56,4.57-5.56H67v.76H60.86c-2.17,0-4,2.15-4,4.8Z"/><path d="M59.8,64.49h-.63V63.9c0-3.06,2.06-5.55,4.58-5.55h3.84v.76H63.75c-2.18,0-4,2.15-4,4.79Z"/><polygon points="67.91 101.18 63.18 106.08 70.32 116.64 73.81 110.89 74.3 102.08 70.09 99.27 67.78 99.57 67.91 101.18" style="fill:#6e6f6b"/><path d="M64.26,88.15v2.48s0,1.51,2.51,1.15H74.3V88.43l-8.74-1.86Z" style="fill:#3c3a37"/><path d="M66.7,95.19l-1,.36a1.46,1.46,0,0,0-.91,2,1.92,1.92,0,0,0,1.91.83s6-1.74,7.6-.9V94.59S67.1,93.82,66.7,95.19Z" style="fill:#6e6f6b"/><path d="M65.53,91.79S63,94.18,66.7,95.19l1.73-.28a27.53,27.53,0,0,1,5.44-.33h.43V91.78Z" style="fill:#4b4c48"/><path d="M56.92,71.91l3.25,15,5,1.56H74.3V73.89L59.62,62.19S53.72,67.07,56.92,71.91Z" style="fill:#6e6f6b"/><polygon points="52.47 81.84 51.58 83.87 51.58 98.25 53.9 100.52 57.21 100.52 58.92 96.99 54.65 80.73 52.47 81.84" style="fill:#6e6f6b"/><path d="M56.16,59.32s4.2,0,5.48,2.26c0,0-1.07,3.7-4.43,4.33Z" style="fill:#a1a4a5"/><path d="M52.07,71.72a4.21,4.21,0,0,1-1.7-1.58,2.35,2.35,0,0,0-1.06,2,2.11,2.11,0,0,0,1.87,2.28,1.42,1.42,0,0,0,.42-.06l1-2.5A2.66,2.66,0,0,0,52.07,71.72Z" style="fill:#1b7f7b"/><path d="M56.46,73.09c-.17,1-.74,1.14-1.26,1a2.09,2.09,0,0,1-1.19-1,2.77,2.77,0,0,0-.95-.92,3.57,3.57,0,0,0-.48-.24l-1,2.5,0,.06.89,5.93,1.23,1h3S58.38,81.18,56.46,73.09Z" style="fill:#434240"/><path d="M56.16,59.32s-3-2.34-6.51,5.75a8,8,0,0,0,.72,5.07,4.21,4.21,0,0,0,1.7,1.58,2.66,2.66,0,0,1,.51.19,3.57,3.57,0,0,1,.48.24,2.77,2.77,0,0,1,.95.92,2.09,2.09,0,0,0,1.19,1c.52.15,1.09,0,1.26-1C56.46,73.09,58.33,63.87,56.16,59.32Z" style="fill:#bebdba"/><path d="M60.57,63.61s3.22,9.28,7.69,10.28h6V62.61H65.09l-1.16-1H60.79Z" style="fill:#9fa2a3"/><polygon points="63.93 61.58 66.74 59.32 68.08 59.32 69.16 60.67 74.3 60.67 74.3 62.61 64.24 62.61 63.61 62.61 63.93 61.58" style="fill:#434240"/><polygon points="66.7 59.99 65.36 59.99 65.36 56.24 66.7 56.24 69.31 58.57 74.3 58.57 74.3 60.97 67.73 60.97 66.7 59.99" style="fill:#2b2c2c"/><polygon points="57.21 80.59 59.67 93.64 58.92 96.99 57.59 94.95 54.47 81.12 57.21 80.59" style="fill:#2b2c2c"/><path d="M52.47,80.4v1.44S56,83.1,54.83,93.7c0,0-.58,2.09.23,3.29l3.18-2.64L56.66,82.5l-1-1.61Z" style="fill:#9fa2a3"/><polygon points="62.33 104.95 59.2 108.76 62.17 112.37 65.17 108.73 62.33 104.95" style="fill:#9fa2a3"/><polygon points="65.17 108.73 61.05 113.7 62.18 127.6 70.32 116.64 70.32 115.68 65.17 108.73" style="fill:#4b4c48"/><polygon points="62.18 127.6 61.54 128.43 61.54 133.17 71.85 119.15 71.85 115.5 71.36 115.5 70.84 114.87 63.66 123.58 62.18 127.6" style="fill:#2c2a29"/><polygon points="68.65 100.22 65.87 99.72 59.2 108.76 69.7 100.81 68.65 100.22" style="fill:#2c2a29"/><polygon points="74.3 62.61 58.17 78.23 59.05 81.73 74.3 69.12 74.3 62.61" style="fill:#2c2a29"/><polygon points="70.32 121.23 70.32 123.04 71.29 124.21 71.29 128.31 63.55 137.7 61.54 133.17 70.32 121.23" style="fill:#4b4c48"/><path d="M63,136.34H60.2v10.78s3.53.6,1.86,6.23h2.28v-17Z" style="fill:#4b4c48"/><polygon points="71.29 128.31 71.29 133.94 64.31 142.41 64.31 136.34 71.29 128.31" style="fill:#2c2a29"/><polygon points="64.31 143.88 71.29 143.88 71.29 133.94 64.31 142.41 64.31 143.88" style="fill:#6e6f6b"/><polygon points="64.31 148.44 67.06 143.88 71.29 143.88 64.34 153.35 64.31 148.44" style="fill:#6e6f6b"/><polygon points="71.29 143.88 71.29 150.24 68.72 150.24 68.72 151.79 70.72 151.79 69.21 153.62 67.11 153.62 64.34 153.62 64.34 153.35 71.29 143.88" style="fill:#2c2a29"/><polygon points="65.29 152.26 62.63 152.74 59.12 156.03 59.12 160.41 58.53 160.41 58.53 161.77 65.29 161.77 65.29 152.26" style="fill:#2c2a29"/><rect x="58.53" y="161.77" width="6.76" height="4.74" style="fill:#191919"/><rect x="57.69" y="160.41" width="0.84" height="6.11" style="fill:#6e6f6b"/><rect x="57.69" y="166.51" width="7.6" height="1.13" style="fill:#6e6f6b"/><polygon points="65.29 152.26 67.95 152.74 71.45 156.03 71.45 160.41 72.05 160.41 72.05 161.77 65.29 161.77 65.29 152.26" style="fill:#171618"/><rect x="65.29" y="161.77" width="6.76" height="4.74" style="fill:#191919"/><rect x="72.05" y="160.41" width="0.84" height="6.11" transform="translate(144.93 326.92) rotate(180)" style="fill:#6e6f6b"/><rect x="65.29" y="166.51" width="7.6" height="1.13" transform="translate(138.17 334.16) rotate(180)" style="fill:#6e6f6b"/><rect x="57.76" y="162.55" width="14.77" height="0.66" style="fill:#6e6f6b"/><rect x="57.76" y="163.81" width="14.77" height="0.66" style="fill:#6e6f6b"/><rect x="57.76" y="165.08" width="14.77" height="0.66" style="fill:#6e6f6b"/><path d="M53.65,107.31l-.27.51a4.09,4.09,0,0,1-1.33-2.45A5.77,5.77,0,0,1,53,101.5l.4.35a5.19,5.19,0,0,0-.84,3.41A3.37,3.37,0,0,0,53.65,107.31Z"/><path d="M53.78,110.35l-.45.68A12.4,12.4,0,0,1,50.78,107a11.46,11.46,0,0,1,.93-10.19l.59.5a10.42,10.42,0,0,0-.87,9.32A11.84,11.84,0,0,0,53.78,110.35Z"/><rect x="53.55" y="98.09" width="2.62" height="14.56" transform="translate(109.72 210.73) rotate(180)" style="fill:#252827"/><path d="M56,106.55l-2.2.12a1,1,0,0,0-.82,1.2l1.19,11,2.24-.13.5-11.11A1,1,0,0,0,56,106.55Z" style="fill:#0d5754"/><polygon points="53.62 123.96 57.56 123.73 57.34 118.11 53.41 118.33 53.62 123.96" style="fill:#0b181b"/><path d="M55.62,123.84a4.72,4.72,0,0,0,0,.77,1.38,1.38,0,0,0,.55,1.07c.65.44,1.76,1.77,2.07,5.81a.34.34,0,0,0,.32.34h0a.67.67,0,0,0,.56-.74l-.21-5.43a1.18,1.18,0,0,0-.28-.74l-1.07-1.18Z" style="fill:#000b10"/><path d="M55.77,123.84a4.73,4.73,0,0,1,.06.76,1.37,1.37,0,0,1-.53,1.13c-.69.51-1.82,2-1.84,6a.37.37,0,0,1-.33.38h0a.67.67,0,0,1-.68-.67L52.24,126a1.1,1.1,0,0,1,.26-.76L53.6,124Z" style="fill:#323e3f"/><path d="M52.47,100.38v2.05a1.35,1.35,0,0,0,1.21,1.46H56a1.7,1.7,0,0,0,1.52-1.84v-.3Z" style="fill:#4fc3cb"/><path d="M51.56,94.38s-2.33,4.28.91,6l5.09,2.05s3-1.45.77-8.05Z" style="fill:#166766"/><path d="M92.31,62.36c0-3.07-2-5.56-4.57-5.56H81.61v.76h6.13c2.18,0,4,2.15,4,4.8Z"/><path d="M88.8,64.49h.63V63.9c0-3.06-2.05-5.55-4.58-5.55H81v.76h3.84c2.18,0,4,2.15,4,4.79Z"/><polygon points="80.69 101.18 85.43 106.08 78.28 116.64 74.79 110.89 74.3 102.08 78.52 99.27 80.83 99.57 80.69 101.18" style="fill:#4c4d49"/><path d="M84.35,88.15v2.48s0,1.51-2.52,1.15H74.3V88.43L83,86.57Z" style="fill:#2e2c2b"/><path d="M81.9,95.19l1,.36a1.46,1.46,0,0,1,.91,2,1.92,1.92,0,0,1-1.91.83s-6-1.74-7.6-.9V94.59S81.5,93.82,81.9,95.19Z" style="fill:#41403c"/><path d="M83.07,91.79s2.52,2.39-1.17,3.4l-1.73-.28a27.43,27.43,0,0,0-5.43-.33H74.3V91.78Z" style="fill:#31302d"/><path d="M91.68,71.91l-3.24,15-5,1.56H74.3V73.89L89,62.19S94.89,67.07,91.68,71.91Z" style="fill:#565651"/><polygon points="96.14 81.84 97.03 83.87 97.03 98.25 94.71 100.52 91.39 100.52 89.68 96.99 93.95 80.73 96.14 81.84" style="fill:#525452"/><path d="M92.44,59.32s-4.19,0-5.48,2.26c0,0,1.07,3.7,4.43,4.33Z" style="fill:#81817f"/><path d="M96.53,71.72a4.21,4.21,0,0,0,1.7-1.58,2.35,2.35,0,0,1,1.06,2,2.11,2.11,0,0,1-1.87,2.28,1.52,1.52,0,0,1-.42-.06l-1-2.5A2.66,2.66,0,0,1,96.53,71.72Z" style="fill:#166766"/><path d="M92.14,73.09c.17,1,.74,1.14,1.26,1a2.14,2.14,0,0,0,1.2-1,2.61,2.61,0,0,1,1-.92,3,3,0,0,1,.47-.24l1,2.5,0,.06-.88,5.93-1.24,1h-3S90.22,81.18,92.14,73.09Z" style="fill:#2d2e2e"/><path d="M92.44,59.32S95.4,57,99,65.07a8,8,0,0,1-.72,5.07,4.21,4.21,0,0,1-1.7,1.58,2.66,2.66,0,0,0-.51.19,3,3,0,0,0-.47.24,2.61,2.61,0,0,0-1,.92,2.14,2.14,0,0,1-1.2,1c-.52.15-1.09,0-1.26-1C92.14,73.09,90.27,63.87,92.44,59.32Z" style="fill:#9d9a95"/><path d="M88,63.61s-3.22,9.28-7.69,10.28h-6V62.61h9.22l1.15-1h3.14Z" style="fill:#838383"/><polygon points="84.67 61.58 81.86 59.32 80.52 59.32 79.44 60.67 74.3 60.67 74.3 62.61 84.36 62.61 84.99 62.61 84.67 61.58" style="fill:#30302f"/><polygon points="81.91 59.99 83.25 59.99 83.25 56.24 81.91 56.24 79.29 58.57 74.3 58.57 74.3 60.97 80.88 60.97 81.91 59.99" style="fill:#171919"/><polygon points="91.39 80.59 88.94 93.64 89.68 96.99 91.02 94.95 94.13 81.12 91.39 80.59" style="fill:#0b0e11"/><path d="M96.14,80.4v1.44s-3.5,1.26-2.37,11.86c0,0,.58,2.09-.23,3.29l-3.17-2.64L91.94,82.5l1-1.61Z" style="fill:#838585"/><polygon points="86.27 104.95 89.4 108.76 86.43 112.37 83.44 108.73 86.27 104.95" style="fill:#9fa2a3"/><polygon points="83.44 108.73 87.56 113.7 86.42 127.6 78.28 116.64 78.28 115.68 83.44 108.73" style="fill:#3c3a38"/><polygon points="86.42 127.6 87.06 128.43 87.06 133.17 76.75 119.15 76.75 115.5 77.25 115.5 77.76 114.87 84.94 123.58 86.42 127.6" style="fill:#191919"/><polygon points="79.95 100.22 82.73 99.72 89.4 108.76 78.9 100.81 79.95 100.22" style="fill:#252422"/><polygon points="74.3 62.61 90.43 78.23 89.55 81.73 74.3 69.12 74.3 62.61" style="fill:#191919"/><polygon points="78.28 121.23 78.28 123.04 77.31 124.21 77.31 128.31 85.05 137.7 87.06 133.17 78.28 121.23" style="fill:#323130"/><path d="M85.65,136.34H88.4v10.78s-3.52.6-1.86,6.23H84.26v-17Z" style="fill:#4b4c48"/><polygon points="77.31 128.31 77.31 133.94 84.29 142.41 84.29 136.34 77.31 128.31" style="fill:#211f1e"/><polygon points="84.29 143.88 77.31 143.88 77.31 133.94 84.29 142.41 84.29 143.88" style="fill:#52534f"/><polygon points="84.29 148.44 81.54 143.88 77.31 143.88 84.26 153.35 84.29 148.44" style="fill:#52534f"/><polygon points="77.31 143.88 77.31 150.24 79.88 150.24 79.88 151.79 77.89 151.79 79.39 153.62 81.49 153.62 84.26 153.62 84.26 153.35 77.31 143.88" style="fill:#191919"/><polygon points="83.31 152.26 85.98 152.74 89.48 156.03 89.48 160.41 90.07 160.41 90.07 161.77 83.31 161.77 83.31 152.26" style="fill:#19191a"/><rect x="83.31" y="161.77" width="6.76" height="4.74" style="fill:#191919"/><rect x="90.07" y="160.41" width="0.84" height="6.11" transform="translate(180.98 326.92) rotate(180)" style="fill:#535450"/><rect x="83.31" y="166.51" width="7.6" height="1.13" transform="translate(174.22 334.16) rotate(180)" style="fill:#535450"/><polygon points="83.31 152.26 80.65 152.74 77.15 156.03 77.15 160.41 76.56 160.41 76.56 161.77 83.31 161.77 83.31 152.26"/><rect x="76.56" y="161.77" width="6.76" height="4.74" style="fill:#191919"/><rect x="75.72" y="160.41" width="0.84" height="6.11" style="fill:#535450"/><rect x="75.72" y="166.51" width="7.6" height="1.13" style="fill:#535450"/><rect x="76.07" y="162.55" width="14.77" height="0.66" transform="translate(166.91 325.76) rotate(180)" style="fill:#535450"/><rect x="76.07" y="163.81" width="14.77" height="0.66" transform="translate(166.91 328.29) rotate(180)" style="fill:#535450"/><rect x="76.07" y="165.08" width="14.77" height="0.66" transform="translate(166.91 330.83) rotate(180)" style="fill:#535450"/><path d="M95,107.31l.27.51a4.13,4.13,0,0,0,1.34-2.45,5.78,5.78,0,0,0-.93-3.87l-.4.35a5.13,5.13,0,0,1,.84,3.41A3.37,3.37,0,0,1,95,107.31Z"/><path d="M94.82,110.35l.45.68A12.33,12.33,0,0,0,97.83,107a11.5,11.5,0,0,0-.94-10.19l-.59.5a10.39,10.39,0,0,1,.87,9.32A11.65,11.65,0,0,1,94.82,110.35Z"/><rect x="92.43" y="98.09" width="2.62" height="14.56" style="fill:#060a0f"/><path d="M92.57,106.55l2.2.12a1,1,0,0,1,.82,1.2l-1.19,11-2.24-.13-.5-11.11A1,1,0,0,1,92.57,106.55Z" style="fill:#002e2d"/><polygon points="94.98 123.96 91.04 123.73 91.26 118.11 95.2 118.33 94.98 123.96"/><path d="M93,123.84a3.78,3.78,0,0,1,0,.77,1.35,1.35,0,0,1-.55,1.07c-.65.44-1.76,1.77-2.07,5.81a.34.34,0,0,1-.32.34h0a.68.68,0,0,1-.56-.74l.21-5.43a1.18,1.18,0,0,1,.28-.74l1.08-1.18Z" style="fill:#000b10"/><path d="M92.84,123.84a3.55,3.55,0,0,0-.07.76,1.39,1.39,0,0,0,.53,1.13c.69.51,1.82,2,1.84,6a.38.38,0,0,0,.34.38h0a.66.66,0,0,0,.67-.67l.21-5.44a1.14,1.14,0,0,0-.25-.76L95,124Z" style="fill:#323e3f"/><path d="M96.13,100.38v2.05a1.35,1.35,0,0,1-1.2,1.46h-2.3a1.69,1.69,0,0,1-1.51-1.84v-.3Z" style="fill:#1cbab1"/><path d="M97.05,94.38s2.33,4.28-.92,6l-5.08,2.05s-3-1.45-.78-8.05Z" style="fill:#004341"/><path d="M65.67,50.94c.31,2.21.62,3.8.62,3.8l2,5.07,6-1.28V50.94Z" style="fill:#166766"/><path d="M74.3,38.7H66.07c-1.39,2.56-.92,8.36-.4,12.24H74.3Z" style="fill:#4fc3cb"/><path d="M82.93,50.94c.52-3.88,1-9.68-.4-12.24H74.3V50.94Z" style="fill:#37bbb8"/><path d="M74.3,50.94v7.59l6,1.28,2-5.07s.32-1.59.62-3.8Z" style="fill:#003c3c"/><rect x="70.78" y="40.56" width="1.49" height="7.43" style="fill:#2c2a29"/><rect x="75.94" y="40.56" width="1.49" height="7.43" style="fill:#2c2a29"/><rect x="65.15" y="50.94" width="18.32" height="1.79" style="fill:#2c2a29"/><polygon points="65.87 103.71 71.85 111.03 76.75 111.03 81.27 102.6 78.28 100.38 70.09 100.38 65.87 103.71" style="fill:#2c2a29"/><path d="M66.36,98.42s-1.81,2.52,1.55,2.76l.74-1,3.89,2.16.76-.72,1,.42V97.53A12.69,12.69,0,0,0,66.36,98.42Z" style="fill:#3c3a37"/><path d="M82.25,98.42s1.8,2.52-1.56,2.76l-.73-1-3.9,2.16-.76-.72-1,.42V97.53A12.72,12.72,0,0,1,82.25,98.42Z" style="fill:#252422"/><circle cx="74.3" cy="81.42" r="4.81" transform="matrix(0.72, -0.69, 0.69, 0.72, -35.66, 73.78)" style="fill:#535450"/></g></g></g></svg>