<svg xmlns="http://www.w3.org/2000/svg" xmlns:xlink="http://www.w3.org/1999/xlink" viewBox="0 0 148.25 207.55"><defs><linearGradient id="Degradado_sin_nombre_6" x1="-14.83" y1="192.72" x2="163.07" y2="14.83" gradientUnits="userSpaceOnUse"><stop offset="0" stop-color="aqua"/><stop offset="1" stop-color="blue"/></linearGradient></defs><title>Asset 118</title><g id="Layer_2" data-name="Layer 2"><g id="Layer_3" data-name="Layer 3"><rect width="148.25" height="207.55" style="fill:url(#Degradado_sin_nombre_6)"/><g style="opacity:0.45"><polygon points="135.39 156.18 135.39 112.55 132.72 109.88 132.72 53.79 124.71 53.79 124.71 46.44 97.18 46.44 94.44 49.19 60.75 49.19 54.99 43.43 8.69 43.43 8.69 133.36 12.97 137.63 12.97 157.37 15.71 160.11 15.71 166.87 48.43 166.87 48.43 170.72 75.74 170.72 75.74 173.22 138.49 173.22 138.49 159.28 135.39 156.18" style="fill:#00158e;opacity:0.2"/><path d="M139.7,141.66V118.88a1.53,1.53,0,0,0,1.26-1.5,1.56,1.56,0,1,0-3.12,0,1.53,1.53,0,0,0,1.26,1.5v23l4.6,4.6v33.12H64.76v-5H5.4V41H24.59a1.56,1.56,0,1,0,0-.59H4.8V175.18H64.16v5H144.3v-34Z" style="fill:gold"/><polygon points="84.78 166.79 87.76 166.79 90.94 163.62 85.97 163.62 78.82 170.77 80.81 170.77 84.78 166.79" style="fill:gold"/><polygon points="91.24 166.79 94.21 166.79 97.39 163.62 92.42 163.62 85.27 170.77 87.26 170.77 91.24 166.79" style="fill:gold"/><polygon points="97.69 166.79 100.66 166.79 103.84 163.62 98.87 163.62 91.72 170.77 93.71 170.77 97.69 166.79" style="fill:gold"/><polygon points="104.14 166.79 107.11 166.79 110.29 163.62 105.33 163.62 98.17 170.77 100.16 170.77 104.14 166.79" style="fill:gold"/><polygon points="110.59 166.79 113.56 166.79 116.74 163.62 111.78 163.62 104.62 170.77 106.61 170.77 110.59 166.79" style="fill:gold"/><polygon points="117.04 166.79 120.02 166.79 123.19 163.62 118.23 163.62 111.08 170.77 113.06 170.77 117.04 166.79" style="fill:gold"/><polygon points="123.49 166.79 126.47 166.79 129.64 163.62 124.68 163.62 117.53 170.77 119.52 170.77 123.49 166.79" style="fill:gold"/><polygon points="129.94 166.79 132.92 166.79 136.09 163.62 131.13 163.62 123.98 170.77 125.97 170.77 129.94 166.79" style="fill:gold"/><polygon points="15.91 45.6 13.18 45.6 11.24 48.97 13.18 52.34 15.91 52.34 13.97 48.97 15.91 45.6" style="fill:#0751cf"/><polygon points="22.9 45.6 20.16 45.6 18.22 48.97 20.16 52.34 22.9 52.34 20.95 48.97 22.9 45.6" style="fill:#0751cf"/><polygon points="29.88 45.6 27.14 45.6 25.2 48.97 27.14 52.34 29.88 52.34 27.93 48.97 29.88 45.6" style="fill:#0751cf"/><polygon points="36.86 45.6 34.13 45.6 32.18 48.97 34.13 52.34 36.86 52.34 34.91 48.97 36.86 45.6" style="fill:#0751cf"/><polygon points="43.84 45.6 41.11 45.6 39.16 48.97 41.11 52.34 43.84 52.34 41.9 48.97 43.84 45.6" style="fill:#0751cf"/><polygon points="50.82 45.6 48.09 45.6 46.15 48.97 48.09 52.34 50.82 52.34 48.88 48.97 50.82 45.6" style="fill:#0751cf"/><path d="M66.13,45.94H69l-5.17,5.17H61Zm11.59,0H74.83l-5.16,5.17h2.88Zm-4.35,0H70.48l-5.16,5.17H68.2Zm21.75,0H92.24l-5.17,5.17H90Zm-13.05,0H79.19L74,51.11H76.9Zm8.7,0H87.89l-5.17,5.17h2.89Zm-4.35,0H83.54l-5.17,5.17h2.88Z" style="fill:gold"/><rect x="121.74" y="100.38" width="19.89" height="2.67" style="fill:gold"/><rect x="129.61" y="96.38" width="9.2" height="1.78" style="fill:gold"/><rect x="12.22" y="160.93" width="17.81" height="2.37" style="fill:gold"/><path d="M108.88,53.59H113V49.43h-4.16Zm.59-3.56h3v3h-3Z" style="fill:gold"/><path d="M129.46,85.15V81.69H125.7v3.75h3.76Zm-3.17-2.87h2.57v2.57h-2.57Z" style="fill:gold"/><path d="M125.7,136.3h4.15v-4.16H125.7Zm.59-3.57h3v3h-3Z" style="fill:#0751cf"/><path d="M15.69,150.54h5.14V145.4H15.69Zm.59-4.55h4v4h-4Z" style="fill:gold"/><path d="M11.93,126h3.16v-3.17H11.93Zm.59-2.58h2v2h-2Z" style="fill:#0751cf"/><path d="M32.51,169.54H43.78V165H32.51Zm.59-4H43.19v3.36H33.1Z" style="fill:gold"/><path d="M131.24,59.72V81.09h3.36V59.72Zm.59.6H134V80.5h-2.18Z" style="fill:gold"/><path d="M132.62,51.31V46.07h-5.54v5.54h5.54Zm-4.94-4.65H132V51h-4.35Z" style="fill:gold"/><path d="M38.05,40.83V37.17h-4v3.95h4Zm-3.37-3.07h2.77v2.77H34.68Z" style="fill:gold"/><path d="M52.88,39.94h4.95V35H52.88Zm.6-4.36h3.76v3.76H53.48Z" style="fill:#0751cf"/><polygon points="21.38 79.57 18.51 79.57 18.51 76.7 16.89 76.7 16.89 79.57 14.03 79.57 14.03 81.19 16.89 81.19 16.89 84.06 18.51 84.06 18.51 81.19 21.38 81.19 21.38 79.57" style="fill:gold"/><polygon points="33.8 79.57 30.94 79.57 30.94 76.7 29.32 76.7 29.32 79.57 26.45 79.57 26.45 81.19 29.32 81.19 29.32 84.06 30.94 84.06 30.94 81.19 33.8 81.19 33.8 79.57" style="fill:gold"/><polygon points="46.23 79.57 43.37 79.57 43.37 76.7 41.74 76.7 41.74 79.57 38.88 79.57 38.88 81.19 41.74 81.19 41.74 84.06 43.37 84.06 43.37 81.19 46.23 81.19 46.23 79.57" style="fill:gold"/><polygon points="58.66 79.57 55.79 79.57 55.79 76.7 54.17 76.7 54.17 79.57 51.31 79.57 51.31 81.19 54.17 81.19 54.17 84.06 55.79 84.06 55.79 81.19 58.66 81.19 58.66 79.57" style="fill:gold"/></g><path d="M92.72,105.72v-5.13a4.92,4.92,0,0,0-4.92-4.91h-2V97h2a3.63,3.63,0,0,1,3.62,3.62v5.13Z"/><path d="M58.83,105.72v-5.13a4.91,4.91,0,0,1,4.91-4.91h2V97h-2a3.63,3.63,0,0,0-3.62,3.62v5.13Z"/><polygon points="64.2 109.81 63.5 162.47 68.85 162.51 68.85 109.81 64.2 109.81" style="fill:#202424"/><path d="M60.9,120.19h-1v10.1s3.4,10.58,3.11,15.08h2.51V120.19Z" style="fill:#d98326"/><polygon points="65.48 145.37 60.9 145.37 60.9 157.65 66.59 151.66 66.59 145.22 65.48 145.37" style="fill:#171b1a"/><polygon points="59.51 161.21 59.44 162.34 59.21 162.48 53.51 165.84 53.51 174.04 59.21 174.04 59.21 166.15 65.41 159.63 65.41 155 59.51 161.21" style="fill:#50617b"/><polygon points="65.81 159.95 68.11 159.95 68.11 163.42 67.01 163.42 67.01 174.04 59.21 174.04 59.21 165.73 65.41 158.65 65.81 159.95" style="fill:#121718"/><path d="M66,156.93H64.66v-.63H66a1,1,0,0,0,.93-1v-3.56a1,1,0,0,0-.93-1h-.69v-.62H66a1.55,1.55,0,0,1,1.52,1.59v3.56A1.56,1.56,0,0,1,66,156.93Z" style="fill:#99bb5a"/><rect x="62.82" y="152.73" width="1.77" height="4.87" style="fill:#323331"/><path d="M55.61,175.12l0-6.28H53.84l-3,5.3a1,1,0,0,0,0,1Z" style="fill:#f28c30"/><path d="M59.21,103.82h9.84v45.12H60.94s.27-19.46-5.46-24.73V122a46.27,46.27,0,0,1,3.73-18.2Z" style="fill:#111b26"/><polygon points="69.05 103.82 72.25 107.19 69.05 148.94 69.05 103.82" style="fill:#2b2b29"/><path d="M68.9,175.12a1,1,0,0,0,0-1l-3-5.3H64.21l0,6.28Z" style="fill:#f28c30"/><path d="M55.48,124.21l13.57-20.39v6L58.53,129.62A17.18,17.18,0,0,0,55.48,124.21Z" style="fill:#50617b"/><polygon points="87.35 109.87 88.05 162.53 82.7 162.58 82.7 109.87 87.35 109.87" style="fill:#202424"/><path d="M90.65,120.25h1v10.1s-3.4,10.58-3.1,15.09H86.07V120.25Z" style="fill:#d98326"/><polygon points="86.07 145.44 90.65 145.44 90.65 157.71 84.96 151.73 84.96 145.28 86.07 145.44" style="fill:#171b1a"/><polygon points="92.04 161.27 92.11 162.4 92.34 162.54 98.04 165.9 98.04 174.1 92.34 174.1 92.34 166.22 86.14 159.7 86.14 155.07 92.04 161.27" style="fill:#31465b"/><polygon points="85.74 160.01 83.44 160.01 83.44 163.48 84.54 163.48 84.54 174.1 92.34 174.1 92.34 165.8 86.14 158.72 85.74 160.01" style="fill:#121718"/><path d="M85.54,157h1.35v-.62H85.54a1,1,0,0,1-.92-1v-3.56a.94.94,0,0,1,.92-1h.69v-.62h-.69A1.55,1.55,0,0,0,84,151.84v3.56A1.55,1.55,0,0,0,85.54,157Z" style="fill:#99bb5a"/><rect x="86.95" y="152.79" width="1.77" height="4.87" transform="translate(175.68 310.45) rotate(180)" style="fill:#323331"/><path d="M95.94,175.19l0-6.28h1.72l3,5.29a1,1,0,0,1,0,1Z" style="fill:#f28c30"/><path d="M92.34,103.88H82.5V149h8.11s-.27-19.46,5.46-24.72v-2.2a46.3,46.3,0,0,0-3.73-18.2Z" style="fill:#000815"/><polygon points="82.5 103.88 79.29 107.25 82.5 149 82.5 103.88" style="fill:#2b2b29"/><path d="M82.65,175.19a1,1,0,0,1,0-1l3-5.29h1.72l0,6.28Z" style="fill:#f28c30"/><path d="M96.07,124.28,82.5,103.88v6L93,129.68A17.2,17.2,0,0,1,96.07,124.28Z" style="fill:#283e54"/><path d="M110.35,83.23V81.88a2.24,2.24,0,0,0,2.24-2.25v-15a2.24,2.24,0,0,0-2.24-2.25h-5.13V61h5.13a3.61,3.61,0,0,1,3.6,3.6v15A3.6,3.6,0,0,1,110.35,83.23Z"/><path d="M40.89,83.46a3.6,3.6,0,0,1-3.6-3.6v-15a3.61,3.61,0,0,1,3.6-3.6H46V62.6H40.89a2.25,2.25,0,0,0-2.25,2.25v15a2.25,2.25,0,0,0,2.25,2.25Z"/><rect x="65.3" y="49.16" width="10.47" height="5.73" style="fill:#4f6985"/><rect x="65.3" y="36.71" width="10.47" height="12.44" style="fill:#3f546d"/><rect x="62.7" y="41.91" width="2.6" height="6.06" style="fill:#5f7291"/><polygon points="62.7 46.35 59.67 45.59 59.67 43.59 62.7 43.59 62.7 46.35" style="fill:#6d83a7"/><rect x="73.44" y="54.89" width="2.34" height="3.64" style="fill:#38495e"/><polygon points="75.77 58.53 75.77 90.29 67.55 90.29 56.47 58.53 75.77 58.53" style="fill:#5f7291"/><path d="M50.82,61.83A2.85,2.85,0,1,1,48,59,2.85,2.85,0,0,1,50.82,61.83Z" style="fill:#43536b"/><rect x="47.12" y="60.75" width="8.18" height="2.16" rx="0.68" style="fill:#5f7291"/><rect x="43.57" y="91.68" width="3.55" height="3.98" style="fill:#5f7291"/><polyline points="73 90.29 73 96.09 75.77 96.09 75.77 90.29" style="fill:#43536b"/><rect x="66.94" y="96.09" width="8.83" height="12.05" style="fill:#4c617d"/><polygon points="68.82 94.07 62.98 94.07 62.98 98.59 68.18 98.59 68.18 95.45 69.75 94.44 69.75 94.07 68.82 94.07" style="fill:#43536b"/><rect x="40.89" y="62.91" width="8.74" height="30.15" rx="2.77" style="fill:#4b607b"/><rect x="51.62" y="54.28" width="7.36" height="14.11" style="fill:#43536b"/><rect x="75.77" y="49.16" width="10.47" height="5.73" style="fill:#364b64"/><rect x="75.77" y="36.71" width="10.47" height="12.44" style="fill:#1e3446"/><rect x="86.25" y="41.91" width="2.6" height="6.06" transform="translate(175.09 89.87) rotate(180)" style="fill:#5f7291"/><polygon points="88.84 46.35 91.87 45.59 91.87 43.59 88.84 43.59 88.84 46.35" style="fill:#6d83a7"/><rect x="75.77" y="54.89" width="2.34" height="3.64" style="fill:#273a4b"/><polygon points="75.77 58.53 75.77 90.29 84 90.29 95.08 58.53 75.77 58.53" style="fill:#50617b"/><path d="M100.73,61.83A2.85,2.85,0,1,0,103.57,59,2.84,2.84,0,0,0,100.73,61.83Z" style="fill:#43536b"/><rect x="96.24" y="60.75" width="8.18" height="2.16" rx="0.68" transform="translate(200.67 123.66) rotate(180)" style="fill:#5f7291"/><rect x="104.42" y="91.68" width="3.55" height="3.98" style="fill:#5f7291"/><polyline points="78.54 90.29 78.54 96.09 75.77 96.09 75.77 90.29" style="fill:#27394b"/><rect x="75.77" y="96.09" width="8.83" height="12.05" style="fill:#3d5268"/><rect x="101.91" y="62.91" width="8.74" height="30.15" rx="2.77" transform="translate(212.57 155.97) rotate(180)" style="fill:#4b607b"/><rect x="92.57" y="54.28" width="7.36" height="14.11" transform="translate(192.49 122.68) rotate(180)" style="fill:#43536b"/><path d="M75.77,23.73V34.94h1A12.18,12.18,0,0,1,78.65,32a7.65,7.65,0,0,0,1.45-2.16C81,27.75,81.54,24.36,75.77,23.73Z" style="fill:#ac9c2d"/><path d="M71.45,29.86A7.45,7.45,0,0,0,72.9,32a12.18,12.18,0,0,1,1.88,2.92h1V23.73C70,24.36,70.52,27.75,71.45,29.86Z" style="fill:#c8b33b"/><line x1="75.17" y1="35.18" x2="74.35" y2="30.29" style="fill:#c8b33b"/><rect x="74.61" y="30.25" width="0.3" height="4.97" transform="translate(-4.39 12.83) rotate(-9.53)"/><line x1="76.34" y1="35.18" x2="77.16" y2="30.29" style="fill:#c8b33b"/><rect x="74.26" y="32.58" width="4.97" height="0.3" transform="translate(31.76 103) rotate(-80.47)"/><path d="M74.33,30.29c.06,0,1.09-.69.86-.88a.14.14,0,0,0-.18,0c-.16.18-.58.74.42.9,0,0,.62-.09.61-.46a.18.18,0,0,0-.34-.08c-.14.26-.17.59.68.46,0,0,.78-.51.58-.74a.15.15,0,0,0-.25,0c-.11.27-.25.83.59.7" style="fill:#c8b33b"/><path d="M77.19,30.32a.58.58,0,0,1-.53-.15l0,0-.23.16h0a1.42,1.42,0,0,1-.64,0,1.31,1.31,0,0,1-.31.1h0c-.34-.06-.56-.17-.64-.34a3.15,3.15,0,0,1-.44.29l0-.08v0l0,0a2.79,2.79,0,0,0,.44-.3A.7.7,0,0,1,75,29.4a.19.19,0,0,1,.24,0,.14.14,0,0,1,0,.15,1.19,1.19,0,0,1-.41.47c.06.14.25.24.58.3a.73.73,0,0,0,.23-.07s0,0,0,0-.05-.24,0-.41a.23.23,0,0,1,.26-.12.22.22,0,0,1,.17.21.41.41,0,0,1-.23.36,1.41,1.41,0,0,0,.5,0,2.21,2.21,0,0,0,.23-.17.87.87,0,0,1,.08-.5.19.19,0,0,1,.15-.12.2.2,0,0,1,.17.06.16.16,0,0,1,0,.15.93.93,0,0,1-.33.44s0,0,0,.05.27.14.56.1v.09Zm-1.34-.59a.15.15,0,0,0-.11.08c-.06.1-.11.23,0,.32l.06.05a.36.36,0,0,0,.25-.31.12.12,0,0,0-.1-.13Zm1-.22h0a.1.1,0,0,0-.09.07.84.84,0,0,0-.08.4.84.84,0,0,0,.28-.36.19.19,0,0,0,0-.08A.09.09,0,0,0,76.84,29.51Zm-1.73-.08-.06,0a.69.69,0,0,0-.22.44,1.07,1.07,0,0,0,.35-.4.06.06,0,0,0,0,0A0,0,0,0,0,75.11,29.43Z"/><path d="M74.66,30.26a.47.47,0,0,1-.93,0,.47.47,0,0,1,.93,0Z"/><path d="M77.76,30.18a.47.47,0,1,1-.46-.46A.47.47,0,0,1,77.76,30.18Z"/><path d="M65.08,74.55H60A4.92,4.92,0,0,1,55,69.64v-2h1.3v2A3.63,3.63,0,0,0,60,73.26h5.13Z"/><path d="M91.58,74.55H86.45V73.26h5.13a3.63,3.63,0,0,0,3.62-3.62v-2h1.29v2A4.91,4.91,0,0,1,91.58,74.55Z"/><path d="M66.11,128.38V127a2.25,2.25,0,0,0,2.25-2.25v-15a2.25,2.25,0,0,0-2.25-2.25H61v-1.35h5.12a3.6,3.6,0,0,1,3.6,3.6v15A3.6,3.6,0,0,1,66.11,128.38Z"/><path d="M85.35,128.38a3.6,3.6,0,0,1-3.6-3.6v-15a3.6,3.6,0,0,1,3.6-3.6h5.12v1.35H85.35a2.25,2.25,0,0,0-2.25,2.25v15A2.25,2.25,0,0,0,85.35,127Z"/><path d="M50,105.46l-2.22,1.8a2,2,0,0,1-3.24-1.54V101H50Z" style="fill:#323432"/><rect x="45.83" y="103.45" width="2.82" height="12.91" style="fill:#323432"/><path d="M46.28,109l2.36.11a.94.94,0,0,1,.89,1.07L48.24,120l-2.4-.12L45.3,110A.94.94,0,0,1,46.28,109Z" style="fill:#938f8b"/><polygon points="48.87 124.48 44.63 124.28 45.81 119.29 48.43 119.29 48.87 124.48" style="fill:#dfd5d5"/><path d="M46.72,124.38a3.67,3.67,0,0,1,0,.68,1.15,1.15,0,0,1-.59,1c-.7.39-1.9,1.57-2.24,5.16a.34.34,0,0,1-.34.3h0a.63.63,0,0,1-.6-.66l.22-4.82a1,1,0,0,1,.31-.65l1.16-1Z" style="fill:#adaca9"/><path d="M46.56,124.37a3.69,3.69,0,0,0-.07.68,1.14,1.14,0,0,0,.57,1c.75.46,2,1.75,2,5.35a.36.36,0,0,0,.35.34h0a.68.68,0,0,0,.74-.6l.22-4.82a.87.87,0,0,0-.28-.67l-1.18-1.17Z" style="fill:#5f7291"/><polygon points="38.54 80.1 36.79 84.1 41.64 93.69 45.14 90.06 45.14 85.27 38.54 80.1" style="fill:#adaca9"/><polygon points="41.64 93.69 43.2 95.56 49.41 91.81 49.41 88.54 49.22 85.39 45.14 85.27 41.64 93.69" style="fill:#938f8b"/><path d="M43.2,95.56S45.68,104,50,103.92l-.55-12.1Z" style="fill:#726f6c"/><polygon points="43.43 96.33 42.59 97.58 45.3 103.92 49.96 103.92 43.43 96.33" style="fill:#444344"/><path d="M101.58,105.46l2.22,1.8a2,2,0,0,0,3.24-1.54V101h-5.46Z" style="fill:#323432"/><rect x="102.9" y="103.45" width="2.82" height="12.91" transform="translate(208.62 219.8) rotate(180)" style="fill:#323432"/><path d="M105.27,109l-2.37.11a.94.94,0,0,0-.88,1.07L103.3,120l2.41-.12.54-9.85A.94.94,0,0,0,105.27,109Z" style="fill:#938f8b"/><polygon points="102.67 124.48 106.92 124.28 105.74 119.29 103.12 119.29 102.67 124.48" style="fill:#dfd5d5"/><path d="M104.83,124.38a2.94,2.94,0,0,0,0,.68,1.15,1.15,0,0,0,.59,1c.7.39,1.9,1.57,2.23,5.16a.35.35,0,0,0,.35.3h0a.63.63,0,0,0,.6-.66l-.23-4.82a.94.94,0,0,0-.3-.65l-1.16-1Z" style="fill:#adaca9"/><path d="M105,124.37a3.13,3.13,0,0,1,.06.68,1.11,1.11,0,0,1-.56,1c-.75.46-2,1.75-2,5.35a.36.36,0,0,1-.36.34h0a.67.67,0,0,1-.73-.6l-.22-4.82a.9.9,0,0,1,.27-.67l1.19-1.17Z" style="fill:#5f7291"/><polygon points="113.01 80.1 114.76 84.1 109.9 93.69 106.41 90.06 106.41 85.27 113.01 80.1" style="fill:#adaca9"/><polygon points="109.9 93.69 108.35 95.56 102.13 91.81 102.13 88.54 102.33 85.39 106.41 85.27 109.9 93.69" style="fill:#938f8b"/><path d="M108.35,95.56s-2.49,8.42-6.76,8.36l.54-12.1Z" style="fill:#726f6c"/><polygon points="108.12 96.33 108.96 97.58 106.25 103.92 101.59 103.92 108.12 96.33" style="fill:#444344"/><polygon points="74.38 79.45 65.08 75.33 65.11 58.53 74.38 58.53 74.38 79.45" style="fill:#465c78"/><polygon points="77.16 79.45 86.46 75.33 86.42 58.53 77.16 58.53 77.16 79.45" style="fill:#2f4155"/><polygon points="82.51 94.07 88.35 94.07 88.35 98.59 83.15 98.59 83.15 95.45 81.58 94.44 81.58 94.07 82.51 94.07" style="fill:#314256"/><path d="M107.83,99l3.63-3.63a4.93,4.93,0,0,0,0-7l-1.38-1.38-.92.92,1.38,1.38a3.63,3.63,0,0,1,0,5.12l-3.63,3.63Z"/><path d="M44.07,100.05l-3.63-3.63a4.91,4.91,0,0,1,0-7l1.38-1.38.91.92-1.38,1.38a3.63,3.63,0,0,0,0,5.12L45,99.13Z"/><path d="M63.27,106.85a1.91,1.91,0,1,1-1.9-1.91A1.9,1.9,0,0,1,63.27,106.85Z" style="fill:#938f8b"/><path d="M92.55,106.85a1.91,1.91,0,1,1-1.9-1.91A1.9,1.9,0,0,1,92.55,106.85Z" style="fill:#938f8b"/><path d="M67.59,127.88a1.42,1.42,0,1,1-1.42-1.42A1.42,1.42,0,0,1,67.59,127.88Z" style="fill:#938f8b"/><path d="M87.27,127.88a1.42,1.42,0,1,1-1.42-1.42A1.42,1.42,0,0,1,87.27,127.88Z" style="fill:#938f8b"/><rect x="71.65" y="39.38" width="1.68" height="8.59" style="fill:#171618"/><rect x="77.94" y="39.38" width="1.68" height="8.59" style="fill:#171618"/><line x1="65.3" y1="49.16" x2="64.22" y2="49.16" style="fill:none"/><rect x="73.8" y="34.94" width="3.94" height="1.77" style="fill:#171618"/></g></g></svg>