<svg xmlns="http://www.w3.org/2000/svg" xmlns:xlink="http://www.w3.org/1999/xlink" viewBox="0 0 148.25 207.55"><defs><clipPath id="clip-path"><rect width="148.25" height="207.55" style="fill:none"/></clipPath><linearGradient id="Degradado_sin_nombre_5" x1="-14.83" y1="14.83" x2="163.07" y2="192.72" gradientUnits="userSpaceOnUse"><stop offset="0" stop-color="#fef201"/><stop offset="1" stop-color="#ff1443"/></linearGradient></defs><title>Asset 120</title><g style="isolation:isolate"><g id="Layer_2" data-name="Layer 2"><g id="Layer_3" data-name="Layer 3"><g style="clip-path:url(#clip-path)"><rect width="148.25" height="207.55" style="fill:url(#Degradado_sin_nombre_5)"/><g style="opacity:0.46;mix-blend-mode:soft-light"><circle cx="4.8" cy="8.78" r="1" style="fill:#fef201"/><circle cx="4.8" cy="21.82" r="1" style="fill:#fef201"/><circle cx="4.8" cy="34.87" r="1" style="fill:#fef201"/><circle cx="4.8" cy="47.91" r="1" style="fill:#fef201"/><circle cx="4.8" cy="60.95" r="1" style="fill:#fef201"/><circle cx="4.8" cy="74" r="1" style="fill:#fef201"/><circle cx="4.8" cy="87.04" r="1" style="fill:#fef201"/><circle cx="4.8" cy="100.09" r="1" style="fill:#fef201"/><circle cx="4.8" cy="113.13" r="1" style="fill:#fef201"/><circle cx="4.8" cy="126.18" r="1" style="fill:#fef201"/><circle cx="4.8" cy="139.22" r="1" style="fill:#fef201"/><circle cx="4.8" cy="152.26" r="1" style="fill:#fef201"/><circle cx="4.8" cy="165.31" r="1" style="fill:#fef201"/><circle cx="4.8" cy="178.35" r="1" style="fill:#fef201"/><circle cx="4.8" cy="191.4" r="1" style="fill:#fef201"/><circle cx="4.8" cy="204.44" r="1" style="fill:#fef201"/><path d="M12.15,4.11a1,1,0,1,0,0-2,1,1,0,0,0-1,1A1,1,0,0,0,12.15,4.11Z" style="fill:#fef201"/><path d="M12.18,15.15a1,1,0,1,0,1,1A1,1,0,0,0,12.18,15.15Z" style="fill:#fef201"/><path d="M12.23,28.2a1,1,0,1,0,1,1A1,1,0,0,0,12.23,28.2Z" style="fill:#fef201"/><path d="M12.27,41.24a1,1,0,1,0,0,2,1,1,0,0,0,0-2Z" style="fill:#fef201"/><path d="M12.31,54.28a1,1,0,0,0-1,1,1,1,0,0,0,1,1,1,1,0,1,0,0-2Z" style="fill:#fef201"/><path d="M12.36,67.33a1,1,0,1,0,1,1A1,1,0,0,0,12.36,67.33Z" style="fill:#fef201"/><path d="M12.4,80.37a1,1,0,0,0-1,1,1,1,0,0,0,2,0A1,1,0,0,0,12.4,80.37Z" style="fill:#fef201"/><path d="M12.44,93.42a1,1,0,1,0,0,2,1,1,0,0,0,0-2Z" style="fill:#fef201"/><path d="M12.48,106.46a1,1,0,0,0,0,2,1,1,0,1,0,0-2Z" style="fill:#fef201"/><path d="M12.53,119.51a1,1,0,1,0,0,2,1,1,0,0,0,1-1A1,1,0,0,0,12.53,119.51Z" style="fill:#fef201"/><path d="M12.57,132.55a1,1,0,1,0,1,1A1,1,0,0,0,12.57,132.55Z" style="fill:#fef201"/><path d="M12.61,145.6a1,1,0,0,0-1,1,1,1,0,0,0,1,1,1,1,0,0,0,1-1A1,1,0,0,0,12.61,145.6Z" style="fill:#fef201"/><path d="M12.65,158.64a1,1,0,1,0,1,1A1,1,0,0,0,12.65,158.64Z" style="fill:#fef201"/><path d="M12.7,171.68a1,1,0,0,0-1,1,1,1,0,0,0,2,0A1,1,0,0,0,12.7,171.68Z" style="fill:#fef201"/><path d="M12.74,184.73a1,1,0,1,0,1,1A1,1,0,0,0,12.74,184.73Z" style="fill:#fef201"/><path d="M12.78,197.77a1,1,0,1,0,0,2,1,1,0,0,0,1-1A1,1,0,0,0,12.78,197.77Z" style="fill:#fef201"/><circle cx="21.13" cy="8.78" r="1" style="fill:#fef201"/><circle cx="21.13" cy="21.82" r="1" style="fill:#fef201"/><circle cx="21.13" cy="34.87" r="1" style="fill:#fef201"/><circle cx="21.13" cy="47.91" r="1" style="fill:#fef201"/><circle cx="21.13" cy="60.95" r="1" style="fill:#fef201"/><circle cx="21.13" cy="74" r="1" style="fill:#fef201"/><circle cx="21.13" cy="87.04" r="1" style="fill:#fef201"/><circle cx="21.13" cy="100.09" r="1" style="fill:#fef201"/><circle cx="21.13" cy="113.13" r="1" style="fill:#fef201"/><circle cx="21.13" cy="126.18" r="1" style="fill:#fef201"/><circle cx="21.13" cy="139.22" r="1" style="fill:#fef201"/><circle cx="21.13" cy="152.26" r="1" style="fill:#fef201"/><circle cx="21.13" cy="165.31" r="1" style="fill:#fef201"/><circle cx="21.13" cy="178.35" r="1" style="fill:#fef201"/><circle cx="21.13" cy="191.4" r="1" style="fill:#fef201"/><circle cx="21.13" cy="204.44" r="1" style="fill:#fef201"/><path d="M28.48,4.11a1,1,0,0,0,1-1,1,1,0,1,0-1,1Z" style="fill:#fef201"/><path d="M28.52,15.15a1,1,0,0,0-1,1,1,1,0,1,0,1-1Z" style="fill:#fef201"/><path d="M28.56,28.2a1,1,0,0,0-1,1,1,1,0,0,0,1,1,1,1,0,0,0,0-2Z" style="fill:#fef201"/><path d="M28.6,41.24a1,1,0,0,0,0,2,1,1,0,1,0,0-2Z" style="fill:#fef201"/><path d="M28.65,54.28a1,1,0,0,0-1,1,1,1,0,0,0,1,1,1,1,0,1,0,0-2Z" style="fill:#fef201"/><path d="M28.69,67.33a1,1,0,1,0,1,1A1,1,0,0,0,28.69,67.33Z" style="fill:#fef201"/><path d="M28.73,80.37a1,1,0,1,0,0,2,1,1,0,0,0,1-1A1,1,0,0,0,28.73,80.37Z" style="fill:#fef201"/><path d="M28.77,93.42a1,1,0,0,0,0,2,1,1,0,1,0,0-2Z" style="fill:#fef201"/><path d="M28.82,106.46a1,1,0,1,0,1,1A1,1,0,0,0,28.82,106.46Z" style="fill:#fef201"/><path d="M28.86,119.51a1,1,0,1,0,1,1A1,1,0,0,0,28.86,119.51Z" style="fill:#fef201"/><path d="M28.9,132.55a1,1,0,1,0,1,1A1,1,0,0,0,28.9,132.55Z" style="fill:#fef201"/><path d="M28.94,145.6a1,1,0,0,0,0,2,1,1,0,0,0,1-1A1,1,0,0,0,28.94,145.6Z" style="fill:#fef201"/><path d="M29,158.64a1,1,0,1,0,1,1A1,1,0,0,0,29,158.64Z" style="fill:#fef201"/><path d="M29,171.68a1,1,0,0,0-1,1,1,1,0,0,0,2,0A1,1,0,0,0,29,171.68Z" style="fill:#fef201"/><path d="M29.07,184.73a1,1,0,0,0-1,1,1,1,0,1,0,1-1Z" style="fill:#fef201"/><path d="M29.11,197.77a1,1,0,1,0,1,1A1,1,0,0,0,29.11,197.77Z" style="fill:#fef201"/><circle cx="37.47" cy="8.78" r="1" style="fill:#fef201"/><circle cx="37.47" cy="21.82" r="1" style="fill:#fef201"/><circle cx="37.47" cy="34.87" r="1" style="fill:#fef201"/><circle cx="37.47" cy="47.91" r="1" style="fill:#fef201"/><circle cx="37.47" cy="60.95" r="1" style="fill:#fef201"/><circle cx="37.47" cy="74" r="1" style="fill:#fef201"/><circle cx="37.47" cy="87.04" r="1" style="fill:#fef201"/><circle cx="37.47" cy="100.09" r="1" style="fill:#fef201"/><circle cx="37.47" cy="113.13" r="1" style="fill:#fef201"/><circle cx="37.47" cy="126.18" r="1" style="fill:#fef201"/><circle cx="37.47" cy="139.22" r="1" style="fill:#fef201"/><circle cx="37.47" cy="152.26" r="1" style="fill:#fef201"/><circle cx="37.47" cy="165.31" r="1" style="fill:#fef201"/><circle cx="37.47" cy="178.35" r="1" style="fill:#fef201"/><circle cx="37.47" cy="191.4" r="1" style="fill:#fef201"/><circle cx="37.47" cy="204.44" r="1" style="fill:#fef201"/><path d="M44.82,4.11a1,1,0,1,0-1-1A1,1,0,0,0,44.82,4.11Z" style="fill:#fef201"/><path d="M44.85,15.15a1,1,0,1,0,0,2,1,1,0,0,0,1-1A1,1,0,0,0,44.85,15.15Z" style="fill:#fef201"/><path d="M44.89,28.2a1,1,0,0,0,0,2,1,1,0,0,0,1-1A1,1,0,0,0,44.89,28.2Z" style="fill:#fef201"/><path d="M44.94,41.24a1,1,0,1,0,1,1A1,1,0,0,0,44.94,41.24Z" style="fill:#fef201"/><path d="M45,54.28a1,1,0,0,0-1,1,1,1,0,0,0,2,0A1,1,0,0,0,45,54.28Z" style="fill:#fef201"/><path d="M45,67.33a1,1,0,0,0-1,1,1,1,0,1,0,1-1Z" style="fill:#fef201"/><path d="M45.06,80.37a1,1,0,0,0-1,1,1,1,0,0,0,1,1,1,1,0,1,0,0-2Z" style="fill:#fef201"/><path d="M45.11,93.42a1,1,0,1,0,1,1A1,1,0,0,0,45.11,93.42Z" style="fill:#fef201"/><path d="M45.15,106.46a1,1,0,1,0,0,2,1,1,0,0,0,0-2Z" style="fill:#fef201"/><path d="M45.19,119.51a1,1,0,0,0-1,1,1,1,0,1,0,1-1Z" style="fill:#fef201"/><path d="M45.24,132.55a1,1,0,1,0,1,1A1,1,0,0,0,45.24,132.55Z" style="fill:#fef201"/><path d="M45.28,145.6a1,1,0,1,0,1,1A1,1,0,0,0,45.28,145.6Z" style="fill:#fef201"/><path d="M45.32,158.64a1,1,0,1,0,0,2,1,1,0,0,0,0-2Z" style="fill:#fef201"/><path d="M45.36,171.68a1,1,0,0,0-1,1,1,1,0,0,0,1,1,1,1,0,1,0,0-2Z" style="fill:#fef201"/><path d="M45.41,184.73a1,1,0,1,0,1,1A1,1,0,0,0,45.41,184.73Z" style="fill:#fef201"/><path d="M45.45,197.77a1,1,0,0,0-1,1,1,1,0,1,0,1-1Z" style="fill:#fef201"/><circle cx="53.8" cy="8.78" r="1" style="fill:#fef201"/><circle cx="53.8" cy="21.82" r="1" style="fill:#fef201"/><circle cx="53.8" cy="34.87" r="1" style="fill:#fef201"/><circle cx="53.8" cy="47.91" r="1" style="fill:#fef201"/><circle cx="53.8" cy="60.95" r="1" style="fill:#fef201"/><circle cx="53.8" cy="74" r="1" style="fill:#fef201"/><circle cx="53.8" cy="87.04" r="1" style="fill:#fef201"/><circle cx="53.8" cy="100.09" r="1" style="fill:#fef201"/><circle cx="53.8" cy="113.13" r="1" style="fill:#fef201"/><circle cx="53.8" cy="126.18" r="1" style="fill:#fef201"/><circle cx="53.8" cy="139.22" r="1" style="fill:#fef201"/><circle cx="53.8" cy="152.26" r="1" style="fill:#fef201"/><circle cx="53.8" cy="165.31" r="1" style="fill:#fef201"/><circle cx="53.8" cy="178.35" r="1" style="fill:#fef201"/><circle cx="53.8" cy="191.4" r="1" style="fill:#fef201"/><circle cx="53.8" cy="204.44" r="1" style="fill:#fef201"/><path d="M61.15,4.11a1,1,0,1,0,0-2,1,1,0,0,0-1,1A1,1,0,0,0,61.15,4.11Z" style="fill:#fef201"/><path d="M61.18,15.15a1,1,0,1,0,1,1A1,1,0,0,0,61.18,15.15Z" style="fill:#fef201"/><path d="M61.23,28.2a1,1,0,1,0,1,1A1,1,0,0,0,61.23,28.2Z" style="fill:#fef201"/><path d="M61.27,41.24a1,1,0,1,0,0,2,1,1,0,0,0,0-2Z" style="fill:#fef201"/><path d="M61.31,54.28a1,1,0,0,0-1,1,1,1,0,0,0,1,1,1,1,0,1,0,0-2Z" style="fill:#fef201"/><path d="M61.36,67.33a1,1,0,1,0,1,1A1,1,0,0,0,61.36,67.33Z" style="fill:#fef201"/><path d="M61.4,80.37a1,1,0,0,0-1,1,1,1,0,0,0,2,0A1,1,0,0,0,61.4,80.37Z" style="fill:#fef201"/><path d="M61.44,93.42a1,1,0,1,0,0,2,1,1,0,0,0,0-2Z" style="fill:#fef201"/><path d="M61.48,106.46a1,1,0,0,0,0,2,1,1,0,1,0,0-2Z" style="fill:#fef201"/><path d="M61.53,119.51a1,1,0,0,0,0,2,1,1,0,0,0,1-1A1,1,0,0,0,61.53,119.51Z" style="fill:#fef201"/><path d="M61.57,132.55a1,1,0,1,0,1,1A1,1,0,0,0,61.57,132.55Z" style="fill:#fef201"/><path d="M61.61,145.6a1,1,0,0,0-1,1,1,1,0,0,0,1,1,1,1,0,0,0,1-1A1,1,0,0,0,61.61,145.6Z" style="fill:#fef201"/><path d="M61.65,158.64a1,1,0,1,0,1,1A1,1,0,0,0,61.65,158.64Z" style="fill:#fef201"/><path d="M61.7,171.68a1,1,0,0,0-1,1,1,1,0,0,0,2,0A1,1,0,0,0,61.7,171.68Z" style="fill:#fef201"/><path d="M61.74,184.73a1,1,0,1,0,1,1A1,1,0,0,0,61.74,184.73Z" style="fill:#fef201"/><path d="M61.78,197.77a1,1,0,1,0,0,2,1,1,0,0,0,1-1A1,1,0,0,0,61.78,197.77Z" style="fill:#fef201"/><circle cx="70.13" cy="8.78" r="1" style="fill:#fef201"/><circle cx="70.13" cy="21.82" r="1" style="fill:#fef201"/><circle cx="70.13" cy="34.87" r="1" style="fill:#fef201"/><circle cx="70.13" cy="47.91" r="1" style="fill:#fef201"/><circle cx="70.13" cy="60.95" r="1" style="fill:#fef201"/><circle cx="70.13" cy="74" r="1" style="fill:#fef201"/><circle cx="70.13" cy="87.04" r="1" style="fill:#fef201"/><circle cx="70.13" cy="100.09" r="1" style="fill:#fef201"/><circle cx="70.13" cy="113.13" r="1" style="fill:#fef201"/><circle cx="70.13" cy="126.18" r="1" style="fill:#fef201"/><circle cx="70.13" cy="139.22" r="1" style="fill:#fef201"/><circle cx="70.13" cy="152.26" r="1" style="fill:#fef201"/><circle cx="70.13" cy="165.31" r="1" style="fill:#fef201"/><circle cx="70.13" cy="178.35" r="1" style="fill:#fef201"/><circle cx="70.13" cy="191.4" r="1" style="fill:#fef201"/><circle cx="70.13" cy="204.44" r="1" style="fill:#fef201"/><path d="M77.48,4.11a1,1,0,0,0,1-1,1,1,0,1,0-1,1Z" style="fill:#fef201"/><path d="M77.52,15.15a1,1,0,0,0-1,1,1,1,0,1,0,1-1Z" style="fill:#fef201"/><path d="M77.56,28.2a1,1,0,0,0-1,1,1,1,0,0,0,1,1,1,1,0,0,0,0-2Z" style="fill:#fef201"/><path d="M77.6,41.24a1,1,0,0,0,0,2,1,1,0,1,0,0-2Z" style="fill:#fef201"/><path d="M77.65,54.28a1,1,0,0,0-1,1,1,1,0,0,0,1,1,1,1,0,0,0,0-2Z" style="fill:#fef201"/><path d="M77.69,67.33a1,1,0,1,0,1,1A1,1,0,0,0,77.69,67.33Z" style="fill:#fef201"/><path d="M77.73,80.37a1,1,0,1,0,0,2,1,1,0,0,0,1-1A1,1,0,0,0,77.73,80.37Z" style="fill:#fef201"/><path d="M77.77,93.42a1,1,0,0,0,0,2,1,1,0,1,0,0-2Z" style="fill:#fef201"/><path d="M77.82,106.46a1,1,0,1,0,1,1A1,1,0,0,0,77.82,106.46Z" style="fill:#fef201"/><path d="M77.86,119.51a1,1,0,1,0,1,1A1,1,0,0,0,77.86,119.51Z" style="fill:#fef201"/><path d="M77.9,132.55a1,1,0,1,0,1,1A1,1,0,0,0,77.9,132.55Z" style="fill:#fef201"/><path d="M77.94,145.6a1,1,0,0,0,0,2,1,1,0,0,0,1-1A1,1,0,0,0,77.94,145.6Z" style="fill:#fef201"/><path d="M78,158.64a1,1,0,1,0,1,1A1,1,0,0,0,78,158.64Z" style="fill:#fef201"/><path d="M78,171.68a1,1,0,0,0-1,1,1,1,0,0,0,2,0A1,1,0,0,0,78,171.68Z" style="fill:#fef201"/><path d="M78.07,184.73a1,1,0,0,0-1,1,1,1,0,1,0,1-1Z" style="fill:#fef201"/><path d="M78.11,197.77a1,1,0,1,0,1,1A1,1,0,0,0,78.11,197.77Z" style="fill:#fef201"/><circle cx="86.47" cy="8.78" r="1" style="fill:#fef201"/><circle cx="86.47" cy="21.82" r="1" style="fill:#fef201"/><circle cx="86.47" cy="34.87" r="1" style="fill:#fef201"/><circle cx="86.47" cy="47.91" r="1" style="fill:#fef201"/><circle cx="86.47" cy="60.95" r="1" style="fill:#fef201"/><circle cx="86.47" cy="74" r="1" style="fill:#fef201"/><circle cx="86.47" cy="87.04" r="1" style="fill:#fef201"/><circle cx="86.47" cy="100.09" r="1" style="fill:#fef201"/><circle cx="86.47" cy="113.13" r="1" style="fill:#fef201"/><circle cx="86.47" cy="126.18" r="1" style="fill:#fef201"/><circle cx="86.47" cy="139.22" r="1" style="fill:#fef201"/><circle cx="86.47" cy="152.26" r="1" style="fill:#fef201"/><circle cx="86.47" cy="165.31" r="1" style="fill:#fef201"/><circle cx="86.47" cy="178.35" r="1" style="fill:#fef201"/><circle cx="86.47" cy="191.4" r="1" style="fill:#fef201"/><circle cx="86.47" cy="204.44" r="1" style="fill:#fef201"/><path d="M93.82,4.11a1,1,0,1,0-1-1A1,1,0,0,0,93.82,4.11Z" style="fill:#fef201"/><path d="M93.85,15.15a1,1,0,1,0,0,2,1,1,0,0,0,1-1A1,1,0,0,0,93.85,15.15Z" style="fill:#fef201"/><path d="M93.89,28.2a1,1,0,0,0,0,2,1,1,0,0,0,1-1A1,1,0,0,0,93.89,28.2Z" style="fill:#fef201"/><path d="M93.94,41.24a1,1,0,1,0,1,1A1,1,0,0,0,93.94,41.24Z" style="fill:#fef201"/><path d="M94,54.28a1,1,0,0,0-1,1,1,1,0,0,0,2,0A1,1,0,0,0,94,54.28Z" style="fill:#fef201"/><path d="M94,67.33a1,1,0,0,0-1,1,1,1,0,1,0,1-1Z" style="fill:#fef201"/><path d="M94.06,80.37a1,1,0,0,0-1,1,1,1,0,0,0,1,1,1,1,0,1,0,0-2Z" style="fill:#fef201"/><path d="M94.11,93.42a1,1,0,1,0,1,1A1,1,0,0,0,94.11,93.42Z" style="fill:#fef201"/><path d="M94.15,106.46a1,1,0,1,0,0,2,1,1,0,0,0,0-2Z" style="fill:#fef201"/><path d="M94.19,119.51a1,1,0,0,0-1,1,1,1,0,1,0,1-1Z" style="fill:#fef201"/><path d="M94.24,132.55a1,1,0,1,0,1,1A1,1,0,0,0,94.24,132.55Z" style="fill:#fef201"/><path d="M94.28,145.6a1,1,0,1,0,1,1A1,1,0,0,0,94.28,145.6Z" style="fill:#fef201"/><path d="M94.32,158.64a1,1,0,1,0,0,2,1,1,0,0,0,0-2Z" style="fill:#fef201"/><path d="M94.36,171.68a1,1,0,0,0-1,1,1,1,0,0,0,1,1,1,1,0,1,0,0-2Z" style="fill:#fef201"/><path d="M94.41,184.73a1,1,0,1,0,1,1A1,1,0,0,0,94.41,184.73Z" style="fill:#fef201"/><path d="M94.45,197.77a1,1,0,0,0-1,1,1,1,0,1,0,1-1Z" style="fill:#fef201"/><circle cx="102.8" cy="8.78" r="1" style="fill:#fef201"/><circle cx="102.8" cy="21.82" r="1" style="fill:#fef201"/><circle cx="102.8" cy="34.87" r="1" style="fill:#fef201"/><circle cx="102.8" cy="47.91" r="1" style="fill:#fef201"/><circle cx="102.8" cy="60.95" r="1" style="fill:#fef201"/><circle cx="102.8" cy="74" r="1" style="fill:#fef201"/><circle cx="102.8" cy="87.04" r="1" style="fill:#fef201"/><circle cx="102.8" cy="100.09" r="1" style="fill:#fef201"/><circle cx="102.8" cy="113.13" r="1" style="fill:#fef201"/><circle cx="102.8" cy="126.18" r="1" style="fill:#fef201"/><circle cx="102.8" cy="139.22" r="1" style="fill:#fef201"/><circle cx="102.8" cy="152.26" r="1" style="fill:#fef201"/><circle cx="102.8" cy="165.31" r="1" style="fill:#fef201"/><circle cx="102.8" cy="178.35" r="1" style="fill:#fef201"/><circle cx="102.8" cy="191.4" r="1" style="fill:#fef201"/><circle cx="102.8" cy="204.44" r="1" style="fill:#fef201"/><path d="M110.15,4.11a1,1,0,1,0,0-2,1,1,0,0,0-1,1A1,1,0,0,0,110.15,4.11Z" style="fill:#fef201"/><path d="M110.18,15.15a1,1,0,1,0,1,1A1,1,0,0,0,110.18,15.15Z" style="fill:#fef201"/><path d="M110.23,28.2a1,1,0,1,0,1,1A1,1,0,0,0,110.23,28.2Z" style="fill:#fef201"/><path d="M110.27,41.24a1,1,0,1,0,0,2,1,1,0,0,0,0-2Z" style="fill:#fef201"/><path d="M110.31,54.28a1,1,0,0,0-1,1,1,1,0,0,0,1,1,1,1,0,1,0,0-2Z" style="fill:#fef201"/><path d="M110.36,67.33a1,1,0,1,0,1,1A1,1,0,0,0,110.36,67.33Z" style="fill:#fef201"/><path d="M110.4,80.37a1,1,0,0,0-1,1,1,1,0,0,0,2,0A1,1,0,0,0,110.4,80.37Z" style="fill:#fef201"/><path d="M110.44,93.42a1,1,0,1,0,0,2,1,1,0,0,0,0-2Z" style="fill:#fef201"/><path d="M110.48,106.46a1,1,0,0,0,0,2,1,1,0,1,0,0-2Z" style="fill:#fef201"/><path d="M110.53,119.51a1,1,0,0,0,0,2,1,1,0,0,0,1-1A1,1,0,0,0,110.53,119.51Z" style="fill:#fef201"/><path d="M110.57,132.55a1,1,0,1,0,1,1A1,1,0,0,0,110.57,132.55Z" style="fill:#fef201"/><path d="M110.61,145.6a1,1,0,0,0-1,1,1,1,0,0,0,1,1,1,1,0,0,0,1-1A1,1,0,0,0,110.61,145.6Z" style="fill:#fef201"/><path d="M110.65,158.64a1,1,0,1,0,1,1A1,1,0,0,0,110.65,158.64Z" style="fill:#fef201"/><path d="M110.7,171.68a1,1,0,0,0-1,1,1,1,0,0,0,2,0A1,1,0,0,0,110.7,171.68Z" style="fill:#fef201"/><path d="M110.74,184.73a1,1,0,1,0,1,1A1,1,0,0,0,110.74,184.73Z" style="fill:#fef201"/><path d="M110.78,197.77a1,1,0,1,0,0,2,1,1,0,0,0,1-1A1,1,0,0,0,110.78,197.77Z" style="fill:#fef201"/><circle cx="119.13" cy="8.78" r="1" style="fill:#fef201"/><circle cx="119.13" cy="21.82" r="1" style="fill:#fef201"/><circle cx="119.13" cy="34.87" r="1" style="fill:#fef201"/><circle cx="119.13" cy="47.91" r="1" style="fill:#fef201"/><circle cx="119.13" cy="60.95" r="1" style="fill:#fef201"/><circle cx="119.13" cy="74" r="1" style="fill:#fef201"/><circle cx="119.13" cy="87.04" r="1" style="fill:#fef201"/><circle cx="119.13" cy="100.09" r="1" style="fill:#fef201"/><circle cx="119.13" cy="113.13" r="1" style="fill:#fef201"/><circle cx="119.13" cy="126.18" r="1" style="fill:#fef201"/><circle cx="119.13" cy="139.22" r="1" style="fill:#fef201"/><circle cx="119.13" cy="152.26" r="1" style="fill:#fef201"/><circle cx="119.13" cy="165.31" r="1" style="fill:#fef201"/><circle cx="119.13" cy="178.35" r="1" style="fill:#fef201"/><circle cx="119.13" cy="191.4" r="1" style="fill:#fef201"/><circle cx="119.13" cy="204.44" r="1" style="fill:#fef201"/><path d="M126.48,4.11a1,1,0,0,0,1-1,1,1,0,1,0-1,1Z" style="fill:#fef201"/><path d="M126.52,15.15a1,1,0,0,0-1,1,1,1,0,1,0,1-1Z" style="fill:#fef201"/><path d="M126.56,28.2a1,1,0,0,0-1,1,1,1,0,0,0,1,1,1,1,0,0,0,0-2Z" style="fill:#fef201"/><path d="M126.6,41.24a1,1,0,0,0,0,2,1,1,0,1,0,0-2Z" style="fill:#fef201"/><path d="M126.65,54.28a1,1,0,0,0-1,1,1,1,0,0,0,1,1,1,1,0,0,0,0-2Z" style="fill:#fef201"/><path d="M126.69,67.33a1,1,0,1,0,1,1A1,1,0,0,0,126.69,67.33Z" style="fill:#fef201"/><path d="M126.73,80.37a1,1,0,1,0,0,2,1,1,0,0,0,1-1A1,1,0,0,0,126.73,80.37Z" style="fill:#fef201"/><path d="M126.77,93.42a1,1,0,0,0,0,2,1,1,0,1,0,0-2Z" style="fill:#fef201"/><path d="M126.82,106.46a1,1,0,1,0,1,1A1,1,0,0,0,126.82,106.46Z" style="fill:#fef201"/><path d="M126.86,119.51a1,1,0,1,0,1,1A1,1,0,0,0,126.86,119.51Z" style="fill:#fef201"/><path d="M126.9,132.55a1,1,0,1,0,1,1A1,1,0,0,0,126.9,132.55Z" style="fill:#fef201"/><path d="M126.94,145.6a1,1,0,0,0,0,2,1,1,0,0,0,1-1A1,1,0,0,0,126.94,145.6Z" style="fill:#fef201"/><path d="M127,158.64a1,1,0,1,0,1,1A1,1,0,0,0,127,158.64Z" style="fill:#fef201"/><path d="M127,171.68a1,1,0,0,0-1,1,1,1,0,0,0,2,0A1,1,0,0,0,127,171.68Z" style="fill:#fef201"/><path d="M127.07,184.73a1,1,0,0,0-1,1,1,1,0,1,0,1-1Z" style="fill:#fef201"/><path d="M127.11,197.77a1,1,0,1,0,1,1A1,1,0,0,0,127.11,197.77Z" style="fill:#fef201"/><circle cx="135.47" cy="8.78" r="1" style="fill:#fef201"/><circle cx="135.47" cy="21.82" r="1" style="fill:#fef201"/><circle cx="135.47" cy="34.87" r="1" style="fill:#fef201"/><circle cx="135.47" cy="47.91" r="1" style="fill:#fef201"/><circle cx="135.47" cy="60.95" r="1" style="fill:#fef201"/><circle cx="135.47" cy="74" r="1" style="fill:#fef201"/><circle cx="135.47" cy="87.04" r="1" style="fill:#fef201"/><circle cx="135.47" cy="100.09" r="1" style="fill:#fef201"/><circle cx="135.47" cy="113.13" r="1" style="fill:#fef201"/><circle cx="135.47" cy="126.18" r="1" style="fill:#fef201"/><circle cx="135.47" cy="139.22" r="1" style="fill:#fef201"/><circle cx="135.47" cy="152.26" r="1" style="fill:#fef201"/><circle cx="135.47" cy="165.31" r="1" style="fill:#fef201"/><circle cx="135.47" cy="178.35" r="1" style="fill:#fef201"/><circle cx="135.47" cy="191.4" r="1" style="fill:#fef201"/><circle cx="135.47" cy="204.44" r="1" style="fill:#fef201"/><path d="M142.82,4.11a1,1,0,1,0-1-1A1,1,0,0,0,142.82,4.11Z" style="fill:#fef201"/><path d="M142.85,15.15a1,1,0,1,0,0,2,1,1,0,0,0,1-1A1,1,0,0,0,142.85,15.15Z" style="fill:#fef201"/><path d="M142.89,28.2a1,1,0,0,0,0,2,1,1,0,0,0,1-1A1,1,0,0,0,142.89,28.2Z" style="fill:#fef201"/><path d="M142.94,41.24a1,1,0,1,0,1,1A1,1,0,0,0,142.94,41.24Z" style="fill:#fef201"/><path d="M143,54.28a1,1,0,0,0-1,1,1,1,0,0,0,2,0A1,1,0,0,0,143,54.28Z" style="fill:#fef201"/><path d="M143,67.33a1,1,0,0,0-1,1,1,1,0,1,0,1-1Z" style="fill:#fef201"/><path d="M143.06,80.37a1,1,0,0,0-1,1,1,1,0,0,0,1,1,1,1,0,1,0,0-2Z" style="fill:#fef201"/><path d="M143.11,93.42a1,1,0,1,0,1,1A1,1,0,0,0,143.11,93.42Z" style="fill:#fef201"/><path d="M143.15,106.46a1,1,0,1,0,0,2,1,1,0,0,0,0-2Z" style="fill:#fef201"/><path d="M143.19,119.51a1,1,0,0,0-1,1,1,1,0,1,0,1-1Z" style="fill:#fef201"/><path d="M143.24,132.55a1,1,0,1,0,1,1A1,1,0,0,0,143.24,132.55Z" style="fill:#fef201"/><path d="M143.28,145.6a1,1,0,1,0,1,1A1,1,0,0,0,143.28,145.6Z" style="fill:#fef201"/><path d="M143.32,158.64a1,1,0,1,0,0,2,1,1,0,0,0,0-2Z" style="fill:#fef201"/><path d="M143.36,171.68a1,1,0,0,0-1,1,1,1,0,0,0,1,1,1,1,0,1,0,0-2Z" style="fill:#fef201"/><path d="M143.41,184.73a1,1,0,1,0,1,1A1,1,0,0,0,143.41,184.73Z" style="fill:#fef201"/><path d="M143.45,197.77a1,1,0,0,0-1,1,1,1,0,1,0,1-1Z" style="fill:#fef201"/></g></g><g style="opacity:0.45"><polygon points="80.36 40.2 73.51 40.2 8.1 105.61 8.1 112.45 80.36 40.2" style="fill:#00158e;opacity:0.2"/><polygon points="99.61 40.2 92.76 40.2 8.1 124.85 8.1 131.7 99.61 40.2" style="fill:#00158e;opacity:0.2"/><polygon points="61.11 40.2 54.27 40.2 8.1 86.36 8.1 93.21 61.11 40.2" style="fill:#00158e;opacity:0.2"/><polygon points="41.86 40.2 35.02 40.2 8.1 67.11 8.1 73.96 41.86 40.2" style="fill:#00158e;opacity:0.2"/><polygon points="22.62 40.2 15.77 40.2 8.1 47.86 8.1 54.71 22.62 40.2" style="fill:#00158e;opacity:0.2"/><path d="M108.1,40.2v3.91L11.81,140.4H8.1v30.51H138.82V40.2Zm0,100.2H95.65L108.1,128Zm0-19.3L88.8,140.4H76.4l31.7-31.7Zm0-19.25L69.56,140.4H57.15L108.1,89.45Zm0-19.25L50.31,140.4H37.91L108.1,70.2Zm0-19.24-77,77H18.66L108.1,51Z" style="fill:#00158e;opacity:0.2"/><polygon points="135.94 168.5 135.94 142.05 131.16 146.84 131.16 163.71 114.28 163.71 109.5 168.5 135.94 168.5" style="fill:#0751cf"/><rect x="137.39" y="71.65" width="2.99" height="35.67" style="fill:gold"/><rect x="137.39" y="114.49" width="2.99" height="4.98" style="fill:gold"/><rect x="26.4" y="170.08" width="48.42" height="2.39" style="fill:gold"/><polygon points="23.9 160.58 27.76 160.58 31.88 156.46 25.44 156.46 16.15 165.74 18.74 165.74 23.9 160.58" style="fill:gold"/><polygon points="32.27 160.58 36.13 160.58 40.26 156.46 33.81 156.46 24.53 165.74 27.11 165.74 32.27 160.58" style="fill:gold"/><polygon points="40.65 160.58 44.51 160.58 48.63 156.46 42.19 156.46 32.9 165.74 35.48 165.74 40.65 160.58" style="fill:gold"/><polygon points="49.02 160.58 52.88 160.58 57.01 156.46 50.56 156.46 41.28 165.74 43.86 165.74 49.02 160.58" style="fill:gold"/><polygon points="57.4 160.58 61.26 160.58 65.38 156.46 58.94 156.46 49.65 165.74 52.23 165.74 57.4 160.58" style="fill:gold"/><polygon points="65.77 160.58 69.63 160.58 73.75 156.46 67.31 156.46 58.03 165.74 60.61 165.74 65.77 160.58" style="fill:gold"/><polygon points="74.15 160.58 78.01 160.58 82.13 156.46 75.69 156.46 66.4 165.74 68.98 165.74 74.15 160.58" style="fill:gold"/><polygon points="82.52 160.58 86.38 160.58 90.5 156.46 84.06 156.46 74.77 165.74 77.36 165.74 82.52 160.58" style="fill:gold"/><path d="M125.13,35.49H110.19V31.9h14.94Zm-14.34-.6h13.75V32.5H110.79Z" style="fill:#0751cf"/><path d="M142.87,143.28h-2.59V131.93h2.59Zm-2-.59h1.39V132.52h-1.39Z" style="fill:#0751cf"/><path d="M101.82,179H84.49v-3.79h17.33Zm-16.74-.6h16.14v-2.59H85.08Z" style="fill:#0751cf"/><path d="M16.14,178.15H9.57v-2.39h6.57Zm-6-.59h5.38v-1.2H10.16Z" style="fill:gold"/><path d="M5.78,166.6H3.39V146.67H5.78ZM4,166H5.18V147.27H4Z" style="fill:gold"/><polygon points="94.75 34.58 94.75 34.43 26.95 34.43 26.95 33.06 94.6 33.06 94.6 34.58 94.75 34.58 94.75 34.43 94.75 34.58 94.9 34.58 94.9 32.76 26.65 32.76 26.65 34.73 94.9 34.73 94.9 34.58 94.75 34.58" style="fill:gold"/></g><path d="M33.6,47.74a2.77,2.77,0,0,0-.08-.56.92.92,0,0,0-.65-.7c-.67-.22-1.88-1-2.63-3.95a.29.29,0,0,0-.35-.2h0a.56.56,0,0,0-.44.64l.8,4a.77.77,0,0,0,.36.5l1.16.69Z" style="fill:#9a9f9a"/><path d="M76.53,55.45V35.17s19.76.46,16.82,22.21Z" style="fill:#187782"/><path d="M76.52,55.45V35.17s-19.76.46-16.82,22.21Z" style="fill:#34aebf"/><polygon points="62.81 56.8 60.15 55.96 60.15 53.52 69.97 53.52 69.97 56.8 62.81 56.8" style="fill:#060a0f"/><path d="M57.29,54.57V44a1.88,1.88,0,1,0-.42,0V55h3.28v-.41Z" style="fill:#060a0f"/><polygon points="89.67 56.8 92.33 55.96 92.33 53.52 82.51 53.52 82.51 56.8 89.67 56.8" style="fill:#060a0f"/><path d="M95.19,54.57V44a1.88,1.88,0,1,1,.42,0V55H92.33v-.41Z" style="fill:#060a0f"/><path d="M86.7,100.46a6.6,6.6,0,0,0,6.43-6.76v-4h-.66v4a5.93,5.93,0,0,1-5.77,6.07Z" style="fill:#373529"/><path d="M86.7,102.9h1.84A6.61,6.61,0,0,0,95,96.14V89.71h-.66v6.43a5.92,5.92,0,0,1-5.77,6.06H86.7Z" style="fill:#373529"/><path d="M86.79,105.44h3.63a6.61,6.61,0,0,0,6.43-6.76V89.17h-.66v9.51a5.93,5.93,0,0,1-5.77,6.07H86.79Z" style="fill:#373529"/><path d="M65.5,100.46a6.61,6.61,0,0,1-6.43-6.76v-4h.66v4a5.93,5.93,0,0,0,5.77,6.07Z" style="fill:#373529"/><path d="M65.5,102.9H63.66a6.62,6.62,0,0,1-6.43-6.76V89.71h.66v6.43a5.93,5.93,0,0,0,5.77,6.06H65.5Z" style="fill:#373529"/><path d="M65.42,105.44H61.79a6.6,6.6,0,0,1-6.43-6.76V89.17H56v9.51a5.93,5.93,0,0,0,5.77,6.07h3.63Z" style="fill:#373529"/><polygon points="69.31 115.48 68.69 162.85 73.5 162.89 73.5 115.48 69.31 115.48" style="fill:#202424"/><rect x="66.35" y="117.28" width="4.12" height="7.55" style="fill:#ee6c23"/><path d="M66.35,124.82h-.93v9.09s3.06,9.51,2.79,13.57h2.26V124.82Z" style="fill:#d98326"/><polygon points="70.47 147.48 66.35 147.48 66.35 158.52 71.47 153.14 71.47 147.34 70.47 147.48" style="fill:#323431"/><polygon points="65.1 161.72 65.04 162.74 64.83 162.86 59.7 165.88 59.7 173.26 64.83 173.26 64.83 166.17 70.41 160.3 70.41 156.14 65.1 161.72" style="fill:#808833"/><polygon points="70.77 160.59 72.84 160.59 72.84 163.71 71.85 163.71 71.85 173.26 64.83 173.26 64.83 165.79 70.41 159.42 70.77 160.59" style="fill:#121617"/><path d="M70.94,157.87H69.73v-.56h1.21a.85.85,0,0,0,.83-.87v-3.21a.85.85,0,0,0-.83-.87h-.62v-.56h.62a1.4,1.4,0,0,1,1.36,1.43v3.21A1.4,1.4,0,0,1,70.94,157.87Z" style="fill:#99bb59"/><rect x="68.08" y="154.09" width="1.59" height="4.38" style="fill:#323431"/><path d="M61.59,174.24l-.05-5.65H60l-2.67,4.76a.91.91,0,0,0,0,.89Z" style="fill:#a3b448"/><path d="M46,71.43l-.13.53C46,72,50.5,73.14,52.11,70l-.45-.26C50.24,72.51,46,71.44,46,71.43Z" style="fill:#232626"/><path d="M45.36,70l-.1.54c.19,0,4.74.91,6.18-2.29L51,68.05C49.7,70.86,45.4,70,45.36,70Z" style="fill:#232626"/><path d="M37.93,77.7c.78,1.91,1.85,3.06,3.19,3.42a5.11,5.11,0,0,0,4.09-1.06l-.32-.44.16.22-.16-.22a4.64,4.64,0,0,1-3.64,1c-1.18-.32-2.13-1.36-2.84-3.1Z" style="fill:#232626"/><path d="M39.9,77.7a3.59,3.59,0,0,0,2.23,1.91,3,3,0,0,0,2.3-.49l-.29-.44.15.22-.15-.22a2.64,2.64,0,0,1-1.9.39,3.08,3.08,0,0,1-1.89-1.65Z" style="fill:#232626"/><path d="M34.37,49.72S32,75.62,53.36,73V83.31s-15.43,3-19-26.18Z" style="fill:#808833"/><path d="M50.22,64.45,54,88.1A6.78,6.78,0,0,0,60.56,94h16V55.2L54.91,57.87A5.64,5.64,0,0,0,50.22,64.45Z" style="fill:#a3b448"/><polygon points="61.47 93.97 66.38 99.13 76.52 99.13 76.52 93.97 61.47 93.97" style="fill:#808833"/><rect x="66.38" y="99.13" width="10.14" height="14.66" style="fill:#99bb59"/><path d="M64.83,110.1h8.85v40.58h-7.3s.25-17.5-4.91-22.24v-10.5Z" style="fill:#121718"/><polygon points="73.68 110.1 76.56 113.13 73.68 150.69 73.68 110.1" style="fill:#2a2c28"/><path d="M36.92,60.15l-1.85.42a.76.76,0,0,1-.91-.68l-1-8.28,1.89-.42,2.42,7.94A.79.79,0,0,1,36.92,60.15Z" style="fill:#808833"/><polygon points="43.5 72.87 43.5 69.9 46.17 69.9 46.84 72.45 43.5 72.87" style="fill:#bb7127"/><path d="M39.43,78.05l-1,.61L36.79,77s-5.76-17-4.15-21.28l1.75-.23C34.3,66.05,38.42,75.82,39.43,78.05Z" style="fill:#d17727"/><path d="M43.5,69.9l-.07,4.18-1.22,2.27-2.78,1.7c-1-2.23-5.13-12-5-22.61L37.81,55Z" style="fill:#4b4937"/><polygon points="31.77 48.09 35.1 47.34 35.94 51.47 32.6 52.22 31.77 48.09" style="fill:#232626"/><path d="M33.46,47.71a3.17,3.17,0,0,1-.14-.55,1,1,0,0,1,.27-.9c.47-.47,1.16-1.69.69-4.7a.28.28,0,0,1,.2-.32h0a.51.51,0,0,1,.6.41l.81,4a.84.84,0,0,1-.11.6l-.68,1.1Z" style="fill:#aeb1b0"/><path d="M73.55,174.24a.94.94,0,0,0,0-.89l-2.66-4.76H69.33l0,5.65Z" style="fill:#a3b448"/><polygon points="83.74 115.48 84.37 162.85 79.55 162.89 79.55 115.48 83.74 115.48" style="fill:#202424"/><rect x="82.58" y="117.28" width="4.12" height="7.55" transform="translate(169.29 242.1) rotate(180)" style="fill:#ee6c23"/><path d="M86.7,124.82h.93v9.09s-3,9.51-2.79,13.57H82.58V124.82Z" style="fill:#d98326"/><polygon points="82.58 147.48 86.7 147.48 86.7 158.52 81.59 153.14 81.59 147.34 82.58 147.48" style="fill:#181b1a"/><polygon points="87.95 161.72 88.01 162.74 88.22 162.86 93.35 165.88 93.35 173.26 88.22 173.26 88.22 166.17 82.64 160.3 82.64 156.14 87.95 161.72" style="fill:#63692a"/><polygon points="82.28 160.59 80.22 160.59 80.22 163.71 81.21 163.71 81.21 173.26 88.22 173.26 88.22 165.79 82.64 159.42 82.28 160.59" style="fill:#121617"/><path d="M82.11,157.87h1.21v-.56H82.11a.85.85,0,0,1-.83-.87v-3.21a.85.85,0,0,1,.83-.87h.62v-.56h-.62a1.4,1.4,0,0,0-1.36,1.43v3.21A1.4,1.4,0,0,0,82.11,157.87Z" style="fill:#99bb59"/><rect x="83.38" y="154.09" width="1.59" height="4.38" transform="translate(168.36 312.56) rotate(180)" style="fill:#323431"/><path d="M91.46,174.24l.05-5.65h1.55l2.66,4.76a.91.91,0,0,1,0,.89Z" style="fill:#858d34"/><path d="M107.11,71.43l.12.53c-.19.05-4.68,1.18-6.29-1.93l.46-.26C102.82,72.51,107.06,71.44,107.11,71.43Z" style="fill:#232626"/><path d="M107.69,70l.1.54c-.19,0-4.73.91-6.18-2.29l.47-.23C103.36,70.86,107.65,70,107.69,70Z" style="fill:#232626"/><path d="M115.12,77.7c-.78,1.91-1.85,3.06-3.19,3.42a5.13,5.13,0,0,1-4.09-1.06l.32-.44-.16.22.16-.22a4.67,4.67,0,0,0,3.65,1c1.17-.32,2.12-1.36,2.83-3.1Z" style="fill:#232626"/><path d="M113.15,77.7a3.59,3.59,0,0,1-2.23,1.91,3,3,0,0,1-2.3-.49l.3-.44-.15.22.14-.22a2.66,2.66,0,0,0,1.9.39,3.1,3.1,0,0,0,1.9-1.65Z" style="fill:#232626"/><path d="M118.69,49.72s2.39,25.9-19,23.24V83.31s15.43,3,19-26.18Z" style="fill:#4e5120"/><path d="M102.84,64.45,99.08,88.1A6.79,6.79,0,0,1,92.49,94h-16V55.2l21.61,2.67A5.65,5.65,0,0,1,102.84,64.45Z" style="fill:#72772e"/><polygon points="91.58 93.97 86.67 99.13 76.53 99.13 76.53 93.97 91.58 93.97" style="fill:#6d732d"/><rect x="76.53" y="99.13" width="10.14" height="14.66" transform="translate(163.2 212.93) rotate(180)" style="fill:#89a248"/><path d="M88.22,110.1H79.37v40.58h7.3s-.24-17.5,4.91-22.24v-10.5Z"/><polygon points="79.37 110.1 76.49 113.13 79.37 150.69 79.37 110.1" style="fill:#2a2c28"/><path d="M116.13,60.15l1.86.42a.75.75,0,0,0,.9-.68l1-8.28-1.9-.42-2.42,7.94A.79.79,0,0,0,116.13,60.15Z" style="fill:#6f752e"/><polygon points="109.55 72.87 109.55 69.9 106.89 69.9 106.21 72.45 109.55 72.87" style="fill:#bb7127"/><path d="M113.63,78.05l1,.61L116.26,77s5.77-17,4.16-21.28l-1.76-.23C118.75,66.05,114.63,75.82,113.63,78.05Z" style="fill:#d17727"/><path d="M109.55,69.9l.07,4.18,1.22,2.27,2.79,1.7c1-2.23,5.12-12,5-22.61L115.24,55Z" style="fill:#373529"/><polygon points="121.29 48.09 117.95 47.34 117.11 51.47 120.45 52.22 121.29 48.09" style="fill:#232626"/><path d="M119.59,47.71a3.17,3.17,0,0,0,.14-.55,1,1,0,0,0-.27-.9c-.46-.47-1.15-1.69-.68-4.7a.29.29,0,0,0-.21-.32h0a.52.52,0,0,0-.6.41l-.81,4a.84.84,0,0,0,.11.6l.68,1.1Z" style="fill:#aeb1b0"/><path d="M119.47,47.68a2.77,2.77,0,0,1,.08-.56.92.92,0,0,1,.65-.7c.67-.21,1.88-1,2.63-4a.28.28,0,0,1,.34-.19h0a.55.55,0,0,1,.45.64l-.8,4a.77.77,0,0,1-.36.5l-1.16.69Z" style="fill:#9a9f9a"/><path d="M79.51,174.24a.94.94,0,0,1,0-.89l2.67-4.76h1.55l0,5.65Z" style="fill:#858d34"/><path d="M82.14,78.52l-3.23-3.4,3.23-3.4a1.83,1.83,0,0,0,0-2.5,1.62,1.62,0,0,0-2.39,0l-3.23,3.39-3.23-3.39a1.61,1.61,0,0,0-2.38,0,1.83,1.83,0,0,0,0,2.5l3.23,3.4-3.23,3.4a1.84,1.84,0,0,0,0,2.51,1.63,1.63,0,0,0,2.38,0l3.23-3.4L79.75,81a1.64,1.64,0,0,0,2.39,0A1.84,1.84,0,0,0,82.14,78.52Z" style="fill:#808833"/><path d="M76.52,43.18v8.66H67.35L68,48.29A6.17,6.17,0,0,1,74,43.18Z" style="fill:#a3b448"/><polygon points="76.52 51.84 76.52 55.49 66.42 56.66 67.35 51.84 76.52 51.84" style="fill:#d17727"/><path d="M85.69,51.84H76.52V43.18h2.53a6.17,6.17,0,0,1,6,5.11Z" style="fill:#929a42"/><polygon points="86.63 56.66 76.52 55.49 76.52 51.84 85.69 51.84 86.63 56.66" style="fill:#686f2c"/><line x1="67.35" y1="51.84" x2="64.86" y2="51.84" style="fill:none"/><rect x="72.81" y="46.28" width="1.2" height="5.57" style="fill:#232626"/><rect x="79.28" y="46.28" width="1.2" height="5.57" style="fill:#232626"/><polygon points="91.58 127.09 92.56 127.09 96.4 123.06 92.56 123.06 91.58 123.06 91.58 127.09" style="fill:#d07b2d"/><polygon points="91.58 119.03 92.56 119.03 96.4 123.06 92.56 123.06 91.58 123.06 91.58 119.03" style="fill:#af6126"/><polygon points="61.47 127.09 60.49 127.09 56.66 123.06 60.49 123.06 61.47 123.06 61.47 127.09" style="fill:#f38d30"/><polygon points="61.47 119.03 60.49 119.03 56.66 123.06 60.49 123.06 61.47 123.06 61.47 119.03" style="fill:#d17727"/><path d="M89.28,80.81,87.8,79.25l1.48-1.56a.85.85,0,0,0,0-1.15.74.74,0,0,0-1.09,0L86.7,78.1l-1.48-1.56a.75.75,0,0,0-1.1,0,.85.85,0,0,0,0,1.15l1.49,1.56-1.49,1.56a.85.85,0,0,0,0,1.15.75.75,0,0,0,1.1,0L86.7,80.4,88.19,82a.74.74,0,0,0,1.09,0A.85.85,0,0,0,89.28,80.81Z" style="fill:#808833"/><path d="M88.42,70.44l-1-1.06,1-1.06a.57.57,0,0,0,0-.79.51.51,0,0,0-.74,0l-1,1.06-1-1.06a.51.51,0,0,0-.74,0,.57.57,0,0,0,0,.79l1,1.06-1,1.06a.56.56,0,0,0,0,.78.5.5,0,0,0,.74,0l1-1.06,1,1.06a.5.5,0,0,0,.74,0A.56.56,0,0,0,88.42,70.44Z" style="fill:#4e5120"/><path d="M83.35,86.63l-.76-.79.76-.8a.41.41,0,0,0,0-.58.37.37,0,0,0-.56,0l-.75.79-.76-.79a.37.37,0,0,0-.56,0,.43.43,0,0,0,0,.58l.76.8-.76.79a.44.44,0,0,0,0,.59.39.39,0,0,0,.56,0l.76-.79.75.79a.39.39,0,0,0,.56,0A.42.42,0,0,0,83.35,86.63Z" style="fill:#808833"/><polygon points="52.4 78.21 76.49 63.2 76.49 59.45 50.34 65.19 52.4 78.21" style="fill:#d17727"/><rect x="65.5" y="99.13" width="22.04" height="1.75" style="fill:#2a2c28"/><rect x="65.5" y="101.68" width="22.04" height="1.75" style="fill:#2a2c28"/><rect x="65.5" y="104.22" width="22.04" height="1.75" style="fill:#2a2c28"/><polygon points="66.58 69.38 53.86 87.34 52.4 78.21 66.58 69.38" style="fill:#a05c24"/><path d="M61.47,128.44,73.68,110.1v5.38L64.22,133.3A15.58,15.58,0,0,0,61.47,128.44Z" style="fill:#99bb59"/><path d="M91.58,128.44,79.37,110.1v5.38l9.46,17.82A15.58,15.58,0,0,1,91.58,128.44Z" style="fill:#718035"/></g></g></g></svg>