<svg xmlns="http://www.w3.org/2000/svg" xmlns:xlink="http://www.w3.org/1999/xlink" viewBox="0 0 148.25 207.55"><defs><linearGradient id="Degradado_sin_nombre_6" x1="-14.83" y1="192.72" x2="163.07" y2="14.83" gradientUnits="userSpaceOnUse"><stop offset="0" stop-color="aqua"/><stop offset="1" stop-color="blue"/></linearGradient></defs><title>Asset 122</title><g id="Layer_2" data-name="Layer 2"><g id="Layer_3" data-name="Layer 3"><rect width="148.25" height="207.55" style="fill:url(#Degradado_sin_nombre_6)"/><g style="opacity:0.45"><path d="M135.67,57.3V51.48h5V57.3Zm5-11.64V39.85h-5v5.81ZM129.86,63.11h5.81V57.3h-5.81ZM27.77,163.74h5.81V158.8H27.77ZM22,153v5.81h5.82V153ZM135.67,63.11v5.82h-5.81V63.11H124v5.82h-5.82V63.11H124V57.3h5.82V51.48h5.81V45.66h-5.81V39.85H124v5.81h-5.82V39.85H124V36.54H13.45v127.2H22V158.8H16.13V153H22v-5.82H16.13v-5.82H22v5.82h5.82V153h5.81v5.81H39.4v4.94h5.82V158.8H51v4.94h89.62V63.11Zm0-26.57h-5.81v3.31h5.81Z" style="fill:#00158e;opacity:0.2"/><rect x="49.85" y="165.43" width="5.82" height="5.82" style="fill:gold"/><rect x="37.43" y="166.76" width="5.82" height="5.82" style="fill:gold"/><rect x="4.7" y="167.38" width="5.82" height="5.82" style="fill:gold"/><rect x="31.33" y="160.4" width="5.82" height="5.82" style="fill:gold"/><rect x="17.71" y="170.03" width="5.82" height="5.82" style="fill:gold"/><rect x="13.51" y="160.86" width="5.82" height="5.82" style="fill:gold"/><rect x="8.32" y="145.11" width="5.82" height="5.82" style="fill:gold"/><rect x="9.87" y="154.38" width="5.82" height="5.82" style="fill:gold"/><polygon points="109.98 40.97 17.69 40.97 17.69 130.94 22.05 126.58 22.05 101.86 28.74 101.86 28.74 66.96 35.53 60.17 35.53 50.28 71.98 50.28 78.09 44.17 109.98 44.17 109.98 40.97" style="fill:#0751cf"/><rect x="139.84" y="82.66" width="1.94" height="29.47" style="fill:none"/><polygon points="59.81 169 144.45 169 144.45 97.45 143.87 97.45 143.87 168.41 59.81 168.41 59.81 169 59.81 169" style="fill:gold"/><rect x="18.46" y="34.87" width="3.39" height="2.71" style="fill:gold"/><rect x="25.83" y="34.87" width="3.39" height="2.71" style="fill:gold"/><rect x="33.2" y="34.87" width="3.39" height="2.71" style="fill:gold"/><rect x="40.57" y="34.87" width="3.39" height="2.71" style="fill:gold"/><rect x="47.94" y="34.87" width="3.39" height="2.71" style="fill:gold"/><rect x="55.3" y="34.87" width="3.39" height="2.71" style="fill:gold"/><rect x="62.67" y="34.87" width="3.39" height="2.71" style="fill:gold"/><rect x="136.6" y="74.03" width="1.45" height="9.31" style="fill:gold"/><rect x="136.6" y="98.32" width="1.45" height="61.37" style="fill:gold"/><polygon points="52.01 51.87 49.93 49.79 52.01 47.7 50.83 46.52 48.75 48.61 46.67 46.52 45.49 47.7 47.57 49.79 45.49 51.87 46.67 53.05 48.75 50.97 50.83 53.05 52.01 51.87" style="fill:gold"/><polygon points="60.74 51.87 58.66 49.79 60.74 47.7 59.56 46.52 57.48 48.61 55.39 46.52 54.21 47.7 56.3 49.79 54.21 51.87 55.39 53.05 57.48 50.97 59.56 53.05 60.74 51.87" style="fill:gold"/><polygon points="69.46 51.87 67.38 49.79 69.46 47.7 68.28 46.52 66.2 48.61 64.12 46.52 62.94 47.7 65.02 49.79 62.94 51.87 64.12 53.05 66.2 50.97 68.28 53.05 69.46 51.87" style="fill:gold"/><polygon points="78.19 51.87 76.11 49.79 78.19 47.7 77.01 46.52 74.93 48.61 72.84 46.52 71.66 47.7 73.75 49.79 71.66 51.87 72.84 53.05 74.93 50.97 77.01 53.05 78.19 51.87" style="fill:gold"/></g><path d="M56.29,104.14h-.52v-11c0-2.51,1.53-4.55,3.4-4.55h4.69v.7H59.17c-1.59,0-2.88,1.73-2.88,3.85Z"/><path d="M58.21,99.81h-.52v-11c0-2.51,1.52-4.56,3.4-4.56h4.69V85H61.09c-1.59,0-2.88,1.73-2.88,3.86Z"/><polygon points="58.02 123.14 58.02 128.12 59.74 131.18 62.28 131.18 65.22 127.24 65.22 106.6 63.12 106.6 58.02 116.88 58.02 123.14" style="fill:#373126"/><path d="M46.09,84h-.52V73c0-2.51,1.53-4.55,3.4-4.55h4.69v.69H49c-1.59,0-2.88,1.73-2.88,3.86Z"/><path d="M48,79.63h-.52V68.68c0-2.51,1.52-4.55,3.4-4.55h4.69v.7H50.89c-1.59,0-2.88,1.73-2.88,3.85Z"/><path d="M44.45,86.26v22.5H48S51.8,92.21,49.71,89L47.4,84Z" style="fill:#403b30"/><path d="M54.83,62.71h.23c1.15,0,2.08,1.25,2.08,2.79V80.92l-2.36,3.16v-8.2l-5.15-2.49s-3.54.23,3.55-9.74A2.06,2.06,0,0,1,54.83,62.71Z" style="fill:#ed6555"/><polygon points="49.71 73.29 45.31 82.1 49.71 88.95 54.86 83.97 54.86 75.78 49.71 73.29" style="fill:#d1cec6"/><ellipse cx="45.83" cy="83.97" rx="2.2" ry="2.95" style="fill:#a09989"/><polygon points="57.14 67.67 60.42 65.85 59.43 74.71 57.14 75.99 57.14 67.67"/><polygon points="61.48 83.04 59.74 86.92 63.22 91.57 71.41 91.57 71.41 84.08 71.41 82.36 65.02 82.36 61.48 83.04" style="fill:#a09989"/><path d="M60.42,64.09l3.92-3.92h7.07V84.08H63.62a1.89,1.89,0,0,1-.89-.22l-.06,0c-2.41-1.26-3.84-4.91-3.4-8.62l.16-1.41Z" style="fill:#d1cec6"/><path d="M61.46,89.22l-1.72,5.25s3.5-.56,4.46,12.13h0a3.16,3.16,0,0,0,3-2.17l4.22-12.86H63.22Z" style="fill:#797362"/><path d="M59.74,94.47s-4.89,1.94-3.81,13l1.56,15.65H58s2.69-12.85,6.18-16.54C64.2,106.6,64.39,94.07,59.74,94.47Z" style="fill:#4d473a"/><path d="M65.22,127.24l.34.45-.3.73c-.4,1,.14,2.19,1,2.19h0v1.87H64.38v.81h1.83v1.93H64.38v.58h1.83v1.72H58.78V136h.68v-.8h-.68V133.5h.76v-.8h-.72v-1.53l4.44-2.65Z" style="fill:#29241d"/><polygon points="66.21 137.52 65.96 143.78 65.73 149.59 65.22 162.15 59.54 162.15 60.69 154.16 61.6 147.89 62.5 141.64 58.26 139.71 58.78 137.52 66.21 137.52" style="fill:#373126"/><polygon points="62.5 141.64 61.6 147.89 60.69 154.16 59.54 162.15 59.16 155.55 58.87 150.45 58.26 139.71 62.5 141.64" style="fill:#29241d"/><polygon points="58.78 137.52 58.26 139.71 62.5 141.64 66.21 137.52 58.78 137.52" style="fill:#09060a"/><rect x="64.34" y="57.12" width="7.07" height="3.05" style="fill:#797362"/><polygon points="60.42 64.09 71.41 71.88 71.41 60.17 64.34 60.17 60.42 64.09" style="fill:#b4ad9f"/><path d="M86.51,104.14H87v-11c0-2.51-1.53-4.55-3.4-4.55h-4.7v.69h4.7c1.59,0,2.88,1.73,2.88,3.86Z"/><path d="M84.59,99.8h.52v-11c0-2.51-1.53-4.55-3.4-4.55H77V85h4.7c1.59,0,2.88,1.73,2.88,3.85Z"/><polygon points="84.77 123.14 84.77 128.12 83.06 131.17 80.52 131.17 77.58 127.24 77.58 106.59 79.68 106.59 84.77 116.88 84.77 123.14" style="fill:#231e16"/><path d="M96.71,84h.52V73c0-2.51-1.53-4.56-3.4-4.56h-4.7v.7h4.7c1.58,0,2.88,1.73,2.88,3.86Z"/><path d="M94.79,79.63h.52V68.68c0-2.51-1.53-4.55-3.4-4.55h-4.7v.69h4.7c1.59,0,2.88,1.73,2.88,3.86Z"/><path d="M98.34,86.26v22.5H94.77S91,92.21,93.09,89l2.31-5Z" style="fill:#403b30"/><path d="M88,62.71h-.24c-1.14,0-2.07,1.24-2.07,2.78V80.91L88,84.07V75.88l5.16-2.49s3.54.23-3.56-9.74A2,2,0,0,0,88,62.71Z" style="fill:#ed6555"/><polygon points="93.09 73.28 97.48 82.09 93.09 88.95 87.93 83.97 87.93 75.77 93.09 73.28" style="fill:#d1cec6"/><ellipse cx="96.97" cy="83.97" rx="2.2" ry="2.95" style="fill:#a09989"/><polygon points="85.66 67.67 82.38 65.85 83.36 74.7 85.66 75.99 85.66 67.67"/><polygon points="81.32 83.04 83.06 86.91 79.58 91.57 71.39 91.57 71.39 84.07 71.39 82.36 77.78 82.36 81.32 83.04" style="fill:#878278"/><path d="M82.38,64.09l-3.92-3.92H71.39v23.9h7.79a2,2,0,0,0,.89-.21l.05,0c2.42-1.26,3.85-4.92,3.41-8.62l-.17-1.41Z" style="fill:#b9b7b0"/><path d="M81.34,89.22l1.72,5.25s-3.5-.57-4.46,12.12h0a3.14,3.14,0,0,1-3-2.16L71.39,91.57h8.19Z" style="fill:#6a6356"/><path d="M83.06,94.47s4.89,1.94,3.81,13l-1.56,15.65h-.54s-2.68-12.85-6.17-16.55C78.6,106.59,78.4,94.06,83.06,94.47Z" style="fill:#403b30"/><path d="M77.58,127.24l-.34.45.3.73c.4,1-.14,2.19-1,2.19h0v1.87h1.86v.8H76.58v1.93h1.84v.59H76.58v1.71H84V136h-.68v-.8H84V133.5h-.76v-.81H84v-1.52l-4.44-2.65Z" style="fill:#373126"/><polygon points="82.28 155.39 83.26 162.15 77.58 162.15 77.07 149.66 76.83 143.59 76.58 137.51 84.02 137.51 84.54 139.71 80.3 141.64 81.26 148.3 82.28 155.39" style="fill:#2c261d"/><polygon points="84.54 139.71 83.89 151.09 83.56 156.8 83.26 162.15 82.28 155.39 81.26 148.3 80.3 141.64 84.54 139.71" style="fill:#140f0e"/><polygon points="84.02 137.51 84.54 139.71 80.3 141.64 76.58 137.51 84.02 137.51" style="fill:#231e16"/><rect x="71.39" y="57.12" width="7.07" height="3.05" style="fill:#5e574a"/><polygon points="82.38 64.09 71.39 71.88 71.39 60.17 78.46 60.17 82.38 64.09" style="fill:#9b9589"/><polygon points="66.63 91.57 69 98.91 73.65 98.91 76.58 91.57 66.63 91.57" style="fill:#373126"/><path d="M62.14,156.8v10.57h2.4v-3.62a1.67,1.67,0,0,1,1.67-1.67V156.8Z" style="fill:#4d473a"/><polygon points="59.93 156.8 57.53 156.8 57.53 158.24 58.59 158.24 58.59 163.33 54.55 167.37 62.15 167.37 62.15 156.8 59.93 156.8" style="fill:#797362"/><polygon points="65.96 143.78 65.73 149.59 60.69 154.16 59.16 155.55 58.87 150.45 61.6 147.89 65.96 143.78" style="fill:#00b2e8"/><path d="M45.29,96.63l3.39.16A1.35,1.35,0,0,1,50,98.32l-1.84,14-3.45-.16-.77-14.12A1.35,1.35,0,0,1,45.29,96.63Z" style="fill:#ed6555"/><polygon points="49.01 118.75 42.93 118.47 44.62 111.32 48.37 111.32 49.01 118.75" style="fill:#002c32"/><path d="M45.92,118.61a5,5,0,0,1,0,1,1.68,1.68,0,0,1-.84,1.36c-1,.55-2.72,2.24-3.2,7.38a.47.47,0,0,1-.5.43h0a.89.89,0,0,1-.85-.94l.32-6.9a1.31,1.31,0,0,1,.43-.93l1.66-1.51Z" style="fill:#adada9"/><path d="M45.7,118.6a4.24,4.24,0,0,0-.1,1,1.62,1.62,0,0,0,.81,1.44c1.07.65,2.82,2.5,2.85,7.67a.51.51,0,0,0,.51.47h0a1,1,0,0,0,1-.85l.32-6.9a1.29,1.29,0,0,0-.4-1L49,118.75Z" style="fill:#374d67"/><polygon points="65.94 169.2 65.94 167.37 54.28 167.37 54.28 169.2 52.83 169.2 53.46 171.12 55.26 173.06 57.12 173.06 57.12 172.05 57.12 171.5 58.75 171.5 58.83 171.86 59.93 173.78 59.93 173.8 59.94 173.8 60.33 173.8 60.34 173.8 60.34 173.78 61.45 171.86 61.52 171.5 62.85 171.5 62.85 172.05 62.85 173.06 64.72 173.06 66.52 171.12 67.14 169.2 65.94 169.2" style="fill:#29241d"/><path d="M97.5,96.08l-3.38.16a1.35,1.35,0,0,0-1.27,1.53l1.84,14,3.44-.16.78-14.12A1.35,1.35,0,0,0,97.5,96.08Z" style="fill:#ed6555"/><polygon points="93.79 118.2 99.86 117.92 98.18 110.77 94.43 110.77 93.79 118.2" style="fill:#002c32"/><path d="M96.88,118.06a4.08,4.08,0,0,0,0,1,1.69,1.69,0,0,0,.85,1.36c1,.55,2.72,2.24,3.2,7.38a.46.46,0,0,0,.5.43h0a.9.9,0,0,0,.85-.94l-.32-6.9a1.32,1.32,0,0,0-.44-.93l-1.65-1.51Z" style="fill:#adada9"/><path d="M97.1,118.05a4.24,4.24,0,0,1,.1,1,1.67,1.67,0,0,1-.81,1.44c-1.07.65-2.82,2.5-2.85,7.67a.51.51,0,0,1-.51.47h0a1,1,0,0,1-1-.85l-.32-6.9a1.26,1.26,0,0,1,.4-1l1.7-1.67Z" style="fill:#374d67"/><polygon points="83.89 151.09 83.56 156.8 82.28 155.39 77.07 149.66 76.83 143.59 81.26 148.3 83.89 151.09" style="fill:#0fa4c7"/><path d="M87.1,35.22a1.24,1.24,0,1,0-2.47,0,1.31,1.31,0,0,0,1.1,1.33v7.6H83.82v.3H86V36.54A1.3,1.3,0,0,0,87.1,35.22Z"/><polygon points="82.43 46.76 84.2 45.16 84.2 43.39 77.65 43.39 77.65 46.76 82.43 46.76"/><path d="M55.7,35.47a1.23,1.23,0,1,1,2.46,0,1.31,1.31,0,0,1-1.1,1.33v7.6H59v.3H56.78V36.79A1.3,1.3,0,0,1,55.7,35.47Z" style="fill:#060a0f"/><polygon points="60.37 46.76 58.6 45.4 58.6 43.64 65.14 43.64 65.14 46.76 60.37 46.76" style="fill:#060a0f"/><path d="M80.26,156.8v10.57h-2.4v-3.62a1.67,1.67,0,0,0-1.67-1.67V156.8Z" style="fill:#2c2419"/><polygon points="82.47 156.8 84.87 156.8 84.87 158.24 83.82 158.24 83.82 163.33 87.85 167.37 80.26 167.37 80.26 156.8 82.47 156.8" style="fill:#625a4b"/><polygon points="76.46 169.2 76.46 167.37 88.12 167.37 88.12 169.2 89.58 169.2 88.95 171.12 87.15 173.06 85.28 173.06 85.28 172.05 85.28 171.5 83.65 171.5 83.58 171.86 82.47 173.78 82.47 173.8 82.46 173.8 82.07 173.8 82.06 173.8 82.06 173.78 80.96 171.86 80.88 171.5 79.55 171.5 79.55 172.05 79.55 173.06 77.69 173.06 75.89 171.12 75.26 169.2 76.46 169.2" style="fill:#29241d"/><polygon points="71.39 46.84 61.46 46.84 64.34 57.12 71.41 57.12 71.41 57.12 71.39 57.12 71.39 46.84" style="fill:#ada595"/><polygon points="71.41 36.88 71.4 36.88 71.41 36.89 71.41 36.88" style="fill:#a09989"/><polygon points="71.39 36.89 64.34 39.85 61.44 46.76 61.46 46.84 71.39 46.84 71.39 36.89" style="fill:#a09989"/><polygon points="81.33 46.84 81.36 46.76 78.46 39.85 71.41 36.89 71.41 46.84 81.33 46.84" style="fill:#8a8476"/><polygon points="71.39 36.88 71.39 36.89 71.4 36.88 71.39 36.88" style="fill:#8a8476"/><polygon points="81.33 46.84 71.41 46.84 71.41 57.12 78.46 57.12 81.33 46.84" style="fill:#777162"/><rect x="71.39" y="46.84" width="0.02" height="10.28" style="fill:#8a8476"/><polygon points="71.41 46.84 71.41 36.89 71.4 36.88 71.39 36.89 71.39 46.84 71.41 46.84" style="fill:#8a8476"/><rect x="67.87" y="40.68" width="1.65" height="6.16"/><rect x="73.17" y="40.68" width="1.65" height="6.16"/><polygon points="61.46 46.84 62.37 50.08 80.43 50.08 81.36 46.76 61.46 46.84" style="fill:#5e574a"/></g></g></svg>