<svg xmlns="http://www.w3.org/2000/svg" xmlns:xlink="http://www.w3.org/1999/xlink" viewBox="0 0 148.25 207.55"><defs><linearGradient id="Degradado_sin_nombre_2" x1="139.68" y1="-0.46" x2="6.35" y2="211.54" gradientUnits="userSpaceOnUse"><stop offset="0" stop-color="#0fc"/><stop offset="1" stop-color="#ffee02"/></linearGradient><linearGradient id="Degradado_sin_nombre_2-2" x1="28.36" y1="196.65" x2="159.15" y2="65.86" xlink:href="#Degradado_sin_nombre_2"/><linearGradient id="Degradado_sin_nombre_2-3" x1="151.62" y1="81.54" x2="79.62" y2="213.54" xlink:href="#Degradado_sin_nombre_2"/></defs><title>Asset 161</title><g id="Layer_2" data-name="Layer 2"><g id="Layer_3" data-name="Layer 3"><rect width="148.25" height="207.55" style="fill:url(#Degradado_sin_nombre_2)"/><rect x="39.26" y="54.96" width="108.99" height="152.59" style="fill:url(#Degradado_sin_nombre_2-2)"/><rect x="74.13" y="103.78" width="74.13" height="103.78" style="fill:url(#Degradado_sin_nombre_2-3)"/><g style="opacity:0.45"><path d="M46.69,155.81,50.53,152v8.88H11.23V156.6h2.15v-.79ZM137.92,102V75.34h-2.68V51.84L120.52,37.12h-4.17V33.25h-9.07v-2.5H89v1.36h11.11V33H83.83l-1.64,1.64H72.57v-2H56.11v1.78H53.24V32.31h-21v1.88H18.43L15,30.75H11.23V56.5h6.46v2H11.23v2.87h6.46v2H11.23v2.87h6.46v2H11.23v2.88h6.46v2H11.23v2.88h6.46v2H11.23V80.8h6.46v2H11.23v70.55h2.15v.87H40.16l4.45-4.45h33v2.79H88.34v-2.79h2.48v2H92v-2H93.2v2h1.19v-2h1.19v2h1.19v-2H98v2h1.19v-2h1.19v2h1.19v-2h1.19v2h1.19v-2h1.19v2h1.19v-2h1.19v2h1.19v-2h1.19v2h1.19v-2h1.19v2h1.19v-2h1.19v2h1.19v-2H117v2h1.19v-2h1.5l3.68,3.68h17.95V105.37Zm-9.57,57H112.88v-5.05H92.21v1.34H77v3.71H75.52v1.92h65.8v-6.23h-8.66Z" style="fill:#2c2c30;opacity:0.2"/><rect x="115.07" y="155.73" width="1.19" height="1.19" transform="translate(144.41 -36.01) rotate(45)" style="fill:#097f00"/><rect x="117.53" y="155.73" width="1.19" height="1.19" transform="translate(145.13 -37.74) rotate(45)" style="fill:#097f00"/><rect x="119.98" y="155.73" width="1.19" height="1.19" transform="translate(145.85 -39.48) rotate(45)" style="fill:#097f00"/><rect x="122.44" y="155.73" width="1.19" height="1.19" transform="translate(146.57 -41.21) rotate(45)" style="fill:#097f00"/><rect x="124.89" y="155.73" width="1.19" height="1.19" transform="translate(147.29 -42.95) rotate(45)" style="fill:#097f00"/><rect x="127.35" y="155.73" width="1.19" height="1.19" transform="translate(148.01 -44.68) rotate(45)" style="fill:#097f00"/><rect x="137.72" y="112.03" width="5.16" height="35.3" style="fill:#097f00"/><rect x="55.02" y="30.13" width="19.04" height="1.19" style="fill:#097f00"/><rect x="48.08" y="30.13" width="3.37" height="1.19" transform="translate(99.53 61.45) rotate(180)" style="fill:#097f00"/><rect x="21.61" y="30.13" width="22.91" height="1.19" style="fill:#097f00"/><polygon points="14.18 150.22 40.5 150.22 35.74 145.46 18.94 145.46 18.94 128.66 14.18 123.9 14.18 150.22" style="fill:#097f00"/><rect x="136.13" y="58.54" width="1.34" height="5.35" style="fill:#097f00"/><rect x="136.13" y="65.68" width="1.34" height="5.35" style="fill:#097f00"/><path d="M84.27,36v6.74H91V36Zm5.56,5.55H85.46V37.17h4.37Z" style="fill:#097f00"/><path d="M94,36v6.74h6.74V36Zm5.55,5.55H95.18V37.17h4.36Z" style="fill:#097f00"/><path d="M103.71,36v6.74h6.74V36Zm5.55,5.55H104.9V37.17h4.36Z" style="fill:#097f00"/><polygon points="137.63 50.38 137.63 49.18 136.44 49.18 136.44 47.98 135.24 47.98 135.24 46.79 134.04 46.79 134.04 45.59 132.85 45.59 132.85 44.39 131.65 44.39 131.65 43.2 130.46 43.2 130.46 42 129.26 42 129.26 40.8 128.06 40.8 128.06 39.61 126.87 39.61 126.87 38.41 125.67 38.41 125.67 37.22 124.47 37.22 124.47 36.02 123.28 36.02 123.28 34.82 122.08 34.82 122.08 33.63 120.89 33.63 120.89 32.43 119.42 32.43 119.42 33.9 120.61 33.9 120.61 35.09 121.81 35.09 121.81 36.29 123.01 36.29 123.01 37.49 124.2 37.49 124.2 38.68 125.4 38.68 125.4 39.88 126.6 39.88 126.6 41.08 127.79 41.08 127.79 42.27 128.99 42.27 128.99 43.47 130.19 43.47 130.19 44.66 131.38 44.66 131.38 45.86 132.58 45.86 132.58 47.06 133.78 47.06 133.78 48.25 134.97 48.25 134.97 49.45 136.17 49.45 136.17 50.65 137.36 50.65 137.36 51.84 138.83 51.84 138.83 50.38 137.63 50.38" style="fill:#9bf424"/><path d="M29.14,99.14V95.67H25.37v3.77h3.77ZM26,96.27h2.58v2.57H26Zm76.75,48h21.61v-2.78H102.72Zm.59-2.18h20.43v1.58H103.31Zm26.77-54.34h3.38V84.37h-3.38Zm.6-2.78h2.18v2.18h-2.18Zm-9.92-15V67.11h-3.17v3.18h3.17Zm-2.57-2.28h2v2h-2ZM9.11,53.23h4V35.78h-4Zm.6-16.86h2.77V52.64H9.71ZM60.87,152.79h5v-5h-5Zm.6-4.37h3.76v3.77H61.47ZM20.22,163.5H41.44v-3H20.22Zm.59-2.38h20v1.78h-20Zm68.82,4.16H92.8v-3.17H89.63Zm.59-2.58h2v2h-2Zm50-69.21v3.17h3.17V93.49Zm.59.59h2v2h-2Zm-28-64.35V26.46h-3.57V30h3.57Zm-3-2.68h2.38v2.38h-2.38ZM5.94,91.71H9.11V88.53H5.94Zm.59-2.58h2v2h-2Z" style="fill:#9bf424"/></g><path d="M61.13,104.25v21.07L66.66,128s3.92-23.93,0-25.32Z" style="fill:#7b2e52"/><path d="M59.43,125.32c.48-.36,8.15,0,8.15,0v15.22H59.43S57.37,126.88,59.43,125.32Z" style="fill:#451b46"/><polygon points="61.13 94.57 66.71 102.65 67.81 99.83 64.47 92.79 61.13 94.57" style="fill:#776b73"/><rect x="66.66" y="94.7" width="1.38" height="45.84" style="fill:#451b46"/><rect x="61.13" y="109.1" width="6.22" height="1.95" style="fill:#451b46"/><rect x="61.13" y="113.98" width="6.22" height="1.95" style="fill:#451b46"/><path d="M62.31,140.54v14.31h3.25v-4.91a2.25,2.25,0,0,1,2.25-2.25v-7.15Z" style="fill:#ed6555"/><polygon points="59.32 140.54 56.07 140.54 56.07 142.49 57.5 142.49 57.5 149.38 52.04 154.84 62.31 154.84 62.31 140.54 59.32 140.54" style="fill:#00b2e8"/><rect x="52.04" y="154.85" width="15.77" height="5.58" style="fill:#323432"/><path d="M82.29,104.25v21.07l-5.53.78s-3.92-22.06-.05-23.45Z" style="fill:#7b2e52"/><path d="M84,125.32c-.48-.36-8.15,0-8.15,0v15.22H84S86.05,126.88,84,125.32Z" style="fill:#451b46"/><polygon points="82.28 94.57 76.72 102.65 75.61 99.83 78.95 92.79 82.28 94.57" style="fill:#776b73"/><rect x="75.38" y="94.7" width="1.38" height="45.84" transform="translate(152.14 235.23) rotate(180)" style="fill:#451b46"/><rect x="76.07" y="109.1" width="6.22" height="1.95" transform="translate(158.36 220.15) rotate(180)" style="fill:#451b46"/><rect x="76.07" y="113.98" width="6.22" height="1.95" transform="translate(158.36 229.92) rotate(180)" style="fill:#451b46"/><path d="M81.11,140.54v14.31H77.86v-4.91a2.25,2.25,0,0,0-2.25-2.25v-7.15Z" style="fill:#ed6555"/><polygon points="84.1 140.54 87.35 140.54 87.35 142.49 85.92 142.49 85.92 149.38 91.38 154.84 81.11 154.84 81.11 140.54 84.1 140.54" style="fill:#00b2e8"/><rect x="75.61" y="154.85" width="15.77" height="5.58" transform="translate(166.99 315.28) rotate(180)" style="fill:#323432"/><path d="M80.6,41.24c0-4.92-3.72-9-8.26-9H71.08c-4.54,0-8.26,4-8.26,9v5.4H80.6Z" style="fill:#ed6555"/><path d="M78.71,42.11a6.81,6.81,0,0,0-6.51-7h-1a6.81,6.81,0,0,0-6.51,7v4.24h14Z" style="fill:#002c32"/><polygon points="85.04 95.55 88.42 99.53 88.42 105.96 84.28 105.96 84.28 103.51 84.28 96.48 85.04 95.55" style="fill:#1b839c"/><polygon points="84.23 95.55 85.04 95.55 85.04 103.51 83.78 103.51 77.97 95.82 77.97 91.44 71.72 85.19 71.72 83.35 82.12 81.1 84.23 95.55" style="fill:#002c32"/><path d="M85.7,79s-6.54,7.43-14,4.31l12.18-6Z" style="fill:#002c32"/><path d="M84.24,78.88V95.55s-2.84-1.72-3.34-4.44V78.88Z" style="fill:#00b2e8"/><path d="M84.24,75.39,85.7,79s-3.47-.87-4.37,1.48a5,5,0,0,1-2.51,2.72,8.48,8.48,0,0,1-7.11.11v-5.1L80.78,75Z" style="fill:#1b839c"/><polygon points="93.42 49.14 93.42 44.96 89.09 40.64 80.2 40.64 75.62 46.81 81.21 52.64 93.42 52.64 93.42 49.14" style="fill:#374d67"/><path d="M89.85,50.59V48.41l-1.56-.8H71.71v24.8H82.55s5.5-2.59,5.89-8.75Z" style="fill:#00171b"/><polygon points="96.38 60.54 94.32 74.6 92.33 74.6 91.01 63.66 96.38 60.54" style="fill:#1a758b"/><path d="M92.33,74.6l-4.17-6.23a1.73,1.73,0,0,1,.24-2.2L91,63.66Z" style="fill:#00b2e8"/><path d="M91.62,63.3,89.85,50.59,93,49.27a2,2,0,0,1,2.69,1.27l2.74,9.07Z" style="fill:#495c77"/><polygon points="89.18 65.41 85.77 58.35 87.36 55.57 84.71 54.11 84.71 52.98 89.84 50.59 91.63 63.3 91.01 63.66 89.18 65.41" style="fill:#2b3f53"/><path d="M71.71,67.13v4.51a12.92,12.92,0,0,0,9.19-3.81l-3.19-3.19A8.46,8.46,0,0,1,71.71,67.13Z" style="fill:#003539"/><path d="M77.71,52.64a8.46,8.46,0,0,1,2.49,6h4.51a13,13,0,0,0-3.81-9.19Z" style="fill:#147284"/><path d="M77.71,64.64l3.19,3.19a13,13,0,0,0,3.81-9.19H80.2A8.46,8.46,0,0,1,77.71,64.64Z" style="fill:#005762"/><polygon points="76.49 45.64 74.83 44.23 71.71 44.23 71.71 46.02 76.49 48.07 76.49 45.64" style="fill:#00020b"/><path d="M71.71,45.64v4.51a8.5,8.5,0,0,1,6,2.49l3.19-3.19a13,13,0,0,0-9.19-3.81Z" style="fill:#1ca7c9"/><path d="M83.81,71.64s1.23,2-.5,3H71.71V72.41H82.55Z" style="fill:#00b2e8"/><path d="M83.31,74.6l.93.79a4.75,4.75,0,0,0-3.15,1.28,5.59,5.59,0,0,1-3.88,1.58h-5.5V74.6Z" style="fill:#1298ba"/><polygon points="85.04 95.55 85.04 79.72 84.28 80.48 84.28 95.55 85.04 95.55" style="fill:#1b839c"/><path d="M84.28,106H83.05L74.26,94.14a2.82,2.82,0,0,1-.56-1.7V90.65L78,95.82l5.81,7.69h.5Z" style="fill:#c66665"/><polygon points="73.17 86.64 73.17 89.9 73.7 90.65 77.97 95.82 77.97 91.44 73.17 86.64" style="fill:#1b839c"/><polygon points="88.42 105.96 80.13 116.9 76.28 116.9 84.28 105.96 88.42 105.96" style="fill:#00b2e8"/><path d="M79.69,112.24l-6-5.42v2.89a2.62,2.62,0,0,0,.89,2l3.35,3Z" style="fill:#7b2e52"/><path d="M87.33,107.4V112a1.46,1.46,0,0,1-1.46,1.46H82.74Z" style="fill:#f2766d"/><polygon points="86.03 113.46 84.23 122.81 81.86 122.81 81.86 116.9 80.13 116.9 82.74 113.46 86.03 113.46" style="fill:#002c32"/><path d="M75.05,95.2v8.16a5,5,0,0,1-1,3l-.34.45,6,5.42L84.28,106H83.05Z" style="fill:#ed6555"/><path d="M55,124.78h9.33V133H59.26S54.64,124.78,55,124.78Z" style="fill:#745ea7"/><polygon points="49.72 158.92 52.47 161.88 55.32 161.88 55.32 160.34 55.32 155.98 48.76 155.98 49.72 158.92" style="fill:#000002"/><polygon points="87.45 155.98 87.45 160.34 87.45 161.88 90.3 161.88 93.05 158.92 94.01 155.98 87.45 155.98" style="fill:#000002"/><rect x="69.44" y="37.64" width="1.06" height="4.91" style="fill:#fff;stroke:#000;stroke-miterlimit:10"/><rect x="72.89" y="37.64" width="1.06" height="4.91" style="fill:#fff;stroke:#000;stroke-miterlimit:10"/><polygon points="91.85 102.83 87.87 99.57 87.49 102.83 91.85 102.83" style="fill:#1b1b1c"/><path d="M90.2,77.05l2.15,1.75a1.93,1.93,0,0,0,3.15-1.5V72.74H90.2Z" style="fill:#323432"/><rect x="91.48" y="75.1" width="2.74" height="12.52" transform="translate(185.7 162.71) rotate(180)" style="fill:#323432"/><path d="M93.78,80.52l-2.29.11a.9.9,0,0,0-.86,1l1.25,9.49L94.21,91l.52-9.55A.91.91,0,0,0,93.78,80.52Z" style="fill:#ed6555"/><polygon points="91.27 95.49 95.38 95.3 94.24 90.46 91.7 90.46 91.27 95.49" style="fill:#002c32"/><path d="M93.36,95.4a3.13,3.13,0,0,0,0,.65,1.12,1.12,0,0,0,.58.92c.68.38,1.84,1.52,2.16,5a.33.33,0,0,0,.34.29h0a.61.61,0,0,0,.58-.63L96.79,97a.92.92,0,0,0-.3-.63l-1.12-1Z" style="fill:#adada9"/><path d="M93.51,95.39a2.87,2.87,0,0,1,.06.65A1.11,1.11,0,0,1,93,97c-.72.44-1.9,1.69-1.92,5.18a.36.36,0,0,1-.35.33h0A.65.65,0,0,1,90,102l-.22-4.67a.89.89,0,0,1,.27-.66l1.15-1.13Z" style="fill:#374d67"/><path d="M53.22,77.69l-2.16,1.75a1.92,1.92,0,0,1-3.14-1.5V73.38h5.3Z" style="fill:#323432"/><rect x="49.2" y="75.74" width="2.74" height="12.52" style="fill:#323432"/><path d="M49.64,81.16l2.29.11a.91.91,0,0,1,.86,1l-1.25,9.48-2.33-.1-.52-9.56A.91.91,0,0,1,49.64,81.16Z" style="fill:#ed6555"/><polygon points="52.15 96.13 48.04 95.94 49.18 91.1 51.72 91.1 52.15 96.13" style="fill:#002c32"/><path d="M50.06,96a3.13,3.13,0,0,1,0,.65,1.15,1.15,0,0,1-.58.93c-.68.37-1.84,1.51-2.16,5a.33.33,0,0,1-.34.29h0a.61.61,0,0,1-.58-.63l.22-4.67a1,1,0,0,1,.29-.64l1.12-1Z" style="fill:#adada9"/><path d="M49.91,96a2.87,2.87,0,0,0-.06.65,1.09,1.09,0,0,0,.55,1c.72.44,1.9,1.69,1.92,5.19a.35.35,0,0,0,.35.32h0a.65.65,0,0,0,.71-.58l.21-4.67a.84.84,0,0,0-.26-.66l-1.15-1.12Z" style="fill:#374d67"/><circle cx="71.72" cy="58.64" r="5.84" style="fill:#00393b"/><polygon points="58.38 95.55 55 99.53 55 105.96 59.14 105.96 59.14 103.51 59.14 96.48 58.38 95.55" style="fill:#1b839c"/><polygon points="59.18 95.55 58.38 95.55 58.38 103.51 59.64 103.51 65.45 95.82 65.45 91.44 71.69 85.19 71.69 83.35 61.3 81.1 59.18 95.55" style="fill:#002c32"/><path d="M57.72,79s6.54,7.43,14,4.31l-12.18-6Z" style="fill:#002c32"/><path d="M59.18,78.88V95.55s2.84-1.72,3.34-4.44V78.88Z" style="fill:#00b2e8"/><path d="M59.18,75.39,57.72,79s3.47-.87,4.37,1.48a5,5,0,0,0,2.51,2.72,8.48,8.48,0,0,0,7.11.11v-5.1L62.64,75Z" style="fill:#1b839c"/><polygon points="50 49.14 50 44.96 54.33 40.64 63.22 40.64 67.8 46.81 62.21 52.64 50 52.64 50 49.14" style="fill:#374d67"/><path d="M53.57,50.59V48.41l1.56-.8H71.71v24.8H60.87s-5.5-2.59-5.89-8.75Z" style="fill:#002c32"/><polygon points="47.04 60.54 49.1 74.6 51.09 74.6 52.41 63.66 47.04 60.54" style="fill:#1a758b"/><path d="M51.09,74.6l4.17-6.23a1.73,1.73,0,0,0-.24-2.2l-2.61-2.51Z" style="fill:#00b2e8"/><path d="M51.79,63.3l1.78-12.71-3.15-1.32a2,2,0,0,0-2.69,1.27L45,59.61Z" style="fill:#5d7292"/><polygon points="54.24 65.41 57.65 58.35 56.06 55.57 58.71 54.11 58.71 52.98 53.57 50.59 51.79 63.3 52.41 63.66 54.24 65.41" style="fill:#425671"/><path d="M71.71,67.13v4.51a12.92,12.92,0,0,1-9.19-3.81l3.19-3.19A8.46,8.46,0,0,0,71.71,67.13Z" style="fill:#004d58"/><path d="M65.71,52.64a8.46,8.46,0,0,0-2.49,6H58.71a12.92,12.92,0,0,1,3.81-9.19Z" style="fill:#1685a2"/><path d="M65.71,64.64l-3.19,3.19a12.92,12.92,0,0,1-3.81-9.19h4.51A8.46,8.46,0,0,0,65.71,64.64Z" style="fill:#ed6555"/><polygon points="66.93 45.64 68.59 44.23 71.71 44.23 71.71 46.02 66.93 48.07 66.93 45.64" style="fill:#00020b"/><path d="M71.71,45.64v4.51a8.5,8.5,0,0,0-6,2.49l-3.19-3.19a13,13,0,0,1,9.19-3.81Z" style="fill:#00b2e8"/><path d="M59.61,71.64s-1.23,2,.5,3h11.6V72.41H60.87Z" style="fill:#00b2e8"/><path d="M60.11,74.6l-.93.79a4.75,4.75,0,0,1,3.15,1.28,5.57,5.57,0,0,0,3.88,1.58h5.5V74.6Z" style="fill:#1298ba"/><polygon points="58.38 95.55 58.38 79.72 59.14 80.48 59.14 95.55 58.38 95.55" style="fill:#1b839c"/><path d="M59.14,106h1.23l8.79-11.82a2.89,2.89,0,0,0,.56-1.7V90.65l-4.27,5.17-5.81,7.69h-.5Z" style="fill:#c66665"/><polygon points="70.24 86.64 70.24 89.9 69.72 90.65 65.45 95.82 65.45 91.44 70.24 86.64" style="fill:#1b839c"/><polygon points="55 105.96 63.29 116.9 67.13 116.9 59.14 105.96 55 105.96" style="fill:#00b2e8"/><path d="M63.73,112.24l6-5.42v2.89a2.6,2.6,0,0,1-.9,2l-3.34,3Z" style="fill:#7b2e52"/><path d="M56.09,107.4V112a1.46,1.46,0,0,0,1.46,1.46h3.13Z" style="fill:#f2766d"/><polygon points="57.39 113.46 59.18 122.81 61.56 122.81 61.56 116.9 63.29 116.9 60.68 113.46 57.39 113.46" style="fill:#002c32"/><path d="M68.37,95.2v8.16a5,5,0,0,0,1,3l.34.45-6,5.42L59.14,106h1.23Z" style="fill:#ed6555"/><path d="M88,124.78H78.65V133h5.08S88.36,124.78,88,124.78Z" style="fill:#745ea7"/><polygon points="64.07 155.98 64.07 160.34 64.07 161.88 66.92 161.88 69.67 158.92 70.63 155.98 64.07 155.98" style="fill:#000002"/><polygon points="79.35 156.09 79.35 160.44 79.35 161.99 76.5 161.99 73.75 159.03 72.79 156.09 79.35 156.09" style="fill:#000002"/><polygon points="62.52 157.12 60.24 157.12 59.61 157.12 57.33 157.12 57.92 160.06 59.61 162.99 59.61 163.01 59.63 163.01 60.23 163.01 60.24 163.01 60.24 162.99 61.93 160.06 62.52 157.12" style="fill:#000002"/><polygon points="86.3 156.62 84.02 156.62 83.39 156.62 81.11 156.62 81.7 159.56 83.39 162.49 83.39 162.52 83.4 162.52 84 162.52 84.02 162.52 84.02 162.49 85.7 159.56 86.3 156.62" style="fill:#000002"/><path d="M52.8,30.63A1.1,1.1,0,1,1,54,31.81v6.77h1.71v.27H53.77v-7A1.16,1.16,0,0,1,52.8,30.63Z" style="fill:#060a0f"/><polygon points="56.96 40.69 55.38 39.48 55.38 37.91 61.21 37.91 61.21 40.69 56.96 40.69" style="fill:#060a0f"/><path d="M90.62,30.63a1.1,1.1,0,1,0-1.22,1.18v6.77H87.7v.27h2v-7A1.16,1.16,0,0,0,90.62,30.63Z" style="fill:#060a0f"/><polygon points="86.46 40.69 88.03 39.48 88.03 37.91 82.2 37.91 82.2 40.69 86.46 40.69" style="fill:#060a0f"/></g></g></svg>