<svg xmlns="http://www.w3.org/2000/svg" xmlns:xlink="http://www.w3.org/1999/xlink" viewBox="0 0 148.25 207.55"><defs><clipPath id="clip-path"><rect width="148.25" height="207.55" style="fill:none"/></clipPath><linearGradient id="Degradado_sin_nombre_5" x1="-14.83" y1="14.83" x2="163.07" y2="192.72" gradientUnits="userSpaceOnUse"><stop offset="0" stop-color="#fef201"/><stop offset="1" stop-color="#ff1443"/></linearGradient></defs><title>Asset 115</title><g style="isolation:isolate"><g id="Layer_2" data-name="Layer 2"><g id="Layer_3" data-name="Layer 3"><g style="clip-path:url(#clip-path)"><rect width="148.25" height="207.55" style="fill:url(#Degradado_sin_nombre_5)"/><g style="opacity:0.46;mix-blend-mode:soft-light"><circle cx="4.8" cy="8.78" r="1" style="fill:#fef201"/><circle cx="4.8" cy="21.82" r="1" style="fill:#fef201"/><circle cx="4.8" cy="34.87" r="1" style="fill:#fef201"/><circle cx="4.8" cy="47.91" r="1" style="fill:#fef201"/><circle cx="4.8" cy="60.95" r="1" style="fill:#fef201"/><circle cx="4.8" cy="74" r="1" style="fill:#fef201"/><circle cx="4.8" cy="87.04" r="1" style="fill:#fef201"/><circle cx="4.8" cy="100.09" r="1" style="fill:#fef201"/><circle cx="4.8" cy="113.13" r="1" style="fill:#fef201"/><circle cx="4.8" cy="126.18" r="1" style="fill:#fef201"/><circle cx="4.8" cy="139.22" r="1" style="fill:#fef201"/><circle cx="4.8" cy="152.26" r="1" style="fill:#fef201"/><circle cx="4.8" cy="165.31" r="1" style="fill:#fef201"/><circle cx="4.8" cy="178.35" r="1" style="fill:#fef201"/><circle cx="4.8" cy="191.4" r="1" style="fill:#fef201"/><circle cx="4.8" cy="204.44" r="1" style="fill:#fef201"/><path d="M12.15,4.11a1,1,0,1,0,0-2,1,1,0,0,0-1,1A1,1,0,0,0,12.15,4.11Z" style="fill:#fef201"/><path d="M12.18,15.15a1,1,0,1,0,1,1A1,1,0,0,0,12.18,15.15Z" style="fill:#fef201"/><path d="M12.23,28.2a1,1,0,1,0,1,1A1,1,0,0,0,12.23,28.2Z" style="fill:#fef201"/><path d="M12.27,41.24a1,1,0,1,0,0,2,1,1,0,0,0,0-2Z" style="fill:#fef201"/><path d="M12.31,54.28a1,1,0,0,0-1,1,1,1,0,0,0,1,1,1,1,0,1,0,0-2Z" style="fill:#fef201"/><path d="M12.36,67.33a1,1,0,1,0,1,1A1,1,0,0,0,12.36,67.33Z" style="fill:#fef201"/><path d="M12.4,80.37a1,1,0,0,0-1,1,1,1,0,0,0,2,0A1,1,0,0,0,12.4,80.37Z" style="fill:#fef201"/><path d="M12.44,93.42a1,1,0,1,0,0,2,1,1,0,0,0,0-2Z" style="fill:#fef201"/><path d="M12.48,106.46a1,1,0,0,0,0,2,1,1,0,1,0,0-2Z" style="fill:#fef201"/><path d="M12.53,119.51a1,1,0,1,0,0,2,1,1,0,0,0,1-1A1,1,0,0,0,12.53,119.51Z" style="fill:#fef201"/><path d="M12.57,132.55a1,1,0,1,0,1,1A1,1,0,0,0,12.57,132.55Z" style="fill:#fef201"/><path d="M12.61,145.6a1,1,0,0,0-1,1,1,1,0,0,0,1,1,1,1,0,0,0,1-1A1,1,0,0,0,12.61,145.6Z" style="fill:#fef201"/><path d="M12.65,158.64a1,1,0,1,0,1,1A1,1,0,0,0,12.65,158.64Z" style="fill:#fef201"/><path d="M12.7,171.68a1,1,0,0,0-1,1,1,1,0,0,0,2,0A1,1,0,0,0,12.7,171.68Z" style="fill:#fef201"/><path d="M12.74,184.73a1,1,0,1,0,1,1A1,1,0,0,0,12.74,184.73Z" style="fill:#fef201"/><path d="M12.78,197.77a1,1,0,1,0,0,2,1,1,0,0,0,1-1A1,1,0,0,0,12.78,197.77Z" style="fill:#fef201"/><circle cx="21.13" cy="8.78" r="1" style="fill:#fef201"/><circle cx="21.13" cy="21.82" r="1" style="fill:#fef201"/><circle cx="21.13" cy="34.87" r="1" style="fill:#fef201"/><circle cx="21.13" cy="47.91" r="1" style="fill:#fef201"/><circle cx="21.13" cy="60.95" r="1" style="fill:#fef201"/><circle cx="21.13" cy="74" r="1" style="fill:#fef201"/><circle cx="21.13" cy="87.04" r="1" style="fill:#fef201"/><circle cx="21.13" cy="100.09" r="1" style="fill:#fef201"/><circle cx="21.13" cy="113.13" r="1" style="fill:#fef201"/><circle cx="21.13" cy="126.18" r="1" style="fill:#fef201"/><circle cx="21.13" cy="139.22" r="1" style="fill:#fef201"/><circle cx="21.13" cy="152.26" r="1" style="fill:#fef201"/><circle cx="21.13" cy="165.31" r="1" style="fill:#fef201"/><circle cx="21.13" cy="178.35" r="1" style="fill:#fef201"/><circle cx="21.13" cy="191.4" r="1" style="fill:#fef201"/><circle cx="21.13" cy="204.44" r="1" style="fill:#fef201"/><path d="M28.48,4.11a1,1,0,0,0,1-1,1,1,0,1,0-1,1Z" style="fill:#fef201"/><path d="M28.52,15.15a1,1,0,0,0-1,1,1,1,0,1,0,1-1Z" style="fill:#fef201"/><path d="M28.56,28.2a1,1,0,0,0-1,1,1,1,0,0,0,1,1,1,1,0,0,0,0-2Z" style="fill:#fef201"/><path d="M28.6,41.24a1,1,0,0,0,0,2,1,1,0,1,0,0-2Z" style="fill:#fef201"/><path d="M28.65,54.28a1,1,0,0,0-1,1,1,1,0,0,0,1,1,1,1,0,1,0,0-2Z" style="fill:#fef201"/><path d="M28.69,67.33a1,1,0,1,0,1,1A1,1,0,0,0,28.69,67.33Z" style="fill:#fef201"/><path d="M28.73,80.37a1,1,0,1,0,0,2,1,1,0,0,0,1-1A1,1,0,0,0,28.73,80.37Z" style="fill:#fef201"/><path d="M28.77,93.42a1,1,0,0,0,0,2,1,1,0,1,0,0-2Z" style="fill:#fef201"/><path d="M28.82,106.46a1,1,0,1,0,1,1A1,1,0,0,0,28.82,106.46Z" style="fill:#fef201"/><path d="M28.86,119.51a1,1,0,1,0,1,1A1,1,0,0,0,28.86,119.51Z" style="fill:#fef201"/><path d="M28.9,132.55a1,1,0,1,0,1,1A1,1,0,0,0,28.9,132.55Z" style="fill:#fef201"/><path d="M28.94,145.6a1,1,0,0,0,0,2,1,1,0,0,0,1-1A1,1,0,0,0,28.94,145.6Z" style="fill:#fef201"/><path d="M29,158.64a1,1,0,1,0,1,1A1,1,0,0,0,29,158.64Z" style="fill:#fef201"/><path d="M29,171.68a1,1,0,0,0-1,1,1,1,0,0,0,2,0A1,1,0,0,0,29,171.68Z" style="fill:#fef201"/><path d="M29.07,184.73a1,1,0,0,0-1,1,1,1,0,1,0,1-1Z" style="fill:#fef201"/><path d="M29.11,197.77a1,1,0,1,0,1,1A1,1,0,0,0,29.11,197.77Z" style="fill:#fef201"/><circle cx="37.47" cy="8.78" r="1" style="fill:#fef201"/><circle cx="37.47" cy="21.82" r="1" style="fill:#fef201"/><circle cx="37.47" cy="34.87" r="1" style="fill:#fef201"/><circle cx="37.47" cy="47.91" r="1" style="fill:#fef201"/><circle cx="37.47" cy="60.95" r="1" style="fill:#fef201"/><circle cx="37.47" cy="74" r="1" style="fill:#fef201"/><circle cx="37.47" cy="87.04" r="1" style="fill:#fef201"/><circle cx="37.47" cy="100.09" r="1" style="fill:#fef201"/><circle cx="37.47" cy="113.13" r="1" style="fill:#fef201"/><circle cx="37.47" cy="126.18" r="1" style="fill:#fef201"/><circle cx="37.47" cy="139.22" r="1" style="fill:#fef201"/><circle cx="37.47" cy="152.26" r="1" style="fill:#fef201"/><circle cx="37.47" cy="165.31" r="1" style="fill:#fef201"/><circle cx="37.47" cy="178.35" r="1" style="fill:#fef201"/><circle cx="37.47" cy="191.4" r="1" style="fill:#fef201"/><circle cx="37.47" cy="204.44" r="1" style="fill:#fef201"/><path d="M44.82,4.11a1,1,0,1,0-1-1A1,1,0,0,0,44.82,4.11Z" style="fill:#fef201"/><path d="M44.85,15.15a1,1,0,1,0,0,2,1,1,0,0,0,1-1A1,1,0,0,0,44.85,15.15Z" style="fill:#fef201"/><path d="M44.89,28.2a1,1,0,0,0,0,2,1,1,0,0,0,1-1A1,1,0,0,0,44.89,28.2Z" style="fill:#fef201"/><path d="M44.94,41.24a1,1,0,1,0,1,1A1,1,0,0,0,44.94,41.24Z" style="fill:#fef201"/><path d="M45,54.28a1,1,0,0,0-1,1,1,1,0,0,0,2,0A1,1,0,0,0,45,54.28Z" style="fill:#fef201"/><path d="M45,67.33a1,1,0,0,0-1,1,1,1,0,1,0,1-1Z" style="fill:#fef201"/><path d="M45.06,80.37a1,1,0,0,0-1,1,1,1,0,0,0,1,1,1,1,0,1,0,0-2Z" style="fill:#fef201"/><path d="M45.11,93.42a1,1,0,1,0,1,1A1,1,0,0,0,45.11,93.42Z" style="fill:#fef201"/><path d="M45.15,106.46a1,1,0,1,0,0,2,1,1,0,0,0,0-2Z" style="fill:#fef201"/><path d="M45.19,119.51a1,1,0,0,0-1,1,1,1,0,1,0,1-1Z" style="fill:#fef201"/><path d="M45.24,132.55a1,1,0,1,0,1,1A1,1,0,0,0,45.24,132.55Z" style="fill:#fef201"/><path d="M45.28,145.6a1,1,0,1,0,1,1A1,1,0,0,0,45.28,145.6Z" style="fill:#fef201"/><path d="M45.32,158.64a1,1,0,1,0,0,2,1,1,0,0,0,0-2Z" style="fill:#fef201"/><path d="M45.36,171.68a1,1,0,0,0-1,1,1,1,0,0,0,1,1,1,1,0,1,0,0-2Z" style="fill:#fef201"/><path d="M45.41,184.73a1,1,0,1,0,1,1A1,1,0,0,0,45.41,184.73Z" style="fill:#fef201"/><path d="M45.45,197.77a1,1,0,0,0-1,1,1,1,0,1,0,1-1Z" style="fill:#fef201"/><circle cx="53.8" cy="8.78" r="1" style="fill:#fef201"/><circle cx="53.8" cy="21.82" r="1" style="fill:#fef201"/><circle cx="53.8" cy="34.87" r="1" style="fill:#fef201"/><circle cx="53.8" cy="47.91" r="1" style="fill:#fef201"/><circle cx="53.8" cy="60.95" r="1" style="fill:#fef201"/><circle cx="53.8" cy="74" r="1" style="fill:#fef201"/><circle cx="53.8" cy="87.04" r="1" style="fill:#fef201"/><circle cx="53.8" cy="100.09" r="1" style="fill:#fef201"/><circle cx="53.8" cy="113.13" r="1" style="fill:#fef201"/><circle cx="53.8" cy="126.18" r="1" style="fill:#fef201"/><circle cx="53.8" cy="139.22" r="1" style="fill:#fef201"/><circle cx="53.8" cy="152.26" r="1" style="fill:#fef201"/><circle cx="53.8" cy="165.31" r="1" style="fill:#fef201"/><circle cx="53.8" cy="178.35" r="1" style="fill:#fef201"/><circle cx="53.8" cy="191.4" r="1" style="fill:#fef201"/><circle cx="53.8" cy="204.44" r="1" style="fill:#fef201"/><path d="M61.15,4.11a1,1,0,1,0,0-2,1,1,0,0,0-1,1A1,1,0,0,0,61.15,4.11Z" style="fill:#fef201"/><path d="M61.18,15.15a1,1,0,1,0,1,1A1,1,0,0,0,61.18,15.15Z" style="fill:#fef201"/><path d="M61.23,28.2a1,1,0,1,0,1,1A1,1,0,0,0,61.23,28.2Z" style="fill:#fef201"/><path d="M61.27,41.24a1,1,0,1,0,0,2,1,1,0,0,0,0-2Z" style="fill:#fef201"/><path d="M61.31,54.28a1,1,0,0,0-1,1,1,1,0,0,0,1,1,1,1,0,1,0,0-2Z" style="fill:#fef201"/><path d="M61.36,67.33a1,1,0,1,0,1,1A1,1,0,0,0,61.36,67.33Z" style="fill:#fef201"/><path d="M61.4,80.37a1,1,0,0,0-1,1,1,1,0,0,0,2,0A1,1,0,0,0,61.4,80.37Z" style="fill:#fef201"/><path d="M61.44,93.42a1,1,0,1,0,0,2,1,1,0,0,0,0-2Z" style="fill:#fef201"/><path d="M61.48,106.46a1,1,0,0,0,0,2,1,1,0,1,0,0-2Z" style="fill:#fef201"/><path d="M61.53,119.51a1,1,0,0,0,0,2,1,1,0,0,0,1-1A1,1,0,0,0,61.53,119.51Z" style="fill:#fef201"/><path d="M61.57,132.55a1,1,0,1,0,1,1A1,1,0,0,0,61.57,132.55Z" style="fill:#fef201"/><path d="M61.61,145.6a1,1,0,0,0-1,1,1,1,0,0,0,1,1,1,1,0,0,0,1-1A1,1,0,0,0,61.61,145.6Z" style="fill:#fef201"/><path d="M61.65,158.64a1,1,0,1,0,1,1A1,1,0,0,0,61.65,158.64Z" style="fill:#fef201"/><path d="M61.7,171.68a1,1,0,0,0-1,1,1,1,0,0,0,2,0A1,1,0,0,0,61.7,171.68Z" style="fill:#fef201"/><path d="M61.74,184.73a1,1,0,1,0,1,1A1,1,0,0,0,61.74,184.73Z" style="fill:#fef201"/><path d="M61.78,197.77a1,1,0,1,0,0,2,1,1,0,0,0,1-1A1,1,0,0,0,61.78,197.77Z" style="fill:#fef201"/><circle cx="70.13" cy="8.78" r="1" style="fill:#fef201"/><circle cx="70.13" cy="21.82" r="1" style="fill:#fef201"/><circle cx="70.13" cy="34.87" r="1" style="fill:#fef201"/><circle cx="70.13" cy="47.91" r="1" style="fill:#fef201"/><circle cx="70.13" cy="60.95" r="1" style="fill:#fef201"/><circle cx="70.13" cy="74" r="1" style="fill:#fef201"/><circle cx="70.13" cy="87.04" r="1" style="fill:#fef201"/><circle cx="70.13" cy="100.09" r="1" style="fill:#fef201"/><circle cx="70.13" cy="113.13" r="1" style="fill:#fef201"/><circle cx="70.13" cy="126.18" r="1" style="fill:#fef201"/><circle cx="70.13" cy="139.22" r="1" style="fill:#fef201"/><circle cx="70.13" cy="152.26" r="1" style="fill:#fef201"/><circle cx="70.13" cy="165.31" r="1" style="fill:#fef201"/><circle cx="70.13" cy="178.35" r="1" style="fill:#fef201"/><circle cx="70.13" cy="191.4" r="1" style="fill:#fef201"/><circle cx="70.13" cy="204.44" r="1" style="fill:#fef201"/><path d="M77.48,4.11a1,1,0,0,0,1-1,1,1,0,1,0-1,1Z" style="fill:#fef201"/><path d="M77.52,15.15a1,1,0,0,0-1,1,1,1,0,1,0,1-1Z" style="fill:#fef201"/><path d="M77.56,28.2a1,1,0,0,0-1,1,1,1,0,0,0,1,1,1,1,0,0,0,0-2Z" style="fill:#fef201"/><path d="M77.6,41.24a1,1,0,0,0,0,2,1,1,0,1,0,0-2Z" style="fill:#fef201"/><path d="M77.65,54.28a1,1,0,0,0-1,1,1,1,0,0,0,1,1,1,1,0,0,0,0-2Z" style="fill:#fef201"/><path d="M77.69,67.33a1,1,0,1,0,1,1A1,1,0,0,0,77.69,67.33Z" style="fill:#fef201"/><path d="M77.73,80.37a1,1,0,1,0,0,2,1,1,0,0,0,1-1A1,1,0,0,0,77.73,80.37Z" style="fill:#fef201"/><path d="M77.77,93.42a1,1,0,0,0,0,2,1,1,0,1,0,0-2Z" style="fill:#fef201"/><path d="M77.82,106.46a1,1,0,1,0,1,1A1,1,0,0,0,77.82,106.46Z" style="fill:#fef201"/><path d="M77.86,119.51a1,1,0,1,0,1,1A1,1,0,0,0,77.86,119.51Z" style="fill:#fef201"/><path d="M77.9,132.55a1,1,0,1,0,1,1A1,1,0,0,0,77.9,132.55Z" style="fill:#fef201"/><path d="M77.94,145.6a1,1,0,0,0,0,2,1,1,0,0,0,1-1A1,1,0,0,0,77.94,145.6Z" style="fill:#fef201"/><path d="M78,158.64a1,1,0,1,0,1,1A1,1,0,0,0,78,158.64Z" style="fill:#fef201"/><path d="M78,171.68a1,1,0,0,0-1,1,1,1,0,0,0,2,0A1,1,0,0,0,78,171.68Z" style="fill:#fef201"/><path d="M78.07,184.73a1,1,0,0,0-1,1,1,1,0,1,0,1-1Z" style="fill:#fef201"/><path d="M78.11,197.77a1,1,0,1,0,1,1A1,1,0,0,0,78.11,197.77Z" style="fill:#fef201"/><circle cx="86.47" cy="8.78" r="1" style="fill:#fef201"/><circle cx="86.47" cy="21.82" r="1" style="fill:#fef201"/><circle cx="86.47" cy="34.87" r="1" style="fill:#fef201"/><circle cx="86.47" cy="47.91" r="1" style="fill:#fef201"/><circle cx="86.47" cy="60.95" r="1" style="fill:#fef201"/><circle cx="86.47" cy="74" r="1" style="fill:#fef201"/><circle cx="86.47" cy="87.04" r="1" style="fill:#fef201"/><circle cx="86.47" cy="100.09" r="1" style="fill:#fef201"/><circle cx="86.47" cy="113.13" r="1" style="fill:#fef201"/><circle cx="86.47" cy="126.18" r="1" style="fill:#fef201"/><circle cx="86.47" cy="139.22" r="1" style="fill:#fef201"/><circle cx="86.47" cy="152.26" r="1" style="fill:#fef201"/><circle cx="86.47" cy="165.31" r="1" style="fill:#fef201"/><circle cx="86.47" cy="178.35" r="1" style="fill:#fef201"/><circle cx="86.47" cy="191.4" r="1" style="fill:#fef201"/><circle cx="86.47" cy="204.44" r="1" style="fill:#fef201"/><path d="M93.82,4.11a1,1,0,1,0-1-1A1,1,0,0,0,93.82,4.11Z" style="fill:#fef201"/><path d="M93.85,15.15a1,1,0,1,0,0,2,1,1,0,0,0,1-1A1,1,0,0,0,93.85,15.15Z" style="fill:#fef201"/><path d="M93.89,28.2a1,1,0,0,0,0,2,1,1,0,0,0,1-1A1,1,0,0,0,93.89,28.2Z" style="fill:#fef201"/><path d="M93.94,41.24a1,1,0,1,0,1,1A1,1,0,0,0,93.94,41.24Z" style="fill:#fef201"/><path d="M94,54.28a1,1,0,0,0-1,1,1,1,0,0,0,2,0A1,1,0,0,0,94,54.28Z" style="fill:#fef201"/><path d="M94,67.33a1,1,0,0,0-1,1,1,1,0,1,0,1-1Z" style="fill:#fef201"/><path d="M94.06,80.37a1,1,0,0,0-1,1,1,1,0,0,0,1,1,1,1,0,1,0,0-2Z" style="fill:#fef201"/><path d="M94.11,93.42a1,1,0,1,0,1,1A1,1,0,0,0,94.11,93.42Z" style="fill:#fef201"/><path d="M94.15,106.46a1,1,0,1,0,0,2,1,1,0,0,0,0-2Z" style="fill:#fef201"/><path d="M94.19,119.51a1,1,0,0,0-1,1,1,1,0,1,0,1-1Z" style="fill:#fef201"/><path d="M94.24,132.55a1,1,0,1,0,1,1A1,1,0,0,0,94.24,132.55Z" style="fill:#fef201"/><path d="M94.28,145.6a1,1,0,1,0,1,1A1,1,0,0,0,94.28,145.6Z" style="fill:#fef201"/><path d="M94.32,158.64a1,1,0,1,0,0,2,1,1,0,0,0,0-2Z" style="fill:#fef201"/><path d="M94.36,171.68a1,1,0,0,0-1,1,1,1,0,0,0,1,1,1,1,0,1,0,0-2Z" style="fill:#fef201"/><path d="M94.41,184.73a1,1,0,1,0,1,1A1,1,0,0,0,94.41,184.73Z" style="fill:#fef201"/><path d="M94.45,197.77a1,1,0,0,0-1,1,1,1,0,1,0,1-1Z" style="fill:#fef201"/><circle cx="102.8" cy="8.78" r="1" style="fill:#fef201"/><circle cx="102.8" cy="21.82" r="1" style="fill:#fef201"/><circle cx="102.8" cy="34.87" r="1" style="fill:#fef201"/><circle cx="102.8" cy="47.91" r="1" style="fill:#fef201"/><circle cx="102.8" cy="60.95" r="1" style="fill:#fef201"/><circle cx="102.8" cy="74" r="1" style="fill:#fef201"/><circle cx="102.8" cy="87.04" r="1" style="fill:#fef201"/><circle cx="102.8" cy="100.09" r="1" style="fill:#fef201"/><circle cx="102.8" cy="113.13" r="1" style="fill:#fef201"/><circle cx="102.8" cy="126.18" r="1" style="fill:#fef201"/><circle cx="102.8" cy="139.22" r="1" style="fill:#fef201"/><circle cx="102.8" cy="152.26" r="1" style="fill:#fef201"/><circle cx="102.8" cy="165.31" r="1" style="fill:#fef201"/><circle cx="102.8" cy="178.35" r="1" style="fill:#fef201"/><circle cx="102.8" cy="191.4" r="1" style="fill:#fef201"/><circle cx="102.8" cy="204.44" r="1" style="fill:#fef201"/><path d="M110.15,4.11a1,1,0,1,0,0-2,1,1,0,0,0-1,1A1,1,0,0,0,110.15,4.11Z" style="fill:#fef201"/><path d="M110.18,15.15a1,1,0,1,0,1,1A1,1,0,0,0,110.18,15.15Z" style="fill:#fef201"/><path d="M110.23,28.2a1,1,0,1,0,1,1A1,1,0,0,0,110.23,28.2Z" style="fill:#fef201"/><path d="M110.27,41.24a1,1,0,1,0,0,2,1,1,0,0,0,0-2Z" style="fill:#fef201"/><path d="M110.31,54.28a1,1,0,0,0-1,1,1,1,0,0,0,1,1,1,1,0,1,0,0-2Z" style="fill:#fef201"/><path d="M110.36,67.33a1,1,0,1,0,1,1A1,1,0,0,0,110.36,67.33Z" style="fill:#fef201"/><path d="M110.4,80.37a1,1,0,0,0-1,1,1,1,0,0,0,2,0A1,1,0,0,0,110.4,80.37Z" style="fill:#fef201"/><path d="M110.44,93.42a1,1,0,1,0,0,2,1,1,0,0,0,0-2Z" style="fill:#fef201"/><path d="M110.48,106.46a1,1,0,0,0,0,2,1,1,0,1,0,0-2Z" style="fill:#fef201"/><path d="M110.53,119.51a1,1,0,0,0,0,2,1,1,0,0,0,1-1A1,1,0,0,0,110.53,119.51Z" style="fill:#fef201"/><path d="M110.57,132.55a1,1,0,1,0,1,1A1,1,0,0,0,110.57,132.55Z" style="fill:#fef201"/><path d="M110.61,145.6a1,1,0,0,0-1,1,1,1,0,0,0,1,1,1,1,0,0,0,1-1A1,1,0,0,0,110.61,145.6Z" style="fill:#fef201"/><path d="M110.65,158.64a1,1,0,1,0,1,1A1,1,0,0,0,110.65,158.64Z" style="fill:#fef201"/><path d="M110.7,171.68a1,1,0,0,0-1,1,1,1,0,0,0,2,0A1,1,0,0,0,110.7,171.68Z" style="fill:#fef201"/><path d="M110.74,184.73a1,1,0,1,0,1,1A1,1,0,0,0,110.74,184.73Z" style="fill:#fef201"/><path d="M110.78,197.77a1,1,0,1,0,0,2,1,1,0,0,0,1-1A1,1,0,0,0,110.78,197.77Z" style="fill:#fef201"/><circle cx="119.13" cy="8.78" r="1" style="fill:#fef201"/><circle cx="119.13" cy="21.82" r="1" style="fill:#fef201"/><circle cx="119.13" cy="34.87" r="1" style="fill:#fef201"/><circle cx="119.13" cy="47.91" r="1" style="fill:#fef201"/><circle cx="119.13" cy="60.95" r="1" style="fill:#fef201"/><circle cx="119.13" cy="74" r="1" style="fill:#fef201"/><circle cx="119.13" cy="87.04" r="1" style="fill:#fef201"/><circle cx="119.13" cy="100.09" r="1" style="fill:#fef201"/><circle cx="119.13" cy="113.13" r="1" style="fill:#fef201"/><circle cx="119.13" cy="126.18" r="1" style="fill:#fef201"/><circle cx="119.13" cy="139.22" r="1" style="fill:#fef201"/><circle cx="119.13" cy="152.26" r="1" style="fill:#fef201"/><circle cx="119.13" cy="165.31" r="1" style="fill:#fef201"/><circle cx="119.13" cy="178.35" r="1" style="fill:#fef201"/><circle cx="119.13" cy="191.4" r="1" style="fill:#fef201"/><circle cx="119.13" cy="204.44" r="1" style="fill:#fef201"/><path d="M126.48,4.11a1,1,0,0,0,1-1,1,1,0,1,0-1,1Z" style="fill:#fef201"/><path d="M126.52,15.15a1,1,0,0,0-1,1,1,1,0,1,0,1-1Z" style="fill:#fef201"/><path d="M126.56,28.2a1,1,0,0,0-1,1,1,1,0,0,0,1,1,1,1,0,0,0,0-2Z" style="fill:#fef201"/><path d="M126.6,41.24a1,1,0,0,0,0,2,1,1,0,1,0,0-2Z" style="fill:#fef201"/><path d="M126.65,54.28a1,1,0,0,0-1,1,1,1,0,0,0,1,1,1,1,0,0,0,0-2Z" style="fill:#fef201"/><path d="M126.69,67.33a1,1,0,1,0,1,1A1,1,0,0,0,126.69,67.33Z" style="fill:#fef201"/><path d="M126.73,80.37a1,1,0,1,0,0,2,1,1,0,0,0,1-1A1,1,0,0,0,126.73,80.37Z" style="fill:#fef201"/><path d="M126.77,93.42a1,1,0,0,0,0,2,1,1,0,1,0,0-2Z" style="fill:#fef201"/><path d="M126.82,106.46a1,1,0,1,0,1,1A1,1,0,0,0,126.82,106.46Z" style="fill:#fef201"/><path d="M126.86,119.51a1,1,0,1,0,1,1A1,1,0,0,0,126.86,119.51Z" style="fill:#fef201"/><path d="M126.9,132.55a1,1,0,1,0,1,1A1,1,0,0,0,126.9,132.55Z" style="fill:#fef201"/><path d="M126.94,145.6a1,1,0,0,0,0,2,1,1,0,0,0,1-1A1,1,0,0,0,126.94,145.6Z" style="fill:#fef201"/><path d="M127,158.64a1,1,0,1,0,1,1A1,1,0,0,0,127,158.64Z" style="fill:#fef201"/><path d="M127,171.68a1,1,0,0,0-1,1,1,1,0,0,0,2,0A1,1,0,0,0,127,171.68Z" style="fill:#fef201"/><path d="M127.07,184.73a1,1,0,0,0-1,1,1,1,0,1,0,1-1Z" style="fill:#fef201"/><path d="M127.11,197.77a1,1,0,1,0,1,1A1,1,0,0,0,127.11,197.77Z" style="fill:#fef201"/><circle cx="135.47" cy="8.78" r="1" style="fill:#fef201"/><circle cx="135.47" cy="21.82" r="1" style="fill:#fef201"/><circle cx="135.47" cy="34.87" r="1" style="fill:#fef201"/><circle cx="135.47" cy="47.91" r="1" style="fill:#fef201"/><circle cx="135.47" cy="60.95" r="1" style="fill:#fef201"/><circle cx="135.47" cy="74" r="1" style="fill:#fef201"/><circle cx="135.47" cy="87.04" r="1" style="fill:#fef201"/><circle cx="135.47" cy="100.09" r="1" style="fill:#fef201"/><circle cx="135.47" cy="113.13" r="1" style="fill:#fef201"/><circle cx="135.47" cy="126.18" r="1" style="fill:#fef201"/><circle cx="135.47" cy="139.22" r="1" style="fill:#fef201"/><circle cx="135.47" cy="152.26" r="1" style="fill:#fef201"/><circle cx="135.47" cy="165.31" r="1" style="fill:#fef201"/><circle cx="135.47" cy="178.35" r="1" style="fill:#fef201"/><circle cx="135.47" cy="191.4" r="1" style="fill:#fef201"/><circle cx="135.47" cy="204.44" r="1" style="fill:#fef201"/><path d="M142.82,4.11a1,1,0,1,0-1-1A1,1,0,0,0,142.82,4.11Z" style="fill:#fef201"/><path d="M142.85,15.15a1,1,0,1,0,0,2,1,1,0,0,0,1-1A1,1,0,0,0,142.85,15.15Z" style="fill:#fef201"/><path d="M142.89,28.2a1,1,0,0,0,0,2,1,1,0,0,0,1-1A1,1,0,0,0,142.89,28.2Z" style="fill:#fef201"/><path d="M142.94,41.24a1,1,0,1,0,1,1A1,1,0,0,0,142.94,41.24Z" style="fill:#fef201"/><path d="M143,54.28a1,1,0,0,0-1,1,1,1,0,0,0,2,0A1,1,0,0,0,143,54.28Z" style="fill:#fef201"/><path d="M143,67.33a1,1,0,0,0-1,1,1,1,0,1,0,1-1Z" style="fill:#fef201"/><path d="M143.06,80.37a1,1,0,0,0-1,1,1,1,0,0,0,1,1,1,1,0,1,0,0-2Z" style="fill:#fef201"/><path d="M143.11,93.42a1,1,0,1,0,1,1A1,1,0,0,0,143.11,93.42Z" style="fill:#fef201"/><path d="M143.15,106.46a1,1,0,1,0,0,2,1,1,0,0,0,0-2Z" style="fill:#fef201"/><path d="M143.19,119.51a1,1,0,0,0-1,1,1,1,0,1,0,1-1Z" style="fill:#fef201"/><path d="M143.24,132.55a1,1,0,1,0,1,1A1,1,0,0,0,143.24,132.55Z" style="fill:#fef201"/><path d="M143.28,145.6a1,1,0,1,0,1,1A1,1,0,0,0,143.28,145.6Z" style="fill:#fef201"/><path d="M143.32,158.64a1,1,0,1,0,0,2,1,1,0,0,0,0-2Z" style="fill:#fef201"/><path d="M143.36,171.68a1,1,0,0,0-1,1,1,1,0,0,0,1,1,1,1,0,1,0,0-2Z" style="fill:#fef201"/><path d="M143.41,184.73a1,1,0,1,0,1,1A1,1,0,0,0,143.41,184.73Z" style="fill:#fef201"/><path d="M143.45,197.77a1,1,0,0,0-1,1,1,1,0,1,0,1-1Z" style="fill:#fef201"/></g></g><g style="opacity:0.45"><polygon points="80.36 40.2 73.51 40.2 8.1 105.61 8.1 112.45 80.36 40.2" style="fill:#00158e;opacity:0.2"/><polygon points="99.61 40.2 92.76 40.2 8.1 124.85 8.1 131.7 99.61 40.2" style="fill:#00158e;opacity:0.2"/><polygon points="61.11 40.2 54.27 40.2 8.1 86.36 8.1 93.21 61.11 40.2" style="fill:#00158e;opacity:0.2"/><polygon points="41.86 40.2 35.02 40.2 8.1 67.11 8.1 73.96 41.86 40.2" style="fill:#00158e;opacity:0.2"/><polygon points="22.62 40.2 15.77 40.2 8.1 47.86 8.1 54.71 22.62 40.2" style="fill:#00158e;opacity:0.2"/><path d="M108.1,40.2v3.91L11.81,140.4H8.1v30.51H138.82V40.2Zm0,100.2H95.65L108.1,128Zm0-19.3L88.8,140.4H76.4l31.7-31.7Zm0-19.25L69.56,140.4H57.15L108.1,89.45Zm0-19.25L50.31,140.4H37.91L108.1,70.2Zm0-19.24-77,77H18.66L108.1,51Z" style="fill:#00158e;opacity:0.2"/><polygon points="135.94 168.5 135.94 142.05 131.16 146.84 131.16 163.71 114.28 163.71 109.5 168.5 135.94 168.5" style="fill:#0751cf"/><rect x="137.39" y="71.65" width="2.99" height="35.67" style="fill:gold"/><rect x="137.39" y="114.49" width="2.99" height="4.98" style="fill:gold"/><rect x="26.4" y="170.08" width="48.42" height="2.39" style="fill:gold"/><polygon points="23.9 160.58 27.76 160.58 31.88 156.46 25.44 156.46 16.15 165.74 18.74 165.74 23.9 160.58" style="fill:gold"/><polygon points="32.27 160.58 36.13 160.58 40.26 156.46 33.81 156.46 24.53 165.74 27.11 165.74 32.27 160.58" style="fill:gold"/><polygon points="40.65 160.58 44.51 160.58 48.63 156.46 42.19 156.46 32.9 165.74 35.48 165.74 40.65 160.58" style="fill:gold"/><polygon points="49.02 160.58 52.88 160.58 57.01 156.46 50.56 156.46 41.28 165.74 43.86 165.74 49.02 160.58" style="fill:gold"/><polygon points="57.4 160.58 61.26 160.58 65.38 156.46 58.94 156.46 49.65 165.74 52.23 165.74 57.4 160.58" style="fill:gold"/><polygon points="65.77 160.58 69.63 160.58 73.75 156.46 67.31 156.46 58.03 165.74 60.61 165.74 65.77 160.58" style="fill:gold"/><polygon points="74.15 160.58 78.01 160.58 82.13 156.46 75.69 156.46 66.4 165.74 68.98 165.74 74.15 160.58" style="fill:gold"/><polygon points="82.52 160.58 86.38 160.58 90.5 156.46 84.06 156.46 74.77 165.74 77.36 165.74 82.52 160.58" style="fill:gold"/><path d="M125.13,35.49H110.19V31.9h14.94Zm-14.34-.6h13.75V32.5H110.79Z" style="fill:#0751cf"/><path d="M142.87,143.28h-2.59V131.93h2.59Zm-2-.59h1.39V132.52h-1.39Z" style="fill:#0751cf"/><path d="M101.82,179H84.49v-3.79h17.33Zm-16.74-.6h16.14v-2.59H85.08Z" style="fill:#0751cf"/><path d="M16.14,178.15H9.57v-2.39h6.57Zm-6-.59h5.38v-1.2H10.16Z" style="fill:gold"/><path d="M5.78,166.6H3.39V146.67H5.78ZM4,166H5.18V147.27H4Z" style="fill:gold"/><polygon points="94.75 34.58 94.75 34.43 26.95 34.43 26.95 33.06 94.6 33.06 94.6 34.58 94.75 34.58 94.75 34.43 94.75 34.58 94.9 34.58 94.9 32.76 26.65 32.76 26.65 34.73 94.9 34.73 94.9 34.58 94.75 34.58" style="fill:gold"/></g><polygon points="73.04 37.34 73.04 37.13 68.4 37.13 66.52 44.12 73.04 44.12 73.04 37.34" style="fill:#2f214c"/><polygon points="73.04 44.12 79.56 44.12 77.68 37.13 73.04 37.13 73.04 37.34 73.04 44.12" style="fill:#191130"/><path d="M84.31,46.25V38.9a1.28,1.28,0,1,1,.3,0v7.64H82.32v-.29Z" style="fill:#060a0f"/><polygon points="80.48 47.8 82.32 47.22 82.32 45.52 75.5 45.52 75.5 47.8 80.48 47.8" style="fill:#060a0f"/><path d="M62.18,46.25V38.9a1.28,1.28,0,1,0-.29,0v7.64h2.29v-.29Z" style="fill:#060a0f"/><polygon points="66.02 47.8 64.18 47.22 64.18 45.52 71 45.52 71 47.8 66.02 47.8" style="fill:#060a0f"/><rect x="66.52" y="44.12" width="13.04" height="2.4" style="fill:#191130"/><polygon points="73.2 48.68 65.98 48.68 62.21 52.45 62.21 53.95 73.2 53.95 73.2 48.68" style="fill:#f27679"/><polygon points="59.16 82.11 59.16 95.44 63.44 95.44 64.15 94.51 70.81 94.51 70.81 87.49 59.16 82.11" style="fill:#818384"/><polygon points="73.2 78.23 55.4 69.55 61.26 87.16 73.2 87.16 73.2 78.23" style="fill:#46202d"/><polygon points="73.2 86.66 61.52 86.66 55.94 69.55 55.15 69.8 60.91 87.49 73.2 87.49 73.2 86.66" style="fill:#67587d"/><polygon points="73.2 83.97 62.84 83.97 57.26 66.86 56.47 67.11 62.24 84.79 73.2 84.79 73.2 83.97" style="fill:#67587d"/><polygon points="73.2 81.28 64.25 81.28 58.67 64.17 57.88 64.42 63.65 82.11 73.2 82.11 73.2 81.28" style="fill:#67587d"/><polyline points="58.99 95.44 57.88 95.44 57.88 111.09 63.69 117.75 63.69 95.44 58.99 95.44" style="fill:#67587d"/><polygon points="63.69 117.75 70.81 108.03 70.81 94.51 64.36 94.51 63.69 95.44 63.69 117.75" style="fill:#291d40"/><polygon points="73.2 73.76 70 73.76 56.58 66.06 56.58 68.77 54.51 68.77 66.64 79.42 73.2 79.42 73.2 73.76" style="fill:#f27679"/><polygon points="73.2 53.95 67.52 53.95 66.02 52.45 57.6 52.45 57.6 67.67 70 75.69 73.2 74.27 73.2 53.95" style="fill:#7a2442"/><rect x="54.51" y="68.15" width="1.38" height="10.44" style="fill:#38333a"/><polygon points="43.09 74.2 40.99 74.2 40.99 85.5 53.1 94.57 53.1 87.68 54 86.77 54 78.61 50.1 74.71 43.09 74.2" style="fill:#49464c"/><polygon points="43.09 61.63 43.09 74.2 50.06 75.38 53.54 80.22 54.51 79.66 54.51 72.16 43.94 61.6 43.09 61.63" style="fill:#67587d"/><rect x="54.51" y="52.45" width="2.07" height="16.32" style="fill:#747679"/><polygon points="54.51 52.45 53.76 51.7 49.04 51.7 42.08 58.91 44.98 66.7 48.29 66.7 50.37 72.16 54.51 72.16 54.51 52.45" style="fill:#af9dbc"/><rect x="56.58" y="52.45" width="2.58" height="16.32" style="fill:#46202d"/><polygon points="73.2 56.26 61.02 56.26 61.02 69.89 69.61 75.83 73.2 75.83 73.2 56.26" style="fill:#46202d"/><rect x="65.67" y="87.49" width="5.13" height="7.03" style="fill:#af9dbc"/><polygon points="57.88 95.44 60.91 87.49 65.67 87.49 65.67 94.51 64.75 95.44 57.88 95.44" style="fill:#55466a"/><polygon points="73.2 87.49 70.81 87.49 70.81 101.03 73.2 91.88 73.2 87.49" style="fill:#291d40"/><polygon points="57.88 111.09 57.88 126.33 65.67 126.33 69.37 109.98 57.88 111.09" style="fill:#403356"/><polygon points="44.98 66.7 40.99 74.2 43.35 74.24 48.29 66.7 44.98 66.7" style="fill:#f27679"/><polygon points="73.2 75.83 69.61 75.83 66.64 79.42 73.2 79.42 73.2 75.83" style="fill:#c55e67"/><polygon points="61.02 56.26 61.02 74.49 63.69 76.78 63.69 56.26 61.02 56.26" style="fill:#c55e67"/><rect x="61.02" y="56.26" width="12.17" height="3.22" style="fill:#ae4a58"/><path d="M57.92,110.36l-2.2,7.53V123H54.2s.13,2.55,3.07,2v1.76H61v-4.7l4.7-4.05V107.61Z" style="fill:#af9dbc"/><polygon points="60.96 122.12 60.96 140.48 63.39 140.48 63.39 120.02 60.96 122.12" style="fill:#67587d"/><polygon points="57.27 126.82 54.88 126.82 54.88 131.56 55.72 132.72 55.72 139.82 60.96 140.48 60.96 126.82 57.27 126.82" style="fill:#1f2320"/><path d="M58.05,141.83a6.06,6.06,0,0,0-3.55,6.92h5.69v-8.36S57.92,140.32,58.05,141.83Z" style="fill:#f27679"/><polyline points="55.72 139.82 58.05 141.83 60.19 140.39 56.04 139.82" style="fill:#c55e67"/><polygon points="55.72 148.75 55.72 151.06 57.92 152.82 55.33 154.81 55.33 157.67 55.33 167.53 59.36 167.53 59.36 148.75 55.72 148.75" style="fill:#c55e67"/><path d="M60.19,148.78s3.3-.09,3.2,0,0-8.3,0-8.3h-3.2Z" style="fill:#353836"/><rect x="59.36" y="147.97" width="4.03" height="4.79" style="fill:#111514"/><rect x="59.36" y="152.77" width="4.03" height="14.76" style="fill:#111514"/><polygon points="60.8 158.14 65.98 163.09 64.45 167.28 60.8 167.28 60.8 158.14" style="fill:#111514"/><rect x="53.1" y="166.18" width="12.89" height="1.74" style="fill:#111514"/><path d="M42.68,103.14l2.48.33a1,1,0,0,1,.83,1.21l-2.24,10.2-2.53-.34.33-10.44A1,1,0,0,1,42.68,103.14Z" style="fill:#1f2320"/><rect x="39.88" y="114.09" width="4.49" height="5.29" transform="translate(15.8 -4.54) rotate(7.6)" style="fill:#291d40"/><path d="M41.74,119.35a3.06,3.06,0,0,1-.06.71,1.23,1.23,0,0,1-.71,1c-.77.35-2.14,1.48-2.83,5.23a.35.35,0,0,1-.39.29h0a.67.67,0,0,1-.57-.75l.68-5.06a1,1,0,0,1,.38-.66l1.31-1Z" style="fill:#b0b4a8"/><path d="M41.58,119.33a3.19,3.19,0,0,0-.14.7,1.2,1.2,0,0,0,.51,1.11c.74.55,1.91,2,1.61,5.82a.37.37,0,0,0,.34.39h0a.72.72,0,0,0,.83-.56l.67-5.06a.93.93,0,0,0-.23-.74L44,119.66Z" style="fill:#d2d4cf"/><path d="M44,88.69l-2.46-.46a1.57,1.57,0,0,0-1.85,1.66L41,105.61l5.63,1L49,93.92S43.82,92.2,44,88.69Z" style="fill:#af9dbc"/><polygon points="65.66 107.61 70.81 108.03 69.37 109.98 65.67 110.63 65.66 107.61" style="fill:#67587d"/><rect x="63.39" y="126.33" width="1.22" height="36.38" style="fill:#f27679"/><circle cx="46.44" cy="87.98" r="3.61" transform="translate(-48.07 56.93) rotate(-43.98)" style="fill:#f27679"/><path d="M45,91v2.92a.67.67,0,0,0,.18.44l1,.94a.67.67,0,0,1,.18.44v6a.62.62,0,0,0,.62.62h0a.61.61,0,0,0,.61-.51l2.28-12.64a.62.62,0,0,0-.89-.66l-3.6,1.86A.63.63,0,0,0,45,91Z" style="fill:#291d40"/><path d="M50.8,48.94l.31,2.9a.61.61,0,0,0,.23.42l1,.84a.61.61,0,0,1,.23.41l.65,6a.63.63,0,0,0,.69.55h0a.63.63,0,0,0,.55-.58l.9-12.81a.62.62,0,0,0-1-.56l-3.37,2.24A.61.61,0,0,0,50.8,48.94Z" style="fill:#55466a"/><rect x="53.46" y="118.16" width="3.81" height="8.66" style="fill:#55466a"/><polygon points="64.61 126.33 70.81 126.33 64.61 146.31 64.61 126.33" style="fill:#291d40"/><polygon points="55.35 152.39 51.58 152.39 55.35 164.56 55.35 152.39" style="fill:#291d40"/><polygon points="72.99 48.68 80.21 48.68 83.98 52.45 83.98 53.95 72.99 53.95 72.99 48.68" style="fill:#f27679"/><polygon points="87.03 82.11 87.03 95.44 82.74 95.44 82.03 94.51 75.38 94.51 75.38 87.49 87.03 82.11" style="fill:#818384"/><polygon points="72.99 78.23 90.79 69.55 84.93 87.16 72.99 87.16 72.99 78.23" style="fill:#361827"/><polygon points="72.99 86.66 84.67 86.66 90.25 69.55 91.04 69.8 85.27 87.49 72.99 87.49 72.99 86.66" style="fill:#554667"/><polygon points="72.99 83.97 83.34 83.97 88.92 66.86 89.71 67.11 83.95 84.79 72.99 84.79 72.99 83.97" style="fill:#554667"/><polygon points="72.99 81.28 81.94 81.28 87.52 64.17 88.31 64.42 82.54 82.11 72.99 82.11 72.99 81.28" style="fill:#554667"/><polyline points="87.19 95.44 88.31 95.44 88.31 111.09 82.5 117.75 82.5 95.44 87.19 95.44" style="fill:#493a5d"/><polygon points="82.5 117.75 75.38 108.03 75.38 94.51 81.82 94.51 82.5 95.44 82.5 117.75" style="fill:#000019"/><polygon points="72.99 73.76 76.19 73.76 89.61 66.06 89.61 68.77 91.68 68.77 79.54 79.42 72.99 79.42 72.99 73.76" style="fill:#cc626b"/><polygon points="72.99 53.95 78.67 53.95 80.16 52.45 88.58 52.45 88.58 67.67 76.19 75.69 72.99 74.27 72.99 53.95" style="fill:#56102f"/><rect x="90.3" y="68.15" width="1.38" height="10.44" transform="translate(181.98 146.73) rotate(180)" style="fill:#1f1d25"/><polygon points="103.09 74.2 105.2 74.2 105.2 85.5 93.09 94.57 93.09 87.68 92.19 86.77 92.19 78.61 96.08 74.71 103.09 74.2" style="fill:#2c282f"/><polygon points="103.09 61.63 103.09 74.2 96.13 75.38 92.65 80.22 91.68 79.66 91.68 72.16 102.25 61.6 103.09 61.63" style="fill:#534568"/><rect x="89.61" y="52.45" width="2.07" height="16.32" style="fill:#5f5e64"/><polygon points="91.68 52.45 92.42 51.7 97.15 51.7 104.1 58.91 101.2 66.7 97.89 66.7 95.82 72.16 91.68 72.16 91.68 52.45" style="fill:#907ca3"/><rect x="87.03" y="52.45" width="2.58" height="16.32" transform="translate(176.63 121.22) rotate(180)" style="fill:#341323"/><polygon points="72.99 56.26 85.16 56.26 85.16 69.89 76.58 75.83 72.99 75.83 72.99 56.26" style="fill:#2f0c1e"/><rect x="75.38" y="87.49" width="5.13" height="7.03" transform="translate(155.89 182) rotate(180)" style="fill:#7e748c"/><polygon points="88.31 95.44 85.27 87.49 80.51 87.49 80.51 94.51 81.44 95.44 88.31 95.44" style="fill:#392d4e"/><polygon points="72.99 87.49 75.38 87.49 75.38 101.03 72.99 91.88 72.99 87.49" style="fill:#1c1033"/><polygon points="88.31 111.09 88.31 126.33 80.51 126.33 76.81 109.98 88.31 111.09" style="fill:#2a203d"/><polygon points="101.2 66.7 105.2 74.2 102.83 74.24 97.89 66.7 101.2 66.7" style="fill:#c85e66"/><polygon points="72.99 75.83 76.58 75.83 79.54 79.42 72.99 79.42 72.99 75.83" style="fill:#9f4856"/><polygon points="85.16 56.26 85.16 74.49 82.5 76.78 82.5 56.26 85.16 56.26" style="fill:#b05561"/><rect x="72.99" y="56.26" width="12.17" height="3.22" style="fill:#943e50"/><path d="M88.26,110.36l2.21,7.53V123H92s-.13,2.55-3.07,2v1.76H85.23v-4.7l-4.7-4.05V107.61Z" style="fill:#907f9f"/><polygon points="85.23 122.12 85.23 140.48 82.79 140.48 82.79 120.02 85.23 122.12" style="fill:#4a3b61"/><polygon points="88.92 126.82 91.3 126.82 91.3 131.56 90.47 132.72 90.47 139.82 85.23 140.48 85.23 126.82 88.92 126.82" style="fill:#060a0c"/><path d="M88.14,141.83a6.07,6.07,0,0,1,3.55,6.92H86v-8.36S88.27,140.32,88.14,141.83Z" style="fill:#c86269"/><polyline points="90.47 139.82 88.14 141.83 85.99 140.39 90.15 139.82" style="fill:#c55e67"/><polygon points="90.47 148.75 90.47 151.06 88.27 152.82 90.85 154.81 90.85 157.67 90.85 167.53 86.82 167.53 86.82 148.75 90.47 148.75" style="fill:#9f4251"/><path d="M86,148.78s-3.29-.09-3.2,0,0-8.3,0-8.3H86Z" style="fill:#1f2321"/><rect x="82.79" y="147.97" width="4.03" height="4.79" transform="translate(169.62 300.74) rotate(180)" style="fill:#111514"/><rect x="82.79" y="152.77" width="4.03" height="14.76" style="fill:#111514"/><polygon points="85.38 158.14 80.2 163.09 81.74 167.28 85.38 167.28 85.38 158.14"/><rect x="80.2" y="166.18" width="12.89" height="1.74" transform="translate(173.29 334.1) rotate(180)" style="fill:#111514"/><path d="M103.51,103.14l-2.48.33a1,1,0,0,0-.84,1.21l2.25,10.2,2.52-.34-.32-10.44A1,1,0,0,0,103.51,103.14Z" style="fill:#1f2320"/><rect x="101.81" y="114.09" width="4.49" height="5.29" transform="translate(222.64 218.69) rotate(172.4)" style="fill:#291d40"/><path d="M104.45,119.35a3.06,3.06,0,0,0,.06.71,1.21,1.21,0,0,0,.71,1c.77.35,2.14,1.48,2.82,5.23a.35.35,0,0,0,.39.29h0a.66.66,0,0,0,.57-.75l-.67-5.06a1,1,0,0,0-.38-.66l-1.32-1Z" style="fill:#b0b4a8"/><path d="M104.61,119.33a2.79,2.79,0,0,1,.13.7,1.19,1.19,0,0,1-.5,1.11c-.75.55-1.92,2-1.61,5.82a.39.39,0,0,1-.35.39h0a.71.71,0,0,1-.82-.56l-.68-5.06A1,1,0,0,1,101,121l1.15-1.33Z" style="fill:#d2d4cf"/><path d="M102.16,88.69l2.46-.46a1.56,1.56,0,0,1,1.84,1.66l-1.28,15.72-5.64,1L97.17,93.92S102.37,92.2,102.16,88.69Z" style="fill:#706183"/><polygon points="80.53 107.61 75.38 108.03 76.81 109.98 80.51 110.63 80.53 107.61" style="fill:#4a3e60"/><rect x="81.57" y="126.33" width="1.22" height="36.38" transform="translate(164.37 289.04) rotate(180)" style="fill:#f27679"/><circle cx="99.74" cy="87.98" r="3.61" transform="translate(-32.83 98.65) rotate(-46.02)" style="fill:#a24756"/><path d="M101.18,91v2.92a.63.63,0,0,1-.19.44l-.94.94a.62.62,0,0,0-.18.44v6a.62.62,0,0,1-.62.62h0a.61.61,0,0,1-.61-.51L96.35,89.22a.62.62,0,0,1,.9-.66l3.59,1.86A.62.62,0,0,1,101.18,91Z" style="fill:#291d40"/><path d="M95.39,48.94l-.32,2.9a.61.61,0,0,1-.23.42l-1,.84a.61.61,0,0,0-.23.41l-.65,6a.62.62,0,0,1-.68.55h0a.63.63,0,0,1-.55-.58l-.9-12.81a.62.62,0,0,1,1-.56l3.37,2.24A.63.63,0,0,1,95.39,48.94Z" style="fill:#463b5a"/><rect x="88.92" y="118.16" width="3.81" height="8.66" transform="translate(181.64 244.98) rotate(180)" style="fill:#35294b"/><polygon points="81.58 126.33 75.38 126.33 81.58 146.31 81.58 126.33" style="fill:#190e2d"/><polygon points="90.84 152.39 94.61 152.39 90.84 164.56 90.84 152.39" style="fill:#191130"/><rect x="64.59" y="52.45" width="8.48" height="2.2" style="fill:#af9dbc"/><rect x="73.07" y="52.45" width="8.48" height="2.2" style="fill:#9b8baa"/><rect x="66.52" y="46.54" width="6.52" height="6.83" style="fill:#23123e"/><rect x="73.04" y="46.54" width="6.52" height="6.83" style="fill:#150e2d"/><rect x="73.04" y="46.52" width="6.52" height="2.42" style="fill:#645379"/><rect x="66.52" y="46.52" width="6.52" height="2.42" style="fill:#907ca3"/><polygon points="66.07 59.48 72.99 64.68 72.99 59.48 66.07 59.48" style="fill:#c4d047"/><polygon points="79.91 59.48 72.99 64.68 72.99 59.48 79.91 59.48" style="fill:#a0a639"/><rect x="70.36" y="39.13" width="1.23" height="4.62" style="fill:#af9dbc"/><rect x="74.39" y="39.13" width="1.23" height="4.62" style="fill:#af9dbc"/></g></g></g></svg>