<svg xmlns="http://www.w3.org/2000/svg" xmlns:xlink="http://www.w3.org/1999/xlink" viewBox="0 0 148.25 207.55"><defs><linearGradient id="Degradado_sin_nombre_2" x1="139.68" y1="-0.46" x2="6.35" y2="211.54" gradientUnits="userSpaceOnUse"><stop offset="0" stop-color="#0fc"/><stop offset="1" stop-color="#ffee02"/></linearGradient><linearGradient id="Degradado_sin_nombre_2-2" x1="28.36" y1="196.65" x2="159.15" y2="65.86" xlink:href="#Degradado_sin_nombre_2"/><linearGradient id="Degradado_sin_nombre_2-3" x1="151.62" y1="81.54" x2="79.62" y2="213.54" xlink:href="#Degradado_sin_nombre_2"/></defs><title>Asset 151</title><g id="Layer_2" data-name="Layer 2"><g id="Layer_3" data-name="Layer 3"><rect width="148.25" height="207.55" style="fill:url(#Degradado_sin_nombre_2)"/><rect x="39.26" y="54.96" width="108.99" height="152.59" style="fill:url(#Degradado_sin_nombre_2-2)"/><rect x="74.13" y="103.77" width="74.13" height="103.77" style="fill:url(#Degradado_sin_nombre_2-3)"/><g style="opacity:0.45"><polygon points="8.29 29.81 8.29 69.47 16 77.19 16 122.11 20.18 126.3 20.18 144.42 12.28 144.42 12.28 157.13 8.29 157.13 8.29 165.32 143.8 165.32 143.8 72.95 100.65 29.81 8.29 29.81" style="fill:#2c2c30;opacity:0.2"/><polygon points="106.78 29.81 143.8 66.82 143.8 29.81 106.78 29.81" style="fill:#2c2c30"/><path d="M138.82,77.07,97.09,35.34l-.22-.09H18.79l-.22.09-.09.22v6.2l.09.22.22.09H87.32a1.39,1.39,0,0,0,1.34,1.09,1.4,1.4,0,1,0,0-2.8,1.39,1.39,0,0,0-1.34,1.09H19.1V35.87H96.74l41.55,41.55v80.64H64.34l-.22.09L53.78,168.49H14.29A1.37,1.37,0,0,0,13,167.4a1.4,1.4,0,1,0,0,2.8,1.37,1.37,0,0,0,1.33-1.09H53.91l.22-.09,10.34-10.34H138.6l.22-.09.09-.22V77.29Z" style="fill:#097f00"/><rect x="7.01" y="41.76" width="2.27" height="14.87" style="fill:#097f00"/><rect x="14.24" y="93.4" width="2.48" height="14.05" style="fill:#097f00"/><circle cx="88.43" cy="153.25" r="1.78" style="fill:#9bf424"/><circle cx="97.26" cy="153.25" r="1.78" style="fill:#9bf424"/><circle cx="106.09" cy="153.25" r="1.78" style="fill:#9bf424"/><circle cx="114.92" cy="153.25" r="1.78" style="fill:#9bf424"/><circle cx="123.75" cy="153.25" r="1.78" style="fill:#9bf424"/><circle cx="132.58" cy="153.25" r="1.78" style="fill:#9bf424"/><polygon points="144.8 110.13 144.8 109.82 142.63 109.82 142.63 83.38 144.49 83.38 144.49 110.13 144.8 110.13 144.8 109.82 144.8 110.13 145.11 110.13 145.11 82.76 142.01 82.76 142.01 110.44 145.11 110.44 145.11 110.13 144.8 110.13" style="fill:#9bf424"/><polygon points="32.63 157.64 32.63 157.33 30.87 157.33 30.87 155.89 32.32 155.89 32.32 157.64 32.63 157.64 32.63 157.33 32.63 157.64 32.94 157.64 32.94 155.27 30.25 155.27 30.25 157.95 32.94 157.95 32.94 157.64 32.63 157.64" style="fill:#9bf424"/><polygon points="30.15 125.42 30.15 125.11 25.92 125.11 25.92 121.18 29.84 121.18 29.84 125.42 30.15 125.42 30.15 125.11 30.15 125.42 30.46 125.42 30.46 120.56 25.3 120.56 25.3 125.73 30.46 125.73 30.46 125.42 30.15 125.42" style="fill:#9bf424"/><polygon points="20.23 67.79 20.23 67.48 16.21 67.48 16.21 63.76 19.93 63.76 19.93 67.79 20.23 67.79 20.23 67.48 20.23 67.79 20.55 67.79 20.55 63.14 15.59 63.14 15.59 68.1 20.55 68.1 20.55 67.79 20.23 67.79" style="fill:#9bf424"/><polygon points="135.5 39.49 135.5 39.18 131.27 39.18 131.27 35.25 135.19 35.25 135.19 39.49 135.5 39.49 135.5 39.18 135.5 39.49 135.81 39.49 135.81 34.63 130.65 34.63 130.65 39.8 135.81 39.8 135.81 39.49 135.5 39.49" style="fill:#9bf424"/><path d="M33.25,50.64h-.31a2.59,2.59,0,1,1-2.58-2.58,2.58,2.58,0,0,1,2.58,2.58h.62a3.2,3.2,0,1,0-3.2,3.2,3.2,3.2,0,0,0,3.2-3.2Z" style="fill:#097f00"/><path d="M133.23,123.66h-.31a2.48,2.48,0,1,1-2.48-2.48,2.48,2.48,0,0,1,2.48,2.48h.62a3.1,3.1,0,1,0-3.1,3.1,3.1,3.1,0,0,0,3.1-3.1Z" style="fill:#097f00"/><path d="M144.18,54h-.31a1.55,1.55,0,0,1-3.1,0,1.55,1.55,0,0,1,3.1,0h.62a2.17,2.17,0,1,0-2.17,2.17A2.17,2.17,0,0,0,144.49,54Z" style="fill:#097f00"/><path d="M11.56,143.7h-.31a1.45,1.45,0,1,1-1.45-1.45,1.46,1.46,0,0,1,1.45,1.45h.62a2.07,2.07,0,1,0-2.07,2.07,2.07,2.07,0,0,0,2.07-2.07Z" style="fill:#097f00"/><polygon points="144.01 163.72 140.87 163.72 140.87 160.58 139.09 160.58 139.09 163.72 135.96 163.72 135.96 165.49 139.09 165.49 139.09 168.63 140.87 168.63 140.87 165.49 144.01 165.49 144.01 163.72" style="fill:#097f00"/><polygon points="12.01 28.85 8.87 28.85 8.87 25.71 7.1 25.71 7.1 28.85 3.96 28.85 3.96 30.63 7.1 30.63 7.1 33.77 8.87 33.77 8.87 30.63 12.01 30.63 12.01 28.85" style="fill:#097f00"/><rect x="126.31" y="80.59" width="5.89" height="26.65" style="fill:#097f00"/><rect x="122.59" y="99.18" width="5.89" height="8.06" style="fill:#9bf424"/><rect x="21.89" y="63.14" width="28.3" height="4.96" style="fill:#9bf424"/><path d="M51.85,24.31h4.46l-8,8H43.86Zm17.92,0H65.31l-8,8h4.46Zm-6.73,0H58.58l-8,8h4.46Zm33.65,0H92.23l-8,8H88.7Zm-20.19,0H72l-8,8h4.46Zm13.46,0H85.5l-8,8H82Zm-6.73,0H78.77l-8,8h4.46Z" style="fill:#9bf424"/></g><polygon points="67.34 42.58 65.73 42.07 65.73 40.59 71.68 40.59 71.68 42.58 67.34 42.58" style="fill:#060a0f"/><path d="M64,41.22v-6.4a1.12,1.12,0,1,0-.25,0v6.66h2v-.26Z" style="fill:#060a0f"/><polygon points="83.63 42.58 85.24 42.07 85.24 40.59 79.29 40.59 79.29 42.58 83.63 42.58" style="fill:#060a0f"/><path d="M87,41.22v-6.4a1.12,1.12,0,1,1,.25,0v6.66h-2v-.26Z" style="fill:#060a0f"/><polygon points="63.83 50.81 67.41 47.22 83.63 47.22 87.15 50.81 75.49 59.57 63.83 50.81" style="fill:#120d30"/><polygon points="46.31 119.16 49.3 119.16 49.3 110.06 46.31 110.4 46.31 119.16" style="fill:#aa94c4"/><polygon points="52.06 99.81 42.19 99.81 41.35 101.95 51.36 101.95 52.06 99.81" style="fill:#050629"/><polygon points="72.92 136.78 75.49 139.72 75.49 147.44 68.05 147.44 68.05 140.68 72.92 136.78" style="fill:#806bac"/><polygon points="63.97 120.75 63.97 125.51 73.32 134.87 73.32 119.73 74.19 118.86 74.19 115.3 71.79 115.3 63.97 120.75" style="fill:#2d2152"/><polygon points="57.75 57.87 61.57 55.44 68.98 64.58 75.49 64.58 75.49 84.99 70.48 84.99 68.73 86.75 60.77 86.75 55.91 73.56 55.91 59.17 57.75 57.87" style="fill:#120d30"/><path d="M44.4,72.14H56.32l1.43-14.27s-4.94-3.64-9.81-2a5.34,5.34,0,0,0-3.59,4.29l-1.5,10.19A1.57,1.57,0,0,0,44.4,72.14Z" style="fill:#2d2152"/><polygon points="44.41 72.14 44.41 84.82 47.84 84.82 53.92 72.14 44.41 72.14" style="fill:#473771"/><polygon points="48.77 82.87 53.92 72.14 56.32 72.14 49.88 83.98 48.77 82.87" style="fill:#62508f"/><polyline points="50.29 100.49 52.87 83.98 44.19 97.07 48.81 102.09 50.09 100.81" style="fill:#62508f"/><path d="M42.83,82.87h5.94L49.88,84h3s-4.11,9.15-4.9,13.9a3,3,0,0,0,.84,2.61h0v5.88H43.63l.73-3.78a8.09,8.09,0,0,0-.91-5.47L42.83,96Z" style="fill:#806bac"/><rect x="48.81" y="100.49" width="1.48" height="4.45" style="fill:#473771"/><polygon points="42.84 70.74 40.4 70.74 44.41 82.87 44.41 72.14 42.84 70.74" style="fill:#2d2152"/><polygon points="41.68 87.11 39.88 87.11 42.83 96.06 42.83 88.14 41.68 87.11" style="fill:#2d2152"/><polygon points="52.87 83.98 56.32 72.14 49.88 83.98 52.87 83.98" style="fill:#2d2152"/><polygon points="40.4 70.74 44.19 61.22 42.84 70.74 40.4 70.74" style="fill:#473771"/><polygon points="39.88 87.11 42.83 82.87 41.68 87.11 39.88 87.11" style="fill:#1f1142"/><polygon points="42.83 82.87 42.83 88.14 41.68 87.11 42.83 82.87" style="fill:#0a082b"/><polygon points="61.57 55.44 61.57 53.06 63.83 50.81 75.49 59.57 75.49 64.58 68.98 64.58 61.57 55.44" style="fill:#2d2152"/><polygon points="63.67 86.75 65.33 91.25 75.49 91.25 75.49 84.99 70.48 84.99 68.73 86.75 63.67 86.75" style="fill:#2d2152"/><polygon points="67.28 91.25 68.53 94.62 75.49 94.62 75.49 91.25 67.28 91.25" style="fill:#1a0f3a"/><polygon points="70.14 94.62 71.38 97.51 75.49 97.51 75.49 94.62 70.14 94.62" style="fill:#050629"/><polygon points="61.88 103.74 61.17 103.74 61.17 121.58 61.88 121.58 65.28 120.23 71.33 114.17 71.33 107.22 65.75 101.64 61.88 103.74" style="fill:#1a0f3a"/><polygon points="75.49 97.51 73.05 108.92 70.74 108.92 70.74 107.35 63.67 103.74 61.88 103.74 61.88 101.11 71.38 97.51 75.49 97.51" style="fill:#806bac"/><polygon points="70.74 108.92 73.05 108.92 73.05 115.88 70.77 118.63 66.88 118.63 70.75 114.07 70.74 108.92" style="fill:#705f92"/><polygon points="63.97 125.51 62.47 125.51 62.47 129.19 73.64 140.35 73.64 133.84 63.97 125.51" style="fill:#211544"/><polygon points="66.25 141.07 66.25 147.44 68.05 147.44 68.05 141.71 66.25 141.07" style="fill:#705f92"/><polygon points="62.85 148.79 68.05 146.23 68.05 155.77 68.05 167.33 61.17 167.33 62.85 148.79" style="fill:#1a0f3a"/><polygon points="58.17 167.33 58.17 162.38 62.93 160.27 62.93 167.33 58.17 167.33" style="fill:#705f92"/><rect x="71.64" y="142.93" width="2" height="24.4" style="fill:#705f92"/><polygon points="64.2 130.92 64.2 140.35 73.64 143.68 73.64 140.35 64.2 130.92" style="fill:#1a0f3a"/><path d="M68.05,158.47h1.88a3.7,3.7,0,0,1,3.7,3.7v5.16a0,0,0,0,1,0,0H68.05a0,0,0,0,1,0,0v-8.86A0,0,0,0,1,68.05,158.47Z" style="fill:#281e54"/><polygon points="68.05 141.71 68.05 160.57 71.64 160.57 71.64 142.93 68.05 141.71" style="fill:#020326"/><polygon points="58.17 162.38 62.85 148.79 61.77 160.79 58.17 162.38" style="fill:#564b79"/><polygon points="42.19 96.06 42.19 101.95 47.06 104.61 47.06 97.19 46.21 97.19 42.19 96.06" style="fill:#484640"/><polygon points="50.8 97.19 50.8 101.11 47.06 104.61 47.06 97.19 50.8 97.19" style="fill:#393934"/><polygon points="42.19 101.95 41.35 101.95 41.35 103.77 46.31 110.4 47.06 110.4 47.06 104.61 42.19 101.95" style="fill:#292926"/><path d="M47.06,104.61l5-4.8L53.57,102s-1.25,1.61-1.3,7.83l-5.21.62Z" style="fill:#302e29"/><polygon points="43.03 106.02 43.77 115.14 46.31 116.31 48.63 116.31 52.27 109.78 46.31 110.4 43.03 106.02" style="fill:#120d30"/><path d="M48,115h2.1a3.41,3.41,0,0,0,3.41-3.41v-1.29a2.6,2.6,0,0,0-2.6-2.6v1.07a1.53,1.53,0,0,1,1.52,1.53v1.29a2.33,2.33,0,0,1-2.33,2.33H48Z" style="fill:#120d30"/><rect x="47.7" y="123.41" width="1.38" height="5.27" transform="translate(96.78 252.1) rotate(180)" style="fill:#323534"/><rect x="46.89" y="123.41" width="0.49" height="5.27" transform="translate(94.27 252.1) rotate(180)" style="fill:#323534"/><polygon points="51.09 126.95 48 126.95 48 130.84 49.71 130.84 49.71 137.02 50.19 137.02 53.01 130.24 51.09 126.95" style="fill:#62508f"/><polygon points="44.93 126.95 48.02 126.95 48.02 130.84 46.31 130.84 46.31 137.02 45.83 137.02 43.01 130.24 44.93 126.95" style="fill:#2d2152"/><polygon points="50.82 119.16 45.25 119.16 46.27 124.61 50.28 124.61 50.82 119.16" style="fill:#806bac"/><polygon points="42.19 96.06 42.57 95.25 42.97 96.28 42.19 96.06" style="fill:#292926"/><polygon points="104.66 119.16 101.68 119.16 101.68 110.06 104.66 110.4 104.66 119.16" style="fill:#aa94c4"/><polygon points="98.92 99.81 108.79 99.81 109.62 101.95 99.61 101.95 98.92 99.81" style="fill:#050629"/><polygon points="78.05 136.78 75.49 139.72 75.49 147.44 82.92 147.44 82.92 140.68 78.05 136.78" style="fill:#806bac"/><polygon points="87.01 120.75 87.01 125.51 77.65 134.87 77.65 119.73 76.78 118.86 76.78 115.3 79.19 115.3 87.01 120.75" style="fill:#2d2152"/><polygon points="93.23 57.87 89.4 55.44 81.99 64.58 75.49 64.58 75.49 84.99 80.49 84.99 82.24 86.75 90.2 86.75 95.07 73.56 95.07 59.17 93.23 57.87" style="fill:#120d30"/><path d="M106.57,72.14H94.65L93.23,57.87s4.93-3.64,9.81-2a5.33,5.33,0,0,1,3.58,4.29l1.51,10.19A1.58,1.58,0,0,1,106.57,72.14Z" style="fill:#2d2152"/><polygon points="106.57 72.14 106.57 84.82 103.14 84.82 97.06 72.14 106.57 72.14" style="fill:#473771"/><polygon points="102.2 82.87 97.06 72.14 94.65 72.14 101.09 83.98 102.2 82.87" style="fill:#62508f"/><polyline points="100.68 100.49 98.11 83.98 106.79 97.07 102.16 102.09 100.88 100.81" style="fill:#62508f"/><path d="M108.14,82.87H102.2L101.09,84h-3s4.11,9.15,4.9,13.9a3,3,0,0,1-.84,2.61h0v5.88h5.17l-.72-3.78a8,8,0,0,1,.91-5.47l.61-1.09Z" style="fill:#806bac"/><rect x="100.68" y="100.49" width="1.48" height="4.45" transform="translate(202.85 205.44) rotate(180)" style="fill:#473771"/><polygon points="108.13 70.74 110.57 70.74 106.57 82.87 106.57 72.14 108.13 70.74" style="fill:#2d2152"/><polygon points="109.29 87.11 111.09 87.11 108.14 96.06 108.14 88.14 109.29 87.11" style="fill:#2d2152"/><polygon points="98.11 83.98 94.65 72.14 101.09 83.98 98.11 83.98" style="fill:#2d2152"/><polygon points="110.57 70.74 106.78 61.22 108.13 70.74 110.57 70.74" style="fill:#473771"/><polygon points="111.09 87.11 108.14 82.87 109.29 87.11 111.09 87.11" style="fill:#1f1142"/><polygon points="108.14 82.87 108.14 88.14 109.29 87.11 108.14 82.87" style="fill:#0a082b"/><polygon points="89.4 55.44 89.4 53.06 87.15 50.81 75.49 59.57 75.49 64.58 81.99 64.58 89.4 55.44" style="fill:#2d2152"/><polygon points="87.3 86.75 85.65 91.25 75.49 91.25 75.49 84.99 80.49 84.99 82.24 86.75 87.3 86.75" style="fill:#2d2152"/><polygon points="83.69 91.25 82.44 94.62 75.49 94.62 75.49 91.25 83.69 91.25" style="fill:#1a0f3a"/><polygon points="80.84 94.62 79.59 97.51 75.49 97.51 75.49 94.62 80.84 94.62" style="fill:#050629"/><polygon points="89.1 103.74 89.8 103.74 89.8 121.58 89.1 121.58 85.7 120.23 79.64 114.17 79.64 107.22 85.22 101.64 89.1 103.74" style="fill:#1a0f3a"/><polygon points="75.49 97.51 77.92 108.92 80.24 108.92 80.24 107.35 87.3 103.74 89.1 103.74 89.1 101.11 79.59 97.51 75.49 97.51" style="fill:#806bac"/><polygon points="80.24 108.92 77.92 108.92 77.92 115.88 80.2 118.63 84.1 118.63 80.22 114.07 80.24 108.92" style="fill:#705f92"/><polygon points="87.01 125.51 88.5 125.51 88.5 129.19 77.34 140.35 77.34 133.84 87.01 125.51" style="fill:#211544"/><polygon points="84.72 141.07 84.72 147.44 82.92 147.44 82.92 141.71 84.72 141.07" style="fill:#705f92"/><polygon points="88.12 148.79 82.92 146.23 82.92 155.77 82.92 167.33 89.8 167.33 88.12 148.79" style="fill:#1a0f3a"/><polygon points="92.81 167.33 92.81 162.38 88.05 160.27 88.05 167.33 92.81 167.33" style="fill:#705f92"/><rect x="77.34" y="142.93" width="2" height="24.4" transform="translate(156.68 310.26) rotate(180)" style="fill:#705f92"/><polygon points="86.77 130.92 86.77 140.35 77.34 143.68 77.34 140.35 86.77 130.92" style="fill:#1a0f3a"/><path d="M77.34,158.47h5.58a0,0,0,0,1,0,0v5.16a3.7,3.7,0,0,1-3.7,3.7H77.34a0,0,0,0,1,0,0v-8.86A0,0,0,0,1,77.34,158.47Z" transform="translate(160.26 325.8) rotate(180)" style="fill:#281e54"/><polygon points="82.92 141.71 82.92 160.57 79.34 160.57 79.34 142.93 82.92 141.71" style="fill:#020326"/><polygon points="92.81 162.38 88.12 148.79 89.21 160.79 92.81 162.38" style="fill:#564b79"/><polygon points="108.79 96.06 108.79 101.95 103.92 104.61 103.92 97.19 104.77 97.19 108.79 96.06" style="fill:#484640"/><polygon points="100.17 97.19 100.17 101.11 103.92 104.61 103.92 97.19 100.17 97.19" style="fill:#393934"/><polygon points="108.79 101.95 109.62 101.95 109.62 103.77 104.66 110.4 103.92 110.4 103.92 104.61 108.79 101.95" style="fill:#292926"/><path d="M103.92,104.61l-5-4.8L97.4,102s1.26,1.61,1.31,7.83l5.21.62Z" style="fill:#302e29"/><polygon points="107.94 106.02 107.2 115.14 104.66 116.31 102.35 116.31 98.71 109.78 104.66 110.4 107.94 106.02" style="fill:#120d30"/><path d="M103,115h-2.1a3.42,3.42,0,0,1-3.42-3.41v-1.29a2.6,2.6,0,0,1,2.61-2.6v1.07a1.53,1.53,0,0,0-1.53,1.53v1.29a2.33,2.33,0,0,0,2.34,2.33H103Z" style="fill:#120d30"/><rect x="101.89" y="123.41" width="1.38" height="5.27" style="fill:#323534"/><rect x="103.59" y="123.41" width="0.49" height="5.27" style="fill:#323534"/><polygon points="99.89 126.95 102.97 126.95 102.97 130.84 101.26 130.84 101.26 137.02 100.78 137.02 97.97 130.24 99.89 126.95" style="fill:#62508f"/><polygon points="106.04 126.95 102.96 126.95 102.96 130.84 104.66 130.84 104.66 137.02 105.14 137.02 107.96 130.24 106.04 126.95" style="fill:#2d2152"/><polygon points="100.16 119.16 105.73 119.16 104.71 124.61 100.69 124.61 100.16 119.16" style="fill:#806bac"/><polygon points="108.79 96.06 108.41 95.25 108 96.28 108.79 96.06" style="fill:#292926"/><polygon points="68.68 98.53 73.86 105.11 75.49 105.11 75.49 97.51 71.38 97.51 68.68 98.53" style="fill:#aa94c4"/><polygon points="82.29 98.53 77.11 105.11 75.49 105.11 75.49 97.51 79.59 97.51 82.29 98.53" style="fill:#aa94c4"/><path d="M67.6,73.94H63.41A12,12,0,0,0,67,82.48l3-3A7.84,7.84,0,0,1,67.6,73.94Z" style="fill:#003539"/><path d="M81.06,79.51a7.85,7.85,0,0,1-5.57,2.31V86a12,12,0,0,0,4.7-1A11.82,11.82,0,0,0,84,82.48Z" style="fill:#147284"/><path d="M69.92,79.51l-3,3a11.86,11.86,0,0,0,3.84,2.58,12,12,0,0,0,4.7,1V81.82A7.82,7.82,0,0,1,69.92,79.51Z" style="fill:#005762"/><path d="M87.56,73.94H83.37a7.84,7.84,0,0,1-2.31,5.57l3,3a12,12,0,0,0,3.54-8.54Z" style="fill:#1ca7c9"/><path d="M67.6,73.94H63.41A12,12,0,0,1,67,65.4l3,3A7.86,7.86,0,0,0,67.6,73.94Z" style="fill:#004d58"/><path d="M81.06,68.37a7.85,7.85,0,0,0-5.57-2.31V61.87a12,12,0,0,1,4.7,1A12.14,12.14,0,0,1,84,65.4Z" style="fill:#1685a2"/><path d="M69.92,68.37l-3-3a12.19,12.19,0,0,1,3.84-2.58,12,12,0,0,1,4.7-1v4.19A7.82,7.82,0,0,0,69.92,68.37Z" style="fill:#ed6555"/><path d="M87.56,73.94H83.37a7.85,7.85,0,0,0-2.31-5.57l3-3a12,12,0,0,1,3.54,8.54Z" style="fill:#00b2e8"/><circle cx="75.49" cy="73.72" r="9.15" style="fill:#140d35"/><path d="M78.66,76.9a4.5,4.5,0,0,0,0-6.35L72.32,76.9A4.48,4.48,0,0,0,78.66,76.9Z" style="fill:#473771"/><path d="M72.32,76.9l6.34-6.35a4.49,4.49,0,1,0-6.34,6.35Z" style="fill:#2d2152"/><polygon points="55.5 48.28 44.27 48.28 50.9 54.92 55.5 48.28" style="fill:#473771"/><path d="M52.78,54.92a2,2,0,1,1-2-2A2,2,0,0,1,52.78,54.92Z" style="fill:#120d30"/><polygon points="96.67 48.28 107.91 48.28 101.27 54.92 96.67 48.28" style="fill:#473771"/><path d="M99.4,54.92a2,2,0,1,0,2-2A2,2,0,0,0,99.4,54.92Z" style="fill:#120d30"/><path d="M75.49,35.64H72a4.37,4.37,0,0,0-3.26,1.52h0a5.54,5.54,0,0,0-1.35,3.68v4.82h8.14Z" style="fill:#473771"/><path d="M83.63,45.66V40.84a5.55,5.55,0,0,0-1.36-3.68h0A4.36,4.36,0,0,0,79,35.64H75.49v10Z" style="fill:#2f2452"/><rect x="72.02" y="37.71" width="1.35" height="6.83" style="fill:#050629"/><rect x="77.56" y="37.71" width="1.35" height="6.83" style="fill:#050629"/><path d="M67.35,47.59V48a5.44,5.44,0,0,0,1.89,4.2,9.8,9.8,0,0,0,6.25,2.48V47.59Z" style="fill:#382d5e"/><path d="M75.49,45.66H67.35v1.93h8.14Z" style="fill:#1ca7c9"/><path d="M83.63,47.59V45.66H75.49v1.93Z" style="fill:#005762"/><path d="M75.49,47.59v7.08a9.84,9.84,0,0,0,6.25-2.48A5.44,5.44,0,0,0,83.63,48v-.4Z" style="fill:#231e46"/></g></g></svg>