<svg xmlns="http://www.w3.org/2000/svg" xmlns:xlink="http://www.w3.org/1999/xlink" viewBox="0 0 148.25 207.55"><defs><linearGradient id="Degradado_sin_nombre_6" x1="-14.83" y1="192.72" x2="163.07" y2="14.83" gradientUnits="userSpaceOnUse"><stop offset="0" stop-color="aqua"/><stop offset="1" stop-color="blue"/></linearGradient></defs><title>Asset 142</title><g id="Layer_2" data-name="Layer 2"><g id="Layer_3" data-name="Layer 3"><rect width="148.25" height="207.55" style="fill:url(#Degradado_sin_nombre_6)"/><g style="opacity:0.45"><polygon points="81.46 42.48 74.61 42.48 9.2 107.89 9.2 114.74 81.46 42.48" style="fill:#00158e;opacity:0.2"/><polygon points="100.7 42.48 93.86 42.48 9.2 127.14 9.2 133.99 100.7 42.48" style="fill:#00158e;opacity:0.2"/><polygon points="62.21 42.48 55.36 42.48 9.2 88.64 9.2 95.49 62.21 42.48" style="fill:#00158e;opacity:0.2"/><polygon points="42.96 42.48 36.11 42.48 9.2 69.39 9.2 76.24 42.96 42.48" style="fill:#00158e;opacity:0.2"/><polygon points="23.71 42.48 16.86 42.48 9.2 50.15 9.2 56.99 23.71 42.48" style="fill:#00158e;opacity:0.2"/><path d="M109.19,42.48v3.91L12.91,142.68H9.2v30.51H139.91V42.48Zm0,100.2H96.75l12.44-12.45Zm0-19.3L89.9,142.68H77.5L109.19,111Zm0-19.24L70.65,142.68H58.25l50.94-50.94Zm0-19.25L51.4,142.68H39l70.19-70.19Zm0-19.25-77,77H19.75l89.44-89.44Z" style="fill:#00158e;opacity:0.2"/><polygon points="137.04 170.78 137.04 144.34 132.26 149.12 132.26 166 115.38 166 110.6 170.78 137.04 170.78" style="fill:#0751cf"/><rect x="138.48" y="73.94" width="2.99" height="35.67" style="fill:gold"/><rect x="138.48" y="116.78" width="2.99" height="4.98" style="fill:gold"/><rect x="27.5" y="172.37" width="48.42" height="2.39" style="fill:gold"/><polygon points="25 162.87 28.86 162.87 32.98 158.74 26.54 158.74 17.25 168.03 19.83 168.03 25 162.87" style="fill:gold"/><polygon points="33.37 162.87 37.23 162.87 41.35 158.74 34.91 158.74 25.63 168.03 28.21 168.03 33.37 162.87" style="fill:gold"/><polygon points="41.74 162.87 45.61 162.87 49.73 158.74 43.28 158.74 34 168.03 36.58 168.03 41.74 162.87" style="fill:gold"/><polygon points="50.12 162.87 53.98 162.87 58.1 158.74 51.66 158.74 42.37 168.03 44.95 168.03 50.12 162.87" style="fill:gold"/><polygon points="58.49 162.87 62.35 162.87 66.48 158.74 60.03 158.74 50.75 168.03 53.33 168.03 58.49 162.87" style="fill:gold"/><polygon points="66.87 162.87 70.73 162.87 74.85 158.74 68.41 158.74 59.12 168.03 61.7 168.03 66.87 162.87" style="fill:gold"/><polygon points="75.24 162.87 79.1 162.87 83.22 158.74 76.78 158.74 67.5 168.03 70.08 168.03 75.24 162.87" style="fill:gold"/><polygon points="83.62 162.87 87.48 162.87 91.6 158.74 85.16 158.74 75.87 168.03 78.45 168.03 83.62 162.87" style="fill:gold"/><path d="M126.23,37.77H111.29V34.19h14.94Zm-14.35-.6h13.75V34.78H111.88Z" style="fill:#0751cf"/><path d="M144,145.57h-2.59V134.21H144Zm-2-.6h1.4V134.81H142Z" style="fill:#0751cf"/><path d="M102.92,181.24H85.58v-3.79h17.34Zm-16.74-.6h16.14v-2.59H86.18Z" style="fill:#0751cf"/><path d="M17.24,180.44H10.66v-2.39h6.58Zm-6-.6h5.38v-1.2H11.26Z" style="fill:gold"/><path d="M6.88,168.88H4.49V149H6.88Zm-1.8-.6h1.2V149.55H5.08Z" style="fill:gold"/><polygon points="95.84 36.87 95.84 36.72 28.05 36.72 28.05 35.34 95.69 35.34 95.69 36.87 95.84 36.87 95.84 36.72 95.84 36.87 95.99 36.87 95.99 35.04 27.75 35.04 27.75 37.01 95.99 37.01 95.99 36.87 95.84 36.87" style="fill:gold"/></g><polygon points="65.46 43.79 63.09 43.04 63.09 40.86 71.84 40.86 71.84 43.79 65.46 43.79" style="fill:#060a0f"/><path d="M60.53,41.8V32.38a1.64,1.64,0,1,0-.37,0v9.79h2.93V41.8Z" style="fill:#060a0f"/><polygon points="82.89 43.79 85.26 43.04 85.26 40.86 76.5 40.86 76.5 43.79 82.89 43.79" style="fill:#060a0f"/><path d="M87.81,41.8V32.38a1.64,1.64,0,1,1,.38,0v9.79H85.26V41.8Z" style="fill:#060a0f"/><polygon points="61.65 112.62 65.98 134.33 72.4 134.33 72.4 128.53 72.4 112.62 61.65 112.62" style="fill:#ef6f33"/><polygon points="60.8 85.97 60.8 88.84 72.4 88.84 72.4 87.23 60.8 85.97" style="fill:#ef6f33"/><polygon points="61.43 82.41 60.3 82.41 60.3 85.71 63.22 87.23 72.4 87.23 72.4 83.84 66.43 83.84 65 82.41 61.43 82.41" style="fill:#f38d30"/><rect x="60.3" y="88.84" width="12.1" height="1.9" style="fill:#d75127"/><polygon points="60.3 90.74 61.58 92.02 72.4 92.02 72.4 90.74 60.3 90.74" style="fill:#a63823"/><polygon points="61.58 92.02 60.97 92.63 60.97 95.11 63.07 95.11 66.6 96.78 72.4 96.78 72.4 92.02 61.58 92.02" style="fill:#711b13"/><polygon points="72.4 52.96 67.43 52.96 65 52.96 64.06 53.9 66.23 56.08 61.97 56.08 60.49 57.56 56.7 57.56 56.7 68.99 72.4 68.99 72.4 52.96" style="fill:#372e2f"/><polygon points="56.7 68.99 56.7 71.35 58.27 72.91 61.43 82.41 65 82.41 66.43 83.84 72.4 83.84 72.4 68.99 56.7 68.99" style="fill:#711b13"/><polygon points="60.97 95.11 59.85 95.11 58.11 98.27 59.05 100.41 65.18 96.11 63.07 95.11 60.97 95.11" style="fill:#a63823"/><polygon points="66.6 96.78 59.9 103.47 59.05 100.41 65.18 96.11 66.6 96.78" style="fill:#f38d30"/><polygon points="59.9 103.47 60.97 106.23 72.4 96.78 66.6 96.78 59.9 103.47" style="fill:#d75127"/><polygon points="60.97 106.23 59.05 111.72 67.68 114.71 72.4 114.71 72.4 96.78 60.97 106.23" style="fill:#a63823"/><polygon points="67.32 106.72 67.32 118.05 72.4 125.1 72.4 110.83 72.4 101.86 67.32 106.72" style="fill:#f9a945"/><polygon points="65.98 134.33 65.31 130.97 63.65 135 65.18 152.13 72.4 150.89 72.4 134.33 65.98 134.33" style="fill:#c45027"/><rect x="72.4" y="83.84" width="1.72" height="12.94" style="fill:#711b13"/><rect x="72.4" y="52.96" width="1.72" height="16.03" style="fill:#ef6f33"/><rect x="72.4" y="68.99" width="1.72" height="14.85" style="fill:#a63823"/><path d="M74.12,36.44v6.07H65.51C65.8,38.7,67.67,37,74.12,36.44Z" style="fill:#a63823"/><path d="M74.12,42.51v9H67.36l-1-1.88a20.28,20.28,0,0,1-.89-7.07Z" style="fill:#a63823"/><path d="M74.12,51.46H67.36L69,54.6a6.56,6.56,0,0,0,5.15,3Z" style="fill:#711b13"/><path d="M52.75,90.32l.35.55a4.41,4.41,0,0,0,1.76-2.66A5.45,5.45,0,0,0,53.64,84l-.53.38a4.83,4.83,0,0,1,1.11,3.7A3.65,3.65,0,0,1,52.75,90.32Z" style="fill:#323534"/><path d="M52.57,93.61l.6.74a13.68,13.68,0,0,0,3.36-4.42c1.19-2.54,1.94-6.52-1.24-11.06l-.77.54c2.34,3.35,2.73,6.75,1.15,10.11A12.54,12.54,0,0,1,52.57,93.61Z" style="fill:#323534"/><rect x="49.31" y="85.76" width="3.45" height="5.62" transform="translate(102.07 177.15) rotate(180)" style="fill:#0b181b"/><path d="M52.58,88.48l-2.9.13a1.15,1.15,0,0,0-1.08,1.31l1.57,12,2.95-.14.66-12.06A1.15,1.15,0,0,0,52.58,88.48Z" style="fill:#a63823"/><rect x="49.26" y="101.14" width="5.2" height="6.12" transform="translate(108.49 205.88) rotate(177.34)" style="fill:#711b13"/><path d="M52,107.25a3.66,3.66,0,0,0,0,.83,1.43,1.43,0,0,0,.72,1.16c.86.48,2.33,1.92,2.74,6.31a.4.4,0,0,0,.42.37h0a.77.77,0,0,0,.73-.8l-.27-5.9a1.17,1.17,0,0,0-.38-.8l-1.41-1.29Z" style="fill:#711b13"/><path d="M52.23,107.24a3.47,3.47,0,0,1,.08.83,1.4,1.4,0,0,1-.69,1.23c-.91.55-2.4,2.13-2.43,6.55a.44.44,0,0,1-.44.4h0a.81.81,0,0,1-.89-.72l-.28-5.9a1.09,1.09,0,0,1,.34-.83l1.45-1.42Z" style="fill:#60100e"/><path d="M53.84,82.64v2.23a1.58,1.58,0,0,1-1.59,1.58h-3a2,2,0,0,1-2-2v-.33Z" style="fill:#711b13"/><path d="M55.05,76.13s3.07,4.65-1.21,6.51l-6.7,2.23s-4-1.58-1-8.74Z" style="fill:#d75127"/><polygon points="74.13 61.1 60.49 57.56 58.11 57.56 58.11 68.99 74.13 68.99 74.13 61.1" style="fill:#f38d30"/><path d="M55.05,59.2l3.07,1.86-3.07,8.65s4.83,2.88,0,6.42H46.12v-2l4.65-11.9Z" style="fill:#5f110e"/><path d="M59.65,69V58.89s-.49-4.43-8.49-4.29a4.51,4.51,0,0,0-2.61.91c-1.8,1.36-4.57,4.37-2.29,8.93l5.88,9.87H56.8l1.78-4.2Z" style="fill:#b74026"/><polygon points="74.13 96.78 72.4 96.78 72.4 107.96 74.13 101.31 74.13 96.78" style="fill:#cd4827"/><polygon points="86.6 112.62 82.27 134.33 75.85 134.33 75.85 128.53 75.85 112.62 86.6 112.62" style="fill:#cb5327"/><polygon points="87.45 85.97 87.45 88.84 75.85 88.84 75.85 87.23 87.45 85.97" style="fill:#d65327"/><polygon points="86.82 82.41 87.95 82.41 87.95 85.71 85.03 87.23 75.85 87.23 75.85 83.84 81.82 83.84 83.25 82.41 86.82 82.41" style="fill:#da7f2c"/><rect x="75.85" y="88.84" width="12.1" height="1.9" transform="translate(163.79 179.57) rotate(180)" style="fill:#a73623"/><polygon points="87.95 90.74 86.67 92.02 75.85 92.02 75.85 90.74 87.95 90.74" style="fill:#86261b"/><polygon points="86.67 92.02 87.28 92.63 87.28 95.11 85.18 95.11 81.65 96.78 75.85 96.78 75.85 92.02 86.67 92.02" style="fill:#4f0f0d"/><polygon points="75.85 52.96 80.82 52.96 83.25 52.96 84.19 53.9 82.02 56.08 86.28 56.08 87.76 57.56 91.55 57.56 91.55 68.99 75.85 68.99 75.85 52.96" style="fill:#231a1c"/><polygon points="91.55 68.99 91.55 71.35 89.98 72.91 86.82 82.41 83.25 82.41 81.82 83.84 75.85 83.84 75.85 68.99 91.55 68.99" style="fill:#5a100d"/><polygon points="87.28 95.11 88.4 95.11 90.14 98.27 89.2 100.41 83.07 96.11 85.18 95.11 87.28 95.11" style="fill:#973120"/><polygon points="81.65 96.78 88.35 103.47 89.2 100.41 83.07 96.11 81.65 96.78" style="fill:#f38d30"/><polygon points="88.35 103.47 87.28 106.23 75.85 96.78 81.65 96.78 88.35 103.47" style="fill:#be4b28"/><polygon points="87.28 106.23 89.2 111.72 80.57 114.71 75.85 114.71 75.85 96.78 87.28 106.23" style="fill:#8c2b1d"/><polygon points="80.93 106.72 80.93 118.05 75.85 125.1 75.85 110.83 75.85 101.86 80.93 106.72" style="fill:#e18f33"/><polygon points="82.27 134.33 82.94 130.97 84.6 135 83.07 152.13 75.85 150.89 75.85 134.33 82.27 134.33" style="fill:#892a1b"/><rect x="74.12" y="83.84" width="1.72" height="12.94" style="fill:#711b13"/><rect x="74.12" y="52.96" width="1.72" height="16.03" style="fill:#ef6f33"/><rect x="74.12" y="68.99" width="1.72" height="14.85" style="fill:#a63823"/><path d="M82.74,42.51H74.12V36.44C80.58,37,82.45,38.7,82.74,42.51Z" style="fill:#8d2c1d"/><path d="M81.85,49.58l-1,1.88H74.12v-9h8.62A20.28,20.28,0,0,1,81.85,49.58Z" style="fill:#8d2c1d"/><path d="M74.12,51.46h6.77L79.28,54.6a6.57,6.57,0,0,1-5.16,3Z" style="fill:#5a0d0c"/><path d="M95.5,90.32l-.35.55a4.41,4.41,0,0,1-1.76-2.66A5.45,5.45,0,0,1,94.61,84l.53.38A4.83,4.83,0,0,0,94,88.09,3.65,3.65,0,0,0,95.5,90.32Z" style="fill:#323534"/><path d="M95.68,93.61l-.6.74a13.68,13.68,0,0,1-3.36-4.42c-1.19-2.54-1.94-6.52,1.24-11.06l.77.54c-2.34,3.35-2.73,6.75-1.15,10.11A12.54,12.54,0,0,0,95.68,93.61Z" style="fill:#323534"/><rect x="95.49" y="85.76" width="3.45" height="5.62" style="fill:#0b181b"/><path d="M95.67,88.48l2.9.13a1.15,1.15,0,0,1,1.08,1.31l-1.57,12-3-.14L94.47,89.7A1.15,1.15,0,0,1,95.67,88.48Z" style="fill:#922f1f"/><rect x="93.8" y="101.14" width="5.2" height="6.12" transform="translate(4.93 -4.36) rotate(2.66)" style="fill:#600f0f"/><path d="M96.21,107.25a3.66,3.66,0,0,1,0,.83,1.43,1.43,0,0,1-.72,1.16c-.86.48-2.33,1.92-2.74,6.31a.4.4,0,0,1-.42.37h0a.77.77,0,0,1-.73-.8l.27-5.9a1.17,1.17,0,0,1,.38-.8l1.41-1.29Z" style="fill:#711b13"/><path d="M96,107.24a3.47,3.47,0,0,0-.08.83,1.4,1.4,0,0,0,.69,1.23c.91.55,2.4,2.13,2.43,6.55a.44.44,0,0,0,.44.4h0a.81.81,0,0,0,.89-.72l.28-5.9a1.09,1.09,0,0,0-.34-.83l-1.45-1.42Z" style="fill:#60100e"/><path d="M94.41,82.64v2.23A1.58,1.58,0,0,0,96,86.45h3a2,2,0,0,0,2-2v-.33Z" style="fill:#4f0b0d"/><path d="M93.2,76.13s-3.07,4.65,1.21,6.51l6.7,2.23s4-1.58,1-8.74Z" style="fill:#a94324"/><polygon points="74.13 61.1 87.76 57.56 90.14 57.56 90.14 68.99 74.13 68.99 74.13 61.1" style="fill:#cb782b"/><path d="M93.2,59.2l-3.07,1.86,3.07,8.65s-4.83,2.88,0,6.42h8.93v-2l-4.65-11.9Z" style="fill:#4d070c"/><path d="M88.6,69V58.89s.51-4.56,8.82-4.28a3.58,3.58,0,0,1,1.9.62c1.75,1.21,5.12,4.32,2.67,9.21l-5.88,9.87H91.45l-1.78-4.2Z" style="fill:#87281b"/><polygon points="74.13 96.78 75.85 96.78 75.85 107.96 74.13 101.31 74.13 96.78" style="fill:#cd4827"/><polygon points="68.89 96.78 78.99 96.78 75.85 107.96 72.4 107.96 68.89 96.78" style="fill:#4f090e"/><rect x="77.33" y="166.92" width="9.12" height="3.23" transform="translate(163.78 337.07) rotate(180)" style="fill:#65180d"/><path d="M82.17,149.84a35.19,35.19,0,0,0-4.71,0v8.8h4.71S83.37,150.74,82.17,149.84Z" style="fill:#178083"/><path d="M80.51,158.64v8.28H78.63v-2.84a1.3,1.3,0,0,0-1.3-1.3v-4.14Z" style="fill:#cc762b"/><polygon points="82.24 158.64 84.12 158.64 84.12 159.77 83.29 159.77 83.29 163.76 86.45 166.92 80.51 166.92 80.51 158.64 82.24 158.64" style="fill:#702d14"/><path d="M83.29,144.71h2.45v8.83s-3.15.5-1.66,5.11h-2V144.71Z" style="fill:#0c0e12"/><polygon points="82.07 150.89 75.85 150.89 75.85 142.74 82.07 149.68 82.07 150.89" style="fill:#0c0e12"/><polygon points="82.07 154.63 79.61 150.89 75.85 150.89 82.05 158.65 82.07 154.63" style="fill:#0c0e12"/><rect x="61.8" y="166.92" width="9.12" height="3.23" style="fill:#a63823"/><path d="M66.08,149.84a35.19,35.19,0,0,1,4.71,0v8.8H66.08S64.88,150.74,66.08,149.84Z" style="fill:#1f8f98"/><path d="M67.74,158.64v8.28h1.88v-2.84a1.3,1.3,0,0,1,1.3-1.3v-4.14Z" style="fill:#e08230"/><polygon points="66.01 158.64 64.13 158.64 64.13 159.77 64.96 159.77 64.96 163.76 61.8 166.92 67.74 166.92 67.74 158.64 66.01 158.64" style="fill:#863c1d"/><path d="M65,144.71H62.55v8.83s3.11.5,1.64,5.11h2V144.71Z" style="fill:#202020"/><polygon points="66.18 150.89 72.4 150.89 72.4 142.74 66.18 149.68 66.18 150.89" style="fill:#202020"/><polygon points="66.18 154.63 68.63 150.89 72.4 150.89 66.2 158.65 66.18 154.63" style="fill:#202020"/><polygon points="72.4 68.99 72.4 74.31 60.97 68.99 72.4 68.99" style="fill:#db7526"/><polygon points="75.85 68.99 75.85 74.31 87.28 68.99 75.85 68.99" style="fill:#bf6728"/><rect x="70.74" y="39.12" width="1.66" height="6.78" style="fill:#3b3a36"/><rect x="76.05" y="39.12" width="1.66" height="6.78" style="fill:#3b3a36"/><circle cx="52.64" cy="61.32" r="5.22" transform="translate(-19.48 97.79) rotate(-76.18)" style="fill:#372e2f"/><path d="M56,62.94a3.63,3.63,0,0,0-1.13-2.31c-1-1.13-2.27-2.14-2.18-3.83h0A3.24,3.24,0,0,0,52,57.9a1.52,1.52,0,0,0-.18.87,2.74,2.74,0,0,0,.06.56A4.12,4.12,0,0,1,52,60.48a1.61,1.61,0,0,1-.07.37c-.06.16-.09.36-.34.36s-.28-.21-.34-.36a6.1,6.1,0,0,1-.09-1.47,8.27,8.27,0,0,0-.57.79A6.35,6.35,0,0,0,50,61.31a4.94,4.94,0,0,0-.38,1.74,2.13,2.13,0,0,0,.6,1.67l.26.23a2.87,2.87,0,0,0,.6.35,4.43,4.43,0,0,0,1.16.31h1a4.89,4.89,0,0,0,.83-.17,3.08,3.08,0,0,0,1.39-.8A2.31,2.31,0,0,0,56,62.94Z" style="fill:#f47f33"/><path d="M56,62.94a3.63,3.63,0,0,0-1.13-2.31c-1-1.13-2.27-2.14-2.18-3.83a2.79,2.79,0,0,0-.94,2,14.61,14.61,0,0,0,1.73,2.07,3.61,3.61,0,0,1,1.13,2.3,2.29,2.29,0,0,1-.6,1.7,3.09,3.09,0,0,1-1.29.77h.46a4.89,4.89,0,0,0,.83-.17,3.08,3.08,0,0,0,1.39-.8A2.31,2.31,0,0,0,56,62.94Z" style="fill:#ee6635"/><path d="M52,60.48a1.61,1.61,0,0,1-.07.37c-.06.16-.09.36-.34.36s-.28-.21-.34-.36a6.1,6.1,0,0,1-.09-1.47,8.27,8.27,0,0,0-.57.79A7,7,0,0,0,50,61.31a4.94,4.94,0,0,0-.38,1.74,2.16,2.16,0,0,0,.6,1.67l.26.23C54.06,64.5,53,62,52,60.48Z" style="fill:#f68c2f"/><path d="M54.65,63.14a3.61,3.61,0,0,0-1.13-2.3s-1.88-2.13-.79-4c0,0-1.07,1.1-.94,2l.12.2-.12-.2a2.74,2.74,0,0,0,.06.56A4.12,4.12,0,0,1,52,60.48c1,1.49,2.07,4-1.55,4.47a2.87,2.87,0,0,0,.6.35,4.43,4.43,0,0,0,1.16.31h.56a3.09,3.09,0,0,0,1.29-.77A2.29,2.29,0,0,0,54.65,63.14Z" style="fill:#f47f33"/><circle cx="95.5" cy="61.21" r="5.22" transform="translate(-15.77 83.21) rotate(-43.84)" style="fill:#372e2f"/><path d="M98.91,62.82a3.61,3.61,0,0,0-1.13-2.3c-1-1.14-2.28-2.14-2.19-3.83h0a3.33,3.33,0,0,0-.76,1.09,1.64,1.64,0,0,0-.18.88,2.81,2.81,0,0,0,.06.56,3.74,3.74,0,0,1,.14,1.15,1.53,1.53,0,0,1-.07.36c0,.16-.08.36-.34.36s-.28-.2-.33-.36a6,6,0,0,1-.1-1.46,9.64,9.64,0,0,0-.57.78,7.51,7.51,0,0,0-.61,1.15,5,5,0,0,0-.39,1.74,2.15,2.15,0,0,0,.61,1.67,1.79,1.79,0,0,0,.25.22,2.87,2.87,0,0,0,.6.35,4.05,4.05,0,0,0,1.17.31h1a4,4,0,0,0,.83-.17,3.16,3.16,0,0,0,1.39-.79A2.34,2.34,0,0,0,98.91,62.82Z" style="fill:#f47f33"/><path d="M98.91,62.82a3.61,3.61,0,0,0-1.13-2.3c-1-1.14-2.28-2.14-2.19-3.83a2.77,2.77,0,0,0-.94,2,14.07,14.07,0,0,0,1.74,2.06A3.63,3.63,0,0,1,97.52,63a2.32,2.32,0,0,1-.61,1.71,3.11,3.11,0,0,1-1.29.76h.46a4,4,0,0,0,.83-.17,3.16,3.16,0,0,0,1.39-.79A2.34,2.34,0,0,0,98.91,62.82Z" style="fill:#ee6635"/><path d="M94.85,60.37a1.53,1.53,0,0,1-.07.36c0,.16-.08.36-.34.36s-.27-.2-.33-.36a6,6,0,0,1-.1-1.46,9.64,9.64,0,0,0-.57.78,7.51,7.51,0,0,0-.61,1.15,5,5,0,0,0-.39,1.74,2.15,2.15,0,0,0,.61,1.67,1.79,1.79,0,0,0,.25.22C96.93,64.39,95.84,61.86,94.85,60.37Z" style="fill:#f68c2f"/><path d="M97.52,63a3.63,3.63,0,0,0-1.13-2.3s-1.89-2.12-.8-4c0,0-1.06,1.09-.94,2l.13.2-.13-.2a2.81,2.81,0,0,0,.06.56,3.74,3.74,0,0,1,.14,1.15c1,1.49,2.08,4-1.55,4.46a2.87,2.87,0,0,0,.6.35,4.05,4.05,0,0,0,1.17.31h.55a3.11,3.11,0,0,0,1.29-.76A2.32,2.32,0,0,0,97.52,63Z" style="fill:#f47f33"/></g></g></svg>