<svg xmlns="http://www.w3.org/2000/svg" xmlns:xlink="http://www.w3.org/1999/xlink" viewBox="0 0 148.25 207.55"><defs><clipPath id="clip-path"><rect width="148.25" height="207.55" style="fill:none"/></clipPath><linearGradient id="Degradado_sin_nombre_5" x1="-14.83" y1="14.83" x2="163.07" y2="192.72" gradientUnits="userSpaceOnUse"><stop offset="0" stop-color="#fef201"/><stop offset="1" stop-color="#ff1443"/></linearGradient></defs><title>Asset 170</title><g style="isolation:isolate"><g id="Layer_2" data-name="Layer 2"><g id="Layer_3" data-name="Layer 3"><g style="clip-path:url(#clip-path)"><rect width="148.25" height="207.55" style="fill:url(#Degradado_sin_nombre_5)"/><g style="opacity:0.46;mix-blend-mode:soft-light"><circle cx="4.8" cy="8.78" r="1" style="fill:#fef201"/><circle cx="4.8" cy="21.82" r="1" style="fill:#fef201"/><circle cx="4.8" cy="34.87" r="1" style="fill:#fef201"/><circle cx="4.8" cy="47.91" r="1" style="fill:#fef201"/><circle cx="4.8" cy="60.95" r="1" style="fill:#fef201"/><circle cx="4.8" cy="74" r="1" style="fill:#fef201"/><circle cx="4.8" cy="87.04" r="1" style="fill:#fef201"/><circle cx="4.8" cy="100.09" r="1" style="fill:#fef201"/><circle cx="4.8" cy="113.13" r="1" style="fill:#fef201"/><circle cx="4.8" cy="126.18" r="1" style="fill:#fef201"/><circle cx="4.8" cy="139.22" r="1" style="fill:#fef201"/><circle cx="4.8" cy="152.26" r="1" style="fill:#fef201"/><circle cx="4.8" cy="165.31" r="1" style="fill:#fef201"/><circle cx="4.8" cy="178.35" r="1" style="fill:#fef201"/><circle cx="4.8" cy="191.4" r="1" style="fill:#fef201"/><circle cx="4.8" cy="204.44" r="1" style="fill:#fef201"/><path d="M12.15,4.11a1,1,0,1,0,0-2,1,1,0,0,0-1,1A1,1,0,0,0,12.15,4.11Z" style="fill:#fef201"/><path d="M12.18,15.15a1,1,0,1,0,1,1A1,1,0,0,0,12.18,15.15Z" style="fill:#fef201"/><path d="M12.23,28.2a1,1,0,1,0,1,1A1,1,0,0,0,12.23,28.2Z" style="fill:#fef201"/><path d="M12.27,41.24a1,1,0,1,0,0,2,1,1,0,0,0,0-2Z" style="fill:#fef201"/><path d="M12.31,54.28a1,1,0,0,0-1,1,1,1,0,0,0,1,1,1,1,0,1,0,0-2Z" style="fill:#fef201"/><path d="M12.36,67.33a1,1,0,1,0,1,1A1,1,0,0,0,12.36,67.33Z" style="fill:#fef201"/><path d="M12.4,80.37a1,1,0,0,0-1,1,1,1,0,0,0,2,0A1,1,0,0,0,12.4,80.37Z" style="fill:#fef201"/><path d="M12.44,93.42a1,1,0,1,0,0,2,1,1,0,0,0,0-2Z" style="fill:#fef201"/><path d="M12.48,106.46a1,1,0,0,0,0,2,1,1,0,1,0,0-2Z" style="fill:#fef201"/><path d="M12.53,119.51a1,1,0,1,0,0,2,1,1,0,0,0,1-1A1,1,0,0,0,12.53,119.51Z" style="fill:#fef201"/><path d="M12.57,132.55a1,1,0,1,0,1,1A1,1,0,0,0,12.57,132.55Z" style="fill:#fef201"/><path d="M12.61,145.6a1,1,0,0,0-1,1,1,1,0,0,0,1,1,1,1,0,0,0,1-1A1,1,0,0,0,12.61,145.6Z" style="fill:#fef201"/><path d="M12.65,158.64a1,1,0,1,0,1,1A1,1,0,0,0,12.65,158.64Z" style="fill:#fef201"/><path d="M12.7,171.68a1,1,0,0,0-1,1,1,1,0,0,0,2,0A1,1,0,0,0,12.7,171.68Z" style="fill:#fef201"/><path d="M12.74,184.73a1,1,0,1,0,1,1A1,1,0,0,0,12.74,184.73Z" style="fill:#fef201"/><path d="M12.78,197.77a1,1,0,1,0,0,2,1,1,0,0,0,1-1A1,1,0,0,0,12.78,197.77Z" style="fill:#fef201"/><circle cx="21.13" cy="8.78" r="1" style="fill:#fef201"/><circle cx="21.13" cy="21.82" r="1" style="fill:#fef201"/><circle cx="21.13" cy="34.87" r="1" style="fill:#fef201"/><circle cx="21.13" cy="47.91" r="1" style="fill:#fef201"/><circle cx="21.13" cy="60.95" r="1" style="fill:#fef201"/><circle cx="21.13" cy="74" r="1" style="fill:#fef201"/><circle cx="21.13" cy="87.04" r="1" style="fill:#fef201"/><circle cx="21.13" cy="100.09" r="1" style="fill:#fef201"/><circle cx="21.13" cy="113.13" r="1" style="fill:#fef201"/><circle cx="21.13" cy="126.18" r="1" style="fill:#fef201"/><circle cx="21.13" cy="139.22" r="1" style="fill:#fef201"/><circle cx="21.13" cy="152.26" r="1" style="fill:#fef201"/><circle cx="21.13" cy="165.31" r="1" style="fill:#fef201"/><circle cx="21.13" cy="178.35" r="1" style="fill:#fef201"/><circle cx="21.13" cy="191.4" r="1" style="fill:#fef201"/><circle cx="21.13" cy="204.44" r="1" style="fill:#fef201"/><path d="M28.48,4.11a1,1,0,0,0,1-1,1,1,0,1,0-1,1Z" style="fill:#fef201"/><path d="M28.52,15.15a1,1,0,0,0-1,1,1,1,0,1,0,1-1Z" style="fill:#fef201"/><path d="M28.56,28.2a1,1,0,0,0-1,1,1,1,0,0,0,1,1,1,1,0,0,0,0-2Z" style="fill:#fef201"/><path d="M28.6,41.24a1,1,0,0,0,0,2,1,1,0,1,0,0-2Z" style="fill:#fef201"/><path d="M28.65,54.28a1,1,0,0,0-1,1,1,1,0,0,0,1,1,1,1,0,1,0,0-2Z" style="fill:#fef201"/><path d="M28.69,67.33a1,1,0,1,0,1,1A1,1,0,0,0,28.69,67.33Z" style="fill:#fef201"/><path d="M28.73,80.37a1,1,0,1,0,0,2,1,1,0,0,0,1-1A1,1,0,0,0,28.73,80.37Z" style="fill:#fef201"/><path d="M28.77,93.42a1,1,0,0,0,0,2,1,1,0,1,0,0-2Z" style="fill:#fef201"/><path d="M28.82,106.46a1,1,0,1,0,1,1A1,1,0,0,0,28.82,106.46Z" style="fill:#fef201"/><path d="M28.86,119.51a1,1,0,1,0,1,1A1,1,0,0,0,28.86,119.51Z" style="fill:#fef201"/><path d="M28.9,132.55a1,1,0,1,0,1,1A1,1,0,0,0,28.9,132.55Z" style="fill:#fef201"/><path d="M28.94,145.6a1,1,0,0,0,0,2,1,1,0,0,0,1-1A1,1,0,0,0,28.94,145.6Z" style="fill:#fef201"/><path d="M29,158.64a1,1,0,1,0,1,1A1,1,0,0,0,29,158.64Z" style="fill:#fef201"/><path d="M29,171.68a1,1,0,0,0-1,1,1,1,0,0,0,2,0A1,1,0,0,0,29,171.68Z" style="fill:#fef201"/><path d="M29.07,184.73a1,1,0,0,0-1,1,1,1,0,1,0,1-1Z" style="fill:#fef201"/><path d="M29.11,197.77a1,1,0,1,0,1,1A1,1,0,0,0,29.11,197.77Z" style="fill:#fef201"/><circle cx="37.47" cy="8.78" r="1" style="fill:#fef201"/><circle cx="37.47" cy="21.82" r="1" style="fill:#fef201"/><circle cx="37.47" cy="34.87" r="1" style="fill:#fef201"/><circle cx="37.47" cy="47.91" r="1" style="fill:#fef201"/><circle cx="37.47" cy="60.95" r="1" style="fill:#fef201"/><circle cx="37.47" cy="74" r="1" style="fill:#fef201"/><circle cx="37.47" cy="87.04" r="1" style="fill:#fef201"/><circle cx="37.47" cy="100.09" r="1" style="fill:#fef201"/><circle cx="37.47" cy="113.13" r="1" style="fill:#fef201"/><circle cx="37.47" cy="126.18" r="1" style="fill:#fef201"/><circle cx="37.47" cy="139.22" r="1" style="fill:#fef201"/><circle cx="37.47" cy="152.26" r="1" style="fill:#fef201"/><circle cx="37.47" cy="165.31" r="1" style="fill:#fef201"/><circle cx="37.47" cy="178.35" r="1" style="fill:#fef201"/><circle cx="37.47" cy="191.4" r="1" style="fill:#fef201"/><circle cx="37.47" cy="204.44" r="1" style="fill:#fef201"/><path d="M44.82,4.11a1,1,0,1,0-1-1A1,1,0,0,0,44.82,4.11Z" style="fill:#fef201"/><path d="M44.85,15.15a1,1,0,1,0,0,2,1,1,0,0,0,1-1A1,1,0,0,0,44.85,15.15Z" style="fill:#fef201"/><path d="M44.89,28.2a1,1,0,0,0,0,2,1,1,0,0,0,1-1A1,1,0,0,0,44.89,28.2Z" style="fill:#fef201"/><path d="M44.94,41.24a1,1,0,1,0,1,1A1,1,0,0,0,44.94,41.24Z" style="fill:#fef201"/><path d="M45,54.28a1,1,0,0,0-1,1,1,1,0,0,0,2,0A1,1,0,0,0,45,54.28Z" style="fill:#fef201"/><path d="M45,67.33a1,1,0,0,0-1,1,1,1,0,1,0,1-1Z" style="fill:#fef201"/><path d="M45.06,80.37a1,1,0,0,0-1,1,1,1,0,0,0,1,1,1,1,0,1,0,0-2Z" style="fill:#fef201"/><path d="M45.11,93.42a1,1,0,1,0,1,1A1,1,0,0,0,45.11,93.42Z" style="fill:#fef201"/><path d="M45.15,106.46a1,1,0,1,0,0,2,1,1,0,0,0,0-2Z" style="fill:#fef201"/><path d="M45.19,119.51a1,1,0,0,0-1,1,1,1,0,1,0,1-1Z" style="fill:#fef201"/><path d="M45.24,132.55a1,1,0,1,0,1,1A1,1,0,0,0,45.24,132.55Z" style="fill:#fef201"/><path d="M45.28,145.6a1,1,0,1,0,1,1A1,1,0,0,0,45.28,145.6Z" style="fill:#fef201"/><path d="M45.32,158.64a1,1,0,1,0,0,2,1,1,0,0,0,0-2Z" style="fill:#fef201"/><path d="M45.36,171.68a1,1,0,0,0-1,1,1,1,0,0,0,1,1,1,1,0,1,0,0-2Z" style="fill:#fef201"/><path d="M45.41,184.73a1,1,0,1,0,1,1A1,1,0,0,0,45.41,184.73Z" style="fill:#fef201"/><path d="M45.45,197.77a1,1,0,0,0-1,1,1,1,0,1,0,1-1Z" style="fill:#fef201"/><circle cx="53.8" cy="8.78" r="1" style="fill:#fef201"/><circle cx="53.8" cy="21.82" r="1" style="fill:#fef201"/><circle cx="53.8" cy="34.87" r="1" style="fill:#fef201"/><circle cx="53.8" cy="47.91" r="1" style="fill:#fef201"/><circle cx="53.8" cy="60.95" r="1" style="fill:#fef201"/><circle cx="53.8" cy="74" r="1" style="fill:#fef201"/><circle cx="53.8" cy="87.04" r="1" style="fill:#fef201"/><circle cx="53.8" cy="100.09" r="1" style="fill:#fef201"/><circle cx="53.8" cy="113.13" r="1" style="fill:#fef201"/><circle cx="53.8" cy="126.18" r="1" style="fill:#fef201"/><circle cx="53.8" cy="139.22" r="1" style="fill:#fef201"/><circle cx="53.8" cy="152.26" r="1" style="fill:#fef201"/><circle cx="53.8" cy="165.31" r="1" style="fill:#fef201"/><circle cx="53.8" cy="178.35" r="1" style="fill:#fef201"/><circle cx="53.8" cy="191.4" r="1" style="fill:#fef201"/><circle cx="53.8" cy="204.44" r="1" style="fill:#fef201"/><path d="M61.15,4.11a1,1,0,1,0,0-2,1,1,0,0,0-1,1A1,1,0,0,0,61.15,4.11Z" style="fill:#fef201"/><path d="M61.18,15.15a1,1,0,1,0,1,1A1,1,0,0,0,61.18,15.15Z" style="fill:#fef201"/><path d="M61.23,28.2a1,1,0,1,0,1,1A1,1,0,0,0,61.23,28.2Z" style="fill:#fef201"/><path d="M61.27,41.24a1,1,0,1,0,0,2,1,1,0,0,0,0-2Z" style="fill:#fef201"/><path d="M61.31,54.28a1,1,0,0,0-1,1,1,1,0,0,0,1,1,1,1,0,1,0,0-2Z" style="fill:#fef201"/><path d="M61.36,67.33a1,1,0,1,0,1,1A1,1,0,0,0,61.36,67.33Z" style="fill:#fef201"/><path d="M61.4,80.37a1,1,0,0,0-1,1,1,1,0,0,0,2,0A1,1,0,0,0,61.4,80.37Z" style="fill:#fef201"/><path d="M61.44,93.42a1,1,0,1,0,0,2,1,1,0,0,0,0-2Z" style="fill:#fef201"/><path d="M61.48,106.46a1,1,0,0,0,0,2,1,1,0,1,0,0-2Z" style="fill:#fef201"/><path d="M61.53,119.51a1,1,0,0,0,0,2,1,1,0,0,0,1-1A1,1,0,0,0,61.53,119.51Z" style="fill:#fef201"/><path d="M61.57,132.55a1,1,0,1,0,1,1A1,1,0,0,0,61.57,132.55Z" style="fill:#fef201"/><path d="M61.61,145.6a1,1,0,0,0-1,1,1,1,0,0,0,1,1,1,1,0,0,0,1-1A1,1,0,0,0,61.61,145.6Z" style="fill:#fef201"/><path d="M61.65,158.64a1,1,0,1,0,1,1A1,1,0,0,0,61.65,158.64Z" style="fill:#fef201"/><path d="M61.7,171.68a1,1,0,0,0-1,1,1,1,0,0,0,2,0A1,1,0,0,0,61.7,171.68Z" style="fill:#fef201"/><path d="M61.74,184.73a1,1,0,1,0,1,1A1,1,0,0,0,61.74,184.73Z" style="fill:#fef201"/><path d="M61.78,197.77a1,1,0,1,0,0,2,1,1,0,0,0,1-1A1,1,0,0,0,61.78,197.77Z" style="fill:#fef201"/><circle cx="70.13" cy="8.78" r="1" style="fill:#fef201"/><circle cx="70.13" cy="21.82" r="1" style="fill:#fef201"/><circle cx="70.13" cy="34.87" r="1" style="fill:#fef201"/><circle cx="70.13" cy="47.91" r="1" style="fill:#fef201"/><circle cx="70.13" cy="60.95" r="1" style="fill:#fef201"/><circle cx="70.13" cy="74" r="1" style="fill:#fef201"/><circle cx="70.13" cy="87.04" r="1" style="fill:#fef201"/><circle cx="70.13" cy="100.09" r="1" style="fill:#fef201"/><circle cx="70.13" cy="113.13" r="1" style="fill:#fef201"/><circle cx="70.13" cy="126.18" r="1" style="fill:#fef201"/><circle cx="70.13" cy="139.22" r="1" style="fill:#fef201"/><circle cx="70.13" cy="152.26" r="1" style="fill:#fef201"/><circle cx="70.13" cy="165.31" r="1" style="fill:#fef201"/><circle cx="70.13" cy="178.35" r="1" style="fill:#fef201"/><circle cx="70.13" cy="191.4" r="1" style="fill:#fef201"/><circle cx="70.13" cy="204.44" r="1" style="fill:#fef201"/><path d="M77.48,4.11a1,1,0,0,0,1-1,1,1,0,1,0-1,1Z" style="fill:#fef201"/><path d="M77.52,15.15a1,1,0,0,0-1,1,1,1,0,1,0,1-1Z" style="fill:#fef201"/><path d="M77.56,28.2a1,1,0,0,0-1,1,1,1,0,0,0,1,1,1,1,0,0,0,0-2Z" style="fill:#fef201"/><path d="M77.6,41.24a1,1,0,0,0,0,2,1,1,0,1,0,0-2Z" style="fill:#fef201"/><path d="M77.65,54.28a1,1,0,0,0-1,1,1,1,0,0,0,1,1,1,1,0,0,0,0-2Z" style="fill:#fef201"/><path d="M77.69,67.33a1,1,0,1,0,1,1A1,1,0,0,0,77.69,67.33Z" style="fill:#fef201"/><path d="M77.73,80.37a1,1,0,1,0,0,2,1,1,0,0,0,1-1A1,1,0,0,0,77.73,80.37Z" style="fill:#fef201"/><path d="M77.77,93.42a1,1,0,0,0,0,2,1,1,0,1,0,0-2Z" style="fill:#fef201"/><path d="M77.82,106.46a1,1,0,1,0,1,1A1,1,0,0,0,77.82,106.46Z" style="fill:#fef201"/><path d="M77.86,119.51a1,1,0,1,0,1,1A1,1,0,0,0,77.86,119.51Z" style="fill:#fef201"/><path d="M77.9,132.55a1,1,0,1,0,1,1A1,1,0,0,0,77.9,132.55Z" style="fill:#fef201"/><path d="M77.94,145.6a1,1,0,0,0,0,2,1,1,0,0,0,1-1A1,1,0,0,0,77.94,145.6Z" style="fill:#fef201"/><path d="M78,158.64a1,1,0,1,0,1,1A1,1,0,0,0,78,158.64Z" style="fill:#fef201"/><path d="M78,171.68a1,1,0,0,0-1,1,1,1,0,0,0,2,0A1,1,0,0,0,78,171.68Z" style="fill:#fef201"/><path d="M78.07,184.73a1,1,0,0,0-1,1,1,1,0,1,0,1-1Z" style="fill:#fef201"/><path d="M78.11,197.77a1,1,0,1,0,1,1A1,1,0,0,0,78.11,197.77Z" style="fill:#fef201"/><circle cx="86.47" cy="8.78" r="1" style="fill:#fef201"/><circle cx="86.47" cy="21.82" r="1" style="fill:#fef201"/><circle cx="86.47" cy="34.87" r="1" style="fill:#fef201"/><circle cx="86.47" cy="47.91" r="1" style="fill:#fef201"/><circle cx="86.47" cy="60.95" r="1" style="fill:#fef201"/><circle cx="86.47" cy="74" r="1" style="fill:#fef201"/><circle cx="86.47" cy="87.04" r="1" style="fill:#fef201"/><circle cx="86.47" cy="100.09" r="1" style="fill:#fef201"/><circle cx="86.47" cy="113.13" r="1" style="fill:#fef201"/><circle cx="86.47" cy="126.18" r="1" style="fill:#fef201"/><circle cx="86.47" cy="139.22" r="1" style="fill:#fef201"/><circle cx="86.47" cy="152.26" r="1" style="fill:#fef201"/><circle cx="86.47" cy="165.31" r="1" style="fill:#fef201"/><circle cx="86.47" cy="178.35" r="1" style="fill:#fef201"/><circle cx="86.47" cy="191.4" r="1" style="fill:#fef201"/><circle cx="86.47" cy="204.44" r="1" style="fill:#fef201"/><path d="M93.82,4.11a1,1,0,1,0-1-1A1,1,0,0,0,93.82,4.11Z" style="fill:#fef201"/><path d="M93.85,15.15a1,1,0,1,0,0,2,1,1,0,0,0,1-1A1,1,0,0,0,93.85,15.15Z" style="fill:#fef201"/><path d="M93.89,28.2a1,1,0,0,0,0,2,1,1,0,0,0,1-1A1,1,0,0,0,93.89,28.2Z" style="fill:#fef201"/><path d="M93.94,41.24a1,1,0,1,0,1,1A1,1,0,0,0,93.94,41.24Z" style="fill:#fef201"/><path d="M94,54.28a1,1,0,0,0-1,1,1,1,0,0,0,2,0A1,1,0,0,0,94,54.28Z" style="fill:#fef201"/><path d="M94,67.33a1,1,0,0,0-1,1,1,1,0,1,0,1-1Z" style="fill:#fef201"/><path d="M94.06,80.37a1,1,0,0,0-1,1,1,1,0,0,0,1,1,1,1,0,1,0,0-2Z" style="fill:#fef201"/><path d="M94.11,93.42a1,1,0,1,0,1,1A1,1,0,0,0,94.11,93.42Z" style="fill:#fef201"/><path d="M94.15,106.46a1,1,0,1,0,0,2,1,1,0,0,0,0-2Z" style="fill:#fef201"/><path d="M94.19,119.51a1,1,0,0,0-1,1,1,1,0,1,0,1-1Z" style="fill:#fef201"/><path d="M94.24,132.55a1,1,0,1,0,1,1A1,1,0,0,0,94.24,132.55Z" style="fill:#fef201"/><path d="M94.28,145.6a1,1,0,1,0,1,1A1,1,0,0,0,94.28,145.6Z" style="fill:#fef201"/><path d="M94.32,158.64a1,1,0,1,0,0,2,1,1,0,0,0,0-2Z" style="fill:#fef201"/><path d="M94.36,171.68a1,1,0,0,0-1,1,1,1,0,0,0,1,1,1,1,0,1,0,0-2Z" style="fill:#fef201"/><path d="M94.41,184.73a1,1,0,1,0,1,1A1,1,0,0,0,94.41,184.73Z" style="fill:#fef201"/><path d="M94.45,197.77a1,1,0,0,0-1,1,1,1,0,1,0,1-1Z" style="fill:#fef201"/><circle cx="102.8" cy="8.78" r="1" style="fill:#fef201"/><circle cx="102.8" cy="21.82" r="1" style="fill:#fef201"/><circle cx="102.8" cy="34.87" r="1" style="fill:#fef201"/><circle cx="102.8" cy="47.91" r="1" style="fill:#fef201"/><circle cx="102.8" cy="60.95" r="1" style="fill:#fef201"/><circle cx="102.8" cy="74" r="1" style="fill:#fef201"/><circle cx="102.8" cy="87.04" r="1" style="fill:#fef201"/><circle cx="102.8" cy="100.09" r="1" style="fill:#fef201"/><circle cx="102.8" cy="113.13" r="1" style="fill:#fef201"/><circle cx="102.8" cy="126.18" r="1" style="fill:#fef201"/><circle cx="102.8" cy="139.22" r="1" style="fill:#fef201"/><circle cx="102.8" cy="152.26" r="1" style="fill:#fef201"/><circle cx="102.8" cy="165.31" r="1" style="fill:#fef201"/><circle cx="102.8" cy="178.35" r="1" style="fill:#fef201"/><circle cx="102.8" cy="191.4" r="1" style="fill:#fef201"/><circle cx="102.8" cy="204.44" r="1" style="fill:#fef201"/><path d="M110.15,4.11a1,1,0,1,0,0-2,1,1,0,0,0-1,1A1,1,0,0,0,110.15,4.11Z" style="fill:#fef201"/><path d="M110.18,15.15a1,1,0,1,0,1,1A1,1,0,0,0,110.18,15.15Z" style="fill:#fef201"/><path d="M110.23,28.2a1,1,0,1,0,1,1A1,1,0,0,0,110.23,28.2Z" style="fill:#fef201"/><path d="M110.27,41.24a1,1,0,1,0,0,2,1,1,0,0,0,0-2Z" style="fill:#fef201"/><path d="M110.31,54.28a1,1,0,0,0-1,1,1,1,0,0,0,1,1,1,1,0,1,0,0-2Z" style="fill:#fef201"/><path d="M110.36,67.33a1,1,0,1,0,1,1A1,1,0,0,0,110.36,67.33Z" style="fill:#fef201"/><path d="M110.4,80.37a1,1,0,0,0-1,1,1,1,0,0,0,2,0A1,1,0,0,0,110.4,80.37Z" style="fill:#fef201"/><path d="M110.44,93.42a1,1,0,1,0,0,2,1,1,0,0,0,0-2Z" style="fill:#fef201"/><path d="M110.48,106.46a1,1,0,0,0,0,2,1,1,0,1,0,0-2Z" style="fill:#fef201"/><path d="M110.53,119.51a1,1,0,0,0,0,2,1,1,0,0,0,1-1A1,1,0,0,0,110.53,119.51Z" style="fill:#fef201"/><path d="M110.57,132.55a1,1,0,1,0,1,1A1,1,0,0,0,110.57,132.55Z" style="fill:#fef201"/><path d="M110.61,145.6a1,1,0,0,0-1,1,1,1,0,0,0,1,1,1,1,0,0,0,1-1A1,1,0,0,0,110.61,145.6Z" style="fill:#fef201"/><path d="M110.65,158.64a1,1,0,1,0,1,1A1,1,0,0,0,110.65,158.64Z" style="fill:#fef201"/><path d="M110.7,171.68a1,1,0,0,0-1,1,1,1,0,0,0,2,0A1,1,0,0,0,110.7,171.68Z" style="fill:#fef201"/><path d="M110.74,184.73a1,1,0,1,0,1,1A1,1,0,0,0,110.74,184.73Z" style="fill:#fef201"/><path d="M110.78,197.77a1,1,0,1,0,0,2,1,1,0,0,0,1-1A1,1,0,0,0,110.78,197.77Z" style="fill:#fef201"/><circle cx="119.13" cy="8.78" r="1" style="fill:#fef201"/><circle cx="119.13" cy="21.82" r="1" style="fill:#fef201"/><circle cx="119.13" cy="34.87" r="1" style="fill:#fef201"/><circle cx="119.13" cy="47.91" r="1" style="fill:#fef201"/><circle cx="119.13" cy="60.95" r="1" style="fill:#fef201"/><circle cx="119.13" cy="74" r="1" style="fill:#fef201"/><circle cx="119.13" cy="87.04" r="1" style="fill:#fef201"/><circle cx="119.13" cy="100.09" r="1" style="fill:#fef201"/><circle cx="119.13" cy="113.13" r="1" style="fill:#fef201"/><circle cx="119.13" cy="126.18" r="1" style="fill:#fef201"/><circle cx="119.13" cy="139.22" r="1" style="fill:#fef201"/><circle cx="119.13" cy="152.26" r="1" style="fill:#fef201"/><circle cx="119.13" cy="165.31" r="1" style="fill:#fef201"/><circle cx="119.13" cy="178.35" r="1" style="fill:#fef201"/><circle cx="119.13" cy="191.4" r="1" style="fill:#fef201"/><circle cx="119.13" cy="204.44" r="1" style="fill:#fef201"/><path d="M126.48,4.11a1,1,0,0,0,1-1,1,1,0,1,0-1,1Z" style="fill:#fef201"/><path d="M126.52,15.15a1,1,0,0,0-1,1,1,1,0,1,0,1-1Z" style="fill:#fef201"/><path d="M126.56,28.2a1,1,0,0,0-1,1,1,1,0,0,0,1,1,1,1,0,0,0,0-2Z" style="fill:#fef201"/><path d="M126.6,41.24a1,1,0,0,0,0,2,1,1,0,1,0,0-2Z" style="fill:#fef201"/><path d="M126.65,54.28a1,1,0,0,0-1,1,1,1,0,0,0,1,1,1,1,0,0,0,0-2Z" style="fill:#fef201"/><path d="M126.69,67.33a1,1,0,1,0,1,1A1,1,0,0,0,126.69,67.33Z" style="fill:#fef201"/><path d="M126.73,80.37a1,1,0,1,0,0,2,1,1,0,0,0,1-1A1,1,0,0,0,126.73,80.37Z" style="fill:#fef201"/><path d="M126.77,93.42a1,1,0,0,0,0,2,1,1,0,1,0,0-2Z" style="fill:#fef201"/><path d="M126.82,106.46a1,1,0,1,0,1,1A1,1,0,0,0,126.82,106.46Z" style="fill:#fef201"/><path d="M126.86,119.51a1,1,0,1,0,1,1A1,1,0,0,0,126.86,119.51Z" style="fill:#fef201"/><path d="M126.9,132.55a1,1,0,1,0,1,1A1,1,0,0,0,126.9,132.55Z" style="fill:#fef201"/><path d="M126.94,145.6a1,1,0,0,0,0,2,1,1,0,0,0,1-1A1,1,0,0,0,126.94,145.6Z" style="fill:#fef201"/><path d="M127,158.64a1,1,0,1,0,1,1A1,1,0,0,0,127,158.64Z" style="fill:#fef201"/><path d="M127,171.68a1,1,0,0,0-1,1,1,1,0,0,0,2,0A1,1,0,0,0,127,171.68Z" style="fill:#fef201"/><path d="M127.07,184.73a1,1,0,0,0-1,1,1,1,0,1,0,1-1Z" style="fill:#fef201"/><path d="M127.11,197.77a1,1,0,1,0,1,1A1,1,0,0,0,127.11,197.77Z" style="fill:#fef201"/><circle cx="135.47" cy="8.78" r="1" style="fill:#fef201"/><circle cx="135.47" cy="21.82" r="1" style="fill:#fef201"/><circle cx="135.47" cy="34.87" r="1" style="fill:#fef201"/><circle cx="135.47" cy="47.91" r="1" style="fill:#fef201"/><circle cx="135.47" cy="60.95" r="1" style="fill:#fef201"/><circle cx="135.47" cy="74" r="1" style="fill:#fef201"/><circle cx="135.47" cy="87.04" r="1" style="fill:#fef201"/><circle cx="135.47" cy="100.09" r="1" style="fill:#fef201"/><circle cx="135.47" cy="113.13" r="1" style="fill:#fef201"/><circle cx="135.47" cy="126.18" r="1" style="fill:#fef201"/><circle cx="135.47" cy="139.22" r="1" style="fill:#fef201"/><circle cx="135.47" cy="152.26" r="1" style="fill:#fef201"/><circle cx="135.47" cy="165.31" r="1" style="fill:#fef201"/><circle cx="135.47" cy="178.35" r="1" style="fill:#fef201"/><circle cx="135.47" cy="191.4" r="1" style="fill:#fef201"/><circle cx="135.47" cy="204.44" r="1" style="fill:#fef201"/><path d="M142.82,4.11a1,1,0,1,0-1-1A1,1,0,0,0,142.82,4.11Z" style="fill:#fef201"/><path d="M142.85,15.15a1,1,0,1,0,0,2,1,1,0,0,0,1-1A1,1,0,0,0,142.85,15.15Z" style="fill:#fef201"/><path d="M142.89,28.2a1,1,0,0,0,0,2,1,1,0,0,0,1-1A1,1,0,0,0,142.89,28.2Z" style="fill:#fef201"/><path d="M142.94,41.24a1,1,0,1,0,1,1A1,1,0,0,0,142.94,41.24Z" style="fill:#fef201"/><path d="M143,54.28a1,1,0,0,0-1,1,1,1,0,0,0,2,0A1,1,0,0,0,143,54.28Z" style="fill:#fef201"/><path d="M143,67.33a1,1,0,0,0-1,1,1,1,0,1,0,1-1Z" style="fill:#fef201"/><path d="M143.06,80.37a1,1,0,0,0-1,1,1,1,0,0,0,1,1,1,1,0,1,0,0-2Z" style="fill:#fef201"/><path d="M143.11,93.42a1,1,0,1,0,1,1A1,1,0,0,0,143.11,93.42Z" style="fill:#fef201"/><path d="M143.15,106.46a1,1,0,1,0,0,2,1,1,0,0,0,0-2Z" style="fill:#fef201"/><path d="M143.19,119.51a1,1,0,0,0-1,1,1,1,0,1,0,1-1Z" style="fill:#fef201"/><path d="M143.24,132.55a1,1,0,1,0,1,1A1,1,0,0,0,143.24,132.55Z" style="fill:#fef201"/><path d="M143.28,145.6a1,1,0,1,0,1,1A1,1,0,0,0,143.28,145.6Z" style="fill:#fef201"/><path d="M143.32,158.64a1,1,0,1,0,0,2,1,1,0,0,0,0-2Z" style="fill:#fef201"/><path d="M143.36,171.68a1,1,0,0,0-1,1,1,1,0,0,0,1,1,1,1,0,1,0,0-2Z" style="fill:#fef201"/><path d="M143.41,184.73a1,1,0,1,0,1,1A1,1,0,0,0,143.41,184.73Z" style="fill:#fef201"/><path d="M143.45,197.77a1,1,0,0,0-1,1,1,1,0,1,0,1-1Z" style="fill:#fef201"/></g></g><g style="opacity:0.45"><polygon points="80.36 40.2 73.51 40.2 8.1 105.61 8.1 112.45 80.36 40.2" style="fill:#00158e;opacity:0.2"/><polygon points="99.61 40.2 92.76 40.2 8.1 124.85 8.1 131.7 99.61 40.2" style="fill:#00158e;opacity:0.2"/><polygon points="61.11 40.2 54.27 40.2 8.1 86.36 8.1 93.21 61.11 40.2" style="fill:#00158e;opacity:0.2"/><polygon points="41.86 40.2 35.02 40.2 8.1 67.11 8.1 73.96 41.86 40.2" style="fill:#00158e;opacity:0.2"/><polygon points="22.62 40.2 15.77 40.2 8.1 47.86 8.1 54.71 22.62 40.2" style="fill:#00158e;opacity:0.2"/><path d="M108.1,40.2v3.91L11.81,140.4H8.1v30.51H138.82V40.2Zm0,100.2H95.65L108.1,128Zm0-19.3L88.8,140.4H76.4l31.7-31.7Zm0-19.25L69.56,140.4H57.15L108.1,89.45Zm0-19.25L50.31,140.4H37.91L108.1,70.2Zm0-19.24-77,77H18.66L108.1,51Z" style="fill:#00158e;opacity:0.2"/><polygon points="135.94 168.5 135.94 142.05 131.16 146.84 131.16 163.71 114.28 163.71 109.5 168.5 135.94 168.5" style="fill:#0751cf"/><rect x="137.39" y="71.65" width="2.99" height="35.67" style="fill:gold"/><rect x="137.39" y="114.49" width="2.99" height="4.98" style="fill:gold"/><rect x="26.4" y="170.08" width="48.42" height="2.39" style="fill:gold"/><polygon points="23.9 160.58 27.76 160.58 31.88 156.46 25.44 156.46 16.15 165.74 18.74 165.74 23.9 160.58" style="fill:gold"/><polygon points="32.27 160.58 36.13 160.58 40.26 156.46 33.81 156.46 24.53 165.74 27.11 165.74 32.27 160.58" style="fill:gold"/><polygon points="40.65 160.58 44.51 160.58 48.63 156.46 42.19 156.46 32.9 165.74 35.48 165.74 40.65 160.58" style="fill:gold"/><polygon points="49.02 160.58 52.88 160.58 57.01 156.46 50.56 156.46 41.28 165.74 43.86 165.74 49.02 160.58" style="fill:gold"/><polygon points="57.4 160.58 61.26 160.58 65.38 156.46 58.94 156.46 49.65 165.74 52.23 165.74 57.4 160.58" style="fill:gold"/><polygon points="65.77 160.58 69.63 160.58 73.75 156.46 67.31 156.46 58.03 165.74 60.61 165.74 65.77 160.58" style="fill:gold"/><polygon points="74.15 160.58 78.01 160.58 82.13 156.46 75.69 156.46 66.4 165.74 68.98 165.74 74.15 160.58" style="fill:gold"/><polygon points="82.52 160.58 86.38 160.58 90.5 156.46 84.06 156.46 74.77 165.74 77.36 165.74 82.52 160.58" style="fill:gold"/><path d="M125.13,35.49H110.19V31.9h14.94Zm-14.34-.6h13.75V32.5H110.79Z" style="fill:#0751cf"/><path d="M142.87,143.28h-2.59V131.93h2.59Zm-2-.59h1.39V132.52h-1.39Z" style="fill:#0751cf"/><path d="M101.82,179H84.49v-3.79h17.33Zm-16.74-.6h16.14v-2.59H85.08Z" style="fill:#0751cf"/><path d="M16.14,178.15H9.57v-2.39h6.57Zm-6-.59h5.38v-1.2H10.16Z" style="fill:gold"/><path d="M5.78,166.6H3.39V146.67H5.78ZM4,166H5.18V147.27H4Z" style="fill:gold"/><polygon points="94.75 34.58 94.75 34.43 26.95 34.43 26.95 33.06 94.6 33.06 94.6 34.58 94.75 34.58 94.75 34.43 94.75 34.58 94.9 34.58 94.9 32.76 26.65 32.76 26.65 34.73 94.9 34.73 94.9 34.58 94.75 34.58" style="fill:gold"/></g><rect x="62.7" y="129.21" width="24" height="3.09" style="fill:#252827"/><rect x="79.2" y="48.57" width="5.23" height="6.08" style="fill:#111514"/><rect x="63.87" y="48.57" width="5.23" height="6.08" style="fill:#252827"/><path d="M74.31,49.12H78.4s3.72.18,5.23,5.53v7.51l-9.33,3.08Z" style="fill:#7e8078"/><path d="M74.31,49.12h-4.1s-3.72.18-5.23,5.53v7.51l9.34,3.08Z" style="fill:#90928d"/><rect x="68.61" y="75.52" width="11.19" height="3.1" style="fill:#252827"/><polygon points="78.09 77.15 78.09 80.34 74.31 80.34 74.31 76 77.91 76 78.09 77.15" style="fill:#585c52"/><path d="M84,65.79a23.07,23.07,0,0,1,11,9L92.83,76a21,21,0,0,0-9.76-7.87Z" style="fill:#252827"/><path d="M84.41,64.62v0s-.06,11.06-6.32,12.51H75.81l-.72-.72h-.78V70.11Z" style="fill:#6a6e65"/><rect x="76.4" y="54.74" width="1.76" height="9.88" transform="translate(154.55 119.37) rotate(180)" style="fill:#b52d26"/><polygon points="88.77 88.7 88.77 90.08 85.35 93.51 85.35 94.71 86.7 94.71 86.7 128.4 74.31 128.4 74.31 89.66 76.89 87.07 88.77 87.07 88.77 88.7" style="fill:#811518"/><polygon points="74.31 80.34 85.61 80.34 88.77 83.49 74.31 83.49 74.31 80.34" style="fill:#c03527"/><polygon points="88.77 83.49 88.77 88.7 84.41 88.7 84.41 89.66 74.31 89.66 74.31 83.49 88.77 83.49" style="fill:#a22522"/><rect x="74.31" y="127.58" width="13.86" height="1.62" transform="translate(162.48 256.79) rotate(180)" style="fill:#86181a"/><rect x="85.91" y="129.21" width="2.26" height="27.16" transform="translate(174.08 285.57) rotate(180)" style="fill:#700f13"/><rect x="87.04" y="156.17" width="3.65" height="4.69" transform="translate(177.74 317.02) rotate(180)" style="fill:#7e1517"/><rect x="82.85" y="157.97" width="6.02" height="1.08" transform="translate(171.72 317.02) rotate(180)" style="fill:#1d1e22"/><rect x="82.12" y="153.5" width="1.99" height="10.02" transform="translate(166.23 317.02) rotate(180)" style="fill:#7e1517"/><path d="M89.18,157.52H90.7v2H89.18a1,1,0,0,1,0-2Z" style="fill:#1d1e22"/><rect x="90.7" y="156.8" width="0.48" height="3.58" transform="translate(181.87 317.18) rotate(180)" style="fill:#1d1e22"/><rect x="86.75" y="156.37" width="0.44" height="4.49" transform="translate(173.95 317.22) rotate(180)" style="fill:#1d1e22"/><polygon points="70.52 77.15 70.52 80.34 74.31 80.34 74.31 76 70.7 76 70.52 77.15" style="fill:#585c52"/><path d="M64.7,65.79a20.13,20.13,0,0,0-9.6,7.83L57,74.7a18.22,18.22,0,0,1,8.52-6.88Z" style="fill:#252827"/><path d="M64.2,64.62v0s.06,11.06,6.32,12.51H72.8l.72-.72h.79V70.11Z" style="fill:#72766c"/><rect x="70.46" y="54.74" width="1.76" height="9.88" style="fill:#b52d26"/><polygon points="59.84 88.7 59.84 90.08 63.26 93.51 63.26 94.71 61.91 94.71 61.91 128.4 74.31 128.4 74.31 89.66 71.72 87.07 59.84 87.07 59.84 88.7" style="fill:#961b20"/><polygon points="74.31 80.34 63 80.34 59.84 83.49 74.31 83.49 74.31 80.34" style="fill:#d54127"/><polygon points="59.84 83.49 59.84 88.7 64.2 88.7 64.2 89.66 74.31 89.66 74.31 83.49 59.84 83.49" style="fill:#b52d26"/><rect x="60.44" y="127.58" width="13.86" height="1.62" style="fill:#961b20"/><rect x="60.44" y="129.21" width="2.26" height="27.16" style="fill:#7e1517"/><rect x="57.91" y="156.17" width="3.65" height="4.69" style="fill:#7e1517"/><rect x="59.74" y="157.97" width="6.02" height="1.08" style="fill:#1d1e22"/><rect x="64.5" y="153.5" width="1.98" height="10.02" style="fill:#7e1517"/><path d="M59.43,157.52H57.91v2h1.52a1,1,0,1,0,0-2Z" style="fill:#1d1e22"/><rect x="57.43" y="156.8" width="0.48" height="3.58" style="fill:#1d1e22"/><rect x="61.42" y="156.37" width="0.44" height="4.49" style="fill:#1d1e22"/><polygon points="74.31 153.1 66.49 146.05 66.49 150.96 74.31 158.01 74.31 153.1" style="fill:#313832"/><path d="M74.31,148.2,67,141.64a2.26,2.26,0,0,0-.55,1.48v2.93l7.82,7Z" style="fill:#111b16"/><polygon points="74.31 167.82 66.49 160.77 66.49 165.67 74.31 172.73 74.31 167.82" style="fill:#111b16"/><polygon points="74.31 162.92 66.49 155.86 66.49 160.77 74.31 167.82 74.31 162.92" style="fill:#313832"/><polygon points="74.31 158.01 66.49 150.96 66.49 155.86 74.31 162.92 74.31 158.01" style="fill:#111b16"/><polygon points="74.31 172.73 66.49 165.67 66.49 170.58 72.66 176.15 74.31 176.15 74.31 172.73" style="fill:#313832"/><path d="M66.49,173.7a2.6,2.6,0,0,0,2.72,2.45h3.45l-6.17-5.57Z" style="fill:#111b16"/><path d="M74.31,143.29l-2.92-2.63H69.21a2.83,2.83,0,0,0-2.17,1l7.27,6.56Z" style="fill:#313832"/><polygon points="74.31 140.66 71.39 140.66 74.31 143.29 74.31 140.66" style="fill:#111b16"/><path d="M79.4,176.15a2.6,2.6,0,0,0,2.72-2.45v-3l-6.05,5.47Z" style="fill:#313832"/><polygon points="74.36 143.34 77.33 140.66 74.31 140.66 74.31 143.29 74.36 143.34" style="fill:#313832"/><path d="M79.4,140.66H77.33l-3,2.68,0-.05v4.91l0,.05,7.26-6.55A2.84,2.84,0,0,0,79.4,140.66Z" style="fill:#111b16"/><polygon points="74.31 153.1 74.31 158.01 74.36 158.06 82.13 151.06 82.13 146.15 74.36 153.16 74.31 153.1" style="fill:#111b16"/><path d="M74.31,148.2v4.9l0,.06,7.76-7v-3a2.25,2.25,0,0,0-.5-1.42l-7.26,6.55Z" style="fill:#313832"/><polygon points="74.31 158.01 74.31 162.92 74.36 162.97 82.13 155.96 82.13 151.06 74.36 158.06 74.31 158.01" style="fill:#313832"/><polygon points="74.31 172.73 74.31 176.15 76.07 176.15 82.13 170.68 82.13 165.78 74.36 172.78 74.31 172.73" style="fill:#111b16"/><polygon points="74.31 162.92 74.31 167.82 74.36 167.88 82.13 160.87 82.13 155.96 74.36 162.97 74.31 162.92" style="fill:#111b16"/><polygon points="74.31 167.82 74.31 172.73 74.36 172.78 82.13 165.78 82.13 160.87 74.36 167.88 74.31 167.82" style="fill:#313832"/><circle cx="74.15" cy="103.16" r="7.67" transform="matrix(0.68, -0.73, 0.73, 0.68, -51.91, 87.38)" style="fill:#b52d26"/><rect x="61.88" y="102.44" width="24.82" height="1.44" style="fill:#b52d26"/><polygon points="79.8 78.62 68.61 78.62 62.99 80.34 85.58 80.34 79.8 78.62" style="fill:#252827"/><polygon points="74.31 65.24 83.64 62.16 84.41 64.63 74.31 70.11 74.31 65.24" style="fill:#979995"/><polygon points="74.31 65.24 64.97 62.16 64.2 64.63 74.31 70.11 74.31 65.24" style="fill:#a1a3a0"/><rect x="55.62" y="81.18" width="4.22" height="11.37" rx="1.38" style="fill:#252827"/><rect x="88.77" y="81.18" width="4.22" height="11.37" rx="1.38" style="fill:#252827"/><path d="M52.77,94.71H49.08a2.75,2.75,0,0,1-.57,0h0l1.37,11.45H55.3V93.53A3.28,3.28,0,0,1,52.77,94.71Z" style="fill:#585c52"/><path d="M50.79,105.21h3.45a1.37,1.37,0,0,1,1.37,1.5L54.4,121.09H50.88l-1.46-14.36A1.37,1.37,0,0,1,50.79,105.21Z" style="fill:#961b20"/><rect x="49.41" y="120.28" width="6.21" height="7.31" style="fill:#90928d"/><path d="M48.6,95.38h5.16a2,2,0,0,0,1.54-.86V93.05H48.08Z" style="fill:#aeb1b0"/><path d="M54.29,72.46H52.51a3.3,3.3,0,0,0-3.18,2.41L45.09,90.14A3.3,3.3,0,0,0,46.82,94l.82.39a3.05,3.05,0,0,0,.87.28,2.75,2.75,0,0,0,.57,0h3.69A3.3,3.3,0,0,0,56,92.13l1.51-6.81a2.81,2.81,0,0,0,.08-.71V75.75A3.29,3.29,0,0,0,54.29,72.46Z" style="fill:#b52d26"/><path d="M52.46,127.58a4.2,4.2,0,0,1,0,1,1.69,1.69,0,0,1-.8,1.43c-1,.61-2.66,2.42-2.91,7.68a.49.49,0,0,1-.49.46h0a.91.91,0,0,1-.91-.91v-7.06a1.37,1.37,0,0,1,.4-1l1.62-1.62Z" style="fill:#aeb1b0"/><path d="M52.24,127.58a3.59,3.59,0,0,0-.06,1,1.66,1.66,0,0,0,.9,1.43c1.12.61,3,2.42,3.26,7.68a.53.53,0,0,0,.55.46h0a1,1,0,0,0,1-.91v-7.06a1.31,1.31,0,0,0-.45-1l-1.81-1.62Z" style="fill:#9a9f9a"/><circle cx="52.51" cy="123.93" r="1.89"/><path d="M55,86.84,53.16,85h0L55,83.11a.7.7,0,0,0,0-1,.69.69,0,0,0-1,0L52.18,84h0l-1.86-1.86a.71.71,0,0,0-1,0,.7.7,0,0,0,0,1L51.2,85h0l-1.86,1.86a.71.71,0,0,0,0,1,.7.7,0,0,0,1,0L52.18,86h0l1.88,1.87a.69.69,0,0,0,1,0A.7.7,0,0,0,55,86.84Z" style="fill:#961b20"/><path d="M96.65,95.16h3.7a2.75,2.75,0,0,0,.57,0h0l-1.38,11.45H94.13V94A3.28,3.28,0,0,0,96.65,95.16Z" style="fill:#4e514a"/><path d="M98.64,105.66H95.19a1.38,1.38,0,0,0-1.38,1.5L95,121.54h3.52L100,107.18A1.37,1.37,0,0,0,98.64,105.66Z" style="fill:#811518"/><rect x="93.81" y="120.73" width="6.21" height="7.31" transform="translate(193.83 248.76) rotate(180)" style="fill:#90928d"/><path d="M100.83,95.83H95.66A2,2,0,0,1,94.13,95V93.5h7.22Z" style="fill:#989998"/><path d="M95.14,72.91h1.78a3.28,3.28,0,0,1,3.17,2.41l4.25,15.27a3.29,3.29,0,0,1-1.74,3.85l-.81.39a3.05,3.05,0,0,1-.87.28,2.75,2.75,0,0,1-.57,0h-3.7A3.28,3.28,0,0,1,94.13,94a3.18,3.18,0,0,1-.69-1.4l-1.52-6.81a3.36,3.36,0,0,1-.08-.71V76.2A3.29,3.29,0,0,1,95.14,72.91Z" style="fill:#b52d26"/><path d="M97,128a4.9,4.9,0,0,0,0,1,1.68,1.68,0,0,0,.79,1.43c1,.61,2.67,2.42,2.92,7.68a.49.49,0,0,0,.48.47h0a.92.92,0,0,0,.92-.92v-7.06a1.37,1.37,0,0,0-.4-1L100,128Z" style="fill:#aeb1b0"/><path d="M97.19,128a4.48,4.48,0,0,1,.06,1,1.66,1.66,0,0,1-.9,1.43c-1.12.61-3,2.42-3.27,7.68a.52.52,0,0,1-.54.47h0a1,1,0,0,1-1-.92v-7.06a1.34,1.34,0,0,1,.45-1L93.78,128Z" style="fill:#9a9f9a"/><circle cx="96.91" cy="124.38" r="1.89"/><path d="M100.09,87.29l-1.86-1.86h0l1.86-1.86a.71.71,0,0,0,0-1,.69.69,0,0,0-1,0l-1.88,1.87h0l-1.86-1.86a.7.7,0,0,0-1,0,.69.69,0,0,0,0,1l1.88,1.87h0l-1.86,1.86a.69.69,0,1,0,1,1l1.87-1.87h0l1.88,1.87a.69.69,0,0,0,1,0A.7.7,0,0,0,100.09,87.29Z" style="fill:#961b20"/><circle cx="74.31" cy="129.21" r="1.44" style="fill:#252827"/><circle cx="74.31" cy="89.93" r="1.44" style="fill:#811518"/><rect x="70.52" y="76.41" width="7.58" height="0.74" style="fill:#a1a3a0"/><circle cx="88.77" cy="86.97" r="1.44" style="fill:#811518"/><circle cx="59.84" cy="86.97" r="1.44" style="fill:#811518"/><path d="M60.5,51.47V39.12a2.15,2.15,0,1,0-.49,0V52h3.84v-.49Z" style="fill:#33352e"/><path d="M90.16,37a2.17,2.17,0,1,0-2.4,2.15V51.47H84.41V52h3.84V39.12A2.16,2.16,0,0,0,90.16,37Z" style="fill:#20231f"/></g></g></g></svg>