<svg xmlns="http://www.w3.org/2000/svg" xmlns:xlink="http://www.w3.org/1999/xlink" viewBox="0 0 148.25 207.55"><defs><linearGradient id="Degradado_sin_nombre_6" x1="-14.83" y1="192.72" x2="163.07" y2="14.83" gradientUnits="userSpaceOnUse"><stop offset="0" stop-color="aqua"/><stop offset="1" stop-color="blue"/></linearGradient></defs><title>Asset 165</title><g id="Layer_2" data-name="Layer 2"><g id="Layer_3" data-name="Layer 3"><rect width="148.25" height="207.55" style="fill:url(#Degradado_sin_nombre_6)"/><g style="opacity:0.45"><polygon points="135.39 156.18 135.39 112.55 132.72 109.88 132.72 53.79 124.71 53.79 124.71 46.44 97.18 46.44 94.44 49.19 60.75 49.19 54.99 43.43 8.69 43.43 8.69 133.36 12.97 137.63 12.97 157.37 15.71 160.11 15.71 166.87 48.43 166.87 48.43 170.72 75.74 170.72 75.74 173.22 138.49 173.22 138.49 159.28 135.39 156.18" style="fill:#00158e;opacity:0.2"/><path d="M139.7,141.66V118.88a1.53,1.53,0,0,0,1.26-1.5,1.56,1.56,0,1,0-3.12,0,1.53,1.53,0,0,0,1.26,1.5v23l4.6,4.6v33.12H64.76v-5H5.4V41H24.59a1.56,1.56,0,1,0,0-.59H4.8V175.18H64.16v5H144.3v-34Z" style="fill:gold"/><polygon points="84.78 166.79 87.76 166.79 90.94 163.62 85.97 163.62 78.82 170.77 80.81 170.77 84.78 166.79" style="fill:gold"/><polygon points="91.24 166.79 94.21 166.79 97.39 163.62 92.42 163.62 85.27 170.77 87.26 170.77 91.24 166.79" style="fill:gold"/><polygon points="97.69 166.79 100.66 166.79 103.84 163.62 98.87 163.62 91.72 170.77 93.71 170.77 97.69 166.79" style="fill:gold"/><polygon points="104.14 166.79 107.11 166.79 110.29 163.62 105.33 163.62 98.17 170.77 100.16 170.77 104.14 166.79" style="fill:gold"/><polygon points="110.59 166.79 113.56 166.79 116.74 163.62 111.78 163.62 104.62 170.77 106.61 170.77 110.59 166.79" style="fill:gold"/><polygon points="117.04 166.79 120.02 166.79 123.19 163.62 118.23 163.62 111.08 170.77 113.06 170.77 117.04 166.79" style="fill:gold"/><polygon points="123.49 166.79 126.47 166.79 129.64 163.62 124.68 163.62 117.53 170.77 119.52 170.77 123.49 166.79" style="fill:gold"/><polygon points="129.94 166.79 132.92 166.79 136.09 163.62 131.13 163.62 123.98 170.77 125.97 170.77 129.94 166.79" style="fill:gold"/><polygon points="15.91 45.6 13.18 45.6 11.24 48.97 13.18 52.34 15.91 52.34 13.97 48.97 15.91 45.6" style="fill:#0751cf"/><polygon points="22.9 45.6 20.16 45.6 18.22 48.97 20.16 52.34 22.9 52.34 20.95 48.97 22.9 45.6" style="fill:#0751cf"/><polygon points="29.88 45.6 27.14 45.6 25.2 48.97 27.14 52.34 29.88 52.34 27.93 48.97 29.88 45.6" style="fill:#0751cf"/><polygon points="36.86 45.6 34.13 45.6 32.18 48.97 34.13 52.34 36.86 52.34 34.91 48.97 36.86 45.6" style="fill:#0751cf"/><polygon points="43.84 45.6 41.11 45.6 39.16 48.97 41.11 52.34 43.84 52.34 41.9 48.97 43.84 45.6" style="fill:#0751cf"/><polygon points="50.82 45.6 48.09 45.6 46.15 48.97 48.09 52.34 50.82 52.34 48.88 48.97 50.82 45.6" style="fill:#0751cf"/><path d="M66.13,45.94H69l-5.17,5.17H61Zm11.59,0H74.83l-5.16,5.17h2.88Zm-4.35,0H70.48l-5.16,5.17H68.2Zm21.75,0H92.24l-5.17,5.17H90Zm-13.05,0H79.19L74,51.11H76.9Zm8.7,0H87.89l-5.17,5.17h2.89Zm-4.35,0H83.54l-5.17,5.17h2.88Z" style="fill:gold"/><rect x="121.74" y="100.38" width="19.89" height="2.67" style="fill:gold"/><rect x="129.61" y="96.38" width="9.2" height="1.78" style="fill:gold"/><rect x="12.22" y="160.93" width="17.81" height="2.37" style="fill:gold"/><path d="M108.88,53.59H113V49.43h-4.16Zm.59-3.56h3v3h-3Z" style="fill:gold"/><path d="M129.46,85.15V81.69H125.7v3.75h3.76Zm-3.17-2.87h2.57v2.57h-2.57Z" style="fill:gold"/><path d="M125.7,136.3h4.15v-4.16H125.7Zm.59-3.57h3v3h-3Z" style="fill:#0751cf"/><path d="M15.69,150.54h5.14V145.4H15.69Zm.59-4.55h4v4h-4Z" style="fill:gold"/><path d="M11.93,126h3.16v-3.17H11.93Zm.59-2.58h2v2h-2Z" style="fill:#0751cf"/><path d="M32.51,169.54H43.78V165H32.51Zm.59-4H43.19v3.36H33.1Z" style="fill:gold"/><path d="M131.24,59.72V81.09h3.36V59.72Zm.59.6H134V80.5h-2.18Z" style="fill:gold"/><path d="M132.62,51.31V46.07h-5.54v5.54h5.54Zm-4.94-4.65H132V51h-4.35Z" style="fill:gold"/><path d="M38.05,40.83V37.17h-4v3.95h4Zm-3.37-3.07h2.77v2.77H34.68Z" style="fill:gold"/><path d="M52.88,39.94h4.95V35H52.88Zm.6-4.36h3.76v3.76H53.48Z" style="fill:#0751cf"/><polygon points="21.38 79.57 18.51 79.57 18.51 76.7 16.89 76.7 16.89 79.57 14.03 79.57 14.03 81.19 16.89 81.19 16.89 84.06 18.51 84.06 18.51 81.19 21.38 81.19 21.38 79.57" style="fill:gold"/><polygon points="33.8 79.57 30.94 79.57 30.94 76.7 29.32 76.7 29.32 79.57 26.45 79.57 26.45 81.19 29.32 81.19 29.32 84.06 30.94 84.06 30.94 81.19 33.8 81.19 33.8 79.57" style="fill:gold"/><polygon points="46.23 79.57 43.37 79.57 43.37 76.7 41.74 76.7 41.74 79.57 38.88 79.57 38.88 81.19 41.74 81.19 41.74 84.06 43.37 84.06 43.37 81.19 46.23 81.19 46.23 79.57" style="fill:gold"/><polygon points="58.66 79.57 55.79 79.57 55.79 76.7 54.17 76.7 54.17 79.57 51.31 79.57 51.31 81.19 54.17 81.19 54.17 84.06 55.79 84.06 55.79 81.19 58.66 81.19 58.66 79.57" style="fill:gold"/></g><path d="M120.5,58.74a2.11,2.11,0,1,0-2.33,2.09v12h-3.26v.47h3.73V60.83A2.11,2.11,0,0,0,120.5,58.74Z" style="fill:#060a0f"/><polygon points="112.53 75.39 115.55 74.44 115.55 71.66 104.38 71.66 104.38 75.39 112.53 75.39" style="fill:#060a0f"/><path d="M31.72,72.85v-12a2.1,2.1,0,1,0-.48,0V73.32H35v-.47Z" style="fill:#060a0f"/><polygon points="37.99 75.39 34.97 74.44 34.97 71.66 46.14 71.66 46.14 75.39 37.99 75.39" style="fill:#060a0f"/><path d="M47.93,113.43s-1.42,6.81-.49,8.87h1.28v-9.11Z" style="fill:#90619c"/><path d="M49.52,113.43s1.42,6.81.49,8.87H48.72v-9.11Z" style="fill:#a74f76"/><path d="M47.4,121.83s-4.3,1-2.78,7.29h1.71s-.7-5.18,2.35-5.29v-2Z" style="fill:#33352e"/><path d="M50,121.83s4.3,1,2.77,7.29H51s.7-5.18-2.36-5.29v-2Z" style="fill:#232723"/><path d="M62.32,60.76V58a3.88,3.88,0,0,1,3.88-3.88h9V55h-9a3,3,0,0,0-3,3.05v2.74Z" style="fill:#121718"/><path d="M66.23,60.76a3.88,3.88,0,0,1,3.88-3.88h4.32v.83H70.11a3.06,3.06,0,0,0-3,3Z" style="fill:#121718"/><polygon points="61.7 126.19 61.7 159.96 66.04 159.96 66.04 125.87 63.09 124 61.7 126.19" style="fill:#2e0232"/><rect x="70.06" y="96.93" width="7.22" height="22.93" style="fill:#561135"/><polygon points="71.16 114.5 77.28 102.77 77.28 94.31 77.28 92.3 64.62 110.59 71.16 114.5" style="fill:#661a41"/><rect x="64.62" y="77.65" width="12.66" height="13.34" style="fill:#360227"/><polygon points="71.14 38.81 65.05 38.81 65.05 31.12 69.37 31.12 71.14 38.81" style="fill:#451b46"/><path d="M64.62,96.93H61.88A3.89,3.89,0,0,1,58,93.05v-9h.84v9a3.06,3.06,0,0,0,3.05,3h2.74Z" style="fill:#121718"/><path d="M64.62,93a3.88,3.88,0,0,1-3.88-3.88V84.82h.83v4.33a3,3,0,0,0,3.05,3Z" style="fill:#121718"/><polygon points="59.17 68.46 59.17 79.68 77.28 79.68 77.28 70.58 59.17 68.46" style="fill:#6e4178"/><rect x="55.24" y="70.82" width="6.35" height="1.47" style="fill:#121718"/><rect x="55.21" y="73.06" width="6.35" height="2.6" style="fill:#121718"/><path d="M68.58,60.91,64.7,58.63a2.32,2.32,0,0,0-3.25,1l-3,6.3,3.1,10.46H72.56V63.56Z" style="fill:#451b46"/><polygon points="72.56 63.56 77.28 63.56 77.28 72.76 74.61 79.68 68.79 79.68 61.51 76.38 72.56 63.56" style="fill:#90619c"/><polygon points="55.98 62.98 54.38 61.38 49.53 61.38 42.46 69.66 40.88 69.66 40.88 77.03 42.65 78.8 47.56 76.38 54.96 76.38 56.8 66.13 55.98 62.98" style="fill:#7b2e52"/><polygon points="61.53 59.46 56.8 60.56 51.65 70.58 54.96 76.38 61.53 59.46" style="fill:#f38d30"/><polygon points="51.65 70.58 49.53 61.38 54.38 61.38 55.7 62.7 51.65 70.58" style="fill:#c97028"/><polygon points="42.46 69.66 42.65 78.8 40.88 77.03 40.88 69.66 42.46 69.66" style="fill:#a74f76"/><polygon points="59.17 79.68 56.8 83.92 60.86 86.2 68.79 79.68 59.17 79.68" style="fill:#7b2e52"/><polygon points="60.86 86.2 64.62 89.59 68.22 85.54 65.8 82.14 60.86 86.2" style="fill:#580e36"/><polygon points="42.65 78.8 45.02 85.19 52.62 85.19 54.96 76.38 47.56 76.38 42.65 78.8" style="fill:#580e36"/><polygon points="45.02 85.19 46.93 94.31 52.62 94.31 52.62 85.19 45.02 85.19" style="fill:#510d36"/><polygon points="64.62 89.59 64.62 101.6 72.87 90.51 70.14 90.51 68.22 85.54 64.62 89.59" style="fill:#360227"/><polygon points="64.62 101.6 64.62 110.59 65.94 110.59 77.28 93.57 77.28 88.19 72.87 88.19 72.87 90.51 64.62 101.6" style="fill:#a74f76"/><rect x="72.56" y="60.76" width="4.72" height="2.8" style="fill:#451b46"/><polygon points="54.96 76.38 56.59 75.66 58.84 67.35 58.68 66.81 54.96 76.38" style="fill:#121718"/><path d="M59.73,120.77l2.5-8.3a2.63,2.63,0,0,1,2.52-1.88h2.51l3.9,3.9v5.37h6.12v3.4s-3.24-.15-3.39,5.15H64.62v-2.5L64,126A4.06,4.06,0,0,1,59.73,120.77Z" style="fill:#320023"/><polygon points="64.62 128.41 64.62 143.01 70.06 143.01 73.89 128.41 64.62 128.41" style="fill:#661a41"/><path d="M77.28,36.29H67.85V48.82h9.43Z" style="fill:#af7eb6"/><path d="M67.85,48.82V49a4.77,4.77,0,0,0,3.05,4.48c1.87.71,3,2.57-2.32,7.39l3.88,2.65h4.82V48.82Z" style="fill:#521954"/><path d="M69.61,36.29A1.62,1.62,0,1,1,68,34.67,1.61,1.61,0,0,1,69.61,36.29Z" style="fill:#7b2e52"/><polygon points="70.46 164.19 66.04 159.96 66.04 143.01 70.46 143.01 70.46 164.19" style="fill:#451b46"/><path d="M59.61,160.22v-2.74c0-2.14,1.47-3.88,3.28-3.88h7.57v.83H62.89a2.84,2.84,0,0,0-2.57,3v2.74Z" style="fill:#90619c"/><path d="M63.09,160.22a3.71,3.71,0,0,1,3.49-3.88h3.88v.83H66.58a2.91,2.91,0,0,0-2.74,3.05Z" style="fill:#90619c"/><polygon points="72.52 162.61 66.04 159.96 59.16 159.96 57.49 168.51 57.51 168.54 72.52 168.54 72.52 162.61" style="fill:#451b46"/><polygon points="57.51 168.54 60.34 172.93 70.46 172.93 71.44 171.16 72.52 171.16 72.52 168.54 57.51 168.54" style="fill:#310b34"/><rect x="56.09" y="168.54" width="18.2" height="1.47" style="fill:#310b34"/><rect x="64.62" y="125.91" width="10.41" height="2.51" style="fill:#a74f76"/><path d="M46.33,101.71a4.21,4.21,0,0,1,1,3.77,6.26,6.26,0,0,0-.23,2.65l.29,2.33,2.85-.35,2-9.21Z" style="fill:#7b2e52"/><rect x="44.67" y="91.64" width="9.29" height="10.25" rx="3.04" style="fill:#90619c"/><circle cx="48.84" cy="111.3" r="2.47" style="fill:#121718"/><rect x="71.53" y="40.96" width="1.87" height="7.86" style="fill:#121718"/><rect x="66.87" y="48.82" width="10.4" height="1.96" style="fill:#580e36"/><path d="M106.63,113.43s1.42,6.81.49,8.87h-1.28v-9.11Z" style="fill:#764780"/><path d="M105,113.43s-1.42,6.81-.49,8.87h1.29v-9.11Z" style="fill:#a74f76"/><path d="M107.16,121.83s4.3,1,2.77,7.29h-1.7s.7-5.18-2.36-5.29v-2Z" style="fill:#33352e"/><path d="M104.59,121.83s-4.3,1-2.78,7.29h1.71s-.7-5.18,2.35-5.29v-2Z" style="fill:#232723"/><path d="M92.24,60.76V58a3.88,3.88,0,0,0-3.88-3.88h-9V55h9a3,3,0,0,1,3,3.05v2.74Z" style="fill:#121718"/><path d="M88.33,60.76a3.88,3.88,0,0,0-3.88-3.88H80.13v.83h4.32a3.06,3.06,0,0,1,3,3Z" style="fill:#121718"/><polygon points="92.86 126.19 92.86 159.96 88.52 159.96 88.52 125.87 91.47 124 92.86 126.19" style="fill:#1d0427"/><rect x="77.28" y="96.93" width="7.22" height="22.93" transform="translate(161.78 216.8) rotate(180)" style="fill:#360020"/><polygon points="83.4 114.5 77.28 102.77 77.28 94.31 77.28 92.3 89.94 110.59 83.4 114.5" style="fill:#4b0531"/><rect x="77.28" y="77.65" width="12.66" height="13.34" transform="translate(167.22 168.64) rotate(180)" style="fill:#20001b"/><polygon points="83.42 38.81 89.51 38.81 89.51 31.12 85.19 31.12 83.42 38.81" style="fill:#451b46"/><path d="M89.94,96.93h2.74a3.88,3.88,0,0,0,3.88-3.88v-9h-.83v9a3.06,3.06,0,0,1-3,3H89.94Z" style="fill:#121718"/><path d="M89.94,93a3.88,3.88,0,0,0,3.88-3.88V84.82H93v4.33a3,3,0,0,1-3,3Z" style="fill:#121718"/><polygon points="95.39 68.46 95.39 79.68 77.28 79.68 77.28 70.58 95.39 68.46" style="fill:#56305f"/><rect x="92.97" y="70.82" width="6.35" height="1.47" transform="translate(192.29 143.11) rotate(180)" style="fill:#121718"/><rect x="93" y="73.06" width="6.35" height="2.6" transform="translate(192.35 148.71) rotate(180)" style="fill:#121718"/><path d="M86,60.91l3.88-2.28a2.32,2.32,0,0,1,3.25,1l3,6.3-3.1,10.46H82V63.56Z" style="fill:#451b46"/><polygon points="82 63.56 77.28 63.56 77.28 72.76 79.95 79.68 85.77 79.68 93.05 76.38 82 63.56" style="fill:#7d5386"/><polygon points="98.58 62.98 100.18 61.38 105.03 61.38 112.1 69.66 113.67 69.66 113.67 77.03 111.91 78.8 106.99 76.38 99.59 76.38 97.76 66.13 98.58 62.98" style="fill:#7b2e52"/><polygon points="93.03 59.46 97.76 60.56 102.91 70.58 99.59 76.38 93.03 59.46" style="fill:#bf6f27"/><polygon points="102.91 70.58 105.03 61.38 100.18 61.38 98.86 62.7 102.91 70.58" style="fill:#995422"/><polygon points="112.1 69.66 111.91 78.8 113.67 77.03 113.67 69.66 112.1 69.66" style="fill:#a74f76"/><polygon points="95.39 79.68 97.76 83.92 93.7 86.2 85.77 79.68 95.39 79.68" style="fill:#7b2e52"/><polygon points="93.7 86.2 89.94 89.59 86.34 85.54 88.76 82.14 93.7 86.2" style="fill:#580e36"/><polygon points="111.91 78.8 109.54 85.19 101.94 85.19 99.59 76.38 106.99 76.38 111.91 78.8" style="fill:#530e3b"/><polygon points="109.54 85.19 107.63 94.31 101.94 94.31 101.94 85.19 109.54 85.19" style="fill:#320023"/><polygon points="89.94 89.59 89.94 101.6 81.69 90.51 84.42 90.51 86.34 85.54 89.94 89.59" style="fill:#20001b"/><polygon points="89.94 101.6 89.94 110.59 88.61 110.59 77.28 93.57 77.28 88.19 81.69 88.19 81.69 90.51 89.94 101.6" style="fill:#933d6a"/><rect x="77.28" y="60.76" width="4.72" height="2.8" transform="translate(159.28 124.32) rotate(180)" style="fill:#451b46"/><polygon points="99.59 76.38 97.97 75.66 95.72 67.35 95.88 66.81 99.59 76.38" style="fill:#121718"/><path d="M94.82,120.77l-2.49-8.3a2.63,2.63,0,0,0-2.52-1.88H87.3l-3.9,3.9v5.37H77.28v3.4s3.24-.15,3.39,5.15h9.27v-2.5l.61.06A4,4,0,0,0,94.82,120.77Z" style="fill:#170014"/><polygon points="89.94 128.41 89.94 143.01 84.5 143.01 80.67 128.41 89.94 128.41" style="fill:#4b0130"/><path d="M77.28,36.29h9.43V48.82H77.28Z" style="fill:#9c6fa5"/><path d="M86.71,48.82V49a4.77,4.77,0,0,1-3,4.48c-1.88.71-3,2.57,2.32,7.39L82.1,63.56H77.28V48.82Z" style="fill:#380b3e"/><path d="M84.94,36.29a1.63,1.63,0,1,0,1.63-1.62A1.62,1.62,0,0,0,84.94,36.29Z" style="fill:#7b2e52"/><polygon points="84.1 164.19 88.52 159.96 88.52 143.01 84.1 143.01 84.1 164.19" style="fill:#340a36"/><path d="M95,160.22v-2.74c0-2.14-1.47-3.88-3.28-3.88H84.1v.83h7.57a2.84,2.84,0,0,1,2.57,3v2.74Z" style="fill:#90619c"/><path d="M91.46,160.22A3.7,3.7,0,0,0,88,156.34H84.1v.83H88a2.91,2.91,0,0,1,2.74,3.05Z" style="fill:#90619c"/><polygon points="82.04 162.61 88.52 159.96 95.4 159.96 97.07 168.51 97.05 168.54 82.04 168.54 82.04 162.61" style="fill:#300635"/><polygon points="97.05 168.54 94.22 172.93 84.1 172.93 83.12 171.16 82.04 171.16 82.04 168.54 97.05 168.54" style="fill:#22032a"/><rect x="80.27" y="168.54" width="18.2" height="1.47" transform="translate(178.73 338.55) rotate(180)" style="fill:#22032a"/><rect x="79.53" y="125.91" width="10.41" height="2.51" transform="translate(169.47 254.32) rotate(180)" style="fill:#91446c"/><path d="M108.23,101.71a4.21,4.21,0,0,0-1,3.77,6.26,6.26,0,0,1,.23,2.65l-.3,2.33-2.84-.35-2-9.21Z" style="fill:#550d35"/><rect x="100.6" y="91.64" width="9.29" height="10.25" rx="3.04" transform="translate(210.49 193.53) rotate(180)" style="fill:#6d3e78"/><circle cx="105.72" cy="111.3" r="2.47" style="fill:#121718"/><rect x="81.16" y="40.96" width="1.87" height="7.86" transform="translate(164.19 89.77) rotate(180)" style="fill:#121718"/><rect x="77.28" y="48.82" width="10.4" height="1.96" transform="translate(164.96 99.6) rotate(180)" style="fill:#3c0328"/></g></g></svg>