<svg xmlns="http://www.w3.org/2000/svg" xmlns:xlink="http://www.w3.org/1999/xlink" viewBox="0 0 148.25 207.55"><defs><clipPath id="clip-path"><rect width="148.25" height="207.55" style="fill:none"/></clipPath><linearGradient id="Degradado_sin_nombre_5" x1="-14.83" y1="14.83" x2="163.07" y2="192.72" gradientUnits="userSpaceOnUse"><stop offset="0" stop-color="#fef201"/><stop offset="1" stop-color="#ff1443"/></linearGradient></defs><title>Asset 150</title><g style="isolation:isolate"><g id="Layer_2" data-name="Layer 2"><g id="Layer_3" data-name="Layer 3"><g style="clip-path:url(#clip-path)"><rect width="148.25" height="207.55" style="fill:url(#Degradado_sin_nombre_5)"/><g style="opacity:0.46;mix-blend-mode:soft-light"><circle cx="4.8" cy="8.78" r="1" style="fill:#fef201"/><circle cx="4.8" cy="21.82" r="1" style="fill:#fef201"/><circle cx="4.8" cy="34.87" r="1" style="fill:#fef201"/><circle cx="4.8" cy="47.91" r="1" style="fill:#fef201"/><circle cx="4.8" cy="60.95" r="1" style="fill:#fef201"/><circle cx="4.8" cy="74" r="1" style="fill:#fef201"/><circle cx="4.8" cy="87.04" r="1" style="fill:#fef201"/><circle cx="4.8" cy="100.09" r="1" style="fill:#fef201"/><circle cx="4.8" cy="113.13" r="1" style="fill:#fef201"/><circle cx="4.8" cy="126.18" r="1" style="fill:#fef201"/><circle cx="4.8" cy="139.22" r="1" style="fill:#fef201"/><circle cx="4.8" cy="152.26" r="1" style="fill:#fef201"/><circle cx="4.8" cy="165.31" r="1" style="fill:#fef201"/><circle cx="4.8" cy="178.35" r="1" style="fill:#fef201"/><circle cx="4.8" cy="191.4" r="1" style="fill:#fef201"/><circle cx="4.8" cy="204.44" r="1" style="fill:#fef201"/><path d="M12.15,4.11a1,1,0,1,0,0-2,1,1,0,0,0-1,1A1,1,0,0,0,12.15,4.11Z" style="fill:#fef201"/><path d="M12.18,15.15a1,1,0,1,0,1,1A1,1,0,0,0,12.18,15.15Z" style="fill:#fef201"/><path d="M12.23,28.2a1,1,0,1,0,1,1A1,1,0,0,0,12.23,28.2Z" style="fill:#fef201"/><path d="M12.27,41.24a1,1,0,1,0,0,2,1,1,0,0,0,0-2Z" style="fill:#fef201"/><path d="M12.31,54.28a1,1,0,0,0-1,1,1,1,0,0,0,1,1,1,1,0,1,0,0-2Z" style="fill:#fef201"/><path d="M12.36,67.33a1,1,0,1,0,1,1A1,1,0,0,0,12.36,67.33Z" style="fill:#fef201"/><path d="M12.4,80.37a1,1,0,0,0-1,1,1,1,0,0,0,2,0A1,1,0,0,0,12.4,80.37Z" style="fill:#fef201"/><path d="M12.44,93.42a1,1,0,1,0,0,2,1,1,0,0,0,0-2Z" style="fill:#fef201"/><path d="M12.48,106.46a1,1,0,0,0,0,2,1,1,0,1,0,0-2Z" style="fill:#fef201"/><path d="M12.53,119.51a1,1,0,1,0,0,2,1,1,0,0,0,1-1A1,1,0,0,0,12.53,119.51Z" style="fill:#fef201"/><path d="M12.57,132.55a1,1,0,1,0,1,1A1,1,0,0,0,12.57,132.55Z" style="fill:#fef201"/><path d="M12.61,145.6a1,1,0,0,0-1,1,1,1,0,0,0,1,1,1,1,0,0,0,1-1A1,1,0,0,0,12.61,145.6Z" style="fill:#fef201"/><path d="M12.65,158.64a1,1,0,1,0,1,1A1,1,0,0,0,12.65,158.64Z" style="fill:#fef201"/><path d="M12.7,171.68a1,1,0,0,0-1,1,1,1,0,0,0,2,0A1,1,0,0,0,12.7,171.68Z" style="fill:#fef201"/><path d="M12.74,184.73a1,1,0,1,0,1,1A1,1,0,0,0,12.74,184.73Z" style="fill:#fef201"/><path d="M12.78,197.77a1,1,0,1,0,0,2,1,1,0,0,0,1-1A1,1,0,0,0,12.78,197.77Z" style="fill:#fef201"/><circle cx="21.13" cy="8.78" r="1" style="fill:#fef201"/><circle cx="21.13" cy="21.82" r="1" style="fill:#fef201"/><circle cx="21.13" cy="34.87" r="1" style="fill:#fef201"/><circle cx="21.13" cy="47.91" r="1" style="fill:#fef201"/><circle cx="21.13" cy="60.95" r="1" style="fill:#fef201"/><circle cx="21.13" cy="74" r="1" style="fill:#fef201"/><circle cx="21.13" cy="87.04" r="1" style="fill:#fef201"/><circle cx="21.13" cy="100.09" r="1" style="fill:#fef201"/><circle cx="21.13" cy="113.13" r="1" style="fill:#fef201"/><circle cx="21.13" cy="126.18" r="1" style="fill:#fef201"/><circle cx="21.13" cy="139.22" r="1" style="fill:#fef201"/><circle cx="21.13" cy="152.26" r="1" style="fill:#fef201"/><circle cx="21.13" cy="165.31" r="1" style="fill:#fef201"/><circle cx="21.13" cy="178.35" r="1" style="fill:#fef201"/><circle cx="21.13" cy="191.4" r="1" style="fill:#fef201"/><circle cx="21.13" cy="204.44" r="1" style="fill:#fef201"/><path d="M28.48,4.11a1,1,0,0,0,1-1,1,1,0,1,0-1,1Z" style="fill:#fef201"/><path d="M28.52,15.15a1,1,0,0,0-1,1,1,1,0,1,0,1-1Z" style="fill:#fef201"/><path d="M28.56,28.2a1,1,0,0,0-1,1,1,1,0,0,0,1,1,1,1,0,0,0,0-2Z" style="fill:#fef201"/><path d="M28.6,41.24a1,1,0,0,0,0,2,1,1,0,1,0,0-2Z" style="fill:#fef201"/><path d="M28.65,54.28a1,1,0,0,0-1,1,1,1,0,0,0,1,1,1,1,0,1,0,0-2Z" style="fill:#fef201"/><path d="M28.69,67.33a1,1,0,1,0,1,1A1,1,0,0,0,28.69,67.33Z" style="fill:#fef201"/><path d="M28.73,80.37a1,1,0,1,0,0,2,1,1,0,0,0,1-1A1,1,0,0,0,28.73,80.37Z" style="fill:#fef201"/><path d="M28.77,93.42a1,1,0,0,0,0,2,1,1,0,1,0,0-2Z" style="fill:#fef201"/><path d="M28.82,106.46a1,1,0,1,0,1,1A1,1,0,0,0,28.82,106.46Z" style="fill:#fef201"/><path d="M28.86,119.51a1,1,0,1,0,1,1A1,1,0,0,0,28.86,119.51Z" style="fill:#fef201"/><path d="M28.9,132.55a1,1,0,1,0,1,1A1,1,0,0,0,28.9,132.55Z" style="fill:#fef201"/><path d="M28.94,145.6a1,1,0,0,0,0,2,1,1,0,0,0,1-1A1,1,0,0,0,28.94,145.6Z" style="fill:#fef201"/><path d="M29,158.64a1,1,0,1,0,1,1A1,1,0,0,0,29,158.64Z" style="fill:#fef201"/><path d="M29,171.68a1,1,0,0,0-1,1,1,1,0,0,0,2,0A1,1,0,0,0,29,171.68Z" style="fill:#fef201"/><path d="M29.07,184.73a1,1,0,0,0-1,1,1,1,0,1,0,1-1Z" style="fill:#fef201"/><path d="M29.11,197.77a1,1,0,1,0,1,1A1,1,0,0,0,29.11,197.77Z" style="fill:#fef201"/><circle cx="37.47" cy="8.78" r="1" style="fill:#fef201"/><circle cx="37.47" cy="21.82" r="1" style="fill:#fef201"/><circle cx="37.47" cy="34.87" r="1" style="fill:#fef201"/><circle cx="37.47" cy="47.91" r="1" style="fill:#fef201"/><circle cx="37.47" cy="60.95" r="1" style="fill:#fef201"/><circle cx="37.47" cy="74" r="1" style="fill:#fef201"/><circle cx="37.47" cy="87.04" r="1" style="fill:#fef201"/><circle cx="37.47" cy="100.09" r="1" style="fill:#fef201"/><circle cx="37.47" cy="113.13" r="1" style="fill:#fef201"/><circle cx="37.47" cy="126.18" r="1" style="fill:#fef201"/><circle cx="37.47" cy="139.22" r="1" style="fill:#fef201"/><circle cx="37.47" cy="152.26" r="1" style="fill:#fef201"/><circle cx="37.47" cy="165.31" r="1" style="fill:#fef201"/><circle cx="37.47" cy="178.35" r="1" style="fill:#fef201"/><circle cx="37.47" cy="191.4" r="1" style="fill:#fef201"/><circle cx="37.47" cy="204.44" r="1" style="fill:#fef201"/><path d="M44.82,4.11a1,1,0,1,0-1-1A1,1,0,0,0,44.82,4.11Z" style="fill:#fef201"/><path d="M44.85,15.15a1,1,0,1,0,0,2,1,1,0,0,0,1-1A1,1,0,0,0,44.85,15.15Z" style="fill:#fef201"/><path d="M44.89,28.2a1,1,0,0,0,0,2,1,1,0,0,0,1-1A1,1,0,0,0,44.89,28.2Z" style="fill:#fef201"/><path d="M44.94,41.24a1,1,0,1,0,1,1A1,1,0,0,0,44.94,41.24Z" style="fill:#fef201"/><path d="M45,54.28a1,1,0,0,0-1,1,1,1,0,0,0,2,0A1,1,0,0,0,45,54.28Z" style="fill:#fef201"/><path d="M45,67.33a1,1,0,0,0-1,1,1,1,0,1,0,1-1Z" style="fill:#fef201"/><path d="M45.06,80.37a1,1,0,0,0-1,1,1,1,0,0,0,1,1,1,1,0,1,0,0-2Z" style="fill:#fef201"/><path d="M45.11,93.42a1,1,0,1,0,1,1A1,1,0,0,0,45.11,93.42Z" style="fill:#fef201"/><path d="M45.15,106.46a1,1,0,1,0,0,2,1,1,0,0,0,0-2Z" style="fill:#fef201"/><path d="M45.19,119.51a1,1,0,0,0-1,1,1,1,0,1,0,1-1Z" style="fill:#fef201"/><path d="M45.24,132.55a1,1,0,1,0,1,1A1,1,0,0,0,45.24,132.55Z" style="fill:#fef201"/><path d="M45.28,145.6a1,1,0,1,0,1,1A1,1,0,0,0,45.28,145.6Z" style="fill:#fef201"/><path d="M45.32,158.64a1,1,0,1,0,0,2,1,1,0,0,0,0-2Z" style="fill:#fef201"/><path d="M45.36,171.68a1,1,0,0,0-1,1,1,1,0,0,0,1,1,1,1,0,1,0,0-2Z" style="fill:#fef201"/><path d="M45.41,184.73a1,1,0,1,0,1,1A1,1,0,0,0,45.41,184.73Z" style="fill:#fef201"/><path d="M45.45,197.77a1,1,0,0,0-1,1,1,1,0,1,0,1-1Z" style="fill:#fef201"/><circle cx="53.8" cy="8.78" r="1" style="fill:#fef201"/><circle cx="53.8" cy="21.82" r="1" style="fill:#fef201"/><circle cx="53.8" cy="34.87" r="1" style="fill:#fef201"/><circle cx="53.8" cy="47.91" r="1" style="fill:#fef201"/><circle cx="53.8" cy="60.95" r="1" style="fill:#fef201"/><circle cx="53.8" cy="74" r="1" style="fill:#fef201"/><circle cx="53.8" cy="87.04" r="1" style="fill:#fef201"/><circle cx="53.8" cy="100.09" r="1" style="fill:#fef201"/><circle cx="53.8" cy="113.13" r="1" style="fill:#fef201"/><circle cx="53.8" cy="126.18" r="1" style="fill:#fef201"/><circle cx="53.8" cy="139.22" r="1" style="fill:#fef201"/><circle cx="53.8" cy="152.26" r="1" style="fill:#fef201"/><circle cx="53.8" cy="165.31" r="1" style="fill:#fef201"/><circle cx="53.8" cy="178.35" r="1" style="fill:#fef201"/><circle cx="53.8" cy="191.4" r="1" style="fill:#fef201"/><circle cx="53.8" cy="204.44" r="1" style="fill:#fef201"/><path d="M61.15,4.11a1,1,0,1,0,0-2,1,1,0,0,0-1,1A1,1,0,0,0,61.15,4.11Z" style="fill:#fef201"/><path d="M61.18,15.15a1,1,0,1,0,1,1A1,1,0,0,0,61.18,15.15Z" style="fill:#fef201"/><path d="M61.23,28.2a1,1,0,1,0,1,1A1,1,0,0,0,61.23,28.2Z" style="fill:#fef201"/><path d="M61.27,41.24a1,1,0,1,0,0,2,1,1,0,0,0,0-2Z" style="fill:#fef201"/><path d="M61.31,54.28a1,1,0,0,0-1,1,1,1,0,0,0,1,1,1,1,0,1,0,0-2Z" style="fill:#fef201"/><path d="M61.36,67.33a1,1,0,1,0,1,1A1,1,0,0,0,61.36,67.33Z" style="fill:#fef201"/><path d="M61.4,80.37a1,1,0,0,0-1,1,1,1,0,0,0,2,0A1,1,0,0,0,61.4,80.37Z" style="fill:#fef201"/><path d="M61.44,93.42a1,1,0,1,0,0,2,1,1,0,0,0,0-2Z" style="fill:#fef201"/><path d="M61.48,106.46a1,1,0,0,0,0,2,1,1,0,1,0,0-2Z" style="fill:#fef201"/><path d="M61.53,119.51a1,1,0,0,0,0,2,1,1,0,0,0,1-1A1,1,0,0,0,61.53,119.51Z" style="fill:#fef201"/><path d="M61.57,132.55a1,1,0,1,0,1,1A1,1,0,0,0,61.57,132.55Z" style="fill:#fef201"/><path d="M61.61,145.6a1,1,0,0,0-1,1,1,1,0,0,0,1,1,1,1,0,0,0,1-1A1,1,0,0,0,61.61,145.6Z" style="fill:#fef201"/><path d="M61.65,158.64a1,1,0,1,0,1,1A1,1,0,0,0,61.65,158.64Z" style="fill:#fef201"/><path d="M61.7,171.68a1,1,0,0,0-1,1,1,1,0,0,0,2,0A1,1,0,0,0,61.7,171.68Z" style="fill:#fef201"/><path d="M61.74,184.73a1,1,0,1,0,1,1A1,1,0,0,0,61.74,184.73Z" style="fill:#fef201"/><path d="M61.78,197.77a1,1,0,1,0,0,2,1,1,0,0,0,1-1A1,1,0,0,0,61.78,197.77Z" style="fill:#fef201"/><circle cx="70.13" cy="8.78" r="1" style="fill:#fef201"/><circle cx="70.13" cy="21.82" r="1" style="fill:#fef201"/><circle cx="70.13" cy="34.87" r="1" style="fill:#fef201"/><circle cx="70.13" cy="47.91" r="1" style="fill:#fef201"/><circle cx="70.13" cy="60.95" r="1" style="fill:#fef201"/><circle cx="70.13" cy="74" r="1" style="fill:#fef201"/><circle cx="70.13" cy="87.04" r="1" style="fill:#fef201"/><circle cx="70.13" cy="100.09" r="1" style="fill:#fef201"/><circle cx="70.13" cy="113.13" r="1" style="fill:#fef201"/><circle cx="70.13" cy="126.18" r="1" style="fill:#fef201"/><circle cx="70.13" cy="139.22" r="1" style="fill:#fef201"/><circle cx="70.13" cy="152.26" r="1" style="fill:#fef201"/><circle cx="70.13" cy="165.31" r="1" style="fill:#fef201"/><circle cx="70.13" cy="178.35" r="1" style="fill:#fef201"/><circle cx="70.13" cy="191.4" r="1" style="fill:#fef201"/><circle cx="70.13" cy="204.44" r="1" style="fill:#fef201"/><path d="M77.48,4.11a1,1,0,0,0,1-1,1,1,0,1,0-1,1Z" style="fill:#fef201"/><path d="M77.52,15.15a1,1,0,0,0-1,1,1,1,0,1,0,1-1Z" style="fill:#fef201"/><path d="M77.56,28.2a1,1,0,0,0-1,1,1,1,0,0,0,1,1,1,1,0,0,0,0-2Z" style="fill:#fef201"/><path d="M77.6,41.24a1,1,0,0,0,0,2,1,1,0,1,0,0-2Z" style="fill:#fef201"/><path d="M77.65,54.28a1,1,0,0,0-1,1,1,1,0,0,0,1,1,1,1,0,0,0,0-2Z" style="fill:#fef201"/><path d="M77.69,67.33a1,1,0,1,0,1,1A1,1,0,0,0,77.69,67.33Z" style="fill:#fef201"/><path d="M77.73,80.37a1,1,0,1,0,0,2,1,1,0,0,0,1-1A1,1,0,0,0,77.73,80.37Z" style="fill:#fef201"/><path d="M77.77,93.42a1,1,0,0,0,0,2,1,1,0,1,0,0-2Z" style="fill:#fef201"/><path d="M77.82,106.46a1,1,0,1,0,1,1A1,1,0,0,0,77.82,106.46Z" style="fill:#fef201"/><path d="M77.86,119.51a1,1,0,1,0,1,1A1,1,0,0,0,77.86,119.51Z" style="fill:#fef201"/><path d="M77.9,132.55a1,1,0,1,0,1,1A1,1,0,0,0,77.9,132.55Z" style="fill:#fef201"/><path d="M77.94,145.6a1,1,0,0,0,0,2,1,1,0,0,0,1-1A1,1,0,0,0,77.94,145.6Z" style="fill:#fef201"/><path d="M78,158.64a1,1,0,1,0,1,1A1,1,0,0,0,78,158.64Z" style="fill:#fef201"/><path d="M78,171.68a1,1,0,0,0-1,1,1,1,0,0,0,2,0A1,1,0,0,0,78,171.68Z" style="fill:#fef201"/><path d="M78.07,184.73a1,1,0,0,0-1,1,1,1,0,1,0,1-1Z" style="fill:#fef201"/><path d="M78.11,197.77a1,1,0,1,0,1,1A1,1,0,0,0,78.11,197.77Z" style="fill:#fef201"/><circle cx="86.47" cy="8.78" r="1" style="fill:#fef201"/><circle cx="86.47" cy="21.82" r="1" style="fill:#fef201"/><circle cx="86.47" cy="34.87" r="1" style="fill:#fef201"/><circle cx="86.47" cy="47.91" r="1" style="fill:#fef201"/><circle cx="86.47" cy="60.95" r="1" style="fill:#fef201"/><circle cx="86.47" cy="74" r="1" style="fill:#fef201"/><circle cx="86.47" cy="87.04" r="1" style="fill:#fef201"/><circle cx="86.47" cy="100.09" r="1" style="fill:#fef201"/><circle cx="86.47" cy="113.13" r="1" style="fill:#fef201"/><circle cx="86.47" cy="126.18" r="1" style="fill:#fef201"/><circle cx="86.47" cy="139.22" r="1" style="fill:#fef201"/><circle cx="86.47" cy="152.26" r="1" style="fill:#fef201"/><circle cx="86.47" cy="165.31" r="1" style="fill:#fef201"/><circle cx="86.47" cy="178.35" r="1" style="fill:#fef201"/><circle cx="86.47" cy="191.4" r="1" style="fill:#fef201"/><circle cx="86.47" cy="204.44" r="1" style="fill:#fef201"/><path d="M93.82,4.11a1,1,0,1,0-1-1A1,1,0,0,0,93.82,4.11Z" style="fill:#fef201"/><path d="M93.85,15.15a1,1,0,1,0,0,2,1,1,0,0,0,1-1A1,1,0,0,0,93.85,15.15Z" style="fill:#fef201"/><path d="M93.89,28.2a1,1,0,0,0,0,2,1,1,0,0,0,1-1A1,1,0,0,0,93.89,28.2Z" style="fill:#fef201"/><path d="M93.94,41.24a1,1,0,1,0,1,1A1,1,0,0,0,93.94,41.24Z" style="fill:#fef201"/><path d="M94,54.28a1,1,0,0,0-1,1,1,1,0,0,0,2,0A1,1,0,0,0,94,54.28Z" style="fill:#fef201"/><path d="M94,67.33a1,1,0,0,0-1,1,1,1,0,1,0,1-1Z" style="fill:#fef201"/><path d="M94.06,80.37a1,1,0,0,0-1,1,1,1,0,0,0,1,1,1,1,0,1,0,0-2Z" style="fill:#fef201"/><path d="M94.11,93.42a1,1,0,1,0,1,1A1,1,0,0,0,94.11,93.42Z" style="fill:#fef201"/><path d="M94.15,106.46a1,1,0,1,0,0,2,1,1,0,0,0,0-2Z" style="fill:#fef201"/><path d="M94.19,119.51a1,1,0,0,0-1,1,1,1,0,1,0,1-1Z" style="fill:#fef201"/><path d="M94.24,132.55a1,1,0,1,0,1,1A1,1,0,0,0,94.24,132.55Z" style="fill:#fef201"/><path d="M94.28,145.6a1,1,0,1,0,1,1A1,1,0,0,0,94.28,145.6Z" style="fill:#fef201"/><path d="M94.32,158.64a1,1,0,1,0,0,2,1,1,0,0,0,0-2Z" style="fill:#fef201"/><path d="M94.36,171.68a1,1,0,0,0-1,1,1,1,0,0,0,1,1,1,1,0,1,0,0-2Z" style="fill:#fef201"/><path d="M94.41,184.73a1,1,0,1,0,1,1A1,1,0,0,0,94.41,184.73Z" style="fill:#fef201"/><path d="M94.45,197.77a1,1,0,0,0-1,1,1,1,0,1,0,1-1Z" style="fill:#fef201"/><circle cx="102.8" cy="8.78" r="1" style="fill:#fef201"/><circle cx="102.8" cy="21.82" r="1" style="fill:#fef201"/><circle cx="102.8" cy="34.87" r="1" style="fill:#fef201"/><circle cx="102.8" cy="47.91" r="1" style="fill:#fef201"/><circle cx="102.8" cy="60.95" r="1" style="fill:#fef201"/><circle cx="102.8" cy="74" r="1" style="fill:#fef201"/><circle cx="102.8" cy="87.04" r="1" style="fill:#fef201"/><circle cx="102.8" cy="100.09" r="1" style="fill:#fef201"/><circle cx="102.8" cy="113.13" r="1" style="fill:#fef201"/><circle cx="102.8" cy="126.18" r="1" style="fill:#fef201"/><circle cx="102.8" cy="139.22" r="1" style="fill:#fef201"/><circle cx="102.8" cy="152.26" r="1" style="fill:#fef201"/><circle cx="102.8" cy="165.31" r="1" style="fill:#fef201"/><circle cx="102.8" cy="178.35" r="1" style="fill:#fef201"/><circle cx="102.8" cy="191.4" r="1" style="fill:#fef201"/><circle cx="102.8" cy="204.44" r="1" style="fill:#fef201"/><path d="M110.15,4.11a1,1,0,1,0,0-2,1,1,0,0,0-1,1A1,1,0,0,0,110.15,4.11Z" style="fill:#fef201"/><path d="M110.18,15.15a1,1,0,1,0,1,1A1,1,0,0,0,110.18,15.15Z" style="fill:#fef201"/><path d="M110.23,28.2a1,1,0,1,0,1,1A1,1,0,0,0,110.23,28.2Z" style="fill:#fef201"/><path d="M110.27,41.24a1,1,0,1,0,0,2,1,1,0,0,0,0-2Z" style="fill:#fef201"/><path d="M110.31,54.28a1,1,0,0,0-1,1,1,1,0,0,0,1,1,1,1,0,1,0,0-2Z" style="fill:#fef201"/><path d="M110.36,67.33a1,1,0,1,0,1,1A1,1,0,0,0,110.36,67.33Z" style="fill:#fef201"/><path d="M110.4,80.37a1,1,0,0,0-1,1,1,1,0,0,0,2,0A1,1,0,0,0,110.4,80.37Z" style="fill:#fef201"/><path d="M110.44,93.42a1,1,0,1,0,0,2,1,1,0,0,0,0-2Z" style="fill:#fef201"/><path d="M110.48,106.46a1,1,0,0,0,0,2,1,1,0,1,0,0-2Z" style="fill:#fef201"/><path d="M110.53,119.51a1,1,0,0,0,0,2,1,1,0,0,0,1-1A1,1,0,0,0,110.53,119.51Z" style="fill:#fef201"/><path d="M110.57,132.55a1,1,0,1,0,1,1A1,1,0,0,0,110.57,132.55Z" style="fill:#fef201"/><path d="M110.61,145.6a1,1,0,0,0-1,1,1,1,0,0,0,1,1,1,1,0,0,0,1-1A1,1,0,0,0,110.61,145.6Z" style="fill:#fef201"/><path d="M110.65,158.64a1,1,0,1,0,1,1A1,1,0,0,0,110.65,158.64Z" style="fill:#fef201"/><path d="M110.7,171.68a1,1,0,0,0-1,1,1,1,0,0,0,2,0A1,1,0,0,0,110.7,171.68Z" style="fill:#fef201"/><path d="M110.74,184.73a1,1,0,1,0,1,1A1,1,0,0,0,110.74,184.73Z" style="fill:#fef201"/><path d="M110.78,197.77a1,1,0,1,0,0,2,1,1,0,0,0,1-1A1,1,0,0,0,110.78,197.77Z" style="fill:#fef201"/><circle cx="119.13" cy="8.78" r="1" style="fill:#fef201"/><circle cx="119.13" cy="21.82" r="1" style="fill:#fef201"/><circle cx="119.13" cy="34.87" r="1" style="fill:#fef201"/><circle cx="119.13" cy="47.91" r="1" style="fill:#fef201"/><circle cx="119.13" cy="60.95" r="1" style="fill:#fef201"/><circle cx="119.13" cy="74" r="1" style="fill:#fef201"/><circle cx="119.13" cy="87.04" r="1" style="fill:#fef201"/><circle cx="119.13" cy="100.09" r="1" style="fill:#fef201"/><circle cx="119.13" cy="113.13" r="1" style="fill:#fef201"/><circle cx="119.13" cy="126.18" r="1" style="fill:#fef201"/><circle cx="119.13" cy="139.22" r="1" style="fill:#fef201"/><circle cx="119.13" cy="152.26" r="1" style="fill:#fef201"/><circle cx="119.13" cy="165.31" r="1" style="fill:#fef201"/><circle cx="119.13" cy="178.35" r="1" style="fill:#fef201"/><circle cx="119.13" cy="191.4" r="1" style="fill:#fef201"/><circle cx="119.13" cy="204.44" r="1" style="fill:#fef201"/><path d="M126.48,4.11a1,1,0,0,0,1-1,1,1,0,1,0-1,1Z" style="fill:#fef201"/><path d="M126.52,15.15a1,1,0,0,0-1,1,1,1,0,1,0,1-1Z" style="fill:#fef201"/><path d="M126.56,28.2a1,1,0,0,0-1,1,1,1,0,0,0,1,1,1,1,0,0,0,0-2Z" style="fill:#fef201"/><path d="M126.6,41.24a1,1,0,0,0,0,2,1,1,0,1,0,0-2Z" style="fill:#fef201"/><path d="M126.65,54.28a1,1,0,0,0-1,1,1,1,0,0,0,1,1,1,1,0,0,0,0-2Z" style="fill:#fef201"/><path d="M126.69,67.33a1,1,0,1,0,1,1A1,1,0,0,0,126.69,67.33Z" style="fill:#fef201"/><path d="M126.73,80.37a1,1,0,1,0,0,2,1,1,0,0,0,1-1A1,1,0,0,0,126.73,80.37Z" style="fill:#fef201"/><path d="M126.77,93.42a1,1,0,0,0,0,2,1,1,0,1,0,0-2Z" style="fill:#fef201"/><path d="M126.82,106.46a1,1,0,1,0,1,1A1,1,0,0,0,126.82,106.46Z" style="fill:#fef201"/><path d="M126.86,119.51a1,1,0,1,0,1,1A1,1,0,0,0,126.86,119.51Z" style="fill:#fef201"/><path d="M126.9,132.55a1,1,0,1,0,1,1A1,1,0,0,0,126.9,132.55Z" style="fill:#fef201"/><path d="M126.94,145.6a1,1,0,0,0,0,2,1,1,0,0,0,1-1A1,1,0,0,0,126.94,145.6Z" style="fill:#fef201"/><path d="M127,158.64a1,1,0,1,0,1,1A1,1,0,0,0,127,158.64Z" style="fill:#fef201"/><path d="M127,171.68a1,1,0,0,0-1,1,1,1,0,0,0,2,0A1,1,0,0,0,127,171.68Z" style="fill:#fef201"/><path d="M127.07,184.73a1,1,0,0,0-1,1,1,1,0,1,0,1-1Z" style="fill:#fef201"/><path d="M127.11,197.77a1,1,0,1,0,1,1A1,1,0,0,0,127.11,197.77Z" style="fill:#fef201"/><circle cx="135.47" cy="8.78" r="1" style="fill:#fef201"/><circle cx="135.47" cy="21.82" r="1" style="fill:#fef201"/><circle cx="135.47" cy="34.87" r="1" style="fill:#fef201"/><circle cx="135.47" cy="47.91" r="1" style="fill:#fef201"/><circle cx="135.47" cy="60.95" r="1" style="fill:#fef201"/><circle cx="135.47" cy="74" r="1" style="fill:#fef201"/><circle cx="135.47" cy="87.04" r="1" style="fill:#fef201"/><circle cx="135.47" cy="100.09" r="1" style="fill:#fef201"/><circle cx="135.47" cy="113.13" r="1" style="fill:#fef201"/><circle cx="135.47" cy="126.18" r="1" style="fill:#fef201"/><circle cx="135.47" cy="139.22" r="1" style="fill:#fef201"/><circle cx="135.47" cy="152.26" r="1" style="fill:#fef201"/><circle cx="135.47" cy="165.31" r="1" style="fill:#fef201"/><circle cx="135.47" cy="178.35" r="1" style="fill:#fef201"/><circle cx="135.47" cy="191.4" r="1" style="fill:#fef201"/><circle cx="135.47" cy="204.44" r="1" style="fill:#fef201"/><path d="M142.82,4.11a1,1,0,1,0-1-1A1,1,0,0,0,142.82,4.11Z" style="fill:#fef201"/><path d="M142.85,15.15a1,1,0,1,0,0,2,1,1,0,0,0,1-1A1,1,0,0,0,142.85,15.15Z" style="fill:#fef201"/><path d="M142.89,28.2a1,1,0,0,0,0,2,1,1,0,0,0,1-1A1,1,0,0,0,142.89,28.2Z" style="fill:#fef201"/><path d="M142.94,41.24a1,1,0,1,0,1,1A1,1,0,0,0,142.94,41.24Z" style="fill:#fef201"/><path d="M143,54.28a1,1,0,0,0-1,1,1,1,0,0,0,2,0A1,1,0,0,0,143,54.28Z" style="fill:#fef201"/><path d="M143,67.33a1,1,0,0,0-1,1,1,1,0,1,0,1-1Z" style="fill:#fef201"/><path d="M143.06,80.37a1,1,0,0,0-1,1,1,1,0,0,0,1,1,1,1,0,1,0,0-2Z" style="fill:#fef201"/><path d="M143.11,93.42a1,1,0,1,0,1,1A1,1,0,0,0,143.11,93.42Z" style="fill:#fef201"/><path d="M143.15,106.46a1,1,0,1,0,0,2,1,1,0,0,0,0-2Z" style="fill:#fef201"/><path d="M143.19,119.51a1,1,0,0,0-1,1,1,1,0,1,0,1-1Z" style="fill:#fef201"/><path d="M143.24,132.55a1,1,0,1,0,1,1A1,1,0,0,0,143.24,132.55Z" style="fill:#fef201"/><path d="M143.28,145.6a1,1,0,1,0,1,1A1,1,0,0,0,143.28,145.6Z" style="fill:#fef201"/><path d="M143.32,158.64a1,1,0,1,0,0,2,1,1,0,0,0,0-2Z" style="fill:#fef201"/><path d="M143.36,171.68a1,1,0,0,0-1,1,1,1,0,0,0,1,1,1,1,0,1,0,0-2Z" style="fill:#fef201"/><path d="M143.41,184.73a1,1,0,1,0,1,1A1,1,0,0,0,143.41,184.73Z" style="fill:#fef201"/><path d="M143.45,197.77a1,1,0,0,0-1,1,1,1,0,1,0,1-1Z" style="fill:#fef201"/></g></g><g style="opacity:0.45"><path d="M134.5,59V53.19h5V59Zm5-11.63V41.56h-5v5.82Zm-10.8,17.45h5.82V59h-5.82ZM26.59,165.45h5.82v-4.93H26.59ZM20.78,154.7v5.82h5.81V154.7ZM134.5,64.83v5.82h-5.82V64.83h-5.82v5.82h-5.81V64.83h5.81V59h5.82V53.19h5.82V47.38h-5.82V41.56h-5.82v5.82h-5.81V41.56h5.81v-3.3H12.28V165.45h8.5v-4.93H15V154.7h5.82v-5.82H15v-5.81h5.82v5.81h5.81v5.82h5.82v5.82h5.82v4.93H44v-4.93h5.82v4.93h89.62V64.83Zm0-26.57h-5.82v3.3h5.82Z" style="fill:#00158e;opacity:0.2"/><rect x="48.67" y="167.14" width="5.82" height="5.82" style="fill:gold"/><rect x="36.25" y="168.47" width="5.82" height="5.82" style="fill:gold"/><rect x="3.53" y="169.1" width="5.82" height="5.82" style="fill:gold"/><rect x="30.16" y="162.12" width="5.82" height="5.82" style="fill:gold"/><rect x="16.53" y="171.74" width="5.82" height="5.82" style="fill:gold"/><rect x="12.34" y="162.58" width="5.82" height="5.82" style="fill:gold"/><rect x="7.14" y="146.83" width="5.82" height="5.82" style="fill:gold"/><rect x="8.7" y="156.09" width="5.82" height="5.82" style="fill:gold"/><polygon points="108.81 42.69 16.51 42.69 16.51 132.66 20.88 128.3 20.88 103.57 27.57 103.57 27.57 68.67 34.35 61.88 34.35 52 70.81 52 76.91 45.89 108.81 45.89 108.81 42.69" style="fill:#0751cf"/><rect x="138.67" y="84.38" width="1.94" height="29.47" style="fill:none"/><polygon points="58.64 170.71 143.28 170.71 143.28 99.16 142.69 99.16 142.69 170.13 58.64 170.13 58.64 170.71 58.64 170.71" style="fill:gold"/><rect x="17.29" y="36.58" width="3.39" height="2.71" style="fill:gold"/><rect x="24.66" y="36.58" width="3.39" height="2.71" style="fill:gold"/><rect x="32.03" y="36.58" width="3.39" height="2.71" style="fill:gold"/><rect x="39.39" y="36.58" width="3.39" height="2.71" style="fill:gold"/><rect x="46.76" y="36.58" width="3.39" height="2.71" style="fill:gold"/><rect x="54.13" y="36.58" width="3.39" height="2.71" style="fill:gold"/><rect x="61.5" y="36.58" width="3.39" height="2.71" style="fill:gold"/><rect x="135.42" y="75.75" width="1.45" height="9.31" style="fill:gold"/><rect x="135.42" y="100.03" width="1.45" height="61.37" style="fill:gold"/><polygon points="50.84 53.59 48.76 51.5 50.84 49.42 49.66 48.24 47.58 50.32 45.49 48.24 44.31 49.42 46.4 51.5 44.31 53.59 45.49 54.76 47.58 52.68 49.66 54.76 50.84 53.59" style="fill:gold"/><polygon points="59.56 53.59 57.48 51.5 59.56 49.42 58.38 48.24 56.3 50.32 54.22 48.24 53.04 49.42 55.12 51.5 53.04 53.59 54.22 54.76 56.3 52.68 58.38 54.76 59.56 53.59" style="fill:gold"/><polygon points="68.29 53.59 66.21 51.5 68.29 49.42 67.11 48.24 65.03 50.32 62.94 48.24 61.76 49.42 63.85 51.5 61.76 53.59 62.94 54.76 65.03 52.68 67.11 54.76 68.29 53.59" style="fill:gold"/><polygon points="77.02 53.59 74.93 51.5 77.02 49.42 75.84 48.24 73.75 50.32 71.67 48.24 70.49 49.42 72.57 51.5 70.49 53.59 71.67 54.76 73.75 52.68 75.84 54.76 77.02 53.59" style="fill:gold"/></g><polygon points="65.69 51.93 63.95 51.36 63.95 49.67 70.4 49.67 70.4 51.93 65.69 51.93" style="fill:#060a0f"/><path d="M62.07,50.39V43.11a1.28,1.28,0,1,0-1.35-1.27,1.27,1.27,0,0,0,1.07,1.27v7.57H64v-.29Z" style="fill:#060a0f"/><polygon points="84.35 51.93 86.1 51.36 86.1 49.67 79.65 49.67 79.65 51.93 84.35 51.93" style="fill:#060a0f"/><path d="M88,50.39V43.11a1.21,1.21,0,1,1,.28,0v7.57H86.1v-.29Z" style="fill:#060a0f"/><polygon points="45.48 82.86 48.63 94.69 57.52 94.69 57.52 91.95 56.35 90.78 56.35 87.11 50.74 81.51 45.48 82.86" style="fill:#6d4a38"/><polygon points="39.99 69.02 39.27 74.31 45.48 82.86 54.44 82.86 54.44 64.75 43.89 64.75 39.99 69.02" style="fill:#e07a3a"/><polygon points="49.63 94.69 51.5 100.04 57.52 100.04 57.52 94.69 49.63 94.69" style="fill:#573a2d"/><polygon points="47.96 82.86 52.2 87.11 56.24 87.11 59.19 84.4 59.19 77.3 47.96 82.86" style="fill:#573a2d"/><polygon points="54.44 58.48 54.44 63.83 59.52 63.83 60.59 64.9 60.59 70.34 65.58 71.23 75.02 71.23 75.02 67.31 69.23 67.31 63.97 58.48 63.97 53.14 57.82 53.14 57.82 57.06 54.44 58.48" style="fill:#6d4a38"/><polygon points="54.44 63.83 54.44 81.3 56.75 81.3 61.21 74.44 61.21 70.45 60.59 70.34 60.59 64.9 59.52 63.83 54.44 63.83" style="fill:#d5a381"/><polygon points="61.21 74.44 63.44 76.67 75.02 76.67 75.02 71.23 65.58 71.23 60.59 70.34 61.21 74.44" style="fill:#b58266"/><path d="M51,65.9s-2.4,0-2.4,0l-.78-.78h-4L40,69l-1.36-2.9L40,62.7l10-5.23,4.46,1v4.06Z" style="fill:#b35426"/><polygon points="54.44 62.54 49.09 67.82 51.43 70.26 54.44 67.27 54.44 62.54" style="fill:#c96d32"/><polygon points="49.09 67.82 43.83 64.75 39.99 69.02 48.7 72.77 51.99 69.71 49.09 67.82" style="fill:#b9682f"/><polygon points="54.44 62.54 59.7 62.54 61.65 64.49 61.65 70.53 60.59 70.34 60.59 64.9 59.52 63.83 54.44 63.83 54.44 62.54" style="fill:#573a2d"/><polygon points="60.59 75.4 64.73 81.79 75.02 81.79 75.02 76.67 63.44 76.67 61.21 74.44 60.59 75.4" style="fill:#6d4a38"/><polygon points="64.15 92.04 64.15 103.72 69.08 103.72 69.08 105.46 72.75 105.46 75.02 90.03 72.75 88.1 64.15 92.04" style="fill:#382118"/><path d="M64.73,81.79a5.33,5.33,0,0,1-.58,6.95V92h3.08s4-2.85,7.79-2V81.79Z" style="fill:#573a2f"/><polygon points="64.15 103.72 66.61 109.2 69.28 109.2 69.28 101.34 67.34 101.34 67.34 102.65 64.15 103.72" style="fill:#573a2d"/><polygon points="57.82 57.06 63.97 58.48 63.97 53.14 57.82 53.14 57.82 57.06" style="fill:#382118"/><polygon points="63.97 53.14 75.02 57.47 75.02 67.31 69.23 67.31 63.97 58.48 63.97 53.14" style="fill:#260f0b"/><polygon points="67.81 54.64 67.81 49.71 67.81 45.43 75.02 45.43 75.02 57.47 67.81 54.64" style="fill:#573a2d"/><polygon points="72.75 105.46 73.75 106.45 73.75 113.38 67.81 113.38 67.81 109.2 69.28 109.2 69.28 105.46 72.75 105.46" style="fill:#b35426"/><polygon points="66.72 122.56 66.72 134.68 74.4 134.68 74.4 116.59 73.77 116.59 67.81 120.51 66.72 122.56" style="fill:#803a1b"/><polygon points="67.81 113.38 64.15 113.38 64.15 122.56 67.81 122.56 73.77 116.6 73.77 113.38 67.81 113.38" style="fill:#954821"/><polygon points="66.72 134.68 74.4 134.68 74.4 146.36 70.56 147.88 66.72 134.68" style="fill:#954821"/><polygon points="74.4 156.7 68.34 156.7 69.84 146.18 74.4 146.18 74.4 156.7" style="fill:#7c3d1a"/><polygon points="74.4 152.51 66.72 157.95 66.72 164.81 74.4 164.81 74.4 152.51" style="fill:#573a2d"/><path d="M72.31,139.39H68.05a3.48,3.48,0,0,1-3.48-3.48V120.16h1v15.75a2.45,2.45,0,0,0,2.45,2.45h4.26Z"/><rect x="71.37" y="136.82" width="3.03" height="3.74"/><rect x="64.15" y="119.55" width="1.89" height="3.02"/><polygon points="66.05 119.55 73.77 113.38 64.15 113.38 64.15 119.55 66.05 119.55" style="fill:#803a1b"/><rect x="66.61" y="109.2" width="1.2" height="4.19" style="fill:#382118"/><polygon points="71.69 140.57 69.84 146.18 72.62 146.18 74.4 140.57 71.69 140.57" style="fill:#382118"/><rect x="68.34" y="146.18" width="6.06" height="2.25" style="fill:#382118"/><polygon points="75.49 156.25 65.63 162.34 65.63 170.02 75.49 170.02 75.49 156.25" style="fill:#3d231a"/><path d="M52.94,107.14H51.08a3,3,0,0,1-3-3V103a2.32,2.32,0,0,1,2.31-2.31v1A1.34,1.34,0,0,0,49,103v1.14a2.07,2.07,0,0,0,2.07,2.07h1.86Z" style="fill:#b35426"/><rect x="51.76" y="103.75" width="2.36" height="7.06" style="fill:#382118"/><rect x="51.86" y="114.57" width="1.22" height="4.67" style="fill:#382118"/><rect x="53.37" y="114.57" width="0.44" height="4.67" style="fill:#382118"/><polygon points="50.22 117.7 52.95 117.7 52.95 121.15 51.44 121.15 51.44 126.62 51.01 126.62 48.52 120.62 50.22 117.7" style="fill:#803a1b"/><polygon points="55.67 117.7 52.94 117.7 52.94 121.15 54.45 121.15 54.45 126.62 54.88 126.62 57.37 120.62 55.67 117.7" style="fill:#954821"/><polygon points="50.46 110.81 55.39 110.81 54.49 115.63 50.94 115.63 50.46 110.81" style="fill:#b35426"/><circle cx="53.33" cy="101.15" r="3.32" style="fill:#382118"/><path d="M52,101.15a1.38,1.38,0,1,0,1.38-1.38A1.38,1.38,0,0,0,52,101.15Z" style="fill:#6d4a38"/><polygon points="72.94 89.9 72.94 81.79 75.02 81.79 75.02 90.03 72.94 89.9" style="fill:#472c23"/><polygon points="72.94 89.9 64.15 89.9 64.15 92.04 67.34 92.04 74.73 92.04 75.02 90.03 72.94 89.9" style="fill:#472c23"/><path d="M67.34,101.35l5.6-11.45A8.1,8.1,0,0,1,75,90l-5.74,11.32Z" style="fill:#6d4a38"/><polygon points="104.56 82.86 101.42 94.69 92.53 94.69 92.53 91.95 93.7 90.78 93.7 87.11 99.3 81.51 104.56 82.86" style="fill:#553829"/><polygon points="110.06 69.02 110.78 74.31 104.56 82.86 95.61 82.86 95.61 64.75 106.16 64.75 110.06 69.02" style="fill:#ca682b"/><polygon points="100.42 94.69 98.55 100.04 92.53 100.04 92.53 94.69 100.42 94.69" style="fill:#472d23"/><polygon points="102.09 82.86 97.84 87.11 93.8 87.11 90.86 84.4 90.86 77.3 102.09 82.86" style="fill:#452a20"/><polygon points="95.61 58.48 95.61 63.83 90.53 63.83 89.46 64.9 89.46 70.34 84.47 71.23 75.02 71.23 75.02 67.31 80.81 67.31 86.07 58.48 86.07 53.14 92.22 53.14 92.22 57.06 95.61 58.48" style="fill:#533629"/><polygon points="95.61 63.83 95.61 81.3 93.29 81.3 88.83 74.44 88.83 70.45 89.46 70.34 89.46 64.9 90.53 63.83 95.61 63.83" style="fill:#bc8b6f"/><polygon points="88.83 74.44 86.6 76.67 75.02 76.67 75.02 71.23 84.47 71.23 89.46 70.34 88.83 74.44" style="fill:#9d7155"/><path d="M99,65.9s2.39,0,2.39,0l.78-.78h4l3.91,3.9,1.35-2.9-1.36-3.42-10-5.23-4.45,1v4.06Z" style="fill:#a54e24"/><polygon points="95.61 62.54 100.96 67.82 98.61 70.26 95.61 67.27 95.61 62.54" style="fill:#d87431"/><polygon points="100.96 67.82 106.21 64.75 110.06 69.02 101.34 72.77 98.05 69.71 100.96 67.82" style="fill:#984f21"/><polygon points="95.61 62.54 90.35 62.54 88.4 64.49 88.4 70.53 89.46 70.34 89.46 64.9 90.53 63.83 95.61 63.83 95.61 62.54" style="fill:#41281e"/><polygon points="89.46 75.4 85.31 81.79 75.02 81.79 75.02 76.67 86.6 76.67 88.83 74.44 89.46 75.4" style="fill:#553728"/><polygon points="85.89 92.04 85.89 103.72 80.97 103.72 80.97 105.46 77.29 105.46 75.02 90.03 77.29 88.1 85.89 92.04" style="fill:#2c160f"/><path d="M85.31,81.79a5.33,5.33,0,0,0,.58,6.95V92H82.82s-4-2.85-7.8-2V81.79Z" style="fill:#41281f"/><polygon points="85.89 103.72 83.44 109.2 80.77 109.2 80.77 101.34 82.7 101.34 82.7 102.65 85.89 103.72" style="fill:#472d23"/><polygon points="92.22 57.06 86.07 58.48 86.07 53.14 92.22 53.14 92.22 57.06" style="fill:#28120d"/><polygon points="86.07 53.14 75.02 57.47 75.02 67.31 80.81 67.31 86.07 58.48 86.07 53.14" style="fill:#0f0000"/><polygon points="82.24 54.64 82.24 49.71 82.24 45.43 75.02 45.43 75.02 57.47 82.24 54.64" style="fill:#432b22"/><polygon points="77.29 105.46 76.29 106.45 76.29 113.38 82.24 113.38 82.24 109.2 80.77 109.2 80.77 105.46 77.29 105.46" style="fill:#8d431e"/><polygon points="83.33 122.56 83.33 134.68 75.64 134.68 75.64 116.59 76.28 116.59 82.24 120.51 83.33 122.56" style="fill:#924820"/><polygon points="82.24 113.38 85.89 113.38 85.89 122.56 82.24 122.56 76.28 116.6 76.28 113.38 82.24 113.38" style="fill:#aa5125"/><polygon points="83.33 134.68 75.64 134.68 75.64 146.36 79.49 147.88 83.33 134.68" style="fill:#7d3c1a"/><polygon points="75.64 156.7 81.7 156.7 80.21 146.18 75.64 146.18 75.64 156.7" style="fill:#653113"/><polygon points="75.64 152.51 83.33 157.95 83.33 164.81 75.64 164.81 75.64 152.51" style="fill:#472c23"/><path d="M77.74,139.39H82a3.48,3.48,0,0,0,3.48-3.48V120.16h-1v15.75A2.46,2.46,0,0,1,82,138.36H77.74Z"/><rect x="75.64" y="136.82" width="3.03" height="3.74" transform="translate(154.32 277.39) rotate(180)"/><rect x="84" y="119.55" width="1.89" height="3.02" transform="translate(169.89 242.11) rotate(180)"/><polygon points="84 119.55 76.28 113.38 85.89 113.38 85.89 119.55 84 119.55" style="fill:#6f3214"/><rect x="82.24" y="109.2" width="1.2" height="4.19" style="fill:#1e0c0b"/><polygon points="78.36 140.57 80.21 146.18 77.42 146.18 75.64 140.57 78.36 140.57" style="fill:#24100d"/><rect x="75.64" y="146.18" width="6.06" height="2.25" transform="translate(157.35 294.61) rotate(180)" style="fill:#24100d"/><polygon points="74.56 156.25 84.42 162.34 84.42 170.02 74.56 170.02 74.56 156.25" style="fill:#2d1510"/><path d="M97.11,107.14H99a3,3,0,0,0,3-3V103a2.31,2.31,0,0,0-2.3-2.31v1A1.35,1.35,0,0,1,101,103v1.14A2.07,2.07,0,0,1,99,106.19H97.11Z" style="fill:#a64f24"/><rect x="95.93" y="103.75" width="2.36" height="7.06" transform="translate(194.22 214.55) rotate(180)" style="fill:#200d0b"/><rect x="96.96" y="114.57" width="1.22" height="4.67" transform="translate(195.14 233.81) rotate(180)" style="fill:#382118"/><rect x="96.24" y="114.57" width="0.44" height="4.67" transform="translate(192.92 233.81) rotate(180)" style="fill:#382118"/><polygon points="99.83 117.7 97.09 117.7 97.09 121.15 98.61 121.15 98.61 126.62 99.03 126.62 101.52 120.62 99.83 117.7" style="fill:#6b3314"/><polygon points="94.37 117.7 97.11 117.7 97.11 121.15 95.59 121.15 95.59 126.62 95.17 126.62 92.68 120.62 94.37 117.7" style="fill:#81401c"/><polygon points="99.59 110.81 94.65 110.81 95.56 115.63 99.11 115.63 99.59 110.81" style="fill:#a74e24"/><circle cx="96.71" cy="101.15" r="3.32" style="fill:#200d0b"/><path d="M98.09,101.15a1.38,1.38,0,1,1-1.38-1.38A1.38,1.38,0,0,1,98.09,101.15Z" style="fill:#6d4a38"/><polygon points="77.1 89.9 77.1 81.79 75.02 81.79 75.02 90.03 77.1 89.9" style="fill:#472c23"/><polygon points="77.1 89.9 85.89 89.9 85.89 92.04 82.7 92.04 75.32 92.04 75.02 90.03 77.1 89.9" style="fill:#2c1714"/><path d="M82.7,101.35,77.1,89.9A8.12,8.12,0,0,0,75,90l5.75,11.32Z" style="fill:#573a2e"/><rect x="71.44" y="48.04" width="1.35" height="4.94" style="fill:#260f0b"/><rect x="77.26" y="48.04" width="1.35" height="4.94" transform="translate(155.87 101.02) rotate(180)" style="fill:#260f0b"/><polygon points="71.27 71.23 71.27 72.11 75.04 75.57 75.04 72.11 75.04 71.23 71.27 71.23" style="fill:#f38d30"/><polygon points="78.78 71.23 78.78 72.11 75.01 75.57 75.01 72.11 75.01 71.23 78.78 71.23" style="fill:#d17727"/><polygon points="43.83 64.75 40 62.7 38.63 66.12 39.99 69.02 43.83 64.75" style="fill:#6d4a38"/><polygon points="105.59 65.12 110.05 62.7 111.41 66.12 110.06 69.02 105.59 65.12" style="fill:#553728"/></g></g></g></svg>