<svg xmlns="http://www.w3.org/2000/svg" xmlns:xlink="http://www.w3.org/1999/xlink" viewBox="0 0 148.25 207.55"><defs><linearGradient id="Degradado_sin_nombre_6" x1="-14.83" y1="192.72" x2="163.07" y2="14.83" gradientUnits="userSpaceOnUse"><stop offset="0" stop-color="aqua"/><stop offset="1" stop-color="blue"/></linearGradient></defs><title>Asset 117</title><g id="Layer_2" data-name="Layer 2"><g id="Layer_3" data-name="Layer 3"><rect width="148.25" height="207.55" style="fill:url(#Degradado_sin_nombre_6)"/><g style="opacity:0.45"><polygon points="81.46 42.48 74.61 42.48 9.2 107.89 9.2 114.74 81.46 42.48" style="fill:#00158e;opacity:0.2"/><polygon points="100.7 42.48 93.86 42.48 9.2 127.14 9.2 133.99 100.7 42.48" style="fill:#00158e;opacity:0.2"/><polygon points="62.21 42.48 55.36 42.48 9.2 88.64 9.2 95.49 62.21 42.48" style="fill:#00158e;opacity:0.2"/><polygon points="42.96 42.48 36.11 42.48 9.2 69.39 9.2 76.24 42.96 42.48" style="fill:#00158e;opacity:0.2"/><polygon points="23.71 42.48 16.86 42.48 9.2 50.15 9.2 56.99 23.71 42.48" style="fill:#00158e;opacity:0.2"/><path d="M109.19,42.48v3.91L12.91,142.68H9.2v30.51H139.91V42.48Zm0,100.2H96.75l12.44-12.45Zm0-19.3L89.9,142.68H77.5L109.19,111Zm0-19.24L70.65,142.68H58.25l50.94-50.94Zm0-19.25L51.4,142.68H39l70.19-70.19Zm0-19.25-77,77H19.75l89.44-89.44Z" style="fill:#00158e;opacity:0.2"/><polygon points="137.04 170.78 137.04 144.34 132.26 149.12 132.26 166 115.38 166 110.6 170.78 137.04 170.78" style="fill:#0751cf"/><rect x="138.48" y="73.94" width="2.99" height="35.67" style="fill:gold"/><rect x="138.48" y="116.78" width="2.99" height="4.98" style="fill:gold"/><rect x="27.5" y="172.37" width="48.42" height="2.39" style="fill:gold"/><polygon points="25 162.87 28.86 162.87 32.98 158.74 26.54 158.74 17.25 168.03 19.83 168.03 25 162.87" style="fill:gold"/><polygon points="33.37 162.87 37.23 162.87 41.35 158.74 34.91 158.74 25.63 168.03 28.21 168.03 33.37 162.87" style="fill:gold"/><polygon points="41.74 162.87 45.61 162.87 49.73 158.74 43.28 158.74 34 168.03 36.58 168.03 41.74 162.87" style="fill:gold"/><polygon points="50.12 162.87 53.98 162.87 58.1 158.74 51.66 158.74 42.37 168.03 44.95 168.03 50.12 162.87" style="fill:gold"/><polygon points="58.49 162.87 62.35 162.87 66.48 158.74 60.03 158.74 50.75 168.03 53.33 168.03 58.49 162.87" style="fill:gold"/><polygon points="66.87 162.87 70.73 162.87 74.85 158.74 68.41 158.74 59.12 168.03 61.7 168.03 66.87 162.87" style="fill:gold"/><polygon points="75.24 162.87 79.1 162.87 83.22 158.74 76.78 158.74 67.5 168.03 70.08 168.03 75.24 162.87" style="fill:gold"/><polygon points="83.62 162.87 87.48 162.87 91.6 158.74 85.16 158.74 75.87 168.03 78.45 168.03 83.62 162.87" style="fill:gold"/><path d="M126.23,37.77H111.29V34.19h14.94Zm-14.35-.6h13.75V34.78H111.88Z" style="fill:#0751cf"/><path d="M144,145.57h-2.59V134.21H144Zm-2-.6h1.4V134.81H142Z" style="fill:#0751cf"/><path d="M102.92,181.24H85.58v-3.79h17.34Zm-16.74-.6h16.14v-2.59H86.18Z" style="fill:#0751cf"/><path d="M17.24,180.44H10.66v-2.39h6.58Zm-6-.6h5.38v-1.2H11.26Z" style="fill:gold"/><path d="M6.88,168.88H4.49V149H6.88Zm-1.8-.6h1.2V149.55H5.08Z" style="fill:gold"/><polygon points="95.84 36.87 95.84 36.72 28.05 36.72 28.05 35.34 95.69 35.34 95.69 36.87 95.84 36.87 95.84 36.72 95.84 36.87 95.99 36.87 95.99 35.04 27.75 35.04 27.75 37.01 95.99 37.01 95.99 36.87 95.84 36.87" style="fill:gold"/></g><polygon points="59.72 48.25 57.06 47.41 57.06 44.96 66.88 44.96 66.88 48.25 59.72 48.25" style="fill:#060a0f"/><path d="M54.2,46V35.45a1.84,1.84,0,1,0-.42,0v11h3.28V46Z" style="fill:#060a0f"/><polygon points="86.58 48.25 89.23 47.41 89.23 44.96 79.42 44.96 79.42 48.25 86.58 48.25" style="fill:#060a0f"/><path d="M92.1,46V35.45a1.84,1.84,0,1,1,.42,0v11H89.23V46Z" style="fill:#060a0f"/><rect x="67.85" y="162.8" width="0.5" height="7.61" style="fill:#00141b"/><rect x="78.47" y="162.8" width="0.5" height="7.61" style="fill:#00141b"/><polygon points="65.66 68.67 54.25 57.58 57.55 55.42 68.35 66.57 65.66 68.67" style="fill:#00141b"/><polygon points="81.29 68.67 92.69 57.58 89.4 55.42 78.59 66.57 81.29 68.67" style="fill:#00141b"/><path d="M84.78,116.6V139H80.07s-5.33-22.63-1.22-24.11Z" style="fill:#bc9353"/><path d="M86.59,139c-.51-.38-8.66,0-8.66,0v16.18h8.66S88.78,140.67,86.59,139Z" style="fill:#2c0630"/><path d="M83.52,155.19v15.22H80.07v-5.22a2.39,2.39,0,0,0-2.39-2.39v-7.61Z" style="fill:#5f143c"/><polygon points="86.7 155.19 90.16 155.19 90.16 157.26 88.64 157.26 88.64 164.6 94.45 170.41 83.52 170.41 83.52 155.19 86.7 155.19" style="fill:#534843"/><rect x="77.68" y="170.41" width="16.77" height="5.94" transform="translate(172.13 346.75) rotate(180)" style="fill:#1f2323"/><path d="M62.13,116.6V139h4.7s5.34-22.63,1.22-24.11Z" style="fill:#dab064"/><path d="M60.32,139c.51-.38,8.66,0,8.66,0v16.18H60.32S58.13,140.67,60.32,139Z" style="fill:#451b46"/><rect x="62.13" y="121.76" width="6.61" height="2.07" style="fill:#451b46"/><rect x="62.13" y="126.95" width="6.61" height="2.07" style="fill:#451b46"/><path d="M63.38,155.19v15.22h3.45v-5.22a2.4,2.4,0,0,1,2.4-2.39v-7.61Z" style="fill:#7b2e52"/><polygon points="60.2 155.19 56.74 155.19 56.74 157.26 58.27 157.26 58.27 164.6 52.46 170.41 63.38 170.41 63.38 155.19 60.2 155.19" style="fill:#70655f"/><rect x="52.46" y="170.41" width="16.77" height="5.94" style="fill:#323432"/><rect x="52.31" y="71.83" width="2.58" height="8.25" style="fill:#113642"/><path d="M57.63,108.16l-4.7,1.75s0,11.75,2.78,15.36h1.92v8.35l8.18,1.24,4-1.45v-2.88l1-1V104.82h-9.4Z" style="fill:#113642"/><polygon points="73.23 31.58 67.46 32.81 63.75 36.42 63.75 46.94 73.23 46.94 73.23 31.58" style="fill:#82afdd"/><polygon points="73.23 46.94 61.58 46.94 61.58 51.37 67.97 55.8 73.23 55.8 73.23 46.94" style="fill:#6d93b7"/><polygon points="61.58 46.94 63.75 44.77 63.75 46.94 61.58 46.94" style="fill:#527995"/><rect x="68.75" y="35.65" width="1.44" height="8.71" style="fill:#527995"/><rect x="70.86" y="55.8" width="2.37" height="2.37" style="fill:#527995"/><polygon points="73.23 58.17 70.86 58.17 69.78 58.84 69.78 62.5 73.23 62.5 73.23 58.17" style="fill:#3e637a"/><path d="M69.78,62.5c-4.33-.2-10,6.33-10.34,6.78.65,4.06.42,9.73-4.56,13.35v2H73.23V61.37Z" style="fill:#345a6c"/><path d="M59.44,69.28l0,0H56a2.51,2.51,0,0,0-2.51,2.51v9.35a1.45,1.45,0,0,0,1.44,1.44h0v0C59.86,79,60.09,73.34,59.44,69.28Z" style="fill:#99bb59"/><polygon points="58.56 69.3 61.03 69.3 61.03 84.66 54.88 84.66 54.88 81.4 58.56 69.3" style="fill:#451b46"/><path d="M54.88,84.66H73.23a0,0,0,0,1,0,0v7.48a0,0,0,0,1,0,0H59.62a4.73,4.73,0,0,1-4.73-4.73V84.66A0,0,0,0,1,54.88,84.66Z" style="fill:#052c34"/><rect x="70.86" y="92.14" width="2.37" height="12.68" style="fill:#c66665"/><rect x="68.64" y="92.14" width="2.37" height="12.68" style="fill:#82afdd"/><polygon points="66.27 102.03 68.64 104.82 68.64 92.14 66.27 92.14 66.27 102.03" style="fill:#c66665"/><polygon points="66.27 102.03 63.89 99.64 63.89 92.14 66.27 92.14 66.27 102.03" style="fill:#82afdd"/><polygon points="63.89 99.65 62.17 97.9 62.17 92.14 63.89 92.14 63.89 99.65" style="fill:#c66665"/><polyline points="62.17 97.9 60.59 96.32 60.59 92.14 62.17 92.14 62.17 97.9" style="fill:#82afdd"/><polygon points="60.59 96.32 58.85 94.58 58.85 92.14 60.59 92.14 60.59 96.32" style="fill:#c66665"/><polyline points="58.85 94.58 56.41 92.14 58.85 92.14 58.85 94.69" style="fill:#82afdd"/><polygon points="58.37 94.11 55.3 96.67 54.01 102.75 60.59 114.04 64.62 114.04 68.64 104.82 68.64 103.99 58.8 93.94 58.37 94.11" style="fill:#052c34"/><rect x="64.06" y="80.08" width="9.17" height="2.56" style="fill:#113642"/><rect x="91.58" y="71.83" width="2.58" height="8.25" transform="translate(185.73 151.91) rotate(180)" style="fill:#00212b"/><path d="M88.83,108.16l4.71,1.75s0,11.75-2.79,15.36H88.83v8.35l-8.18,1.24-4-1.45v-2.88l-.95-1V104.82h9.4Z" style="fill:#00212b"/><polygon points="73.23 31.58 79 32.81 82.71 36.42 82.71 46.94 73.23 46.94 73.23 31.58" style="fill:#75a3cc"/><polygon points="73.23 46.94 84.88 46.94 84.88 51.37 78.49 55.8 73.23 55.8 73.23 46.94" style="fill:#5a7d95"/><polygon points="84.88 46.94 82.71 44.77 82.71 46.94 84.88 46.94" style="fill:#3f6276"/><rect x="76.27" y="35.65" width="1.44" height="8.71" transform="translate(153.99 80.01) rotate(180)" style="fill:#527995"/><rect x="73.23" y="55.8" width="2.37" height="2.37" transform="translate(148.83 113.97) rotate(180)" style="fill:#44677c"/><polygon points="73.23 58.17 75.6 58.17 76.68 58.84 76.68 62.5 73.23 62.5 73.23 58.17" style="fill:#2a4b5a"/><path d="M76.68,62.5c4.34-.2,10,6.33,10.34,6.78-.65,4.06-.42,9.73,4.56,13.35v2H73.23V61.37Z" style="fill:#193e4b"/><path d="M87,69.28l0,0h3.47A2.51,2.51,0,0,1,93,71.81v9.35a1.45,1.45,0,0,1-1.44,1.44h0v0C86.6,79,86.37,73.34,87,69.28Z" style="fill:#8ca549"/><polygon points="87.9 69.3 85.43 69.3 85.43 84.66 91.58 84.66 91.58 81.4 87.9 69.3" style="fill:#2d0130"/><path d="M78,84.66H91.58a0,0,0,0,1,0,0v7.48a0,0,0,0,1,0,0H73.23a0,0,0,0,1,0,0V89.39A4.73,4.73,0,0,1,78,84.66Z" transform="translate(164.81 176.8) rotate(180)" style="fill:#001a21"/><rect x="73.23" y="92.14" width="2.37" height="12.68" transform="translate(148.83 196.95) rotate(180)" style="fill:#a14e51"/><rect x="75.45" y="92.14" width="2.37" height="12.68" transform="translate(153.26 196.95) rotate(180)" style="fill:#587e9f"/><polygon points="80.19 102.03 77.82 104.82 77.82 92.14 80.19 92.14 80.19 102.03" style="fill:#a14e51"/><polygon points="80.19 102.03 82.57 99.64 82.57 92.14 80.19 92.14 80.19 102.03" style="fill:#587e9f"/><polygon points="82.57 99.65 84.29 97.9 84.29 92.14 82.57 92.14 82.57 99.65" style="fill:#a14e51"/><polyline points="84.29 97.9 85.87 96.32 85.87 92.14 84.29 92.14 84.29 97.9" style="fill:#587e9f"/><polygon points="85.87 96.32 87.61 94.58 87.61 92.14 85.87 92.14 85.87 96.32" style="fill:#a14e51"/><polyline points="87.61 94.58 90.06 92.14 87.61 92.14 87.61 94.69" style="fill:#587e9f"/><polygon points="88.09 94.11 91.17 96.67 92.45 102.75 85.87 114.04 81.84 114.04 77.82 104.82 77.82 103.99 87.66 93.94 88.09 94.11" style="fill:#00141b"/><rect x="73.23" y="80.08" width="9.17" height="2.56" transform="translate(155.64 162.71) rotate(180)" style="fill:#032a34"/><polygon points="82.57 92.14 75.45 100.48 73.23 100.48 73.23 92.14 82.57 92.14" style="fill:#2c4d5a"/><polygon points="73.23 92.14 73.23 100.48 71.02 100.48 63.89 92.14 73.23 92.14" style="fill:#345a6c"/><polygon points="53.09 114.04 64.62 114.04 64.62 116.87 53.34 116.87 53.09 114.04" style="fill:#345a6c"/><polygon points="93.38 114.04 81.84 114.04 81.84 116.87 93.12 116.87 93.38 114.04" style="fill:#194453"/><rect x="53.44" y="121.82" width="17.34" height="3.45" style="fill:#345a6c"/><rect x="75.62" y="121.82" width="17.34" height="3.45" style="fill:#194453"/><line x1="73.23" y1="92.14" x2="73.23" y2="90.48" style="fill:none"/><polygon points="52.31 73.71 52.31 81.87 49.43 89.58 43.55 89.58 43.55 69.98 46.3 67.24 52.31 67.24 52.31 73.71" style="fill:#9f8068"/><polygon points="42.14 89.87 49.4 89.87 49.4 81.69 43.59 78.24 40.3 83.44 42.14 89.87" style="fill:#4a3979"/><path d="M47.17,92.8V89.87H45V92.8h-1.3v4l1.17,1v8.72h2.51V98.64A1.74,1.74,0,0,0,48.56,97V92.8Z" style="fill:#323432"/><path d="M47,99.93l-2.1.09a.84.84,0,0,0-.79,1l1.15,8.69,2.13-.1.48-8.75A.83.83,0,0,0,47,99.93Z" style="fill:#c66665"/><rect x="44.58" y="109.11" width="3.77" height="4.44" transform="translate(98.04 220.38) rotate(177.34)" style="fill:#dab064"/><path d="M46.6,113.54a2.86,2.86,0,0,0,0,.6,1,1,0,0,0,.52.84c.63.35,1.69,1.39,2,4.58a.3.3,0,0,0,.3.27h0a.56.56,0,0,0,.53-.59l-.2-4.27a.8.8,0,0,0-.27-.58l-1-.94Z" style="fill:#876d58"/><path d="M46.74,113.53a3.06,3.06,0,0,1,.06.6,1,1,0,0,1-.5.89c-.66.4-1.75,1.55-1.77,4.75a.32.32,0,0,1-.31.3h0a.59.59,0,0,1-.65-.53l-.2-4.28a.81.81,0,0,1,.24-.6l1.06-1Z" style="fill:#9f8068"/><polygon points="49.4 81.69 52.31 76.12 52.31 81.87 49.43 89.58 49.4 81.69" style="fill:#f9a945"/><polygon points="43.59 78.24 52.31 67.24 52.31 76.12 49.4 81.69 43.59 78.24" style="fill:#105b65"/><polygon points="43.59 78.24 43.55 69.98 46.3 67.24 49.81 67.24 52.31 67.24 43.59 78.24" style="fill:#f2766d"/><polygon points="94.16 73.71 94.16 81.87 97.03 89.58 102.91 89.58 102.91 69.98 100.16 67.24 94.16 67.24 94.16 73.71" style="fill:#9f8068"/><polygon points="104.33 89.87 97.06 89.87 97.06 81.69 102.87 78.24 106.16 83.44 104.33 89.87" style="fill:#36275e"/><path d="M99.29,92.8V89.87h2.16V92.8h1.3v4l-1.17,1v8.72H99.07V98.64A1.75,1.75,0,0,1,97.9,97V92.8Z" style="fill:#131717"/><path d="M99.47,99.93l2.1.09a.84.84,0,0,1,.79,1l-1.14,8.69-2.14-.1-.48-8.75A.83.83,0,0,1,99.47,99.93Z" style="fill:#ac5253"/><rect x="98.11" y="109.11" width="3.77" height="4.44" transform="translate(5.27 -4.51) rotate(2.66)" style="fill:#bf9554"/><path d="M99.86,113.54a2.29,2.29,0,0,1,0,.6,1,1,0,0,1-.52.84c-.62.35-1.69,1.39-2,4.58a.3.3,0,0,1-.31.27h0a.56.56,0,0,1-.53-.59l.2-4.27a.8.8,0,0,1,.27-.58l1-.94Z" style="fill:#876d58"/><path d="M99.72,113.53a3.06,3.06,0,0,0-.06.6,1,1,0,0,0,.51.89c.66.4,1.74,1.55,1.76,4.75a.32.32,0,0,0,.32.3h0a.59.59,0,0,0,.64-.53l.2-4.28a.77.77,0,0,0-.24-.6l-1.06-1Z" style="fill:#9f8068"/><polygon points="97.06 81.69 94.16 76.12 94.16 81.87 97.03 89.58 97.06 81.69" style="fill:#c6843a"/><polygon points="102.87 78.24 94.16 67.24 94.16 76.12 97.06 81.69 102.87 78.24" style="fill:#044a50"/><polygon points="102.87 78.24 102.91 69.98 100.16 67.24 96.65 67.24 94.16 67.24 102.87 78.24" style="fill:#ce534f"/><polygon points="68.64 104.82 70.78 112.16 75.68 112.16 77.82 104.82 68.64 104.82" style="fill:#c66665"/><path d="M73.23,61.37,62.3,64.12a3.42,3.42,0,0,0-2.6,3.32V69.3H73.23Z" style="fill:#8ca549"/><path d="M73.21,61.37l10.94,2.75a3.42,3.42,0,0,1,2.59,3.32V69.3H73.21Z" style="fill:#667531"/><polygon points="66.83 139.01 60.2 155.19 62.11 155.19 68.98 143.16 68.98 139.01 66.83 139.01" style="fill:#00141b"/><polygon points="80.07 138.92 86.7 155.11 84.79 155.11 77.93 143.07 77.93 138.92 80.07 138.92" style="fill:#00141b"/></g></g></svg>