<svg xmlns="http://www.w3.org/2000/svg" xmlns:xlink="http://www.w3.org/1999/xlink" viewBox="0 0 148.25 207.55"><defs><linearGradient id="Degradado_sin_nombre_6" x1="-14.83" y1="192.72" x2="163.07" y2="14.83" gradientUnits="userSpaceOnUse"><stop offset="0" stop-color="aqua"/><stop offset="1" stop-color="blue"/></linearGradient></defs><title>Asset 141</title><g id="Layer_2" data-name="Layer 2"><g id="Layer_3" data-name="Layer 3"><rect width="148.25" height="207.55" style="fill:url(#Degradado_sin_nombre_6)"/><g style="opacity:0.45"><polygon points="135.39 156.18 135.39 112.55 132.72 109.88 132.72 53.79 124.71 53.79 124.71 46.44 97.18 46.44 94.44 49.19 60.75 49.19 54.99 43.43 8.69 43.43 8.69 133.36 12.97 137.63 12.97 157.37 15.71 160.11 15.71 166.87 48.43 166.87 48.43 170.72 75.74 170.72 75.74 173.22 138.49 173.22 138.49 159.28 135.39 156.18" style="fill:#00158e;opacity:0.2"/><path d="M139.7,141.66V118.88a1.53,1.53,0,0,0,1.26-1.5,1.56,1.56,0,1,0-3.12,0,1.53,1.53,0,0,0,1.26,1.5v23l4.6,4.6v33.12H64.76v-5H5.4V41H24.59a1.56,1.56,0,1,0,0-.59H4.8V175.18H64.16v5H144.3v-34Z" style="fill:gold"/><polygon points="84.78 166.79 87.76 166.79 90.94 163.62 85.97 163.62 78.82 170.77 80.81 170.77 84.78 166.79" style="fill:gold"/><polygon points="91.24 166.79 94.21 166.79 97.39 163.62 92.42 163.62 85.27 170.77 87.26 170.77 91.24 166.79" style="fill:gold"/><polygon points="97.69 166.79 100.66 166.79 103.84 163.62 98.87 163.62 91.72 170.77 93.71 170.77 97.69 166.79" style="fill:gold"/><polygon points="104.14 166.79 107.11 166.79 110.29 163.62 105.33 163.62 98.17 170.77 100.16 170.77 104.14 166.79" style="fill:gold"/><polygon points="110.59 166.79 113.56 166.79 116.74 163.62 111.78 163.62 104.62 170.77 106.61 170.77 110.59 166.79" style="fill:gold"/><polygon points="117.04 166.79 120.02 166.79 123.19 163.62 118.23 163.62 111.08 170.77 113.06 170.77 117.04 166.79" style="fill:gold"/><polygon points="123.49 166.79 126.47 166.79 129.64 163.62 124.68 163.62 117.53 170.77 119.52 170.77 123.49 166.79" style="fill:gold"/><polygon points="129.94 166.79 132.92 166.79 136.09 163.62 131.13 163.62 123.98 170.77 125.97 170.77 129.94 166.79" style="fill:gold"/><polygon points="15.91 45.6 13.18 45.6 11.24 48.97 13.18 52.34 15.91 52.34 13.97 48.97 15.91 45.6" style="fill:#0751cf"/><polygon points="22.9 45.6 20.16 45.6 18.22 48.97 20.16 52.34 22.9 52.34 20.95 48.97 22.9 45.6" style="fill:#0751cf"/><polygon points="29.88 45.6 27.14 45.6 25.2 48.97 27.14 52.34 29.88 52.34 27.93 48.97 29.88 45.6" style="fill:#0751cf"/><polygon points="36.86 45.6 34.13 45.6 32.18 48.97 34.13 52.34 36.86 52.34 34.91 48.97 36.86 45.6" style="fill:#0751cf"/><polygon points="43.84 45.6 41.11 45.6 39.16 48.97 41.11 52.34 43.84 52.34 41.9 48.97 43.84 45.6" style="fill:#0751cf"/><polygon points="50.82 45.6 48.09 45.6 46.15 48.97 48.09 52.34 50.82 52.34 48.88 48.97 50.82 45.6" style="fill:#0751cf"/><path d="M66.13,45.94H69l-5.17,5.17H61Zm11.59,0H74.83l-5.16,5.17h2.88Zm-4.35,0H70.48l-5.16,5.17H68.2Zm21.75,0H92.24l-5.17,5.17H90Zm-13.05,0H79.19L74,51.11H76.9Zm8.7,0H87.89l-5.17,5.17h2.89Zm-4.35,0H83.54l-5.17,5.17h2.88Z" style="fill:gold"/><rect x="121.74" y="100.38" width="19.89" height="2.67" style="fill:gold"/><rect x="129.61" y="96.38" width="9.2" height="1.78" style="fill:gold"/><rect x="12.22" y="160.93" width="17.81" height="2.37" style="fill:gold"/><path d="M108.88,53.59H113V49.43h-4.16Zm.59-3.56h3v3h-3Z" style="fill:gold"/><path d="M129.46,85.15V81.69H125.7v3.75h3.76Zm-3.17-2.87h2.57v2.57h-2.57Z" style="fill:gold"/><path d="M125.7,136.3h4.15v-4.16H125.7Zm.59-3.57h3v3h-3Z" style="fill:#0751cf"/><path d="M15.69,150.54h5.14V145.4H15.69Zm.59-4.55h4v4h-4Z" style="fill:gold"/><path d="M11.93,126h3.16v-3.17H11.93Zm.59-2.58h2v2h-2Z" style="fill:#0751cf"/><path d="M32.51,169.54H43.78V165H32.51Zm.59-4H43.19v3.36H33.1Z" style="fill:gold"/><path d="M131.24,59.72V81.09h3.36V59.72Zm.59.6H134V80.5h-2.18Z" style="fill:gold"/><path d="M132.62,51.31V46.07h-5.54v5.54h5.54Zm-4.94-4.65H132V51h-4.35Z" style="fill:gold"/><path d="M38.05,40.83V37.17h-4v3.95h4Zm-3.37-3.07h2.77v2.77H34.68Z" style="fill:gold"/><path d="M52.88,39.94h4.95V35H52.88Zm.6-4.36h3.76v3.76H53.48Z" style="fill:#0751cf"/><polygon points="21.38 79.57 18.51 79.57 18.51 76.7 16.89 76.7 16.89 79.57 14.03 79.57 14.03 81.19 16.89 81.19 16.89 84.06 18.51 84.06 18.51 81.19 21.38 81.19 21.38 79.57" style="fill:gold"/><polygon points="33.8 79.57 30.94 79.57 30.94 76.7 29.32 76.7 29.32 79.57 26.45 79.57 26.45 81.19 29.32 81.19 29.32 84.06 30.94 84.06 30.94 81.19 33.8 81.19 33.8 79.57" style="fill:gold"/><polygon points="46.23 79.57 43.37 79.57 43.37 76.7 41.74 76.7 41.74 79.57 38.88 79.57 38.88 81.19 41.74 81.19 41.74 84.06 43.37 84.06 43.37 81.19 46.23 81.19 46.23 79.57" style="fill:gold"/><polygon points="58.66 79.57 55.79 79.57 55.79 76.7 54.17 76.7 54.17 79.57 51.31 79.57 51.31 81.19 54.17 81.19 54.17 84.06 55.79 84.06 55.79 81.19 58.66 81.19 58.66 79.57" style="fill:gold"/></g><polygon points="64.52 50.36 61.65 49.45 61.65 46.8 72.28 46.8 72.28 50.36 64.52 50.36" style="fill:#060a0f"/><path d="M58.54,47.94V36.5a2,2,0,1,0-.45,0v11.9h3.56v-.45Z" style="fill:#060a0f"/><polygon points="85.7 50.36 88.57 49.45 88.57 46.8 77.94 46.8 77.94 50.36 85.7 50.36" style="fill:#060a0f"/><path d="M91.68,47.94V36.5a2,2,0,1,1,.45,0v11.9H88.57v-.45Z" style="fill:#060a0f"/><polygon points="45.44 55.52 51.57 62.85 56.83 65.64 62.61 63.92 47.12 53.17 45.44 55.52"/><polygon points="104.14 55.52 98 62.85 92.74 65.64 86.96 63.92 102.45 53.17 104.14 55.52"/><polygon points="60.79 132.44 66.29 158.69 72.72 158.69 72.72 132.44 60.79 132.44" style="fill:#43413c"/><path d="M47.09,66.16l.39-2.86,3.71-1,8.79,1h5.17l1.76,2.86L75.11,69V96.69H62.22s-9.66,1.79-13.28-18Z" style="fill:#d5d2c8"/><polygon points="75.11 69.03 66.91 66.16 61.89 58.13 61.89 57.05 75.11 57.05 75.11 69.03" style="fill:#fff"/><polygon points="63.26 57.05 63.26 45 68.39 40.3 75.11 40.3 75.11 57.05 63.26 57.05" style="fill:#d5d2c8"/><polygon points="60.97 96.69 62.93 103.67 75.11 103.67 75.11 96.69 60.97 96.69" style="fill:#949187"/><polygon points="64.39 103.67 66.43 108.78 75.11 108.78 75.11 103.67 64.39 103.67" style="fill:#7c7973"/><polygon points="67.5 108.78 69.11 116.03 75.11 116.03 75.11 108.78 67.5 108.78" style="fill:#acaba2"/><path d="M72.78,116H67.64s-8.13,1.36-7.7,12.35c0,0-.53,7.87,9,9.07l3.82-3.82Z" style="fill:#5e5e56"/><polygon points="64.39 117.49 66.43 108.78 67.5 108.78 69.11 116.03 64.39 117.49" style="fill:#d5d2c8"/><polygon points="69.11 116.03 75.11 123.6 75.11 116.03 69.11 116.03" style="fill:#7c7973"/><polygon points="75.11 123.6 69.11 123.6 69.11 116.03 75.11 123.6" style="fill:#43413c"/><path d="M103.13,66.16l-.39-2.86-3.71-1-8.79,1H85.07l-1.76,2.86L75.11,69V96.69H88s9.66,1.79,13.27-18Z" style="fill:#9d9992"/><polygon points="75.11 69.03 83.31 66.16 88.33 58.13 88.33 57.05 75.11 57.05 75.11 69.03" style="fill:#d4d2cb"/><polygon points="86.96 57.05 86.96 45 81.83 40.3 75.11 40.3 75.11 57.05 86.96 57.05" style="fill:#b6b3ac"/><polygon points="89.25 96.69 87.29 103.67 75.11 103.67 75.11 96.69 89.25 96.69" style="fill:#7b796e"/><polygon points="85.83 103.67 83.79 108.78 75.11 108.78 75.11 103.67 85.83 103.67" style="fill:#65625c"/><polygon points="82.72 108.78 81.11 116.03 75.11 116.03 75.11 108.78 82.72 108.78" style="fill:#8f8c84"/><polygon points="89.37 132.44 83.87 158.69 77.44 158.69 77.44 132.44 89.37 132.44" style="fill:#2f2b28"/><path d="M77.44,116h5.13s8.14,1.36,7.71,12.35c0,0,.53,7.87-9,9.07l-3.82-3.82Z" style="fill:#4c4a46"/><polygon points="85.83 117.49 83.79 108.78 82.72 108.78 81.11 116.03 85.83 117.49" style="fill:#b1afa5"/><polygon points="81.11 116.03 75.11 123.6 75.11 116.03 81.11 116.03" style="fill:#6e6b63"/><polygon points="75.11 123.6 81.11 123.6 81.11 116.03 75.11 123.6" style="fill:#32302a"/><path d="M94.28,69.77c-.54.22-15.73,0-15.73,0l-3.44,3.45V87.54l19.17-5.37Z" style="fill:#504e48"/><path d="M55.94,69.77c.53.22,15.73,0,15.73,0l3.44,3.45V87.54L55.94,82.17Z" style="fill:#43413c"/><polygon points="66.35 85.09 71.31 96.73 75.11 96.73 75.11 87.54 66.35 85.09" style="fill:#2f2b28"/><polygon points="83.87 85.09 78.91 96.73 75.11 96.73 75.11 87.54 83.87 85.09" style="fill:#1d1b1a"/><rect x="70.41" y="44.29" width="1.85" height="9.97" style="fill:#504e48"/><rect x="77.96" y="44.29" width="1.85" height="9.97" style="fill:#504e48"/><polygon points="50.71 72.25 40.39 72.25 41.57 65.66 46.76 64.67 50.07 67.53 50.71 72.25" style="fill:#b19b2e"/><polygon points="51.78 80.07 48.64 92.51 43.72 92.51 42.2 88.66 39.33 78.19 40.39 72.25 50.71 72.25 51.78 80.07" style="fill:#c8b33b"/><path d="M47.23,103.25l.36.56a4.42,4.42,0,0,0,1.81-2.72,5.55,5.55,0,0,0-1.25-4.3l-.54.39A5,5,0,0,1,48.74,101,3.79,3.79,0,0,1,47.23,103.25Z"/><path d="M47.06,106.62l.61.75a14,14,0,0,0,3.44-4.53c1.22-2.59,2-6.67-1.27-11.32l-.79.55c2.4,3.43,2.8,6.92,1.18,10.36A13.06,13.06,0,0,1,47.06,106.62Z"/><rect x="43.72" y="98.58" width="3.54" height="5.76" transform="translate(90.97 202.91) rotate(180)" style="fill:#0b181b"/><path d="M47.06,101.36l-3,.14A1.17,1.17,0,0,0,43,102.83L44.6,115.1l3-.14.68-12.35A1.18,1.18,0,0,0,47.06,101.36Z" style="fill:#065451"/><rect x="43.66" y="114.32" width="5.32" height="6.26" transform="translate(98.04 232.64) rotate(177.34)" style="fill:#0b181b"/><path d="M46.51,120.58a3.83,3.83,0,0,0,0,.85,1.44,1.44,0,0,0,.74,1.19c.88.49,2.38,2,2.8,6.46a.42.42,0,0,0,.43.38h0a.78.78,0,0,0,.75-.82l-.28-6a1.17,1.17,0,0,0-.38-.82l-1.45-1.32Z" style="fill:#000b10"/><path d="M46.71,120.57a4.36,4.36,0,0,1,.08.85,1.41,1.41,0,0,1-.71,1.26c-.93.56-2.46,2.19-2.49,6.7a.45.45,0,0,1-.44.42h0a.84.84,0,0,1-.92-.74L42,123a1.07,1.07,0,0,1,.35-.84l1.48-1.46Z" style="fill:#323e3f"/><path d="M48.35,95.38v2.28a1.62,1.62,0,0,1-1.62,1.63h-3.1a2,2,0,0,1-2-2.05V96.9Z" style="fill:#59c4c9"/><path d="M49.59,88.71s3.14,4.76-1.24,6.67l-6.86,2.29s-4.09-1.62-1-9Z" style="fill:#43413c"/><polygon points="109.23 72.25 98.91 72.25 99.55 67.53 102.86 64.67 108.05 65.66 109.23 72.25" style="fill:#887627"/><polygon points="110.29 78.19 107.42 88.66 105.9 92.51 100.98 92.51 97.85 80.07 98.91 72.25 109.23 72.25 110.29 78.19" style="fill:#b19b2f"/><path d="M102.07,103.25l-.36.56a4.43,4.43,0,0,1-1.8-2.72,5.55,5.55,0,0,1,1.25-4.3l.54.39a4.92,4.92,0,0,0-1.14,3.78A3.84,3.84,0,0,0,102.07,103.25Z"/><path d="M102.25,106.62l-.61.75a13.84,13.84,0,0,1-3.44-4.53c-1.22-2.59-2-6.67,1.26-11.32l.8.55c-2.4,3.43-2.8,6.92-1.19,10.36A13.17,13.17,0,0,0,102.25,106.62Z"/><rect x="102.05" y="98.58" width="3.54" height="5.76" style="fill:#0b181b"/><path d="M102.25,101.36l3,.14a1.18,1.18,0,0,1,1.11,1.33l-1.61,12.27-3-.14L101,102.61A1.18,1.18,0,0,1,102.25,101.36Z" style="fill:#065451"/><rect x="100.32" y="114.32" width="5.32" height="6.26" transform="translate(5.55 -4.65) rotate(2.66)" style="fill:#0b181b"/><path d="M102.79,120.58a3.65,3.65,0,0,1,0,.85,1.46,1.46,0,0,1-.74,1.19c-.88.49-2.38,2-2.8,6.46a.43.43,0,0,1-.44.38h0a.79.79,0,0,1-.75-.82l.28-6a1.23,1.23,0,0,1,.39-.82l1.45-1.32Z" style="fill:#000b10"/><path d="M102.6,120.57a3.53,3.53,0,0,0-.09.85,1.46,1.46,0,0,0,.71,1.26c.94.56,2.47,2.19,2.5,6.7a.44.44,0,0,0,.44.42h0a.84.84,0,0,0,.92-.74l.28-6a1.1,1.1,0,0,0-.35-.84l-1.49-1.46Z" style="fill:#323e3f"/><path d="M101,95.38v2.28a1.63,1.63,0,0,0,1.63,1.63h3.09a2.05,2.05,0,0,0,2-2.05V96.9Z" style="fill:#59c4c9"/><path d="M99.72,88.71s-3.15,4.76,1.23,6.67l6.86,2.29s4.1-1.62,1-9Z" style="fill:#504e48"/><rect x="58.11" y="140.39" width="14.02" height="19" style="fill:#1b1b1c"/><rect x="58.72" y="140.39" width="13.13" height="2.04" style="fill:#252827"/><rect x="65.07" y="139.32" width="7.58" height="1.07" transform="translate(137.73 279.7) rotate(180)" style="fill:#86181a"/><rect x="71.43" y="140.39" width="1.23" height="17.88" transform="translate(144.08 298.66) rotate(180)" style="fill:#700f13"/><rect x="72.04" y="158.14" width="2" height="3.09" transform="translate(146.08 319.37) rotate(180)" style="fill:#7e1517"/><rect x="69.75" y="159.33" width="3.29" height="0.71" transform="translate(142.79 319.37) rotate(180)" style="fill:#1d1e22"/><rect x="69.35" y="156.39" width="1.09" height="6.6" transform="translate(139.79 319.37) rotate(180)" style="fill:#7e1517"/><path d="M73.21,159H74v1.33h-.83a.68.68,0,0,1,0-1.33Z" style="fill:#1d1e22"/><rect x="74.04" y="158.56" width="0.26" height="2.36" transform="translate(148.35 319.47) rotate(180)" style="fill:#1d1e22"/><rect x="71.88" y="158.27" width="0.24" height="2.96" transform="translate(144.01 319.5) rotate(180)" style="fill:#1d1e22"/><rect x="57.49" y="139.32" width="7.58" height="1.07" style="fill:#961b20"/><rect x="57.49" y="140.39" width="1.23" height="17.88" style="fill:#7e1517"/><rect x="56.11" y="158.14" width="2" height="3.09" style="fill:#7e1517"/><rect x="57.11" y="159.33" width="3.29" height="0.71" style="fill:#1d1e22"/><rect x="59.71" y="156.39" width="1.09" height="6.6" style="fill:#7e1517"/><path d="M56.94,159h-.83v1.33h.83a.68.68,0,0,0,0-1.33Z" style="fill:#1d1e22"/><rect x="55.84" y="158.56" width="0.26" height="2.36" style="fill:#1d1e22"/><rect x="58.02" y="158.27" width="0.24" height="2.96" style="fill:#1d1e22"/><polygon points="65.07 156.12 60.8 151.48 60.8 154.71 65.07 159.35 65.07 156.12" style="fill:#313832"/><path d="M65.07,152.89l-4-4.32a1.72,1.72,0,0,0-.3,1v1.93l4.27,4.64Z" style="fill:#111b16"/><polygon points="65.07 165.82 60.8 161.17 60.8 164.4 65.07 169.05 65.07 165.82" style="fill:#111b16"/><polygon points="65.07 162.59 60.8 157.94 60.8 161.17 65.07 165.82 65.07 162.59" style="fill:#313832"/><polygon points="65.07 159.35 60.8 154.71 60.8 157.94 65.07 162.59 65.07 159.35" style="fill:#111b16"/><polygon points="65.07 169.05 60.8 164.4 60.8 167.63 64.17 171.3 65.07 171.3 65.07 169.05" style="fill:#313832"/><path d="M60.8,169.68a1.56,1.56,0,0,0,1.48,1.62h1.89l-3.37-3.67Z" style="fill:#111b16"/><path d="M65.07,149.66l-1.59-1.73h-1.2a1.44,1.44,0,0,0-1.18.64l4,4.32Z" style="fill:#313832"/><polygon points="65.07 147.93 63.48 147.93 65.07 149.66 65.07 147.93" style="fill:#111b16"/><path d="M67.86,171.3a1.56,1.56,0,0,0,1.49-1.62v-2L66,171.3Z" style="fill:#313832"/><polygon points="65.11 149.69 66.73 147.93 65.07 147.93 65.07 149.66 65.11 149.69" style="fill:#313832"/><path d="M67.86,147.93H66.73l-1.62,1.76,0,0v3.23l0,0,4-4.32A1.47,1.47,0,0,0,67.86,147.93Z" style="fill:#111b16"/><polygon points="65.07 156.12 65.07 159.35 65.11 159.39 69.35 154.77 69.35 151.54 65.11 156.16 65.07 156.12" style="fill:#111b16"/><path d="M65.07,152.89v3.23l0,0,4.24-4.62v-2a1.75,1.75,0,0,0-.27-.94l-4,4.32Z" style="fill:#313832"/><polygon points="65.07 159.35 65.07 162.59 65.11 162.62 69.35 158 69.35 154.77 65.11 159.39 65.07 159.35" style="fill:#313832"/><polygon points="65.07 169.05 65.07 171.3 66.04 171.3 69.35 167.7 69.35 164.47 65.11 169.08 65.07 169.05" style="fill:#111b16"/><polygon points="65.07 162.59 65.07 165.82 65.11 165.85 69.35 161.24 69.35 158 65.11 162.62 65.07 162.59" style="fill:#111b16"/><polygon points="65.07 165.82 65.07 169.05 65.11 169.08 69.35 164.47 69.35 161.24 65.11 165.85 65.07 165.82" style="fill:#313832"/><path d="M65.86,140.39a.8.8,0,1,1-.79-.95A.88.88,0,0,1,65.86,140.39Z" style="fill:#252827"/><rect x="77.99" y="140.39" width="14.02" height="19" transform="translate(170 299.77) rotate(180)" style="fill:#1b1b1c"/><rect x="78.26" y="140.39" width="13.13" height="2.04" transform="translate(169.65 282.81) rotate(180)" style="fill:#252827"/><rect x="77.46" y="139.32" width="7.58" height="1.07" style="fill:#6d0e18"/><rect x="77.46" y="140.39" width="1.23" height="17.88" style="fill:#510310"/><rect x="76.07" y="158.14" width="2" height="3.09" style="fill:#7e1517"/><rect x="77.07" y="159.33" width="3.29" height="0.71" style="fill:#1d1e22"/><rect x="79.68" y="156.39" width="1.09" height="6.6" style="fill:#7e1517"/><path d="M76.9,159h-.83v1.33h.83a.67.67,0,0,0,0-1.33Z" style="fill:#1d1e22"/><rect x="75.81" y="158.56" width="0.26" height="2.36" style="fill:#1d1e22"/><rect x="77.99" y="158.27" width="0.24" height="2.96" style="fill:#1d1e22"/><rect x="85.04" y="139.32" width="7.58" height="1.07" transform="translate(177.66 279.7) rotate(180)" style="fill:#6d0e18"/><rect x="91.39" y="140.39" width="1.23" height="17.88" transform="translate(184.02 298.66) rotate(180)" style="fill:#510310"/><rect x="92.01" y="158.14" width="2" height="3.09" transform="translate(186.01 319.37) rotate(180)" style="fill:#7e1517"/><rect x="89.71" y="159.33" width="3.29" height="0.71" transform="translate(182.72 319.37) rotate(180)" style="fill:#1d1e22"/><rect x="89.32" y="156.39" width="1.09" height="6.6" transform="translate(179.72 319.37) rotate(180)" style="fill:#7e1517"/><path d="M93.18,159H94v1.33h-.83a.67.67,0,0,1,0-1.33Z" style="fill:#1d1e22"/><rect x="94.01" y="158.56" width="0.26" height="2.36" transform="translate(188.28 319.47) rotate(180)" style="fill:#1d1e22"/><rect x="91.85" y="158.27" width="0.24" height="2.96" transform="translate(183.94 319.5) rotate(180)" style="fill:#1d1e22"/><polygon points="85.04 156.12 89.32 151.48 89.32 154.71 85.04 159.35 85.04 156.12" style="fill:#313832"/><path d="M85,152.89l4-4.32a1.73,1.73,0,0,1,.31,1v1.93L85,156.12Z" style="fill:#111b16"/><polygon points="85.04 165.82 89.32 161.17 89.32 164.4 85.04 169.05 85.04 165.82" style="fill:#111b16"/><polygon points="85.04 162.59 89.32 157.94 89.32 161.17 85.04 165.82 85.04 162.59" style="fill:#313832"/><polygon points="85.04 159.35 89.32 154.71 89.32 157.94 85.04 162.59 85.04 159.35" style="fill:#111b16"/><polygon points="85.04 169.05 89.32 164.4 89.32 167.63 85.94 171.3 85.04 171.3 85.04 169.05" style="fill:#313832"/><path d="M89.32,169.68a1.56,1.56,0,0,1-1.49,1.62H85.94l3.38-3.67Z" style="fill:#111b16"/><path d="M85,149.66l1.59-1.73h1.2a1.44,1.44,0,0,1,1.18.64l-4,4.32Z" style="fill:#313832"/><polygon points="85.04 147.93 86.63 147.93 85.04 149.66 85.04 147.93" style="fill:#111b16"/><path d="M82.25,171.3a1.56,1.56,0,0,1-1.49-1.62v-2l3.32,3.6Z" style="fill:#313832"/><polygon points="85.01 149.69 83.39 147.93 85.04 147.93 85.04 149.66 85.01 149.69" style="fill:#313832"/><path d="M82.25,147.93h1.14L85,149.69l0,0v3.23l0,0-4-4.32A1.45,1.45,0,0,1,82.25,147.93Z" style="fill:#111b16"/><polygon points="85.04 156.12 85.04 159.35 85.01 159.39 80.76 154.77 80.76 151.54 85.01 156.16 85.04 156.12" style="fill:#111b16"/><path d="M85,152.89v3.23l0,0-4.25-4.62v-2a1.76,1.76,0,0,1,.28-.94l4,4.32Z" style="fill:#313832"/><polygon points="85.04 159.35 85.04 162.59 85.01 162.62 80.76 158 80.76 154.77 85.01 159.39 85.04 159.35" style="fill:#313832"/><polygon points="85.04 169.05 85.04 171.3 84.08 171.3 80.76 167.7 80.76 164.47 85.01 169.08 85.04 169.05" style="fill:#111b16"/><polygon points="85.04 162.59 85.04 165.82 85.01 165.85 80.76 161.24 80.76 158 85.01 162.62 85.04 162.59" style="fill:#111b16"/><polygon points="85.04 165.82 85.04 169.05 85.01 169.08 80.76 164.47 80.76 161.24 85.01 165.85 85.04 165.82" style="fill:#313832"/><path d="M84.25,140.39a.8.8,0,1,0,.79-.95A.88.88,0,0,0,84.25,140.39Z" style="fill:#252827"/><polygon points="57.49 139.32 60.25 124.11 65.29 124.11 65.29 139.32 57.49 139.32" style="fill:#adada9"/><polygon points="92.73 139.32 89.97 124.11 84.93 124.11 84.93 139.32 92.73 139.32" style="fill:#938f8a"/><line x1="98.91" y1="72.25" x2="98.07" y2="72.25" style="fill:none"/></g></g></svg>