<svg xmlns="http://www.w3.org/2000/svg" xmlns:xlink="http://www.w3.org/1999/xlink" viewBox="0 0 148.25 207.55"><defs><linearGradient id="Degradado_sin_nombre_4" x1="-14.83" y1="192.72" x2="163.07" y2="14.83" gradientUnits="userSpaceOnUse"><stop offset="0" stop-color="#f1ff01"/><stop offset="1" stop-color="#08e1ff"/></linearGradient><linearGradient id="Degradado_sin_nombre_4-2" x1="-3.89" y1="72.02" x2="98.11" y2="-8.31" xlink:href="#Degradado_sin_nombre_4"/></defs><title>Asset 153</title><g id="Layer_2" data-name="Layer 2"><g id="Layer_3" data-name="Layer 3"><rect width="148.25" height="207.55" style="fill:url(#Degradado_sin_nombre_4)"/><rect width="81.12" height="74.04" style="fill:url(#Degradado_sin_nombre_4-2)"/><polyline points="81.12 0 81.12 74.03 0 74.03" style="fill:none;stroke:#fff;stroke-miterlimit:10"/><g style="opacity:0.45"><path d="M138.66,161.44h-6.43l8.56-8.57V46.54h-3.48v7h-3.48V57H123.38V53.51h7v-7h7v-7h3.48V38.05H8.06V170.77H29v-3.16h3.48v3.16H140.79V159.31ZM16.24,168.35H12.75v-3.48h3.49ZM25.07,165H21.59v-3.48h3.48Zm4.79-.13H26.38v-3.48h3.48Zm5.55,2H31.92v-3.48h3.49Zm0-9.13H32v-3.48h3.48Zm2.55-5H34.5v-3.49H38Zm36,8.69L85.49,149.9h6.44L80.4,161.44Zm9.71,0L95.2,149.9h6.44L90.11,161.44Zm9.71,0,11.53-11.54h6.44L99.82,161.44Zm9.71,0,11.53-11.54h6.44l-11.53,11.54Zm9.71,0,11.54-11.54h6.43l-11.53,11.54Zm9.71,0,11.54-11.54h6.44L129,161.44Z" style="fill:#2c2c30;opacity:0.2"/><path d="M13.8,53h-1L24,41.83h3.14l-5,5H20Zm11-6.23H27l5-5H28.78L17.6,53h1Zm4.8,0h2.13l5-5H33.59L22.4,53h1Zm4.8,0h2.13l5-5H38.39L27.2,53h1Zm4.8,0h2.13l5-5H43.19L32,53h1Zm4.8,0h2.13l5-5H48L36.8,53h1Zm4.8,0H51l5-5H52.79L41.61,53h1Zm4.81,0h2.13l5-5H57.59L46.41,53h1Z" style="fill:#9bf424"/><polygon points="138.51 175.65 134.07 171.21 138.51 166.77 135.99 164.25 131.55 168.69 127.11 164.25 124.59 166.77 129.03 171.21 124.59 175.65 127.11 178.17 131.55 173.72 135.99 178.17 138.51 175.65" style="fill:#9bf424"/><polygon points="23.05 67.27 19.86 64.08 23.05 60.88 21.24 59.08 18.05 62.27 14.86 59.08 13.05 60.89 16.24 64.08 13.05 67.27 14.86 69.08 18.05 65.89 21.24 69.08 23.05 67.27" style="fill:#097f00"/><path d="M99,52.84A1.14,1.14,0,0,1,97.88,54a1.13,1.13,0,0,1-1.08-.84H76.17L67.31,62H36.82L16.5,82.32v71.29H13.09a1.13,1.13,0,0,1-1.08.84,1.14,1.14,0,1,1,0-2.28,1.13,1.13,0,0,1,1.08.83h2.8V82.07L36.57,61.39H67.06l8.86-8.86H96.8a1.12,1.12,0,0,1,1.08-.83A1.14,1.14,0,0,1,99,52.84Z" style="fill:#097f00"/><rect x="137.4" y="55.35" width="3.48" height="3.48" style="fill:#9bf424"/><rect x="137.37" y="64.47" width="3.48" height="3.48" style="fill:#9bf424"/><rect x="134.43" y="68.64" width="3.48" height="3.48" style="fill:#9bf424"/><rect x="119.18" y="73.64" width="3.48" height="3.48" style="fill:#9bf424"/><rect x="139.94" y="50.3" width="3.48" height="3.48" style="fill:#9bf424"/><rect x="131.83" y="62.42" width="3.48" height="3.48" style="fill:#9bf424"/><rect x="127.03" y="62.55" width="3.48" height="3.48" style="fill:#9bf424"/><rect x="118.2" y="65.9" width="3.48" height="3.48" style="fill:#9bf424"/><rect x="133.55" y="76.29" width="3.48" height="3.48" style="fill:#9bf424"/><rect x="14.5" y="36.6" width="21.74" height="2.83" style="fill:#097f00"/><rect x="137.91" y="110.86" width="5.51" height="32.98" style="fill:#097f00"/><rect x="108.18" y="168.35" width="2.83" height="6.04" style="fill:#097f00"/><rect x="71.36" y="33.97" width="3.07" height="12.14" style="fill:#9bf424"/><rect x="5.81" y="104.41" width="4.45" height="31.33" style="fill:#9bf424"/><rect x="139.14" y="102.16" width="2.54" height="2.54" style="fill:#9bf424"/><rect x="143.42" y="82.53" width="1.38" height="13.76" style="fill:#9bf424"/><rect x="80.46" y="36" width="18.41" height="0.61" style="fill:#9bf424"/><rect x="5" y="89.21" width="0.4" height="8.09" style="fill:#9bf424"/><rect x="4.39" y="67.56" width="1.01" height="13.96" style="fill:#9bf424"/><rect x="3.78" y="51.17" width="1.62" height="9.51" style="fill:#9bf424"/></g><polygon points="59.77 166.34 59.77 169.41 66.84 169.41 70.44 167.88 75.59 167.88 75.59 166.34 59.77 166.34" style="fill:#174e43"/><polygon points="93.35 166.34 93.35 169.41 86.28 169.41 82.68 167.88 77.53 167.88 77.53 166.34 93.35 166.34" style="fill:#000c0d"/><polygon points="66.04 49.07 63.95 48.41 63.95 46.5 71.66 46.5 71.66 49.07 66.04 49.07" style="fill:#060a0f"/><path d="M61.71,47.32V39a1.45,1.45,0,1,0-.33,0v8.62H64v-.33Z" style="fill:#060a0f"/><polygon points="87.13 49.07 89.21 48.41 89.21 46.5 81.51 46.5 81.51 49.07 87.13 49.07" style="fill:#060a0f"/><path d="M91.46,47.32V39a1.45,1.45,0,1,1,.33,0v8.62H89.21v-.33Z" style="fill:#060a0f"/><path d="M69.55,102.4H67.9a4.34,4.34,0,0,1-4.33-4.33V93.31h.68v4.76a3.66,3.66,0,0,0,3.65,3.65h1.65Z" style="fill:#121718"/><path d="M69,151.07a13.29,13.29,0,0,1-2.87-4.3,13.13,13.13,0,0,1-1-5.07V131h.9V141.7a12.26,12.26,0,0,0,3.61,8.73Z" style="fill:#07332d"/><polygon points="49.46 55.58 54.8 50.36 58.67 51.9 60.22 61.12 51.75 61.12 49.46 55.58" style="fill:#07332d"/><polygon points="56.97 76.03 60.22 76.03 60.22 61.12 55.68 61.12 52.93 63.87 52.93 70.34 56.97 76.03" style="fill:#542231"/><path d="M57,76l-2.58-7.55-5.38,1s-4.61,8.49-1.26,13h5l.63-2.89S56.79,78.29,57,76Z" style="fill:#439084"/><polygon points="45.22 82.54 53.71 82.54 53.71 101.71 47.66 101.71 47.66 100.17 43.41 99.18 43.41 95.56 45.44 93.53 45.22 82.54" style="fill:#a3b446"/><path d="M49,69.53,48.56,66s-6.23-3.16-2-8.5a4.41,4.41,0,0,1,6.5-.84,6.27,6.27,0,0,1,2.45,3.66l.28,1.16a6.29,6.29,0,0,1-.29,3.88l-1.31,3.17Z" style="fill:#439084"/><path d="M45.07,62.55S40.38,71.11,47.54,73L49,69.53,48.56,66S46.56,62.45,45.07,62.55Z" style="fill:#5b2a38"/><polygon points="58.67 51.9 62.94 53.98 59.8 58.61 58.67 51.9" style="fill:#439084"/><polygon points="60.64 76.03 63.87 88.4 68.21 88.4 69.65 89.66 74.24 89.66 76.58 89.66 76.58 64.88 66.35 61.89 64.34 54.1 62.94 53.98 57.29 59.66 60.64 76.03" style="fill:#c5d748"/><path d="M63.87,88.4h-2.3v4.36s8.47,3.43,7.54,7.86h7.47v-11H69.65L68.21,88.4Z" style="fill:#439084"/><path d="M69.11,100.62a4.89,4.89,0,0,1-1.94,3.67,4.14,4.14,0,0,0-1.89,3c-.16,1.69.4,4.61,3.8,5h7.5V100.62Z" style="fill:#296a5f"/><polygon points="67.93 133.28 69.76 146.7 75.59 146.7 75.59 125.82 67.93 125.82 67.93 133.28" style="fill:#07332d"/><polygon points="66.52 111.13 65.36 120.4 74.17 120.4 74.17 111.37 66.52 111.13" style="fill:#185047"/><path d="M67.93,120.4v12.88s-4.34-1.83-4-5.35V120.4Z" style="fill:#185047"/><path d="M74.17,120.4h1.42v5.42h-5s-1.89,1-2.64,7.46V120.4Z" style="fill:#296a5f"/><polygon points="69.76 146.7 66.64 153.6 75.59 153.6 75.59 146.7 69.76 146.7" style="fill:#296a5f"/><polygon points="66.84 153.16 66.84 158.39 67.93 158.39 67.93 163 70.92 162 75.59 162 75.59 153.6 66.84 153.16" style="fill:#185047"/><polygon points="67.93 158.39 64.74 158.39 63.25 159.88 63.25 163 67.93 163 67.93 158.39" style="fill:#083b34"/><polygon points="63.25 163 61.67 163 61.67 166.34 75.59 166.34 75.59 162 67.93 162 63.25 163" style="fill:#083b34"/><polygon points="48.56 66 55.71 64.66 54.39 68.47 49.01 69.53 48.56 66" style="fill:#5cc6d3"/><polygon points="76.58 69.53 66.71 68.08 72.12 87.37 76.58 87.37 76.58 69.53" style="fill:#a3b446"/><path d="M49.73,107.29h-2.2A3.59,3.59,0,0,1,44,103.71v-1.36a2.72,2.72,0,0,1,2.73-2.72v1.13a1.6,1.6,0,0,0-1.6,1.59v1.36a2.45,2.45,0,0,0,2.45,2.45h2.2Z" style="fill:#003839"/><rect x="48.33" y="103.27" width="2.8" height="8.35" style="fill:#002425"/><rect x="48.62" y="116.08" width="1.44" height="5.53" style="fill:#323534"/><rect x="50.4" y="116.08" width="0.52" height="5.53" style="fill:#323534"/><polygon points="46.51 119.78 49.75 119.78 49.75 123.87 47.96 123.87 47.96 130.34 47.45 130.34 44.5 123.24 46.51 119.78" style="fill:#0bb3af"/><polygon points="52.97 119.78 49.73 119.78 49.73 123.87 51.52 123.87 51.52 130.34 52.02 130.34 54.98 123.24 52.97 119.78" style="fill:#5cc6d3"/><polygon points="46.8 111.62 52.64 111.62 51.57 117.34 47.36 117.34 46.8 111.62" style="fill:#34bdc9"/><circle cx="50.2" cy="100.19" r="3.93" transform="translate(-56.8 66.9) rotate(-46.11)" style="fill:#2e949c"/><circle cx="50.2" cy="100.19" r="1.63" style="fill:#002a2b"/><polygon points="64.9 56.27 66.35 61.89 76.58 64.88 76.58 60.19 64.9 56.27" style="fill:#07332d"/><path d="M76.58,39.77H70.43c-1.71,0-3.09,1.95-3.09,4.34v8.25h9.24Z" style="fill:#3cbcba"/><polygon points="67.34 52.36 67.34 54.55 70.44 60.19 75.47 60.19 76.58 60.19 76.58 52.36 67.34 52.36" style="fill:#439084"/><rect x="65.92" y="44.85" width="1.42" height="6.06" style="fill:#5b2a38"/><path d="M83.57,102.4h1.65a4.34,4.34,0,0,0,4.33-4.33V93.31h-.68v4.76a3.66,3.66,0,0,1-3.65,3.65H83.57Z" style="fill:#121718"/><path d="M84.09,151.07a13.29,13.29,0,0,0,2.87-4.3,13.13,13.13,0,0,0,1-5.07V131h-.9V141.7a12.26,12.26,0,0,1-3.61,8.73Z" style="fill:#07332d"/><polygon points="103.66 55.58 98.32 50.36 94.45 51.9 92.9 61.12 101.37 61.12 103.66 55.58" style="fill:#001d19"/><polygon points="96.15 76.03 92.9 76.03 92.9 61.12 97.44 61.12 100.19 63.87 100.19 70.34 96.15 76.03" style="fill:#2a0418"/><path d="M96.15,76l2.58-7.55,5.38,1s4.61,8.49,1.26,13h-5l-.63-2.89S96.33,78.29,96.15,76Z" style="fill:#2e6b62"/><polygon points="107.91 82.54 99.41 82.54 99.41 101.71 105.46 101.71 105.46 100.17 109.71 99.18 109.71 95.56 107.68 93.53 107.91 82.54" style="fill:#90973d"/><path d="M104.11,69.53l.45-3.53s6.23-3.16,2-8.5a4.41,4.41,0,0,0-6.5-.84,6.27,6.27,0,0,0-2.45,3.66l-.28,1.16a6.29,6.29,0,0,0,.29,3.88L99,68.53Z" style="fill:#205950"/><path d="M108.05,62.55s4.69,8.56-2.47,10.43l-1.47-3.45.45-3.53S106.56,62.45,108.05,62.55Z" style="fill:#4a202e"/><polygon points="94.45 51.9 90.18 53.98 93.32 58.61 94.45 51.9" style="fill:#398277"/><polygon points="92.48 76.03 89.25 88.4 84.91 88.4 83.47 89.66 78.88 89.66 76.54 89.66 76.54 64.88 86.77 61.89 88.78 54.1 90.18 53.98 95.83 59.66 92.48 76.03" style="fill:#c5ca3a"/><path d="M89.25,88.4h2.3v4.36s-8.47,3.43-7.54,7.86H76.54v-11h6.93l1.44-1.26Z" style="fill:#2f7369"/><path d="M84,100.62A4.89,4.89,0,0,0,86,104.29a4.14,4.14,0,0,1,1.89,3c.16,1.69-.4,4.61-3.8,5h-7.5V100.62Z" style="fill:#184e46"/><polygon points="85.19 133.28 83.36 146.7 77.53 146.7 77.53 125.82 85.19 125.82 85.19 133.28" style="fill:#00231f"/><polygon points="86.6 111.13 87.77 120.4 78.95 120.4 78.95 111.37 86.6 111.13" style="fill:#093d36"/><path d="M85.19,120.4v12.88s4.34-1.83,4-5.35V120.4Z" style="fill:#064038"/><path d="M79,120.4H77.53v5.42h5s1.89,1,2.64,7.46V120.4Z" style="fill:#194e46"/><polygon points="83.36 146.7 86.48 153.6 77.53 153.6 77.53 146.7 83.36 146.7" style="fill:#1a4a43"/><polygon points="86.28 153.16 86.28 158.39 85.19 158.39 85.19 163 82.2 162 77.53 162 77.53 153.6 86.28 153.16" style="fill:#073831"/><polygon points="85.19 158.39 88.38 158.39 89.87 159.88 89.87 163 85.19 163 85.19 158.39" style="fill:#001f1a"/><polygon points="89.87 163 91.45 163 91.45 166.34 77.53 166.34 77.53 162 85.19 162 89.87 163" style="fill:#001f1a"/><polygon points="104.56 66 97.41 64.66 98.73 68.47 104.11 69.53 104.56 66" style="fill:#40bfc0"/><polygon points="76.54 69.53 86.41 68.08 81 87.37 76.54 87.37 76.54 69.53" style="fill:#899035"/><path d="M103.39,107.29h2.2a3.59,3.59,0,0,0,3.58-3.58v-1.36a2.72,2.72,0,0,0-2.73-2.72v1.13a1.6,1.6,0,0,1,1.6,1.59v1.36a2.45,2.45,0,0,1-2.45,2.45h-2.2Z" style="fill:#003839"/><rect x="101.99" y="103.27" width="2.8" height="8.35" transform="translate(206.78 214.89) rotate(180)" style="fill:#002425"/><rect x="103.06" y="116.08" width="1.44" height="5.53" transform="translate(207.56 237.69) rotate(180)" style="fill:#323534"/><rect x="102.2" y="116.08" width="0.52" height="5.53" transform="translate(204.92 237.69) rotate(180)" style="fill:#323534"/><polygon points="106.61 119.78 103.37 119.78 103.37 123.87 105.16 123.87 105.16 130.34 105.67 130.34 108.62 123.24 106.61 119.78" style="fill:#138985"/><polygon points="100.15 119.78 103.39 119.78 103.39 123.87 101.6 123.87 101.6 130.34 101.1 130.34 98.14 123.24 100.15 119.78" style="fill:#3bbcbe"/><polygon points="106.33 111.62 100.48 111.62 101.55 117.34 105.76 117.34 106.33 111.62" style="fill:#2b9da0"/><circle cx="102.92" cy="100.19" r="3.93" transform="translate(-40.71 99.35) rotate(-43.89)" style="fill:#1e7375"/><circle cx="102.92" cy="100.19" r="1.63" style="fill:#002a2b"/><polygon points="88.22 56.27 86.77 61.89 76.54 64.88 76.54 60.19 88.22 56.27" style="fill:#001515"/><path d="M76.54,39.77h6.15c1.71,0,3.09,1.95,3.09,4.34v8.25H76.54Z" style="fill:#26b2ac"/><polygon points="85.78 52.36 85.78 54.55 82.68 60.19 77.65 60.19 76.54 60.19 76.54 52.36 85.78 52.36" style="fill:#31796d"/><rect x="85.78" y="44.85" width="1.42" height="6.06" transform="translate(172.98 95.76) rotate(180)" style="fill:#5b2a38"/><rect x="73.69" y="45.38" width="0.98" height="4.54" style="fill:#002a2b"/><rect x="78.4" y="45.38" width="0.98" height="4.54" style="fill:#002a2b"/><polygon points="107.23 92.86 111.11 88.4 107.23 88.4 107.23 92.86" style="fill:#0bb3af"/><polygon points="107.23 83.94 111.11 88.4 107.23 88.4 107.23 83.94" style="fill:#168f8a"/><polygon points="45.34 83.94 39.16 88.4 45.34 88.4 45.34 83.94" style="fill:#0bb3af"/><polygon points="45.34 92.86 39.16 88.4 45.34 88.4 45.34 92.86" style="fill:#168f8a"/><polygon points="72.85 61 76.41 64.1 76.41 61 72.85 61" style="fill:#0bb3af"/><polygon points="79.97 61 76.41 64.1 76.41 61 79.97 61" style="fill:#168f8a"/></g></g></svg>