<svg xmlns="http://www.w3.org/2000/svg" xmlns:xlink="http://www.w3.org/1999/xlink" viewBox="0 0 148.25 207.55"><defs><linearGradient id="Degradado_sin_nombre_4" x1="-14.83" y1="192.72" x2="163.07" y2="14.83" gradientUnits="userSpaceOnUse"><stop offset="0" stop-color="#f1ff01"/><stop offset="1" stop-color="#08e1ff"/></linearGradient><linearGradient id="Degradado_sin_nombre_4-2" x1="-3.89" y1="72.02" x2="98.11" y2="-8.31" xlink:href="#Degradado_sin_nombre_4"/></defs><title>Asset 164</title><g id="Layer_2" data-name="Layer 2"><g id="Layer_3" data-name="Layer 3"><rect width="148.25" height="207.55" style="fill:url(#Degradado_sin_nombre_4)"/><rect width="81.12" height="74.04" style="fill:url(#Degradado_sin_nombre_4-2)"/><polyline points="81.12 0 81.12 74.04 0 74.04" style="fill:none;stroke:#fff;stroke-miterlimit:10"/><g style="opacity:0.45"><path d="M138.66,161.44h-6.43l8.56-8.57V46.54h-3.48v7h-3.48V57H123.38V53.51h7v-7h7v-7h3.48V38.05H8.06V170.77H29v-3.16h3.48v3.16H140.79V159.31ZM16.24,168.35H12.75v-3.48h3.49ZM25.07,165H21.59v-3.48h3.48Zm4.79-.13H26.38v-3.48h3.48Zm5.55,2H31.92v-3.48h3.49Zm0-9.13H32v-3.48h3.48Zm2.55-5H34.5v-3.49H38Zm36,8.69L85.49,149.9h6.44L80.4,161.44Zm9.71,0L95.2,149.9h6.44L90.11,161.44Zm9.71,0,11.53-11.54h6.44L99.82,161.44Zm9.71,0,11.53-11.54h6.44l-11.53,11.54Zm9.71,0,11.54-11.54h6.43l-11.53,11.54Zm9.71,0,11.54-11.54h6.44L129,161.44Z" style="fill:#2c2c30;opacity:0.2"/><path d="M13.8,53h-1L24,41.83h3.14l-5,5H20Zm11-6.23H27l5-5H28.78L17.6,53h1Zm4.8,0h2.13l5-5H33.59L22.4,53h1Zm4.8,0h2.13l5-5H38.39L27.2,53h1Zm4.8,0h2.13l5-5H43.19L32,53h1Zm4.8,0h2.13l5-5H48L36.8,53h1Zm4.8,0H51l5-5H52.79L41.61,53h1Zm4.81,0h2.13l5-5H57.59L46.41,53h1Z" style="fill:#9bf424"/><polygon points="138.51 175.65 134.07 171.21 138.51 166.77 135.99 164.25 131.55 168.69 127.11 164.25 124.59 166.77 129.03 171.21 124.59 175.65 127.11 178.17 131.55 173.72 135.99 178.17 138.51 175.65" style="fill:#9bf424"/><polygon points="23.05 67.27 19.86 64.08 23.05 60.88 21.24 59.08 18.05 62.27 14.86 59.08 13.05 60.89 16.24 64.08 13.05 67.27 14.86 69.08 18.05 65.89 21.24 69.08 23.05 67.27" style="fill:#097f00"/><path d="M99,52.84A1.14,1.14,0,0,1,97.88,54a1.13,1.13,0,0,1-1.08-.84H76.17L67.31,62H36.82L16.5,82.32v71.29H13.09a1.13,1.13,0,0,1-1.08.84,1.14,1.14,0,1,1,0-2.28,1.13,1.13,0,0,1,1.08.83h2.8V82.07L36.57,61.39H67.06l8.86-8.86H96.8a1.12,1.12,0,0,1,1.08-.83A1.14,1.14,0,0,1,99,52.84Z" style="fill:#097f00"/><rect x="137.4" y="55.35" width="3.48" height="3.48" style="fill:#9bf424"/><rect x="137.37" y="64.47" width="3.48" height="3.48" style="fill:#9bf424"/><rect x="134.43" y="68.64" width="3.48" height="3.48" style="fill:#9bf424"/><rect x="119.18" y="73.64" width="3.48" height="3.48" style="fill:#9bf424"/><rect x="139.94" y="50.3" width="3.48" height="3.48" style="fill:#9bf424"/><rect x="131.83" y="62.42" width="3.48" height="3.48" style="fill:#9bf424"/><rect x="127.03" y="62.55" width="3.48" height="3.48" style="fill:#9bf424"/><rect x="118.2" y="65.9" width="3.48" height="3.48" style="fill:#9bf424"/><rect x="133.55" y="76.29" width="3.48" height="3.48" style="fill:#9bf424"/><rect x="14.5" y="36.6" width="21.74" height="2.83" style="fill:#097f00"/><rect x="137.91" y="110.86" width="5.51" height="32.98" style="fill:#097f00"/><rect x="108.18" y="168.35" width="2.83" height="6.04" style="fill:#097f00"/><rect x="71.36" y="33.97" width="3.07" height="12.14" style="fill:#9bf424"/><rect x="5.81" y="104.41" width="4.45" height="31.33" style="fill:#9bf424"/><rect x="139.14" y="102.16" width="2.54" height="2.54" style="fill:#9bf424"/><rect x="143.42" y="82.53" width="1.38" height="13.76" style="fill:#9bf424"/><rect x="80.46" y="36" width="18.41" height="0.61" style="fill:#9bf424"/><rect x="5" y="89.21" width="0.4" height="8.09" style="fill:#9bf424"/><rect x="4.39" y="67.56" width="1.01" height="13.96" style="fill:#9bf424"/><rect x="3.78" y="51.17" width="1.62" height="9.51" style="fill:#9bf424"/></g><rect x="60.8" y="68.97" width="29.1" height="3.82" style="fill:#1e0627"/><path d="M89.07,92.86a5,5,0,0,1-2.66-1l.45-.78-.22.39.22-.39s1.83,1.38,3.12.6c.93-.57,1.43-2.22,1.46-4.77h.81c0,3-.66,4.84-1.89,5.59A2.49,2.49,0,0,1,89.07,92.86Z" style="fill:#2c0430"/><path d="M89.08,96.69a7.14,7.14,0,0,1-1.67-.21,9.47,9.47,0,0,1-2.43-1l.38-.83s3.77,2.21,6.27.24a6.18,6.18,0,0,0,1.94-3.52,24.86,24.86,0,0,0,.25-7.89l.81-.11c.6,6.35-.25,10.49-2.54,12.29A4.72,4.72,0,0,1,89.08,96.69Z" style="fill:#451b46"/><polygon points="75.06 65.22 81.48 65.22 82.39 72.5 75.06 71.28 75.06 65.22" style="fill:#187782"/><path d="M87.51,54.5c0,.35,3.81-18.65-12.45-15.85V55.52H86.78A4.54,4.54,0,0,1,87.51,54.5Z" style="fill:#aa4a4d"/><path d="M75.06,55.52v9.7h5.72s4.26-7,6-9.7Z" style="fill:#d66764"/><path d="M86.72,125.46l-.54,5.08s1,6.18.54,8l1.14-.41s1.5-9,8-11.71c0,0,.52-4-1.84-5Z" style="fill:#7c807d"/><path d="M95.83,126.46s4.24-2.33,2.17,10.2c0,0-3.67-2.22-10.14,1.51C87.86,138.17,89.86,126.58,95.83,126.46Z" style="fill:#676c69"/><path d="M86.28,121.1s-2.93,4.08,1.82,4.72c0,0,5.15,0,6.72-6.76,0,0-.29-2.83-3.78-1.62Z" style="fill:#595f59"/><path d="M79.61,114.46s.4,4.42,4.75,2.85l4.19-5.53s.66-5.66-3.48-3.73Z" style="fill:#595f59"/><path d="M84.36,117.31s-2.33,4.37,1.92,3.79c0,0,5.86-3.15,5.71-5.89,0,0-.62-4.19-4.46-2.09Z" style="fill:#7c807d"/><path d="M83.72,140.27s8.82-6.88,14.28-3.61V161.6l-2.55,2.94H85.38Z" style="fill:#7f2885"/><path d="M75.06,113.73c4.31-2,9.14-12.74,12-19.89l-12-2.13Z" style="fill:#330936"/><path d="M85.55,73.09,75.06,71.28V91.71l12,2.13c1.47-3.74,2.39-6.5,2.39-6.5C86.53,85.24,85.55,73.09,85.55,73.09Z" style="fill:#1e0627"/><path d="M82.69,103.63s1.21.05,1.31,1.74c0,0-.5,2.15,1.07,2.68l-5.46,6.41a3.57,3.57,0,0,1-2.93-1.85S80.32,103.58,82.69,103.63Z" style="fill:#862c8e"/><rect x="77.67" y="45.56" width="1.97" height="9.96" style="fill:#1e0627"/><rect x="75.06" y="62.52" width="7.33" height="2.7" style="fill:#953538"/><polygon points="75.06 65.22 68.65 65.22 67.74 72.5 75.06 71.28 75.06 65.22" style="fill:#23849b"/><path d="M62.62,54.5c0,.35-3.81-18.65,12.44-15.85V55.52H63.35A5,5,0,0,0,62.62,54.5Z" style="fill:#f2766d"/><path d="M75.06,55.52v9.7H69.35s-4.26-7-6-9.7Z" style="fill:#f2766d"/><path d="M63.41,125.46l.54,5.08s-1,6.18-.54,8l-1.14-.41s-1.5-9-8-11.71c0,0-.52-4,1.84-5Z" style="fill:#8b8f8c"/><path d="M54.3,126.46s-4.24-2.33-2.17,10.2c0,0,3.66-2.22,10.14,1.51C62.27,138.17,60.26,126.58,54.3,126.46Z" style="fill:#777d77"/><path d="M63.85,121.1s2.93,4.08-1.82,4.72c0,0-5.15,0-6.72-6.76,0,0,.28-2.83,3.78-1.62Z" style="fill:#777d77"/><path d="M70.52,114.46s-.41,4.42-4.75,2.85l-4.2-5.53s-.65-5.66,3.49-3.73Z" style="fill:#777d77"/><path d="M65.77,117.31s2.32,4.37-1.92,3.79c0,0-5.86-3.15-5.71-5.89,0,0,.62-4.19,4.45-2.09Z" style="fill:#8b8f8c"/><path d="M66.4,140.27s-8.82-6.88-14.27-3.61V161.6l2.55,2.94H64.74Z" style="fill:#934196"/><path d="M75.06,113.73c-4.3-2-9.14-12.74-12-19.89l12-2.13Z" style="fill:#451b46"/><path d="M64.58,73.09l10.48-1.81V91.71l-12,2.13c-1.48-3.74-2.4-6.5-2.4-6.5C63.59,85.24,64.58,73.09,64.58,73.09Z" style="fill:#2c0430"/><path d="M67.43,103.63s-1.21.05-1.31,1.74c0,0,.51,2.15-1.06,2.68l5.46,6.41a3.57,3.57,0,0,0,2.93-1.85S69.8,103.58,67.43,103.63Z" style="fill:#934196"/><rect x="70.49" y="45.56" width="1.97" height="9.96" transform="translate(142.94 101.08) rotate(180)" style="fill:#1e0627"/><rect x="67.74" y="62.52" width="7.33" height="2.7" transform="translate(142.8 127.73) rotate(180)" style="fill:#b44947"/><path d="M61.06,92.86a5,5,0,0,0,2.65-1l-.45-.78.23.39-.23-.39s-1.83,1.38-3.11.6c-.93-.57-1.44-2.22-1.46-4.77h-.81c0,3,.66,4.84,1.89,5.59A2.49,2.49,0,0,0,61.06,92.86Z" style="fill:#2c0430"/><path d="M61.05,96.69a7.14,7.14,0,0,0,1.67-.21,9.13,9.13,0,0,0,2.42-1l-.37-.83s-3.78,2.21-6.28.24a6.18,6.18,0,0,1-1.94-3.52,25.2,25.2,0,0,1-.24-7.89l-.81-.11c-.6,6.35.25,10.49,2.54,12.29A4.72,4.72,0,0,0,61.05,96.69Z" style="fill:#451b46"/><polygon points="64 82.56 71.28 92.39 75.11 91.71 75.11 74.11 63.59 75.94 64 82.56" style="fill:#934196"/><polygon points="86.32 82.56 79.05 92.39 75.21 91.71 75.21 74.11 86.73 75.94 86.32 82.56" style="fill:#74287c"/><polygon points="67.64 90.69 75.06 101.3 75.11 89.39 67.64 90.69" style="fill:#862f8f"/><polygon points="82.68 90.69 75.26 101.3 75.21 89.39 82.68 90.69" style="fill:#61246a"/><polygon points="85.6 38.37 65.14 38.37 62.42 46.95 87.71 46.95 85.6 38.37" style="fill:#c25955"/><polygon points="57.21 89.64 49.44 89.64 49.44 78.23 55.66 73.42 59.17 80.68 57.21 89.64" style="fill:#594588"/><rect x="52.14" y="89.64" width="2.62" height="16.02" style="fill:#422d7d"/><path d="M56.14,99.25l-2.39,2.24c-1.39,1.31-3.48.16-3.48-1.91V93.75h5.87Z" style="fill:#323432"/><rect x="51.69" y="96.76" width="3.03" height="15.98" style="fill:#323432"/><path d="M52.18,103.69l2.53.14a1.13,1.13,0,0,1,1,1.32l-1.39,12.11-2.58-.14-.58-12.2A1.1,1.1,0,0,1,52.18,103.69Z" style="fill:#422d7d"/><polygon points="54.96 122.8 50.41 122.56 50.66 116.38 55.21 116.62 54.96 122.8" style="fill:#5e4899"/><path d="M52.65,122.68a5.6,5.6,0,0,1,0,.84,1.45,1.45,0,0,1-.64,1.17c-.75.48-2,1.94-2.4,6.39a.38.38,0,0,1-.37.37h0a.75.75,0,0,1-.64-.81l.24-6a1.29,1.29,0,0,1,.33-.81l1.24-1.3Z" style="fill:#323432"/><path d="M52.48,122.67a4.2,4.2,0,0,0-.08.83,1.51,1.51,0,0,0,.61,1.25c.8.56,2.11,2.16,2.14,6.62a.41.41,0,0,0,.38.41h0a.73.73,0,0,0,.78-.73l.24-6a1.17,1.17,0,0,0-.29-.84L55,122.8Z" style="fill:#323432"/><path d="M52.75,69.68a5,5,0,0,1-4.26,1.6,6,6,0,0,1-4.15-2.54,2.64,2.64,0,0,0-1.78-1.06,1.76,1.76,0,0,0-2.13,1.37A2.91,2.91,0,0,0,41,71.68l.26.3a14.3,14.3,0,0,0,4.66,3.62c4.69,2.22,11,12.19,11,12.19,3.72,2.42,6.05-1.47,7.41-5.74C62,77.73,55.29,71.82,52.75,69.68Z" style="fill:#251e53"/><path d="M54.86,66.85a10.82,10.82,0,0,1-2.11,2.83c2.54,2.14,9.27,8,11.57,12.37A47.16,47.16,0,0,0,66,74C63.36,61.14,54.86,66.85,54.86,66.85Z" style="fill:#594588"/><path d="M58.52,70.83a1.72,1.72,0,1,0,1.71-2A1.85,1.85,0,0,0,58.52,70.83Z" style="fill:#251e53"/><polygon points="91.29 89.09 99.06 89.09 99.06 77.67 92.84 72.86 89.33 80.12 91.29 89.09" style="fill:#594588"/><rect x="93.74" y="89.09" width="2.62" height="16.02" transform="translate(190.1 194.19) rotate(180)" style="fill:#422d7d"/><path d="M92.36,98.7l2.39,2.23c1.39,1.31,3.48.17,3.48-1.91V93.2H92.36Z" style="fill:#323432"/><rect x="93.78" y="96.21" width="3.03" height="15.98" transform="translate(190.59 208.4) rotate(180)" style="fill:#323432"/><path d="M96.32,103.13l-2.53.14a1.12,1.12,0,0,0-1,1.32l1.38,12.12,2.58-.14.58-12.2A1.11,1.11,0,0,0,96.32,103.13Z" style="fill:#422d7d"/><polygon points="93.54 122.25 98.09 122 97.84 115.82 93.29 116.07 93.54 122.25" style="fill:#5e4899"/><path d="M95.85,122.12a5.6,5.6,0,0,0,0,.84,1.49,1.49,0,0,0,.64,1.18c.75.48,2,1.94,2.4,6.38a.37.37,0,0,0,.37.37h0a.74.74,0,0,0,.64-.81l-.24-6a1.28,1.28,0,0,0-.33-.8L98.09,122Z" style="fill:#323432"/><path d="M96,122.12a4,4,0,0,1,.08.83,1.49,1.49,0,0,1-.61,1.24c-.8.56-2.11,2.16-2.14,6.63a.41.41,0,0,1-.38.41h0a.75.75,0,0,1-.78-.74l-.24-6a1.17,1.17,0,0,1,.29-.84l1.28-1.44Z" style="fill:#323432"/><path d="M95.27,66.85S86.77,61.14,84.1,74a48.57,48.57,0,0,0,1.5,7.43L96.92,69.22A11.21,11.21,0,0,1,95.27,66.85Z" style="fill:#594588"/><path d="M109.69,69.05a1.75,1.75,0,0,0-2.13-1.37,2.66,2.66,0,0,0-1.78,1.06,6,6,0,0,1-4.14,2.54s-2.33.54-4.72-2.06L85.6,81.39c1.34,4.51,3.7,9,7.61,6.4,0,0,6.29-10,11-12.19A14.34,14.34,0,0,0,108.85,72l.26-.3A2.94,2.94,0,0,0,109.69,69.05Z" style="fill:#251e53"/><path d="M91.6,70.83a1.72,1.72,0,1,1-1.7-2A1.84,1.84,0,0,1,91.6,70.83Z" style="fill:#251e53"/><path d="M92.3,37a1.9,1.9,0,1,0-3.79,0,2,2,0,0,0,1.69,2V50.69H87.28v.46h3.35V39A2,2,0,0,0,92.3,37Z" style="fill:#060a0f"/><polygon points="85.14 53.16 87.85 52.23 87.85 49.53 77.82 49.53 77.82 53.16 85.14 53.16" style="fill:#060a0f"/><path d="M57.83,37a1.9,1.9,0,1,1,3.78,0,2,2,0,0,1-1.69,2V50.69h2.93v.46H59.5V39A2,2,0,0,1,57.83,37Z" style="fill:#060a0f"/><polygon points="64.99 53.16 62.28 52.23 62.28 49.53 72.31 49.53 72.31 53.16 64.99 53.16" style="fill:#060a0f"/><polygon points="83.15 167.48 83.15 171.27 91.03 171.27 96.28 172.78 100.83 172.78 100.83 167.48 83.15 167.48" style="fill:#000706"/><path d="M100.83,167.31A5.94,5.94,0,0,0,98,162.18H85.22l-2.07,3.38v1.92h17.68Z" style="fill:#2f322d"/><polygon points="49.3 172.78 53.85 172.78 59.1 171.27 66.98 171.27 66.98 167.48 49.3 167.48 49.3 172.78" style="fill:#000706"/><path d="M64.9,162.18H52.13a5.91,5.91,0,0,0-2.83,5.13v.17H67v-1.92Z" style="fill:#363a36"/></g></g></svg>