<svg xmlns="http://www.w3.org/2000/svg" xmlns:xlink="http://www.w3.org/1999/xlink" viewBox="0 0 148.25 207.55"><defs><linearGradient id="Degradado_sin_nombre_6" x1="-14.83" y1="192.72" x2="163.07" y2="14.83" gradientUnits="userSpaceOnUse"><stop offset="0" stop-color="aqua"/><stop offset="1" stop-color="blue"/></linearGradient></defs><title>Asset 149</title><g id="Layer_2" data-name="Layer 2"><g id="Layer_3" data-name="Layer 3"><rect width="148.25" height="207.55" style="fill:url(#Degradado_sin_nombre_6)"/><g style="opacity:0.45"><path d="M135.67,57.3V51.48h5V57.3Zm5-11.64V39.85h-5v5.81ZM129.86,63.11h5.81V57.3h-5.81ZM27.77,163.74h5.81V158.8H27.77ZM22,153v5.81h5.82V153ZM135.67,63.11v5.82h-5.81V63.11H124v5.82h-5.82V63.11H124V57.3h5.82V51.48h5.81V45.66h-5.81V39.85H124v5.81h-5.82V39.85H124V36.54H13.45v127.2H22V158.8H16.13V153H22v-5.82H16.13v-5.82H22v5.82h5.82V153h5.81v5.81H39.4v4.94h5.82V158.8H51v4.94h89.62V63.11Zm0-26.57h-5.81v3.31h5.81Z" style="fill:#00158e;opacity:0.2"/><rect x="49.85" y="165.43" width="5.82" height="5.82" style="fill:gold"/><rect x="37.43" y="166.76" width="5.82" height="5.82" style="fill:gold"/><rect x="4.7" y="167.38" width="5.82" height="5.82" style="fill:gold"/><rect x="31.33" y="160.4" width="5.82" height="5.82" style="fill:gold"/><rect x="17.71" y="170.03" width="5.82" height="5.82" style="fill:gold"/><rect x="13.51" y="160.86" width="5.82" height="5.82" style="fill:gold"/><rect x="8.32" y="145.11" width="5.82" height="5.82" style="fill:gold"/><rect x="9.87" y="154.38" width="5.82" height="5.82" style="fill:gold"/><polygon points="109.98 40.97 17.69 40.97 17.69 130.94 22.05 126.58 22.05 101.86 28.74 101.86 28.74 66.96 35.53 60.17 35.53 50.28 71.98 50.28 78.09 44.17 109.98 44.17 109.98 40.97" style="fill:#0751cf"/><rect x="139.84" y="82.66" width="1.94" height="29.47" style="fill:none"/><polygon points="59.81 169 144.45 169 144.45 97.45 143.87 97.45 143.87 168.41 59.81 168.41 59.81 169 59.81 169" style="fill:gold"/><rect x="18.46" y="34.87" width="3.39" height="2.71" style="fill:gold"/><rect x="25.83" y="34.87" width="3.39" height="2.71" style="fill:gold"/><rect x="33.2" y="34.87" width="3.39" height="2.71" style="fill:gold"/><rect x="40.57" y="34.87" width="3.39" height="2.71" style="fill:gold"/><rect x="47.94" y="34.87" width="3.39" height="2.71" style="fill:gold"/><rect x="55.3" y="34.87" width="3.39" height="2.71" style="fill:gold"/><rect x="62.67" y="34.87" width="3.39" height="2.71" style="fill:gold"/><rect x="136.6" y="74.03" width="1.45" height="9.31" style="fill:gold"/><rect x="136.6" y="98.32" width="1.45" height="61.37" style="fill:gold"/><polygon points="52.01 51.87 49.93 49.79 52.01 47.7 50.83 46.52 48.75 48.61 46.67 46.52 45.49 47.7 47.57 49.79 45.49 51.87 46.67 53.05 48.75 50.97 50.83 53.05 52.01 51.87" style="fill:gold"/><polygon points="60.74 51.87 58.66 49.79 60.74 47.7 59.56 46.52 57.48 48.61 55.39 46.52 54.21 47.7 56.3 49.79 54.21 51.87 55.39 53.05 57.48 50.97 59.56 53.05 60.74 51.87" style="fill:gold"/><polygon points="69.46 51.87 67.38 49.79 69.46 47.7 68.28 46.52 66.2 48.61 64.12 46.52 62.94 47.7 65.02 49.79 62.94 51.87 64.12 53.05 66.2 50.97 68.28 53.05 69.46 51.87" style="fill:gold"/><polygon points="78.19 51.87 76.11 49.79 78.19 47.7 77.01 46.52 74.93 48.61 72.84 46.52 71.66 47.7 73.75 49.79 71.66 51.87 72.84 53.05 74.93 50.97 77.01 53.05 78.19 51.87" style="fill:gold"/></g><path d="M93.37,43a1.7,1.7,0,1,0-1.88,1.7v9.71H88.85v.38h3V44.66A1.69,1.69,0,0,0,93.37,43Z"/><polygon points="86.93 56.43 89.37 55.66 89.37 53.41 80.34 53.41 80.34 56.43 86.93 56.43"/><path d="M54.86,43a1.71,1.71,0,1,1,1.89,1.7v9.71h2.63v.38h-3V44.66A1.7,1.7,0,0,1,54.86,43Z"/><polygon points="61.31 56.43 58.87 55.66 58.87 53.41 67.89 53.41 67.89 56.43 61.31 56.43"/><polygon points="63.31 112 65.07 117.02 69.03 119.64 69.03 121.47 74.09 121.47 74.09 117.02 63.31 112" style="fill:#4f5451"/><rect x="66.63" y="62.24" width="3.48" height="19.96" style="fill:#373a37"/><rect x="60.7" y="120.41" width="8.48" height="16.9" style="fill:#7b1417"/><polygon points="57.51 82.15 57.51 103.07 74.09 108.16 74.09 82.2 57.51 82.15" style="fill:#991d20"/><polygon points="60.81 104.08 61.68 107.34 74.09 113.56 74.09 108.16 60.81 104.08" style="fill:#8a8f8d"/><polygon points="61.68 107.34 63.31 112 74.09 117.02 74.09 113.56 61.68 107.34" style="fill:#767977"/><polygon points="61.68 131.48 67.29 137.31 70.88 137.31 61.68 127.75 61.68 131.48" style="fill:#151919"/><polygon points="61.68 127.75 70.88 137.31 71.37 137.31 71.37 134.79 61.68 124.71 61.68 127.75" style="fill:#991d20"/><polygon points="61.68 135.18 63.73 137.31 67.29 137.31 61.68 131.48 61.68 135.18" style="fill:#991d20"/><polygon points="61.68 137.31 63.73 137.31 61.68 135.18 61.68 137.31" style="fill:#151919"/><polygon points="74.09 121.47 70.71 121.47 74.09 125.07 74.09 121.47" style="fill:#4f5451"/><polygon points="66.3 121.47 62.48 121.47 71.73 131.09 72.96 128.55 66.3 121.47" style="fill:#991d20"/><polygon points="61.68 121.47 61.68 124.71 71.37 134.79 71.37 131.85 71.73 131.09 62.48 121.47 61.68 121.47" style="fill:#151919"/><polygon points="74.09 126.19 74.09 125.07 70.71 121.47 66.3 121.47 72.96 128.55 74.09 126.19" style="fill:#151919"/><polygon points="61.68 139.07 64.86 157.64 68.2 157.64 65.42 139.07 61.68 139.07" style="fill:#2c2e2d"/><polygon points="68.2 158.25 68.2 158.74 72.4 158.74 72.4 137.31 71.37 137.31 64.25 137.31 68.2 158.25" style="fill:#151919"/><rect x="60.7" y="137.31" width="11.7" height="0.88" style="fill:#7b1417"/><path d="M70.44,82.15s3.7-10.65-3-14.39v-.57h6.64v15Z" style="fill:#8a8f8d"/><rect x="67.45" y="63.89" width="1.33" height="3.3" style="fill:#677268"/><rect x="68.78" y="63.89" width="1.33" height="3.3" style="fill:#c1c2c1"/><rect x="70.11" y="63.89" width="1.33" height="3.3" style="fill:#677268"/><rect x="71.44" y="63.89" width="1.33" height="3.3" style="fill:#c1c2c1"/><rect x="72.77" y="63.89" width="1.33" height="3.3" style="fill:#677268"/><polygon points="74.09 63.89 67.45 63.89 64.39 59.48 64.39 51.47 74.09 51.47 74.09 63.89" style="fill:#7e8380"/><rect x="55.43" y="82.15" width="2.07" height="20.31" style="fill:#4f5451"/><polygon points="55.43 93.83 46.86 93.83 39.5 89.78 39.5 77.72 39.5 73.76 41.01 72.25 44.31 72.25 47.47 75.4 55.43 75.4 55.43 93.83" style="fill:#c8a42b"/><rect x="41.01" y="69.42" width="15.46" height="2.83" style="fill:#8a8f8d"/><polygon points="44.31 72.25 47.47 75.4 55.43 75.4 55.43 82.15 58.73 82.15 58.73 72.25 56.47 69.42 56.47 72.25 44.31 72.25" style="fill:#252827"/><polygon points="60.7 120.41 65.07 117.02 69.18 119.56 69.18 120.41 60.7 120.41" style="fill:#2b302f"/><polygon points="64.86 157.64 72.4 164.3 72.4 158.74 68.5 158.74 68.2 157.64 64.86 157.64" style="fill:#151919"/><path d="M41,90.61c-.07,0,2.63,9.43,2.63,9.43l2.69,2.7v7.48h9.1V93.83H46.86Z" style="fill:#252827"/><rect x="58.73" y="72.25" width="2.08" height="2.44" style="fill:#373a37"/><rect x="58.73" y="77.9" width="2.08" height="2.44" style="fill:#373a37"/><rect x="60.81" y="51.47" width="3.57" height="30.73" style="fill:#373a37"/><rect x="46.7" y="60.25" width="4.17" height="6.94" style="fill:#252827"/><polygon points="43.52 69.42 44.79 65.54 50.87 65.54 51.49 66.16 55.74 66.16 55.74 69.42 43.52 69.42" style="fill:#373a37"/><rect x="51.46" y="60.25" width="4.28" height="8.56" style="fill:#252827"/><path d="M50.87,60.46a2.09,2.09,0,1,1-2.09-2.09A2.09,2.09,0,0,1,50.87,60.46Z" style="fill:#0f1415"/><path d="M55.74,60.25a2.14,2.14,0,1,1-2.14-2.08A2.12,2.12,0,0,1,55.74,60.25Z" style="fill:#0f1415"/><polygon points="64.16 49.66 62.1 49.66 62.1 51.47 65.77 51.47 64.16 49.66" style="fill:#252827"/><circle cx="65.95" cy="93.83" r="6.82" transform="translate(-46.31 70.35) rotate(-43.08)" style="fill:#771315"/><path d="M47.81,82l-1.43,1.44L44.94,82a.25.25,0,0,0-.36,0l-.74.74a.25.25,0,0,0,0,.36l1.44,1.44L43.84,86a.25.25,0,0,0,0,.36l.74.74a.25.25,0,0,0,.36,0l1.44-1.44,1.43,1.44a.27.27,0,0,0,.37,0l.73-.74a.25.25,0,0,0,0-.36l-1.43-1.44,1.43-1.44a.25.25,0,0,0,0-.36L48.18,82A.27.27,0,0,0,47.81,82Z" style="fill:#252827"/><polygon points="69.03 121.47 69.18 119.56 72.45 116.29 74.09 117.02 74.09 125.07 69.03 121.47" style="fill:#151919"/><polygon points="43.64 100.05 38.14 97.3 38.14 89.45 39.5 89.45 41.01 90.61 43.64 100.05" style="fill:#373a37"/><path d="M46.33,106.24H44.55a4,4,0,0,1-4-4V98.3h.94v3.93a3.08,3.08,0,0,0,3.07,3.07h1.78Z"/><rect x="49.07" y="110.16" width="3.79" height="10.13"/><polygon points="52.86 120.29 54.16 118.33 55.43 110.16 52.86 110.16 52.86 120.29" style="fill:#4f5451"/><rect x="48.33" y="110.16" width="0.73" height="10.13" style="fill:#4f5451"/><polygon points="48.33 120.29 46.38 117.28 46.38 110.16 48.33 110.16 48.33 118.56 48.33 120.29" style="fill:#252827"/><rect x="46.38" y="109.18" width="2.69" height="0.98" style="fill:#991d20"/><rect x="48.33" y="120.29" width="4.52" height="3.87" style="fill:#991d20"/><rect x="48.93" y="123.35" width="3.29" height="1.23" style="fill:#771315"/><polyline points="48.33 122.74 46.83 122.74 46.83 128.95 45.45 128.95 45.45 121.61 48.33 121.61 48.33 122.74" style="fill:#771315"/><rect x="44.99" y="128.48" width="2.22" height="2.97" style="fill:#58030d"/><polyline points="52.86 122.74 54.36 122.74 54.36 128.95 55.75 128.95 55.75 121.61 52.86 121.61 52.86 122.74" style="fill:#771315"/><rect x="53.98" y="128.48" width="2.22" height="2.97" transform="translate(110.18 259.94) rotate(180)" style="fill:#58030d"/><rect x="49.93" y="124.58" width="1.45" height="6.28" style="fill:#58030d"/><polygon points="64.86 157.64 62.7 157.64 62.7 160.21 64.94 160.21 72.4 166.43 72.4 164.3 64.86 157.64" style="fill:#58030d"/><polygon points="64.94 160.21 64.94 163.55 66.97 165.59 69.59 165.59 72.4 166.43 64.94 160.21" style="fill:#151919"/><polygon points="62.7 160.21 64.95 162.46 64.95 160.21 62.7 160.21" style="fill:#2c2e2d"/><polygon points="72.4 166.43 72.4 173.66 60.59 173.66 60.59 165.78 66.97 165.59 69.59 165.59 72.4 166.43" style="fill:#2c2e2d"/><polygon points="60.87 166.66 58.42 167.94 58.42 174.79 61.87 174.79 61.87 169.26 60.87 166.66" style="fill:#151919"/><polygon points="70.61 166.66 73.06 167.94 73.06 174.79 69.6 174.79 69.6 169.26 70.61 166.66" style="fill:#151919"/><polygon points="67.55 174.79 63.83 174.79 63.83 168.85 65.69 166.53 67.55 168.85 67.55 174.79" style="fill:#151919"/><path d="M60.58,165.78c.16,0,4.36-2.23,4.36-2.23l2,2Z" style="fill:#58030d"/><polygon points="84.82 112 83.06 117.02 79.1 119.64 79.1 121.47 74.03 121.47 74.03 117.02 84.82 112" style="fill:#3e423e"/><rect x="78.02" y="62.24" width="3.48" height="19.96" transform="translate(159.52 144.44) rotate(180)" style="fill:#1f2321"/><rect x="78.95" y="120.41" width="8.48" height="16.9" transform="translate(166.37 257.72) rotate(180)" style="fill:#54050e"/><polygon points="90.62 82.15 90.62 103.07 74.03 108.16 74.03 82.2 90.62 82.15" style="fill:#7e1517"/><polygon points="87.32 104.08 86.45 107.34 74.03 113.56 74.03 108.16 87.32 104.08" style="fill:#717574"/><polygon points="86.45 107.34 84.82 112 74.03 117.02 74.03 113.56 86.45 107.34" style="fill:#5f6461"/><polygon points="86.45 131.48 80.84 137.31 77.25 137.31 86.45 127.75 86.45 131.48" style="fill:#000106"/><polygon points="86.45 127.75 77.25 137.31 76.76 137.31 76.76 134.79 86.45 124.71 86.45 127.75" style="fill:#991d20"/><polygon points="86.45 135.18 84.4 137.31 80.84 137.31 86.45 131.48 86.45 135.18" style="fill:#991d20"/><polygon points="86.45 137.31 84.4 137.31 86.45 135.18 86.45 137.31" style="fill:#000106"/><polygon points="74.03 121.47 77.42 121.47 74.03 125.07 74.03 121.47" style="fill:#4f5451"/><polygon points="81.83 121.47 85.64 121.47 76.4 131.09 75.17 128.55 81.83 121.47" style="fill:#991d20"/><polygon points="86.45 121.47 86.45 124.71 76.76 134.79 76.76 131.85 76.4 131.09 85.64 121.47 86.45 121.47"/><polygon points="74.03 126.19 74.03 125.07 77.42 121.47 81.83 121.47 75.17 128.55 74.03 126.19"/><polygon points="86.45 139.07 83.27 157.64 79.93 157.64 82.71 139.07 86.45 139.07" style="fill:#1d2122"/><polygon points="79.93 158.25 79.93 158.74 75.73 158.74 75.73 137.31 76.76 137.31 83.88 137.31 79.93 158.25" style="fill:#000106"/><rect x="75.73" y="137.31" width="11.7" height="0.88" transform="translate(163.15 275.51) rotate(180)" style="fill:#54050e"/><path d="M77.68,82.15S74,71.5,80.68,67.76v-.57H74v15Z" style="fill:#747c76"/><rect x="79.35" y="63.89" width="1.33" height="3.3" transform="translate(160.02 131.09) rotate(180)" style="fill:#3c423e"/><rect x="78.02" y="63.89" width="1.33" height="3.3" transform="translate(157.37 131.09) rotate(180)" style="fill:#c1c2c1"/><rect x="76.69" y="63.89" width="1.33" height="3.3" transform="translate(154.71 131.09) rotate(180)" style="fill:#3c423e"/><rect x="75.36" y="63.89" width="1.33" height="3.3" transform="translate(152.06 131.09) rotate(180)" style="fill:#c1c2c1"/><rect x="74.04" y="63.89" width="1.33" height="3.3" transform="translate(149.4 131.09) rotate(180)" style="fill:#3c423e"/><polygon points="74.03 63.89 80.68 63.89 83.74 59.48 83.74 51.47 74.03 51.47 74.03 63.89" style="fill:#676c69"/><rect x="90.62" y="82.15" width="2.07" height="20.31" transform="translate(183.32 184.61) rotate(180)" style="fill:#4f5451"/><polygon points="92.7 93.83 101.27 93.83 108.63 89.78 108.63 77.72 108.63 73.76 107.12 72.25 103.82 72.25 100.66 75.4 92.7 75.4 92.7 93.83" style="fill:#c8a42b"/><rect x="91.66" y="69.42" width="15.46" height="2.83" style="fill:#787f79"/><polygon points="103.82 72.25 100.66 75.4 92.7 75.4 92.7 82.15 89.4 82.15 89.4 72.25 91.66 69.42 91.66 72.25 103.82 72.25" style="fill:#252827"/><polygon points="87.42 120.41 83.06 117.02 78.95 119.56 78.95 120.41 87.42 120.41" style="fill:#181d1c"/><polygon points="83.27 157.64 75.73 164.3 75.73 158.74 79.63 158.74 79.93 157.64 83.27 157.64" style="fill:#02060b"/><path d="M107.12,90.61c.07,0-2.63,9.43-2.63,9.43l-2.69,2.7v7.48H92.7V93.83h8.57Z" style="fill:#151a1b"/><rect x="87.32" y="72.25" width="2.08" height="2.44" style="fill:#1e2323"/><rect x="87.32" y="77.9" width="2.08" height="2.44" style="fill:#1e2323"/><rect x="83.74" y="51.47" width="3.57" height="30.73" transform="translate(171.06 133.67) rotate(180)" style="fill:#252827"/><rect x="97.26" y="60.25" width="4.17" height="6.94" transform="translate(198.7 127.44) rotate(180)" style="fill:#252827"/><polygon points="104.61 69.42 103.34 65.54 97.26 65.54 96.64 66.16 92.39 66.16 92.39 69.42 104.61 69.42" style="fill:#373a37"/><rect x="92.39" y="60.25" width="4.28" height="8.56" transform="translate(189.06 129.06) rotate(180)" style="fill:#252827"/><path d="M97.26,60.46a2.09,2.09,0,1,0,2.09-2.09A2.09,2.09,0,0,0,97.26,60.46Z" style="fill:#0f1415"/><path d="M92.39,60.25a2.14,2.14,0,1,0,2.14-2.08A2.12,2.12,0,0,0,92.39,60.25Z" style="fill:#0f1415"/><polygon points="83.97 49.66 86.03 49.66 86.03 51.47 82.36 51.47 83.97 49.66" style="fill:#252827"/><circle cx="82.18" cy="93.83" r="6.82" transform="translate(-19.86 22.09) rotate(-13.68)" style="fill:#5b070e"/><path d="M98.48,82l1.44,1.44L101.36,82a.25.25,0,0,1,.36,0l.74.74a.25.25,0,0,1,0,.36L101,84.56,102.46,86a.25.25,0,0,1,0,.36l-.74.74a.25.25,0,0,1-.36,0l-1.44-1.44L98.48,87.1a.25.25,0,0,1-.36,0l-.74-.74a.25.25,0,0,1,0-.36l1.44-1.44-1.44-1.44a.25.25,0,0,1,0-.36l.74-.74A.25.25,0,0,1,98.48,82Z" style="fill:#0f1415"/><polygon points="79.1 121.47 78.95 119.56 75.67 116.29 74.03 117.02 74.03 125.07 79.1 121.47"/><polygon points="104.49 100.05 109.99 97.3 109.99 89.45 108.63 89.45 107.12 90.61 104.49 100.05" style="fill:#2c2f2d"/><path d="M101.8,106.24h1.78a4,4,0,0,0,4-4V98.3h-.94v3.93a3.08,3.08,0,0,1-3.07,3.07H101.8Z"/><polygon points="83.27 157.64 85.42 157.64 85.42 160.21 83.19 160.21 75.73 166.43 75.73 164.3 83.27 157.64" style="fill:#58030d"/><polygon points="83.19 160.21 83.19 163.55 81.16 165.59 78.54 165.59 75.73 166.43 83.19 160.21" style="fill:#02060b"/><polygon points="85.42 160.21 83.18 162.46 83.18 160.21 85.42 160.21" style="fill:#2c2e2d"/><polygon points="75.73 166.43 75.73 173.66 87.54 173.66 87.54 165.78 81.16 165.59 78.54 165.59 75.73 166.43" style="fill:#2c2e2d"/><polygon points="87.26 166.66 89.71 167.94 89.71 174.79 86.26 174.79 86.26 169.26 87.26 166.66" style="fill:#151919"/><polygon points="77.52 166.66 75.07 167.94 75.07 174.79 78.53 174.79 78.53 169.26 77.52 166.66" style="fill:#151919"/><polygon points="80.58 174.79 84.3 174.79 84.3 168.85 82.44 166.53 80.58 168.85 80.58 174.79" style="fill:#151919"/><path d="M87.54,165.78c-.16,0-4.35-2.23-4.35-2.23l-2,2Z" style="fill:#58030d"/><polygon points="64.39 51.47 67.45 46.24 74.03 46.24 74.03 51.47 64.39 51.47" style="fill:#979898"/><polygon points="83.68 51.47 80.62 46.24 74.03 46.24 74.03 51.47 83.68 51.47" style="fill:#515753"/><polygon points="74.03 82.2 74.03 76.14 66.63 76.14 58.73 82.15 74.03 82.2" style="fill:#771315"/><polygon points="74.03 82.2 74.03 76.14 81.44 76.14 89.34 82.15 74.03 82.2" style="fill:#530312"/><rect x="95.39" y="110.21" width="3.79" height="10.13" transform="translate(194.58 230.55) rotate(180)"/><polygon points="95.39 120.34 94.09 118.37 92.82 110.21 95.39 110.21 95.39 120.34" style="fill:#4f5451"/><rect x="99.18" y="110.21" width="0.73" height="10.13" transform="translate(199.1 230.55) rotate(180)" style="fill:#4f5451"/><polygon points="99.92 120.34 101.88 117.33 101.88 110.21 99.92 110.21 99.92 118.61 99.92 120.34" style="fill:#252827"/><rect x="99.18" y="109.23" width="2.69" height="0.98" transform="translate(201.06 219.44) rotate(180)" style="fill:#991d20"/><rect x="95.4" y="120.34" width="4.52" height="3.87" transform="translate(195.32 244.55) rotate(180)" style="fill:#991d20"/><rect x="96.03" y="123.39" width="3.29" height="1.23" transform="translate(195.35 248.02) rotate(180)" style="fill:#771315"/><polyline points="99.92 122.79 101.42 122.79 101.42 129 102.81 129 102.81 121.66 99.92 121.66 99.92 122.79" style="fill:#771315"/><rect x="101.04" y="128.53" width="2.22" height="2.97" transform="translate(204.3 260.03) rotate(180)" style="fill:#58030d"/><polyline points="95.39 122.79 93.89 122.79 93.89 129 92.5 129 92.5 121.66 95.39 121.66 95.39 122.79" style="fill:#771315"/><rect x="92.05" y="128.53" width="2.22" height="2.97" style="fill:#58030d"/><rect x="96.87" y="124.62" width="1.45" height="6.28" transform="translate(195.2 255.53) rotate(180)" style="fill:#58030d"/><rect x="71.31" y="53.28" width="1.31" height="6.31"/><rect x="76.03" y="53.28" width="1.31" height="6.31"/><path d="M67.28,93.93c.86,0,1.65,0,2.52-.05a3.56,3.56,0,0,0-1.89-3.06,14.56,14.56,0,0,0-1.23,2.06A1.27,1.27,0,0,1,67.28,93.93Z" style="fill:#c8a42b"/><path d="M65.29,92.88a12.38,12.38,0,0,0-1.18-2,3.7,3.7,0,0,0-1.89,3.05c.75.06,1.61,0,2.42,0A1.26,1.26,0,0,1,65.29,92.88Z" style="fill:#c8a42b"/><path d="M65.34,95.06c-.35.65-.72,1.29-1.06,2a3.77,3.77,0,0,0,3.43,0c-.33-.7-.73-1.32-1.07-2A1.52,1.52,0,0,1,65.34,95.06Z" style="fill:#c8a42b"/><path d="M82.18,93.21c-.17.3-.32.62-.51.9a3.13,3.13,0,0,0-1.42-.77,2,2,0,0,0-2.2,2,2.46,2.46,0,0,1,1.72-2.83,2.67,2.67,0,0,1,1.47-3c0,.13-.25.24-.35.34a2.14,2.14,0,0,0-.51,1.46C80.43,92.43,81.26,92.93,82.18,93.21Z" style="fill:#c8a42b;fill-rule:evenodd"/><path d="M83.77,91.7a2.39,2.39,0,0,1-.34.56,2.07,2.07,0,0,0-2.11,0c-.24-.06-.28-.32-.43-.47A2.54,2.54,0,0,1,83.77,91.7Z" style="fill:#c8a42b;fill-rule:evenodd"/><path d="M84.93,93.72a2.38,2.38,0,0,1-1.42,2.45,4.9,4.9,0,0,1-.3-.51,2,2,0,0,0,1.08-1.89A2.56,2.56,0,0,1,84.93,93.72Z" style="fill:#c8a42b;fill-rule:evenodd"/><path d="M79.73,93.77a2.16,2.16,0,0,1,.69,0,2,2,0,0,0,1.07,1.85,5.62,5.62,0,0,1-.25.56A2.51,2.51,0,0,1,79.73,93.77Z" style="fill:#c8a42b;fill-rule:evenodd"/><path d="M83.34,89.55a2.43,2.43,0,0,1,1.55,2.8,2.75,2.75,0,0,1,1.81,2.88A2,2,0,0,0,85,93.29a2.4,2.4,0,0,0-2,.82,5.65,5.65,0,0,1-.51-.9c.32-.23.75-.25,1.07-.52C84.44,92,84.49,90,83.34,89.55Z" style="fill:#c8a42b;fill-rule:evenodd"/><path d="M79,97a2,2,0,0,0,2.75-2.58,3.28,3.28,0,0,1,1.17,0A1.94,1.94,0,0,0,85.62,97a2.57,2.57,0,0,1-3.22-.13A2.76,2.76,0,0,1,79,97Z" style="fill:#c8a42b;fill-rule:evenodd"/><path d="M66.91,94a.92.92,0,1,1-.91-.92A.92.92,0,0,1,66.91,94Z" style="fill:#c8a42b"/></g></g></svg>