<svg xmlns="http://www.w3.org/2000/svg" xmlns:xlink="http://www.w3.org/1999/xlink" viewBox="0 0 148.25 207.55"><defs><clipPath id="clip-path"><rect width="148.25" height="207.55" style="fill:none"/></clipPath><linearGradient id="Degradado_sin_nombre_5" x1="-14.83" y1="14.83" x2="163.07" y2="192.72" gradientUnits="userSpaceOnUse"><stop offset="0" stop-color="#fef201"/><stop offset="1" stop-color="#ff1443"/></linearGradient></defs><title>Asset 124</title><g style="isolation:isolate"><g id="Layer_2" data-name="Layer 2"><g id="Layer_3" data-name="Layer 3"><g style="clip-path:url(#clip-path)"><rect width="148.25" height="207.55" style="fill:url(#Degradado_sin_nombre_5)"/><g style="opacity:0.46;mix-blend-mode:soft-light"><circle cx="4.8" cy="8.78" r="1" style="fill:#fef201"/><circle cx="4.8" cy="21.82" r="1" style="fill:#fef201"/><circle cx="4.8" cy="34.87" r="1" style="fill:#fef201"/><circle cx="4.8" cy="47.91" r="1" style="fill:#fef201"/><circle cx="4.8" cy="60.95" r="1" style="fill:#fef201"/><circle cx="4.8" cy="74" r="1" style="fill:#fef201"/><circle cx="4.8" cy="87.04" r="1" style="fill:#fef201"/><circle cx="4.8" cy="100.09" r="1" style="fill:#fef201"/><circle cx="4.8" cy="113.13" r="1" style="fill:#fef201"/><circle cx="4.8" cy="126.18" r="1" style="fill:#fef201"/><circle cx="4.8" cy="139.22" r="1" style="fill:#fef201"/><circle cx="4.8" cy="152.26" r="1" style="fill:#fef201"/><circle cx="4.8" cy="165.31" r="1" style="fill:#fef201"/><circle cx="4.8" cy="178.35" r="1" style="fill:#fef201"/><circle cx="4.8" cy="191.4" r="1" style="fill:#fef201"/><circle cx="4.8" cy="204.44" r="1" style="fill:#fef201"/><path d="M12.15,4.11a1,1,0,1,0,0-2,1,1,0,0,0-1,1A1,1,0,0,0,12.15,4.11Z" style="fill:#fef201"/><path d="M12.18,15.15a1,1,0,1,0,1,1A1,1,0,0,0,12.18,15.15Z" style="fill:#fef201"/><path d="M12.23,28.2a1,1,0,1,0,1,1A1,1,0,0,0,12.23,28.2Z" style="fill:#fef201"/><path d="M12.27,41.24a1,1,0,1,0,0,2,1,1,0,0,0,0-2Z" style="fill:#fef201"/><path d="M12.31,54.28a1,1,0,0,0-1,1,1,1,0,0,0,1,1,1,1,0,1,0,0-2Z" style="fill:#fef201"/><path d="M12.36,67.33a1,1,0,1,0,1,1A1,1,0,0,0,12.36,67.33Z" style="fill:#fef201"/><path d="M12.4,80.37a1,1,0,0,0-1,1,1,1,0,0,0,2,0A1,1,0,0,0,12.4,80.37Z" style="fill:#fef201"/><path d="M12.44,93.42a1,1,0,1,0,0,2,1,1,0,0,0,0-2Z" style="fill:#fef201"/><path d="M12.48,106.46a1,1,0,0,0,0,2,1,1,0,1,0,0-2Z" style="fill:#fef201"/><path d="M12.53,119.51a1,1,0,1,0,0,2,1,1,0,0,0,1-1A1,1,0,0,0,12.53,119.51Z" style="fill:#fef201"/><path d="M12.57,132.55a1,1,0,1,0,1,1A1,1,0,0,0,12.57,132.55Z" style="fill:#fef201"/><path d="M12.61,145.6a1,1,0,0,0-1,1,1,1,0,0,0,1,1,1,1,0,0,0,1-1A1,1,0,0,0,12.61,145.6Z" style="fill:#fef201"/><path d="M12.65,158.64a1,1,0,1,0,1,1A1,1,0,0,0,12.65,158.64Z" style="fill:#fef201"/><path d="M12.7,171.68a1,1,0,0,0-1,1,1,1,0,0,0,2,0A1,1,0,0,0,12.7,171.68Z" style="fill:#fef201"/><path d="M12.74,184.73a1,1,0,1,0,1,1A1,1,0,0,0,12.74,184.73Z" style="fill:#fef201"/><path d="M12.78,197.77a1,1,0,1,0,0,2,1,1,0,0,0,1-1A1,1,0,0,0,12.78,197.77Z" style="fill:#fef201"/><circle cx="21.13" cy="8.78" r="1" style="fill:#fef201"/><circle cx="21.13" cy="21.82" r="1" style="fill:#fef201"/><circle cx="21.13" cy="34.87" r="1" style="fill:#fef201"/><circle cx="21.13" cy="47.91" r="1" style="fill:#fef201"/><circle cx="21.13" cy="60.95" r="1" style="fill:#fef201"/><circle cx="21.13" cy="74" r="1" style="fill:#fef201"/><circle cx="21.13" cy="87.04" r="1" style="fill:#fef201"/><circle cx="21.13" cy="100.09" r="1" style="fill:#fef201"/><circle cx="21.13" cy="113.13" r="1" style="fill:#fef201"/><circle cx="21.13" cy="126.18" r="1" style="fill:#fef201"/><circle cx="21.13" cy="139.22" r="1" style="fill:#fef201"/><circle cx="21.13" cy="152.26" r="1" style="fill:#fef201"/><circle cx="21.13" cy="165.31" r="1" style="fill:#fef201"/><circle cx="21.13" cy="178.35" r="1" style="fill:#fef201"/><circle cx="21.13" cy="191.4" r="1" style="fill:#fef201"/><circle cx="21.13" cy="204.44" r="1" style="fill:#fef201"/><path d="M28.48,4.11a1,1,0,0,0,1-1,1,1,0,1,0-1,1Z" style="fill:#fef201"/><path d="M28.52,15.15a1,1,0,0,0-1,1,1,1,0,1,0,1-1Z" style="fill:#fef201"/><path d="M28.56,28.2a1,1,0,0,0-1,1,1,1,0,0,0,1,1,1,1,0,0,0,0-2Z" style="fill:#fef201"/><path d="M28.6,41.24a1,1,0,0,0,0,2,1,1,0,1,0,0-2Z" style="fill:#fef201"/><path d="M28.65,54.28a1,1,0,0,0-1,1,1,1,0,0,0,1,1,1,1,0,1,0,0-2Z" style="fill:#fef201"/><path d="M28.69,67.33a1,1,0,1,0,1,1A1,1,0,0,0,28.69,67.33Z" style="fill:#fef201"/><path d="M28.73,80.37a1,1,0,1,0,0,2,1,1,0,0,0,1-1A1,1,0,0,0,28.73,80.37Z" style="fill:#fef201"/><path d="M28.77,93.42a1,1,0,0,0,0,2,1,1,0,1,0,0-2Z" style="fill:#fef201"/><path d="M28.82,106.46a1,1,0,1,0,1,1A1,1,0,0,0,28.82,106.46Z" style="fill:#fef201"/><path d="M28.86,119.51a1,1,0,1,0,1,1A1,1,0,0,0,28.86,119.51Z" style="fill:#fef201"/><path d="M28.9,132.55a1,1,0,1,0,1,1A1,1,0,0,0,28.9,132.55Z" style="fill:#fef201"/><path d="M28.94,145.6a1,1,0,0,0,0,2,1,1,0,0,0,1-1A1,1,0,0,0,28.94,145.6Z" style="fill:#fef201"/><path d="M29,158.64a1,1,0,1,0,1,1A1,1,0,0,0,29,158.64Z" style="fill:#fef201"/><path d="M29,171.68a1,1,0,0,0-1,1,1,1,0,0,0,2,0A1,1,0,0,0,29,171.68Z" style="fill:#fef201"/><path d="M29.07,184.73a1,1,0,0,0-1,1,1,1,0,1,0,1-1Z" style="fill:#fef201"/><path d="M29.11,197.77a1,1,0,1,0,1,1A1,1,0,0,0,29.11,197.77Z" style="fill:#fef201"/><circle cx="37.47" cy="8.78" r="1" style="fill:#fef201"/><circle cx="37.47" cy="21.82" r="1" style="fill:#fef201"/><circle cx="37.47" cy="34.87" r="1" style="fill:#fef201"/><circle cx="37.47" cy="47.91" r="1" style="fill:#fef201"/><circle cx="37.47" cy="60.95" r="1" style="fill:#fef201"/><circle cx="37.47" cy="74" r="1" style="fill:#fef201"/><circle cx="37.47" cy="87.04" r="1" style="fill:#fef201"/><circle cx="37.47" cy="100.09" r="1" style="fill:#fef201"/><circle cx="37.47" cy="113.13" r="1" style="fill:#fef201"/><circle cx="37.47" cy="126.18" r="1" style="fill:#fef201"/><circle cx="37.47" cy="139.22" r="1" style="fill:#fef201"/><circle cx="37.47" cy="152.26" r="1" style="fill:#fef201"/><circle cx="37.47" cy="165.31" r="1" style="fill:#fef201"/><circle cx="37.47" cy="178.35" r="1" style="fill:#fef201"/><circle cx="37.47" cy="191.4" r="1" style="fill:#fef201"/><circle cx="37.47" cy="204.44" r="1" style="fill:#fef201"/><path d="M44.82,4.11a1,1,0,1,0-1-1A1,1,0,0,0,44.82,4.11Z" style="fill:#fef201"/><path d="M44.85,15.15a1,1,0,1,0,0,2,1,1,0,0,0,1-1A1,1,0,0,0,44.85,15.15Z" style="fill:#fef201"/><path d="M44.89,28.2a1,1,0,0,0,0,2,1,1,0,0,0,1-1A1,1,0,0,0,44.89,28.2Z" style="fill:#fef201"/><path d="M44.94,41.24a1,1,0,1,0,1,1A1,1,0,0,0,44.94,41.24Z" style="fill:#fef201"/><path d="M45,54.28a1,1,0,0,0-1,1,1,1,0,0,0,2,0A1,1,0,0,0,45,54.28Z" style="fill:#fef201"/><path d="M45,67.33a1,1,0,0,0-1,1,1,1,0,1,0,1-1Z" style="fill:#fef201"/><path d="M45.06,80.37a1,1,0,0,0-1,1,1,1,0,0,0,1,1,1,1,0,1,0,0-2Z" style="fill:#fef201"/><path d="M45.11,93.42a1,1,0,1,0,1,1A1,1,0,0,0,45.11,93.42Z" style="fill:#fef201"/><path d="M45.15,106.46a1,1,0,1,0,0,2,1,1,0,0,0,0-2Z" style="fill:#fef201"/><path d="M45.19,119.51a1,1,0,0,0-1,1,1,1,0,1,0,1-1Z" style="fill:#fef201"/><path d="M45.24,132.55a1,1,0,1,0,1,1A1,1,0,0,0,45.24,132.55Z" style="fill:#fef201"/><path d="M45.28,145.6a1,1,0,1,0,1,1A1,1,0,0,0,45.28,145.6Z" style="fill:#fef201"/><path d="M45.32,158.64a1,1,0,1,0,0,2,1,1,0,0,0,0-2Z" style="fill:#fef201"/><path d="M45.36,171.68a1,1,0,0,0-1,1,1,1,0,0,0,1,1,1,1,0,1,0,0-2Z" style="fill:#fef201"/><path d="M45.41,184.73a1,1,0,1,0,1,1A1,1,0,0,0,45.41,184.73Z" style="fill:#fef201"/><path d="M45.45,197.77a1,1,0,0,0-1,1,1,1,0,1,0,1-1Z" style="fill:#fef201"/><circle cx="53.8" cy="8.78" r="1" style="fill:#fef201"/><circle cx="53.8" cy="21.82" r="1" style="fill:#fef201"/><circle cx="53.8" cy="34.87" r="1" style="fill:#fef201"/><circle cx="53.8" cy="47.91" r="1" style="fill:#fef201"/><circle cx="53.8" cy="60.95" r="1" style="fill:#fef201"/><circle cx="53.8" cy="74" r="1" style="fill:#fef201"/><circle cx="53.8" cy="87.04" r="1" style="fill:#fef201"/><circle cx="53.8" cy="100.09" r="1" style="fill:#fef201"/><circle cx="53.8" cy="113.13" r="1" style="fill:#fef201"/><circle cx="53.8" cy="126.18" r="1" style="fill:#fef201"/><circle cx="53.8" cy="139.22" r="1" style="fill:#fef201"/><circle cx="53.8" cy="152.26" r="1" style="fill:#fef201"/><circle cx="53.8" cy="165.31" r="1" style="fill:#fef201"/><circle cx="53.8" cy="178.35" r="1" style="fill:#fef201"/><circle cx="53.8" cy="191.4" r="1" style="fill:#fef201"/><circle cx="53.8" cy="204.44" r="1" style="fill:#fef201"/><path d="M61.15,4.11a1,1,0,1,0,0-2,1,1,0,0,0-1,1A1,1,0,0,0,61.15,4.11Z" style="fill:#fef201"/><path d="M61.18,15.15a1,1,0,1,0,1,1A1,1,0,0,0,61.18,15.15Z" style="fill:#fef201"/><path d="M61.23,28.2a1,1,0,1,0,1,1A1,1,0,0,0,61.23,28.2Z" style="fill:#fef201"/><path d="M61.27,41.24a1,1,0,1,0,0,2,1,1,0,0,0,0-2Z" style="fill:#fef201"/><path d="M61.31,54.28a1,1,0,0,0-1,1,1,1,0,0,0,1,1,1,1,0,1,0,0-2Z" style="fill:#fef201"/><path d="M61.36,67.33a1,1,0,1,0,1,1A1,1,0,0,0,61.36,67.33Z" style="fill:#fef201"/><path d="M61.4,80.37a1,1,0,0,0-1,1,1,1,0,0,0,2,0A1,1,0,0,0,61.4,80.37Z" style="fill:#fef201"/><path d="M61.44,93.42a1,1,0,1,0,0,2,1,1,0,0,0,0-2Z" style="fill:#fef201"/><path d="M61.48,106.46a1,1,0,0,0,0,2,1,1,0,1,0,0-2Z" style="fill:#fef201"/><path d="M61.53,119.51a1,1,0,0,0,0,2,1,1,0,0,0,1-1A1,1,0,0,0,61.53,119.51Z" style="fill:#fef201"/><path d="M61.57,132.55a1,1,0,1,0,1,1A1,1,0,0,0,61.57,132.55Z" style="fill:#fef201"/><path d="M61.61,145.6a1,1,0,0,0-1,1,1,1,0,0,0,1,1,1,1,0,0,0,1-1A1,1,0,0,0,61.61,145.6Z" style="fill:#fef201"/><path d="M61.65,158.64a1,1,0,1,0,1,1A1,1,0,0,0,61.65,158.64Z" style="fill:#fef201"/><path d="M61.7,171.68a1,1,0,0,0-1,1,1,1,0,0,0,2,0A1,1,0,0,0,61.7,171.68Z" style="fill:#fef201"/><path d="M61.74,184.73a1,1,0,1,0,1,1A1,1,0,0,0,61.74,184.73Z" style="fill:#fef201"/><path d="M61.78,197.77a1,1,0,1,0,0,2,1,1,0,0,0,1-1A1,1,0,0,0,61.78,197.77Z" style="fill:#fef201"/><circle cx="70.13" cy="8.78" r="1" style="fill:#fef201"/><circle cx="70.13" cy="21.82" r="1" style="fill:#fef201"/><circle cx="70.13" cy="34.87" r="1" style="fill:#fef201"/><circle cx="70.13" cy="47.91" r="1" style="fill:#fef201"/><circle cx="70.13" cy="60.95" r="1" style="fill:#fef201"/><circle cx="70.13" cy="74" r="1" style="fill:#fef201"/><circle cx="70.13" cy="87.04" r="1" style="fill:#fef201"/><circle cx="70.13" cy="100.09" r="1" style="fill:#fef201"/><circle cx="70.13" cy="113.13" r="1" style="fill:#fef201"/><circle cx="70.13" cy="126.18" r="1" style="fill:#fef201"/><circle cx="70.13" cy="139.22" r="1" style="fill:#fef201"/><circle cx="70.13" cy="152.26" r="1" style="fill:#fef201"/><circle cx="70.13" cy="165.31" r="1" style="fill:#fef201"/><circle cx="70.13" cy="178.35" r="1" style="fill:#fef201"/><circle cx="70.13" cy="191.4" r="1" style="fill:#fef201"/><circle cx="70.13" cy="204.44" r="1" style="fill:#fef201"/><path d="M77.48,4.11a1,1,0,0,0,1-1,1,1,0,1,0-1,1Z" style="fill:#fef201"/><path d="M77.52,15.15a1,1,0,0,0-1,1,1,1,0,1,0,1-1Z" style="fill:#fef201"/><path d="M77.56,28.2a1,1,0,0,0-1,1,1,1,0,0,0,1,1,1,1,0,0,0,0-2Z" style="fill:#fef201"/><path d="M77.6,41.24a1,1,0,0,0,0,2,1,1,0,1,0,0-2Z" style="fill:#fef201"/><path d="M77.65,54.28a1,1,0,0,0-1,1,1,1,0,0,0,1,1,1,1,0,0,0,0-2Z" style="fill:#fef201"/><path d="M77.69,67.33a1,1,0,1,0,1,1A1,1,0,0,0,77.69,67.33Z" style="fill:#fef201"/><path d="M77.73,80.37a1,1,0,1,0,0,2,1,1,0,0,0,1-1A1,1,0,0,0,77.73,80.37Z" style="fill:#fef201"/><path d="M77.77,93.42a1,1,0,0,0,0,2,1,1,0,1,0,0-2Z" style="fill:#fef201"/><path d="M77.82,106.46a1,1,0,1,0,1,1A1,1,0,0,0,77.82,106.46Z" style="fill:#fef201"/><path d="M77.86,119.51a1,1,0,1,0,1,1A1,1,0,0,0,77.86,119.51Z" style="fill:#fef201"/><path d="M77.9,132.55a1,1,0,1,0,1,1A1,1,0,0,0,77.9,132.55Z" style="fill:#fef201"/><path d="M77.94,145.6a1,1,0,0,0,0,2,1,1,0,0,0,1-1A1,1,0,0,0,77.94,145.6Z" style="fill:#fef201"/><path d="M78,158.64a1,1,0,1,0,1,1A1,1,0,0,0,78,158.64Z" style="fill:#fef201"/><path d="M78,171.68a1,1,0,0,0-1,1,1,1,0,0,0,2,0A1,1,0,0,0,78,171.68Z" style="fill:#fef201"/><path d="M78.07,184.73a1,1,0,0,0-1,1,1,1,0,1,0,1-1Z" style="fill:#fef201"/><path d="M78.11,197.77a1,1,0,1,0,1,1A1,1,0,0,0,78.11,197.77Z" style="fill:#fef201"/><circle cx="86.47" cy="8.78" r="1" style="fill:#fef201"/><circle cx="86.47" cy="21.82" r="1" style="fill:#fef201"/><circle cx="86.47" cy="34.87" r="1" style="fill:#fef201"/><circle cx="86.47" cy="47.91" r="1" style="fill:#fef201"/><circle cx="86.47" cy="60.95" r="1" style="fill:#fef201"/><circle cx="86.47" cy="74" r="1" style="fill:#fef201"/><circle cx="86.47" cy="87.04" r="1" style="fill:#fef201"/><circle cx="86.47" cy="100.09" r="1" style="fill:#fef201"/><circle cx="86.47" cy="113.13" r="1" style="fill:#fef201"/><circle cx="86.47" cy="126.18" r="1" style="fill:#fef201"/><circle cx="86.47" cy="139.22" r="1" style="fill:#fef201"/><circle cx="86.47" cy="152.26" r="1" style="fill:#fef201"/><circle cx="86.47" cy="165.31" r="1" style="fill:#fef201"/><circle cx="86.47" cy="178.35" r="1" style="fill:#fef201"/><circle cx="86.47" cy="191.4" r="1" style="fill:#fef201"/><circle cx="86.47" cy="204.44" r="1" style="fill:#fef201"/><path d="M93.82,4.11a1,1,0,1,0-1-1A1,1,0,0,0,93.82,4.11Z" style="fill:#fef201"/><path d="M93.85,15.15a1,1,0,1,0,0,2,1,1,0,0,0,1-1A1,1,0,0,0,93.85,15.15Z" style="fill:#fef201"/><path d="M93.89,28.2a1,1,0,0,0,0,2,1,1,0,0,0,1-1A1,1,0,0,0,93.89,28.2Z" style="fill:#fef201"/><path d="M93.94,41.24a1,1,0,1,0,1,1A1,1,0,0,0,93.94,41.24Z" style="fill:#fef201"/><path d="M94,54.28a1,1,0,0,0-1,1,1,1,0,0,0,2,0A1,1,0,0,0,94,54.28Z" style="fill:#fef201"/><path d="M94,67.33a1,1,0,0,0-1,1,1,1,0,1,0,1-1Z" style="fill:#fef201"/><path d="M94.06,80.37a1,1,0,0,0-1,1,1,1,0,0,0,1,1,1,1,0,1,0,0-2Z" style="fill:#fef201"/><path d="M94.11,93.42a1,1,0,1,0,1,1A1,1,0,0,0,94.11,93.42Z" style="fill:#fef201"/><path d="M94.15,106.46a1,1,0,1,0,0,2,1,1,0,0,0,0-2Z" style="fill:#fef201"/><path d="M94.19,119.51a1,1,0,0,0-1,1,1,1,0,1,0,1-1Z" style="fill:#fef201"/><path d="M94.24,132.55a1,1,0,1,0,1,1A1,1,0,0,0,94.24,132.55Z" style="fill:#fef201"/><path d="M94.28,145.6a1,1,0,1,0,1,1A1,1,0,0,0,94.28,145.6Z" style="fill:#fef201"/><path d="M94.32,158.64a1,1,0,1,0,0,2,1,1,0,0,0,0-2Z" style="fill:#fef201"/><path d="M94.36,171.68a1,1,0,0,0-1,1,1,1,0,0,0,1,1,1,1,0,1,0,0-2Z" style="fill:#fef201"/><path d="M94.41,184.73a1,1,0,1,0,1,1A1,1,0,0,0,94.41,184.73Z" style="fill:#fef201"/><path d="M94.45,197.77a1,1,0,0,0-1,1,1,1,0,1,0,1-1Z" style="fill:#fef201"/><circle cx="102.8" cy="8.78" r="1" style="fill:#fef201"/><circle cx="102.8" cy="21.82" r="1" style="fill:#fef201"/><circle cx="102.8" cy="34.87" r="1" style="fill:#fef201"/><circle cx="102.8" cy="47.91" r="1" style="fill:#fef201"/><circle cx="102.8" cy="60.95" r="1" style="fill:#fef201"/><circle cx="102.8" cy="74" r="1" style="fill:#fef201"/><circle cx="102.8" cy="87.04" r="1" style="fill:#fef201"/><circle cx="102.8" cy="100.09" r="1" style="fill:#fef201"/><circle cx="102.8" cy="113.13" r="1" style="fill:#fef201"/><circle cx="102.8" cy="126.18" r="1" style="fill:#fef201"/><circle cx="102.8" cy="139.22" r="1" style="fill:#fef201"/><circle cx="102.8" cy="152.26" r="1" style="fill:#fef201"/><circle cx="102.8" cy="165.31" r="1" style="fill:#fef201"/><circle cx="102.8" cy="178.35" r="1" style="fill:#fef201"/><circle cx="102.8" cy="191.4" r="1" style="fill:#fef201"/><circle cx="102.8" cy="204.44" r="1" style="fill:#fef201"/><path d="M110.15,4.11a1,1,0,1,0,0-2,1,1,0,0,0-1,1A1,1,0,0,0,110.15,4.11Z" style="fill:#fef201"/><path d="M110.18,15.15a1,1,0,1,0,1,1A1,1,0,0,0,110.18,15.15Z" style="fill:#fef201"/><path d="M110.23,28.2a1,1,0,1,0,1,1A1,1,0,0,0,110.23,28.2Z" style="fill:#fef201"/><path d="M110.27,41.24a1,1,0,1,0,0,2,1,1,0,0,0,0-2Z" style="fill:#fef201"/><path d="M110.31,54.28a1,1,0,0,0-1,1,1,1,0,0,0,1,1,1,1,0,1,0,0-2Z" style="fill:#fef201"/><path d="M110.36,67.33a1,1,0,1,0,1,1A1,1,0,0,0,110.36,67.33Z" style="fill:#fef201"/><path d="M110.4,80.37a1,1,0,0,0-1,1,1,1,0,0,0,2,0A1,1,0,0,0,110.4,80.37Z" style="fill:#fef201"/><path d="M110.44,93.42a1,1,0,1,0,0,2,1,1,0,0,0,0-2Z" style="fill:#fef201"/><path d="M110.48,106.46a1,1,0,0,0,0,2,1,1,0,1,0,0-2Z" style="fill:#fef201"/><path d="M110.53,119.51a1,1,0,0,0,0,2,1,1,0,0,0,1-1A1,1,0,0,0,110.53,119.51Z" style="fill:#fef201"/><path d="M110.57,132.55a1,1,0,1,0,1,1A1,1,0,0,0,110.57,132.55Z" style="fill:#fef201"/><path d="M110.61,145.6a1,1,0,0,0-1,1,1,1,0,0,0,1,1,1,1,0,0,0,1-1A1,1,0,0,0,110.61,145.6Z" style="fill:#fef201"/><path d="M110.65,158.64a1,1,0,1,0,1,1A1,1,0,0,0,110.65,158.64Z" style="fill:#fef201"/><path d="M110.7,171.68a1,1,0,0,0-1,1,1,1,0,0,0,2,0A1,1,0,0,0,110.7,171.68Z" style="fill:#fef201"/><path d="M110.74,184.73a1,1,0,1,0,1,1A1,1,0,0,0,110.74,184.73Z" style="fill:#fef201"/><path d="M110.78,197.77a1,1,0,1,0,0,2,1,1,0,0,0,1-1A1,1,0,0,0,110.78,197.77Z" style="fill:#fef201"/><circle cx="119.13" cy="8.78" r="1" style="fill:#fef201"/><circle cx="119.13" cy="21.82" r="1" style="fill:#fef201"/><circle cx="119.13" cy="34.87" r="1" style="fill:#fef201"/><circle cx="119.13" cy="47.91" r="1" style="fill:#fef201"/><circle cx="119.13" cy="60.95" r="1" style="fill:#fef201"/><circle cx="119.13" cy="74" r="1" style="fill:#fef201"/><circle cx="119.13" cy="87.04" r="1" style="fill:#fef201"/><circle cx="119.13" cy="100.09" r="1" style="fill:#fef201"/><circle cx="119.13" cy="113.13" r="1" style="fill:#fef201"/><circle cx="119.13" cy="126.18" r="1" style="fill:#fef201"/><circle cx="119.13" cy="139.22" r="1" style="fill:#fef201"/><circle cx="119.13" cy="152.26" r="1" style="fill:#fef201"/><circle cx="119.13" cy="165.31" r="1" style="fill:#fef201"/><circle cx="119.13" cy="178.35" r="1" style="fill:#fef201"/><circle cx="119.13" cy="191.4" r="1" style="fill:#fef201"/><circle cx="119.13" cy="204.44" r="1" style="fill:#fef201"/><path d="M126.48,4.11a1,1,0,0,0,1-1,1,1,0,1,0-1,1Z" style="fill:#fef201"/><path d="M126.52,15.15a1,1,0,0,0-1,1,1,1,0,1,0,1-1Z" style="fill:#fef201"/><path d="M126.56,28.2a1,1,0,0,0-1,1,1,1,0,0,0,1,1,1,1,0,0,0,0-2Z" style="fill:#fef201"/><path d="M126.6,41.24a1,1,0,0,0,0,2,1,1,0,1,0,0-2Z" style="fill:#fef201"/><path d="M126.65,54.28a1,1,0,0,0-1,1,1,1,0,0,0,1,1,1,1,0,0,0,0-2Z" style="fill:#fef201"/><path d="M126.69,67.33a1,1,0,1,0,1,1A1,1,0,0,0,126.69,67.33Z" style="fill:#fef201"/><path d="M126.73,80.37a1,1,0,1,0,0,2,1,1,0,0,0,1-1A1,1,0,0,0,126.73,80.37Z" style="fill:#fef201"/><path d="M126.77,93.42a1,1,0,0,0,0,2,1,1,0,1,0,0-2Z" style="fill:#fef201"/><path d="M126.82,106.46a1,1,0,1,0,1,1A1,1,0,0,0,126.82,106.46Z" style="fill:#fef201"/><path d="M126.86,119.51a1,1,0,1,0,1,1A1,1,0,0,0,126.86,119.51Z" style="fill:#fef201"/><path d="M126.9,132.55a1,1,0,1,0,1,1A1,1,0,0,0,126.9,132.55Z" style="fill:#fef201"/><path d="M126.94,145.6a1,1,0,0,0,0,2,1,1,0,0,0,1-1A1,1,0,0,0,126.94,145.6Z" style="fill:#fef201"/><path d="M127,158.64a1,1,0,1,0,1,1A1,1,0,0,0,127,158.64Z" style="fill:#fef201"/><path d="M127,171.68a1,1,0,0,0-1,1,1,1,0,0,0,2,0A1,1,0,0,0,127,171.68Z" style="fill:#fef201"/><path d="M127.07,184.73a1,1,0,0,0-1,1,1,1,0,1,0,1-1Z" style="fill:#fef201"/><path d="M127.11,197.77a1,1,0,1,0,1,1A1,1,0,0,0,127.11,197.77Z" style="fill:#fef201"/><circle cx="135.47" cy="8.78" r="1" style="fill:#fef201"/><circle cx="135.47" cy="21.82" r="1" style="fill:#fef201"/><circle cx="135.47" cy="34.87" r="1" style="fill:#fef201"/><circle cx="135.47" cy="47.91" r="1" style="fill:#fef201"/><circle cx="135.47" cy="60.95" r="1" style="fill:#fef201"/><circle cx="135.47" cy="74" r="1" style="fill:#fef201"/><circle cx="135.47" cy="87.04" r="1" style="fill:#fef201"/><circle cx="135.47" cy="100.09" r="1" style="fill:#fef201"/><circle cx="135.47" cy="113.13" r="1" style="fill:#fef201"/><circle cx="135.47" cy="126.18" r="1" style="fill:#fef201"/><circle cx="135.47" cy="139.22" r="1" style="fill:#fef201"/><circle cx="135.47" cy="152.26" r="1" style="fill:#fef201"/><circle cx="135.47" cy="165.31" r="1" style="fill:#fef201"/><circle cx="135.47" cy="178.35" r="1" style="fill:#fef201"/><circle cx="135.47" cy="191.4" r="1" style="fill:#fef201"/><circle cx="135.47" cy="204.44" r="1" style="fill:#fef201"/><path d="M142.82,4.11a1,1,0,1,0-1-1A1,1,0,0,0,142.82,4.11Z" style="fill:#fef201"/><path d="M142.85,15.15a1,1,0,1,0,0,2,1,1,0,0,0,1-1A1,1,0,0,0,142.85,15.15Z" style="fill:#fef201"/><path d="M142.89,28.2a1,1,0,0,0,0,2,1,1,0,0,0,1-1A1,1,0,0,0,142.89,28.2Z" style="fill:#fef201"/><path d="M142.94,41.24a1,1,0,1,0,1,1A1,1,0,0,0,142.94,41.24Z" style="fill:#fef201"/><path d="M143,54.28a1,1,0,0,0-1,1,1,1,0,0,0,2,0A1,1,0,0,0,143,54.28Z" style="fill:#fef201"/><path d="M143,67.33a1,1,0,0,0-1,1,1,1,0,1,0,1-1Z" style="fill:#fef201"/><path d="M143.06,80.37a1,1,0,0,0-1,1,1,1,0,0,0,1,1,1,1,0,1,0,0-2Z" style="fill:#fef201"/><path d="M143.11,93.42a1,1,0,1,0,1,1A1,1,0,0,0,143.11,93.42Z" style="fill:#fef201"/><path d="M143.15,106.46a1,1,0,1,0,0,2,1,1,0,0,0,0-2Z" style="fill:#fef201"/><path d="M143.19,119.51a1,1,0,0,0-1,1,1,1,0,1,0,1-1Z" style="fill:#fef201"/><path d="M143.24,132.55a1,1,0,1,0,1,1A1,1,0,0,0,143.24,132.55Z" style="fill:#fef201"/><path d="M143.28,145.6a1,1,0,1,0,1,1A1,1,0,0,0,143.28,145.6Z" style="fill:#fef201"/><path d="M143.32,158.64a1,1,0,1,0,0,2,1,1,0,0,0,0-2Z" style="fill:#fef201"/><path d="M143.36,171.68a1,1,0,0,0-1,1,1,1,0,0,0,1,1,1,1,0,1,0,0-2Z" style="fill:#fef201"/><path d="M143.41,184.73a1,1,0,1,0,1,1A1,1,0,0,0,143.41,184.73Z" style="fill:#fef201"/><path d="M143.45,197.77a1,1,0,0,0-1,1,1,1,0,1,0,1-1Z" style="fill:#fef201"/></g></g><g style="opacity:0.45"><polygon points="80.36 40.2 73.51 40.2 8.1 105.61 8.1 112.45 80.36 40.2" style="fill:#00158e;opacity:0.2"/><polygon points="99.61 40.2 92.76 40.2 8.1 124.85 8.1 131.7 99.61 40.2" style="fill:#00158e;opacity:0.2"/><polygon points="61.11 40.2 54.27 40.2 8.1 86.36 8.1 93.21 61.11 40.2" style="fill:#00158e;opacity:0.2"/><polygon points="41.86 40.2 35.02 40.2 8.1 67.11 8.1 73.96 41.86 40.2" style="fill:#00158e;opacity:0.2"/><polygon points="22.62 40.2 15.77 40.2 8.1 47.86 8.1 54.71 22.62 40.2" style="fill:#00158e;opacity:0.2"/><path d="M108.1,40.2v3.91L11.81,140.4H8.1v30.51H138.82V40.2Zm0,100.2H95.65L108.1,128Zm0-19.3L88.8,140.4H76.4l31.7-31.7Zm0-19.25L69.56,140.4H57.15L108.1,89.45Zm0-19.25L50.31,140.4H37.91L108.1,70.2Zm0-19.24-77,77H18.66L108.1,51Z" style="fill:#00158e;opacity:0.2"/><polygon points="135.94 168.5 135.94 142.05 131.16 146.84 131.16 163.71 114.28 163.71 109.5 168.5 135.94 168.5" style="fill:#0751cf"/><rect x="137.39" y="71.65" width="2.99" height="35.67" style="fill:gold"/><rect x="137.39" y="114.49" width="2.99" height="4.98" style="fill:gold"/><rect x="26.4" y="170.08" width="48.42" height="2.39" style="fill:gold"/><polygon points="23.9 160.58 27.76 160.58 31.88 156.46 25.44 156.46 16.15 165.74 18.74 165.74 23.9 160.58" style="fill:gold"/><polygon points="32.27 160.58 36.13 160.58 40.26 156.46 33.81 156.46 24.53 165.74 27.11 165.74 32.27 160.58" style="fill:gold"/><polygon points="40.65 160.58 44.51 160.58 48.63 156.46 42.19 156.46 32.9 165.74 35.48 165.74 40.65 160.58" style="fill:gold"/><polygon points="49.02 160.58 52.88 160.58 57.01 156.46 50.56 156.46 41.28 165.74 43.86 165.74 49.02 160.58" style="fill:gold"/><polygon points="57.4 160.58 61.26 160.58 65.38 156.46 58.94 156.46 49.65 165.74 52.23 165.74 57.4 160.58" style="fill:gold"/><polygon points="65.77 160.58 69.63 160.58 73.75 156.46 67.31 156.46 58.03 165.74 60.61 165.74 65.77 160.58" style="fill:gold"/><polygon points="74.15 160.58 78.01 160.58 82.13 156.46 75.69 156.46 66.4 165.74 68.98 165.74 74.15 160.58" style="fill:gold"/><polygon points="82.52 160.58 86.38 160.58 90.5 156.46 84.06 156.46 74.77 165.74 77.36 165.74 82.52 160.58" style="fill:gold"/><path d="M125.13,35.49H110.19V31.9h14.94Zm-14.34-.6h13.75V32.5H110.79Z" style="fill:#0751cf"/><path d="M142.87,143.28h-2.59V131.93h2.59Zm-2-.59h1.39V132.52h-1.39Z" style="fill:#0751cf"/><path d="M101.82,179H84.49v-3.79h17.33Zm-16.74-.6h16.14v-2.59H85.08Z" style="fill:#0751cf"/><path d="M16.14,178.15H9.57v-2.39h6.57Zm-6-.59h5.38v-1.2H10.16Z" style="fill:gold"/><path d="M5.78,166.6H3.39V146.67H5.78ZM4,166H5.18V147.27H4Z" style="fill:gold"/><polygon points="94.75 34.58 94.75 34.43 26.95 34.43 26.95 33.06 94.6 33.06 94.6 34.58 94.75 34.58 94.75 34.43 94.75 34.58 94.9 34.58 94.9 32.76 26.65 32.76 26.65 34.73 94.9 34.73 94.9 34.58 94.75 34.58" style="fill:gold"/></g><polygon points="81.04 33.46 85.22 50.88 84.04 51.41 79 35.03 81.04 33.46" style="fill:#0b0019"/><polygon points="71.69 33.46 67.52 50.88 68.7 51.41 73.73 35.03 71.69 33.46" style="fill:#2c0630"/><path d="M76.46,37.09H71.69l-3.12,3.24a4,4,0,0,0-.82,4.06l1,2.73h7.76Z" style="fill:#451b46"/><path d="M84.18,40.34l-3.07-3.25H76.46v10H84L85,44.35A4.05,4.05,0,0,0,84.18,40.34Z" style="fill:#300635"/><rect x="76.46" y="33.46" width="4.6" height="3.62" style="fill:#0b0019"/><rect x="71.69" y="33.46" width="4.77" height="3.62" style="fill:#2c0630"/><path d="M88.68,27.67a1.35,1.35,0,1,0-2.69,0,1.42,1.42,0,0,0,1.2,1.45v8.3H85.1v.33h2.39V29.11A1.42,1.42,0,0,0,88.68,27.67Z" style="fill:#060a0f"/><polygon points="83.58 39.17 85.51 38.51 85.51 36.59 78.37 36.59 78.37 39.17 83.58 39.17" style="fill:#060a0f"/><path d="M64.12,27.67a1.35,1.35,0,1,1,2.7,0,1.43,1.43,0,0,1-1.2,1.45v8.3H67.7v.33H65.31V29.11A1.42,1.42,0,0,1,64.12,27.67Z" style="fill:#060a0f"/><polygon points="69.22 39.17 67.29 38.51 67.29 36.59 74.44 36.59 74.44 39.17 69.22 39.17" style="fill:#060a0f"/><path d="M78.5,90.25c2,3.51,6.78,4.41,7,4.45l.15-1s-5.11-1-6.64-4.54c-.75-1.75-.53-3.88.65-6.34l-.81-.5c-1.33,2.77-1.56,5.23-.67,7.3A6.77,6.77,0,0,0,78.5,90.25Z" style="fill:#7b2e52"/><path d="M74.84,92.87c-2-3.5-6.78-4.41-7-4.45l-.14,1c.05,0,5.1,1,6.63,4.53.75,1.75.53,3.89-.65,6.34l.81.51c1.33-2.78,1.56-5.24.67-7.31A6.77,6.77,0,0,0,74.84,92.87Z" style="fill:#2fbbc0"/><path d="M79.47,93c2-3.51,6.78-4.42,7-4.46l.14,1s-5.1,1-6.63,4.54c-.75,1.75-.53,3.88.65,6.34l-.81.5c-1.33-2.77-1.56-5.23-.67-7.31A6.59,6.59,0,0,1,79.47,93Z" style="fill:#6aba47"/><path d="M74.84,89.55c-2,3.51-6.78,4.41-7,4.45l-.14-1c.05,0,5.1-1,6.63-4.54.75-1.75.53-3.88-.65-6.34l.81-.5c1.33,2.77,1.56,5.23.67,7.3A6.77,6.77,0,0,1,74.84,89.55Z" style="fill:#6aba47"/><path d="M77.05,91.56c-3.67,0-6.94-4.07-7.08-4.25l.68-.7s3.5,4.35,7,3.86c1.69-.23,3.14-1.61,4.3-4.08l.81.5c-1.31,2.79-3,4.35-5,4.63A4.87,4.87,0,0,1,77.05,91.56Z" style="fill:#c66665"/><path d="M55.6,84.57H50.46c-2.4,0-4.35-2.23-4.35-5V74.39c0-2.73,2-5,4.35-5v1.2a3.56,3.56,0,0,0-3.3,3.76v5.22a3.56,3.56,0,0,0,3.3,3.76H55.6Z" style="fill:#2c0630"/><polygon points="63.13 161.19 63.13 164.56 71.73 164.56 71.73 160.89 63.24 160.89 63.13 161.19" style="fill:#310637"/><path d="M60.49,158.65,57.36,163l.52.69-.64.86.84,1.13h1.6v-1.41a8.31,8.31,0,0,0,5.57-2.65H70l1.57,2.1h1.08V106.8l-11.13,19Z" style="fill:#7b2e52"/><polygon points="65.81 116.98 60.49 123.04 60.49 158.65 63.5 158.65 63.5 125.02 68.18 119.68 65.81 116.98" style="fill:#310637"/><polygon points="63.5 144.49 69.18 138 69.18 132.72 63.21 139.47 63.5 144.49" style="fill:#310637"/><rect x="61.69" y="155.04" width="10.98" height="3.61" style="fill:#43154c"/><rect x="59.68" y="163.43" width="14.15" height="2.25" style="fill:#310637"/><polygon points="62.27 59.36 63.48 55.33 64.64 54.83 68.03 54.83 70 57.08 63.18 64.86 62.27 59.36" style="fill:#90619c"/><path d="M63.21,95.18v19.16l1.76,2a16.86,16.86,0,0,1,4.16,11.25v10.56h1.33A2.72,2.72,0,0,0,73,135.22v-24l2.31-4.21Z" style="fill:#491c4d"/><polygon points="48.68 67.33 48.68 68.9 50.38 70.83 52.52 81.16 57.62 81.16 59.72 74.6 48.68 67.33" style="fill:#451b46"/><path d="M54.77,57.37a7.87,7.87,0,0,0-3.53-.55A4,4,0,0,0,48,60.91v4.5a3,3,0,0,0,1.11,2.38,16.48,16.48,0,0,1,4.38,5.6s1,2,6.19,1.21V61.74Z" style="fill:#c66665"/><rect x="61.95" y="59.36" width="2.03" height="12.37" style="fill:#c66665"/><polyline points="61.95 71.73 59.72 74.6 59.72 56.82 61.95 59.36" style="fill:#7b2e52"/><path d="M59.72,56.82,59,56l-4.27,1.33s-3.36,6,4.95,7.68Z" style="fill:#451b46"/><polygon points="63.98 61.68 75.68 52.57 75.68 80.46 71.28 80.46 63.98 71.73 63.98 61.68" style="fill:#2c0630"/><polygon points="62.47 71.73 62.47 81.16 64.98 85.1 71.28 80.46 63.98 71.73 62.47 71.73" style="fill:#451b46"/><polygon points="62.97 86.64 61.81 94.3 63.5 95.84 66.61 90.95 62.97 86.64" style="fill:#491c4d"/><polygon points="63.5 95.84 73.33 107.06 75.3 107.06 75.3 100.59 66.61 90.95 63.5 95.84" style="fill:#310637"/><polygon points="67.33 90.17 67.33 91.75 67.79 92.27 67.79 89.67 67.33 90.17" style="fill:#310637"/><polygon points="68.45 88.97 68.45 92.98 68.95 93.56 68.95 88.42 68.45 88.97" style="fill:#310637"/><rect x="69.53" y="86.27" width="0.77" height="10.05" style="fill:#310637"/><rect x="70.89" y="84.95" width="0.77" height="12.59" style="fill:#310637"/><rect x="72.28" y="83.38" width="0.77" height="15.62" style="fill:#310637"/><rect x="73.88" y="82.2" width="0.77" height="17.95" style="fill:#310637"/><rect x="75.68" y="79.68" width="0.77" height="21.9" style="fill:#310637"/><polygon points="64.98 85.1 62.97 86.64 66.61 90.95 75.68 81.16 75.68 80.46 71.28 80.46 64.98 85.1" style="fill:#642d65"/><rect x="75.3" y="100.59" width="1.16" height="6.47" style="fill:#90619c"/><polygon points="68.03 54.83 70.94 49.53 75.68 49.53 75.68 52.57 70 57.08 68.03 54.83" style="fill:#7b2e52"/><polygon points="74.56 140.43 63.5 155.04 66.75 155.04 75.3 146.96 75.3 140.43 74.56 140.43" style="fill:#491c4d"/><rect x="57.14" y="159.79" width="2.58" height="7.73" rx="0.82" style="fill:#310637"/><rect x="61.84" y="159.79" width="2.58" height="7.73" rx="0.82" style="fill:#310637"/><rect x="66.55" y="159.79" width="2.58" height="7.73" rx="0.82" style="fill:#310637"/><rect x="71.25" y="159.79" width="2.58" height="7.73" rx="0.82" style="fill:#310637"/><path d="M69.13,128.24H63.21c-2.76,0-5-2.56-5-5.7v-6c0-3.14,2.24-5.7,5-5.7v1.38a4.09,4.09,0,0,0-3.79,4.32v6a4.09,4.09,0,0,0,3.79,4.32h5.92Z" style="fill:#9b4a4e"/><path d="M75.3,146.52H69.13c-2.76,0-5-2.56-5-5.7v-6c0-3.14,2.24-5.7,5-5.7v1.38a4.09,4.09,0,0,0-3.79,4.32v6a4.09,4.09,0,0,0,3.79,4.32H75.3Z" style="fill:#c66665"/><polygon points="52.11 83.85 52.11 95.98 56.19 95.98 58.46 84.66 52.11 83.85" style="fill:#c66665"/><rect x="52.76" y="98.7" width="2.76" height="14.41" style="fill:#90619c"/><path d="M53.2,104.94l2.31.12a1,1,0,0,1,.87,1.19l-1.26,10.92-2.35-.12-.53-11A1,1,0,0,1,53.2,104.94Z" style="fill:#7b2e52"/><polygon points="55.74 122.17 51.59 121.95 51.81 116.38 55.97 116.6 55.74 122.17" style="fill:#2c0630"/><path d="M53.63,122.06a3.56,3.56,0,0,1,0,.75,1.32,1.32,0,0,1-.58,1.06c-.68.43-1.86,1.75-2.18,5.76a.35.35,0,0,1-.34.33h0a.68.68,0,0,1-.59-.73l.22-5.38a1.12,1.12,0,0,1,.3-.73L51.59,122Z" style="fill:#aeb1b0"/><path d="M53.48,122.05a3.51,3.51,0,0,0-.07.75,1.33,1.33,0,0,0,.55,1.12c.73.51,1.93,2,1.95,6a.37.37,0,0,0,.35.37h0a.67.67,0,0,0,.71-.66l.22-5.38a1,1,0,0,0-.27-.75l-1.16-1.3Z" style="fill:#9a9f9a"/><path d="M56.81,100.94l-2.17,2c-1.27,1.18-3.17.14-3.17-1.73V96h5.34Z" style="fill:#220009"/><path d="M53.5,83.29l2.24,6,3.15-1.79a11.89,11.89,0,0,1-.55-4.18Z" style="fill:#b65858"/><ellipse cx="55.17" cy="85.1" rx="4.75" ry="5.41" style="fill:#2c0630"/><path d="M97.31,84.57h5.15c2.4,0,4.34-2.23,4.34-5V74.39c0-2.73-1.94-5-4.34-5v1.2a3.56,3.56,0,0,1,3.29,3.76v5.22a3.56,3.56,0,0,1-3.29,3.76H97.31Z" style="fill:#2c0630"/><polygon points="89.78 161.19 89.78 164.56 81.19 164.56 81.19 160.9 89.68 160.9 89.78 161.19" style="fill:#310637"/><path d="M92.42,158.65,95.56,163l-.52.69.64.86-.85,1.13H93.24v-1.41a8.31,8.31,0,0,1-5.57-2.65H82.9l-1.57,2.1H80.25V106.8l11.13,19Z" style="fill:#611a3f"/><polygon points="87.1 116.98 92.42 123.04 92.42 158.65 89.42 158.65 89.42 125.02 84.73 119.68 87.1 116.98" style="fill:#0f001e"/><polygon points="89.42 144.49 83.73 138 83.73 132.73 89.71 139.47 89.42 144.49" style="fill:#0f001e"/><rect x="80.25" y="155.04" width="10.98" height="3.61" transform="translate(171.47 313.69) rotate(180)" style="fill:#140124"/><rect x="79.09" y="163.43" width="14.15" height="2.25" transform="translate(172.33 329.12) rotate(180)" style="fill:#310637"/><polygon points="90.64 59.36 89.43 55.33 88.27 54.83 84.88 54.83 82.92 57.08 89.73 64.86 90.64 59.36" style="fill:#7b4785"/><path d="M89.71,95.18v19.16l-1.77,2a16.91,16.91,0,0,0-4.15,11.25v10.56H82.45a2.73,2.73,0,0,1-2.53-2.89v-24l-2.3-4.21Z" style="fill:#2d0334"/><polygon points="104.24 67.33 104.24 68.9 102.54 70.83 100.39 81.16 95.29 81.16 93.19 74.6 104.24 67.33" style="fill:#2d0130"/><path d="M98.15,57.37a7.81,7.81,0,0,1,3.52-.55,4,4,0,0,1,3.21,4.09v4.5a3,3,0,0,1-1.11,2.38,16.47,16.47,0,0,0-4.39,5.6s-1,2-6.19,1.21V61.74Z" style="fill:#a95254"/><rect x="88.93" y="59.36" width="2.03" height="12.37" transform="translate(179.9 131.08) rotate(180)" style="fill:#a95254"/><polyline points="90.97 71.73 93.19 74.6 93.19 56.82 90.97 59.36" style="fill:#541236"/><path d="M93.19,56.82l.69-.78,4.27,1.33s3.36,6-5,7.68Z" style="fill:#370d3b"/><polygon points="88.93 61.68 77.23 52.57 77.23 80.46 81.64 80.46 88.93 71.73 88.93 61.68" style="fill:#0b0019"/><polygon points="90.45 71.73 90.45 81.16 87.93 85.1 81.64 80.46 88.93 71.73 90.45 71.73" style="fill:#451b46"/><polygon points="89.95 86.64 91.1 94.3 89.42 95.84 86.3 90.95 89.95 86.64" style="fill:#2d0233"/><polygon points="89.42 95.84 79.58 107.06 77.62 107.06 77.62 100.59 86.3 90.95 89.42 95.84" style="fill:#070017"/><polygon points="85.58 90.17 85.58 91.75 85.12 92.27 85.12 89.67 85.58 90.17" style="fill:#310637"/><polygon points="84.47 88.97 84.47 92.98 83.96 93.56 83.96 88.42 84.47 88.97" style="fill:#310637"/><rect x="82.61" y="86.27" width="0.77" height="10.05" transform="translate(165.99 182.6) rotate(180)" style="fill:#310637"/><rect x="81.25" y="84.95" width="0.77" height="12.59" transform="translate(163.28 182.49) rotate(180)" style="fill:#310637"/><rect x="79.86" y="83.38" width="0.77" height="15.62" transform="translate(160.5 182.38) rotate(180)" style="fill:#310637"/><rect x="78.27" y="82.2" width="0.77" height="17.95" transform="translate(157.31 182.35) rotate(180)" style="fill:#310637"/><rect x="76.46" y="79.68" width="0.77" height="21.9" transform="translate(153.69 181.27) rotate(180)" style="fill:#310637"/><polygon points="87.93 85.1 89.95 86.64 86.3 90.95 77.23 81.16 77.23 80.46 81.64 80.46 87.93 85.1" style="fill:#511f54"/><rect x="76.46" y="100.59" width="1.16" height="6.47" transform="translate(154.07 207.65) rotate(180)" style="fill:#c66665"/><polygon points="84.88 54.83 81.98 49.53 77.23 49.53 77.23 52.57 82.92 57.08 84.88 54.83" style="fill:#6a2347"/><polygon points="78.35 140.43 89.42 155.04 86.16 155.04 77.62 146.96 77.62 140.43 78.35 140.43" style="fill:#140124"/><rect x="93.2" y="159.79" width="2.58" height="7.73" rx="0.82" transform="translate(188.97 327.31) rotate(180)" style="fill:#310637"/><rect x="88.49" y="159.79" width="2.58" height="7.73" rx="0.82" transform="translate(179.57 327.31) rotate(180)" style="fill:#310637"/><rect x="83.79" y="159.79" width="2.58" height="7.73" rx="0.82" transform="translate(170.16 327.31) rotate(180)" style="fill:#310637"/><rect x="79.09" y="159.79" width="2.58" height="7.73" rx="0.82" transform="translate(160.76 327.31) rotate(180)" style="fill:#310637"/><path d="M83.79,128.24h5.92c2.75,0,5-2.56,5-5.7v-6c0-3.14-2.25-5.7-5-5.7v1.38a4.09,4.09,0,0,1,3.79,4.32v6a4.09,4.09,0,0,1-3.79,4.32H83.79Z" style="fill:#6c1d24"/><path d="M77.62,146.52h6.17c2.75,0,5-2.56,5-5.7v-6c0-3.14-2.24-5.7-5-5.7v1.38a4.09,4.09,0,0,1,3.78,4.32v6a4.09,4.09,0,0,1-3.78,4.32H77.62Z" style="fill:#a14b4e"/><polygon points="100.8 83.85 100.8 95.98 96.72 95.98 94.46 84.66 100.8 83.85" style="fill:#c66665"/><rect x="97.4" y="98.7" width="2.76" height="14.41" transform="translate(197.55 211.8) rotate(180)" style="fill:#90619c"/><path d="M99.72,104.94l-2.32.12a1,1,0,0,0-.87,1.19l1.26,10.92,2.36-.12.53-11A1,1,0,0,0,99.72,104.94Z" style="fill:#7b2e52"/><polygon points="97.18 122.17 101.33 121.95 101.1 116.38 96.95 116.6 97.18 122.17" style="fill:#2c0630"/><path d="M99.29,122.06a3.56,3.56,0,0,0,0,.75,1.31,1.31,0,0,0,.57,1.06c.69.43,1.86,1.75,2.19,5.76a.35.35,0,0,0,.34.33h0a.67.67,0,0,0,.58-.73l-.22-5.38a1.11,1.11,0,0,0-.29-.73L101.32,122Z" style="fill:#aeb1b0"/><path d="M99.44,122.05a4.36,4.36,0,0,1,.07.75,1.33,1.33,0,0,1-.56,1.12c-.73.51-1.92,2-1.94,6a.37.37,0,0,1-.35.37h0a.69.69,0,0,1-.72-.66l-.22-5.38a1,1,0,0,1,.28-.75l1.16-1.3Z" style="fill:#9a9f9a"/><path d="M96.1,100.94l2.18,2c1.27,1.18,3.17.14,3.17-1.73V96H96.1Z" style="fill:#220009"/><path d="M99.42,83.29l-2.24,6L94,87.47a11.89,11.89,0,0,0,.55-4.18Z" style="fill:#b65858"/><ellipse cx="97.75" cy="85.1" rx="4.75" ry="5.41" style="fill:#2c0630"/><rect x="75.68" y="55.71" width="1.55" height="23.98" style="fill:#4e1951"/><polygon points="69.49 63.77 76.46 71.73 76.46 63.77 69.49 63.77" style="fill:#ec8a3a"/><polygon points="83.43 63.77 76.46 71.73 76.46 63.77 83.43 63.77" style="fill:#b26326"/><polygon points="77.62 100.59 86.3 90.95 86.69 91.56 78.92 102.83 77.62 100.59" style="fill:#070017"/><polygon points="69.54 49.53 71.69 55.7 76.46 55.7 76.46 49.53 69.54 49.53" style="fill:#c66665"/><polygon points="76.46 55.7 81.11 55.7 83.22 49.53 76.46 49.53 76.46 55.7" style="fill:#9e4d50"/><polygon points="76.46 47.12 68.7 47.12 69.54 49.53 76.46 49.53 76.46 47.12" style="fill:#a14e50"/><polygon points="76.46 49.53 83.22 49.53 84.04 47.12 76.46 47.12 76.46 49.53" style="fill:#7e3236"/><rect x="73.22" y="39.89" width="1.02" height="6.32" style="fill:#90619c"/><rect x="78.49" y="39.89" width="1.02" height="6.32" style="fill:#90619c"/></g></g></g></svg>