<svg xmlns="http://www.w3.org/2000/svg" xmlns:xlink="http://www.w3.org/1999/xlink" viewBox="0 0 148.25 207.55"><defs><linearGradient id="Degradado_sin_nombre_6" x1="-14.83" y1="192.72" x2="163.07" y2="14.83" gradientUnits="userSpaceOnUse"><stop offset="0" stop-color="aqua"/><stop offset="1" stop-color="blue"/></linearGradient></defs><title>Asset 132</title><g id="Layer_2" data-name="Layer 2"><g id="Layer_3" data-name="Layer 3"><rect width="148.25" height="207.55" style="fill:url(#Degradado_sin_nombre_6)"/><g style="opacity:0.45"><polygon points="81.46 42.48 74.61 42.48 9.2 107.89 9.2 114.74 81.46 42.48" style="fill:#00158e;opacity:0.2"/><polygon points="100.7 42.48 93.86 42.48 9.2 127.14 9.2 133.99 100.7 42.48" style="fill:#00158e;opacity:0.2"/><polygon points="62.21 42.48 55.36 42.48 9.2 88.64 9.2 95.49 62.21 42.48" style="fill:#00158e;opacity:0.2"/><polygon points="42.96 42.48 36.11 42.48 9.2 69.39 9.2 76.24 42.96 42.48" style="fill:#00158e;opacity:0.2"/><polygon points="23.71 42.48 16.86 42.48 9.2 50.15 9.2 56.99 23.71 42.48" style="fill:#00158e;opacity:0.2"/><path d="M109.19,42.48v3.91L12.91,142.68H9.2v30.51H139.91V42.48Zm0,100.2H96.75l12.44-12.45Zm0-19.3L89.9,142.68H77.5L109.19,111Zm0-19.24L70.65,142.68H58.25l50.94-50.94Zm0-19.25L51.4,142.68H39l70.19-70.19Zm0-19.25-77,77H19.75l89.44-89.44Z" style="fill:#00158e;opacity:0.2"/><polygon points="137.04 170.78 137.04 144.34 132.26 149.12 132.26 166 115.38 166 110.6 170.78 137.04 170.78" style="fill:#0751cf"/><rect x="138.48" y="73.94" width="2.99" height="35.67" style="fill:gold"/><rect x="138.48" y="116.78" width="2.99" height="4.98" style="fill:gold"/><rect x="27.5" y="172.37" width="48.42" height="2.39" style="fill:gold"/><polygon points="25 162.87 28.86 162.87 32.98 158.74 26.54 158.74 17.25 168.03 19.83 168.03 25 162.87" style="fill:gold"/><polygon points="33.37 162.87 37.23 162.87 41.35 158.74 34.91 158.74 25.63 168.03 28.21 168.03 33.37 162.87" style="fill:gold"/><polygon points="41.74 162.87 45.61 162.87 49.73 158.74 43.28 158.74 34 168.03 36.58 168.03 41.74 162.87" style="fill:gold"/><polygon points="50.12 162.87 53.98 162.87 58.1 158.74 51.66 158.74 42.37 168.03 44.95 168.03 50.12 162.87" style="fill:gold"/><polygon points="58.49 162.87 62.35 162.87 66.48 158.74 60.03 158.74 50.75 168.03 53.33 168.03 58.49 162.87" style="fill:gold"/><polygon points="66.87 162.87 70.73 162.87 74.85 158.74 68.41 158.74 59.12 168.03 61.7 168.03 66.87 162.87" style="fill:gold"/><polygon points="75.24 162.87 79.1 162.87 83.22 158.74 76.78 158.74 67.5 168.03 70.08 168.03 75.24 162.87" style="fill:gold"/><polygon points="83.62 162.87 87.48 162.87 91.6 158.74 85.16 158.74 75.87 168.03 78.45 168.03 83.62 162.87" style="fill:gold"/><path d="M126.23,37.77H111.29V34.19h14.94Zm-14.35-.6h13.75V34.78H111.88Z" style="fill:#0751cf"/><path d="M144,145.57h-2.59V134.21H144Zm-2-.6h1.4V134.81H142Z" style="fill:#0751cf"/><path d="M102.92,181.24H85.58v-3.79h17.34Zm-16.74-.6h16.14v-2.59H86.18Z" style="fill:#0751cf"/><path d="M17.24,180.44H10.66v-2.39h6.58Zm-6-.6h5.38v-1.2H11.26Z" style="fill:gold"/><path d="M6.88,168.88H4.49V149H6.88Zm-1.8-.6h1.2V149.55H5.08Z" style="fill:gold"/><polygon points="95.84 36.87 95.84 36.72 28.05 36.72 28.05 35.34 95.69 35.34 95.69 36.87 95.84 36.87 95.84 36.72 95.84 36.87 95.99 36.87 95.99 35.04 27.75 35.04 27.75 37.01 95.99 37.01 95.99 36.87 95.84 36.87" style="fill:gold"/></g><path d="M44,100.61l2.93.15a1.29,1.29,0,0,1,1.1,1.51l-1.59,9-3-.15L42.75,102A1.26,1.26,0,0,1,44,100.61Z" style="fill:#485264"/><polygon points="47.19 117.66 41.92 117.38 42.21 110.32 47.47 110.59 47.19 117.66"/><path d="M44.51,117.52a5.39,5.39,0,0,1,0,1,1.7,1.7,0,0,1-.74,1.35c-.87.54-2.35,2.21-2.77,7.29a.44.44,0,0,1-.43.43h0a.86.86,0,0,1-.74-.93l.28-6.82a1.39,1.39,0,0,1,.38-.92l1.43-1.49Z" style="fill:#aeb1b0"/><path d="M44.32,117.51a5,5,0,0,0-.09.95,1.69,1.69,0,0,0,.71,1.42c.92.64,2.44,2.47,2.46,7.57a.48.48,0,0,0,.45.47h0a.86.86,0,0,0,.9-.84l.28-6.82a1.4,1.4,0,0,0-.34-1l-1.48-1.64Z" style="fill:#9a9f9a"/><rect x="69.96" y="55.02" width="9.71" height="2.74" style="fill:#273747"/><polygon points="42.79 79.82 42.79 95.2 47.96 95.2 50.84 80.84 42.79 79.82" style="fill:#3c3936"/><path d="M48.75,101.45,46,104c-1.62,1.51-4,.18-4-2.21V95.1h6.78Z" style="fill:#6a7587"/><path d="M67,157.62h-.35v-1.43H67a4.36,4.36,0,0,0,4.35-4.34v-9.16a4.36,4.36,0,0,0-1-2.78l-1.91-2.3,1.09-.91L71.43,139a5.75,5.75,0,0,1,1.33,3.68v9.16A5.78,5.78,0,0,1,67,157.62Z"/><polygon points="67.71 49.36 64.83 49.36 58.19 55.28 58.19 66.77 60.51 78.72 75.15 60.5 71.94 55.02 67.71 49.36" style="fill:#6a7587"/><polygon points="58.19 55.02 52.87 54.65 52.87 71.4 58.19 66.77 58.19 55.02" style="fill:#31455b"/><polygon points="52.87 59.71 38.85 59.71 46.76 53.23 52.87 53.23 52.87 59.71"/><polygon points="42.54 75.98 52.75 86.19 52.75 75.98 42.54 75.98" style="fill:#6a7587"/><polygon points="42.54 75.98 41.1 82.6 46.55 90.42 52.75 86.19 42.54 75.98" style="fill:#31455b"/><polygon points="41.1 82.6 41.1 95.17 43.47 95.17 46.55 90.42 41.1 82.6"/><polygon points="43.47 95.17 49.27 95.17 52.75 86.19 46.55 90.42 45.86 91.49 43.47 95.17" style="fill:#c9babf"/><polygon points="60.51 78.72 60.51 81.89 67.25 85.29 75.15 85.29 75.15 60.5 60.51 78.72" style="fill:#47515f"/><polygon points="60.51 81.89 59.35 81.89 59.35 86.19 70.26 91.37 75.15 91.37 75.15 85.29 67.25 85.29 60.51 81.89" style="fill:#535e71"/><polygon points="62.59 87.73 60.85 90.42 64.96 95.17 67.83 90.22 62.59 87.73" style="fill:#6a7587"/><polygon points="60.85 90.42 57.45 96.19 71.13 111.36 73.58 106.39 64.96 95.17 60.85 90.42" style="fill:#435162"/><polygon points="73.58 106.39 74.96 105.01 74.96 99.99 68.66 99.99 73.58 106.39" style="fill:#313c46"/><polygon points="74.96 99.99 74.96 91.37 70.26 91.37 67.83 90.22 64.96 95.17 68.66 99.99 74.96 99.99" style="fill:#273747"/><path d="M66.67,124.56l-8.32,3.32a2.84,2.84,0,0,0-1.32,4.2A21.4,21.4,0,0,1,60.49,143Z" style="fill:#0b1d2d"/><polygon points="68.66 121 71.81 124.25 69.23 137.99 61.61 150.72 59.03 147.24 66.67 124.56 68.66 121" style="fill:#273747"/><rect x="60.14" y="161.15" width="9.25" height="4.58" style="fill:#3c3936"/><polygon points="61.54 162.49 59.88 162.49 56.56 169.75 61.54 169.75 61.54 162.49" style="fill:#191819"/><polygon points="67.99 162.49 69.65 162.49 72.97 169.75 67.99 169.75 67.99 162.49" style="fill:#191819"/><polygon points="64.33 169.75 65.19 169.75 66.91 162.49 65.19 162.49 64.33 162.49 62.62 162.49 64.33 169.75" style="fill:#191819"/><path d="M70.93,105.68l-.22-.07-.29.91.21.07a2.92,2.92,0,0,1,1.87,3.67l-1.91,5.82a2.93,2.93,0,0,1-1.21,1.56l-1.7,1.07.5.8,1.7-1.07a3.89,3.89,0,0,0,1.62-2.06l1.9-5.83A3.87,3.87,0,0,0,70.93,105.68Z"/><circle cx="70.63" cy="106.05" r="1.42"/><path d="M57.06,100.89a2.29,2.29,0,1,1-2.29-2.29A2.3,2.3,0,0,1,57.06,100.89Z" style="fill:#0c0a0d"/><circle cx="54.77" cy="105.52" r="1.53" style="fill:#0c0a0d"/><polygon points="52.87 53.23 58.19 55.02 52.87 54.65 52.87 53.23" style="fill:#6a7587"/><path d="M68.59,85.29a1.34,1.34,0,1,1-1.34-1.35A1.34,1.34,0,0,1,68.59,85.29Z" style="fill:#1e1d1c"/><path d="M59.53,55a1.35,1.35,0,0,1-2.69,0,1.35,1.35,0,1,1,2.69,0Z" style="fill:#1e1d1c"/><polygon points="107.51 79.66 107.51 95.09 102.34 95.09 99.47 80.68 107.51 79.66" style="fill:#3c3936"/><path d="M106.84,98l-2.93.15a1.31,1.31,0,0,0-1.1,1.52l1.6,9.08,3-.16.67-9.17A1.26,1.26,0,0,0,106.84,98Z" style="fill:#485264"/><polygon points="103.62 115.09 108.89 114.81 108.6 107.72 103.34 108 103.62 115.09" style="fill:#020409"/><path d="M106.3,115a4.87,4.87,0,0,0,0,1,1.71,1.71,0,0,0,.73,1.35c.87.54,2.35,2.22,2.77,7.31a.44.44,0,0,0,.43.43h0a.85.85,0,0,0,.74-.93l-.28-6.84a1.4,1.4,0,0,0-.38-.93l-1.43-1.49Z" style="fill:#aeb1b0"/><path d="M106.49,114.94a4.31,4.31,0,0,1,.09,1,1.71,1.71,0,0,1-.71,1.43c-.92.64-2.44,2.48-2.46,7.59a.48.48,0,0,1-.44.48h0a.88.88,0,0,1-.91-.85l-.28-6.84a1.4,1.4,0,0,1,.34-1l1.48-1.65Z" style="fill:#9a9f9a"/><path d="M101.55,101.4l2.76,2.57c1.61,1.5,4,.18,4-2.2V95.09h-6.78Z" style="fill:#6a7587"/><path d="M83.32,157.61h.34v-1.42h-.34A4.35,4.35,0,0,1,79,151.84v-9.15a4.35,4.35,0,0,1,1-2.78l1.91-2.31-1.09-.91L78.87,139a5.86,5.86,0,0,0-1.33,3.69v9.15A5.77,5.77,0,0,0,83.32,157.61Z"/><polygon points="82.59 49.36 85.48 49.36 92.11 55.28 92.11 66.76 89.8 78.72 75.15 60.49 78.36 55.01 82.59 49.36" style="fill:#4c5460"/><polygon points="92.11 55.01 97.53 54.65 97.53 71.4 92.11 66.76 92.11 55.01" style="fill:#131518"/><polygon points="97.44 59.7 111.45 59.7 103.55 53.22 97.44 53.22 97.44 59.7" style="fill:#252424"/><polygon points="107.76 75.81 97.55 86.05 97.55 75.81 107.76 75.81" style="fill:#6a7587"/><polygon points="107.76 75.81 109.2 82.45 103.75 90.3 97.55 86.05 107.76 75.81" style="fill:#31455b"/><polygon points="109.2 82.45 109.2 95.06 106.83 95.06 103.75 90.3 109.2 82.45"/><polygon points="106.83 95.06 101.03 95.06 97.55 86.05 103.75 90.3 104.44 91.36 106.83 95.06" style="fill:#c9babf"/><polygon points="89.8 78.72 89.8 81.89 83.05 85.29 75.15 85.29 75.15 60.49 89.8 78.72" style="fill:#323e4a"/><polygon points="89.8 81.89 90.95 81.89 90.95 86.19 80.05 91.37 75.15 91.37 75.15 85.29 83.05 85.29 89.8 81.89" style="fill:#4d4d4b"/><polygon points="87.71 87.73 89.45 90.42 85.34 95.16 82.47 90.22 87.71 87.73" style="fill:#535e71"/><polygon points="89.45 90.42 92.85 96.19 79.18 111.36 76.73 106.38 85.34 95.16 89.45 90.42" style="fill:#3b485a"/><polygon points="76.73 106.38 75.35 105 75.35 99.98 81.64 99.98 76.73 106.38" style="fill:#313c46"/><polygon points="75.35 99.98 75.35 91.37 80.05 91.37 82.47 90.22 85.34 95.16 81.64 99.98 75.35 99.98" style="fill:#0b1d2d"/><path d="M83.63,124.56,92,127.87a2.84,2.84,0,0,1,1.32,4.21A21.37,21.37,0,0,0,89.82,143Z" style="fill:#0b1d2d"/><polygon points="81.64 121 78.49 124.24 81.07 137.99 88.69 150.71 91.27 147.24 83.63 124.56 81.64 121" style="fill:#273747"/><rect x="80.92" y="161.14" width="9.25" height="4.58" transform="translate(171.08 326.87) rotate(180)" style="fill:#292624"/><polygon points="88.77 162.49 90.42 162.49 93.74 169.75 88.77 169.75 88.77 162.49"/><polygon points="82.31 162.49 80.65 162.49 77.33 169.75 82.31 169.75 82.31 162.49"/><polygon points="85.97 169.75 85.11 169.75 83.39 162.49 85.11 162.49 85.97 162.49 87.68 162.49 85.97 169.75"/><path d="M79.37,105.68l.22-.07.3.9-.22.08a2.9,2.9,0,0,0-1.86,3.67l1.9,5.82a2.94,2.94,0,0,0,1.22,1.56l1.7,1.06-.51.81-1.7-1.07a3.86,3.86,0,0,1-1.61-2.07l-1.91-5.82A3.87,3.87,0,0,1,79.37,105.68Z"/><circle cx="79.67" cy="106.05" r="1.42"/><path d="M93.24,100.89a2.3,2.3,0,1,0,2.29-2.29A2.29,2.29,0,0,0,93.24,100.89Z" style="fill:#0c0a0d"/><path d="M94,105.51A1.53,1.53,0,1,0,95.53,104,1.52,1.52,0,0,0,94,105.51Z" style="fill:#0c0a0d"/><polygon points="97.44 53.22 92.11 55.01 97.44 54.65 97.44 53.22" style="fill:#0c0a0d"/><path d="M81.71,85.29a1.35,1.35,0,1,0,1.34-1.35A1.34,1.34,0,0,0,81.71,85.29Z" style="fill:#1e1d1c"/><path d="M90.77,55a1.35,1.35,0,1,0,1.35-1.34A1.34,1.34,0,0,0,90.77,55Z" style="fill:#1e1d1c"/><rect x="74.48" y="91.37" width="1.39" height="14.24" style="fill:#263037"/><path d="M108.47,71.25l-.11-.12c-1.21.25-2.13.43-2.46-.28a6,6,0,0,0-1.11.84c-1.64,1.5.41,2.61,1.3,1.68a1.28,1.28,0,0,1,1.8-.26,1.93,1.93,0,0,1,.36-.06c-.47-.3.14-.73.83-1.17a.69.69,0,0,1,0-.13A3,3,0,0,1,108.47,71.25Z" style="fill:#c9babf"/><path d="M109,68.46a9.43,9.43,0,0,0,1.17.7l.15.06.84-.12.27-.54V66.69C109.76,66.49,108.78,67.21,109,68.46Z" style="fill:#c9babf"/><path d="M105.92,75.81h1.82l.14-.28A1.75,1.75,0,0,0,105.92,75.81Z" style="fill:#c9babf"/><path d="M105.65,68.37a1.37,1.37,0,0,1,1.94-.71c.72-.58,1.13-1,0-1.37a10.26,10.26,0,0,1-2.46-1.09c-.38.39-.5.73.29,1,1.55.56-1.1,2.62-2.06.87,0,0,0,0-.08,0v2.11h0C103.86,69.68,104.91,69.77,105.65,68.37Z" style="fill:#c9babf"/><path d="M103.23,60.51a.59.59,0,0,1,.39.92,2.27,2.27,0,0,0-.19.48c.46.27.6.72,1.13.52,1.22-.47.39-.48.82-1.19s2.57.13,2.18.73c-1,1.45-2-.1-2.25,1.09l0,.21h.31l.23,0a4.15,4.15,0,0,1,1.47.07c.34-.12.6-.12.65.2,1.68.65,2.53,1.91,3.45-.8V61.37c-1.16.89-1.5,2.32-2.83.83a1.8,1.8,0,0,1,.12-2.5H108a2.54,2.54,0,0,1-.6.46c-1.66,1-2.19.41-3.27-.46h-.91v.8Z" style="fill:#c9babf"/><path d="M103.23,75.12v.69h.23l-.12-.43C103.33,75.32,103.34,75.17,103.23,75.12Z" style="fill:#c9babf"/><path d="M106.43,63.7a9,9,0,0,1,.86-.39,4.15,4.15,0,0,0-1.47-.07l-.23,0C106,63.3,106.42,63.41,106.43,63.7Z" style="fill:#31455b"/><path d="M108.36,71.13a1.79,1.79,0,0,0-2.46-.28C106.23,71.56,107.15,71.38,108.36,71.13Z" style="fill:#31455b"/><path d="M107.94,63.51a2,2,0,0,1,0,.23c-.17,1.62-1.65.89-2.48,1.13l-.37.33a10.26,10.26,0,0,0,2.46,1.09c1.18.35.77.79,0,1.37a8,8,0,0,1,1.37.8c-.18-1.25.8-2,2.43-1.77v-4C110.47,65.42,109.62,64.16,107.94,63.51Z" style="fill:#31455b"/><path d="M108.56,62.2c1.33,1.49,1.67.06,2.83-.83V59.7h-2.71A1.8,1.8,0,0,0,108.56,62.2Z" style="fill:#31455b"/><path d="M109.08,71.88c-.69.44-1.3.87-.83,1.17a2,2,0,0,1,.35,0h.54l.38-.75A.77.77,0,0,1,109.08,71.88Z" style="fill:#31455b"/><path d="M97.53,61.65V62l.19,0A1.13,1.13,0,0,0,97.53,61.65Z" style="fill:#c9babf"/><path d="M103.23,75.12v-.05c-.73-2-2.11,1.47-3.23.49a1.43,1.43,0,0,1-.53-1c-.2.34-1.06.5-1.94.23v1h5.7Z" style="fill:#c9babf"/><path d="M99.49,74.26c.13-.72.91-1.33,2.19-1.16,2,.27,1.41-1.6,1.41-1.6-.13-.93-.47-1-1.45-1.34s-1.13-1.19-.46-2.54,1.56-.3,1.59.64a1.23,1.23,0,0,0,.46.92V67c-.64-1.21-1.09-3.62-1.94-4.43a5.16,5.16,0,0,1-.7-.18l-.17,0a1.78,1.78,0,0,0-.58.39,1.27,1.27,0,0,0,0,.39c.37.31.77.56.74.88.78-.14,1.71.12,1.26,1.2s-1.37.93-2.44.35c0,.49-.11.62-.78-.11a1.68,1.68,0,0,0-1-.57V66.7h.08c3.16.15,2.09,2.63.86,2.2a1.06,1.06,0,0,0-.94.08v3.93a7.65,7.65,0,0,1,1.69,1A.73.73,0,0,1,99.49,74.26Z" style="fill:#c9babf"/><path d="M99.37,59.84c0,.1,0,.19.07.29,1.22,1.16,2.12.22,2.12.22a4.27,4.27,0,0,1,1.67.15v-.8H102a3.52,3.52,0,0,1-1.41.63A2.21,2.21,0,0,1,99.37,59.84Z" style="fill:#c9babf"/><path d="M99.44,60.13c0-.1,0-.19-.07-.29l-.17-.14h-.15A3.34,3.34,0,0,0,99.44,60.13Z" style="fill:#31455b"/><path d="M100.48,64.06h0c0-.32-.37-.57-.74-.88C99.82,63.65,100.09,64.15,100.48,64.06Z" style="fill:#31455b"/><path d="M98,62c.86-1,.4-1.16-.47-1.19v.84a1.13,1.13,0,0,1,.19.38A1.27,1.27,0,0,0,98,62Z" style="fill:#31455b"/><path d="M99.47,74.55a1.42,1.42,0,0,1,0-.29.73.73,0,0,0-.27-.3,7.65,7.65,0,0,0-1.69-1v1.86C98.41,75.05,99.27,74.89,99.47,74.55Z" style="fill:#31455b"/><path d="M103.23,66.36h0c-.62-.63-.14-1.26-.26-2.4s-.8-1.15-1.68-1.34c.85.81,1.3,3.22,1.94,4.43v0c.11,0,.07,0,.08,0,1,1.75,3.61-.31,2.06-.87-.79-.29-.67-.63-.29-1l.37-.33a.76.76,0,0,0-.28.15c-.91.8-.94,2-1.52,1.64A2.54,2.54,0,0,0,103.23,66.36Z" style="fill:#6a7587"/><path d="M105.28,63.27c-.12.93.48.73,1.15.43,0-.29-.39-.4-.84-.43Z" style="fill:#6a7587"/><path d="M110.13,69.16a9.43,9.43,0,0,1-1.17-.7,8,8,0,0,0-1.37-.8,1.37,1.37,0,0,0-1.94.71c-.74,1.4-1.79,1.31-2.42.82h0a1.23,1.23,0,0,1-.46-.92c0-.94-.92-2-1.59-.64s-.53,2.22.46,2.54,1.32.41,1.45,1.34c0,0,.63,1.87-1.41,1.6-1.28-.17-2.06.44-2.19,1.16a1.33,1.33,0,0,0,.51,1.3c1.12,1,2.5-2.53,3.23-.49v.05c.11,0,.1.2.11.26l.12.43h2.46a1.75,1.75,0,0,1,2-.28l.58-1.15a8.22,8.22,0,0,1-1.12.38c-1.29.32-1-1.29.55-1.65a1.28,1.28,0,0,0-1.8.26c-.89.93-2.94-.18-1.3-1.68a6,6,0,0,1,1.11-.84,1.79,1.79,0,0,1,2.46.28l.11.12a3,3,0,0,0,.56.5c-.3-.87.28-2.41,1.11-2.51l.14,0Z" style="fill:#6a7587"/><path d="M107.41,60.16a2.54,2.54,0,0,0,.6-.46h-3.87C105.22,60.57,105.75,61.13,107.41,60.16Z" style="fill:#6a7587"/><path d="M98.57,65.49c.67.73.79.6.78.11L99,65.39c-1.11-.7-.14-1.82-1.45-2v1.56A1.68,1.68,0,0,1,98.57,65.49Z" style="fill:#6a7587"/><path d="M97.61,66.71h-.08V69a1.06,1.06,0,0,1,.94-.08C99.7,69.34,100.77,66.86,97.61,66.71Z" style="fill:#6a7587"/><path d="M98,62a.92.92,0,0,0,.56-.76c.4-1.69,2,0,4,.37a3.33,3.33,0,0,1,.63.2h0l.2.09a2.27,2.27,0,0,1,.19-.48.59.59,0,0,0-.39-.92h0a4.27,4.27,0,0,0-1.67-.15s-.9.94-2.12-.22a3.34,3.34,0,0,1-.39-.43H97.53v1.11C98.4,60.84,98.86,61,98,62Z" style="fill:#6a7587"/><path d="M99.84,62.78a1.78,1.78,0,0,1,.58-.39A.5.5,0,0,0,99.84,62.78Z" style="fill:#6a7587"/><path d="M100.59,60.33A3.52,3.52,0,0,0,102,59.7H99.2l.17.14A2.21,2.21,0,0,0,100.59,60.33Z" style="fill:#6a7587"/><path d="M107.93,63.74a2,2,0,0,0,0-.23c0-.32-.31-.32-.65-.2a9,9,0,0,0-.86.39c-.67.3-1.27.5-1.15-.43l0-.21c.25-1.19,1.3.36,2.25-1.09.39-.6-1.7-1.53-2.18-.73s.4.72-.82,1.19c-.53.2-.67-.25-1.13-.52l-.2-.09h0a3.33,3.33,0,0,0-.63-.2c-2.08-.4-3.64-2.06-4-.37A.92.92,0,0,1,98,62a1.27,1.27,0,0,1-.28,0l-.19,0v1.36c1.31.21.34,1.33,1.45,2l.37.21c1.07.58,2,.63,2.44-.35s-.48-1.34-1.26-1.2h0c-.39.09-.66-.41-.69-.89a1.27,1.27,0,0,1,0-.39.5.5,0,0,1,.58-.39l.17,0a5.16,5.16,0,0,0,.7.18c.88.19,1.57.29,1.68,1.34s-.36,1.77.26,2.4h0a2.54,2.54,0,0,1,.42.3c.58.39.61-.84,1.52-1.64a.76.76,0,0,1,.28-.15C106.28,64.63,107.76,65.36,107.93,63.74Z"/><path d="M108.6,73a2,2,0,0,0-.35,0,1.93,1.93,0,0,0-.36.06c-1.54.36-1.84,2-.55,1.65a8.22,8.22,0,0,0,1.12-.38l.68-1.34Z"/><path d="M110.28,69.22l-.14,0c-.83.1-1.41,1.64-1.11,2.51a.69.69,0,0,0,0,.13.77.77,0,0,0,.44.41l1.6-3.19Z"/><path d="M41.49,71.37l.12-.12c1.26.26,2.21.44,2.55-.29a6.87,6.87,0,0,1,1.16.86c1.71,1.55-.43,2.69-1.36,1.73a1.34,1.34,0,0,0-1.86-.27l-.38-.06c.49-.31-.14-.75-.86-1.2l.06-.13A3.57,3.57,0,0,0,41.49,71.37Z" style="fill:#c9babf"/><path d="M41,68.5a8.29,8.29,0,0,1-1.21.72.52.52,0,0,0-.15.07c-.3,0-.6-.1-.88-.13l-.28-.55V66.68C40.15,66.47,41.17,67.22,41,68.5Z" style="fill:#c9babf"/><path d="M44.15,76.06h-1.9l-.15-.29A1.87,1.87,0,0,1,44.15,76.06Z" style="fill:#c9babf"/><path d="M44.42,68.41a1.42,1.42,0,0,0-2-.73c-.75-.59-1.18-1.05.05-1.41A10.28,10.28,0,0,0,45,65.16c.4.39.53.75-.29,1-1.62.58,1.14,2.7,2.14.9,0,0,0,0,.08,0v2.17h0C46.28,69.76,45.19,69.86,44.42,68.41Z" style="fill:#c9babf"/><path d="M46.94,60.33c-.44.16-.65.44-.4.94a3.56,3.56,0,0,1,.19.5c-.48.28-.62.74-1.17.53-1.27-.48-.41-.49-.85-1.22s-2.68.14-2.27.76c1,1.48,2.08-.11,2.34,1.12l0,.21c-.11,0-.22,0-.32,0l-.24,0a4,4,0,0,0-1.53.07c-.36-.13-.63-.13-.67.2-1.76.68-2.63,2-3.59-.82V61.22c1.21.91,1.56,2.39,2.94.85a1.83,1.83,0,0,0-.13-2.57H42a2.63,2.63,0,0,0,.61.47c1.73,1,2.28.42,3.4-.47h.95v.82Z" style="fill:#c9babf"/><path d="M46.94,75.35v.71H46.7c0-.15.09-.3.12-.44S46.83,75.4,46.94,75.35Z" style="fill:#c9babf"/><path d="M43.62,63.61c-.31-.14-.63-.31-.9-.4a4,4,0,0,1,1.53-.07l.24,0C44,63.2,43.63,63.31,43.62,63.61Z" style="fill:#31455b"/><path d="M41.61,71.25A1.88,1.88,0,0,1,44.16,71C43.82,71.69,42.87,71.51,41.61,71.25Z" style="fill:#31455b"/><path d="M42.05,63.41a1,1,0,0,0,0,.24c.18,1.67,1.72.91,2.58,1.16l.38.35a10.28,10.28,0,0,1-2.55,1.11c-1.23.36-.8.82-.05,1.41A8,8,0,0,0,41,68.5c.19-1.28-.83-2-2.52-1.82V62.59C39.42,65.38,40.29,64.09,42.05,63.41Z" style="fill:#31455b"/><path d="M41.4,62.07c-1.38,1.54-1.73.06-2.94-.85V59.5h2.81A1.83,1.83,0,0,1,41.4,62.07Z" style="fill:#31455b"/><path d="M40.86,72c.72.45,1.35.89.86,1.2H40.8l-.39-.77A.84.84,0,0,0,40.86,72Z" style="fill:#31455b"/><path d="M52.87,61.51v.35l-.2,0A1,1,0,0,1,52.87,61.51Z" style="fill:#c9babf"/><path d="M46.94,75.35v0c.76-2.1,2.19,1.51,3.35.51a1.49,1.49,0,0,0,.56-1c.21.34,1.1.51,2,.23v1.06H46.94Z" style="fill:#c9babf"/><path d="M50.83,74.47c-.14-.75-.95-1.37-2.28-1.2-2.12.28-1.47-1.64-1.47-1.64.15-1,.5-1,1.52-1.38s1.17-1.22.47-2.61-1.62-.31-1.65.66a1.28,1.28,0,0,1-.48.94V67.05c.66-1.25,1.14-3.72,2-4.56a7.05,7.05,0,0,0,.73-.18.42.42,0,0,1,.18,0,1.63,1.63,0,0,1,.61.4,1,1,0,0,1,0,.4c-.38.31-.8.57-.76.9-.81-.15-1.78.13-1.32,1.23s1.43,1,2.54.37c0,.5.12.63.82-.12a1.78,1.78,0,0,1,1.08-.59V66.7h-.09c-3.28.16-2.17,2.71-.9,2.27a1.1,1.1,0,0,1,1,.08v4a8,8,0,0,0-1.76,1.07A.72.72,0,0,0,50.83,74.47Z" style="fill:#c9babf"/><path d="M51,59.65a2.45,2.45,0,0,0-.08.29c-1.27,1.19-2.2.23-2.2.23a4.42,4.42,0,0,0-1.74.15V59.5h1.27a3.6,3.6,0,0,0,1.47.64A2.43,2.43,0,0,0,51,59.65Z" style="fill:#c9babf"/><path d="M50.88,59.94a2.45,2.45,0,0,1,.08-.29l.17-.15h.16A3.54,3.54,0,0,1,50.88,59.94Z" style="fill:#31455b"/><path d="M49.8,64h0c0-.33.38-.59.76-.9C50.49,63.56,50.21,64.07,49.8,64Z" style="fill:#31455b"/><path d="M52.38,61.86c-.89-1-.41-1.19.49-1.22v.87a1,1,0,0,0-.2.38A.7.7,0,0,1,52.38,61.86Z" style="fill:#31455b"/><path d="M50.85,74.77a1.51,1.51,0,0,0,0-.3.72.72,0,0,1,.28-.31,8,8,0,0,1,1.76-1.07V75C52,75.28,51.06,75.11,50.85,74.77Z" style="fill:#31455b"/><path d="M46.94,66.35v0c.65-.64.15-1.29.27-2.46S48,62.69,49,62.49c-.87.84-1.35,3.31-2,4.56v0c-.11,0-.07,0-.08,0-1,1.8-3.76-.32-2.14-.9.82-.29.69-.65.29-1l-.38-.35a.75.75,0,0,1,.29.16c.95.82,1,2.09,1.59,1.68A2.28,2.28,0,0,1,46.94,66.35Z" style="fill:#6a7587"/><path d="M44.81,63.17c.13,1-.5.75-1.19.44,0-.3.4-.41.87-.44C44.59,63.17,44.7,63.16,44.81,63.17Z" style="fill:#6a7587"/><path d="M39.77,69.22A8.29,8.29,0,0,0,41,68.5a8,8,0,0,1,1.43-.82,1.42,1.42,0,0,1,2,.73c.77,1.45,1.86,1.35,2.52.84h0a1.28,1.28,0,0,0,.48-.94c0-1,.95-2,1.65-.66s.55,2.28-.47,2.61-1.37.42-1.52,1.38c0,0-.65,1.92,1.47,1.64,1.33-.17,2.14.45,2.28,1.2a1.51,1.51,0,0,1,0,.3,1.49,1.49,0,0,1-.56,1c-1.16,1-2.59-2.61-3.35-.51v0c-.11.05-.1.2-.12.27s-.08.29-.12.44H44.15a1.87,1.87,0,0,0-2-.29l-.6-1.18a8.92,8.92,0,0,0,1.17.39c1.34.33,1-1.32-.57-1.7a1.34,1.34,0,0,1,1.86.27c.93,1,3.07-.18,1.36-1.73A6.87,6.87,0,0,0,44.16,71a1.88,1.88,0,0,0-2.55.29l-.12.12a3.57,3.57,0,0,1-.57.52c.31-.9-.3-2.48-1.16-2.58l-.14,0A.52.52,0,0,1,39.77,69.22Z" style="fill:#6a7587"/><path d="M42.59,60A2.63,2.63,0,0,1,42,59.5h4C44.87,60.39,44.32,61,42.59,60Z" style="fill:#6a7587"/><path d="M51.79,65.45c-.7.75-.83.62-.82.12l.39-.22c1.15-.72.15-1.87,1.51-2.09v1.6A1.78,1.78,0,0,0,51.79,65.45Z" style="fill:#6a7587"/><path d="M52.78,66.7h.09v2.35a1.1,1.1,0,0,0-1-.08C50.61,69.41,49.5,66.86,52.78,66.7Z" style="fill:#6a7587"/><path d="M52.38,61.86a1,1,0,0,1-.59-.78c-.41-1.74-2,0-4.2.38a3.54,3.54,0,0,0-.65.21h0a1,1,0,0,0-.21.09,3.56,3.56,0,0,0-.19-.5c-.25-.5,0-.78.4-.94h0a4.42,4.42,0,0,1,1.74-.15s.93,1,2.2-.23a3.54,3.54,0,0,0,.41-.44h1.58v1.14C52,60.67,51.49,60.86,52.38,61.86Z" style="fill:#6a7587"/><path d="M50.47,62.67a1.63,1.63,0,0,0-.61-.4A.51.51,0,0,1,50.47,62.67Z" style="fill:#6a7587"/><path d="M49.68,60.14a3.6,3.6,0,0,1-1.47-.64h2.92l-.17.15A2.43,2.43,0,0,1,49.68,60.14Z" style="fill:#6a7587"/><path d="M42.05,63.65a1,1,0,0,1,0-.24c0-.33.31-.33.67-.2s.59.26.9.4c.69.31,1.32.51,1.19-.44l0-.21c-.26-1.23-1.35.36-2.34-1.12-.41-.62,1.77-1.58,2.27-.76s-.42.74.85,1.22c.55.21.69-.25,1.17-.53a1,1,0,0,1,.21-.09h0a3.54,3.54,0,0,1,.65-.21c2.17-.41,3.79-2.12,4.2-.38a1,1,0,0,0,.59.78.7.7,0,0,0,.29,0l.2,0v1.4c-1.36.22-.36,1.37-1.51,2.09l-.39.22c-1.11.59-2.1.65-2.54-.37s.51-1.38,1.32-1.23h0c.41.09.69-.42.71-.91a1,1,0,0,0,0-.4.51.51,0,0,0-.61-.4.42.42,0,0,0-.18,0,7.05,7.05,0,0,1-.73.18c-.91.2-1.62.29-1.74,1.38s.38,1.82-.27,2.46v0a2.28,2.28,0,0,0-.43.3c-.6.41-.64-.86-1.59-1.68a.75.75,0,0,0-.29-.16C43.77,64.56,42.23,65.32,42.05,63.65Z"/><path d="M41.36,73.21h.36l.38.06c1.59.38,1.91,2,.57,1.7a8.92,8.92,0,0,1-1.17-.39l-.7-1.38Z"/><path d="M39.62,69.29l.14,0c.86.1,1.47,1.68,1.16,2.58l-.06.13a.84.84,0,0,1-.45.42l-1.67-3.28C39,69.19,39.32,69.25,39.62,69.29Z"/><path d="M68.23,108.82a1.2,1.2,0,0,0-2.33.34l.63.46c.77.56.93,1.06.76,1.43a10.79,10.79,0,0,0,3.56,1l.24-.69-1.36-1.51C68.64,110.27,68.94,110.43,68.23,108.82Z" style="fill:#6a7587"/><path d="M59,100.89a2,2,0,0,0,.25.35,1.51,1.51,0,0,0,1.43.5,2.26,2.26,0,0,0,1.19-.61l-2.59-2.88v2.6H59C59.08,100.87,59,100.88,59,100.89Z" style="fill:#6e7688"/><path d="M66.73,121.44a1.67,1.67,0,0,1-1.79.54,1.07,1.07,0,0,0-.81,0c.48-.15.81-.1.74.56-.1,1-.57,1.27-1.15,1.35a3.16,3.16,0,0,0,2.31.82h0l.59-.24.84-1.49a.38.38,0,0,1,.12-.21l1-1.85-.4-.4C67.71,121.12,67.3,121.58,66.73,121.44Z" style="fill:#6e7688"/><path d="M68.28,114.61c-1.68-.55-3.34.16-2.2,1,.29.22.63.47,1,.71,1.1-.79,2.29-1.21,2.6-.92l.18-.52A4.26,4.26,0,0,1,68.28,114.61Z" style="fill:#6a7587"/><path d="M60,127.15l-.27-.8a.42.42,0,0,1-.28-.09c-.14-.1-.22-.19-.36-.29l.21,1.47Z" style="fill:#6e7688"/><path d="M67.29,111.05c.17-.37,0-.87-.76-1.43l-.63-.46a8.38,8.38,0,0,0-1.3-.81,3,3,0,0,0-2.33-1.48c-.62,0-1.35.59-2.11,1a2.13,2.13,0,0,1,.75-1.15,10.48,10.48,0,0,1,.9-.75c1.25-.89,2.2-1,3.07-.39a3.2,3.2,0,0,1,.66.58c.76.82,1.23,1,1.62.84l-4.65-5.16a2.06,2.06,0,0,0-.34.41,1.89,1.89,0,0,0-.17.28,2.68,2.68,0,0,1-1.31,1.34,1.76,1.76,0,0,1-1.74-.3v0a1.52,1.52,0,0,1-.58-1.15,1.89,1.89,0,0,0-.75-1.51h-.68a1.62,1.62,0,0,0-.58.71c-.13.27-.23.52-.32.75A2.24,2.24,0,0,0,56,104a1.4,1.4,0,0,0,.57.59,2.3,2.3,0,0,0,.39.17c1.24.4,1.66.51,1.83,1.69a1.88,1.88,0,0,1-.19,1.66,1.46,1.46,0,0,1-.59-.31,9.13,9.13,0,0,0-1.67-1.19l.86,6H58.5a3.53,3.53,0,0,1,.22-2.12,2.16,2.16,0,0,1,.23.48v0c.13.07.12.24.14.32a10.2,10.2,0,0,1,.31,1.27h2.33s-.1.09-.15.18l-.07.16a1.68,1.68,0,0,0,1-.34h0a3.58,3.58,0,0,0,1.16-.92c.12-.12.22-.25.32-.36a3.62,3.62,0,0,1,1,.3A1.88,1.88,0,0,0,67.29,111.05Z" style="fill:#0a1725"/><path d="M63,113.6c-.52-.45-1.09-.13-1.64.32.22.85,1.41,1.17,2.3,1.22A1.79,1.79,0,0,0,63,113.6Z" style="fill:#0a1725"/><path d="M59.13,118.72s-.36-1.07.19-1.66a1.38,1.38,0,0,0-.37,0h0a2.34,2.34,0,0,0-1.1.26l.39,2.65a4.93,4.93,0,0,1,.71.24h0c.79.29.91,1,1.67.76a3.3,3.3,0,0,0,.73-.35,1.53,1.53,0,0,0-.39-.17C59.73,120,59.3,119.89,59.13,118.72Z" style="fill:#0a1725"/><path d="M61.57,121.74c-.16.76,0,1.05.29,1.1a2.24,2.24,0,0,0,.06-1.68A.74.74,0,0,0,61.57,121.74Z" style="fill:#0a1725"/><path d="M69.67,115.41c-.31-.29-1.5.13-2.6.92-1.48,1.07-2.77,2.8-1.42,4.32a2.26,2.26,0,0,0,1.08.79c.57.14,1-.32,1.5-.88L68,120.3Z" style="fill:#0a1725"/><path d="M60.69,103.83A2.68,2.68,0,0,0,62,102.49a1.89,1.89,0,0,1,.17-.28,1.5,1.5,0,0,1-1.45-.47,1.51,1.51,0,0,1-1.43-.5,5.39,5.39,0,0,0,0,1.07A1.58,1.58,0,0,0,60.69,103.83Z" style="fill:#c9babf"/><path d="M60.91,106.68a2.13,2.13,0,0,0-.75,1.15c.76-.37,1.49-1,2.11-1a3,3,0,0,1,2.33,1.48,8.38,8.38,0,0,1,1.3.81,1.2,1.2,0,0,1,2.33-.34c.71,1.61.41,1.45,1.5,1L67.16,107c-.39.13-.86,0-1.62-.84a3.2,3.2,0,0,0-.66-.58s0,.11,0,.17c-.36,1.53-1.46.89-3,.22A10.48,10.48,0,0,0,60.91,106.68Z" style="fill:#c9babf"/><path d="M67.29,111.05a1.88,1.88,0,0,1-2.23.55,3.62,3.62,0,0,0-1-.3c-.1.11-.2.24-.32.36a3.58,3.58,0,0,1-1.16.92h0a1.68,1.68,0,0,1-1,.34,1.48,1.48,0,0,0-.13,1c.55-.45,1.12-.77,1.64-.32a1.79,1.79,0,0,1,.66,1.54H64c1.19,0,2.44,1.66.25,2.93s-2.81.45-4.29-.72a1.54,1.54,0,0,0-.6-.3c-.55.59-.19,1.66-.19,1.66.17,1.17.6,1.28,1.83,1.69a1.53,1.53,0,0,1,.39.17c.38-.3-.1-.47.3-1.14.6-1,3.24.17,2.74.92-.92,1.41-1.93.56-2.47.8a2.24,2.24,0,0,1-.06,1.68c.53.09,1.56-.59,2.27-.82a1.07,1.07,0,0,1,.81,0,1.67,1.67,0,0,0,1.79-.54,2.26,2.26,0,0,1-1.08-.79c-1.35-1.52-.06-3.25,1.42-4.32-.36-.24-.7-.49-1-.71-1.14-.85.52-1.56,2.2-1a4.26,4.26,0,0,0,1.57.28l.8-2.31.2-.57A10.79,10.79,0,0,1,67.29,111.05Z" style="fill:#c9babf"/><path d="M67.59,122.81a.38.38,0,0,0-.12.21Z" style="fill:#c9babf"/><path d="M63.72,123.93c-.8.12-1.82-.19-2.33.27-1,.86-1.15,2.12-1.64,2.15l.27.8,2.55-1c-.24-.61.29-1.14,2.05-1.37a4.9,4.9,0,0,1,1.38,0l0,0h0A3.16,3.16,0,0,1,63.72,123.93Z" style="fill:#c9babf"/><path d="M59.41,112.58h0a10.2,10.2,0,0,0-.31-1.27c0-.08,0-.25-.14-.32v0a2.16,2.16,0,0,0-.23-.48,3.53,3.53,0,0,0-.22,2.12H57.18l0,.2a1.45,1.45,0,0,1,.13.94l.29,2a1.26,1.26,0,0,0,1.32-.58v0A3.31,3.31,0,0,0,59.41,112.58Z" style="fill:#c9babf"/><path d="M58.58,108.1a1.88,1.88,0,0,0,.19-1.66c-.17-1.18-.59-1.29-1.83-1.69a2.3,2.3,0,0,1-.39-.17c-.38.3.1.47-.3,1.13a.35.35,0,0,1,0,.08l.12.81A9.13,9.13,0,0,1,58,107.79,1.46,1.46,0,0,0,58.58,108.1Z" style="fill:#c9babf"/><path d="M54.73,102.72V104c.5,0,1,.17,1.25,0a2.24,2.24,0,0,1,.06-1.68A2.84,2.84,0,0,0,54.73,102.72Z" style="fill:#c9babf"/><path d="M56.51,101l.12-.11h-1.9v.34C55.41,101.2,56.11,101.31,56.51,101Z" style="fill:#c9babf"/><path d="M64.83,105.71c0-.06,0-.12,0-.17-.87-.58-1.82-.5-3.07.39C63.37,106.6,64.47,107.24,64.83,105.71Z" style="fill:#31455b"/><path d="M62.17,102.21a2.06,2.06,0,0,1,.34-.41l-.6-.67a2.26,2.26,0,0,1-1.19.61A1.5,1.5,0,0,0,62.17,102.21Z" style="fill:#31455b"/><path d="M64.62,124.77c-1.76.23-2.29.76-2.05,1.37L66,124.77A4.9,4.9,0,0,0,64.62,124.77Z" style="fill:#31455b"/><path d="M63.72,123.93c.58-.08,1-.39,1.15-1.35.07-.66-.26-.71-.74-.56-.71.23-1.74.91-2.27.82-.3,0-.45-.34-.29-1.1a.74.74,0,0,1,.35-.58c.54-.24,1.55.61,2.47-.8.5-.75-2.14-1.92-2.74-.92-.4.67.08.84-.3,1.14a3.3,3.3,0,0,1-.73.35c-.76.29-.88-.47-1.67-.76h0a4.93,4.93,0,0,0-.71-.24l.71,5,.16,1.08c.14.1.22.19.36.29a.42.42,0,0,0,.28.09c.49,0,.66-1.29,1.64-2.15C61.9,123.74,62.92,124.05,63.72,123.93Z" style="fill:#31455b"/><path d="M58.37,102.36a1.52,1.52,0,0,0,.58,1.15v0a1.76,1.76,0,0,0,1.74.3,1.58,1.58,0,0,1-1.41-1.52,5.39,5.39,0,0,1,0-1.07,2,2,0,0,1-.25-.35s0,0-.09,0H57.62A1.89,1.89,0,0,1,58.37,102.36Z" style="fill:#31455b"/><path d="M56.51,101c-.4.35-1.1.24-1.78.23v1.53a2.84,2.84,0,0,1,1.31-.41c.09-.23.19-.48.32-.75a1.62,1.62,0,0,1,.58-.71h-.31Z" style="fill:#31455b"/><path d="M56,104c-.3.14-.75-.07-1.25,0v1.51h1.43l0,.32a.35.35,0,0,0,0-.08c.4-.66-.08-.83.3-1.13A1.4,1.4,0,0,1,56,104Z" style="fill:#31455b"/><path d="M57.34,113.72a1.45,1.45,0,0,0-.13-.94Z" style="fill:#31455b"/><path d="M59,117h0a1.38,1.38,0,0,1,.37,0,1.54,1.54,0,0,1,.6.3c1.48,1.17,2.11,2,4.29.72s.94-2.94-.25-2.93h-.28c-.89,0-2.08-.37-2.3-1.22a1.48,1.48,0,0,1,.13-1l.07-.16c.05-.09.1-.18.15-.18H59.41A3.31,3.31,0,0,1,59,115.1v0a1.26,1.26,0,0,1-1.32.58l.22,1.57A2.34,2.34,0,0,1,59,117Z" style="fill:#31455b"/><path d="M82,108.87a1.2,1.2,0,0,1,2.32.35l-.62.45c-.77.57-.93,1.07-.76,1.44a10.48,10.48,0,0,1-3.56,1l-.24-.68,1.35-1.51C81.63,110.33,81.33,110.49,82,108.87Z" style="fill:#6a7587"/><path d="M91.23,101a2.41,2.41,0,0,1-.25.35,1.49,1.49,0,0,1-1.44.49,2.1,2.1,0,0,1-1.18-.61L91,98.31v2.6h.37C91.19,100.93,91.23,100.94,91.23,101Z" style="fill:#6e7688"/><path d="M83.54,121.5a1.67,1.67,0,0,0,1.79.54,1,1,0,0,1,.81,0c-.48-.16-.81-.1-.74.56.1,1,.57,1.27,1.14,1.35a3.15,3.15,0,0,1-2.3.82h0l-.6-.24-.83-1.49a.45.45,0,0,0-.12-.21l-1-1.85.4-.4C82.55,121.18,83,121.64,83.54,121.5Z" style="fill:#6e7688"/><path d="M82,114.67c1.68-.55,3.34.16,2.2,1-.29.22-.63.47-1,.71-1.09-.79-2.28-1.21-2.59-.93l-.18-.52A4,4,0,0,0,82,114.67Z" style="fill:#6a7587"/><path d="M90.25,127.21l.27-.8a.44.44,0,0,0,.28-.09c.14-.1.22-.19.36-.29L91,127.5Z" style="fill:#6e7688"/><path d="M83,111.11c-.17-.37,0-.87.76-1.44l.62-.45a8.9,8.9,0,0,1,1.31-.81A3,3,0,0,1,88,106.93a6.18,6.18,0,0,1,2.12,1,2.24,2.24,0,0,0-.75-1.16c-.32-.29-.62-.53-.9-.74-1.25-.89-2.2-1-3.07-.39a3.52,3.52,0,0,0-.67.58c-.75.82-1.22,1-1.61.84l4.64-5.16a2,2,0,0,1,.35.4,2.75,2.75,0,0,1,.17.29,2.73,2.73,0,0,0,1.31,1.34,1.76,1.76,0,0,0,1.74-.3v0a1.54,1.54,0,0,0,.58-1.15,1.89,1.89,0,0,1,.75-1.51h.68a1.61,1.61,0,0,1,.57.71,4.68,4.68,0,0,1,.32.75,2.19,2.19,0,0,1,.06,1.68,1.29,1.29,0,0,1-.57.59,2.7,2.7,0,0,1-.38.17c-1.24.4-1.66.51-1.83,1.68,0,0-.36,1.07.19,1.66a1.5,1.5,0,0,0,.59-.3A8.8,8.8,0,0,1,94,106.66l-.86,6H91.77a3.66,3.66,0,0,0-.22-2.13,2.4,2.4,0,0,0-.23.48v.06c-.13.07-.12.24-.14.31a10.79,10.79,0,0,0-.31,1.28H88.54s.1.09.15.18l.07.16a1.75,1.75,0,0,1-1-.34h0a3.72,3.72,0,0,1-1.16-.92l-.32-.37a4.68,4.68,0,0,0-1,.3A1.87,1.87,0,0,1,83,111.11Z" style="fill:#0a1725"/><path d="M87.25,113.66c.52-.45,1.09-.13,1.64.32-.22.85-1.41,1.17-2.3,1.22A1.79,1.79,0,0,1,87.25,113.66Z" style="fill:#0a1725"/><path d="M91.14,118.78s.36-1.07-.19-1.66a1.38,1.38,0,0,1,.37-.05h0a2.28,2.28,0,0,1,1.09.27L92,120a3.7,3.7,0,0,0-.71.24h0c-.79.28-.92,1-1.67.76a3.2,3.2,0,0,1-.73-.36,2,2,0,0,1,.39-.16C90.54,120.06,91,120,91.14,118.78Z" style="fill:#0a1725"/><path d="M88.7,121.79c.16.77,0,1.06-.29,1.11a2.24,2.24,0,0,1-.06-1.68C88.51,121.29,88.63,121.46,88.7,121.79Z" style="fill:#0a1725"/><path d="M80.6,115.46c.31-.28,1.5.14,2.59.93,1.49,1.07,2.78,2.8,1.43,4.32a2.41,2.41,0,0,1-1.08.79c-.57.14-1-.32-1.5-.88l.25-.26Z" style="fill:#0a1725"/><path d="M89.58,103.89a2.73,2.73,0,0,1-1.31-1.34,2.75,2.75,0,0,0-.17-.29,1.43,1.43,0,0,0,1.44-.47A1.49,1.49,0,0,0,91,101.3a5.28,5.28,0,0,1,0,1.06A1.59,1.59,0,0,1,89.58,103.89Z" style="fill:#c9babf"/><path d="M89.36,106.73a2.24,2.24,0,0,1,.75,1.16,6.18,6.18,0,0,0-2.12-1,3,3,0,0,0-2.32,1.48,8.9,8.9,0,0,0-1.31.81,1.2,1.2,0,0,0-2.32-.35c-.71,1.62-.41,1.46-1.51,1L83.11,107c.39.12.86,0,1.61-.84a3.52,3.52,0,0,1,.67-.58c0,.05,0,.11,0,.17.36,1.53,1.46.89,3,.22C88.74,106.2,89,106.44,89.36,106.73Z" style="fill:#c9babf"/><path d="M83,111.11a1.87,1.87,0,0,0,2.22.54,4.68,4.68,0,0,1,1-.3l.32.37a3.72,3.72,0,0,0,1.16.92h0a1.75,1.75,0,0,0,1,.34,1.54,1.54,0,0,1,.13,1c-.55-.45-1.12-.77-1.64-.32a1.79,1.79,0,0,0-.66,1.54h-.28c-1.19,0-2.44,1.65-.26,2.93s2.82.45,4.3-.72a1.48,1.48,0,0,1,.6-.3c.55.59.19,1.66.19,1.66-.17,1.17-.6,1.28-1.83,1.69a2,2,0,0,0-.39.16c-.39-.29.1-.46-.3-1.13-.61-1-3.24.17-2.75.92.93,1.41,1.93.56,2.48.8a2.24,2.24,0,0,0,.06,1.68c-.53.09-1.56-.6-2.27-.82a1,1,0,0,0-.81,0,1.67,1.67,0,0,1-1.79-.54,2.41,2.41,0,0,0,1.08-.79c1.35-1.52.06-3.25-1.43-4.32.37-.24.71-.49,1-.71,1.14-.85-.52-1.56-2.2-1a4,4,0,0,1-1.57.27l-.8-2.3-.2-.58A10.48,10.48,0,0,0,83,111.11Z" style="fill:#c9babf"/><path d="M82.68,122.87a.45.45,0,0,1,.12.21Z" style="fill:#c9babf"/><path d="M86.54,124c.81.12,1.82-.19,2.34.27,1,.86,1.15,2.12,1.64,2.15l-.27.8-2.56-1c.25-.6-.28-1.13-2-1.36a4.9,4.9,0,0,0-1.38,0l0,0h0A3.15,3.15,0,0,0,86.54,124Z" style="fill:#c9babf"/><path d="M90.86,112.64h0a10.79,10.79,0,0,1,.31-1.28c0-.07,0-.24.14-.31V111a2.4,2.4,0,0,1,.23-.48,3.66,3.66,0,0,1,.22,2.13h1.32l0,.2a1.45,1.45,0,0,0-.13.94l-.29,2a1.26,1.26,0,0,1-1.32-.58v0A3.28,3.28,0,0,1,90.86,112.64Z" style="fill:#c9babf"/><path d="M91.69,108.15c-.55-.59-.19-1.66-.19-1.66.17-1.17.59-1.28,1.83-1.68a2.7,2.7,0,0,0,.38-.17c.39.29-.1.47.31,1.13a.35.35,0,0,0,0,.08l-.12.81a8.8,8.8,0,0,0-1.67,1.19A1.5,1.5,0,0,1,91.69,108.15Z" style="fill:#c9babf"/><path d="M95.53,102.78V104c-.49,0-.94.17-1.25,0a2.19,2.19,0,0,0-.06-1.68A2.77,2.77,0,0,1,95.53,102.78Z" style="fill:#c9babf"/><path d="M93.76,101l-.12-.11h1.89v.34C94.86,101.26,94.16,101.37,93.76,101Z" style="fill:#c9babf"/><path d="M85.44,105.77c0-.06,0-.12,0-.17.87-.59,1.82-.5,3.07.39C86.9,106.66,85.8,107.3,85.44,105.77Z" style="fill:#31455b"/><path d="M88.1,102.26a2,2,0,0,0-.35-.4l.61-.68a2.1,2.1,0,0,0,1.18.61A1.43,1.43,0,0,1,88.1,102.26Z" style="fill:#31455b"/><path d="M85.65,124.83c1.76.23,2.29.76,2,1.36l-3.42-1.36A4.9,4.9,0,0,1,85.65,124.83Z" style="fill:#31455b"/><path d="M86.54,124c-.57-.08-1-.39-1.14-1.35-.07-.66.26-.72.74-.56.71.22,1.74.91,2.27.82.3-.05.45-.34.29-1.11-.07-.33-.19-.5-.35-.57-.55-.24-1.55.61-2.48-.8-.49-.75,2.14-1.93,2.75-.92.4.67-.09.84.3,1.13a3.2,3.2,0,0,0,.73.36c.75.29.88-.48,1.67-.76h0A3.7,3.7,0,0,1,92,120l-.71,5L91.16,126c-.14.1-.22.19-.36.29a.44.44,0,0,1-.28.09c-.49,0-.66-1.29-1.64-2.15C88.36,123.8,87.35,124.11,86.54,124Z" style="fill:#31455b"/><path d="M91.9,102.42a1.54,1.54,0,0,1-.58,1.15v0a1.76,1.76,0,0,1-1.74.3A1.59,1.59,0,0,0,91,102.36a5.28,5.28,0,0,0,0-1.06,2.41,2.41,0,0,0,.25-.35s0,0,.09,0h1.33A1.89,1.89,0,0,0,91.9,102.42Z" style="fill:#31455b"/><path d="M93.76,101c.4.35,1.1.24,1.77.23v1.53a2.77,2.77,0,0,0-1.31-.41,4.68,4.68,0,0,0-.32-.75,1.61,1.61,0,0,0-.57-.71h.31Z" style="fill:#31455b"/><path d="M94.28,104.05c.31.14.76-.07,1.25,0v1.51H94.11l0,.32a.35.35,0,0,1,0-.08c-.41-.66.08-.84-.31-1.13A1.29,1.29,0,0,0,94.28,104.05Z" style="fill:#31455b"/><path d="M92.93,113.78a1.45,1.45,0,0,1,.13-.94Z" style="fill:#31455b"/><path d="M91.32,117.06h0a1.38,1.38,0,0,0-.37.05,1.48,1.48,0,0,0-.6.3c-1.48,1.17-2.11,2-4.3.72s-.93-2.94.26-2.93h.28c.89,0,2.08-.37,2.3-1.22a1.54,1.54,0,0,0-.13-1l-.07-.16c0-.09-.1-.18-.15-.18h2.32a3.28,3.28,0,0,0,.46,2.51v0a1.26,1.26,0,0,0,1.32.58l-.23,1.57A2.28,2.28,0,0,0,91.32,117.06Z" style="fill:#31455b"/><path d="M85.2,145.57l.22-.33-2-3.28a5.14,5.14,0,0,0-1.19.48v1a4.72,4.72,0,0,0,1.48.29C84.57,143.77,85.05,144.6,85.2,145.57Z" style="fill:#c9babf"/><path d="M86.92,156.81a.87.87,0,0,1-.69-.19c-.52-.46-.83-1.53-1.73-2a3.13,3.13,0,0,1-2.24.67v.88H80.92v2.13l.3.19c2.14-.08.67-2,2.88-1.27s.6,1.35,1.09,3.37c0,.21.09.39.14.55h2.28a4.85,4.85,0,0,1,.22-.91C88.46,158.48,84.8,158.22,86.92,156.81Z" style="fill:#c9babf"/><path d="M83,151.51a2.22,2.22,0,0,0,.2.57,2.44,2.44,0,0,1,1.46.53c.88-.17,1.92-.51,2.81,1s.69,2.39.21,2.88c.83-.27,1.3.19,1.58.9a3.06,3.06,0,0,1,.94-.34v-.84H88.69V154c-.34,0-.6-.24-.76-.73a10.74,10.74,0,0,1-.29-3.2c0-.34.16-.47.4-.49l-.05-.08C84.61,148.19,82.41,149.28,83,151.51Z" style="fill:#c9babf"/><path d="M89.74,159.92a1.41,1.41,0,0,0,.42.82v-1.88q-.27.1-.54.18C89.66,159.35,89.7,159.65,89.74,159.92Z" style="fill:#c9babf"/><path d="M87.64,150.11a10.74,10.74,0,0,0,.29,3.2c.16.49.42.69.76.73v-2.51c0-.36-.1-.75-.17-1.09l-.48-.82C87.8,149.64,87.65,149.77,87.64,150.11Z" style="fill:#6a7587"/><path d="M90.16,161.07v-.33a1.41,1.41,0,0,1-.42-.82c0-.27-.08-.57-.12-.88l-.3.08c-1.38.34-1.32-1.05-.1-1.77-.28-.71-.75-1.17-1.58-.9a1.18,1.18,0,0,1-.72.36c-2.12,1.41,1.54,1.67.91,3.42a4.85,4.85,0,0,0-.22.91H89.8A.36.36,0,0,1,90.16,161.07Z" style="fill:#0a1725"/><path d="M84.5,154.62a2.47,2.47,0,0,0-1.68-.17l-.56.12v.72A3.13,3.13,0,0,0,84.5,154.62Z" style="fill:#6e7688"/><path d="M84.62,152.61a2.44,2.44,0,0,0-1.46-.53C83.5,152.76,84,152.72,84.62,152.61Z" style="fill:#6e7688"/><path d="M85.2,145.57c-.15-1-.63-1.8-1.46-1.85a4.72,4.72,0,0,1-1.48-.29v1.85C83.55,145.9,84.41,146.58,85.2,145.57Z" style="fill:#6e7688"/><path d="M82.55,140.45l-.29.31v1.68a5.14,5.14,0,0,1,1.19-.48Z" style="fill:#6e7688"/><path d="M82,158.89a4.2,4.2,0,0,1-.74-.4l-.3-.19v2.84h1.82A1.52,1.52,0,0,0,82,158.89Z" style="fill:#0a1725"/><path d="M84.1,157.22c-2.21-.73-.74,1.19-2.88,1.27a4.2,4.2,0,0,0,.74.4,1.52,1.52,0,0,1,.78,2.25h2.59c0-.16-.09-.34-.14-.55C84.7,158.57,86.37,158,84.1,157.22Z" style="fill:#31455b"/><path d="M88.69,150.71l-.17-.27c.07.34.12.73.17,1.09Z" style="fill:#31455b"/><path d="M84.5,154.62c.9.47,1.21,1.54,1.73,2a.87.87,0,0,0,.69.19,1.18,1.18,0,0,0,.72-.36c.48-.49.66-1.45-.21-2.88s-1.93-1.13-2.81-1c-.6.11-1.12.15-1.46-.53a2.22,2.22,0,0,1-.2-.57c-.55-2.23,1.65-3.32,5-2l-2.57-4.3-.22.33c-.79,1-1.65.33-2.94-.29v9.29l.56-.12A2.47,2.47,0,0,1,84.5,154.62Z" style="fill:#31455b"/><path d="M82.26,140v.79l.29-.31Z" style="fill:#0a1725"/><path d="M89.8,161.14h.36v-.07A.36.36,0,0,0,89.8,161.14Z" style="fill:#6a7587"/><path d="M89.32,159.12l.3-.08q.27-.07.54-.18V157a3.06,3.06,0,0,0-.94.34C88,158.07,87.94,159.46,89.32,159.12Z" style="fill:#31455b"/><path d="M65.1,145.57a3.16,3.16,0,0,1-.21-.33l2-3.28a5.14,5.14,0,0,1,1.19.48v1a4.72,4.72,0,0,1-1.48.29C65.74,143.77,65.25,144.6,65.1,145.57Z" style="fill:#c9babf"/><path d="M63.38,156.81a.9.9,0,0,0,.7-.19c.51-.46.82-1.53,1.72-2a3.15,3.15,0,0,0,2.24.67v.88h1.35v2.13l-.3.19c-2.15-.08-.68-2-2.88-1.27s-.61,1.35-1.09,3.37c-.05.21-.1.39-.14.55H62.69a4.86,4.86,0,0,0-.21-.91C61.85,158.48,65.51,158.22,63.38,156.81Z" style="fill:#c9babf"/><path d="M67.35,151.51a3.37,3.37,0,0,1-.2.57,2.39,2.39,0,0,0-1.46.53c-.88-.17-1.93-.51-2.82,1s-.68,2.39-.21,2.88c-.83-.27-1.3.19-1.58.9a3.06,3.06,0,0,0-.94-.34v-.84h1.47V154a.89.89,0,0,0,.76-.73,10.74,10.74,0,0,0,.29-3.2c0-.34-.16-.47-.39-.49l0-.08C65.69,148.19,67.89,149.28,67.35,151.51Z" style="fill:#c9babf"/><path d="M60.56,159.92a1.3,1.3,0,0,1-.42.82v-1.88q.27.1.54.18C60.64,159.35,60.6,159.65,60.56,159.92Z" style="fill:#c9babf"/><path d="M62.66,150.11a10.74,10.74,0,0,1-.29,3.2.89.89,0,0,1-.76.73v-2.51c0-.36.1-.75.17-1.09l.49-.82C62.5,149.64,62.65,149.77,62.66,150.11Z" style="fill:#6a7587"/><path d="M60.14,161.07v-.33a1.3,1.3,0,0,0,.42-.82c0-.27.08-.57.12-.88l.31.08c1.38.34,1.31-1.05.09-1.77.28-.71.75-1.17,1.58-.9a1.24,1.24,0,0,0,.72.36c2.13,1.41-1.53,1.67-.9,3.42a4.86,4.86,0,0,1,.21.91H60.5A.36.36,0,0,0,60.14,161.07Z" style="fill:#0a1725"/><path d="M65.8,154.62a2.48,2.48,0,0,1,1.68-.17l.56.12v.72A3.15,3.15,0,0,1,65.8,154.62Z" style="fill:#6e7688"/><path d="M65.69,152.61a2.39,2.39,0,0,1,1.46-.53C66.81,152.76,66.29,152.72,65.69,152.61Z" style="fill:#6e7688"/><path d="M65.1,145.57c.15-1,.64-1.8,1.46-1.85a4.72,4.72,0,0,0,1.48-.29v1.85C66.76,145.9,65.9,146.58,65.1,145.57Z" style="fill:#6e7688"/><path d="M67.75,140.45l.29.31v1.68a5.14,5.14,0,0,0-1.19-.48Z" style="fill:#6e7688"/><path d="M68.34,158.89a4.64,4.64,0,0,0,.75-.4l.3-.19v2.84H67.56A1.53,1.53,0,0,1,68.34,158.89Z" style="fill:#0a1725"/><path d="M66.21,157.22c2.2-.73.73,1.19,2.88,1.27a4.64,4.64,0,0,1-.75.4,1.53,1.53,0,0,0-.78,2.25H65c0-.16.09-.34.14-.55C65.6,158.57,63.93,158,66.21,157.22Z" style="fill:#31455b"/><path d="M61.61,150.71l.17-.27c-.07.34-.12.73-.17,1.09Z" style="fill:#31455b"/><path d="M65.8,154.62c-.9.47-1.21,1.54-1.72,2a.9.9,0,0,1-.7.19,1.24,1.24,0,0,1-.72-.36c-.47-.49-.66-1.45.21-2.88s1.94-1.13,2.82-1c.6.11,1.12.15,1.46-.53a3.37,3.37,0,0,0,.2-.57c.54-2.23-1.66-3.32-5-2l2.57-4.3a3.16,3.16,0,0,0,.21.33c.8,1,1.66.33,2.94-.29v9.29l-.56-.12A2.48,2.48,0,0,0,65.8,154.62Z" style="fill:#31455b"/><path d="M68,140v.79l-.29-.31Z" style="fill:#0a1725"/><path d="M60.5,161.14h-.36v-.07A.36.36,0,0,1,60.5,161.14Z" style="fill:#6a7587"/><path d="M61,159.12l-.31-.08q-.27-.07-.54-.18V157a3.06,3.06,0,0,1,.94.34C62.3,158.07,62.37,159.46,61,159.12Z" style="fill:#31455b"/><rect x="60.85" y="57.76" width="28.35" height="9.01" style="fill:#0c1c29"/><path d="M63.62,65h-1v-5.1h2.2a1.93,1.93,0,0,1,1.4.45,1.46,1.46,0,0,1,.45,1.06,1.41,1.41,0,0,1-.49,1.13A1.83,1.83,0,0,1,65,63H63.62Zm0-2.81h1.14a1,1,0,0,0,.69-.21.7.7,0,0,0,.24-.56.77.77,0,0,0-.22-.53,1.1,1.1,0,0,0-.79-.23H63.62Z" style="fill:#bfc5cc"/><path d="M69.46,65.06a2,2,0,0,1-1.67-.76,3,3,0,0,1-.59-1.88,2.79,2.79,0,0,1,.63-1.86,2.08,2.08,0,0,1,1.68-.75,2,2,0,0,1,1.65.75,3.19,3.19,0,0,1,0,3.78A2.12,2.12,0,0,1,69.46,65.06Zm0-.73a1.17,1.17,0,0,0,.89-.41,2.32,2.32,0,0,0,.36-1.49,2.67,2.67,0,0,0-.3-1.38,1,1,0,0,0-.93-.5c-.83,0-1.25.64-1.25,1.9a2.54,2.54,0,0,0,.32,1.4A1,1,0,0,0,69.47,64.33Z" style="fill:#bfc5cc"/><path d="M76,65H72.67v-5.1h1v4.26H76Z" style="fill:#bfc5cc"/><path d="M77.66,65h-1v-5.1h1Z" style="fill:#bfc5cc"/><path d="M81.85,63.22l.89.09a1.9,1.9,0,0,1-.62,1.26,2,2,0,0,1-1.41.49,1.9,1.9,0,0,1-1.2-.35,2.21,2.21,0,0,1-.7-.95,3.34,3.34,0,0,1-.25-1.32,3,3,0,0,1,.58-1.9,2.13,2.13,0,0,1,2.94-.26,2.17,2.17,0,0,1,.66,1.34l-.89.09c-.17-.77-.53-1.16-1.1-1.16a.94.94,0,0,0-.84.48,2.66,2.66,0,0,0-.3,1.39,2.44,2.44,0,0,0,.32,1.4,1,1,0,0,0,.85.47.94.94,0,0,0,.73-.32A1.24,1.24,0,0,0,81.85,63.22Z" style="fill:#bfc5cc"/><path d="M87,65h-3.5v-5.1H87v.76H84.48V62h2v.74h-2v1.42H87Z" style="fill:#bfc5cc"/><path d="M89.21,33.69a1.57,1.57,0,1,0-1.73,1.68V45H85.05v.38h2.78v-10A1.65,1.65,0,0,0,89.21,33.69Z" style="fill:#3d71b7"/><polygon points="83.29 47.05 85.53 46.28 85.53 44.05 77.24 44.05 77.24 47.05 83.29 47.05" style="fill:#2d67ae"/><path d="M60.7,33.69a1.57,1.57,0,1,1,1.74,1.68V45h2.42v.38H62.08v-10A1.66,1.66,0,0,1,60.7,33.69Z" style="fill:#eb2f2b"/><polygon points="66.62 47.05 64.38 46.28 64.38 44.05 72.67 44.05 72.67 47.05 66.62 47.05" style="fill:#b92227"/><polygon points="72.68 35.16 68.61 39.53 75.17 39.53 75.17 47.38 72.61 43.95 68.14 43.95 67.62 49.8 71.42 55.02 75.18 55.02 75.18 35.16 72.68 35.16" style="fill:#47515f"/><polygon points="75.17 47.38 75.17 39.53 68.61 39.53 68.51 39.63 68.14 43.95 72.61 43.95 75.17 47.38" style="fill:#0c0a0d"/><polygon points="77.62 35.15 81.69 39.53 75.13 39.53 75.13 47.38 77.69 43.95 82.17 43.95 82.68 49.8 78.89 55.01 75.13 55.01 75.13 35.15 77.62 35.15" style="fill:#0b1d2d"/><polygon points="75.13 47.38 75.13 39.53 81.69 39.53 81.79 39.63 82.17 43.95 77.69 43.95 75.13 47.38" style="fill:#0c0a0d"/></g></g></svg>