<svg xmlns="http://www.w3.org/2000/svg" xmlns:xlink="http://www.w3.org/1999/xlink" viewBox="0 0 148.25 207.55"><defs><linearGradient id="Degradado_sin_nombre_6" x1="-14.83" y1="192.72" x2="163.07" y2="14.83" gradientUnits="userSpaceOnUse"><stop offset="0" stop-color="aqua"/><stop offset="1" stop-color="blue"/></linearGradient></defs><title>Asset 121</title><g id="Layer_2" data-name="Layer 2"><g id="Layer_3" data-name="Layer 3"><rect width="148.25" height="207.55" style="fill:url(#Degradado_sin_nombre_6)"/><g style="opacity:0.45"><polygon points="54.43 42.85 21.09 46.95 17.61 79.66 54.43 42.85" style="fill:#00158e"/><polygon points="140.05 131.08 120.65 34.7 59.37 42.24 17.1 84.51 8.84 162.22 114.89 156.24 140.05 131.08" style="fill:#00158e;opacity:0.2"/><polygon points="119.48 155.98 144.78 154.56 140.78 134.68 119.48 155.98" style="fill:#00158e"/><path d="M132.05,52.21H116.54V48.58h15.51Zm-14.94-.57h14.36V49.15H117.11Z" style="fill:#0751cf"/><path d="M21,146.8H4v-2.49H21Zm-16.46-.57H20.42v-1.34H4.53Z" style="fill:#0751cf"/><path d="M46.27,163.65h-6.7V153.5h6.7Zm-6.13-.57h5.55v-9H40.14Z" style="fill:#0751cf"/><path d="M136.64,92h-8.23V83.81h8.23ZM129,91.47h7.09V84.38H129Z" style="fill:gold"/><path d="M24.92,58.72H12.57v-2H24.92Zm-11.78-.57h11.2v-.86H13.14Z" style="fill:gold"/><rect x="36.41" y="156.28" width="0.96" height="6.32" style="fill:gold"/><rect x="136.16" y="105.35" width="1.34" height="22.02" style="fill:gold"/><rect x="96.15" y="33.74" width="1.53" height="8.81" style="fill:gold"/><rect x="10.17" y="141.54" width="8.81" height="0.96" style="fill:gold"/><rect x="136.16" y="149.96" width="2.49" height="9.57" style="fill:gold"/><rect x="9.91" y="96.29" width="3.69" height="3.7" transform="translate(72.82 20.41) rotate(44.98)" style="fill:gold"/><rect x="17.53" y="96.28" width="3.69" height="3.7" transform="translate(75.04 15.02) rotate(44.98)" style="fill:gold"/><rect x="25.16" y="96.27" width="3.69" height="3.7" transform="translate(77.27 9.63) rotate(44.98)" style="fill:gold"/><rect x="32.78" y="96.26" width="3.69" height="3.7" transform="translate(79.49 4.24) rotate(44.98)" style="fill:gold"/><rect x="40.4" y="96.25" width="3.69" height="3.7" transform="translate(81.71 -1.15) rotate(44.98)" style="fill:gold"/><rect x="48.03" y="96.24" width="3.69" height="3.7" transform="translate(83.94 -6.55) rotate(44.98)" style="fill:gold"/><rect x="63.6" y="36.99" width="17.81" height="6.13" style="fill:gold"/><rect x="88.49" y="153.02" width="5.74" height="9.19" style="fill:gold"/><rect x="128.12" y="61.5" width="3.26" height="17.04" style="fill:gold"/><polygon points="126.59 139.72 126.59 129.04 124.66 130.97 124.66 137.79 117.85 137.79 115.92 139.72 126.59 139.72" style="fill:#0751cf"/><polygon points="114.1 127.11 114.1 137.79 116.03 135.85 116.03 129.04 122.85 129.04 124.78 127.11 114.1 127.11" style="fill:#0751cf"/></g><path d="M90.53,34A1.26,1.26,0,1,0,88,34a1.39,1.39,0,0,0,1.11,1.43V43.6H87.22v.33h2.22V35.38A1.39,1.39,0,0,0,90.53,34Z"/><polygon points="85.81 46.42 87.6 44.69 87.6 42.78 80.99 42.78 80.99 46.42 85.81 46.42"/><path d="M58.8,34.22a1.26,1.26,0,1,1,2.49,0,1.39,1.39,0,0,1-1.11,1.43v8.22h1.93v.33H59.9V35.65A1.39,1.39,0,0,1,58.8,34.22Z" style="fill:#060a0f"/><polygon points="63.52 46.42 61.73 44.96 61.73 43.05 68.34 43.05 68.34 46.42 63.52 46.42" style="fill:#060a0f"/><polygon points="61.87 56 61.87 50.79 64.39 48.1 84.65 48.1 87.25 50.89 87.25 56 61.87 56" style="fill:#2c2822"/><path d="M63.13,92.83c-1.55,1.53-2.24,3-2.06,4.22a3.88,3.88,0,0,0,2,2.56l-.31.7a4.59,4.59,0,0,1-2.37-3.14c-.22-1.54.55-3.19,2.28-4.91Z" style="fill:#4a453b"/><path d="M63,101.43l-.19.74c-.13,0-3.27-1-4.08-3.8-.63-2.19.31-4.86,2.8-7.92l.54.51c-2.31,2.85-3.21,5.26-2.66,7.19C60.09,100.59,63,101.42,63,101.43Z" style="fill:#4a453b"/><path d="M62.92,103l-.08.76a8.46,8.46,0,0,1-2.28-.65,6.48,6.48,0,0,1-3.44-3.24c-1.18-2.68-.37-6.33,2.4-10.85l.6.42a19.12,19.12,0,0,0-2.65,6.22,6.52,6.52,0,0,0,.3,3.88C59.08,102.47,62.88,102.94,62.92,103Z" style="fill:#4a453b"/><path d="M61.58,112.94V132H71.4l3.16-1V111.26L67.25,99.8S59.45,105,61.58,112.94Z" style="fill:#ed6555"/><path d="M66.68,101.53l5,9.73h2.89V99.8S69.65,96,66.68,101.53Z" style="fill:#8c7458"/><path d="M55.2,83l11.48,18.54s2.4-5.06,7.88-1.73v-7L59.39,81.47Z" style="fill:#9f8068"/><path d="M53,63.19C51.55,61.54,50.22,60.8,49,61a3.84,3.84,0,0,0-2.4,2.11L46,62.77a4.51,4.51,0,0,1,2.94-2.54c1.43-.24,3,.58,4.58,2.44Z" style="fill:#4a453b"/><path d="M45,63l-.7-.2c0-.14.89-3.5,3.55-4.37,2.05-.67,4.54.34,7.4,3l-.47.58c-2.66-2.47-4.92-3.43-6.72-2.84C45.73,59.94,45,63,45,63Z" style="fill:#4a453b"/><path d="M43.53,63l-.72-.08a10.7,10.7,0,0,1,.62-2.44,6.58,6.58,0,0,1,3-3.69c2.5-1.26,5.91-.4,10.14,2.58L56.2,60a16.71,16.71,0,0,0-5.82-2.85,5.43,5.43,0,0,0-3.62.33C44,58.87,43.53,62.93,43.53,63Z" style="fill:#4a453b"/><path d="M49.55,64.81v14s.9,3.08-4.59,2.6H38.07a2.94,2.94,0,0,1-2.83-3v-4l-1.53-3.76v-.42a3.45,3.45,0,0,1,2.51-3.39l2.35-.6A3.21,3.21,0,0,0,40,65.41l2.31-2.23a2.56,2.56,0,0,1,1.77-.73h3.26A2.29,2.29,0,0,1,49.55,64.81Z" style="fill:#4a453b"/><path d="M61.87,56l-1.53,2.69H54.76l-6.16,6.6v9.48L52.09,82a1.51,1.51,0,0,0,1.35.88h0a12.28,12.28,0,0,1,10,5.37l3.17,4.55h7.92V56Z" style="fill:#8c7458"/><path d="M64.48,62.93h0a4.41,4.41,0,0,1-4,2.81H55.2v4l3.16,3.37L63.8,79H74.56v-16Z" style="fill:#f38d30"/><path d="M64.83,98.54l-4.5,1.54v12.86h1.25s2.4-10.11,5.1-11.41Z" style="fill:#8c7458"/><rect x="66.68" y="80.3" width="7.88" height="3.03" style="fill:#f38d30"/><rect x="69.11" y="84.62" width="5.45" height="3.03" style="fill:#f38d30"/><path d="M86,92.83c1.55,1.53,2.24,3,2.06,4.22a3.91,3.91,0,0,1-2,2.56l.31.7a4.62,4.62,0,0,0,2.37-3.14c.22-1.54-.55-3.19-2.28-4.91Z" style="fill:#4a453b"/><path d="M86.14,101.43l.19.74c.13,0,3.27-1,4.08-3.8.63-2.19-.31-4.86-2.8-7.92l-.55.51c2.32,2.85,3.21,5.26,2.66,7.19C89,100.59,86.17,101.42,86.14,101.43Z" style="fill:#4a453b"/><path d="M86.2,103l.07.76a8.38,8.38,0,0,0,2.29-.65A6.48,6.48,0,0,0,92,99.82c1.18-2.68.37-6.33-2.41-10.85l-.6.42a19.17,19.17,0,0,1,2.66,6.22,6.52,6.52,0,0,1-.3,3.88C90,102.47,86.23,102.94,86.2,103Z" style="fill:#4a453b"/><path d="M87.54,112.94V132h-13V111.26l7.3-11.46S89.67,105,87.54,112.94Z" style="fill:#c3493e"/><path d="M82.44,101.53l-5,9.73H74.56V99.8S79.47,96,82.44,101.53Z" style="fill:#5e4531"/><path d="M93.91,83,82.44,101.53S80,96.47,74.56,99.8v-7L89.73,81.47Z" style="fill:#6e5545"/><path d="M96.13,63.19c1.44-1.65,2.77-2.39,4-2.2a3.78,3.78,0,0,1,2.39,2.11l.65-.33a4.48,4.48,0,0,0-2.93-2.54c-1.43-.24-3,.58-4.58,2.44Z" style="fill:#4a453b"/><path d="M104.17,63l.7-.2c0-.14-.9-3.5-3.56-4.37-2-.67-4.53.34-7.4,3l.48.58c2.66-2.47,4.92-3.43,6.71-2.84C103.38,59.94,104.16,63,104.17,63Z" style="fill:#4a453b"/><path d="M105.59,63l.72-.08a10.7,10.7,0,0,0-.62-2.44,6.58,6.58,0,0,0-3-3.69c-2.5-1.26-5.92-.4-10.15,2.58l.4.64a16.63,16.63,0,0,1,5.82-2.85,5.44,5.44,0,0,1,3.62.33C105.14,58.87,105.59,62.93,105.59,63Z" style="fill:#4a453b"/><path d="M99.57,64.81v14s-.9,3.08,4.59,2.6H111a2.94,2.94,0,0,0,2.84-3v-4l1.53-3.76v-.42a3.45,3.45,0,0,0-2.51-3.39l-2.35-.6a3.21,3.21,0,0,1-1.43-.81l-2.32-2.23a2.52,2.52,0,0,0-1.77-.73h-3.25A2.29,2.29,0,0,0,99.57,64.81Z" style="fill:#2c2822"/><path d="M87.24,56l1.53,2.69h5.58l6.17,6.6v9.48L97,82a1.52,1.52,0,0,1-1.36.88h0a12.26,12.26,0,0,0-10,5.37l-3.17,4.55H74.56V56Z" style="fill:#5d4330"/><path d="M84.64,62.93h0a4.41,4.41,0,0,0,4,2.81h5.23v4l-3.15,3.37L85.32,79H74.56v-16Z" style="fill:#ef6f33"/><path d="M84.29,98.54l4.49,1.54v12.86H87.54s-2.4-10.11-5.1-11.41Z" style="fill:#5d4833"/><rect x="74.56" y="80.3" width="7.88" height="3.03" transform="translate(157 163.63) rotate(180)" style="fill:#ef6f33"/><rect x="74.56" y="84.62" width="5.45" height="3.03" transform="translate(154.57 172.28) rotate(180)" style="fill:#ef6f33"/><rect x="58.52" y="123.78" width="31.2" height="8.23" style="fill:#4a453b"/><rect x="65.3" y="129.27" width="18.6" height="23.2" style="fill:#2c2822"/><rect x="65.92" y="129.27" width="17.77" height="2.45" style="fill:#252827"/><rect x="74.52" y="127.98" width="10.27" height="1.29" transform="translate(159.3 257.25) rotate(180)" style="fill:#ef6f33"/><rect x="83.11" y="129.17" width="1.67" height="21.52" transform="translate(167.89 279.86) rotate(180)" style="fill:#ef6f33"/><rect x="83.95" y="150.53" width="2.71" height="3.72" transform="translate(170.6 304.78) rotate(180)" style="fill:#7e1517"/><rect x="80.84" y="151.96" width="4.46" height="0.86" transform="translate(166.14 304.78) rotate(180)" style="fill:#1d1e22"/><rect x="80.31" y="148.42" width="1.47" height="7.94" transform="translate(162.08 304.78) rotate(180)" style="fill:#7e1517"/><path d="M85.53,151.61h1.12v1.6H85.53a.8.8,0,0,1,0-1.6Z" style="fill:#1d1e22"/><rect x="86.65" y="151.04" width="0.36" height="2.84" transform="translate(173.66 304.91) rotate(180)" style="fill:#1d1e22"/><rect x="83.73" y="150.69" width="0.33" height="3.56" transform="translate(167.79 304.94) rotate(180)" style="fill:#1d1e22"/><rect x="64.25" y="127.98" width="10.27" height="1.29" style="fill:#f38d30"/><rect x="64.25" y="129.17" width="1.67" height="21.52" style="fill:#f38d30"/><rect x="62.38" y="150.53" width="2.71" height="3.72" style="fill:#7e1517"/><rect x="63.73" y="151.96" width="4.46" height="0.86" style="fill:#1d1e22"/><rect x="67.25" y="148.42" width="1.47" height="7.94" style="fill:#7e1517"/><path d="M63.5,151.61H62.38v1.6H63.5a.8.8,0,0,0,0-1.6Z" style="fill:#1d1e22"/><rect x="62.02" y="151.04" width="0.36" height="2.84" style="fill:#1d1e22"/><rect x="64.97" y="150.69" width="0.33" height="3.56" style="fill:#1d1e22"/><polygon points="74.52 148.11 68.72 142.52 68.72 146.4 74.52 152 74.52 148.11" style="fill:#313832"/><path d="M74.52,144.22,69.14,139a1.9,1.9,0,0,0-.42,1.17v2.33l5.8,5.59Z" style="fill:#111b16"/><polygon points="74.52 159.77 68.72 154.18 68.72 158.07 74.52 163.66 74.52 159.77" style="fill:#111b16"/><polygon points="74.52 155.88 68.72 150.29 68.72 154.18 74.52 159.77 74.52 155.88" style="fill:#313832"/><polygon points="74.52 152 68.72 146.4 68.72 150.29 74.52 155.88 74.52 152" style="fill:#111b16"/><polygon points="74.52 163.66 68.72 158.07 68.72 161.96 73.3 166.37 74.52 166.37 74.52 163.66" style="fill:#313832"/><path d="M68.72,164.42a2,2,0,0,0,2,2H73.3L68.72,162Z" style="fill:#111b16"/><path d="M74.52,140.33l-2.16-2.08H70.74a2,2,0,0,0-1.6.77l5.38,5.2Z" style="fill:#313832"/><polygon points="74.52 138.25 72.36 138.25 74.52 140.33 74.52 138.25" style="fill:#111b16"/><path d="M78.29,166.37a2,2,0,0,0,2-2V162l-4.49,4.33Z" style="fill:#313832"/><polygon points="74.56 140.37 76.75 138.25 74.52 138.25 74.52 140.33 74.56 140.37" style="fill:#313832"/><path d="M78.29,138.25H76.76l-2.2,2.12,0,0v3.89l0,0,5.37-5.19A2,2,0,0,0,78.29,138.25Z" style="fill:#111b16"/><polygon points="74.52 148.11 74.52 152 74.56 152.04 80.31 146.49 80.31 142.6 74.56 148.15 74.52 148.11" style="fill:#111b16"/><path d="M74.52,144.22v3.89l0,0,5.75-5.55v-2.41a1.87,1.87,0,0,0-.38-1.12l-5.37,5.19Z" style="fill:#313832"/><polygon points="74.52 152 74.52 155.88 74.56 155.92 80.31 150.37 80.31 146.49 74.56 152.04 74.52 152" style="fill:#313832"/><polygon points="74.52 163.66 74.52 166.37 75.82 166.37 80.31 162.04 80.31 158.15 74.56 163.7 74.52 163.66" style="fill:#111b16"/><polygon points="74.52 155.88 74.52 159.77 74.56 159.81 80.31 154.26 80.31 150.37 74.56 155.92 74.52 155.88" style="fill:#111b16"/><polygon points="74.52 159.77 74.52 163.66 74.56 163.7 80.31 158.15 80.31 154.26 74.56 159.81 74.52 159.77" style="fill:#313832"/><polygon points="61.58 132 64.25 150.69 64.25 132 61.58 132" style="fill:#252827"/><polygon points="87.54 132 84.78 150.69 84.78 132 87.54 132" style="fill:#252827"/><rect x="60.32" y="111.26" width="14.24" height="4.89" style="fill:#1ba8ba"/><rect x="74.52" y="111.26" width="14.27" height="4.89" style="fill:#23849b"/><path d="M42.12,90.5h-3.4a2.24,2.24,0,0,1-.52,0h0l1.26,11.27h5V89.34A2.94,2.94,0,0,1,42.12,90.5Z" style="fill:#585c52"/><path d="M40.29,100.83h3.18a1.32,1.32,0,0,1,1.26,1.47l-1.12,14.15H40.37L39,102.33A1.33,1.33,0,0,1,40.29,100.83Z" style="fill:#2c261c"/><rect x="39.02" y="115.65" width="5.71" height="7.19" style="fill:#f38d30"/><path d="M38.28,91.16H43a1.8,1.8,0,0,0,1.41-.85V88.87H37.8Z" style="fill:#ef6f33"/><path d="M43.51,68.61H41.87A3.08,3.08,0,0,0,39,71l-3.9,15a3.33,3.33,0,0,0,1.6,3.79l.75.39a2.8,2.8,0,0,0,.8.27,2.24,2.24,0,0,0,.52,0h3.4a2.94,2.94,0,0,0,2.32-1.16A3.24,3.24,0,0,0,45.07,88l1.4-6.7a4.05,4.05,0,0,0,.07-.7V71.85A3.14,3.14,0,0,0,43.51,68.61Z" style="fill:#d54127"/><path d="M41.83,122.84a5.46,5.46,0,0,1,.05,1,1.71,1.71,0,0,1-.74,1.41c-.92.6-2.45,2.37-2.68,7.55a.45.45,0,0,1-.44.46h0a.88.88,0,0,1-.85-.91v-6.94a1.43,1.43,0,0,1,.37-.95L39,122.84Z" style="fill:#aeb1b0"/><path d="M41.62,122.84a5.46,5.46,0,0,0,0,1,1.68,1.68,0,0,0,.83,1.41c1,.6,2.74,2.37,3,7.55a.49.49,0,0,0,.5.46h0a.93.93,0,0,0,.94-.91v-6.94a1.33,1.33,0,0,0-.41-.95l-1.67-1.59Z" style="fill:#9a9f9a"/><path d="M106.84,90.5h3.4a2.29,2.29,0,0,0,.52,0h0l-1.27,11.27h-5V89.34A2.94,2.94,0,0,0,106.84,90.5Z" style="fill:#585c52"/><path d="M108.67,100.83h-3.18a1.31,1.31,0,0,0-1.26,1.47l1.12,14.15h3.23l1.34-14.12A1.32,1.32,0,0,0,108.67,100.83Z" style="fill:#2c261c"/><rect x="104.22" y="115.65" width="5.71" height="7.19" transform="translate(214.15 238.49) rotate(180)" style="fill:#ef6f33"/><path d="M110.68,91.16h-4.75a1.8,1.8,0,0,1-1.41-.85V88.87h6.63Z" style="fill:#ef6f33"/><path d="M105.45,68.61h1.63A3.07,3.07,0,0,1,110,71l3.9,15a3.32,3.32,0,0,1-1.59,3.79l-.75.39a3,3,0,0,1-.8.27,2.29,2.29,0,0,1-.52,0h-3.4a2.94,2.94,0,0,1-2.32-1.16,3.25,3.25,0,0,1-.64-1.38l-1.39-6.7a3.26,3.26,0,0,1-.07-.7V71.85A3.14,3.14,0,0,1,105.45,68.61Z" style="fill:#aa2b24"/><path d="M107.12,122.84a4.84,4.84,0,0,0,0,1,1.73,1.73,0,0,0,.73,1.41c.92.6,2.45,2.37,2.68,7.55a.46.46,0,0,0,.45.46h0a.88.88,0,0,0,.84-.91v-6.94a1.38,1.38,0,0,0-.37-.95l-1.49-1.59Z" style="fill:#aeb1b0"/><path d="M107.33,122.84a4,4,0,0,1,0,1,1.67,1.67,0,0,1-.82,1.41c-1,.6-2.75,2.37-3,7.55a.5.5,0,0,1-.5.46h0a.93.93,0,0,1-1-.91v-6.94a1.31,1.31,0,0,1,.42-.95l1.66-1.59Z" style="fill:#9a9f9a"/><path d="M66.36,40a2.07,2.07,0,0,0-2,2.13V60.81a2.06,2.06,0,0,0,2,2.12h8.2V40Z" style="fill:#af7eb6"/><path d="M82.67,40H74.56v22.9h8.11a2.06,2.06,0,0,0,2-2.12V42.16A2.07,2.07,0,0,0,82.67,40Z" style="fill:#986a9e"/><rect x="70.09" y="43.54" width="1.95" height="9.67" style="fill:#2c2822"/><rect x="76.98" y="43.54" width="1.95" height="9.67" style="fill:#2c2822"/><rect x="64.38" y="58.26" width="20.27" height="4.67" style="fill:#2c2822"/><path d="M108.45,72.55a2.15,2.15,0,1,1-2.14-2.3A2.23,2.23,0,0,1,108.45,72.55Z" style="fill:#2c2822"/><path d="M44.44,73.25A2.15,2.15,0,1,1,42.29,71,2.23,2.23,0,0,1,44.44,73.25Z" style="fill:#2c2822"/><path d="M75.86,58.26a1.35,1.35,0,1,1-1.34-1.44A1.39,1.39,0,0,1,75.86,58.26Z" style="fill:#2c2822"/><path d="M43.22,119.24a1.34,1.34,0,1,1-1.34-1.43A1.39,1.39,0,0,1,43.22,119.24Z" style="fill:#2c2822"/><path d="M108.42,119.24a1.35,1.35,0,1,1-1.34-1.43A1.39,1.39,0,0,1,108.42,119.24Z" style="fill:#2c2822"/><ellipse cx="74.52" cy="128.62" rx="1.34" ry="1.44" style="fill:#2c2822"/><path d="M64.26,113.71a1.35,1.35,0,1,1-1.35-1.44A1.4,1.4,0,0,1,64.26,113.71Z" style="fill:#2c2822"/><path d="M87.91,113.71a1.35,1.35,0,1,1-1.35-1.44A1.4,1.4,0,0,1,87.91,113.71Z" style="fill:#2c2822"/><path d="M91.05,90a1.34,1.34,0,1,1-1.34-1.43A1.39,1.39,0,0,1,91.05,90Z" style="fill:#2c2822"/><path d="M60.75,90a1.35,1.35,0,1,1-1.35-1.43A1.39,1.39,0,0,1,60.75,90Z" style="fill:#2c2822"/><path d="M56.34,59a1.14,1.14,0,1,1-1.14-1.22A1.18,1.18,0,0,1,56.34,59Z" style="fill:#2c2822"/><ellipse cx="93.91" cy="58.48" rx="1.14" ry="1.22" style="fill:#2c2822"/><rect x="55.2" y="62.93" width="38.71" height="1.36" style="fill:#362419"/></g></g></svg>