<svg xmlns="http://www.w3.org/2000/svg" xmlns:xlink="http://www.w3.org/1999/xlink" viewBox="0 0 148.25 207.55"><defs><clipPath id="clip-path"><rect width="148.25" height="207.55" style="fill:none"/></clipPath><linearGradient id="Degradado_sin_nombre_5" x1="-14.83" y1="14.83" x2="163.07" y2="192.72" gradientUnits="userSpaceOnUse"><stop offset="0" stop-color="#fef201"/><stop offset="1" stop-color="#ff1443"/></linearGradient></defs><title>Asset 156</title><g style="isolation:isolate"><g id="Layer_2" data-name="Layer 2"><g id="Layer_3" data-name="Layer 3"><g style="clip-path:url(#clip-path)"><rect width="148.25" height="207.55" style="fill:url(#Degradado_sin_nombre_5)"/><g style="opacity:0.46;mix-blend-mode:soft-light"><circle cx="4.8" cy="8.78" r="1" style="fill:#fef201"/><circle cx="4.8" cy="21.82" r="1" style="fill:#fef201"/><circle cx="4.8" cy="34.87" r="1" style="fill:#fef201"/><circle cx="4.8" cy="47.91" r="1" style="fill:#fef201"/><circle cx="4.8" cy="60.95" r="1" style="fill:#fef201"/><circle cx="4.8" cy="74" r="1" style="fill:#fef201"/><circle cx="4.8" cy="87.04" r="1" style="fill:#fef201"/><circle cx="4.8" cy="100.09" r="1" style="fill:#fef201"/><circle cx="4.8" cy="113.13" r="1" style="fill:#fef201"/><circle cx="4.8" cy="126.18" r="1" style="fill:#fef201"/><circle cx="4.8" cy="139.22" r="1" style="fill:#fef201"/><circle cx="4.8" cy="152.26" r="1" style="fill:#fef201"/><circle cx="4.8" cy="165.31" r="1" style="fill:#fef201"/><circle cx="4.8" cy="178.35" r="1" style="fill:#fef201"/><circle cx="4.8" cy="191.4" r="1" style="fill:#fef201"/><circle cx="4.8" cy="204.44" r="1" style="fill:#fef201"/><path d="M12.15,4.11a1,1,0,1,0,0-2,1,1,0,0,0-1,1A1,1,0,0,0,12.15,4.11Z" style="fill:#fef201"/><path d="M12.18,15.15a1,1,0,1,0,1,1A1,1,0,0,0,12.18,15.15Z" style="fill:#fef201"/><path d="M12.23,28.2a1,1,0,1,0,1,1A1,1,0,0,0,12.23,28.2Z" style="fill:#fef201"/><path d="M12.27,41.24a1,1,0,1,0,0,2,1,1,0,0,0,0-2Z" style="fill:#fef201"/><path d="M12.31,54.28a1,1,0,0,0-1,1,1,1,0,0,0,1,1,1,1,0,1,0,0-2Z" style="fill:#fef201"/><path d="M12.36,67.33a1,1,0,1,0,1,1A1,1,0,0,0,12.36,67.33Z" style="fill:#fef201"/><path d="M12.4,80.37a1,1,0,0,0-1,1,1,1,0,0,0,2,0A1,1,0,0,0,12.4,80.37Z" style="fill:#fef201"/><path d="M12.44,93.42a1,1,0,1,0,0,2,1,1,0,0,0,0-2Z" style="fill:#fef201"/><path d="M12.48,106.46a1,1,0,0,0,0,2,1,1,0,1,0,0-2Z" style="fill:#fef201"/><path d="M12.53,119.51a1,1,0,1,0,0,2,1,1,0,0,0,1-1A1,1,0,0,0,12.53,119.51Z" style="fill:#fef201"/><path d="M12.57,132.55a1,1,0,1,0,1,1A1,1,0,0,0,12.57,132.55Z" style="fill:#fef201"/><path d="M12.61,145.6a1,1,0,0,0-1,1,1,1,0,0,0,1,1,1,1,0,0,0,1-1A1,1,0,0,0,12.61,145.6Z" style="fill:#fef201"/><path d="M12.65,158.64a1,1,0,1,0,1,1A1,1,0,0,0,12.65,158.64Z" style="fill:#fef201"/><path d="M12.7,171.68a1,1,0,0,0-1,1,1,1,0,0,0,2,0A1,1,0,0,0,12.7,171.68Z" style="fill:#fef201"/><path d="M12.74,184.73a1,1,0,1,0,1,1A1,1,0,0,0,12.74,184.73Z" style="fill:#fef201"/><path d="M12.78,197.77a1,1,0,1,0,0,2,1,1,0,0,0,1-1A1,1,0,0,0,12.78,197.77Z" style="fill:#fef201"/><circle cx="21.13" cy="8.78" r="1" style="fill:#fef201"/><circle cx="21.13" cy="21.82" r="1" style="fill:#fef201"/><circle cx="21.13" cy="34.87" r="1" style="fill:#fef201"/><circle cx="21.13" cy="47.91" r="1" style="fill:#fef201"/><circle cx="21.13" cy="60.95" r="1" style="fill:#fef201"/><circle cx="21.13" cy="74" r="1" style="fill:#fef201"/><circle cx="21.13" cy="87.04" r="1" style="fill:#fef201"/><circle cx="21.13" cy="100.09" r="1" style="fill:#fef201"/><circle cx="21.13" cy="113.13" r="1" style="fill:#fef201"/><circle cx="21.13" cy="126.18" r="1" style="fill:#fef201"/><circle cx="21.13" cy="139.22" r="1" style="fill:#fef201"/><circle cx="21.13" cy="152.26" r="1" style="fill:#fef201"/><circle cx="21.13" cy="165.31" r="1" style="fill:#fef201"/><circle cx="21.13" cy="178.35" r="1" style="fill:#fef201"/><circle cx="21.13" cy="191.4" r="1" style="fill:#fef201"/><circle cx="21.13" cy="204.44" r="1" style="fill:#fef201"/><path d="M28.48,4.11a1,1,0,0,0,1-1,1,1,0,1,0-1,1Z" style="fill:#fef201"/><path d="M28.52,15.15a1,1,0,0,0-1,1,1,1,0,1,0,1-1Z" style="fill:#fef201"/><path d="M28.56,28.2a1,1,0,0,0-1,1,1,1,0,0,0,1,1,1,1,0,0,0,0-2Z" style="fill:#fef201"/><path d="M28.6,41.24a1,1,0,0,0,0,2,1,1,0,1,0,0-2Z" style="fill:#fef201"/><path d="M28.65,54.28a1,1,0,0,0-1,1,1,1,0,0,0,1,1,1,1,0,1,0,0-2Z" style="fill:#fef201"/><path d="M28.69,67.33a1,1,0,1,0,1,1A1,1,0,0,0,28.69,67.33Z" style="fill:#fef201"/><path d="M28.73,80.37a1,1,0,1,0,0,2,1,1,0,0,0,1-1A1,1,0,0,0,28.73,80.37Z" style="fill:#fef201"/><path d="M28.77,93.42a1,1,0,0,0,0,2,1,1,0,1,0,0-2Z" style="fill:#fef201"/><path d="M28.82,106.46a1,1,0,1,0,1,1A1,1,0,0,0,28.82,106.46Z" style="fill:#fef201"/><path d="M28.86,119.51a1,1,0,1,0,1,1A1,1,0,0,0,28.86,119.51Z" style="fill:#fef201"/><path d="M28.9,132.55a1,1,0,1,0,1,1A1,1,0,0,0,28.9,132.55Z" style="fill:#fef201"/><path d="M28.94,145.6a1,1,0,0,0,0,2,1,1,0,0,0,1-1A1,1,0,0,0,28.94,145.6Z" style="fill:#fef201"/><path d="M29,158.64a1,1,0,1,0,1,1A1,1,0,0,0,29,158.64Z" style="fill:#fef201"/><path d="M29,171.68a1,1,0,0,0-1,1,1,1,0,0,0,2,0A1,1,0,0,0,29,171.68Z" style="fill:#fef201"/><path d="M29.07,184.73a1,1,0,0,0-1,1,1,1,0,1,0,1-1Z" style="fill:#fef201"/><path d="M29.11,197.77a1,1,0,1,0,1,1A1,1,0,0,0,29.11,197.77Z" style="fill:#fef201"/><circle cx="37.47" cy="8.78" r="1" style="fill:#fef201"/><circle cx="37.47" cy="21.82" r="1" style="fill:#fef201"/><circle cx="37.47" cy="34.87" r="1" style="fill:#fef201"/><circle cx="37.47" cy="47.91" r="1" style="fill:#fef201"/><circle cx="37.47" cy="60.95" r="1" style="fill:#fef201"/><circle cx="37.47" cy="74" r="1" style="fill:#fef201"/><circle cx="37.47" cy="87.04" r="1" style="fill:#fef201"/><circle cx="37.47" cy="100.09" r="1" style="fill:#fef201"/><circle cx="37.47" cy="113.13" r="1" style="fill:#fef201"/><circle cx="37.47" cy="126.18" r="1" style="fill:#fef201"/><circle cx="37.47" cy="139.22" r="1" style="fill:#fef201"/><circle cx="37.47" cy="152.26" r="1" style="fill:#fef201"/><circle cx="37.47" cy="165.31" r="1" style="fill:#fef201"/><circle cx="37.47" cy="178.35" r="1" style="fill:#fef201"/><circle cx="37.47" cy="191.4" r="1" style="fill:#fef201"/><circle cx="37.47" cy="204.44" r="1" style="fill:#fef201"/><path d="M44.82,4.11a1,1,0,1,0-1-1A1,1,0,0,0,44.82,4.11Z" style="fill:#fef201"/><path d="M44.85,15.15a1,1,0,1,0,0,2,1,1,0,0,0,1-1A1,1,0,0,0,44.85,15.15Z" style="fill:#fef201"/><path d="M44.89,28.2a1,1,0,0,0,0,2,1,1,0,0,0,1-1A1,1,0,0,0,44.89,28.2Z" style="fill:#fef201"/><path d="M44.94,41.24a1,1,0,1,0,1,1A1,1,0,0,0,44.94,41.24Z" style="fill:#fef201"/><path d="M45,54.28a1,1,0,0,0-1,1,1,1,0,0,0,2,0A1,1,0,0,0,45,54.28Z" style="fill:#fef201"/><path d="M45,67.33a1,1,0,0,0-1,1,1,1,0,1,0,1-1Z" style="fill:#fef201"/><path d="M45.06,80.37a1,1,0,0,0-1,1,1,1,0,0,0,1,1,1,1,0,1,0,0-2Z" style="fill:#fef201"/><path d="M45.11,93.42a1,1,0,1,0,1,1A1,1,0,0,0,45.11,93.42Z" style="fill:#fef201"/><path d="M45.15,106.46a1,1,0,1,0,0,2,1,1,0,0,0,0-2Z" style="fill:#fef201"/><path d="M45.19,119.51a1,1,0,0,0-1,1,1,1,0,1,0,1-1Z" style="fill:#fef201"/><path d="M45.24,132.55a1,1,0,1,0,1,1A1,1,0,0,0,45.24,132.55Z" style="fill:#fef201"/><path d="M45.28,145.6a1,1,0,1,0,1,1A1,1,0,0,0,45.28,145.6Z" style="fill:#fef201"/><path d="M45.32,158.64a1,1,0,1,0,0,2,1,1,0,0,0,0-2Z" style="fill:#fef201"/><path d="M45.36,171.68a1,1,0,0,0-1,1,1,1,0,0,0,1,1,1,1,0,1,0,0-2Z" style="fill:#fef201"/><path d="M45.41,184.73a1,1,0,1,0,1,1A1,1,0,0,0,45.41,184.73Z" style="fill:#fef201"/><path d="M45.45,197.77a1,1,0,0,0-1,1,1,1,0,1,0,1-1Z" style="fill:#fef201"/><circle cx="53.8" cy="8.78" r="1" style="fill:#fef201"/><circle cx="53.8" cy="21.82" r="1" style="fill:#fef201"/><circle cx="53.8" cy="34.87" r="1" style="fill:#fef201"/><circle cx="53.8" cy="47.91" r="1" style="fill:#fef201"/><circle cx="53.8" cy="60.95" r="1" style="fill:#fef201"/><circle cx="53.8" cy="74" r="1" style="fill:#fef201"/><circle cx="53.8" cy="87.04" r="1" style="fill:#fef201"/><circle cx="53.8" cy="100.09" r="1" style="fill:#fef201"/><circle cx="53.8" cy="113.13" r="1" style="fill:#fef201"/><circle cx="53.8" cy="126.18" r="1" style="fill:#fef201"/><circle cx="53.8" cy="139.22" r="1" style="fill:#fef201"/><circle cx="53.8" cy="152.26" r="1" style="fill:#fef201"/><circle cx="53.8" cy="165.31" r="1" style="fill:#fef201"/><circle cx="53.8" cy="178.35" r="1" style="fill:#fef201"/><circle cx="53.8" cy="191.4" r="1" style="fill:#fef201"/><circle cx="53.8" cy="204.44" r="1" style="fill:#fef201"/><path d="M61.15,4.11a1,1,0,1,0,0-2,1,1,0,0,0-1,1A1,1,0,0,0,61.15,4.11Z" style="fill:#fef201"/><path d="M61.18,15.15a1,1,0,1,0,1,1A1,1,0,0,0,61.18,15.15Z" style="fill:#fef201"/><path d="M61.23,28.2a1,1,0,1,0,1,1A1,1,0,0,0,61.23,28.2Z" style="fill:#fef201"/><path d="M61.27,41.24a1,1,0,1,0,0,2,1,1,0,0,0,0-2Z" style="fill:#fef201"/><path d="M61.31,54.28a1,1,0,0,0-1,1,1,1,0,0,0,1,1,1,1,0,1,0,0-2Z" style="fill:#fef201"/><path d="M61.36,67.33a1,1,0,1,0,1,1A1,1,0,0,0,61.36,67.33Z" style="fill:#fef201"/><path d="M61.4,80.37a1,1,0,0,0-1,1,1,1,0,0,0,2,0A1,1,0,0,0,61.4,80.37Z" style="fill:#fef201"/><path d="M61.44,93.42a1,1,0,1,0,0,2,1,1,0,0,0,0-2Z" style="fill:#fef201"/><path d="M61.48,106.46a1,1,0,0,0,0,2,1,1,0,1,0,0-2Z" style="fill:#fef201"/><path d="M61.53,119.51a1,1,0,0,0,0,2,1,1,0,0,0,1-1A1,1,0,0,0,61.53,119.51Z" style="fill:#fef201"/><path d="M61.57,132.55a1,1,0,1,0,1,1A1,1,0,0,0,61.57,132.55Z" style="fill:#fef201"/><path d="M61.61,145.6a1,1,0,0,0-1,1,1,1,0,0,0,1,1,1,1,0,0,0,1-1A1,1,0,0,0,61.61,145.6Z" style="fill:#fef201"/><path d="M61.65,158.64a1,1,0,1,0,1,1A1,1,0,0,0,61.65,158.64Z" style="fill:#fef201"/><path d="M61.7,171.68a1,1,0,0,0-1,1,1,1,0,0,0,2,0A1,1,0,0,0,61.7,171.68Z" style="fill:#fef201"/><path d="M61.74,184.73a1,1,0,1,0,1,1A1,1,0,0,0,61.74,184.73Z" style="fill:#fef201"/><path d="M61.78,197.77a1,1,0,1,0,0,2,1,1,0,0,0,1-1A1,1,0,0,0,61.78,197.77Z" style="fill:#fef201"/><circle cx="70.13" cy="8.78" r="1" style="fill:#fef201"/><circle cx="70.13" cy="21.82" r="1" style="fill:#fef201"/><circle cx="70.13" cy="34.87" r="1" style="fill:#fef201"/><circle cx="70.13" cy="47.91" r="1" style="fill:#fef201"/><circle cx="70.13" cy="60.95" r="1" style="fill:#fef201"/><circle cx="70.13" cy="74" r="1" style="fill:#fef201"/><circle cx="70.13" cy="87.04" r="1" style="fill:#fef201"/><circle cx="70.13" cy="100.09" r="1" style="fill:#fef201"/><circle cx="70.13" cy="113.13" r="1" style="fill:#fef201"/><circle cx="70.13" cy="126.18" r="1" style="fill:#fef201"/><circle cx="70.13" cy="139.22" r="1" style="fill:#fef201"/><circle cx="70.13" cy="152.26" r="1" style="fill:#fef201"/><circle cx="70.13" cy="165.31" r="1" style="fill:#fef201"/><circle cx="70.13" cy="178.35" r="1" style="fill:#fef201"/><circle cx="70.13" cy="191.4" r="1" style="fill:#fef201"/><circle cx="70.13" cy="204.44" r="1" style="fill:#fef201"/><path d="M77.48,4.11a1,1,0,0,0,1-1,1,1,0,1,0-1,1Z" style="fill:#fef201"/><path d="M77.52,15.15a1,1,0,0,0-1,1,1,1,0,1,0,1-1Z" style="fill:#fef201"/><path d="M77.56,28.2a1,1,0,0,0-1,1,1,1,0,0,0,1,1,1,1,0,0,0,0-2Z" style="fill:#fef201"/><path d="M77.6,41.24a1,1,0,0,0,0,2,1,1,0,1,0,0-2Z" style="fill:#fef201"/><path d="M77.65,54.28a1,1,0,0,0-1,1,1,1,0,0,0,1,1,1,1,0,0,0,0-2Z" style="fill:#fef201"/><path d="M77.69,67.33a1,1,0,1,0,1,1A1,1,0,0,0,77.69,67.33Z" style="fill:#fef201"/><path d="M77.73,80.37a1,1,0,1,0,0,2,1,1,0,0,0,1-1A1,1,0,0,0,77.73,80.37Z" style="fill:#fef201"/><path d="M77.77,93.42a1,1,0,0,0,0,2,1,1,0,1,0,0-2Z" style="fill:#fef201"/><path d="M77.82,106.46a1,1,0,1,0,1,1A1,1,0,0,0,77.82,106.46Z" style="fill:#fef201"/><path d="M77.86,119.51a1,1,0,1,0,1,1A1,1,0,0,0,77.86,119.51Z" style="fill:#fef201"/><path d="M77.9,132.55a1,1,0,1,0,1,1A1,1,0,0,0,77.9,132.55Z" style="fill:#fef201"/><path d="M77.94,145.6a1,1,0,0,0,0,2,1,1,0,0,0,1-1A1,1,0,0,0,77.94,145.6Z" style="fill:#fef201"/><path d="M78,158.64a1,1,0,1,0,1,1A1,1,0,0,0,78,158.64Z" style="fill:#fef201"/><path d="M78,171.68a1,1,0,0,0-1,1,1,1,0,0,0,2,0A1,1,0,0,0,78,171.68Z" style="fill:#fef201"/><path d="M78.07,184.73a1,1,0,0,0-1,1,1,1,0,1,0,1-1Z" style="fill:#fef201"/><path d="M78.11,197.77a1,1,0,1,0,1,1A1,1,0,0,0,78.11,197.77Z" style="fill:#fef201"/><circle cx="86.47" cy="8.78" r="1" style="fill:#fef201"/><circle cx="86.47" cy="21.82" r="1" style="fill:#fef201"/><circle cx="86.47" cy="34.87" r="1" style="fill:#fef201"/><circle cx="86.47" cy="47.91" r="1" style="fill:#fef201"/><circle cx="86.47" cy="60.95" r="1" style="fill:#fef201"/><circle cx="86.47" cy="74" r="1" style="fill:#fef201"/><circle cx="86.47" cy="87.04" r="1" style="fill:#fef201"/><circle cx="86.47" cy="100.09" r="1" style="fill:#fef201"/><circle cx="86.47" cy="113.13" r="1" style="fill:#fef201"/><circle cx="86.47" cy="126.18" r="1" style="fill:#fef201"/><circle cx="86.47" cy="139.22" r="1" style="fill:#fef201"/><circle cx="86.47" cy="152.26" r="1" style="fill:#fef201"/><circle cx="86.47" cy="165.31" r="1" style="fill:#fef201"/><circle cx="86.47" cy="178.35" r="1" style="fill:#fef201"/><circle cx="86.47" cy="191.4" r="1" style="fill:#fef201"/><circle cx="86.47" cy="204.44" r="1" style="fill:#fef201"/><path d="M93.82,4.11a1,1,0,1,0-1-1A1,1,0,0,0,93.82,4.11Z" style="fill:#fef201"/><path d="M93.85,15.15a1,1,0,1,0,0,2,1,1,0,0,0,1-1A1,1,0,0,0,93.85,15.15Z" style="fill:#fef201"/><path d="M93.89,28.2a1,1,0,0,0,0,2,1,1,0,0,0,1-1A1,1,0,0,0,93.89,28.2Z" style="fill:#fef201"/><path d="M93.94,41.24a1,1,0,1,0,1,1A1,1,0,0,0,93.94,41.24Z" style="fill:#fef201"/><path d="M94,54.28a1,1,0,0,0-1,1,1,1,0,0,0,2,0A1,1,0,0,0,94,54.28Z" style="fill:#fef201"/><path d="M94,67.33a1,1,0,0,0-1,1,1,1,0,1,0,1-1Z" style="fill:#fef201"/><path d="M94.06,80.37a1,1,0,0,0-1,1,1,1,0,0,0,1,1,1,1,0,1,0,0-2Z" style="fill:#fef201"/><path d="M94.11,93.42a1,1,0,1,0,1,1A1,1,0,0,0,94.11,93.42Z" style="fill:#fef201"/><path d="M94.15,106.46a1,1,0,1,0,0,2,1,1,0,0,0,0-2Z" style="fill:#fef201"/><path d="M94.19,119.51a1,1,0,0,0-1,1,1,1,0,1,0,1-1Z" style="fill:#fef201"/><path d="M94.24,132.55a1,1,0,1,0,1,1A1,1,0,0,0,94.24,132.55Z" style="fill:#fef201"/><path d="M94.28,145.6a1,1,0,1,0,1,1A1,1,0,0,0,94.28,145.6Z" style="fill:#fef201"/><path d="M94.32,158.64a1,1,0,1,0,0,2,1,1,0,0,0,0-2Z" style="fill:#fef201"/><path d="M94.36,171.68a1,1,0,0,0-1,1,1,1,0,0,0,1,1,1,1,0,1,0,0-2Z" style="fill:#fef201"/><path d="M94.41,184.73a1,1,0,1,0,1,1A1,1,0,0,0,94.41,184.73Z" style="fill:#fef201"/><path d="M94.45,197.77a1,1,0,0,0-1,1,1,1,0,1,0,1-1Z" style="fill:#fef201"/><circle cx="102.8" cy="8.78" r="1" style="fill:#fef201"/><circle cx="102.8" cy="21.82" r="1" style="fill:#fef201"/><circle cx="102.8" cy="34.87" r="1" style="fill:#fef201"/><circle cx="102.8" cy="47.91" r="1" style="fill:#fef201"/><circle cx="102.8" cy="60.95" r="1" style="fill:#fef201"/><circle cx="102.8" cy="74" r="1" style="fill:#fef201"/><circle cx="102.8" cy="87.04" r="1" style="fill:#fef201"/><circle cx="102.8" cy="100.09" r="1" style="fill:#fef201"/><circle cx="102.8" cy="113.13" r="1" style="fill:#fef201"/><circle cx="102.8" cy="126.18" r="1" style="fill:#fef201"/><circle cx="102.8" cy="139.22" r="1" style="fill:#fef201"/><circle cx="102.8" cy="152.26" r="1" style="fill:#fef201"/><circle cx="102.8" cy="165.31" r="1" style="fill:#fef201"/><circle cx="102.8" cy="178.35" r="1" style="fill:#fef201"/><circle cx="102.8" cy="191.4" r="1" style="fill:#fef201"/><circle cx="102.8" cy="204.44" r="1" style="fill:#fef201"/><path d="M110.15,4.11a1,1,0,1,0,0-2,1,1,0,0,0-1,1A1,1,0,0,0,110.15,4.11Z" style="fill:#fef201"/><path d="M110.18,15.15a1,1,0,1,0,1,1A1,1,0,0,0,110.18,15.15Z" style="fill:#fef201"/><path d="M110.23,28.2a1,1,0,1,0,1,1A1,1,0,0,0,110.23,28.2Z" style="fill:#fef201"/><path d="M110.27,41.24a1,1,0,1,0,0,2,1,1,0,0,0,0-2Z" style="fill:#fef201"/><path d="M110.31,54.28a1,1,0,0,0-1,1,1,1,0,0,0,1,1,1,1,0,1,0,0-2Z" style="fill:#fef201"/><path d="M110.36,67.33a1,1,0,1,0,1,1A1,1,0,0,0,110.36,67.33Z" style="fill:#fef201"/><path d="M110.4,80.37a1,1,0,0,0-1,1,1,1,0,0,0,2,0A1,1,0,0,0,110.4,80.37Z" style="fill:#fef201"/><path d="M110.44,93.42a1,1,0,1,0,0,2,1,1,0,0,0,0-2Z" style="fill:#fef201"/><path d="M110.48,106.46a1,1,0,0,0,0,2,1,1,0,1,0,0-2Z" style="fill:#fef201"/><path d="M110.53,119.51a1,1,0,0,0,0,2,1,1,0,0,0,1-1A1,1,0,0,0,110.53,119.51Z" style="fill:#fef201"/><path d="M110.57,132.55a1,1,0,1,0,1,1A1,1,0,0,0,110.57,132.55Z" style="fill:#fef201"/><path d="M110.61,145.6a1,1,0,0,0-1,1,1,1,0,0,0,1,1,1,1,0,0,0,1-1A1,1,0,0,0,110.61,145.6Z" style="fill:#fef201"/><path d="M110.65,158.64a1,1,0,1,0,1,1A1,1,0,0,0,110.65,158.64Z" style="fill:#fef201"/><path d="M110.7,171.68a1,1,0,0,0-1,1,1,1,0,0,0,2,0A1,1,0,0,0,110.7,171.68Z" style="fill:#fef201"/><path d="M110.74,184.73a1,1,0,1,0,1,1A1,1,0,0,0,110.74,184.73Z" style="fill:#fef201"/><path d="M110.78,197.77a1,1,0,1,0,0,2,1,1,0,0,0,1-1A1,1,0,0,0,110.78,197.77Z" style="fill:#fef201"/><circle cx="119.13" cy="8.78" r="1" style="fill:#fef201"/><circle cx="119.13" cy="21.82" r="1" style="fill:#fef201"/><circle cx="119.13" cy="34.87" r="1" style="fill:#fef201"/><circle cx="119.13" cy="47.91" r="1" style="fill:#fef201"/><circle cx="119.13" cy="60.95" r="1" style="fill:#fef201"/><circle cx="119.13" cy="74" r="1" style="fill:#fef201"/><circle cx="119.13" cy="87.04" r="1" style="fill:#fef201"/><circle cx="119.13" cy="100.09" r="1" style="fill:#fef201"/><circle cx="119.13" cy="113.13" r="1" style="fill:#fef201"/><circle cx="119.13" cy="126.18" r="1" style="fill:#fef201"/><circle cx="119.13" cy="139.22" r="1" style="fill:#fef201"/><circle cx="119.13" cy="152.26" r="1" style="fill:#fef201"/><circle cx="119.13" cy="165.31" r="1" style="fill:#fef201"/><circle cx="119.13" cy="178.35" r="1" style="fill:#fef201"/><circle cx="119.13" cy="191.4" r="1" style="fill:#fef201"/><circle cx="119.13" cy="204.44" r="1" style="fill:#fef201"/><path d="M126.48,4.11a1,1,0,0,0,1-1,1,1,0,1,0-1,1Z" style="fill:#fef201"/><path d="M126.52,15.15a1,1,0,0,0-1,1,1,1,0,1,0,1-1Z" style="fill:#fef201"/><path d="M126.56,28.2a1,1,0,0,0-1,1,1,1,0,0,0,1,1,1,1,0,0,0,0-2Z" style="fill:#fef201"/><path d="M126.6,41.24a1,1,0,0,0,0,2,1,1,0,1,0,0-2Z" style="fill:#fef201"/><path d="M126.65,54.28a1,1,0,0,0-1,1,1,1,0,0,0,1,1,1,1,0,0,0,0-2Z" style="fill:#fef201"/><path d="M126.69,67.33a1,1,0,1,0,1,1A1,1,0,0,0,126.69,67.33Z" style="fill:#fef201"/><path d="M126.73,80.37a1,1,0,1,0,0,2,1,1,0,0,0,1-1A1,1,0,0,0,126.73,80.37Z" style="fill:#fef201"/><path d="M126.77,93.42a1,1,0,0,0,0,2,1,1,0,1,0,0-2Z" style="fill:#fef201"/><path d="M126.82,106.46a1,1,0,1,0,1,1A1,1,0,0,0,126.82,106.46Z" style="fill:#fef201"/><path d="M126.86,119.51a1,1,0,1,0,1,1A1,1,0,0,0,126.86,119.51Z" style="fill:#fef201"/><path d="M126.9,132.55a1,1,0,1,0,1,1A1,1,0,0,0,126.9,132.55Z" style="fill:#fef201"/><path d="M126.94,145.6a1,1,0,0,0,0,2,1,1,0,0,0,1-1A1,1,0,0,0,126.94,145.6Z" style="fill:#fef201"/><path d="M127,158.64a1,1,0,1,0,1,1A1,1,0,0,0,127,158.64Z" style="fill:#fef201"/><path d="M127,171.68a1,1,0,0,0-1,1,1,1,0,0,0,2,0A1,1,0,0,0,127,171.68Z" style="fill:#fef201"/><path d="M127.07,184.73a1,1,0,0,0-1,1,1,1,0,1,0,1-1Z" style="fill:#fef201"/><path d="M127.11,197.77a1,1,0,1,0,1,1A1,1,0,0,0,127.11,197.77Z" style="fill:#fef201"/><circle cx="135.47" cy="8.78" r="1" style="fill:#fef201"/><circle cx="135.47" cy="21.82" r="1" style="fill:#fef201"/><circle cx="135.47" cy="34.87" r="1" style="fill:#fef201"/><circle cx="135.47" cy="47.91" r="1" style="fill:#fef201"/><circle cx="135.47" cy="60.95" r="1" style="fill:#fef201"/><circle cx="135.47" cy="74" r="1" style="fill:#fef201"/><circle cx="135.47" cy="87.04" r="1" style="fill:#fef201"/><circle cx="135.47" cy="100.09" r="1" style="fill:#fef201"/><circle cx="135.47" cy="113.13" r="1" style="fill:#fef201"/><circle cx="135.47" cy="126.18" r="1" style="fill:#fef201"/><circle cx="135.47" cy="139.22" r="1" style="fill:#fef201"/><circle cx="135.47" cy="152.26" r="1" style="fill:#fef201"/><circle cx="135.47" cy="165.31" r="1" style="fill:#fef201"/><circle cx="135.47" cy="178.35" r="1" style="fill:#fef201"/><circle cx="135.47" cy="191.4" r="1" style="fill:#fef201"/><circle cx="135.47" cy="204.44" r="1" style="fill:#fef201"/><path d="M142.82,4.11a1,1,0,1,0-1-1A1,1,0,0,0,142.82,4.11Z" style="fill:#fef201"/><path d="M142.85,15.15a1,1,0,1,0,0,2,1,1,0,0,0,1-1A1,1,0,0,0,142.85,15.15Z" style="fill:#fef201"/><path d="M142.89,28.2a1,1,0,0,0,0,2,1,1,0,0,0,1-1A1,1,0,0,0,142.89,28.2Z" style="fill:#fef201"/><path d="M142.94,41.24a1,1,0,1,0,1,1A1,1,0,0,0,142.94,41.24Z" style="fill:#fef201"/><path d="M143,54.28a1,1,0,0,0-1,1,1,1,0,0,0,2,0A1,1,0,0,0,143,54.28Z" style="fill:#fef201"/><path d="M143,67.33a1,1,0,0,0-1,1,1,1,0,1,0,1-1Z" style="fill:#fef201"/><path d="M143.06,80.37a1,1,0,0,0-1,1,1,1,0,0,0,1,1,1,1,0,1,0,0-2Z" style="fill:#fef201"/><path d="M143.11,93.42a1,1,0,1,0,1,1A1,1,0,0,0,143.11,93.42Z" style="fill:#fef201"/><path d="M143.15,106.46a1,1,0,1,0,0,2,1,1,0,0,0,0-2Z" style="fill:#fef201"/><path d="M143.19,119.51a1,1,0,0,0-1,1,1,1,0,1,0,1-1Z" style="fill:#fef201"/><path d="M143.24,132.55a1,1,0,1,0,1,1A1,1,0,0,0,143.24,132.55Z" style="fill:#fef201"/><path d="M143.28,145.6a1,1,0,1,0,1,1A1,1,0,0,0,143.28,145.6Z" style="fill:#fef201"/><path d="M143.32,158.64a1,1,0,1,0,0,2,1,1,0,0,0,0-2Z" style="fill:#fef201"/><path d="M143.36,171.68a1,1,0,0,0-1,1,1,1,0,0,0,1,1,1,1,0,1,0,0-2Z" style="fill:#fef201"/><path d="M143.41,184.73a1,1,0,1,0,1,1A1,1,0,0,0,143.41,184.73Z" style="fill:#fef201"/><path d="M143.45,197.77a1,1,0,0,0-1,1,1,1,0,1,0,1-1Z" style="fill:#fef201"/></g></g><g style="opacity:0.45"><polygon points="80.36 40.2 73.51 40.2 8.1 105.61 8.1 112.45 80.36 40.2" style="fill:#00158e;opacity:0.2"/><polygon points="99.61 40.2 92.76 40.2 8.1 124.85 8.1 131.7 99.61 40.2" style="fill:#00158e;opacity:0.2"/><polygon points="61.11 40.2 54.27 40.2 8.1 86.36 8.1 93.21 61.11 40.2" style="fill:#00158e;opacity:0.2"/><polygon points="41.86 40.2 35.02 40.2 8.1 67.11 8.1 73.96 41.86 40.2" style="fill:#00158e;opacity:0.2"/><polygon points="22.62 40.2 15.77 40.2 8.1 47.86 8.1 54.71 22.62 40.2" style="fill:#00158e;opacity:0.2"/><path d="M108.1,40.2v3.91L11.81,140.4H8.1v30.51H138.82V40.2Zm0,100.2H95.65L108.1,128Zm0-19.3L88.8,140.4H76.4l31.7-31.7Zm0-19.25L69.56,140.4H57.15L108.1,89.45Zm0-19.25L50.31,140.4H37.91L108.1,70.2Zm0-19.24-77,77H18.66L108.1,51Z" style="fill:#00158e;opacity:0.2"/><polygon points="135.94 168.5 135.94 142.05 131.16 146.84 131.16 163.71 114.28 163.71 109.5 168.5 135.94 168.5" style="fill:#0751cf"/><rect x="137.39" y="71.65" width="2.99" height="35.67" style="fill:gold"/><rect x="137.39" y="114.49" width="2.99" height="4.98" style="fill:gold"/><rect x="26.4" y="170.08" width="48.42" height="2.39" style="fill:gold"/><polygon points="23.9 160.58 27.76 160.58 31.88 156.46 25.44 156.46 16.15 165.74 18.74 165.74 23.9 160.58" style="fill:gold"/><polygon points="32.27 160.58 36.13 160.58 40.26 156.46 33.81 156.46 24.53 165.74 27.11 165.74 32.27 160.58" style="fill:gold"/><polygon points="40.65 160.58 44.51 160.58 48.63 156.46 42.19 156.46 32.9 165.74 35.48 165.74 40.65 160.58" style="fill:gold"/><polygon points="49.02 160.58 52.88 160.58 57.01 156.46 50.56 156.46 41.28 165.74 43.86 165.74 49.02 160.58" style="fill:gold"/><polygon points="57.4 160.58 61.26 160.58 65.38 156.46 58.94 156.46 49.65 165.74 52.23 165.74 57.4 160.58" style="fill:gold"/><polygon points="65.77 160.58 69.63 160.58 73.75 156.46 67.31 156.46 58.03 165.74 60.61 165.74 65.77 160.58" style="fill:gold"/><polygon points="74.15 160.58 78.01 160.58 82.13 156.46 75.69 156.46 66.4 165.74 68.98 165.74 74.15 160.58" style="fill:gold"/><polygon points="82.52 160.58 86.38 160.58 90.5 156.46 84.06 156.46 74.77 165.74 77.36 165.74 82.52 160.58" style="fill:gold"/><path d="M125.13,35.49H110.19V31.9h14.94Zm-14.34-.6h13.75V32.5H110.79Z" style="fill:#0751cf"/><path d="M142.87,143.28h-2.59V131.93h2.59Zm-2-.59h1.39V132.52h-1.39Z" style="fill:#0751cf"/><path d="M101.82,179H84.49v-3.79h17.33Zm-16.74-.6h16.14v-2.59H85.08Z" style="fill:#0751cf"/><path d="M16.14,178.15H9.57v-2.39h6.57Zm-6-.59h5.38v-1.2H10.16Z" style="fill:gold"/><path d="M5.78,166.6H3.39V146.67H5.78ZM4,166H5.18V147.27H4Z" style="fill:gold"/><polygon points="94.75 34.58 94.75 34.43 26.95 34.43 26.95 33.06 94.6 33.06 94.6 34.58 94.75 34.58 94.75 34.43 94.75 34.58 94.9 34.58 94.9 32.76 26.65 32.76 26.65 34.73 94.9 34.73 94.9 34.58 94.75 34.58" style="fill:gold"/></g><polygon points="63.58 53.8 61.15 53.03 61.15 50.79 70.13 50.79 70.13 53.8 63.58 53.8" style="fill:#060a0f"/><path d="M58.53,51.75V42.09a1.69,1.69,0,1,0-.38,0v10h3v-.38Z" style="fill:#060a0f"/><polygon points="87.98 53.8 90.41 53.03 90.41 50.79 81.42 50.79 81.42 53.8 87.98 53.8" style="fill:#060a0f"/><path d="M93,51.75V42.09a1.68,1.68,0,1,1,.38,0v10h-3v-.38Z" style="fill:#060a0f"/><polygon points="62.14 158.91 65.07 156.9 65.07 159.84 63.1 160.21 62.14 158.91" style="fill:#483d37"/><path d="M65.07,132.65v31.06l8.7-8.27V145.15c0-2.53.08-5.07.22-7.6l.47-8.24Z" style="fill:#483d37"/><polygon points="68.65 135.85 73.77 145.16 73.77 151.81 65.07 163.71 65.07 135.99 68.65 135.85" style="fill:#725a51"/><polygon points="68.32 160.63 68.32 142.48 65.07 137.77 62.94 137.77 65.07 156.9 67.53 161.64 68.32 160.63" style="fill:#7a1416"/><rect x="65.07" y="156.9" width="7.17" height="11.57" style="fill:#2c2822"/><path d="M56.3,102.44h-.55v-.39h.55A1.07,1.07,0,0,0,57.37,101V99.3a1.07,1.07,0,0,0-1.07-1.07H54.48v-.39H56.3a1.46,1.46,0,0,1,1.46,1.46V101A1.46,1.46,0,0,1,56.3,102.44Z" style="fill:#140c0c"/><path d="M57.46,103.13h-3v-.39h3a1.07,1.07,0,0,0,1.07-1.07V97.18a1.07,1.07,0,0,0-1.07-1.07h-3v-.39h3a1.46,1.46,0,0,1,1.46,1.46v4.49A1.47,1.47,0,0,1,57.46,103.13Z" style="fill:#140c0c"/><path d="M58.2,104.75h-3v-.38h3a1.08,1.08,0,0,0,1.07-1.08v-8.2A1.07,1.07,0,0,0,58.2,94H54.48v-.38H58.2a1.46,1.46,0,0,1,1.46,1.46v8.2A1.46,1.46,0,0,1,58.2,104.75Z" style="fill:#140c0c"/><polygon points="37.28 63.97 39.23 67.16 40.25 66.58 37.8 63.75 37.28 63.97"/><path d="M38.38,67.48a1.29,1.29,0,0,1,.49-1,3.88,3.88,0,0,1,.31-.26,3.64,3.64,0,0,0,.41-.36c.08-.1.07-.12.06-.15a.21.21,0,0,0-.17-.1.9.9,0,0,0-.43.09l-.24.08a1.65,1.65,0,0,1-1.23-.15.61.61,0,0,1-.34-.82.78.78,0,0,1,.32-.33l.78-.44.08,0h0a2.62,2.62,0,0,0-.61.08,3,3,0,0,1-.45.09h0a.77.77,0,0,1-.68-.3.79.79,0,0,1-.11-.77,1.29,1.29,0,0,0,.1-.42h-.18a.54.54,0,0,1-.38-.31.93.93,0,0,1,0-.81l.15-.25c.18-.27.28-.43.17-.65a.26.26,0,0,0-.07-.11,1.5,1.5,0,0,0-.55-.36L35.49,60a2.15,2.15,0,0,1-1-1.51l.44-.07a1.74,1.74,0,0,0,.82,1.2l.29.14a2,2,0,0,1,.7.46,1.43,1.43,0,0,1,.15.22,1.07,1.07,0,0,1-.21,1.08l-.13.22a.53.53,0,0,0,0,.42.13.13,0,0,0,.07.06h.07a.45.45,0,0,1,.42.25.45.45,0,0,1,0,.23,1.77,1.77,0,0,1-.13.55.35.35,0,0,0,.05.34.32.32,0,0,0,.29.13h0a3.14,3.14,0,0,0,.4-.08,2.86,2.86,0,0,1,.73-.09.48.48,0,0,1,.44.42.51.51,0,0,1-.31.46l-.79.44a.36.36,0,0,0-.13.14s-.06.13.15.25a1.2,1.2,0,0,0,.91.1l.2-.06a1.29,1.29,0,0,1,.64-.12.63.63,0,0,1,.51.37.56.56,0,0,1-.13.61,3.72,3.72,0,0,1-.47.42,3.45,3.45,0,0,0-.28.23.94.94,0,0,0-.35.67Z"/><circle cx="34.24" cy="57.53" r="1.34"/><path d="M38.64,76.54c-.07-.11-6.36-4.33.73-10,0,0,6.25-4.71,10.06,2.74Z" style="fill:#aa2b24"/><polygon points="38.64 76.55 43.63 83.96 50.24 79.22 49.44 69.31 38.64 76.55" style="fill:#897d73"/><polygon points="48.98 92.11 52.83 92.11 50.24 79.22 44.85 83.09 48.98 92.11" style="fill:#68584e"/><polygon points="38.64 76.55 37.96 77.68 45.78 92.11 48.98 92.11 44.85 83.09 38.64 76.55" style="fill:#9b806f"/><polygon points="49.44 69.31 55.2 69.31 52.83 92.11 50.24 79.22 49.44 69.31" style="fill:#b99781"/><polygon points="50.24 79.22 55.2 69.31 49.44 69.31 50.24 79.22" style="fill:#9e806d"/><rect x="46.79" y="92.11" width="6.04" height="0.84" style="fill:#796b60"/><polygon points="46.79 92.96 51.82 106.32 53.88 106.32 53.88 92.96 46.79 92.96" style="fill:#56463e"/><polygon points="54.89 72.29 56.41 72.29 56.41 86.94 53.37 86.94 54.89 72.29" style="fill:#56463e"/><circle cx="53.9" cy="98.03" r="0.69" style="fill:#140c0c"/><circle cx="53.88" cy="95.91" r="0.69" style="fill:#140c0c"/><circle cx="53.9" cy="93.82" r="0.69" style="fill:#140c0c"/><polygon points="56.41 72.29 56.41 65.95 64.89 60.5 67.48 70.03 56.41 78.95 56.41 72.29" style="fill:#3f312b"/><polygon points="56.41 84.33 59.33 88.75 59.33 92.11 64.01 99.42 67.09 99.42 67.09 92.11 58.39 83.41 56.41 84.33" style="fill:#3f312b"/><polygon points="56.41 78.95 56.41 84.33 57.95 84.33 64.18 92.11 75.85 92.11 75.85 73.33 67.48 73.33 67.48 70.03 56.41 78.95" style="fill:#68584e"/><rect x="67.09" y="92.11" width="8.76" height="4.74" style="fill:#524741"/><rect x="67.09" y="96.85" width="8.76" height="2.57" style="fill:#3a312b"/><rect x="66.13" y="99.42" width="9.72" height="2.55" style="fill:#352624"/><polygon points="66.13 104.75 63.68 104.75 63.68 106.71 65.33 111.5 65.33 121.52 73.54 130.61 74.83 129.31 73.37 117.45 75.85 104.75 66.13 104.75" style="fill:#2f2621"/><polygon points="56.41 65.95 67.48 70.03 75.85 70.03 75.85 73.33 67.48 73.33 56.41 65.95" style="fill:#2f2621"/><polygon points="68.56 125.1 65.44 132.65 68.65 135.85 73.54 130.61 68.56 125.1" style="fill:#aa2b24"/><path d="M75.85,46.66l-7.29,2.23L64.89,60.5l1,3.83h9.92Z" style="fill:#d54127"/><path d="M65.93,64.33,67.48,70h8.37v-5.7Z" style="fill:#aa2b24"/><polygon points="65.83 57.53 62.78 54.75 64.3 49.3 68.56 48.89 65.83 57.53" style="fill:#ef6f33"/><rect x="71.62" y="51.45" width="1.32" height="9.05"/><polygon points="64.89 60.5 68.71 64.33 65.93 64.33 64.89 60.5" style="fill:#911b1e"/><path d="M67.81,75.53h0a3.53,3.53,0,0,1-3.22,2.24H60.41V81l2.51,2.7,4.35,4.64h8.58V75.53Z" style="fill:#f38d30"/><path d="M58.63,168.47h8.45s1.86.54,1.57-2.77v-4.15a1.77,1.77,0,0,0-1.83-1.71H64.41l-2.27-.93h-.25a2.08,2.08,0,0,0-2,1.51l-.36,1.42a2,2,0,0,1-.49.87l-1.35,1.4a1.53,1.53,0,0,0-.44,1.06v2A1.39,1.39,0,0,0,58.63,168.47Z" style="fill:#2c2822"/><path d="M60.92,164.92v-1a1.86,1.86,0,0,1,1.43-1.76l9.07-2.36a2,2,0,0,1,2.28,1l.24.46a1.6,1.6,0,0,1,.16.48,1.63,1.63,0,0,1,0,.31v2.06a1.77,1.77,0,0,1-.7,1.4,2,2,0,0,1-.83.38l-4,.84a2,2,0,0,1-.43,0H62.88A1.9,1.9,0,0,1,60.92,164.92Z" style="fill:#aa2b24"/><path d="M63.3,163.11a1.3,1.3,0,1,1-1.39,1.3A1.34,1.34,0,0,1,63.3,163.11Z" style="fill:#2c2822"/><polygon points="46.79 100.15 56.41 101.47 56.41 109.19 53.37 118 50.33 118 46.79 100.15" style="fill:#56463e"/><path d="M49.86,112.85h4.29c1,0,1.8.57,1.7,1.24L54.34,126H50l-1.81-11.89C48.05,113.43,48.84,112.85,49.86,112.85Z" style="fill:#2c261c"/><rect x="49.8" y="125.32" width="4.81" height="6.05" style="fill:#f38d30"/><path d="M52.17,131.38a4.92,4.92,0,0,1,0,.81,1.46,1.46,0,0,1-.62,1.19c-.77.5-2.07,2-2.26,6.36a.38.38,0,0,1-.37.38h0a.74.74,0,0,1-.71-.76v-5.84a1.2,1.2,0,0,1,.31-.81l1.25-1.33Z" style="fill:#aeb1b0"/><path d="M52,131.38a3.35,3.35,0,0,0,0,.81,1.41,1.41,0,0,0,.69,1.19c.87.5,2.32,2,2.53,6.36a.42.42,0,0,0,.42.38h0a.78.78,0,0,0,.8-.76v-5.84a1.15,1.15,0,0,0-.35-.81l-1.4-1.33Z" style="fill:#9a9f9a"/><path d="M53.34,128.35a1.13,1.13,0,1,1-1.13-1.21A1.17,1.17,0,0,1,53.34,128.35Z" style="fill:#2c2822"/><path d="M75.14,168.48H69.55s-1.22.36-1-1.83V163.9a1.17,1.17,0,0,1,1.21-1.13h1.59l1.5-.61H73a1.38,1.38,0,0,1,1.35,1l.24.94a1.4,1.4,0,0,0,.32.57l.89.93a1,1,0,0,1,.3.7v1.3A.92.92,0,0,1,75.14,168.48Z" style="fill:#2c2822"/><path d="M73.63,166.14v-.65a1.23,1.23,0,0,0-.95-1.17l-6-1.56a1.32,1.32,0,0,0-1.51.64l-.16.3a1.21,1.21,0,0,0-.11.32,1.49,1.49,0,0,0,0,.21v1.35a1.2,1.2,0,0,0,.46.93,1.38,1.38,0,0,0,.55.25l2.68.56a1.27,1.27,0,0,0,.28,0h3.47A1.26,1.26,0,0,0,73.63,166.14Z" style="fill:#7a1416"/><ellipse cx="72.06" cy="165.79" rx="0.92" ry="0.86" style="fill:#2c2822"/><polygon points="46.79 100.15 56.41 107.24 56.41 101.47 46.79 100.15" style="fill:#aa2b24"/><polygon points="66.13 101.97 66.13 106.71 72.55 106.71 75.85 104.75 75.85 101.97 66.13 101.97" style="fill:#140c0c"/><polygon points="70.02 77.04 75.85 82.87 75.85 77.04 70.02 77.04" style="fill:#aa2b24"/><polygon points="89.56 158.91 86.63 156.9 86.63 159.84 88.59 160.21 89.56 158.91" style="fill:#483d37"/><path d="M86.63,132.65v31.06l-8.71-8.27V145.15c0-2.53-.07-5.07-.21-7.6l-.47-8.24Z" style="fill:#312a25"/><polygon points="83.05 135.85 77.92 145.16 77.92 151.81 86.63 163.71 86.63 135.99 83.05 135.85" style="fill:#57433c"/><polygon points="83.38 160.63 83.38 142.48 86.63 137.77 88.76 137.77 86.63 156.9 84.17 161.64 83.38 160.63" style="fill:#5f0610"/><rect x="79.46" y="156.9" width="7.17" height="11.57" transform="translate(166.08 325.37) rotate(180)" style="fill:#1a1714"/><path d="M95.4,102.44H96v-.39H95.4A1.07,1.07,0,0,1,94.32,101V99.3a1.07,1.07,0,0,1,1.08-1.07h1.81v-.39H95.4a1.46,1.46,0,0,0-1.46,1.46V101A1.46,1.46,0,0,0,95.4,102.44Z" style="fill:#140c0c"/><path d="M94.24,103.13h3v-.39h-3a1.07,1.07,0,0,1-1.07-1.07V97.18a1.07,1.07,0,0,1,1.07-1.07h3v-.39h-3a1.46,1.46,0,0,0-1.46,1.46v4.49A1.47,1.47,0,0,0,94.24,103.13Z" style="fill:#140c0c"/><path d="M93.5,104.75h2.94v-.38H93.5a1.08,1.08,0,0,1-1.08-1.08v-8.2A1.08,1.08,0,0,1,93.5,94h3.71v-.38H93.5A1.46,1.46,0,0,0,92,95.09v8.2A1.46,1.46,0,0,0,93.5,104.75Z" style="fill:#140c0c"/><polygon points="114.42 63.97 112.47 67.16 111.45 66.58 113.9 63.75 114.42 63.97"/><path d="M113.32,67.48a1.32,1.32,0,0,0-.49-1l-.31-.26a3.64,3.64,0,0,1-.41-.36c-.08-.1-.07-.12-.06-.15a.19.19,0,0,1,.16-.1.91.91,0,0,1,.44.09l.23.08a1.67,1.67,0,0,0,1.24-.15.61.61,0,0,0,.34-.82.78.78,0,0,0-.32-.33l-.79-.44-.07,0h0a2.77,2.77,0,0,1,.61.08,3.12,3.12,0,0,0,.44.09h0a.78.78,0,0,0,.68-.3.76.76,0,0,0,.1-.77,1.58,1.58,0,0,1-.09-.42h.17a.55.55,0,0,0,.39-.31,1,1,0,0,0,0-.81l-.15-.25c-.18-.27-.28-.43-.18-.65a.28.28,0,0,1,.08-.11,1.5,1.5,0,0,1,.55-.36l.32-.16a2.15,2.15,0,0,0,1-1.51l-.43-.07a1.75,1.75,0,0,1-.83,1.2,2,2,0,0,1-.29.14,2,2,0,0,0-.69.46,1.43,1.43,0,0,0-.15.22,1,1,0,0,0,.21,1.08l.13.22a.53.53,0,0,1,0,.42.17.17,0,0,1-.07.06h-.07a.45.45,0,0,0-.42.25.37.37,0,0,0,0,.23,1.75,1.75,0,0,0,.12.55.34.34,0,0,1,0,.34.33.33,0,0,1-.29.13h0a3.14,3.14,0,0,1-.4-.08,2.86,2.86,0,0,0-.73-.09.48.48,0,0,0-.44.42c0,.27.22.41.31.46l.78.44a.32.32,0,0,1,.14.14s.06.13-.16.25a1.17,1.17,0,0,1-.9.1l-.2-.06a1.33,1.33,0,0,0-.64-.12.66.66,0,0,0-.52.37.56.56,0,0,0,.14.61,3.72,3.72,0,0,0,.47.42l.28.23a.94.94,0,0,1,.35.67Z"/><circle cx="117.45" cy="57.53" r="1.34"/><path d="M113.06,76.54c.07-.11,6.35-4.33-.74-10,0,0-6.24-4.71-10.06,2.74Z" style="fill:#911d1e"/><polygon points="113.06 76.55 108.06 83.96 101.45 79.22 102.26 69.31 113.06 76.55" style="fill:#786c63"/><polygon points="102.72 92.11 98.87 92.11 101.45 79.22 106.85 83.09 102.72 92.11" style="fill:#5b4c43"/><polygon points="113.06 76.55 113.74 77.68 105.92 92.11 102.72 92.11 106.85 83.09 113.06 76.55" style="fill:#897263"/><polygon points="102.26 69.31 96.5 69.31 98.87 92.11 101.45 79.22 102.26 69.31" style="fill:#a88b78"/><polygon points="101.45 79.22 96.5 69.31 102.26 69.31 101.45 79.22" style="fill:#866756"/><rect x="98.87" y="92.11" width="6.04" height="0.84" style="fill:#665a51"/><polygon points="104.91 92.96 99.88 106.32 97.82 106.32 97.82 92.96 104.91 92.96" style="fill:#3e302a"/><polygon points="96.81 72.29 95.29 72.29 95.29 86.94 98.33 86.94 96.81 72.29" style="fill:#433731"/><circle cx="97.79" cy="98.03" r="0.69" style="fill:#140c0c"/><circle cx="97.82" cy="95.91" r="0.69" style="fill:#140c0c"/><circle cx="97.79" cy="93.82" r="0.69" style="fill:#140c0c"/><polygon points="95.29 72.29 95.29 65.95 86.81 60.5 84.22 70.03 95.29 78.95 95.29 72.29" style="fill:#33251f"/><polygon points="95.29 84.33 92.37 88.75 92.37 92.11 87.69 99.42 84.6 99.42 84.6 92.11 93.3 83.41 95.29 84.33" style="fill:#382925"/><polygon points="95.29 78.95 95.29 84.33 93.74 84.33 87.52 92.11 75.84 92.11 75.84 73.33 84.22 73.33 84.22 70.03 95.29 78.95" style="fill:#433933"/><rect x="75.85" y="92.11" width="8.76" height="4.74" transform="translate(160.45 188.96) rotate(180)" style="fill:#463b35"/><rect x="75.85" y="96.85" width="8.76" height="2.57" transform="translate(160.45 196.27) rotate(180)" style="fill:#29231f"/><rect x="75.85" y="99.42" width="9.72" height="2.55" transform="translate(161.41 201.39) rotate(180)" style="fill:#201412"/><polygon points="85.57 104.75 88.02 104.75 88.02 106.71 86.36 111.5 86.36 121.52 78.16 130.61 76.86 129.31 78.32 117.45 75.84 104.75 85.57 104.75" style="fill:#201715"/><polygon points="95.29 65.95 84.22 70.03 75.84 70.03 75.84 73.33 84.22 73.33 95.29 65.95" style="fill:#0b0409"/><polygon points="83.13 125.1 86.25 132.65 83.05 135.85 78.16 130.61 83.13 125.1" style="fill:#891d1b"/><path d="M75.85,46.66l7.29,2.23L86.8,60.5l-1,3.83H75.85Z" style="fill:#be3427"/><path d="M85.76,64.33,84.22,70H75.85v-5.7Z" style="fill:#911d1e"/><polygon points="85.87 57.53 88.92 54.75 87.39 49.3 83.14 48.89 85.87 57.53" style="fill:#d2592a"/><rect x="78.76" y="51.45" width="1.32" height="9.05" transform="translate(158.84 111.95) rotate(180)"/><polygon points="86.81 60.5 82.99 64.33 85.76 64.33 86.81 60.5" style="fill:#771315"/><path d="M83.89,75.53h0a3.52,3.52,0,0,0,3.22,2.24h4.18V81l-2.52,2.7-4.34,4.64H75.85V75.53Z" style="fill:#d87926"/><path d="M93.07,168.47H84.62s-1.86.54-1.57-2.77v-4.15a1.77,1.77,0,0,1,1.83-1.71h2.41l2.27-.93h.25a2.09,2.09,0,0,1,2,1.51l.36,1.42a1.89,1.89,0,0,0,.49.87l1.35,1.4a1.53,1.53,0,0,1,.44,1.06v2A1.39,1.39,0,0,1,93.07,168.47Z" style="fill:#1a1714"/><path d="M90.78,164.92v-1a1.85,1.85,0,0,0-1.44-1.76l-9.06-2.36a2,2,0,0,0-2.29,1l-.23.46a1.69,1.69,0,0,0-.2.79v2.06a1.8,1.8,0,0,0,.7,1.4,2.17,2.17,0,0,0,.83.38l4,.84a2,2,0,0,0,.42,0h5.26A1.9,1.9,0,0,0,90.78,164.92Z" style="fill:#831919"/><path d="M88.4,163.11a1.3,1.3,0,1,0,1.39,1.3A1.34,1.34,0,0,0,88.4,163.11Z" style="fill:#2c2822"/><polygon points="104.91 100.15 95.29 101.47 95.29 109.19 98.33 118 101.36 118 104.91 100.15" style="fill:#41302a"/><path d="M101.84,112.85h-4.3c-1,0-1.79.57-1.7,1.24L97.35,126h4.37l1.81-11.89C103.64,113.43,102.85,112.85,101.84,112.85Z" style="fill:#14100d"/><rect x="97.09" y="125.32" width="4.81" height="6.05" transform="translate(198.98 256.7) rotate(180)" style="fill:#f38d30;stroke:#b36d27;stroke-miterlimit:10"/><path d="M99.53,131.38a4,4,0,0,0,0,.81,1.46,1.46,0,0,0,.62,1.19c.77.5,2.06,2,2.26,6.36a.38.38,0,0,0,.37.38h0a.74.74,0,0,0,.71-.76v-5.84a1.2,1.2,0,0,0-.31-.81l-1.25-1.33Z" style="fill:#aeb1b0"/><path d="M99.71,131.38a4.92,4.92,0,0,1,0,.81,1.42,1.42,0,0,1-.7,1.19c-.86.5-2.31,2-2.52,6.36a.42.42,0,0,1-.42.38h0a.78.78,0,0,1-.8-.76v-5.84a1.15,1.15,0,0,1,.35-.81l1.4-1.33Z" style="fill:#9a9f9a"/><path d="M98.36,128.35a1.13,1.13,0,1,0,1.13-1.21A1.17,1.17,0,0,0,98.36,128.35Z" style="fill:#2c2822"/><path d="M76.55,168.48h5.59s1.23.36,1-1.83V163.9A1.17,1.17,0,0,0,82,162.77H80.38l-1.5-.61h-.17a1.39,1.39,0,0,0-1.36,1l-.23.94a1.32,1.32,0,0,1-.33.57l-.89.93a1,1,0,0,0-.29.7v1.3A.91.91,0,0,0,76.55,168.48Z" style="fill:#1a1714"/><path d="M78.07,166.14v-.65a1.23,1.23,0,0,1,1-1.17l6-1.56a1.33,1.33,0,0,1,1.51.64l.16.3a1.21,1.21,0,0,1,.11.32,1.48,1.48,0,0,1,0,.21v1.35a1.17,1.17,0,0,1-.46.93,1.26,1.26,0,0,1-.55.25l-2.67.56a1.33,1.33,0,0,1-.28,0H79.36A1.25,1.25,0,0,1,78.07,166.14Z" style="fill:#600611"/><path d="M79.64,164.94a.86.86,0,1,1-.92.85A.89.89,0,0,1,79.64,164.94Z" style="fill:#2c2822"/><polygon points="104.91 100.15 95.29 107.24 95.29 101.47 104.91 100.15" style="fill:#891c1b"/><polygon points="85.57 101.97 85.57 106.71 79.15 106.71 75.84 104.75 75.84 101.97 85.57 101.97" style="fill:#140c0c"/><polygon points="81.68 77.04 75.84 82.87 75.84 77.04 81.68 77.04" style="fill:#8e191d"/></g></g></g></svg>