<svg xmlns="http://www.w3.org/2000/svg" xmlns:xlink="http://www.w3.org/1999/xlink" viewBox="0 0 148.25 207.55"><defs><linearGradient id="Degradado_sin_nombre_4" x1="-14.83" y1="192.72" x2="163.07" y2="14.83" gradientUnits="userSpaceOnUse"><stop offset="0" stop-color="#f1ff01"/><stop offset="1" stop-color="#08e1ff"/></linearGradient><linearGradient id="Degradado_sin_nombre_4-2" x1="-3.89" y1="72.02" x2="98.11" y2="-8.31" xlink:href="#Degradado_sin_nombre_4"/></defs><title>Asset 162</title><g id="Layer_2" data-name="Layer 2"><g id="Layer_3" data-name="Layer 3"><rect width="148.25" height="207.55" style="fill:url(#Degradado_sin_nombre_4)"/><rect width="81.12" height="74.04" style="fill:url(#Degradado_sin_nombre_4-2)"/><polyline points="81.12 0 81.12 74.04 0 74.04" style="fill:none;stroke:#fff;stroke-miterlimit:10"/><g style="opacity:0.45"><polygon points="134.75 97.77 134.75 41.33 117.98 41.33 117.98 34.66 81.74 34.66 81.74 41.33 34.84 41.33 34.84 52.38 23.42 52.38 23.42 41.33 13.7 41.33 13.7 162.38 23.42 162.38 23.42 167.06 41.8 167.06 41.8 162.38 114.42 162.38 114.42 148.15 126.17 148.15 126.17 162.38 134.75 162.38 134.75 138.18 139.34 138.18 139.34 97.77 134.75 97.77" style="fill:#2c2c30;opacity:0.2"/><path d="M47.91,34.5l1.41,1.4-1.41,1.4-1.4-1.4Zm2.69,1.4L52,37.3l1.41-1.4L52,34.5Zm4.09,0,1.4,1.4,1.4-1.4-1.4-1.4Zm4.09,0,1.4,1.4,1.4-1.4-1.4-1.4Zm4.09,0,1.4,1.4,1.4-1.4-1.4-1.4Zm5.49-1.4L67,35.9l1.4,1.4,1.4-1.4Z" style="fill:#9bf424"/><path d="M63.73,159.52h-1l11.38-11.38h3.19l-5,5.05H70.07ZM75,153.19h2.17l5-5.05H79L67.6,159.52h1Zm4.88,0H82l5-5.05H83.86L72.48,159.52h1Zm4.89,0h2.17l5-5.05H88.74L77.37,159.52h1Zm4.88,0h2.17l5-5.05H93.63L82.25,159.52h1Zm4.89,0h2.17l5-5.05H98.51L87.13,159.52h1Zm4.88,0h2.17l5-5.05H103.4L92,159.52h1Zm4.89,0h2.17l5-5.05h-3.19L96.9,159.52h1Z" style="fill:#9bf424"/><path d="M98.09,38.9h4.65L94.4,47.24H89.75Zm18.7,0h-4.66l-8.34,8.34h4.66Zm-7,0h-4.66l-8.34,8.34h4.66Zm35.11,0h-4.65l-8.34,8.34h4.65Zm-21.07,0h-4.65l-8.34,8.34h4.65Zm14.05,0H133.2l-8.34,8.34h4.66Zm-7,0h-4.66l-8.34,8.34h4.66Z" style="fill:#097f00"/><polygon points="10.21 103.03 6.2 103.03 4.54 103.03 4.54 104.69 4.54 108.7 6.2 108.7 6.2 104.69 10.21 104.69 10.21 103.03" style="fill:#097f00"/><rect x="8" y="106.28" width="2.21" height="22.28" style="fill:#097f00"/><rect x="137.86" y="65.94" width="1.48" height="22.42" style="fill:#097f00"/><rect x="137.86" y="128.56" width="2.85" height="2.85" style="fill:#097f00"/><rect x="43.71" y="38.9" width="32.81" height="4.17" style="fill:#097f00"/><rect x="46.06" y="165.72" width="17.71" height="1.34" style="fill:#9bf424"/><rect x="67.6" y="165.72" width="18.04" height="1.34" style="fill:#9bf424"/><rect x="90.76" y="166.39" width="13.43" height="0.67" style="fill:#9bf424"/><rect x="110.13" y="166.39" width="7.75" height="0.67" style="fill:#9bf424"/><rect x="21.01" y="79.64" width="4.43" height="4.43" style="fill:#9bf424"/><rect x="136.01" y="114.75" width="3.32" height="3.32" style="fill:#9bf424"/><rect x="128.26" y="137.81" width="3.1" height="3.1" style="fill:#9bf424"/><rect x="21.01" y="139.36" width="56.36" height="1.55" style="fill:#097f00"/><polyline points="124.48 52.24 124.48 112.67 124.76 112.67 124.76 52.24" style="fill:#9bf424"/><polyline points="127.46 52.24 127.46 112.67 127.74 112.67 127.74 52.24" style="fill:#9bf424"/><polyline points="130.44 52.24 130.44 112.67 130.72 112.67 130.72 52.24" style="fill:#9bf424"/><rect x="27.24" y="47.24" width="3.23" height="18.7" style="fill:#9bf424"/><rect x="130.44" y="153.83" width="1.45" height="14.89" style="fill:#097f00"/></g><polygon points="89.29 117.8 85.72 114.54 85.63 119.24 89.29 117.8" style="fill:#904c6c"/><polygon points="60.02 117.8 63.58 114.54 63.68 119.24 60.02 117.8" style="fill:#904c6c"/><path d="M84.09,64.65c4.62-2.41,6.06-2.11,6.51-1.72s.16,1.47.16,1.48l.57.21c0-.05.51-1.41-.33-2.14-1-.9-3.37-.37-7.2,1.63Z" style="fill:#957db8"/><path d="M93.13,66.05c.05-.1,1.31-2.57.39-4.48a3.77,3.77,0,0,0-2.92-1.93c-.06,0-4.9-.69-8.31,4.33l.5.34c3.19-4.69,7.53-4.1,7.71-4.07A3.19,3.19,0,0,1,93,61.84c.79,1.64-.37,3.91-.38,3.93Z" style="fill:#957db8"/><path d="M64.75,64.77c-4.63-2.41-6.07-2.11-6.52-1.72s-.16,1.47-.16,1.48l-.57.22c0-.06-.51-1.41.33-2.15,1-.9,3.37-.36,7.2,1.63Z" style="fill:#745ea7"/><path d="M55.71,66.17c-.06-.1-1.32-2.56-.4-4.47a3.78,3.78,0,0,1,2.92-1.93c.06,0,4.9-.7,8.32,4.32l-.51.34c-3.19-4.69-7.53-4.09-7.71-4.07A3.19,3.19,0,0,0,55.86,62c-.79,1.64.37,3.91.38,3.93Z" style="fill:#745ea7"/><rect x="57.36" y="136.08" width="14.34" height="19.43" style="fill:#1b1b1c"/><path d="M59.08,64.07h4.47a7.4,7.4,0,0,1,4.7,6.43h3.29V87.87H62.87l-3.79-5.16Z" style="fill:#571739"/><path d="M63.11,64.16l3.19-3.84,1.63.76A14.33,14.33,0,0,0,74,62.45h.71V88H71.54Z" style="fill:#745ea7"/><polygon points="62.37 87.05 61.19 88.47 67.2 103.45 67.2 104.57 65.89 106.14 65.89 109.12 74.7 109.12 74.7 87.5 65.31 87.5 63.78 85.66 62.37 87.05" style="fill:#200018"/><polygon points="65.89 109.12 65.31 110.5 65.31 152.61 66.09 152.61 67.78 141.68 71.75 136.9 71.75 135.67 74.7 132.13 74.7 109.12 65.89 109.12" style="fill:#1b1b1c"/><polygon points="62.18 117.81 60.39 126.86 61.6 137.4 61.6 152.61 65.31 152.61 65.31 110.5 62.18 117.81" style="fill:#0c0c11"/><rect x="57.99" y="136.08" width="13.43" height="2.08" style="fill:#252827"/><rect x="64.49" y="134.99" width="7.76" height="1.09" transform="translate(136.73 271.07) rotate(180)" style="fill:#86181a"/><rect x="70.98" y="136.08" width="1.26" height="18.29" transform="translate(143.23 290.46) rotate(180)" style="fill:#700f13"/><rect x="71.61" y="154.24" width="2.04" height="3.16" transform="translate(145.27 311.64) rotate(180)" style="fill:#7e1517"/><rect x="69.27" y="155.46" width="3.37" height="0.73" transform="translate(141.9 311.64) rotate(180)" style="fill:#1d1e22"/><rect x="68.86" y="152.45" width="1.11" height="6.75" transform="translate(138.83 311.64) rotate(180)" style="fill:#7e1517"/><path d="M72.81,155.16h.85v1.35h-.85a.68.68,0,0,1,0-1.35Z" style="fill:#1d1e22"/><rect x="73.66" y="154.67" width="0.27" height="2.41" transform="translate(147.58 311.75) rotate(180)" style="fill:#1d1e22"/><rect x="71.45" y="154.38" width="0.25" height="3.02" transform="translate(143.15 311.78) rotate(180)" style="fill:#1d1e22"/><rect x="56.73" y="134.99" width="7.76" height="1.09" style="fill:#961b20"/><rect x="56.73" y="136.08" width="1.26" height="18.29" style="fill:#7e1517"/><rect x="55.31" y="154.24" width="2.04" height="3.16" style="fill:#7e1517"/><rect x="56.34" y="155.46" width="3.37" height="0.73" style="fill:#1d1e22"/><rect x="59" y="152.45" width="1.11" height="6.75" style="fill:#7e1517"/><path d="M56.16,155.16h-.85v1.35h.85a.68.68,0,0,0,0-1.35Z" style="fill:#1d1e22"/><rect x="55.05" y="154.67" width="0.27" height="2.41" style="fill:#1d1e22"/><rect x="57.27" y="154.38" width="0.25" height="3.02" style="fill:#1d1e22"/><polygon points="64.49 152.18 60.11 147.43 60.11 150.73 64.49 155.48 64.49 152.18" style="fill:#313832"/><path d="M64.49,148.87l-4.07-4.41a1.76,1.76,0,0,0-.31,1v2l4.38,4.75Z" style="fill:#111b16"/><polygon points="64.49 162.09 60.11 157.34 60.11 160.65 64.49 165.4 64.49 162.09" style="fill:#111b16"/><polygon points="64.49 158.79 60.11 154.03 60.11 157.34 64.49 162.09 64.49 158.79" style="fill:#313832"/><polygon points="64.49 155.48 60.11 150.73 60.11 154.03 64.49 158.79 64.49 155.48" style="fill:#111b16"/><polygon points="64.49 165.4 60.11 160.65 60.11 163.95 63.56 167.7 64.49 167.7 64.49 165.4" style="fill:#313832"/><path d="M60.11,166.05a1.6,1.6,0,0,0,1.52,1.65h1.93L60.11,164Z" style="fill:#111b16"/><path d="M64.49,145.57l-1.63-1.77H61.63a1.49,1.49,0,0,0-1.21.66l4.07,4.41Z" style="fill:#313832"/><polygon points="64.49 143.8 62.86 143.8 64.49 145.57 64.49 143.8" style="fill:#111b16"/><path d="M67.34,167.7a1.59,1.59,0,0,0,1.52-1.65v-2l-3.39,3.68Z" style="fill:#313832"/><polygon points="64.52 145.6 66.18 143.8 64.49 143.8 64.49 145.57 64.52 145.6" style="fill:#313832"/><path d="M67.34,143.8H66.18l-1.66,1.8,0,0v3.3l0,0,4.06-4.41A1.5,1.5,0,0,0,67.34,143.8Z" style="fill:#111b16"/><polygon points="64.49 152.18 64.49 155.48 64.52 155.52 68.86 150.8 68.86 147.5 64.52 152.21 64.49 152.18" style="fill:#111b16"/><path d="M64.49,148.87v3.31l0,0,4.34-4.72v-2a1.71,1.71,0,0,0-.28-.95l-4.06,4.41Z" style="fill:#313832"/><polygon points="64.49 155.48 64.49 158.79 64.52 158.82 68.86 154.1 68.86 150.8 64.52 155.52 64.49 155.48" style="fill:#313832"/><polygon points="64.49 165.4 64.49 167.7 65.47 167.7 68.86 164.02 68.86 160.71 64.52 165.43 64.49 165.4" style="fill:#111b16"/><polygon points="64.49 158.79 64.49 162.09 64.52 162.13 68.86 157.41 68.86 154.1 64.52 158.82 64.49 158.79" style="fill:#111b16"/><polygon points="64.49 162.09 64.49 165.4 64.52 165.43 68.86 160.71 68.86 157.41 64.52 162.13 64.49 162.09" style="fill:#313832"/><path d="M65.29,136.08a.82.82,0,1,1-.8-1A.91.91,0,0,1,65.29,136.08Z" style="fill:#252827"/><polygon points="56.73 134.99 60.93 131.55 61.33 134.99 56.73 134.99" style="fill:#1b1b1c"/><rect x="77.69" y="136.08" width="14.34" height="19.43" transform="translate(169.73 291.6) rotate(180)" style="fill:#1b1b1c"/><path d="M90.32,64.07H85.85a7.42,7.42,0,0,0-4.71,6.43H77.86V87.87h8.67l3.79-5.16Z" style="fill:#7b2e52"/><path d="M86.28,64.16l-3.19-3.84-1.63.76a14.33,14.33,0,0,1-6.06,1.37h-.7V88h3.16Z" style="fill:#957db8"/><polygon points="87.02 87.05 88.2 88.47 82.19 103.45 82.19 104.57 83.5 106.14 83.5 109.12 74.7 109.12 74.7 87.5 84.08 87.5 85.62 85.66 87.02 87.05" style="fill:#000002"/><polygon points="83.5 109.12 84.08 110.5 84.08 152.61 83.31 152.61 81.61 141.68 77.64 136.9 77.64 135.67 74.7 132.13 74.7 109.12 83.5 109.12" style="fill:#000008"/><polygon points="87.21 117.81 89 126.86 87.79 137.4 87.79 152.61 84.08 152.61 84.08 110.5 87.21 117.81"/><rect x="77.97" y="136.08" width="13.43" height="2.08" transform="translate(169.38 274.25) rotate(180)" style="fill:#252827"/><rect x="77.15" y="134.99" width="7.76" height="1.09" style="fill:#6d0e18"/><rect x="77.15" y="136.08" width="1.26" height="18.29" style="fill:#510310"/><rect x="75.74" y="154.24" width="2.04" height="3.16" style="fill:#7e1517"/><rect x="76.76" y="155.46" width="3.37" height="0.73" style="fill:#1d1e22"/><rect x="79.42" y="152.45" width="1.11" height="6.75" style="fill:#7e1517"/><path d="M76.59,155.16h-.85v1.35h.85a.69.69,0,0,0,0-1.35Z" style="fill:#1d1e22"/><rect x="75.47" y="154.67" width="0.27" height="2.41" style="fill:#1d1e22"/><rect x="77.69" y="154.38" width="0.25" height="3.02" style="fill:#1d1e22"/><rect x="84.91" y="134.99" width="7.76" height="1.09" transform="translate(177.57 271.07) rotate(180)" style="fill:#6d0e18"/><rect x="91.4" y="136.08" width="1.26" height="18.29" transform="translate(184.07 290.46) rotate(180)" style="fill:#510310"/><rect x="92.03" y="154.24" width="2.04" height="3.16" transform="translate(186.11 311.64) rotate(180)" style="fill:#7e1517"/><rect x="89.69" y="155.46" width="3.37" height="0.73" transform="translate(182.74 311.64) rotate(180)" style="fill:#1d1e22"/><rect x="89.28" y="152.45" width="1.11" height="6.75" transform="translate(179.67 311.64) rotate(180)" style="fill:#7e1517"/><path d="M93.23,155.16h.85v1.35h-.85a.68.68,0,0,1,0-1.35Z" style="fill:#1d1e22"/><rect x="94.08" y="154.67" width="0.27" height="2.41" transform="translate(188.43 311.75) rotate(180)" style="fill:#1d1e22"/><rect x="91.87" y="154.38" width="0.25" height="3.02" transform="translate(183.99 311.78) rotate(180)" style="fill:#1d1e22"/><polygon points="84.91 152.18 89.28 147.43 89.28 150.73 84.91 155.48 84.91 152.18" style="fill:#313832"/><path d="M84.91,148.87,89,144.46a1.69,1.69,0,0,1,.31,1v2l-4.37,4.75Z" style="fill:#111b16"/><polygon points="84.91 162.09 89.28 157.34 89.28 160.65 84.91 165.4 84.91 162.09" style="fill:#111b16"/><polygon points="84.91 158.79 89.28 154.03 89.28 157.34 84.91 162.09 84.91 158.79" style="fill:#313832"/><polygon points="84.91 155.48 89.28 150.73 89.28 154.03 84.91 158.79 84.91 155.48" style="fill:#111b16"/><polygon points="84.91 165.4 89.28 160.65 89.28 163.95 85.83 167.7 84.91 167.7 84.91 165.4" style="fill:#313832"/><path d="M89.28,166.05a1.59,1.59,0,0,1-1.52,1.65H85.83L89.28,164Z" style="fill:#111b16"/><path d="M84.91,145.57l1.63-1.77h1.22a1.49,1.49,0,0,1,1.21.66l-4.06,4.41Z" style="fill:#313832"/><polygon points="84.91 143.8 86.54 143.8 84.91 145.57 84.91 143.8" style="fill:#111b16"/><path d="M82.05,167.7a1.6,1.6,0,0,1-1.52-1.65v-2l3.39,3.68Z" style="fill:#313832"/><polygon points="84.88 145.6 83.21 143.8 84.91 143.8 84.91 145.57 84.88 145.6" style="fill:#313832"/><path d="M82.05,143.8h1.16l1.66,1.8,0,0v3.3l0,0-4.06-4.41A1.5,1.5,0,0,1,82.05,143.8Z" style="fill:#111b16"/><polygon points="84.91 152.18 84.91 155.48 84.88 155.52 80.53 150.8 80.53 147.5 84.88 152.21 84.91 152.18" style="fill:#111b16"/><path d="M84.91,148.87v3.31l0,0-4.34-4.72v-2a1.79,1.79,0,0,1,.28-.95l4.06,4.41Z" style="fill:#313832"/><polygon points="84.91 155.48 84.91 158.79 84.88 158.82 80.53 154.1 80.53 150.8 84.88 155.52 84.91 155.48" style="fill:#313832"/><polygon points="84.91 165.4 84.91 167.7 83.92 167.7 80.53 164.02 80.53 160.71 84.88 165.43 84.91 165.4" style="fill:#111b16"/><polygon points="84.91 158.79 84.91 162.09 84.88 162.13 80.53 157.41 80.53 154.1 84.88 158.82 84.91 158.79" style="fill:#111b16"/><polygon points="84.91 162.09 84.91 165.4 84.88 165.43 80.53 160.71 80.53 157.41 84.88 162.13 84.91 162.09" style="fill:#313832"/><path d="M84.1,136.08a.82.82,0,1,0,.81-1A.91.91,0,0,0,84.1,136.08Z" style="fill:#252827"/><polygon points="92.66 134.99 88.46 131.55 88.07 134.99 92.66 134.99" style="fill:#1b1b1c"/><path d="M89.5,106.78l2.84,2.31a2.54,2.54,0,0,0,4.14-2v-6h-7Z" style="fill:#323432"/><rect x="91.19" y="104.22" width="3.6" height="16.47" transform="translate(185.98 224.9) rotate(180)" style="fill:#323432"/><path d="M94.21,111.35l-3,.14a1.21,1.21,0,0,0-1.13,1.37l1.64,12.48,3.07-.14.69-12.57A1.21,1.21,0,0,0,94.21,111.35Z" style="fill:#938f8b"/><polygon points="90.91 131.05 96.32 130.8 94.82 124.43 91.48 124.43 90.91 131.05" style="fill:#e0d7d6"/><path d="M93.66,130.92a3.84,3.84,0,0,0,0,.87,1.47,1.47,0,0,0,.76,1.21c.89.49,2.42,2,2.85,6.58a.42.42,0,0,0,.44.38h0a.8.8,0,0,0,.76-.84L98.18,133a1.27,1.27,0,0,0-.39-.83l-1.48-1.34Z" style="fill:#adada9"/><path d="M93.85,130.91a3.63,3.63,0,0,1,.09.86,1.43,1.43,0,0,1-.72,1.28c-1,.58-2.51,2.23-2.54,6.83a.46.46,0,0,1-.45.43h0a.85.85,0,0,1-.93-.76L89,133.4a1.17,1.17,0,0,1,.35-.87l1.52-1.48Z" style="fill:#fff"/><path d="M92.42,64.07s7.68-.66,11.52,11.9l-7.8,6.74H90.32V72.12Z" style="fill:#e0d7d6"/><polygon points="92.42 64.07 90.31 64.07 90.31 78.09 92.05 78.09 92.67 75.97 92.42 64.07" style="fill:#745ea7"/><polygon points="103.94 75.97 106.17 81.07 99.98 93.3 95.52 88.68 95.52 82.56 103.94 75.97" style="fill:#adada9"/><polygon points="99.98 93.3 98 95.69 90.07 90.91 90.07 86.74 90.31 82.71 95.52 82.56 99.98 93.3" style="fill:#938f8b"/><path d="M98,95.69s-3.17,10.75-8.62,10.67l.69-15.45Z" style="fill:#726f6c"/><polygon points="97.7 96.67 98.77 98.26 95.32 106.36 89.38 106.36 97.7 96.67" style="fill:#444344"/><path d="M60,108.32l-2.84,2.3a2.53,2.53,0,0,1-4.13-2v-6h7Z" style="fill:#323432"/><rect x="54.75" y="105.75" width="3.6" height="16.47" style="fill:#323432"/><path d="M55.33,112.89l3,.14a1.19,1.19,0,0,1,1.13,1.36l-1.64,12.48-3.07-.14-.69-12.57A1.2,1.2,0,0,1,55.33,112.89Z" style="fill:#938f8b"/><polygon points="58.63 132.59 53.22 132.33 54.72 125.97 58.07 125.97 58.63 132.59" style="fill:#e0d7d6"/><path d="M55.89,132.46a4.69,4.69,0,0,1,0,.86,1.46,1.46,0,0,1-.76,1.21c-.89.5-2.42,2-2.85,6.58a.41.41,0,0,1-.44.38h0a.79.79,0,0,1-.76-.83l.29-6.15a1.15,1.15,0,0,1,.39-.83l1.47-1.35Z" style="fill:#adada9"/><path d="M55.69,132.45a3.56,3.56,0,0,0-.09.86,1.45,1.45,0,0,0,.72,1.28c1,.58,2.51,2.23,2.54,6.83a.45.45,0,0,0,.45.42h0a.86.86,0,0,0,.94-.76l.28-6.15a1.11,1.11,0,0,0-.35-.86l-1.52-1.48Z" style="fill:#fff"/><path d="M57,64.07S49.29,63.41,45.45,76l7.8,6.74h5.83V72.12Z" style="fill:#e0d7d6"/><polygon points="56.97 64.07 59.08 64.07 59.08 78.09 57.34 78.09 56.72 75.97 56.97 64.07" style="fill:#745ea7"/><polygon points="45.45 75.97 43.22 81.07 49.41 93.3 53.87 88.68 53.87 82.56 45.45 75.97" style="fill:#adada9"/><polygon points="49.41 93.3 51.4 95.69 59.33 90.91 59.33 86.74 59.08 82.71 53.87 82.56 49.41 93.3" style="fill:#938f8b"/><path d="M51.4,95.69s3.17,10.75,8.62,10.67l-.69-15.45Z" style="fill:#726f6c"/><polygon points="51.69 96.67 50.62 98.26 54.07 106.36 60.02 106.36 51.69 96.67" style="fill:#444344"/><path d="M49.81,114.54H57.2v6.51h-4S49.5,114.54,49.81,114.54Z" style="fill:#745ea7"/><path d="M99.73,114.54H92.35v6.51h4S100,114.54,99.73,114.54Z" style="fill:#5c498d"/><rect x="65.89" y="106.15" width="8.8" height="2.97" style="fill:#ed6555"/><rect x="74.7" y="106.15" width="8.8" height="2.97" style="fill:#d44a3d"/><polygon points="65.89 106.14 67.2 104.57 67.2 103.45 74.7 103.45 74.7 106.14 65.89 106.14" style="fill:#a22523"/><polygon points="74.7 103.45 82.19 103.45 82.19 104.57 83.5 106.14 74.7 106.14 74.7 103.45" style="fill:#731016"/><path d="M88,28.54a1.55,1.55,0,1,0-3.09,0,1.63,1.63,0,0,0,1.38,1.67v9.54h-2.4v.38h2.75V30.2A1.62,1.62,0,0,0,88,28.54Z"/><polygon points="82.13 43.02 84.35 41.01 84.35 38.8 76.14 38.8 76.14 43.02 82.13 43.02"/><path d="M61.4,28.7a1.55,1.55,0,1,1,3.1,0,1.63,1.63,0,0,1-1.39,1.66V39.9h2.4v.38H62.76V30.36A1.63,1.63,0,0,1,61.4,28.7Z" style="fill:#060a0f"/><polygon points="67.26 42.86 65.04 41.16 65.04 38.96 73.25 38.96 73.25 42.86 67.26 42.86" style="fill:#060a0f"/><path d="M64.58,68.31H84.82L83,73.39H81.43a4.86,4.86,0,0,0-4,2.16L76,77.63H73l-.84-1.83A4.86,4.86,0,0,0,67.78,73H66.22Z" style="fill:#3a2661"/><rect x="73.03" y="77.63" width="1.67" height="9.87" style="fill:#957db8"/><rect x="74.47" y="77.63" width="1.51" height="9.87" style="fill:#745ea7"/><polygon points="65.29 119.88 70.98 109.12 73.36 109.12 65.29 125.34 65.29 119.88" style="fill:#dd819f"/><polygon points="84.01 119.88 78.32 109.12 75.94 109.12 84.01 125.34 84.01 119.88" style="fill:#ab617d"/><polygon points="65.29 125.34 60.02 121.73 60.02 117.8 65.29 119.88 65.29 125.34" style="fill:#ab617d"/><polygon points="84.01 125.34 89.29 121.73 89.29 117.8 84.01 119.88 84.01 125.34" style="fill:#ab617d"/><polygon points="67.43 42.34 66.3 40.98 60.76 40.98 60.76 43.36 64.86 55.92 74.7 55.92 74.7 42.34 67.43 42.34" style="fill:#a85978"/><polygon points="67.68 59.96 71.12 64.04 74.7 64.04 74.7 61.91 74.7 55.92 66.47 55.92 67.68 59.96" style="fill:#3a2661"/><polygon points="88.63 43.36 88.63 40.98 83.09 40.98 81.96 42.34 74.7 42.34 74.7 55.92 84.53 55.92 88.63 43.36" style="fill:#dd819f"/><polygon points="74.7 55.92 74.7 61.91 74.7 64.04 78.27 64.04 81.72 59.96 82.92 55.92 74.7 55.92" style="fill:#190e3c"/><rect x="71.13" y="44.44" width="1.59" height="7.36" style="fill:#000002"/><rect x="76.31" y="44.44" width="1.59" height="7.36" style="fill:#000002"/></g></g></svg>