<svg xmlns="http://www.w3.org/2000/svg" xmlns:xlink="http://www.w3.org/1999/xlink" viewBox="0 0 148.25 207.55"><defs><linearGradient id="Degradado_sin_nombre_6" x1="-14.83" y1="192.72" x2="163.07" y2="14.83" gradientUnits="userSpaceOnUse"><stop offset="0" stop-color="aqua"/><stop offset="1" stop-color="blue"/></linearGradient></defs><title>Asset 143</title><g id="Layer_2" data-name="Layer 2"><g id="Layer_3" data-name="Layer 3"><rect width="148.25" height="207.55" style="fill:url(#Degradado_sin_nombre_6)"/><g style="opacity:0.45"><polygon points="54.43 42.85 21.09 46.95 17.61 79.66 54.43 42.85" style="fill:#00158e"/><polygon points="140.05 131.08 120.65 34.7 59.37 42.24 17.1 84.51 8.84 162.22 114.89 156.24 140.05 131.08" style="fill:#00158e;opacity:0.2"/><polygon points="119.48 155.98 144.78 154.56 140.78 134.68 119.48 155.98" style="fill:#00158e"/><path d="M132.05,52.21H116.54V48.58h15.51Zm-14.94-.57h14.36V49.15H117.11Z" style="fill:#0751cf"/><path d="M21,146.8H4v-2.49H21Zm-16.46-.57H20.42v-1.34H4.53Z" style="fill:#0751cf"/><path d="M46.27,163.65h-6.7V153.5h6.7Zm-6.13-.57h5.55v-9H40.14Z" style="fill:#0751cf"/><path d="M136.64,92h-8.23V83.81h8.23ZM129,91.47h7.09V84.38H129Z" style="fill:gold"/><path d="M24.92,58.72H12.57v-2H24.92Zm-11.78-.57h11.2v-.86H13.14Z" style="fill:gold"/><rect x="36.41" y="156.28" width="0.96" height="6.32" style="fill:gold"/><rect x="136.16" y="105.35" width="1.34" height="22.02" style="fill:gold"/><rect x="96.15" y="33.74" width="1.53" height="8.81" style="fill:gold"/><rect x="10.17" y="141.54" width="8.81" height="0.96" style="fill:gold"/><rect x="136.16" y="149.96" width="2.49" height="9.57" style="fill:gold"/><rect x="9.91" y="96.29" width="3.69" height="3.7" transform="translate(72.82 20.41) rotate(44.98)" style="fill:gold"/><rect x="17.53" y="96.28" width="3.69" height="3.7" transform="translate(75.04 15.02) rotate(44.98)" style="fill:gold"/><rect x="25.16" y="96.27" width="3.69" height="3.7" transform="translate(77.27 9.63) rotate(44.98)" style="fill:gold"/><rect x="32.78" y="96.26" width="3.69" height="3.7" transform="translate(79.49 4.24) rotate(44.98)" style="fill:gold"/><rect x="40.4" y="96.25" width="3.69" height="3.7" transform="translate(81.71 -1.15) rotate(44.98)" style="fill:gold"/><rect x="48.03" y="96.24" width="3.69" height="3.7" transform="translate(83.94 -6.55) rotate(44.98)" style="fill:gold"/><rect x="63.6" y="36.99" width="17.81" height="6.13" style="fill:gold"/><rect x="88.49" y="153.02" width="5.74" height="9.19" style="fill:gold"/><rect x="128.12" y="61.5" width="3.26" height="17.04" style="fill:gold"/><polygon points="126.59 139.72 126.59 129.04 124.66 130.97 124.66 137.79 117.85 137.79 115.92 139.72 126.59 139.72" style="fill:#0751cf"/><polygon points="114.1 127.11 114.1 137.79 116.03 135.85 116.03 129.04 122.85 129.04 124.78 127.11 114.1 127.11" style="fill:#0751cf"/></g><path d="M87,35.72a1.66,1.66,0,1,0-1.83,1.65v9.44H82.59v.37h2.93V37.36A1.65,1.65,0,0,0,87,35.72Z" style="fill:#060a0f"/><polygon points="80.72 48.81 83.09 48.06 83.09 45.87 74.31 45.87 74.31 48.81 80.72 48.81" style="fill:#060a0f"/><path d="M56.82,35.72a1.66,1.66,0,1,1,1.83,1.65v9.44h2.56v.37H58.27V37.36A1.64,1.64,0,0,1,56.82,35.72Z" style="fill:#060a0f"/><polygon points="63.08 48.81 60.71 48.06 60.71 45.87 69.48 45.87 69.48 48.81 63.08 48.81" style="fill:#060a0f"/><path d="M63.92,52.06v.83c-4.56.08-4.58,4-4.58,4.12h-.83a5.4,5.4,0,0,1,.65-2.44C59.78,53.45,61.11,52.11,63.92,52.06Z"/><path d="M79.06,48.52v.83c3.44.06,5.86,1.32,7.19,3.74a8.33,8.33,0,0,1,1,3.65h.83a9.09,9.09,0,0,0-1.08-4C86,50.83,83.75,48.6,79.06,48.52Z"/><path d="M79.58,52.06v.83c4.56.08,4.58,4,4.58,4.12H85a5.4,5.4,0,0,0-.65-2.44C83.71,53.45,82.39,52.11,79.58,52.06Z"/><path d="M61.63,166s.24-18.56-3.39-23.58v-5.64H68S66.07,159.27,68,166Z" style="fill:#4fc3cb"/><polygon points="61.36 136.86 63.87 148.21 69.17 148.21 69.17 136.31 61.36 136.86" style="fill:#166766"/><polygon points="62.56 123.37 58.1 123.37 58.1 125.93 59.72 136.86 64.5 136.86 66.91 141.15 67.63 141.15 68.44 117.6 68.92 112.92 68.92 112.92 62.56 123.37" style="fill:#313b3c"/><polygon points="62.56 105.18 59.51 111.2 59.51 123.37 62.56 123.37 68.85 113.8 69.48 105.18 62.56 105.18" style="fill:#7a7d7a"/><polygon points="55.45 83.51 59.46 92.45 67.16 92.09 67.16 88.89 67.16 81.81 55.45 83.51" style="fill:#4d5049"/><path d="M61.3,92.36s-1.89,4.54,5.86,1.51V92.09Z" style="fill:#323330"/><path d="M61.1,93.5a5,5,0,0,0-.57,4.56h6.63v-5Z" style="fill:#4d5049"/><path d="M64.44,48.52v.83c-3.44.06-5.86,1.32-7.19,3.74a8.33,8.33,0,0,0-1,3.65h-.83a8.94,8.94,0,0,1,1.08-4C57.55,50.83,59.75,48.6,64.44,48.52Z"/><path d="M45.33,81l0-.83c4.57-.08,4.58-4,4.58-4.13h.83a5.46,5.46,0,0,1-.65,2.45C49.46,79.63,48.14,81,45.33,81Z"/><path d="M44.81,84.57l0-.83c3.45-.06,5.86-1.32,7.19-3.75a8.14,8.14,0,0,0,1-3.64h.83a9,9,0,0,1-1.08,4C51.69,82.25,49.49,84.49,44.81,84.57Z"/><path d="M70.68,66H67.16l-4.28.41-2.35-3.24-7.26,1.73-1.14,11.3s-3.29,9,9.65,7.66l.93,2.67,3.94,2.05.51.27h3.52L71.75,90V66Z" style="fill:#94958e"/><path d="M43.74,56h4.19l3.29,1.6,6.23-2v4.54l3.08,3.08-6.1,2.26S52.46,59.78,43.74,56Z" style="fill:#4fc3cb"/><polygon points="60.52 98.06 63.33 105.18 67.16 105.18 67.16 98.06 60.52 98.06" style="fill:#323330"/><path d="M59.89,105.18l-4.28,4.09s3.92,5.79,3.92,11l1.16.8A6,6,0,0,1,66,119.69V107.76a2.58,2.58,0,0,0-2.58-2.58Z" style="fill:#4d5049"/><circle cx="63.71" cy="125.16" r="4.14" transform="translate(-69.13 79.57) rotate(-44.08)" style="fill:#6d6f69"/><path d="M41.43,86.93v9.52h2.31s2.8-3.91,3.32-7.57c0-.21,0-.41.07-.62a76.65,76.65,0,0,0-.54-10.68l3.48-2.67-5.52-2.58Z" style="fill:#4d5049"/><path d="M43.74,56S37.16,54.7,36,60.53c0,0-1.16,5.92,1.16,8.86,0,0,8.45-.71,10.32,6.41l4.65.44,4.08-1.86S57.17,59.78,43.74,56Z" style="fill:#3c3a37"/><path d="M38.62,76.69s3.17,3.29.76,5.88c0,0-2,4.09,2.81,4.36,0,0,4.53.19,2.69-9.52Z" style="fill:#6d6f69"/><circle cx="42.19" cy="73.26" r="4.94" style="fill:#94958e"/><polygon points="70.68 88.89 71.75 89.95 71.75 106.45 67.18 111.02 67.18 89.95 67.18 88.89 70.68 88.89" style="fill:#9fa19c"/><polygon points="57.45 55.59 62.17 55.59 71.75 66.04 62.17 67.79 56.65 60.53 57.45 55.59" style="fill:#6d6f69"/><rect x="62.71" y="44.56" width="9.03" height="12.46" style="fill:#6d6f69"/><polygon points="62.71 57.02 62.71 61.06 71.75 66.04 71.75 57.02 62.71 57.02" style="fill:#4d5049"/><polygon points="71.75 68.62 59.06 70.85 65.4 84.39 71.75 84.39 71.75 68.62" style="fill:#6d6f69"/><path d="M41.8,97.23l-.3.46A3.63,3.63,0,0,1,40,95.46a4.59,4.59,0,0,1,1-3.54l.45.32a4,4,0,0,0-.93,3.11A3,3,0,0,0,41.8,97.23Z"/><path d="M41.94,100l-.5.62a11.38,11.38,0,0,1-2.83-3.72,8.88,8.88,0,0,1,1-9.31l.65.46a8.06,8.06,0,0,0-1,8.51A10.59,10.59,0,0,0,41.94,100Z"/><path d="M59.34,170.14h9.07s1.15-6.39-4.53-6.68C63.88,163.46,57.58,163.37,59.34,170.14Z" style="fill:#6d726d"/><rect x="58.17" y="170.14" width="10.86" height="1.94" style="fill:#c0c2be"/><rect x="41.69" y="88.8" width="2.91" height="13.3" transform="translate(86.28 190.91) rotate(180)" style="fill:#252827"/><path d="M44.43,96.53,42,96.64a1,1,0,0,0-.91,1.1l1.32,10.08,2.48-.11.56-10.15A1,1,0,0,0,44.43,96.53Z" style="fill:#0d5754"/><rect x="41.64" y="107.19" width="4.37" height="5.15" transform="translate(92.7 217.37) rotate(177.34)" style="fill:#0b181b"/><path d="M44,112.33a3.9,3.9,0,0,0,0,.7,1.21,1.21,0,0,0,.61,1c.72.4,2,1.61,2.3,5.31a.35.35,0,0,0,.36.31h0a.65.65,0,0,0,.61-.68l-.23-5a.94.94,0,0,0-.31-.67l-1.19-1.09Z" style="fill:#000b10"/><path d="M44.14,112.32a2.6,2.6,0,0,1,.07.7,1.15,1.15,0,0,1-.58,1c-.77.47-2,1.8-2.05,5.51a.36.36,0,0,1-.36.35h0a.7.7,0,0,1-.76-.62l-.23-5a.91.91,0,0,1,.29-.7l1.22-1.19Z" style="fill:#323e3f"/><path d="M40.49,90.9v1.87a1.34,1.34,0,0,0,1.33,1.34h2.55a1.68,1.68,0,0,0,1.68-1.68v-.28Z" style="fill:#4fc3cb"/><path d="M39.47,85.42s-2.58,3.91,1,5.48l5.64,1.88s3.37-1.34.86-7.36Z" style="fill:#166766"/><path d="M81.86,166s-.23-18.56,3.4-23.58v-5.64H75.55s1.88,22.54,0,29.22Z" style="fill:#36bab5"/><polygon points="82.14 136.86 79.63 148.21 74.32 148.21 74.32 136.31 82.14 136.86" style="fill:#07514f"/><polygon points="80.94 123.37 85.4 123.37 85.4 125.93 83.78 136.86 79 136.86 76.58 141.15 75.86 141.15 75.06 117.6 74.58 112.92 74.58 112.92 80.94 123.37" style="fill:#0a1518"/><polygon points="80.94 105.18 83.98 111.2 83.98 123.37 80.94 123.37 74.64 113.8 74.02 105.18 80.94 105.18" style="fill:#585c58"/><polygon points="88.05 83.51 84.04 92.45 76.34 92.09 76.34 88.89 76.34 81.81 88.05 83.51" style="fill:#4d5049"/><path d="M82.19,92.36s1.9,4.54-5.85,1.51V92.09Z" style="fill:#262726"/><path d="M82.4,93.5A5,5,0,0,1,83,98.06H76.34v-5Z" style="fill:#3a3b37"/><path d="M98.17,81l0-.83c-4.57-.08-4.58-4-4.58-4.13h-.83a5.46,5.46,0,0,0,.65,2.45C94,79.63,95.36,81,98.17,81Z"/><path d="M98.69,84.57l0-.83c-3.45-.06-5.87-1.32-7.19-3.75a8.14,8.14,0,0,1-1-3.64h-.83a8.82,8.82,0,0,0,1.08,4C91.81,82.25,94,84.49,98.69,84.57Z"/><path d="M72.81,66h3.53l4.27.41L83,63.21l7.26,1.73,1.14,11.3s3.29,9-9.65,7.66l-.93,2.67-4,2.05-.5.27H72.81L71.75,90V66Z" style="fill:#787a77"/><path d="M99.76,56H95.57l-3.3,1.6-6.23-2v4.54L83,63.21l6.1,2.26S91,59.78,99.76,56Z" style="fill:#10b0a8"/><polygon points="82.97 98.06 80.17 105.18 76.34 105.18 76.34 98.06 82.97 98.06" style="fill:#171918"/><path d="M83.61,105.18l4.27,4.09s-3.91,5.79-3.91,11l-1.16.8a6,6,0,0,0-5.34-1.33V107.76a2.57,2.57,0,0,1,2.58-2.58Z" style="fill:#353632"/><circle cx="79.78" cy="125.16" r="4.14" transform="translate(-65.63 95.4) rotate(-45.92)" style="fill:#52544d"/><path d="M102.07,86.93v9.52H99.76s-2.8-3.91-3.32-7.57c0-.21-.06-.41-.07-.62a77.23,77.23,0,0,1,.53-10.68l-3.47-2.67L99,72.33Z" style="fill:#4d5049"/><path d="M99.76,56s6.58-1.25,7.74,4.58c0,0,1.15,5.92-1.16,8.86,0,0-8.46-.71-10.33,6.41l-4.64.44-4.08-1.86S86.32,59.78,99.76,56Z" style="fill:#3c3a37"/><path d="M104.87,76.69s-3.16,3.29-.76,5.88c0,0,2,4.09-2.8,4.36,0,0-4.53.19-2.69-9.52Z" style="fill:#6d6f69"/><circle cx="101.31" cy="73.26" r="4.94" style="fill:#767874"/><polygon points="72.81 88.89 71.75 89.95 71.75 106.45 76.32 111.02 76.32 89.95 76.32 88.89 72.81 88.89" style="fill:#75756c"/><polygon points="86.04 55.59 81.33 55.59 71.75 66.04 81.33 67.79 86.84 60.53 86.04 55.59" style="fill:#535652"/><rect x="71.75" y="44.56" width="9.03" height="12.46" style="fill:#5b5c57"/><polygon points="80.78 57.02 80.78 61.06 71.75 66.04 71.75 57.02 80.78 57.02" style="fill:#3a3b37"/><polygon points="71.75 68.62 84.44 70.85 78.09 84.39 71.75 84.39 71.75 68.62" style="fill:#51544f"/><path d="M101.7,97.23l.3.46a3.63,3.63,0,0,0,1.48-2.23,4.59,4.59,0,0,0-1-3.54l-.45.32a4.07,4.07,0,0,1,.93,3.11A3.09,3.09,0,0,1,101.7,97.23Z"/><path d="M101.56,100l.5.62a11.38,11.38,0,0,0,2.83-3.72,8.9,8.9,0,0,0-1-9.31l-.66.46a8.07,8.07,0,0,1,1,8.51A10.75,10.75,0,0,1,101.56,100Z"/><path d="M84.16,170.14H75.08s-1.15-6.39,4.54-6.68C79.62,163.46,85.91,163.37,84.16,170.14Z" style="fill:#4d524d"/><rect x="74.46" y="170.14" width="10.86" height="1.94" transform="translate(159.79 342.21) rotate(180)" style="fill:#939792"/><rect x="98.91" y="88.8" width="2.91" height="13.3" style="fill:#252827"/><path d="M99.06,96.53l2.44.11a1,1,0,0,1,.91,1.1l-1.32,10.08-2.48-.11-.56-10.15A1,1,0,0,1,99.06,96.53Z" style="fill:#003d3c"/><rect x="97.48" y="107.19" width="4.37" height="5.15" transform="translate(5.19 -4.5) rotate(2.66)" style="fill:#0b181b"/><path d="M99.51,112.33a3.65,3.65,0,0,1,0,.7,1.23,1.23,0,0,1-.61,1c-.73.4-2,1.61-2.3,5.31a.35.35,0,0,1-.36.31h0a.66.66,0,0,1-.62-.68l.23-5a1,1,0,0,1,.32-.67l1.19-1.09Z" style="fill:#000b10"/><path d="M99.35,112.32a3.86,3.86,0,0,0-.07.7,1.18,1.18,0,0,0,.59,1c.76.47,2,1.8,2,5.51a.38.38,0,0,0,.37.35h0a.68.68,0,0,0,.75-.62l.23-5a.9.9,0,0,0-.28-.7l-1.22-1.19Z" style="fill:#323e3f"/><path d="M103,90.9v1.87a1.34,1.34,0,0,1-1.34,1.34H99.13a1.68,1.68,0,0,1-1.68-1.68v-.28Z" style="fill:#37bdb8"/><path d="M104,85.42s2.59,3.91-1,5.48l-5.64,1.88s-3.37-1.34-.86-7.36Z" style="fill:#003d3c"/><rect x="67.68" y="45.75" width="1.86" height="9.84"/><rect x="73.79" y="45.87" width="1.86" height="9.84"/><polygon points="62.71 44.56 71.75 41.44 71.75 44.56 62.71 44.56" style="fill:#3c3a37"/><polygon points="71.75 41.44 80.78 44.56 71.75 44.56 71.75 41.44" style="fill:#252422"/></g></g></svg>