<svg xmlns="http://www.w3.org/2000/svg" xmlns:xlink="http://www.w3.org/1999/xlink" viewBox="0 0 148.25 207.55"><defs><linearGradient id="Degradado_sin_nombre_6" x1="-14.83" y1="192.72" x2="163.07" y2="14.83" gradientUnits="userSpaceOnUse"><stop offset="0" stop-color="aqua"/><stop offset="1" stop-color="blue"/></linearGradient></defs><title>Asset 130</title><g id="Layer_2" data-name="Layer 2"><g id="Layer_3" data-name="Layer 3"><rect width="148.25" height="207.55" style="fill:url(#Degradado_sin_nombre_6)"/><g style="opacity:0.45"><polygon points="135.39 156.18 135.39 112.55 132.72 109.88 132.72 53.79 124.71 53.79 124.71 46.44 97.18 46.44 94.44 49.19 60.75 49.19 54.99 43.43 8.69 43.43 8.69 133.36 12.97 137.63 12.97 157.37 15.71 160.11 15.71 166.87 48.43 166.87 48.43 170.72 75.74 170.72 75.74 173.22 138.49 173.22 138.49 159.28 135.39 156.18" style="fill:#00158e;opacity:0.2"/><path d="M139.7,141.66V118.88a1.53,1.53,0,0,0,1.26-1.5,1.56,1.56,0,1,0-3.12,0,1.53,1.53,0,0,0,1.26,1.5v23l4.6,4.6v33.12H64.76v-5H5.4V41H24.59a1.56,1.56,0,1,0,0-.59H4.8V175.18H64.16v5H144.3v-34Z" style="fill:gold"/><polygon points="84.78 166.79 87.76 166.79 90.94 163.62 85.97 163.62 78.82 170.77 80.81 170.77 84.78 166.79" style="fill:gold"/><polygon points="91.24 166.79 94.21 166.79 97.39 163.62 92.42 163.62 85.27 170.77 87.26 170.77 91.24 166.79" style="fill:gold"/><polygon points="97.69 166.79 100.66 166.79 103.84 163.62 98.87 163.62 91.72 170.77 93.71 170.77 97.69 166.79" style="fill:gold"/><polygon points="104.14 166.79 107.11 166.79 110.29 163.62 105.33 163.62 98.17 170.77 100.16 170.77 104.14 166.79" style="fill:gold"/><polygon points="110.59 166.79 113.56 166.79 116.74 163.62 111.78 163.62 104.62 170.77 106.61 170.77 110.59 166.79" style="fill:gold"/><polygon points="117.04 166.79 120.02 166.79 123.19 163.62 118.23 163.62 111.08 170.77 113.06 170.77 117.04 166.79" style="fill:gold"/><polygon points="123.49 166.79 126.47 166.79 129.64 163.62 124.68 163.62 117.53 170.77 119.52 170.77 123.49 166.79" style="fill:gold"/><polygon points="129.94 166.79 132.92 166.79 136.09 163.62 131.13 163.62 123.98 170.77 125.97 170.77 129.94 166.79" style="fill:gold"/><polygon points="15.91 45.6 13.18 45.6 11.24 48.97 13.18 52.34 15.91 52.34 13.97 48.97 15.91 45.6" style="fill:#0751cf"/><polygon points="22.9 45.6 20.16 45.6 18.22 48.97 20.16 52.34 22.9 52.34 20.95 48.97 22.9 45.6" style="fill:#0751cf"/><polygon points="29.88 45.6 27.14 45.6 25.2 48.97 27.14 52.34 29.88 52.34 27.93 48.97 29.88 45.6" style="fill:#0751cf"/><polygon points="36.86 45.6 34.13 45.6 32.18 48.97 34.13 52.34 36.86 52.34 34.91 48.97 36.86 45.6" style="fill:#0751cf"/><polygon points="43.84 45.6 41.11 45.6 39.16 48.97 41.11 52.34 43.84 52.34 41.9 48.97 43.84 45.6" style="fill:#0751cf"/><polygon points="50.82 45.6 48.09 45.6 46.15 48.97 48.09 52.34 50.82 52.34 48.88 48.97 50.82 45.6" style="fill:#0751cf"/><path d="M66.13,45.94H69l-5.17,5.17H61Zm11.59,0H74.83l-5.16,5.17h2.88Zm-4.35,0H70.48l-5.16,5.17H68.2Zm21.75,0H92.24l-5.17,5.17H90Zm-13.05,0H79.19L74,51.11H76.9Zm8.7,0H87.89l-5.17,5.17h2.89Zm-4.35,0H83.54l-5.17,5.17h2.88Z" style="fill:gold"/><rect x="121.74" y="100.38" width="19.89" height="2.67" style="fill:gold"/><rect x="129.61" y="96.38" width="9.2" height="1.78" style="fill:gold"/><rect x="12.22" y="160.93" width="17.81" height="2.37" style="fill:gold"/><path d="M108.88,53.59H113V49.43h-4.16Zm.59-3.56h3v3h-3Z" style="fill:gold"/><path d="M129.46,85.15V81.69H125.7v3.75h3.76Zm-3.17-2.87h2.57v2.57h-2.57Z" style="fill:gold"/><path d="M125.7,136.3h4.15v-4.16H125.7Zm.59-3.57h3v3h-3Z" style="fill:#0751cf"/><path d="M15.69,150.54h5.14V145.4H15.69Zm.59-4.55h4v4h-4Z" style="fill:gold"/><path d="M11.93,126h3.16v-3.17H11.93Zm.59-2.58h2v2h-2Z" style="fill:#0751cf"/><path d="M32.51,169.54H43.78V165H32.51Zm.59-4H43.19v3.36H33.1Z" style="fill:gold"/><path d="M131.24,59.72V81.09h3.36V59.72Zm.59.6H134V80.5h-2.18Z" style="fill:gold"/><path d="M132.62,51.31V46.07h-5.54v5.54h5.54Zm-4.94-4.65H132V51h-4.35Z" style="fill:gold"/><path d="M38.05,40.83V37.17h-4v3.95h4Zm-3.37-3.07h2.77v2.77H34.68Z" style="fill:gold"/><path d="M52.88,39.94h4.95V35H52.88Zm.6-4.36h3.76v3.76H53.48Z" style="fill:#0751cf"/><polygon points="21.38 79.57 18.51 79.57 18.51 76.7 16.89 76.7 16.89 79.57 14.03 79.57 14.03 81.19 16.89 81.19 16.89 84.06 18.51 84.06 18.51 81.19 21.38 81.19 21.38 79.57" style="fill:gold"/><polygon points="33.8 79.57 30.94 79.57 30.94 76.7 29.32 76.7 29.32 79.57 26.45 79.57 26.45 81.19 29.32 81.19 29.32 84.06 30.94 84.06 30.94 81.19 33.8 81.19 33.8 79.57" style="fill:gold"/><polygon points="46.23 79.57 43.37 79.57 43.37 76.7 41.74 76.7 41.74 79.57 38.88 79.57 38.88 81.19 41.74 81.19 41.74 84.06 43.37 84.06 43.37 81.19 46.23 81.19 46.23 79.57" style="fill:gold"/><polygon points="58.66 79.57 55.79 79.57 55.79 76.7 54.17 76.7 54.17 79.57 51.31 79.57 51.31 81.19 54.17 81.19 54.17 84.06 55.79 84.06 55.79 81.19 58.66 81.19 58.66 79.57" style="fill:gold"/></g><path d="M93.09,31.26a2,2,0,1,0-2.22,2V44.72H87.76v.45h3.56V33.26A2,2,0,0,0,93.09,31.26Z" style="fill:#060a0f"/><polygon points="85.49 47.14 88.37 46.23 88.37 43.58 77.72 43.58 77.72 47.14 85.49 47.14" style="fill:#060a0f"/><path d="M56.49,31.26a2,2,0,1,1,2.22,2V44.72h3.11v.45H58.26V33.26A2,2,0,0,1,56.49,31.26Z" style="fill:#060a0f"/><polygon points="64.09 47.14 61.21 46.23 61.21 43.58 71.86 43.58 71.86 47.14 64.09 47.14" style="fill:#060a0f"/><rect x="64.65" y="46.81" width="21.17" height="17.55" style="fill:#54161d"/><path d="M51.78,119.26,49,118.15a4.41,4.41,0,0,1-2.33-5.77l3.83-9.67.86.34-3.83,9.67a3.45,3.45,0,0,0,1.82,4.52l2.81,1.12Z" style="fill:#100000"/><path d="M98.68,119.21l2.81-1.11a4.39,4.39,0,0,0,2.32-5.76L100,102.67l-.85.34,3.83,9.67a3.46,3.46,0,0,1-1.82,4.52l-2.82,1.11Z" style="fill:#100000"/><path d="M79.34,113.34h3a4.4,4.4,0,0,0,4.28-4.5V98.44h-.93v10.4a3.44,3.44,0,0,1-3.35,3.53h-3Z" style="fill:#100000"/><path d="M70.94,113.34h-3a4.4,4.4,0,0,1-4.28-4.5V98.44h.92v10.4a3.45,3.45,0,0,0,3.36,3.53h3Z" style="fill:#220009"/><polygon points="99.95 89.26 99.95 101.19 95.38 101.19 92.83 90.05 99.95 89.26" style="fill:#232624"/><rect x="96.13" y="103.85" width="3.1" height="14.17" transform="translate(195.35 221.88) rotate(180)" style="fill:#323432"/><path d="M98.73,110l-2.59.12a1,1,0,0,0-1,1.17L96.58,122l2.63-.13.6-10.81A1,1,0,0,0,98.73,110Z" style="fill:#390310"/><rect x="95.75" y="121.35" width="4.66" height="5.49" transform="translate(201.82 243.51) rotate(177.34)" style="fill:#90928d"/><path d="M98.25,126.83a3.5,3.5,0,0,0,0,.74,1.27,1.27,0,0,0,.65,1.05c.77.42,2.08,1.72,2.45,5.65a.36.36,0,0,0,.38.33h0a.68.68,0,0,0,.65-.72l-.24-5.29a1,1,0,0,0-.34-.71l-1.27-1.16Z" style="fill:#aeb1b0"/><path d="M98.42,126.82a3.3,3.3,0,0,1,.08.74,1.24,1.24,0,0,1-.63,1.1c-.81.5-2.15,1.92-2.18,5.88a.39.39,0,0,1-.39.36h0a.73.73,0,0,1-.8-.65L94.25,129a1,1,0,0,1,.31-.74l1.3-1.28Z" style="fill:#9a9f9a"/><path d="M94.68,106.06l2.44,2a2.19,2.19,0,0,0,3.56-1.7v-5.16h-6Z" style="fill:#220009"/><polygon points="49.95 89.3 49.95 101.23 54.52 101.23 57.07 90.09 49.95 89.3" style="fill:#232624"/><rect x="50.67" y="103.9" width="3.1" height="14.17" style="fill:#323432"/><path d="M51.17,110l2.59.12a1,1,0,0,1,1,1.17l-1.42,10.74L50.68,122l-.59-10.81A1,1,0,0,1,51.17,110Z" style="fill:#590512"/><rect x="49.48" y="121.4" width="4.66" height="5.49" transform="translate(5.81 -2.27) rotate(2.66)" style="fill:#90928d"/><path d="M51.65,126.88a3.46,3.46,0,0,1,0,.74,1.29,1.29,0,0,1-.65,1c-.77.43-2.08,1.72-2.45,5.66a.37.37,0,0,1-.38.33h0a.7.7,0,0,1-.66-.72l.25-5.29a1,1,0,0,1,.34-.71l1.26-1.16Z" style="fill:#aeb1b0"/><path d="M51.48,126.87a3.22,3.22,0,0,0-.08.74,1.28,1.28,0,0,0,.62,1.1c.82.5,2.16,1.92,2.19,5.87a.39.39,0,0,0,.39.37h0a.73.73,0,0,0,.8-.65l.25-5.29a1,1,0,0,0-.31-.75L54,127Z" style="fill:#9a9f9a"/><path d="M55.22,106.11l-2.44,2a2.18,2.18,0,0,1-3.56-1.69v-5.17h6Z" style="fill:#220009"/><path d="M67.28,62c-2-3.14-4-4.67-5.94-4.56-3,.17-5.05,4.26-5.07,4.31l-.87-.43c.09-.19,2.29-4.64,5.88-4.85,2.32-.13,4.62,1.55,6.82,5Z"/><path d="M58.55,63.14l-.94-.25c0-.14.93-3.3,3.13-3.76,1.4-.29,2.94.6,4.57,2.64l-.75.61c-1.37-1.71-2.62-2.51-3.63-2.3C59.59,60.36,58.76,62.38,58.55,63.14Z"/><path d="M82.8,62c2-3.14,4-4.67,5.94-4.56,3,.17,5.05,4.26,5.07,4.31l.87-.43c-.09-.19-2.29-4.64-5.88-4.85-2.32-.13-4.62,1.55-6.82,5Z"/><path d="M91.53,63.14l.94-.25c0-.14-.93-3.3-3.12-3.76-1.41-.29-2.95.6-4.58,2.64l.75.61c1.37-1.71,2.62-2.51,3.63-2.3C90.49,60.36,91.32,62.38,91.53,63.14Z"/><polygon points="72.39 116.42 75.04 113.84 75.04 103.4 68.83 106.31 72.39 116.42" style="fill:#1d0007"/><polygon points="58.64 165.11 55.87 166.99 55.87 172.97 72.3 172.97 72.3 161 64.14 152.85 58.64 165.11"/><path d="M67.35,107.55S70,114,65.58,116.81c0,0-5.06,2-3.39,19.06l10.11-10.1v-22l-3.47-2.23Z" style="fill:#220009"/><polygon points="62.19 149.55 58.64 153.1 58.64 165.11 64.84 158.9 72.3 161.34 72.3 145.27 66.45 139.97 62.19 149.55" style="fill:#200008"/><path d="M62.19,135.87v13.68l1.7-1.7a5.79,5.79,0,0,1,7.82-.33l.59.49V125.77Z" style="fill:#590512"/><polygon points="55.83 76.61 60.34 84.82 75.04 84.82 75.04 80.32 63.41 71.71 55.83 76.61" style="fill:#791d25"/><polygon points="60.34 84.82 65.44 107.62 70.59 107.16 75.04 103.4 75.04 84.82 60.34 84.82" style="fill:#590512"/><path d="M61.27,65.9a4.91,4.91,0,0,0,.9-1.48,5.41,5.41,0,0,1,4.15-3.05L75,60.14V80.32H65.81l-6.69-5.07Z" style="fill:#c66665"/><path d="M59.31,81.57l1,.63a71,71,0,0,0-5.19,19H52.87V84.28a3,3,0,0,1,3-3h1.51Z" style="fill:#c66665"/><path d="M51.31,77.19,49.52,84a6.08,6.08,0,0,0,2.25,6.42l1.1.82,3.73-9.94-2-4.1Z" style="fill:#954145"/><path d="M52.87,77.19l2.68,6.26,3.76-1.88s-1-2.89-.65-4.38Z" style="fill:#b65858"/><path d="M51.31,77.19h0a38.78,38.78,0,0,0-.24-4.31c-.34-3-.66-9.31,1.88-12.21A1.58,1.58,0,0,1,55,60.41L60.3,64a2.24,2.24,0,0,1,.91,2.36L58.66,77.19Z" style="fill:#220009"/><polyline points="59.12 75.25 59.52 73.54 66.34 78.94 75.04 78.94 75.04 80.32 65.81 80.32 59.08 75.4" style="fill:#f38d30"/><polygon points="77.69 116.42 75.04 113.84 75.04 103.4 81.25 106.31 77.69 116.42"/><polygon points="91.44 165.11 94.21 166.99 94.21 172.97 77.78 172.97 77.78 161 85.94 152.85 91.44 165.11"/><path d="M82.73,107.55s-2.67,6.44,1.77,9.26c0,0,5.06,2,3.39,19.06l-10.11-10.1v-22l3.47-2.23Z" style="fill:#100000"/><polygon points="87.89 149.55 91.44 153.1 91.44 165.11 85.24 158.9 77.78 161.34 77.78 145.27 83.63 139.97 87.89 149.55" style="fill:#010000"/><path d="M87.89,135.87v13.68l-1.7-1.7a5.79,5.79,0,0,0-7.82-.33l-.59.49V125.77Z" style="fill:#390310"/><polygon points="94.25 76.61 89.74 84.82 75.04 84.82 75.04 80.32 86.67 71.71 94.25 76.61" style="fill:#560515"/><polygon points="89.74 84.82 84.64 107.62 79.48 107.16 75.04 103.4 75.04 84.82 89.74 84.82" style="fill:#34000c"/><path d="M88.81,65.9a4.91,4.91,0,0,1-.9-1.48,5.41,5.41,0,0,0-4.15-3.05L75,60.14V80.32h9.23L91,75.25Z" style="fill:#b35a5b"/><path d="M90.77,81.57l-1,.63a71,71,0,0,1,5.19,19h2.28V84.28a3,3,0,0,0-3-3H92.71Z" style="fill:#c66665"/><path d="M98.77,77.19l1.79,6.8a6.08,6.08,0,0,1-2.25,6.42l-1.1.82-3.73-9.94,2-4.1Z" style="fill:#954145"/><path d="M97.21,77.19l-2.68,6.26-3.76-1.88s1-2.89.65-4.38Z" style="fill:#b65858"/><path d="M98.77,77.19h0A38.78,38.78,0,0,1,99,72.88c.34-3,.66-9.31-1.88-12.21a1.58,1.58,0,0,0-2.07-.26L89.78,64a2.24,2.24,0,0,0-.91,2.36l2.55,10.82Z" style="fill:#0c0000"/><polyline points="90.96 75.25 90.56 73.54 83.74 78.94 75.04 78.94 75.04 80.32 84.27 80.32 91 75.4" style="fill:#b56527"/><polygon points="64.12 86.15 64.12 88.97 75.18 99.96 75.18 88.97 75.18 86.15 64.12 86.15" style="fill:#323432"/><polygon points="86.17 86.14 86.17 88.95 75.18 99.94 75.18 88.95 75.18 86.14 86.17 86.14" style="fill:#1f2321"/><polygon points="75.23 73.01 75.25 73.01 84.29 73.01 84.29 74.56 75.23 74.56 75.23 73.01" style="fill:#430013"/><path d="M64.06,74.56H75.21V90.7l-9-2.87V86.17C69.17,84.21,64.06,74.56,64.06,74.56Z" style="fill:#901c27"/><path d="M66.17,73h-1.6V69.64a26,26,0,0,1,10.66-4.39V73Z" style="fill:#901c27"/><polygon points="75.23 73.01 75.21 73.01 66.17 73.01 66.17 74.56 75.23 74.56 75.23 73.01" style="fill:#6d0c1a"/><path d="M86.34,74.56H75.2V90.7l9-2.87V86.17C81.23,84.21,86.34,74.56,86.34,74.56Z" style="fill:#6d0c1a"/><path d="M84.29,73h1.6V69.64a26,26,0,0,0-10.66-4.39V73Z" style="fill:#6d0c1a"/><polygon points="70.7 53.29 64.35 63.14 75.04 63.14 75.04 55.13 70.7 53.29" style="fill:#791d25"/><path d="M75.22,57.81s-4.12.93-4.58-1.84A7.13,7.13,0,0,0,70,54c-.86-1.68-2.6-4.6-4.91-6.12,0,0-1-1.11.09-1.83a2.52,2.52,0,0,0,1-1.25,3.13,3.13,0,0,0-.57-3S63,36.32,74.77,37.06h.45Z" style="fill:#944246"/><polygon points="80.17 54.44 85.73 63.14 75.04 63.14 75.04 55.13 80.17 54.44" style="fill:#600d18"/><path d="M75,57.81s4.19.93,4.66-1.84a6.84,6.84,0,0,1,.66-2c.88-1.68,2.64-4.6,5-6.12,0,0,1-1.11-.09-1.83a2.45,2.45,0,0,1-1-1.25,3.06,3.06,0,0,1,.58-3s2.65-5.41-9.33-4.67H75Z" style="fill:#672028"/><path d="M57.07,128.07h8.21V140l-6.65-2.11v-1.22C60.83,135.19,57.07,128.07,57.07,128.07Z" style="fill:#901c27"/><polygon points="65.28 134.95 72.3 130.66 72.3 125.77 65.28 132.78 65.28 134.95" style="fill:#590512"/><path d="M93,127.66H84.8v11.9l6.65-2.11v-1.23C89.25,134.78,93,127.66,93,127.66Z" style="fill:#771021"/><polygon points="84.8 134.54 77.78 130.25 77.78 125.36 84.8 132.37 84.8 134.54" style="fill:#35000e"/><rect x="71.56" y="42.01" width="1.2" height="5.98" style="fill:#672028"/><rect x="77.35" y="42.01" width="1.2" height="5.98" style="fill:#4f131b"/></g></g></svg>