<svg xmlns="http://www.w3.org/2000/svg" xmlns:xlink="http://www.w3.org/1999/xlink" viewBox="0 0 148.25 207.55"><defs><clipPath id="clip-path"><rect width="148.25" height="207.55" style="fill:none"/></clipPath><linearGradient id="Degradado_sin_nombre_5" x1="-14.83" y1="14.83" x2="163.07" y2="192.72" gradientUnits="userSpaceOnUse"><stop offset="0" stop-color="#fef201"/><stop offset="1" stop-color="#ff1443"/></linearGradient></defs><title>Asset 171</title><g style="isolation:isolate"><g id="Layer_2" data-name="Layer 2"><g id="Layer_3" data-name="Layer 3"><g style="clip-path:url(#clip-path)"><rect width="148.25" height="207.55" style="fill:url(#Degradado_sin_nombre_5)"/><g style="opacity:0.46;mix-blend-mode:soft-light"><circle cx="4.8" cy="8.78" r="1" style="fill:#fef201"/><circle cx="4.8" cy="21.82" r="1" style="fill:#fef201"/><circle cx="4.8" cy="34.87" r="1" style="fill:#fef201"/><circle cx="4.8" cy="47.91" r="1" style="fill:#fef201"/><circle cx="4.8" cy="60.95" r="1" style="fill:#fef201"/><circle cx="4.8" cy="74" r="1" style="fill:#fef201"/><circle cx="4.8" cy="87.04" r="1" style="fill:#fef201"/><circle cx="4.8" cy="100.09" r="1" style="fill:#fef201"/><circle cx="4.8" cy="113.13" r="1" style="fill:#fef201"/><circle cx="4.8" cy="126.18" r="1" style="fill:#fef201"/><circle cx="4.8" cy="139.22" r="1" style="fill:#fef201"/><circle cx="4.8" cy="152.26" r="1" style="fill:#fef201"/><circle cx="4.8" cy="165.31" r="1" style="fill:#fef201"/><circle cx="4.8" cy="178.35" r="1" style="fill:#fef201"/><circle cx="4.8" cy="191.4" r="1" style="fill:#fef201"/><circle cx="4.8" cy="204.44" r="1" style="fill:#fef201"/><path d="M12.15,4.11a1,1,0,1,0,0-2,1,1,0,0,0-1,1A1,1,0,0,0,12.15,4.11Z" style="fill:#fef201"/><path d="M12.18,15.15a1,1,0,1,0,1,1A1,1,0,0,0,12.18,15.15Z" style="fill:#fef201"/><path d="M12.23,28.2a1,1,0,1,0,1,1A1,1,0,0,0,12.23,28.2Z" style="fill:#fef201"/><path d="M12.27,41.24a1,1,0,1,0,0,2,1,1,0,0,0,0-2Z" style="fill:#fef201"/><path d="M12.31,54.28a1,1,0,0,0-1,1,1,1,0,0,0,1,1,1,1,0,1,0,0-2Z" style="fill:#fef201"/><path d="M12.36,67.33a1,1,0,1,0,1,1A1,1,0,0,0,12.36,67.33Z" style="fill:#fef201"/><path d="M12.4,80.37a1,1,0,0,0-1,1,1,1,0,0,0,2,0A1,1,0,0,0,12.4,80.37Z" style="fill:#fef201"/><path d="M12.44,93.42a1,1,0,1,0,0,2,1,1,0,0,0,0-2Z" style="fill:#fef201"/><path d="M12.48,106.46a1,1,0,0,0,0,2,1,1,0,1,0,0-2Z" style="fill:#fef201"/><path d="M12.53,119.51a1,1,0,1,0,0,2,1,1,0,0,0,1-1A1,1,0,0,0,12.53,119.51Z" style="fill:#fef201"/><path d="M12.57,132.55a1,1,0,1,0,1,1A1,1,0,0,0,12.57,132.55Z" style="fill:#fef201"/><path d="M12.61,145.6a1,1,0,0,0-1,1,1,1,0,0,0,1,1,1,1,0,0,0,1-1A1,1,0,0,0,12.61,145.6Z" style="fill:#fef201"/><path d="M12.65,158.64a1,1,0,1,0,1,1A1,1,0,0,0,12.65,158.64Z" style="fill:#fef201"/><path d="M12.7,171.68a1,1,0,0,0-1,1,1,1,0,0,0,2,0A1,1,0,0,0,12.7,171.68Z" style="fill:#fef201"/><path d="M12.74,184.73a1,1,0,1,0,1,1A1,1,0,0,0,12.74,184.73Z" style="fill:#fef201"/><path d="M12.78,197.77a1,1,0,1,0,0,2,1,1,0,0,0,1-1A1,1,0,0,0,12.78,197.77Z" style="fill:#fef201"/><circle cx="21.13" cy="8.78" r="1" style="fill:#fef201"/><circle cx="21.13" cy="21.82" r="1" style="fill:#fef201"/><circle cx="21.13" cy="34.87" r="1" style="fill:#fef201"/><circle cx="21.13" cy="47.91" r="1" style="fill:#fef201"/><circle cx="21.13" cy="60.95" r="1" style="fill:#fef201"/><circle cx="21.13" cy="74" r="1" style="fill:#fef201"/><circle cx="21.13" cy="87.04" r="1" style="fill:#fef201"/><circle cx="21.13" cy="100.09" r="1" style="fill:#fef201"/><circle cx="21.13" cy="113.13" r="1" style="fill:#fef201"/><circle cx="21.13" cy="126.18" r="1" style="fill:#fef201"/><circle cx="21.13" cy="139.22" r="1" style="fill:#fef201"/><circle cx="21.13" cy="152.26" r="1" style="fill:#fef201"/><circle cx="21.13" cy="165.31" r="1" style="fill:#fef201"/><circle cx="21.13" cy="178.35" r="1" style="fill:#fef201"/><circle cx="21.13" cy="191.4" r="1" style="fill:#fef201"/><circle cx="21.13" cy="204.44" r="1" style="fill:#fef201"/><path d="M28.48,4.11a1,1,0,0,0,1-1,1,1,0,1,0-1,1Z" style="fill:#fef201"/><path d="M28.52,15.15a1,1,0,0,0-1,1,1,1,0,1,0,1-1Z" style="fill:#fef201"/><path d="M28.56,28.2a1,1,0,0,0-1,1,1,1,0,0,0,1,1,1,1,0,0,0,0-2Z" style="fill:#fef201"/><path d="M28.6,41.24a1,1,0,0,0,0,2,1,1,0,1,0,0-2Z" style="fill:#fef201"/><path d="M28.65,54.28a1,1,0,0,0-1,1,1,1,0,0,0,1,1,1,1,0,1,0,0-2Z" style="fill:#fef201"/><path d="M28.69,67.33a1,1,0,1,0,1,1A1,1,0,0,0,28.69,67.33Z" style="fill:#fef201"/><path d="M28.73,80.37a1,1,0,1,0,0,2,1,1,0,0,0,1-1A1,1,0,0,0,28.73,80.37Z" style="fill:#fef201"/><path d="M28.77,93.42a1,1,0,0,0,0,2,1,1,0,1,0,0-2Z" style="fill:#fef201"/><path d="M28.82,106.46a1,1,0,1,0,1,1A1,1,0,0,0,28.82,106.46Z" style="fill:#fef201"/><path d="M28.86,119.51a1,1,0,1,0,1,1A1,1,0,0,0,28.86,119.51Z" style="fill:#fef201"/><path d="M28.9,132.55a1,1,0,1,0,1,1A1,1,0,0,0,28.9,132.55Z" style="fill:#fef201"/><path d="M28.94,145.6a1,1,0,0,0,0,2,1,1,0,0,0,1-1A1,1,0,0,0,28.94,145.6Z" style="fill:#fef201"/><path d="M29,158.64a1,1,0,1,0,1,1A1,1,0,0,0,29,158.64Z" style="fill:#fef201"/><path d="M29,171.68a1,1,0,0,0-1,1,1,1,0,0,0,2,0A1,1,0,0,0,29,171.68Z" style="fill:#fef201"/><path d="M29.07,184.73a1,1,0,0,0-1,1,1,1,0,1,0,1-1Z" style="fill:#fef201"/><path d="M29.11,197.77a1,1,0,1,0,1,1A1,1,0,0,0,29.11,197.77Z" style="fill:#fef201"/><circle cx="37.47" cy="8.78" r="1" style="fill:#fef201"/><circle cx="37.47" cy="21.82" r="1" style="fill:#fef201"/><circle cx="37.47" cy="34.87" r="1" style="fill:#fef201"/><circle cx="37.47" cy="47.91" r="1" style="fill:#fef201"/><circle cx="37.47" cy="60.95" r="1" style="fill:#fef201"/><circle cx="37.47" cy="74" r="1" style="fill:#fef201"/><circle cx="37.47" cy="87.04" r="1" style="fill:#fef201"/><circle cx="37.47" cy="100.09" r="1" style="fill:#fef201"/><circle cx="37.47" cy="113.13" r="1" style="fill:#fef201"/><circle cx="37.47" cy="126.18" r="1" style="fill:#fef201"/><circle cx="37.47" cy="139.22" r="1" style="fill:#fef201"/><circle cx="37.47" cy="152.26" r="1" style="fill:#fef201"/><circle cx="37.47" cy="165.31" r="1" style="fill:#fef201"/><circle cx="37.47" cy="178.35" r="1" style="fill:#fef201"/><circle cx="37.47" cy="191.4" r="1" style="fill:#fef201"/><circle cx="37.47" cy="204.44" r="1" style="fill:#fef201"/><path d="M44.82,4.11a1,1,0,1,0-1-1A1,1,0,0,0,44.82,4.11Z" style="fill:#fef201"/><path d="M44.85,15.15a1,1,0,1,0,0,2,1,1,0,0,0,1-1A1,1,0,0,0,44.85,15.15Z" style="fill:#fef201"/><path d="M44.89,28.2a1,1,0,0,0,0,2,1,1,0,0,0,1-1A1,1,0,0,0,44.89,28.2Z" style="fill:#fef201"/><path d="M44.94,41.24a1,1,0,1,0,1,1A1,1,0,0,0,44.94,41.24Z" style="fill:#fef201"/><path d="M45,54.28a1,1,0,0,0-1,1,1,1,0,0,0,2,0A1,1,0,0,0,45,54.28Z" style="fill:#fef201"/><path d="M45,67.33a1,1,0,0,0-1,1,1,1,0,1,0,1-1Z" style="fill:#fef201"/><path d="M45.06,80.37a1,1,0,0,0-1,1,1,1,0,0,0,1,1,1,1,0,1,0,0-2Z" style="fill:#fef201"/><path d="M45.11,93.42a1,1,0,1,0,1,1A1,1,0,0,0,45.11,93.42Z" style="fill:#fef201"/><path d="M45.15,106.46a1,1,0,1,0,0,2,1,1,0,0,0,0-2Z" style="fill:#fef201"/><path d="M45.19,119.51a1,1,0,0,0-1,1,1,1,0,1,0,1-1Z" style="fill:#fef201"/><path d="M45.24,132.55a1,1,0,1,0,1,1A1,1,0,0,0,45.24,132.55Z" style="fill:#fef201"/><path d="M45.28,145.6a1,1,0,1,0,1,1A1,1,0,0,0,45.28,145.6Z" style="fill:#fef201"/><path d="M45.32,158.64a1,1,0,1,0,0,2,1,1,0,0,0,0-2Z" style="fill:#fef201"/><path d="M45.36,171.68a1,1,0,0,0-1,1,1,1,0,0,0,1,1,1,1,0,1,0,0-2Z" style="fill:#fef201"/><path d="M45.41,184.73a1,1,0,1,0,1,1A1,1,0,0,0,45.41,184.73Z" style="fill:#fef201"/><path d="M45.45,197.77a1,1,0,0,0-1,1,1,1,0,1,0,1-1Z" style="fill:#fef201"/><circle cx="53.8" cy="8.78" r="1" style="fill:#fef201"/><circle cx="53.8" cy="21.82" r="1" style="fill:#fef201"/><circle cx="53.8" cy="34.87" r="1" style="fill:#fef201"/><circle cx="53.8" cy="47.91" r="1" style="fill:#fef201"/><circle cx="53.8" cy="60.95" r="1" style="fill:#fef201"/><circle cx="53.8" cy="74" r="1" style="fill:#fef201"/><circle cx="53.8" cy="87.04" r="1" style="fill:#fef201"/><circle cx="53.8" cy="100.09" r="1" style="fill:#fef201"/><circle cx="53.8" cy="113.13" r="1" style="fill:#fef201"/><circle cx="53.8" cy="126.18" r="1" style="fill:#fef201"/><circle cx="53.8" cy="139.22" r="1" style="fill:#fef201"/><circle cx="53.8" cy="152.26" r="1" style="fill:#fef201"/><circle cx="53.8" cy="165.31" r="1" style="fill:#fef201"/><circle cx="53.8" cy="178.35" r="1" style="fill:#fef201"/><circle cx="53.8" cy="191.4" r="1" style="fill:#fef201"/><circle cx="53.8" cy="204.44" r="1" style="fill:#fef201"/><path d="M61.15,4.11a1,1,0,1,0,0-2,1,1,0,0,0-1,1A1,1,0,0,0,61.15,4.11Z" style="fill:#fef201"/><path d="M61.18,15.15a1,1,0,1,0,1,1A1,1,0,0,0,61.18,15.15Z" style="fill:#fef201"/><path d="M61.23,28.2a1,1,0,1,0,1,1A1,1,0,0,0,61.23,28.2Z" style="fill:#fef201"/><path d="M61.27,41.24a1,1,0,1,0,0,2,1,1,0,0,0,0-2Z" style="fill:#fef201"/><path d="M61.31,54.28a1,1,0,0,0-1,1,1,1,0,0,0,1,1,1,1,0,1,0,0-2Z" style="fill:#fef201"/><path d="M61.36,67.33a1,1,0,1,0,1,1A1,1,0,0,0,61.36,67.33Z" style="fill:#fef201"/><path d="M61.4,80.37a1,1,0,0,0-1,1,1,1,0,0,0,2,0A1,1,0,0,0,61.4,80.37Z" style="fill:#fef201"/><path d="M61.44,93.42a1,1,0,1,0,0,2,1,1,0,0,0,0-2Z" style="fill:#fef201"/><path d="M61.48,106.46a1,1,0,0,0,0,2,1,1,0,1,0,0-2Z" style="fill:#fef201"/><path d="M61.53,119.51a1,1,0,0,0,0,2,1,1,0,0,0,1-1A1,1,0,0,0,61.53,119.51Z" style="fill:#fef201"/><path d="M61.57,132.55a1,1,0,1,0,1,1A1,1,0,0,0,61.57,132.55Z" style="fill:#fef201"/><path d="M61.61,145.6a1,1,0,0,0-1,1,1,1,0,0,0,1,1,1,1,0,0,0,1-1A1,1,0,0,0,61.61,145.6Z" style="fill:#fef201"/><path d="M61.65,158.64a1,1,0,1,0,1,1A1,1,0,0,0,61.65,158.64Z" style="fill:#fef201"/><path d="M61.7,171.68a1,1,0,0,0-1,1,1,1,0,0,0,2,0A1,1,0,0,0,61.7,171.68Z" style="fill:#fef201"/><path d="M61.74,184.73a1,1,0,1,0,1,1A1,1,0,0,0,61.74,184.73Z" style="fill:#fef201"/><path d="M61.78,197.77a1,1,0,1,0,0,2,1,1,0,0,0,1-1A1,1,0,0,0,61.78,197.77Z" style="fill:#fef201"/><circle cx="70.13" cy="8.78" r="1" style="fill:#fef201"/><circle cx="70.13" cy="21.82" r="1" style="fill:#fef201"/><circle cx="70.13" cy="34.87" r="1" style="fill:#fef201"/><circle cx="70.13" cy="47.91" r="1" style="fill:#fef201"/><circle cx="70.13" cy="60.95" r="1" style="fill:#fef201"/><circle cx="70.13" cy="74" r="1" style="fill:#fef201"/><circle cx="70.13" cy="87.04" r="1" style="fill:#fef201"/><circle cx="70.13" cy="100.09" r="1" style="fill:#fef201"/><circle cx="70.13" cy="113.13" r="1" style="fill:#fef201"/><circle cx="70.13" cy="126.18" r="1" style="fill:#fef201"/><circle cx="70.13" cy="139.22" r="1" style="fill:#fef201"/><circle cx="70.13" cy="152.26" r="1" style="fill:#fef201"/><circle cx="70.13" cy="165.31" r="1" style="fill:#fef201"/><circle cx="70.13" cy="178.35" r="1" style="fill:#fef201"/><circle cx="70.13" cy="191.4" r="1" style="fill:#fef201"/><circle cx="70.13" cy="204.44" r="1" style="fill:#fef201"/><path d="M77.48,4.11a1,1,0,0,0,1-1,1,1,0,1,0-1,1Z" style="fill:#fef201"/><path d="M77.52,15.15a1,1,0,0,0-1,1,1,1,0,1,0,1-1Z" style="fill:#fef201"/><path d="M77.56,28.2a1,1,0,0,0-1,1,1,1,0,0,0,1,1,1,1,0,0,0,0-2Z" style="fill:#fef201"/><path d="M77.6,41.24a1,1,0,0,0,0,2,1,1,0,1,0,0-2Z" style="fill:#fef201"/><path d="M77.65,54.28a1,1,0,0,0-1,1,1,1,0,0,0,1,1,1,1,0,0,0,0-2Z" style="fill:#fef201"/><path d="M77.69,67.33a1,1,0,1,0,1,1A1,1,0,0,0,77.69,67.33Z" style="fill:#fef201"/><path d="M77.73,80.37a1,1,0,1,0,0,2,1,1,0,0,0,1-1A1,1,0,0,0,77.73,80.37Z" style="fill:#fef201"/><path d="M77.77,93.42a1,1,0,0,0,0,2,1,1,0,1,0,0-2Z" style="fill:#fef201"/><path d="M77.82,106.46a1,1,0,1,0,1,1A1,1,0,0,0,77.82,106.46Z" style="fill:#fef201"/><path d="M77.86,119.51a1,1,0,1,0,1,1A1,1,0,0,0,77.86,119.51Z" style="fill:#fef201"/><path d="M77.9,132.55a1,1,0,1,0,1,1A1,1,0,0,0,77.9,132.55Z" style="fill:#fef201"/><path d="M77.94,145.6a1,1,0,0,0,0,2,1,1,0,0,0,1-1A1,1,0,0,0,77.94,145.6Z" style="fill:#fef201"/><path d="M78,158.64a1,1,0,1,0,1,1A1,1,0,0,0,78,158.64Z" style="fill:#fef201"/><path d="M78,171.68a1,1,0,0,0-1,1,1,1,0,0,0,2,0A1,1,0,0,0,78,171.68Z" style="fill:#fef201"/><path d="M78.07,184.73a1,1,0,0,0-1,1,1,1,0,1,0,1-1Z" style="fill:#fef201"/><path d="M78.11,197.77a1,1,0,1,0,1,1A1,1,0,0,0,78.11,197.77Z" style="fill:#fef201"/><circle cx="86.47" cy="8.78" r="1" style="fill:#fef201"/><circle cx="86.47" cy="21.82" r="1" style="fill:#fef201"/><circle cx="86.47" cy="34.87" r="1" style="fill:#fef201"/><circle cx="86.47" cy="47.91" r="1" style="fill:#fef201"/><circle cx="86.47" cy="60.95" r="1" style="fill:#fef201"/><circle cx="86.47" cy="74" r="1" style="fill:#fef201"/><circle cx="86.47" cy="87.04" r="1" style="fill:#fef201"/><circle cx="86.47" cy="100.09" r="1" style="fill:#fef201"/><circle cx="86.47" cy="113.13" r="1" style="fill:#fef201"/><circle cx="86.47" cy="126.18" r="1" style="fill:#fef201"/><circle cx="86.47" cy="139.22" r="1" style="fill:#fef201"/><circle cx="86.47" cy="152.26" r="1" style="fill:#fef201"/><circle cx="86.47" cy="165.31" r="1" style="fill:#fef201"/><circle cx="86.47" cy="178.35" r="1" style="fill:#fef201"/><circle cx="86.47" cy="191.4" r="1" style="fill:#fef201"/><circle cx="86.47" cy="204.44" r="1" style="fill:#fef201"/><path d="M93.82,4.11a1,1,0,1,0-1-1A1,1,0,0,0,93.82,4.11Z" style="fill:#fef201"/><path d="M93.85,15.15a1,1,0,1,0,0,2,1,1,0,0,0,1-1A1,1,0,0,0,93.85,15.15Z" style="fill:#fef201"/><path d="M93.89,28.2a1,1,0,0,0,0,2,1,1,0,0,0,1-1A1,1,0,0,0,93.89,28.2Z" style="fill:#fef201"/><path d="M93.94,41.24a1,1,0,1,0,1,1A1,1,0,0,0,93.94,41.24Z" style="fill:#fef201"/><path d="M94,54.28a1,1,0,0,0-1,1,1,1,0,0,0,2,0A1,1,0,0,0,94,54.28Z" style="fill:#fef201"/><path d="M94,67.33a1,1,0,0,0-1,1,1,1,0,1,0,1-1Z" style="fill:#fef201"/><path d="M94.06,80.37a1,1,0,0,0-1,1,1,1,0,0,0,1,1,1,1,0,1,0,0-2Z" style="fill:#fef201"/><path d="M94.11,93.42a1,1,0,1,0,1,1A1,1,0,0,0,94.11,93.42Z" style="fill:#fef201"/><path d="M94.15,106.46a1,1,0,1,0,0,2,1,1,0,0,0,0-2Z" style="fill:#fef201"/><path d="M94.19,119.51a1,1,0,0,0-1,1,1,1,0,1,0,1-1Z" style="fill:#fef201"/><path d="M94.24,132.55a1,1,0,1,0,1,1A1,1,0,0,0,94.24,132.55Z" style="fill:#fef201"/><path d="M94.28,145.6a1,1,0,1,0,1,1A1,1,0,0,0,94.28,145.6Z" style="fill:#fef201"/><path d="M94.32,158.64a1,1,0,1,0,0,2,1,1,0,0,0,0-2Z" style="fill:#fef201"/><path d="M94.36,171.68a1,1,0,0,0-1,1,1,1,0,0,0,1,1,1,1,0,1,0,0-2Z" style="fill:#fef201"/><path d="M94.41,184.73a1,1,0,1,0,1,1A1,1,0,0,0,94.41,184.73Z" style="fill:#fef201"/><path d="M94.45,197.77a1,1,0,0,0-1,1,1,1,0,1,0,1-1Z" style="fill:#fef201"/><circle cx="102.8" cy="8.78" r="1" style="fill:#fef201"/><circle cx="102.8" cy="21.82" r="1" style="fill:#fef201"/><circle cx="102.8" cy="34.87" r="1" style="fill:#fef201"/><circle cx="102.8" cy="47.91" r="1" style="fill:#fef201"/><circle cx="102.8" cy="60.95" r="1" style="fill:#fef201"/><circle cx="102.8" cy="74" r="1" style="fill:#fef201"/><circle cx="102.8" cy="87.04" r="1" style="fill:#fef201"/><circle cx="102.8" cy="100.09" r="1" style="fill:#fef201"/><circle cx="102.8" cy="113.13" r="1" style="fill:#fef201"/><circle cx="102.8" cy="126.18" r="1" style="fill:#fef201"/><circle cx="102.8" cy="139.22" r="1" style="fill:#fef201"/><circle cx="102.8" cy="152.26" r="1" style="fill:#fef201"/><circle cx="102.8" cy="165.31" r="1" style="fill:#fef201"/><circle cx="102.8" cy="178.35" r="1" style="fill:#fef201"/><circle cx="102.8" cy="191.4" r="1" style="fill:#fef201"/><circle cx="102.8" cy="204.44" r="1" style="fill:#fef201"/><path d="M110.15,4.11a1,1,0,1,0,0-2,1,1,0,0,0-1,1A1,1,0,0,0,110.15,4.11Z" style="fill:#fef201"/><path d="M110.18,15.15a1,1,0,1,0,1,1A1,1,0,0,0,110.18,15.15Z" style="fill:#fef201"/><path d="M110.23,28.2a1,1,0,1,0,1,1A1,1,0,0,0,110.23,28.2Z" style="fill:#fef201"/><path d="M110.27,41.24a1,1,0,1,0,0,2,1,1,0,0,0,0-2Z" style="fill:#fef201"/><path d="M110.31,54.28a1,1,0,0,0-1,1,1,1,0,0,0,1,1,1,1,0,1,0,0-2Z" style="fill:#fef201"/><path d="M110.36,67.33a1,1,0,1,0,1,1A1,1,0,0,0,110.36,67.33Z" style="fill:#fef201"/><path d="M110.4,80.37a1,1,0,0,0-1,1,1,1,0,0,0,2,0A1,1,0,0,0,110.4,80.37Z" style="fill:#fef201"/><path d="M110.44,93.42a1,1,0,1,0,0,2,1,1,0,0,0,0-2Z" style="fill:#fef201"/><path d="M110.48,106.46a1,1,0,0,0,0,2,1,1,0,1,0,0-2Z" style="fill:#fef201"/><path d="M110.53,119.51a1,1,0,0,0,0,2,1,1,0,0,0,1-1A1,1,0,0,0,110.53,119.51Z" style="fill:#fef201"/><path d="M110.57,132.55a1,1,0,1,0,1,1A1,1,0,0,0,110.57,132.55Z" style="fill:#fef201"/><path d="M110.61,145.6a1,1,0,0,0-1,1,1,1,0,0,0,1,1,1,1,0,0,0,1-1A1,1,0,0,0,110.61,145.6Z" style="fill:#fef201"/><path d="M110.65,158.64a1,1,0,1,0,1,1A1,1,0,0,0,110.65,158.64Z" style="fill:#fef201"/><path d="M110.7,171.68a1,1,0,0,0-1,1,1,1,0,0,0,2,0A1,1,0,0,0,110.7,171.68Z" style="fill:#fef201"/><path d="M110.74,184.73a1,1,0,1,0,1,1A1,1,0,0,0,110.74,184.73Z" style="fill:#fef201"/><path d="M110.78,197.77a1,1,0,1,0,0,2,1,1,0,0,0,1-1A1,1,0,0,0,110.78,197.77Z" style="fill:#fef201"/><circle cx="119.13" cy="8.78" r="1" style="fill:#fef201"/><circle cx="119.13" cy="21.82" r="1" style="fill:#fef201"/><circle cx="119.13" cy="34.87" r="1" style="fill:#fef201"/><circle cx="119.13" cy="47.91" r="1" style="fill:#fef201"/><circle cx="119.13" cy="60.95" r="1" style="fill:#fef201"/><circle cx="119.13" cy="74" r="1" style="fill:#fef201"/><circle cx="119.13" cy="87.04" r="1" style="fill:#fef201"/><circle cx="119.13" cy="100.09" r="1" style="fill:#fef201"/><circle cx="119.13" cy="113.13" r="1" style="fill:#fef201"/><circle cx="119.13" cy="126.18" r="1" style="fill:#fef201"/><circle cx="119.13" cy="139.22" r="1" style="fill:#fef201"/><circle cx="119.13" cy="152.26" r="1" style="fill:#fef201"/><circle cx="119.13" cy="165.31" r="1" style="fill:#fef201"/><circle cx="119.13" cy="178.35" r="1" style="fill:#fef201"/><circle cx="119.13" cy="191.4" r="1" style="fill:#fef201"/><circle cx="119.13" cy="204.44" r="1" style="fill:#fef201"/><path d="M126.48,4.11a1,1,0,0,0,1-1,1,1,0,1,0-1,1Z" style="fill:#fef201"/><path d="M126.52,15.15a1,1,0,0,0-1,1,1,1,0,1,0,1-1Z" style="fill:#fef201"/><path d="M126.56,28.2a1,1,0,0,0-1,1,1,1,0,0,0,1,1,1,1,0,0,0,0-2Z" style="fill:#fef201"/><path d="M126.6,41.24a1,1,0,0,0,0,2,1,1,0,1,0,0-2Z" style="fill:#fef201"/><path d="M126.65,54.28a1,1,0,0,0-1,1,1,1,0,0,0,1,1,1,1,0,0,0,0-2Z" style="fill:#fef201"/><path d="M126.69,67.33a1,1,0,1,0,1,1A1,1,0,0,0,126.69,67.33Z" style="fill:#fef201"/><path d="M126.73,80.37a1,1,0,1,0,0,2,1,1,0,0,0,1-1A1,1,0,0,0,126.73,80.37Z" style="fill:#fef201"/><path d="M126.77,93.42a1,1,0,0,0,0,2,1,1,0,1,0,0-2Z" style="fill:#fef201"/><path d="M126.82,106.46a1,1,0,1,0,1,1A1,1,0,0,0,126.82,106.46Z" style="fill:#fef201"/><path d="M126.86,119.51a1,1,0,1,0,1,1A1,1,0,0,0,126.86,119.51Z" style="fill:#fef201"/><path d="M126.9,132.55a1,1,0,1,0,1,1A1,1,0,0,0,126.9,132.55Z" style="fill:#fef201"/><path d="M126.94,145.6a1,1,0,0,0,0,2,1,1,0,0,0,1-1A1,1,0,0,0,126.94,145.6Z" style="fill:#fef201"/><path d="M127,158.64a1,1,0,1,0,1,1A1,1,0,0,0,127,158.64Z" style="fill:#fef201"/><path d="M127,171.68a1,1,0,0,0-1,1,1,1,0,0,0,2,0A1,1,0,0,0,127,171.68Z" style="fill:#fef201"/><path d="M127.07,184.73a1,1,0,0,0-1,1,1,1,0,1,0,1-1Z" style="fill:#fef201"/><path d="M127.11,197.77a1,1,0,1,0,1,1A1,1,0,0,0,127.11,197.77Z" style="fill:#fef201"/><circle cx="135.47" cy="8.78" r="1" style="fill:#fef201"/><circle cx="135.47" cy="21.82" r="1" style="fill:#fef201"/><circle cx="135.47" cy="34.87" r="1" style="fill:#fef201"/><circle cx="135.47" cy="47.91" r="1" style="fill:#fef201"/><circle cx="135.47" cy="60.95" r="1" style="fill:#fef201"/><circle cx="135.47" cy="74" r="1" style="fill:#fef201"/><circle cx="135.47" cy="87.04" r="1" style="fill:#fef201"/><circle cx="135.47" cy="100.09" r="1" style="fill:#fef201"/><circle cx="135.47" cy="113.13" r="1" style="fill:#fef201"/><circle cx="135.47" cy="126.18" r="1" style="fill:#fef201"/><circle cx="135.47" cy="139.22" r="1" style="fill:#fef201"/><circle cx="135.47" cy="152.26" r="1" style="fill:#fef201"/><circle cx="135.47" cy="165.31" r="1" style="fill:#fef201"/><circle cx="135.47" cy="178.35" r="1" style="fill:#fef201"/><circle cx="135.47" cy="191.4" r="1" style="fill:#fef201"/><circle cx="135.47" cy="204.44" r="1" style="fill:#fef201"/><path d="M142.82,4.11a1,1,0,1,0-1-1A1,1,0,0,0,142.82,4.11Z" style="fill:#fef201"/><path d="M142.85,15.15a1,1,0,1,0,0,2,1,1,0,0,0,1-1A1,1,0,0,0,142.85,15.15Z" style="fill:#fef201"/><path d="M142.89,28.2a1,1,0,0,0,0,2,1,1,0,0,0,1-1A1,1,0,0,0,142.89,28.2Z" style="fill:#fef201"/><path d="M142.94,41.24a1,1,0,1,0,1,1A1,1,0,0,0,142.94,41.24Z" style="fill:#fef201"/><path d="M143,54.28a1,1,0,0,0-1,1,1,1,0,0,0,2,0A1,1,0,0,0,143,54.28Z" style="fill:#fef201"/><path d="M143,67.33a1,1,0,0,0-1,1,1,1,0,1,0,1-1Z" style="fill:#fef201"/><path d="M143.06,80.37a1,1,0,0,0-1,1,1,1,0,0,0,1,1,1,1,0,1,0,0-2Z" style="fill:#fef201"/><path d="M143.11,93.42a1,1,0,1,0,1,1A1,1,0,0,0,143.11,93.42Z" style="fill:#fef201"/><path d="M143.15,106.46a1,1,0,1,0,0,2,1,1,0,0,0,0-2Z" style="fill:#fef201"/><path d="M143.19,119.51a1,1,0,0,0-1,1,1,1,0,1,0,1-1Z" style="fill:#fef201"/><path d="M143.24,132.55a1,1,0,1,0,1,1A1,1,0,0,0,143.24,132.55Z" style="fill:#fef201"/><path d="M143.28,145.6a1,1,0,1,0,1,1A1,1,0,0,0,143.28,145.6Z" style="fill:#fef201"/><path d="M143.32,158.64a1,1,0,1,0,0,2,1,1,0,0,0,0-2Z" style="fill:#fef201"/><path d="M143.36,171.68a1,1,0,0,0-1,1,1,1,0,0,0,1,1,1,1,0,1,0,0-2Z" style="fill:#fef201"/><path d="M143.41,184.73a1,1,0,1,0,1,1A1,1,0,0,0,143.41,184.73Z" style="fill:#fef201"/><path d="M143.45,197.77a1,1,0,0,0-1,1,1,1,0,1,0,1-1Z" style="fill:#fef201"/></g></g><g style="opacity:0.45"><polygon points="80.36 40.2 73.51 40.2 8.1 105.61 8.1 112.45 80.36 40.2" style="fill:#00158e;opacity:0.2"/><polygon points="99.61 40.2 92.76 40.2 8.1 124.85 8.1 131.7 99.61 40.2" style="fill:#00158e;opacity:0.2"/><polygon points="61.11 40.2 54.27 40.2 8.1 86.36 8.1 93.21 61.11 40.2" style="fill:#00158e;opacity:0.2"/><polygon points="41.86 40.2 35.02 40.2 8.1 67.11 8.1 73.96 41.86 40.2" style="fill:#00158e;opacity:0.2"/><polygon points="22.62 40.2 15.77 40.2 8.1 47.86 8.1 54.71 22.62 40.2" style="fill:#00158e;opacity:0.2"/><path d="M108.1,40.2v3.91L11.81,140.4H8.1v30.51H138.82V40.2Zm0,100.2H95.65L108.1,128Zm0-19.3L88.8,140.4H76.4l31.7-31.7Zm0-19.25L69.56,140.4H57.15L108.1,89.45Zm0-19.25L50.31,140.4H37.91L108.1,70.2Zm0-19.24-77,77H18.66L108.1,51Z" style="fill:#00158e;opacity:0.2"/><polygon points="135.94 168.5 135.94 142.05 131.16 146.84 131.16 163.71 114.28 163.71 109.5 168.5 135.94 168.5" style="fill:#0751cf"/><rect x="137.39" y="71.65" width="2.99" height="35.67" style="fill:gold"/><rect x="137.39" y="114.49" width="2.99" height="4.98" style="fill:gold"/><rect x="26.4" y="170.08" width="48.42" height="2.39" style="fill:gold"/><polygon points="23.9 160.58 27.76 160.58 31.88 156.46 25.44 156.46 16.15 165.74 18.74 165.74 23.9 160.58" style="fill:gold"/><polygon points="32.27 160.58 36.13 160.58 40.26 156.46 33.81 156.46 24.53 165.74 27.11 165.74 32.27 160.58" style="fill:gold"/><polygon points="40.65 160.58 44.51 160.58 48.63 156.46 42.19 156.46 32.9 165.74 35.48 165.74 40.65 160.58" style="fill:gold"/><polygon points="49.02 160.58 52.88 160.58 57.01 156.46 50.56 156.46 41.28 165.74 43.86 165.74 49.02 160.58" style="fill:gold"/><polygon points="57.4 160.58 61.26 160.58 65.38 156.46 58.94 156.46 49.65 165.74 52.23 165.74 57.4 160.58" style="fill:gold"/><polygon points="65.77 160.58 69.63 160.58 73.75 156.46 67.31 156.46 58.03 165.74 60.61 165.74 65.77 160.58" style="fill:gold"/><polygon points="74.15 160.58 78.01 160.58 82.13 156.46 75.69 156.46 66.4 165.74 68.98 165.74 74.15 160.58" style="fill:gold"/><polygon points="82.52 160.58 86.38 160.58 90.5 156.46 84.06 156.46 74.77 165.74 77.36 165.74 82.52 160.58" style="fill:gold"/><path d="M125.13,35.49H110.19V31.9h14.94Zm-14.34-.6h13.75V32.5H110.79Z" style="fill:#0751cf"/><path d="M142.87,143.28h-2.59V131.93h2.59Zm-2-.59h1.39V132.52h-1.39Z" style="fill:#0751cf"/><path d="M101.82,179H84.49v-3.79h17.33Zm-16.74-.6h16.14v-2.59H85.08Z" style="fill:#0751cf"/><path d="M16.14,178.15H9.57v-2.39h6.57Zm-6-.59h5.38v-1.2H10.16Z" style="fill:gold"/><path d="M5.78,166.6H3.39V146.67H5.78ZM4,166H5.18V147.27H4Z" style="fill:gold"/><polygon points="94.75 34.58 94.75 34.43 26.95 34.43 26.95 33.06 94.6 33.06 94.6 34.58 94.75 34.58 94.75 34.43 94.75 34.58 94.9 34.58 94.9 32.76 26.65 32.76 26.65 34.73 94.9 34.73 94.9 34.58 94.75 34.58" style="fill:gold"/></g><circle cx="73.23" cy="52.42" r="1.03" style="fill:#242928"/><path d="M65.73,95.59a5.17,5.17,0,0,1-2.64-2.2,5.56,5.56,0,0,1-.63-2.91,12.4,12.4,0,0,1,1.07-4.21c.26-.6.52-1.08.69-1.39.33-.59.37-.6.45-.63l.15.45a.52.52,0,0,0,.11-.07,13.43,13.43,0,0,0-1.3,2.67,8.51,8.51,0,0,0-.51,4.9,4.42,4.42,0,0,0,2.79,3Z" style="fill:#1aa4d0"/><path d="M52,107.47a3.49,3.49,0,0,1-2.09-2.14,4.52,4.52,0,0,1,.56-3.32l.4.26-.2-.13.2.13a4.11,4.11,0,0,0-.51,2.93A3.08,3.08,0,0,0,52.22,107Z" style="fill:#e6be32"/><path d="M51,108.58c-2.21-.43-3.25-2-3-4.53a10.74,10.74,0,0,1,.55-2.43c.12-.35.23-.61.3-.77.13-.32.18-.43.35-.43v.47a.23.23,0,0,0,.2-.1c-.19.31-1.56,3.57-.64,5.63a3,3,0,0,0,2.34,1.69Z" style="fill:#3fb44d"/><path d="M44,80.1s-1.64,18.24,8.65,24.6l6.5-4.9S46,91.37,44,80.1Z" style="fill:#373d3c"/><path d="M65.4,90.73a21.78,21.78,0,0,0,.26-4A4.87,4.87,0,0,0,61.11,82H61a5.51,5.51,0,0,1-4.85-7l0-.1a7.32,7.32,0,0,1,6.41-5.21l2.63-.21h8V90.73Z" style="fill:#373d3c"/><polygon points="58.57 132.26 40.32 132.26 40.32 114.01 66.56 94.22 66.56 132.26 58.57 132.26" style="fill:#ffca29"/><rect x="59.89" y="96.03" width="9.42" height="7.54" rx="2.47" style="fill:#bf9c2a"/><polygon points="60.95 150.61 54.02 144.14 54.02 148.64 60.95 155.11 60.95 150.61" style="fill:#111b16"/><path d="M61,146.11l-6.44-6a2.17,2.17,0,0,0-.49,1.35v2.69L61,150.61Z" style="fill:#313832"/><polygon points="60.95 164.11 54.02 157.64 54.02 162.13 60.95 168.6 60.95 164.11" style="fill:#313832"/><polygon points="60.95 159.61 54.02 153.14 54.02 157.64 60.95 164.11 60.95 159.61" style="fill:#111b16"/><polygon points="60.95 155.11 54.02 148.64 54.02 153.14 60.95 159.61 60.95 155.11" style="fill:#313832"/><polygon points="60.95 168.6 54.02 162.13 54.02 166.63 59.49 171.74 60.95 171.74 60.95 168.6" style="fill:#111b16"/><path d="M54,169.49a2.34,2.34,0,0,0,2.41,2.25h3.06L54,166.63Z" style="fill:#313832"/><path d="M61,141.61l-2.58-2.41H56.43a2.45,2.45,0,0,0-1.92.9l6.44,6Z" style="fill:#111b16"/><polygon points="60.95 139.2 58.37 139.2 60.95 141.61 60.95 139.2" style="fill:#313832"/><path d="M65.46,171.74a2.34,2.34,0,0,0,2.41-2.25v-2.76l-5.36,5Z" style="fill:#111b16"/><polygon points="61 141.66 63.63 139.2 60.95 139.2 60.95 141.61 61 141.66" style="fill:#111b16"/><path d="M65.46,139.2H63.62L61,141.66l0,0v4.5l0,0,6.42-6A2.47,2.47,0,0,0,65.46,139.2Z" style="fill:#313832"/><polygon points="60.95 150.61 60.95 155.11 61 155.16 67.87 148.73 67.87 144.23 61 150.66 60.95 150.61" style="fill:#313832"/><path d="M61,146.11v4.5l0,0,6.87-6.43v-2.78a2.16,2.16,0,0,0-.45-1.3l-6.42,6Z" style="fill:#111b16"/><polygon points="60.95 155.11 60.95 159.61 61 159.65 67.87 153.23 67.87 148.73 61 155.16 60.95 155.11" style="fill:#111b16"/><polygon points="60.95 168.6 60.95 171.74 62.51 171.74 67.87 166.73 67.87 162.23 61 168.65 60.95 168.6" style="fill:#313832"/><polygon points="60.95 159.61 60.95 164.11 61 164.15 67.87 157.73 67.87 153.23 61 159.65 60.95 159.61" style="fill:#313832"/><polygon points="60.95 164.11 60.95 168.6 61 168.65 67.87 162.23 67.87 157.73 61 164.15 60.95 164.11" style="fill:#111b16"/><rect x="65.4" y="91.74" width="7.83" height="16.88" style="fill:#e6be32"/><polygon points="65.4 108.61 61.48 112.53 73.23 112.53 73.23 108.61 65.4 108.61" style="fill:#9e8428"/><polygon points="61.48 112.53 61.48 119.72 69.31 122.16 73.23 122.16 73.23 112.53 61.48 112.53" style="fill:#bf9c2a"/><polygon points="61.48 119.72 59.9 119.72 59.9 132.21 66.88 139.2 73.23 139.2 73.23 122.16 64.76 117.82 61.48 119.72" style="fill:#e6be32"/><polygon points="73.23 139.2 63.92 139.2 63.92 142.48 68.06 147.87 73.23 147.87 73.23 139.2" style="fill:#4b514e"/><path d="M54.82,139.2V136l3.75-3.76,1.32-.25,7.19,7.19-3.16,0v3.26l-2.86-2.86H54.82Z" style="fill:#818584"/><rect x="67.86" y="147.55" width="1.43" height="6.88" style="fill:#e6be32"/><polygon points="67.08 139.2 73.23 145.35 73.23 147.87 67.86 147.61 63.92 142.48 63.92 139.22 67.08 139.2" style="fill:#5c665f"/><polygon points="73.23 147.87 69.29 154.43 69.29 147.68 73.23 147.87" style="fill:#6b7570"/><polygon points="63.92 139.22 57.77 133.07 58.57 132.26 59.9 132.01 67.08 139.2 63.92 139.22" style="fill:#6b7570"/><rect x="65.4" y="90.73" width="7.83" height="1.01" style="fill:#4b514e"/><path d="M64.13,67.24l2.43-1.59h6.67V82.58a10.78,10.78,0,0,1-5.88-1.8Z" style="fill:#b2b3ab"/><polygon points="67.14 55.92 73.23 55.92 73.23 65.65 66.56 65.65 67.14 55.92" style="fill:#5d6260"/><polygon points="71.62 52.42 69.42 54.91 64.87 55.92 64.13 67.24 66.56 65.65 67.01 58.09 73.23 58.09 73.23 55.92 73.23 52.42 71.62 52.42" style="fill:#373d3c"/><rect x="69.28" y="59.83" width="1.39" height="5.82" style="fill:#1aa4d0"/><path d="M45.61,77.36l-2.39.15a2.25,2.25,0,0,0-.36.06h0l.39-7.45,3.49-.23L47.29,78A2.1,2.1,0,0,0,45.61,77.36Z" style="fill:#585c52"/><path d="M43.87,70.67l2.23-.15a.9.9,0,0,0,.82-1l-1.41-9.23-2.27.15-.32,9.33A.9.9,0,0,0,43.87,70.67Z" style="fill:#e6be32"/><rect x="42.17" y="56.15" width="4.02" height="4.73" transform="translate(-3.81 3.08) rotate(-3.83)" style="fill:#90928d"/><path d="M42.88,77.11l3.34-.23a1.26,1.26,0,0,1,1,.49l.07.95-4.66.31Z" style="fill:#aeb1b0"/><path d="M47.54,91.65l-1.14.08a2.15,2.15,0,0,1-2.16-1.42l-3.4-9.67a2.13,2.13,0,0,1,1-2.56l.51-.29a2,2,0,0,1,.55-.22,2.25,2.25,0,0,1,.36-.06l2.39-.15a2.1,2.1,0,0,1,1.68.65,2,2,0,0,1,.5.87l1.28,4.33a2.46,2.46,0,0,1,.08.46l.38,5.71A2.12,2.12,0,0,1,47.54,91.65Z" style="fill:#9da098"/><path d="M44,56.15a4.81,4.81,0,0,0,0-.64,1.12,1.12,0,0,0-.58-.88c-.67-.36-1.83-1.45-2.21-4.84a.32.32,0,0,0-.34-.27h0a.59.59,0,0,0-.55.63l.31,4.55a.84.84,0,0,0,.3.61l1.11,1Z" style="fill:#aeb1b0"/><path d="M43.84,56.16a2.33,2.33,0,0,1-.08-.63,1.06,1.06,0,0,1,.52-1c.69-.45,1.82-1.69,1.77-5.1a.34.34,0,0,1,.34-.32h0a.63.63,0,0,1,.7.54l.3,4.56a.81.81,0,0,1-.25.64L46,56Z" style="fill:#9a9f9a"/><path d="M80.73,95.59a5.17,5.17,0,0,0,2.64-2.2A5.56,5.56,0,0,0,84,90.48a12.18,12.18,0,0,0-1.06-4.21c-.27-.6-.52-1.08-.69-1.39-.33-.59-.37-.6-.45-.63l-.15.45a.33.33,0,0,1-.11-.07,13.69,13.69,0,0,1,1.29,2.67,8.43,8.43,0,0,1,.52,4.9,4.42,4.42,0,0,1-2.79,3Z" style="fill:#1aa4d0"/><path d="M94.43,107.47a3.5,3.5,0,0,0,2.1-2.14A4.52,4.52,0,0,0,96,102l-.41.26.2-.13-.2.13a4.1,4.1,0,0,1,.52,2.93A3.08,3.08,0,0,1,94.24,107Z" style="fill:#e6be32"/><path d="M95.43,108.58c2.21-.43,3.25-2,3-4.53a10.74,10.74,0,0,0-.55-2.43c-.12-.35-.23-.61-.3-.77-.13-.32-.18-.43-.36-.43v.47a.22.22,0,0,1-.19-.1c.18.31,1.55,3.57.64,5.63a3,3,0,0,1-2.34,1.69Z" style="fill:#3fb44d"/><path d="M102.44,80.1s1.64,18.24-8.65,24.6l-6.5-4.9S100.43,91.37,102.44,80.1Z" style="fill:#242928"/><path d="M81.06,90.73a20.82,20.82,0,0,1-.26-4A4.87,4.87,0,0,1,85.35,82h.14a5.51,5.51,0,0,0,4.85-7l0-.1a7.33,7.33,0,0,0-6.41-5.21l-2.63-.21h-8V90.73Z" style="fill:#242928"/><polygon points="87.89 132.26 106.14 132.26 106.14 114.01 79.9 94.22 79.9 132.26 87.89 132.26" style="fill:#ffca29"/><rect x="77.15" y="96.03" width="9.42" height="7.54" rx="2.47" transform="translate(163.71 199.59) rotate(180)" style="fill:#aa8d29"/><polygon points="85.51 150.61 92.44 144.14 92.44 148.64 85.51 155.11 85.51 150.61" style="fill:#111b16"/><path d="M85.51,146.11l6.43-6a2.12,2.12,0,0,1,.5,1.35v2.69l-6.93,6.47Z" style="fill:#313832"/><polygon points="85.51 164.11 92.44 157.64 92.44 162.13 85.51 168.6 85.51 164.11" style="fill:#313832"/><polygon points="85.51 159.61 92.44 153.14 92.44 157.64 85.51 164.11 85.51 159.61" style="fill:#111b16"/><polygon points="85.51 155.11 92.44 148.64 92.44 153.14 85.51 159.61 85.51 155.11" style="fill:#313832"/><polygon points="85.51 168.6 92.44 162.13 92.44 166.63 86.97 171.74 85.51 171.74 85.51 168.6" style="fill:#111b16"/><path d="M92.44,169.49A2.34,2.34,0,0,1,90,171.74H87l5.47-5.11Z" style="fill:#313832"/><path d="M85.51,141.61l2.58-2.41H90a2.43,2.43,0,0,1,1.91.9l-6.43,6Z" style="fill:#111b16"/><polygon points="85.51 139.2 88.09 139.2 85.51 141.61 85.51 139.2" style="fill:#313832"/><path d="M81,171.74a2.34,2.34,0,0,1-2.41-2.25v-2.76l5.36,5Z" style="fill:#111b16"/><polygon points="85.46 141.66 82.83 139.2 85.51 139.2 85.51 141.61 85.46 141.66" style="fill:#111b16"/><path d="M81,139.2h1.83l2.63,2.46.05,0v4.5l-.05,0-6.42-6A2.46,2.46,0,0,1,81,139.2Z" style="fill:#313832"/><polygon points="85.51 150.61 85.51 155.11 85.46 155.16 78.59 148.73 78.59 144.23 85.46 150.66 85.51 150.61" style="fill:#313832"/><path d="M85.51,146.11v4.5l-.05,0-6.87-6.43v-2.78a2.16,2.16,0,0,1,.45-1.3l6.42,6Z" style="fill:#111b16"/><polygon points="85.51 155.11 85.51 159.61 85.46 159.65 78.59 153.23 78.59 148.73 85.46 155.16 85.51 155.11" style="fill:#111b16"/><polygon points="85.51 168.6 85.51 171.74 83.95 171.74 78.59 166.73 78.59 162.23 85.46 168.65 85.51 168.6" style="fill:#313832"/><polygon points="85.51 159.61 85.51 164.11 85.46 164.15 78.59 157.73 78.59 153.23 85.46 159.65 85.51 159.61" style="fill:#313832"/><polygon points="85.51 164.11 85.51 168.6 85.46 168.65 78.59 162.23 78.59 157.73 85.46 164.15 85.51 164.11" style="fill:#111b16"/><rect x="73.23" y="91.74" width="7.83" height="16.88" transform="translate(154.29 200.35) rotate(180)" style="fill:#ceab2e"/><polygon points="81.06 108.61 84.98 112.53 73.23 112.53 73.23 108.61 81.06 108.61" style="fill:#8e7a27"/><polygon points="84.98 112.53 84.98 119.72 77.15 122.16 73.23 122.16 73.23 112.53 84.98 112.53" style="fill:#9e8428"/><polygon points="84.98 119.72 86.56 119.72 86.56 132.21 79.58 139.2 73.23 139.2 73.23 122.16 81.7 117.82 84.98 119.72" style="fill:#cca82d"/><polygon points="73.23 139.2 82.54 139.2 82.54 142.48 78.4 147.87 73.23 147.87 73.23 139.2" style="fill:#323835"/><path d="M91.64,139.2V136l-3.75-3.76L86.56,132l-7.18,7.19,3.16,0v3.26l2.86-2.86h6.24Z" style="fill:#6f7472"/><rect x="77.17" y="147.55" width="1.43" height="6.88" transform="translate(155.77 301.99) rotate(180)" style="fill:#cca82d"/><polygon points="79.38 139.2 73.23 145.35 73.23 147.87 78.6 147.61 82.54 142.48 82.54 139.22 79.38 139.2" style="fill:#5c665f"/><polygon points="73.23 147.87 77.17 154.43 77.17 147.68 73.23 147.87" style="fill:#5c625f"/><polygon points="82.54 139.22 88.69 133.07 87.89 132.26 86.56 132.01 79.38 139.2 82.54 139.22" style="fill:#59635e"/><rect x="73.23" y="90.73" width="7.83" height="1.01" transform="translate(154.29 182.47) rotate(180)" style="fill:#3b403e"/><path d="M82.33,67.24,79.9,65.65H73.23V82.58a10.74,10.74,0,0,0,5.87-1.8Z" style="fill:#9da098"/><polygon points="79.31 55.92 73.23 55.92 73.23 65.65 79.9 65.65 79.31 55.92" style="fill:#505654"/><polygon points="82.33 67.24 81.59 55.92 77.04 54.91 74.84 52.42 73.23 52.42 73.23 55.92 73.23 58.09 79.44 58.09 79.9 65.65 82.33 67.24" style="fill:#272c2d"/><rect x="75.79" y="59.83" width="1.39" height="5.82" transform="translate(152.97 125.48) rotate(180)" style="fill:#1aa4d0"/><path d="M100.85,77.36l2.39.15a2.25,2.25,0,0,1,.36.06h0l-.39-7.45-3.49-.23L99.17,78A2.1,2.1,0,0,1,100.85,77.36Z" style="fill:#585c52"/><path d="M102.59,70.67l-2.23-.15a.89.89,0,0,1-.82-1l1.4-9.23,2.28.15.32,9.33A.9.9,0,0,1,102.59,70.67Z" style="fill:#e6be32"/><rect x="100.27" y="56.15" width="4.02" height="4.73" transform="translate(200.43 123.71) rotate(-176.17)" style="fill:#90928d"/><path d="M103.58,77.11l-3.34-.23a1.29,1.29,0,0,0-1,.49l-.06.95,4.66.31Z" style="fill:#aeb1b0"/><path d="M98.91,91.65l1.15.08a2.15,2.15,0,0,0,2.16-1.42l3.4-9.67a2.13,2.13,0,0,0-1-2.56l-.51-.29a2.18,2.18,0,0,0-.55-.22,2.25,2.25,0,0,0-.36-.06l-2.39-.15a2.14,2.14,0,0,0-2.19,1.52l-1.27,4.33a2.46,2.46,0,0,0-.08.46l-.38,5.71A2.12,2.12,0,0,0,98.91,91.65Z" style="fill:#9da098"/><path d="M102.47,56.15a2.77,2.77,0,0,1,0-.64,1.09,1.09,0,0,1,.58-.88c.67-.36,1.83-1.45,2.21-4.84a.32.32,0,0,1,.34-.27h0a.59.59,0,0,1,.55.63l-.31,4.55a.84.84,0,0,1-.3.61l-1.11,1Z" style="fill:#aeb1b0"/><path d="M102.62,56.16a2.83,2.83,0,0,0,.08-.63,1.11,1.11,0,0,0-.52-1c-.7-.45-1.83-1.69-1.78-5.1a.32.32,0,0,0-.33-.32h0a.63.63,0,0,0-.7.54l-.3,4.56a.83.83,0,0,0,.24.64l1.1,1.12Z" style="fill:#9a9f9a"/><rect x="64.66" y="69.51" width="8.57" height="2.14" style="fill:#393f3c"/><rect x="73.23" y="69.51" width="8.57" height="2.14" style="fill:#242928"/><circle cx="73.23" cy="100.42" r="4.55" style="fill:#f0c835"/><polygon points="49.44 116.72 50.69 113.48 50.69 116.72 49.44 116.72" style="fill:#3fb44d"/><rect x="49.44" y="116.72" width="1.25" height="5.1" style="fill:#2b302f"/><polygon points="50.69 125.79 48.27 125.79 49.44 121.82 50.69 121.82 50.69 125.79" style="fill:#3fb44d"/><polygon points="51.94 116.72 50.69 113.48 50.69 116.72 51.94 116.72" style="fill:#19ad4b"/><rect x="50.69" y="116.72" width="1.25" height="5.1" transform="translate(102.63 238.54) rotate(180)" style="fill:#1b2020"/><polygon points="50.69 125.79 53.1 125.79 51.94 121.82 50.69 121.82 50.69 125.79" style="fill:#19ad4b"/><rect x="48.27" y="125.79" width="2.41" height="6.47" style="fill:#19ad4b"/><rect x="50.69" y="125.79" width="2.41" height="6.47" style="fill:#1a9447"/><polygon points="48.27 130.21 46.9 131.59 46.9 134.36 50.69 132.26 50.69 130.21 48.27 130.21" style="fill:#1a9447"/><polygon points="53.1 130.19 54.48 131.56 54.48 134.33 50.69 132.23 50.69 130.19 53.1 130.19" style="fill:#14783d"/><polygon points="46.9 131.59 49.74 128.75 49.74 132.78 46.9 131.59" style="fill:#1a9447"/><polygon points="54.48 131.59 51.64 128.75 51.64 132.78 54.48 131.59" style="fill:#14783d"/><path d="M50.06,130.21l-.62,4.15h1a1.31,1.31,0,0,0,.28,0v-6.25Z" style="fill:#0c6433"/><path d="M51.32,130.21l.62,4.15H51a1.31,1.31,0,0,1-.28,0v-6.25Z" style="fill:#0e4824"/><rect x="47.19" y="124.41" width="6.99" height="0.61" style="fill:#e6be32"/><rect x="48.41" y="117.97" width="4.57" height="0.61" style="fill:#e6be32"/><polygon points="94.81 116.72 96.06 113.48 96.06 116.72 94.81 116.72" style="fill:#3fb44d"/><rect x="94.81" y="116.72" width="1.25" height="5.1" style="fill:#2b302f"/><polygon points="96.06 125.79 93.65 125.79 94.81 121.82 96.06 121.82 96.06 125.79" style="fill:#3fb44d"/><polygon points="97.32 116.72 96.06 113.48 96.06 116.72 97.32 116.72" style="fill:#19ad4b"/><rect x="96.07" y="116.72" width="1.25" height="5.1" transform="translate(193.38 238.54) rotate(180)" style="fill:#1b2020"/><polygon points="96.06 125.79 98.48 125.79 97.32 121.82 96.06 121.82 96.06 125.79" style="fill:#19ad4b"/><rect x="93.65" y="125.79" width="2.41" height="6.47" style="fill:#19ad4b"/><rect x="96.07" y="125.79" width="2.41" height="6.47" style="fill:#1a9447"/><polygon points="93.65 130.21 92.28 131.59 92.28 134.36 96.06 132.26 96.06 130.21 93.65 130.21" style="fill:#1a9447"/><polygon points="98.48 130.19 99.86 131.56 99.86 134.33 96.06 132.23 96.06 130.19 98.48 130.19" style="fill:#14783d"/><polygon points="92.28 131.59 95.12 128.75 95.12 132.78 92.28 131.59" style="fill:#1a9447"/><polygon points="99.86 131.59 97.01 128.75 97.01 132.78 99.86 131.59" style="fill:#14783d"/><path d="M95.44,130.21l-.63,4.15h1a1.31,1.31,0,0,0,.28,0v-6.25Z" style="fill:#0c6433"/><path d="M96.69,130.21l.63,4.15h-1a1.22,1.22,0,0,1-.27,0v-6.25Z" style="fill:#0e4824"/><rect x="92.57" y="124.41" width="6.99" height="0.61" style="fill:#e6be32"/><rect x="93.78" y="117.97" width="4.57" height="0.61" style="fill:#e6be32"/><path d="M47.46,84.85l-1.23-1.23h0l1.23-1.22a.48.48,0,0,0,0-.65.45.45,0,0,0-.66,0L45.58,83h0l-1.23-1.23a.46.46,0,0,0-.64,0,.47.47,0,0,0,0,.67l1.24,1.23h0L43.7,84.85a.47.47,0,0,0,0,.64.47.47,0,0,0,.67,0l1.24-1.24h0l1.24,1.24a.46.46,0,1,0,.64-.66Z" style="fill:#72766c"/><path d="M103.27,83.82,102,82.59h0l1.23-1.23a.47.47,0,0,0,0-.64.45.45,0,0,0-.66,0l-1.24,1.24h0l-1.23-1.23a.48.48,0,0,0-.65,0,.47.47,0,0,0,0,.67l1.24,1.24h0l-1.23,1.23a.46.46,0,1,0,.64.66l1.24-1.24h0l1.24,1.24a.45.45,0,0,0,.66,0A.47.47,0,0,0,103.27,83.82Z" style="fill:#72766c"/><path d="M75.34,40.5A2.1,2.1,0,1,0,73,42.6v12H69.76v.48h3.73V42.59A2.1,2.1,0,0,0,75.34,40.5Z" style="fill:#20231f"/></g></g></g></svg>