<svg xmlns="http://www.w3.org/2000/svg" xmlns:xlink="http://www.w3.org/1999/xlink" viewBox="0 0 148.25 207.55"><defs><linearGradient id="Degradado_sin_nombre_6" x1="-14.83" y1="192.72" x2="163.07" y2="14.83" gradientUnits="userSpaceOnUse"><stop offset="0" stop-color="aqua"/><stop offset="1" stop-color="blue"/></linearGradient></defs><title>Asset 144</title><g id="Layer_2" data-name="Layer 2"><g id="Layer_3" data-name="Layer 3"><rect width="148.25" height="207.55" style="fill:url(#Degradado_sin_nombre_6)"/><g style="opacity:0.45"><polygon points="135.39 156.18 135.39 112.55 132.72 109.88 132.72 53.79 124.71 53.79 124.71 46.44 97.18 46.44 94.44 49.19 60.75 49.19 54.99 43.43 8.69 43.43 8.69 133.36 12.97 137.63 12.97 157.37 15.71 160.11 15.71 166.87 48.43 166.87 48.43 170.72 75.74 170.72 75.74 173.22 138.49 173.22 138.49 159.28 135.39 156.18" style="fill:#00158e;opacity:0.2"/><path d="M139.7,141.66V118.88a1.53,1.53,0,0,0,1.26-1.5,1.56,1.56,0,1,0-3.12,0,1.53,1.53,0,0,0,1.26,1.5v23l4.6,4.6v33.12H64.76v-5H5.4V41H24.59a1.56,1.56,0,1,0,0-.59H4.8V175.18H64.16v5H144.3v-34Z" style="fill:gold"/><polygon points="84.78 166.79 87.76 166.79 90.94 163.62 85.97 163.62 78.82 170.77 80.81 170.77 84.78 166.79" style="fill:gold"/><polygon points="91.24 166.79 94.21 166.79 97.39 163.62 92.42 163.62 85.27 170.77 87.26 170.77 91.24 166.79" style="fill:gold"/><polygon points="97.69 166.79 100.66 166.79 103.84 163.62 98.87 163.62 91.72 170.77 93.71 170.77 97.69 166.79" style="fill:gold"/><polygon points="104.14 166.79 107.11 166.79 110.29 163.62 105.33 163.62 98.17 170.77 100.16 170.77 104.14 166.79" style="fill:gold"/><polygon points="110.59 166.79 113.56 166.79 116.74 163.62 111.78 163.62 104.62 170.77 106.61 170.77 110.59 166.79" style="fill:gold"/><polygon points="117.04 166.79 120.02 166.79 123.19 163.62 118.23 163.62 111.08 170.77 113.06 170.77 117.04 166.79" style="fill:gold"/><polygon points="123.49 166.79 126.47 166.79 129.64 163.62 124.68 163.62 117.53 170.77 119.52 170.77 123.49 166.79" style="fill:gold"/><polygon points="129.94 166.79 132.92 166.79 136.09 163.62 131.13 163.62 123.98 170.77 125.97 170.77 129.94 166.79" style="fill:gold"/><polygon points="15.91 45.6 13.18 45.6 11.24 48.97 13.18 52.34 15.91 52.34 13.97 48.97 15.91 45.6" style="fill:#0751cf"/><polygon points="22.9 45.6 20.16 45.6 18.22 48.97 20.16 52.34 22.9 52.34 20.95 48.97 22.9 45.6" style="fill:#0751cf"/><polygon points="29.88 45.6 27.14 45.6 25.2 48.97 27.14 52.34 29.88 52.34 27.93 48.97 29.88 45.6" style="fill:#0751cf"/><polygon points="36.86 45.6 34.13 45.6 32.18 48.97 34.13 52.34 36.86 52.34 34.91 48.97 36.86 45.6" style="fill:#0751cf"/><polygon points="43.84 45.6 41.11 45.6 39.16 48.97 41.11 52.34 43.84 52.34 41.9 48.97 43.84 45.6" style="fill:#0751cf"/><polygon points="50.82 45.6 48.09 45.6 46.15 48.97 48.09 52.34 50.82 52.34 48.88 48.97 50.82 45.6" style="fill:#0751cf"/><path d="M66.13,45.94H69l-5.17,5.17H61Zm11.59,0H74.83l-5.16,5.17h2.88Zm-4.35,0H70.48l-5.16,5.17H68.2Zm21.75,0H92.24l-5.17,5.17H90Zm-13.05,0H79.19L74,51.11H76.9Zm8.7,0H87.89l-5.17,5.17h2.89Zm-4.35,0H83.54l-5.17,5.17h2.88Z" style="fill:gold"/><rect x="121.74" y="100.38" width="19.89" height="2.67" style="fill:gold"/><rect x="129.61" y="96.38" width="9.2" height="1.78" style="fill:gold"/><rect x="12.22" y="160.93" width="17.81" height="2.37" style="fill:gold"/><path d="M108.88,53.59H113V49.43h-4.16Zm.59-3.56h3v3h-3Z" style="fill:gold"/><path d="M129.46,85.15V81.69H125.7v3.75h3.76Zm-3.17-2.87h2.57v2.57h-2.57Z" style="fill:gold"/><path d="M125.7,136.3h4.15v-4.16H125.7Zm.59-3.57h3v3h-3Z" style="fill:#0751cf"/><path d="M15.69,150.54h5.14V145.4H15.69Zm.59-4.55h4v4h-4Z" style="fill:gold"/><path d="M11.93,126h3.16v-3.17H11.93Zm.59-2.58h2v2h-2Z" style="fill:#0751cf"/><path d="M32.51,169.54H43.78V165H32.51Zm.59-4H43.19v3.36H33.1Z" style="fill:gold"/><path d="M131.24,59.72V81.09h3.36V59.72Zm.59.6H134V80.5h-2.18Z" style="fill:gold"/><path d="M132.62,51.31V46.07h-5.54v5.54h5.54Zm-4.94-4.65H132V51h-4.35Z" style="fill:gold"/><path d="M38.05,40.83V37.17h-4v3.95h4Zm-3.37-3.07h2.77v2.77H34.68Z" style="fill:gold"/><path d="M52.88,39.94h4.95V35H52.88Zm.6-4.36h3.76v3.76H53.48Z" style="fill:#0751cf"/><polygon points="21.38 79.57 18.51 79.57 18.51 76.7 16.89 76.7 16.89 79.57 14.03 79.57 14.03 81.19 16.89 81.19 16.89 84.06 18.51 84.06 18.51 81.19 21.38 81.19 21.38 79.57" style="fill:gold"/><polygon points="33.8 79.57 30.94 79.57 30.94 76.7 29.32 76.7 29.32 79.57 26.45 79.57 26.45 81.19 29.32 81.19 29.32 84.06 30.94 84.06 30.94 81.19 33.8 81.19 33.8 79.57" style="fill:gold"/><polygon points="46.23 79.57 43.37 79.57 43.37 76.7 41.74 76.7 41.74 79.57 38.88 79.57 38.88 81.19 41.74 81.19 41.74 84.06 43.37 84.06 43.37 81.19 46.23 81.19 46.23 79.57" style="fill:gold"/><polygon points="58.66 79.57 55.79 79.57 55.79 76.7 54.17 76.7 54.17 79.57 51.31 79.57 51.31 81.19 54.17 81.19 54.17 84.06 55.79 84.06 55.79 81.19 58.66 81.19 58.66 79.57" style="fill:gold"/></g><circle cx="73.92" cy="44.2" r="6.48" style="fill:#7b2e52"/><path d="M91.41,36.16a1.79,1.79,0,1,0-2,1.78V48.16H86.66v.41h3.18V37.94A1.79,1.79,0,0,0,91.41,36.16Z" style="fill:#060a0f"/><polygon points="84.63 50.33 87.2 49.52 87.2 47.15 77.7 47.15 77.7 50.33 84.63 50.33" style="fill:#060a0f"/><path d="M55.63,36.16a1.79,1.79,0,1,1,2,1.78V48.16h2.78v.41H57.21V37.94A1.79,1.79,0,0,1,55.63,36.16Z" style="fill:#060a0f"/><polygon points="62.41 50.33 59.84 49.52 59.84 47.15 69.34 47.15 69.34 50.33 62.41 50.33" style="fill:#060a0f"/><path d="M73.92,60.51H62.86L53.7,67.58C54.74,80,65.34,87,65.34,87l8.58-.5Z" style="fill:#24002c"/><path d="M49.6,70.59s-5.26,16.86-3.55,23.29h4.61L58,79.23,56.34,69.15Z" style="fill:#7b2e52"/><circle cx="53.7" cy="69.15" r="4.34" style="fill:#8e555a"/><polygon points="73.92 86.47 69.99 86.47 69.99 125.7 71.56 129.68 73.92 127.32 73.92 86.47" style="fill:#1a0525"/><polygon points="65.45 163.13 71.54 161.62 72.44 162.52 72.44 167.34 68.05 167.34 66.95 168.44 65.45 168.44 64.27 163.13 65.45 163.13" style="fill:#1a0525"/><path d="M71.21,144.43l1.23,9.85v1.89h-3V153.7S68.29,144.92,71.21,144.43Z" style="fill:#4a1950"/><path d="M63.25,122.31l4.39,8.94,1.83-.48,2.09-11-1.23-.53S67.87,116.15,63.25,122.31Z" style="fill:#1a0525"/><path d="M56.91,112.51l-.81.8,7.15,9s4.5-4.58,7.08-3L72.25,115v-6.24l-4.74-3.62S57.31,109.29,56.91,112.51Z" style="fill:#340a36"/><polygon points="65.34 87 66.65 88.3 73.54 88.3 73.54 86.47 66.79 86.47 65.34 87" style="fill:#af7eb6"/><polygon points="66.65 88.3 65.34 88.3 64.75 92.74 68.56 92.74 69.72 91.57 73.54 91.57 73.54 88.3 66.65 88.3" style="fill:#90619c"/><polygon points="64.75 92.74 64.75 96.44 66.39 96.44 67.75 95.07 69.44 95.07 73.54 99.17 73.54 91.57 69.72 91.57 68.56 92.74 64.75 92.74" style="fill:#451b46"/><polygon points="73.54 99.17 69.14 102.94 59.24 99.73 64.75 96.44 66.39 96.44 67.75 95.07 69.44 95.07 73.54 99.17" style="fill:#340a36"/><path d="M59.24,99.73H55.8v2.81l2,1.95-.84,8,2.16-2.17s6.68-6.27,12.38-1.61h.8L71,101.32Z" style="fill:#12001d"/><path d="M67.08,135.17l.32,1.12-1,.27s2.27.27,1,4.55l1.39,12.59h.59s-.63-7.77,1.83-9.27V133.72Z" style="fill:#1a0525"/><polygon points="65.93 160.19 66.95 159.01 72.44 157.99 72.44 164.1 70.06 164.1 68.13 163.13 65.45 163.13 65.93 160.19" style="fill:#4a1950"/><polygon points="72.44 159.01 66.95 159.01 67.27 157.45 69.41 156.17 72.44 156.17 72.44 159.01" style="fill:#1a0525"/><polygon points="64.27 163.13 62.07 170.36 65.45 170.36 65.45 168.44 64.27 163.13" style="fill:#4a1950"/><polygon points="66.95 168.44 68.05 167.34 72.44 167.34 72.44 170.36 65.45 170.36 65.45 168.44 66.95 168.44" style="fill:#4a1950"/><polygon points="66.36 136.56 66.41 133.57 68.04 135.21 67.4 136.29 66.36 136.56" style="fill:#1a0525"/><path d="M62,118.22a1.66,1.66,0,1,1-1.66-1.66A1.66,1.66,0,0,1,62,118.22Z"/><polygon points="71.56 119.79 72.29 114.58 70.33 119.26 71.56 119.79" style="fill:#340a36"/><polygon points="71.56 119.79 71.56 147.2 67.58 128.8 71.56 119.79" style="fill:#1a0525"/><polygon points="55.8 99.73 58.7 96.84 73.54 99.17 71.29 102.86 55.8 99.73" style="fill:#90619c"/><polygon points="73.54 99.17 72.25 114.97 71.29 102.86 73.54 99.17" style="fill:#683a73"/><polygon points="56.1 113.31 55.8 102.54 57.75 104.49 56.91 112.51 56.1 113.31" style="fill:#683a73"/><polygon points="57.75 104.49 71.29 102.86 55.8 99.73 55.8 102.54 57.75 104.49" style="fill:#340a36"/><polygon points="56.1 113.31 63.26 106.59 71.56 106.59 72.29 114.58 64.75 114.58 59.12 117.11 56.1 113.31" style="fill:#24002c"/><path d="M71.29,133.08a2.47,2.47,0,1,1-2.47-2.47A2.47,2.47,0,0,1,71.29,133.08Z" style="fill:#4a1950"/><path d="M70,133.08a1.21,1.21,0,1,1-1.21-1.21A1.21,1.21,0,0,1,70,133.08Z" style="fill:#1a0525"/><path d="M68.58,133.42,65,131.34a10.69,10.69,0,0,1-5.24-9.16V118h.81v4.2a9.87,9.87,0,0,0,4.84,8.47L69,132.73Z"/><path d="M69,144.43h2a1.45,1.45,0,0,1,1.45,1.45v11.46a0,0,0,0,1,0,0H68.91a2.28,2.28,0,0,1-2.28-2.28v-8.2A2.42,2.42,0,0,1,69,144.43Z" style="fill:#1a0525"/><polygon points="73.92 60.51 62.86 60.51 73.92 71.57 73.92 60.51" style="fill:#00000b"/><path d="M73.92,54.64h-6l-1.55,1.12-1.26,4.75s-.23,4.44,8.81.31Z" style="fill:#7b2e52"/><path d="M73.92,53.64H63.27a11.83,11.83,0,0,0,4.44,6.15l2.14,1.92a6.9,6.9,0,0,0,4.07,1.69Z" style="fill:#1a0525"/><path d="M47.17,103.61H44.36A4.58,4.58,0,0,1,39.78,99V97.31a3.5,3.5,0,0,1,3.49-3.49v1.45a2,2,0,0,0-2,2V99a3.13,3.13,0,0,0,3.13,3.13h2.81Z" style="fill:#7b2e52"/><rect x="45.39" y="98.47" width="3.57" height="10.68" style="fill:#410c2d"/><rect x="45.75" y="114.85" width="1.85" height="7.06" style="fill:#410c2d"/><rect x="48.03" y="114.85" width="0.66" height="7.06" style="fill:#410c2d"/><polygon points="43.06 119.59 47.19 119.59 47.19 124.81 44.91 124.81 44.91 133.08 44.26 133.08 40.49 124 43.06 119.59" style="fill:#410c2d"/><polygon points="51.31 119.59 47.17 119.59 47.17 124.81 49.46 124.81 49.46 133.08 50.1 133.08 53.88 124 51.31 119.59" style="fill:#7b2e52"/><polygon points="43.42 109.15 50.89 109.15 49.52 116.46 44.14 116.46 43.42 109.15" style="fill:#5f1b3f"/><circle cx="47.77" cy="94.55" r="5.02" transform="translate(-50.5 55.01) rotate(-41.28)" style="fill:#5f1b3f"/><path d="M45.68,94.55a2.09,2.09,0,1,0,2.09-2.09A2.09,2.09,0,0,0,45.68,94.55Z" style="fill:#8e555a"/><path d="M73.92,42.08H64.37c-2.09,4.94-2,8.76-1.1,11.56H73.92Z" style="fill:#48184f"/><path d="M73.92,60.51H85l9.16,7.07C93.09,80,82.49,87,82.49,87l-8.57-.5Z" style="fill:#00000e"/><path d="M98.23,70.59s5.26,16.86,3.55,23.29H97.17L89.8,79.23l1.69-10.08Z" style="fill:#571539"/><circle cx="94.14" cy="69.15" r="4.34" style="fill:#6e3d44"/><polygon points="73.92 86.47 77.84 86.47 77.84 125.7 76.28 129.68 73.92 127.32 73.92 86.47" style="fill:#00000b"/><polygon points="82.39 163.13 76.29 161.62 75.39 162.52 75.39 167.34 79.79 167.34 80.89 168.44 82.39 168.44 83.56 163.13 82.39 163.13" style="fill:#01000e"/><path d="M76.62,144.43l-1.23,9.85v1.89h3V153.7S79.54,144.92,76.62,144.43Z" style="fill:#4a1950"/><path d="M84.58,122.31l-4.39,8.94-1.82-.48-2.09-11,1.23-.53S80,116.15,84.58,122.31Z" style="fill:#00000b"/><path d="M90.93,112.51l.8.8-7.15,9s-4.5-4.58-7.07-3L75.58,115v-6.24l4.74-3.62S90.52,109.29,90.93,112.51Z" style="fill:#24042a"/><polygon points="82.49 87 81.19 88.3 74.3 88.3 74.3 86.47 81.05 86.47 82.49 87" style="fill:#9b6ca4"/><polygon points="81.19 88.3 82.49 88.3 83.08 92.74 79.28 92.74 78.11 91.57 74.3 91.57 74.3 88.3 81.19 88.3" style="fill:#6e4478"/><polygon points="83.08 92.74 83.08 96.44 81.44 96.44 80.08 95.07 78.39 95.07 74.3 99.17 74.3 91.57 78.11 91.57 79.28 92.74 83.08 92.74" style="fill:#2c0430"/><polygon points="74.3 99.17 78.69 102.94 88.6 99.73 83.08 96.44 81.44 96.44 80.08 95.07 78.39 95.07 74.3 99.17" style="fill:#150220"/><path d="M88.6,99.73H92v2.81l-1.94,1.95.84,8-2.17-2.17s-6.67-6.27-12.38-1.61h-.8l1.22-7.41Z"/><path d="M80.75,135.17l-.32,1.12,1,.27s-2.27.27-1,4.55L79,153.7h-.59s.64-7.77-1.83-9.27V133.72Z" style="fill:#000006"/><polygon points="81.9 160.19 80.89 159.01 75.39 157.99 75.39 164.1 77.78 164.1 79.71 163.13 82.39 163.13 81.9 160.19" style="fill:#2c0334"/><polygon points="75.39 159.01 80.89 159.01 80.56 157.45 78.42 156.17 75.39 156.17 75.39 159.01" style="fill:#040013"/><polygon points="83.56 163.13 85.76 170.36 82.39 170.36 82.39 168.44 83.56 163.13" style="fill:#23012d"/><polygon points="80.89 168.44 79.79 167.34 75.39 167.34 75.39 170.36 82.39 170.36 82.39 168.44 80.89 168.44" style="fill:#320839"/><polygon points="81.47 136.56 81.42 133.57 79.79 135.21 80.43 136.29 81.47 136.56" style="fill:#1a0525"/><path d="M85.83,118.22a1.66,1.66,0,1,0,1.66-1.66A1.66,1.66,0,0,0,85.83,118.22Z"/><polygon points="76.28 119.79 75.55 114.58 77.51 119.26 76.28 119.79" style="fill:#24042a"/><polygon points="76.28 119.79 76.28 147.2 80.25 128.8 76.28 119.79" style="fill:#01000e"/><polygon points="92.03 99.73 89.14 96.84 74.3 99.17 76.55 102.86 92.03 99.73" style="fill:#7b5082"/><polygon points="74.3 99.17 75.58 114.97 76.55 102.86 74.3 99.17" style="fill:#4f2158"/><polygon points="91.73 113.31 92.03 102.54 90.09 104.49 90.93 112.51 91.73 113.31" style="fill:#50275a"/><polygon points="90.09 104.49 76.55 102.86 92.03 99.73 92.03 102.54 90.09 104.49" style="fill:#29042f"/><polygon points="91.73 113.31 84.58 106.59 76.28 106.59 75.55 114.58 83.08 114.58 88.72 117.11 91.73 113.31" style="fill:#0b001a"/><path d="M76.55,133.08A2.46,2.46,0,1,0,79,130.61,2.46,2.46,0,0,0,76.55,133.08Z" style="fill:#2b0133"/><path d="M77.84,133.08a1.21,1.21,0,1,0,1.21-1.21A1.21,1.21,0,0,0,77.84,133.08Z" style="fill:#1a0525"/><path d="M79.25,133.42l3.54-2.08A10.63,10.63,0,0,0,88,122.18V118h-.81v4.2a9.87,9.87,0,0,1-4.84,8.47l-3.53,2.08Z"/><path d="M77.61,144.43H81.2a0,0,0,0,1,0,0v11.46a1.45,1.45,0,0,1-1.45,1.45h-2a2.42,2.42,0,0,1-2.42-2.42v-8.2A2.28,2.28,0,0,1,77.61,144.43Z" transform="translate(156.53 301.77) rotate(180)" style="fill:#01000e"/><polygon points="73.92 60.51 84.98 60.51 73.92 71.57 73.92 60.51"/><path d="M73.92,54.64h6l1.55,1.12,1.27,4.75s.22,4.44-8.81.31Z" style="fill:#5f143c"/><path d="M73.92,53.64H84.56a11.83,11.83,0,0,1-4.44,6.15L78,61.71a6.93,6.93,0,0,1-4.07,1.69Z" style="fill:#000005"/><path d="M100.66,103.61h2.81A4.58,4.58,0,0,0,108.05,99V97.31a3.49,3.49,0,0,0-3.49-3.49v1.45a2,2,0,0,1,2,2V99a3.13,3.13,0,0,1-3.13,3.13h-2.81Z" style="fill:#7b2e52"/><rect x="98.88" y="98.47" width="3.57" height="10.68" transform="translate(201.32 207.63) rotate(180)" style="fill:#2f0221"/><rect x="100.24" y="114.85" width="1.85" height="7.06" transform="translate(202.32 236.77) rotate(180)" style="fill:#410c2d"/><rect x="99.14" y="114.85" width="0.66" height="7.06" transform="translate(198.95 236.77) rotate(180)" style="fill:#410c2d"/><polygon points="104.78 119.59 100.64 119.59 100.64 124.81 102.93 124.81 102.93 133.08 103.57 133.08 107.34 124 104.78 119.59" style="fill:#320325"/><polygon points="96.53 119.59 100.66 119.59 100.66 124.81 98.37 124.81 98.37 133.08 97.73 133.08 93.96 124 96.53 119.59" style="fill:#632143"/><polygon points="104.41 109.15 96.95 109.15 98.31 116.46 103.69 116.46 104.41 109.15" style="fill:#4e1437"/><circle cx="100.06" cy="94.55" r="5.02" transform="translate(-19.26 25.89) rotate(-13.46)" style="fill:#43072d"/><circle cx="100.06" cy="94.55" r="2.09" style="fill:#8e555a"/><path d="M73.92,42.08h9.54c2.09,4.94,2,8.76,1.1,11.56H73.92Z" style="fill:#2c0435"/><rect x="70.14" y="44.2" width="1.7" height="7.19" style="fill:#000005"/><rect x="76.18" y="44.2" width="1.7" height="7.19" style="fill:#000005"/><rect x="70.68" y="74.19" width="6.48" height="2.18" style="fill:#7b2e52"/><rect x="70.68" y="74.19" width="6.48" height="2.18" style="fill:#662245"/></g></g></svg>