<svg xmlns="http://www.w3.org/2000/svg" xmlns:xlink="http://www.w3.org/1999/xlink" viewBox="0 0 148.25 207.55"><defs><clipPath id="clip-path"><rect width="148.25" height="207.55" style="fill:none"/></clipPath><linearGradient id="Degradado_sin_nombre_5" x1="-14.83" y1="14.83" x2="163.07" y2="192.72" gradientUnits="userSpaceOnUse"><stop offset="0" stop-color="#fef201"/><stop offset="1" stop-color="#ff1443"/></linearGradient></defs><title>Asset 126</title><g style="isolation:isolate"><g id="Layer_2" data-name="Layer 2"><g id="Layer_3" data-name="Layer 3"><g style="clip-path:url(#clip-path)"><rect width="148.25" height="207.55" style="fill:url(#Degradado_sin_nombre_5)"/><g style="opacity:0.46;mix-blend-mode:soft-light"><circle cx="4.8" cy="8.78" r="1" style="fill:#fef201"/><circle cx="4.8" cy="21.82" r="1" style="fill:#fef201"/><circle cx="4.8" cy="34.86" r="1" style="fill:#fef201"/><circle cx="4.8" cy="47.91" r="1" style="fill:#fef201"/><circle cx="4.8" cy="60.95" r="1" style="fill:#fef201"/><circle cx="4.8" cy="74" r="1" style="fill:#fef201"/><circle cx="4.8" cy="87.04" r="1" style="fill:#fef201"/><circle cx="4.8" cy="100.09" r="1" style="fill:#fef201"/><circle cx="4.8" cy="113.13" r="1" style="fill:#fef201"/><circle cx="4.8" cy="126.18" r="1" style="fill:#fef201"/><circle cx="4.8" cy="139.22" r="1" style="fill:#fef201"/><circle cx="4.8" cy="152.27" r="1" style="fill:#fef201"/><circle cx="4.8" cy="165.31" r="1" style="fill:#fef201"/><circle cx="4.8" cy="178.35" r="1" style="fill:#fef201"/><circle cx="4.8" cy="191.4" r="1" style="fill:#fef201"/><circle cx="4.8" cy="204.44" r="1" style="fill:#fef201"/><path d="M12.15,4.11a1,1,0,1,0,0-2,1,1,0,0,0-1,1A1,1,0,0,0,12.15,4.11Z" style="fill:#fef201"/><path d="M12.18,15.15a1,1,0,1,0,1,1A1,1,0,0,0,12.18,15.15Z" style="fill:#fef201"/><path d="M12.23,28.2a1,1,0,1,0,1,1A1,1,0,0,0,12.23,28.2Z" style="fill:#fef201"/><path d="M12.27,41.24a1,1,0,1,0,0,2,1,1,0,0,0,0-2Z" style="fill:#fef201"/><path d="M12.31,54.28a1,1,0,0,0-1,1,1,1,0,0,0,1,1,1,1,0,1,0,0-2Z" style="fill:#fef201"/><path d="M12.36,67.33a1,1,0,1,0,1,1A1,1,0,0,0,12.36,67.33Z" style="fill:#fef201"/><path d="M12.4,80.37a1,1,0,0,0-1,1,1,1,0,0,0,2,0A1,1,0,0,0,12.4,80.37Z" style="fill:#fef201"/><path d="M12.44,93.42a1,1,0,1,0,0,2,1,1,0,0,0,0-2Z" style="fill:#fef201"/><path d="M12.48,106.46a1,1,0,0,0,0,2,1,1,0,1,0,0-2Z" style="fill:#fef201"/><path d="M12.53,119.51a1,1,0,1,0,0,2,1,1,0,0,0,1-1A1,1,0,0,0,12.53,119.51Z" style="fill:#fef201"/><path d="M12.57,132.55a1,1,0,1,0,1,1A1,1,0,0,0,12.57,132.55Z" style="fill:#fef201"/><path d="M12.61,145.6a1,1,0,0,0-1,1,1,1,0,0,0,1,1,1,1,0,0,0,1-1A1,1,0,0,0,12.61,145.6Z" style="fill:#fef201"/><path d="M12.65,158.64a1,1,0,1,0,1,1A1,1,0,0,0,12.65,158.64Z" style="fill:#fef201"/><path d="M12.7,171.68a1,1,0,0,0-1,1,1,1,0,0,0,2,0A1,1,0,0,0,12.7,171.68Z" style="fill:#fef201"/><path d="M12.74,184.73a1,1,0,1,0,1,1A1,1,0,0,0,12.74,184.73Z" style="fill:#fef201"/><path d="M12.78,197.77a1,1,0,1,0,0,2,1,1,0,0,0,1-1A1,1,0,0,0,12.78,197.77Z" style="fill:#fef201"/><circle cx="21.13" cy="8.78" r="1" style="fill:#fef201"/><circle cx="21.13" cy="21.82" r="1" style="fill:#fef201"/><circle cx="21.13" cy="34.86" r="1" style="fill:#fef201"/><circle cx="21.13" cy="47.91" r="1" style="fill:#fef201"/><circle cx="21.13" cy="60.95" r="1" style="fill:#fef201"/><circle cx="21.13" cy="74" r="1" style="fill:#fef201"/><circle cx="21.13" cy="87.04" r="1" style="fill:#fef201"/><circle cx="21.13" cy="100.09" r="1" style="fill:#fef201"/><circle cx="21.13" cy="113.13" r="1" style="fill:#fef201"/><circle cx="21.13" cy="126.18" r="1" style="fill:#fef201"/><circle cx="21.13" cy="139.22" r="1" style="fill:#fef201"/><circle cx="21.13" cy="152.27" r="1" style="fill:#fef201"/><circle cx="21.13" cy="165.31" r="1" style="fill:#fef201"/><circle cx="21.13" cy="178.35" r="1" style="fill:#fef201"/><circle cx="21.13" cy="191.4" r="1" style="fill:#fef201"/><circle cx="21.13" cy="204.44" r="1" style="fill:#fef201"/><path d="M28.48,4.11a1,1,0,0,0,1-1,1,1,0,1,0-1,1Z" style="fill:#fef201"/><path d="M28.52,15.15a1,1,0,0,0-1,1,1,1,0,1,0,1-1Z" style="fill:#fef201"/><path d="M28.56,28.2a1,1,0,0,0-1,1,1,1,0,0,0,1,1,1,1,0,0,0,0-2Z" style="fill:#fef201"/><path d="M28.6,41.24a1,1,0,0,0,0,2,1,1,0,1,0,0-2Z" style="fill:#fef201"/><path d="M28.65,54.28a1,1,0,0,0-1,1,1,1,0,0,0,1,1,1,1,0,1,0,0-2Z" style="fill:#fef201"/><path d="M28.69,67.33a1,1,0,1,0,1,1A1,1,0,0,0,28.69,67.33Z" style="fill:#fef201"/><path d="M28.73,80.37a1,1,0,1,0,0,2,1,1,0,0,0,1-1A1,1,0,0,0,28.73,80.37Z" style="fill:#fef201"/><path d="M28.77,93.42a1,1,0,0,0,0,2,1,1,0,1,0,0-2Z" style="fill:#fef201"/><path d="M28.82,106.46a1,1,0,1,0,1,1A1,1,0,0,0,28.82,106.46Z" style="fill:#fef201"/><path d="M28.86,119.51a1,1,0,1,0,1,1A1,1,0,0,0,28.86,119.51Z" style="fill:#fef201"/><path d="M28.9,132.55a1,1,0,1,0,1,1A1,1,0,0,0,28.9,132.55Z" style="fill:#fef201"/><path d="M28.94,145.6a1,1,0,0,0,0,2,1,1,0,0,0,1-1A1,1,0,0,0,28.94,145.6Z" style="fill:#fef201"/><path d="M29,158.64a1,1,0,1,0,1,1A1,1,0,0,0,29,158.64Z" style="fill:#fef201"/><path d="M29,171.68a1,1,0,0,0-1,1,1,1,0,0,0,2,0A1,1,0,0,0,29,171.68Z" style="fill:#fef201"/><path d="M29.07,184.73a1,1,0,0,0-1,1,1,1,0,1,0,1-1Z" style="fill:#fef201"/><path d="M29.11,197.77a1,1,0,1,0,1,1A1,1,0,0,0,29.11,197.77Z" style="fill:#fef201"/><circle cx="37.47" cy="8.78" r="1" style="fill:#fef201"/><circle cx="37.47" cy="21.82" r="1" style="fill:#fef201"/><circle cx="37.47" cy="34.86" r="1" style="fill:#fef201"/><circle cx="37.47" cy="47.91" r="1" style="fill:#fef201"/><circle cx="37.47" cy="60.95" r="1" style="fill:#fef201"/><circle cx="37.47" cy="74" r="1" style="fill:#fef201"/><circle cx="37.47" cy="87.04" r="1" style="fill:#fef201"/><circle cx="37.47" cy="100.09" r="1" style="fill:#fef201"/><circle cx="37.47" cy="113.13" r="1" style="fill:#fef201"/><circle cx="37.47" cy="126.18" r="1" style="fill:#fef201"/><circle cx="37.47" cy="139.22" r="1" style="fill:#fef201"/><circle cx="37.47" cy="152.27" r="1" style="fill:#fef201"/><circle cx="37.47" cy="165.31" r="1" style="fill:#fef201"/><circle cx="37.47" cy="178.35" r="1" style="fill:#fef201"/><circle cx="37.47" cy="191.4" r="1" style="fill:#fef201"/><circle cx="37.47" cy="204.44" r="1" style="fill:#fef201"/><path d="M44.82,4.11a1,1,0,1,0-1-1A1,1,0,0,0,44.82,4.11Z" style="fill:#fef201"/><path d="M44.85,15.15a1,1,0,1,0,0,2,1,1,0,0,0,1-1A1,1,0,0,0,44.85,15.15Z" style="fill:#fef201"/><path d="M44.89,28.2a1,1,0,0,0,0,2,1,1,0,0,0,1-1A1,1,0,0,0,44.89,28.2Z" style="fill:#fef201"/><path d="M44.94,41.24a1,1,0,1,0,1,1A1,1,0,0,0,44.94,41.24Z" style="fill:#fef201"/><path d="M45,54.28a1,1,0,0,0-1,1,1,1,0,0,0,2,0A1,1,0,0,0,45,54.28Z" style="fill:#fef201"/><path d="M45,67.33a1,1,0,0,0-1,1,1,1,0,1,0,1-1Z" style="fill:#fef201"/><path d="M45.06,80.37a1,1,0,0,0-1,1,1,1,0,0,0,1,1,1,1,0,1,0,0-2Z" style="fill:#fef201"/><path d="M45.11,93.42a1,1,0,1,0,1,1A1,1,0,0,0,45.11,93.42Z" style="fill:#fef201"/><path d="M45.15,106.46a1,1,0,1,0,0,2,1,1,0,0,0,0-2Z" style="fill:#fef201"/><path d="M45.19,119.51a1,1,0,0,0-1,1,1,1,0,1,0,1-1Z" style="fill:#fef201"/><path d="M45.24,132.55a1,1,0,1,0,1,1A1,1,0,0,0,45.24,132.55Z" style="fill:#fef201"/><path d="M45.28,145.6a1,1,0,1,0,1,1A1,1,0,0,0,45.28,145.6Z" style="fill:#fef201"/><path d="M45.32,158.64a1,1,0,1,0,0,2,1,1,0,0,0,0-2Z" style="fill:#fef201"/><path d="M45.36,171.68a1,1,0,0,0-1,1,1,1,0,0,0,1,1,1,1,0,1,0,0-2Z" style="fill:#fef201"/><path d="M45.41,184.73a1,1,0,1,0,1,1A1,1,0,0,0,45.41,184.73Z" style="fill:#fef201"/><path d="M45.45,197.77a1,1,0,0,0-1,1,1,1,0,1,0,1-1Z" style="fill:#fef201"/><circle cx="53.8" cy="8.78" r="1" style="fill:#fef201"/><circle cx="53.8" cy="21.82" r="1" style="fill:#fef201"/><circle cx="53.8" cy="34.86" r="1" style="fill:#fef201"/><circle cx="53.8" cy="47.91" r="1" style="fill:#fef201"/><circle cx="53.8" cy="60.95" r="1" style="fill:#fef201"/><circle cx="53.8" cy="74" r="1" style="fill:#fef201"/><circle cx="53.8" cy="87.04" r="1" style="fill:#fef201"/><circle cx="53.8" cy="100.09" r="1" style="fill:#fef201"/><circle cx="53.8" cy="113.13" r="1" style="fill:#fef201"/><circle cx="53.8" cy="126.18" r="1" style="fill:#fef201"/><circle cx="53.8" cy="139.22" r="1" style="fill:#fef201"/><circle cx="53.8" cy="152.27" r="1" style="fill:#fef201"/><circle cx="53.8" cy="165.31" r="1" style="fill:#fef201"/><circle cx="53.8" cy="178.35" r="1" style="fill:#fef201"/><circle cx="53.8" cy="191.4" r="1" style="fill:#fef201"/><circle cx="53.8" cy="204.44" r="1" style="fill:#fef201"/><path d="M61.15,4.11a1,1,0,1,0,0-2,1,1,0,0,0-1,1A1,1,0,0,0,61.15,4.11Z" style="fill:#fef201"/><path d="M61.18,15.15a1,1,0,1,0,1,1A1,1,0,0,0,61.18,15.15Z" style="fill:#fef201"/><path d="M61.23,28.2a1,1,0,1,0,1,1A1,1,0,0,0,61.23,28.2Z" style="fill:#fef201"/><path d="M61.27,41.24a1,1,0,1,0,0,2,1,1,0,0,0,0-2Z" style="fill:#fef201"/><path d="M61.31,54.28a1,1,0,0,0-1,1,1,1,0,0,0,1,1,1,1,0,1,0,0-2Z" style="fill:#fef201"/><path d="M61.36,67.33a1,1,0,1,0,1,1A1,1,0,0,0,61.36,67.33Z" style="fill:#fef201"/><path d="M61.4,80.37a1,1,0,0,0-1,1,1,1,0,0,0,2,0A1,1,0,0,0,61.4,80.37Z" style="fill:#fef201"/><path d="M61.44,93.42a1,1,0,1,0,0,2,1,1,0,0,0,0-2Z" style="fill:#fef201"/><path d="M61.48,106.46a1,1,0,0,0,0,2,1,1,0,1,0,0-2Z" style="fill:#fef201"/><path d="M61.53,119.51a1,1,0,0,0,0,2,1,1,0,0,0,1-1A1,1,0,0,0,61.53,119.51Z" style="fill:#fef201"/><path d="M61.57,132.55a1,1,0,1,0,1,1A1,1,0,0,0,61.57,132.55Z" style="fill:#fef201"/><path d="M61.61,145.6a1,1,0,0,0-1,1,1,1,0,0,0,1,1,1,1,0,0,0,1-1A1,1,0,0,0,61.61,145.6Z" style="fill:#fef201"/><path d="M61.65,158.64a1,1,0,1,0,1,1A1,1,0,0,0,61.65,158.64Z" style="fill:#fef201"/><path d="M61.7,171.68a1,1,0,0,0-1,1,1,1,0,0,0,2,0A1,1,0,0,0,61.7,171.68Z" style="fill:#fef201"/><path d="M61.74,184.73a1,1,0,1,0,1,1A1,1,0,0,0,61.74,184.73Z" style="fill:#fef201"/><path d="M61.78,197.77a1,1,0,1,0,0,2,1,1,0,0,0,1-1A1,1,0,0,0,61.78,197.77Z" style="fill:#fef201"/><circle cx="70.13" cy="8.78" r="1" style="fill:#fef201"/><circle cx="70.13" cy="21.82" r="1" style="fill:#fef201"/><circle cx="70.13" cy="34.86" r="1" style="fill:#fef201"/><circle cx="70.13" cy="47.91" r="1" style="fill:#fef201"/><circle cx="70.13" cy="60.95" r="1" style="fill:#fef201"/><circle cx="70.13" cy="74" r="1" style="fill:#fef201"/><circle cx="70.13" cy="87.04" r="1" style="fill:#fef201"/><circle cx="70.13" cy="100.09" r="1" style="fill:#fef201"/><circle cx="70.13" cy="113.13" r="1" style="fill:#fef201"/><circle cx="70.13" cy="126.18" r="1" style="fill:#fef201"/><circle cx="70.13" cy="139.22" r="1" style="fill:#fef201"/><circle cx="70.13" cy="152.27" r="1" style="fill:#fef201"/><circle cx="70.13" cy="165.31" r="1" style="fill:#fef201"/><circle cx="70.13" cy="178.35" r="1" style="fill:#fef201"/><circle cx="70.13" cy="191.4" r="1" style="fill:#fef201"/><circle cx="70.13" cy="204.44" r="1" style="fill:#fef201"/><path d="M77.48,4.11a1,1,0,0,0,1-1,1,1,0,1,0-1,1Z" style="fill:#fef201"/><path d="M77.52,15.15a1,1,0,0,0-1,1,1,1,0,1,0,1-1Z" style="fill:#fef201"/><path d="M77.56,28.2a1,1,0,0,0-1,1,1,1,0,0,0,1,1,1,1,0,0,0,0-2Z" style="fill:#fef201"/><path d="M77.6,41.24a1,1,0,0,0,0,2,1,1,0,1,0,0-2Z" style="fill:#fef201"/><path d="M77.65,54.28a1,1,0,0,0-1,1,1,1,0,0,0,1,1,1,1,0,0,0,0-2Z" style="fill:#fef201"/><path d="M77.69,67.33a1,1,0,1,0,1,1A1,1,0,0,0,77.69,67.33Z" style="fill:#fef201"/><path d="M77.73,80.37a1,1,0,1,0,0,2,1,1,0,0,0,1-1A1,1,0,0,0,77.73,80.37Z" style="fill:#fef201"/><path d="M77.77,93.42a1,1,0,0,0,0,2,1,1,0,1,0,0-2Z" style="fill:#fef201"/><path d="M77.82,106.46a1,1,0,1,0,1,1A1,1,0,0,0,77.82,106.46Z" style="fill:#fef201"/><path d="M77.86,119.51a1,1,0,1,0,1,1A1,1,0,0,0,77.86,119.51Z" style="fill:#fef201"/><path d="M77.9,132.55a1,1,0,1,0,1,1A1,1,0,0,0,77.9,132.55Z" style="fill:#fef201"/><path d="M77.94,145.6a1,1,0,0,0,0,2,1,1,0,0,0,1-1A1,1,0,0,0,77.94,145.6Z" style="fill:#fef201"/><path d="M78,158.64a1,1,0,1,0,1,1A1,1,0,0,0,78,158.64Z" style="fill:#fef201"/><path d="M78,171.68a1,1,0,0,0-1,1,1,1,0,0,0,2,0A1,1,0,0,0,78,171.68Z" style="fill:#fef201"/><path d="M78.07,184.73a1,1,0,0,0-1,1,1,1,0,1,0,1-1Z" style="fill:#fef201"/><path d="M78.11,197.77a1,1,0,1,0,1,1A1,1,0,0,0,78.11,197.77Z" style="fill:#fef201"/><circle cx="86.47" cy="8.78" r="1" style="fill:#fef201"/><circle cx="86.47" cy="21.82" r="1" style="fill:#fef201"/><circle cx="86.47" cy="34.86" r="1" style="fill:#fef201"/><circle cx="86.47" cy="47.91" r="1" style="fill:#fef201"/><circle cx="86.47" cy="60.95" r="1" style="fill:#fef201"/><circle cx="86.47" cy="74" r="1" style="fill:#fef201"/><circle cx="86.47" cy="87.04" r="1" style="fill:#fef201"/><circle cx="86.47" cy="100.09" r="1" style="fill:#fef201"/><circle cx="86.47" cy="113.13" r="1" style="fill:#fef201"/><circle cx="86.47" cy="126.18" r="1" style="fill:#fef201"/><circle cx="86.47" cy="139.22" r="1" style="fill:#fef201"/><circle cx="86.47" cy="152.27" r="1" style="fill:#fef201"/><circle cx="86.47" cy="165.31" r="1" style="fill:#fef201"/><circle cx="86.47" cy="178.35" r="1" style="fill:#fef201"/><circle cx="86.47" cy="191.4" r="1" style="fill:#fef201"/><circle cx="86.47" cy="204.44" r="1" style="fill:#fef201"/><path d="M93.82,4.11a1,1,0,1,0-1-1A1,1,0,0,0,93.82,4.11Z" style="fill:#fef201"/><path d="M93.85,15.15a1,1,0,1,0,0,2,1,1,0,0,0,1-1A1,1,0,0,0,93.85,15.15Z" style="fill:#fef201"/><path d="M93.89,28.2a1,1,0,0,0,0,2,1,1,0,0,0,1-1A1,1,0,0,0,93.89,28.2Z" style="fill:#fef201"/><path d="M93.94,41.24a1,1,0,1,0,1,1A1,1,0,0,0,93.94,41.24Z" style="fill:#fef201"/><path d="M94,54.28a1,1,0,0,0-1,1,1,1,0,0,0,2,0A1,1,0,0,0,94,54.28Z" style="fill:#fef201"/><path d="M94,67.33a1,1,0,0,0-1,1,1,1,0,1,0,1-1Z" style="fill:#fef201"/><path d="M94.06,80.37a1,1,0,0,0-1,1,1,1,0,0,0,1,1,1,1,0,1,0,0-2Z" style="fill:#fef201"/><path d="M94.11,93.42a1,1,0,1,0,1,1A1,1,0,0,0,94.11,93.42Z" style="fill:#fef201"/><path d="M94.15,106.46a1,1,0,1,0,0,2,1,1,0,0,0,0-2Z" style="fill:#fef201"/><path d="M94.19,119.51a1,1,0,0,0-1,1,1,1,0,1,0,1-1Z" style="fill:#fef201"/><path d="M94.24,132.55a1,1,0,1,0,1,1A1,1,0,0,0,94.24,132.55Z" style="fill:#fef201"/><path d="M94.28,145.6a1,1,0,1,0,1,1A1,1,0,0,0,94.28,145.6Z" style="fill:#fef201"/><path d="M94.32,158.64a1,1,0,1,0,0,2,1,1,0,0,0,0-2Z" style="fill:#fef201"/><path d="M94.36,171.68a1,1,0,0,0-1,1,1,1,0,0,0,1,1,1,1,0,1,0,0-2Z" style="fill:#fef201"/><path d="M94.41,184.73a1,1,0,1,0,1,1A1,1,0,0,0,94.41,184.73Z" style="fill:#fef201"/><path d="M94.45,197.77a1,1,0,0,0-1,1,1,1,0,1,0,1-1Z" style="fill:#fef201"/><circle cx="102.8" cy="8.78" r="1" style="fill:#fef201"/><circle cx="102.8" cy="21.82" r="1" style="fill:#fef201"/><circle cx="102.8" cy="34.86" r="1" style="fill:#fef201"/><circle cx="102.8" cy="47.91" r="1" style="fill:#fef201"/><circle cx="102.8" cy="60.95" r="1" style="fill:#fef201"/><circle cx="102.8" cy="74" r="1" style="fill:#fef201"/><circle cx="102.8" cy="87.04" r="1" style="fill:#fef201"/><circle cx="102.8" cy="100.09" r="1" style="fill:#fef201"/><circle cx="102.8" cy="113.13" r="1" style="fill:#fef201"/><circle cx="102.8" cy="126.18" r="1" style="fill:#fef201"/><circle cx="102.8" cy="139.22" r="1" style="fill:#fef201"/><circle cx="102.8" cy="152.27" r="1" style="fill:#fef201"/><circle cx="102.8" cy="165.31" r="1" style="fill:#fef201"/><circle cx="102.8" cy="178.35" r="1" style="fill:#fef201"/><circle cx="102.8" cy="191.4" r="1" style="fill:#fef201"/><circle cx="102.8" cy="204.44" r="1" style="fill:#fef201"/><path d="M110.15,4.11a1,1,0,1,0,0-2,1,1,0,0,0-1,1A1,1,0,0,0,110.15,4.11Z" style="fill:#fef201"/><path d="M110.18,15.15a1,1,0,1,0,1,1A1,1,0,0,0,110.18,15.15Z" style="fill:#fef201"/><path d="M110.23,28.2a1,1,0,1,0,1,1A1,1,0,0,0,110.23,28.2Z" style="fill:#fef201"/><path d="M110.27,41.24a1,1,0,1,0,0,2,1,1,0,0,0,0-2Z" style="fill:#fef201"/><path d="M110.31,54.28a1,1,0,0,0-1,1,1,1,0,0,0,1,1,1,1,0,1,0,0-2Z" style="fill:#fef201"/><path d="M110.36,67.33a1,1,0,1,0,1,1A1,1,0,0,0,110.36,67.33Z" style="fill:#fef201"/><path d="M110.4,80.37a1,1,0,0,0-1,1,1,1,0,0,0,2,0A1,1,0,0,0,110.4,80.37Z" style="fill:#fef201"/><path d="M110.44,93.42a1,1,0,1,0,0,2,1,1,0,0,0,0-2Z" style="fill:#fef201"/><path d="M110.48,106.46a1,1,0,0,0,0,2,1,1,0,1,0,0-2Z" style="fill:#fef201"/><path d="M110.53,119.51a1,1,0,0,0,0,2,1,1,0,0,0,1-1A1,1,0,0,0,110.53,119.51Z" style="fill:#fef201"/><path d="M110.57,132.55a1,1,0,1,0,1,1A1,1,0,0,0,110.57,132.55Z" style="fill:#fef201"/><path d="M110.61,145.6a1,1,0,0,0-1,1,1,1,0,0,0,1,1,1,1,0,0,0,1-1A1,1,0,0,0,110.61,145.6Z" style="fill:#fef201"/><path d="M110.65,158.64a1,1,0,1,0,1,1A1,1,0,0,0,110.65,158.64Z" style="fill:#fef201"/><path d="M110.7,171.68a1,1,0,0,0-1,1,1,1,0,0,0,2,0A1,1,0,0,0,110.7,171.68Z" style="fill:#fef201"/><path d="M110.74,184.73a1,1,0,1,0,1,1A1,1,0,0,0,110.74,184.73Z" style="fill:#fef201"/><path d="M110.78,197.77a1,1,0,1,0,0,2,1,1,0,0,0,1-1A1,1,0,0,0,110.78,197.77Z" style="fill:#fef201"/><circle cx="119.13" cy="8.78" r="1" style="fill:#fef201"/><circle cx="119.13" cy="21.82" r="1" style="fill:#fef201"/><circle cx="119.13" cy="34.86" r="1" style="fill:#fef201"/><circle cx="119.13" cy="47.91" r="1" style="fill:#fef201"/><circle cx="119.13" cy="60.95" r="1" style="fill:#fef201"/><circle cx="119.13" cy="74" r="1" style="fill:#fef201"/><circle cx="119.13" cy="87.04" r="1" style="fill:#fef201"/><circle cx="119.13" cy="100.09" r="1" style="fill:#fef201"/><circle cx="119.13" cy="113.13" r="1" style="fill:#fef201"/><circle cx="119.13" cy="126.18" r="1" style="fill:#fef201"/><circle cx="119.13" cy="139.22" r="1" style="fill:#fef201"/><circle cx="119.13" cy="152.27" r="1" style="fill:#fef201"/><circle cx="119.13" cy="165.31" r="1" style="fill:#fef201"/><circle cx="119.13" cy="178.35" r="1" style="fill:#fef201"/><circle cx="119.13" cy="191.4" r="1" style="fill:#fef201"/><circle cx="119.13" cy="204.44" r="1" style="fill:#fef201"/><path d="M126.48,4.11a1,1,0,0,0,1-1,1,1,0,1,0-1,1Z" style="fill:#fef201"/><path d="M126.52,15.15a1,1,0,0,0-1,1,1,1,0,1,0,1-1Z" style="fill:#fef201"/><path d="M126.56,28.2a1,1,0,0,0-1,1,1,1,0,0,0,1,1,1,1,0,0,0,0-2Z" style="fill:#fef201"/><path d="M126.6,41.24a1,1,0,0,0,0,2,1,1,0,1,0,0-2Z" style="fill:#fef201"/><path d="M126.65,54.28a1,1,0,0,0-1,1,1,1,0,0,0,1,1,1,1,0,0,0,0-2Z" style="fill:#fef201"/><path d="M126.69,67.33a1,1,0,1,0,1,1A1,1,0,0,0,126.69,67.33Z" style="fill:#fef201"/><path d="M126.73,80.37a1,1,0,1,0,0,2,1,1,0,0,0,1-1A1,1,0,0,0,126.73,80.37Z" style="fill:#fef201"/><path d="M126.77,93.42a1,1,0,0,0,0,2,1,1,0,1,0,0-2Z" style="fill:#fef201"/><path d="M126.82,106.46a1,1,0,1,0,1,1A1,1,0,0,0,126.82,106.46Z" style="fill:#fef201"/><path d="M126.86,119.51a1,1,0,1,0,1,1A1,1,0,0,0,126.86,119.51Z" style="fill:#fef201"/><path d="M126.9,132.55a1,1,0,1,0,1,1A1,1,0,0,0,126.9,132.55Z" style="fill:#fef201"/><path d="M126.94,145.6a1,1,0,0,0,0,2,1,1,0,0,0,1-1A1,1,0,0,0,126.94,145.6Z" style="fill:#fef201"/><path d="M127,158.64a1,1,0,1,0,1,1A1,1,0,0,0,127,158.64Z" style="fill:#fef201"/><path d="M127,171.68a1,1,0,0,0-1,1,1,1,0,0,0,2,0A1,1,0,0,0,127,171.68Z" style="fill:#fef201"/><path d="M127.07,184.73a1,1,0,0,0-1,1,1,1,0,1,0,1-1Z" style="fill:#fef201"/><path d="M127.11,197.77a1,1,0,1,0,1,1A1,1,0,0,0,127.11,197.77Z" style="fill:#fef201"/><circle cx="135.47" cy="8.78" r="1" style="fill:#fef201"/><circle cx="135.47" cy="21.82" r="1" style="fill:#fef201"/><circle cx="135.47" cy="34.86" r="1" style="fill:#fef201"/><circle cx="135.47" cy="47.91" r="1" style="fill:#fef201"/><circle cx="135.47" cy="60.95" r="1" style="fill:#fef201"/><circle cx="135.47" cy="74" r="1" style="fill:#fef201"/><circle cx="135.47" cy="87.04" r="1" style="fill:#fef201"/><circle cx="135.47" cy="100.09" r="1" style="fill:#fef201"/><circle cx="135.47" cy="113.13" r="1" style="fill:#fef201"/><circle cx="135.47" cy="126.18" r="1" style="fill:#fef201"/><circle cx="135.47" cy="139.22" r="1" style="fill:#fef201"/><circle cx="135.47" cy="152.27" r="1" style="fill:#fef201"/><circle cx="135.47" cy="165.31" r="1" style="fill:#fef201"/><circle cx="135.47" cy="178.35" r="1" style="fill:#fef201"/><circle cx="135.47" cy="191.4" r="1" style="fill:#fef201"/><circle cx="135.47" cy="204.44" r="1" style="fill:#fef201"/><path d="M142.82,4.11a1,1,0,1,0-1-1A1,1,0,0,0,142.82,4.11Z" style="fill:#fef201"/><path d="M142.85,15.15a1,1,0,1,0,0,2,1,1,0,0,0,1-1A1,1,0,0,0,142.85,15.15Z" style="fill:#fef201"/><path d="M142.89,28.2a1,1,0,0,0,0,2,1,1,0,0,0,1-1A1,1,0,0,0,142.89,28.2Z" style="fill:#fef201"/><path d="M142.94,41.24a1,1,0,1,0,1,1A1,1,0,0,0,142.94,41.24Z" style="fill:#fef201"/><path d="M143,54.28a1,1,0,0,0-1,1,1,1,0,0,0,2,0A1,1,0,0,0,143,54.28Z" style="fill:#fef201"/><path d="M143,67.33a1,1,0,0,0-1,1,1,1,0,1,0,1-1Z" style="fill:#fef201"/><path d="M143.06,80.37a1,1,0,0,0-1,1,1,1,0,0,0,1,1,1,1,0,1,0,0-2Z" style="fill:#fef201"/><path d="M143.11,93.42a1,1,0,1,0,1,1A1,1,0,0,0,143.11,93.42Z" style="fill:#fef201"/><path d="M143.15,106.46a1,1,0,1,0,0,2,1,1,0,0,0,0-2Z" style="fill:#fef201"/><path d="M143.19,119.51a1,1,0,0,0-1,1,1,1,0,1,0,1-1Z" style="fill:#fef201"/><path d="M143.24,132.55a1,1,0,1,0,1,1A1,1,0,0,0,143.24,132.55Z" style="fill:#fef201"/><path d="M143.28,145.6a1,1,0,1,0,1,1A1,1,0,0,0,143.28,145.6Z" style="fill:#fef201"/><path d="M143.32,158.64a1,1,0,1,0,0,2,1,1,0,0,0,0-2Z" style="fill:#fef201"/><path d="M143.36,171.68a1,1,0,0,0-1,1,1,1,0,0,0,1,1,1,1,0,1,0,0-2Z" style="fill:#fef201"/><path d="M143.41,184.73a1,1,0,1,0,1,1A1,1,0,0,0,143.41,184.73Z" style="fill:#fef201"/><path d="M143.45,197.77a1,1,0,0,0-1,1,1,1,0,1,0,1-1Z" style="fill:#fef201"/></g></g><g style="opacity:0.45"><path d="M134.5,59V53.19h5V59Zm5-11.63V41.56h-5v5.82Zm-10.8,17.45h5.82V59h-5.82ZM26.59,165.45h5.82v-4.93H26.59ZM20.78,154.7v5.82h5.81V154.7ZM134.5,64.83v5.82h-5.82V64.83h-5.82v5.82h-5.81V64.83h5.81V59h5.82V53.19h5.82V47.38h-5.82V41.56h-5.82v5.82h-5.81V41.56h5.81v-3.3H12.28V165.45h8.5v-4.93H15V154.7h5.82v-5.82H15v-5.81h5.82v5.81h5.81v5.82h5.82v5.82h5.82v4.93H44v-4.93h5.82v4.93h89.62V64.83Zm0-26.57h-5.82v3.3h5.82Z" style="fill:#00158e;opacity:0.2"/><rect x="48.67" y="167.14" width="5.82" height="5.82" style="fill:gold"/><rect x="36.25" y="168.47" width="5.82" height="5.82" style="fill:gold"/><rect x="3.53" y="169.1" width="5.82" height="5.82" style="fill:gold"/><rect x="30.16" y="162.12" width="5.82" height="5.82" style="fill:gold"/><rect x="16.53" y="171.74" width="5.82" height="5.82" style="fill:gold"/><rect x="12.34" y="162.58" width="5.82" height="5.82" style="fill:gold"/><rect x="7.14" y="146.83" width="5.82" height="5.82" style="fill:gold"/><rect x="8.7" y="156.09" width="5.82" height="5.82" style="fill:gold"/><polygon points="108.81 42.69 16.51 42.69 16.51 132.66 20.88 128.3 20.88 103.57 27.57 103.57 27.57 68.67 34.35 61.88 34.35 52 70.81 52 76.91 45.89 108.81 45.89 108.81 42.69" style="fill:#0751cf"/><rect x="138.67" y="84.38" width="1.94" height="29.47" style="fill:none"/><polygon points="58.64 170.71 143.28 170.71 143.28 99.16 142.69 99.16 142.69 170.13 58.64 170.13 58.64 170.71 58.64 170.71" style="fill:gold"/><rect x="17.29" y="36.58" width="3.39" height="2.71" style="fill:gold"/><rect x="24.66" y="36.58" width="3.39" height="2.71" style="fill:gold"/><rect x="32.03" y="36.58" width="3.39" height="2.71" style="fill:gold"/><rect x="39.39" y="36.58" width="3.39" height="2.71" style="fill:gold"/><rect x="46.76" y="36.58" width="3.39" height="2.71" style="fill:gold"/><rect x="54.13" y="36.58" width="3.39" height="2.71" style="fill:gold"/><rect x="61.5" y="36.58" width="3.39" height="2.71" style="fill:gold"/><rect x="135.42" y="75.75" width="1.45" height="9.31" style="fill:gold"/><rect x="135.42" y="100.03" width="1.45" height="61.37" style="fill:gold"/><polygon points="50.84 53.59 48.76 51.5 50.84 49.42 49.66 48.24 47.58 50.32 45.49 48.24 44.31 49.42 46.4 51.5 44.31 53.59 45.49 54.76 47.58 52.68 49.66 54.76 50.84 53.59" style="fill:gold"/><polygon points="59.56 53.59 57.48 51.5 59.56 49.42 58.38 48.24 56.3 50.32 54.22 48.24 53.04 49.42 55.12 51.5 53.04 53.59 54.22 54.76 56.3 52.68 58.38 54.76 59.56 53.59" style="fill:gold"/><polygon points="68.29 53.59 66.21 51.5 68.29 49.42 67.11 48.24 65.03 50.32 62.94 48.24 61.76 49.42 63.85 51.5 61.76 53.59 62.94 54.76 65.03 52.68 67.11 54.76 68.29 53.59" style="fill:gold"/><polygon points="77.02 53.59 74.93 51.5 77.02 49.42 75.84 48.24 73.75 50.32 71.67 48.24 70.49 49.42 72.57 51.5 70.49 53.59 71.67 54.76 73.75 52.68 75.84 54.76 77.02 53.59" style="fill:gold"/></g><path d="M89.37,35a2,2,0,1,0-2.19,2V48.2H84.13v.45h3.5V36.93A2,2,0,0,0,89.37,35Z" style="fill:#060a0f"/><polygon points="81.89 50.59 84.73 49.69 84.73 47.08 74.25 47.08 74.25 50.59 81.89 50.59" style="fill:#060a0f"/><path d="M53.38,35a2,2,0,1,1,2.18,2V48.2h3.06v.45h-3.5V36.93A2,2,0,0,1,53.38,35Z" style="fill:#060a0f"/><polygon points="60.85 50.59 58.02 49.69 58.02 47.08 68.49 47.08 68.49 50.59 60.85 50.59" style="fill:#060a0f"/><rect x="61.4" y="50.26" width="20.82" height="17.26" style="fill:#54161d"/><path d="M48.74,121.5,46,120.41a4.33,4.33,0,0,1-2.28-5.67l3.76-9.51.84.33-3.76,9.52a3.39,3.39,0,0,0,1.79,4.44l2.76,1.1Z" style="fill:#100000"/><path d="M94.87,121.46l2.76-1.1a4.33,4.33,0,0,0,2.29-5.66l-3.77-9.51-.84.33L99.07,115a3.39,3.39,0,0,1-1.79,4.45l-2.76,1.09Z" style="fill:#100000"/><path d="M75.85,115.69h3A4.33,4.33,0,0,0,83,111.26V101h-.9v10.23a3.4,3.4,0,0,1-3.31,3.47h-3Z" style="fill:#100000"/><path d="M67.58,115.69h-3a4.33,4.33,0,0,1-4.21-4.43V101h.91v10.23a3.39,3.39,0,0,0,3.3,3.47h3Z" style="fill:#220009"/><polygon points="96.12 92 96.12 103.73 91.62 103.73 89.12 92.78 96.12 92" style="fill:#232624"/><rect x="92.36" y="106.35" width="3.05" height="13.93" transform="translate(187.76 226.64) rotate(180)" style="fill:#323432"/><path d="M94.92,112.39l-2.55.12a1,1,0,0,0-1,1.15l1.39,10.56,2.59-.12L96,113.47A1,1,0,0,0,94.92,112.39Z" style="fill:#390310"/><rect x="91.99" y="123.56" width="4.58" height="5.39" transform="translate(194.32 248.01) rotate(177.34)" style="fill:#90928d"/><path d="M94.44,129a4.22,4.22,0,0,0,0,.73,1.25,1.25,0,0,0,.64,1c.76.42,2,1.7,2.41,5.57a.35.35,0,0,0,.37.32h0a.67.67,0,0,0,.65-.71l-.24-5.2a1,1,0,0,0-.33-.7l-1.25-1.14Z" style="fill:#aeb1b0"/><path d="M94.61,128.94a3.19,3.19,0,0,1,.08.73,1.24,1.24,0,0,1-.61,1.08c-.81.49-2.13,1.89-2.15,5.78a.38.38,0,0,1-.38.36h0a.72.72,0,0,1-.79-.65l-.25-5.2a1,1,0,0,1,.3-.73l1.28-1.25Z" style="fill:#9a9f9a"/><path d="M90.93,108.53l2.4,1.94a2.14,2.14,0,0,0,3.5-1.66v-5.08h-5.9Z" style="fill:#220009"/><polygon points="46.94 92.04 46.94 103.77 51.44 103.77 53.94 92.82 46.94 92.04" style="fill:#232624"/><rect x="47.66" y="106.4" width="3.05" height="13.93" style="fill:#323432"/><path d="M48.15,112.44l2.54.12a1,1,0,0,1,1,1.15l-1.39,10.56-2.59-.12-.59-10.64A1,1,0,0,1,48.15,112.44Z" style="fill:#590512"/><rect x="46.49" y="123.6" width="4.58" height="5.39" transform="translate(5.91 -2.12) rotate(2.66)" style="fill:#90928d"/><path d="M48.62,129a3.4,3.4,0,0,1,0,.73,1.26,1.26,0,0,1-.64,1c-.76.42-2,1.69-2.41,5.56a.36.36,0,0,1-.37.33h0a.68.68,0,0,1-.65-.71l.24-5.2a1,1,0,0,1,.33-.7l1.25-1.14Z" style="fill:#aeb1b0"/><path d="M48.45,129a2.73,2.73,0,0,0-.07.72A1.23,1.23,0,0,0,49,130.8c.8.49,2.12,1.88,2.14,5.77a.39.39,0,0,0,.39.36h0a.72.72,0,0,0,.79-.64l.24-5.2a1,1,0,0,0-.3-.73L51,129.1Z" style="fill:#9a9f9a"/><path d="M52.13,108.57l-2.4,2a2.15,2.15,0,0,1-3.5-1.67v-5.08h5.9Z" style="fill:#220009"/><path d="M64,65.14c-2-3.08-3.93-4.59-5.85-4.48-3,.17-5,4.19-5,4.23l-.86-.41c.09-.19,2.26-4.57,5.79-4.77,2.28-.13,4.54,1.53,6.7,4.92Z"/><path d="M55.4,66.32l-.92-.25c0-.14.91-3.25,3.07-3.7,1.39-.28,2.9.59,4.51,2.6l-.75.6c-1.34-1.68-2.57-2.47-3.56-2.26C56.43,63.58,55.61,65.57,55.4,66.32Z"/><path d="M79.25,65.14c2-3.08,3.93-4.59,5.85-4.48,3,.17,5,4.19,5,4.23l.86-.41c-.09-.19-2.26-4.57-5.79-4.77-2.28-.13-4.54,1.53-6.7,4.92Z"/><path d="M87.84,66.32l.92-.25c0-.14-.91-3.25-3.07-3.7-1.39-.28-2.9.59-4.51,2.6l.75.6c1.34-1.68,2.57-2.47,3.56-2.26C86.81,63.58,87.63,65.57,87.84,66.32Z"/><polygon points="69.01 118.71 71.62 116.17 71.62 105.91 65.51 108.77 69.01 118.71" style="fill:#1d0007"/><polygon points="55.49 166.59 52.77 168.44 52.77 174.32 68.92 174.32 68.92 162.55 60.9 154.53 55.49 166.59"/><path d="M64.06,110s2.63,6.34-1.74,9.1c0,0-5,1.93-3.33,18.75l9.93-9.94V106.29l-3.41-2.19Z" style="fill:#220009"/><polygon points="58.99 151.29 55.49 154.78 55.49 166.59 61.59 160.49 68.92 162.89 68.92 147.08 63.17 141.87 58.99 151.29" style="fill:#200008"/><path d="M59,137.84v13.45l1.66-1.67a5.71,5.71,0,0,1,7.7-.33l.57.48V127.9Z" style="fill:#590512"/><polygon points="52.73 79.56 57.16 87.64 71.62 87.64 71.62 83.21 60.19 74.74 52.73 79.56" style="fill:#791d25"/><polygon points="57.16 87.64 62.18 110.05 67.25 109.6 71.62 105.91 71.62 87.64 57.16 87.64" style="fill:#590512"/><path d="M58.08,69A5,5,0,0,0,59,67.58a5.35,5.35,0,0,1,4.08-3l8.58-1.21V83.21H62.54l-6.58-5Z" style="fill:#c66665"/><path d="M56.15,84.44l1,.62a69.86,69.86,0,0,0-5.1,18.66H49.82V87.1a2.94,2.94,0,0,1,2.94-2.94h1.49Z" style="fill:#c66665"/><path d="M48.28,80.13l-1.75,6.69a6,6,0,0,0,2.2,6.31l1.09.81,3.67-9.78-1.93-4Z" style="fill:#954145"/><path d="M49.82,80.13l2.63,6.16,3.7-1.85s-1-2.84-.64-4.31Z" style="fill:#b65858"/><path d="M48.28,80.13h0a39.82,39.82,0,0,0-.23-4.23c-.34-3-.65-9.16,1.85-12a1.56,1.56,0,0,1,2-.25l5.19,3.54A2.21,2.21,0,0,1,58,69.5L55.51,80.13Z" style="fill:#220009"/><polyline points="55.96 78.23 56.36 76.54 63.06 81.85 71.62 81.85 71.62 83.21 62.54 83.21 55.92 78.38" style="fill:#f38d30"/><polygon points="74.23 118.71 71.62 116.17 71.62 105.91 77.73 108.77 74.23 118.71"/><polygon points="87.75 166.59 90.47 168.44 90.47 174.32 74.32 174.32 74.32 162.55 82.34 154.53 87.75 166.59"/><path d="M79.18,110s-2.63,6.34,1.75,9.1c0,0,5,1.93,3.32,18.75l-9.93-9.94V106.29l3.41-2.19Z" style="fill:#100000"/><polygon points="84.25 151.29 87.75 154.78 87.75 166.59 81.65 160.49 74.32 162.89 74.32 147.08 80.07 141.87 84.25 151.29" style="fill:#010000"/><path d="M84.25,137.84v13.45l-1.66-1.67a5.71,5.71,0,0,0-7.7-.33l-.57.48V127.9Z" style="fill:#390310"/><polygon points="90.51 79.56 86.08 87.64 71.62 87.64 71.62 83.21 83.05 74.74 90.51 79.56" style="fill:#560515"/><polygon points="86.08 87.64 81.06 110.05 75.99 109.6 71.62 105.91 71.62 87.64 86.08 87.64" style="fill:#34000c"/><path d="M85.16,69a5,5,0,0,1-.88-1.45,5.35,5.35,0,0,0-4.08-3l-8.58-1.21V83.21H80.7l6.58-5Z" style="fill:#b35a5b"/><path d="M87.09,84.44l-1,.62a69.86,69.86,0,0,1,5.1,18.66h2.24V87.1a2.94,2.94,0,0,0-2.94-2.94H89Z" style="fill:#c66665"/><path d="M95,80.13l1.75,6.69a6,6,0,0,1-2.2,6.31l-1.09.81-3.67-9.78,1.93-4Z" style="fill:#954145"/><path d="M93.42,80.13l-2.63,6.16-3.7-1.85s1-2.84.64-4.31Z" style="fill:#b65858"/><path d="M95,80.13h0a39.82,39.82,0,0,1,.23-4.23c.34-3,.65-9.16-1.85-12a1.56,1.56,0,0,0-2-.25l-5.19,3.54a2.21,2.21,0,0,0-.9,2.33l2.51,10.63Z" style="fill:#0c0000"/><polyline points="87.28 78.23 86.88 76.54 80.18 81.85 71.62 81.85 71.62 83.21 80.7 83.21 87.31 78.38" style="fill:#b56527"/><polygon points="60.88 88.94 60.88 91.71 71.76 102.52 71.76 91.71 71.76 88.94 60.88 88.94" style="fill:#323432"/><polygon points="82.56 88.93 82.56 91.7 71.76 102.51 71.76 91.7 71.76 88.93 82.56 88.93" style="fill:#1f2321"/><polygon points="71.81 76.03 71.83 76.03 80.72 76.03 80.72 77.54 71.81 77.54 71.81 76.03" style="fill:#430013"/><path d="M60.82,77.54h11V93.42L62.92,90.6V89C65.85,87,60.82,77.54,60.82,77.54Z" style="fill:#901c27"/><path d="M62.89,76H61.32V72.71a25.58,25.58,0,0,1,10.49-4.32V76Z" style="fill:#901c27"/><polygon points="71.81 76.03 71.78 76.03 62.89 76.03 62.89 77.54 71.81 77.54 71.81 76.03" style="fill:#6d0c1a"/><path d="M82.73,77.54h-11V93.42l8.87-2.82V89C77.71,87,82.73,77.54,82.73,77.54Z" style="fill:#6d0c1a"/><path d="M80.72,76h1.57V72.71a25.58,25.58,0,0,0-10.48-4.32V76Z" style="fill:#6d0c1a"/><polygon points="67.35 56.63 61.1 66.32 71.62 66.32 71.62 58.44 67.35 56.63" style="fill:#791d25"/><path d="M71.8,61.08s-4,.91-4.51-1.82a6.83,6.83,0,0,0-.63-2c-.85-1.65-2.56-4.52-4.84-6,0,0-1-1.09.09-1.8a2.45,2.45,0,0,0,1-1.23,3.08,3.08,0,0,0-.56-3s-2.57-5.32,9-4.59h.44Z" style="fill:#944246"/><polygon points="76.66 57.76 82.14 66.32 71.62 66.32 71.62 58.44 76.66 57.76" style="fill:#600d18"/><path d="M71.62,61.08s4.12.91,4.59-1.82a6.56,6.56,0,0,1,.64-2c.87-1.65,2.6-4.52,4.92-6,0,0,1-1.09-.09-1.8a2.42,2.42,0,0,1-1-1.23,3,3,0,0,1,.56-3s2.62-5.32-9.17-4.59h-.45Z" style="fill:#672028"/><path d="M53.94,130.17H62v11.7l-6.53-2.08v-1.2C57.65,137.17,53.94,130.17,53.94,130.17Z" style="fill:#901c27"/><polygon points="62.02 136.93 68.92 132.72 68.92 127.9 62.02 134.8 62.02 136.93" style="fill:#590512"/><path d="M89.3,129.77H81.22v11.7l6.54-2.08v-1.2C85.59,136.77,89.3,129.77,89.3,129.77Z" style="fill:#771021"/><polygon points="81.22 136.53 74.32 132.31 74.32 127.5 81.22 134.4 81.22 136.53" style="fill:#35000e"/><rect x="68.2" y="45.53" width="1.18" height="5.88" style="fill:#672028"/><rect x="73.89" y="45.53" width="1.18" height="5.88" style="fill:#4f131b"/></g></g></g></svg>