<svg xmlns="http://www.w3.org/2000/svg" xmlns:xlink="http://www.w3.org/1999/xlink" viewBox="0 0 148.25 207.55"><defs><linearGradient id="Degradado_sin_nombre_6" x1="-14.83" y1="192.72" x2="163.07" y2="14.83" gradientUnits="userSpaceOnUse"><stop offset="0" stop-color="aqua"/><stop offset="1" stop-color="blue"/></linearGradient></defs><title>Asset 166</title><g id="Layer_2" data-name="Layer 2"><g id="Layer_3" data-name="Layer 3"><rect width="148.25" height="207.55" style="fill:url(#Degradado_sin_nombre_6)"/><g style="opacity:0.45"><polygon points="54.43 42.85 21.09 46.95 17.61 79.66 54.43 42.85" style="fill:#00158e"/><polygon points="140.05 131.08 120.65 34.7 59.37 42.24 17.1 84.51 8.84 162.22 114.89 156.24 140.05 131.08" style="fill:#00158e;opacity:0.2"/><polygon points="119.48 155.98 144.78 154.56 140.78 134.68 119.48 155.98" style="fill:#00158e"/><path d="M132.05,52.21H116.54V48.58h15.51Zm-14.94-.57h14.36V49.15H117.11Z" style="fill:#0751cf"/><path d="M21,146.8H4v-2.49H21Zm-16.46-.57H20.42v-1.34H4.53Z" style="fill:#0751cf"/><path d="M46.27,163.65h-6.7V153.5h6.7Zm-6.13-.57h5.55v-9H40.14Z" style="fill:#0751cf"/><path d="M136.64,92h-8.23V83.81h8.23ZM129,91.47h7.09V84.38H129Z" style="fill:gold"/><path d="M24.92,58.72H12.57v-2H24.92Zm-11.78-.57h11.2v-.86H13.14Z" style="fill:gold"/><rect x="36.41" y="156.28" width="0.96" height="6.32" style="fill:gold"/><rect x="136.16" y="105.35" width="1.34" height="22.02" style="fill:gold"/><rect x="96.15" y="33.74" width="1.53" height="8.81" style="fill:gold"/><rect x="10.17" y="141.54" width="8.81" height="0.96" style="fill:gold"/><rect x="136.16" y="149.96" width="2.49" height="9.57" style="fill:gold"/><rect x="9.91" y="96.29" width="3.69" height="3.7" transform="translate(72.82 20.41) rotate(44.98)" style="fill:gold"/><rect x="17.53" y="96.28" width="3.69" height="3.7" transform="translate(75.04 15.02) rotate(44.98)" style="fill:gold"/><rect x="25.16" y="96.27" width="3.69" height="3.7" transform="translate(77.27 9.63) rotate(44.98)" style="fill:gold"/><rect x="32.78" y="96.26" width="3.69" height="3.7" transform="translate(79.49 4.24) rotate(44.98)" style="fill:gold"/><rect x="40.4" y="96.25" width="3.69" height="3.7" transform="translate(81.71 -1.15) rotate(44.98)" style="fill:gold"/><rect x="48.03" y="96.24" width="3.69" height="3.7" transform="translate(83.94 -6.55) rotate(44.98)" style="fill:gold"/><rect x="63.6" y="36.99" width="17.81" height="6.13" style="fill:gold"/><rect x="88.49" y="153.02" width="5.74" height="9.19" style="fill:gold"/><rect x="128.12" y="61.5" width="3.26" height="17.04" style="fill:gold"/><polygon points="126.59 139.72 126.59 129.04 124.66 130.97 124.66 137.79 117.85 137.79 115.92 139.72 126.59 139.72" style="fill:#0751cf"/><polygon points="114.1 127.11 114.1 137.79 116.03 135.85 116.03 129.04 122.85 129.04 124.78 127.11 114.1 127.11" style="fill:#0751cf"/></g><rect x="50.99" y="97.38" width="3.79" height="36.19" style="fill:#2a002d"/><rect x="78.55" y="97.38" width="3.79" height="36.19" style="fill:#2a002d"/><rect x="66.64" y="105.52" width="11.9" height="28.05" style="fill:#572832"/><rect x="54.69" y="105.52" width="11.9" height="28.05" style="fill:#693840"/><polygon points="48.86 96.29 48.86 110.86 55.39 108.84 66.66 108.84 66.66 96.29 48.86 96.29" style="fill:#c66665"/><path d="M48.86,62.43s1.42-19.81,17.8-19.26v5.7L57,68.51Z" style="fill:#23849b"/><rect x="48.86" y="62.43" width="17.8" height="33.87" style="fill:#90619c"/><path d="M42.55,70.09l-.45-.22,1.7-3.48a3.53,3.53,0,0,1,3.14-2h1.92v.5H46.94a3,3,0,0,0-2.69,1.68Z" style="fill:#451b46"/><path d="M40.42,85h-.78a3.55,3.55,0,0,1-3.55-3.55V75.3a3.56,3.56,0,0,1,3.55-3.56h3.24v.64H39.64a2.92,2.92,0,0,0-2.92,2.92v6.19a2.92,2.92,0,0,0,2.92,2.92h.78Z" style="fill:#451b46"/><path d="M45.6,72.06a2.73,2.73,0,1,1-2.72-2.72A2.72,2.72,0,0,1,45.6,72.06Z" style="fill:#6d5796"/><path d="M41.69,85.18s7.17.72,7.17,0V66.47H45.28L40.42,78.09V85.5Z" style="fill:#806bac"/><path d="M48.86,84.72H39.24s-5.09,3.91,4.08,12V120h5.54V84.72Z" style="fill:#451b46"/><polygon points="37.86 87.51 37.86 83.45 40.42 83.45 40.42 86.19 37.86 87.51" style="fill:#af7eb6"/><polygon points="40.42 86.19 48.86 86.19 48.86 89.02 37.83 89.02 37.83 87.51 40.42 86.19" style="fill:#bf8ebd"/><polygon points="37.86 83.45 40.42 80.94 40.42 83.45 37.86 83.45" style="fill:#9c63a6"/><rect x="47.14" y="84.72" width="1.73" height="4.3" style="fill:#111b16"/><polygon points="45.6 89.02 43.33 89.02 43.33 115.78 45.6 120 45.6 89.02" style="fill:#776b73"/><rect x="48" y="89.02" width="0.86" height="30.98" style="fill:#340a36"/><rect x="43.32" y="98.53" width="5.54" height="1.66" style="fill:#901c27"/><rect x="43.32" y="104.69" width="5.54" height="1.66" style="fill:#901c27"/><rect x="43.32" y="110.86" width="5.54" height="1.66" style="fill:#901c27"/><rect x="61.49" y="66.47" width="5.18" height="29.82" style="fill:#5d7292"/><polygon points="35.73 93.44 38.93 90.9 40.27 92.24 37.01 94.73 35.73 93.44" style="fill:#300635"/><polygon points="38 95.77 41.2 93.24 42.54 94.58 39.28 97.07 38 95.77" style="fill:#300635"/><rect x="29.41" y="96.01" width="4.33" height="9.78" transform="translate(84.8 9.55) rotate(47.61)" style="fill:#323432"/><path d="M26.67,102.56l3.46,1.09a1.45,1.45,0,0,1,.9,1.93l-5.74,14-3.52-1.1,3.05-14.83A1.45,1.45,0,0,1,26.67,102.56Z" style="fill:#cf7743"/><rect x="19.26" y="118.01" width="6.51" height="7.67" transform="translate(37.51 -1.15) rotate(17.42)" style="fill:#693840"/><path d="M21.32,125.49a5.26,5.26,0,0,1-.26,1,1.79,1.79,0,0,1-1.25,1.17c-1.19.3-3.43,1.59-5.33,6.78a.52.52,0,0,1-.63.31h0a1,1,0,0,1-.63-1.21l2.21-7.06a1.46,1.46,0,0,1,.71-.85l2.13-1.11Z" style="fill:#323432"/><path d="M21.09,125.42a4.17,4.17,0,0,0-.37,1,1.75,1.75,0,0,0,.45,1.71c.93,1,2.24,3.36.86,8.72a.54.54,0,0,0,.4.63h0a1,1,0,0,0,1.31-.59L26,129.79a1.33,1.33,0,0,0-.15-1.11l-1.3-2.19Z" style="fill:#111b16"/><path d="M35.73,102.78l-4.34-.65a3.05,3.05,0,0,1-1.61-5.27L35.11,92l5.66,6.19Z" style="fill:#901c27"/><rect x="66.66" y="133.57" width="8.95" height="21.44" style="fill:#111b16"/><polygon points="82.34 133.57 82.34 143.67 79.72 145.6 79.72 155.01 75.61 155.01 75.61 133.57 82.34 133.57" style="fill:#004a50"/><rect x="57.71" y="133.57" width="8.95" height="21.44" style="fill:#111b16"/><polygon points="50.99 133.57 50.99 143.67 53.6 145.6 53.6 155.01 57.71 155.01 57.71 133.57 50.99 133.57" style="fill:#105b65"/><rect x="58.6" y="134.65" width="16.67" height="2.15" style="fill:#252827"/><rect x="66.66" y="133.53" width="9.63" height="1.13" transform="translate(142.95 268.18) rotate(180)" style="fill:#86181a"/><rect x="74.72" y="134.65" width="1.57" height="18.86" transform="translate(151.02 288.17) rotate(180)" style="fill:#700f13"/><rect x="75.51" y="153.38" width="2.54" height="3.26" transform="translate(153.55 310.01) rotate(180)" style="fill:#7e1517"/><rect x="72.59" y="154.63" width="4.18" height="0.75" transform="translate(149.37 310.01) rotate(180)" style="fill:#1d1e22"/><rect x="72.09" y="151.53" width="1.38" height="6.96" transform="translate(145.56 310.01) rotate(180)" style="fill:#7e1517"/><path d="M77,154.32h1.06v1.4H77a.7.7,0,0,1,0-1.4Z" style="fill:#1d1e22"/><rect x="78.05" y="153.82" width="0.33" height="2.49" transform="translate(156.43 310.12) rotate(180)" style="fill:#1d1e22"/><rect x="75.31" y="153.52" width="0.31" height="3.12" transform="translate(150.92 310.15) rotate(180)" style="fill:#1d1e22"/><rect x="57.03" y="133.53" width="9.63" height="1.13" style="fill:#961b20"/><rect x="57.03" y="134.65" width="1.57" height="18.86" style="fill:#7e1517"/><rect x="55.28" y="153.38" width="2.54" height="3.26" style="fill:#7e1517"/><rect x="56.55" y="154.63" width="4.18" height="0.75" style="fill:#1d1e22"/><rect x="59.85" y="151.53" width="1.38" height="6.96" style="fill:#7e1517"/><path d="M56.33,154.32h-1v1.4h1a.7.7,0,1,0,0-1.4Z" style="fill:#1d1e22"/><rect x="54.94" y="153.82" width="0.33" height="2.49" style="fill:#1d1e22"/><rect x="57.71" y="153.52" width="0.31" height="3.12" style="fill:#1d1e22"/><polygon points="66.66 151.25 61.23 146.35 61.23 149.76 66.66 154.66 66.66 151.25" style="fill:#313832"/><path d="M66.66,147.84l-5-4.55a1.6,1.6,0,0,0-.39,1v2l5.43,4.9Z" style="fill:#111b16"/><polygon points="66.66 161.47 61.23 156.57 61.23 159.98 66.66 164.88 66.66 161.47" style="fill:#111b16"/><polygon points="66.66 158.07 61.23 153.16 61.23 156.57 66.66 161.47 66.66 158.07" style="fill:#313832"/><polygon points="66.66 154.66 61.23 149.76 61.23 153.16 66.66 158.07 66.66 154.66" style="fill:#111b16"/><polygon points="66.66 164.88 61.23 159.98 61.23 163.39 65.52 167.26 66.66 167.26 66.66 164.88" style="fill:#313832"/><path d="M61.23,165.55a1.81,1.81,0,0,0,1.89,1.71h2.4l-4.29-3.87Z" style="fill:#111b16"/><path d="M66.66,144.44l-2-1.83H63.12a2,2,0,0,0-1.5.68l5,4.55Z" style="fill:#313832"/><polygon points="66.66 142.61 64.64 142.61 66.66 144.44 66.66 142.61" style="fill:#111b16"/><path d="M70.2,167.26a1.81,1.81,0,0,0,1.89-1.71v-2.09l-4.21,3.8Z" style="fill:#313832"/><polygon points="66.7 144.47 68.76 142.61 66.66 142.61 66.66 144.44 66.7 144.47" style="fill:#313832"/><path d="M70.2,142.61H68.76l-2.06,1.86,0,0v3.4l0,0,5-4.55A2,2,0,0,0,70.2,142.61Z" style="fill:#111b16"/><polygon points="66.66 151.25 66.66 154.66 66.7 154.69 72.09 149.83 72.09 146.42 66.7 151.29 66.66 151.25" style="fill:#111b16"/><path d="M66.66,147.84v3.41l0,0,5.39-4.87v-2.1a1.59,1.59,0,0,0-.35-1l-5,4.55Z" style="fill:#313832"/><polygon points="66.66 154.66 66.66 158.07 66.7 158.1 72.09 153.24 72.09 149.83 66.7 154.69 66.66 154.66" style="fill:#313832"/><polygon points="66.66 164.88 66.66 167.26 67.89 167.26 72.09 163.46 72.09 160.05 66.7 164.92 66.66 164.88" style="fill:#111b16"/><polygon points="66.66 158.07 66.66 161.47 66.7 161.51 72.09 156.64 72.09 153.24 66.7 158.1 66.66 158.07" style="fill:#111b16"/><polygon points="66.66 161.47 66.66 164.88 66.7 164.92 72.09 160.05 72.09 156.64 66.7 161.51 66.66 161.47" style="fill:#313832"/><path d="M67.66,134.65a1,1,0,1,1-1-1A1,1,0,0,1,67.66,134.65Z" style="fill:#ced0c8"/><polygon points="84.46 96.29 84.46 110.86 77.93 108.84 66.66 108.84 66.66 96.29 84.46 96.29" style="fill:#a24b4e"/><path d="M84.46,62.43s-1.41-19.81-17.8-19.26v5.7l9.67,19.64Z" style="fill:#17727e"/><rect x="66.66" y="62.43" width="17.8" height="33.87" transform="translate(151.12 158.72) rotate(180)" style="fill:#7e5088"/><path d="M90.77,70.09l.45-.22-1.7-3.48a3.52,3.52,0,0,0-3.14-2H84.46v.5h1.92a3,3,0,0,1,2.69,1.68Z" style="fill:#451b46"/><path d="M92.91,85h.77a3.56,3.56,0,0,0,3.56-3.55V75.3a3.57,3.57,0,0,0-3.56-3.56H90.45v.64h3.23A2.92,2.92,0,0,1,96.6,75.3v6.19a2.92,2.92,0,0,1-2.92,2.92h-.77Z" style="fill:#451b46"/><path d="M87.72,72.06a2.73,2.73,0,1,0,2.73-2.72A2.73,2.73,0,0,0,87.72,72.06Z" style="fill:#544584"/><path d="M91.63,85.18s-7.17.72-7.17,0V66.47h3.59l4.86,11.62V85.5Z" style="fill:#7462a0"/><path d="M84.46,84.72h9.63s5.08,3.91-4.09,12V120H84.46V84.72Z" style="fill:#2a002d"/><polygon points="95.47 87.51 95.47 83.45 92.91 83.45 92.91 86.19 95.47 87.51" style="fill:#9159a0"/><polygon points="92.91 86.19 84.46 86.19 84.46 89.02 95.49 89.02 95.49 87.51 92.91 86.19" style="fill:#a170ad"/><polygon points="95.47 83.45 92.91 80.94 92.91 83.45 95.47 83.45" style="fill:#7a3b87"/><rect x="84.46" y="84.72" width="1.73" height="4.3" transform="translate(170.65 173.74) rotate(180)" style="fill:#111b16"/><polygon points="87.72 89.02 90 89.02 90 115.92 87.72 120 87.72 89.02" style="fill:#776b73"/><rect x="84.46" y="89.02" width="0.86" height="30.98" transform="translate(169.78 209.02) rotate(180)" style="fill:#340a36"/><rect x="84.46" y="98.53" width="5.54" height="1.66" transform="translate(174.46 198.71) rotate(180)" style="fill:#901c27"/><rect x="84.46" y="104.69" width="5.54" height="1.66" transform="translate(174.46 211.04) rotate(180)" style="fill:#901c27"/><rect x="84.46" y="110.86" width="5.54" height="1.66" transform="translate(174.46 223.39) rotate(180)" style="fill:#901c27"/><rect x="66.59" y="66.47" width="5.25" height="29.82" transform="translate(138.43 162.76) rotate(180)" style="fill:#4c627f"/><polygon points="97.59 93.44 94.39 90.9 93.05 92.24 96.31 94.73 97.59 93.44" style="fill:#13001f"/><polygon points="95.32 95.77 92.12 93.24 90.78 94.58 94.04 97.07 95.32 95.77" style="fill:#13001f"/><rect x="103.29" y="94.38" width="4.33" height="19.81" transform="translate(253.57 96.71) rotate(132.39)" style="fill:#2a002d"/><path d="M105.47,102.3l-2.32,2.79a1.44,1.44,0,0,0,.29,2.11l12.42,8.67,2.36-2.84-10.6-10.81A1.44,1.44,0,0,0,105.47,102.3Z" style="fill:#bb693c"/><rect x="116.16" y="112.42" width="6.51" height="7.67" transform="translate(285.15 98.75) rotate(129.74)" style="fill:#693840"/><path d="M122.4,118.66a4.62,4.62,0,0,0,.76.71,1.78,1.78,0,0,0,1.69.31c1.16-.39,3.74-.53,8.15,2.8a.51.51,0,0,0,.7-.08h0a1,1,0,0,0-.12-1.36l-5.7-4.73a1.42,1.42,0,0,0-1-.32l-2.39.22Z" style="fill:#111b16"/><path d="M122.55,118.48a4.71,4.71,0,0,1,.83.62,1.76,1.76,0,0,1,.56,1.68c-.26,1.31-.06,4,4,7.79a.54.54,0,0,1,0,.75h0a1,1,0,0,1-1.43.21l-5.69-4.73a1.38,1.38,0,0,1-.48-1l-.09-2.54Z" style="fill:#323432"/><path d="M97.59,102.78l4.35-.65a3,3,0,0,0,1.6-5.27L98.21,92l-5.65,6.19Z" style="fill:#af7eb6"/><path d="M53.8,56.89V70.35a8.78,8.78,0,0,0,3.33,6.89c2.49,2,6.06,4.14,9.56,4.08V47.62s-2.46-.46-6.77.91A8.76,8.76,0,0,0,53.8,56.89Z" style="fill:#344861"/><path d="M79.48,56.89V70.35a8.78,8.78,0,0,1-3.33,6.89c-2.49,2-6.06,4.14-9.56,4.08V47.62s2.46-.46,6.77.91A8.76,8.76,0,0,1,79.48,56.89Z" style="fill:#344861"/><circle cx="66.66" cy="126.55" r="7.54" transform="translate(-71.56 163.35) rotate(-77.13)" style="fill:#ced0c8"/><circle cx="66.66" cy="126.55" r="5.97" transform="translate(-71.62 163.15) rotate(-77.05)" style="fill:#901c27"/><rect x="56.52" y="57.48" width="20.12" height="9.97" rx="3.26" style="fill:#152a3f"/><rect x="61.89" y="59.81" width="1.89" height="4.63" style="fill:#000007"/><rect x="69.52" y="59.81" width="1.89" height="4.63" style="fill:#000007"/><circle cx="66.64" cy="126.55" r="3.72" transform="translate(-44.2 36.17) rotate(-23.03)" style="fill:#2a002d"/><rect x="48.86" y="96.29" width="35.6" height="1.09" style="fill:#2a002d"/><path d="M44.34,72.06a1.47,1.47,0,1,1-1.46-1.46A1.46,1.46,0,0,1,44.34,72.06Z" style="fill:#2a002d"/><path d="M91.91,72.06a1.46,1.46,0,1,1-1.46-1.46A1.46,1.46,0,0,1,91.91,72.06Z" style="fill:#2a002d"/><rect x="43.74" y="71.74" width="5.12" height="0.73" style="fill:#2a002d"/><rect x="84.46" y="71.7" width="5.12" height="0.73" style="fill:#2a002d"/><rect x="73.96" y="81.87" width="5.24" height="2.53" style="fill:#2a002d"/><rect x="73.96" y="85.68" width="3.53" height="2.72" style="fill:#2a002d"/><rect x="73.96" y="90.02" width="1.83" height="1.85" style="fill:#2a002d"/><rect x="53.98" y="81.87" width="5.24" height="2.53" transform="translate(113.19 166.27) rotate(180)" style="fill:#2a002d"/><rect x="55.69" y="85.68" width="3.53" height="2.72" transform="translate(114.9 174.08) rotate(180)" style="fill:#2a002d"/><rect x="57.39" y="90.02" width="1.83" height="1.85" transform="translate(116.61 181.89) rotate(180)" style="fill:#2a002d"/><rect x="50.99" y="126.14" width="10.63" height="1.03" style="fill:#901c27"/><rect x="71.74" y="126.14" width="10.63" height="1.03" style="fill:#901c27"/><rect x="61.35" y="115.35" width="10.63" height="1.03" transform="translate(182.53 49.2) rotate(90)" style="fill:#901c27"/><path d="M81.69,93.27a2,2,0,1,0-2.17,2v11.21h-3v.45H80V95.22A2,2,0,0,0,81.69,93.27Z" style="fill:#fff"/><polygon points="74.25 108.8 77.07 107.91 77.07 105.32 66.65 105.32 66.65 108.8 74.25 108.8" style="fill:#fff"/><path d="M53.19,106.43V95.22a2,2,0,1,0-.44,0v11.66h3.48v-.45Z" style="fill:#fff"/><polygon points="59.05 108.8 56.23 107.91 56.23 105.32 66.65 105.32 66.65 108.8 59.05 108.8" style="fill:#fff"/><path d="M68.56,108.82a1.92,1.92,0,1,1-1.92-1.91A1.92,1.92,0,0,1,68.56,108.82Z" style="fill:#2a002d"/></g></g></svg>