<svg xmlns="http://www.w3.org/2000/svg" xmlns:xlink="http://www.w3.org/1999/xlink" viewBox="0 0 148.25 207.55"><defs><linearGradient id="Degradado_sin_nombre_6" x1="-14.83" y1="192.72" x2="163.07" y2="14.83" gradientUnits="userSpaceOnUse"><stop offset="0" stop-color="aqua"/><stop offset="1" stop-color="blue"/></linearGradient></defs><title>Asset 146</title><g id="Layer_2" data-name="Layer 2"><g id="Layer_3" data-name="Layer 3"><rect width="148.25" height="207.55" style="fill:url(#Degradado_sin_nombre_6)"/><g style="opacity:0.45"><polygon points="135.39 156.18 135.39 112.55 132.72 109.88 132.72 53.79 124.71 53.79 124.71 46.44 97.18 46.44 94.44 49.19 60.75 49.19 54.99 43.43 8.69 43.43 8.69 133.36 12.97 137.63 12.97 157.37 15.71 160.11 15.71 166.87 48.43 166.87 48.43 170.72 75.74 170.72 75.74 173.22 138.49 173.22 138.49 159.28 135.39 156.18" style="fill:#00158e;opacity:0.2"/><path d="M139.7,141.66V118.88a1.53,1.53,0,0,0,1.26-1.5,1.56,1.56,0,1,0-3.12,0,1.53,1.53,0,0,0,1.26,1.5v23l4.6,4.6v33.12H64.76v-5H5.4V41H24.59a1.56,1.56,0,1,0,0-.59H4.8V175.18H64.16v5H144.3v-34Z" style="fill:gold"/><polygon points="84.78 166.79 87.76 166.79 90.94 163.62 85.97 163.62 78.82 170.77 80.81 170.77 84.78 166.79" style="fill:gold"/><polygon points="91.24 166.79 94.21 166.79 97.39 163.62 92.42 163.62 85.27 170.77 87.26 170.77 91.24 166.79" style="fill:gold"/><polygon points="97.69 166.79 100.66 166.79 103.84 163.62 98.87 163.62 91.72 170.77 93.71 170.77 97.69 166.79" style="fill:gold"/><polygon points="104.14 166.79 107.11 166.79 110.29 163.62 105.33 163.62 98.17 170.77 100.16 170.77 104.14 166.79" style="fill:gold"/><polygon points="110.59 166.79 113.56 166.79 116.74 163.62 111.78 163.62 104.62 170.77 106.61 170.77 110.59 166.79" style="fill:gold"/><polygon points="117.04 166.79 120.02 166.79 123.19 163.62 118.23 163.62 111.08 170.77 113.06 170.77 117.04 166.79" style="fill:gold"/><polygon points="123.49 166.79 126.47 166.79 129.64 163.62 124.68 163.62 117.53 170.77 119.52 170.77 123.49 166.79" style="fill:gold"/><polygon points="129.94 166.79 132.92 166.79 136.09 163.62 131.13 163.62 123.98 170.77 125.97 170.77 129.94 166.79" style="fill:gold"/><polygon points="15.91 45.6 13.18 45.6 11.24 48.97 13.18 52.34 15.91 52.34 13.97 48.97 15.91 45.6" style="fill:#0751cf"/><polygon points="22.9 45.6 20.16 45.6 18.22 48.97 20.16 52.34 22.9 52.34 20.95 48.97 22.9 45.6" style="fill:#0751cf"/><polygon points="29.88 45.6 27.14 45.6 25.2 48.97 27.14 52.34 29.88 52.34 27.93 48.97 29.88 45.6" style="fill:#0751cf"/><polygon points="36.86 45.6 34.13 45.6 32.18 48.97 34.13 52.34 36.86 52.34 34.91 48.97 36.86 45.6" style="fill:#0751cf"/><polygon points="43.84 45.6 41.11 45.6 39.16 48.97 41.11 52.34 43.84 52.34 41.9 48.97 43.84 45.6" style="fill:#0751cf"/><polygon points="50.82 45.6 48.09 45.6 46.15 48.97 48.09 52.34 50.82 52.34 48.88 48.97 50.82 45.6" style="fill:#0751cf"/><path d="M66.13,45.94H69l-5.17,5.17H61Zm11.59,0H74.83l-5.16,5.17h2.88Zm-4.35,0H70.48l-5.16,5.17H68.2Zm21.75,0H92.24l-5.17,5.17H90Zm-13.05,0H79.19L74,51.11H76.9Zm8.7,0H87.89l-5.17,5.17h2.89Zm-4.35,0H83.54l-5.17,5.17h2.88Z" style="fill:gold"/><rect x="121.74" y="100.38" width="19.89" height="2.67" style="fill:gold"/><rect x="129.61" y="96.38" width="9.2" height="1.78" style="fill:gold"/><rect x="12.22" y="160.93" width="17.81" height="2.37" style="fill:gold"/><path d="M108.88,53.59H113V49.43h-4.16Zm.59-3.56h3v3h-3Z" style="fill:gold"/><path d="M129.46,85.15V81.69H125.7v3.75h3.76Zm-3.17-2.87h2.57v2.57h-2.57Z" style="fill:gold"/><path d="M125.7,136.3h4.15v-4.16H125.7Zm.59-3.57h3v3h-3Z" style="fill:#0751cf"/><path d="M15.69,150.54h5.14V145.4H15.69Zm.59-4.55h4v4h-4Z" style="fill:gold"/><path d="M11.93,126h3.16v-3.17H11.93Zm.59-2.58h2v2h-2Z" style="fill:#0751cf"/><path d="M32.51,169.54H43.78V165H32.51Zm.59-4H43.19v3.36H33.1Z" style="fill:gold"/><path d="M131.24,59.72V81.09h3.36V59.72Zm.59.6H134V80.5h-2.18Z" style="fill:gold"/><path d="M132.62,51.31V46.07h-5.54v5.54h5.54Zm-4.94-4.65H132V51h-4.35Z" style="fill:gold"/><path d="M38.05,40.83V37.17h-4v3.95h4Zm-3.37-3.07h2.77v2.77H34.68Z" style="fill:gold"/><path d="M52.88,39.94h4.95V35H52.88Zm.6-4.36h3.76v3.76H53.48Z" style="fill:#0751cf"/><polygon points="21.38 79.57 18.51 79.57 18.51 76.7 16.89 76.7 16.89 79.57 14.03 79.57 14.03 81.19 16.89 81.19 16.89 84.06 18.51 84.06 18.51 81.19 21.38 81.19 21.38 79.57" style="fill:gold"/><polygon points="33.8 79.57 30.94 79.57 30.94 76.7 29.32 76.7 29.32 79.57 26.45 79.57 26.45 81.19 29.32 81.19 29.32 84.06 30.94 84.06 30.94 81.19 33.8 81.19 33.8 79.57" style="fill:gold"/><polygon points="46.23 79.57 43.37 79.57 43.37 76.7 41.74 76.7 41.74 79.57 38.88 79.57 38.88 81.19 41.74 81.19 41.74 84.06 43.37 84.06 43.37 81.19 46.23 81.19 46.23 79.57" style="fill:gold"/><polygon points="58.66 79.57 55.79 79.57 55.79 76.7 54.17 76.7 54.17 79.57 51.31 79.57 51.31 81.19 54.17 81.19 54.17 84.06 55.79 84.06 55.79 81.19 58.66 81.19 58.66 79.57" style="fill:gold"/></g><polygon points="67.21 56.38 64.83 55.63 64.83 53.44 73.61 53.44 73.61 56.38 67.21 56.38" style="fill:#060a0f"/><path d="M62.27,54.38V44.93a1.65,1.65,0,1,0-.37,0v9.82h2.94v-.37Z" style="fill:#060a0f"/><polygon points="84.69 56.38 87.06 55.63 87.06 53.44 78.28 53.44 78.28 56.38 84.69 56.38" style="fill:#060a0f"/><path d="M89.62,54.38V44.93a1.64,1.64,0,1,1,.38,0v9.82H87.06v-.37Z" style="fill:#060a0f"/><path d="M89.44,70.84l.08-3.26A5.32,5.32,0,0,1,95,62.4l2,.05a4.07,4.07,0,0,1,4,4.16l-1.68,0a2.38,2.38,0,0,0-2.31-2.43l-2,0a3.64,3.64,0,0,0-3.72,3.54l-.09,3.27Z" style="fill:#a3b448"/><path d="M51.09,70.49l.09-3.27a5.32,5.32,0,0,1,5.45-5.17l2,.05a4.07,4.07,0,0,1,3.95,4.15l-1.68,0a2.37,2.37,0,0,0-2.31-2.43l-2-.06a3.64,3.64,0,0,0-3.72,3.55l-.09,3.26Z" style="fill:#a3b448"/><path d="M64.76,63.63s2-5,2-5h2.15v4.89Z" style="fill:#5cc6d3"/><path d="M86.87,63.63c-.05,0-2-5-2-5H82.7v4.89Z" style="fill:#5cc6d3"/><path d="M42.12,74.5l2.49,7.14,3.33.41,9-3.77-.55-9.74-3.74-2.42S45.31,68.2,42.12,74.5Z" style="fill:#262320"/><rect x="56.43" y="67.58" width="1.66" height="11.33" style="fill:#6b6b64"/><polygon points="44.61 81.64 41.78 83.37 42.82 92.83 48.69 94.49 53.26 94.49 56.43 83.06 56.43 78.49 47.94 82.05 44.61 81.64" style="fill:#6b6b64"/><polygon points="44.68 93.36 44.68 99.22 49.53 101.87 49.53 94.49 48.69 94.49 44.68 93.36" style="fill:#484640"/><polygon points="53.26 94.49 53.26 98.39 49.53 101.87 49.53 94.49 53.26 94.49" style="fill:#393934"/><polygon points="44.68 99.22 43.85 99.22 43.85 101.03 48.79 107.63 49.53 107.63 49.53 101.87 44.68 99.22" style="fill:#292926"/><path d="M49.53,101.87l5-4.78L56,99.22s-1.25,1.61-1.3,7.79l-5.18.62Z" style="fill:#302e29"/><polygon points="45.53 103.27 46.26 112.35 48.79 113.51 51.09 113.51 54.71 107.01 48.79 107.63 45.53 103.27" style="fill:#1d1c1b"/><polygon points="58.09 78.9 65.33 91.26 70.94 90.02 71.49 90.71 76.06 90.71 76.06 68.47 70.73 68.47 69 62.38 65.88 62.38 58.09 67.58 58.09 78.9" style="fill:#393934"/><polygon points="65.91 91.13 68.79 95 68.2 95.59 69.75 97.14 63.66 103.27 63.66 110.66 65.88 110.66 67.08 117.31 76.06 117.31 76.06 90.71 71.49 90.71 71.13 89.61 65.91 91.13" style="fill:#1d1c1b"/><path d="M110,74.51l-2.49,7.14-3.33.41-9-3.78.56-9.73,3.74-2.42S106.82,68.21,110,74.51Z" style="fill:#262320"/><rect x="94.03" y="67.58" width="1.66" height="11.33" transform="translate(189.7 146.53) rotate(-179.98)" style="fill:#52534d"/><polygon points="107.51 81.65 110.34 83.38 109.3 92.84 103.43 94.5 98.86 94.5 95.69 83.07 95.69 78.5 104.18 82.06 107.51 81.65" style="fill:#4b4a44"/><polygon points="107.43 93.37 107.43 99.23 102.58 101.88 102.58 94.5 103.43 94.5 107.43 93.37" style="fill:#32322d"/><polygon points="98.86 94.5 98.86 98.39 102.58 101.88 102.58 94.5 98.86 94.5" style="fill:#292926"/><polygon points="107.43 99.23 108.26 99.23 108.26 101.05 103.32 107.64 102.58 107.64 102.58 101.88 107.43 99.23" style="fill:#292926"/><path d="M102.58,101.88l-5-4.79L96.1,99.22s1.25,1.61,1.3,7.8l5.18.62Z" style="fill:#1a1714"/><polygon points="94.03 78.91 86.79 91.27 81.18 90.02 80.63 90.71 76.06 90.71 76.06 68.47 81.4 68.47 83.13 62.38 86.25 62.38 94.04 67.58 94.03 78.91" style="fill:#201f1e"/><polygon points="86.2 91.14 83.33 95.01 83.92 95.6 82.37 97.14 88.45 103.28 88.45 110.67 86.23 110.66 85.03 117.31 76.05 117.31 76.06 90.71 80.63 90.71 80.99 89.61 86.2 91.14" style="fill:#000001"/><polygon points="76.08 64.42 76.08 69.89 69.7 68.85 68.73 64.42 76.08 64.42" style="fill:#413f3d"/><path d="M76.08,49V64.42H68.73l-.66-3c-.4-1.84.51-5.8,1.2-8.34a3.28,3.28,0,0,1,2.65-2.42A9.38,9.38,0,0,0,76.08,49Z" style="fill:#52534d"/><polygon points="83.42 64.42 82.45 68.85 76.08 69.89 76.08 64.42 83.42 64.42" style="fill:#2c2b28"/><path d="M84.08,61.43l-.66,3H76.08V49a9.38,9.38,0,0,0,4.16,1.66,3.28,3.28,0,0,1,2.64,2.42C83.57,55.63,84.48,59.59,84.08,61.43Z" style="fill:#43433f"/><path d="M50.47,112.23h2.08a3.4,3.4,0,0,0,3.4-3.4v-1.28A2.59,2.59,0,0,0,53.36,105V106a1.52,1.52,0,0,1,1.52,1.52v1.28a2.33,2.33,0,0,1-2.33,2.33H50.47Z" style="fill:#6b6b64"/><polygon points="48.79 116.34 51.76 116.34 51.76 107.29 48.79 107.63 48.79 116.34" style="fill:#53524b"/><rect x="50.17" y="120.58" width="1.37" height="5.25" transform="translate(101.72 246.4) rotate(180)" style="fill:#323534"/><rect x="49.36" y="120.58" width="0.49" height="5.25" transform="translate(99.21 246.4) rotate(180)" style="fill:#323534"/><polygon points="53.54 124.09 50.47 124.09 50.47 127.97 52.17 127.97 52.17 134.11 52.65 134.11 55.45 127.37 53.54 124.09" style="fill:#117b77"/><polygon points="47.41 124.09 50.49 124.09 50.49 127.97 48.79 127.97 48.79 134.11 48.31 134.11 45.51 127.37 47.41 124.09" style="fill:#5cc6d3"/><polygon points="53.27 116.34 47.73 116.34 48.74 121.77 52.74 121.77 53.27 116.34" style="fill:#298e91"/><polygon points="106.55 103.11 105.83 112.18 103.29 113.34 100.99 113.34 97.37 106.84 103.29 107.47 106.55 103.11" style="fill:#1d1c1b"/><path d="M101.62,112.06H99.53a3.4,3.4,0,0,1-3.4-3.4v-1.28a2.59,2.59,0,0,1,2.59-2.59v1.08a1.52,1.52,0,0,0-1.52,1.51v1.28A2.33,2.33,0,0,0,99.53,111h2.09Z" style="fill:#6b6b64"/><polygon points="103.29 116.18 100.33 116.18 100.33 107.12 103.29 107.47 103.29 116.18" style="fill:#53524b"/><rect x="100.54" y="120.41" width="1.37" height="5.25" style="fill:#323534"/><rect x="102.23" y="120.41" width="0.49" height="5.25" style="fill:#323534"/><polygon points="98.54 123.93 101.61 123.93 101.61 127.8 99.91 127.8 99.91 133.94 99.44 133.94 96.63 127.21 98.54 123.93" style="fill:#117b77"/><polygon points="104.67 123.93 101.6 123.93 101.6 127.8 103.3 127.8 103.3 133.94 103.77 133.94 106.58 127.21 104.67 123.93" style="fill:#5cc6d3"/><polygon points="98.81 116.18 104.36 116.18 103.34 121.6 99.35 121.6 98.81 116.18" style="fill:#298e91"/><path d="M68.11,115.89s-4.8,3-3.78,11.79h6.06V113.43A2.15,2.15,0,0,0,68.11,115.89Z" style="fill:#d4de39"/><polyline points="65.62 112.47 68.11 115.89 70.39 113.43 65.96 112.47" style="fill:#a3b448"/><path d="M65.62,127.68v3.94l.68.88a3.38,3.38,0,0,1,0,4.23L65.21,138v21.7H69.5v-32Z" style="fill:#a3b448"/><path d="M70.39,127.73a25.7,25.7,0,0,1,3.4,0c-.1.15,0-14.14,0-14.14h-3.4Z" style="fill:#353836"/><rect x="69.5" y="126.36" width="4.29" height="8.17" style="fill:#111514"/><path d="M65.21,144.12l-4.27,6.55a5.32,5.32,0,0,0-.74,4.11l1.13,4.93h3.88Z" style="fill:#111514"/><rect x="69.5" y="134.54" width="4.29" height="25.17" style="fill:#111514"/><polygon points="63.61 115.91 58.09 107.46 59.72 100.32 63.61 100.32 63.61 115.91" style="fill:#111514"/><path d="M60,157.4H73.8a0,0,0,0,1,0,0v3a0,0,0,0,1,0,0H58.09a0,0,0,0,1,0,0v-1A1.95,1.95,0,0,1,60,157.4Z" style="fill:#111514"/><path d="M84.13,115.89s4.8,3,3.78,11.79H81.84V113.43A2.16,2.16,0,0,1,84.13,115.89Z" style="fill:#d4de39"/><polyline points="86.61 112.47 84.13 115.89 81.84 113.43 86.27 112.47" style="fill:#a3b448"/><path d="M86.61,127.68v3.94l-.68.88a3.4,3.4,0,0,0,0,4.23L87,138v21.7H82.73v-32Z" style="fill:#939c3b"/><path d="M81.84,127.73a25.7,25.7,0,0,0-3.4,0c.1.15,0-14.14,0-14.14h3.4Z" style="fill:#353836"/><rect x="78.53" y="126.36" width="4.2" height="8.17" transform="translate(161.26 260.9) rotate(180)" style="fill:#111514"/><path d="M87,144.12l4.28,6.55a5.36,5.36,0,0,1,.73,4.11l-1.13,4.93H87Z" style="fill:#111514"/><rect x="78.53" y="134.54" width="4.2" height="25.17" style="fill:#111514"/><path d="M78.53,157.4H92.29a1.95,1.95,0,0,1,1.95,1.95v1a0,0,0,0,1,0,0H78.53a0,0,0,0,1,0,0v-3A0,0,0,0,1,78.53,157.4Z" style="fill:#111514"/><polygon points="88.45 115.91 93.97 107.46 92.33 100.32 88.45 100.32 88.45 115.91" style="fill:#111514"/><rect x="58.09" y="160.36" width="15.7" height="6.72" style="fill:#111514"/><rect x="78.53" y="160.36" width="15.7" height="6.72" style="fill:#111514"/><rect x="58.09" y="162.77" width="2.76" height="7.16" style="fill:#111514"/><rect x="64.56" y="162.77" width="2.76" height="7.16" style="fill:#111514"/><rect x="71.04" y="162.77" width="2.76" height="7.16" style="fill:#111514"/><rect x="78.53" y="162.77" width="2.76" height="7.16" style="fill:#111514"/><rect x="85.01" y="162.77" width="2.76" height="7.16" style="fill:#111514"/><rect x="91.48" y="162.77" width="2.76" height="7.16" style="fill:#111514"/><rect x="59.7" y="167.08" width="12.39" height="1.11" style="fill:#a3b448"/><rect x="80.82" y="167.08" width="12.39" height="1.11" style="fill:#a3b448"/><polygon points="70.49 75.77 76.1 76.44 76.1 82.31 71.74 82.31 68.71 75.52 70.49 75.77 70.49 75.77" style="fill:#a3b448"/><polygon points="81.66 75.77 76.05 76.44 76.05 82.31 80.41 82.31 83.45 75.52 81.66 75.77 81.66 75.77" style="fill:#97a03e"/><path d="M69.41,134.11l-3.26.08A5.33,5.33,0,0,0,61,139.64l.05,2a4.05,4.05,0,0,0,4.16,3.94l-.05-1.67a2.38,2.38,0,0,1-2.43-2.32l-.05-2a3.65,3.65,0,0,1,3.54-3.73l3.27-.08Z" style="fill:#5cc6d3"/><path d="M82.75,134.11l3.26.08a5.32,5.32,0,0,1,5.18,5.45l0,2A4.05,4.05,0,0,1,87,145.59l0-1.67a2.38,2.38,0,0,0,2.43-2.32l.05-2A3.64,3.64,0,0,0,86,135.87l-3.26-.08Z" style="fill:#2cbab8"/><rect x="72.02" y="54.38" width="1.48" height="6.23" style="fill:#201f1e"/><rect x="78.28" y="54.29" width="1.48" height="6.23" style="fill:#201f1e"/></g></g></svg>