<svg xmlns="http://www.w3.org/2000/svg" xmlns:xlink="http://www.w3.org/1999/xlink" viewBox="0 0 148.25 207.55"><defs><clipPath id="clip-path"><rect width="148.25" height="207.55" style="fill:none"/></clipPath><linearGradient id="Degradado_sin_nombre_5" x1="-14.83" y1="14.83" x2="163.07" y2="192.72" gradientUnits="userSpaceOnUse"><stop offset="0" stop-color="#fef201"/><stop offset="1" stop-color="#ff1443"/></linearGradient></defs><title>Asset 137</title><g style="isolation:isolate"><g id="Layer_2" data-name="Layer 2"><g id="Layer_3" data-name="Layer 3"><g style="clip-path:url(#clip-path)"><rect width="148.25" height="207.55" style="fill:url(#Degradado_sin_nombre_5)"/><g style="opacity:0.46;mix-blend-mode:soft-light"><circle cx="4.8" cy="8.78" r="1" style="fill:#fef201"/><circle cx="4.8" cy="21.82" r="1" style="fill:#fef201"/><circle cx="4.8" cy="34.87" r="1" style="fill:#fef201"/><circle cx="4.8" cy="47.91" r="1" style="fill:#fef201"/><circle cx="4.8" cy="60.95" r="1" style="fill:#fef201"/><circle cx="4.8" cy="74" r="1" style="fill:#fef201"/><circle cx="4.8" cy="87.04" r="1" style="fill:#fef201"/><circle cx="4.8" cy="100.09" r="1" style="fill:#fef201"/><circle cx="4.8" cy="113.13" r="1" style="fill:#fef201"/><circle cx="4.8" cy="126.18" r="1" style="fill:#fef201"/><circle cx="4.8" cy="139.22" r="1" style="fill:#fef201"/><circle cx="4.8" cy="152.26" r="1" style="fill:#fef201"/><circle cx="4.8" cy="165.31" r="1" style="fill:#fef201"/><circle cx="4.8" cy="178.35" r="1" style="fill:#fef201"/><circle cx="4.8" cy="191.4" r="1" style="fill:#fef201"/><circle cx="4.8" cy="204.44" r="1" style="fill:#fef201"/><path d="M12.15,4.11a1,1,0,1,0,0-2,1,1,0,0,0-1,1A1,1,0,0,0,12.15,4.11Z" style="fill:#fef201"/><path d="M12.18,15.15a1,1,0,1,0,1,1A1,1,0,0,0,12.18,15.15Z" style="fill:#fef201"/><path d="M12.23,28.2a1,1,0,1,0,1,1A1,1,0,0,0,12.23,28.2Z" style="fill:#fef201"/><path d="M12.27,41.24a1,1,0,1,0,0,2,1,1,0,0,0,0-2Z" style="fill:#fef201"/><path d="M12.31,54.28a1,1,0,0,0-1,1,1,1,0,0,0,1,1,1,1,0,1,0,0-2Z" style="fill:#fef201"/><path d="M12.36,67.33a1,1,0,1,0,1,1A1,1,0,0,0,12.36,67.33Z" style="fill:#fef201"/><path d="M12.4,80.37a1,1,0,0,0-1,1,1,1,0,0,0,2,0A1,1,0,0,0,12.4,80.37Z" style="fill:#fef201"/><path d="M12.44,93.42a1,1,0,1,0,0,2,1,1,0,0,0,0-2Z" style="fill:#fef201"/><path d="M12.48,106.46a1,1,0,0,0,0,2,1,1,0,1,0,0-2Z" style="fill:#fef201"/><path d="M12.53,119.51a1,1,0,1,0,0,2,1,1,0,0,0,1-1A1,1,0,0,0,12.53,119.51Z" style="fill:#fef201"/><path d="M12.57,132.55a1,1,0,1,0,1,1A1,1,0,0,0,12.57,132.55Z" style="fill:#fef201"/><path d="M12.61,145.6a1,1,0,0,0-1,1,1,1,0,0,0,1,1,1,1,0,0,0,1-1A1,1,0,0,0,12.61,145.6Z" style="fill:#fef201"/><path d="M12.65,158.64a1,1,0,1,0,1,1A1,1,0,0,0,12.65,158.64Z" style="fill:#fef201"/><path d="M12.7,171.68a1,1,0,0,0-1,1,1,1,0,0,0,2,0A1,1,0,0,0,12.7,171.68Z" style="fill:#fef201"/><path d="M12.74,184.73a1,1,0,1,0,1,1A1,1,0,0,0,12.74,184.73Z" style="fill:#fef201"/><path d="M12.78,197.77a1,1,0,1,0,0,2,1,1,0,0,0,1-1A1,1,0,0,0,12.78,197.77Z" style="fill:#fef201"/><circle cx="21.13" cy="8.78" r="1" style="fill:#fef201"/><circle cx="21.13" cy="21.82" r="1" style="fill:#fef201"/><circle cx="21.13" cy="34.87" r="1" style="fill:#fef201"/><circle cx="21.13" cy="47.91" r="1" style="fill:#fef201"/><circle cx="21.13" cy="60.95" r="1" style="fill:#fef201"/><circle cx="21.13" cy="74" r="1" style="fill:#fef201"/><circle cx="21.13" cy="87.04" r="1" style="fill:#fef201"/><circle cx="21.13" cy="100.09" r="1" style="fill:#fef201"/><circle cx="21.13" cy="113.13" r="1" style="fill:#fef201"/><circle cx="21.13" cy="126.18" r="1" style="fill:#fef201"/><circle cx="21.13" cy="139.22" r="1" style="fill:#fef201"/><circle cx="21.13" cy="152.26" r="1" style="fill:#fef201"/><circle cx="21.13" cy="165.31" r="1" style="fill:#fef201"/><circle cx="21.13" cy="178.35" r="1" style="fill:#fef201"/><circle cx="21.13" cy="191.4" r="1" style="fill:#fef201"/><circle cx="21.13" cy="204.44" r="1" style="fill:#fef201"/><path d="M28.48,4.11a1,1,0,0,0,1-1,1,1,0,1,0-1,1Z" style="fill:#fef201"/><path d="M28.52,15.15a1,1,0,0,0-1,1,1,1,0,1,0,1-1Z" style="fill:#fef201"/><path d="M28.56,28.2a1,1,0,0,0-1,1,1,1,0,0,0,1,1,1,1,0,0,0,0-2Z" style="fill:#fef201"/><path d="M28.6,41.24a1,1,0,0,0,0,2,1,1,0,1,0,0-2Z" style="fill:#fef201"/><path d="M28.65,54.28a1,1,0,0,0-1,1,1,1,0,0,0,1,1,1,1,0,1,0,0-2Z" style="fill:#fef201"/><path d="M28.69,67.33a1,1,0,1,0,1,1A1,1,0,0,0,28.69,67.33Z" style="fill:#fef201"/><path d="M28.73,80.37a1,1,0,1,0,0,2,1,1,0,0,0,1-1A1,1,0,0,0,28.73,80.37Z" style="fill:#fef201"/><path d="M28.77,93.42a1,1,0,0,0,0,2,1,1,0,1,0,0-2Z" style="fill:#fef201"/><path d="M28.82,106.46a1,1,0,1,0,1,1A1,1,0,0,0,28.82,106.46Z" style="fill:#fef201"/><path d="M28.86,119.51a1,1,0,1,0,1,1A1,1,0,0,0,28.86,119.51Z" style="fill:#fef201"/><path d="M28.9,132.55a1,1,0,1,0,1,1A1,1,0,0,0,28.9,132.55Z" style="fill:#fef201"/><path d="M28.94,145.6a1,1,0,0,0,0,2,1,1,0,0,0,1-1A1,1,0,0,0,28.94,145.6Z" style="fill:#fef201"/><path d="M29,158.64a1,1,0,1,0,1,1A1,1,0,0,0,29,158.64Z" style="fill:#fef201"/><path d="M29,171.68a1,1,0,0,0-1,1,1,1,0,0,0,2,0A1,1,0,0,0,29,171.68Z" style="fill:#fef201"/><path d="M29.07,184.73a1,1,0,0,0-1,1,1,1,0,1,0,1-1Z" style="fill:#fef201"/><path d="M29.11,197.77a1,1,0,1,0,1,1A1,1,0,0,0,29.11,197.77Z" style="fill:#fef201"/><circle cx="37.47" cy="8.78" r="1" style="fill:#fef201"/><circle cx="37.47" cy="21.82" r="1" style="fill:#fef201"/><circle cx="37.47" cy="34.87" r="1" style="fill:#fef201"/><circle cx="37.47" cy="47.91" r="1" style="fill:#fef201"/><circle cx="37.47" cy="60.95" r="1" style="fill:#fef201"/><circle cx="37.47" cy="74" r="1" style="fill:#fef201"/><circle cx="37.47" cy="87.04" r="1" style="fill:#fef201"/><circle cx="37.47" cy="100.09" r="1" style="fill:#fef201"/><circle cx="37.47" cy="113.13" r="1" style="fill:#fef201"/><circle cx="37.47" cy="126.18" r="1" style="fill:#fef201"/><circle cx="37.47" cy="139.22" r="1" style="fill:#fef201"/><circle cx="37.47" cy="152.26" r="1" style="fill:#fef201"/><circle cx="37.47" cy="165.31" r="1" style="fill:#fef201"/><circle cx="37.47" cy="178.35" r="1" style="fill:#fef201"/><circle cx="37.47" cy="191.4" r="1" style="fill:#fef201"/><circle cx="37.47" cy="204.44" r="1" style="fill:#fef201"/><path d="M44.82,4.11a1,1,0,1,0-1-1A1,1,0,0,0,44.82,4.11Z" style="fill:#fef201"/><path d="M44.85,15.15a1,1,0,1,0,0,2,1,1,0,0,0,1-1A1,1,0,0,0,44.85,15.15Z" style="fill:#fef201"/><path d="M44.89,28.2a1,1,0,0,0,0,2,1,1,0,0,0,1-1A1,1,0,0,0,44.89,28.2Z" style="fill:#fef201"/><path d="M44.94,41.24a1,1,0,1,0,1,1A1,1,0,0,0,44.94,41.24Z" style="fill:#fef201"/><path d="M45,54.28a1,1,0,0,0-1,1,1,1,0,0,0,2,0A1,1,0,0,0,45,54.28Z" style="fill:#fef201"/><path d="M45,67.33a1,1,0,0,0-1,1,1,1,0,1,0,1-1Z" style="fill:#fef201"/><path d="M45.06,80.37a1,1,0,0,0-1,1,1,1,0,0,0,1,1,1,1,0,1,0,0-2Z" style="fill:#fef201"/><path d="M45.11,93.42a1,1,0,1,0,1,1A1,1,0,0,0,45.11,93.42Z" style="fill:#fef201"/><path d="M45.15,106.46a1,1,0,1,0,0,2,1,1,0,0,0,0-2Z" style="fill:#fef201"/><path d="M45.19,119.51a1,1,0,0,0-1,1,1,1,0,1,0,1-1Z" style="fill:#fef201"/><path d="M45.24,132.55a1,1,0,1,0,1,1A1,1,0,0,0,45.24,132.55Z" style="fill:#fef201"/><path d="M45.28,145.6a1,1,0,1,0,1,1A1,1,0,0,0,45.28,145.6Z" style="fill:#fef201"/><path d="M45.32,158.64a1,1,0,1,0,0,2,1,1,0,0,0,0-2Z" style="fill:#fef201"/><path d="M45.36,171.68a1,1,0,0,0-1,1,1,1,0,0,0,1,1,1,1,0,1,0,0-2Z" style="fill:#fef201"/><path d="M45.41,184.73a1,1,0,1,0,1,1A1,1,0,0,0,45.41,184.73Z" style="fill:#fef201"/><path d="M45.45,197.77a1,1,0,0,0-1,1,1,1,0,1,0,1-1Z" style="fill:#fef201"/><circle cx="53.8" cy="8.78" r="1" style="fill:#fef201"/><circle cx="53.8" cy="21.82" r="1" style="fill:#fef201"/><circle cx="53.8" cy="34.87" r="1" style="fill:#fef201"/><circle cx="53.8" cy="47.91" r="1" style="fill:#fef201"/><circle cx="53.8" cy="60.95" r="1" style="fill:#fef201"/><circle cx="53.8" cy="74" r="1" style="fill:#fef201"/><circle cx="53.8" cy="87.04" r="1" style="fill:#fef201"/><circle cx="53.8" cy="100.09" r="1" style="fill:#fef201"/><circle cx="53.8" cy="113.13" r="1" style="fill:#fef201"/><circle cx="53.8" cy="126.18" r="1" style="fill:#fef201"/><circle cx="53.8" cy="139.22" r="1" style="fill:#fef201"/><circle cx="53.8" cy="152.26" r="1" style="fill:#fef201"/><circle cx="53.8" cy="165.31" r="1" style="fill:#fef201"/><circle cx="53.8" cy="178.35" r="1" style="fill:#fef201"/><circle cx="53.8" cy="191.4" r="1" style="fill:#fef201"/><circle cx="53.8" cy="204.44" r="1" style="fill:#fef201"/><path d="M61.15,4.11a1,1,0,1,0,0-2,1,1,0,0,0-1,1A1,1,0,0,0,61.15,4.11Z" style="fill:#fef201"/><path d="M61.18,15.15a1,1,0,1,0,1,1A1,1,0,0,0,61.18,15.15Z" style="fill:#fef201"/><path d="M61.23,28.2a1,1,0,1,0,1,1A1,1,0,0,0,61.23,28.2Z" style="fill:#fef201"/><path d="M61.27,41.24a1,1,0,1,0,0,2,1,1,0,0,0,0-2Z" style="fill:#fef201"/><path d="M61.31,54.28a1,1,0,0,0-1,1,1,1,0,0,0,1,1,1,1,0,1,0,0-2Z" style="fill:#fef201"/><path d="M61.36,67.33a1,1,0,1,0,1,1A1,1,0,0,0,61.36,67.33Z" style="fill:#fef201"/><path d="M61.4,80.37a1,1,0,0,0-1,1,1,1,0,0,0,2,0A1,1,0,0,0,61.4,80.37Z" style="fill:#fef201"/><path d="M61.44,93.42a1,1,0,1,0,0,2,1,1,0,0,0,0-2Z" style="fill:#fef201"/><path d="M61.48,106.46a1,1,0,0,0,0,2,1,1,0,1,0,0-2Z" style="fill:#fef201"/><path d="M61.53,119.51a1,1,0,0,0,0,2,1,1,0,0,0,1-1A1,1,0,0,0,61.53,119.51Z" style="fill:#fef201"/><path d="M61.57,132.55a1,1,0,1,0,1,1A1,1,0,0,0,61.57,132.55Z" style="fill:#fef201"/><path d="M61.61,145.6a1,1,0,0,0-1,1,1,1,0,0,0,1,1,1,1,0,0,0,1-1A1,1,0,0,0,61.61,145.6Z" style="fill:#fef201"/><path d="M61.65,158.64a1,1,0,1,0,1,1A1,1,0,0,0,61.65,158.64Z" style="fill:#fef201"/><path d="M61.7,171.68a1,1,0,0,0-1,1,1,1,0,0,0,2,0A1,1,0,0,0,61.7,171.68Z" style="fill:#fef201"/><path d="M61.74,184.73a1,1,0,1,0,1,1A1,1,0,0,0,61.74,184.73Z" style="fill:#fef201"/><path d="M61.78,197.77a1,1,0,1,0,0,2,1,1,0,0,0,1-1A1,1,0,0,0,61.78,197.77Z" style="fill:#fef201"/><circle cx="70.13" cy="8.78" r="1" style="fill:#fef201"/><circle cx="70.13" cy="21.82" r="1" style="fill:#fef201"/><circle cx="70.13" cy="34.87" r="1" style="fill:#fef201"/><circle cx="70.13" cy="47.91" r="1" style="fill:#fef201"/><circle cx="70.13" cy="60.95" r="1" style="fill:#fef201"/><circle cx="70.13" cy="74" r="1" style="fill:#fef201"/><circle cx="70.13" cy="87.04" r="1" style="fill:#fef201"/><circle cx="70.13" cy="100.09" r="1" style="fill:#fef201"/><circle cx="70.13" cy="113.13" r="1" style="fill:#fef201"/><circle cx="70.13" cy="126.18" r="1" style="fill:#fef201"/><circle cx="70.13" cy="139.22" r="1" style="fill:#fef201"/><circle cx="70.13" cy="152.26" r="1" style="fill:#fef201"/><circle cx="70.13" cy="165.31" r="1" style="fill:#fef201"/><circle cx="70.13" cy="178.35" r="1" style="fill:#fef201"/><circle cx="70.13" cy="191.4" r="1" style="fill:#fef201"/><circle cx="70.13" cy="204.44" r="1" style="fill:#fef201"/><path d="M77.48,4.11a1,1,0,0,0,1-1,1,1,0,1,0-1,1Z" style="fill:#fef201"/><path d="M77.52,15.15a1,1,0,0,0-1,1,1,1,0,1,0,1-1Z" style="fill:#fef201"/><path d="M77.56,28.2a1,1,0,0,0-1,1,1,1,0,0,0,1,1,1,1,0,0,0,0-2Z" style="fill:#fef201"/><path d="M77.6,41.24a1,1,0,0,0,0,2,1,1,0,1,0,0-2Z" style="fill:#fef201"/><path d="M77.65,54.28a1,1,0,0,0-1,1,1,1,0,0,0,1,1,1,1,0,0,0,0-2Z" style="fill:#fef201"/><path d="M77.69,67.33a1,1,0,1,0,1,1A1,1,0,0,0,77.69,67.33Z" style="fill:#fef201"/><path d="M77.73,80.37a1,1,0,1,0,0,2,1,1,0,0,0,1-1A1,1,0,0,0,77.73,80.37Z" style="fill:#fef201"/><path d="M77.77,93.42a1,1,0,0,0,0,2,1,1,0,1,0,0-2Z" style="fill:#fef201"/><path d="M77.82,106.46a1,1,0,1,0,1,1A1,1,0,0,0,77.82,106.46Z" style="fill:#fef201"/><path d="M77.86,119.51a1,1,0,1,0,1,1A1,1,0,0,0,77.86,119.51Z" style="fill:#fef201"/><path d="M77.9,132.55a1,1,0,1,0,1,1A1,1,0,0,0,77.9,132.55Z" style="fill:#fef201"/><path d="M77.94,145.6a1,1,0,0,0,0,2,1,1,0,0,0,1-1A1,1,0,0,0,77.94,145.6Z" style="fill:#fef201"/><path d="M78,158.64a1,1,0,1,0,1,1A1,1,0,0,0,78,158.64Z" style="fill:#fef201"/><path d="M78,171.68a1,1,0,0,0-1,1,1,1,0,0,0,2,0A1,1,0,0,0,78,171.68Z" style="fill:#fef201"/><path d="M78.07,184.73a1,1,0,0,0-1,1,1,1,0,1,0,1-1Z" style="fill:#fef201"/><path d="M78.11,197.77a1,1,0,1,0,1,1A1,1,0,0,0,78.11,197.77Z" style="fill:#fef201"/><circle cx="86.47" cy="8.78" r="1" style="fill:#fef201"/><circle cx="86.47" cy="21.82" r="1" style="fill:#fef201"/><circle cx="86.47" cy="34.87" r="1" style="fill:#fef201"/><circle cx="86.47" cy="47.91" r="1" style="fill:#fef201"/><circle cx="86.47" cy="60.95" r="1" style="fill:#fef201"/><circle cx="86.47" cy="74" r="1" style="fill:#fef201"/><circle cx="86.47" cy="87.04" r="1" style="fill:#fef201"/><circle cx="86.47" cy="100.09" r="1" style="fill:#fef201"/><circle cx="86.47" cy="113.13" r="1" style="fill:#fef201"/><circle cx="86.47" cy="126.18" r="1" style="fill:#fef201"/><circle cx="86.47" cy="139.22" r="1" style="fill:#fef201"/><circle cx="86.47" cy="152.26" r="1" style="fill:#fef201"/><circle cx="86.47" cy="165.31" r="1" style="fill:#fef201"/><circle cx="86.47" cy="178.35" r="1" style="fill:#fef201"/><circle cx="86.47" cy="191.4" r="1" style="fill:#fef201"/><circle cx="86.47" cy="204.44" r="1" style="fill:#fef201"/><path d="M93.82,4.11a1,1,0,1,0-1-1A1,1,0,0,0,93.82,4.11Z" style="fill:#fef201"/><path d="M93.85,15.15a1,1,0,1,0,0,2,1,1,0,0,0,1-1A1,1,0,0,0,93.85,15.15Z" style="fill:#fef201"/><path d="M93.89,28.2a1,1,0,0,0,0,2,1,1,0,0,0,1-1A1,1,0,0,0,93.89,28.2Z" style="fill:#fef201"/><path d="M93.94,41.24a1,1,0,1,0,1,1A1,1,0,0,0,93.94,41.24Z" style="fill:#fef201"/><path d="M94,54.28a1,1,0,0,0-1,1,1,1,0,0,0,2,0A1,1,0,0,0,94,54.28Z" style="fill:#fef201"/><path d="M94,67.33a1,1,0,0,0-1,1,1,1,0,1,0,1-1Z" style="fill:#fef201"/><path d="M94.06,80.37a1,1,0,0,0-1,1,1,1,0,0,0,1,1,1,1,0,1,0,0-2Z" style="fill:#fef201"/><path d="M94.11,93.42a1,1,0,1,0,1,1A1,1,0,0,0,94.11,93.42Z" style="fill:#fef201"/><path d="M94.15,106.46a1,1,0,1,0,0,2,1,1,0,0,0,0-2Z" style="fill:#fef201"/><path d="M94.19,119.51a1,1,0,0,0-1,1,1,1,0,1,0,1-1Z" style="fill:#fef201"/><path d="M94.24,132.55a1,1,0,1,0,1,1A1,1,0,0,0,94.24,132.55Z" style="fill:#fef201"/><path d="M94.28,145.6a1,1,0,1,0,1,1A1,1,0,0,0,94.28,145.6Z" style="fill:#fef201"/><path d="M94.32,158.64a1,1,0,1,0,0,2,1,1,0,0,0,0-2Z" style="fill:#fef201"/><path d="M94.36,171.68a1,1,0,0,0-1,1,1,1,0,0,0,1,1,1,1,0,1,0,0-2Z" style="fill:#fef201"/><path d="M94.41,184.73a1,1,0,1,0,1,1A1,1,0,0,0,94.41,184.73Z" style="fill:#fef201"/><path d="M94.45,197.77a1,1,0,0,0-1,1,1,1,0,1,0,1-1Z" style="fill:#fef201"/><circle cx="102.8" cy="8.78" r="1" style="fill:#fef201"/><circle cx="102.8" cy="21.82" r="1" style="fill:#fef201"/><circle cx="102.8" cy="34.87" r="1" style="fill:#fef201"/><circle cx="102.8" cy="47.91" r="1" style="fill:#fef201"/><circle cx="102.8" cy="60.95" r="1" style="fill:#fef201"/><circle cx="102.8" cy="74" r="1" style="fill:#fef201"/><circle cx="102.8" cy="87.04" r="1" style="fill:#fef201"/><circle cx="102.8" cy="100.09" r="1" style="fill:#fef201"/><circle cx="102.8" cy="113.13" r="1" style="fill:#fef201"/><circle cx="102.8" cy="126.18" r="1" style="fill:#fef201"/><circle cx="102.8" cy="139.22" r="1" style="fill:#fef201"/><circle cx="102.8" cy="152.26" r="1" style="fill:#fef201"/><circle cx="102.8" cy="165.31" r="1" style="fill:#fef201"/><circle cx="102.8" cy="178.35" r="1" style="fill:#fef201"/><circle cx="102.8" cy="191.4" r="1" style="fill:#fef201"/><circle cx="102.8" cy="204.44" r="1" style="fill:#fef201"/><path d="M110.15,4.11a1,1,0,1,0,0-2,1,1,0,0,0-1,1A1,1,0,0,0,110.15,4.11Z" style="fill:#fef201"/><path d="M110.18,15.15a1,1,0,1,0,1,1A1,1,0,0,0,110.18,15.15Z" style="fill:#fef201"/><path d="M110.23,28.2a1,1,0,1,0,1,1A1,1,0,0,0,110.23,28.2Z" style="fill:#fef201"/><path d="M110.27,41.24a1,1,0,1,0,0,2,1,1,0,0,0,0-2Z" style="fill:#fef201"/><path d="M110.31,54.28a1,1,0,0,0-1,1,1,1,0,0,0,1,1,1,1,0,1,0,0-2Z" style="fill:#fef201"/><path d="M110.36,67.33a1,1,0,1,0,1,1A1,1,0,0,0,110.36,67.33Z" style="fill:#fef201"/><path d="M110.4,80.37a1,1,0,0,0-1,1,1,1,0,0,0,2,0A1,1,0,0,0,110.4,80.37Z" style="fill:#fef201"/><path d="M110.44,93.42a1,1,0,1,0,0,2,1,1,0,0,0,0-2Z" style="fill:#fef201"/><path d="M110.48,106.46a1,1,0,0,0,0,2,1,1,0,1,0,0-2Z" style="fill:#fef201"/><path d="M110.53,119.51a1,1,0,0,0,0,2,1,1,0,0,0,1-1A1,1,0,0,0,110.53,119.51Z" style="fill:#fef201"/><path d="M110.57,132.55a1,1,0,1,0,1,1A1,1,0,0,0,110.57,132.55Z" style="fill:#fef201"/><path d="M110.61,145.6a1,1,0,0,0-1,1,1,1,0,0,0,1,1,1,1,0,0,0,1-1A1,1,0,0,0,110.61,145.6Z" style="fill:#fef201"/><path d="M110.65,158.64a1,1,0,1,0,1,1A1,1,0,0,0,110.65,158.64Z" style="fill:#fef201"/><path d="M110.7,171.68a1,1,0,0,0-1,1,1,1,0,0,0,2,0A1,1,0,0,0,110.7,171.68Z" style="fill:#fef201"/><path d="M110.74,184.73a1,1,0,1,0,1,1A1,1,0,0,0,110.74,184.73Z" style="fill:#fef201"/><path d="M110.78,197.77a1,1,0,1,0,0,2,1,1,0,0,0,1-1A1,1,0,0,0,110.78,197.77Z" style="fill:#fef201"/><circle cx="119.13" cy="8.78" r="1" style="fill:#fef201"/><circle cx="119.13" cy="21.82" r="1" style="fill:#fef201"/><circle cx="119.13" cy="34.87" r="1" style="fill:#fef201"/><circle cx="119.13" cy="47.91" r="1" style="fill:#fef201"/><circle cx="119.13" cy="60.95" r="1" style="fill:#fef201"/><circle cx="119.13" cy="74" r="1" style="fill:#fef201"/><circle cx="119.13" cy="87.04" r="1" style="fill:#fef201"/><circle cx="119.13" cy="100.09" r="1" style="fill:#fef201"/><circle cx="119.13" cy="113.13" r="1" style="fill:#fef201"/><circle cx="119.13" cy="126.18" r="1" style="fill:#fef201"/><circle cx="119.13" cy="139.22" r="1" style="fill:#fef201"/><circle cx="119.13" cy="152.26" r="1" style="fill:#fef201"/><circle cx="119.13" cy="165.31" r="1" style="fill:#fef201"/><circle cx="119.13" cy="178.35" r="1" style="fill:#fef201"/><circle cx="119.13" cy="191.4" r="1" style="fill:#fef201"/><circle cx="119.13" cy="204.44" r="1" style="fill:#fef201"/><path d="M126.48,4.11a1,1,0,0,0,1-1,1,1,0,1,0-1,1Z" style="fill:#fef201"/><path d="M126.52,15.15a1,1,0,0,0-1,1,1,1,0,1,0,1-1Z" style="fill:#fef201"/><path d="M126.56,28.2a1,1,0,0,0-1,1,1,1,0,0,0,1,1,1,1,0,0,0,0-2Z" style="fill:#fef201"/><path d="M126.6,41.24a1,1,0,0,0,0,2,1,1,0,1,0,0-2Z" style="fill:#fef201"/><path d="M126.65,54.28a1,1,0,0,0-1,1,1,1,0,0,0,1,1,1,1,0,0,0,0-2Z" style="fill:#fef201"/><path d="M126.69,67.33a1,1,0,1,0,1,1A1,1,0,0,0,126.69,67.33Z" style="fill:#fef201"/><path d="M126.73,80.37a1,1,0,1,0,0,2,1,1,0,0,0,1-1A1,1,0,0,0,126.73,80.37Z" style="fill:#fef201"/><path d="M126.77,93.42a1,1,0,0,0,0,2,1,1,0,1,0,0-2Z" style="fill:#fef201"/><path d="M126.82,106.46a1,1,0,1,0,1,1A1,1,0,0,0,126.82,106.46Z" style="fill:#fef201"/><path d="M126.86,119.51a1,1,0,1,0,1,1A1,1,0,0,0,126.86,119.51Z" style="fill:#fef201"/><path d="M126.9,132.55a1,1,0,1,0,1,1A1,1,0,0,0,126.9,132.55Z" style="fill:#fef201"/><path d="M126.94,145.6a1,1,0,0,0,0,2,1,1,0,0,0,1-1A1,1,0,0,0,126.94,145.6Z" style="fill:#fef201"/><path d="M127,158.64a1,1,0,1,0,1,1A1,1,0,0,0,127,158.64Z" style="fill:#fef201"/><path d="M127,171.68a1,1,0,0,0-1,1,1,1,0,0,0,2,0A1,1,0,0,0,127,171.68Z" style="fill:#fef201"/><path d="M127.07,184.73a1,1,0,0,0-1,1,1,1,0,1,0,1-1Z" style="fill:#fef201"/><path d="M127.11,197.77a1,1,0,1,0,1,1A1,1,0,0,0,127.11,197.77Z" style="fill:#fef201"/><circle cx="135.47" cy="8.78" r="1" style="fill:#fef201"/><circle cx="135.47" cy="21.82" r="1" style="fill:#fef201"/><circle cx="135.47" cy="34.87" r="1" style="fill:#fef201"/><circle cx="135.47" cy="47.91" r="1" style="fill:#fef201"/><circle cx="135.47" cy="60.95" r="1" style="fill:#fef201"/><circle cx="135.47" cy="74" r="1" style="fill:#fef201"/><circle cx="135.47" cy="87.04" r="1" style="fill:#fef201"/><circle cx="135.47" cy="100.09" r="1" style="fill:#fef201"/><circle cx="135.47" cy="113.13" r="1" style="fill:#fef201"/><circle cx="135.47" cy="126.18" r="1" style="fill:#fef201"/><circle cx="135.47" cy="139.22" r="1" style="fill:#fef201"/><circle cx="135.47" cy="152.26" r="1" style="fill:#fef201"/><circle cx="135.47" cy="165.31" r="1" style="fill:#fef201"/><circle cx="135.47" cy="178.35" r="1" style="fill:#fef201"/><circle cx="135.47" cy="191.4" r="1" style="fill:#fef201"/><circle cx="135.47" cy="204.44" r="1" style="fill:#fef201"/><path d="M142.82,4.11a1,1,0,1,0-1-1A1,1,0,0,0,142.82,4.11Z" style="fill:#fef201"/><path d="M142.85,15.15a1,1,0,1,0,0,2,1,1,0,0,0,1-1A1,1,0,0,0,142.85,15.15Z" style="fill:#fef201"/><path d="M142.89,28.2a1,1,0,0,0,0,2,1,1,0,0,0,1-1A1,1,0,0,0,142.89,28.2Z" style="fill:#fef201"/><path d="M142.94,41.24a1,1,0,1,0,1,1A1,1,0,0,0,142.94,41.24Z" style="fill:#fef201"/><path d="M143,54.28a1,1,0,0,0-1,1,1,1,0,0,0,2,0A1,1,0,0,0,143,54.28Z" style="fill:#fef201"/><path d="M143,67.33a1,1,0,0,0-1,1,1,1,0,1,0,1-1Z" style="fill:#fef201"/><path d="M143.06,80.37a1,1,0,0,0-1,1,1,1,0,0,0,1,1,1,1,0,1,0,0-2Z" style="fill:#fef201"/><path d="M143.11,93.42a1,1,0,1,0,1,1A1,1,0,0,0,143.11,93.42Z" style="fill:#fef201"/><path d="M143.15,106.46a1,1,0,1,0,0,2,1,1,0,0,0,0-2Z" style="fill:#fef201"/><path d="M143.19,119.51a1,1,0,0,0-1,1,1,1,0,1,0,1-1Z" style="fill:#fef201"/><path d="M143.24,132.55a1,1,0,1,0,1,1A1,1,0,0,0,143.24,132.55Z" style="fill:#fef201"/><path d="M143.28,145.6a1,1,0,1,0,1,1A1,1,0,0,0,143.28,145.6Z" style="fill:#fef201"/><path d="M143.32,158.64a1,1,0,1,0,0,2,1,1,0,0,0,0-2Z" style="fill:#fef201"/><path d="M143.36,171.68a1,1,0,0,0-1,1,1,1,0,0,0,1,1,1,1,0,1,0,0-2Z" style="fill:#fef201"/><path d="M143.41,184.73a1,1,0,1,0,1,1A1,1,0,0,0,143.41,184.73Z" style="fill:#fef201"/><path d="M143.45,197.77a1,1,0,0,0-1,1,1,1,0,1,0,1-1Z" style="fill:#fef201"/></g></g><g style="opacity:0.45"><polygon points="80.36 40.2 73.51 40.2 8.1 105.61 8.1 112.45 80.36 40.2" style="fill:#00158e;opacity:0.2"/><polygon points="99.61 40.2 92.76 40.2 8.1 124.85 8.1 131.7 99.61 40.2" style="fill:#00158e;opacity:0.2"/><polygon points="61.11 40.2 54.27 40.2 8.1 86.36 8.1 93.21 61.11 40.2" style="fill:#00158e;opacity:0.2"/><polygon points="41.86 40.2 35.02 40.2 8.1 67.11 8.1 73.96 41.86 40.2" style="fill:#00158e;opacity:0.2"/><polygon points="22.62 40.2 15.77 40.2 8.1 47.86 8.1 54.71 22.62 40.2" style="fill:#00158e;opacity:0.2"/><path d="M108.1,40.2v3.91L11.81,140.4H8.1v30.51H138.82V40.2Zm0,100.2H95.65L108.1,128Zm0-19.3L88.8,140.4H76.4l31.7-31.7Zm0-19.25L69.56,140.4H57.15L108.1,89.45Zm0-19.25L50.31,140.4H37.91L108.1,70.2Zm0-19.24-77,77H18.66L108.1,51Z" style="fill:#00158e;opacity:0.2"/><polygon points="135.94 168.5 135.94 142.05 131.16 146.84 131.16 163.71 114.28 163.71 109.5 168.5 135.94 168.5" style="fill:#0751cf"/><rect x="137.39" y="71.65" width="2.99" height="35.67" style="fill:gold"/><rect x="137.39" y="114.49" width="2.99" height="4.98" style="fill:gold"/><rect x="26.4" y="170.08" width="48.42" height="2.39" style="fill:gold"/><polygon points="23.9 160.58 27.76 160.58 31.88 156.46 25.44 156.46 16.15 165.74 18.74 165.74 23.9 160.58" style="fill:gold"/><polygon points="32.27 160.58 36.13 160.58 40.26 156.46 33.81 156.46 24.53 165.74 27.11 165.74 32.27 160.58" style="fill:gold"/><polygon points="40.65 160.58 44.51 160.58 48.63 156.46 42.19 156.46 32.9 165.74 35.48 165.74 40.65 160.58" style="fill:gold"/><polygon points="49.02 160.58 52.88 160.58 57.01 156.46 50.56 156.46 41.28 165.74 43.86 165.74 49.02 160.58" style="fill:gold"/><polygon points="57.4 160.58 61.26 160.58 65.38 156.46 58.94 156.46 49.65 165.74 52.23 165.74 57.4 160.58" style="fill:gold"/><polygon points="65.77 160.58 69.63 160.58 73.75 156.46 67.31 156.46 58.03 165.74 60.61 165.74 65.77 160.58" style="fill:gold"/><polygon points="74.15 160.58 78.01 160.58 82.13 156.46 75.69 156.46 66.4 165.74 68.98 165.74 74.15 160.58" style="fill:gold"/><polygon points="82.52 160.58 86.38 160.58 90.5 156.46 84.06 156.46 74.77 165.74 77.36 165.74 82.52 160.58" style="fill:gold"/><path d="M125.13,35.49H110.19V31.9h14.94Zm-14.34-.6h13.75V32.5H110.79Z" style="fill:#0751cf"/><path d="M142.87,143.28h-2.59V131.93h2.59Zm-2-.59h1.39V132.52h-1.39Z" style="fill:#0751cf"/><path d="M101.82,179H84.49v-3.79h17.33Zm-16.74-.6h16.14v-2.59H85.08Z" style="fill:#0751cf"/><path d="M16.14,178.15H9.57v-2.39h6.57Zm-6-.59h5.38v-1.2H10.16Z" style="fill:gold"/><path d="M5.78,166.6H3.39V146.67H5.78ZM4,166H5.18V147.27H4Z" style="fill:gold"/><polygon points="94.75 34.58 94.75 34.43 26.95 34.43 26.95 33.06 94.6 33.06 94.6 34.58 94.75 34.58 94.75 34.43 94.75 34.58 94.9 34.58 94.9 32.76 26.65 32.76 26.65 34.73 94.9 34.73 94.9 34.58 94.75 34.58" style="fill:gold"/></g><polygon points="83.95 140.17 94.02 108.52 86.98 110.4 80.85 137.8 83.95 140.17" style="fill:#000105"/><polygon points="63.97 140.17 54.2 109.21 59.21 112.81 67.22 137.8 63.97 140.17" style="fill:#2c2822"/><path d="M74,41c-8.61-.81-7.42,11.13-7.42,11.13v5.54H74Z" style="fill:#ec8a3a"/><path d="M81.41,57.67V52.13S82.6,40.19,74,41V57.67Z" style="fill:#c9712d"/><polygon points="70.6 137.8 69.25 137.8 70.6 141.09 68.96 143.82 73.99 143.82 73.99 137.8 70.6 137.8" style="fill:#2c1c12"/><rect x="66.77" y="143.82" width="14.43" height="4.7" style="fill:#140f0e"/><rect x="68.84" y="146.95" width="10.34" height="13.25" style="fill:#2c2822"/><rect x="69.18" y="146.95" width="9.88" height="1.4" style="fill:#252827"/><rect x="73.96" y="146.22" width="5.71" height="0.73" transform="translate(153.63 293.17) rotate(180)" style="fill:#ef6f33"/><rect x="78.74" y="146.9" width="0.93" height="12.29" transform="translate(158.41 306.08) rotate(180)" style="fill:#ef6f33"/><rect x="79.21" y="159.09" width="1.5" height="2.12" transform="translate(159.92 320.31) rotate(180)" style="fill:#ef6f33"/><rect x="77.48" y="159.91" width="2.48" height="0.49" transform="translate(157.44 320.31) rotate(180)" style="fill:#1d1e22"/><rect x="77.18" y="157.89" width="0.82" height="4.53" transform="translate(155.18 320.31) rotate(180)" style="fill:#ef6f33"/><path d="M80.09,159.71h.62v.91h-.62a.45.45,0,0,1-.42-.46A.44.44,0,0,1,80.09,159.71Z" style="fill:#1d1e22"/><rect x="80.71" y="159.38" width="0.2" height="1.62" transform="translate(161.62 320.38) rotate(180)" style="fill:#1d1e22"/><rect x="79.09" y="159.18" width="0.18" height="2.03" transform="translate(158.36 320.4) rotate(180)" style="fill:#1d1e22"/><rect x="68.25" y="146.22" width="5.71" height="0.73" style="fill:#f38d30"/><rect x="68.25" y="146.9" width="0.93" height="12.29" style="fill:#f38d30"/><rect x="67.21" y="159.09" width="1.5" height="2.12" style="fill:#ef6f33"/><rect x="67.97" y="159.91" width="2.48" height="0.49" style="fill:#1d1e22"/><rect x="69.93" y="157.89" width="0.82" height="4.53" style="fill:#f38d30"/><path d="M67.84,159.71h-.63v.91h.63a.44.44,0,0,0,.41-.46A.43.43,0,0,0,67.84,159.71Z" style="fill:#1d1e22"/><rect x="67.02" y="159.38" width="0.2" height="1.62" style="fill:#1d1e22"/><rect x="68.66" y="159.18" width="0.18" height="2.03" style="fill:#1d1e22"/><polygon points="73.96 157.71 70.74 154.52 70.74 156.74 73.96 159.93 73.96 157.71" style="fill:#313832"/><path d="M74,155.49l-3-3a1.13,1.13,0,0,0-.23.67v1.33L74,157.71Z" style="fill:#111b16"/><polygon points="73.96 164.37 70.74 161.18 70.74 163.4 73.96 166.59 73.96 164.37" style="fill:#111b16"/><polygon points="73.96 162.15 70.74 158.96 70.74 161.18 73.96 164.37 73.96 162.15" style="fill:#313832"/><polygon points="73.96 159.93 70.74 156.74 70.74 158.96 73.96 162.15 73.96 159.93" style="fill:#111b16"/><polygon points="73.96 166.59 70.74 163.4 70.74 165.61 73.28 168.13 73.96 168.13 73.96 166.59" style="fill:#313832"/><path d="M70.74,167a1.12,1.12,0,0,0,1.12,1.11h1.42l-2.54-2.52Z" style="fill:#111b16"/><path d="M74,153.27l-1.2-1.19h-.9a1.15,1.15,0,0,0-.89.44l3,3Z" style="fill:#313832"/><polygon points="73.96 152.08 72.76 152.08 73.96 153.27 73.96 152.08" style="fill:#111b16"/><path d="M76.06,168.13A1.12,1.12,0,0,0,77.18,167v-1.36l-2.49,2.47Z" style="fill:#313832"/><polygon points="73.99 153.29 75.21 152.08 73.96 152.08 73.96 153.27 73.99 153.29" style="fill:#313832"/><path d="M76.06,152.08h-.85L74,153.29l0,0v2.22l0,0,3-3A1.12,1.12,0,0,0,76.06,152.08Z" style="fill:#111b16"/><polygon points="73.96 157.71 73.96 159.93 73.99 159.95 77.18 156.78 77.18 154.56 73.99 157.73 73.96 157.71" style="fill:#111b16"/><path d="M74,155.49v2.22l0,0,3.19-3.17v-1.37a1.09,1.09,0,0,0-.21-.64l-3,3Z" style="fill:#313832"/><polygon points="73.96 159.93 73.96 162.15 73.99 162.17 77.18 159 77.18 156.78 73.99 159.95 73.96 159.93" style="fill:#313832"/><polygon points="73.96 166.59 73.96 168.13 74.69 168.13 77.18 165.66 77.18 163.44 73.99 166.61 73.96 166.59" style="fill:#111b16"/><polygon points="73.96 162.15 73.96 164.37 73.99 164.39 77.18 161.22 77.18 159 73.99 162.17 73.96 162.15" style="fill:#111b16"/><polygon points="73.96 164.37 73.96 166.59 73.99 166.61 77.18 163.44 77.18 161.22 73.99 164.39 73.96 164.37" style="fill:#313832"/><polygon points="66.77 148.51 68.25 159.18 68.25 148.51 66.77 148.51" style="fill:#252827"/><polygon points="81.2 148.51 79.67 159.18 79.67 148.51 81.2 148.51" style="fill:#252827"/><path d="M74.71,146.59a.79.79,0,0,1-.75.82.82.82,0,1,1,.75-.82Z" style="fill:#2c2822"/><polygon points="77.37 137.8 78.72 137.8 77.37 141.09 79.01 143.82 73.99 143.82 73.99 137.8 77.37 137.8" style="fill:#1e110c"/><polygon points="66.77 143.82 70.6 141.09 68.96 143.82 66.77 143.82" style="fill:#5f4632"/><polygon points="77.37 141.09 81.2 143.82 79.01 143.82 77.37 141.09" style="fill:#5f4632"/><polygon points="69.25 137.8 69.25 142.05 70.6 141.09 69.25 137.8" style="fill:#493426"/><polygon points="78.72 137.8 78.72 142.05 77.37 141.09 78.72 137.8" style="fill:#493426"/><rect x="43.9" y="102.16" width="3.65" height="4.86" style="fill:#105b65"/><rect x="42.68" y="107.02" width="5.79" height="5.79" style="fill:#99bb59"/><rect x="40.71" y="112.82" width="9.74" height="3.26" style="fill:#ec8a3a"/><rect x="41.59" y="116.08" width="7.98" height="5.25" style="fill:#af546f"/><rect x="42.87" y="121.33" width="1.83" height="6.7" style="fill:#901c27"/><polygon points="44.7 125.88 39.24 125.88 44.7 139.7 44.7 125.88" style="fill:#806bac"/><rect x="46.41" y="121.33" width="1.83" height="6.7" style="fill:#901c27"/><polygon points="46.41 125.88 51.87 125.88 46.41 139.7 46.41 125.88" style="fill:#806bac"/><rect x="44.69" y="121.33" width="1.72" height="18.37" style="fill:#9f8068"/><rect x="44.24" y="130.04" width="2.6" height="10.35" style="fill:#2c1c12"/><polygon points="45.14 141.09 43.46 144.33 43.46 148.24 41.33 146.05 41.33 140.39 43.6 138.66 45.14 138.66 45.14 141.09" style="fill:#e86d24"/><polygon points="45.92 141.09 47.61 144.33 47.61 148.24 49.74 146.05 49.74 140.39 47.47 138.66 45.92 138.66 45.92 141.09" style="fill:#b25926"/><polygon points="41.75 140.07 41.75 137.05 42.69 137.05 42.69 139.35 41.75 140.07" style="fill:#2c1c12"/><polygon points="49.32 140.07 49.32 137.05 48.38 137.05 48.38 139.35 49.32 140.07" style="fill:#2c1c12"/><path d="M42.35,137.05h-.26V135.7a1.36,1.36,0,0,1,1.34-1.38h.81v.27h-.81a1.1,1.1,0,0,0-1.08,1.11Z" style="fill:#e86d24"/><path d="M48.72,137.05H49V135.7a1.36,1.36,0,0,0-1.34-1.38h-.81v.27h.81a1.1,1.1,0,0,1,1.08,1.11Z" style="fill:#e86d24"/><path d="M67,78.18H63.87a2,2,0,0,1-2-2V74.1a1.21,1.21,0,0,0-1.21-1.21H59.8a1.22,1.22,0,0,0-1.22,1.21,1.08,1.08,0,0,1-1.08,1.09H53.21V74.4H57.5a.29.29,0,0,0,.29-.3,2,2,0,0,1,2-2h.85a2,2,0,0,1,2,2v2.08a1.22,1.22,0,0,0,1.22,1.21H67Z" style="fill:#23849b"/><path d="M67,80H63.59a3.87,3.87,0,0,1-3.87-3.86V72A2.69,2.69,0,0,0,57,69.33H47.32v-.79H57A3.48,3.48,0,0,1,60.51,72v4.13a3.08,3.08,0,0,0,3.08,3.07H67Z" style="fill:#806bac"/><path d="M65.09,71.58H49.45v-.79H65.09a2.86,2.86,0,0,0,2.85-2.86V65.78h.79v2.15A3.65,3.65,0,0,1,65.09,71.58Z" style="fill:#a3b448"/><polygon points="71.76 65.78 70.08 73.29 73.99 73.29 73.99 65.78 71.76 65.78" style="fill:#2b2d2f"/><path d="M74,73.29H67.5s.34,9.1-7.53,17.78a25.13,25.13,0,0,0-5.53,9.68c-1.69,5.67-1.72,12.56,8.12,12.56H74Z" style="fill:#ed6555"/><path d="M60,91.07s-2-9.32,6.25-10.61l3,4.35Z" style="fill:#901c27"/><circle cx="58.14" cy="82.04" r="4.55" transform="translate(-41.27 66.89) rotate(-46.01)" style="fill:#451b46"/><polygon points="56.82 77.69 46.08 66.95 37.28 75.76 39.85 78.33 33.19 84.99 43.06 105.29 49.69 105.29 56.82 83.03 56.82 77.69" style="fill:#99bb59"/><polygon points="58.85 113.31 67.9 143.25 70.25 143.25 70.25 122.32 73.99 113.31 73.99 108.09 62.69 108.09 58.85 113.31" style="fill:#105b65"/><polygon points="69.19 84.81 62.69 108.09 73.99 108.09 73.99 84.81 69.19 84.81" style="fill:#23849b"/><polygon points="67.5 73.29 73.99 84.81 73.99 73.29 67.5 73.29" style="fill:#23849b"/><polygon points="58.85 113.31 70.25 122.32 73.89 113.31 73.89 108.09 62.69 108.09 58.85 113.31" style="fill:#003f42"/><path d="M60.22,39.1a1.3,1.3,0,1,1,1.43,1.29v7.4h2v.29h-2.3V40.39A1.3,1.3,0,0,1,60.22,39.1Z" style="fill:#060a0f"/><polygon points="65.12 49.35 63.26 48.77 63.26 47.05 70.14 47.05 70.14 49.35 65.12 49.35" style="fill:#060a0f"/><polygon points="39.85 78.33 56.82 83.03 56.82 77.69 46.08 66.95 37.28 75.76 39.85 78.33" style="fill:#79903b"/><polygon points="48.39 102.49 56.82 83.03 49.69 105.29 48.13 105.29 48.39 102.49" style="fill:#3b451e"/><polyline points="39.85 78.33 56.82 83.03 49.69 105.29 48.13 105.29 48.39 102.49 39.85 78.33 33.19 84.99 37.28 75.76" style="fill:#697833"/><rect x="100.42" y="102.16" width="3.65" height="4.86" transform="translate(204.5 209.18) rotate(180)" style="fill:#084d52"/><rect x="99.5" y="107.02" width="5.79" height="5.79" transform="translate(204.79 219.84) rotate(180)" style="fill:#859d49"/><rect x="97.53" y="112.82" width="9.74" height="3.26" transform="translate(204.79 228.89) rotate(180)" style="fill:#c9712d"/><rect x="98.4" y="116.08" width="7.98" height="5.25" transform="translate(204.79 237.41) rotate(180)" style="fill:#853653"/><rect x="103.28" y="121.33" width="1.83" height="6.7" style="fill:#771020"/><polygon points="103.28 125.88 108.73 125.88 103.28 139.7 103.28 125.88" style="fill:#594686"/><rect x="99.73" y="121.33" width="1.83" height="6.7" style="fill:#771020"/><polygon points="101.56 125.88 96.1 125.88 101.56 139.7 101.56 125.88" style="fill:#594686"/><rect x="101.56" y="121.33" width="1.72" height="18.37" transform="translate(204.84 261.03) rotate(180)" style="fill:#9f8068"/><rect x="101.14" y="130.04" width="2.6" height="10.35" transform="translate(204.88 270.42) rotate(180)" style="fill:#2c1c12"/><polygon points="102.83 141.09 104.51 144.33 104.51 148.24 106.64 146.05 106.64 140.39 104.38 138.66 102.83 138.66 102.83 141.09" style="fill:#c86228"/><polygon points="102.05 141.09 100.37 144.33 100.37 148.24 98.24 146.05 98.24 140.39 100.5 138.66 102.05 138.66 102.05 141.09" style="fill:#995022"/><polygon points="106.22 140.07 106.22 137.05 105.28 137.05 105.28 139.35 106.22 140.07" style="fill:#2c1c12"/><polygon points="98.65 140.07 98.65 137.05 99.59 137.05 99.59 139.35 98.65 140.07" style="fill:#2c1c12"/><path d="M105.62,137.05h.27V135.7a1.37,1.37,0,0,0-1.35-1.38h-.8v.27h.8a1.09,1.09,0,0,1,1.08,1.11Z" style="fill:#e86d24"/><path d="M99.26,137.05H99V135.7a1.37,1.37,0,0,1,1.35-1.38h.8v.27h-.8a1.09,1.09,0,0,0-1.08,1.11Z" style="fill:#e86d24"/><path d="M81,78.18h3.16a2,2,0,0,0,2-2V74.1a1.21,1.21,0,0,1,1.21-1.21h.86a1.21,1.21,0,0,1,1.21,1.21,1.09,1.09,0,0,0,1.09,1.09h4.29V74.4H90.48a.29.29,0,0,1-.3-.3,2,2,0,0,0-2-2h-.86a2,2,0,0,0-2,2v2.08a1.21,1.21,0,0,1-1.21,1.21H81Z" style="fill:#23849b"/><path d="M81,80h3.44a3.86,3.86,0,0,0,3.86-3.86V72a2.69,2.69,0,0,1,2.69-2.69h9.71v-.79H90.94A3.48,3.48,0,0,0,87.46,72v4.13a3.08,3.08,0,0,1-3.07,3.07H81Z" style="fill:#806bac"/><path d="M82.89,71.58H98.53v-.79H82.89A2.86,2.86,0,0,1,80,67.93V65.78h-.79v2.15A3.66,3.66,0,0,0,82.89,71.58Z" style="fill:#a3b448"/><polygon points="76.21 65.78 77.9 73.29 73.99 73.29 73.99 65.78 76.21 65.78" style="fill:#202223"/><path d="M74,73.29h6.48s-.33,9.1,7.54,17.78a25.26,25.26,0,0,1,5.53,9.68c1.69,5.67,1.72,12.56-8.12,12.56H74Z" style="fill:#d14c41"/><path d="M88,91.07s2-9.32-6.26-10.61l-3,4.35Z" style="fill:#7a1121"/><circle cx="89.84" cy="82.04" r="4.55" transform="translate(-31.78 85.41) rotate(-43.99)" style="fill:#340e37"/><polygon points="91.16 77.69 101.89 66.95 110.7 75.76 108.12 78.33 114.78 84.99 104.91 105.29 98.28 105.29 91.16 83.03 91.16 77.69" style="fill:#8da64d"/><polygon points="89.12 113.31 80.07 143.25 77.72 143.25 77.72 122.32 73.99 113.31 73.99 108.09 85.29 108.09 89.12 113.31" style="fill:#044046"/><polygon points="78.79 84.81 85.29 108.09 73.99 108.09 73.99 84.81 78.79 84.81" style="fill:#197985"/><polygon points="80.47 73.29 73.99 84.81 73.99 73.29 80.47 73.29" style="fill:#19707d"/><polygon points="89.12 113.31 77.72 122.32 74.09 113.31 74.09 108.09 85.29 108.09 89.12 113.31" style="fill:#002a2c"/><path d="M87.76,39.1a1.3,1.3,0,1,0-1.44,1.29v7.4h-2v.29h2.3V40.39A1.31,1.31,0,0,0,87.76,39.1Z" style="fill:#060a0f"/><polygon points="82.85 49.35 84.71 48.77 84.71 47.05 77.83 47.05 77.83 49.35 82.85 49.35" style="fill:#060a0f"/><polygon points="108.12 78.33 91.16 83.03 91.16 77.69 101.89 66.95 110.7 75.76 108.12 78.33" style="fill:#6e7d36"/><polygon points="99.58 102.49 91.16 83.03 98.28 105.29 99.84 105.29 99.58 102.49" style="fill:#3b451e"/><polyline points="108.12 78.33 91.16 83.03 98.28 105.29 99.84 105.29 99.58 102.49 108.12 78.33 114.78 84.99 110.7 75.76" style="fill:#505b27"/><polygon points="75.96 141.64 79.49 148.43 79.49 156.63 83.95 152.05 83.95 140.17 79.2 136.54 75.96 136.54 75.96 141.64" style="fill:#e86d24"/><polygon points="71.96 141.64 68.43 148.43 68.43 156.63 63.97 152.05 63.97 140.17 68.72 136.54 71.96 136.54 71.96 141.64" style="fill:#b25926"/><rect x="70.08" y="47.05" width="2.24" height="9.17" style="fill:#060a0f"/><rect x="75.66" y="47.05" width="2.24" height="9.17" style="fill:#060a0f"/><polygon points="66.57 57.67 66.57 65.78 71.76 65.78 73.99 68.45 73.99 68.45 73.99 57.67 66.57 57.67" style="fill:#cb7534"/><polygon points="73.99 57.67 73.99 68.45 76.21 65.78 81.41 65.78 81.41 57.67 73.99 57.67" style="fill:#b5662a"/><path d="M66.57,65.78s2,2.61.93,7.51h2.58l1.68-7.51Z" style="fill:#060a0f"/><path d="M81.41,65.78s-1.77,1.84-.94,7.51H77.9l-1.69-7.51Z" style="fill:#060a0f"/><path d="M65.94,96.45c0-.09,16.22,0,16.22,0L78.79,84.81h-9.6Z" style="fill:#202223"/><polygon points="70.28 87.57 73.96 92.22 77.72 87.57 70.28 87.57" style="fill:#ec8a3a"/><rect x="71.96" y="136.54" width="4" height="5.1" style="fill:#ec8a3a"/><polygon points="70.25 122.32 77.72 122.32 74.09 113.31 70.25 122.32" style="fill:#829b42"/><polygon points="70.25 122.32 70.28 136.54 77.72 136.54 77.72 122.32 70.25 122.32" style="fill:#99bb59"/><polygon points="40.17 72.87 40.17 68.95 44.31 68.72 40.17 72.87" style="fill:#000105"/><polygon points="107.36 72.6 107.36 68.68 103.22 68.45 107.36 72.6" style="fill:#000105"/><polygon points="83.95 143.38 85.67 145.12 83.95 146.83 83.95 143.38" style="fill:#000105"/><polygon points="63.97 143.38 62.26 145.12 63.97 146.83 63.97 143.38" style="fill:#000105"/></g></g></g></svg>