<svg xmlns="http://www.w3.org/2000/svg" xmlns:xlink="http://www.w3.org/1999/xlink" viewBox="0 0 148.25 207.55"><defs><linearGradient id="Degradado_sin_nombre_6" x1="-14.83" y1="192.72" x2="163.07" y2="14.83" gradientUnits="userSpaceOnUse"><stop offset="0" stop-color="aqua"/><stop offset="1" stop-color="blue"/></linearGradient></defs><title>Asset 155</title><g id="Layer_2" data-name="Layer 2"><g id="Layer_3" data-name="Layer 3"><rect width="148.25" height="207.55" style="fill:url(#Degradado_sin_nombre_6)"/><g style="opacity:0.45"><polygon points="81.46 42.48 74.61 42.48 9.2 107.89 9.2 114.74 81.46 42.48" style="fill:#00158e;opacity:0.2"/><polygon points="100.7 42.48 93.86 42.48 9.2 127.14 9.2 133.99 100.7 42.48" style="fill:#00158e;opacity:0.2"/><polygon points="62.21 42.48 55.36 42.48 9.2 88.64 9.2 95.49 62.21 42.48" style="fill:#00158e;opacity:0.2"/><polygon points="42.96 42.48 36.11 42.48 9.2 69.39 9.2 76.24 42.96 42.48" style="fill:#00158e;opacity:0.2"/><polygon points="23.71 42.48 16.86 42.48 9.2 50.15 9.2 56.99 23.71 42.48" style="fill:#00158e;opacity:0.2"/><path d="M109.19,42.48v3.91L12.91,142.68H9.2v30.51H139.91V42.48Zm0,100.2H96.75l12.44-12.45Zm0-19.3L89.9,142.68H77.5L109.19,111Zm0-19.24L70.65,142.68H58.25l50.94-50.94Zm0-19.25L51.4,142.68H39l70.19-70.19Zm0-19.25-77,77H19.75l89.44-89.44Z" style="fill:#00158e;opacity:0.2"/><polygon points="137.04 170.78 137.04 144.34 132.26 149.12 132.26 166 115.38 166 110.6 170.78 137.04 170.78" style="fill:#0751cf"/><rect x="138.48" y="73.94" width="2.99" height="35.67" style="fill:gold"/><rect x="138.48" y="116.78" width="2.99" height="4.98" style="fill:gold"/><rect x="27.5" y="172.37" width="48.42" height="2.39" style="fill:gold"/><polygon points="25 162.87 28.86 162.87 32.98 158.74 26.54 158.74 17.25 168.03 19.83 168.03 25 162.87" style="fill:gold"/><polygon points="33.37 162.87 37.23 162.87 41.35 158.74 34.91 158.74 25.63 168.03 28.21 168.03 33.37 162.87" style="fill:gold"/><polygon points="41.74 162.87 45.61 162.87 49.73 158.74 43.28 158.74 34 168.03 36.58 168.03 41.74 162.87" style="fill:gold"/><polygon points="50.12 162.87 53.98 162.87 58.1 158.74 51.66 158.74 42.37 168.03 44.95 168.03 50.12 162.87" style="fill:gold"/><polygon points="58.49 162.87 62.35 162.87 66.48 158.74 60.03 158.74 50.75 168.03 53.33 168.03 58.49 162.87" style="fill:gold"/><polygon points="66.87 162.87 70.73 162.87 74.85 158.74 68.41 158.74 59.12 168.03 61.7 168.03 66.87 162.87" style="fill:gold"/><polygon points="75.24 162.87 79.1 162.87 83.22 158.74 76.78 158.74 67.5 168.03 70.08 168.03 75.24 162.87" style="fill:gold"/><polygon points="83.62 162.87 87.48 162.87 91.6 158.74 85.16 158.74 75.87 168.03 78.45 168.03 83.62 162.87" style="fill:gold"/><path d="M126.23,37.77H111.29V34.19h14.94Zm-14.35-.6h13.75V34.78H111.88Z" style="fill:#0751cf"/><path d="M144,145.57h-2.59V134.21H144Zm-2-.6h1.4V134.81H142Z" style="fill:#0751cf"/><path d="M102.92,181.24H85.58v-3.79h17.34Zm-16.74-.6h16.14v-2.59H86.18Z" style="fill:#0751cf"/><path d="M17.24,180.44H10.66v-2.39h6.58Zm-6-.6h5.38v-1.2H11.26Z" style="fill:gold"/><path d="M6.88,168.88H4.49V149H6.88Zm-1.8-.6h1.2V149.55H5.08Z" style="fill:gold"/><polygon points="95.84 36.87 95.84 36.72 28.05 36.72 28.05 35.34 95.69 35.34 95.69 36.87 95.84 36.87 95.84 36.72 95.84 36.87 95.99 36.87 95.99 35.04 27.75 35.04 27.75 37.01 95.99 37.01 95.99 36.87 95.84 36.87" style="fill:gold"/></g><path d="M111.05,51a1.79,1.79,0,1,0-2,1.78V63H106.3v.41h3.18V52.77A1.78,1.78,0,0,0,111.05,51Z"/><polygon points="104.28 65.14 106.85 64.33 106.85 61.97 97.36 61.97 97.36 65.14 104.28 65.14"/><path d="M35.09,51a1.79,1.79,0,1,1,2,1.78V63h2.77v.41H36.67V52.77A1.78,1.78,0,0,1,35.09,51Z"/><polygon points="41.86 65.14 39.3 64.33 39.3 61.97 48.78 61.97 48.78 65.14 41.86 65.14"/><rect x="54.73" y="63.78" width="2.57" height="16.17" style="fill:#003a50"/><polygon points="54.73 63.78 54.73 59.12 47.41 59.12 42.65 63.88 54.73 63.78" style="fill:#ad5572"/><polygon points="54.73 59.12 57.3 63.78 54.73 63.78 54.73 59.12" style="fill:#003a50"/><path d="M42.65,63.88l-.45.41a4,4,0,0,0-.92,4.59l1.37,3L48.07,80h6.66V63.78Z" style="fill:#6f2343"/><rect x="47.26" y="96.12" width="6.33" height="1.95" style="fill:#bd923c"/><rect x="48.69" y="98.07" width="4.9" height="3.79" style="fill:#6f2343"/><polygon points="72.94 84.7 58.59 82.34 58.59 92.5 66.71 96.69 72.94 96.69 72.94 84.7" style="fill:#627d87"/><polygon points="72.94 64.58 72.94 84.8 61.43 84.87 55.59 79.95 55.59 64.83 56.68 62.66 63.19 58.54 72.94 64.58" style="fill:#f27065"/><polygon points="72.94 94.41 68.04 94.41 64.97 95.79 64.97 100.3 72.94 100.3 72.94 94.41" style="fill:#003a50"/><polygon points="72.94 100.3 64.97 100.3 60.8 104.48 60.8 122.18 59.01 122.18 59.01 131.6 61.2 131.6 70.71 122.08 70.71 118.71 72.94 116.72 72.94 100.3" style="fill:#4c8caf"/><polygon points="60.44 131.6 60.44 134.35 69.27 134.35 69.27 123.52 61.2 131.6 60.44 131.6" style="fill:#90857b"/><polygon points="62.61 157.66 61.01 157.66 57.68 163.55 72.23 163.55 72.23 161.56 62.61 157.66" style="fill:#70645a"/><polygon points="69.27 132.55 72.23 132.55 72.23 148.05 66.81 148.05 61.86 134.35 69.27 134.35 69.27 132.55" style="fill:#70645a"/><path d="M66.34,146.72h0l.47,1.33h5.42v13.51H67.05l-2.67-2.67H62.62v-8.43A3.73,3.73,0,0,1,66.34,146.72Z" style="fill:#90857b"/><rect x="57.68" y="163.55" width="14.55" height="4.47" style="fill:#52473e"/><polygon points="72.94 58.36 72.94 64.58 63.19 58.54 63.48 58.36 72.94 58.36" style="fill:#003a50"/><path d="M72.9,54v4.33H63.48l-.29.18-.1-.06a29.9,29.9,0,0,0,1.13-4c0-.14.06-.27.08-.41Z" style="fill:#0f647b"/><path d="M72.94,42.56v15.8h0V54H64.3a29.75,29.75,0,0,0,.55-5.73V42.56Z" style="fill:#0f6f9b"/><polygon points="72.94 71.06 59.01 61.19 56.68 62.66 55.59 64.83 72.94 77.53 72.94 71.06" style="fill:#6f2343"/><polygon points="72.94 77.53 70.41 75.67 61.43 84.87 72.94 84.8 72.94 77.53" style="fill:#c9df8c"/><polygon points="72.94 84.8 61.43 84.87 64.27 87.4 72.94 87.4 72.94 84.8" style="fill:#fbb44c"/><polygon points="58.59 82.34 58.59 92.5 64.27 87.4 58.59 82.34" style="fill:#003a50"/><polygon points="72.94 100.3 64.97 100.3 60.8 104.48 72.94 111.44 72.94 100.3" style="fill:#0f6f9b"/><polygon points="59.01 122.18 60.79 120.4 60.79 122.18 59.01 122.18" style="fill:#0f6f9b"/><polygon points="48.75 112.85 48.75 115.27 47.12 117.46 47.12 123.17 48.21 123.17 49.49 121.59 49.49 118.23 50.39 117.34 51.26 117.34 51.26 112.85 48.75 112.85" style="fill:#565959"/><polygon points="53.33 112.85 53.33 115.27 54.96 117.46 54.96 123.17 53.86 123.17 52.58 121.59 52.58 118.23 51.69 117.34 50.82 117.34 50.82 112.85 53.33 112.85" style="fill:#373838"/><path d="M53.94,111.63a2.9,2.9,0,1,1-2.9-2.9A2.9,2.9,0,0,1,53.94,111.63Z" style="fill:#4c8caf"/><rect x="50.21" y="98.07" width="1.62" height="13.78" style="fill:#4c8caf"/><polygon points="47.26 98.07 48.69 101.86 48.69 98.07 47.26 98.07" style="fill:#003a50"/><polygon points="53.59 101.86 55.41 100.03 55.3 82.34 53.59 96.12 53.59 101.86" style="fill:#003a50"/><polygon points="55.32 84.6 58.67 87.95 58.67 82.34 54.98 78.67 53.5 80.15 53.5 84.56 55.32 84.6" style="fill:#6f2343"/><path d="M51,78.05H45.65s.19,4,3.66,14.65l-2.05,3.42h6.37l2.19-18.07Z" style="fill:#fbb44c"/><polygon points="51 106.48 51 104.96 48.61 104.96 47.06 106.51 51 106.48" style="fill:#ad5572"/><path d="M47.06,106.51l-.14.14a1.3,1.3,0,0,0-.3,1.49l.44,1,1.77,2.63H51v-5.26Z" style="fill:#6f2343"/><polygon points="51 106.48 51 104.96 53.38 104.96 54.93 106.51 51 106.48" style="fill:#994a67"/><path d="M54.93,106.51l.15.14a1.28,1.28,0,0,1,.29,1.49l-.44,1-1.77,2.63H51v-5.26Z" style="fill:#591338"/><rect x="48.69" y="98.07" width="4.9" height="1.89" style="fill:#f27065"/><polygon points="45.65 78.05 54.73 63.78 54.73 78.05 45.65 78.05" style="fill:#003a50"/><rect x="70.09" y="117.42" width="1.5" height="15.13" style="fill:#003a50"/><polygon points="72.94 116.75 72.94 115.72 60.79 110 60.79 117.42 71.59 117.42 71.59 118.01 72.94 116.75" style="fill:#003a50"/><polygon points="64.85 134.35 72.23 141.67 72.23 148.05 66.81 148.05 61.86 134.35 64.85 134.35" style="fill:#0f6f9b"/><polygon points="72.23 149.71 67.42 149.71 66.81 148.05 72.23 148.05 72.23 149.71" style="fill:#003a50"/><path d="M55.39,63.78a.66.66,0,1,1-.66-.66A.66.66,0,0,1,55.39,63.78Z" style="fill:#6f2343"/><path d="M54.92,58.88h-.38v-.82a1,1,0,0,0-1-1h-5a1,1,0,0,0-1,1v.58h-.38v-.58a1.37,1.37,0,0,1,1.37-1.37h5a1.37,1.37,0,0,1,1.37,1.37Z" style="fill:#373838"/><path d="M48.28,59.12a1,1,0,1,1-1-.95A.95.95,0,0,1,48.28,59.12Z" style="fill:#6f2343"/><path d="M55.27,59.12a.54.54,0,1,1-.54-.54A.54.54,0,0,1,55.27,59.12Z" style="fill:#6f2343"/><path d="M64.36,52.42V52h-.82a1,1,0,0,1-1-1V46a1,1,0,0,1,1-1h.58v-.38h-.58A1.37,1.37,0,0,0,62.17,46v5a1.37,1.37,0,0,0,1.37,1.37Z" style="fill:#373838"/><path d="M64.6,45.78a1,1,0,1,0-1-1A.95.95,0,0,0,64.6,45.78Z" style="fill:#0f6f9b"/><path d="M64.6,52.77a.54.54,0,1,0-.55-.54A.54.54,0,0,0,64.6,52.77Z" style="fill:#0f6f9b"/><path d="M60.4,115.05v-.38h-.82a1,1,0,0,1-1-1v-5a1,1,0,0,1,1-1h.58v-.38h-.58a1.37,1.37,0,0,0-1.37,1.37v5a1.37,1.37,0,0,0,1.37,1.37Z" style="fill:#373838"/><circle cx="60.64" cy="107.46" r="0.95" style="fill:#373838"/><path d="M60.64,115.4a.54.54,0,0,0,0-1.08.54.54,0,1,0,0,1.08Z" style="fill:#373838"/><rect x="88.54" y="63.78" width="2.57" height="16.17" transform="translate(179.65 143.73) rotate(180)" style="fill:#002937"/><polygon points="91.11 63.78 91.11 59.12 98.43 59.12 103.19 63.88 91.11 63.78" style="fill:#924160"/><polygon points="91.11 59.12 88.54 63.78 91.11 63.78 91.11 59.12" style="fill:#002937"/><path d="M103.19,63.88l.45.41a4,4,0,0,1,.92,4.59l-1.37,3L97.77,80H91.11V63.78Z" style="fill:#5f1a3c"/><rect x="92.25" y="96.12" width="6.33" height="1.95" transform="translate(190.83 194.19) rotate(180)" style="fill:#9f7c33"/><rect x="92.25" y="98.07" width="4.9" height="3.79" transform="translate(189.4 199.93) rotate(180)" style="fill:#6f2343"/><polygon points="72.9 84.7 87.24 82.34 87.24 92.5 79.13 96.69 72.9 96.69 72.9 84.7" style="fill:#4c656d"/><polygon points="72.9 64.58 72.9 84.8 84.41 84.87 90.25 79.95 90.25 64.83 89.16 62.66 82.65 58.54 72.9 64.58" style="fill:#c95855"/><polygon points="72.9 94.41 77.8 94.41 80.86 95.79 80.86 100.3 72.9 100.3 72.9 94.41" style="fill:#002e3c"/><polygon points="72.9 100.3 80.86 100.3 85.04 104.48 85.04 122.18 86.83 122.18 86.83 131.6 84.64 131.6 75.13 122.08 75.13 118.71 72.9 116.72 72.9 100.3" style="fill:#3a7b8d"/><polygon points="85.4 131.6 85.4 134.35 76.57 134.35 76.57 123.52 84.64 131.6 85.4 131.6" style="fill:#71665a"/><polygon points="83.23 157.66 84.83 157.66 88.16 163.55 73.61 163.55 73.61 161.56 83.23 157.66" style="fill:#5a5048"/><polygon points="76.57 132.55 73.61 132.55 73.61 148.05 79.03 148.05 83.98 134.35 76.57 134.35 76.57 132.55" style="fill:#54493f"/><path d="M79.5,146.72h0L79,148.05H73.61v13.51h5.18l2.67-2.67h1.76v-8.43A3.73,3.73,0,0,0,79.5,146.72Z" style="fill:#7d7265"/><rect x="73.61" y="163.55" width="14.55" height="4.47" transform="translate(161.77 331.58) rotate(180)" style="fill:#3f352e"/><polygon points="72.9 58.36 72.9 64.58 82.65 58.54 82.36 58.36 72.9 58.36" style="fill:#002f3d"/><path d="M82.75,58.48l-.1.06-.29-.18H72.94V54h8.59l.09.41A29.9,29.9,0,0,0,82.75,58.48Z" style="fill:#074e5d"/><path d="M81.53,54H72.94v4.33h0V42.56H81V48.3A30.56,30.56,0,0,0,81.53,54Z" style="fill:#106179"/><polygon points="72.9 71.06 86.83 61.19 89.16 62.66 90.25 64.83 72.9 77.53 72.9 71.06" style="fill:#5c183a"/><polygon points="72.9 77.53 75.43 75.67 84.41 84.87 72.9 84.8 72.9 77.53" style="fill:#b0c277"/><polygon points="72.9 84.8 84.41 84.87 81.57 87.4 72.9 87.4 72.9 84.8" style="fill:#d2943a"/><polygon points="87.24 82.34 87.24 92.5 81.57 87.4 87.24 82.34" style="fill:#002431"/><polygon points="72.9 100.3 80.86 100.3 85.04 104.48 72.9 111.44 72.9 100.3" style="fill:#0d6180"/><polygon points="86.83 122.18 85.05 120.4 85.05 122.18 86.83 122.18" style="fill:#0f6f9b"/><polygon points="97.09 112.85 97.09 115.27 98.72 117.46 98.72 123.17 97.63 123.17 96.34 121.59 96.34 118.23 95.45 117.34 94.58 117.34 94.58 112.85 97.09 112.85" style="fill:#565959"/><polygon points="92.51 112.85 92.51 115.27 90.88 117.46 90.88 123.17 91.98 123.17 93.26 121.59 93.26 118.23 94.15 117.34 95.02 117.34 95.02 112.85 92.51 112.85" style="fill:#373838"/><path d="M91.9,111.63a2.9,2.9,0,1,0,2.9-2.9A2.9,2.9,0,0,0,91.9,111.63Z" style="fill:#4c8caf"/><rect x="94" y="98.07" width="1.62" height="13.78" transform="translate(189.63 209.92) rotate(180)" style="fill:#397991"/><polygon points="98.58 98.07 97.15 101.86 97.15 98.07 98.58 98.07" style="fill:#002f3d"/><polygon points="92.25 101.86 90.43 100.03 90.54 82.34 92.25 96.12 92.25 101.86" style="fill:#002331"/><polygon points="90.52 84.6 87.17 87.95 87.17 82.34 90.86 78.67 92.34 80.15 92.34 84.56 90.52 84.6" style="fill:#6f2343"/><path d="M94.87,78.05h5.32s-.19,4-3.66,14.65l2,3.42H92.2L90,78.05Z" style="fill:#c68a39"/><polygon points="94.84 106.48 94.84 104.96 97.23 104.96 98.77 106.51 94.84 106.48" style="fill:#ad5572"/><path d="M98.77,106.51l.15.14a1.3,1.3,0,0,1,.3,1.49l-.45,1L97,111.74H94.84v-5.26Z" style="fill:#6f2343"/><polygon points="94.84 106.48 94.84 104.96 92.46 104.96 90.91 106.51 94.84 106.48" style="fill:#994a67"/><path d="M90.91,106.51l-.15.14a1.3,1.3,0,0,0-.3,1.49l.45,1,1.76,2.63h2.17v-5.26Z" style="fill:#591338"/><rect x="92.25" y="98.07" width="4.9" height="1.89" transform="translate(189.4 198.03) rotate(180)" style="fill:#c75450"/><polygon points="100.19 78.05 91.11 63.78 91.11 78.05 100.19 78.05" style="fill:#002937"/><rect x="74.25" y="117.42" width="1.5" height="15.13" transform="translate(149.99 249.97) rotate(180)" style="fill:#002e3c"/><polygon points="72.9 116.75 72.9 115.72 85.05 110 85.05 117.42 74.25 117.42 74.25 118.01 72.9 116.75" style="fill:#002e3c"/><polygon points="80.99 134.35 73.61 141.67 73.61 148.05 79.03 148.05 83.98 134.35 80.99 134.35" style="fill:#13688a"/><polygon points="73.61 149.71 78.42 149.71 79.03 148.05 73.61 148.05 73.61 149.71" style="fill:#002e3c"/><path d="M90.45,63.78a.66.66,0,1,0,.66-.66A.66.66,0,0,0,90.45,63.78Z" style="fill:#6f2343"/><path d="M90.92,58.88h.38v-.82a1,1,0,0,1,1-1h5a1,1,0,0,1,1,1v.58h.38v-.58a1.38,1.38,0,0,0-1.37-1.37h-5a1.37,1.37,0,0,0-1.37,1.37Z" style="fill:#373838"/><path d="M97.56,59.12a.95.95,0,1,0,1-.95A.95.95,0,0,0,97.56,59.12Z" style="fill:#6f2343"/><path d="M90.57,59.12a.54.54,0,1,0,.54-.54A.54.54,0,0,0,90.57,59.12Z" style="fill:#6f2343"/><path d="M81.48,52.42V52h.82a1,1,0,0,0,1-1V46a1,1,0,0,0-1-1h-.58v-.38h.58A1.37,1.37,0,0,1,83.67,46v5a1.37,1.37,0,0,1-1.37,1.37Z" style="fill:#373838"/><path d="M81.24,45.78a1,1,0,1,1,1-1A.95.95,0,0,1,81.24,45.78Z" style="fill:#106179"/><path d="M81.24,52.77a.54.54,0,0,1,0-1.08.54.54,0,1,1,0,1.08Z" style="fill:#106179"/><path d="M85.44,115.05v-.38h.82a1,1,0,0,0,1-1v-5a1,1,0,0,0-1-1h-.58v-.38h.58a1.37,1.37,0,0,1,1.37,1.37v5a1.37,1.37,0,0,1-1.37,1.37Z" style="fill:#373838"/><circle cx="85.2" cy="107.46" r="0.95" style="fill:#373838"/><path d="M85.2,115.4a.54.54,0,1,1,.54-.54A.54.54,0,0,1,85.2,115.4Z" style="fill:#373838"/><line x1="72.94" y1="54.03" x2="72.9" y2="54.03" style="fill:none"/><line x1="84.81" y1="54.03" x2="81.53" y2="54.03" style="fill:none"/><line x1="64.3" y1="54.03" x2="63.09" y2="54.03" style="fill:none"/><rect x="69.54" y="44.38" width="1.38" height="6.63" style="fill:#003a50"/><rect x="74.51" y="44.38" width="1.38" height="6.63" style="fill:#003a50"/><path d="M95.17,79.73h0a2.41,2.41,0,0,0-2.57,3.09c.11.5.46.79.56,1.36a.84.84,0,0,0,.46.6c.35.17.74.36.82.77a2,2,0,0,1,0,.25h1.47a2,2,0,0,1,0-.25c.08-.41.47-.6.83-.77a.77.77,0,0,0,.44-.6c.12-.57.46-.86.58-1.36A2.42,2.42,0,0,0,95.17,79.73Zm-1,3.68a.65.65,0,1,1,.67-.65A.66.66,0,0,1,94.12,83.41Zm1,1.28h0a.77.77,0,0,1-.44-.49c0-.21.22-.81.39-.72l0,0h0l.07,0c.17-.09.39.51.39.72A.78.78,0,0,1,95.17,84.69Zm1.07-1.28a.65.65,0,1,1,0-1.29.65.65,0,1,1,0,1.29Z" style="fill:#32001f"/><path d="M51,79.73h0a2.41,2.41,0,0,0-2.58,3.09c.12.5.46.79.57,1.36a.81.81,0,0,0,.45.6c.36.17.74.36.82.77a1,1,0,0,1,0,.25h1.47v-.25c.09-.41.47-.6.83-.77a.81.81,0,0,0,.45-.6c.11-.57.45-.86.57-1.36A2.41,2.41,0,0,0,51,79.73Zm-1.06,3.68a.65.65,0,1,1,0-1.29.65.65,0,1,1,0,1.29ZM51,84.69h0a.78.78,0,0,1-.45-.49c0-.21.22-.81.4-.72l.05,0h0l.06,0c.18-.09.4.51.39.72A.76.76,0,0,1,51,84.69Zm1.06-1.28a.65.65,0,1,1,0-1.29.65.65,0,1,1,0,1.29Z" style="fill:#5f1b3f"/><polygon points="70.41 75.67 72.9 71.06 75.43 75.67 72.9 77.53 70.41 75.67" style="fill:#fbb44c"/></g></g></svg>