<svg xmlns="http://www.w3.org/2000/svg" xmlns:xlink="http://www.w3.org/1999/xlink" viewBox="0 0 148.25 207.55"><defs><linearGradient id="Degradado_sin_nombre_6" x1="-14.83" y1="192.72" x2="163.07" y2="14.83" gradientUnits="userSpaceOnUse"><stop offset="0" stop-color="aqua"/><stop offset="1" stop-color="blue"/></linearGradient></defs><title>Asset 128</title><g id="Layer_2" data-name="Layer 2"><g id="Layer_3" data-name="Layer 3"><rect width="148.25" height="207.55" style="fill:url(#Degradado_sin_nombre_6)"/><g style="opacity:0.45"><polygon points="81.46 42.48 74.61 42.48 9.2 107.89 9.2 114.74 81.46 42.48" style="fill:#00158e;opacity:0.2"/><polygon points="100.7 42.48 93.86 42.48 9.2 127.14 9.2 133.99 100.7 42.48" style="fill:#00158e;opacity:0.2"/><polygon points="62.21 42.48 55.36 42.48 9.2 88.64 9.2 95.49 62.21 42.48" style="fill:#00158e;opacity:0.2"/><polygon points="42.96 42.48 36.11 42.48 9.2 69.39 9.2 76.24 42.96 42.48" style="fill:#00158e;opacity:0.2"/><polygon points="23.71 42.48 16.86 42.48 9.2 50.15 9.2 56.99 23.71 42.48" style="fill:#00158e;opacity:0.2"/><path d="M109.19,42.48v3.91L12.91,142.68H9.2v30.51H139.91V42.48Zm0,100.2H96.75l12.44-12.45Zm0-19.3L89.9,142.68H77.5L109.19,111Zm0-19.24L70.65,142.68H58.25l50.94-50.94Zm0-19.25L51.4,142.68H39l70.19-70.19Zm0-19.25-77,77H19.75l89.44-89.44Z" style="fill:#00158e;opacity:0.2"/><polygon points="137.04 170.78 137.04 144.34 132.26 149.12 132.26 166 115.38 166 110.6 170.78 137.04 170.78" style="fill:#0751cf"/><rect x="138.48" y="73.94" width="2.99" height="35.67" style="fill:gold"/><rect x="138.48" y="116.78" width="2.99" height="4.98" style="fill:gold"/><rect x="27.5" y="172.37" width="48.42" height="2.39" style="fill:gold"/><polygon points="25 162.87 28.86 162.87 32.98 158.74 26.54 158.74 17.25 168.03 19.83 168.03 25 162.87" style="fill:gold"/><polygon points="33.37 162.87 37.23 162.87 41.35 158.74 34.91 158.74 25.63 168.03 28.21 168.03 33.37 162.87" style="fill:gold"/><polygon points="41.74 162.87 45.61 162.87 49.73 158.74 43.28 158.74 34 168.03 36.58 168.03 41.74 162.87" style="fill:gold"/><polygon points="50.12 162.87 53.98 162.87 58.1 158.74 51.66 158.74 42.37 168.03 44.95 168.03 50.12 162.87" style="fill:gold"/><polygon points="58.49 162.87 62.35 162.87 66.48 158.74 60.03 158.74 50.75 168.03 53.33 168.03 58.49 162.87" style="fill:gold"/><polygon points="66.87 162.87 70.73 162.87 74.85 158.74 68.41 158.74 59.12 168.03 61.7 168.03 66.87 162.87" style="fill:gold"/><polygon points="75.24 162.87 79.1 162.87 83.22 158.74 76.78 158.74 67.5 168.03 70.08 168.03 75.24 162.87" style="fill:gold"/><polygon points="83.62 162.87 87.48 162.87 91.6 158.74 85.16 158.74 75.87 168.03 78.45 168.03 83.62 162.87" style="fill:gold"/><path d="M126.23,37.77H111.29V34.19h14.94Zm-14.35-.6h13.75V34.78H111.88Z" style="fill:#0751cf"/><path d="M144,145.57h-2.59V134.21H144Zm-2-.6h1.4V134.81H142Z" style="fill:#0751cf"/><path d="M102.92,181.24H85.58v-3.79h17.34Zm-16.74-.6h16.14v-2.59H86.18Z" style="fill:#0751cf"/><path d="M17.24,180.44H10.66v-2.39h6.58Zm-6-.6h5.38v-1.2H11.26Z" style="fill:gold"/><path d="M6.88,168.88H4.49V149H6.88Zm-1.8-.6h1.2V149.55H5.08Z" style="fill:gold"/><polygon points="95.84 36.87 95.84 36.72 28.05 36.72 28.05 35.34 95.69 35.34 95.69 36.87 95.84 36.87 95.84 36.72 95.84 36.87 95.99 36.87 95.99 35.04 27.75 35.04 27.75 37.01 95.99 37.01 95.99 36.87 95.84 36.87" style="fill:gold"/></g><path d="M87.28,34.75a1.56,1.56,0,1,0-3.11,0,1.64,1.64,0,0,0,1.39,1.67V46h-2.4v.38h2.75v-10A1.63,1.63,0,0,0,87.28,34.75Z" style="fill:#060a0f"/><polygon points="81.4 48.01 83.63 47.25 83.63 45.04 75.39 45.04 75.39 48.01 81.4 48.01" style="fill:#060a0f"/><path d="M59,34.75a1.56,1.56,0,1,1,3.11,0,1.64,1.64,0,0,1-1.39,1.67V46h2.4v.38H60.34v-10A1.63,1.63,0,0,1,59,34.75Z" style="fill:#060a0f"/><polygon points="64.85 48.01 62.62 47.25 62.62 45.04 70.86 45.04 70.86 48.01 64.85 48.01" style="fill:#060a0f"/><polygon points="41.17 80.58 41.17 95.85 46.31 95.85 49.16 81.59 41.17 80.58" style="fill:#3c3936"/><rect x="41.99" y="99.27" width="3.48" height="13.38" style="fill:#767570"/><path d="M42.54,107.13l2.91.16a1.28,1.28,0,0,1,1.1,1.5l-1.59,9-3-.16-.67-9.09A1.26,1.26,0,0,1,42.54,107.13Z" style="fill:#1e1d1c"/><polygon points="45.74 124.07 40.51 123.79 40.8 116.78 46.02 117.05 45.74 124.07" style="fill:#60605e"/><path d="M43.08,123.93a4.76,4.76,0,0,1,0,.95,1.69,1.69,0,0,1-.72,1.34c-.87.54-2.34,2.2-2.76,7.24a.43.43,0,0,1-.42.42h0a.84.84,0,0,1-.74-.92l.28-6.77a1.43,1.43,0,0,1,.37-.92l1.43-1.48Z" style="fill:#aeb1b0"/><path d="M42.89,123.92a4.45,4.45,0,0,0-.08.94,1.67,1.67,0,0,0,.69,1.42c.92.63,2.43,2.45,2.45,7.52a.47.47,0,0,0,.44.46h0a.85.85,0,0,0,.9-.83l.28-6.78a1.39,1.39,0,0,0-.34-1l-1.46-1.63Z" style="fill:#9a9f9a"/><path d="M47.09,102.1l-2.74,2.54c-1.6,1.48-4,.18-4-2.17V95.85h6.73Z" style="fill:#0c0a0d"/><path d="M65.21,157.86h-.34v-1.42h.34a4.32,4.32,0,0,0,4.32-4.32V143a4.28,4.28,0,0,0-1-2.76L66.63,138l1.09-.91,1.9,2.3A5.75,5.75,0,0,1,70.94,143v9.09A5.74,5.74,0,0,1,65.21,157.86Z"/><polygon points="70.87 36.2 66.82 40.55 73.34 40.55 73.34 48.35 70.8 44.94 66.35 44.94 65.84 50.75 69.61 55.93 73.35 55.93 73.35 36.2 70.87 36.2" style="fill:#767570"/><polygon points="73.34 48.35 73.34 40.55 66.82 40.55 66.72 40.65 66.35 44.94 70.8 44.94 73.34 48.35" style="fill:#0c0a0d"/><polygon points="65.93 50.31 63.06 50.31 56.47 56.19 56.47 67.6 58.77 79.48 73.32 61.37 70.13 55.93 65.93 50.31" style="fill:#60605e"/><polygon points="56.47 55.93 51.18 55.56 51.18 72.21 56.47 67.6 56.47 55.93" style="fill:#2d2e2e"/><polygon points="51.18 60.59 37.26 60.59 45.11 54.15 51.18 54.15 51.18 60.59" style="fill:#3c3936"/><polygon points="37.26 60.59 37.26 69.49 40.92 76.76 51.18 76.76 51.18 60.59 37.26 60.59" style="fill:#1e1d1c"/><polygon points="40.92 76.76 51.07 86.9 51.07 76.76 40.92 76.76" style="fill:#3c3936"/><polygon points="40.92 76.76 39.49 83.33 44.91 91.11 51.07 86.9 40.92 76.76" style="fill:#56524c"/><polygon points="39.49 83.33 39.49 95.82 41.84 95.82 44.91 91.11 39.49 83.33" style="fill:#1e1d1c"/><polygon points="41.84 95.82 47.61 95.82 51.07 86.9 44.91 91.11 44.22 92.16 41.84 95.82" style="fill:#3c3936"/><polygon points="58.77 79.48 58.77 82.63 65.47 86 73.32 86 73.32 61.37 58.77 79.48" style="fill:#3c3936"/><polygon points="58.77 82.63 57.62 82.63 57.62 86.9 68.46 92.05 73.32 92.05 73.32 86 65.47 86 58.77 82.63" style="fill:#60605e"/><polygon points="60.84 88.43 59.12 91.11 63.2 95.82 66.05 90.9 60.84 88.43" style="fill:#4f4f4e"/><polygon points="59.12 91.11 55.74 96.84 69.32 111.91 71.75 106.96 63.2 95.82 59.12 91.11" style="fill:#3c3936"/><polygon points="71.75 106.96 73.13 105.59 73.13 100.61 66.87 100.61 71.75 106.96" style="fill:#1e1d1c"/><polygon points="73.13 100.61 73.13 92.05 68.46 92.05 66.05 90.9 63.2 95.82 66.87 100.61 73.13 100.61" style="fill:#0c0a0d"/><polygon points="57.62 98.93 57.62 101.51 53.07 101.51 53.07 106.1 54.48 106.1 57.62 127.92 64.89 125.02 66.87 121.49 66.22 120.84 69.32 111.91 57.62 98.93" style="fill:#0c0a0d"/><path d="M64.89,125l-8.26,3.29a2.82,2.82,0,0,0-1.31,4.18,21.17,21.17,0,0,1,3.43,10.82Z" style="fill:#3c3936"/><polygon points="66.87 121.49 70 124.7 67.44 138.36 59.87 151 57.31 147.55 64.89 125.02 66.87 121.49" style="fill:#2e2a29"/><polygon points="59.87 151 59.87 156.42 66.26 156.42 66.26 140.33 59.87 151" style="fill:#191819"/><rect x="58.41" y="156.42" width="9.18" height="4.95" style="fill:#191819"/><rect x="58.41" y="161.36" width="9.18" height="4.55" style="fill:#3c3936"/><polygon points="59.8 162.7 58.15 162.7 54.85 169.91 59.8 169.91 59.8 162.7" style="fill:#191819"/><polygon points="66.21 162.7 67.86 162.7 71.15 169.91 66.21 169.91 66.21 162.7" style="fill:#191819"/><polygon points="62.58 169.91 63.43 169.91 65.13 162.7 63.43 162.7 62.58 162.7 60.87 162.7 62.58 169.91" style="fill:#191819"/><path d="M69.13,106.27l-.22-.08-.29.9.21.07a2.89,2.89,0,0,1,1.85,3.65l-1.89,5.78a2.91,2.91,0,0,1-1.21,1.55l-1.69,1.06.51.8,1.69-1.06a3.88,3.88,0,0,0,1.6-2l1.89-5.79A3.82,3.82,0,0,0,69.13,106.27Z"/><path d="M70.25,106.63a1.42,1.42,0,1,1-1.42-1.42A1.42,1.42,0,0,1,70.25,106.63Z"/><path d="M55.35,101.51a2.28,2.28,0,1,1-2.28-2.28A2.28,2.28,0,0,1,55.35,101.51Z" style="fill:#0c0a0d"/><path d="M54.59,106.1a1.52,1.52,0,1,1-1.52-1.52A1.52,1.52,0,0,1,54.59,106.1Z" style="fill:#0c0a0d"/><path d="M39.54,60.59a2.28,2.28,0,1,1-2.28-2.28A2.28,2.28,0,0,1,39.54,60.59Z" style="fill:#1e1d1c"/><polygon points="51.18 54.15 56.47 55.93 51.18 55.56 51.18 54.15" style="fill:#0c0a0d"/><path d="M66.8,86a1.34,1.34,0,1,1-1.33-1.33A1.33,1.33,0,0,1,66.8,86Z" style="fill:#1e1d1c"/><circle cx="56.47" cy="67.34" r="1.33" style="fill:#1e1d1c"/><path d="M57.8,55.93a1.34,1.34,0,1,1-1.33-1.33A1.34,1.34,0,0,1,57.8,55.93Z" style="fill:#1e1d1c"/><path d="M66.79,50.31a.86.86,0,1,1-1.71,0,.85.85,0,0,1,.85-.85A.86.86,0,0,1,66.79,50.31Z" style="fill:#1e1d1c"/><path d="M73.35,62.86V55.93H69.28S73.74,62.46,73.35,62.86Z" style="fill:#0c0a0d"/><polygon points="65.47 56.54 59.33 63.1 73.35 77.5 73.35 64.39 65.47 56.54" style="fill:#0c0a0d"/><polygon points="105.47 80.57 105.47 95.85 100.33 95.85 97.47 81.58 105.47 80.57" style="fill:#3c3936"/><rect x="101.18" y="99.27" width="3.48" height="13.38" transform="translate(205.83 211.92) rotate(180)" style="fill:#5b5b58"/><path d="M104.1,107.13l-2.91.15a1.28,1.28,0,0,0-1.1,1.5l1.59,9,3-.15.67-9.09A1.25,1.25,0,0,0,104.1,107.13Z" style="fill:#020409"/><polygon points="100.9 124.07 106.13 123.79 105.84 116.77 100.62 117.05 100.9 124.07" style="fill:#020409"/><path d="M103.56,123.93a5.39,5.39,0,0,0,0,.95,1.7,1.7,0,0,0,.73,1.33c.87.55,2.34,2.21,2.76,7.25a.42.42,0,0,0,.42.42h0a.85.85,0,0,0,.74-.92l-.28-6.78a1.41,1.41,0,0,0-.37-.91l-1.43-1.48Z" style="fill:#aeb1b0"/><path d="M103.75,123.92a4.38,4.38,0,0,1,.08.94,1.64,1.64,0,0,1-.69,1.41c-.92.64-2.43,2.46-2.45,7.52a.48.48,0,0,1-.44.47h0a.86.86,0,0,1-.9-.83l-.28-6.78a1.37,1.37,0,0,1,.34-1l1.46-1.63Z" style="fill:#9a9f9a"/><path d="M99.55,102.09l2.73,2.54c1.61,1.49,4,.19,4-2.17V95.85H99.55Z"/><path d="M81.43,157.85h.34v-1.41h-.34a4.33,4.33,0,0,1-4.32-4.32V143a4.28,4.28,0,0,1,1-2.76L80,138l-1.09-.9-1.9,2.3A5.73,5.73,0,0,0,75.7,143v9.09A5.74,5.74,0,0,0,81.43,157.85Z"/><polygon points="75.77 36.2 79.82 40.54 73.3 40.54 73.3 48.35 75.84 44.94 80.29 44.94 80.8 50.75 77.03 55.93 73.29 55.93 73.29 36.2 75.77 36.2" style="fill:#4b4c48"/><polygon points="73.3 48.35 73.3 40.54 79.82 40.54 79.91 40.65 80.29 44.94 75.84 44.94 73.3 48.35" style="fill:#0c0a0d"/><polygon points="80.71 50.31 83.58 50.31 90.17 56.19 90.17 67.6 87.87 79.48 73.32 61.37 76.51 55.93 80.71 50.31" style="fill:#3c3936"/><polygon points="90.17 55.93 95.46 55.56 95.46 72.2 90.17 67.6 90.17 55.93" style="fill:#131518"/><polygon points="95.46 60.59 109.38 60.59 101.53 54.15 95.46 54.15 95.46 60.59" style="fill:#252424"/><polygon points="109.38 60.59 109.38 69.48 105.72 76.76 95.46 76.76 95.46 60.59 109.38 60.59" style="fill:#020409"/><polygon points="105.72 76.76 95.57 86.9 95.57 76.76 105.72 76.76" style="fill:#201d1c"/><polygon points="105.72 76.76 107.15 83.33 101.73 91.1 95.57 86.9 105.72 76.76" style="fill:#433d3a"/><polygon points="107.15 83.33 107.15 95.81 104.8 95.81 101.73 91.1 107.15 83.33" style="fill:#06060b"/><polygon points="104.8 95.81 99.03 95.81 95.57 86.9 101.73 91.1 102.42 92.16 104.8 95.81" style="fill:#292624"/><polygon points="87.87 79.48 87.87 82.63 81.17 86 73.32 86 73.32 61.37 87.87 79.48" style="fill:#252221"/><polygon points="87.87 82.63 89.02 82.63 89.02 86.9 78.18 92.05 73.32 92.05 73.32 86 81.17 86 87.87 82.63" style="fill:#4d4d4b"/><polygon points="85.8 88.43 87.52 91.1 83.44 95.81 80.59 90.9 85.8 88.43" style="fill:#3c3c3b"/><polygon points="87.52 91.1 90.9 96.83 77.32 111.91 74.89 106.96 83.44 95.81 87.52 91.1" style="fill:#252424"/><polygon points="74.89 106.96 73.51 105.59 73.51 100.6 79.77 100.6 74.89 106.96" style="fill:#0c0a0d"/><polygon points="73.51 100.6 73.51 92.05 78.18 92.05 80.59 90.9 83.44 95.81 79.77 100.6 73.51 100.6"/><polygon points="89.02 98.92 89.02 101.5 93.57 101.5 93.57 106.1 92.16 106.1 89.02 127.92 81.75 125.02 79.77 121.48 80.42 120.83 77.32 111.91 89.02 98.92"/><path d="M81.75,125,90,128.31a2.82,2.82,0,0,1,1.31,4.18,21.17,21.17,0,0,0-3.43,10.82Z" style="fill:#201d1c"/><polygon points="79.77 121.48 76.64 124.7 79.2 138.36 86.77 151 89.33 147.54 81.75 125.02 79.77 121.48" style="fill:#1a1717"/><polygon points="86.77 151 86.77 156.42 80.38 156.42 80.38 140.33 86.77 151"/><rect x="79.05" y="156.42" width="9.18" height="4.95" transform="translate(167.28 317.78) rotate(180)"/><rect x="79.05" y="161.36" width="9.18" height="4.55" transform="translate(167.28 327.28) rotate(180)" style="fill:#292624"/><polygon points="86.84 162.7 88.49 162.7 91.79 169.91 86.84 169.91 86.84 162.7"/><polygon points="80.43 162.7 78.78 162.7 75.49 169.91 80.43 169.91 80.43 162.7"/><polygon points="84.06 169.91 83.21 169.91 81.51 162.7 83.21 162.7 84.06 162.7 85.77 162.7 84.06 169.91"/><path d="M77.51,106.26l.22-.07.29.9-.21.07A2.89,2.89,0,0,0,76,110.81l1.89,5.78a2.91,2.91,0,0,0,1.21,1.55l1.68,1.06-.5.8-1.69-1.06a3.9,3.9,0,0,1-1.6-2.06l-1.89-5.78A3.84,3.84,0,0,1,77.51,106.26Z"/><path d="M76.39,106.62a1.42,1.42,0,1,0,1.42-1.41A1.42,1.42,0,0,0,76.39,106.62Z"/><path d="M91.29,101.5a2.28,2.28,0,1,0,2.28-2.27A2.28,2.28,0,0,0,91.29,101.5Z" style="fill:#0c0a0d"/><circle cx="93.57" cy="106.1" r="1.52" style="fill:#0c0a0d"/><path d="M107.1,60.59a2.28,2.28,0,1,0,2.28-2.28A2.28,2.28,0,0,0,107.1,60.59Z" style="fill:#1e1d1c"/><polygon points="95.46 54.15 90.17 55.93 95.46 55.56 95.46 54.15" style="fill:#0c0a0d"/><circle cx="81.17" cy="86" r="1.33" style="fill:#1e1d1c"/><path d="M88.84,67.34A1.34,1.34,0,1,0,90.17,66,1.33,1.33,0,0,0,88.84,67.34Z" style="fill:#1e1d1c"/><circle cx="90.17" cy="55.93" r="1.33" style="fill:#1e1d1c"/><path d="M79.85,50.31a.86.86,0,1,0,1.71,0,.85.85,0,0,0-.85-.85A.86.86,0,0,0,79.85,50.31Z" style="fill:#1e1d1c"/><path d="M73.35,62.86V55.93h4.06S73,62.46,73.35,62.86Z" style="fill:#0c0a0d"/><polygon points="81.17 56.54 87.31 63.1 73.29 77.5 73.29 64.39 81.17 56.54"/><rect x="72.65" y="91.97" width="1.38" height="14.23" style="fill:#60605e"/></g></g></svg>