<svg xmlns="http://www.w3.org/2000/svg" xmlns:xlink="http://www.w3.org/1999/xlink" viewBox="0 0 148.25 207.55"><defs><linearGradient id="Degradado_sin_nombre_2" x1="139.68" y1="-0.46" x2="6.35" y2="211.54" gradientUnits="userSpaceOnUse"><stop offset="0" stop-color="#0fc"/><stop offset="1" stop-color="#ffee02"/></linearGradient><linearGradient id="Degradado_sin_nombre_2-2" x1="28.36" y1="196.65" x2="159.15" y2="65.86" xlink:href="#Degradado_sin_nombre_2"/><linearGradient id="Degradado_sin_nombre_2-3" x1="151.62" y1="81.54" x2="79.62" y2="213.54" xlink:href="#Degradado_sin_nombre_2"/></defs><title>Asset 163</title><g id="Layer_2" data-name="Layer 2"><g id="Layer_3" data-name="Layer 3"><rect width="148.25" height="207.55" style="fill:url(#Degradado_sin_nombre_2)"/><rect x="39.26" y="54.96" width="108.99" height="152.59" style="fill:url(#Degradado_sin_nombre_2-2)"/><rect x="74.13" y="103.78" width="74.13" height="103.78" style="fill:url(#Degradado_sin_nombre_2-3)"/><g style="opacity:0.45"><polygon points="8.29 29.81 8.29 69.47 16 77.19 16 122.11 20.18 126.3 20.18 144.42 12.28 144.42 12.28 157.13 8.29 157.13 8.29 165.32 143.8 165.32 143.8 72.95 100.65 29.81 8.29 29.81" style="fill:#2c2c30;opacity:0.2"/><polygon points="106.78 29.81 143.8 66.82 143.8 29.81 106.78 29.81" style="fill:#2c2c30"/><path d="M138.82,77.07,97.09,35.34l-.22-.09H18.79l-.22.09-.09.22v6.2l.09.22.22.09H87.32a1.39,1.39,0,0,0,1.34,1.09,1.4,1.4,0,1,0,0-2.8,1.39,1.39,0,0,0-1.34,1.09H19.1V35.87H96.74l41.55,41.55v80.64H64.34l-.22.09L53.78,168.49H14.29A1.37,1.37,0,0,0,13,167.4a1.4,1.4,0,1,0,0,2.8,1.37,1.37,0,0,0,1.33-1.09H53.91l.22-.09,10.34-10.34H138.6l.22-.09.09-.22V77.29Z" style="fill:#097f00"/><rect x="7.01" y="41.76" width="2.27" height="14.87" style="fill:#097f00"/><rect x="14.24" y="93.4" width="2.48" height="14.05" style="fill:#097f00"/><circle cx="88.43" cy="153.25" r="1.78" style="fill:#9bf424"/><circle cx="97.26" cy="153.25" r="1.78" style="fill:#9bf424"/><circle cx="106.09" cy="153.25" r="1.78" style="fill:#9bf424"/><circle cx="114.92" cy="153.25" r="1.78" style="fill:#9bf424"/><circle cx="123.75" cy="153.25" r="1.78" style="fill:#9bf424"/><circle cx="132.58" cy="153.25" r="1.78" style="fill:#9bf424"/><polygon points="144.8 110.13 144.8 109.82 142.63 109.82 142.63 83.38 144.49 83.38 144.49 110.13 144.8 110.13 144.8 109.82 144.8 110.13 145.11 110.13 145.11 82.76 142.01 82.76 142.01 110.44 145.11 110.44 145.11 110.13 144.8 110.13" style="fill:#9bf424"/><polygon points="32.63 157.64 32.63 157.33 30.87 157.33 30.87 155.89 32.32 155.89 32.32 157.64 32.63 157.64 32.63 157.33 32.63 157.64 32.94 157.64 32.94 155.27 30.25 155.27 30.25 157.95 32.94 157.95 32.94 157.64 32.63 157.64" style="fill:#9bf424"/><polygon points="30.15 125.42 30.15 125.11 25.92 125.11 25.92 121.18 29.84 121.18 29.84 125.42 30.15 125.42 30.15 125.11 30.15 125.42 30.46 125.42 30.46 120.56 25.3 120.56 25.3 125.73 30.46 125.73 30.46 125.42 30.15 125.42" style="fill:#9bf424"/><polygon points="20.23 67.79 20.23 67.48 16.21 67.48 16.21 63.76 19.93 63.76 19.93 67.79 20.23 67.79 20.23 67.48 20.23 67.79 20.55 67.79 20.55 63.14 15.59 63.14 15.59 68.1 20.55 68.1 20.55 67.79 20.23 67.79" style="fill:#9bf424"/><polygon points="135.5 39.49 135.5 39.18 131.27 39.18 131.27 35.25 135.19 35.25 135.19 39.49 135.5 39.49 135.5 39.18 135.5 39.49 135.81 39.49 135.81 34.63 130.65 34.63 130.65 39.8 135.81 39.8 135.81 39.49 135.5 39.49" style="fill:#9bf424"/><path d="M33.25,50.64h-.31a2.59,2.59,0,1,1-2.58-2.58,2.58,2.58,0,0,1,2.58,2.58h.62a3.2,3.2,0,1,0-3.2,3.2,3.2,3.2,0,0,0,3.2-3.2Z" style="fill:#097f00"/><path d="M133.23,123.66h-.31a2.48,2.48,0,1,1-2.48-2.48,2.48,2.48,0,0,1,2.48,2.48h.62a3.1,3.1,0,1,0-3.1,3.1,3.1,3.1,0,0,0,3.1-3.1Z" style="fill:#097f00"/><path d="M144.18,54h-.31a1.55,1.55,0,0,1-3.1,0,1.55,1.55,0,0,1,3.1,0h.62a2.17,2.17,0,1,0-2.17,2.17A2.17,2.17,0,0,0,144.49,54Z" style="fill:#097f00"/><path d="M11.56,143.7h-.31a1.45,1.45,0,1,1-1.45-1.45,1.46,1.46,0,0,1,1.45,1.45h.62a2.07,2.07,0,1,0-2.07,2.07,2.07,2.07,0,0,0,2.07-2.07Z" style="fill:#097f00"/><polygon points="144.01 163.72 140.87 163.72 140.87 160.58 139.09 160.58 139.09 163.72 135.96 163.72 135.96 165.49 139.09 165.49 139.09 168.63 140.87 168.63 140.87 165.49 144.01 165.49 144.01 163.72" style="fill:#097f00"/><polygon points="12.01 28.85 8.87 28.85 8.87 25.71 7.1 25.71 7.1 28.85 3.96 28.85 3.96 30.63 7.1 30.63 7.1 33.77 8.87 33.77 8.87 30.63 12.01 30.63 12.01 28.85" style="fill:#097f00"/><rect x="126.31" y="80.59" width="5.89" height="26.65" style="fill:#097f00"/><rect x="122.59" y="99.18" width="5.89" height="8.06" style="fill:#9bf424"/><rect x="21.89" y="63.14" width="28.3" height="4.96" style="fill:#9bf424"/><path d="M51.85,24.31h4.46l-8,8H43.86Zm17.92,0H65.31l-8,8h4.46Zm-6.73,0H58.58l-8,8h4.46Zm33.65,0H92.23l-8,8H88.7Zm-20.19,0H72l-8,8h4.46Zm13.46,0H85.5l-8,8H82Zm-6.73,0H78.77l-8,8h4.46Z" style="fill:#9bf424"/></g><path d="M90.85,30.17a1.77,1.77,0,1,0-1.95,1.89V42.9H86.17v.43H89.3V32.06A1.87,1.87,0,0,0,90.85,30.17Z" style="fill:#060a0f"/><polygon points="84.19 45.19 86.71 44.33 86.71 41.82 77.38 41.82 77.38 45.19 84.19 45.19" style="fill:#060a0f"/><path d="M58.78,30.17a1.77,1.77,0,1,1,3.52,0,1.85,1.85,0,0,1-1.58,1.89V42.9h2.73v.43H60.33V32.06A1.86,1.86,0,0,1,58.78,30.17Z" style="fill:#060a0f"/><polygon points="65.44 45.19 62.91 44.33 62.91 41.82 72.25 41.82 72.25 45.19 65.44 45.19" style="fill:#060a0f"/><path d="M100.65,99.43l2.11,1.37a1,1,0,0,1,.25,1.47l-6.46,8.32-2.15-1.4,4.81-9.37A1,1,0,0,1,100.65,99.43Z" style="fill:#f9bd2a"/><rect x="92" y="108.91" width="4.53" height="5.33" transform="translate(75.93 -33.34) rotate(32.98)" style="fill:#232626"/><path d="M49.63,100.47l-2.12,1.37a1,1,0,0,0-.24,1.46l6.45,8.32,2.16-1.4-4.81-9.36A1,1,0,0,0,49.63,100.47Z" style="fill:#f9bd2a"/><polygon points="75.15 73.15 75.15 89.61 75.15 95.31 70.53 94.39 69.27 89.21 66.44 73.26 75.15 73.15" style="fill:#232626"/><path d="M56.78,59.21c-5.25-2.73-6.89-2.39-7.4-1.94s-.19,1.67-.18,1.68l-.65.24c0-.07-.58-1.6.37-2.44,1.16-1,3.83-.41,8.18,1.85Z" style="fill:#232626"/><path d="M46.51,60.81c-.06-.12-1.5-2.92-.45-5.09a4.32,4.32,0,0,1,3.32-2.19c.06,0,5.57-.79,9.45,4.92l-.57.39c-3.63-5.34-8.56-4.66-8.77-4.63A3.64,3.64,0,0,0,46.68,56c-.89,1.87.43,4.44.44,4.47Z" style="fill:#232626"/><path d="M48,81.92l-.6-.36c.14-.22,3.35-5.45,7.64-4.18l-.19.66C51.09,76.93,48.06,81.87,48,81.92Z" style="fill:#232626"/><path d="M48.72,83.72l-.57-.39c.15-.22,3.64-5.26,7.86-3.76l-.24.65C52.06,78.91,48.75,83.67,48.72,83.72Z" style="fill:#232626"/><polygon points="51.47 73.71 62.7 91.69 69.27 89.21 69.27 88.12 70.71 88.12 71.69 86.22 71.69 80.4 69.44 75.68 66.99 73.23 59.4 65.63 51.47 73.71" style="fill:#a7a38d"/><polygon points="52.37 60.3 46.46 60.3 39.15 68.65 40.13 81.03 44.45 82.93 47.96 80.17 50.15 74.08 54.12 72.97 57.94 67.42 57.94 60.95 52.37 60.3" style="fill:#232626"/><path d="M52.37,60.3l3.8,2.85,8.55-7.42-1.21-.95s-5.44,4.57-8,3.19C55.48,58,53.58,57.28,52.37,60.3Z" style="fill:#f9bd2a"/><polygon points="56.17 63.15 57.72 66.18 67.57 57.37 64.72 55.73 56.17 63.15" style="fill:#f28e26"/><path d="M57.72,66.18s0,3.88,4.93,7.08H69l.82.82h4.36l.93-.93V57.63h-4.3l-3.28-.26Z" style="fill:#d98326"/><path d="M49.14,63.67h0c-2,0-4.07,1.34-3.44,4.13.15.67.61,1,.76,1.82a1.09,1.09,0,0,0,.6.8c.48.22,1,.48,1.1,1a1.87,1.87,0,0,1,0,.34h2s0-.26,0-.34c.11-.54.62-.8,1.11-1a1.08,1.08,0,0,0,.59-.8c.15-.77.6-1.15.77-1.82C53.21,65,51.16,63.64,49.14,63.67Zm-1.41,4.92a.86.86,0,1,1,0-1.72.86.86,0,1,1,0,1.72Zm1.41,1.7h0a1,1,0,0,1-.6-.65c0-.28.29-1.08.53-1l.07,0h0l.08,0c.23-.12.53.68.52,1A1,1,0,0,1,49.14,70.29Zm1.42-1.7a.86.86,0,1,1,.91-.86A.88.88,0,0,1,50.56,68.59Z" style="fill:#484c4b"/><polygon points="44.45 82.93 47.1 85.59 49.6 83.08 47.96 80.17 44.45 82.93" style="fill:#bb7127"/><path d="M34.9,83.85c-1-2.43-1-4.47-.06-6,1.45-2.45,4.66-2.87,4.79-2.89l.09.69,0-.35,0,.35s-3,.39-4.29,2.56c-.81,1.38-.78,3.21.11,5.43Z" style="fill:#232626"/><path d="M36.75,82a4.69,4.69,0,0,1,.4-3.8,4.17,4.17,0,0,1,2.59-1.73l.12.68-.06-.34.06.34a3.56,3.56,0,0,0-2.14,1.43,4.07,4.07,0,0,0-.3,3.25Z" style="fill:#232626"/><circle cx="49.44" cy="60.3" r="2.01" style="fill:#232626"/><polygon points="62.7 91.69 63.85 97.1 70.53 94.39 69.27 89.21 62.7 91.69" style="fill:#484c4b"/><polygon points="63.05 55.15 64.17 54.12 67.57 56.62 75.15 56.62 75.15 58.02 66.76 58.02 63.05 55.15" style="fill:#232626"/><polygon points="57.94 67.42 57.2 82.88 51.47 73.71 54.12 72.97 57.94 67.42" style="fill:#4b4937"/><polygon points="63.85 97.1 61.87 97.1 61.87 103.92 66.44 103.92 68 105.22 75.15 105.22 75.15 95.31 70.07 92.48 63.85 97.1" style="fill:#121617"/><polygon points="61.87 103.92 61.87 109.54 67.4 133.12 72.84 133.12 70.79 127.24 71.69 116.19 73.96 116.02 75.15 105.22 68.51 102.45 61.87 103.92" style="fill:#424544"/><path d="M36,82.13l-1.49.4v3.06s9.78,20.61,15.1,22.91l1.85-1.44C41.9,97.66,37,85.06,36,82.13Z" style="fill:#2e2b1f"/><path d="M47.1,85.59l-3.8-3.67L40.13,81,36,82.13c1,2.93,5.91,15.53,15.46,24.93l3.62-2.82Z" style="fill:#4b4937"/><polygon points="75.15 73.15 75.15 89.61 75.15 95.31 79.76 94.39 81.03 89.21 83.86 73.26 75.15 73.15" style="fill:#101316"/><path d="M93.51,59.21c5.26-2.73,6.9-2.39,7.41-1.94s.18,1.67.18,1.68l.65.24c0-.07.57-1.6-.38-2.44-1.15-1-3.83-.41-8.18,1.85Z" style="fill:#232626"/><path d="M103.78,60.81c.07-.12,1.5-2.92.45-5.09a4.29,4.29,0,0,0-3.31-2.19c-.07,0-5.57-.79-9.45,4.92l.57.39c3.62-5.34,8.55-4.66,8.76-4.63A3.64,3.64,0,0,1,103.61,56c.9,1.87-.42,4.44-.44,4.47Z" style="fill:#232626"/><path d="M102.27,81.92l.59-.36c-.13-.22-3.35-5.45-7.64-4.18l.2.66C99.2,76.93,102.24,81.87,102.27,81.92Z" style="fill:#232626"/><path d="M101.57,83.72l.57-.39c-.14-.22-3.64-5.26-7.85-3.76l.23.65C98.24,78.91,101.54,83.67,101.57,83.72Z" style="fill:#232626"/><polygon points="98.83 73.71 87.59 91.69 81.03 89.21 81.03 88.12 79.59 88.12 78.61 86.22 78.61 80.4 80.86 75.68 83.3 73.23 90.9 65.63 98.83 73.71" style="fill:#7c7967"/><polygon points="97.93 60.3 103.83 60.3 111.14 68.65 110.17 81.03 105.85 82.93 102.33 80.17 100.15 74.08 96.17 72.97 92.36 67.42 92.36 60.95 97.93 60.3" style="fill:#232626"/><path d="M97.93,60.3l-3.8,2.85-8.55-7.42,1.21-.95s5.44,4.57,8,3.19C94.82,58,96.72,57.28,97.93,60.3Z" style="fill:#d9a229"/><polygon points="94.13 63.15 92.57 66.18 82.73 57.37 85.58 55.73 94.13 63.15" style="fill:#cb7827"/><path d="M92.57,66.18s0,3.88-4.92,7.08H81.26l-.82.82H76.08l-.93-.93V57.63h4.29l3.29-.26Z" style="fill:#bb7127"/><path d="M97.71,67.8c.16.67.61,1,.76,1.82a1.09,1.09,0,0,0,.6.8c.48.22,1,.48,1.11,1v.34h2a1.87,1.87,0,0,1,0-.34c.11-.54.62-.8,1.1-1a1.11,1.11,0,0,0,.6-.8c.14-.77.6-1.15.75-1.82.63-2.79-1.42-4.16-3.43-4.13h0C99.13,63.64,97.09,65,97.71,67.8Zm4-.07a.91.91,0,1,1,.9.86A.88.88,0,0,1,101.67,67.73Zm-1.12,1.91c0-.28.29-1.08.53-1l.08,0h0l.07,0c.23-.12.54.68.52,1a1,1,0,0,1-.59.65h0A1,1,0,0,1,100.55,69.64Zm-1.72-1.91a.9.9,0,1,1,.9.86A.88.88,0,0,1,98.83,67.73Z" style="fill:#2d3030"/><polygon points="105.85 82.93 103.19 85.59 100.69 83.08 102.33 80.17 105.85 82.93" style="fill:#bb7127"/><path d="M115.39,83.85c1-2.43,1-4.47.06-6-1.45-2.45-4.65-2.87-4.79-2.89l-.08.69,0-.35,0,.35s3,.39,4.28,2.56c.82,1.38.78,3.21-.11,5.43Z" style="fill:#232626"/><path d="M113.54,82a4.69,4.69,0,0,0-.39-3.8,4.19,4.19,0,0,0-2.59-1.73l-.12.68.06-.34-.06.34a3.55,3.55,0,0,1,2.13,1.43,4,4,0,0,1,.3,3.25Z" style="fill:#232626"/><circle cx="100.85" cy="60.3" r="2.01" style="fill:#232626"/><polygon points="87.59 91.69 86.44 97.1 79.76 94.39 81.03 89.21 87.59 91.69" style="fill:#2d3030"/><polygon points="87.25 55.15 86.13 54.12 82.73 56.62 75.15 56.62 75.15 58.02 83.53 58.02 87.25 55.15" style="fill:#06080d"/><polygon points="92.36 67.42 93.1 82.88 98.83 73.71 96.17 72.97 92.36 67.42" style="fill:#2c2b20"/><polygon points="86.44 97.1 88.43 97.1 88.43 103.92 83.86 103.92 82.3 105.22 75.15 105.22 75.15 95.31 80.23 92.48 86.44 97.1"/><polygon points="88.43 103.92 88.43 109.54 82.9 133.12 77.46 133.12 79.5 127.24 78.61 116.19 76.33 116.02 75.15 105.22 81.79 102.45 88.43 103.92" style="fill:#202424"/><path d="M114.3,82.13l1.49.4v3.06S106,106.2,100.69,108.5l-1.85-1.44C108.4,97.66,113.26,85.06,114.3,82.13Z" style="fill:#1f1e15"/><path d="M103.19,85.59,107,81.92l3.16-.89,4.14,1.1c-1,2.93-5.9,15.53-15.46,24.93l-3.62-2.82Z" style="fill:#353527"/><polygon points="71.69 116.19 68.51 102.45 75.15 105.22 73.96 116.02 71.69 116.19" style="fill:#585c5a"/><polygon points="73.96 116.02 70.79 127.24 71.69 116.19 73.96 116.02" style="fill:#d98326"/><polygon points="76.33 116.02 79.5 127.24 78.61 116.19 76.33 116.02" style="fill:#d98326"/><polygon points="78.61 116.19 81.79 102.45 75.15 105.22 76.33 116.02 78.61 116.19" style="fill:#323431"/><polygon points="67.35 133.06 68.67 136.61 71.81 136.61 72.82 133.06 67.35 133.06" style="fill:#323431"/><polygon points="74.12 115.96 74.12 162.77 70.45 162.74 70.97 133.06 74.12 115.96" style="fill:#202424"/><rect x="68.67" y="136.61" width="3.14" height="5.47" style="fill:#ee6c23"/><path d="M68.67,142.08H68v6.58s2.33,0,2.13,2.94h1.72v-9.52Z" style="fill:#d98326"/><polygon points="71.81 151.6 68.67 151.6 68.67 159.6 72.57 155.7 72.57 151.5 71.81 151.6" style="fill:#323431"/><polygon points="67.72 161.92 67.67 162.66 67.51 162.75 63.61 164.94 63.61 170.29 67.51 170.29 67.51 165.15 71.76 160.9 71.76 157.88 67.72 161.92" style="fill:#f9bd2a"/><polygon points="72.04 161.1 73.61 161.1 73.61 163.36 72.86 163.36 72.86 170.29 67.51 170.29 67.51 164.87 71.76 160.25 72.04 161.1" style="fill:#121617"/><path d="M73.1,159.76H71.71v-.61H73.1a.94.94,0,0,0,.94-1v-3.47a1,1,0,0,0-.94-.95h-.71v-.61h.71a1.56,1.56,0,0,1,1.55,1.56v3.47A1.56,1.56,0,0,1,73.1,159.76Z" style="fill:#000106"/><rect x="69.99" y="156.39" width="1.22" height="3.17" style="fill:#323431"/><polygon points="73.96 116.02 72.82 133.06 70.79 127.24 73.96 116.02" style="fill:#323431"/><polygon points="82.93 133.06 81.62 136.61 78.47 136.61 77.46 133.06 82.93 133.06" style="fill:#1d201f"/><polygon points="76.17 115.96 76.17 162.77 79.83 162.74 79.32 133.06 76.17 115.96" style="fill:#202424"/><rect x="78.48" y="136.61" width="3.14" height="5.47" transform="translate(160.09 278.68) rotate(180)" style="fill:#c75d28"/><path d="M81.62,142.08h.7v6.58s-2.33,0-2.12,2.94H78.48v-9.52Z" style="fill:#ba7327"/><polygon points="78.47 151.6 81.62 151.6 81.62 159.6 77.72 155.7 77.72 151.5 78.47 151.6" style="fill:#323431"/><polygon points="82.57 161.92 82.61 162.66 82.77 162.75 86.68 164.94 86.68 170.29 82.77 170.29 82.77 165.15 78.52 160.9 78.52 157.88 82.57 161.92" style="fill:#c89628"/><polygon points="78.25 161.1 76.67 161.1 76.67 163.36 77.43 163.36 77.43 170.29 82.77 170.29 82.77 164.87 78.52 160.25 78.25 161.1" style="fill:#121617"/><path d="M77.19,159.76h1.38v-.61H77.19a1,1,0,0,1-1-1v-3.47a1,1,0,0,1,1-.95h.71v-.61h-.71a1.55,1.55,0,0,0-1.55,1.56v3.47A1.55,1.55,0,0,0,77.19,159.76Z" style="fill:#000106"/><rect x="79.08" y="156.39" width="1.22" height="3.17" transform="translate(159.38 315.96) rotate(180)" style="fill:#323431"/><polygon points="76.33 116.02 77.46 133.06 79.5 127.24 76.33 116.02" style="fill:#323431"/><path d="M70.81,169.31l2-3.46H74l0,4.44-2.71,0A.64.64,0,0,1,70.81,169.31Z" style="fill:#d98326"/><path d="M79.5,169.31l-2-3.46H76.29l0,4.44,2.71,0A.64.64,0,0,0,79.5,169.31Z" style="fill:#a86725"/><path d="M85.16,63.61,79.63,73H76.41l-.1-12.08,7.37.05A1.74,1.74,0,0,1,85.16,63.61Z" style="fill:#d98326"/><path d="M65.1,63.65l5.53,9.41h3.22L74,61,66.58,61A1.74,1.74,0,0,0,65.1,63.65Z" style="fill:#bb7127"/><path d="M60.33,68.86,65.79,72,67.4,71,64,65l-3.66,2.15A1,1,0,0,0,60.33,68.86Z" style="fill:#bb7127"/><path d="M89.63,68.91,84.17,72l-1.61-.93L86,65l3.66,2.15A1,1,0,0,1,89.63,68.91Z" style="fill:#d98326"/><path d="M75.15,37.54H69l-1.63,1a1.07,1.07,0,0,0-.59.89v3a14.88,14.88,0,0,1-2,7.34h10.4Z" style="fill:#232626"/><path d="M85.55,49.8H64.75l0,.05v2c0,.71.92,1.28,2,1.28l2.12.63c1.54.46,2.51,1.43,2.51,2.5v.4h7.49v-.4c0-1.07,1-2,2.51-2.5l2.13-.63c1.13,0,2-.57,2-1.28v-2h0Z"/><path d="M85.55,49.8a14.78,14.78,0,0,1-2-7.34v-3a1.09,1.09,0,0,0-.59-.89l-1.64-1H75.15V49.8Z" style="fill:#000002"/><rect x="72.11" y="39.56" width="1.04" height="7" style="fill:#a7a38d"/><rect x="77.55" y="39.6" width="1.04" height="7" style="fill:#898573"/><rect x="53.74" y="109.95" width="4.53" height="5.33" transform="matrix(-0.84, 0.54, -0.54, -0.84, 164.29, 176.59)" style="fill:#232626"/><path d="M57.49,114.83a3.29,3.29,0,0,0,.36.63,1.24,1.24,0,0,0,1.06.55c.85,0,2.59.42,4.83,3.55a.36.36,0,0,0,.48.09h0a.68.68,0,0,0,.2-.93l-2.8-4.32A1,1,0,0,0,61,114l-1.63-.35Z" style="fill:#aeb1b0"/><path d="M57.63,114.74a3.11,3.11,0,0,1,.42.58,1.2,1.2,0,0,1,0,1.23c-.44.82-.87,2.67,1,6a.38.38,0,0,1-.14.5h0a.72.72,0,0,1-1-.15l-2.8-4.32a.9.9,0,0,1-.11-.77l.47-1.71Z" style="fill:#9a9f9a"/><path d="M92.79,113.8a4,4,0,0,1-.37.62,1.24,1.24,0,0,1-1,.56c-.86,0-2.6.42-4.84,3.54a.36.36,0,0,1-.48.09h0a.66.66,0,0,1-.2-.92l2.81-4.32a1,1,0,0,1,.63-.44l1.63-.35Z" style="fill:#aeb1b0"/><path d="M92.65,113.7a3.2,3.2,0,0,0-.43.59,1.23,1.23,0,0,0,0,1.23c.44.82.87,2.67-1,6a.39.39,0,0,0,.15.5h0a.71.71,0,0,0,1-.16l2.81-4.32a1,1,0,0,0,.11-.77l-.47-1.71Z" style="fill:#9a9f9a"/></g></g></svg>