<svg xmlns="http://www.w3.org/2000/svg" xmlns:xlink="http://www.w3.org/1999/xlink" viewBox="0 0 148.25 207.55"><defs><linearGradient id="Degradado_sin_nombre_6" x1="-14.83" y1="192.72" x2="163.07" y2="14.83" gradientUnits="userSpaceOnUse"><stop offset="0" stop-color="aqua"/><stop offset="1" stop-color="blue"/></linearGradient></defs><title>Asset 174</title><g id="Layer_2" data-name="Layer 2"><g id="Layer_3" data-name="Layer 3"><rect width="148.25" height="207.55" style="fill:url(#Degradado_sin_nombre_6)"/><g style="opacity:0.45"><polygon points="135.39 156.18 135.39 112.55 132.72 109.88 132.72 53.79 124.71 53.79 124.71 46.44 97.18 46.44 94.44 49.19 60.75 49.19 54.99 43.43 8.69 43.43 8.69 133.36 12.97 137.63 12.97 157.37 15.71 160.11 15.71 166.87 48.43 166.87 48.43 170.72 75.74 170.72 75.74 173.22 138.49 173.22 138.49 159.28 135.39 156.18" style="fill:#00158e;opacity:0.2"/><path d="M139.7,141.66V118.88a1.53,1.53,0,0,0,1.26-1.5,1.56,1.56,0,1,0-3.12,0,1.53,1.53,0,0,0,1.26,1.5v23l4.6,4.6v33.12H64.76v-5H5.4V41H24.59a1.56,1.56,0,1,0,0-.59H4.8V175.18H64.16v5H144.3v-34Z" style="fill:gold"/><polygon points="84.78 166.79 87.76 166.79 90.94 163.62 85.97 163.62 78.82 170.77 80.81 170.77 84.78 166.79" style="fill:gold"/><polygon points="91.24 166.79 94.21 166.79 97.39 163.62 92.42 163.62 85.27 170.77 87.26 170.77 91.24 166.79" style="fill:gold"/><polygon points="97.69 166.79 100.66 166.79 103.84 163.62 98.87 163.62 91.72 170.77 93.71 170.77 97.69 166.79" style="fill:gold"/><polygon points="104.14 166.79 107.11 166.79 110.29 163.62 105.33 163.62 98.17 170.77 100.16 170.77 104.14 166.79" style="fill:gold"/><polygon points="110.59 166.79 113.56 166.79 116.74 163.62 111.78 163.62 104.62 170.77 106.61 170.77 110.59 166.79" style="fill:gold"/><polygon points="117.04 166.79 120.02 166.79 123.19 163.62 118.23 163.62 111.08 170.77 113.06 170.77 117.04 166.79" style="fill:gold"/><polygon points="123.49 166.79 126.47 166.79 129.64 163.62 124.68 163.62 117.53 170.77 119.52 170.77 123.49 166.79" style="fill:gold"/><polygon points="129.94 166.79 132.92 166.79 136.09 163.62 131.13 163.62 123.98 170.77 125.97 170.77 129.94 166.79" style="fill:gold"/><polygon points="15.91 45.6 13.18 45.6 11.24 48.97 13.18 52.34 15.91 52.34 13.97 48.97 15.91 45.6" style="fill:#0751cf"/><polygon points="22.9 45.6 20.16 45.6 18.22 48.97 20.16 52.34 22.9 52.34 20.95 48.97 22.9 45.6" style="fill:#0751cf"/><polygon points="29.88 45.6 27.14 45.6 25.2 48.97 27.14 52.34 29.88 52.34 27.93 48.97 29.88 45.6" style="fill:#0751cf"/><polygon points="36.86 45.6 34.13 45.6 32.18 48.97 34.13 52.34 36.86 52.34 34.91 48.97 36.86 45.6" style="fill:#0751cf"/><polygon points="43.84 45.6 41.11 45.6 39.16 48.97 41.11 52.34 43.84 52.34 41.9 48.97 43.84 45.6" style="fill:#0751cf"/><polygon points="50.82 45.6 48.09 45.6 46.15 48.97 48.09 52.34 50.82 52.34 48.88 48.97 50.82 45.6" style="fill:#0751cf"/><path d="M66.13,45.94H69l-5.17,5.17H61Zm11.59,0H74.83l-5.16,5.17h2.88Zm-4.35,0H70.48l-5.16,5.17H68.2Zm21.75,0H92.24l-5.17,5.17H90Zm-13.05,0H79.19L74,51.11H76.9Zm8.7,0H87.89l-5.17,5.17h2.89Zm-4.35,0H83.54l-5.17,5.17h2.88Z" style="fill:gold"/><rect x="121.74" y="100.38" width="19.89" height="2.67" style="fill:gold"/><rect x="129.61" y="96.38" width="9.2" height="1.78" style="fill:gold"/><rect x="12.22" y="160.93" width="17.81" height="2.37" style="fill:gold"/><path d="M108.88,53.59H113V49.43h-4.16Zm.59-3.56h3v3h-3Z" style="fill:gold"/><path d="M129.46,85.15V81.69H125.7v3.75h3.76Zm-3.17-2.87h2.57v2.57h-2.57Z" style="fill:gold"/><path d="M125.7,136.3h4.15v-4.16H125.7Zm.59-3.57h3v3h-3Z" style="fill:#0751cf"/><path d="M15.69,150.54h5.14V145.4H15.69Zm.59-4.55h4v4h-4Z" style="fill:gold"/><path d="M11.93,126h3.16v-3.17H11.93Zm.59-2.58h2v2h-2Z" style="fill:#0751cf"/><path d="M32.51,169.54H43.78V165H32.51Zm.59-4H43.19v3.36H33.1Z" style="fill:gold"/><path d="M131.24,59.72V81.09h3.36V59.72Zm.59.6H134V80.5h-2.18Z" style="fill:gold"/><path d="M132.62,51.31V46.07h-5.54v5.54h5.54Zm-4.94-4.65H132V51h-4.35Z" style="fill:gold"/><path d="M38.05,40.83V37.17h-4v3.95h4Zm-3.37-3.07h2.77v2.77H34.68Z" style="fill:gold"/><path d="M52.88,39.94h4.95V35H52.88Zm.6-4.36h3.76v3.76H53.48Z" style="fill:#0751cf"/><polygon points="21.38 79.57 18.51 79.57 18.51 76.7 16.89 76.7 16.89 79.57 14.03 79.57 14.03 81.19 16.89 81.19 16.89 84.06 18.51 84.06 18.51 81.19 21.38 81.19 21.38 79.57" style="fill:gold"/><polygon points="33.8 79.57 30.94 79.57 30.94 76.7 29.32 76.7 29.32 79.57 26.45 79.57 26.45 81.19 29.32 81.19 29.32 84.06 30.94 84.06 30.94 81.19 33.8 81.19 33.8 79.57" style="fill:gold"/><polygon points="46.23 79.57 43.37 79.57 43.37 76.7 41.74 76.7 41.74 79.57 38.88 79.57 38.88 81.19 41.74 81.19 41.74 84.06 43.37 84.06 43.37 81.19 46.23 81.19 46.23 79.57" style="fill:gold"/><polygon points="58.66 79.57 55.79 79.57 55.79 76.7 54.17 76.7 54.17 79.57 51.31 79.57 51.31 81.19 54.17 81.19 54.17 84.06 55.79 84.06 55.79 81.19 58.66 81.19 58.66 79.57" style="fill:gold"/></g><path d="M45.48,63V50.49a2.17,2.17,0,1,0-.5,0v13h3.89V63Z" style="fill:#33352e"/><path d="M106,48.32a2.19,2.19,0,1,0-2.43,2.17V63H100.2v.49h3.88v-13A2.19,2.19,0,0,0,106,48.32Z" style="fill:#20231f"/><polygon points="47.77 64.91 47.77 82.9 54.67 82.9 58.51 66.1 47.77 64.91" style="fill:#232624"/><path d="M55.72,90.25l-3.67,3a3.29,3.29,0,0,1-5.37-2.55V82.9h9Z" style="fill:#323432"/><rect x="48.87" y="86.92" width="4.67" height="21.37" style="fill:#323432"/><polygon points="101.29 64.9 101.29 82.89 94.39 82.89 90.56 66.09 101.29 64.9" style="fill:#232624"/><rect x="95.53" y="86.91" width="4.67" height="21.37" transform="translate(195.73 195.19) rotate(180)" style="fill:#232624"/><path d="M65.61,164.68s.26-20.61-3.77-26.17v-6.26H72.62s-2.09,25,0,32.43Z" style="fill:#c0c2be"/><path d="M63.06,169.33H73.14s1.27-7.09-5-7.41C68.1,161.92,61.11,161.81,63.06,169.33Z" style="fill:#6d726d"/><rect x="61.77" y="169.33" width="12.06" height="2.15" style="fill:#c0c2be"/><path d="M65.36,117.29S59,110.63,60.2,105.16h5.66l3.68,12.13Z" style="fill:#484b47"/><polygon points="74.51 97.61 76.69 99.5 76.69 105.66 74.51 106.75 74.51 97.61" style="fill:#9c9e9b"/><path d="M69,132.25s2.29-6.71-3.68-6.71V104l8.45.6,2.88,1.09-3.18,12.75-.89,13.84Z" style="fill:#9fa498"/><rect x="60.2" y="97.61" width="14.31" height="7.55" style="fill:#323432"/><polygon points="60.2 97.61 64.79 90.06 65.36 82.7 59.4 76.74 59.4 73.76 60.05 70.87 57.02 61.73 64.79 57.26 73.22 55.27 73.22 97.61 60.2 97.61" style="fill:#484b47"/><path d="M49.26,58.15v5.07H59.5l.85-.84,2.43-2.44h4.57l4.08-4.08-5.07-2.08H58.51S57.71,58.05,49.26,58.15Z" style="fill:#656966"/><path d="M47.77,67.79V57.16h1V53.78l.79.79v8.65H59.5s4.27,5.07.55,7.65C60.05,70.87,56,65.21,47.77,67.79Z" style="fill:#484b47"/><rect x="73.14" y="56.56" width="1.37" height="41.05" style="fill:#323432"/><polygon points="63.52 53.78 63.52 56.56 74.38 67.42 74.38 56.56 74.38 53.78 63.52 53.78" style="fill:#323432"/><polygon points="74.5 40.81 74.48 40.81 65.55 40.81 65.55 42.33 74.5 42.33 74.5 40.81" style="fill:#656966"/><path d="M85.54,42.33h-11v16l8.91-2.84V53.81C80.49,51.88,85.54,42.33,85.54,42.33Z" style="fill:#7f8479"/><path d="M83.46,40.81H85V37.48A25.72,25.72,0,0,0,74.5,33.13v7.68Z" style="fill:#7f8479"/><polygon points="74.5 40.81 74.53 40.81 83.46 40.81 83.46 42.33 74.5 42.33 74.5 40.81" style="fill:#4d514e"/><path d="M63.52,42.33h11v16l-8.92-2.84V53.81C68.57,51.88,63.52,42.33,63.52,42.33Z" style="fill:#9fa498"/><path d="M65.55,40.81H64V37.48A25.72,25.72,0,0,1,74.5,33.13v7.68Z" style="fill:#7f8479"/><path d="M83.45,164.67s-.25-20.61,3.78-26.18v-6.26H76.44s2.09,25,0,32.44Z" style="fill:#a4a9a1"/><path d="M83.7,117.27s6.36-6.65,5.17-12.12H83.2l-3.67,12.12Z" style="fill:#484b47"/><path d="M80,132.23s-2.28-6.71,3.68-6.71V104l-8.45.59-2.88,1.1,3.18,12.74.89,13.84Z" style="fill:#868a81"/><rect x="74.56" y="97.6" width="14.31" height="7.55" transform="translate(163.42 202.74) rotate(180)" style="fill:#323432"/><polygon points="88.87 97.59 84.27 90.04 83.7 82.69 89.66 76.72 89.66 73.74 89.02 70.86 92.05 61.72 84.27 57.24 75.85 55.26 75.85 97.59 88.87 97.59" style="fill:#373a37"/><path d="M99.8,58.14v5.07H89.56l-.84-.85-2.44-2.43H81.71l-4.08-4.09,5.08-2.08h7.85S91.35,58,99.8,58.14Z" style="fill:#505451"/><path d="M101.29,67.78V57.14h-1V53.76l-.8.8v8.65H89.56s-4.27,5.07-.54,7.65C89,70.86,93,65.19,101.29,67.78Z" style="fill:#373a38"/><rect x="74.56" y="56.55" width="1.37" height="41.05" transform="translate(150.48 154.14) rotate(180)" style="fill:#323432"/><polygon points="85.54 53.76 85.54 56.55 74.68 67.41 74.68 56.55 74.68 53.76 85.54 53.76" style="fill:#1f2321"/><polygon points="74.56 40.79 74.58 40.79 83.52 40.79 83.52 42.32 74.56 42.32 74.56 40.79" style="fill:#656966"/><path d="M63.52,42.32h11v16l-8.92-2.83V53.8C68.57,51.86,63.52,42.32,63.52,42.32Z" style="fill:#7f8479"/><path d="M65.6,40.79H64V37.46a25.85,25.85,0,0,1,10.54-4.34v7.67Z" style="fill:#7f8479"/><polygon points="74.56 40.79 74.54 40.79 65.6 40.79 65.6 42.32 74.56 42.32 74.56 40.79" style="fill:#4d514e"/><path d="M85.54,42.32h-11v16l8.91-2.83V53.8C80.49,51.86,85.54,42.32,85.54,42.32Z" style="fill:#9fa498"/><path d="M83.52,40.79H85.1V37.46a25.85,25.85,0,0,0-10.54-4.34v7.67Z" style="fill:#9fa498"/><rect x="64.87" y="105.16" width="1.18" height="27.08" style="fill:#0fc0e8"/><rect x="83.36" y="105.16" width="1.18" height="27.08" style="fill:#0ca6c5"/><path d="M76.16,169.33H86.23s1.28-7.09-5-7.41C81.2,161.92,74.21,161.81,76.16,169.33Z" style="fill:#4d524d"/><rect x="75.4" y="169.33" width="11.69" height="2.15" style="fill:#a1a49a"/><path d="M69.24,105.16l1.41,1.42a4.88,4.88,0,0,0,6.89,0L79,105.15v-3H69.54Z" style="fill:#323432"/><path d="M67.47,129.22a2.11,2.11,0,1,1-2.11-2.1A2.1,2.1,0,0,1,67.47,129.22Z" style="fill:#323432"/><path d="M85.81,129.22a2.11,2.11,0,1,1-2.11-2.1A2.11,2.11,0,0,1,85.81,129.22Z" style="fill:#323432"/><path d="M49.61,96.18l3.91.19A1.55,1.55,0,0,1,55,98.13l-2.13,16.2-4-.19L48,97.84A1.56,1.56,0,0,1,49.61,96.18Z" style="fill:#0fc0e8"/><rect x="47.07" y="113.31" width="7.03" height="8.27" transform="translate(5.5 -2.22) rotate(2.66)" style="fill:#90928d"/><path d="M50.34,121.57a5,5,0,0,1,0,1.12,1.93,1.93,0,0,1-1,1.58c-1.16.64-3.14,2.59-3.7,8.53a.55.55,0,0,1-.57.5h0a1.05,1.05,0,0,1-1-1.09l.37-8a1.51,1.51,0,0,1,.51-1.07l1.91-1.75Z" style="fill:#aeb1b0"/><path d="M50.08,121.56a4.85,4.85,0,0,0-.11,1.12,1.89,1.89,0,0,0,.93,1.66c1.24.75,3.26,2.89,3.3,8.85a.59.59,0,0,0,.58.56h0a1.11,1.11,0,0,0,1.21-1l.37-8a1.48,1.48,0,0,0-.45-1.12l-2-1.92Z" style="fill:#9a9f9a"/><path d="M99.94,99.33,96,99.51a1.56,1.56,0,0,0-1.47,1.77l2.14,16.19,4-.18.9-16.31A1.56,1.56,0,0,0,99.94,99.33Z" style="fill:#0fc0e8"/><rect x="95.46" y="116.45" width="7.03" height="8.27" transform="translate(203.43 236.46) rotate(177.34)" style="fill:#90928d"/><path d="M99.22,124.72a5,5,0,0,0,0,1.12,1.92,1.92,0,0,0,1,1.57c1.16.64,3.14,2.59,3.69,8.53a.56.56,0,0,0,.58.5h0a1,1,0,0,0,1-1.09l-.37-8a1.53,1.53,0,0,0-.5-1.08l-1.91-1.74Z" style="fill:#aeb1b0"/><path d="M99.48,124.7a4.85,4.85,0,0,1,.11,1.12,1.88,1.88,0,0,1-.94,1.66c-1.23.75-3.25,2.89-3.29,8.86a.59.59,0,0,1-.59.55h0a1.11,1.11,0,0,1-1.21-1l-.37-8a1.47,1.47,0,0,1,.46-1.12l2-1.93Z" style="fill:#9a9f9a"/><path d="M93.34,90.24l3.68,3a3.29,3.29,0,0,0,5.37-2.55V82.89h-9Z" style="fill:#1d201f"/><rect x="64.87" y="132.25" width="1.18" height="3.22" style="fill:#323432"/><rect x="83.36" y="132.25" width="1.18" height="3.22" style="fill:#323432"/></g></g></svg>