<svg xmlns="http://www.w3.org/2000/svg" xmlns:xlink="http://www.w3.org/1999/xlink" viewBox="0 0 148.25 207.55"><defs><linearGradient id="Degradado_sin_nombre_6" x1="-14.83" y1="192.72" x2="163.07" y2="14.83" gradientUnits="userSpaceOnUse"><stop offset="0" stop-color="aqua"/><stop offset="1" stop-color="blue"/></linearGradient></defs><title>Asset 136</title><g id="Layer_2" data-name="Layer 2"><g id="Layer_3" data-name="Layer 3"><rect width="148.25" height="207.55" style="fill:url(#Degradado_sin_nombre_6)"/><g style="opacity:0.45"><polygon points="135.39 156.18 135.39 112.55 132.72 109.88 132.72 53.79 124.71 53.79 124.71 46.44 97.18 46.44 94.44 49.19 60.75 49.19 54.99 43.43 8.69 43.43 8.69 133.36 12.97 137.63 12.97 157.37 15.71 160.11 15.71 166.87 48.43 166.87 48.43 170.72 75.74 170.72 75.74 173.22 138.49 173.22 138.49 159.28 135.39 156.18" style="fill:#00158e;opacity:0.2"/><path d="M139.7,141.66V118.88a1.53,1.53,0,0,0,1.26-1.5,1.56,1.56,0,1,0-3.12,0,1.53,1.53,0,0,0,1.26,1.5v23l4.6,4.6v33.12H64.76v-5H5.4V41H24.59a1.56,1.56,0,1,0,0-.59H4.8V175.18H64.16v5H144.3v-34Z" style="fill:gold"/><polygon points="84.78 166.79 87.76 166.79 90.94 163.62 85.97 163.62 78.82 170.77 80.81 170.77 84.78 166.79" style="fill:gold"/><polygon points="91.24 166.79 94.21 166.79 97.39 163.62 92.42 163.62 85.27 170.77 87.26 170.77 91.24 166.79" style="fill:gold"/><polygon points="97.69 166.79 100.66 166.79 103.84 163.62 98.87 163.62 91.72 170.77 93.71 170.77 97.69 166.79" style="fill:gold"/><polygon points="104.14 166.79 107.11 166.79 110.29 163.62 105.33 163.62 98.17 170.77 100.16 170.77 104.14 166.79" style="fill:gold"/><polygon points="110.59 166.79 113.56 166.79 116.74 163.62 111.78 163.62 104.62 170.77 106.61 170.77 110.59 166.79" style="fill:gold"/><polygon points="117.04 166.79 120.02 166.79 123.19 163.62 118.23 163.62 111.08 170.77 113.06 170.77 117.04 166.79" style="fill:gold"/><polygon points="123.49 166.79 126.47 166.79 129.64 163.62 124.68 163.62 117.53 170.77 119.52 170.77 123.49 166.79" style="fill:gold"/><polygon points="129.94 166.79 132.92 166.79 136.09 163.62 131.13 163.62 123.98 170.77 125.97 170.77 129.94 166.79" style="fill:gold"/><polygon points="15.91 45.6 13.18 45.6 11.24 48.97 13.18 52.34 15.91 52.34 13.97 48.97 15.91 45.6" style="fill:#0751cf"/><polygon points="22.9 45.6 20.16 45.6 18.22 48.97 20.16 52.34 22.9 52.34 20.95 48.97 22.9 45.6" style="fill:#0751cf"/><polygon points="29.88 45.6 27.14 45.6 25.2 48.97 27.14 52.34 29.88 52.34 27.93 48.97 29.88 45.6" style="fill:#0751cf"/><polygon points="36.86 45.6 34.13 45.6 32.18 48.97 34.13 52.34 36.86 52.34 34.91 48.97 36.86 45.6" style="fill:#0751cf"/><polygon points="43.84 45.6 41.11 45.6 39.16 48.97 41.11 52.34 43.84 52.34 41.9 48.97 43.84 45.6" style="fill:#0751cf"/><polygon points="50.82 45.6 48.09 45.6 46.15 48.97 48.09 52.34 50.82 52.34 48.88 48.97 50.82 45.6" style="fill:#0751cf"/><path d="M66.13,45.94H69l-5.17,5.17H61Zm11.59,0H74.83l-5.16,5.17h2.88Zm-4.35,0H70.48l-5.16,5.17H68.2Zm21.75,0H92.24l-5.17,5.17H90Zm-13.05,0H79.19L74,51.11H76.9Zm8.7,0H87.89l-5.17,5.17h2.89Zm-4.35,0H83.54l-5.17,5.17h2.88Z" style="fill:gold"/><rect x="121.74" y="100.38" width="19.89" height="2.67" style="fill:gold"/><rect x="129.61" y="96.38" width="9.2" height="1.78" style="fill:gold"/><rect x="12.22" y="160.93" width="17.81" height="2.37" style="fill:gold"/><path d="M108.88,53.59H113V49.43h-4.16Zm.59-3.56h3v3h-3Z" style="fill:gold"/><path d="M129.46,85.15V81.69H125.7v3.75h3.76Zm-3.17-2.87h2.57v2.57h-2.57Z" style="fill:gold"/><path d="M125.7,136.3h4.15v-4.16H125.7Zm.59-3.57h3v3h-3Z" style="fill:#0751cf"/><path d="M15.69,150.54h5.14V145.4H15.69Zm.59-4.55h4v4h-4Z" style="fill:gold"/><path d="M11.93,126h3.16v-3.17H11.93Zm.59-2.58h2v2h-2Z" style="fill:#0751cf"/><path d="M32.51,169.54H43.78V165H32.51Zm.59-4H43.19v3.36H33.1Z" style="fill:gold"/><path d="M131.24,59.72V81.09h3.36V59.72Zm.59.6H134V80.5h-2.18Z" style="fill:gold"/><path d="M132.62,51.31V46.07h-5.54v5.54h5.54Zm-4.94-4.65H132V51h-4.35Z" style="fill:gold"/><path d="M38.05,40.83V37.17h-4v3.95h4Zm-3.37-3.07h2.77v2.77H34.68Z" style="fill:gold"/><path d="M52.88,39.94h4.95V35H52.88Zm.6-4.36h3.76v3.76H53.48Z" style="fill:#0751cf"/><polygon points="21.38 79.57 18.51 79.57 18.51 76.7 16.89 76.7 16.89 79.57 14.03 79.57 14.03 81.19 16.89 81.19 16.89 84.06 18.51 84.06 18.51 81.19 21.38 81.19 21.38 79.57" style="fill:gold"/><polygon points="33.8 79.57 30.94 79.57 30.94 76.7 29.32 76.7 29.32 79.57 26.45 79.57 26.45 81.19 29.32 81.19 29.32 84.06 30.94 84.06 30.94 81.19 33.8 81.19 33.8 79.57" style="fill:gold"/><polygon points="46.23 79.57 43.37 79.57 43.37 76.7 41.74 76.7 41.74 79.57 38.88 79.57 38.88 81.19 41.74 81.19 41.74 84.06 43.37 84.06 43.37 81.19 46.23 81.19 46.23 79.57" style="fill:gold"/><polygon points="58.66 79.57 55.79 79.57 55.79 76.7 54.17 76.7 54.17 79.57 51.31 79.57 51.31 81.19 54.17 81.19 54.17 84.06 55.79 84.06 55.79 81.19 58.66 81.19 58.66 79.57" style="fill:gold"/></g><polygon points="69.01 48.59 66.47 47.79 66.47 45.45 75.88 45.45 75.88 48.59 69.01 48.59" style="fill:#060a0f"/><path d="M63.72,46.45V36.33a1.77,1.77,0,0,0-.19-3.54,1.77,1.77,0,0,0-.21,3.53V46.85h3.15v-.4Z" style="fill:#060a0f"/><polygon points="84.64 48.59 87.19 47.79 87.19 45.45 77.78 45.45 77.78 48.59 84.64 48.59" style="fill:#060a0f"/><path d="M89.94,46.45V36.33a1.81,1.81,0,1,1,.4,0V46.85H87.19v-.4Z" style="fill:#060a0f"/><path d="M99.62,115.49h1.77a1.49,1.49,0,0,0,1.49-1.49v-4.58a1.49,1.49,0,0,0-1.49-1.49H99.63v.6h1.76a.89.89,0,0,1,.89.89V114a.89.89,0,0,1-.89.89H99.62Z" style="fill:#5c544b"/><path d="M101.05,93.69h1.77a1.49,1.49,0,0,0,1.49-1.48V87.62a1.49,1.49,0,0,0-1.49-1.48h-1.75v.59h1.75a.89.89,0,0,1,.89.89v4.59a.88.88,0,0,1-.89.88h-1.77Z" style="fill:#d37830"/><polygon points="101.03 89.79 102.84 93.15 93.54 93.15 95.16 89.79 101.03 89.79" style="fill:#362618"/><polygon points="102.84 93.15 103.5 95.56 100.77 97.83 93.13 95.18 93.54 93.15 102.84 93.15" style="fill:#22150d"/><polygon points="93.13 95.18 94.32 97.12 100.77 97.83 93.13 95.18" style="fill:#362618"/><polygon points="96.84 99.7 102.5 99.7 102.84 99.79 100.35 110.1 95.98 110.05 95.84 106.1 96.99 104.65 96.84 99.7" style="fill:#d37830"/><polygon points="94.32 97.12 96.9 99.7 100.77 99.7 100.77 97.83 94.32 97.12" style="fill:#332116"/><rect x="97.54" y="110.02" width="1.8" height="5.59" transform="translate(196.88 225.64) rotate(180)" style="fill:#332116"/><polygon points="99.76 112.82 102.32 115.4 102.32 123.38 101.38 123.38 99.34 117.48 98.44 117.48 98.44 112.82 99.76 112.82" style="fill:#332116"/><polygon points="97.12 112.82 94.57 115.4 94.57 123.38 95.5 123.38 97.55 117.48 98.44 117.48 98.44 112.82 97.12 112.82" style="fill:#1e100b"/><polygon points="95.84 106.1 94.32 97.12 96.9 99.7 96.99 104.65 95.84 106.1" style="fill:#b96528"/><path d="M54.05,115.47H52.28A1.49,1.49,0,0,1,50.79,114V109.4a1.49,1.49,0,0,1,1.49-1.48H54v.6H52.28a.88.88,0,0,0-.89.88V114a.89.89,0,0,0,.89.89h1.77Z" style="fill:#5c544b"/><path d="M52.62,93.68H50.84a1.49,1.49,0,0,1-1.48-1.49V87.61a1.48,1.48,0,0,1,1.48-1.48H52.6v.59H50.84a.88.88,0,0,0-.88.89v4.58a.88.88,0,0,0,.88.89h1.78Z" style="fill:#d37830"/><path d="M82,143.62h4.64a3.84,3.84,0,0,0,3.84-3.84V128.39a3.84,3.84,0,0,0-3.84-3.84v.79a3.06,3.06,0,0,1,3.05,3v11.39a3.06,3.06,0,0,1-3.05,3.05H82Z"/><path d="M71.66,143.62H67a3.84,3.84,0,0,1-3.84-3.84V128.39A3.84,3.84,0,0,1,67,124.55v.79a3.06,3.06,0,0,0-3.05,3v11.39A3.06,3.06,0,0,0,67,142.83h4.63Z"/><polygon points="66.71 119.03 66.71 128.46 71.48 136.87 74 135.15 74 123.42 71.48 118.39 66.71 119.03" style="fill:#695b52"/><polygon points="66.71 119.03 74 135.15 74 123.42 71.48 118.39 66.71 119.03" style="fill:#8d807a"/><path d="M69.21,106.56h-.92V98.63a2.37,2.37,0,0,1,1.63-2.26l1.9-.63.29.88-1.9.63a1.45,1.45,0,0,0-1,1.38Z"/><polygon points="59.61 79.16 66.81 90.31 76.83 91.15 76.83 61.76 72.86 61.76 66.72 63.07 63.76 63.07 63.76 64.22 59.61 79.16" style="fill:#22150d"/><path d="M62.25,74.58l5.1,9.64s1.66,3.19,8.33-1.14V66.43l-.85-.53H65Z" style="fill:#807569"/><polygon points="50.16 78.3 52.64 89.78 58.51 89.78 60.13 76.37 52.11 76.67 50.16 78.3" style="fill:#807569"/><polygon points="60.69 62.71 63.59 64.17 66.24 67.05 65.18 68.46 62.66 66.6 60.69 62.71" style="fill:#c7bfb3"/><path d="M52.89,76l9.37-8.85a1.28,1.28,0,0,0,.21-1.6L60.93,63a1.11,1.11,0,0,0-.48-.43c-1.15-.54-5.27-2.12-7.68,1.57L49.41,69a5.53,5.53,0,0,0-.91,2.2l-.16.87a3.08,3.08,0,0,0,1.29,3.06l1.51,1A1.4,1.4,0,0,0,52.89,76Z" style="fill:#22150d"/><polygon points="65.18 68.46 52.42 76.28 62.66 66.6 65.18 68.46" style="fill:#b5a896"/><path d="M65.18,68.46s-.14,4.8-5.43,8.17c0,0-4,3.46-7.33-.35Z" style="fill:#92887a"/><path d="M49.63,75.09l-.26,2.15.8,1.06,3.31-1S52.1,74.62,49.63,75.09Z" style="fill:#d37830"/><path d="M52.42,77.59s3.86,3.67,7.59-.21l.12-1s-3.37,3.1-6.65.88Z" style="fill:#362618"/><polygon points="52.64 89.78 50.83 93.14 60.13 93.14 58.51 89.78 52.64 89.78" style="fill:#362618"/><polygon points="50.83 93.14 50.16 95.55 52.9 97.82 60.54 95.17 60.13 93.14 50.83 93.14" style="fill:#22150d"/><polygon points="60.54 95.17 59.35 97.11 52.9 97.82 60.54 95.17" style="fill:#362618"/><polygon points="68.71 90.47 70.92 94.11 76.83 94.11 76.83 91.15 68.71 90.47" style="fill:#d37830"/><polygon points="70.92 94.11 71.8 97.46 76.83 99.41 76.83 94.11 70.92 94.11" style="fill:#695b52"/><polygon points="71.8 97.46 73.52 99.01 76.83 99.41 71.8 97.46" style="fill:#22150d"/><path d="M73.55,99s-5.16,2.25-1,3.4h4.31V99.3Z" style="fill:#362618"/><polygon points="76.83 102.41 75.68 109.16 72.77 109.16 72.77 102.41 76.83 102.41" style="fill:#362618"/><polygon points="70.2 105.32 66.71 106.74 65.88 118.26 71.48 123.42 71.48 116.34 71.48 112.36 72.85 109.16 70.2 105.32" style="fill:#362618"/><rect x="69.55" y="118.39" width="0.73" height="41.66" style="fill:#362618"/><rect x="71.33" y="135.15" width="2.67" height="22.19" style="fill:#362618"/><polygon points="67.62 161.04 67.62 160.05 71.33 156.34 74 156.34 74 161.04 67.62 161.04" style="fill:#d37830"/><polygon points="67.62 161.04 66.71 161.04 65.5 165.01 69.08 163.62 74.97 162.1 74.97 161.04 67.62 161.04" style="fill:#695b52"/><polygon points="65.5 165.01 64.18 165.01 64.18 170.18 74 170.18 74.97 162.1 67.62 163.49 65.5 165.01" style="fill:#160e0a"/><polygon points="71.48 114.75 75.42 113.36 75.68 109.16 72.77 102.41 70.2 105.32 71.48 114.75" style="fill:#d37830"/><polygon points="75.42 113.36 72 119.43 71.48 118.39 71.48 114.75 75.42 113.36" style="fill:#695b52"/><polygon points="86.94 119.03 86.94 128.46 82.17 136.87 79.66 135.15 79.66 123.42 82.17 118.39 86.94 119.03" style="fill:#51463f"/><polygon points="86.94 119.03 79.66 135.15 79.66 123.42 82.17 118.39 86.94 119.03" style="fill:#796d66"/><path d="M84.44,106.56h.93V98.63a2.38,2.38,0,0,0-1.63-2.26l-1.9-.63-.29.88,1.9.63a1.45,1.45,0,0,1,1,1.38Z"/><polygon points="94.04 79.16 86.85 90.31 76.83 91.15 76.83 61.76 80.8 61.76 86.94 63.07 89.89 63.07 89.89 64.22 94.04 79.16" style="fill:#090001"/><path d="M91.4,74.58l-5.09,9.64S84.65,87.41,78,83.08V66.43l.85-.53h9.89Z" style="fill:#5c544b"/><polygon points="103.49 78.3 101.02 89.78 95.15 89.78 93.53 76.37 101.55 76.67 103.49 78.3" style="fill:#807569"/><polygon points="92.97 62.71 90.07 64.17 87.42 67.05 88.48 68.46 91 66.6 92.97 62.71" style="fill:#c7bfb3"/><path d="M100.77,76c-2.06-1.93-7.39-7-9.37-8.85a1.29,1.29,0,0,1-.22-1.6L92.73,63a1.08,1.08,0,0,1,.47-.43c1.16-.54,5.28-2.12,7.69,1.57L104.25,69a5.53,5.53,0,0,1,.91,2.2l.15.87A3,3,0,0,1,104,75.09l-1.51,1A1.39,1.39,0,0,1,100.77,76Z" style="fill:#22150d"/><polygon points="88.48 68.46 101.23 76.28 91 66.6 88.48 68.46" style="fill:#b5a896"/><path d="M88.48,68.46s.13,4.8,5.43,8.17c0,0,4,3.46,7.33-.35Z" style="fill:#92887a"/><path d="M104,75.09l.27,2.15-.8,1.06-3.32-1S101.56,74.62,104,75.09Z" style="fill:#d37830"/><path d="M101.24,77.59s-3.86,3.67-7.59-.21l-.12-1s3.37,3.1,6.64.88Z" style="fill:#362618"/><polygon points="56.83 99.69 51.17 99.69 50.83 99.78 53.32 110.09 57.69 110.03 57.83 106.09 56.68 104.64 56.83 99.69" style="fill:#d37830"/><polygon points="84.95 90.47 82.74 94.11 76.83 94.11 76.83 91.15 84.95 90.47" style="fill:#bb6b2e"/><polygon points="82.74 94.11 81.86 97.46 76.83 99.41 76.83 94.11 82.74 94.11" style="fill:#554941"/><polygon points="81.86 97.46 80.14 99.01 76.83 99.41 81.86 97.46" style="fill:#22150d"/><path d="M80.1,99s5.17,2.25,1,3.4H76.83V99.3Z" style="fill:#1e120c"/><polygon points="76.83 102.41 77.97 109.16 80.89 109.16 80.89 102.41 76.83 102.41" style="fill:#1e120c"/><polygon points="83.45 105.32 86.94 106.74 87.78 118.26 82.17 123.42 82.17 116.34 82.17 112.36 80.8 109.16 83.45 105.32" style="fill:#1e120c"/><rect x="83.38" y="118.39" width="0.73" height="41.66" transform="translate(167.49 278.44) rotate(180)" style="fill:#24160d"/><rect x="79.66" y="135.15" width="2.67" height="22.19" transform="translate(161.98 292.48) rotate(180)" style="fill:#24160d"/><polygon points="86.03 161.04 86.03 160.05 82.33 156.34 79.66 156.34 79.66 161.04 86.03 161.04" style="fill:#bf6729"/><polygon points="86.03 161.04 86.94 161.04 88.15 165.01 84.58 163.62 78.68 162.1 78.68 161.04 86.03 161.04" style="fill:#574940"/><polygon points="88.15 165.01 89.48 165.01 89.48 170.18 79.66 170.18 78.68 162.1 86.03 163.49 88.15 165.01" style="fill:#160e0a"/><polygon points="82.17 114.75 78.24 113.36 77.97 109.16 80.89 102.41 83.45 105.32 82.17 114.75" style="fill:#bb6b2e"/><polygon points="78.24 113.36 81.66 119.43 82.17 118.39 82.17 114.75 78.24 113.36" style="fill:#52453e"/><path d="M67.77,55.8v2.13l1.77,2.81,5.81,2h1.48V55.8Z" style="fill:#807569"/><path d="M76.83,40.84H73.17l-3.21,2H67v2.42l.76.43V55.8h9.06Z" style="fill:#695b52"/><path d="M85.89,55.8V45.68l.76-.43V42.83h-3l-3.21-2H76.83v15Z" style="fill:#574b43"/><path d="M76.83,55.8v6.91H78.3l5.82-2,1.77-2.81V55.8Z" style="fill:#71665b"/><polygon points="59.35 97.11 56.77 99.69 52.9 99.69 52.9 97.82 59.35 97.11" style="fill:#332116"/><rect x="54.33" y="110.01" width="1.8" height="5.59" style="fill:#332116"/><polygon points="53.91 112.81 51.35 115.39 51.35 123.37 52.29 123.37 54.33 117.47 55.23 117.47 55.23 112.81 53.91 112.81" style="fill:#332116"/><polygon points="56.55 112.81 59.1 115.39 59.1 123.37 58.16 123.37 56.12 117.47 55.23 117.47 55.23 112.81 56.55 112.81" style="fill:#1e100b"/><polygon points="57.83 106.09 59.35 97.11 56.77 99.69 56.68 104.64 57.83 106.09" style="fill:#b96528"/><rect x="72.3" y="44.54" width="1.93" height="8.74" style="fill:#22150d"/><rect x="79.09" y="44.54" width="1.93" height="8.74" style="fill:#22150d"/></g></g></svg>