<svg xmlns="http://www.w3.org/2000/svg" xmlns:xlink="http://www.w3.org/1999/xlink" viewBox="0 0 148.25 207.55"><defs><linearGradient id="Degradado_sin_nombre_6" x1="-14.83" y1="192.72" x2="163.07" y2="14.83" gradientUnits="userSpaceOnUse"><stop offset="0" stop-color="aqua"/><stop offset="1" stop-color="blue"/></linearGradient></defs><title>Asset 134</title><g id="Layer_2" data-name="Layer 2"><g id="Layer_3" data-name="Layer 3"><rect width="148.25" height="207.55" style="fill:url(#Degradado_sin_nombre_6)"/><g style="opacity:0.45"><polygon points="54.43 42.85 21.09 46.95 17.61 79.66 54.43 42.85" style="fill:#00158e"/><polygon points="140.05 131.08 120.65 34.7 59.37 42.24 17.1 84.51 8.84 162.22 114.89 156.24 140.05 131.08" style="fill:#00158e;opacity:0.2"/><polygon points="119.48 155.98 144.78 154.56 140.78 134.68 119.48 155.98" style="fill:#00158e"/><path d="M132.05,52.21H116.54V48.58h15.51Zm-14.94-.57h14.36V49.15H117.11Z" style="fill:#0751cf"/><path d="M21,146.8H4v-2.49H21Zm-16.46-.57H20.42v-1.34H4.53Z" style="fill:#0751cf"/><path d="M46.27,163.65h-6.7V153.5h6.7Zm-6.13-.57h5.55v-9H40.14Z" style="fill:#0751cf"/><path d="M136.64,92h-8.23V83.81h8.23ZM129,91.47h7.09V84.38H129Z" style="fill:gold"/><path d="M24.92,58.72H12.57v-2H24.92Zm-11.78-.57h11.2v-.86H13.14Z" style="fill:gold"/><rect x="36.41" y="156.28" width="0.96" height="6.32" style="fill:gold"/><rect x="136.16" y="105.35" width="1.34" height="22.02" style="fill:gold"/><rect x="96.15" y="33.74" width="1.53" height="8.81" style="fill:gold"/><rect x="10.17" y="141.54" width="8.81" height="0.96" style="fill:gold"/><rect x="136.16" y="149.96" width="2.49" height="9.57" style="fill:gold"/><rect x="9.91" y="96.29" width="3.69" height="3.7" transform="translate(72.82 20.41) rotate(44.98)" style="fill:gold"/><rect x="17.53" y="96.28" width="3.69" height="3.7" transform="translate(75.04 15.02) rotate(44.98)" style="fill:gold"/><rect x="25.16" y="96.27" width="3.69" height="3.7" transform="translate(77.27 9.63) rotate(44.98)" style="fill:gold"/><rect x="32.78" y="96.26" width="3.69" height="3.7" transform="translate(79.49 4.24) rotate(44.98)" style="fill:gold"/><rect x="40.4" y="96.25" width="3.69" height="3.7" transform="translate(81.71 -1.15) rotate(44.98)" style="fill:gold"/><rect x="48.03" y="96.24" width="3.69" height="3.7" transform="translate(83.94 -6.55) rotate(44.98)" style="fill:gold"/><rect x="63.6" y="36.99" width="17.81" height="6.13" style="fill:gold"/><rect x="88.49" y="153.02" width="5.74" height="9.19" style="fill:gold"/><rect x="128.12" y="61.5" width="3.26" height="17.04" style="fill:gold"/><polygon points="126.59 139.72 126.59 129.04 124.66 130.97 124.66 137.79 117.85 137.79 115.92 139.72 126.59 139.72" style="fill:#0751cf"/><polygon points="114.1 127.11 114.1 137.79 116.03 135.85 116.03 129.04 122.85 129.04 124.78 127.11 114.1 127.11" style="fill:#0751cf"/></g><path d="M93.16,34.36a1.58,1.58,0,1,0-1.75,1.57v9H89v.35h2.79V35.92A1.57,1.57,0,0,0,93.16,34.36Z" style="fill:#060a0f"/><polygon points="87.2 46.81 89.45 46.1 89.45 44.02 81.11 44.02 81.11 46.81 87.2 46.81" style="fill:#060a0f"/><path d="M61.71,34.36a1.58,1.58,0,0,1,3.15,0,1.59,1.59,0,0,1-1.41,1.57v9h2.44v.35h-2.8V35.92A1.56,1.56,0,0,1,61.71,34.36Z" style="fill:#060a0f"/><polygon points="67.67 46.81 65.41 46.1 65.41 44.02 73.76 44.02 73.76 46.81 67.67 46.81" style="fill:#060a0f"/><path d="M66.9,109.27h0a2.44,2.44,0,0,1-2.26-2.57V90.15h.77V106.7a1.6,1.6,0,0,0,1.49,1.69h0Z" style="fill:#121718"/><path d="M67.62,97.87H64.09a2.65,2.65,0,0,1-2.47-2.8V83.47h.77v11.6A1.83,1.83,0,0,0,64.09,97h3.53Z" style="fill:#121718"/><polygon points="69.32 152.46 67.34 152.46 67.34 153.81 68.21 153.81 68.21 158.58 64.88 162.37 71.14 162.37 71.14 152.46 69.32 152.46" style="fill:#e6be32"/><polygon points="59.1 93.24 59.69 79.44 55.12 84.31 55.72 90.97 59.1 93.24" style="fill:#8e431f"/><polygon points="50.4 78.6 53.92 93.42 55.72 93.42 55.72 87.75 58.91 79.38 58.09 77.52 50.4 78.6" style="fill:#323432"/><polygon points="63.66 60.68 63.68 50.58 66.14 50.58 68.46 53.22 68.46 56.06 69.75 56.56 64.91 62.29 63.66 60.68" style="fill:#302c16"/><rect x="61.7" y="50.58" width="1.98" height="13.68" style="fill:#5c511e"/><polygon points="50.5 65.5 52.27 68.78 56.08 69.13 53.87 63.06 52.27 63.37 50.5 65.5" style="fill:#f38d30"/><path d="M56.08,69.13s-4.89-1.82-5.87,1.76l-.58,2.23S49.18,80,53,81c0,0,5.07,3.35,6.66-1.54Z" style="fill:#521e52"/><path d="M59.69,79.44l7.93-13.68-4-5.08s-8.25-.89-9.79,2.38Z" style="fill:#c8a42b"/><polygon points="59.69 79.44 66.31 93.58 68.89 92.83 65.49 69.43 59.69 79.44" style="fill:#e6be32"/><polygon points="67.62 65.76 77.43 65.76 77.43 80.53 72.53 82.42 66.9 79.12 65.49 69.43 67.62 65.76" style="fill:#f3c629"/><polygon points="68.89 92.83 77.43 92.83 77.43 80.53 72.53 82.42 66.9 79.12 68.89 92.83" style="fill:#9e8428"/><polygon points="66.31 93.58 67.62 95.81 77.43 95.81 77.43 92.83 68.89 92.83 66.31 93.58" style="fill:#8a7727"/><polygon points="67.62 95.81 67.62 99.06 77.43 97.44 77.43 95.81 67.62 95.81" style="fill:#756623"/><path d="M67.62,99.06v3.44h2.94s3.52-3.81,6.87-3.9V97.43Z" style="fill:#5f521d"/><path d="M68.89,102.5v2.14l1.25,1.42,6.15-3.56,1.14-4.13A21.37,21.37,0,0,0,68.89,102.5Z" style="fill:#443e19"/><polygon points="74.9 105.34 75.94 106.52 75.94 111.06 74.41 120.17 74.41 132.9 69.44 132.9 66.9 108.17 68.89 108.17 70.64 105.85 74.9 105.34" style="fill:#e6be32"/><polygon points="69.44 105.27 69.44 107.43 70.81 107.43 71.87 108.17 73.51 108.17 76.29 102.5 69.44 105.27" style="fill:#383316"/><polygon points="73.16 131.69 73.16 147.04 71.69 147.04 68.01 129.93 70.58 129.93 73.16 131.69" style="fill:#383316"/><rect x="73.16" y="132.9" width="1.25" height="14.13" style="fill:#443e19"/><polygon points="71.69 147.04 69.44 151.62 69.44 158.8 74.41 158.8 74.41 147.04 71.69 147.04" style="fill:#2b2815"/><polygon points="74.41 132.9 75.55 132.9 75.55 147.87 77.02 149.55 77.02 158.8 74.41 158.8 74.41 132.9" style="fill:#383316"/><polygon points="64.91 62.29 69.44 56.56 77.43 59.83 77.43 65.76 67.42 65.76 64.91 62.29" style="fill:#756623"/><polygon points="71.6 57.43 71.6 61.16 77.43 63.37 77.43 59.83 71.6 57.43" style="fill:#5c511e"/><path d="M56.78,103.73v-3.46H54.54v3.46H53.19v4.65l1.22,1.13V119.8H57v-9.18a2.06,2.06,0,0,0,1.21-2v-4.93Z" style="fill:#323432"/><path d="M56.59,112.13l-2.18.12a1,1,0,0,0-.81,1.12l1.18,10.24L57,123.5l.49-10.32A.93.93,0,0,0,56.59,112.13Z" style="fill:#9e4e23"/><polygon points="54.2 128.3 58.11 128.1 57.9 122.87 53.99 123.07 54.2 128.3" style="fill:#f38d30"/><path d="M56.19,128.2a3.7,3.7,0,0,0,0,.71,1.27,1.27,0,0,0,.55,1c.65.41,1.75,1.64,2.06,5.4a.31.31,0,0,0,.31.31h0a.63.63,0,0,0,.56-.68l-.21-5.05a1,1,0,0,0-.28-.68l-1.07-1.1Z" style="fill:#876d58"/><path d="M56.33,128.19a3.28,3.28,0,0,1,.06.7,1.25,1.25,0,0,1-.52,1.06c-.68.47-1.81,1.82-1.83,5.6a.35.35,0,0,1-.33.35h0a.64.64,0,0,1-.67-.62l-.21-5.05a1,1,0,0,1,.26-.71l1.09-1.22Z" style="fill:#9f8068"/><polygon points="51.56 102.9 59.1 102.9 59.1 93.24 53.06 89.17 49.65 95.31 51.56 102.9" style="fill:#de8053"/><polygon points="77.43 39.8 71.14 39.8 68.28 43.05 68.28 52.98 77.43 52.98 77.43 39.8" style="fill:#5c511e"/><polygon points="68.28 52.98 68.28 56.06 77.43 59.83 77.43 52.98 68.28 52.98" style="fill:#443e19"/><rect x="73.16" y="43.12" width="1.35" height="6.83" style="fill:#121718"/><path d="M77,161.4v-9.91h-.74v3.39a1.47,1.47,0,0,1-1.37,1.56v5Z" style="fill:#e08230"/><path d="M69.44,161.53v-9.91h2V155a1.48,1.48,0,0,0,1.37,1.57v4.95Z" style="fill:#e08230"/><rect x="69.44" y="158.75" width="7.56" height="2.79" style="fill:#2b2815"/><rect x="71.14" y="161.53" width="5.86" height="0.84" style="fill:#e6be32"/><rect x="64.88" y="162.37" width="12.14" height="1.88" style="fill:#2b2815"/><polygon points="67.34 152.46 71.14 144.69 71.69 147.04 69.44 151.62 69.44 152.46 67.34 152.46" style="fill:#1c1b0f"/><path d="M88,109.27h0a2.43,2.43,0,0,0,2.26-2.57V90.15h-.77V106.7A1.6,1.6,0,0,1,88,108.39h0Z" style="fill:#121718"/><path d="M87.24,97.87h3.54a2.65,2.65,0,0,0,2.46-2.8V83.47h-.77v11.6A1.83,1.83,0,0,1,90.78,97H87.24Z" style="fill:#121718"/><polygon points="85.55 152.46 87.53 152.46 87.53 153.81 86.66 153.81 86.66 158.58 89.98 162.37 83.72 162.37 83.72 152.46 85.55 152.46" style="fill:#b8992b"/><polygon points="95.77 93.24 95.17 79.44 99.74 84.31 99.14 90.97 95.77 93.24" style="fill:#743216"/><polygon points="104.47 78.6 100.94 93.42 99.14 93.42 99.14 87.75 95.95 79.38 96.77 77.52 104.47 78.6" style="fill:#181b1c"/><polygon points="91.21 60.68 91.18 50.58 88.72 50.58 86.4 53.22 86.4 56.06 85.11 56.56 89.95 62.29 91.21 60.68" style="fill:#201f11"/><rect x="91.18" y="50.58" width="1.98" height="13.68" transform="translate(184.35 114.84) rotate(180)" style="fill:#544b1a"/><polygon points="104.37 65.5 102.59 68.78 98.79 69.13 100.99 63.06 102.59 63.37 104.37 65.5" style="fill:#e1802a"/><path d="M98.79,69.13s4.89-1.82,5.87,1.76l.57,2.23s.45,6.88-3.39,7.86c0,0-5.07,3.35-6.67-1.54Z" style="fill:#2d0233"/><path d="M95.17,79.44,87.24,65.76l4-5.08s8.25-.89,9.78,2.38Z" style="fill:#b69729"/><polygon points="95.17 79.44 88.55 93.58 85.97 92.83 89.37 69.43 95.17 79.44" style="fill:#ceab2e"/><polygon points="87.24 65.76 77.43 65.76 77.43 80.53 82.34 82.42 87.96 79.12 89.37 69.43 87.24 65.76" style="fill:#c7a52d"/><polygon points="85.97 92.83 77.43 92.83 77.43 80.53 82.34 82.42 87.96 79.12 85.97 92.83" style="fill:#8a7727"/><polygon points="88.55 93.58 87.24 95.81 77.43 95.81 77.43 92.83 85.97 92.83 88.55 93.58" style="fill:#776422"/><polygon points="87.24 95.81 87.24 99.06 77.43 97.44 77.43 95.81 87.24 95.81" style="fill:#5f521d"/><path d="M87.24,99.06v3.44H84.3s-3.52-3.81-6.87-3.9V97.43Z" style="fill:#4f4519"/><path d="M86,102.5v2.14l-1.24,1.42-6.15-3.56-1.15-4.13A21.37,21.37,0,0,1,86,102.5Z" style="fill:#343016"/><polygon points="79.97 105.34 78.92 106.52 78.92 111.06 80.46 120.17 80.46 132.9 85.42 132.9 87.96 108.17 85.97 108.17 84.22 105.85 79.97 105.34" style="fill:#bf9e2a"/><polygon points="85.42 105.27 85.42 107.43 84.05 107.43 82.99 108.17 81.36 108.17 78.58 102.5 85.42 105.27" style="fill:#2d2915"/><polygon points="81.7 131.69 81.7 147.04 83.17 147.04 86.85 129.93 84.28 129.93 81.7 131.69" style="fill:#232112"/><rect x="80.46" y="132.9" width="1.25" height="14.13" transform="translate(162.16 279.94) rotate(180)" style="fill:#201f11"/><polygon points="83.17 147.04 85.42 151.62 85.42 158.8 80.46 158.8 80.46 147.04 83.17 147.04" style="fill:#201f11"/><polygon points="80.46 132.9 79.31 132.9 79.31 147.87 77.84 149.55 77.84 158.8 80.46 158.8 80.46 132.9" style="fill:#232112"/><polygon points="89.95 62.29 85.42 56.56 77.43 59.83 77.43 65.76 87.44 65.76 89.95 62.29" style="fill:#6b5f21"/><polygon points="83.26 57.43 83.26 61.16 77.43 63.37 77.43 59.83 83.26 57.43" style="fill:#544b1a"/><path d="M98.08,103.73v-3.46h2.24v3.46h1.35v4.65l-1.21,1.13V119.8h-2.6v-9.18a2.06,2.06,0,0,1-1.22-2v-4.93Z" style="fill:#252827"/><path d="M98.27,112.13l2.18.12a1,1,0,0,1,.82,1.12l-1.19,10.24-2.21-.11-.5-10.32A.94.94,0,0,1,98.27,112.13Z" style="fill:#853f1e"/><polygon points="100.66 128.3 96.75 128.1 96.97 122.87 100.87 123.07 100.66 128.3" style="fill:#f38d30"/><path d="M98.68,128.2a5.3,5.3,0,0,1,0,.71,1.24,1.24,0,0,1-.55,1c-.64.41-1.75,1.64-2,5.4a.33.33,0,0,1-.32.31h0a.62.62,0,0,1-.55-.68l.2-5.05a1.07,1.07,0,0,1,.28-.68l1.07-1.1Z" style="fill:#876d58"/><path d="M98.53,128.19a4.14,4.14,0,0,0-.06.7A1.25,1.25,0,0,0,99,130c.69.47,1.81,1.82,1.83,5.6a.36.36,0,0,0,.33.35h0a.63.63,0,0,0,.67-.62l.21-5.05a1,1,0,0,0-.26-.71l-1.09-1.22Z" style="fill:#9f8068"/><polygon points="103.31 102.9 95.77 102.9 95.77 93.24 101.8 89.17 105.21 95.31 103.31 102.9" style="fill:#cf7743"/><polygon points="77.43 39.8 83.72 39.8 86.58 43.05 86.58 52.98 77.43 52.98 77.43 39.8" style="fill:#4c4419"/><polygon points="86.58 52.98 86.58 56.06 77.43 59.83 77.43 52.98 86.58 52.98" style="fill:#343016"/><rect x="80.35" y="43.12" width="1.35" height="6.83" transform="translate(162.05 93.06) rotate(180)" style="fill:#121718"/><path d="M77.86,161.4v-9.91h.74v3.39A1.47,1.47,0,0,0,80,156.44v5Z" style="fill:#bf6c29"/><path d="M85.42,161.53v-9.91h-2V155a1.48,1.48,0,0,1-1.38,1.57v4.95Z" style="fill:#bf6c29"/><rect x="77.86" y="158.75" width="7.56" height="2.79" transform="translate(163.28 320.28) rotate(180)" style="fill:#201f11"/><rect x="77.86" y="161.53" width="5.86" height="0.84" transform="translate(161.58 323.9) rotate(180)" style="fill:#b8992b"/><rect x="77.84" y="162.37" width="12.14" height="1.88" transform="translate(167.82 326.61) rotate(180)" style="fill:#1a1b10"/><polygon points="87.53 152.46 83.72 144.69 83.17 147.04 85.42 151.62 85.42 152.46 87.53 152.46" style="fill:#1c1b0f"/></g></g></svg>