<svg xmlns="http://www.w3.org/2000/svg" xmlns:xlink="http://www.w3.org/1999/xlink" viewBox="0 0 148.25 207.55"><defs><linearGradient id="Degradado_sin_nombre_6" x1="-14.83" y1="192.72" x2="163.07" y2="14.83" gradientUnits="userSpaceOnUse"><stop offset="0" stop-color="aqua"/><stop offset="1" stop-color="blue"/></linearGradient></defs><title>Asset 139</title><g id="Layer_2" data-name="Layer 2"><g id="Layer_3" data-name="Layer 3"><rect width="148.25" height="207.55" style="fill:url(#Degradado_sin_nombre_6)"/><g style="opacity:0.45"><path d="M135.67,57.3V51.48h5V57.3Zm5-11.64V39.85h-5v5.81ZM129.86,63.11h5.81V57.3h-5.81ZM27.77,163.74h5.81V158.8H27.77ZM22,153v5.81h5.82V153ZM135.67,63.11v5.82h-5.81V63.11H124v5.82h-5.82V63.11H124V57.3h5.82V51.48h5.81V45.66h-5.81V39.85H124v5.81h-5.82V39.85H124V36.54H13.45v127.2H22V158.8H16.13V153H22v-5.82H16.13v-5.82H22v5.82h5.82V153h5.81v5.81H39.4v4.94h5.82V158.8H51v4.94h89.62V63.11Zm0-26.57h-5.81v3.31h5.81Z" style="fill:#00158e;opacity:0.2"/><rect x="49.85" y="165.43" width="5.82" height="5.82" style="fill:gold"/><rect x="37.43" y="166.76" width="5.82" height="5.82" style="fill:gold"/><rect x="4.7" y="167.38" width="5.82" height="5.82" style="fill:gold"/><rect x="31.33" y="160.4" width="5.82" height="5.82" style="fill:gold"/><rect x="17.71" y="170.03" width="5.82" height="5.82" style="fill:gold"/><rect x="13.51" y="160.86" width="5.82" height="5.82" style="fill:gold"/><rect x="8.32" y="145.11" width="5.82" height="5.82" style="fill:gold"/><rect x="9.87" y="154.38" width="5.82" height="5.82" style="fill:gold"/><polygon points="109.98 40.97 17.69 40.97 17.69 130.94 22.05 126.58 22.05 101.86 28.74 101.86 28.74 66.96 35.53 60.17 35.53 50.28 71.98 50.28 78.09 44.17 109.98 44.17 109.98 40.97" style="fill:#0751cf"/><rect x="139.84" y="82.66" width="1.94" height="29.47" style="fill:none"/><polygon points="59.81 169 144.45 169 144.45 97.45 143.87 97.45 143.87 168.41 59.81 168.41 59.81 169 59.81 169" style="fill:gold"/><rect x="18.46" y="34.87" width="3.39" height="2.71" style="fill:gold"/><rect x="25.83" y="34.87" width="3.39" height="2.71" style="fill:gold"/><rect x="33.2" y="34.87" width="3.39" height="2.71" style="fill:gold"/><rect x="40.57" y="34.87" width="3.39" height="2.71" style="fill:gold"/><rect x="47.94" y="34.87" width="3.39" height="2.71" style="fill:gold"/><rect x="55.3" y="34.87" width="3.39" height="2.71" style="fill:gold"/><rect x="62.67" y="34.87" width="3.39" height="2.71" style="fill:gold"/><rect x="136.6" y="74.03" width="1.45" height="9.31" style="fill:gold"/><rect x="136.6" y="98.32" width="1.45" height="61.37" style="fill:gold"/><polygon points="52.01 51.87 49.93 49.79 52.01 47.7 50.83 46.52 48.75 48.61 46.67 46.52 45.49 47.7 47.57 49.79 45.49 51.87 46.67 53.05 48.75 50.97 50.83 53.05 52.01 51.87" style="fill:gold"/><polygon points="60.74 51.87 58.66 49.79 60.74 47.7 59.56 46.52 57.48 48.61 55.39 46.52 54.21 47.7 56.3 49.79 54.21 51.87 55.39 53.05 57.48 50.97 59.56 53.05 60.74 51.87" style="fill:gold"/><polygon points="69.46 51.87 67.38 49.79 69.46 47.7 68.28 46.52 66.2 48.61 64.12 46.52 62.94 47.7 65.02 49.79 62.94 51.87 64.12 53.05 66.2 50.97 68.28 53.05 69.46 51.87" style="fill:gold"/><polygon points="78.19 51.87 76.11 49.79 78.19 47.7 77.01 46.52 74.93 48.61 72.84 46.52 71.66 47.7 73.75 49.79 71.66 51.87 72.84 53.05 74.93 50.97 77.01 53.05 78.19 51.87" style="fill:gold"/></g><path d="M89.92,38.92a1.52,1.52,0,1,0-1.68,1.5v8.63H85.9v.34h2.69v-9A1.51,1.51,0,0,0,89.92,38.92Z" style="fill:#060a0f"/><polygon points="84.19 50.88 86.36 50.19 86.36 48.19 78.34 48.19 78.34 50.88 84.19 50.88" style="fill:#060a0f"/><path d="M59.71,38.92a1.52,1.52,0,1,1,1.68,1.5v8.63h2.34v.34H61.05v-9A1.51,1.51,0,0,1,59.71,38.92Z" style="fill:#060a0f"/><polygon points="65.44 50.88 63.27 50.19 63.27 48.19 71.29 48.19 71.29 50.88 65.44 50.88" style="fill:#060a0f"/><path d="M112.51,78.79a2.79,2.79,0,0,1,2.79,2.79V93.21A2.79,2.79,0,0,1,112.51,96h-4V95h4a1.74,1.74,0,0,0,1.74-1.74V81.58a1.74,1.74,0,0,0-1.74-1.74Z" style="fill:#323432"/><path d="M36.5,78.79a2.79,2.79,0,0,0-2.78,2.79V93.21A2.79,2.79,0,0,0,36.5,96h4V95h-4a1.74,1.74,0,0,1-1.74-1.74V81.58a1.74,1.74,0,0,1,1.74-1.74Z" style="fill:#323432"/><rect x="102.25" y="101.48" width="2.75" height="3.08" style="fill:#5f7291"/><path d="M104.26,102.47h0A4.25,4.25,0,0,0,108,97.75L106.15,83a4.25,4.25,0,0,0-4.72-3.69h0c-2.31.29-2.94.27-3.5,2.56l2.55,19.75C100.76,103.9,102,102.75,104.26,102.47Z" style="fill:#99bb59"/><path d="M100,112.16l1.73,1.4a1.54,1.54,0,0,0,2.51-1.2v-3.65H100Z" style="fill:#323432"/><rect x="101.07" y="110.6" width="2.19" height="10" transform="translate(204.32 231.2) rotate(180)" style="fill:#323432"/><path d="M102.9,114.93l-1.83.09a.72.72,0,0,0-.68.82l1,7.59,1.87-.09.42-7.63A.74.74,0,0,0,102.9,114.93Z" style="fill:#938f8b"/><polygon points="100.9 126.89 104.18 126.74 103.27 122.87 101.24 122.87 100.9 126.89" style="fill:#dfd5d5"/><path d="M102.57,126.82a2,2,0,0,0,0,.52.91.91,0,0,0,.46.74c.55.3,1.47,1.21,1.73,4a.25.25,0,0,0,.27.23h0a.48.48,0,0,0,.46-.51l-.17-3.73a.7.7,0,0,0-.24-.5l-.89-.82Z" style="fill:#adaca9"/><path d="M102.69,126.81a3.42,3.42,0,0,1,0,.52.87.87,0,0,1-.44.78c-.58.35-1.52,1.35-1.54,4.15a.27.27,0,0,1-.28.25h0a.5.5,0,0,1-.56-.46l-.18-3.73a.74.74,0,0,1,.22-.53l.92-.9Z" style="fill:#5f7291"/><polygon points="108.9 92.51 110.26 95.61 106.5 103.04 103.79 100.23 103.79 96.52 108.9 92.51" style="fill:#adaca9"/><polygon points="106.5 103.04 105.29 104.49 100.48 101.59 100.48 99.05 100.63 96.61 103.79 96.52 106.5 103.04" style="fill:#938f8b"/><path d="M105.29,104.49s-1.92,6.52-5.23,6.48l.42-9.38Z" style="fill:#726f6c"/><polygon points="105.11 105.08 105.76 106.05 103.67 110.97 100.06 110.97 105.11 105.08" style="fill:#444344"/><path d="M104.62,108l2.81-2.81a3.83,3.83,0,0,0,0-5.39l-1.07-1.07-.71.71,1.07,1.07a2.82,2.82,0,0,1,0,4l-2.81,2.81Z"/><path d="M108.76,82.43s1.64,9.62-4,11.67h-4l-1.1-11.44S105.55,81,108.76,82.43Z" style="fill:#451b46"/><rect x="44.01" y="101.65" width="2.75" height="3.08" style="fill:#5f7291"/><path d="M44.76,102.64h0a4.25,4.25,0,0,1-3.69-4.72l1.8-14.78a4.24,4.24,0,0,1,4.71-3.69h0c2.32.28,2.94.27,3.51,2.56l-2.55,19.75C48.26,104.07,47.07,102.92,44.76,102.64Z" style="fill:#99bb59"/><path d="M49,112.33l-1.72,1.39a1.54,1.54,0,0,1-2.51-1.19v-3.65H49Z" style="fill:#323432"/><rect x="45.76" y="110.77" width="2.19" height="10" style="fill:#323432"/><path d="M46.11,115.1l1.83.09a.72.72,0,0,1,.69.82l-1,7.58-1.86-.08-.42-7.64A.73.73,0,0,1,46.11,115.1Z" style="fill:#938f8b"/><polygon points="48.12 127.06 44.83 126.91 45.74 123.04 47.77 123.04 48.12 127.06" style="fill:#dfd5d5"/><path d="M46.45,127a3,3,0,0,1,0,.53.91.91,0,0,1-.46.74c-.54.29-1.47,1.21-1.73,4a.25.25,0,0,1-.27.23h0a.49.49,0,0,1-.46-.51l.17-3.73a.74.74,0,0,1,.24-.5l.9-.82Z" style="fill:#adaca9"/><path d="M46.33,127a1.92,1.92,0,0,0,0,.52.89.89,0,0,0,.43.78c.58.35,1.53,1.35,1.55,4.14a.27.27,0,0,0,.27.26h0a.52.52,0,0,0,.57-.46l.17-3.73a.72.72,0,0,0-.21-.53l-.92-.9Z" style="fill:#5f7291"/><polygon points="40.11 92.68 38.76 95.78 42.52 103.21 45.23 100.4 45.23 96.69 40.11 92.68" style="fill:#adaca9"/><polygon points="42.52 103.21 43.72 104.66 48.54 101.76 48.54 99.22 48.39 96.78 45.23 96.69 42.52 103.21" style="fill:#938f8b"/><path d="M43.72,104.66s1.93,6.52,5.24,6.48l-.42-9.38Z" style="fill:#726f6c"/><polygon points="43.9 105.25 43.25 106.22 45.35 111.14 48.96 111.14 43.9 105.25" style="fill:#444344"/><path d="M44.4,108.14l-2.81-2.81a3.81,3.81,0,0,1,0-5.39l1.06-1.07.71.71-1.07,1.07a2.82,2.82,0,0,0,0,4l2.81,2.81Z"/><path d="M49.78,60.3l-.8-.22c.06-.19,1.33-4.66,4.05-5a3.38,3.38,0,0,1,2.49.75,12,12,0,0,1,2.8,3.3l-.7.44A11.1,11.1,0,0,0,55,56.45a2.57,2.57,0,0,0-1.88-.6C51,56.16,49.79,60.26,49.78,60.3Z" style="fill:#004248"/><path d="M47.12,60.62l-.79-.24a23.21,23.21,0,0,1,1.71-4,12.62,12.62,0,0,1,2.09-2.9,4.87,4.87,0,0,1,2.95-1.58,4.71,4.71,0,0,1,3.51,1.28,17.77,17.77,0,0,1,3.84,5.15l-.73.39a17,17,0,0,0-3.63-4.9,3.92,3.92,0,0,0-2.9-1.1c-1.91.19-3.44,2.3-4.39,4A23.34,23.34,0,0,0,47.12,60.62Z" style="fill:#004248"/><polygon points="45.05 64.17 45.62 60.34 52.04 58.22 53.98 59.48 47.73 65.62 45.05 64.17" style="fill:#105b65"/><path d="M47.73,63.36l1.59-2.72,14.06-3.51L62,61.83l6.91,12-1.89,6S60.72,89,52.81,77.94Z" style="fill:#99bb59"/><polygon points="43.18 66.53 44.01 64.48 47.73 63.36 52.81 74.86 52.81 77.94 50.27 77.94 43.18 66.53" style="fill:#510f33"/><path d="M37.12,80.33a2.64,2.64,0,0,1,1.28,1,3.22,3.22,0,0,0,2.65,1.42H45.7l1.66.44a1.47,1.47,0,0,0,.78,0l1.18-.31a1.83,1.83,0,0,0,1.34-1.44c.35-1.9.86-5.56-.24-6.48l-7.24-8.38-3.22.9-4.67,7.24a2.42,2.42,0,0,0-.27,2l.68,2.14A2.32,2.32,0,0,0,37.12,80.33Z" style="fill:#7b2e52"/><path d="M40.26,82.6s-1.64,9.62,4,11.67h4l1.1-11.44S43.47,81.16,40.26,82.6Z" style="fill:#451b46"/><path d="M55.7,81.21V87l4.73-3.55S58.85,83.35,55.7,81.21Z" style="fill:#7b2e52"/><polygon points="74.57 81.37 74.57 74.51 73.33 74.51 67.55 71.42 68 72.97 67.04 79.83 74.57 81.37" style="fill:#408f83"/><polygon points="74.57 79.42 65.3 79.42 60.43 83.4 63.49 88.14 66.95 94.27 74.57 94.27 74.57 79.42" style="fill:#004248"/><rect x="66.95" y="94.27" width="7.62" height="2.05" style="fill:#408f83"/><rect x="66.95" y="96.32" width="7.62" height="2.05" style="fill:#105b65"/><rect x="67" y="98.36" width="7.57" height="2.05" style="fill:#408f83"/><path d="M74.57,100.41H67a26,26,0,0,0-5.71,12.28l6.26,10.86,4.29-1.71,2-6.32L74.57,103Z" style="fill:#105b65"/><polygon points="74.57 47.55 66.95 47.55 62.02 61.83 64.54 66.53 74.57 66.53 74.57 47.55" style="fill:#105b65"/><polygon points="74.57 66.53 64.54 66.53 68 72.97 74.57 75.33 74.57 66.53" style="fill:#014a50"/><polygon points="47.73 63.36 62.02 61.83 63.38 57.13 49.32 60.64 47.73 63.36" style="fill:#a9d058"/><path d="M52.81,74.86s7.87,5.41,12.49,4.56l-4.87,4a11.65,11.65,0,0,1-7.62-5.46Z" style="fill:#839c4a"/><polygon points="65.3 79.42 68 72.97 67.17 79.42 65.3 79.42" style="fill:#31796d"/><polygon points="44.01 64.48 52.81 74.86 47.73 63.36 44.01 64.48" style="fill:#41042b"/><polygon points="39.96 67.43 49.32 82.83 51.09 82.01 51.09 75.38 43.18 66.53 39.96 67.43" style="fill:#41042b"/><polygon points="55.7 86.95 63.73 88.56 60.43 83.4 55.7 86.95" style="fill:#41042b"/><path d="M99.36,60.3l.8-.22c-.06-.19-1.34-4.66-4.06-5a3.37,3.37,0,0,0-2.48.75,12,12,0,0,0-2.8,3.3l.7.44a10.93,10.93,0,0,1,2.59-3.07,2.57,2.57,0,0,1,1.88-.6C98.17,56.16,99.35,60.26,99.36,60.3Z" style="fill:#004248"/><path d="M102,60.62l.79-.24a23.72,23.72,0,0,0-1.72-4A12.32,12.32,0,0,0,99,53.45a4.87,4.87,0,0,0-3-1.58,4.73,4.73,0,0,0-3.52,1.28,17.76,17.76,0,0,0-3.83,5.15l.73.39a16.8,16.8,0,0,1,3.63-4.9,3.91,3.91,0,0,1,2.9-1.1c1.91.19,3.44,2.3,4.39,4A23.34,23.34,0,0,1,102,60.62Z" style="fill:#004248"/><polygon points="104.09 64.17 103.52 60.34 97.1 58.22 95.16 59.48 101.41 65.62 104.09 64.17" style="fill:#014a50"/><path d="M101.41,63.36l-1.59-2.72L85.76,57.13l1.36,4.7-6.91,12,1.89,6S88.42,89,96.33,77.94Z" style="fill:#839b44"/><polygon points="105.95 66.53 105.12 64.48 101.41 63.36 96.33 74.86 96.33 77.94 98.87 77.94 105.95 66.53" style="fill:#3a0628"/><path d="M112,80.33a2.7,2.7,0,0,0-1.29,1,3.19,3.19,0,0,1-2.64,1.42h-4.65l-1.66.44a1.47,1.47,0,0,1-.78,0l-1.18-.31a1.83,1.83,0,0,1-1.34-1.44c-.35-1.9-.86-5.56.23-6.48L106,66.53l3.22.9,4.67,7.24a2.42,2.42,0,0,1,.27,2l-.68,2.14A2.35,2.35,0,0,1,112,80.33Z" style="fill:#591c3c"/><path d="M108.88,82.6s1.64,9.62-3.95,11.67h-4l-1.1-11.44S105.67,81.16,108.88,82.6Z" style="fill:#27042b"/><path d="M93.44,81.21V87L88.71,83.4S90.29,83.35,93.44,81.21Z" style="fill:#642243"/><polygon points="74.57 81.37 74.57 74.51 75.81 74.51 81.59 71.42 81.14 72.97 82.1 79.83 74.57 81.37" style="fill:#398074"/><polygon points="74.57 79.42 83.84 79.42 88.71 83.4 85.65 88.14 82.18 94.27 74.57 94.27 74.57 79.42" style="fill:#002f32"/><rect x="74.57" y="94.27" width="7.62" height="2.05" style="fill:#33766b"/><rect x="74.57" y="96.32" width="7.62" height="2.05" style="fill:#004f55"/><rect x="74.57" y="98.36" width="7.57" height="2.05" style="fill:#33766b"/><path d="M74.57,100.41h7.57a82.12,82.12,0,0,1,5.71,12.28l-6.26,10.86-4.29-1.71-2-6.32L74.57,103Z" style="fill:#014a50"/><polygon points="74.57 47.55 82.18 47.55 87.12 61.83 84.6 66.53 74.57 66.53 74.57 47.55" style="fill:#075258"/><polygon points="74.57 66.53 84.6 66.53 81.14 72.97 74.57 75.33 74.57 66.53" style="fill:#003f42"/><polygon points="101.41 63.36 87.12 61.83 85.76 57.13 99.82 60.64 101.41 63.36" style="fill:#96af42"/><path d="M96.33,74.86s-7.87,5.41-12.49,4.56l4.87,4a11.65,11.65,0,0,0,7.62-5.46Z" style="fill:#707f39"/><polygon points="83.84 79.42 81.14 72.97 81.97 79.42 83.84 79.42" style="fill:#276559"/><polygon points="105.12 64.48 96.33 74.86 101.41 63.36 105.12 64.48" style="fill:#2f0021"/><polygon points="109.18 67.43 99.82 82.83 98.05 82.01 98.05 75.38 105.95 66.53 109.18 67.43" style="fill:#300224"/><polygon points="93.44 86.95 85.41 88.56 88.71 83.4 93.44 86.95" style="fill:#310023"/><polygon points="67 100.41 74.29 107.98 74.57 107.98 74.57 100.41 67 100.41" style="fill:#f9a945"/><polygon points="82.14 100.41 74.57 100.41 74.57 107.98 74.84 107.98 82.14 100.41" style="fill:#f38d30"/><polygon points="65.36 115.41 64.82 156.2 68.97 156.23 68.97 115.41 65.36 115.41" style="fill:#202424"/><path d="M62.81,123.45H62v7.82s2.63,8.2,2.4,11.69h2V123.45Z" style="fill:#d98326"/><polygon points="66.36 142.96 62.81 142.96 62.81 152.47 67.22 147.83 67.22 142.84 66.36 142.96" style="fill:#171b1a"/><polygon points="61.74 155.22 61.68 156.1 61.5 156.21 57.09 158.81 57.09 165.16 61.5 165.16 61.5 159.05 66.31 154 66.31 150.42 61.74 155.22" style="fill:#50617b"/><polygon points="66.62 154.25 68.4 154.25 68.4 156.94 67.55 156.94 67.55 165.16 61.5 165.16 61.5 158.73 66.31 153.24 66.62 154.25" style="fill:#121718"/><path d="M66.77,151.91h-1v-.49h1a.73.73,0,0,0,.71-.75v-2.76a.73.73,0,0,0-.71-.75h-.54v-.48h.54a1.2,1.2,0,0,1,1.17,1.23v2.76A1.21,1.21,0,0,1,66.77,151.91Z" style="fill:#99bb5a"/><rect x="64.3" y="148.65" width="1.37" height="3.77" style="fill:#323331"/><path d="M58.71,166l0-4.86H57.34l-2.3,4.1a.79.79,0,0,0,0,.76Z" style="fill:#f28c30"/><path d="M61.5,110.77h7.62v35H62.84s.21-15.07-4.23-19.15v-1.7a35.93,35.93,0,0,1,2.89-14.1Z" style="fill:#111b26"/><polygon points="69.12 110.77 71.61 113.38 69.12 145.72 69.12 110.77" style="fill:#839b44"/><path d="M69,166a.79.79,0,0,0,0-.76l-2.29-4.1H65.38l0,4.86Z" style="fill:#f28c30"/><path d="M58.61,126.57l10.51-15.8v4.64L61,130.75A13.43,13.43,0,0,0,58.61,126.57Z" style="fill:#7b2e52"/><polygon points="71.61 113.38 74 113.38 73.88 115.52 71.84 121.84 70.78 122.26 71.61 113.38" style="fill:#738338"/><polygon points="77.48 113.38 75.08 113.38 75.2 115.52 77.24 121.84 78.3 122.26 77.48 113.38" style="fill:#839b44"/><polygon points="83.3 115.46 83.84 156.25 79.7 156.28 79.7 115.46 83.3 115.46" style="fill:#202424"/><path d="M85.86,123.5h.8v7.82S84,139.52,84.25,143H82.31V123.5Z" style="fill:#d98326"/><polygon points="82.31 143.01 85.86 143.01 85.86 152.52 81.45 147.88 81.45 142.89 82.31 143.01" style="fill:#171b1a"/><polygon points="86.93 155.28 86.98 156.15 87.16 156.26 91.58 158.86 91.58 165.21 87.16 165.21 87.16 159.1 82.36 154.05 82.36 150.47 86.93 155.28" style="fill:#31465b"/><polygon points="82.05 154.3 80.27 154.3 80.27 156.99 81.12 156.99 81.12 165.21 87.16 165.21 87.16 158.78 82.36 153.29 82.05 154.3" style="fill:#121718"/><path d="M81.9,152h1v-.48h-1a.74.74,0,0,1-.71-.76V148a.73.73,0,0,1,.71-.75h.54v-.48H81.9A1.2,1.2,0,0,0,80.73,148v2.76A1.21,1.21,0,0,0,81.9,152Z" style="fill:#99bb5a"/><rect x="82.99" y="148.7" width="1.37" height="3.77" transform="translate(167.36 301.18) rotate(180)" style="fill:#323331"/><path d="M90,166.05l0-4.86h1.34l2.29,4.1a.79.79,0,0,1,0,.76Z" style="fill:#f28c30"/><path d="M87.16,110.82H79.54v35h6.29s-.21-15.07,4.23-19.15v-1.7a35.76,35.76,0,0,0-2.9-14.1Z" style="fill:#000815"/><polygon points="79.54 110.82 77.06 113.43 79.54 145.77 79.54 110.82" style="fill:#738338"/><path d="M79.66,166.05a.79.79,0,0,1,0-.76l2.3-4.1h1.33l0,4.86Z" style="fill:#f28c30"/><path d="M90.06,126.62l-10.52-15.8v4.64l8.15,15.34A13.19,13.19,0,0,1,90.06,126.62Z" style="fill:#5c193c"/><path d="M69.12,110.77l-4.61-6.85s2-3.51,2.49-3.51L74.29,108l-.29,5.4H71.61Z" style="fill:#41042b"/><path d="M64.51,103.92a17.43,17.43,0,0,0-3,6.85h7.62Z" style="fill:#7b2e52"/><path d="M79.8,110.77l4.45-6.85s-2-3.51-2.39-3.51l-7,7.57.28,5.4h2.31Z" style="fill:#41042b"/><path d="M84.25,103.92a17.74,17.74,0,0,1,2.9,6.85H79.8Z" style="fill:#6b2146"/><rect x="70.8" y="53.31" width="1.21" height="7.31"/><rect x="77.13" y="53.47" width="1.21" height="7.31"/></g></g></svg>