<svg xmlns="http://www.w3.org/2000/svg" xmlns:xlink="http://www.w3.org/1999/xlink" viewBox="0 0 148.25 207.55"><defs><linearGradient id="Degradado_sin_nombre_6" x1="-14.83" y1="192.72" x2="163.07" y2="14.83" gradientUnits="userSpaceOnUse"><stop offset="0" stop-color="aqua"/><stop offset="1" stop-color="blue"/></linearGradient></defs><title>Asset 152</title><g id="Layer_2" data-name="Layer 2"><g id="Layer_3" data-name="Layer 3"><rect width="148.25" height="207.55" style="fill:url(#Degradado_sin_nombre_6)"/><g style="opacity:0.45"><polygon points="81.46 42.48 74.61 42.48 9.2 107.89 9.2 114.74 81.46 42.48" style="fill:#00158e;opacity:0.2"/><polygon points="100.7 42.48 93.86 42.48 9.2 127.14 9.2 133.99 100.7 42.48" style="fill:#00158e;opacity:0.2"/><polygon points="62.21 42.48 55.36 42.48 9.2 88.64 9.2 95.49 62.21 42.48" style="fill:#00158e;opacity:0.2"/><polygon points="42.96 42.48 36.11 42.48 9.2 69.39 9.2 76.24 42.96 42.48" style="fill:#00158e;opacity:0.2"/><polygon points="23.71 42.48 16.86 42.48 9.2 50.15 9.2 56.99 23.71 42.48" style="fill:#00158e;opacity:0.2"/><path d="M109.19,42.48v3.91L12.91,142.68H9.2v30.51H139.91V42.48Zm0,100.2H96.75l12.44-12.45Zm0-19.3L89.9,142.68H77.5L109.19,111Zm0-19.24L70.65,142.68H58.25l50.94-50.94Zm0-19.25L51.4,142.68H39l70.19-70.19Zm0-19.25-77,77H19.75l89.44-89.44Z" style="fill:#00158e;opacity:0.2"/><polygon points="137.04 170.78 137.04 144.34 132.26 149.12 132.26 166 115.38 166 110.6 170.78 137.04 170.78" style="fill:#0751cf"/><rect x="138.48" y="73.94" width="2.99" height="35.67" style="fill:gold"/><rect x="138.48" y="116.78" width="2.99" height="4.98" style="fill:gold"/><rect x="27.5" y="172.37" width="48.42" height="2.39" style="fill:gold"/><polygon points="25 162.87 28.86 162.87 32.98 158.74 26.54 158.74 17.25 168.03 19.83 168.03 25 162.87" style="fill:gold"/><polygon points="33.37 162.87 37.23 162.87 41.35 158.74 34.91 158.74 25.63 168.03 28.21 168.03 33.37 162.87" style="fill:gold"/><polygon points="41.74 162.87 45.61 162.87 49.73 158.74 43.28 158.74 34 168.03 36.58 168.03 41.74 162.87" style="fill:gold"/><polygon points="50.12 162.87 53.98 162.87 58.1 158.74 51.66 158.74 42.37 168.03 44.95 168.03 50.12 162.87" style="fill:gold"/><polygon points="58.49 162.87 62.35 162.87 66.48 158.74 60.03 158.74 50.75 168.03 53.33 168.03 58.49 162.87" style="fill:gold"/><polygon points="66.87 162.87 70.73 162.87 74.85 158.74 68.41 158.74 59.12 168.03 61.7 168.03 66.87 162.87" style="fill:gold"/><polygon points="75.24 162.87 79.1 162.87 83.22 158.74 76.78 158.74 67.5 168.03 70.08 168.03 75.24 162.87" style="fill:gold"/><polygon points="83.62 162.87 87.48 162.87 91.6 158.74 85.16 158.74 75.87 168.03 78.45 168.03 83.62 162.87" style="fill:gold"/><path d="M126.23,37.77H111.29V34.19h14.94Zm-14.35-.6h13.75V34.78H111.88Z" style="fill:#0751cf"/><path d="M144,145.57h-2.59V134.21H144Zm-2-.6h1.4V134.81H142Z" style="fill:#0751cf"/><path d="M102.92,181.24H85.58v-3.79h17.34Zm-16.74-.6h16.14v-2.59H86.18Z" style="fill:#0751cf"/><path d="M17.24,180.44H10.66v-2.39h6.58Zm-6-.6h5.38v-1.2H11.26Z" style="fill:gold"/><path d="M6.88,168.88H4.49V149H6.88Zm-1.8-.6h1.2V149.55H5.08Z" style="fill:gold"/><polygon points="95.84 36.87 95.84 36.72 28.05 36.72 28.05 35.34 95.69 35.34 95.69 36.87 95.84 36.87 95.84 36.72 95.84 36.87 95.99 36.87 95.99 35.04 27.75 35.04 27.75 37.01 95.99 37.01 95.99 36.87 95.84 36.87" style="fill:gold"/></g><polygon points="34.49 64.02 48.37 61 39.96 68.7 34.49 64.02" style="fill:#c66665"/><polygon points="58.92 53.25 56.47 52.44 56.47 50.08 65.52 50.08 65.52 53.25 58.92 53.25" style="fill:#060a0f"/><path d="M53.83,51.09V40.87a1.79,1.79,0,1,0-1.89-1.78,1.77,1.77,0,0,0,1.5,1.78V51.49h3v-.4Z" style="fill:#060a0f"/><path d="M59.32,154.45A2.4,2.4,0,0,1,57,152V141.51A2.41,2.41,0,0,1,59.32,139h.32v-1.4h-.32a3.79,3.79,0,0,0-3.69,3.87V152a3.79,3.79,0,0,0,3.69,3.87H63.7v-1.41Z" style="fill:#1e100b"/><path d="M42.44,92.46A2.42,2.42,0,0,1,40.08,90V79.52a2.42,2.42,0,0,1,2.36-2.47h.32v-1.4h-.32a3.78,3.78,0,0,0-3.69,3.87V90a3.78,3.78,0,0,0,3.69,3.87h4.38v-1.4Z" style="fill:#1e100b"/><polygon points="54.44 69.71 61.95 59.49 61.95 55.56 48.37 61 54.44 69.71" style="fill:#7b2e52"/><polygon points="46.93 81.11 48.21 101.05 54.44 102.56 54.44 82.12 46.93 81.11" style="fill:#90619c"/><path d="M52.05,62.17A33.93,33.93,0,0,1,48.37,61s-9.26,3-8.94,11.39c0,0,1.92,12.09,15,9.73V62.34Z" style="fill:#451b46"/><polygon points="48.21 88.7 42.78 90.2 51.41 107.28 54.44 107.28 54.44 89.6 48.21 88.7" style="fill:#451b46"/><rect x="54.44" y="65.52" width="2.4" height="13.57" style="fill:#323534"/><polygon points="54.44 79.1 61.95 84.75 61.95 59.49 56.84 66.45 56.84 79.1 54.44 79.1" style="fill:#c66665"/><rect x="61.94" y="61.85" width="10.06" height="2.17" style="fill:#7e3c40"/><polygon points="68.87 109.82 68.87 160.03 61.15 160.03 61.15 113.29 68.87 109.82" style="fill:#360711"/><polygon points="57.11 81.11 57.11 100.39 57.11 108.54 64.66 116.58 64.66 84.75 61.95 84.62 57.11 81.11" style="fill:#6b2e32"/><polygon points="72 84.75 72 106.53 64.66 114.23 64.66 84.75 72 84.75" style="fill:#4a151c"/><polygon points="72 106.53 72 116.58 68.87 124.17 68.87 109.82 72 106.53" style="fill:#7e3c40"/><polygon points="64.66 140.54 64.66 115.71 57.11 108.54 57.11 118.59 60.96 127.64 60.96 136.4 64.66 140.54" style="fill:#e9b063"/><polygon points="60.94 160.03 56.84 163.88 56.84 170.25 68.87 170.25 68.87 160.03 60.94 160.03" style="fill:#73457e"/><rect x="61.94" y="64.02" width="10.06" height="5.7" style="fill:#944447"/><polygon points="72 40.06 72 64.02 61.95 64.02 61.95 47.43 61.92 47.4 66.38 40.06 72 40.06" style="fill:#a95456"/><rect x="66.97" y="46.33" width="1.89" height="9.72" style="fill:#4a151c"/><polygon points="66.26 40.06 61.95 38.72 58.73 43.27 61.92 47.4 66.38 40.06 66.26 40.06" style="fill:#7e3c40"/><polygon points="57.11 108.54 57.11 103.29 72 103.29 72 105.64 59.98 111.26 57.11 108.54" style="fill:#8e555a"/><polygon points="60.96 136.4 59.01 136.4 59.01 140.93 64.66 146.75 64.66 140.54 60.96 136.4" style="fill:#8e555a"/><rect x="64.66" y="140.54" width="4.2" height="6.21" style="fill:#6b2e32"/><polygon points="59.01 136.4 57.11 118.59 60.96 127.64 60.96 136.4 59.01 136.4" style="fill:#90619c"/><polygon points="56.84 163.88 64.66 146.75 67.47 146.75 61.15 160.03 56.84 163.88" style="fill:#90619c"/><polygon points="61.15 160.03 68.87 160.03 68.87 157.69 62.27 157.69 61.15 160.03" style="fill:#a26daa"/><rect x="54.8" y="165.81" width="14.07" height="4.44" style="fill:#542e5f"/><polygon points="54.8 165.81 55.97 164.58 56.84 164.58 56.84 165.81 54.8 165.81" style="fill:#2c0b37"/><rect x="53.69" y="168.82" width="4.12" height="1.43" style="fill:#2c0b37"/><polygon points="53.69 168.82 54.79 167.66 54.79 168.82 53.69 168.82" style="fill:#2c0b37"/><rect x="59.24" y="168.82" width="4.12" height="1.43" style="fill:#2c0b37"/><rect x="64.72" y="168.82" width="4.12" height="1.43" style="fill:#2c0b37"/><path d="M50.92,120.54H49.33A1.35,1.35,0,0,1,48,119.15v-4.3a1.35,1.35,0,0,1,1.32-1.39H50.9V114H49.33a.81.81,0,0,0-.79.83v4.3a.81.81,0,0,0,.79.83h1.59Z" style="fill:#5c544b"/><polygon points="54.46 100.56 55.66 103.31 49.89 103.98 54.46 100.56" style="fill:#8b4346"/><polygon points="53.41 105.73 48.34 105.73 48.04 105.82 50.27 115.49 54.17 115.44 54.3 111.74 53.27 110.38 53.41 105.73" style="fill:#d37830"/><polygon points="55.66 103.31 53.35 105.73 49.89 105.73 49.89 103.98 55.66 103.31" style="fill:#c66665"/><rect x="51.17" y="115.42" width="1.61" height="5.24" style="fill:#332116"/><polygon points="50.79 118.04 48.51 120.46 48.51 127.95 49.34 127.95 51.17 122.41 51.97 122.41 51.97 118.04 50.79 118.04" style="fill:#332116"/><polygon points="53.15 118.04 55.43 120.46 55.43 127.95 54.6 127.95 52.77 122.41 51.97 122.41 51.97 118.04 53.15 118.04" style="fill:#1e100b"/><polygon points="54.3 111.74 55.66 103.31 53.35 105.73 53.27 110.38 54.3 111.74" style="fill:#b96528"/><polygon points="39.96 68.7 34.49 64.02 43.23 64.02 39.96 68.7" style="fill:#7b2e52"/><polygon points="109.51 64.02 95.64 61 104.05 68.7 109.51 64.02" style="fill:#b25858"/><polygon points="85.09 53.25 87.54 52.44 87.54 50.08 78.49 50.08 78.49 53.25 85.09 53.25" style="fill:#060a0f"/><path d="M90.18,51.09V40.87a1.7,1.7,0,1,1,.39,0V51.49h-3v-.4Z" style="fill:#060a0f"/><path d="M84.69,154.45A2.4,2.4,0,0,0,87,152V141.51A2.41,2.41,0,0,0,84.69,139h-.32v-1.4h.32a3.79,3.79,0,0,1,3.69,3.87V152a3.79,3.79,0,0,1-3.69,3.87H80.31v-1.41Z" style="fill:#1e100b"/><path d="M101.57,92.46A2.41,2.41,0,0,0,103.92,90V79.52a2.41,2.41,0,0,0-2.35-2.47h-.32v-1.4h.32a3.79,3.79,0,0,1,3.69,3.87V90a3.79,3.79,0,0,1-3.69,3.87H97.19v-1.4Z" style="fill:#1e100b"/><polygon points="89.57 69.71 82.06 59.49 82.06 55.56 95.64 61 89.57 69.71" style="fill:#641941"/><polygon points="97.08 81.11 95.8 101.05 89.57 102.56 89.57 82.12 97.08 81.11" style="fill:#7a4d84"/><path d="M92,62.17A33.93,33.93,0,0,0,95.64,61s9.26,3,8.94,11.39c0,0-1.92,12.09-15,9.73V62.34Z" style="fill:#26022c"/><polygon points="95.8 88.7 101.22 90.2 92.6 107.28 89.57 107.28 89.57 89.6 95.8 88.7" style="fill:#1d0427"/><rect x="87.17" y="65.52" width="2.4" height="13.57" transform="translate(176.74 144.62) rotate(180)" style="fill:#262928"/><polygon points="89.57 79.1 82.06 84.75 82.06 59.49 87.17 66.45 87.17 79.1 89.57 79.1" style="fill:#a85154"/><rect x="72" y="61.85" width="10.06" height="2.17" transform="translate(154.07 125.87) rotate(180)" style="fill:#7e3c40"/><polygon points="75.14 109.82 75.14 160.03 82.86 160.03 82.86 113.29 75.14 109.82" style="fill:#24020b"/><polygon points="86.9 81.11 86.9 100.39 86.9 108.54 79.34 116.58 79.34 84.75 82.06 84.75 86.9 81.11" style="fill:#4c1b21"/><polygon points="72 84.75 72 106.53 79.34 114.23 79.34 84.75 72 84.75" style="fill:#36040f"/><polygon points="72 106.53 72 116.58 75.14 124.17 75.14 109.82 72 106.53" style="fill:#7e3c40"/><polygon points="79.34 140.54 79.34 115.71 86.9 108.54 86.9 118.59 83.05 127.64 83.05 136.4 79.34 140.54" style="fill:#bd8942"/><polygon points="83.07 160.03 87.17 163.88 87.17 170.25 75.14 170.25 75.14 160.03 83.07 160.03" style="fill:#55295e"/><rect x="72" y="64.02" width="10.06" height="5.7" style="fill:#5c2429"/><polygon points="82.09 47.4 82.06 47.43 82.06 64.02 72 64.02 72 40.06 77.63 40.06 82.09 47.4" style="fill:#8b4346"/><rect x="75.14" y="46.33" width="1.89" height="9.72" transform="translate(152.17 102.37) rotate(180)" style="fill:#4a151c"/><polygon points="77.75 40.06 82.06 38.72 85.28 43.27 82.09 47.4 77.63 40.06 77.75 40.06" style="fill:#652d31"/><polygon points="86.9 108.54 86.9 103.29 72 103.29 72 105.64 84.03 111.26 86.9 108.54" style="fill:#723e47"/><polygon points="83.05 136.4 85 136.4 85 140.93 79.34 146.75 79.34 140.54 83.05 136.4" style="fill:#6c3b43"/><rect x="75.14" y="140.54" width="4.2" height="6.21" transform="translate(154.48 287.29) rotate(180)" style="fill:#501b22"/><polygon points="85 136.4 86.9 118.59 83.05 127.64 83.05 136.4 85 136.4" style="fill:#7e4c85"/><polygon points="87.17 163.88 79.34 146.75 76.54 146.75 82.86 160.03 87.17 163.88" style="fill:#754a7f"/><polygon points="82.86 160.03 75.14 160.03 75.14 157.69 81.74 157.69 82.86 160.03" style="fill:#8b559e"/><rect x="75.14" y="165.81" width="14.07" height="4.44" transform="translate(164.35 336.06) rotate(180)" style="fill:#3a1946"/><polygon points="89.21 165.81 88.04 164.58 87.17 164.58 87.17 165.81 89.21 165.81" style="fill:#2c0b37"/><rect x="86.2" y="168.82" width="4.12" height="1.43" transform="translate(176.52 339.06) rotate(180)" style="fill:#2c0b37"/><polygon points="90.32 168.82 89.22 167.66 89.22 168.82 90.32 168.82" style="fill:#2c0b37"/><rect x="80.65" y="168.82" width="4.12" height="1.43" transform="translate(165.42 339.06) rotate(180)" style="fill:#2c0b37"/><rect x="75.17" y="168.82" width="4.12" height="1.43" transform="translate(154.46 339.06) rotate(180)" style="fill:#2c0b37"/><path d="M93.09,120.54h1.59A1.35,1.35,0,0,0,96,119.15v-4.3a1.35,1.35,0,0,0-1.32-1.39H93.1V114h1.58a.81.81,0,0,1,.79.83v4.3a.81.81,0,0,1-.79.83H93.09Z" style="fill:#160806"/><polygon points="89.55 100.56 88.35 103.31 94.12 103.98 89.55 100.56" style="fill:#703236"/><polygon points="90.6 105.73 95.67 105.73 95.97 105.82 93.74 115.49 89.84 115.44 89.71 111.74 90.74 110.38 90.6 105.73" style="fill:#b66529"/><polygon points="88.35 103.31 90.66 105.73 94.12 105.73 94.12 103.98 88.35 103.31" style="fill:#b05758"/><rect x="91.23" y="115.42" width="1.61" height="5.24" transform="translate(184.08 236.08) rotate(180)" style="fill:#332116"/><polygon points="93.22 118.04 95.5 120.46 95.5 127.95 94.67 127.95 92.84 122.41 92.04 122.41 92.04 118.04 93.22 118.04" style="fill:#160806"/><polygon points="90.86 118.04 88.57 120.46 88.57 127.95 89.41 127.95 91.24 122.41 92.04 122.41 92.04 118.04 90.86 118.04" style="fill:#1e100b"/><polygon points="89.71 111.74 88.35 103.31 90.66 105.73 90.74 110.38 89.71 111.74" style="fill:#a35524"/><polygon points="104.05 68.7 109.51 64.02 100.78 64.02 104.05 68.7" style="fill:#6a2647"/><polygon points="54.44 79.1 56.84 79.1 61.92 79.1 61.95 84.75 54.44 79.1" style="fill:#7b2e52"/><polygon points="82.06 84.75 82.06 79.1 89.57 79.1 82.06 84.75" style="fill:#641941"/><path d="M49,68l-1.71,1.79L45.61,68a.75.75,0,0,0-1.1,0l-.51.53a.86.86,0,0,0,0,1.16l1.71,1.79L44,73.26a.86.86,0,0,0,0,1.16l.51.53a.75.75,0,0,0,1.1,0l1.71-1.8L49,75a.75.75,0,0,0,1.1,0l.51-.53a.84.84,0,0,0,0-1.16l-1.71-1.8,1.71-1.79a.84.84,0,0,0,0-1.16L50.13,68A.75.75,0,0,0,49,68Z" style="fill:#90619c"/><path d="M97.11,68,95.4,69.77,93.69,68a.76.76,0,0,0-1.11,0l-.5.53a.84.84,0,0,0,0,1.16l1.71,1.79-1.71,1.8a.84.84,0,0,0,0,1.16l.5.53a.76.76,0,0,0,1.11,0l1.71-1.8L97.11,75a.75.75,0,0,0,1.1,0l.51-.53a.86.86,0,0,0,0-1.16L97,71.46l1.71-1.79a.86.86,0,0,0,0-1.16L98.21,68A.75.75,0,0,0,97.11,68Z" style="fill:#754c7e"/><rect x="61.91" y="69.71" width="10.09" height="15.04" style="fill:#1d0427"/><rect x="72" y="69.71" width="10.07" height="15.04" style="fill:#0b001b"/><polygon points="72 74.96 66.96 69.67 72 69.67 72 74.96" style="fill:#c66665"/><polygon points="72 74.96 77.05 69.67 72 69.67 72 74.96" style="fill:#ac5354"/><polygon points="67.2 77.23 61.91 82.28 61.91 77.23 67.2 77.23" style="fill:#90619c"/><polygon points="67.2 77.23 61.91 72.19 61.91 77.23 67.2 77.23" style="fill:#7e5088"/><polygon points="72 79.46 77.05 84.75 72 84.75 72 79.46" style="fill:#176a36"/><polygon points="72 79.46 66.96 84.75 72 84.75 72 79.46" style="fill:#3e7c3b"/><polygon points="76.78 76.66 82.08 71.62 82.08 76.66 76.78 76.66" style="fill:#b96528"/><polygon points="76.78 76.66 82.08 81.71 82.08 76.66 76.78 76.66" style="fill:#d37830"/></g></g></svg>